<?xml version="1.0" encoding="UTF-8"?>
<svg xmlns="http://www.w3.org/2000/svg" version="1.1" xmlns:xlink="http://www.w3.org/1999/xlink" viewBox="0 0 378 378">
  <defs>
    <style>
      .cls-1 {
        opacity: .9;
      }

      .cls-2 {
        fill: #ffadae;
      }

      .cls-3 {
        fill: #534741;
      }

      .cls-4 {
        fill: #fff;
      }

      .cls-5 {
        fill: #352f2d;
      }

      .cls-6 {
        fill: #ffc0c3;
      }

      .cls-7 {
        fill: none;
        stroke: #ed6d69;
        stroke-linecap: round;
        stroke-miterlimit: 10;
      }

      .cls-8 {
        fill: #c98397;
      }

      .cls-9 {
        fill: #736357;
      }

      .cls-10 {
        fill: #333;
      }

      .cls-11 {
        fill: #ed6d69;
      }

      .cls-12 {
        fill: url(#linear-gradient);
      }

      .cls-13 {
        fill: #594c47;
      }
    </style>
    <linearGradient id="linear-gradient" x1="0" y1="189" x2="378" y2="189" gradientUnits="userSpaceOnUse">
      <stop offset="0" stop-color="#ddd9ed"/>
      <stop offset="1" stop-color="#b0acbd"/>
    </linearGradient>
  </defs>
  <!-- Generator: Adobe Illustrator 28.7.4, SVG Export Plug-In . SVG Version: 1.2.0 Build 166)  -->
  <g>
    <g id="Layer_2">
      <circle class="cls-12" cx="189" cy="189" r="189"/>
      <g>
        <path class="cls-5" d="M154.5,137.7c-14.1,10.3-22.2,35-12.8,44.9,9.4,9.9,2.7,26.8,15.7,32,13,5.2,47.2,13,66.5,0s32.3-33.9,21.8-56.5c-9.5-20.5-12.2-14.1-19.3-23.1-7.1-9-24.4-21.8-46.8-12.6-20.5,8.4-11,4.9-25.1,15.2Z"/>
        <path class="cls-2" d="M189.1,144.8c-19.9,0-38.9,14.2-38.1,56.2.7,39.3,4.4,44.4,17.6,47.7,13.2,3.3,40.1-6.8,49.7-21.4,9.5-14.7,17.5-36.2,12.3-57.1-5.1-20.9-23.9-25.4-41.5-25.4Z"/>
        <line class="cls-7" x1="157.2" y1="222.9" x2="171.1" y2="228.1"/>
        <path class="cls-3" d="M184.3,193.2c-.3,0-.6-.2-.7-.5-3.5-5.2-7.4-2.9-7.8-2.6-.5.3-1.2.2-1.5-.3-.3-.5-.2-1.2.3-1.5,0,0,2.3-1.5,5.2-1,2.2.4,4.1,1.8,5.7,4.2.3.5.2,1.2-.3,1.5-.2.2-.5.2-.8.2Z"/>
        <path class="cls-3" d="M160.9,186c-.4,0-.8-.2-1-.7-.2-.4-.8-1.6-1.8-1.8-.5-.2-1,0-1.7.3-.5.3-1.2.2-1.5-.4-.3-.5-.2-1.2.4-1.5,1.5-.9,2.7-.8,3.5-.5,2,.7,3,2.8,3.1,3.1.2.6,0,1.2-.6,1.4-.1,0-.3,0-.4,0Z"/>
        <path class="cls-8" d="M173.7,244c-6.4-2.8-6.9-6.3-11.7-7.4-5.5-1.3-4.9,3.8-8.6-3.9,2.5,11.1,4.2,15.2,12.5,17.2,7.9,2,17.2.6,28.7-5.1-15.4,3.9-12.2,3-20.9-.8Z"/>
        <path class="cls-5" d="M150.5,183.7c6.4-2.2,16-15,20.4-12.7,7.2,3.8,8.2,6.5,11.5,12.7,7.2,13.6,19.1,8.9,27.1,11.4,8,2.6,4.4,9.7,10.3,13.4,5.9,3.8,4.5,8,4.5,8,0,0,22.8-35.7,6.5-57.7-14-18.8-19.7-32.9-47.6-25-33.7,9.5-32.7,49.9-32.7,49.9Z"/>
        <path class="cls-13" d="M189.4,165.9c6.6-11.8,19.2-20.3,32.3-23.2,1.9-.3,3.9-.6,5.8-.3-3.8.4-7.4,1.8-10.9,3.3-10.4,4.7-19.9,11.4-27.2,20.2h0Z"/>
        <g>
          <g>
            <path class="cls-9" d="M190.7,212.4c-1.4,0-2.7-1-3.5-2.3-.4-.7-.2-1.6.5-2,.7-.4,1.6-.2,2,.5.3.5.8.9,1,.9l28.4-16.6c.7-.4,1.6-.2,2,.5.4.7.2,1.6-.5,2l-28.4,16.6c-.5.3-1,.4-1.5.4Z"/>
            <path class="cls-10" d="M207.1,204.5c-1,0-2-.5-2.5-1.4-.8-1.4-.4-3.2,1-4l17.2-10.1c3.7-2.5,8.6-2.7,12-.5,2.1,1.4,5.4,4.9,3.8,13-.3,1.6-1.9,2.6-3.4,2.3-1.6-.3-2.6-1.8-2.3-3.4.7-3.5.2-6-1.3-7-1.4-.9-3.7-.7-5.6.6l-17.3,10.2c-.5.3-1,.4-1.5.4Z"/>
          </g>
          <g class="cls-1">
            <path class="cls-4" d="M144.8,184.4l16.5,8s-.6,9.9-4,12.1c-3.4,2.2-8.3-2.8-10.5-6.8s-2-13.4-2-13.4Z"/>
            <path class="cls-3" d="M155.5,206.2c-.4,0-.9,0-1.3-.2-3.3-.8-6.6-4.6-8.3-7.7-2.3-4.2-2.1-13.5-2.1-13.9,0-.4.2-.7.5-.9.3-.2.7-.2,1.1,0l16.5,8c.4.2.6.6.6,1.1,0,1.1-.7,10.5-4.5,13-.7.5-1.6.7-2.4.7ZM145.9,186.2c0,2.8.3,8.4,1.8,11.1,1.5,2.8,4.5,6,7,6.6.8.2,1.4.1,2-.3,2-1.3,3.2-6.9,3.5-10.5l-14.2-6.9Z"/>
          </g>
          <g class="cls-1">
            <path class="cls-4" d="M167.7,195.4l22.4,7.9s-.4,14.8-7.5,14.7c-7.1-.1-13.3-9.2-14.1-14.1-.7-4.9-.9-8.5-.9-8.5Z"/>
            <path class="cls-3" d="M182.7,219.1s0,0-.1,0c-7.9-.1-14.4-9.9-15.1-15-.7-4.9-.9-8.5-.9-8.7,0-.4.2-.7.4-.9.3-.2.7-.3,1-.2l22.4,7.9c.5.2.7.6.7,1.1,0,.6-.6,15.8-8.5,15.8ZM168.9,197c.1,1.5.3,3.9.8,6.8.7,4.4,6.6,13,13,13.1h0c4.6,0,6-8.6,6.3-12.9l-20.1-7.1Z"/>
          </g>
          <path class="cls-11" d="M166,192.5c-3.9-1.4-10.2,15.8-9,18,1.4,2.5,5,3.1,8,2.9s3.2-20.1,1-20.9Z"/>
          <ellipse class="cls-3" cx="178.3" cy="201.5" rx="2.7" ry="3.8"/>
          <ellipse class="cls-3" cx="157.8" cy="192.7" rx="2.7" ry="3.8"/>
        </g>
        <path class="cls-6" d="M223.8,196.7s4.5-6.1,9.6-3.7c4.7,2.3,4.6,11.8,1.4,18.4-3.2,6.5-11.1,7-12.9,2.4-1.9-4.7,1.3-16.2,1.9-17.1Z"/>
        <g>
          <path class="cls-7" d="M233.2,196.9c-4.3.7-8.7,5.7-7,13.9"/>
          <path class="cls-7" d="M226.4,203.5s1.8-1.1,5.3-.6"/>
        </g>
      </g>
    </g>
  </g>
</svg>