<?xml version="1.0" encoding="UTF-8"?>
<svg xmlns="http://www.w3.org/2000/svg" version="1.1" viewBox="0 0 273 764.5">
  <defs>
    <style>
      .cls-1 {
        opacity: .9;
      }

      .cls-2 {
        fill: #ffadae;
      }

      .cls-3 {
        fill: #b74848;
      }

      .cls-4 {
        fill: #534741;
      }

      .cls-5 {
        fill: #4d4d4d;
      }

      .cls-6 {
        fill: #fff;
      }

      .cls-7 {
        fill: #ceaa89;
      }

      .cls-8 {
        fill: #a58567;
      }

      .cls-9 {
        fill: #352f2d;
      }

      .cls-10 {
        fill: #ffc0c3;
      }

      .cls-11 {
        stroke: #ed6d69;
      }

      .cls-11, .cls-12 {
        fill: none;
        stroke-linecap: round;
        stroke-miterlimit: 10;
      }

      .cls-13 {
        fill: #c98397;
      }

      .cls-14 {
        fill: #736357;
      }

      .cls-15 {
        fill: #333;
      }

      .cls-12 {
        stroke: #000;
      }

      .cls-16 {
        fill: #1a1a1a;
      }

      .cls-17 {
        fill: #232323;
      }

      .cls-18 {
        fill: #ffe863;
      }

      .cls-19 {
        fill: #ed6d69;
      }

      .cls-20 {
        fill: #9d9acb;
      }

      .cls-21 {
        fill: #d8baa0;
      }

      .cls-22 {
        opacity: .5;
      }

      .cls-23 {
        fill: #594c47;
      }
    </style>
  </defs>
  <!-- Generator: Adobe Illustrator 28.7.4, SVG Export Plug-In . SVG Version: 1.2.0 Build 166)  -->
  <g>
    <g id="Layer_2">
      <g>
        <g class="cls-22">
          <ellipse class="cls-20" cx="140.9" cy="705.5" rx="132" ry="58.9"/>
        </g>
        <g>
          <g>
            <path class="cls-2" d="M93,109.6c4.2,15.3,3.1,93.8-4.6,118.6-7.7,24.7-35.4,59.2-47.7,92.5-12.3,33.3-13.3,58.1-13.1,65,.5,16.9-15.8,22.2-23.8,3.5-8-18.7,8.1-73.5,20-90.2,11.9-16.8,34.5-63.9,37.8-75.4,3.3-11.5,1.8-83.3,1.8-83.3,0,0-4.7-23.4,5.8-31.5,10.4-8.1,24,1,24,1Z"/>
            <path class="cls-15" d="M33.4,350.1l-1.8,9.9s-8.6,4-17.2,2.6c-8.7-1.4-14.4-5.2-14.4-5.2,0,0,2.4-10.4,4.4-15.1s29.1,7.8,29.1,7.8Z"/>
            <path class="cls-7" d="M66.7,106.3c10.2-13.4,21.2-11,26.3-.5,5.1,10.5,2.9,95.5.2,111.4s-28.5,60.1-36.4,75.4c-7.9,15.4-19.6,46.4-22.5,59.8,0,0-6.2,3.3-16.3,2.6-9.5-.6-17.4-9.3-17.4-9.3,0,0,11.9-38.1,24.4-54.4,12.5-16.3,31-62.6,32.9-69.3,2-6.7.2-46.1.2-46.1,0,0-1.7-56.3,8.5-69.7Z"/>
            <path class="cls-8" d="M78,253.3c3.1-22.1,4.7-47.1-.7-60.3-11-26.9-15.5-29.2-15.5-29.2,1.1,25.9.3,73.2-16.8,119.7-7.3,19.9-11.4,44.5-8.4,55.2h0c6-15,13.7-34.8,19.4-46.1,4.1-8,13.9-23.8,21.9-39.3Z"/>
            <circle class="cls-18" cx="29.6" cy="337.4" r="3.5"/>
          </g>
          <path class="cls-3" d="M214.4,683.1s-2.5-35.9-1.9-51.8c.4-10.1-19.9-20.9-23.7-3.9-3.9,17,6.4,39.2,4.1,62.4-2.2,23.2,25.6,16.6,21.5-6.7Z"/>
          <path class="cls-16" d="M210.8,712.4c-6.1,12.4-.2,24.7-16.2,38.9-15.9,14.2-32.4,14.9-31.2-3.8,1.1-18.7,47.4-35.1,47.4-35.1Z"/>
          <path class="cls-15" d="M188.2,691.5c-4,14.6-10,28.2-18.4,37.1-8.5,9-8,26.1-1.7,28.9,13.5,6,36.1-15.9,37.9-30.4,1.7-14.5,10.5-20.9,11.5-25.9,1-5,2.2-17.2-2.9-18.1,0,0,.7,9.1-6.3,11.9-7,2.8,1.6-8.3-9.7-10.2s-8.5.1-10.2,6.7Z"/>
          <path class="cls-12" d="M208.2,694.9s-3.4,22.5-14.3,34.4"/>
          <path class="cls-15" d="M199.2,364s-2.8,123.9-1,148.3c3.2,44.7,25.8,130.7,30.3,162.3,0,0-11.5,10.1-27.7,12.5-13.3,1.9-33.5-6.9-33.5-6.9,0,0-4.1-136.2-7.6-158.9-3.5-22.7-28.4-136.3-28.4-136.3l67.8-20.9Z"/>
          <path class="cls-16" d="M46.1,688.2s-.1,15.6,27.6,7.5c27.7-8.1,21.5-17.6,36-17.8,14.5-.2,12.8,5,20.7,3.6,7.9-1.3,12.6-7,9.6-12-3.9-3.3-39.1,4.4-54.6,5.7-15.5,1.3-39.3,12.9-39.3,12.9Z"/>
          <path class="cls-3" d="M131.6,622.7c-1.1,7.3,2.6,25.8,5.6,28.8,0,0-.4,16.1-16.1,16.1s-23.2-12-23.2-12c0,0,12.2-5,7.2-33.9-2.9-17,26.5,1,26.5,1Z"/>
          <path class="cls-15" d="M137.2,651.5s3.6,8.6,3,18.5c0,0-6.2,7.3-12,7.3s-8.8-3.2-18.7-3.2-23.9,15.7-39.6,18.9c-15.7,3.2-27.8-1.9-22.6-9.9,5.2-8,16.3-13.1,26.4-15.5,10.1-2.4,19.9-16.6,24.3-17.4,4.4-.8,8,11.2,18.7,11.2s20.6-9.9,20.6-9.9Z"/>
          <path class="cls-12" d="M105.7,656.1c-1,1-6.7,10.7-26.3,18.3"/>
          <path class="cls-15" d="M126.7,382.8s-14.8,83.9-13.8,100.3c1,16.4,23.5,146.6,24.5,161.1,0,0-5,8.1-23.2,10-18.2,1.9-32.8-5.5-32.8-5.5,0,0-1.8-156.1-5.3-169.6-3.5-13.5-8-156.5-8-156.5l58.6,60.1Z"/>
          <polygon class="cls-15" points="96.1 366 160.4 401.3 196.3 364 63.5 313.9 63.5 322.2 96.1 366"/>
          <path class="cls-4" d="M183.2,163.7v197.4s-15.9,7.4-70.7-15c-54.9-22.4-52.7-47.1-52.7-47.1l24.3-190.9,55.1,14.2,44,41.4Z"/>
          <path class="cls-18" d="M118.9,349.1c0,0-.1,0-.2,0-9-2.3-18-8.3-18.1-8.4-.2-.1-.3-.3-.3-.5v-12c0-.2.1-.4.3-.5.2-.1.4-.1.6,0l17.9,9c.2.1.4.3.4.6v11.3c0,.2,0,.4-.2.5-.1,0-.3.1-.4.1ZM101.6,339.7c1.5,1,9,5.7,16.7,7.8v-10.1l-16.7-8.3v10.6Z"/>
          <path class="cls-15" d="M183.2,157.7v191.4s-15.9,7.4-70.7-15c-54.9-22.4-52.7-47.1-52.7-47.1l24.3-184.9,55.1,9.4,44,46.2Z"/>
          <path class="cls-2" d="M218.2,179.6c8.3,13.5,29.3,89.2,28.8,115.1-.5,25.9-17.4,66.8-19.9,102.2-2.5,35.4,3.5,59.5,5.6,66,5.2,16-8.9,25.7-21.9,10-13-15.7-12.8-72.8-6.1-92.2,6.7-19.4,15.2-71,15.2-83s-21.6-80.5-21.6-80.5c0,0-11-21.2-3.3-31.9,7.7-10.7,23.3-5.7,23.3-5.7Z"/>
          <path class="cls-15" d="M228.3,427.2l1,9.7s-5.4,6.2-14.1,7.4c-8.7,1.1-15.3-1-15.3-1,0,0-2.2-10.5-1.7-15.5s30.1-.6,30.1-.6Z"/>
          <path class="cls-7" d="M164.6,133s44.8,34.4,52.6,43c7.8,8.6-13.8,77.1-13.8,77.1,0,0,3.9,73.7,4.7,87.5.8,13.7,3.5,29.2,3.5,29.2,0,0-18.4,15.2-44.1,15.2s-31.9-6.5-31.9-6.5c0,0-2.7-101.2,9.7-139.1,12.5-37.9,34.1-78.2,19.3-106.4Z"/>
          <path class="cls-8" d="M174.4,150.8c2.4,9.5,6,39.6,6.2,44.3,0,0-12.2,3.2-13,6.7-.8,3.6,10.9,1.3,14.7,6.5,3.7,5.2-39.1,48.2-45,88.4,0,0,2.4-48.9,16.6-79.8,14.2-30.9,21.7-71.6,4.9-83,0,0,13.3,7.3,15.7,16.8Z"/>
          <path class="cls-8" d="M208.1,340.6c-.8-13.7-4.7-87.5-4.7-87.5l-11.2-21.4c4.9,48.7.8,113.9-4.5,150.1,6.2-1.9,11.4-4.3,15.4-6.6-3.1,9.1,5.2-30.6,5-34.7Z"/>
          <path class="cls-7" d="M192.1,183.8c6-15.7,17.3-16.4,25.1-7.8,7.8,8.6,29.5,90.8,31.4,106.9,1.9,16.1-10.6,65.7-13.8,82.6-3.2,16.9-5.9,50-4.9,63.7,0,0-5,4.9-15,7.1-9.3,2.1-19.3-4-19.3-4,0,0-1.4-32.8,5.2-59.1,5.2-20.5,12.2-68.8,12.2-75.8s-9.7-44.4-9.7-44.4c0,0-17.4-53.6-11.3-69.3Z"/>
          <circle class="cls-18" cx="221.1" cy="416.1" r="3.5"/>
          <path class="cls-5" d="M192.4,226.5s0,0-.1,0c-.2,0-.2-.3-.1-.4,0,0,2.3-4.9-2-21.5-4.9-19.1,5.9-26.9,9.3-28.9,5.5-3.2,14.5-.2,14.8,0,.2,0,.3.2.2.4s-.2.3-.4.2c0,0-9-3-14.3,0-3.3,1.9-13.8,9.5-9,28.2,4.3,16.9,2,21.7,1.9,21.9,0,.1-.2.2-.3.2Z"/>
          <path class="cls-21" d="M151.1,118.1c6.1,1,20.9,20.1,23.4,29.6s3,39.6,3.2,44.3c0,0-12.2,3.2-13,6.7-.8,3.6,10.9,1.3,14.7,6.5,3.7,5.2-36.1,46.2-42,86.4,0,0-.6-46.9,13.6-77.8,14.2-30.9,22.6-75.8-1.1-89,0,0-2.8-7.5,1.3-6.8Z"/>
          <path class="cls-7" d="M95,117.7c-9.3,7.1-11.3,61.3-9,92.7,2.3,31.4-10.4,127.5-10.1,145,0,0-22.8-21.3-26.2-28.4-3.4-7.1,6.4-54.2,9.3-71.4,3-17.2,4-27.9,4-47.7s-7.1-100.2,12-110c22.6-11.7,19.9,19.8,19.9,19.8Z"/>
          <path class="cls-8" d="M90.3,106.1c-5.5,4.7-17.5,30.4-18.3,33.9,0,0,7,8.1,7.5,9,.5.9-8.9-.5-10.5.8-1.5,1.4,2.2,50.2,4.7,70.6,2.5,20.4,2.8,56.2,7.2,74.2,0,0,4-52.8,3.7-83.8-.2-31,1.2-74.6,7.3-85.8,6.1-11.2-1.8-18.9-1.8-18.9Z"/>
          <path class="cls-21" d="M91.3,102.1c-5.5,4.7-15.5,31.4-16.2,34.9,0,0,7,8.1,7.5,9,.5.9-8.9-.5-10.5.8-1.5,1.4,2.2,50.2,4.7,70.6,2.5,20.4,0,56.2,4.5,74.2,0,0,6.7-52.8,6.4-83.8-.2-31,1.2-74.6,7.3-85.8,6.1-11.2-3.8-19.9-3.8-19.9Z"/>
          <g>
            <path class="cls-6" d="M120.7,151.5c-1.8,0-3.7-.1-5.4-.4-5.3-.8-8.9-2.9-10.9-6.3-3.4-6-.3-13.9-.1-14.2,0-.2.3-.2.4-.2.2,0,.2.3.2.4,0,0-3.2,7.9,0,13.7,1.8,3.2,5.3,5.2,10.4,6,11.1,1.6,24.1-2.1,31.5-9,4-3.7,5.9-7.9,5.6-12,0-.2.1-.3.3-.3.2,0,.3.1.3.3.3,4.4-1.7,8.7-5.8,12.6-6.4,5.9-16.7,9.5-26.6,9.5Z"/>
            <path class="cls-17" d="M152.8,107.3v22.2c0,3.3-1.6,6.4-4.4,8.3-4.6,3-15.1,9.1-26.3,8.1-15.2-1.4-17.6-14.5-17.6-14.5l1.9-21.5,46.4-2.6Z"/>
          </g>
          <g>
            <path class="cls-9" d="M90.5,18.4c-14.1,10.3-22.2,35-12.8,44.9,9.4,9.9,2.7,26.8,15.7,32,13,5.2,47.2,13,66.5,0s32.3-33.9,21.8-56.5c-9.5-20.5-12.2-14.1-19.3-23.1-7.1-9-24.4-21.8-46.8-12.6-20.5,8.4-11,4.9-25.1,15.2Z"/>
            <path class="cls-2" d="M125.1,25.4c-19.9,0-38.9,14.2-38.1,56.2.7,39.3,4.4,44.4,17.6,47.7,13.2,3.3,40.1-6.8,49.7-21.4,9.5-14.7,17.5-36.2,12.3-57.1-5.1-20.9-23.9-25.4-41.5-25.4Z"/>
            <line class="cls-11" x1="93.2" y1="103.6" x2="107.1" y2="108.7"/>
            <path class="cls-4" d="M120.3,73.8c-.3,0-.6-.2-.7-.5-3.5-5.2-7.4-2.9-7.8-2.6-.5.3-1.2.2-1.5-.3-.3-.5-.2-1.2.3-1.5,0,0,2.3-1.5,5.2-1,2.2.4,4.1,1.8,5.7,4.2.3.5.2,1.2-.3,1.5-.2.2-.5.2-.8.2Z"/>
            <path class="cls-4" d="M96.9,66.7c-.4,0-.8-.2-1-.7-.2-.4-.8-1.6-1.8-1.8-.5-.2-1,0-1.7.3-.5.3-1.2.2-1.5-.4-.3-.5-.2-1.2.4-1.5,1.5-.9,2.7-.8,3.5-.5,2,.7,3,2.8,3.1,3.1.2.6,0,1.2-.6,1.4-.1,0-.3,0-.4,0Z"/>
            <path class="cls-13" d="M109.7,124.7c-6.4-2.8-6.9-6.3-11.7-7.4-5.5-1.3-4.9,3.8-8.6-3.9,2.5,11.1,4.2,15.2,12.5,17.2,7.9,2,17.2.6,28.7-5.1-15.4,3.9-12.2,3-20.9-.8Z"/>
            <path class="cls-9" d="M86.5,64.3c6.4-2.2,16-15,20.4-12.7,7.2,3.8,8.2,6.5,11.5,12.7,7.2,13.6,19.1,8.9,27.1,11.4,8,2.6,4.4,9.7,10.3,13.4,5.9,3.8,4.5,8,4.5,8,0,0,22.8-35.7,6.5-57.7-14-18.8-19.7-32.9-47.6-25-33.7,9.5-32.7,49.9-32.7,49.9Z"/>
            <path class="cls-23" d="M125.4,46.5c6.6-11.8,19.2-20.3,32.3-23.2,1.9-.3,3.9-.6,5.8-.3-3.8.4-7.4,1.8-10.9,3.3-10.4,4.7-19.9,11.4-27.2,20.2h0Z"/>
            <g>
              <g>
                <path class="cls-14" d="M126.7,93c-1.4,0-2.7-1-3.5-2.3-.4-.7-.2-1.6.5-2,.7-.4,1.6-.2,2,.5.3.5.8.9,1,.9l28.4-16.6c.7-.4,1.6-.2,2,.5.4.7.2,1.6-.5,2l-28.4,16.6c-.5.3-1,.4-1.5.4Z"/>
                <path class="cls-15" d="M143.2,85.1c-1,0-2-.5-2.5-1.4-.8-1.4-.4-3.2,1-4l17.2-10.1c3.7-2.5,8.6-2.7,12-.5,2.1,1.4,5.4,4.9,3.8,13-.3,1.6-1.9,2.6-3.4,2.3-1.6-.3-2.6-1.8-2.3-3.4.7-3.5.2-6-1.3-7-1.4-.9-3.7-.7-5.6.6l-17.3,10.2c-.5.3-1,.4-1.5.4Z"/>
              </g>
              <g class="cls-1">
                <path class="cls-6" d="M80.8,65.1l16.5,8s-.6,9.9-4,12.1c-3.4,2.2-8.3-2.8-10.5-6.8s-2-13.4-2-13.4Z"/>
                <path class="cls-4" d="M91.5,86.8c-.4,0-.9,0-1.3-.2-3.3-.8-6.6-4.6-8.3-7.7-2.3-4.2-2.1-13.5-2.1-13.9,0-.4.2-.7.5-.9.3-.2.7-.2,1.1,0l16.5,8c.4.2.6.6.6,1.1,0,1.1-.7,10.5-4.5,13-.7.5-1.6.7-2.4.7ZM81.9,66.8c0,2.8.3,8.4,1.8,11.1,1.5,2.8,4.5,6,7,6.6.8.2,1.4.1,2-.3,2-1.3,3.2-6.9,3.5-10.5l-14.2-6.9Z"/>
              </g>
              <g class="cls-1">
                <path class="cls-6" d="M103.7,76l22.4,7.9s-.4,14.8-7.5,14.7c-7.1-.1-13.3-9.2-14.1-14.1-.7-4.9-.9-8.5-.9-8.5Z"/>
                <path class="cls-4" d="M118.7,99.7s0,0-.1,0c-7.9-.1-14.4-9.9-15.1-15-.7-4.9-.9-8.5-.9-8.7,0-.4.2-.7.4-.9.3-.2.7-.3,1-.2l22.4,7.9c.5.2.7.6.7,1.1,0,.6-.6,15.8-8.5,15.8ZM104.9,77.6c.1,1.5.3,3.9.8,6.8.7,4.4,6.6,13,13,13.1h0c4.6,0,6-8.6,6.3-12.9l-20.1-7.1Z"/>
              </g>
              <path class="cls-19" d="M102,73.2c-3.9-1.4-10.2,15.8-9,18,1.4,2.5,5,3.1,8,2.9s3.2-20.1,1-20.9Z"/>
              <ellipse class="cls-4" cx="114.4" cy="82.2" rx="2.7" ry="3.8"/>
              <ellipse class="cls-4" cx="93.8" cy="73.4" rx="2.7" ry="3.8"/>
            </g>
            <path class="cls-10" d="M159.8,77.3s4.5-6.1,9.6-3.7c4.7,2.3,4.6,11.8,1.4,18.4-3.2,6.5-11.1,7-12.9,2.4-1.9-4.7,1.3-16.2,1.9-17.1Z"/>
            <g>
              <path class="cls-11" d="M169.2,77.5c-4.3.7-8.7,5.7-7,13.9"/>
              <path class="cls-11" d="M162.4,84.1s1.8-1.1,5.3-.6"/>
            </g>
          </g>
          <polygon class="cls-16" points="126.7 382.8 99.5 367.5 113.2 466.2 126.7 382.8"/>
        </g>
      </g>
    </g>
  </g>
</svg>