<?xml version="1.0" encoding="UTF-8"?>
<svg xmlns="http://www.w3.org/2000/svg" version="1.1" viewBox="0 0 611.6 453.4">
  <defs>
    <style>
      .cls-1 {
        fill: #cacae5;
      }

      .cls-2 {
        fill: #ddd9ed;
      }

      .cls-3 {
        fill: #8d8bc2;
      }

      .cls-4 {
        isolation: isolate;
      }

      .cls-5 {
        mix-blend-mode: multiply;
      }

      .cls-6 {
        fill: #f7f2f7;
      }

      .cls-7 {
        fill: #3b3362;
      }
    </style>
  </defs>
  <!-- Generator: Adobe Illustrator 28.7.4, SVG Export Plug-In . SVG Version: 1.2.0 Build 166)  -->
  <g class="cls-4">
    <g id="Layer_2">
      <g>
        <g class="cls-5">
          <path class="cls-7" d="M597.9,274c18.2,10.5,18.3,27.5.2,38.1l-229.7,133.5c-18.1,10.5-47.5,10.5-65.7,0l-231.2-133.5c-18.2-10.5-18.3-27.5-.2-38.1l229.7-133.5c18.1-10.5,47.5-10.5,65.7,0l231.2,133.5Z"/>
        </g>
        <g class="cls-4">
          <path class="cls-3" d="M559.3,145.7l-.4,139.8c0,6.2-4.1,12.4-12.2,17.1l.4-139.8c8.1-4.7,12.2-10.9,12.2-17.1Z"/>
          <path class="cls-2" d="M56.3,285.2l.4-139.8c0,6.3,4.1,12.6,12.4,17.4l-.4,139.8c-8.3-4.8-12.5-11.1-12.4-17.4Z"/>
          <polygon class="cls-3" points="547 162.8 546.6 302.6 338.2 423.7 338.6 283.9 547 162.8"/>
          <polygon class="cls-2" points="279 283.9 278.6 423.7 68.8 302.6 69.2 162.8 279 283.9"/>
          <path class="cls-1" d="M338.6,283.9l-.4,139.8c-16.4,9.5-43.1,9.5-59.6,0l.4-139.8c16.5,9.5,43.2,9.5,59.6,0Z"/>
          <path class="cls-6" d="M546.8,128.3c16.5,9.5,16.6,25,.2,34.5l-208.4,121.1c-16.4,9.5-43.1,9.5-59.6,0l-209.8-121.1c-16.5-9.5-16.6-25-.2-34.5L277.4,7.1c16.4-9.5,43.1-9.5,59.6,0l209.8,121.1Z"/>
        </g>
      </g>
    </g>
  </g>
</svg>