<?xml version="1.0" encoding="UTF-8"?>
<svg xmlns="http://www.w3.org/2000/svg" version="1.1" viewBox="0 0 1800 2400">
  <defs>
    <style>
      .cls-1, .cls-2, .cls-3, .cls-4, .cls-5, .cls-6, .cls-7, .cls-8, .cls-9, .cls-10, .cls-11, .cls-12, .cls-13, .cls-14, .cls-15, .cls-16, .cls-17, .cls-18, .cls-19, .cls-20, .cls-21, .cls-22, .cls-23, .cls-24, .cls-25, .cls-26, .cls-27, .cls-28, .cls-29, .cls-30, .cls-31, .cls-32, .cls-33 {
        stroke: #231f20;
      }

      .cls-1, .cls-2, .cls-5, .cls-7, .cls-9, .cls-10, .cls-11, .cls-13, .cls-14, .cls-16, .cls-17, .cls-18, .cls-19, .cls-23, .cls-24, .cls-25, .cls-27, .cls-28, .cls-29, .cls-30, .cls-31, .cls-32 {
        stroke-linejoin: round;
      }

      .cls-1, .cls-2, .cls-9, .cls-13, .cls-20, .cls-22, .cls-34, .cls-23, .cls-26, .cls-27, .cls-28 {
        fill: none;
      }

      .cls-1, .cls-10, .cls-13, .cls-19, .cls-31 {
        stroke-width: 3px;
      }

      .cls-2, .cls-5, .cls-9, .cls-10, .cls-12, .cls-13, .cls-14, .cls-16, .cls-17, .cls-18, .cls-21, .cls-22, .cls-23, .cls-25, .cls-27, .cls-29, .cls-32 {
        stroke-linecap: round;
      }

      .cls-2, .cls-12, .cls-18, .cls-22, .cls-28 {
        stroke-width: 2px;
      }

      .cls-3, .cls-4, .cls-6, .cls-8, .cls-12, .cls-15, .cls-20, .cls-21, .cls-22, .cls-34, .cls-26, .cls-33 {
        stroke-miterlimit: 10;
      }

      .cls-3, .cls-5, .cls-6, .cls-14, .cls-26, .cls-27, .cls-29, .cls-30, .cls-33 {
        stroke-width: 5px;
      }

      .cls-3, .cls-7, .cls-35, .cls-12, .cls-14, .cls-15, .cls-30, .cls-32 {
        fill: #fff;
      }

      .cls-4, .cls-7, .cls-8, .cls-11, .cls-21 {
        stroke-width: 6px;
      }

      .cls-4, .cls-24 {
        fill: #929497;
      }

      .cls-5 {
        fill: #d0d2d3;
      }

      .cls-6, .cls-18, .cls-21 {
        fill: #be1e2d;
      }

      .cls-8, .cls-36 {
        fill: #231f20;
      }

      .cls-9, .cls-15, .cls-16, .cls-17, .cls-20 {
        stroke-width: 4px;
      }

      .cls-10 {
        fill: #8a5d3b;
      }

      .cls-11, .cls-31 {
        fill: #404041;
      }

      .cls-16 {
        fill: #ffdd7f;
      }

      .cls-17, .cls-33 {
        fill: #00a69c;
      }

      .cls-19 {
        fill: #f1f1f2;
      }

      .cls-34 {
        stroke: #5a4a42;
        stroke-width: .5px;
      }

      .cls-23 {
        stroke-width: 2.5px;
      }

      .cls-24, .cls-25, .cls-32 {
        stroke-width: 8px;
      }

      .cls-25 {
        fill: #f05662;
      }

      .cls-29 {
        fill: #bbbdbf;
      }
    </style>
  </defs>
  <!-- Generator: Adobe Illustrator 28.7.4, SVG Export Plug-In . SVG Version: 1.2.0 Build 166)  -->
  <g>
    <g id="Layer_1">
      <g>
        <rect class="cls-33" x="0" y="0" width="1800" height="2400"/>
        <g>
          <g>
            <line class="cls-26" x1="130" y1="0" x2="130" y2="130"/>
            <line class="cls-26" x1="284" y1="0" x2="284" y2="130"/>
            <line class="cls-26" x1="438" y1="0" x2="438" y2="130"/>
            <line class="cls-26" x1="592" y1="0" x2="592" y2="130"/>
            <line class="cls-26" x1="746" y1="0" x2="746" y2="130"/>
            <line class="cls-26" x1="900" y1="0" x2="900" y2="130"/>
            <line class="cls-26" x1="1054" y1="0" x2="1054" y2="130"/>
            <line class="cls-26" x1="1208" y1="0" x2="1208" y2="130"/>
            <line class="cls-26" x1="1362" y1="0" x2="1362" y2="130"/>
            <line class="cls-26" x1="1516" y1="0" x2="1516" y2="130"/>
            <line class="cls-26" x1="1670" y1="0" x2="1670" y2="130"/>
          </g>
          <g>
            <line class="cls-20" x1="130" y1="0" x2="130" y2="72.1"/>
            <line class="cls-20" x1="160.8" y1="0" x2="160.8" y2="72.1"/>
            <line class="cls-20" x1="191.6" y1="0" x2="191.6" y2="72.1"/>
            <line class="cls-20" x1="222.4" y1="0" x2="222.4" y2="72.1"/>
            <line class="cls-20" x1="253.2" y1="0" x2="253.2" y2="72.1"/>
            <line class="cls-20" x1="284" y1="0" x2="284" y2="72.1"/>
            <line class="cls-20" x1="314.8" y1="0" x2="314.8" y2="72.1"/>
            <line class="cls-20" x1="345.6" y1="0" x2="345.6" y2="72.1"/>
            <line class="cls-20" x1="376.4" y1="0" x2="376.4" y2="72.1"/>
            <line class="cls-20" x1="407.2" y1="0" x2="407.2" y2="72.1"/>
            <line class="cls-20" x1="438" y1="0" x2="438" y2="72.1"/>
            <line class="cls-20" x1="468.8" y1="0" x2="468.8" y2="72.1"/>
            <line class="cls-20" x1="499.6" y1="0" x2="499.6" y2="72.1"/>
            <line class="cls-20" x1="530.4" y1="0" x2="530.4" y2="72.1"/>
            <line class="cls-20" x1="561.2" y1="0" x2="561.2" y2="72.1"/>
            <line class="cls-20" x1="592" y1="0" x2="592" y2="72.1"/>
            <line class="cls-20" x1="622.8" y1="0" x2="622.8" y2="72.1"/>
            <line class="cls-20" x1="653.6" y1="0" x2="653.6" y2="72.1"/>
            <line class="cls-20" x1="684.4" y1="0" x2="684.4" y2="72.1"/>
            <line class="cls-20" x1="715.2" y1="0" x2="715.2" y2="72.1"/>
            <line class="cls-20" x1="746" y1="0" x2="746" y2="72.1"/>
            <line class="cls-20" x1="776.8" y1="0" x2="776.8" y2="72.1"/>
            <line class="cls-20" x1="807.6" y1="0" x2="807.6" y2="72.1"/>
            <line class="cls-20" x1="838.4" y1="0" x2="838.4" y2="72.1"/>
            <line class="cls-20" x1="869.2" y1="0" x2="869.2" y2="72.1"/>
            <line class="cls-20" x1="900" y1="0" x2="900" y2="72.1"/>
            <line class="cls-20" x1="930.8" y1="0" x2="930.8" y2="72.1"/>
            <line class="cls-20" x1="961.6" y1="0" x2="961.6" y2="72.1"/>
            <line class="cls-20" x1="992.4" y1="0" x2="992.4" y2="72.1"/>
            <line class="cls-20" x1="1023.2" y1="0" x2="1023.2" y2="72.1"/>
            <line class="cls-20" x1="1054" y1="0" x2="1054" y2="72.1"/>
            <line class="cls-20" x1="1084.8" y1="0" x2="1084.8" y2="72.1"/>
            <line class="cls-20" x1="1115.6" y1="0" x2="1115.6" y2="72.1"/>
            <line class="cls-20" x1="1146.4" y1="0" x2="1146.4" y2="72.1"/>
            <line class="cls-20" x1="1177.2" y1="0" x2="1177.2" y2="72.1"/>
            <line class="cls-20" x1="1208" y1="0" x2="1208" y2="72.1"/>
            <line class="cls-20" x1="1238.8" y1="0" x2="1238.8" y2="72.1"/>
            <line class="cls-20" x1="1269.6" y1="0" x2="1269.6" y2="72.1"/>
            <line class="cls-20" x1="1300.4" y1="0" x2="1300.4" y2="72.1"/>
            <line class="cls-20" x1="1331.2" y1="0" x2="1331.2" y2="72.1"/>
            <line class="cls-20" x1="1362" y1="0" x2="1362" y2="72.1"/>
            <line class="cls-20" x1="1392.8" y1="0" x2="1392.8" y2="72.1"/>
            <line class="cls-20" x1="1423.6" y1="0" x2="1423.6" y2="72.1"/>
            <line class="cls-20" x1="1454.4" y1="0" x2="1454.4" y2="72.1"/>
            <line class="cls-20" x1="1485.2" y1="0" x2="1485.2" y2="72.1"/>
            <line class="cls-20" x1="1516" y1="0" x2="1516" y2="72.1"/>
            <line class="cls-20" x1="1546.8" y1="0" x2="1546.8" y2="72.1"/>
            <line class="cls-20" x1="1577.6" y1="0" x2="1577.6" y2="72.1"/>
            <line class="cls-20" x1="1608.4" y1="0" x2="1608.4" y2="72.1"/>
            <line class="cls-20" x1="1639.2" y1="0" x2="1639.2" y2="72.1"/>
            <line class="cls-20" x1="1670" y1="0" x2="1670" y2="72.1"/>
          </g>
        </g>
        <g>
          <g>
            <line class="cls-20" x1="130" y1="2327.9" x2="130" y2="2400"/>
            <line class="cls-20" x1="160.8" y1="2327.9" x2="160.8" y2="2400"/>
            <line class="cls-20" x1="191.6" y1="2327.9" x2="191.6" y2="2400"/>
            <line class="cls-20" x1="222.4" y1="2327.9" x2="222.4" y2="2400"/>
            <line class="cls-20" x1="253.2" y1="2327.9" x2="253.2" y2="2400"/>
            <line class="cls-20" x1="284" y1="2327.9" x2="284" y2="2400"/>
            <line class="cls-20" x1="314.8" y1="2327.9" x2="314.8" y2="2400"/>
            <line class="cls-20" x1="345.6" y1="2327.9" x2="345.6" y2="2400"/>
            <line class="cls-20" x1="376.4" y1="2327.9" x2="376.4" y2="2400"/>
            <line class="cls-20" x1="407.2" y1="2327.9" x2="407.2" y2="2400"/>
            <line class="cls-20" x1="438" y1="2327.9" x2="438" y2="2400"/>
            <line class="cls-20" x1="468.8" y1="2327.9" x2="468.8" y2="2400"/>
            <line class="cls-20" x1="499.6" y1="2327.9" x2="499.6" y2="2400"/>
            <line class="cls-20" x1="530.4" y1="2327.9" x2="530.4" y2="2400"/>
            <line class="cls-20" x1="561.2" y1="2327.9" x2="561.2" y2="2400"/>
            <line class="cls-20" x1="592" y1="2327.9" x2="592" y2="2400"/>
            <line class="cls-20" x1="622.8" y1="2327.9" x2="622.8" y2="2400"/>
            <line class="cls-20" x1="653.6" y1="2327.9" x2="653.6" y2="2400"/>
            <line class="cls-20" x1="684.4" y1="2327.9" x2="684.4" y2="2400"/>
            <line class="cls-20" x1="715.2" y1="2327.9" x2="715.2" y2="2400"/>
            <line class="cls-20" x1="746" y1="2327.9" x2="746" y2="2400"/>
            <line class="cls-20" x1="776.8" y1="2327.9" x2="776.8" y2="2400"/>
            <line class="cls-20" x1="807.6" y1="2327.9" x2="807.6" y2="2400"/>
            <line class="cls-20" x1="838.4" y1="2327.9" x2="838.4" y2="2400"/>
            <line class="cls-20" x1="869.2" y1="2327.9" x2="869.2" y2="2400"/>
            <line class="cls-20" x1="900" y1="2327.9" x2="900" y2="2400"/>
            <line class="cls-20" x1="930.8" y1="2327.9" x2="930.8" y2="2400"/>
            <line class="cls-20" x1="961.6" y1="2327.9" x2="961.6" y2="2400"/>
            <line class="cls-20" x1="992.4" y1="2327.9" x2="992.4" y2="2400"/>
            <line class="cls-20" x1="1023.2" y1="2327.9" x2="1023.2" y2="2400"/>
            <line class="cls-20" x1="1054" y1="2327.9" x2="1054" y2="2400"/>
            <line class="cls-20" x1="1084.8" y1="2327.9" x2="1084.8" y2="2400"/>
            <line class="cls-20" x1="1115.6" y1="2327.9" x2="1115.6" y2="2400"/>
            <line class="cls-20" x1="1146.4" y1="2327.9" x2="1146.4" y2="2400"/>
            <line class="cls-20" x1="1177.2" y1="2327.9" x2="1177.2" y2="2400"/>
            <line class="cls-20" x1="1208" y1="2327.9" x2="1208" y2="2400"/>
            <line class="cls-20" x1="1238.8" y1="2327.9" x2="1238.8" y2="2400"/>
            <line class="cls-20" x1="1269.6" y1="2327.9" x2="1269.6" y2="2400"/>
            <line class="cls-20" x1="1300.4" y1="2327.9" x2="1300.4" y2="2400"/>
            <line class="cls-20" x1="1331.2" y1="2327.9" x2="1331.2" y2="2400"/>
            <line class="cls-20" x1="1362" y1="2327.9" x2="1362" y2="2400"/>
            <line class="cls-20" x1="1392.8" y1="2327.9" x2="1392.8" y2="2400"/>
            <line class="cls-20" x1="1423.6" y1="2327.9" x2="1423.6" y2="2400"/>
            <line class="cls-20" x1="1454.4" y1="2327.9" x2="1454.4" y2="2400"/>
            <line class="cls-20" x1="1485.2" y1="2327.9" x2="1485.2" y2="2400"/>
            <line class="cls-20" x1="1516" y1="2327.9" x2="1516" y2="2400"/>
            <line class="cls-20" x1="1546.8" y1="2327.9" x2="1546.8" y2="2400"/>
            <line class="cls-20" x1="1577.6" y1="2327.9" x2="1577.6" y2="2400"/>
            <line class="cls-20" x1="1608.4" y1="2327.9" x2="1608.4" y2="2400"/>
            <line class="cls-20" x1="1639.2" y1="2327.9" x2="1639.2" y2="2400"/>
            <line class="cls-20" x1="1670" y1="2327.9" x2="1670" y2="2400"/>
          </g>
          <g>
            <line class="cls-26" x1="130" y1="2270" x2="130" y2="2400"/>
            <line class="cls-26" x1="284" y1="2270" x2="284" y2="2400"/>
            <line class="cls-26" x1="438" y1="2270" x2="438" y2="2400"/>
            <line class="cls-26" x1="592" y1="2270" x2="592" y2="2400"/>
            <line class="cls-26" x1="746" y1="2270" x2="746" y2="2400"/>
            <line class="cls-26" x1="900" y1="2270" x2="900" y2="2400"/>
            <line class="cls-26" x1="1054" y1="2270" x2="1054" y2="2400"/>
            <line class="cls-26" x1="1208" y1="2270" x2="1208" y2="2400"/>
            <line class="cls-26" x1="1362" y1="2270" x2="1362" y2="2400"/>
            <line class="cls-26" x1="1516" y1="2270" x2="1516" y2="2400"/>
            <line class="cls-26" x1="1670" y1="2270" x2="1670" y2="2400"/>
          </g>
        </g>
        <g>
          <g>
            <line class="cls-26" x1="1670" y1="130" x2="1800" y2="130"/>
            <line class="cls-26" x1="1670" y1="272.7" x2="1800" y2="272.7"/>
            <line class="cls-26" x1="1670" y1="415.3" x2="1800" y2="415.3"/>
            <line class="cls-26" x1="1670" y1="558" x2="1800" y2="558"/>
            <line class="cls-26" x1="1670" y1="700.7" x2="1800" y2="700.7"/>
            <line class="cls-26" x1="1670" y1="843.3" x2="1800" y2="843.3"/>
            <line class="cls-26" x1="1670" y1="986" x2="1800" y2="986"/>
            <line class="cls-26" x1="1670" y1="1128.7" x2="1800" y2="1128.7"/>
            <line class="cls-26" x1="1670" y1="1271.3" x2="1800" y2="1271.3"/>
            <line class="cls-26" x1="1670" y1="1414" x2="1800" y2="1414"/>
            <line class="cls-26" x1="1670" y1="1556.7" x2="1800" y2="1556.7"/>
            <line class="cls-26" x1="1670" y1="1699.3" x2="1800" y2="1699.3"/>
            <line class="cls-26" x1="1670" y1="1842" x2="1800" y2="1842"/>
            <line class="cls-26" x1="1670" y1="1984.7" x2="1800" y2="1984.7"/>
            <line class="cls-26" x1="1670" y1="2127.3" x2="1800" y2="2127.3"/>
            <line class="cls-26" x1="1670" y1="2270" x2="1800" y2="2270"/>
          </g>
          <g>
            <line class="cls-20" x1="1735" y1="130" x2="1800" y2="130"/>
            <line class="cls-20" x1="1735" y1="158.5" x2="1800" y2="158.5"/>
            <line class="cls-20" x1="1735" y1="187.1" x2="1800" y2="187.1"/>
            <line class="cls-20" x1="1735" y1="215.6" x2="1800" y2="215.6"/>
            <line class="cls-20" x1="1735" y1="244.1" x2="1800" y2="244.1"/>
            <line class="cls-20" x1="1735" y1="272.7" x2="1800" y2="272.7"/>
            <line class="cls-20" x1="1735" y1="301.2" x2="1800" y2="301.2"/>
            <line class="cls-20" x1="1735" y1="329.7" x2="1800" y2="329.7"/>
            <line class="cls-20" x1="1735" y1="358.3" x2="1800" y2="358.3"/>
            <line class="cls-20" x1="1735" y1="386.8" x2="1800" y2="386.8"/>
            <line class="cls-20" x1="1735" y1="415.3" x2="1800" y2="415.3"/>
            <line class="cls-20" x1="1735" y1="443.9" x2="1800" y2="443.9"/>
            <line class="cls-20" x1="1735" y1="472.4" x2="1800" y2="472.4"/>
            <line class="cls-20" x1="1735" y1="500.9" x2="1800" y2="500.9"/>
            <line class="cls-20" x1="1735" y1="529.5" x2="1800" y2="529.5"/>
            <line class="cls-20" x1="1735" y1="558" x2="1800" y2="558"/>
            <line class="cls-20" x1="1735" y1="586.5" x2="1800" y2="586.5"/>
            <line class="cls-20" x1="1735" y1="615.1" x2="1800" y2="615.1"/>
            <line class="cls-20" x1="1735" y1="643.6" x2="1800" y2="643.6"/>
            <line class="cls-20" x1="1735" y1="672.1" x2="1800" y2="672.1"/>
            <line class="cls-20" x1="1735" y1="700.7" x2="1800" y2="700.7"/>
            <line class="cls-20" x1="1735" y1="729.2" x2="1800" y2="729.2"/>
            <line class="cls-20" x1="1735" y1="757.7" x2="1800" y2="757.7"/>
            <line class="cls-20" x1="1735" y1="786.3" x2="1800" y2="786.3"/>
            <line class="cls-20" x1="1735" y1="814.8" x2="1800" y2="814.8"/>
            <line class="cls-20" x1="1735" y1="843.3" x2="1800" y2="843.3"/>
            <line class="cls-20" x1="1735" y1="871.9" x2="1800" y2="871.9"/>
            <line class="cls-20" x1="1735" y1="900.4" x2="1800" y2="900.4"/>
            <line class="cls-20" x1="1735" y1="928.9" x2="1800" y2="928.9"/>
            <line class="cls-20" x1="1735" y1="957.5" x2="1800" y2="957.5"/>
            <line class="cls-20" x1="1735" y1="986" x2="1800" y2="986"/>
            <line class="cls-20" x1="1735" y1="1014.5" x2="1800" y2="1014.5"/>
            <line class="cls-20" x1="1735" y1="1043.1" x2="1800" y2="1043.1"/>
            <line class="cls-20" x1="1735" y1="1071.6" x2="1800" y2="1071.6"/>
            <line class="cls-20" x1="1735" y1="1100.1" x2="1800" y2="1100.1"/>
            <line class="cls-20" x1="1735" y1="1128.7" x2="1800" y2="1128.7"/>
            <line class="cls-20" x1="1735" y1="1157.2" x2="1800" y2="1157.2"/>
            <line class="cls-20" x1="1735" y1="1185.7" x2="1800" y2="1185.7"/>
            <line class="cls-20" x1="1735" y1="1214.3" x2="1800" y2="1214.3"/>
            <line class="cls-20" x1="1735" y1="1242.8" x2="1800" y2="1242.8"/>
            <line class="cls-20" x1="1735" y1="1271.3" x2="1800" y2="1271.3"/>
            <line class="cls-20" x1="1735" y1="1299.9" x2="1800" y2="1299.9"/>
            <line class="cls-20" x1="1735" y1="1328.4" x2="1800" y2="1328.4"/>
            <line class="cls-20" x1="1735" y1="1356.9" x2="1800" y2="1356.9"/>
            <line class="cls-20" x1="1735" y1="1385.5" x2="1800" y2="1385.5"/>
            <line class="cls-20" x1="1735" y1="1414" x2="1800" y2="1414"/>
            <line class="cls-20" x1="1735" y1="1442.5" x2="1800" y2="1442.5"/>
            <line class="cls-20" x1="1735" y1="1471.1" x2="1800" y2="1471.1"/>
            <line class="cls-20" x1="1735" y1="1499.6" x2="1800" y2="1499.6"/>
            <line class="cls-20" x1="1735" y1="1528.1" x2="1800" y2="1528.1"/>
            <line class="cls-20" x1="1735" y1="1556.7" x2="1800" y2="1556.7"/>
            <line class="cls-20" x1="1735" y1="1585.2" x2="1800" y2="1585.2"/>
            <line class="cls-20" x1="1735" y1="1613.7" x2="1800" y2="1613.7"/>
            <line class="cls-20" x1="1735" y1="1642.3" x2="1800" y2="1642.3"/>
            <line class="cls-20" x1="1735" y1="1670.8" x2="1800" y2="1670.8"/>
            <line class="cls-20" x1="1735" y1="1699.3" x2="1800" y2="1699.3"/>
            <line class="cls-20" x1="1735" y1="1727.9" x2="1800" y2="1727.9"/>
            <line class="cls-20" x1="1735" y1="1756.4" x2="1800" y2="1756.4"/>
            <line class="cls-20" x1="1735" y1="1784.9" x2="1800" y2="1784.9"/>
            <line class="cls-20" x1="1735" y1="1813.5" x2="1800" y2="1813.5"/>
            <line class="cls-20" x1="1735" y1="1842" x2="1800" y2="1842"/>
            <line class="cls-20" x1="1735" y1="1870.5" x2="1800" y2="1870.5"/>
            <line class="cls-20" x1="1735" y1="1899.1" x2="1800" y2="1899.1"/>
            <line class="cls-20" x1="1735" y1="1927.6" x2="1800" y2="1927.6"/>
            <line class="cls-20" x1="1735" y1="1956.1" x2="1800" y2="1956.1"/>
            <line class="cls-20" x1="1735" y1="1984.7" x2="1800" y2="1984.7"/>
            <line class="cls-20" x1="1735" y1="2013.2" x2="1800" y2="2013.2"/>
            <line class="cls-20" x1="1735" y1="2041.7" x2="1800" y2="2041.7"/>
            <line class="cls-20" x1="1735" y1="2070.3" x2="1800" y2="2070.3"/>
            <line class="cls-20" x1="1735" y1="2098.8" x2="1800" y2="2098.8"/>
            <line class="cls-20" x1="1735" y1="2127.3" x2="1800" y2="2127.3"/>
            <line class="cls-20" x1="1735" y1="2155.9" x2="1800" y2="2155.9"/>
            <line class="cls-20" x1="1735" y1="2184.4" x2="1800" y2="2184.4"/>
            <line class="cls-20" x1="1735" y1="2212.9" x2="1800" y2="2212.9"/>
            <line class="cls-20" x1="1735" y1="2241.5" x2="1800" y2="2241.5"/>
            <line class="cls-20" x1="1735" y1="2270" x2="1800" y2="2270"/>
          </g>
        </g>
        <g>
          <g>
            <line class="cls-20" x1="0" y1="130" x2="65" y2="130"/>
            <line class="cls-20" x1="0" y1="158.5" x2="65" y2="158.5"/>
            <line class="cls-20" x1="0" y1="187.1" x2="65" y2="187.1"/>
            <line class="cls-20" x1="0" y1="215.6" x2="65" y2="215.6"/>
            <line class="cls-20" x1="0" y1="244.1" x2="65" y2="244.1"/>
            <line class="cls-20" x1="0" y1="272.7" x2="65" y2="272.7"/>
            <line class="cls-20" x1="0" y1="301.2" x2="65" y2="301.2"/>
            <line class="cls-20" x1="0" y1="329.7" x2="65" y2="329.7"/>
            <line class="cls-20" x1="0" y1="358.3" x2="65" y2="358.3"/>
            <line class="cls-20" x1="0" y1="386.8" x2="65" y2="386.8"/>
            <line class="cls-20" x1="0" y1="415.3" x2="65" y2="415.3"/>
            <line class="cls-20" x1="0" y1="443.9" x2="65" y2="443.9"/>
            <line class="cls-20" x1="0" y1="472.4" x2="65" y2="472.4"/>
            <line class="cls-20" x1="0" y1="500.9" x2="65" y2="500.9"/>
            <line class="cls-20" x1="0" y1="529.5" x2="65" y2="529.5"/>
            <line class="cls-20" x1="0" y1="558" x2="65" y2="558"/>
            <line class="cls-20" x1="0" y1="586.5" x2="65" y2="586.5"/>
            <line class="cls-20" x1="0" y1="615.1" x2="65" y2="615.1"/>
            <line class="cls-20" x1="0" y1="643.6" x2="65" y2="643.6"/>
            <line class="cls-20" x1="0" y1="672.1" x2="65" y2="672.1"/>
            <line class="cls-20" x1="0" y1="700.7" x2="65" y2="700.7"/>
            <line class="cls-20" x1="0" y1="729.2" x2="65" y2="729.2"/>
            <line class="cls-20" x1="0" y1="757.7" x2="65" y2="757.7"/>
            <line class="cls-20" x1="0" y1="786.3" x2="65" y2="786.3"/>
            <line class="cls-20" x1="0" y1="814.8" x2="65" y2="814.8"/>
            <line class="cls-20" x1="0" y1="843.3" x2="65" y2="843.3"/>
            <line class="cls-20" x1="0" y1="871.9" x2="65" y2="871.9"/>
            <line class="cls-20" x1="0" y1="900.4" x2="65" y2="900.4"/>
            <line class="cls-20" x1="0" y1="928.9" x2="65" y2="928.9"/>
            <line class="cls-20" x1="0" y1="957.5" x2="65" y2="957.5"/>
            <line class="cls-20" x1="0" y1="986" x2="65" y2="986"/>
            <line class="cls-20" x1="0" y1="1014.5" x2="65" y2="1014.5"/>
            <line class="cls-20" x1="0" y1="1043.1" x2="65" y2="1043.1"/>
            <line class="cls-20" x1="0" y1="1071.6" x2="65" y2="1071.6"/>
            <line class="cls-20" x1="0" y1="1100.1" x2="65" y2="1100.1"/>
            <line class="cls-20" x1="0" y1="1128.7" x2="65" y2="1128.7"/>
            <line class="cls-20" x1="0" y1="1157.2" x2="65" y2="1157.2"/>
            <line class="cls-20" x1="0" y1="1185.7" x2="65" y2="1185.7"/>
            <line class="cls-20" x1="0" y1="1214.3" x2="65" y2="1214.3"/>
            <line class="cls-20" x1="0" y1="1242.8" x2="65" y2="1242.8"/>
            <line class="cls-20" x1="0" y1="1271.3" x2="65" y2="1271.3"/>
            <line class="cls-20" x1="0" y1="1299.9" x2="65" y2="1299.9"/>
            <line class="cls-20" x1="0" y1="1328.4" x2="65" y2="1328.4"/>
            <line class="cls-20" x1="0" y1="1356.9" x2="65" y2="1356.9"/>
            <line class="cls-20" x1="0" y1="1385.5" x2="65" y2="1385.5"/>
            <line class="cls-20" x1="0" y1="1414" x2="65" y2="1414"/>
            <line class="cls-20" x1="0" y1="1442.5" x2="65" y2="1442.5"/>
            <line class="cls-20" x1="0" y1="1471.1" x2="65" y2="1471.1"/>
            <line class="cls-20" x1="0" y1="1499.6" x2="65" y2="1499.6"/>
            <line class="cls-20" x1="0" y1="1528.1" x2="65" y2="1528.1"/>
            <line class="cls-20" x1="0" y1="1556.7" x2="65" y2="1556.7"/>
            <line class="cls-20" x1="0" y1="1585.2" x2="65" y2="1585.2"/>
            <line class="cls-20" x1="0" y1="1613.7" x2="65" y2="1613.7"/>
            <line class="cls-20" x1="0" y1="1642.3" x2="65" y2="1642.3"/>
            <line class="cls-20" x1="0" y1="1670.8" x2="65" y2="1670.8"/>
            <line class="cls-20" x1="0" y1="1699.3" x2="65" y2="1699.3"/>
            <line class="cls-20" x1="0" y1="1727.9" x2="65" y2="1727.9"/>
            <line class="cls-20" x1="0" y1="1756.4" x2="65" y2="1756.4"/>
            <line class="cls-20" x1="0" y1="1784.9" x2="65" y2="1784.9"/>
            <line class="cls-20" x1="0" y1="1813.5" x2="65" y2="1813.5"/>
            <line class="cls-20" x1="0" y1="1842" x2="65" y2="1842"/>
            <line class="cls-20" x1="0" y1="1870.5" x2="65" y2="1870.5"/>
            <line class="cls-20" x1="0" y1="1899.1" x2="65" y2="1899.1"/>
            <line class="cls-20" x1="0" y1="1927.6" x2="65" y2="1927.6"/>
            <line class="cls-20" x1="0" y1="1956.1" x2="65" y2="1956.1"/>
            <line class="cls-20" x1="0" y1="1984.7" x2="65" y2="1984.7"/>
            <line class="cls-20" x1="0" y1="2013.2" x2="65" y2="2013.2"/>
            <line class="cls-20" x1="0" y1="2041.7" x2="65" y2="2041.7"/>
            <line class="cls-20" x1="0" y1="2070.3" x2="65" y2="2070.3"/>
            <line class="cls-20" x1="0" y1="2098.8" x2="65" y2="2098.8"/>
            <line class="cls-20" x1="0" y1="2127.3" x2="65" y2="2127.3"/>
            <line class="cls-20" x1="0" y1="2155.9" x2="65" y2="2155.9"/>
            <line class="cls-20" x1="0" y1="2184.4" x2="65" y2="2184.4"/>
            <line class="cls-20" x1="0" y1="2212.9" x2="65" y2="2212.9"/>
            <line class="cls-20" x1="0" y1="2241.5" x2="65" y2="2241.5"/>
            <line class="cls-20" x1="0" y1="2270" x2="65" y2="2270"/>
          </g>
          <g>
            <line class="cls-26" x1="0" y1="130" x2="130" y2="130"/>
            <line class="cls-26" x1="0" y1="272.7" x2="130" y2="272.7"/>
            <line class="cls-26" x1="0" y1="415.3" x2="130" y2="415.3"/>
            <line class="cls-26" x1="0" y1="558" x2="130" y2="558"/>
            <line class="cls-26" x1="0" y1="700.7" x2="130" y2="700.7"/>
            <line class="cls-26" x1="0" y1="843.3" x2="130" y2="843.3"/>
            <line class="cls-26" x1="0" y1="986" x2="130" y2="986"/>
            <line class="cls-26" x1="0" y1="1128.7" x2="130" y2="1128.7"/>
            <line class="cls-26" x1="0" y1="1271.3" x2="130" y2="1271.3"/>
            <line class="cls-26" x1="0" y1="1414" x2="130" y2="1414"/>
            <line class="cls-26" x1="0" y1="1556.7" x2="130" y2="1556.7"/>
            <line class="cls-26" x1="0" y1="1699.3" x2="130" y2="1699.3"/>
            <line class="cls-26" x1="0" y1="1842" x2="130" y2="1842"/>
            <line class="cls-26" x1="0" y1="1984.7" x2="130" y2="1984.7"/>
            <line class="cls-26" x1="0" y1="2127.3" x2="130" y2="2127.3"/>
            <line class="cls-26" x1="0" y1="2270" x2="130" y2="2270"/>
          </g>
        </g>
        <rect class="cls-3" x="130" y="130" width="1540" height="2140"/>
        <rect class="cls-19" x="150" y="150" width="1500" height="2100"/>
        <g>
          <line class="cls-34" x1="150" y1="150" x2="1650" y2="150"/>
          <line class="cls-34" x1="150" y1="181.8" x2="1650" y2="181.8"/>
          <line class="cls-34" x1="150" y1="213.6" x2="1650" y2="213.6"/>
          <line class="cls-34" x1="150" y1="245.5" x2="1650" y2="245.5"/>
          <line class="cls-34" x1="150" y1="277.3" x2="1650" y2="277.3"/>
          <line class="cls-34" x1="150" y1="309.1" x2="1650" y2="309.1"/>
          <line class="cls-34" x1="150" y1="340.9" x2="1650" y2="340.9"/>
          <line class="cls-34" x1="150" y1="372.7" x2="1650" y2="372.7"/>
          <line class="cls-34" x1="150" y1="404.5" x2="1650" y2="404.5"/>
          <line class="cls-34" x1="150" y1="436.4" x2="1650" y2="436.4"/>
          <line class="cls-34" x1="150" y1="468.2" x2="1650" y2="468.2"/>
          <line class="cls-34" x1="150" y1="500" x2="1650" y2="500"/>
          <line class="cls-34" x1="150" y1="531.8" x2="1650" y2="531.8"/>
          <line class="cls-34" x1="150" y1="563.6" x2="1650" y2="563.6"/>
          <line class="cls-34" x1="150" y1="595.5" x2="1650" y2="595.5"/>
          <line class="cls-34" x1="150" y1="627.3" x2="1650" y2="627.3"/>
          <line class="cls-34" x1="150" y1="659.1" x2="1650" y2="659.1"/>
          <line class="cls-34" x1="150" y1="690.9" x2="1650" y2="690.9"/>
          <line class="cls-34" x1="150" y1="722.7" x2="1650" y2="722.7"/>
          <line class="cls-34" x1="150" y1="754.5" x2="1650" y2="754.5"/>
          <line class="cls-34" x1="150" y1="786.4" x2="1650" y2="786.4"/>
          <line class="cls-34" x1="150" y1="818.2" x2="1650" y2="818.2"/>
          <line class="cls-34" x1="150" y1="850" x2="1650" y2="850"/>
          <line class="cls-34" x1="150" y1="881.8" x2="1650" y2="881.8"/>
          <line class="cls-34" x1="150" y1="913.6" x2="1650" y2="913.6"/>
          <line class="cls-34" x1="150" y1="945.5" x2="1650" y2="945.5"/>
          <line class="cls-34" x1="150" y1="977.3" x2="1650" y2="977.3"/>
          <line class="cls-34" x1="150" y1="1009.1" x2="1650" y2="1009.1"/>
          <line class="cls-34" x1="150" y1="1040.9" x2="1650" y2="1040.9"/>
          <line class="cls-34" x1="150" y1="1072.7" x2="1650" y2="1072.7"/>
          <line class="cls-34" x1="150" y1="1104.5" x2="1650" y2="1104.5"/>
          <line class="cls-34" x1="150" y1="1136.4" x2="1650" y2="1136.4"/>
          <line class="cls-34" x1="150" y1="1168.2" x2="1650" y2="1168.2"/>
          <line class="cls-34" x1="150" y1="1200" x2="1650" y2="1200"/>
          <line class="cls-34" x1="150" y1="1231.8" x2="1650" y2="1231.8"/>
          <line class="cls-34" x1="150" y1="1263.6" x2="1650" y2="1263.6"/>
          <line class="cls-34" x1="150" y1="1295.5" x2="1650" y2="1295.5"/>
          <line class="cls-34" x1="150" y1="1327.3" x2="1650" y2="1327.3"/>
          <line class="cls-34" x1="150" y1="1359.1" x2="1650" y2="1359.1"/>
          <line class="cls-34" x1="150" y1="1390.9" x2="1650" y2="1390.9"/>
          <line class="cls-34" x1="150" y1="1422.7" x2="1650" y2="1422.7"/>
          <line class="cls-34" x1="150" y1="1454.5" x2="1650" y2="1454.5"/>
          <line class="cls-34" x1="150" y1="1486.4" x2="1650" y2="1486.4"/>
          <line class="cls-34" x1="150" y1="1518.2" x2="1650" y2="1518.2"/>
          <line class="cls-34" x1="150" y1="1550" x2="1650" y2="1550"/>
          <line class="cls-34" x1="150" y1="1581.8" x2="1650" y2="1581.8"/>
          <line class="cls-34" x1="150" y1="1613.6" x2="1650" y2="1613.6"/>
          <line class="cls-34" x1="150" y1="1645.5" x2="1650" y2="1645.5"/>
          <line class="cls-34" x1="150" y1="1677.3" x2="1650" y2="1677.3"/>
          <line class="cls-34" x1="150" y1="1709.1" x2="1650" y2="1709.1"/>
          <line class="cls-34" x1="150" y1="1740.9" x2="1650" y2="1740.9"/>
          <line class="cls-34" x1="150" y1="1772.7" x2="1650" y2="1772.7"/>
          <line class="cls-34" x1="150" y1="1804.5" x2="1650" y2="1804.5"/>
          <line class="cls-34" x1="150" y1="1836.4" x2="1650" y2="1836.4"/>
          <line class="cls-34" x1="150" y1="1868.2" x2="1650" y2="1868.2"/>
          <line class="cls-34" x1="150" y1="1900" x2="1650" y2="1900"/>
          <line class="cls-34" x1="150" y1="1931.8" x2="1650" y2="1931.8"/>
          <line class="cls-34" x1="150" y1="1963.6" x2="1650" y2="1963.6"/>
          <line class="cls-34" x1="150" y1="1995.5" x2="1650" y2="1995.5"/>
          <line class="cls-34" x1="150" y1="2027.3" x2="1650" y2="2027.3"/>
          <line class="cls-34" x1="150" y1="2059.1" x2="1650" y2="2059.1"/>
          <line class="cls-34" x1="150" y1="2090.9" x2="1650" y2="2090.9"/>
          <line class="cls-34" x1="150" y1="2122.7" x2="1650" y2="2122.7"/>
          <line class="cls-34" x1="150" y1="2154.5" x2="1650" y2="2154.5"/>
          <line class="cls-34" x1="150" y1="2186.4" x2="1650" y2="2186.4"/>
          <line class="cls-34" x1="150" y1="2218.2" x2="1650" y2="2218.2"/>
          <line class="cls-34" x1="150" y1="2250" x2="1650" y2="2250"/>
        </g>
        <g>
          <line class="cls-34" x1="150" y1="150" x2="150" y2="2250"/>
          <line class="cls-34" x1="179.4" y1="150" x2="179.4" y2="2250"/>
          <line class="cls-34" x1="208.8" y1="150" x2="208.8" y2="2250"/>
          <line class="cls-34" x1="238.2" y1="150" x2="238.2" y2="2250"/>
          <line class="cls-34" x1="267.6" y1="150" x2="267.6" y2="2250"/>
          <line class="cls-34" x1="297.1" y1="150" x2="297.1" y2="2250"/>
          <line class="cls-34" x1="326.5" y1="150" x2="326.5" y2="2250"/>
          <line class="cls-34" x1="355.9" y1="150" x2="355.9" y2="2250"/>
          <line class="cls-34" x1="385.3" y1="150" x2="385.3" y2="2250"/>
          <line class="cls-34" x1="414.7" y1="150" x2="414.7" y2="2250"/>
          <line class="cls-34" x1="444.1" y1="150" x2="444.1" y2="2250"/>
          <line class="cls-34" x1="473.5" y1="150" x2="473.5" y2="2250"/>
          <line class="cls-34" x1="502.9" y1="150" x2="502.9" y2="2250"/>
          <line class="cls-34" x1="532.4" y1="150" x2="532.4" y2="2250"/>
          <line class="cls-34" x1="561.8" y1="150" x2="561.8" y2="2250"/>
          <line class="cls-34" x1="591.2" y1="150" x2="591.2" y2="2250"/>
          <line class="cls-34" x1="620.6" y1="150" x2="620.6" y2="2250"/>
          <line class="cls-34" x1="650" y1="150" x2="650" y2="2250"/>
          <line class="cls-34" x1="679.4" y1="150" x2="679.4" y2="2250"/>
          <line class="cls-34" x1="708.8" y1="150" x2="708.8" y2="2250"/>
          <line class="cls-34" x1="738.2" y1="150" x2="738.2" y2="2250"/>
          <line class="cls-34" x1="767.6" y1="150" x2="767.6" y2="2250"/>
          <line class="cls-34" x1="797.1" y1="150" x2="797.1" y2="2250"/>
          <line class="cls-34" x1="826.5" y1="150" x2="826.5" y2="2250"/>
          <line class="cls-34" x1="855.9" y1="150" x2="855.9" y2="2250"/>
          <line class="cls-34" x1="885.3" y1="150" x2="885.3" y2="2250"/>
          <line class="cls-34" x1="914.7" y1="150" x2="914.7" y2="2250"/>
          <line class="cls-34" x1="944.1" y1="150" x2="944.1" y2="2250"/>
          <line class="cls-34" x1="973.5" y1="150" x2="973.5" y2="2250"/>
          <line class="cls-34" x1="1002.9" y1="150" x2="1002.9" y2="2250"/>
          <line class="cls-34" x1="1032.4" y1="150" x2="1032.4" y2="2250"/>
          <line class="cls-34" x1="1061.8" y1="150" x2="1061.8" y2="2250"/>
          <line class="cls-34" x1="1091.2" y1="150" x2="1091.2" y2="2250"/>
          <line class="cls-34" x1="1120.6" y1="150" x2="1120.6" y2="2250"/>
          <line class="cls-34" x1="1150" y1="150" x2="1150" y2="2250"/>
          <line class="cls-34" x1="1179.4" y1="150" x2="1179.4" y2="2250"/>
          <line class="cls-34" x1="1208.8" y1="150" x2="1208.8" y2="2250"/>
          <line class="cls-34" x1="1238.2" y1="150" x2="1238.2" y2="2250"/>
          <line class="cls-34" x1="1267.6" y1="150" x2="1267.6" y2="2250"/>
          <line class="cls-34" x1="1297.1" y1="150" x2="1297.1" y2="2250"/>
          <line class="cls-34" x1="1326.5" y1="150" x2="1326.5" y2="2250"/>
          <line class="cls-34" x1="1355.9" y1="150" x2="1355.9" y2="2250"/>
          <line class="cls-34" x1="1385.3" y1="150" x2="1385.3" y2="2250"/>
          <line class="cls-34" x1="1414.7" y1="150" x2="1414.7" y2="2250"/>
          <line class="cls-34" x1="1444.1" y1="150" x2="1444.1" y2="2250"/>
          <line class="cls-34" x1="1473.5" y1="150" x2="1473.5" y2="2250"/>
          <line class="cls-34" x1="1502.9" y1="150" x2="1502.9" y2="2250"/>
          <line class="cls-34" x1="1532.4" y1="150" x2="1532.4" y2="2250"/>
          <line class="cls-34" x1="1561.8" y1="150" x2="1561.8" y2="2250"/>
          <line class="cls-34" x1="1591.2" y1="150" x2="1591.2" y2="2250"/>
          <line class="cls-34" x1="1620.6" y1="150" x2="1620.6" y2="2250"/>
          <line class="cls-34" x1="1650" y1="150" x2="1650" y2="2250"/>
        </g>
        <g>
          <path class="cls-36" d="M142,2292c0-3.6.7-6.3,2.2-8.1,1.1-1.4,2.7-2.1,4.7-2.1s1.8.2,2.5.5c.7.3,1.4.8,1.9,1.3.4.4.8,1,1.1,1.8.3.7.6,1.7.8,2.7.2,1.1.3,2.3.3,3.6,0,3.6-.7,6.3-2.1,8.1-1.1,1.4-2.7,2.1-4.7,2.1s-2.6-.4-3.6-1.1c-1-.8-1.8-1.9-2.3-3.5-.5-1.6-.8-3.3-.8-5.3ZM144.6,2292c0,3.1.4,5.2,1.2,6.4.6.9,1.6,1.3,2.8,1.3s2.1-.5,2.7-1.4c.9-1.3,1.3-3.5,1.3-6.6s-.4-5.3-1.2-6.4c-.6-.9-1.6-1.3-2.8-1.3s-2.4.7-3.1,2c-.7,1.3-1,3.3-1,6.1Z"/>
          <path class="cls-36" d="M302.2,2301.5v-14.1h-4.6v-1.8c1.4,0,2.3-.2,2.9-.4.6-.2,1.1-.6,1.4-1.1.4-.5.7-1.3.9-2.2h2v19.7h-2.7Z"/>
          <path class="cls-36" d="M450.3,2288.8c0-1,0-1.9.3-2.6.3-.9.7-1.7,1.3-2.4.6-.7,1.3-1.2,2.2-1.5.9-.3,1.8-.5,2.9-.5,2,0,3.5.5,4.7,1.6,1.1,1.1,1.7,2.5,1.7,4.3s-.1,1.5-.3,2.1c-.2.6-.6,1.2-1.1,1.7-.5.5-1.1,1.1-1.9,1.6-.3.2-1.4.8-3.2,1.8-.7.4-1.4.8-1.9,1.2-.6.4-1,.7-1.3,1.1-.3.3-.5.6-.7.9s-.3.6-.4,1.1h10.7v2.4h-13.5c.1-1.4.3-2.5.6-3.3.2-.7.6-1.4,1-2,.4-.6,1.1-1.2,1.9-1.8.4-.3,1.2-.8,2.6-1.6,1.4-.8,2.2-1.3,2.4-1.4.6-.4,1.1-.8,1.4-1.1.3-.3.5-.7.7-1.1.2-.4.2-.9.2-1.5,0-1.1-.3-2-1-2.7-.7-.7-1.6-1-2.8-1s-2.3.4-2.9,1.3c-.6.9-.9,2-1,3.6h-2.5Z"/>
          <path class="cls-36" d="M606.2,2295.5c0,1.4.4,2.5,1.1,3.2.7.7,1.7,1.1,3,1.1s2.4-.4,3.2-1.1c.8-.7,1.1-1.6,1.1-2.7s-.1-1.2-.3-1.7c-.2-.5-.6-.9-1-1.2-.5-.3-1.1-.5-1.9-.6-.5,0-1.3-.1-2.5-.1v-2c1.4,0,2.4,0,3-.2.6-.2,1.1-.5,1.5-1,.4-.5.5-1.1.5-1.9s-.3-1.7-.9-2.3c-.6-.6-1.5-.9-2.6-.9s-1.5.2-2.1.5c-.6.3-1,.8-1.3,1.4-.3.6-.5,1.4-.5,2.4h-2.4c0-1,.1-1.8.3-2.4.3-.9.7-1.7,1.3-2.3.6-.6,1.3-1.1,2.1-1.4.8-.3,1.7-.4,2.6-.4,1.9,0,3.4.5,4.5,1.5s1.6,2.3,1.6,3.8-.2,1.8-.7,2.5c-.4.7-1.1,1.2-1.9,1.5.7.2,1.2.5,1.6.8.6.4,1,.9,1.3,1.6.3.6.5,1.4.5,2.3s-.3,2.3-.9,3.3c-.6,1-1.4,1.7-2.5,2.2-1.1.5-2.3.7-3.6.7s-2.1-.2-3-.5c-.8-.3-1.5-.8-2-1.3-.5-.6-.9-1.2-1.2-2-.3-.7-.4-1.7-.5-2.7h2.5Z"/>
          <path class="cls-36" d="M766.2,2301.5v-4.8h-8.6v-2.4l9-12.4h2.1v12.7h2.9v2.2h-2.9v4.8h-2.5ZM766.2,2294.5v-8.8l-6.3,8.8h6.3Z"/>
          <path class="cls-36" d="M912.5,2292.8l1.6-10.5h10v2.4h-8.3l-.8,5.4c.6-.4,1.1-.7,1.7-.9.6-.2,1.3-.3,2-.3,1.6,0,3,.5,4.2,1.4,1.6,1.2,2.4,2.8,2.4,5s-.3,2.4-.8,3.4c-.6,1.1-1.4,1.9-2.4,2.5-1,.6-2.3.9-3.8.9s-2.6-.3-3.5-.8c-1-.5-1.7-1.2-2.2-2.2-.4-.7-.6-1.5-.7-2.5h2.5c.1,1,.5,1.8,1.2,2.4.7.6,1.6.9,2.8.9s2.3-.4,3.1-1.2c.8-.8,1.2-1.9,1.2-3.2s-.4-2.3-1.2-3.1c-.8-.8-1.8-1.2-3-1.2s-2.8.6-3.7,1.9h-2.1Z"/>
          <path class="cls-36" d="M1076.5,2287c-.2-1-.6-1.8-1.1-2.3-.6-.5-1.3-.7-2.2-.7s-1.6.3-2.3.8c-.7.5-1.2,1.3-1.7,2.4-.4,1.1-.7,2.5-.8,4.3,1-1.6,2.6-2.4,4.6-2.4s3.3.6,4.5,1.7c1.1,1.1,1.7,2.6,1.7,4.5s-.2,2.2-.7,3.3c-.5,1.1-1.2,1.9-2.2,2.5-1,.6-2.2.9-3.6.9-2,0-3.6-.6-4.8-1.9-1.4-1.5-2.2-4-2.2-7.3s.3-4.2.9-5.9c.6-1.7,1.4-2.9,2.5-3.8,1.1-.8,2.4-1.2,4-1.2s1.9.2,2.7.6c.6.3,1.1.7,1.6,1.1.4.5.7,1,1,1.5.2.6.4,1.2.4,2h-2.4ZM1068.8,2295.4c0,1.3.4,2.4,1.1,3.2.8.8,1.7,1.2,2.9,1.2s2.1-.4,2.8-1.2c.8-.8,1.1-1.9,1.1-3.2s-.4-2.3-1.1-3.1c-.7-.7-1.7-1.1-2.9-1.1s-2.2.4-2.9,1.1c-.7.7-1.1,1.8-1.1,3.1Z"/>
          <path class="cls-36" d="M1220,2284.8v-2.5h13.6v2.2c-1,1.2-1.8,2.2-2.4,3.1-1,1.4-1.8,3-2.7,4.7-.8,1.7-1.5,3.4-2.1,5.1-.4,1.2-.7,2.5-1,4.1h-2.7c.2-1.2.4-2.2.7-3.2.5-1.6,1.1-3.2,1.9-4.9.8-1.7,1.7-3.3,2.8-4.9.7-1.1,1.6-2.3,2.7-3.7h-10.8Z"/>
          <path class="cls-36" d="M1384.2,2291c.7.3,1.2.7,1.6,1,.5.4.9.9,1.1,1.6.3.6.4,1.4.4,2.3,0,1.8-.6,3.2-1.8,4.4-1.2,1.1-2.8,1.7-4.9,1.7s-3.7-.6-4.9-1.7c-1.2-1.1-1.8-2.6-1.8-4.3s.3-2.3.9-3.1,1.4-1.4,2.5-1.8c-.8-.3-1.4-.7-1.8-1.2-.6-.7-.9-1.6-.9-2.7,0-1.5.5-2.8,1.6-3.8,1.1-1,2.5-1.5,4.4-1.5s2.3.2,3.2.7c.9.5,1.6,1.1,2.1,1.9.5.8.7,1.7.7,2.6s-.2,1.6-.7,2.3c-.4.7-1.1,1.2-1.9,1.6ZM1376.7,2296c0,1.1.4,2,1.1,2.7.7.7,1.7,1,2.9,1s2.2-.3,2.9-1c.7-.7,1.1-1.6,1.1-2.7s-.4-2-1.1-2.7c-.7-.7-1.7-1-2.9-1s-2.2.3-2.9,1c-.7.7-1.1,1.6-1.1,2.7ZM1377.2,2287c0,.9.3,1.7.9,2.3.6.6,1.5.9,2.5.9s1.9-.3,2.6-.9c.7-.6,1-1.4,1-2.2s-.3-1.6-.9-2.2-1.5-.8-2.7-.8-2,.3-2.5.8c-.6.5-.9,1.3-.9,2.2Z"/>
          <path class="cls-36" d="M1530.9,2296.7c.2,1,.6,1.8,1.1,2.3.6.5,1.3.7,2.2.7s1.8-.3,2.5-.9c.7-.6,1.2-1.6,1.6-2.9.3-1,.5-2.2.6-3.7-.3.5-.6.9-.9,1.1-.4.4-1,.7-1.6,1-.6.2-1.4.4-2.2.4s-2.2-.3-3.2-.8-1.7-1.3-2.2-2.2c-.5-1-.7-2-.7-3.2s.2-2.2.7-3.3c.5-1.1,1.2-1.9,2.2-2.5s2.2-.9,3.6-.9c2,0,3.6.6,4.8,1.9,1.4,1.5,2.1,4,2.1,7.3s-.3,4.2-.9,5.9c-.6,1.7-1.4,2.9-2.5,3.8-1.1.8-2.4,1.2-4,1.2s-1.9-.2-2.7-.6c-.6-.3-1.1-.7-1.6-1.1-.4-.5-.7-1-1-1.5-.2-.6-.4-1.2-.4-2h2.4ZM1530.6,2288.4c0,1.3.4,2.4,1.1,3.1.7.7,1.7,1.1,2.9,1.1s2.2-.4,2.9-1.1c.7-.7,1.1-1.8,1.1-3.1s-.4-2.4-1.1-3.2c-.8-.8-1.7-1.2-2.9-1.2s-2.1.4-2.8,1.2c-.8.8-1.1,1.9-1.1,3.2Z"/>
        </g>
      </g>
      <g>
        <rect class="cls-30" x="706.8" y="2005" width="386.3" height="129.1"/>
        <g>
          <path class="cls-36" d="M796.9,2056.9v40.4h-7.3v-28.1c-1.8,2.3-3.6,4.3-5.4,5.8l-2.1-2.3c4.5-6.4,9.1-17.8,11.3-30.9l7.9,1.7c-1,4.8-2.6,9.4-4.4,13.4ZM837.1,2061.8h-5.3v17.6h-7.4v-4.7h-9c-1.3,8.8-5,17.6-15.2,23l-1.9-2.7c6.8-5.7,9-12.2,9.7-20.3h-7.9v-3.7h8.2c0-1.9,0-3.8,0-5.8v-3.4h-9.5v-3.7h9.5v-8.3h-6.2v-3.7h29.8v12h5.3v3.7ZM824.3,2061.8h-8.4v3.2c0,2,0,4-.2,6h8.6v-9.2ZM815.9,2058.1h8.4v-8.3h-8.4v8.3Z"/>
          <path class="cls-36" d="M867.8,2063.3h6.1v3.7h-6.1v22.4c0,8.5-6.7,11.2-16.9,4.9l.9-3c7.2,1.4,8.3.5,8.3-2.9v-12.5c-3.8,5.8-9.1,10.2-16,13.7l-1.5-2.6c8.2-6.2,11.7-11.1,15.6-20h-5.6c-.4,1.4-.8,2.6-1.1,3.7l-6.6-1.3c2-7.1,3.4-12.5,4.6-18.8l7,1.5c-.9,4-1.9,7.8-2.8,11.2h6.5v-14.7h-14.9v-3.7h27.7v3.5h-5.1v14.9ZM882.7,2086.5l.8-3.1c5,1.1,5.8-.4,5.6-5.5-.2-4.4-2.2-9.7-4.9-14,1.5-5.6,2.6-10.6,3.3-15.6h-5.3v49.1h-7.2v-54.5l6.7,1.7h5.1l2-1.4,6.8,2.8c-2.5,7.7-4.7,12.6-8,17.8,4.4,5.1,7.9,10.4,8.2,15.7.7,10.3-6.7,11.7-13.1,7Z"/>
          <path class="cls-36" d="M904.9,2044.5h27.1v43.9c0,9.2-7.3,10.2-16.8,4.5l.9-3c7.2,1.4,8.6,1.1,8.6-3.5v-10.9h-6.4c-1.6,9.2-5.2,17.3-13.2,22.7l-2-2.3c4.6-5.3,7.3-10.6,8.5-20.4h-5.6v-3.6h5.9c.2-3.1.4-6.5.4-10.6h-6.1v-3.6h6.1v-9.5h-7.4v-3.7ZM924.7,2071.9v-10.6h-5.2c-.1,3.6-.3,7.1-.7,10.6h5.9ZM924.7,2048.2h-5.1v9.5h5.1v-9.5ZM943.2,2085.6l.8-3c5.3,1.1,6.2-.2,5.8-5.9-.4-3.9-1.9-8.3-4.7-13,1.6-5.6,2.6-10.4,3.2-15.4h-6v49.1h-7.3v-54.6l7,1.8h5.5l2-1.6,6.8,2.8c-2.5,7.7-4.7,12.4-8,17.6,4.6,5,7.7,9.7,8.2,14.6,1,10.7-6.5,12.3-13.4,7.4Z"/>
          <path class="cls-36" d="M1017.7,2089.6l-3.2,8.1c-7.2-1.1-18.3-5.2-23.1-15.1-4.3,8.9-13.5,13.8-27.5,15.4l-.8-3c11.5-3,17.5-7.3,20.5-13.6h-18.5v-3.8h19.9c.5-1.7.8-3.6,1-5.6l8.1.6c-.2,1.7-.5,3.4-.8,5h21.9v3.8h-20.2c5.8,6.1,14.9,7.5,22.7,8.2ZM1015.7,2071.1h-51.4v-3.8h21.4v-4.7h-15.4v-3.8h15.4v-4.6h-19.1v-3.8h13.3c-2.2-2.5-4.8-5.1-6.6-6.7l1.7-2.7c3.7,1.3,9.7,4.2,12.8,6.5l-2.6,2.9h7.9c1.9-2.9,3.7-6.8,4.9-9.9l7.9,3.8c-2.1,2.2-4.5,4.3-7.1,6.1h14.8v3.8h-19.6v4.6h16v3.8h-16v4.7h22v3.8Z"/>
        </g>
        <g>
          <path class="cls-36" d="M731.8,2025.3c0,2.4-2,4.4-4.4,4.4s-4.4-2-4.4-4.4,2-4.4,4.4-4.4,4.4,2,4.4,4.4Z"/>
          <path class="cls-36" d="M1077,2025.3c0,2.4-2,4.4-4.4,4.4s-4.4-2-4.4-4.4,2-4.4,4.4-4.4,4.4,2,4.4,4.4Z"/>
          <path class="cls-36" d="M731.8,2113.7c0,2.4-2,4.4-4.4,4.4s-4.4-2-4.4-4.4,2-4.4,4.4-4.4,4.4,2,4.4,4.4Z"/>
          <path class="cls-36" d="M1077,2113.7c0,2.4-2,4.4-4.4,4.4s-4.4-2-4.4-4.4,2-4.4,4.4-4.4,4.4,2,4.4,4.4Z"/>
        </g>
      </g>
      <g>
        <rect class="cls-30" x="776.8" y="250.2" width="246.3" height="109.1"/>
        <g>
          <path class="cls-36" d="M854.5,281.3h30.8v41.8h-6.3v-5.1h-18.2v5.1h-6.3v-41.7ZM879,297.6v-13.1h-18.2v13.1h18.2ZM879,314.7v-14.1h-18.2v14.1h18.2Z"/>
          <path class="cls-36" d="M952.3,309.7l-4,6.3c-2.4-1.6-4.8-3.6-6.9-5.8v2.4h-8v11.2h-6.5v-11.2h-7.9v-2.7c-2.9,2.8-6.1,5.3-9.3,6.9l-1.4-2.3c6.9-5.4,13-13.8,16.1-22.5h-14.2v-3.4h16.7v-9.3h6.5v9.3h17.1v3.4h-16.3c4.2,8,10.8,13.8,18,17.8ZM926.9,309.6v-10c-2,3.6-4.6,7-7.6,10h7.6ZM940.7,309.6c-3-3.3-5.5-7.2-7.3-11.5v11.5h7.3Z"/>
        </g>
        <g>
          <path class="cls-36" d="M801.8,270.5c0,2.4-2,4.4-4.4,4.4s-4.4-2-4.4-4.4,2-4.4,4.4-4.4,4.4,2,4.4,4.4Z"/>
          <path class="cls-36" d="M1007,270.5c0,2.4-2,4.4-4.4,4.4s-4.4-2-4.4-4.4,2-4.4,4.4-4.4,4.4,2,4.4,4.4Z"/>
          <path class="cls-36" d="M801.8,339c0,2.4-2,4.4-4.4,4.4s-4.4-2-4.4-4.4,2-4.4,4.4-4.4,4.4,2,4.4,4.4Z"/>
          <path class="cls-36" d="M1007,339c0,2.4-2,4.4-4.4,4.4s-4.4-2-4.4-4.4,2-4.4,4.4-4.4,4.4,2,4.4,4.4Z"/>
        </g>
      </g>
    </g>
    <g id="Layer_2">
      <g>
        <g>
          <path class="cls-11" d="M1024.7,759.9c0,93.1,157.8,393.1-124.7,393.1s-124.7-300-124.7-393.1,9.4-178.3,124.7-178.3,124.7,85.2,124.7,178.3Z"/>
          <path class="cls-24" d="M1155.2,1310.9c-.7-11-1.9-26.2-8.1-49.1-1.9-7.2-5.5-18-5.5-18h0c-1.8-7.8-4.9-18.4-9.6-32.7-8.7-26.3-21.3-97-28.3-115.7-7-18.7-16.7-37.3-21.3-51.7-4.7-14.3-16-104.3-16.3-126.7-.3-22.3-8.7-55.3-22.7-72.7-14-17.3-53-15.7-61.3-16.3-8.3-.7-36.7-16-42-26.3-5.3-10.3,0-51.7,0-51.7l-40-8.2-40,8.2s5.3,41.4,0,51.7c-5.3,10.3-33.7,25.7-42,26.3-8.3.7-47.3-1-61.3,16.3-14,17.3-22.3,50.3-22.7,72.7-.3,22.3-11.7,112.3-16.3,126.7-4.7,14.3-14.3,33-21.3,51.7-7,18.7-19.7,89.3-28.3,115.7-4.7,14.2-7.7,24.9-9.6,32.7h0s-3.6,10.8-5.5,18c-6.2,22.9-7.4,38.1-8.1,49.1-1.7,14.1,9.1,14.3,9.1,14.3,0,0,1.9,4.9,5.3,5,3.4.2,6-.4,6-.4,0,0,3.2,5.4,8.5,5.6,5.3.3,7.4-1.9,7.4-1.9,0,0,2.9,2.1,7.7,2.4,4.8.2,6.1-5,6.1-5,0,0,1.7,1.5,4,1.6,5.6.3,5.5-7,7.8-13.7,1.5-4.5-.3-13.2.3-25.9.6-12.7-10.4-23.4-15-28.2-2-2.1-4.1-8.7-5.2-13,8-21.9,22.5-51.5,31.5-69.9,12-24.5,27.5-44.5,38-70,8.8-21.3,4.7-37.3,7.2-48.2,5.7-24.5,25.8-79.8,29.2-94.8,0,0,1.5,48.2,4.2,72s9.5,32.5,9.5,50.2-20.9,42.1-26,72.9c-5.5,33.2-16.4,69.9-16.4,129.1s28.5,174.2,29,196.6c.9,37.3,2.7,76,2.3,89-.3,13-7.7,39.7-7.7,93.2s21.7,85.8,26.3,124.2c4.7,38.3-.3,47.3-.3,58.7s1.8,11.8,1.8,16.2-5.2,12.2-5,20.7c.2,8.5-22,24-22.7,29.8,0,0-10.6,12.5-.4,17.8,0,0,2.5,7.8,10,5,0,0,3.5,7,12,3,0,0,3.8,6.2,15,1.2,0,0,2.5,4,12.2,4s11.8-5,14.8-12,6.2-5.5,6.2-13.2-1.5-18,0-22.3c1.5-4.3,5.3-4,6.7-8.5,1.3-4.5.3-13.7-5.5-19.3-5.8-5.7.7-14.2.7-24.7s-5.2-15.3-5.2-23.8c0-76.5,10.5-98.2,10.5-138.7s-3.2-62-3.2-85.5,8.5-28.5,13.5-53-1-103.5,4-124,19-87.4,7.5-126c0,0,10.3,9.3,13.3,4,3,5.3,13.3-4,13.3-4-11.5,38.6,2.5,105.5,7.5,126s-1,99.5,4,124,13.5,29.5,13.5,53-3.2,45-3.2,85.5,10.5,62.2,10.5,138.7-5.2,13.3-5.2,23.8,6.5,19,.7,24.7c-5.8,5.7-6.8,14.8-5.5,19.3,1.3,4.5,5.2,4.2,6.7,8.5,1.5,4.3,0,14.7,0,22.3s3.2,6.2,6.2,13.2,5,12,14.8,12,12.2-4,12.2-4c11.2,5,15-1.2,15-1.2,8.5,4,12-3,12-3,7.5,2.8,10-5,10-5,10.2-5.2-.4-17.8-.4-17.8-.8-5.9-22.9-21.3-22.7-29.8.2-8.5-5-16.3-5-20.7s1.8-4.8,1.8-16.2-5-20.3-.3-58.7c4.7-38.3,26.3-70.7,26.3-124.2s-7.3-80.2-7.7-93.2c-.3-13,1.5-51.7,2.3-89,.5-22.3,29-137.3,29-196.6s-10.9-95.9-16.4-129.1c-5.1-30.8-26-55.2-26-72.9s6.8-26.5,9.5-50.2,4.2-72,4.2-72c3.5,15,23.6,70.2,29.2,94.8,2.5,11-1.5,26.9,7.2,48.2,10.5,25.5,26,45.5,38,70,9,18.3,23.5,48,31.5,69.9-1.2,4.3-3.2,10.8-5.2,13-4.6,4.8-15.6,15.5-15,28.2.6,12.7-1.3,21.4.3,25.9,2.3,6.7,2.2,13.9,7.8,13.7,2.3-.1,4-1.6,4-1.6,0,0,1.4,5.2,6.1,5,4.8-.2,7.7-2.4,7.7-2.4,0,0,2.1,2.2,7.4,1.9,5.4-.3,8.5-5.6,8.5-5.6,0,0,2.6.5,6,.4,3.4-.2,5.3-5,5.3-5,0,0,10.7-.1,9.1-14.3Z"/>
          <g>
            <path class="cls-14" d="M1024.2,902.3c4,10.8-6.3,20.3-11.8,24-2.5,4.3,13.7,43-14.9,54.2s-47.7-8.9-47.7-8.9"/>
            <path class="cls-1" d="M995.9,949c1,3.7-1.3,6.9-4.8,7.8s-7-.9-7.9-4.6c-1-3.7,1-8.1,4.5-9,3.5-.9,7.3,2,8.2,5.7Z"/>
            <path class="cls-28" d="M992.9,949.7c.3,1.5-.8,2.6-2.3,2.9-1.5.3-2.9-.4-3.1-1.9-.3-1.5.7-3.2,2.2-3.5,1.5-.3,3,1.1,3.2,2.6Z"/>
            <path class="cls-27" d="M1024.2,902.3c4,10.8-6.3,20.3-11.8,24-2.5,4.3,13.7,43-14.9,54.2s-47.7-8.9-47.7-8.9"/>
          </g>
          <g>
            <path class="cls-14" d="M775.7,902.3c-4,10.8,6.3,20.3,11.8,24,2.5,4.3-13.7,43,14.9,54.2,27.6,10.8,47.7-8.9,47.7-8.9"/>
            <path class="cls-1" d="M804.1,949c-1,3.7,1.3,6.9,4.8,7.8,3.5.9,7-.9,7.9-4.6,1-3.7-1-8.1-4.5-9s-7.3,2-8.2,5.7Z"/>
            <path class="cls-28" d="M807.1,949.7c-.3,1.5.8,2.6,2.3,2.9s2.9-.4,3.1-1.9c.3-1.5-.7-3.2-2.2-3.5s-3,1.1-3.2,2.6Z"/>
            <path class="cls-27" d="M775.7,902.3c-4,10.8,6.3,20.3,11.8,24,2.5,4.3-13.7,43,14.9,54.2,27.6,10.8,47.7-8.9,47.7-8.9"/>
          </g>
          <path class="cls-9" d="M962.7,834.9c-10,4.7-39.3,0-44.7,1.3s-12.9,8.1-12.9,8.1"/>
          <path class="cls-9" d="M930.8,772.7s-7.8,46.8-13.5,55.2"/>
          <g>
            <path class="cls-10" d="M1105,1331c-2.6-7.3,1.9-15-1.6-31.8"/>
            <path class="cls-10" d="M1118.9,1333.6c3.2-6.9,1.9-12,3.9-16.9"/>
            <path class="cls-10" d="M1134.8,1329.9c1.6-2.7-.5-6.3,2.7-14.3"/>
            <path class="cls-10" d="M1146.1,1325.2c-.2-4.1,2.3-7.4,2.2-12.2"/>
          </g>
          <g>
            <path class="cls-10" d="M695,1331c2.6-7.3-1.9-15,1.6-31.8"/>
            <path class="cls-10" d="M681.1,1333.6c-3.2-6.9-1.9-12-3.9-16.9"/>
            <path class="cls-10" d="M665.2,1329.9c-1.6-2.7.5-6.3-2.7-14.3"/>
            <path class="cls-10" d="M653.9,1325.2c.2-4.1-2.3-7.4-2.2-12.2"/>
          </g>
          <path class="cls-9" d="M1072.2,1047.6c-9.2,10.9-4.7,24.5-4.7,24.5"/>
          <path class="cls-9" d="M940.6,1531.7c3.5,11.1,4.4,31,19,37.8"/>
          <path class="cls-9" d="M727.8,1047.6c9.2,10.9,4.7,24.5,4.7,24.5"/>
          <path class="cls-9" d="M859.4,1531.7c-3.5,11.1-4.4,31-19,37.8"/>
          <path class="cls-9" d="M837.3,834.9c10,4.7,39.3,0,44.7,1.3,5.3,1.3,12.9,8.1,12.9,8.1"/>
          <path class="cls-9" d="M869.2,772.7s7.7,46.8,13.5,55.3"/>
          <g>
            <path class="cls-9" d="M975.6,1948.5s1.9-5.5,1.1-8.6c-.8-3.1-7.2-7.1-8.1-11.2"/>
            <path class="cls-9" d="M990.6,1947.2s2.3-4.1,1.4-6.8c-.8-2.8-5.8-6.8-6.2-10.3"/>
            <path class="cls-9" d="M1002.6,1944.2s.7-3.7,0-5.9c-.7-2.2-4.8-6.8-5.2-8.5"/>
            <path class="cls-9" d="M1012.6,1939.2s-.2-4-1.3-5.5-4.3-4.2-5-6.8"/>
          </g>
          <g>
            <path class="cls-9" d="M824.4,1948.5s-1.9-5.5-1.1-8.6c.8-3.1,7.2-7.1,8.1-11.2"/>
            <path class="cls-9" d="M809.4,1947.2s-2.3-4.1-1.4-6.8c.8-2.7,5.8-6.7,6.2-10.3"/>
            <path class="cls-9" d="M797.4,1944.2s-.7-3.7,0-5.9c.7-2.2,4.8-6.8,5.2-8.5"/>
            <path class="cls-9" d="M787.4,1939.2s.2-4,1.3-5.5c.9-1.1,4.3-4.2,5-6.8"/>
          </g>
          <line class="cls-27" x1="900" y1="1305.1" x2="900" y2="1292.1"/>
          <path class="cls-29" d="M820,1165.3s15.7,37.7,28.7,49.7"/>
          <path class="cls-29" d="M839.2,1247.5s9.5,10,12,14.5"/>
          <path class="cls-29" d="M864.7,1022.6s-10.7,18.2-16,20.5"/>
          <path class="cls-29" d="M980,1165.3s-15.7,37.7-28.7,49.7"/>
          <path class="cls-29" d="M960.8,1247.5s-9.5,10-12,14.5"/>
          <path class="cls-29" d="M935.3,1022.6s10.7,18.2,16,20.5"/>
          <line class="cls-27" x1="900" y1="1159.3" x2="900" y2="1130.1"/>
        </g>
        <path class="cls-5" d="M981.1,1040.2c-14.7-56.6-150.8-226.3-150.8-226.3,0,0,5.1-6,6.9-7.5,0,0,138.2,176.4,166.6,224.1-9.7,11.4-22.7,9.7-22.7,9.7Z"/>
        <path class="cls-32" d="M830.3,811.2s137.7,171.8,152.6,229l-187.6,29.8-6.3-51.5-32.2,257c-59.1-13.5-102.3-68-102.3-68,0,0,68.4-310.9,87.3-346.5,23.5-44.5,69-28.5,88.5-49.8Z"/>
        <path class="cls-5" d="M957.3,811.2s-153.3,191.4-168.2,248.6l16.9,12.3,164.9-251.9-13.6-9Z"/>
        <path class="cls-32" d="M1009.5,1037.1l33.6,242.5c79.6-26.7,102.3-68,102.3-68,0,0-68.4-310.9-87.3-346.5-23.5-44.5-69-28.5-88.5-49.8,0,0-161.8,195.8-176.7,253l2.4,17.6,98.3,11.6,110.2-14.4,5.7-46.2"/>
        <g>
          <circle class="cls-17" cx="964.8" cy="814.7" r="7.3"/>
          <circle class="cls-17" cx="915" cy="960.6" r="7.3"/>
          <circle class="cls-17" cx="939.6" cy="948.3" r="7.3"/>
          <circle class="cls-17" cx="949.1" cy="938.6" r="7.3"/>
          <circle class="cls-17" cx="957.6" cy="926.8" r="7.3"/>
          <circle class="cls-17" cx="969.9" cy="900.6" r="7.3"/>
          <circle class="cls-17" cx="974.4" cy="886" r="7.3"/>
          <circle class="cls-17" cx="976.1" cy="871.1" r="7.3"/>
          <circle class="cls-17" cx="974.9" cy="841.5" r="7.3"/>
          <circle class="cls-17" cx="971.7" cy="826.9" r="7.3"/>
          <circle class="cls-17" cx="900.4" cy="962.4" r="7.3"/>
          <path class="cls-16" d="M935.4,955.6c0,6.3-1.6,10.5-7.1,13.4,0,0,1.7-6.2-.2-6.1-4,0-7.3-3.3-7.3-7.3s3.3-7.3,7.3-7.3,7.3,3.3,7.3,7.3Z"/>
          <path class="cls-16" d="M972,911.7c2.3,5.9,2.3,10.3-1.7,15.1,0,0-.7-6.3-2.4-5.6-3.7,1.5-8-.4-9.5-4.1-1.5-3.7.4-8,4.1-9.5s8,.4,9.5,4.1Z"/>
          <path class="cls-16" d="M978,849.4c6.1,1.6,9.7,4.3,11.1,10.4,0,0-5.5-3.2-6-1.4-1,3.9-5,6.2-8.9,5.2-3.9-1-6.2-5-5.2-8.9,1-3.9,5-6.2,8.9-5.2Z"/>
          <circle class="cls-17" cx="836" cy="814.7" r="7.3"/>
          <circle class="cls-17" cx="885.8" cy="960.6" r="7.3"/>
          <circle class="cls-17" cx="861.1" cy="948.3" r="7.3"/>
          <circle class="cls-17" cx="851.7" cy="938.6" r="7.3"/>
          <circle class="cls-17" cx="843.1" cy="926.8" r="7.3"/>
          <circle class="cls-17" cx="830.9" cy="900.6" r="7.3"/>
          <circle class="cls-17" cx="826.3" cy="886" r="7.3"/>
          <circle class="cls-17" cx="824.6" cy="871.1" r="7.3"/>
          <circle class="cls-17" cx="825.8" cy="841.5" r="7.3"/>
          <circle class="cls-17" cx="829.1" cy="826.9" r="7.3"/>
          <path class="cls-16" d="M865.4,955.6c0,6.3,1.6,10.5,7.1,13.4,0,0-1.7-6.2.2-6.1,4,0,7.3-3.3,7.3-7.3,0-4-3.3-7.3-7.3-7.3s-7.3,3.3-7.3,7.3Z"/>
          <path class="cls-16" d="M828.7,911.7c-2.3,5.9-2.3,10.3,1.7,15.1,0,0,.7-6.3,2.4-5.6,3.7,1.5,8-.4,9.5-4.1,1.5-3.7-.4-8-4.1-9.5s-8,.4-9.5,4.1Z"/>
          <path class="cls-16" d="M822.7,849.4c-6.1,1.6-9.7,4.3-11.1,10.4,0,0,5.5-3.2,6-1.4,1,3.9,5,6.2,8.9,5.2s6.2-5,5.2-8.9c-1-3.9-5-6.2-8.9-5.2Z"/>
        </g>
        <path class="cls-25" d="M784.8,1124.5s-22,85.3-22,150.9c0,90,8.7,197.3,4.3,283.3-4.5,87.2,15.6,391.5,15.6,391.5,0,0,110.7,26.5,167.5,11.3,0,0,68.2-575.2,52.7-854.2l-210-20.6-8,37.8Z"/>
        <path class="cls-25" d="M1014.1,1124.5s24,85.3,24,150.9-10.7,197.3-6.3,283.3c4.5,87.2-5.7,401.7-5.7,401.7,0,0-72,10.2-156,10.2,0,0-90.5-584.4-75.1-863.4l-6-35s39.1,9.9,110.9,9.9,107.3-12.2,107.3-12.2l6.8,54.6Z"/>
        <path class="cls-27" d="M1012.4,916.9c22.2,52.9,8,93,1.6,104.5-6.4,11.5-8.1,32-8.1,32"/>
        <path class="cls-27" d="M787.6,916.9c-22.2,52.9-4.9,81.8-.6,92.8s5.5,40.1,5.5,40.1"/>
        <path class="cls-6" d="M899.9,1105.5c-60.4,0-107.7-12.1-109.7-12.6-3.2-.8-5.1-4.1-4.3-7.3.8-3.2,4.1-5.1,7.3-4.3.5.1,47.9,12.3,106.7,12.3s106.2-12.1,106.7-12.3c3.2-.8,6.5,1.1,7.3,4.3.8,3.2-1.1,6.5-4.3,7.3-2,.5-49.3,12.6-109.7,12.6Z"/>
        <g>
          <g>
            <g>
              <path class="cls-15" d="M961.1,696.6s1.4-6.7,6.3-6.7,6.2,4.8,5.2,9.8c-1,4.8,1.3,8.7-.7,14.8-2,6.2-4.2,6.3-6.1,10.4-1.9,4.1-3.5,11.9-9,11.9s-7-6.8-7-9.3,5.6-30.9,11.4-30.9Z"/>
              <path class="cls-22" d="M969.7,697.3c-3,0-5,4.1-5,6.7s1.1,4,1.1,6.8-.5,3.5-1.8,6.1c-1.4,2.6-2.1,5.9-1.5,6.9"/>
              <path class="cls-12" d="M965.2,707.2s2.9,1.1,4.1-.4"/>
            </g>
            <g>
              <path class="cls-15" d="M838.9,696.6s-1.4-6.7-6.3-6.7-6.2,4.8-5.2,9.8c1,4.8-1.3,8.7.7,14.8,2,6.2,4.2,6.3,6.1,10.4,1.9,4.1,3.5,11.9,9,11.9s7-6.8,7-9.3-5.6-30.9-11.4-30.9Z"/>
              <path class="cls-22" d="M830.4,697.3c3,0,5,4.1,5,6.7s-1.1,4-1.1,6.8.5,3.5,1.8,6.1c1.4,2.6,2.1,5.9,1.5,6.9"/>
              <path class="cls-12" d="M834.8,707.2s-2.9,1.1-4.1-.4"/>
            </g>
            <path class="cls-8" d="M959.3,636.2c-14.1-37-59.3-38.3-59.3-38.3,0,0-45.3,1.3-59.3,38.3-14.1,37,2.1,70.4,2.1,70.4h114.6s16.1-33.4,2.1-70.4Z"/>
            <path class="cls-4" d="M962.7,645.4c-10.9-10-21.1-47.2-62.7-47.2s-50.8,37.1-61.7,47.2c0,0-.9,28.2,1.2,40.4,2.1,12.3,2.6,24.6,4.8,38.1,2,11.9,9.1,29,14.7,36.9,6.6,9.3,25.1,28,41,28s34.5-18.7,41-28c5.6-7.9,12.7-25,14.7-36.9,2.2-13.5,2.7-25.8,4.8-38.1,2.1-12.3,2.2-40.4,2.2-40.4Z"/>
            <g>
              <path class="cls-35" d="M928.8,702c-2.4,0-6.8-1.7-7.7-2.1l-2.5-1,1.7-2.1c2-2.5,5.8-6.7,8.5-6.7s7.8,2.9,9.9,4.2l3,1.7-3,1.7c-2.2,1.3-7.5,4.2-9.9,4.2Z"/>
              <path class="cls-36" d="M928.8,692.1c2.2,0,8.9,3.9,8.9,3.9,0,0-6.8,3.9-8.9,3.9s-6.9-1.9-6.9-1.9c0,0,4.8-5.9,6.9-5.9M928.8,688.1c-1,0-4.1,0-10,7.4l-3.4,4.2,5,2c1.3.5,5.7,2.2,8.4,2.2s7.4-2.4,10.9-4.5l6-3.5-6-3.5c-3.5-2-8.3-4.5-10.9-4.5h0Z"/>
            </g>
            <g>
              <path class="cls-35" d="M871.2,702c-2.4,0-7.8-2.9-9.9-4.2l-3-1.7,3-1.7c2.2-1.3,7.5-4.2,9.9-4.2s6.5,4.2,8.5,6.7l1.7,2.1-2.5,1c-.9.3-5.2,2.1-7.7,2.1Z"/>
              <path class="cls-36" d="M871.2,692.1c2.2,0,6.9,5.9,6.9,5.9,0,0-4.8,1.9-6.9,1.9s-8.9-3.9-8.9-3.9c0,0,6.8-3.9,8.9-3.9M871.2,688.1c-2.7,0-7.4,2.4-10.9,4.5l-6,3.5,6,3.5c3.5,2,8.3,4.5,10.9,4.5s7.1-1.7,8.4-2.2l5-2-3.4-4.2c-6-7.4-9-7.4-10-7.4h0Z"/>
            </g>
            <path class="cls-13" d="M882.2,657.3s-4.5-3.6-9-.2"/>
            <path class="cls-13" d="M917.8,657.3s4.5-3.6,9-.2"/>
            <polyline class="cls-23" points="886 752.8 901.4 752.8 914 752.8"/>
            <path class="cls-36" d="M907.2,728.3c0,5.1-5.9,5.5-5.9,5.5v-31.9s5.9,21.2,5.9,26.4Z"/>
            <path class="cls-18" d="M902.9,747.4c-2.7,0-2.9,2.3-2.9,2.3,0,0-.3-2.3-2.9-2.3s-5.5,3.3-9.5,5.4h24.9c-4-2.2-6.8-5.4-9.5-5.4Z"/>
            <path class="cls-18" d="M900,752.9h-9.4s-1.9,7.3,9.4,7.3,9.4-7.3,9.4-7.3h-9.4Z"/>
          </g>
          <path class="cls-31" d="M901.3,596.3s1.2,24.3,4.8,27.6c3.6,3.3,7.9-1.3,22.3,4,14.3,5.3,19.6,11.8,24.3,38.7,8.1,46.1-2.4,65.5-6.3,108.7-3.4,37.5.2,60.8,2.4,97.7,4.6,79.3,2,160.9,2,160.9,0,0,39.9-2.3,50.4-8.3,0,0-5.5-63.4-15.7-106s-24.6-131-10.2-177c14.4-46-4-119.3-26.9-137.3s-47.1-9-47.1-9Z"/>
          <path class="cls-31" d="M898.7,596.3s-1.2,24.3-4.8,27.6-7.9-1.3-22.3,4c-14.3,5.3-19.6,11.8-24.3,38.7-8.1,46.1,2.4,65.5,6.3,108.7,3.4,37.5-.2,60.8-2.4,97.7-4.6,79.3-2,160.9-2,160.9,0,0-39.9-2.3-50.4-8.3,0,0,5.5-63.4,15.7-106,10.2-42.6,24.6-131,10.2-177s4-119.3,26.9-137.3c22.9-18,47.1-9,47.1-9Z"/>
        </g>
        <g>
          <g>
            <path class="cls-6" d="M895.5,1105.2s4.5,174.8-14.7,415.1c-17.5,219.2-13.8,341-13.8,341,0,0,17.6-8.9,39.3-5.4,3.5-22-18.6-139.3-5.5-330.8,13.9-204.1,13.7-365.1,6.5-426.1l-11.7,6.2Z"/>
            <path class="cls-2" d="M900,1129.6c5.8,58.9-2.9,375.3-21.2,492.4"/>
            <path class="cls-2" d="M894.1,1855.1c-13.7-70.2-13.8-195.8,12-418.7"/>
          </g>
          <g>
            <g>
              <path class="cls-21" d="M971.3,1124.6c-5.2-21.7-44.2-20.1-60.2-27.5-9.7-4.5-16.6,10-15,19.4,1.6,9.3,2.7,4.8,15,22.6,12.3,17.8,37.3,26.2,46.5,23.4,9.2-2.8,18.9-16.1,13.7-37.9ZM944.9,1147.3c-13.5-2.5-17.8-14.8-30.8-25.3-10.1-8.1-5.8-18.9,3.2-14.4,11.7,5.9,43.9,11,43.7,24.4-.2,12.1-1.1,18-16.1,15.2Z"/>
              <path class="cls-2" d="M918.9,1104.1c11.7,8.7,41.4,3.5,41.8,26"/>
              <path class="cls-2" d="M967.9,1130.1c.8,20.2-6.5,34.8-28.5,29.9"/>
              <path class="cls-2" d="M906.6,1122s8.7,6.8,20.3,19.3c9.3,10,24.6,13,31.2,4.2"/>
            </g>
            <g>
              <path class="cls-21" d="M826,1162.4c9.2,2.8,34.2-5.6,46.5-23.4,12.3-17.8,13.5-13.2,15-22.6,1.6-9.3-5.3-23.9-15-19.4-16,7.4-55,5.7-60.2,27.5-5.2,21.7,4.5,35,13.7,37.9ZM822.6,1132.1c-.2-13.5,32-18.5,43.7-24.4,9-4.5,13.3,6.3,3.2,14.4s-17.3,22.8-30.8,25.3c-15,2.8-15.9-3.1-16.1-15.2Z"/>
              <path class="cls-2" d="M864.7,1104.1c-11.7,8.7-41.4,3.5-41.8,26"/>
              <path class="cls-2" d="M815.7,1130.1c-.8,20.2,6.5,34.8,28.5,29.9"/>
              <path class="cls-2" d="M877,1122s-8.7,6.8-20.3,19.3c-9.3,10-24.6,13-31.2,4.2"/>
            </g>
            <g>
              <path class="cls-21" d="M882.9,1092c-5.3,1.7-6.6,2.5-3.5,15.5,3.1,13,4.4,11.1,3.9,16.1-.5,4.9,14.4,11.1,19.7,4.8,6.9-8.1,3-26.6,6.8-31.8,2.7-3.7-3.2-7.8-10.5-4.1-7.2,3.7-9-2.9-16.4-.5Z"/>
              <path class="cls-2" d="M901.4,1091.6c-3.5,10.3-1.9,24.1-6.2,26.7-2.5,1.5-4.2-1.5-4.2-7.3"/>
              <path class="cls-2" d="M892.5,1093.2c-4.7,9.3-12.2,35.3,4.3,37.8"/>
            </g>
          </g>
          <g>
            <path class="cls-6" d="M896.3,1103.5s-48.8,177.5,21,408.4c60,198.5,37.8,305.1,37.8,305.1,0,0-17.7-8.6-39.4-4.7-3.9-21.9,33.2-123.7-17.3-305.5-57.3-206-20.2-348.1-14-409.3l11.8,6Z"/>
            <path class="cls-2" d="M891,1131c-28.7,84.6-21.2,251.9,10.8,366.7"/>
            <path class="cls-2" d="M940.6,1790.3c16.9-74-14.4-245.8-37.5-331.2"/>
          </g>
        </g>
      </g>
      <g>
        <g>
          <path class="cls-7" d="M1174.2,1866.5c5.3,9.2,9.6,11.9,15.4,21.9,5.8,10.1-1.5,20.4,2.2,43.4,2.9,18.1-4.9,48.2,0,53.9,4.9,5.6,11.8-1.2,13.4-6.4,2.6-8.6-.8-25.3,4.6-28.5,5.4-3.1,9.9,3.5,12.9,11.8,3,8.2,19.4,30.3,22,34.5,2.6,4.2,15.3,16,18.1,14.3,2.9-1.7,3-5.1,3-5.1,0,0,5.1,7.4,10.4,4.4,5.3-3.1.3-11,.3-11,0,0,2.1,1.7,5.3-.1,3.2-1.8,1-9.4-2.1-14.7,0,0,2.7,2.7,5,1.3,2.3-1.3,3.4-5.9.2-11.6-3.3-5.7-5-15.8-8.6-22.1-3.6-6.3-10.7-17.4-12.6-23.9-2-6.5-1.8-10.5-5.5-14.6-3.7-4.1-17.1-26-25.5-35.8-8.4-9.8-16.8-26-21-33.3,0,0-8.7.2-22,7.8-13.3,7.7-15.4,13.8-15.4,13.8Z"/>
          <path class="cls-13" d="M1265.9,2006.3s-6.3-15.6-12.5-22.6c-6.2-7-14.1-22.7-15.3-29.2"/>
          <path class="cls-13" d="M1276.6,1999.7s-4.6-12.5-7.3-15.4c-2.7-2.9-7.6-18.1-12.2-23.8-4.6-5.7-7.2-15-7.2-15"/>
          <path class="cls-13" d="M1279.8,1984.8c-2.5-5.2-4.7-16.9-9.9-24.5-5.1-7.6-7.3-17.9-10.9-24.2"/>
        </g>
        <g>
          <path class="cls-7" d="M1404.7,1897c-7.2-11.3-17.6-26.7-37.8-47.3-6.3-6.4-12.7-13.5-12.7-13.5,0,0-6.7-1.7-18.4,5.6-11.7,7.3-14.4,18.3-14.4,18.3,0,0,7.2,10.6,5.9,15.9-2,7.9-7.4,25.7.8,38.9,8.2,13.2,11.4,23.4,15.7,27.3,6.4,5.8,10.6,13.5,16.4,9.9,2.4-1.5,3.3-4.1,3.3-4.1,0,0,4.6,4.7,9.5,1.6,4.9-3.1,6.8-7.1,6.8-7.1,0,0,3.5,1.1,9.1-2.4,5.5-3.5,5.7-11,5.7-11,0,0,3.1-1,6.6-3.2,3.5-2.2,2.6-8.5,2.6-8.5,0,0,11.3-6.5,1.1-20.6Z"/>
          <path class="cls-10" d="M1363.4,1948.1c-7.1-6.2-6.9-17-20.6-32.8"/>
          <path class="cls-10" d="M1379.7,1942.7c-.7-9.2-5.2-13.9-5.9-20.3"/>
          <path class="cls-10" d="M1394.4,1929.3c0-3.9-4.4-6.4-5.7-16.8"/>
          <path class="cls-10" d="M1403.6,1917.6c-2.7-4.3-1.9-9.2-5-14.3"/>
        </g>
        <g>
          <path class="cls-7" d="M625.8,1866.5c-5.3,9.2-9.6,11.9-15.4,21.9s1.5,20.4-2.2,43.4c-2.9,18.1,4.9,48.2,0,53.9-4.9,5.6-11.8-1.2-13.4-6.4-2.6-8.6.8-25.3-4.6-28.5-5.4-3.1-9.9,3.5-12.9,11.8-3,8.2-19.4,30.3-22,34.5-2.6,4.2-15.3,16-18.1,14.3-2.9-1.7-3-5.1-3-5.1,0,0-5.1,7.4-10.4,4.4-5.3-3.1-.3-11-.3-11,0,0-2.1,1.7-5.3-.1-3.2-1.8-1-9.4,2.1-14.7,0,0-2.7,2.7-5,1.3-2.3-1.3-3.4-5.9-.2-11.6,3.3-5.7,5-15.8,8.6-22.1,3.6-6.3,10.7-17.4,12.6-23.9,2-6.5,1.8-10.5,5.5-14.6,3.7-4.1,17.1-26,25.5-35.8,8.4-9.8,16.8-26,21-33.3,0,0,8.7.2,22,7.8,13.3,7.7,15.4,13.8,15.4,13.8Z"/>
          <path class="cls-13" d="M534.1,2006.3s6.3-15.6,12.5-22.6c6.2-7,14.1-22.7,15.3-29.2"/>
          <path class="cls-13" d="M523.4,1999.7s4.6-12.5,7.3-15.4c2.7-2.9,7.6-18.1,12.2-23.8,4.6-5.7,7.2-15,7.2-15"/>
          <path class="cls-13" d="M520.2,1984.8c2.5-5.2,4.7-16.9,9.9-24.5,5.1-7.6,7.3-17.9,10.9-24.2"/>
        </g>
        <g>
          <path class="cls-7" d="M395.3,1897c7.2-11.3,17.6-26.7,37.8-47.3,6.3-6.4,12.7-13.5,12.7-13.5,0,0,6.7-1.7,18.4,5.6,11.7,7.3,14.4,18.3,14.4,18.3,0,0-7.2,10.6-5.9,15.9,2,7.9,7.4,25.7-.8,38.9-8.2,13.2-11.4,23.4-15.7,27.3-6.4,5.8-10.6,13.5-16.4,9.9s-3.3-4.1-3.3-4.1c0,0-4.6,4.7-9.5,1.6-4.9-3.1-6.8-7.1-6.8-7.1,0,0-3.5,1.1-9.1-2.4-5.5-3.5-5.7-11-5.7-11,0,0-3.1-1-6.6-3.2-3.5-2.2-2.6-8.5-2.6-8.5,0,0-11.3-6.5-1.1-20.6Z"/>
          <path class="cls-10" d="M436.6,1948.1c7.1-6.2,6.9-17,20.6-32.8"/>
          <path class="cls-10" d="M420.3,1942.7c.7-9.2,5.2-13.9,5.9-20.3"/>
          <path class="cls-10" d="M405.6,1929.3c0-3.9,4.4-6.4,5.7-16.8"/>
          <path class="cls-10" d="M396.4,1917.6c2.7-4.3,1.9-9.2,5-14.3"/>
        </g>
      </g>
    </g>
  </g>
</svg>