<?xml version="1.0" encoding="UTF-8"?>
<svg xmlns="http://www.w3.org/2000/svg" version="1.1" viewBox="0 0 1800 2400">
  <defs>
    <style>
      .cls-1, .cls-2, .cls-3, .cls-4, .cls-5, .cls-6, .cls-7, .cls-8, .cls-9, .cls-10, .cls-11, .cls-12, .cls-13, .cls-14, .cls-15, .cls-16, .cls-17, .cls-18, .cls-19, .cls-20, .cls-21, .cls-22, .cls-23, .cls-24, .cls-25, .cls-26, .cls-27, .cls-28, .cls-29, .cls-30, .cls-31, .cls-32 {
        stroke: #231f20;
      }

      .cls-1, .cls-33, .cls-5, .cls-12, .cls-20, .cls-23, .cls-26, .cls-27, .cls-30, .cls-32 {
        fill: none;
      }

      .cls-1, .cls-4, .cls-5, .cls-6, .cls-7, .cls-8, .cls-9, .cls-10, .cls-11, .cls-12, .cls-14, .cls-17, .cls-18, .cls-24, .cls-25, .cls-27, .cls-28, .cls-29, .cls-30, .cls-31, .cls-32 {
        stroke-linejoin: round;
      }

      .cls-1, .cls-5, .cls-6, .cls-12, .cls-14, .cls-16, .cls-18, .cls-19, .cls-21, .cls-22, .cls-23, .cls-24, .cls-27, .cls-30, .cls-32 {
        stroke-linecap: round;
      }

      .cls-1, .cls-14, .cls-23, .cls-29 {
        stroke-width: 2px;
      }

      .cls-2, .cls-33, .cls-3, .cls-13, .cls-15, .cls-16, .cls-19, .cls-20, .cls-21, .cls-22, .cls-23, .cls-26 {
        stroke-miterlimit: 10;
      }

      .cls-2, .cls-13, .cls-18, .cls-26, .cls-27, .cls-28 {
        stroke-width: 5px;
      }

      .cls-2, .cls-15, .cls-25, .cls-28, .cls-29 {
        fill: #fff;
      }

      .cls-33 {
        stroke: #929497;
        stroke-width: .5px;
      }

      .cls-3, .cls-6, .cls-12, .cls-17, .cls-25 {
        stroke-width: 3px;
      }

      .cls-3, .cls-9, .cls-18, .cls-24 {
        fill: #6d6e70;
      }

      .cls-4, .cls-5, .cls-7, .cls-15, .cls-20, .cls-24 {
        stroke-width: 4px;
      }

      .cls-4, .cls-10 {
        fill: #ffce34;
      }

      .cls-6 {
        fill: #8a5d3b;
      }

      .cls-7 {
        fill: #f05662;
      }

      .cls-8, .cls-10, .cls-11, .cls-21, .cls-22 {
        stroke-width: 6px;
      }

      .cls-8, .cls-14, .cls-19, .cls-31 {
        fill: #404041;
      }

      .cls-9, .cls-16, .cls-19, .cls-31, .cls-32 {
        stroke-width: 7px;
      }

      .cls-11 {
        fill: #e4c5b7;
      }

      .cls-13, .cls-21 {
        fill: #ee4036;
      }

      .cls-34 {
        fill: #231f20;
      }

      .cls-16 {
        fill: #58595b;
      }

      .cls-17 {
        fill: #f1f1f2;
      }

      .cls-22 {
        fill: #be1e2d;
      }
    </style>
  </defs>
  <!-- Generator: Adobe Illustrator 28.7.4, SVG Export Plug-In . SVG Version: 1.2.0 Build 166)  -->
  <g>
    <g id="Layer_1">
      <g>
        <rect class="cls-13" y="0" width="1800" height="2400"/>
        <g>
          <g>
            <line class="cls-26" x1="130" y1="0" x2="130" y2="130"/>
            <line class="cls-26" x1="284" y1="0" x2="284" y2="130"/>
            <line class="cls-26" x1="438" y1="0" x2="438" y2="130"/>
            <line class="cls-26" x1="592" y1="0" x2="592" y2="130"/>
            <line class="cls-26" x1="746" y1="0" x2="746" y2="130"/>
            <line class="cls-26" x1="900" y1="0" x2="900" y2="130"/>
            <line class="cls-26" x1="1054" y1="0" x2="1054" y2="130"/>
            <line class="cls-26" x1="1208" y1="0" x2="1208" y2="130"/>
            <line class="cls-26" x1="1362" y1="0" x2="1362" y2="130"/>
            <line class="cls-26" x1="1516" y1="0" x2="1516" y2="130"/>
            <line class="cls-26" x1="1670" y1="0" x2="1670" y2="130"/>
          </g>
          <g>
            <line class="cls-20" x1="130" y1="0" x2="130" y2="72.1"/>
            <line class="cls-20" x1="160.8" y1="0" x2="160.8" y2="72.1"/>
            <line class="cls-20" x1="191.6" y1="0" x2="191.6" y2="72.1"/>
            <line class="cls-20" x1="222.4" y1="0" x2="222.4" y2="72.1"/>
            <line class="cls-20" x1="253.2" y1="0" x2="253.2" y2="72.1"/>
            <line class="cls-20" x1="284" y1="0" x2="284" y2="72.1"/>
            <line class="cls-20" x1="314.8" y1="0" x2="314.8" y2="72.1"/>
            <line class="cls-20" x1="345.6" y1="0" x2="345.6" y2="72.1"/>
            <line class="cls-20" x1="376.4" y1="0" x2="376.4" y2="72.1"/>
            <line class="cls-20" x1="407.2" y1="0" x2="407.2" y2="72.1"/>
            <line class="cls-20" x1="438" y1="0" x2="438" y2="72.1"/>
            <line class="cls-20" x1="468.8" y1="0" x2="468.8" y2="72.1"/>
            <line class="cls-20" x1="499.6" y1="0" x2="499.6" y2="72.1"/>
            <line class="cls-20" x1="530.4" y1="0" x2="530.4" y2="72.1"/>
            <line class="cls-20" x1="561.2" y1="0" x2="561.2" y2="72.1"/>
            <line class="cls-20" x1="592" y1="0" x2="592" y2="72.1"/>
            <line class="cls-20" x1="622.8" y1="0" x2="622.8" y2="72.1"/>
            <line class="cls-20" x1="653.6" y1="0" x2="653.6" y2="72.1"/>
            <line class="cls-20" x1="684.4" y1="0" x2="684.4" y2="72.1"/>
            <line class="cls-20" x1="715.2" y1="0" x2="715.2" y2="72.1"/>
            <line class="cls-20" x1="746" y1="0" x2="746" y2="72.1"/>
            <line class="cls-20" x1="776.8" y1="0" x2="776.8" y2="72.1"/>
            <line class="cls-20" x1="807.6" y1="0" x2="807.6" y2="72.1"/>
            <line class="cls-20" x1="838.4" y1="0" x2="838.4" y2="72.1"/>
            <line class="cls-20" x1="869.2" y1="0" x2="869.2" y2="72.1"/>
            <line class="cls-20" x1="900" y1="0" x2="900" y2="72.1"/>
            <line class="cls-20" x1="930.8" y1="0" x2="930.8" y2="72.1"/>
            <line class="cls-20" x1="961.6" y1="0" x2="961.6" y2="72.1"/>
            <line class="cls-20" x1="992.4" y1="0" x2="992.4" y2="72.1"/>
            <line class="cls-20" x1="1023.2" y1="0" x2="1023.2" y2="72.1"/>
            <line class="cls-20" x1="1054" y1="0" x2="1054" y2="72.1"/>
            <line class="cls-20" x1="1084.8" y1="0" x2="1084.8" y2="72.1"/>
            <line class="cls-20" x1="1115.6" y1="0" x2="1115.6" y2="72.1"/>
            <line class="cls-20" x1="1146.4" y1="0" x2="1146.4" y2="72.1"/>
            <line class="cls-20" x1="1177.2" y1="0" x2="1177.2" y2="72.1"/>
            <line class="cls-20" x1="1208" y1="0" x2="1208" y2="72.1"/>
            <line class="cls-20" x1="1238.8" y1="0" x2="1238.8" y2="72.1"/>
            <line class="cls-20" x1="1269.6" y1="0" x2="1269.6" y2="72.1"/>
            <line class="cls-20" x1="1300.4" y1="0" x2="1300.4" y2="72.1"/>
            <line class="cls-20" x1="1331.2" y1="0" x2="1331.2" y2="72.1"/>
            <line class="cls-20" x1="1362" y1="0" x2="1362" y2="72.1"/>
            <line class="cls-20" x1="1392.8" y1="0" x2="1392.8" y2="72.1"/>
            <line class="cls-20" x1="1423.6" y1="0" x2="1423.6" y2="72.1"/>
            <line class="cls-20" x1="1454.4" y1="0" x2="1454.4" y2="72.1"/>
            <line class="cls-20" x1="1485.2" y1="0" x2="1485.2" y2="72.1"/>
            <line class="cls-20" x1="1516" y1="0" x2="1516" y2="72.1"/>
            <line class="cls-20" x1="1546.8" y1="0" x2="1546.8" y2="72.1"/>
            <line class="cls-20" x1="1577.6" y1="0" x2="1577.6" y2="72.1"/>
            <line class="cls-20" x1="1608.4" y1="0" x2="1608.4" y2="72.1"/>
            <line class="cls-20" x1="1639.2" y1="0" x2="1639.2" y2="72.1"/>
            <line class="cls-20" x1="1670" y1="0" x2="1670" y2="72.1"/>
          </g>
        </g>
        <g>
          <g>
            <line class="cls-20" x1="130" y1="2327.9" x2="130" y2="2400"/>
            <line class="cls-20" x1="160.8" y1="2327.9" x2="160.8" y2="2400"/>
            <line class="cls-20" x1="191.6" y1="2327.9" x2="191.6" y2="2400"/>
            <line class="cls-20" x1="222.4" y1="2327.9" x2="222.4" y2="2400"/>
            <line class="cls-20" x1="253.2" y1="2327.9" x2="253.2" y2="2400"/>
            <line class="cls-20" x1="284" y1="2327.9" x2="284" y2="2400"/>
            <line class="cls-20" x1="314.8" y1="2327.9" x2="314.8" y2="2400"/>
            <line class="cls-20" x1="345.6" y1="2327.9" x2="345.6" y2="2400"/>
            <line class="cls-20" x1="376.4" y1="2327.9" x2="376.4" y2="2400"/>
            <line class="cls-20" x1="407.2" y1="2327.9" x2="407.2" y2="2400"/>
            <line class="cls-20" x1="438" y1="2327.9" x2="438" y2="2400"/>
            <line class="cls-20" x1="468.8" y1="2327.9" x2="468.8" y2="2400"/>
            <line class="cls-20" x1="499.6" y1="2327.9" x2="499.6" y2="2400"/>
            <line class="cls-20" x1="530.4" y1="2327.9" x2="530.4" y2="2400"/>
            <line class="cls-20" x1="561.2" y1="2327.9" x2="561.2" y2="2400"/>
            <line class="cls-20" x1="592" y1="2327.9" x2="592" y2="2400"/>
            <line class="cls-20" x1="622.8" y1="2327.9" x2="622.8" y2="2400"/>
            <line class="cls-20" x1="653.6" y1="2327.9" x2="653.6" y2="2400"/>
            <line class="cls-20" x1="684.4" y1="2327.9" x2="684.4" y2="2400"/>
            <line class="cls-20" x1="715.2" y1="2327.9" x2="715.2" y2="2400"/>
            <line class="cls-20" x1="746" y1="2327.9" x2="746" y2="2400"/>
            <line class="cls-20" x1="776.8" y1="2327.9" x2="776.8" y2="2400"/>
            <line class="cls-20" x1="807.6" y1="2327.9" x2="807.6" y2="2400"/>
            <line class="cls-20" x1="838.4" y1="2327.9" x2="838.4" y2="2400"/>
            <line class="cls-20" x1="869.2" y1="2327.9" x2="869.2" y2="2400"/>
            <line class="cls-20" x1="900" y1="2327.9" x2="900" y2="2400"/>
            <line class="cls-20" x1="930.8" y1="2327.9" x2="930.8" y2="2400"/>
            <line class="cls-20" x1="961.6" y1="2327.9" x2="961.6" y2="2400"/>
            <line class="cls-20" x1="992.4" y1="2327.9" x2="992.4" y2="2400"/>
            <line class="cls-20" x1="1023.2" y1="2327.9" x2="1023.2" y2="2400"/>
            <line class="cls-20" x1="1054" y1="2327.9" x2="1054" y2="2400"/>
            <line class="cls-20" x1="1084.8" y1="2327.9" x2="1084.8" y2="2400"/>
            <line class="cls-20" x1="1115.6" y1="2327.9" x2="1115.6" y2="2400"/>
            <line class="cls-20" x1="1146.4" y1="2327.9" x2="1146.4" y2="2400"/>
            <line class="cls-20" x1="1177.2" y1="2327.9" x2="1177.2" y2="2400"/>
            <line class="cls-20" x1="1208" y1="2327.9" x2="1208" y2="2400"/>
            <line class="cls-20" x1="1238.8" y1="2327.9" x2="1238.8" y2="2400"/>
            <line class="cls-20" x1="1269.6" y1="2327.9" x2="1269.6" y2="2400"/>
            <line class="cls-20" x1="1300.4" y1="2327.9" x2="1300.4" y2="2400"/>
            <line class="cls-20" x1="1331.2" y1="2327.9" x2="1331.2" y2="2400"/>
            <line class="cls-20" x1="1362" y1="2327.9" x2="1362" y2="2400"/>
            <line class="cls-20" x1="1392.8" y1="2327.9" x2="1392.8" y2="2400"/>
            <line class="cls-20" x1="1423.6" y1="2327.9" x2="1423.6" y2="2400"/>
            <line class="cls-20" x1="1454.4" y1="2327.9" x2="1454.4" y2="2400"/>
            <line class="cls-20" x1="1485.2" y1="2327.9" x2="1485.2" y2="2400"/>
            <line class="cls-20" x1="1516" y1="2327.9" x2="1516" y2="2400"/>
            <line class="cls-20" x1="1546.8" y1="2327.9" x2="1546.8" y2="2400"/>
            <line class="cls-20" x1="1577.6" y1="2327.9" x2="1577.6" y2="2400"/>
            <line class="cls-20" x1="1608.4" y1="2327.9" x2="1608.4" y2="2400"/>
            <line class="cls-20" x1="1639.2" y1="2327.9" x2="1639.2" y2="2400"/>
            <line class="cls-20" x1="1670" y1="2327.9" x2="1670" y2="2400"/>
          </g>
          <g>
            <line class="cls-26" x1="130" y1="2270" x2="130" y2="2400"/>
            <line class="cls-26" x1="284" y1="2270" x2="284" y2="2400"/>
            <line class="cls-26" x1="438" y1="2270" x2="438" y2="2400"/>
            <line class="cls-26" x1="592" y1="2270" x2="592" y2="2400"/>
            <line class="cls-26" x1="746" y1="2270" x2="746" y2="2400"/>
            <line class="cls-26" x1="900" y1="2270" x2="900" y2="2400"/>
            <line class="cls-26" x1="1054" y1="2270" x2="1054" y2="2400"/>
            <line class="cls-26" x1="1208" y1="2270" x2="1208" y2="2400"/>
            <line class="cls-26" x1="1362" y1="2270" x2="1362" y2="2400"/>
            <line class="cls-26" x1="1516" y1="2270" x2="1516" y2="2400"/>
            <line class="cls-26" x1="1670" y1="2270" x2="1670" y2="2400"/>
          </g>
        </g>
        <g>
          <g>
            <line class="cls-26" x1="1670" y1="130" x2="1800" y2="130"/>
            <line class="cls-26" x1="1670" y1="272.7" x2="1800" y2="272.7"/>
            <line class="cls-26" x1="1670" y1="415.3" x2="1800" y2="415.3"/>
            <line class="cls-26" x1="1670" y1="558" x2="1800" y2="558"/>
            <line class="cls-26" x1="1670" y1="700.7" x2="1800" y2="700.7"/>
            <line class="cls-26" x1="1670" y1="843.3" x2="1800" y2="843.3"/>
            <line class="cls-26" x1="1670" y1="986" x2="1800" y2="986"/>
            <line class="cls-26" x1="1670" y1="1128.7" x2="1800" y2="1128.7"/>
            <line class="cls-26" x1="1670" y1="1271.3" x2="1800" y2="1271.3"/>
            <line class="cls-26" x1="1670" y1="1414" x2="1800" y2="1414"/>
            <line class="cls-26" x1="1670" y1="1556.7" x2="1800" y2="1556.7"/>
            <line class="cls-26" x1="1670" y1="1699.3" x2="1800" y2="1699.3"/>
            <line class="cls-26" x1="1670" y1="1842" x2="1800" y2="1842"/>
            <line class="cls-26" x1="1670" y1="1984.7" x2="1800" y2="1984.7"/>
            <line class="cls-26" x1="1670" y1="2127.3" x2="1800" y2="2127.3"/>
            <line class="cls-26" x1="1670" y1="2270" x2="1800" y2="2270"/>
          </g>
          <g>
            <line class="cls-20" x1="1735" y1="130" x2="1800" y2="130"/>
            <line class="cls-20" x1="1735" y1="158.5" x2="1800" y2="158.5"/>
            <line class="cls-20" x1="1735" y1="187.1" x2="1800" y2="187.1"/>
            <line class="cls-20" x1="1735" y1="215.6" x2="1800" y2="215.6"/>
            <line class="cls-20" x1="1735" y1="244.1" x2="1800" y2="244.1"/>
            <line class="cls-20" x1="1735" y1="272.7" x2="1800" y2="272.7"/>
            <line class="cls-20" x1="1735" y1="301.2" x2="1800" y2="301.2"/>
            <line class="cls-20" x1="1735" y1="329.7" x2="1800" y2="329.7"/>
            <line class="cls-20" x1="1735" y1="358.3" x2="1800" y2="358.3"/>
            <line class="cls-20" x1="1735" y1="386.8" x2="1800" y2="386.8"/>
            <line class="cls-20" x1="1735" y1="415.3" x2="1800" y2="415.3"/>
            <line class="cls-20" x1="1735" y1="443.9" x2="1800" y2="443.9"/>
            <line class="cls-20" x1="1735" y1="472.4" x2="1800" y2="472.4"/>
            <line class="cls-20" x1="1735" y1="500.9" x2="1800" y2="500.9"/>
            <line class="cls-20" x1="1735" y1="529.5" x2="1800" y2="529.5"/>
            <line class="cls-20" x1="1735" y1="558" x2="1800" y2="558"/>
            <line class="cls-20" x1="1735" y1="586.5" x2="1800" y2="586.5"/>
            <line class="cls-20" x1="1735" y1="615.1" x2="1800" y2="615.1"/>
            <line class="cls-20" x1="1735" y1="643.6" x2="1800" y2="643.6"/>
            <line class="cls-20" x1="1735" y1="672.1" x2="1800" y2="672.1"/>
            <line class="cls-20" x1="1735" y1="700.7" x2="1800" y2="700.7"/>
            <line class="cls-20" x1="1735" y1="729.2" x2="1800" y2="729.2"/>
            <line class="cls-20" x1="1735" y1="757.7" x2="1800" y2="757.7"/>
            <line class="cls-20" x1="1735" y1="786.3" x2="1800" y2="786.3"/>
            <line class="cls-20" x1="1735" y1="814.8" x2="1800" y2="814.8"/>
            <line class="cls-20" x1="1735" y1="843.3" x2="1800" y2="843.3"/>
            <line class="cls-20" x1="1735" y1="871.9" x2="1800" y2="871.9"/>
            <line class="cls-20" x1="1735" y1="900.4" x2="1800" y2="900.4"/>
            <line class="cls-20" x1="1735" y1="928.9" x2="1800" y2="928.9"/>
            <line class="cls-20" x1="1735" y1="957.5" x2="1800" y2="957.5"/>
            <line class="cls-20" x1="1735" y1="986" x2="1800" y2="986"/>
            <line class="cls-20" x1="1735" y1="1014.5" x2="1800" y2="1014.5"/>
            <line class="cls-20" x1="1735" y1="1043.1" x2="1800" y2="1043.1"/>
            <line class="cls-20" x1="1735" y1="1071.6" x2="1800" y2="1071.6"/>
            <line class="cls-20" x1="1735" y1="1100.1" x2="1800" y2="1100.1"/>
            <line class="cls-20" x1="1735" y1="1128.7" x2="1800" y2="1128.7"/>
            <line class="cls-20" x1="1735" y1="1157.2" x2="1800" y2="1157.2"/>
            <line class="cls-20" x1="1735" y1="1185.7" x2="1800" y2="1185.7"/>
            <line class="cls-20" x1="1735" y1="1214.3" x2="1800" y2="1214.3"/>
            <line class="cls-20" x1="1735" y1="1242.8" x2="1800" y2="1242.8"/>
            <line class="cls-20" x1="1735" y1="1271.3" x2="1800" y2="1271.3"/>
            <line class="cls-20" x1="1735" y1="1299.9" x2="1800" y2="1299.9"/>
            <line class="cls-20" x1="1735" y1="1328.4" x2="1800" y2="1328.4"/>
            <line class="cls-20" x1="1735" y1="1356.9" x2="1800" y2="1356.9"/>
            <line class="cls-20" x1="1735" y1="1385.5" x2="1800" y2="1385.5"/>
            <line class="cls-20" x1="1735" y1="1414" x2="1800" y2="1414"/>
            <line class="cls-20" x1="1735" y1="1442.5" x2="1800" y2="1442.5"/>
            <line class="cls-20" x1="1735" y1="1471.1" x2="1800" y2="1471.1"/>
            <line class="cls-20" x1="1735" y1="1499.6" x2="1800" y2="1499.6"/>
            <line class="cls-20" x1="1735" y1="1528.1" x2="1800" y2="1528.1"/>
            <line class="cls-20" x1="1735" y1="1556.7" x2="1800" y2="1556.7"/>
            <line class="cls-20" x1="1735" y1="1585.2" x2="1800" y2="1585.2"/>
            <line class="cls-20" x1="1735" y1="1613.7" x2="1800" y2="1613.7"/>
            <line class="cls-20" x1="1735" y1="1642.3" x2="1800" y2="1642.3"/>
            <line class="cls-20" x1="1735" y1="1670.8" x2="1800" y2="1670.8"/>
            <line class="cls-20" x1="1735" y1="1699.3" x2="1800" y2="1699.3"/>
            <line class="cls-20" x1="1735" y1="1727.9" x2="1800" y2="1727.9"/>
            <line class="cls-20" x1="1735" y1="1756.4" x2="1800" y2="1756.4"/>
            <line class="cls-20" x1="1735" y1="1784.9" x2="1800" y2="1784.9"/>
            <line class="cls-20" x1="1735" y1="1813.5" x2="1800" y2="1813.5"/>
            <line class="cls-20" x1="1735" y1="1842" x2="1800" y2="1842"/>
            <line class="cls-20" x1="1735" y1="1870.5" x2="1800" y2="1870.5"/>
            <line class="cls-20" x1="1735" y1="1899.1" x2="1800" y2="1899.1"/>
            <line class="cls-20" x1="1735" y1="1927.6" x2="1800" y2="1927.6"/>
            <line class="cls-20" x1="1735" y1="1956.1" x2="1800" y2="1956.1"/>
            <line class="cls-20" x1="1735" y1="1984.7" x2="1800" y2="1984.7"/>
            <line class="cls-20" x1="1735" y1="2013.2" x2="1800" y2="2013.2"/>
            <line class="cls-20" x1="1735" y1="2041.7" x2="1800" y2="2041.7"/>
            <line class="cls-20" x1="1735" y1="2070.3" x2="1800" y2="2070.3"/>
            <line class="cls-20" x1="1735" y1="2098.8" x2="1800" y2="2098.8"/>
            <line class="cls-20" x1="1735" y1="2127.3" x2="1800" y2="2127.3"/>
            <line class="cls-20" x1="1735" y1="2155.9" x2="1800" y2="2155.9"/>
            <line class="cls-20" x1="1735" y1="2184.4" x2="1800" y2="2184.4"/>
            <line class="cls-20" x1="1735" y1="2212.9" x2="1800" y2="2212.9"/>
            <line class="cls-20" x1="1735" y1="2241.5" x2="1800" y2="2241.5"/>
            <line class="cls-20" x1="1735" y1="2270" x2="1800" y2="2270"/>
          </g>
        </g>
        <g>
          <g>
            <line class="cls-20" y1="130" x2="65" y2="130"/>
            <line class="cls-20" y1="158.5" x2="65" y2="158.5"/>
            <line class="cls-20" y1="187.1" x2="65" y2="187.1"/>
            <line class="cls-20" y1="215.6" x2="65" y2="215.6"/>
            <line class="cls-20" y1="244.1" x2="65" y2="244.1"/>
            <line class="cls-20" y1="272.7" x2="65" y2="272.7"/>
            <line class="cls-20" y1="301.2" x2="65" y2="301.2"/>
            <line class="cls-20" y1="329.7" x2="65" y2="329.7"/>
            <line class="cls-20" y1="358.3" x2="65" y2="358.3"/>
            <line class="cls-20" y1="386.8" x2="65" y2="386.8"/>
            <line class="cls-20" y1="415.3" x2="65" y2="415.3"/>
            <line class="cls-20" y1="443.9" x2="65" y2="443.9"/>
            <line class="cls-20" y1="472.4" x2="65" y2="472.4"/>
            <line class="cls-20" y1="500.9" x2="65" y2="500.9"/>
            <line class="cls-20" y1="529.5" x2="65" y2="529.5"/>
            <line class="cls-20" y1="558" x2="65" y2="558"/>
            <line class="cls-20" y1="586.5" x2="65" y2="586.5"/>
            <line class="cls-20" y1="615.1" x2="65" y2="615.1"/>
            <line class="cls-20" y1="643.6" x2="65" y2="643.6"/>
            <line class="cls-20" y1="672.1" x2="65" y2="672.1"/>
            <line class="cls-20" y1="700.7" x2="65" y2="700.7"/>
            <line class="cls-20" y1="729.2" x2="65" y2="729.2"/>
            <line class="cls-20" y1="757.7" x2="65" y2="757.7"/>
            <line class="cls-20" y1="786.3" x2="65" y2="786.3"/>
            <line class="cls-20" y1="814.8" x2="65" y2="814.8"/>
            <line class="cls-20" y1="843.3" x2="65" y2="843.3"/>
            <line class="cls-20" y1="871.9" x2="65" y2="871.9"/>
            <line class="cls-20" y1="900.4" x2="65" y2="900.4"/>
            <line class="cls-20" y1="928.9" x2="65" y2="928.9"/>
            <line class="cls-20" y1="957.5" x2="65" y2="957.5"/>
            <line class="cls-20" y1="986" x2="65" y2="986"/>
            <line class="cls-20" y1="1014.5" x2="65" y2="1014.5"/>
            <line class="cls-20" y1="1043.1" x2="65" y2="1043.1"/>
            <line class="cls-20" y1="1071.6" x2="65" y2="1071.6"/>
            <line class="cls-20" y1="1100.1" x2="65" y2="1100.1"/>
            <line class="cls-20" y1="1128.7" x2="65" y2="1128.7"/>
            <line class="cls-20" y1="1157.2" x2="65" y2="1157.2"/>
            <line class="cls-20" y1="1185.7" x2="65" y2="1185.7"/>
            <line class="cls-20" y1="1214.3" x2="65" y2="1214.3"/>
            <line class="cls-20" y1="1242.8" x2="65" y2="1242.8"/>
            <line class="cls-20" y1="1271.3" x2="65" y2="1271.3"/>
            <line class="cls-20" y1="1299.9" x2="65" y2="1299.9"/>
            <line class="cls-20" y1="1328.4" x2="65" y2="1328.4"/>
            <line class="cls-20" y1="1356.9" x2="65" y2="1356.9"/>
            <line class="cls-20" y1="1385.5" x2="65" y2="1385.5"/>
            <line class="cls-20" y1="1414" x2="65" y2="1414"/>
            <line class="cls-20" y1="1442.5" x2="65" y2="1442.5"/>
            <line class="cls-20" y1="1471.1" x2="65" y2="1471.1"/>
            <line class="cls-20" y1="1499.6" x2="65" y2="1499.6"/>
            <line class="cls-20" y1="1528.1" x2="65" y2="1528.1"/>
            <line class="cls-20" y1="1556.7" x2="65" y2="1556.7"/>
            <line class="cls-20" y1="1585.2" x2="65" y2="1585.2"/>
            <line class="cls-20" y1="1613.7" x2="65" y2="1613.7"/>
            <line class="cls-20" y1="1642.3" x2="65" y2="1642.3"/>
            <line class="cls-20" y1="1670.8" x2="65" y2="1670.8"/>
            <line class="cls-20" y1="1699.3" x2="65" y2="1699.3"/>
            <line class="cls-20" y1="1727.9" x2="65" y2="1727.9"/>
            <line class="cls-20" y1="1756.4" x2="65" y2="1756.4"/>
            <line class="cls-20" y1="1784.9" x2="65" y2="1784.9"/>
            <line class="cls-20" y1="1813.5" x2="65" y2="1813.5"/>
            <line class="cls-20" y1="1842" x2="65" y2="1842"/>
            <line class="cls-20" y1="1870.5" x2="65" y2="1870.5"/>
            <line class="cls-20" y1="1899.1" x2="65" y2="1899.1"/>
            <line class="cls-20" y1="1927.6" x2="65" y2="1927.6"/>
            <line class="cls-20" y1="1956.1" x2="65" y2="1956.1"/>
            <line class="cls-20" y1="1984.7" x2="65" y2="1984.7"/>
            <line class="cls-20" y1="2013.2" x2="65" y2="2013.2"/>
            <line class="cls-20" y1="2041.7" x2="65" y2="2041.7"/>
            <line class="cls-20" y1="2070.3" x2="65" y2="2070.3"/>
            <line class="cls-20" y1="2098.8" x2="65" y2="2098.8"/>
            <line class="cls-20" y1="2127.3" x2="65" y2="2127.3"/>
            <line class="cls-20" y1="2155.9" x2="65" y2="2155.9"/>
            <line class="cls-20" y1="2184.4" x2="65" y2="2184.4"/>
            <line class="cls-20" y1="2212.9" x2="65" y2="2212.9"/>
            <line class="cls-20" y1="2241.5" x2="65" y2="2241.5"/>
            <line class="cls-20" y1="2270" x2="65" y2="2270"/>
          </g>
          <g>
            <line class="cls-26" y1="130" x2="130" y2="130"/>
            <line class="cls-26" y1="272.7" x2="130" y2="272.7"/>
            <line class="cls-26" y1="415.3" x2="130" y2="415.3"/>
            <line class="cls-26" y1="558" x2="130" y2="558"/>
            <line class="cls-26" y1="700.7" x2="130" y2="700.7"/>
            <line class="cls-26" y1="843.3" x2="130" y2="843.3"/>
            <line class="cls-26" y1="986" x2="130" y2="986"/>
            <line class="cls-26" y1="1128.7" x2="130" y2="1128.7"/>
            <line class="cls-26" y1="1271.3" x2="130" y2="1271.3"/>
            <line class="cls-26" y1="1414" x2="130" y2="1414"/>
            <line class="cls-26" y1="1556.7" x2="130" y2="1556.7"/>
            <line class="cls-26" y1="1699.3" x2="130" y2="1699.3"/>
            <line class="cls-26" y1="1842" x2="130" y2="1842"/>
            <line class="cls-26" y1="1984.7" x2="130" y2="1984.7"/>
            <line class="cls-26" y1="2127.3" x2="130" y2="2127.3"/>
            <line class="cls-26" y1="2270" x2="130" y2="2270"/>
          </g>
        </g>
        <rect class="cls-2" x="130" y="130" width="1540" height="2140"/>
        <rect class="cls-17" x="150" y="150" width="1500" height="2100"/>
        <g>
          <line class="cls-33" x1="150" y1="150" x2="1650" y2="150"/>
          <line class="cls-33" x1="150" y1="181.8" x2="1650" y2="181.8"/>
          <line class="cls-33" x1="150" y1="213.6" x2="1650" y2="213.6"/>
          <line class="cls-33" x1="150" y1="245.5" x2="1650" y2="245.5"/>
          <line class="cls-33" x1="150" y1="277.3" x2="1650" y2="277.3"/>
          <line class="cls-33" x1="150" y1="309.1" x2="1650" y2="309.1"/>
          <line class="cls-33" x1="150" y1="340.9" x2="1650" y2="340.9"/>
          <line class="cls-33" x1="150" y1="372.7" x2="1650" y2="372.7"/>
          <line class="cls-33" x1="150" y1="404.5" x2="1650" y2="404.5"/>
          <line class="cls-33" x1="150" y1="436.4" x2="1650" y2="436.4"/>
          <line class="cls-33" x1="150" y1="468.2" x2="1650" y2="468.2"/>
          <line class="cls-33" x1="150" y1="500" x2="1650" y2="500"/>
          <line class="cls-33" x1="150" y1="531.8" x2="1650" y2="531.8"/>
          <line class="cls-33" x1="150" y1="563.6" x2="1650" y2="563.6"/>
          <line class="cls-33" x1="150" y1="595.5" x2="1650" y2="595.5"/>
          <line class="cls-33" x1="150" y1="627.3" x2="1650" y2="627.3"/>
          <line class="cls-33" x1="150" y1="659.1" x2="1650" y2="659.1"/>
          <line class="cls-33" x1="150" y1="690.9" x2="1650" y2="690.9"/>
          <line class="cls-33" x1="150" y1="722.7" x2="1650" y2="722.7"/>
          <line class="cls-33" x1="150" y1="754.5" x2="1650" y2="754.5"/>
          <line class="cls-33" x1="150" y1="786.4" x2="1650" y2="786.4"/>
          <line class="cls-33" x1="150" y1="818.2" x2="1650" y2="818.2"/>
          <line class="cls-33" x1="150" y1="850" x2="1650" y2="850"/>
          <line class="cls-33" x1="150" y1="881.8" x2="1650" y2="881.8"/>
          <line class="cls-33" x1="150" y1="913.6" x2="1650" y2="913.6"/>
          <line class="cls-33" x1="150" y1="945.5" x2="1650" y2="945.5"/>
          <line class="cls-33" x1="150" y1="977.3" x2="1650" y2="977.3"/>
          <line class="cls-33" x1="150" y1="1009.1" x2="1650" y2="1009.1"/>
          <line class="cls-33" x1="150" y1="1040.9" x2="1650" y2="1040.9"/>
          <line class="cls-33" x1="150" y1="1072.7" x2="1650" y2="1072.7"/>
          <line class="cls-33" x1="150" y1="1104.5" x2="1650" y2="1104.5"/>
          <line class="cls-33" x1="150" y1="1136.4" x2="1650" y2="1136.4"/>
          <line class="cls-33" x1="150" y1="1168.2" x2="1650" y2="1168.2"/>
          <line class="cls-33" x1="150" y1="1200" x2="1650" y2="1200"/>
          <line class="cls-33" x1="150" y1="1231.8" x2="1650" y2="1231.8"/>
          <line class="cls-33" x1="150" y1="1263.6" x2="1650" y2="1263.6"/>
          <line class="cls-33" x1="150" y1="1295.5" x2="1650" y2="1295.5"/>
          <line class="cls-33" x1="150" y1="1327.3" x2="1650" y2="1327.3"/>
          <line class="cls-33" x1="150" y1="1359.1" x2="1650" y2="1359.1"/>
          <line class="cls-33" x1="150" y1="1390.9" x2="1650" y2="1390.9"/>
          <line class="cls-33" x1="150" y1="1422.7" x2="1650" y2="1422.7"/>
          <line class="cls-33" x1="150" y1="1454.5" x2="1650" y2="1454.5"/>
          <line class="cls-33" x1="150" y1="1486.4" x2="1650" y2="1486.4"/>
          <line class="cls-33" x1="150" y1="1518.2" x2="1650" y2="1518.2"/>
          <line class="cls-33" x1="150" y1="1550" x2="1650" y2="1550"/>
          <line class="cls-33" x1="150" y1="1581.8" x2="1650" y2="1581.8"/>
          <line class="cls-33" x1="150" y1="1613.6" x2="1650" y2="1613.6"/>
          <line class="cls-33" x1="150" y1="1645.5" x2="1650" y2="1645.5"/>
          <line class="cls-33" x1="150" y1="1677.3" x2="1650" y2="1677.3"/>
          <line class="cls-33" x1="150" y1="1709.1" x2="1650" y2="1709.1"/>
          <line class="cls-33" x1="150" y1="1740.9" x2="1650" y2="1740.9"/>
          <line class="cls-33" x1="150" y1="1772.7" x2="1650" y2="1772.7"/>
          <line class="cls-33" x1="150" y1="1804.5" x2="1650" y2="1804.5"/>
          <line class="cls-33" x1="150" y1="1836.4" x2="1650" y2="1836.4"/>
          <line class="cls-33" x1="150" y1="1868.2" x2="1650" y2="1868.2"/>
          <line class="cls-33" x1="150" y1="1900" x2="1650" y2="1900"/>
          <line class="cls-33" x1="150" y1="1931.8" x2="1650" y2="1931.8"/>
          <line class="cls-33" x1="150" y1="1963.6" x2="1650" y2="1963.6"/>
          <line class="cls-33" x1="150" y1="1995.5" x2="1650" y2="1995.5"/>
          <line class="cls-33" x1="150" y1="2027.3" x2="1650" y2="2027.3"/>
          <line class="cls-33" x1="150" y1="2059.1" x2="1650" y2="2059.1"/>
          <line class="cls-33" x1="150" y1="2090.9" x2="1650" y2="2090.9"/>
          <line class="cls-33" x1="150" y1="2122.7" x2="1650" y2="2122.7"/>
          <line class="cls-33" x1="150" y1="2154.5" x2="1650" y2="2154.5"/>
          <line class="cls-33" x1="150" y1="2186.4" x2="1650" y2="2186.4"/>
          <line class="cls-33" x1="150" y1="2218.2" x2="1650" y2="2218.2"/>
          <line class="cls-33" x1="150" y1="2250" x2="1650" y2="2250"/>
        </g>
        <g>
          <line class="cls-33" x1="150" y1="150" x2="150" y2="2250"/>
          <line class="cls-33" x1="179.4" y1="150" x2="179.4" y2="2250"/>
          <line class="cls-33" x1="208.8" y1="150" x2="208.8" y2="2250"/>
          <line class="cls-33" x1="238.2" y1="150" x2="238.2" y2="2250"/>
          <line class="cls-33" x1="267.6" y1="150" x2="267.6" y2="2250"/>
          <line class="cls-33" x1="297.1" y1="150" x2="297.1" y2="2250"/>
          <line class="cls-33" x1="326.5" y1="150" x2="326.5" y2="2250"/>
          <line class="cls-33" x1="355.9" y1="150" x2="355.9" y2="2250"/>
          <line class="cls-33" x1="385.3" y1="150" x2="385.3" y2="2250"/>
          <line class="cls-33" x1="414.7" y1="150" x2="414.7" y2="2250"/>
          <line class="cls-33" x1="444.1" y1="150" x2="444.1" y2="2250"/>
          <line class="cls-33" x1="473.5" y1="150" x2="473.5" y2="2250"/>
          <line class="cls-33" x1="502.9" y1="150" x2="502.9" y2="2250"/>
          <line class="cls-33" x1="532.4" y1="150" x2="532.4" y2="2250"/>
          <line class="cls-33" x1="561.8" y1="150" x2="561.8" y2="2250"/>
          <line class="cls-33" x1="591.2" y1="150" x2="591.2" y2="2250"/>
          <line class="cls-33" x1="620.6" y1="150" x2="620.6" y2="2250"/>
          <line class="cls-33" x1="650" y1="150" x2="650" y2="2250"/>
          <line class="cls-33" x1="679.4" y1="150" x2="679.4" y2="2250"/>
          <line class="cls-33" x1="708.8" y1="150" x2="708.8" y2="2250"/>
          <line class="cls-33" x1="738.2" y1="150" x2="738.2" y2="2250"/>
          <line class="cls-33" x1="767.6" y1="150" x2="767.6" y2="2250"/>
          <line class="cls-33" x1="797.1" y1="150" x2="797.1" y2="2250"/>
          <line class="cls-33" x1="826.5" y1="150" x2="826.5" y2="2250"/>
          <line class="cls-33" x1="855.9" y1="150" x2="855.9" y2="2250"/>
          <line class="cls-33" x1="885.3" y1="150" x2="885.3" y2="2250"/>
          <line class="cls-33" x1="914.7" y1="150" x2="914.7" y2="2250"/>
          <line class="cls-33" x1="944.1" y1="150" x2="944.1" y2="2250"/>
          <line class="cls-33" x1="973.5" y1="150" x2="973.5" y2="2250"/>
          <line class="cls-33" x1="1002.9" y1="150" x2="1002.9" y2="2250"/>
          <line class="cls-33" x1="1032.4" y1="150" x2="1032.4" y2="2250"/>
          <line class="cls-33" x1="1061.8" y1="150" x2="1061.8" y2="2250"/>
          <line class="cls-33" x1="1091.2" y1="150" x2="1091.2" y2="2250"/>
          <line class="cls-33" x1="1120.6" y1="150" x2="1120.6" y2="2250"/>
          <line class="cls-33" x1="1150" y1="150" x2="1150" y2="2250"/>
          <line class="cls-33" x1="1179.4" y1="150" x2="1179.4" y2="2250"/>
          <line class="cls-33" x1="1208.8" y1="150" x2="1208.8" y2="2250"/>
          <line class="cls-33" x1="1238.2" y1="150" x2="1238.2" y2="2250"/>
          <line class="cls-33" x1="1267.6" y1="150" x2="1267.6" y2="2250"/>
          <line class="cls-33" x1="1297.1" y1="150" x2="1297.1" y2="2250"/>
          <line class="cls-33" x1="1326.5" y1="150" x2="1326.5" y2="2250"/>
          <line class="cls-33" x1="1355.9" y1="150" x2="1355.9" y2="2250"/>
          <line class="cls-33" x1="1385.3" y1="150" x2="1385.3" y2="2250"/>
          <line class="cls-33" x1="1414.7" y1="150" x2="1414.7" y2="2250"/>
          <line class="cls-33" x1="1444.1" y1="150" x2="1444.1" y2="2250"/>
          <line class="cls-33" x1="1473.5" y1="150" x2="1473.5" y2="2250"/>
          <line class="cls-33" x1="1502.9" y1="150" x2="1502.9" y2="2250"/>
          <line class="cls-33" x1="1532.4" y1="150" x2="1532.4" y2="2250"/>
          <line class="cls-33" x1="1561.8" y1="150" x2="1561.8" y2="2250"/>
          <line class="cls-33" x1="1591.2" y1="150" x2="1591.2" y2="2250"/>
          <line class="cls-33" x1="1620.6" y1="150" x2="1620.6" y2="2250"/>
          <line class="cls-33" x1="1650" y1="150" x2="1650" y2="2250"/>
        </g>
        <g>
          <path class="cls-34" d="M142,2292c0-3.6.7-6.3,2.2-8.1,1.1-1.4,2.7-2.1,4.7-2.1s1.8.2,2.5.5c.7.3,1.4.8,1.9,1.3.4.4.8,1,1.1,1.8.3.7.6,1.7.8,2.7.2,1.1.3,2.3.3,3.6,0,3.6-.7,6.3-2.1,8.1-1.1,1.4-2.7,2.1-4.7,2.1s-2.6-.4-3.6-1.1c-1-.8-1.8-1.9-2.3-3.5-.5-1.6-.8-3.3-.8-5.3ZM144.6,2292c0,3.1.4,5.2,1.2,6.4.6.9,1.6,1.3,2.8,1.3s2.1-.5,2.7-1.4c.9-1.3,1.3-3.5,1.3-6.6s-.4-5.3-1.2-6.4c-.6-.9-1.6-1.3-2.8-1.3s-2.4.7-3.1,2c-.7,1.3-1,3.3-1,6.1Z"/>
          <path class="cls-34" d="M302.2,2301.5v-14.1h-4.6v-1.8c1.4,0,2.3-.2,2.9-.4.6-.2,1.1-.6,1.4-1.1.4-.5.7-1.3.9-2.2h2v19.7h-2.7Z"/>
          <path class="cls-34" d="M450.3,2288.8c0-1,0-1.9.3-2.6.3-.9.7-1.7,1.3-2.4.6-.7,1.3-1.2,2.2-1.5.9-.3,1.8-.5,2.9-.5,2,0,3.5.5,4.7,1.6,1.1,1.1,1.7,2.5,1.7,4.3s-.1,1.5-.3,2.1c-.2.6-.6,1.2-1.1,1.7-.5.5-1.1,1.1-1.9,1.6-.3.2-1.4.8-3.2,1.8-.7.4-1.4.8-1.9,1.2-.6.4-1,.7-1.3,1.1-.3.3-.5.6-.7.9s-.3.6-.4,1.1h10.7v2.4h-13.5c.1-1.4.3-2.5.6-3.3.2-.7.6-1.4,1-2,.4-.6,1.1-1.2,1.9-1.8.4-.3,1.2-.8,2.6-1.6,1.4-.8,2.2-1.3,2.4-1.4.6-.4,1.1-.8,1.4-1.1.3-.3.5-.7.7-1.1.2-.4.2-.9.2-1.5,0-1.1-.3-2-1-2.7-.7-.7-1.6-1-2.8-1s-2.3.4-2.9,1.3c-.6.9-.9,2-1,3.6h-2.5Z"/>
          <path class="cls-34" d="M606.2,2295.5c0,1.4.4,2.5,1.1,3.2.7.7,1.7,1.1,3,1.1s2.4-.4,3.2-1.1c.8-.7,1.1-1.6,1.1-2.7s-.1-1.2-.3-1.7c-.2-.5-.6-.9-1-1.2-.5-.3-1.1-.5-1.9-.6-.5,0-1.3-.1-2.5-.1v-2c1.4,0,2.4,0,3-.2.6-.2,1.1-.5,1.5-1,.4-.5.5-1.1.5-1.9s-.3-1.7-.9-2.3c-.6-.6-1.5-.9-2.6-.9s-1.5.2-2.1.5c-.6.3-1,.8-1.3,1.4-.3.6-.5,1.4-.5,2.4h-2.4c0-1,.1-1.8.3-2.4.3-.9.7-1.7,1.3-2.3.6-.6,1.3-1.1,2.1-1.4.8-.3,1.7-.4,2.6-.4,1.9,0,3.4.5,4.5,1.5,1.1,1,1.6,2.3,1.6,3.8s-.2,1.8-.7,2.5c-.4.7-1.1,1.2-1.9,1.5.7.2,1.2.5,1.6.8.6.4,1,.9,1.3,1.6.3.6.5,1.4.5,2.3s-.3,2.3-.9,3.3c-.6,1-1.4,1.7-2.5,2.2-1.1.5-2.3.7-3.6.7s-2.1-.2-3-.5c-.8-.3-1.5-.8-2-1.3-.5-.6-.9-1.2-1.2-2-.3-.7-.4-1.7-.5-2.7h2.5Z"/>
          <path class="cls-34" d="M766.2,2301.5v-4.8h-8.6v-2.4l9-12.4h2.1v12.7h2.9v2.2h-2.9v4.8h-2.5ZM766.2,2294.5v-8.8l-6.3,8.8h6.3Z"/>
          <path class="cls-34" d="M912.5,2292.8l1.6-10.5h10v2.4h-8.3l-.8,5.4c.6-.4,1.1-.7,1.7-.9.6-.2,1.3-.3,2-.3,1.6,0,3,.5,4.2,1.4,1.6,1.2,2.4,2.8,2.4,5s-.3,2.4-.8,3.4c-.6,1.1-1.4,1.9-2.4,2.5-1,.6-2.3.9-3.8.9s-2.6-.3-3.5-.8c-1-.5-1.7-1.2-2.2-2.2-.4-.7-.6-1.5-.7-2.5h2.5c.1,1,.5,1.8,1.2,2.4.7.6,1.6.9,2.8.9s2.3-.4,3.1-1.2c.8-.8,1.2-1.9,1.2-3.2s-.4-2.3-1.2-3.1c-.8-.8-1.8-1.2-3-1.2s-2.8.6-3.7,1.9h-2.1Z"/>
          <path class="cls-34" d="M1076.5,2287c-.2-1-.6-1.8-1.1-2.3-.6-.5-1.3-.7-2.2-.7s-1.6.3-2.3.8c-.7.5-1.2,1.3-1.7,2.4-.4,1.1-.7,2.5-.8,4.3,1-1.6,2.6-2.4,4.6-2.4s3.3.6,4.5,1.7c1.1,1.1,1.7,2.6,1.7,4.5s-.2,2.2-.7,3.3c-.5,1.1-1.2,1.9-2.2,2.5-1,.6-2.2.9-3.6.9-2,0-3.6-.6-4.8-1.9-1.4-1.5-2.2-4-2.2-7.3s.3-4.2.9-5.9c.6-1.7,1.4-2.9,2.5-3.8,1.1-.8,2.4-1.2,4-1.2s1.9.2,2.7.6c.6.3,1.1.7,1.6,1.1.4.5.7,1,1,1.5.2.6.4,1.2.4,2h-2.4ZM1068.8,2295.4c0,1.3.4,2.4,1.1,3.2.8.8,1.7,1.2,2.9,1.2s2.1-.4,2.8-1.2c.8-.8,1.1-1.9,1.1-3.2s-.4-2.3-1.1-3.1c-.7-.7-1.7-1.1-2.9-1.1s-2.2.4-2.9,1.1c-.7.7-1.1,1.8-1.1,3.1Z"/>
          <path class="cls-34" d="M1220,2284.8v-2.5h13.6v2.2c-1,1.2-1.8,2.2-2.4,3.1-1,1.4-1.8,3-2.7,4.7-.8,1.7-1.5,3.4-2.1,5.1-.4,1.2-.7,2.5-1,4.1h-2.7c.2-1.2.4-2.2.7-3.2.5-1.6,1.1-3.2,1.9-4.9.8-1.7,1.7-3.3,2.8-4.9.7-1.1,1.6-2.3,2.7-3.7h-10.8Z"/>
          <path class="cls-34" d="M1384.2,2291c.7.3,1.2.7,1.6,1,.5.4.9.9,1.1,1.6.3.6.4,1.4.4,2.3,0,1.8-.6,3.2-1.8,4.4-1.2,1.1-2.8,1.7-4.9,1.7s-3.7-.6-4.9-1.7c-1.2-1.1-1.8-2.6-1.8-4.3s.3-2.3.9-3.1,1.4-1.4,2.5-1.8c-.8-.3-1.4-.7-1.8-1.2-.6-.7-.9-1.6-.9-2.7,0-1.5.5-2.8,1.6-3.8,1.1-1,2.5-1.5,4.4-1.5s2.3.2,3.2.7c.9.5,1.6,1.1,2.1,1.9.5.8.7,1.7.7,2.6s-.2,1.6-.7,2.3c-.4.7-1.1,1.2-1.9,1.6ZM1376.7,2296c0,1.1.4,2,1.1,2.7.7.7,1.7,1,2.9,1s2.2-.3,2.9-1c.7-.7,1.1-1.6,1.1-2.7s-.4-2-1.1-2.7c-.7-.7-1.7-1-2.9-1s-2.2.3-2.9,1c-.7.7-1.1,1.6-1.1,2.7ZM1377.2,2287c0,.9.3,1.7.9,2.3.6.6,1.5.9,2.5.9s1.9-.3,2.6-.9c.7-.6,1-1.4,1-2.2s-.3-1.6-.9-2.2c-.6-.6-1.5-.8-2.7-.8s-2,.3-2.5.8c-.6.5-.9,1.3-.9,2.2Z"/>
          <path class="cls-34" d="M1530.9,2296.7c.2,1,.6,1.8,1.1,2.3.6.5,1.3.7,2.2.7s1.8-.3,2.5-.9c.7-.6,1.2-1.6,1.6-2.9.3-1,.5-2.2.6-3.7-.3.5-.6.9-.9,1.1-.4.4-1,.7-1.6,1-.6.2-1.4.4-2.2.4s-2.2-.3-3.2-.8c-1-.5-1.7-1.3-2.2-2.2-.5-1-.7-2-.7-3.2s.2-2.2.7-3.3c.5-1.1,1.2-1.9,2.2-2.5,1-.6,2.2-.9,3.6-.9,2,0,3.6.6,4.8,1.9,1.4,1.5,2.1,4,2.1,7.3s-.3,4.2-.9,5.9c-.6,1.7-1.4,2.9-2.5,3.8-1.1.8-2.4,1.2-4,1.2s-1.9-.2-2.7-.6c-.6-.3-1.1-.7-1.6-1.1-.4-.5-.7-1-1-1.5-.2-.6-.4-1.2-.4-2h2.4ZM1530.6,2288.4c0,1.3.4,2.4,1.1,3.1.7.7,1.7,1.1,2.9,1.1s2.2-.4,2.9-1.1c.7-.7,1.1-1.8,1.1-3.1s-.4-2.4-1.1-3.2c-.8-.8-1.7-1.2-2.9-1.2s-2.1.4-2.8,1.2c-.8.8-1.1,1.9-1.1,3.2Z"/>
        </g>
      </g>
      <g>
        <rect class="cls-28" x="706.8" y="2005" width="386.3" height="129.1"/>
        <g>
          <path class="cls-34" d="M856.5,2053.1l8.7.8c-.8,19.6-7.4,35.6-19.7,44l-2.4-2.9c8.8-9.7,12.7-21.9,13.4-41.9ZM875.6,2049.5h-13.9v-4.7h18.4c1.4,24.7,8.8,36.7,17.8,45.7l-7.7,7.4c-8.4-9.4-14.2-26.8-14.5-48.3Z"/>
          <path class="cls-34" d="M955.3,2065.5c-2.2-.2-4.5-.5-6.7-.8l5,2.5c-2.4,4.3-4.4,6.9-7,9.3,4.5,3.1,7.3,6.7,7.5,10.6.7,6.7-6.3,8.8-12.8,3.4l1-2.6c4.3,1.3,5.8.9,5.6-2.9,0-1.7-1-4.4-4.4-8.4,1.1-2.3,2-5.3,2.6-8h-5.8v28.9h-6.8v-33.5l6.5,1.2h6.1l1.3-.7c-5.6-1-11-2.6-15.9-4.9-7,3.1-15.7,5-25.6,5.4h26.7v3.5h-2.9v29h-6.9v-8.6c-4.9,2.2-11.8,4.1-17,5l-1.6-6.7c1.7,0,3.5-.1,5.4-.2v-18.5h-4v-3.5c-.5,0-1.1,0-1.6,0l-.5-2.9c9.3-1,16.4-2.9,22.2-5.8-2.4-1.7-4.6-3.6-6.5-5.8-3.6,1.7-7.7,3.1-12.1,3.8l-1-2.8c6.7-2.5,12.3-6.5,15.6-10.6l6.5,3.7c-1.7,1.5-3.8,2.9-6.2,4.3,2.6,1.9,5.4,3.4,8.2,4.6,2.8-1.9,5.3-4,7.5-6.4l5.8,4c-1.7,1.8-3.7,3.5-5.9,4.9,6.2,1.7,13,2.2,20.2,2.4l-2.4,7ZM916.4,2072.2h6.2v-3.7h-6.2v3.7ZM916.4,2079.1h6.2v-4h-6.2v4ZM916.4,2082v4.4c2-.2,4.1-.6,6.2-1v-3.4h-6.2ZM950.9,2054.7c-3.8-3-9.8-7-16.5-10.6l1.1-2.7c7,1.7,13.4,4.1,19.3,7.5l-3.9,5.8Z"/>
        </g>
        <g>
          <path class="cls-34" d="M731.8,2025.3c0,2.4-2,4.4-4.4,4.4s-4.4-2-4.4-4.4,2-4.4,4.4-4.4,4.4,2,4.4,4.4Z"/>
          <path class="cls-34" d="M1077,2025.3c0,2.4-2,4.4-4.4,4.4s-4.4-2-4.4-4.4,2-4.4,4.4-4.4,4.4,2,4.4,4.4Z"/>
          <path class="cls-34" d="M731.8,2113.7c0,2.4-2,4.4-4.4,4.4s-4.4-2-4.4-4.4,2-4.4,4.4-4.4,4.4,2,4.4,4.4Z"/>
          <path class="cls-34" d="M1077,2113.7c0,2.4-2,4.4-4.4,4.4s-4.4-2-4.4-4.4,2-4.4,4.4-4.4,4.4,2,4.4,4.4Z"/>
        </g>
      </g>
      <g>
        <rect class="cls-28" x="776.8" y="250.2" width="246.3" height="109.1"/>
        <g>
          <path class="cls-34" d="M872.7,306.6h-9.6v3.5h-6.2v-22h15.8v-8.8h6.5v8.8h15.9v21.8h-6.2v-3.3h-9.6v17.6h-6.5v-17.6ZM872.7,303.5v-12.4h-9.6v12.4h9.6ZM888.8,303.5v-12.4h-9.6v12.4h9.6Z"/>
          <path class="cls-34" d="M943.4,280.9v42.8h-5.8v-2.2h-27.3v2.3h-5.8v-42.9h38.9ZM937.6,283.9h-6.3c1.5,1.2,3.5,3.3,4.6,5l-2.1,1.3h3v2.9h-8.1c.1,3.6.4,6.8.8,9.5,1-2.3,1.7-4.8,2.4-7.8l4.2,1.4c-1.1,4.4-2.8,8.4-5.3,12,.6,1.6,1.3,2.7,2.2,3.1.8.4,1-1.2,1.1-6h2.2c1.6,9.8-.1,12.3-3.4,11.6-2.4-.5-4.1-2.3-5.4-4.9-2.4,2.4-5.4,4.4-8.8,5.8l-1.1-2c3.6-2.2,6.4-4.6,8.5-7.3-1.3-4.3-1.8-9.8-2.1-15.3h-13v-2.9h12.9c0-1.8,0-3.6,0-5.3h4.7c0,1.8,0,3.6,0,5.3h3.3c-.8-1.9-1.8-3.8-2.5-5.3l1.6-1.1h-20.6v34.7h27.3v-34.7ZM911.9,315l-1.5-4.7c4.8-.8,10-2.2,13.7-3.5l.8,2c-3.6,2.4-8.7,4.9-13,6.2ZM912.2,295.6h10.8v10.7h-10.8v-10.7ZM916.2,303.7h2.9v-5.4h-2.9v5.4Z"/>
        </g>
        <g>
          <path class="cls-34" d="M801.8,270.5c0,2.4-2,4.4-4.4,4.4s-4.4-2-4.4-4.4,2-4.4,4.4-4.4,4.4,2,4.4,4.4Z"/>
          <path class="cls-34" d="M1007,270.5c0,2.4-2,4.4-4.4,4.4s-4.4-2-4.4-4.4,2-4.4,4.4-4.4,4.4,2,4.4,4.4Z"/>
          <path class="cls-34" d="M801.8,339c0,2.4-2,4.4-4.4,4.4s-4.4-2-4.4-4.4,2-4.4,4.4-4.4,4.4,2,4.4,4.4Z"/>
          <path class="cls-34" d="M1007,339c0,2.4-2,4.4-4.4,4.4s-4.4-2-4.4-4.4,2-4.4,4.4-4.4,4.4,2,4.4,4.4Z"/>
        </g>
      </g>
    </g>
    <g id="Layer_2">
      <g>
        <g>
          <path class="cls-11" d="M1174.2,1866.5c5.3,9.2,9.6,11.9,15.4,21.9,5.8,10.1-1.5,20.4,2.2,43.4,2.9,18.1-4.9,48.2,0,53.9,4.9,5.6,11.8-1.2,13.4-6.4,2.6-8.6-.8-25.3,4.6-28.5,5.4-3.1,9.9,3.5,12.9,11.8,3,8.2,19.4,30.3,22,34.5,2.6,4.2,15.3,16,18.1,14.3,2.9-1.7,3-5.1,3-5.1,0,0,5.1,7.4,10.4,4.4,5.3-3.1.3-11,.3-11,0,0,2.1,1.7,5.3-.1,3.2-1.8,1-9.4-2.1-14.7,0,0,2.7,2.7,5,1.3,2.3-1.3,3.4-5.9.2-11.6-3.3-5.7-5-15.8-8.6-22.1-3.6-6.3-10.7-17.4-12.6-23.9-2-6.5-1.8-10.5-5.5-14.6-3.7-4.1-17.1-26-25.5-35.8-8.4-9.8-16.8-26-21-33.3,0,0-8.7.2-22,7.8-13.3,7.7-15.4,13.8-15.4,13.8Z"/>
          <path class="cls-12" d="M1265.9,2006.3s-6.3-15.6-12.5-22.6c-6.2-7-14.1-22.7-15.3-29.2"/>
          <path class="cls-12" d="M1276.6,1999.7s-4.6-12.5-7.3-15.4c-2.7-2.9-7.6-18.1-12.2-23.8-4.6-5.7-7.2-15-7.2-15"/>
          <path class="cls-12" d="M1279.8,1984.8c-2.5-5.2-4.7-16.9-9.9-24.5-5.1-7.6-7.3-17.9-10.9-24.2"/>
        </g>
        <g>
          <path class="cls-11" d="M1404.7,1897c-7.2-11.3-17.6-26.7-37.8-47.3-6.3-6.4-12.7-13.5-12.7-13.5,0,0-6.7-1.7-18.4,5.6-11.7,7.3-14.4,18.3-14.4,18.3,0,0,7.2,10.6,5.9,15.9-2,7.9-7.4,25.7.8,38.9,8.2,13.2,11.4,23.4,15.7,27.3,6.4,5.8,10.6,13.5,16.4,9.9,2.4-1.5,3.3-4.1,3.3-4.1,0,0,4.6,4.7,9.5,1.6,4.9-3.1,6.8-7.1,6.8-7.1,0,0,3.5,1.1,9.1-2.4,5.5-3.5,5.7-11,5.7-11,0,0,3.1-1,6.6-3.2,3.5-2.2,2.6-8.5,2.6-8.5,0,0,11.3-6.5,1.1-20.6Z"/>
          <path class="cls-6" d="M1363.4,1948.1c-7.1-6.2-6.9-17-20.6-32.8"/>
          <path class="cls-6" d="M1379.7,1942.7c-.7-9.2-5.2-13.9-5.9-20.3"/>
          <path class="cls-6" d="M1394.4,1929.3c0-3.9-4.4-6.4-5.7-16.8"/>
          <path class="cls-6" d="M1403.6,1917.6c-2.7-4.3-1.9-9.2-5-14.3"/>
        </g>
        <g>
          <path class="cls-11" d="M625.8,1866.5c-5.3,9.2-9.6,11.9-15.4,21.9-5.8,10.1,1.5,20.4-2.2,43.4-2.9,18.1,4.9,48.2,0,53.9-4.9,5.6-11.8-1.2-13.4-6.4-2.6-8.6.8-25.3-4.6-28.5-5.4-3.1-9.9,3.5-12.9,11.8-3,8.2-19.4,30.3-22,34.5-2.6,4.2-15.3,16-18.1,14.3-2.9-1.7-3-5.1-3-5.1,0,0-5.1,7.4-10.4,4.4-5.3-3.1-.3-11-.3-11,0,0-2.1,1.7-5.3-.1-3.2-1.8-1-9.4,2.1-14.7,0,0-2.7,2.7-5,1.3-2.3-1.3-3.4-5.9-.2-11.6,3.3-5.7,5-15.8,8.6-22.1,3.6-6.3,10.7-17.4,12.6-23.9,2-6.5,1.8-10.5,5.5-14.6,3.7-4.1,17.1-26,25.5-35.8,8.4-9.8,16.8-26,21-33.3,0,0,8.7.2,22,7.8,13.3,7.7,15.4,13.8,15.4,13.8Z"/>
          <path class="cls-12" d="M534.1,2006.3s6.3-15.6,12.5-22.6c6.2-7,14.1-22.7,15.3-29.2"/>
          <path class="cls-12" d="M523.4,1999.7s4.6-12.5,7.3-15.4c2.7-2.9,7.6-18.1,12.2-23.8,4.6-5.7,7.2-15,7.2-15"/>
          <path class="cls-12" d="M520.2,1984.8c2.5-5.2,4.7-16.9,9.9-24.5,5.1-7.6,7.3-17.9,10.9-24.2"/>
        </g>
        <g>
          <path class="cls-11" d="M395.3,1897c7.2-11.3,17.6-26.7,37.8-47.3,6.3-6.4,12.7-13.5,12.7-13.5,0,0,6.7-1.7,18.4,5.6,11.7,7.3,14.4,18.3,14.4,18.3,0,0-7.2,10.6-5.9,15.9,2,7.9,7.4,25.7-.8,38.9-8.2,13.2-11.4,23.4-15.7,27.3-6.4,5.8-10.6,13.5-16.4,9.9s-3.3-4.1-3.3-4.1c0,0-4.6,4.7-9.5,1.6-4.9-3.1-6.8-7.1-6.8-7.1,0,0-3.5,1.1-9.1-2.4-5.5-3.5-5.7-11-5.7-11,0,0-3.1-1-6.6-3.2-3.5-2.2-2.6-8.5-2.6-8.5,0,0-11.3-6.5-1.1-20.6Z"/>
          <path class="cls-6" d="M436.6,1948.1c7.1-6.2,6.9-17,20.6-32.8"/>
          <path class="cls-6" d="M420.3,1942.7c.7-9.2,5.2-13.9,5.9-20.3"/>
          <path class="cls-6" d="M405.6,1929.3c0-3.9,4.4-6.4,5.7-16.8"/>
          <path class="cls-6" d="M396.4,1917.6c2.7-4.3,1.9-9.2,5-14.3"/>
        </g>
      </g>
      <g>
        <g>
          <path class="cls-9" d="M1157.1,1400.6c-.8-13.4-2.4-31.9-10.1-59.7-2.4-8.7-6.1-19-6.1-19-.5-4.2-1.2-19.4-2-23.5-4.2-21.8-2.2-48.8-5.9-90.9-3.6-42.1-17.1-65.6-20.4-74.7s1.1-28.6.9-60-7.1-43.3-6.6-53.4c.5-10.1-4-7.5-.9-26.7,3.1-19.2-4.8-57.1-15.2-75.8-10.4-18.7-22.3-21.5-30.1-30.3-7.8-8.8-17.7-7.8-17.7-7.8-15.8-10.6-61.1-29.1-82.4-40.7-9.7-5.3-48.7-48.2-48.7-48.2,0,0-39,42.8-48.7,48.2-21.3,11.7-66.5,30.1-82.4,40.7,0,0-9.9-1-17.7,7.8-7.8,8.8-19.7,11.6-30.1,30.3-10.4,18.7-18.3,56.6-15.2,75.8,3.1,19.2-1.4,16.6-.9,26.7.5,10.1-6.4,22-6.6,53.4s4.2,51,.9,60-16.8,32.7-20.4,74.7c-3.6,42.1-1.7,69-5.9,90.9-.8,4.1-1.5,19.3-2,23.5,0,0-3.8,10.3-6.1,19-7.6,27.8-9.2,46.4-10.1,59.7-2.1,17.2,10.9,17.4,10.9,17.4,0,0,2.3,6,6.4,6.2,4.1.2,7.3-.4,7.3-.4,0,0,3.8,6.5,10.3,6.9,6.5.3,9.1-2.3,9.1-2.3,0,0,3.6,2.6,9.4,2.9,5.8.3,7.5-6,7.5-6,0,0,2.1,1.9,4.8,2,6.8.3,6.7-8.4,9.5-16.6,1.9-5.5-.3-16,.5-31.5.8-15.5-9.6-28.5-15.2-34.4-3.8-4-1-17.1-1-17.1,1.9-15.7,3.9-35.9,13.5-52.8,12.5-22.1,27.1-48,31.4-81.8,4.4-34.5-.1-42.8,2.2-56.9s11.6-40.7,13.5-93.5c0,0,4.4,36.1,16.4,54.2,6.8,10.3,8.1,71.3,5.8,81.7-2.3,10.4-.1,42.1-.1,42.1,0,0-22.2,56.8-18.1,99.3-13.6,92.6-17.3,125.5-12.7,190.6,4.6,65.9,5.4,67.3,2.9,82-2.4,14.7-11.8,44.4-13.4,74.7-1.6,30.3,6,108.1,5.3,135.5-.3,14.1-.9,32.7-.9,46.9s1.4,14.4,1.4,20.3-5.9,11-5.7,22.5c.2,11.5-29.7,32.4-30.7,40.3,0,0-14.4,16.9-.5,24,0,0,3.4,10.5,13.5,6.8,0,0,4.7,9.5,16.2,4.1,0,0,5.1,8.4,20.3,1.7,0,0,3.4,5.4,16.6,5.4s15.9-6.8,19.9-16.2c4.1-9.5,8.4-7.4,8.4-17.8s-2-24.3,0-30.2c2-5.9,7.2-5.4,9-11.5,1.8-6.1.5-18.5-7.4-26.1-7.9-7.7-2.1-12.2-2.1-26.3s-2.8-25.3-2.8-36.8,38.9-98.7,42.1-142.3c3-40.6-2.7-56.2-.2-87.1,2.4-29.4,35.5-122.8,41.6-203.1,6.1,80.4,39.2,173.8,41.6,203.1,2.6,30.9-3.2,46.5-.2,87.1,3.3,43.5,42.1,128.3,42.1,142.3s-2.8,22.6-2.8,36.8,5.8,18.7-2.1,26.3c-7.9,7.7-9.2,20.1-7.4,26.1,1.8,6.1,7,5.6,9,11.5,2,5.9,0,19.8,0,30.2s4.4,8.3,8.4,17.8c4.1,9.5,6.8,16.2,19.9,16.2s16.6-5.4,16.6-5.4c15.2,6.7,20.3-1.7,20.3-1.7,11.5,5.4,16.2-4.1,16.2-4.1,10.1,3.7,13.5-6.8,13.5-6.8,13.9-7.1-.5-24-.5-24-1-7.9-30.9-28.8-30.7-40.3.2-11.5-5.7-16.6-5.7-22.5s1.4-5,1.4-20.3-.5-32.7-.9-46.9c-.7-27.3,6.9-105.1,5.3-135.5-1.6-30.3-11-60-13.4-74.7-2.4-14.7-1.7-16.1,2.9-82,4.6-65.1.9-98-12.7-190.6,4.2-42.5-18.1-99.3-18.1-99.3,0,0,2.2-31.7-.1-42.1-2.3-10.4-1-71.4,5.8-81.7,12-18.1,16.4-54.2,16.4-54.2,1.9,52.8,11.2,79.5,13.5,93.5s-2.2,22.3,2.2,56.9c4.3,33.8,18.9,59.7,31.4,81.8,9.5,16.9,11.6,37.1,13.5,52.8,0,0,2.8,13.2-1,17.1-5.6,5.9-16,18.9-15.2,34.4.8,15.5-1.4,26,.5,31.5,2.8,8.2,2.7,16.9,9.5,16.6,2.8-.1,4.8-2,4.8-2,0,0,1.7,6.3,7.5,6,5.8-.3,9.4-2.9,9.4-2.9,0,0,2.6,2.6,9.1,2.3,6.5-.3,10.3-6.9,10.3-6.9,0,0,3.2.6,7.3.4,4.1-.2,6.4-6.2,6.4-6.2,0,0,13-.2,10.9-17.4Z"/>
          <path class="cls-5" d="M842,1566.5c-4.2,13.3-5.3,37.1-22.7,45.2"/>
          <path class="cls-5" d="M980.5,1566.5c4.2,13.3,5.3,37.1,22.7,45.2"/>
          <path class="cls-5" d="M724.8,1154.8c8.3-11.6,22.1-8.3,22.1-8.3"/>
          <g>
            <path class="cls-5" d="M860,901.5s-5.8,2.4-15.2,2.4-30.1-18.2-37.8-18.2"/>
            <path class="cls-5" d="M963.8,901.5s5.8,2.4,15.2,2.4c12.8,0,30.1-18.2,37.8-18.2"/>
            <path class="cls-5" d="M902.8,907.3s3.9,9.8,9.2,9.8,9.2-9.8,9.2-9.8"/>
          </g>
          <path class="cls-5" d="M1099.1,1154.8c-8.3-11.6-22.1-8.3-22.1-8.3"/>
          <g>
            <path class="cls-6" d="M1096.2,1425.2c-3.2-8.9,2.2-18.2-2.1-38.7"/>
            <path class="cls-6" d="M1113,1428.4c3.9-8.4,2.3-14.7,4.7-20.6"/>
            <path class="cls-6" d="M1132.4,1423.8c1.9-3.3-.7-7.7,3.2-17.5"/>
            <path class="cls-6" d="M1146.2,1418c-.3-5,2.8-9,2.6-14.9"/>
          </g>
          <g>
            <path class="cls-6" d="M727.7,1425.2c3.2-8.9-2.2-18.2,2.1-38.7"/>
            <path class="cls-6" d="M710.8,1428.4c-3.9-8.4-2.3-14.7-4.7-20.6"/>
            <path class="cls-6" d="M691.4,1423.8c-1.9-3.3.7-7.7-3.2-17.5"/>
            <path class="cls-6" d="M677.7,1418c.3-5-2.8-9-2.6-14.9"/>
          </g>
          <path class="cls-5" d="M730.8,1018.4c12-.8,38.6-12,43.7-34.1"/>
          <path class="cls-5" d="M1093,1018.4c-12-.8-38.6-12-43.7-34.1"/>
          <g>
            <path class="cls-5" d="M1037.1,1969.2s2.6-7.4,1.5-11.6c-1.1-4.2-9.7-9.6-10.9-15.1"/>
            <path class="cls-5" d="M1057.4,1967.5s3.1-5.5,2-9.2-7.8-9.1-8.3-14"/>
            <path class="cls-5" d="M1073.6,1963.4s1-5,0-8c-1-3-6.6-9.2-7.1-11.5"/>
            <path class="cls-5" d="M1087.2,1956.7s-.2-5.4-1.8-7.5c-1.2-1.5-5.8-5.7-6.8-9.2"/>
          </g>
          <g>
            <path class="cls-5" d="M785.1,1969.2s-2.6-7.4-1.5-11.6c1.1-4.2,9.7-9.6,10.9-15.1"/>
            <path class="cls-5" d="M764.8,1967.5s-3.1-5.5-2-9.2c1.1-3.7,7.8-9.1,8.3-14"/>
            <path class="cls-5" d="M748.6,1963.4s-1-5,0-8,6.6-9.2,7.1-11.5"/>
            <path class="cls-5" d="M735,1956.7s.2-5.4,1.8-7.5,5.8-5.7,6.8-9.2"/>
          </g>
          <g>
            <g>
              <path class="cls-18" d="M772.9,970.3s-.6,51.8,28.9,64.4c42.2,18.1,88,3.3,98.9-9.2,6.8-7.8,7.8-12.5,7.8-12.5"/>
              <ellipse class="cls-5" cx="818.4" cy="1016.1" rx="6" ry="4"/>
            </g>
            <g>
              <path class="cls-18" d="M1051,970.3s.6,51.8-28.9,64.4c-42.2,18.1-88,3.3-98.9-9.2-6.8-7.8-7.8-12.5-7.8-12.5"/>
              <ellipse class="cls-5" cx="1005.5" cy="1016.1" rx="6" ry="4"/>
            </g>
            <path class="cls-27" d="M998.5,1097.6s-13.7-24.9-46.7-44.8"/>
            <path class="cls-27" d="M825.5,1097.6s13.7-24.9,46.7-44.8"/>
            <path class="cls-27" d="M827.8,1231.7c10,10.7,23.7,43.7,36.6,54.3"/>
            <path class="cls-27" d="M996.2,1231.7c-10,10.7-23.7,43.7-36.6,54.3"/>
            <path class="cls-12" d="M908.5,1136c-5.1,14.8-55.5,7.3-63.8-3.7-6.8-9-5.2-22.8-5.2-22.8"/>
            <path class="cls-12" d="M908.5,1177.3c-5.1,14.8-55.5,7.3-63.8-3.7-6.8-9-5.2-23.8-5.2-23.8"/>
            <path class="cls-12" d="M909.5,1217.6c-5.1,14.8-56.5,6.3-64.8-4.7-6.8-9-5.2-21.8-5.2-21.8"/>
            <path class="cls-12" d="M917.1,1136c5.1,14.8,55.5,7.3,63.8-3.7,6.8-9,5.2-22.8,5.2-22.8"/>
            <path class="cls-12" d="M917.1,1177.3c5.1,14.8,55.5,7.3,63.8-3.7,6.8-9,5.2-23.8,5.2-23.8"/>
            <path class="cls-12" d="M916.1,1217.6c5.1,14.8,56.5,6.3,64.8-4.7s5.2-21.8,5.2-21.8"/>
            <path class="cls-12" d="M847.4,1094.8s54.8,11.2,61,1"/>
            <path class="cls-12" d="M978.2,1094.8s-54.8,11.2-61,1"/>
            <line class="cls-12" x1="911.9" y1="1187.8" x2="911.9" y2="1206.6"/>
            <line class="cls-12" x1="911.9" y1="1144.6" x2="911.9" y2="1162.3"/>
            <line class="cls-12" x1="911.9" y1="1062.8" x2="911.9" y2="1086.5"/>
            <line class="cls-12" x1="911.9" y1="946.8" x2="911.9" y2="970.6"/>
          </g>
          <g>
            <path class="cls-18" d="M880.6,1337c4.1,6.6,6.7,13.9,6.7,20.5s-8.8,26.2,3.7,36.3c12.6,10,19.9,1.4,19.9,1.4,0,0,7.3,8.6,19.9-1.4,12.6-10,3.7-29.7,3.7-36.3s2.6-13.9,6.7-20.5"/>
            <path class="cls-18" d="M900.6,1344.4c1.7,5.5,0,31.8,2,35.7,2,3.9,8.3,1.8,8.3,1.8,0,0,6.3,2.1,8.3-1.8s.3-30.1,2-35.7"/>
            <path class="cls-18" d="M921.3,1381.7c0,3.1-1.8,14.2-10,14.2s-10-11.1-10-14.2,4.5-4.4,10-4.4,10,1.3,10,4.4Z"/>
          </g>
          <path class="cls-5" d="M1027.9,910.3c6.3,7.1,10.8,12.6,14,15.1"/>
          <path class="cls-12" d="M727.3,1043.2s-14.5,93.3,25.4,88"/>
          <path class="cls-12" d="M1097.6,1043.2s13.5,93.3-26.4,88"/>
        </g>
        <path class="cls-18" d="M847,857.2s13.9-41.1,11.6-55.6h105.3c-2.3,14.5,11.6,55.6,11.6,55.6"/>
        <path class="cls-1" d="M945.8,812s-6.9,49.5-19.8,65.4"/>
        <path class="cls-1" d="M878.1,812s6.9,49.5,19.8,65.4"/>
        <g>
          <g>
            <path class="cls-3" d="M973.8,740.7s11.8-16,17.7-13.8-1.7,11.4-2.9,17.8c-1.2,6.1,1.6,11.1-.9,19-2.6,7.9-4.6,8.4-7.8,13.3-4.5,6.9,1.1,15.8-8.8,17.1-7,1-6.5-13.4-6.5-16.7s2-36.7,9.4-36.7Z"/>
            <path class="cls-23" d="M984.7,741.6c-3.8,0-6.4,5.3-6.4,8.5s1.4,5.1,1.4,8.7-.6,4.5-2.3,7.9c-1.8,3.4-2.7,7.5-1.9,8.9"/>
            <path class="cls-23" d="M979,754.3s3.7,1.4,5.2-.5"/>
          </g>
          <g>
            <path class="cls-3" d="M850.1,740.7s-11.8-16-17.7-13.8c-2.6,1,1.7,11.4,2.9,17.8,1.2,6.1-1.6,11.1.9,19,2.6,7.9,4.6,8.4,7.8,13.3,4.5,6.9-1.1,15.8,8.8,17.1,7,1,6.5-13.4,6.5-16.7s-2-36.7-9.4-36.7Z"/>
            <path class="cls-23" d="M839.2,741.6c3.8,0,6.4,5.3,6.4,8.5,0,3.3-1.4,5.1-1.4,8.7,0,3.5.6,4.5,2.3,7.9,1.8,3.4,2.7,7.5,1.9,8.9"/>
            <path class="cls-23" d="M844.9,754.3s-3.7,1.4-5.2-.5"/>
          </g>
          <path class="cls-24" d="M975.9,697c-3.4-21.8-32.3-31.5-64-31.5s-60.6,9.7-64,31.5c-3.4,21.8-2,36.1,1.1,50.5,3.1,14.4,1.6,14.4,3.8,33.6,2.2,19.2-7.3,37.9,8.7,50.3,16,12.4,26.4,6.4,50.4,6.4s34.5,6.1,50.4-6.4c16-12.4,6.5-31.1,8.7-50.3,2.2-19.2.6-19.2,3.8-33.6,3.1-14.4,4.5-28.7,1.1-50.5Z"/>
          <path class="cls-1" d="M931.7,771.1c1.9,10.4,20.1,15.3,23.8,26.6,3.7,11.2-7.5,18-7.5,18"/>
          <path class="cls-1" d="M937.5,756.6c7.7,3,6.9,14.8,11.4,22.4,4.4,7.6,10.7,10.8,10.7,10.8"/>
          <path class="cls-1" d="M960.9,813s-6.1,13-12.8,15.8c-6.7,2.8-8.7-4.8-8.7-4.8"/>
          <path class="cls-1" d="M862.9,813s6.1,13,12.8,15.8c6.7,2.8,8.7-4.8,8.7-4.8"/>
          <path class="cls-1" d="M925.4,736.7s-4.8,6.1-6.9,10.8"/>
          <path class="cls-1" d="M928.2,738.6s8.4,9.4,13.7,10.1c5.3.7,10-.5,10-.5"/>
          <path class="cls-25" d="M929.1,731.8c-.4,5.9,8.7,12.2,14.4,12.7s11.1-6.2,11.1-6.2c0,0-6.2-5.6-10.8-8.6-4.7-3-14.7,2.2-14.7,2.2Z"/>
          <path class="cls-1" d="M924.5,716.7c1.8,5.8,8,4.8,13,6.7,5,1.9,22.2,8.5,27.5,24"/>
          <path class="cls-1" d="M903.7,760.9s-2.1-3.5-4.6-3.8-7.1,2.5-8.3,7.3c-1.3,4.9,1.6,8.8,6.5,8.6,0,0,8.4,5.7,14.7,5.7,6.2,0,14.7-5.7,14.7-5.7,4.9.1,7.7-3.7,6.5-8.6-1.3-4.9-5.9-7.7-8.3-7.3-2.5.4-4.6,3.8-4.6,3.8"/>
          <path class="cls-1" d="M892.1,771.1c-1.9,10.4-20.1,15.3-23.8,26.6-3.7,11.2,7.5,18,7.5,18"/>
          <path class="cls-1" d="M886.4,756.6c-7.7,3-6.9,14.8-11.4,22.4-4.4,7.6-10.7,10.8-10.7,10.8"/>
          <path class="cls-12" d="M949.2,805.6c-7.8-1.7-19-15.6-25.5-16.5-5.8-.7-7.6,1.5-11.8,1.5s-6-2.3-11.8-1.5c-6.5.8-17.7,14.7-25.5,16.5"/>
          <path class="cls-1" d="M898.5,736.7s4.8,6.1,6.9,10.8"/>
          <path class="cls-1" d="M895.6,738.6s-8.4,9.4-13.7,10.1-10-.5-10-.5"/>
          <path class="cls-25" d="M894.8,731.8c.4,5.9-8.7,12.2-14.4,12.7-5.7.4-11.1-6.2-11.1-6.2,0,0,6.2-5.6,10.8-8.6,4.7-3,14.7,2.2,14.7,2.2Z"/>
          <path class="cls-1" d="M899.3,716.7c-1.8,5.8-8,4.8-13,6.7-5,1.9-22.2,8.5-27.5,24"/>
          <path class="cls-1" d="M900.4,725.1c4.7,3,5.4-3.9,11.5-3.9,6.1,0,6.9,6.9,11.5,3.9"/>
          <path class="cls-1" d="M890.6,708.3c5.3-2.6,8.4-15.6,21.3-15.6,12.9,0,16,13,21.3,15.6"/>
          <path class="cls-30" d="M902.8,702.3c.7-2.4,5.9-7.8,9.1-7.8,3.2,0,8.4,5.3,9.1,7.8"/>
          <path class="cls-1" d="M896.7,691.6s3.5-5.4,15.3-5.4c11.8,0,15.3,5.4,15.3,5.4"/>
          <path class="cls-1" d="M925,808.4s-3.9-6.7-13.1-6.7c-9.2,0-13.1,6.7-13.1,6.7"/>
        </g>
        <path class="cls-14" d="M926.2,711.1c4.3,6.6,11.6,11.7,26.2,12.1s17.6,22.5,22.5,30.8c4.9,8.3,12,19.2,10.9,28,0-.7,4.1-13.8-2.3-27.3s-8.3-34.9-17.2-40.5c-8.9-5.6-19-1-24-.1s-16.1-2.9-16.1-2.9Z"/>
        <path class="cls-14" d="M897.7,711.1c-4.3,6.6-11.6,11.7-26.2,12.1-14.6.4-17.6,22.5-22.5,30.8-4.9,8.3-12,19.2-10.9,28,0-.7-4.1-13.8,2.3-27.3,6.4-13.4,8.3-34.9,17.2-40.5s19-1,24-.1c5,.9,16.1-2.9,16.1-2.9Z"/>
        <g>
          <circle class="cls-7" cx="988.5" cy="658.4" r="12.5"/>
          <circle class="cls-7" cx="834" cy="658.4" r="12.5"/>
          <path class="cls-31" d="M978.3,605.5s-23.5-16.4-67.1-16.4-67.1,16.4-67.1,16.4l-9.7,105.8s19.9-27,76.7-27,76.7,27,76.7,27l-9.7-105.8Z"/>
          <circle class="cls-7" cx="995.3" cy="688.2" r="17.3"/>
          <circle class="cls-7" cx="827.2" cy="688.2" r="17.3"/>
          <path class="cls-4" d="M998.3,734.8c-5-9.8-4.7-28.9-7.2-39.8-8.5-4.8-23.4-26.5-23.4-26.5,0,0-18.4,3-28.3-4.2-9.9-7.3-28.2-13.2-28.2-13.2,0,0-18.3,6-28.2,13.2-9.9,7.3-28.3,4.2-28.3,4.2,0,0-14.9,21.7-23.4,26.5-2.5,10.9-2.2,29.9-7.2,39.8,7.1,14.5,18.9-.3,28,39.2,0,0-12.9-57.8.8-72.7,13.6-14.9,58.3-17,58.3-17,0,0,44.7,2.1,58.3,17,13.6,14.9.8,72.7.8,72.7,9.1-39.5,20.9-24.7,28-39.2Z"/>
          <path class="cls-15" d="M968.2,705.4c3.3,4.5,6.1,39.2,6.1,39.2,0,0,1.8-12.1,5.3-18.9-1.8-10.6-4.8-25.2-7.3-28.3-3.6-4.5-32.6-18.4-61-18.4s-57.4,13.9-61,18.4c-2.4,3.1-5.5,17.7-7.2,28.3,3.5,6.9,5.3,19,5.3,19,0,0,2.8-34.6,6.1-39.2,3.3-4.5,21.2-15.3,56.9-15.3s53.6,10.8,56.9,15.3Z"/>
          <ellipse class="cls-29" cx="911.2" cy="667.8" rx="9.1" ry="4.7"/>
        </g>
        <g>
          <path class="cls-19" d="M1046.4,1370.3c-4.7-216.5-29.9-210.2-29.9-210.2,0,0-54.9,21.4-108.1,21.4s-98.1-21.4-98.1-21.4c0,0-35.2-6.3-39.9,210.2-4.7,216.5-36.8,465.2-36.8,465.2,75.5,86.6,114.8,38.7,177.1,38.7s97.2,47.9,172.7-38.7c0,0-32.1-248.7-36.8-465.2Z"/>
          <path class="cls-5" d="M921.7,1804.6c34.2-32.9,60.8-114.7,78.2-425.1"/>
          <path class="cls-5" d="M830.8,1512.7c4.8,80.4,40.3,218.2,45.3,291.7"/>
          <g>
            <path class="cls-16" d="M1021.4,1202.4l-113.1,5.2-113.1-5.2c-1.2,37.5,4.8,217.4-3.5,379.5-9.8,191.4-10.9,191.9-10.9,191.9,0,0,30,29.2,127.5,29.2s127.5-29.2,127.5-29.2c0,0-1.2-.5-10.9-192-8.3-162.1-2.2-341.8-3.5-379.3Z"/>
            <path class="cls-10" d="M1005.2,1202.4l-96.8,5-96.8-5c-2.2,79.1-2.2-135-6.7,540.4,0,0,26.2,35.4,103.5,35.4s103.5-35.4,103.5-35.4c-4.5-675.4-4.5-461.3-6.7-540.4Z"/>
            <path class="cls-8" d="M990.4,1202.4l-82.1,4.9-82.1-4.9c-1.8,76.6-1.8-137.5-1.5,523.7,0,0,19.7,29.2,83.6,29.2s83.6-29.2,83.6-29.2c.3-661.3.3-447.1-1.5-523.7Z"/>
            <path class="cls-5" d="M946.9,1223s-9.2,91.9-77,162.3"/>
            <path class="cls-5" d="M954.5,1417.5s4.1,143.8-79.9,297.8"/>
          </g>
        </g>
        <g>
          <path class="cls-10" d="M826.7,846.6s10.7-1.8,15.2-4.7c4.5-2.8,28.4,224.5,185.7,303.4,0,0,1.8,12.8,2.8,16.5,1,3.8-93,37.4-154.5-83-61.5-120.4-49.2-232.2-49.2-232.2Z"/>
          <path class="cls-10" d="M647,1319.9c-.8,9.3-4.4,15.3-4.4,15.3,0,0,72.1,31.2,116.3,14.9l3.1-14.2-115-15.9Z"/>
          <path class="cls-31" d="M828.9,843.8c7.2,50.9,34,248.4,201.9,314,0,0,13.5,53,2.7,67.4-4,5.3-46.5,26.9-116.3,26.9-69.8,0-106.6-5.7-127.9-26.9-12-20.9-3.8-38.7,3.8-57.7,7.7-19,11.9-20.8,9.2-42.7s-7.2-43.1-7.2-43.1c0,0-11.3,31.7-14.7,76.7-3.3,45-6.8,139.1-16.1,180.6-19.3,8.8-87.7,7-119.4-18,1-45.1,30.6-72.4,48.6-192.4,8.3-55.1,17.2-171.1,36.1-211.8,18.9-40.6,67.8-59.7,99.1-73Z"/>
          <path class="cls-32" d="M795.2,1081.7c-1.9-18.2-12.7-16.5-16.3-41.9"/>
          <path class="cls-5" d="M742.6,1129c1.9,17.9,8.8,26.3,10.7,39.9"/>
          <path class="cls-1" d="M972.6,1249.6c9.8-10.9,26.5,0,28.4-29.2"/>
          <path class="cls-1" d="M868,1250.7c-8.8,1-44.6-5.3-48-40.1"/>
          <path class="cls-1" d="M793.2,1087c-8.4-3.3-13.8-14-23.2-26.2"/>
          <path class="cls-1" d="M943.2,1251.1c-24.6,1-67.8-35.5-99.2-104.7"/>
        </g>
        <g>
          <g>
            <path class="cls-21" d="M1036.5,1205.2c-35.8,24.1-95.3,29.1-129.1,29.1s-93.2-5-129.1-29.1c0,0-5.1,15.2,0,22,27.2,21.1,99.4,32.2,129.2,32.2s101.9-11.2,129.2-32.2c5.1-6.7,0-22,0-22Z"/>
            <path class="cls-1" d="M1036.3,1208c-12,18.8-32.7,33.6-49.4,39.9"/>
            <path class="cls-1" d="M941.9,1251.4s40.5-5.3,63.9-28"/>
            <path class="cls-1" d="M778.3,1213.4c12,18.8,42.1,31.8,61.8,37.4"/>
            <path class="cls-1" d="M881.2,1253.1s-54-11.8-74.1-32.4"/>
          </g>
          <g>
            <path class="cls-22" d="M913.1,1253.1c-4.5,51,3.2,151.3,56.5,239.4,53.3,88.1,72,134.4,48.1,180.7,0,0,2.2,5.7,8.2,7,5.9,1.4,11.3,2.5,11.8,5.4.5,3,14.4-9.1,12.2-37.3-2.2-28.2-10.9-88.4-53.6-149.8-42.7-61.4-70.7-160.8-55.4-253l-27.8,7.6Z"/>
            <path class="cls-1" d="M920.8,1251.4c-10.7,86.1,15.6,187.2,72.5,251.9"/>
            <path class="cls-1" d="M996.3,1527.2c27.8,39.3,45.3,99.1,26.9,133.2"/>
            <path class="cls-1" d="M1033.8,1682.2c10.3-13.1,14.8-50.3-3-92.1"/>
            <path class="cls-1" d="M936.7,1246.6c-27.2,47.7,10,201.3,0,111.9"/>
          </g>
          <g>
            <path class="cls-22" d="M890.4,1240.6s12.2,15.5,23.6,12.4c0,0-100.9,122.9,4.5,207.6,105.5,84.7,129.3,65.7,169.8,129.5,0,0-7-2.1-9.7,2.4-2.7,4.5-6.1,11.8-12.4,9.4-6.4-2.4-23.9-46.6-108.6-95.6-84.7-49-106.9-72.3-104.1-134.2,2.9-61.9,29.6-101.8,36.9-131.5Z"/>
            <path class="cls-1" d="M905.2,1252.3c-19.2,54-95.8,141.8,11.6,229.1"/>
            <path class="cls-1" d="M898.6,1455.7c45.9,60.1,158.9,72.7,176.4,142.8"/>
            <path class="cls-1" d="M895,1245.5c3,23.9-25,48.6-28.7,81.4"/>
          </g>
          <g>
            <path class="cls-21" d="M1003.6,1270.3c-6.2-26-52.9-24-72.1-32.9-11.7-5.4-19.9,12-18,23.2,1.9,11.2,3.3,5.7,18,27,14.7,21.3,44.7,31.4,55.7,28,11-3.4,22.6-19.3,16.4-45.3ZM971.9,1297.5c-16.1-3-21.3-17.8-36.9-30.3-12.1-9.7-7-22.7,3.8-17.2,14,7.1,52.6,13.2,52.4,29.3-.2,14.5-1.4,21.6-19.3,18.2Z"/>
            <path class="cls-1" d="M940.8,1245.8c14,10.4,49.6,4.2,50.1,31.2"/>
            <path class="cls-1" d="M999.5,1276.9c.9,24.2-7.8,41.7-34.1,35.8"/>
            <path class="cls-1" d="M926.1,1267.3s10.4,8.2,24.3,23.1c11.2,12,29.4,15.5,37.4,5.1"/>
          </g>
          <g>
            <path class="cls-21" d="M829.5,1315.7c11,3.4,41-6.7,55.7-28,14.7-21.3,16.2-15.8,18-27,1.9-11.2-6.4-28.6-18-23.2-19.2,8.9-65.8,6.9-72.1,32.9-6.2,26,5.4,42,16.4,45.3ZM825.5,1279.3c-.2-16.1,38.3-22.2,52.4-29.3,10.8-5.4,16,7.5,3.8,17.2-15.6,12.5-20.8,27.3-36.9,30.3-17.9,3.3-19.1-3.8-19.3-18.2Z"/>
            <path class="cls-1" d="M875.9,1245.8c-14,10.4-49.6,4.2-50.1,31.2"/>
            <path class="cls-1" d="M817.2,1276.9c-.9,24.2,7.8,41.7,34.1,35.8"/>
            <path class="cls-1" d="M890.6,1267.3s-10.4,8.2-24.3,23.1c-11.2,12-29.4,15.5-37.4,5.1"/>
          </g>
          <g>
            <path class="cls-21" d="M897.7,1231.3c-6.3,2-8,3.1-4.2,18.6,3.7,15.5,5.3,13.4,4.7,19.3s17.2,13.3,23.6,5.8c8.3-9.8,3.6-31.9,8.1-38.1s-3.9-9.3-12.6-4.9c-8.7,4.4-10.7-3.5-19.6-.6Z"/>
            <path class="cls-1" d="M919.8,1230.8c-4.2,12.3-2.3,28.9-7.4,32-3,1.8-5-1.8-5-8.7"/>
            <path class="cls-1" d="M909.1,1232.7c-5.7,11.2-14.6,42.3,5.1,45.3"/>
          </g>
        </g>
      </g>
    </g>
  </g>
</svg>