<?xml version="1.0" encoding="UTF-8"?>
<svg xmlns="http://www.w3.org/2000/svg" version="1.1" viewBox="0 0 1800 2400">
  <defs>
    <style>
      .cls-1 {
        fill: #29b473;
      }

      .cls-1, .cls-2, .cls-3, .cls-4, .cls-5, .cls-6, .cls-7, .cls-8, .cls-9, .cls-10, .cls-11, .cls-12, .cls-13, .cls-14, .cls-15, .cls-16, .cls-17, .cls-18, .cls-19, .cls-20, .cls-21, .cls-22, .cls-23, .cls-24, .cls-25, .cls-26, .cls-27, .cls-28, .cls-29, .cls-30, .cls-31, .cls-32 {
        stroke: #231f20;
      }

      .cls-1, .cls-3, .cls-5, .cls-15, .cls-25, .cls-30, .cls-31, .cls-32 {
        stroke-width: 5px;
      }

      .cls-1, .cls-3, .cls-6, .cls-33, .cls-12, .cls-15, .cls-16, .cls-17, .cls-18, .cls-20, .cls-22, .cls-23, .cls-30 {
        stroke-miterlimit: 10;
      }

      .cls-2, .cls-4, .cls-5, .cls-7, .cls-8, .cls-9, .cls-10, .cls-11, .cls-13, .cls-14, .cls-19, .cls-21, .cls-24, .cls-25, .cls-26, .cls-27, .cls-28, .cls-29, .cls-31, .cls-32 {
        stroke-linejoin: round;
      }

      .cls-2, .cls-5, .cls-9, .cls-10, .cls-12, .cls-13, .cls-16, .cls-18, .cls-23, .cls-24, .cls-25, .cls-28, .cls-31 {
        stroke-linecap: round;
      }

      .cls-2, .cls-33, .cls-9, .cls-13, .cls-16, .cls-22, .cls-23, .cls-28, .cls-30, .cls-31 {
        fill: none;
      }

      .cls-2, .cls-12, .cls-23, .cls-26, .cls-27 {
        stroke-width: 2px;
      }

      .cls-3, .cls-12, .cls-18, .cls-32 {
        fill: #fff;
      }

      .cls-4, .cls-6, .cls-9, .cls-22, .cls-24 {
        stroke-width: 4px;
      }

      .cls-4, .cls-15, .cls-29 {
        fill: #4e4d60;
      }

      .cls-5 {
        fill: #edd9d5;
      }

      .cls-6, .cls-11, .cls-17, .cls-21, .cls-24, .cls-25 {
        fill: #d8cece;
      }

      .cls-33 {
        stroke: #006838;
        stroke-width: .5px;
      }

      .cls-7, .cls-8, .cls-11, .cls-14, .cls-17, .cls-18, .cls-20 {
        stroke-width: 6px;
      }

      .cls-7, .cls-20, .cls-27 {
        fill: #5d5167;
      }

      .cls-8 {
        fill: #8e8399;
      }

      .cls-10 {
        fill: #8a5d3b;
      }

      .cls-10, .cls-13, .cls-16, .cls-19 {
        stroke-width: 3px;
      }

      .cls-14, .cls-26 {
        fill: #3d3644;
      }

      .cls-34 {
        fill: #231f20;
      }

      .cls-19 {
        fill: #f1f1f2;
      }

      .cls-21, .cls-29 {
        stroke-width: 7px;
      }

      .cls-28 {
        stroke-width: 2.5px;
      }
    </style>
  </defs>
  <!-- Generator: Adobe Illustrator 28.7.4, SVG Export Plug-In . SVG Version: 1.2.0 Build 166)  -->
  <g>
    <g id="Layer_1">
      <g>
        <rect class="cls-1" y="0" width="1800" height="2400"/>
        <g>
          <g>
            <line class="cls-30" x1="130" y1="0" x2="130" y2="130"/>
            <line class="cls-30" x1="284" y1="0" x2="284" y2="130"/>
            <line class="cls-30" x1="438" y1="0" x2="438" y2="130"/>
            <line class="cls-30" x1="592" y1="0" x2="592" y2="130"/>
            <line class="cls-30" x1="746" y1="0" x2="746" y2="130"/>
            <line class="cls-30" x1="900" y1="0" x2="900" y2="130"/>
            <line class="cls-30" x1="1054" y1="0" x2="1054" y2="130"/>
            <line class="cls-30" x1="1208" y1="0" x2="1208" y2="130"/>
            <line class="cls-30" x1="1362" y1="0" x2="1362" y2="130"/>
            <line class="cls-30" x1="1516" y1="0" x2="1516" y2="130"/>
            <line class="cls-30" x1="1670" y1="0" x2="1670" y2="130"/>
          </g>
          <g>
            <line class="cls-22" x1="130" y1="0" x2="130" y2="72.1"/>
            <line class="cls-22" x1="160.8" y1="0" x2="160.8" y2="72.1"/>
            <line class="cls-22" x1="191.6" y1="0" x2="191.6" y2="72.1"/>
            <line class="cls-22" x1="222.4" y1="0" x2="222.4" y2="72.1"/>
            <line class="cls-22" x1="253.2" y1="0" x2="253.2" y2="72.1"/>
            <line class="cls-22" x1="284" y1="0" x2="284" y2="72.1"/>
            <line class="cls-22" x1="314.8" y1="0" x2="314.8" y2="72.1"/>
            <line class="cls-22" x1="345.6" y1="0" x2="345.6" y2="72.1"/>
            <line class="cls-22" x1="376.4" y1="0" x2="376.4" y2="72.1"/>
            <line class="cls-22" x1="407.2" y1="0" x2="407.2" y2="72.1"/>
            <line class="cls-22" x1="438" y1="0" x2="438" y2="72.1"/>
            <line class="cls-22" x1="468.8" y1="0" x2="468.8" y2="72.1"/>
            <line class="cls-22" x1="499.6" y1="0" x2="499.6" y2="72.1"/>
            <line class="cls-22" x1="530.4" y1="0" x2="530.4" y2="72.1"/>
            <line class="cls-22" x1="561.2" y1="0" x2="561.2" y2="72.1"/>
            <line class="cls-22" x1="592" y1="0" x2="592" y2="72.1"/>
            <line class="cls-22" x1="622.8" y1="0" x2="622.8" y2="72.1"/>
            <line class="cls-22" x1="653.6" y1="0" x2="653.6" y2="72.1"/>
            <line class="cls-22" x1="684.4" y1="0" x2="684.4" y2="72.1"/>
            <line class="cls-22" x1="715.2" y1="0" x2="715.2" y2="72.1"/>
            <line class="cls-22" x1="746" y1="0" x2="746" y2="72.1"/>
            <line class="cls-22" x1="776.8" y1="0" x2="776.8" y2="72.1"/>
            <line class="cls-22" x1="807.6" y1="0" x2="807.6" y2="72.1"/>
            <line class="cls-22" x1="838.4" y1="0" x2="838.4" y2="72.1"/>
            <line class="cls-22" x1="869.2" y1="0" x2="869.2" y2="72.1"/>
            <line class="cls-22" x1="900" y1="0" x2="900" y2="72.1"/>
            <line class="cls-22" x1="930.8" y1="0" x2="930.8" y2="72.1"/>
            <line class="cls-22" x1="961.6" y1="0" x2="961.6" y2="72.1"/>
            <line class="cls-22" x1="992.4" y1="0" x2="992.4" y2="72.1"/>
            <line class="cls-22" x1="1023.2" y1="0" x2="1023.2" y2="72.1"/>
            <line class="cls-22" x1="1054" y1="0" x2="1054" y2="72.1"/>
            <line class="cls-22" x1="1084.8" y1="0" x2="1084.8" y2="72.1"/>
            <line class="cls-22" x1="1115.6" y1="0" x2="1115.6" y2="72.1"/>
            <line class="cls-22" x1="1146.4" y1="0" x2="1146.4" y2="72.1"/>
            <line class="cls-22" x1="1177.2" y1="0" x2="1177.2" y2="72.1"/>
            <line class="cls-22" x1="1208" y1="0" x2="1208" y2="72.1"/>
            <line class="cls-22" x1="1238.8" y1="0" x2="1238.8" y2="72.1"/>
            <line class="cls-22" x1="1269.6" y1="0" x2="1269.6" y2="72.1"/>
            <line class="cls-22" x1="1300.4" y1="0" x2="1300.4" y2="72.1"/>
            <line class="cls-22" x1="1331.2" y1="0" x2="1331.2" y2="72.1"/>
            <line class="cls-22" x1="1362" y1="0" x2="1362" y2="72.1"/>
            <line class="cls-22" x1="1392.8" y1="0" x2="1392.8" y2="72.1"/>
            <line class="cls-22" x1="1423.6" y1="0" x2="1423.6" y2="72.1"/>
            <line class="cls-22" x1="1454.4" y1="0" x2="1454.4" y2="72.1"/>
            <line class="cls-22" x1="1485.2" y1="0" x2="1485.2" y2="72.1"/>
            <line class="cls-22" x1="1516" y1="0" x2="1516" y2="72.1"/>
            <line class="cls-22" x1="1546.8" y1="0" x2="1546.8" y2="72.1"/>
            <line class="cls-22" x1="1577.6" y1="0" x2="1577.6" y2="72.1"/>
            <line class="cls-22" x1="1608.4" y1="0" x2="1608.4" y2="72.1"/>
            <line class="cls-22" x1="1639.2" y1="0" x2="1639.2" y2="72.1"/>
            <line class="cls-22" x1="1670" y1="0" x2="1670" y2="72.1"/>
          </g>
        </g>
        <g>
          <g>
            <line class="cls-22" x1="130" y1="2327.9" x2="130" y2="2400"/>
            <line class="cls-22" x1="160.8" y1="2327.9" x2="160.8" y2="2400"/>
            <line class="cls-22" x1="191.6" y1="2327.9" x2="191.6" y2="2400"/>
            <line class="cls-22" x1="222.4" y1="2327.9" x2="222.4" y2="2400"/>
            <line class="cls-22" x1="253.2" y1="2327.9" x2="253.2" y2="2400"/>
            <line class="cls-22" x1="284" y1="2327.9" x2="284" y2="2400"/>
            <line class="cls-22" x1="314.8" y1="2327.9" x2="314.8" y2="2400"/>
            <line class="cls-22" x1="345.6" y1="2327.9" x2="345.6" y2="2400"/>
            <line class="cls-22" x1="376.4" y1="2327.9" x2="376.4" y2="2400"/>
            <line class="cls-22" x1="407.2" y1="2327.9" x2="407.2" y2="2400"/>
            <line class="cls-22" x1="438" y1="2327.9" x2="438" y2="2400"/>
            <line class="cls-22" x1="468.8" y1="2327.9" x2="468.8" y2="2400"/>
            <line class="cls-22" x1="499.6" y1="2327.9" x2="499.6" y2="2400"/>
            <line class="cls-22" x1="530.4" y1="2327.9" x2="530.4" y2="2400"/>
            <line class="cls-22" x1="561.2" y1="2327.9" x2="561.2" y2="2400"/>
            <line class="cls-22" x1="592" y1="2327.9" x2="592" y2="2400"/>
            <line class="cls-22" x1="622.8" y1="2327.9" x2="622.8" y2="2400"/>
            <line class="cls-22" x1="653.6" y1="2327.9" x2="653.6" y2="2400"/>
            <line class="cls-22" x1="684.4" y1="2327.9" x2="684.4" y2="2400"/>
            <line class="cls-22" x1="715.2" y1="2327.9" x2="715.2" y2="2400"/>
            <line class="cls-22" x1="746" y1="2327.9" x2="746" y2="2400"/>
            <line class="cls-22" x1="776.8" y1="2327.9" x2="776.8" y2="2400"/>
            <line class="cls-22" x1="807.6" y1="2327.9" x2="807.6" y2="2400"/>
            <line class="cls-22" x1="838.4" y1="2327.9" x2="838.4" y2="2400"/>
            <line class="cls-22" x1="869.2" y1="2327.9" x2="869.2" y2="2400"/>
            <line class="cls-22" x1="900" y1="2327.9" x2="900" y2="2400"/>
            <line class="cls-22" x1="930.8" y1="2327.9" x2="930.8" y2="2400"/>
            <line class="cls-22" x1="961.6" y1="2327.9" x2="961.6" y2="2400"/>
            <line class="cls-22" x1="992.4" y1="2327.9" x2="992.4" y2="2400"/>
            <line class="cls-22" x1="1023.2" y1="2327.9" x2="1023.2" y2="2400"/>
            <line class="cls-22" x1="1054" y1="2327.9" x2="1054" y2="2400"/>
            <line class="cls-22" x1="1084.8" y1="2327.9" x2="1084.8" y2="2400"/>
            <line class="cls-22" x1="1115.6" y1="2327.9" x2="1115.6" y2="2400"/>
            <line class="cls-22" x1="1146.4" y1="2327.9" x2="1146.4" y2="2400"/>
            <line class="cls-22" x1="1177.2" y1="2327.9" x2="1177.2" y2="2400"/>
            <line class="cls-22" x1="1208" y1="2327.9" x2="1208" y2="2400"/>
            <line class="cls-22" x1="1238.8" y1="2327.9" x2="1238.8" y2="2400"/>
            <line class="cls-22" x1="1269.6" y1="2327.9" x2="1269.6" y2="2400"/>
            <line class="cls-22" x1="1300.4" y1="2327.9" x2="1300.4" y2="2400"/>
            <line class="cls-22" x1="1331.2" y1="2327.9" x2="1331.2" y2="2400"/>
            <line class="cls-22" x1="1362" y1="2327.9" x2="1362" y2="2400"/>
            <line class="cls-22" x1="1392.8" y1="2327.9" x2="1392.8" y2="2400"/>
            <line class="cls-22" x1="1423.6" y1="2327.9" x2="1423.6" y2="2400"/>
            <line class="cls-22" x1="1454.4" y1="2327.9" x2="1454.4" y2="2400"/>
            <line class="cls-22" x1="1485.2" y1="2327.9" x2="1485.2" y2="2400"/>
            <line class="cls-22" x1="1516" y1="2327.9" x2="1516" y2="2400"/>
            <line class="cls-22" x1="1546.8" y1="2327.9" x2="1546.8" y2="2400"/>
            <line class="cls-22" x1="1577.6" y1="2327.9" x2="1577.6" y2="2400"/>
            <line class="cls-22" x1="1608.4" y1="2327.9" x2="1608.4" y2="2400"/>
            <line class="cls-22" x1="1639.2" y1="2327.9" x2="1639.2" y2="2400"/>
            <line class="cls-22" x1="1670" y1="2327.9" x2="1670" y2="2400"/>
          </g>
          <g>
            <line class="cls-30" x1="130" y1="2270" x2="130" y2="2400"/>
            <line class="cls-30" x1="284" y1="2270" x2="284" y2="2400"/>
            <line class="cls-30" x1="438" y1="2270" x2="438" y2="2400"/>
            <line class="cls-30" x1="592" y1="2270" x2="592" y2="2400"/>
            <line class="cls-30" x1="746" y1="2270" x2="746" y2="2400"/>
            <line class="cls-30" x1="900" y1="2270" x2="900" y2="2400"/>
            <line class="cls-30" x1="1054" y1="2270" x2="1054" y2="2400"/>
            <line class="cls-30" x1="1208" y1="2270" x2="1208" y2="2400"/>
            <line class="cls-30" x1="1362" y1="2270" x2="1362" y2="2400"/>
            <line class="cls-30" x1="1516" y1="2270" x2="1516" y2="2400"/>
            <line class="cls-30" x1="1670" y1="2270" x2="1670" y2="2400"/>
          </g>
        </g>
        <g>
          <g>
            <line class="cls-30" x1="1670" y1="130" x2="1800" y2="130"/>
            <line class="cls-30" x1="1670" y1="272.7" x2="1800" y2="272.7"/>
            <line class="cls-30" x1="1670" y1="415.3" x2="1800" y2="415.3"/>
            <line class="cls-30" x1="1670" y1="558" x2="1800" y2="558"/>
            <line class="cls-30" x1="1670" y1="700.7" x2="1800" y2="700.7"/>
            <line class="cls-30" x1="1670" y1="843.3" x2="1800" y2="843.3"/>
            <line class="cls-30" x1="1670" y1="986" x2="1800" y2="986"/>
            <line class="cls-30" x1="1670" y1="1128.7" x2="1800" y2="1128.7"/>
            <line class="cls-30" x1="1670" y1="1271.3" x2="1800" y2="1271.3"/>
            <line class="cls-30" x1="1670" y1="1414" x2="1800" y2="1414"/>
            <line class="cls-30" x1="1670" y1="1556.7" x2="1800" y2="1556.7"/>
            <line class="cls-30" x1="1670" y1="1699.3" x2="1800" y2="1699.3"/>
            <line class="cls-30" x1="1670" y1="1842" x2="1800" y2="1842"/>
            <line class="cls-30" x1="1670" y1="1984.7" x2="1800" y2="1984.7"/>
            <line class="cls-30" x1="1670" y1="2127.3" x2="1800" y2="2127.3"/>
            <line class="cls-30" x1="1670" y1="2270" x2="1800" y2="2270"/>
          </g>
          <g>
            <line class="cls-22" x1="1735" y1="130" x2="1800" y2="130"/>
            <line class="cls-22" x1="1735" y1="158.5" x2="1800" y2="158.5"/>
            <line class="cls-22" x1="1735" y1="187.1" x2="1800" y2="187.1"/>
            <line class="cls-22" x1="1735" y1="215.6" x2="1800" y2="215.6"/>
            <line class="cls-22" x1="1735" y1="244.1" x2="1800" y2="244.1"/>
            <line class="cls-22" x1="1735" y1="272.7" x2="1800" y2="272.7"/>
            <line class="cls-22" x1="1735" y1="301.2" x2="1800" y2="301.2"/>
            <line class="cls-22" x1="1735" y1="329.7" x2="1800" y2="329.7"/>
            <line class="cls-22" x1="1735" y1="358.3" x2="1800" y2="358.3"/>
            <line class="cls-22" x1="1735" y1="386.8" x2="1800" y2="386.8"/>
            <line class="cls-22" x1="1735" y1="415.3" x2="1800" y2="415.3"/>
            <line class="cls-22" x1="1735" y1="443.9" x2="1800" y2="443.9"/>
            <line class="cls-22" x1="1735" y1="472.4" x2="1800" y2="472.4"/>
            <line class="cls-22" x1="1735" y1="500.9" x2="1800" y2="500.9"/>
            <line class="cls-22" x1="1735" y1="529.5" x2="1800" y2="529.5"/>
            <line class="cls-22" x1="1735" y1="558" x2="1800" y2="558"/>
            <line class="cls-22" x1="1735" y1="586.5" x2="1800" y2="586.5"/>
            <line class="cls-22" x1="1735" y1="615.1" x2="1800" y2="615.1"/>
            <line class="cls-22" x1="1735" y1="643.6" x2="1800" y2="643.6"/>
            <line class="cls-22" x1="1735" y1="672.1" x2="1800" y2="672.1"/>
            <line class="cls-22" x1="1735" y1="700.7" x2="1800" y2="700.7"/>
            <line class="cls-22" x1="1735" y1="729.2" x2="1800" y2="729.2"/>
            <line class="cls-22" x1="1735" y1="757.7" x2="1800" y2="757.7"/>
            <line class="cls-22" x1="1735" y1="786.3" x2="1800" y2="786.3"/>
            <line class="cls-22" x1="1735" y1="814.8" x2="1800" y2="814.8"/>
            <line class="cls-22" x1="1735" y1="843.3" x2="1800" y2="843.3"/>
            <line class="cls-22" x1="1735" y1="871.9" x2="1800" y2="871.9"/>
            <line class="cls-22" x1="1735" y1="900.4" x2="1800" y2="900.4"/>
            <line class="cls-22" x1="1735" y1="928.9" x2="1800" y2="928.9"/>
            <line class="cls-22" x1="1735" y1="957.5" x2="1800" y2="957.5"/>
            <line class="cls-22" x1="1735" y1="986" x2="1800" y2="986"/>
            <line class="cls-22" x1="1735" y1="1014.5" x2="1800" y2="1014.5"/>
            <line class="cls-22" x1="1735" y1="1043.1" x2="1800" y2="1043.1"/>
            <line class="cls-22" x1="1735" y1="1071.6" x2="1800" y2="1071.6"/>
            <line class="cls-22" x1="1735" y1="1100.1" x2="1800" y2="1100.1"/>
            <line class="cls-22" x1="1735" y1="1128.7" x2="1800" y2="1128.7"/>
            <line class="cls-22" x1="1735" y1="1157.2" x2="1800" y2="1157.2"/>
            <line class="cls-22" x1="1735" y1="1185.7" x2="1800" y2="1185.7"/>
            <line class="cls-22" x1="1735" y1="1214.3" x2="1800" y2="1214.3"/>
            <line class="cls-22" x1="1735" y1="1242.8" x2="1800" y2="1242.8"/>
            <line class="cls-22" x1="1735" y1="1271.3" x2="1800" y2="1271.3"/>
            <line class="cls-22" x1="1735" y1="1299.9" x2="1800" y2="1299.9"/>
            <line class="cls-22" x1="1735" y1="1328.4" x2="1800" y2="1328.4"/>
            <line class="cls-22" x1="1735" y1="1356.9" x2="1800" y2="1356.9"/>
            <line class="cls-22" x1="1735" y1="1385.5" x2="1800" y2="1385.5"/>
            <line class="cls-22" x1="1735" y1="1414" x2="1800" y2="1414"/>
            <line class="cls-22" x1="1735" y1="1442.5" x2="1800" y2="1442.5"/>
            <line class="cls-22" x1="1735" y1="1471.1" x2="1800" y2="1471.1"/>
            <line class="cls-22" x1="1735" y1="1499.6" x2="1800" y2="1499.6"/>
            <line class="cls-22" x1="1735" y1="1528.1" x2="1800" y2="1528.1"/>
            <line class="cls-22" x1="1735" y1="1556.7" x2="1800" y2="1556.7"/>
            <line class="cls-22" x1="1735" y1="1585.2" x2="1800" y2="1585.2"/>
            <line class="cls-22" x1="1735" y1="1613.7" x2="1800" y2="1613.7"/>
            <line class="cls-22" x1="1735" y1="1642.3" x2="1800" y2="1642.3"/>
            <line class="cls-22" x1="1735" y1="1670.8" x2="1800" y2="1670.8"/>
            <line class="cls-22" x1="1735" y1="1699.3" x2="1800" y2="1699.3"/>
            <line class="cls-22" x1="1735" y1="1727.9" x2="1800" y2="1727.9"/>
            <line class="cls-22" x1="1735" y1="1756.4" x2="1800" y2="1756.4"/>
            <line class="cls-22" x1="1735" y1="1784.9" x2="1800" y2="1784.9"/>
            <line class="cls-22" x1="1735" y1="1813.5" x2="1800" y2="1813.5"/>
            <line class="cls-22" x1="1735" y1="1842" x2="1800" y2="1842"/>
            <line class="cls-22" x1="1735" y1="1870.5" x2="1800" y2="1870.5"/>
            <line class="cls-22" x1="1735" y1="1899.1" x2="1800" y2="1899.1"/>
            <line class="cls-22" x1="1735" y1="1927.6" x2="1800" y2="1927.6"/>
            <line class="cls-22" x1="1735" y1="1956.1" x2="1800" y2="1956.1"/>
            <line class="cls-22" x1="1735" y1="1984.7" x2="1800" y2="1984.7"/>
            <line class="cls-22" x1="1735" y1="2013.2" x2="1800" y2="2013.2"/>
            <line class="cls-22" x1="1735" y1="2041.7" x2="1800" y2="2041.7"/>
            <line class="cls-22" x1="1735" y1="2070.3" x2="1800" y2="2070.3"/>
            <line class="cls-22" x1="1735" y1="2098.8" x2="1800" y2="2098.8"/>
            <line class="cls-22" x1="1735" y1="2127.3" x2="1800" y2="2127.3"/>
            <line class="cls-22" x1="1735" y1="2155.9" x2="1800" y2="2155.9"/>
            <line class="cls-22" x1="1735" y1="2184.4" x2="1800" y2="2184.4"/>
            <line class="cls-22" x1="1735" y1="2212.9" x2="1800" y2="2212.9"/>
            <line class="cls-22" x1="1735" y1="2241.5" x2="1800" y2="2241.5"/>
            <line class="cls-22" x1="1735" y1="2270" x2="1800" y2="2270"/>
          </g>
        </g>
        <g>
          <g>
            <line class="cls-22" y1="130" x2="65" y2="130"/>
            <line class="cls-22" y1="158.5" x2="65" y2="158.5"/>
            <line class="cls-22" y1="187.1" x2="65" y2="187.1"/>
            <line class="cls-22" y1="215.6" x2="65" y2="215.6"/>
            <line class="cls-22" x1="0" y1="244.1" x2="65" y2="244.1"/>
            <line class="cls-22" y1="272.7" x2="65" y2="272.7"/>
            <line class="cls-22" y1="301.2" x2="65" y2="301.2"/>
            <line class="cls-22" y1="329.7" x2="65" y2="329.7"/>
            <line class="cls-22" x1="0" y1="358.3" x2="65" y2="358.3"/>
            <line class="cls-22" y1="386.8" x2="65" y2="386.8"/>
            <line class="cls-22" y1="415.3" x2="65" y2="415.3"/>
            <line class="cls-22" y1="443.9" x2="65" y2="443.9"/>
            <line class="cls-22" y1="472.4" x2="65" y2="472.4"/>
            <line class="cls-22" y1="500.9" x2="65" y2="500.9"/>
            <line class="cls-22" y1="529.5" x2="65" y2="529.5"/>
            <line class="cls-22" y1="558" x2="65" y2="558"/>
            <line class="cls-22" y1="586.5" x2="65" y2="586.5"/>
            <line class="cls-22" y1="615.1" x2="65" y2="615.1"/>
            <line class="cls-22" y1="643.6" x2="65" y2="643.6"/>
            <line class="cls-22" x1="0" y1="672.1" x2="65" y2="672.1"/>
            <line class="cls-22" y1="700.7" x2="65" y2="700.7"/>
            <line class="cls-22" y1="729.2" x2="65" y2="729.2"/>
            <line class="cls-22" y1="757.7" x2="65" y2="757.7"/>
            <line class="cls-22" y1="786.3" x2="65" y2="786.3"/>
            <line class="cls-22" y1="814.8" x2="65" y2="814.8"/>
            <line class="cls-22" y1="843.3" x2="65" y2="843.3"/>
            <line class="cls-22" y1="871.9" x2="65" y2="871.9"/>
            <line class="cls-22" y1="900.4" x2="65" y2="900.4"/>
            <line class="cls-22" y1="928.9" x2="65" y2="928.9"/>
            <line class="cls-22" y1="957.5" x2="65" y2="957.5"/>
            <line class="cls-22" y1="986" x2="65" y2="986"/>
            <line class="cls-22" x1="0" y1="1014.5" x2="65" y2="1014.5"/>
            <line class="cls-22" y1="1043.1" x2="65" y2="1043.1"/>
            <line class="cls-22" y1="1071.6" x2="65" y2="1071.6"/>
            <line class="cls-22" y1="1100.1" x2="65" y2="1100.1"/>
            <line class="cls-22" y1="1128.7" x2="65" y2="1128.7"/>
            <line class="cls-22" y1="1157.2" x2="65" y2="1157.2"/>
            <line class="cls-22" y1="1185.7" x2="65" y2="1185.7"/>
            <line class="cls-22" y1="1214.3" x2="65" y2="1214.3"/>
            <line class="cls-22" y1="1242.8" x2="65" y2="1242.8"/>
            <line class="cls-22" y1="1271.3" x2="65" y2="1271.3"/>
            <line class="cls-22" y1="1299.9" x2="65" y2="1299.9"/>
            <line class="cls-22" y1="1328.4" x2="65" y2="1328.4"/>
            <line class="cls-22" y1="1356.9" x2="65" y2="1356.9"/>
            <line class="cls-22" y1="1385.5" x2="65" y2="1385.5"/>
            <line class="cls-22" y1="1414" x2="65" y2="1414"/>
            <line class="cls-22" y1="1442.5" x2="65" y2="1442.5"/>
            <line class="cls-22" y1="1471.1" x2="65" y2="1471.1"/>
            <line class="cls-22" y1="1499.6" x2="65" y2="1499.6"/>
            <line class="cls-22" y1="1528.1" x2="65" y2="1528.1"/>
            <line class="cls-22" y1="1556.7" x2="65" y2="1556.7"/>
            <line class="cls-22" y1="1585.2" x2="65" y2="1585.2"/>
            <line class="cls-22" y1="1613.7" x2="65" y2="1613.7"/>
            <line class="cls-22" y1="1642.3" x2="65" y2="1642.3"/>
            <line class="cls-22" y1="1670.8" x2="65" y2="1670.8"/>
            <line class="cls-22" y1="1699.3" x2="65" y2="1699.3"/>
            <line class="cls-22" y1="1727.9" x2="65" y2="1727.9"/>
            <line class="cls-22" y1="1756.4" x2="65" y2="1756.4"/>
            <line class="cls-22" y1="1784.9" x2="65" y2="1784.9"/>
            <line class="cls-22" y1="1813.5" x2="65" y2="1813.5"/>
            <line class="cls-22" y1="1842" x2="65" y2="1842"/>
            <line class="cls-22" y1="1870.5" x2="65" y2="1870.5"/>
            <line class="cls-22" y1="1899.1" x2="65" y2="1899.1"/>
            <line class="cls-22" y1="1927.6" x2="65" y2="1927.6"/>
            <line class="cls-22" y1="1956.1" x2="65" y2="1956.1"/>
            <line class="cls-22" y1="1984.7" x2="65" y2="1984.7"/>
            <line class="cls-22" y1="2013.2" x2="65" y2="2013.2"/>
            <line class="cls-22" y1="2041.7" x2="65" y2="2041.7"/>
            <line class="cls-22" y1="2070.3" x2="65" y2="2070.3"/>
            <line class="cls-22" y1="2098.8" x2="65" y2="2098.8"/>
            <line class="cls-22" y1="2127.3" x2="65" y2="2127.3"/>
            <line class="cls-22" y1="2155.9" x2="65" y2="2155.9"/>
            <line class="cls-22" y1="2184.4" x2="65" y2="2184.4"/>
            <line class="cls-22" y1="2212.9" x2="65" y2="2212.9"/>
            <line class="cls-22" y1="2241.5" x2="65" y2="2241.5"/>
            <line class="cls-22" y1="2270" x2="65" y2="2270"/>
          </g>
          <g>
            <line class="cls-30" y1="130" x2="130" y2="130"/>
            <line class="cls-30" y1="272.7" x2="130" y2="272.7"/>
            <line class="cls-30" y1="415.3" x2="130" y2="415.3"/>
            <line class="cls-30" y1="558" x2="130" y2="558"/>
            <line class="cls-30" y1="700.7" x2="130" y2="700.7"/>
            <line class="cls-30" y1="843.3" x2="130" y2="843.3"/>
            <line class="cls-30" y1="986" x2="130" y2="986"/>
            <line class="cls-30" y1="1128.7" x2="130" y2="1128.7"/>
            <line class="cls-30" y1="1271.3" x2="130" y2="1271.3"/>
            <line class="cls-30" y1="1414" x2="130" y2="1414"/>
            <line class="cls-30" y1="1556.7" x2="130" y2="1556.7"/>
            <line class="cls-30" y1="1699.3" x2="130" y2="1699.3"/>
            <line class="cls-30" y1="1842" x2="130" y2="1842"/>
            <line class="cls-30" y1="1984.7" x2="130" y2="1984.7"/>
            <line class="cls-30" y1="2127.3" x2="130" y2="2127.3"/>
            <line class="cls-30" y1="2270" x2="130" y2="2270"/>
          </g>
        </g>
        <rect class="cls-3" x="130" y="130" width="1540" height="2140"/>
        <rect class="cls-19" x="150" y="150" width="1500" height="2100"/>
        <g>
          <line class="cls-33" x1="150" y1="150" x2="1650" y2="150"/>
          <line class="cls-33" x1="150" y1="181.8" x2="1650" y2="181.8"/>
          <line class="cls-33" x1="150" y1="213.6" x2="1650" y2="213.6"/>
          <line class="cls-33" x1="150" y1="245.5" x2="1650" y2="245.5"/>
          <line class="cls-33" x1="150" y1="277.3" x2="1650" y2="277.3"/>
          <line class="cls-33" x1="150" y1="309.1" x2="1650" y2="309.1"/>
          <line class="cls-33" x1="150" y1="340.9" x2="1650" y2="340.9"/>
          <line class="cls-33" x1="150" y1="372.7" x2="1650" y2="372.7"/>
          <line class="cls-33" x1="150" y1="404.5" x2="1650" y2="404.5"/>
          <line class="cls-33" x1="150" y1="436.4" x2="1650" y2="436.4"/>
          <line class="cls-33" x1="150" y1="468.2" x2="1650" y2="468.2"/>
          <line class="cls-33" x1="150" y1="500" x2="1650" y2="500"/>
          <line class="cls-33" x1="150" y1="531.8" x2="1650" y2="531.8"/>
          <line class="cls-33" x1="150" y1="563.6" x2="1650" y2="563.6"/>
          <line class="cls-33" x1="150" y1="595.5" x2="1650" y2="595.5"/>
          <line class="cls-33" x1="150" y1="627.3" x2="1650" y2="627.3"/>
          <line class="cls-33" x1="150" y1="659.1" x2="1650" y2="659.1"/>
          <line class="cls-33" x1="150" y1="690.9" x2="1650" y2="690.9"/>
          <line class="cls-33" x1="150" y1="722.7" x2="1650" y2="722.7"/>
          <line class="cls-33" x1="150" y1="754.5" x2="1650" y2="754.5"/>
          <line class="cls-33" x1="150" y1="786.4" x2="1650" y2="786.4"/>
          <line class="cls-33" x1="150" y1="818.2" x2="1650" y2="818.2"/>
          <line class="cls-33" x1="150" y1="850" x2="1650" y2="850"/>
          <line class="cls-33" x1="150" y1="881.8" x2="1650" y2="881.8"/>
          <line class="cls-33" x1="150" y1="913.6" x2="1650" y2="913.6"/>
          <line class="cls-33" x1="150" y1="945.5" x2="1650" y2="945.5"/>
          <line class="cls-33" x1="150" y1="977.3" x2="1650" y2="977.3"/>
          <line class="cls-33" x1="150" y1="1009.1" x2="1650" y2="1009.1"/>
          <line class="cls-33" x1="150" y1="1040.9" x2="1650" y2="1040.9"/>
          <line class="cls-33" x1="150" y1="1072.7" x2="1650" y2="1072.7"/>
          <line class="cls-33" x1="150" y1="1104.5" x2="1650" y2="1104.5"/>
          <line class="cls-33" x1="150" y1="1136.4" x2="1650" y2="1136.4"/>
          <line class="cls-33" x1="150" y1="1168.2" x2="1650" y2="1168.2"/>
          <line class="cls-33" x1="150" y1="1200" x2="1650" y2="1200"/>
          <line class="cls-33" x1="150" y1="1231.8" x2="1650" y2="1231.8"/>
          <line class="cls-33" x1="150" y1="1263.6" x2="1650" y2="1263.6"/>
          <line class="cls-33" x1="150" y1="1295.5" x2="1650" y2="1295.5"/>
          <line class="cls-33" x1="150" y1="1327.3" x2="1650" y2="1327.3"/>
          <line class="cls-33" x1="150" y1="1359.1" x2="1650" y2="1359.1"/>
          <line class="cls-33" x1="150" y1="1390.9" x2="1650" y2="1390.9"/>
          <line class="cls-33" x1="150" y1="1422.7" x2="1650" y2="1422.7"/>
          <line class="cls-33" x1="150" y1="1454.5" x2="1650" y2="1454.5"/>
          <line class="cls-33" x1="150" y1="1486.4" x2="1650" y2="1486.4"/>
          <line class="cls-33" x1="150" y1="1518.2" x2="1650" y2="1518.2"/>
          <line class="cls-33" x1="150" y1="1550" x2="1650" y2="1550"/>
          <line class="cls-33" x1="150" y1="1581.8" x2="1650" y2="1581.8"/>
          <line class="cls-33" x1="150" y1="1613.6" x2="1650" y2="1613.6"/>
          <line class="cls-33" x1="150" y1="1645.5" x2="1650" y2="1645.5"/>
          <line class="cls-33" x1="150" y1="1677.3" x2="1650" y2="1677.3"/>
          <line class="cls-33" x1="150" y1="1709.1" x2="1650" y2="1709.1"/>
          <line class="cls-33" x1="150" y1="1740.9" x2="1650" y2="1740.9"/>
          <line class="cls-33" x1="150" y1="1772.7" x2="1650" y2="1772.7"/>
          <line class="cls-33" x1="150" y1="1804.5" x2="1650" y2="1804.5"/>
          <line class="cls-33" x1="150" y1="1836.4" x2="1650" y2="1836.4"/>
          <line class="cls-33" x1="150" y1="1868.2" x2="1650" y2="1868.2"/>
          <line class="cls-33" x1="150" y1="1900" x2="1650" y2="1900"/>
          <line class="cls-33" x1="150" y1="1931.8" x2="1650" y2="1931.8"/>
          <line class="cls-33" x1="150" y1="1963.6" x2="1650" y2="1963.6"/>
          <line class="cls-33" x1="150" y1="1995.5" x2="1650" y2="1995.5"/>
          <line class="cls-33" x1="150" y1="2027.3" x2="1650" y2="2027.3"/>
          <line class="cls-33" x1="150" y1="2059.1" x2="1650" y2="2059.1"/>
          <line class="cls-33" x1="150" y1="2090.9" x2="1650" y2="2090.9"/>
          <line class="cls-33" x1="150" y1="2122.7" x2="1650" y2="2122.7"/>
          <line class="cls-33" x1="150" y1="2154.5" x2="1650" y2="2154.5"/>
          <line class="cls-33" x1="150" y1="2186.4" x2="1650" y2="2186.4"/>
          <line class="cls-33" x1="150" y1="2218.2" x2="1650" y2="2218.2"/>
          <line class="cls-33" x1="150" y1="2250" x2="1650" y2="2250"/>
        </g>
        <g>
          <line class="cls-33" x1="150" y1="150" x2="150" y2="2250"/>
          <line class="cls-33" x1="179.4" y1="150" x2="179.4" y2="2250"/>
          <line class="cls-33" x1="208.8" y1="150" x2="208.8" y2="2250"/>
          <line class="cls-33" x1="238.2" y1="150" x2="238.2" y2="2250"/>
          <line class="cls-33" x1="267.6" y1="150" x2="267.6" y2="2250"/>
          <line class="cls-33" x1="297.1" y1="150" x2="297.1" y2="2250"/>
          <line class="cls-33" x1="326.5" y1="150" x2="326.5" y2="2250"/>
          <line class="cls-33" x1="355.9" y1="150" x2="355.9" y2="2250"/>
          <line class="cls-33" x1="385.3" y1="150" x2="385.3" y2="2250"/>
          <line class="cls-33" x1="414.7" y1="150" x2="414.7" y2="2250"/>
          <line class="cls-33" x1="444.1" y1="150" x2="444.1" y2="2250"/>
          <line class="cls-33" x1="473.5" y1="150" x2="473.5" y2="2250"/>
          <line class="cls-33" x1="502.9" y1="150" x2="502.9" y2="2250"/>
          <line class="cls-33" x1="532.4" y1="150" x2="532.4" y2="2250"/>
          <line class="cls-33" x1="561.8" y1="150" x2="561.8" y2="2250"/>
          <line class="cls-33" x1="591.2" y1="150" x2="591.2" y2="2250"/>
          <line class="cls-33" x1="620.6" y1="150" x2="620.6" y2="2250"/>
          <line class="cls-33" x1="650" y1="150" x2="650" y2="2250"/>
          <line class="cls-33" x1="679.4" y1="150" x2="679.4" y2="2250"/>
          <line class="cls-33" x1="708.8" y1="150" x2="708.8" y2="2250"/>
          <line class="cls-33" x1="738.2" y1="150" x2="738.2" y2="2250"/>
          <line class="cls-33" x1="767.6" y1="150" x2="767.6" y2="2250"/>
          <line class="cls-33" x1="797.1" y1="150" x2="797.1" y2="2250"/>
          <line class="cls-33" x1="826.5" y1="150" x2="826.5" y2="2250"/>
          <line class="cls-33" x1="855.9" y1="150" x2="855.9" y2="2250"/>
          <line class="cls-33" x1="885.3" y1="150" x2="885.3" y2="2250"/>
          <line class="cls-33" x1="914.7" y1="150" x2="914.7" y2="2250"/>
          <line class="cls-33" x1="944.1" y1="150" x2="944.1" y2="2250"/>
          <line class="cls-33" x1="973.5" y1="150" x2="973.5" y2="2250"/>
          <line class="cls-33" x1="1002.9" y1="150" x2="1002.9" y2="2250"/>
          <line class="cls-33" x1="1032.4" y1="150" x2="1032.4" y2="2250"/>
          <line class="cls-33" x1="1061.8" y1="150" x2="1061.8" y2="2250"/>
          <line class="cls-33" x1="1091.2" y1="150" x2="1091.2" y2="2250"/>
          <line class="cls-33" x1="1120.6" y1="150" x2="1120.6" y2="2250"/>
          <line class="cls-33" x1="1150" y1="150" x2="1150" y2="2250"/>
          <line class="cls-33" x1="1179.4" y1="150" x2="1179.4" y2="2250"/>
          <line class="cls-33" x1="1208.8" y1="150" x2="1208.8" y2="2250"/>
          <line class="cls-33" x1="1238.2" y1="150" x2="1238.2" y2="2250"/>
          <line class="cls-33" x1="1267.6" y1="150" x2="1267.6" y2="2250"/>
          <line class="cls-33" x1="1297.1" y1="150" x2="1297.1" y2="2250"/>
          <line class="cls-33" x1="1326.5" y1="150" x2="1326.5" y2="2250"/>
          <line class="cls-33" x1="1355.9" y1="150" x2="1355.9" y2="2250"/>
          <line class="cls-33" x1="1385.3" y1="150" x2="1385.3" y2="2250"/>
          <line class="cls-33" x1="1414.7" y1="150" x2="1414.7" y2="2250"/>
          <line class="cls-33" x1="1444.1" y1="150" x2="1444.1" y2="2250"/>
          <line class="cls-33" x1="1473.5" y1="150" x2="1473.5" y2="2250"/>
          <line class="cls-33" x1="1502.9" y1="150" x2="1502.9" y2="2250"/>
          <line class="cls-33" x1="1532.4" y1="150" x2="1532.4" y2="2250"/>
          <line class="cls-33" x1="1561.8" y1="150" x2="1561.8" y2="2250"/>
          <line class="cls-33" x1="1591.2" y1="150" x2="1591.2" y2="2250"/>
          <line class="cls-33" x1="1620.6" y1="150" x2="1620.6" y2="2250"/>
          <line class="cls-33" x1="1650" y1="150" x2="1650" y2="2250"/>
        </g>
        <g>
          <path class="cls-34" d="M142,2292c0-3.6.7-6.3,2.2-8.1,1.1-1.4,2.7-2.1,4.7-2.1s1.8.2,2.5.5c.7.3,1.4.8,1.9,1.3.4.4.8,1,1.1,1.8.3.7.6,1.7.8,2.7.2,1.1.3,2.3.3,3.6,0,3.6-.7,6.3-2.1,8.1-1.1,1.4-2.7,2.1-4.7,2.1s-2.6-.4-3.6-1.1c-1-.8-1.8-1.9-2.3-3.5-.5-1.6-.8-3.3-.8-5.3ZM144.6,2292c0,3.1.4,5.2,1.2,6.4.6.9,1.6,1.3,2.8,1.3s2.1-.5,2.7-1.4c.9-1.3,1.3-3.5,1.3-6.6s-.4-5.3-1.2-6.4c-.6-.9-1.6-1.3-2.8-1.3s-2.4.7-3.1,2c-.7,1.3-1,3.3-1,6.1Z"/>
          <path class="cls-34" d="M302.2,2301.5v-14.1h-4.6v-1.8c1.4,0,2.3-.2,2.9-.4.6-.2,1.1-.6,1.4-1.1.4-.5.7-1.3.9-2.2h2v19.7h-2.7Z"/>
          <path class="cls-34" d="M450.3,2288.8c0-1,0-1.9.3-2.6.3-.9.7-1.7,1.3-2.4.6-.7,1.3-1.2,2.2-1.5.9-.3,1.8-.5,2.9-.5,2,0,3.5.5,4.7,1.6,1.1,1.1,1.7,2.5,1.7,4.3s-.1,1.5-.3,2.1c-.2.6-.6,1.2-1.1,1.7-.5.5-1.1,1.1-1.9,1.6-.3.2-1.4.8-3.2,1.8-.7.4-1.4.8-1.9,1.2-.6.4-1,.7-1.3,1.1-.3.3-.5.6-.7.9s-.3.6-.4,1.1h10.7v2.4h-13.5c.1-1.4.3-2.5.6-3.3.2-.7.6-1.4,1-2,.4-.6,1.1-1.2,1.9-1.8.4-.3,1.2-.8,2.6-1.6,1.4-.8,2.2-1.3,2.4-1.4.6-.4,1.1-.8,1.4-1.1.3-.3.5-.7.7-1.1.2-.4.2-.9.2-1.5,0-1.1-.3-2-1-2.7-.7-.7-1.6-1-2.8-1s-2.3.4-2.9,1.3c-.6.9-.9,2-1,3.6h-2.5Z"/>
          <path class="cls-34" d="M606.2,2295.5c0,1.4.4,2.5,1.1,3.2.7.7,1.7,1.1,3,1.1s2.4-.4,3.2-1.1c.8-.7,1.1-1.6,1.1-2.7s-.1-1.2-.3-1.7c-.2-.5-.6-.9-1-1.2-.5-.3-1.1-.5-1.9-.6-.5,0-1.3-.1-2.5-.1v-2c1.4,0,2.4,0,3-.2.6-.2,1.1-.5,1.5-1,.4-.5.5-1.1.5-1.9s-.3-1.7-.9-2.3c-.6-.6-1.5-.9-2.6-.9s-1.5.2-2.1.5c-.6.3-1,.8-1.3,1.4-.3.6-.5,1.4-.5,2.4h-2.4c0-1,.1-1.8.3-2.4.3-.9.7-1.7,1.3-2.3.6-.6,1.3-1.1,2.1-1.4.8-.3,1.7-.4,2.6-.4,1.9,0,3.4.5,4.5,1.5s1.6,2.3,1.6,3.8-.2,1.8-.7,2.5c-.4.7-1.1,1.2-1.9,1.5.7.2,1.2.5,1.6.8.6.4,1,.9,1.3,1.6.3.6.5,1.4.5,2.3s-.3,2.3-.9,3.3c-.6,1-1.4,1.7-2.5,2.2-1.1.5-2.3.7-3.6.7s-2.1-.2-3-.5c-.8-.3-1.5-.8-2-1.3-.5-.6-.9-1.2-1.2-2-.3-.7-.4-1.7-.5-2.7h2.5Z"/>
          <path class="cls-34" d="M766.2,2301.5v-4.8h-8.6v-2.4l9-12.4h2.1v12.7h2.9v2.2h-2.9v4.8h-2.5ZM766.2,2294.5v-8.8l-6.3,8.8h6.3Z"/>
          <path class="cls-34" d="M912.5,2292.8l1.6-10.5h10v2.4h-8.3l-.8,5.4c.6-.4,1.1-.7,1.7-.9.6-.2,1.3-.3,2-.3,1.6,0,3,.5,4.2,1.4,1.6,1.2,2.4,2.8,2.4,5s-.3,2.4-.8,3.4c-.6,1.1-1.4,1.9-2.4,2.5-1,.6-2.3.9-3.8.9s-2.6-.3-3.5-.8c-1-.5-1.7-1.2-2.2-2.2-.4-.7-.6-1.5-.7-2.5h2.5c.1,1,.5,1.8,1.2,2.4.7.6,1.6.9,2.8.9s2.3-.4,3.1-1.2c.8-.8,1.2-1.9,1.2-3.2s-.4-2.3-1.2-3.1c-.8-.8-1.8-1.2-3-1.2s-2.8.6-3.7,1.9h-2.1Z"/>
          <path class="cls-34" d="M1076.5,2287c-.2-1-.6-1.8-1.1-2.3-.6-.5-1.3-.7-2.2-.7s-1.6.3-2.3.8c-.7.5-1.2,1.3-1.7,2.4-.4,1.1-.7,2.5-.8,4.3,1-1.6,2.6-2.4,4.6-2.4s3.3.6,4.5,1.7c1.1,1.1,1.7,2.6,1.7,4.5s-.2,2.2-.7,3.3c-.5,1.1-1.2,1.9-2.2,2.5-1,.6-2.2.9-3.6.9-2,0-3.6-.6-4.8-1.9-1.4-1.5-2.2-4-2.2-7.3s.3-4.2.9-5.9c.6-1.7,1.4-2.9,2.5-3.8,1.1-.8,2.4-1.2,4-1.2s1.9.2,2.7.6c.6.3,1.1.7,1.6,1.1.4.5.7,1,1,1.5.2.6.4,1.2.4,2h-2.4ZM1068.8,2295.4c0,1.3.4,2.4,1.1,3.2.8.8,1.7,1.2,2.9,1.2s2.1-.4,2.8-1.2c.8-.8,1.1-1.9,1.1-3.2s-.4-2.3-1.1-3.1c-.7-.7-1.7-1.1-2.9-1.1s-2.2.4-2.9,1.1c-.7.7-1.1,1.8-1.1,3.1Z"/>
          <path class="cls-34" d="M1220,2284.8v-2.5h13.6v2.2c-1,1.2-1.8,2.2-2.4,3.1-1,1.4-1.8,3-2.7,4.7-.8,1.7-1.5,3.4-2.1,5.1-.4,1.2-.7,2.5-1,4.1h-2.7c.2-1.2.4-2.2.7-3.2.5-1.6,1.1-3.2,1.9-4.9.8-1.7,1.7-3.3,2.8-4.9.7-1.1,1.6-2.3,2.7-3.7h-10.8Z"/>
          <path class="cls-34" d="M1384.2,2291c.7.3,1.2.7,1.6,1,.5.4.9.9,1.1,1.6.3.6.4,1.4.4,2.3,0,1.8-.6,3.2-1.8,4.4-1.2,1.1-2.8,1.7-4.9,1.7s-3.7-.6-4.9-1.7c-1.2-1.1-1.8-2.6-1.8-4.3s.3-2.3.9-3.1,1.4-1.4,2.5-1.8c-.8-.3-1.4-.7-1.8-1.2-.6-.7-.9-1.6-.9-2.7,0-1.5.5-2.8,1.6-3.8,1.1-1,2.5-1.5,4.4-1.5s2.3.2,3.2.7c.9.5,1.6,1.1,2.1,1.9.5.8.7,1.7.7,2.6s-.2,1.6-.7,2.3c-.4.7-1.1,1.2-1.9,1.6ZM1376.7,2296c0,1.1.4,2,1.1,2.7.7.7,1.7,1,2.9,1s2.2-.3,2.9-1c.7-.7,1.1-1.6,1.1-2.7s-.4-2-1.1-2.7c-.7-.7-1.7-1-2.9-1s-2.2.3-2.9,1c-.7.7-1.1,1.6-1.1,2.7ZM1377.2,2287c0,.9.3,1.7.9,2.3.6.6,1.5.9,2.5.9s1.9-.3,2.6-.9c.7-.6,1-1.4,1-2.2s-.3-1.6-.9-2.2-1.5-.8-2.7-.8-2,.3-2.5.8c-.6.5-.9,1.3-.9,2.2Z"/>
          <path class="cls-34" d="M1530.9,2296.7c.2,1,.6,1.8,1.1,2.3.6.5,1.3.7,2.2.7s1.8-.3,2.5-.9c.7-.6,1.2-1.6,1.6-2.9.3-1,.5-2.2.6-3.7-.3.5-.6.9-.9,1.1-.4.4-1,.7-1.6,1-.6.2-1.4.4-2.2.4s-2.2-.3-3.2-.8-1.7-1.3-2.2-2.2c-.5-1-.7-2-.7-3.2s.2-2.2.7-3.3c.5-1.1,1.2-1.9,2.2-2.5,1-.6,2.2-.9,3.6-.9,2,0,3.6.6,4.8,1.9,1.4,1.5,2.1,4,2.1,7.3s-.3,4.2-.9,5.9c-.6,1.7-1.4,2.9-2.5,3.8-1.1.8-2.4,1.2-4,1.2s-1.9-.2-2.7-.6c-.6-.3-1.1-.7-1.6-1.1-.4-.5-.7-1-1-1.5-.2-.6-.4-1.2-.4-2h2.4ZM1530.6,2288.4c0,1.3.4,2.4,1.1,3.1.7.7,1.7,1.1,2.9,1.1s2.2-.4,2.9-1.1c.7-.7,1.1-1.8,1.1-3.1s-.4-2.4-1.1-3.2c-.8-.8-1.7-1.2-2.9-1.2s-2.1.4-2.8,1.2c-.8.8-1.1,1.9-1.1,3.2Z"/>
        </g>
      </g>
    </g>
    <g id="Layer_2">
      <g>
        <g>
          <path class="cls-29" d="M996.9,690.4c3.9-5.6,12.6-29.4-4.4-46.2-14.7-14.4,3.1-43.4-22.2-83.8-26.5-42.2-61.8-32.2-69.4-24.2-7.6-8-42.9-18-69.4,24.2-25.3,40.3-7.6,69.3-22.2,83.8-17,16.8-8.3,40.6-4.4,46.2,3.9,5.6-26.8,50.8,7.7,72.6,34.5,21.8,88.3,18.4,88.3,18.4,0,0,53.9,3.4,88.3-18.4,34.5-21.8,3.8-67,7.7-72.6Z"/>
          <g>
            <path class="cls-2" d="M906,584.5c13.8-8.2,20.1-43,37.7-19.5s22.8-6,35.4,15.2"/>
            <path class="cls-2" d="M920.4,581.1c3.3-8.1,24.6-16.9,42.8,14.1,15.1,25.6,21.2,4.1,21.2,4.1"/>
            <path class="cls-2" d="M894,584.5c-13.8-8.2-20.1-43-37.7-19.5s-22.8-6-35.4,15.2"/>
            <path class="cls-2" d="M879.6,581.1c-3.3-8.1-24.6-16.9-42.8,14.1-15.1,25.6-21.2,4.1-21.2,4.1"/>
            <path class="cls-2" d="M960.8,626.4c7.5,38.2,28,28.1,17.8,63.2-11.6,39.7,16.6,44.2-10.1,73.8"/>
            <path class="cls-2" d="M957,638.3c7.5,38.2,27.6,26.6,11.2,59.7s10.5,42.5-9.2,59.7"/>
            <path class="cls-2" d="M839.1,626.4c-7.5,38.2-28,28.1-17.8,63.2,11.6,39.7-16.6,44.2,10.1,73.8"/>
            <path class="cls-2" d="M843,638.3c-7.5,38.2-27.6,26.6-11.2,59.7,13.4,27-10.5,42.5,9.2,59.7"/>
          </g>
          <path class="cls-21" d="M1145.2,1332c-.8-13.4-2.4-31.9-10.1-59.7-2.4-8.7-7.1-19-7.1-19-.5-4.2-3.2-19.4-4-23.5-4.2-21.8-.2-73.8-3.9-115.9-3.6-42.1-16.1-65.6-19.4-74.7s-6.9-30.6-7.1-62-8.7-65.9-5.5-85.1c3.1-19.2-.8-51.1-11.2-69.8-10.4-18.7-20.3-20.5-28.1-29.3-7.8-8.8-17.7-7.8-17.7-7.8-15.8-10.6-61.1-30.1-82.4-41.7-9.7-5.3-48.7-57.2-48.7-57.2,0,0-39,51.8-48.7,57.2-21.3,11.7-66.5,31.1-82.4,41.7,0,0-9.9-1-17.7,7.8-7.8,8.8-17.7,10.6-28.1,29.3-10.4,18.7-14.3,50.6-11.2,69.8,3.1,19.2-5.3,53.7-5.5,85.1s-3.8,53-7.1,62-15.8,32.7-19.4,74.7c-3.6,42.1.3,94-3.9,115.9-.8,4.1-3.5,19.3-4,23.5,0,0-4.8,10.3-7.1,19-7.6,27.8-9.2,46.4-10.1,59.7-2.1,17.2,10.9,17.4,10.9,17.4,0,0,2.3,6,6.4,6.2,4.1.2,7.3-.4,7.3-.4,0,0,3.8,6.5,10.3,6.9,6.5.3,9.1-2.3,9.1-2.3,0,0,3.6,2.6,9.4,2.9,5.8.3,7.5-6,7.5-6,0,0,2.1,1.9,4.8,2,6.8.3,6.7-8.4,9.5-16.6,1.9-5.5-.3-16,.5-31.5.8-15.5-12.6-28.5-18.2-34.4-3.8-4-1-17.1-1-17.1,1.9-15.7,33.5-103.7,37.9-137.6,4.4-34.5,4.9-64.8,7.2-78.9s16.6-53.7,18.5-106.5c0,0,4.4,49.1,16.4,67.2,6.8,10.3,8.1,71.3,5.8,81.7-2.3,10.4-.1,42.1-.1,42.1,0,0-22.2,56.8-18.1,99.3-13.6,92.6-17.3,125.5-12.7,190.6,4.6,65.9,5.4,87.3,2.9,102-2.4,14.7-11.8,54.4-13.4,84.7-1.6,30.3,8,145.1,7.3,172.5-.3,14.1-.9,32.7-.9,46.9s-.6,14.4-.6,20.3-5.9,18-5.7,29.5c.2,11.5-29.7,32.4-30.7,40.3,0,0-14.4,16.9-.5,24,0,0,3.4,10.5,13.5,6.8,0,0,4.7,9.5,16.2,4.1,0,0,5.1,8.4,20.3,1.7,0,0,3.4,5.4,16.6,5.4s15.9-6.8,19.9-16.2c4.1-9.5,8.4-7.4,8.4-17.8s-2-24.3,0-30.2c2-5.9,7.2-5.4,9-11.5,1.8-6.1.5-18.5-7.4-26.1-7.9-7.7-2.1-19.2-2.1-33.3s-2.8-25.3-2.8-36.8,2.9-29.6,11.5-72.5c8.7-43.4,27.4-63.2,30.7-106.8,3-40.6-2.7-66.2-.2-97.1,2.4-29.4,35.5-142.8,41.6-223.1,6.1,80.4,39.2,193.8,41.6,223.1,2.6,30.9-3.2,56.5-.2,97.1,3.3,43.5,22,63.4,30.7,106.8,8.6,42.9,11.5,58.6,11.5,72.5s-2.8,22.6-2.8,36.8,5.8,25.7-2.1,33.3c-7.9,7.7-9.2,20.1-7.4,26.1,1.8,6.1,7,5.6,9,11.5,2,5.9,0,19.8,0,30.2s4.4,8.3,8.4,17.8c4.1,9.5,6.8,16.2,19.9,16.2s16.6-5.4,16.6-5.4c15.2,6.7,20.3-1.7,20.3-1.7,11.5,5.4,16.2-4.1,16.2-4.1,10.1,3.7,13.5-6.8,13.5-6.8,13.9-7.1-.5-24-.5-24-1-7.9-30.9-28.8-30.7-40.3.2-11.5-5.7-23.6-5.7-29.5s-.6-5-.6-20.3-.5-32.7-.9-46.9c-.7-27.3,8.9-142.1,7.3-172.5-1.6-30.3-11-70-13.4-84.7-2.4-14.7-1.7-36.1,2.9-102,4.6-65.1.9-98-12.7-190.6,4.2-42.5-18.1-99.3-18.1-99.3,0,0,2.2-31.7-.1-42.1-2.3-10.4-1-71.4,5.8-81.7,12-18.1,16.4-67.2,16.4-67.2,1.9,52.8,16.2,92.5,18.5,106.5s2.8,44.3,7.2,78.9c4.3,33.8,36,121.9,37.9,137.6,0,0,2.8,13.2-1,17.1-5.6,5.9-19,18.9-18.2,34.4.8,15.5-1.4,26,.5,31.5,2.8,8.2,2.7,16.9,9.5,16.6,2.8-.1,4.8-2,4.8-2,0,0,1.7,6.3,7.5,6,5.8-.3,9.4-2.9,9.4-2.9,0,0,2.6,2.6,9.1,2.3,6.5-.3,10.3-6.9,10.3-6.9,0,0,3.2.6,7.3.4,4.1-.2,6.4-6.2,6.4-6.2,0,0,13-.2,10.9-17.4Z"/>
          <path class="cls-9" d="M830.1,1492.9c-4.2,13.3-5.3,37.1-22.7,45.2"/>
          <path class="cls-9" d="M968.5,1492.9c4.2,13.3,5.3,37.1,22.7,45.2"/>
          <path class="cls-24" d="M848.6,775.1c-1-17.7,4.9-46.2,3.4-62.7h94.5c-1.5,16.4,4.4,45,3.4,62.7"/>
          <path class="cls-9" d="M1079.5,1042.7c2.3,14.1-16.8,28.5-16.8,28.5"/>
          <path class="cls-9" d="M720.5,1039.7c-2.3,14.1,16.8,31.5,16.8,31.5"/>
          <g>
            <path class="cls-9" d="M868.1,809.9s-12.8,2.4-22.2,2.4-43.1-20.2-50.8-20.2"/>
            <path class="cls-9" d="M931.9,809.9s12.8,2.4,22.2,2.4c12.8,0,43.1-20.2,50.8-20.2"/>
            <path class="cls-9" d="M890.9,813.7s3.9,10.8,9.2,10.8,9.2-10.8,9.2-10.8"/>
          </g>
          <path class="cls-9" d="M1079.5,1039.7c2.3,14.1-16.8,31.5-16.8,31.5"/>
          <g>
            <path class="cls-10" d="M1084.2,1356.6c-3.2-8.9,2.2-18.2-2.1-38.7"/>
            <path class="cls-10" d="M1101.1,1359.7c3.9-8.4,2.3-14.7,4.7-20.6"/>
            <path class="cls-10" d="M1120.5,1355.2c1.9-3.3-.7-7.7,3.2-17.5"/>
            <path class="cls-10" d="M1134.2,1349.4c-.3-5,2.8-9,2.6-14.9"/>
          </g>
          <g>
            <path class="cls-10" d="M715.8,1356.6c3.2-8.9-2.2-18.2,2.1-38.7"/>
            <path class="cls-10" d="M698.9,1359.7c-3.9-8.4-2.3-14.7-4.7-20.6"/>
            <path class="cls-10" d="M679.5,1355.2c-1.9-3.3.7-7.7-3.2-17.5"/>
            <path class="cls-10" d="M665.8,1349.4c.3-5-2.8-9-2.6-14.9"/>
          </g>
          <path class="cls-9" d="M938.4,712.4s-5.2,69.5-19.8,87.5"/>
          <path class="cls-9" d="M861.6,712.4s5.2,69.5,19.8,87.5"/>
          <path class="cls-9" d="M728.9,923.8c12-.8,28.6-11,33.7-33.1"/>
          <path class="cls-9" d="M1071.1,923.8c-12-.8-28.6-11-33.7-33.1"/>
          <g>
            <g>
              <path class="cls-6" d="M965.9,647.7s1.5-7.1,6.7-7.1,6.6,5.1,5.5,10.4c-1,5.1,1.4,9.2-.8,15.7-2.1,6.5-4.5,6.6-6.5,11-2,4.4-3.7,12.6-9.6,12.6s-7.4-7.2-7.4-9.9,5.9-32.7,12.1-32.7Z"/>
              <path class="cls-23" d="M975,648.4c-3.1,0-5.3,4.4-5.3,7.1s1.2,4.3,1.2,7.2-.5,3.7-1.9,6.5c-1.5,2.8-2.3,6.2-1.6,7.3"/>
              <path class="cls-12" d="M970.3,658.9s3.1,1.1,4.3-.5"/>
            </g>
            <g>
              <path class="cls-6" d="M834.1,647.7s-1.5-7.1-6.7-7.1-6.6,5.1-5.5,10.4c1,5.1-1.3,9.2.8,15.7,2.1,6.5,4.5,6.6,6.5,11,2,4.4,3.7,12.6,9.6,12.6s7.4-7.2,7.4-9.9-5.9-32.7-12.1-32.7Z"/>
              <path class="cls-23" d="M825,648.4c3.2,0,5.3,4.4,5.3,7.1s-1.2,4.3-1.2,7.2.5,3.7,1.9,6.5c1.5,2.8,2.3,6.2,1.6,7.3"/>
              <path class="cls-12" d="M829.7,658.9s-3.1,1.1-4.4-.5"/>
            </g>
            <path class="cls-17" d="M961,634.1c2.3-13-13.3-44-13.3-44-11.6-10.7-41.3-13.6-47.7.9-6.4-14.5-36.2-11.5-47.7-.9,0,0-15.6,31-13.3,44,2.3,13-3.9,30.4,1.9,43.7,5.9,13.3,4.9,33.4,10.1,42.3,5.2,8.9,13.3,13,16.3,15.4,3.6,2.8,15.7,16.6,32.7,16.5,17,0,29.1-13.7,32.7-16.5,3-2.4,11-6.5,16.3-15.4,5.3-8.9,4.2-29,10.1-42.3,5.9-13.3-.3-30.7,1.9-43.7Z"/>
            <path class="cls-34" d="M929.6,647c0,2.3,1.9,4.2,4.2,4.2s4.2-1.9,4.2-4.2-1.9-4.2-4.2-4.2-4.2,1.9-4.2,4.2Z"/>
            <path class="cls-34" d="M870.3,647c0,2.3-1.9,4.2-4.2,4.2s-4.2-1.9-4.2-4.2,1.9-4.2,4.2-4.2,4.2,1.9,4.2,4.2Z"/>
            <path class="cls-13" d="M888.7,632.1s-17-9.6-32.5-4"/>
            <path class="cls-13" d="M911.2,632.1s17-9.6,32.5-4"/>
            <line class="cls-28" x1="885.1" y1="707.4" x2="914.9" y2="707.4"/>
            <polygon class="cls-34" points="911.4 679.2 901.4 685.1 901.4 659.8 911.4 679.2"/>
            <path class="cls-15" d="M961.5,695.5c1.2-22.1-1.4-45.5-1.4-45.5,0,0-1.6,20.1-12.6,26.6-14.8,8.8-3.6,40.1-23.1,46.9-12.2,4.2-24.4-7.6-24.4-7.6,0,0-12.1,11.9-24.4,7.6-19.6-6.8-8.3-38.1-23.1-46.9-11-6.5-12.6-26.6-12.6-26.6,0,0-2.7,23.3-1.4,45.5s-7.2,31.6,7.6,45.2c16.8,15.5,27.1,28.6,53.9,28.6s37.1-13.2,53.9-28.6c14.8-13.6,6.4-23.1,7.6-45.2Z"/>
            <path class="cls-4" d="M902.3,687.1c2.2-2.3,19.6-10.2,30,1.8,16.5,19,7,44.7,7,44.7,0,0-8.2-11.4-18.6-22.9-15.1-16.5-9.7-9.1-19.8-9.1,0,0-3.5-9.2,1.4-14.5Z"/>
            <path class="cls-4" d="M899.4,687.1c-2.2-2.3-19.6-10.2-30,1.8-16.5,19-7,44.7-7,44.7,0,0,8.2-11.4,18.6-22.9,15.1-16.5,9.7-9.1,19.8-9.1,0,0,3.5-9.2-1.4-14.5Z"/>
          </g>
          <g>
            <path class="cls-9" d="M1025.2,1949.6s2.6-7.4,1.5-11.6c-1.1-4.2-9.7-9.6-10.9-15.1"/>
            <path class="cls-9" d="M1045.5,1947.9s3.1-5.5,2-9.2c-1.1-3.7-7.8-9.1-8.3-14"/>
            <path class="cls-9" d="M1061.7,1943.8s1-5,0-8c-1-3-6.6-9.2-7.1-11.5"/>
            <path class="cls-9" d="M1075.2,1937.1s-.2-5.4-1.8-7.5c-1.2-1.5-5.8-5.7-6.8-9.2"/>
          </g>
          <g>
            <path class="cls-9" d="M773.1,1949.6s-2.6-7.4-1.5-11.6,9.7-9.6,10.9-15.1"/>
            <path class="cls-9" d="M752.8,1947.9s-3.1-5.5-2-9.2c1.1-3.7,7.8-9.1,8.3-14"/>
            <path class="cls-9" d="M736.6,1943.8s-1-5,0-8,6.6-9.2,7.1-11.5"/>
            <path class="cls-9" d="M723.1,1937.1s.2-5.4,1.8-7.5,5.8-5.7,6.8-9.2"/>
          </g>
          <g>
            <g>
              <path class="cls-25" d="M760.9,876.7s-.6,51.8,28.9,64.4c42.2,18.1,88,3.3,98.9-9.2s7.8-12.5,7.8-12.5"/>
              <ellipse class="cls-9" cx="806.5" cy="922.5" rx="6" ry="4"/>
            </g>
            <g>
              <path class="cls-25" d="M1039.1,876.7s.6,51.8-28.9,64.4c-42.2,18.1-88,3.3-98.9-9.2-6.8-7.8-7.8-12.5-7.8-12.5"/>
              <ellipse class="cls-9" cx="993.5" cy="922.5" rx="6" ry="4"/>
            </g>
            <path class="cls-31" d="M986.5,1004s-13.7-24.9-46.7-44.8"/>
            <path class="cls-31" d="M813.6,1004s13.7-24.9,46.7-44.8"/>
            <path class="cls-31" d="M815.8,1138.1c10,10.7,23.7,43.7,36.6,54.3"/>
            <path class="cls-31" d="M984.3,1138.1c-10,10.7-23.7,43.7-36.6,54.3"/>
            <path class="cls-13" d="M896.5,1042.3c-5.1,14.8-55.5,7.3-63.8-3.7s-5.2-22.8-5.2-22.8"/>
            <path class="cls-13" d="M896.5,1083.7c-5.1,14.8-55.5,7.3-63.8-3.7s-5.2-23.8-5.2-23.8"/>
            <path class="cls-13" d="M897.5,1124c-5.1,14.8-56.5,6.3-64.8-4.7s-5.2-21.8-5.2-21.8"/>
            <path class="cls-13" d="M905.2,1042.3c5.1,14.8,55.5,7.3,63.8-3.7,6.8-9,5.2-22.8,5.2-22.8"/>
            <path class="cls-13" d="M905.2,1083.7c5.1,14.8,55.5,7.3,63.8-3.7,6.8-9,5.2-23.8,5.2-23.8"/>
            <path class="cls-13" d="M904.2,1124c5.1,14.8,56.5,6.3,64.8-4.7,6.8-9,5.2-21.8,5.2-21.8"/>
            <path class="cls-13" d="M835.5,1001.2s54.8,11.2,61,1"/>
            <path class="cls-13" d="M966.2,1001.2s-54.8,11.2-61,1"/>
            <line class="cls-13" x1="900" y1="1094.2" x2="900" y2="1113"/>
            <line class="cls-13" x1="900" y1="1051" x2="900" y2="1068.7"/>
            <line class="cls-13" x1="900" y1="1010.4" x2="900" y2="1029.2"/>
            <line class="cls-13" x1="900" y1="969.1" x2="900" y2="992.9"/>
            <line class="cls-13" x1="900" y1="853.2" x2="900" y2="876.9"/>
          </g>
          <g>
            <path class="cls-5" d="M868.6,1243.4c4.1,6.6,6.7,13.9,6.7,20.5,0,6.6-8.8,26.2,3.7,36.3,12.6,10,19.9,1.4,19.9,1.4,0,0,7.3,8.6,19.9-1.4,12.6-10,3.7-29.7,3.7-36.3s2.6-13.9,6.7-20.5"/>
            <path class="cls-5" d="M888.7,1250.8c1.7,5.5,0,31.8,2,35.7,2,3.9,8.3,1.8,8.3,1.8,0,0,6.3,2.1,8.3-1.8s.3-30.1,2-35.7"/>
            <path class="cls-5" d="M909.4,1288.1c0,3.1-1.8,14.2-10,14.2s-10-11.1-10-14.2,4.5-4.4,10-4.4,10,1.3,10,4.4Z"/>
          </g>
          <path class="cls-9" d="M784,816.7c-6.3,7.1-8.8,15.6-12,18.1"/>
          <path class="cls-9" d="M1016,816.7c6.3,7.1,8.8,15.6,12,18.1"/>
        </g>
        <g>
          <g>
            <path class="cls-20" d="M1027.1,1205.5c-12-61.6-24.9-436.8-24.9-436.8l-23.8-10.3c5.8,62.3-48.4,93.3-78.4,93.3s-89.7-17.9-85.7-90.1c-24.4-1.4-33.7,15.3-43.6,22.3-9.8,42.4,1.8,73.4-1.1,141,7.8,94,17.7,125.4,23.7,192.1,0,0-8.5,26.8-20.5,88.4-12,61.6-26.1,548.5-16.9,593.2,0,0,62.1,32.9,144,32.9s144-32.9,144-32.9c9.3-44.7-4.9-531.6-16.9-593.2Z"/>
            <path class="cls-16" d="M780.8,1245.8s19.9,303.4,129,459.3"/>
            <path class="cls-16" d="M822,1429.5s40.5,158.2,134.3,195"/>
            <path class="cls-16" d="M815.8,1334.5c7,59.8,48.7,113.7,84.2,117.4s104.2-33,107.6-215.5"/>
            <path class="cls-16" d="M979.8,1249.5s-31.1,109.2-101.1,72.8"/>
            <path class="cls-16" d="M981.8,1279.6s-36.1,82.2-77.6,93.2c-41.8,11.1-58.9-23.4-58.9-23.4"/>
            <path class="cls-16" d="M878.7,1274.5s24.7,20.6,57.4,3.3"/>
          </g>
          <path class="cls-16" d="M977.4,802.7s-16.6,50.8-68.3,62.1"/>
          <path class="cls-16" d="M821.6,1120c19.4,36.3,108.1,53.4,152.7-147.7"/>
          <path class="cls-16" d="M971.3,841c-6.7,35.7-35.9,71.7-86.2,64.2"/>
          <path class="cls-16" d="M806.5,792.8c8,103.6,76.3,132.4,111.5,127.7"/>
          <path class="cls-16" d="M978.5,843.5s9.9,130.9-116,119"/>
          <g>
            <path class="cls-20" d="M1020.3,1108.6s-116.4,66.7-184.3,66.7-43.8-45.8-42.6-58.3c0,0-8.2-11.8-26,64.9-16,68.8.9,84,51.4,84s209.3-100.7,209.3-100.7l-7.8-56.7Z"/>
            <path class="cls-16" d="M971.3,1144.6s-63.1,45-141.2,61.6"/>
            <path class="cls-16" d="M781.4,1206.3c-6.1,40.8,37.1,37.1,71,23.2"/>
            <path class="cls-16" d="M975,1156.3s-78.5,78.2-159.2,102.7"/>
            <path class="cls-16" d="M787.3,1149s-8.3,31,11.3,54.6"/>
            <path class="cls-16" d="M811.9,1203.4s13.2,17.5,46.4,11.5"/>
          </g>
          <g>
            <path class="cls-20" d="M1048.7,792.8s27.4,11.8,39.3,39c12,27.5,12.3,65.8,16.7,76.8s-55.7,102.2-94.3,103.2,38.4-219,38.4-219Z"/>
            <path class="cls-16" d="M1076,933.5s-10,26.5-49.3,58.8"/>
            <path class="cls-16" d="M1071.2,890.7s-11.7,63-34.8,81.6"/>
            <path class="cls-16" d="M1060.7,843.5s-8.3,44.7-3.3,46.5,8.7-25.8,8.7-25.8"/>
          </g>
          <g>
            <path class="cls-7" d="M1064,1495.3c-18,7.6-44.6-12.3-52.3-25-25,4.4-47.5-16-47.5-16v-356.8s-25.7,21.8-22.1,1c9.8-60.5,14.9-352.8,14.9-352.8,0,0,14.8-1.1,22.7,3.6s16.2,14.2,16.2,14.2c0,0,8.5-1.7,16,2.3s14.8,14.3,14.8,14.3c0,0,19.2-.7,22.1,12.7s-7,444.7,15.2,702.4Z"/>
            <path class="cls-16" d="M995.8,763.5c-4.8,82,6,210.1,6,262.4"/>
            <path class="cls-16" d="M1026.7,780.1c9.7,100.8-10.7,146.3-10.7,257.5"/>
            <path class="cls-23" d="M1005.8,853.2c0,61,4.1,38.5,4.1,104"/>
            <path class="cls-16" d="M979.5,775.8c-1,91.7-12.2,108-8.1,194.3"/>
            <path class="cls-16" d="M995.2,859.9s-13.8,138.8-13.8,204.9"/>
            <path class="cls-18" d="M964.2,1097.5s41.7-27.2,63.8-51.9"/>
            <path class="cls-16" d="M984.3,1083.4c0,143.6-5,247.2-5,324.9"/>
            <path class="cls-16" d="M1007.6,1296c-7.4,95.5,4.4,80.4,5.7,163.7"/>
            <path class="cls-16" d="M998.5,1072.5c2.5,40.4,1,141.4,3.3,193.4"/>
            <path class="cls-16" d="M1007.8,1064.9c-2.3,130.4,15.2,192.9,10.8,294.9"/>
            <path class="cls-16" d="M1013.6,1059.8c-2.8,53.4,17.4,119,15.9,169.6"/>
          </g>
          <path class="cls-16" d="M800.4,819.6c-3.4,36.7,18.2,98.7,36.5,111.9"/>
          <path class="cls-16" d="M795.1,883c-3.1,58.5,29.4,143.5,70.9,165.5"/>
          <path class="cls-16" d="M812.5,1068.7s12.8,41.6,34.8,48.6"/>
        </g>
      </g>
      <g>
        <g>
          <path class="cls-11" d="M1174.2,1866.5c5.3,9.2,9.6,11.9,15.4,21.9s-1.5,20.4,2.2,43.4c2.9,18.1-4.9,48.2,0,53.9,4.9,5.6,11.8-1.2,13.4-6.4,2.6-8.6-.8-25.3,4.6-28.5,5.4-3.1,9.9,3.5,12.9,11.8,3,8.2,19.4,30.3,22,34.5,2.6,4.2,15.3,16,18.1,14.3,2.9-1.7,3-5.1,3-5.1,0,0,5.1,7.4,10.4,4.4,5.3-3.1.3-11,.3-11,0,0,2.1,1.7,5.3-.1,3.2-1.8,1-9.4-2.1-14.7,0,0,2.7,2.7,5,1.3,2.3-1.3,3.4-5.9.2-11.6-3.3-5.7-5-15.8-8.6-22.1-3.6-6.3-10.7-17.4-12.6-23.9-2-6.5-1.8-10.5-5.5-14.6-3.7-4.1-17.1-26-25.5-35.8-8.4-9.8-16.8-26-21-33.3,0,0-8.7.2-22,7.8-13.3,7.7-15.4,13.8-15.4,13.8Z"/>
          <path class="cls-13" d="M1265.9,2006.3s-6.3-15.6-12.5-22.6c-6.2-7-14.1-22.7-15.3-29.2"/>
          <path class="cls-13" d="M1276.6,1999.7s-4.6-12.5-7.3-15.4c-2.7-2.9-7.6-18.1-12.2-23.8-4.6-5.7-7.2-15-7.2-15"/>
          <path class="cls-13" d="M1279.8,1984.8c-2.5-5.2-4.7-16.9-9.9-24.5-5.1-7.6-7.3-17.9-10.9-24.2"/>
        </g>
        <g>
          <path class="cls-11" d="M1404.7,1897c-7.2-11.3-17.6-26.7-37.8-47.3-6.3-6.4-12.7-13.5-12.7-13.5,0,0-6.7-1.7-18.4,5.6-11.7,7.3-14.4,18.3-14.4,18.3,0,0,7.2,10.6,5.9,15.9-2,7.9-7.4,25.7.8,38.9,8.2,13.2,11.4,23.4,15.7,27.3,6.4,5.8,10.6,13.5,16.4,9.9,2.4-1.5,3.3-4.1,3.3-4.1,0,0,4.6,4.7,9.5,1.6,4.9-3.1,6.8-7.1,6.8-7.1,0,0,3.5,1.1,9.1-2.4,5.5-3.5,5.7-11,5.7-11,0,0,3.1-1,6.6-3.2,3.5-2.2,2.6-8.5,2.6-8.5,0,0,11.3-6.5,1.1-20.6Z"/>
          <path class="cls-10" d="M1363.4,1948.1c-7.1-6.2-6.9-17-20.6-32.8"/>
          <path class="cls-10" d="M1379.7,1942.7c-.7-9.2-5.2-13.9-5.9-20.3"/>
          <path class="cls-10" d="M1394.4,1929.3c0-3.9-4.4-6.4-5.7-16.8"/>
          <path class="cls-10" d="M1403.6,1917.6c-2.7-4.3-1.9-9.2-5-14.3"/>
        </g>
        <g>
          <path class="cls-11" d="M625.8,1866.5c-5.3,9.2-9.6,11.9-15.4,21.9s1.5,20.4-2.2,43.4c-2.9,18.1,4.9,48.2,0,53.9-4.9,5.6-11.8-1.2-13.4-6.4-2.6-8.6.8-25.3-4.6-28.5-5.4-3.1-9.9,3.5-12.9,11.8-3,8.2-19.4,30.3-22,34.5-2.6,4.2-15.3,16-18.1,14.3-2.9-1.7-3-5.1-3-5.1,0,0-5.1,7.4-10.4,4.4-5.3-3.1-.3-11-.3-11,0,0-2.1,1.7-5.3-.1-3.2-1.8-1-9.4,2.1-14.7,0,0-2.7,2.7-5,1.3-2.3-1.3-3.4-5.9-.2-11.6,3.3-5.7,5-15.8,8.6-22.1,3.6-6.3,10.7-17.4,12.6-23.9,2-6.5,1.8-10.5,5.5-14.6,3.7-4.1,17.1-26,25.5-35.8,8.4-9.8,16.8-26,21-33.3,0,0,8.7.2,22,7.8,13.3,7.7,15.4,13.8,15.4,13.8Z"/>
          <path class="cls-13" d="M534.1,2006.3s6.3-15.6,12.5-22.6c6.2-7,14.1-22.7,15.3-29.2"/>
          <path class="cls-13" d="M523.4,1999.7s4.6-12.5,7.3-15.4c2.7-2.9,7.6-18.1,12.2-23.8,4.6-5.7,7.2-15,7.2-15"/>
          <path class="cls-13" d="M520.2,1984.8c2.5-5.2,4.7-16.9,9.9-24.5,5.1-7.6,7.3-17.9,10.9-24.2"/>
        </g>
        <g>
          <path class="cls-11" d="M395.3,1897c7.2-11.3,17.6-26.7,37.8-47.3,6.3-6.4,12.7-13.5,12.7-13.5,0,0,6.7-1.7,18.4,5.6,11.7,7.3,14.4,18.3,14.4,18.3,0,0-7.2,10.6-5.9,15.9,2,7.9,7.4,25.7-.8,38.9-8.2,13.2-11.4,23.4-15.7,27.3-6.4,5.8-10.6,13.5-16.4,9.9-2.4-1.5-3.3-4.1-3.3-4.1,0,0-4.6,4.7-9.5,1.6-4.9-3.1-6.8-7.1-6.8-7.1,0,0-3.5,1.1-9.1-2.4-5.5-3.5-5.7-11-5.7-11,0,0-3.1-1-6.6-3.2-3.5-2.2-2.6-8.5-2.6-8.5,0,0-11.3-6.5-1.1-20.6Z"/>
          <path class="cls-10" d="M436.6,1948.1c7.1-6.2,6.9-17,20.6-32.8"/>
          <path class="cls-10" d="M420.3,1942.7c.7-9.2,5.2-13.9,5.9-20.3"/>
          <path class="cls-10" d="M405.6,1929.3c0-3.9,4.4-6.4,5.7-16.8"/>
          <path class="cls-10" d="M396.4,1917.6c2.7-4.3,1.9-9.2,5-14.3"/>
        </g>
      </g>
      <g>
        <rect class="cls-32" x="706.8" y="2005" width="386.3" height="129.1"/>
        <g>
          <path class="cls-34" d="M861.2,2094.2l-6.8,3.6c-1.3-4.2-3.4-9.6-5.3-13.4l2.5-1.5h-35.3l3.2,1.3c-1.1,4.7-3.2,10.1-6.3,14.6l-6.5-5c3.8-2.9,6.9-6.5,9.4-10.9h-8.3v-4.1h22.1v-4.3h-16.6v-3.8h16.6v-4.3h-17v-21.6h42.1v21.6h-17.2v4.3h16.9v3.8h-16.9v4.3h22.4v4.1h-8.3c3.5,3.1,7,7.2,9.3,11.3ZM830.3,2062.7v-3.5l-5.6,2.9c-1.3-3.6-2.9-7.7-4.2-10.6l2.7-1.7c2.6,2.4,5.4,5.9,7.1,8.9v-10.2h-10v14.2h10ZM827.2,2083.3c2.5,3.5,5,8.8,6.3,12.8l-7.4,1.7c-.4-3.8-1.1-9.2-1.9-13.6l3.1-1ZM839.8,2082.9c3.1,3.5,5.9,7.9,7.9,12.1l-7.2,2.6c-1-4.6-2.2-9.2-3.6-13.5l2.9-1.2ZM837.5,2062.7h10.1v-9.1c-2.1,3.1-4.9,6.2-7.3,8.2l-2.6-2c1.6-3,3.2-6.5,4.4-10l5.5,3.1v-4.3h-10.1v14.2Z"/>
          <path class="cls-34" d="M925.3,2073.8h-6.8v11.6c0,5.2-4.4,7.8-13.6,3.8l.4-3c5.1.5,5.9.1,5.9-2.4v-8.3h-7.4v22h-7.7v-22.1h-7.2v15.5h-7.4v-17.2h-6.8v-12.2h15.3c-1.8-3.1-3.8-6-5.4-8.2l1-1h-10.1v-3.7h23.9c-2.9-1.8-6.2-3.5-8.8-4.8l.8-2.9c4.3.5,10.5,1.9,14.6,3.5l-2.3,4.1h20.8v3.7h-13.5l4.9,2c-1.6,2.3-4,5-6.2,7.2h15.5v12.2ZM917.9,2071.9v-6.7h-35.7v6.7h13.9v-5.3h7.7v5.3h14.1ZM896.9,2058.7l-3.4,2.8h11c1.2-2.8,2.3-6.1,3.2-9.2h-18.7c2.7,1.8,5.5,4,7.9,6.4Z"/>
          <path class="cls-34" d="M992.4,2065.1h-5.3v32.2h-7.1v-32.2h-4.3v.5c0,15.1-2.9,25.3-10.1,32.2l-2.4-1.9c1.4-2.2,2.5-4.4,3.3-6.7l-4.6,4.2c-1.9-3.4-4.4-7.1-6.2-9.5l1.9-2.1h-10.2l5.9,2.6c-3.2,5.6-8.6,11-12.5,13.5l-2.1-2.3c2.4-3.1,5.5-7.8,7.6-13.7h-6.7v-3.7h4.3v-23.8h-3.8v-3.7h3.8v-8.8h7v8.8h6.2v-8.8h6.8v8.8h3.2v3.7h-3.2v23.8h3.5v3.7h-9.1c3,1.7,6,4.1,8.3,6.6,1.7-5.5,1.9-11.6,1.9-19.4v-22.8l5.8,1.4c4.3-1.5,8.5-3.7,11.9-6.3l5.7,5.8c-3.8,1.6-10.7,3.2-16.3,3.8v10.5h16.7v3.6ZM957.1,2054.5h-6.2v5.3h6.2v-5.3ZM957.1,2063.1h-6.2v5.7h6.2v-5.7ZM957.1,2072.1h-6.2v6.1h6.2v-6.1Z"/>
        </g>
        <g>
          <path class="cls-34" d="M731.8,2025.3c0,2.4-2,4.4-4.4,4.4s-4.4-2-4.4-4.4,2-4.4,4.4-4.4,4.4,2,4.4,4.4Z"/>
          <path class="cls-34" d="M1077,2025.3c0,2.4-2,4.4-4.4,4.4s-4.4-2-4.4-4.4,2-4.4,4.4-4.4,4.4,2,4.4,4.4Z"/>
          <path class="cls-34" d="M731.8,2113.7c0,2.4-2,4.4-4.4,4.4s-4.4-2-4.4-4.4,2-4.4,4.4-4.4,4.4,2,4.4,4.4Z"/>
          <path class="cls-34" d="M1077,2113.7c0,2.4-2,4.4-4.4,4.4s-4.4-2-4.4-4.4,2-4.4,4.4-4.4,4.4,2,4.4,4.4Z"/>
        </g>
      </g>
      <g>
        <rect class="cls-32" x="776.8" y="250.2" width="246.3" height="109.1"/>
        <g>
          <path class="cls-34" d="M867.1,298.4c-1.2,1.9-2.6,3.8-4.1,5.6h5.7v-4.5h6.3v4.5h12.6v11.9c0,5.3-5.6,6.1-11.7,3.3l.5-2.5c4.5.5,5.2,0,5.2-2.2v-7.7h-6.6v17.2h-6.3v-17.2h-6.4v14.2h-6v-10.7c-2.4,1.9-4.9,3.4-7.2,4.3l-1.2-2.3c5.3-3.7,9.5-8.3,12.5-13.9h-11.5v-3.1h13c.6-1.2,1.1-2.5,1.5-3.8-4.3,1.3-8.6,2.3-12.8,2.7l-.5-2.3c5.2-1.1,10.5-3,15.3-5.3-4-1.3-7.9-2.5-11.6-3.6l.7-2.3c5.1.7,10.6,1.7,16,3.2,2.9-1.7,5.4-3.6,7.5-5.4l5.9,3.1c-2,1.5-4.2,3-6.6,4.3,3.2,1.1,6.4,2.4,9.6,3.8l-3,5c-3.9-2.3-8.2-4.2-12.6-5.9-2,.8-4,1.5-6,2.2l4.8,1c-.4,1.1-.8,2.3-1.3,3.4h22.2v3.1h-23.9Z"/>
          <path class="cls-34" d="M925,323.1l-1.6-3.7h0c0,4.2-4.2,5.8-9.5,2.4l.6-2.1c3.2.5,3.9,0,3.9-1.2v-12.7h-2.4c-.4,8.4-2.2,14.6-5.2,18.2l-1.8-1.1c1.9-5.6,2.1-10,2.1-22.3v-19.8h12.2v38c.6-.1,1.2-.3,1.9-.5v-14.5h4.6v3h3.5v2.6h-3.5v2.1h3.5v2.6h-3.5v2.8c1.2-.4,2.2-.8,3.1-1.2l1,1.9c-2.7,2.1-6.2,4.2-8.9,5.4ZM918.5,283.8h-2.3v8.1h2.3v-8.1ZM918.5,294.6h-2.3v8.4h2.3v-8.4ZM928.3,290.7c-1-1.9-2.2-3.7-4-5.7,1.7-2.1,2.7-3.9,3.6-6.3l5,1.8c-1.7,1.9-3.4,3.2-5.1,4.4,2.1,1.1,3.6,2.2,5.3,3.7l-2.8,2.1h6.2c-1-1.8-2.3-3.6-4.3-5.8,1.8-2.1,2.8-4.1,3.7-6.2l5,1.9c-1.9,1.8-3.3,2.9-5.3,4.2,1.9.9,4.1,2.3,5.6,3.6l-3.1,2.3h6.9c-1.2-1.9-2.7-3.9-4.8-5.9,1.8-2,2.8-3.8,3.7-6.1l5.1,2.2c-1.9,1.6-3.7,2.9-5.3,3.7,2.2,1,4.3,2.1,5.9,3.5l-3.2,2.6h2.5v11.9h-24.1v-11.9h3.5ZM935.4,293.3h-5.6v6.6h1.1l-.7-1.4c2.4-1.3,3.9-2.9,5.3-5.2ZM942.4,316.4l.9,2.1c-3.1,2.3-7.3,4.2-9.7,5l-1.6-4.2c.8-.1,1.5-.3,2.3-.5v-15.1h4.6v3h3.3v2.6h-3.3v2.2h3.4v2.6h-3.4v3.5c1.2-.4,2.4-.8,3.6-1.2ZM932.5,300h8.3c-1.1-.8-2.5-1.7-3.9-2.6-1.2,1.1-2.5,1.9-4.3,2.6ZM943.9,293.3h-6l1.7.8c-.3.5-.7,1-1.1,1.4,1.7.5,3.5,1.2,5.1,2l-1.5,2.5h1.7v-6.6ZM948.5,323.7c-4.9-.6-5.9-9.3-5.9-20h4.6c0,8.8.7,13.7,1.4,14.2.6.4.6-1.3.5-4.9h2.2c1.5,6.7.9,11.3-2.8,10.8Z"/>
        </g>
        <g>
          <path class="cls-34" d="M801.8,270.5c0,2.4-2,4.4-4.4,4.4s-4.4-2-4.4-4.4,2-4.4,4.4-4.4,4.4,2,4.4,4.4Z"/>
          <path class="cls-34" d="M1007,270.5c0,2.4-2,4.4-4.4,4.4s-4.4-2-4.4-4.4,2-4.4,4.4-4.4,4.4,2,4.4,4.4Z"/>
          <path class="cls-34" d="M801.8,339c0,2.4-2,4.4-4.4,4.4s-4.4-2-4.4-4.4,2-4.4,4.4-4.4,4.4,2,4.4,4.4Z"/>
          <path class="cls-34" d="M1007,339c0,2.4-2,4.4-4.4,4.4s-4.4-2-4.4-4.4,2-4.4,4.4-4.4,4.4,2,4.4,4.4Z"/>
        </g>
      </g>
      <g>
        <rect class="cls-20" x="382.8" y="650.5" width="11.3" height="1050.5"/>
        <path class="cls-7" d="M388.5,655.4c-31,0-64-35.3-40.5-91.5,28.3-67.6,8.6-165.5,8.6-165.5,0,0,25.5,93.5,3.1,159s.5,82.6,28.8,82.6,48.4-25.4,28.8-82.6c-22.4-65.5,3.1-159,3.1-159,0,0-19.8,97.9,8.6,165.5,23.6,56.2-9.5,91.5-40.5,91.5Z"/>
        <path class="cls-7" d="M388.5,1688.6c21.4,0,29.9,24,19.9,47.8-12,28.7-6.6,32-6.6,32,0,0-11.4-1.5-1.9-29.2s1-32.9-11.3-32.9-19.2,8.6-10.9,32.9-2.4,29.2-2.4,29.2c0,0,5.4-3.3-6.6-32-10-23.8-1.5-47.8,19.9-47.8Z"/>
      </g>
      <g>
        <g>
          <path class="cls-8" d="M1443.7,1489.8c6.8,6.6,51.3,15.3,67.9,27.5,13.3,9.8,20.4,22.5,21.8,29.8,1.4,7.3,5.4,23.5,16.4,29.7,8.2,4.6,23.9,2.6,29.7-3.6,0,0-6.6,13.7-26.9,14.8-20.3,1.1-23.6-22.9-40.4-33.7-16.9-10.8-55.6-17.1-71.2-8.4,0,0-8.3-38.7,2.7-56.1Z"/>
          <path class="cls-7" d="M1414.7,1477.6c10.8,1.4,18.8,8,18.8,8,0,0,7-1.1,10.3,4.1-1.4,5.4-2.7,17.5-2.8,32.9-.1,15.3.1,23.2.1,23.2,0,0-7.7,3.4-15.6,1.8s-10.8-70.1-10.8-70.1Z"/>
          <path class="cls-9" d="M1433.4,1485.7s-5,26.5,0,56.5"/>
        </g>
        <g>
          <path class="cls-8" d="M1241.9,1489.8c-6.8,6.6-51.3,15.3-67.9,27.5-13.3,9.8-20.4,22.5-21.8,29.8-1.4,7.3-5.4,23.5-16.4,29.7-8.2,4.6-23.9,2.6-29.7-3.6,0,0,6.6,13.7,26.9,14.8,20.3,1.1,23.6-22.9,40.4-33.7,16.9-10.8,55.6-17.1,71.2-8.4,0,0,8.3-38.7-2.7-56.1Z"/>
          <path class="cls-7" d="M1270.9,1477.6c-10.8,1.4-18.8,8-18.8,8,0,0-7-1.1-10.3,4.1,1.4,5.4,2.7,17.5,2.8,32.9.1,15.3-.1,23.2-.1,23.2,0,0,7.7,3.4,15.6,1.8,7.9-1.7,10.8-70.1,10.8-70.1Z"/>
          <path class="cls-9" d="M1252.2,1485.7s5,26.5,0,56.5"/>
        </g>
        <path class="cls-7" d="M1416.8,1483.7c-6.4-24.9-42.2-52.8-74-52.8s-67.6,27.9-74,52.8c-6.4,24.9-10.6,65.5-7.8,79,2.8,13.5,15.6-34.3,81.8-34.3s79,47.8,81.8,34.3c2.8-13.5-1.4-54.2-7.8-79Z"/>
        <path class="cls-14" d="M1427.1,1547.8c-5.5-6.4-51.4-31.2-84.3-31.2s-78.8,24.9-84.3,31.2c-2.3,17.8,1.6,46.8,4.1,57.2,1.3,4.7,11.8,35.3,26.5,65.3,1.7,3.4,3.4,6.8,5.1,10.1l-3.8-115.5c0-2.8.9-7.8,3.9-9.5,3,1.7,3.9,6.7,3.9,9.5l2.3,126.7c5.7,9.8,11.7,18.7,17.8,25.7.7.8,1.5,1.7,2.2,2.5l-1-163.2c0-3.2,1.1-9.1,5.1-10,4.1.9,5.2,6.8,5.2,10v171.4c4.4,3,8.7,4.6,13,4.6s8.6-1.7,13-4.6v-171.4c0-3.2,1.1-9.1,5.2-10,4,.9,5.1,6.8,5.1,10l-1,163.2c.7-.8,1.5-1.6,2.2-2.5,6.1-7,12.1-16,17.8-25.7l2.3-126.7c0-2.8.9-7.8,3.9-9.5,3,1.7,3.9,6.7,3.9,9.5l-3.8,115.5c1.8-3.3,3.5-6.7,5.1-10.1,14.7-30,25.3-60.6,26.5-65.3,2.5-10.4,6.4-39.4,4.1-57.2ZM1324.3,1546.6c0,0,.2,0,.2,0,0,0-.2,0-.2,0ZM1361,1546.6c0,0,.2,0,.2,0,0,0-.2,0-.2,0Z"/>
        <path class="cls-26" d="M1362,1546.5c-.4,0-.8,0-1.1.1,4.1.9,5.2,6.8,5.2,10l-1,163.2c.7-.8,1.5-1.6,2.2-2.5l1-160.8c0-3.5-1.3-10.1-6.3-10.1Z"/>
        <path class="cls-26" d="M1393.7,1554.8c-.9,0-1.7.2-2.4.6,3,1.7,3.9,6.7,3.9,9.5l-3.8,115.5c1.7-3.3,3.5-6.7,5.1-10.1l3.5-105.4c0-3.5-1.3-10.1-6.3-10.1Z"/>
        <path class="cls-26" d="M1324.6,1546.7c-.3,0-.7-.1-1.1-.1-5,0-6.3,6.7-6.3,10.1l1,160.8c.7.8,1.5,1.7,2.2,2.5l-1-163.2c0-3.2,1.1-9.1,5.2-10Z"/>
        <path class="cls-27" d="M1427.1,1547.8c-5.5-6.4-51.4-31.2-84.3-31.2s-78.8,24.9-84.3,31.2c-2.3,17.8,1.6,46.8,4.1,57.2,1.3,4.7,11.8,35.3,26.5,65.3l-3.5-105.4c0-3.5,1.3-10.1,6.3-10.1s6.3,6.7,6.3,10.1l2.3,126.7c5.7,9.8,11.7,18.7,17.8,25.7l-1-160.8c0-3.5,1.3-10.1,6.3-10.1s6.3,6.7,6.3,10.1v171.4c4.4,3,8.7,4.6,13,4.6s8.6-1.7,13-4.6v-171.4c0-3.5,1.3-10.1,6.3-10.1s6.3,6.7,6.3,10.1l-1,160.8c6.1-7,12.1-16,17.8-25.7l2.3-126.7c0-3.5,1.3-10.1,6.3-10.1s6.3,6.7,6.3,10.1l-3.5,105.4c14.7-30,25.3-60.6,26.5-65.3,2.5-10.4,6.4-39.4,4.1-57.2Z"/>
        <path class="cls-26" d="M1294.3,1555.5c-.7-.4-1.5-.6-2.4-.6-5,0-6.3,6.7-6.3,10.1l3.5,105.4c1.7,3.4,3.4,6.8,5.1,10.1l-3.8-115.5c0-2.8.9-7.8,3.9-9.5Z"/>
      </g>
    </g>
  </g>
</svg>