<?xml version="1.0" encoding="UTF-8"?>
<svg xmlns="http://www.w3.org/2000/svg" version="1.1" xmlns:xlink="http://www.w3.org/1999/xlink" viewBox="0 0 1800 2400">
  <defs>
    <style>
      .cls-1, .cls-2, .cls-3, .cls-4, .cls-5, .cls-6, .cls-7, .cls-8, .cls-9, .cls-10, .cls-11, .cls-12, .cls-13, .cls-14, .cls-15, .cls-16, .cls-17, .cls-18, .cls-19, .cls-20, .cls-21, .cls-22, .cls-23, .cls-24, .cls-25, .cls-26, .cls-27, .cls-28, .cls-29, .cls-30, .cls-31, .cls-32, .cls-33, .cls-34 {
        stroke: #231f20;
      }

      .cls-1, .cls-2, .cls-4, .cls-5, .cls-6, .cls-7, .cls-8, .cls-9, .cls-10, .cls-11, .cls-12, .cls-15, .cls-17, .cls-18, .cls-19, .cls-20, .cls-25, .cls-26, .cls-27, .cls-29, .cls-30, .cls-31, .cls-33, .cls-34 {
        stroke-linejoin: round;
      }

      .cls-1, .cls-4, .cls-6, .cls-7, .cls-10, .cls-11, .cls-12, .cls-14, .cls-20, .cls-23, .cls-24, .cls-26, .cls-27, .cls-29, .cls-30, .cls-32, .cls-33, .cls-34 {
        stroke-linecap: round;
      }

      .cls-1, .cls-6 {
        stroke-width: 2px;
      }

      .cls-1, .cls-10, .cls-12, .cls-35, .cls-22, .cls-28, .cls-29, .cls-33, .cls-34 {
        fill: none;
      }

      .cls-2, .cls-3, .cls-6, .cls-8, .cls-16, .cls-26, .cls-31, .cls-32 {
        fill: #fff;
      }

      .cls-2, .cls-14, .cls-17, .cls-21, .cls-32, .cls-34 {
        stroke-width: 7px;
      }

      .cls-3, .cls-13, .cls-14, .cls-35, .cls-16, .cls-21, .cls-22, .cls-23, .cls-24, .cls-28, .cls-32 {
        stroke-miterlimit: 10;
      }

      .cls-3, .cls-13, .cls-27, .cls-28, .cls-29, .cls-31 {
        stroke-width: 5px;
      }

      .cls-4 {
        fill: #802632;
      }

      .cls-4, .cls-11, .cls-12, .cls-19 {
        stroke-width: 3px;
      }

      .cls-5, .cls-8, .cls-15, .cls-18, .cls-23, .cls-24 {
        stroke-width: 6px;
      }

      .cls-5, .cls-13, .cls-23 {
        fill: #ee4036;
      }

      .cls-7 {
        fill: #404041;
      }

      .cls-7, .cls-9, .cls-10, .cls-16, .cls-20, .cls-22, .cls-25, .cls-26, .cls-30 {
        stroke-width: 4px;
      }

      .cls-9, .cls-21 {
        fill: #ffce34;
      }

      .cls-11 {
        fill: #8a5d3b;
      }

      .cls-14 {
        fill: #d0d2d3;
      }

      .cls-35 {
        stroke: #be1e2d;
        stroke-width: .5px;
      }

      .cls-15, .cls-30 {
        fill: #f05662;
      }

      .cls-36 {
        fill: #231f20;
      }

      .cls-17, .cls-18, .cls-20, .cls-27 {
        fill: #e6e7e8;
      }

      .cls-19, .cls-25 {
        fill: #f1f1f2;
      }

      .cls-24 {
        fill: #be1e2d;
      }
    </style>
  </defs>
  <!-- Generator: Adobe Illustrator 28.7.4, SVG Export Plug-In . SVG Version: 1.2.0 Build 166)  -->
  <g>
    <g id="Layer_1">
      <g>
        <rect class="cls-13" x="0" y="0" width="1800" height="2400"/>
        <g>
          <g>
            <line class="cls-28" x1="130" y1="0" x2="130" y2="130"/>
            <line class="cls-28" x1="284" y1="0" x2="284" y2="130"/>
            <line class="cls-28" x1="438" y1="0" x2="438" y2="130"/>
            <line class="cls-28" x1="592" y1="0" x2="592" y2="130"/>
            <line class="cls-28" x1="746" y1="0" x2="746" y2="130"/>
            <line class="cls-28" x1="900" y1="0" x2="900" y2="130"/>
            <line class="cls-28" x1="1054" y1="0" x2="1054" y2="130"/>
            <line class="cls-28" x1="1208" y1="0" x2="1208" y2="130"/>
            <line class="cls-28" x1="1362" y1="0" x2="1362" y2="130"/>
            <line class="cls-28" x1="1516" y1="0" x2="1516" y2="130"/>
            <line class="cls-28" x1="1670" y1="0" x2="1670" y2="130"/>
          </g>
          <g>
            <line class="cls-22" x1="130" y1="0" x2="130" y2="72.1"/>
            <line class="cls-22" x1="160.8" y1="0" x2="160.8" y2="72.1"/>
            <line class="cls-22" x1="191.6" y1="0" x2="191.6" y2="72.1"/>
            <line class="cls-22" x1="222.4" y1="0" x2="222.4" y2="72.1"/>
            <line class="cls-22" x1="253.2" y1="0" x2="253.2" y2="72.1"/>
            <line class="cls-22" x1="284" y1="0" x2="284" y2="72.1"/>
            <line class="cls-22" x1="314.8" y1="0" x2="314.8" y2="72.1"/>
            <line class="cls-22" x1="345.6" y1="0" x2="345.6" y2="72.1"/>
            <line class="cls-22" x1="376.4" y1="0" x2="376.4" y2="72.1"/>
            <line class="cls-22" x1="407.2" y1="0" x2="407.2" y2="72.1"/>
            <line class="cls-22" x1="438" y1="0" x2="438" y2="72.1"/>
            <line class="cls-22" x1="468.8" y1="0" x2="468.8" y2="72.1"/>
            <line class="cls-22" x1="499.6" y1="0" x2="499.6" y2="72.1"/>
            <line class="cls-22" x1="530.4" y1="0" x2="530.4" y2="72.1"/>
            <line class="cls-22" x1="561.2" y1="0" x2="561.2" y2="72.1"/>
            <line class="cls-22" x1="592" y1="0" x2="592" y2="72.1"/>
            <line class="cls-22" x1="622.8" y1="0" x2="622.8" y2="72.1"/>
            <line class="cls-22" x1="653.6" y1="0" x2="653.6" y2="72.1"/>
            <line class="cls-22" x1="684.4" y1="0" x2="684.4" y2="72.1"/>
            <line class="cls-22" x1="715.2" y1="0" x2="715.2" y2="72.1"/>
            <line class="cls-22" x1="746" y1="0" x2="746" y2="72.1"/>
            <line class="cls-22" x1="776.8" y1="0" x2="776.8" y2="72.1"/>
            <line class="cls-22" x1="807.6" y1="0" x2="807.6" y2="72.1"/>
            <line class="cls-22" x1="838.4" y1="0" x2="838.4" y2="72.1"/>
            <line class="cls-22" x1="869.2" y1="0" x2="869.2" y2="72.1"/>
            <line class="cls-22" x1="900" y1="0" x2="900" y2="72.1"/>
            <line class="cls-22" x1="930.8" y1="0" x2="930.8" y2="72.1"/>
            <line class="cls-22" x1="961.6" y1="0" x2="961.6" y2="72.1"/>
            <line class="cls-22" x1="992.4" y1="0" x2="992.4" y2="72.1"/>
            <line class="cls-22" x1="1023.2" y1="0" x2="1023.2" y2="72.1"/>
            <line class="cls-22" x1="1054" y1="0" x2="1054" y2="72.1"/>
            <line class="cls-22" x1="1084.8" y1="0" x2="1084.8" y2="72.1"/>
            <line class="cls-22" x1="1115.6" y1="0" x2="1115.6" y2="72.1"/>
            <line class="cls-22" x1="1146.4" y1="0" x2="1146.4" y2="72.1"/>
            <line class="cls-22" x1="1177.2" y1="0" x2="1177.2" y2="72.1"/>
            <line class="cls-22" x1="1208" y1="0" x2="1208" y2="72.1"/>
            <line class="cls-22" x1="1238.8" y1="0" x2="1238.8" y2="72.1"/>
            <line class="cls-22" x1="1269.6" y1="0" x2="1269.6" y2="72.1"/>
            <line class="cls-22" x1="1300.4" y1="0" x2="1300.4" y2="72.1"/>
            <line class="cls-22" x1="1331.2" y1="0" x2="1331.2" y2="72.1"/>
            <line class="cls-22" x1="1362" y1="0" x2="1362" y2="72.1"/>
            <line class="cls-22" x1="1392.8" y1="0" x2="1392.8" y2="72.1"/>
            <line class="cls-22" x1="1423.6" y1="0" x2="1423.6" y2="72.1"/>
            <line class="cls-22" x1="1454.4" y1="0" x2="1454.4" y2="72.1"/>
            <line class="cls-22" x1="1485.2" y1="0" x2="1485.2" y2="72.1"/>
            <line class="cls-22" x1="1516" y1="0" x2="1516" y2="72.1"/>
            <line class="cls-22" x1="1546.8" y1="0" x2="1546.8" y2="72.1"/>
            <line class="cls-22" x1="1577.6" y1="0" x2="1577.6" y2="72.1"/>
            <line class="cls-22" x1="1608.4" y1="0" x2="1608.4" y2="72.1"/>
            <line class="cls-22" x1="1639.2" y1="0" x2="1639.2" y2="72.1"/>
            <line class="cls-22" x1="1670" y1="0" x2="1670" y2="72.1"/>
          </g>
        </g>
        <g>
          <g>
            <line class="cls-22" x1="130" y1="2327.9" x2="130" y2="2400"/>
            <line class="cls-22" x1="160.8" y1="2327.9" x2="160.8" y2="2400"/>
            <line class="cls-22" x1="191.6" y1="2327.9" x2="191.6" y2="2400"/>
            <line class="cls-22" x1="222.4" y1="2327.9" x2="222.4" y2="2400"/>
            <line class="cls-22" x1="253.2" y1="2327.9" x2="253.2" y2="2400"/>
            <line class="cls-22" x1="284" y1="2327.9" x2="284" y2="2400"/>
            <line class="cls-22" x1="314.8" y1="2327.9" x2="314.8" y2="2400"/>
            <line class="cls-22" x1="345.6" y1="2327.9" x2="345.6" y2="2400"/>
            <line class="cls-22" x1="376.4" y1="2327.9" x2="376.4" y2="2400"/>
            <line class="cls-22" x1="407.2" y1="2327.9" x2="407.2" y2="2400"/>
            <line class="cls-22" x1="438" y1="2327.9" x2="438" y2="2400"/>
            <line class="cls-22" x1="468.8" y1="2327.9" x2="468.8" y2="2400"/>
            <line class="cls-22" x1="499.6" y1="2327.9" x2="499.6" y2="2400"/>
            <line class="cls-22" x1="530.4" y1="2327.9" x2="530.4" y2="2400"/>
            <line class="cls-22" x1="561.2" y1="2327.9" x2="561.2" y2="2400"/>
            <line class="cls-22" x1="592" y1="2327.9" x2="592" y2="2400"/>
            <line class="cls-22" x1="622.8" y1="2327.9" x2="622.8" y2="2400"/>
            <line class="cls-22" x1="653.6" y1="2327.9" x2="653.6" y2="2400"/>
            <line class="cls-22" x1="684.4" y1="2327.9" x2="684.4" y2="2400"/>
            <line class="cls-22" x1="715.2" y1="2327.9" x2="715.2" y2="2400"/>
            <line class="cls-22" x1="746" y1="2327.9" x2="746" y2="2400"/>
            <line class="cls-22" x1="776.8" y1="2327.9" x2="776.8" y2="2400"/>
            <line class="cls-22" x1="807.6" y1="2327.9" x2="807.6" y2="2400"/>
            <line class="cls-22" x1="838.4" y1="2327.9" x2="838.4" y2="2400"/>
            <line class="cls-22" x1="869.2" y1="2327.9" x2="869.2" y2="2400"/>
            <line class="cls-22" x1="900" y1="2327.9" x2="900" y2="2400"/>
            <line class="cls-22" x1="930.8" y1="2327.9" x2="930.8" y2="2400"/>
            <line class="cls-22" x1="961.6" y1="2327.9" x2="961.6" y2="2400"/>
            <line class="cls-22" x1="992.4" y1="2327.9" x2="992.4" y2="2400"/>
            <line class="cls-22" x1="1023.2" y1="2327.9" x2="1023.2" y2="2400"/>
            <line class="cls-22" x1="1054" y1="2327.9" x2="1054" y2="2400"/>
            <line class="cls-22" x1="1084.8" y1="2327.9" x2="1084.8" y2="2400"/>
            <line class="cls-22" x1="1115.6" y1="2327.9" x2="1115.6" y2="2400"/>
            <line class="cls-22" x1="1146.4" y1="2327.9" x2="1146.4" y2="2400"/>
            <line class="cls-22" x1="1177.2" y1="2327.9" x2="1177.2" y2="2400"/>
            <line class="cls-22" x1="1208" y1="2327.9" x2="1208" y2="2400"/>
            <line class="cls-22" x1="1238.8" y1="2327.9" x2="1238.8" y2="2400"/>
            <line class="cls-22" x1="1269.6" y1="2327.9" x2="1269.6" y2="2400"/>
            <line class="cls-22" x1="1300.4" y1="2327.9" x2="1300.4" y2="2400"/>
            <line class="cls-22" x1="1331.2" y1="2327.9" x2="1331.2" y2="2400"/>
            <line class="cls-22" x1="1362" y1="2327.9" x2="1362" y2="2400"/>
            <line class="cls-22" x1="1392.8" y1="2327.9" x2="1392.8" y2="2400"/>
            <line class="cls-22" x1="1423.6" y1="2327.9" x2="1423.6" y2="2400"/>
            <line class="cls-22" x1="1454.4" y1="2327.9" x2="1454.4" y2="2400"/>
            <line class="cls-22" x1="1485.2" y1="2327.9" x2="1485.2" y2="2400"/>
            <line class="cls-22" x1="1516" y1="2327.9" x2="1516" y2="2400"/>
            <line class="cls-22" x1="1546.8" y1="2327.9" x2="1546.8" y2="2400"/>
            <line class="cls-22" x1="1577.6" y1="2327.9" x2="1577.6" y2="2400"/>
            <line class="cls-22" x1="1608.4" y1="2327.9" x2="1608.4" y2="2400"/>
            <line class="cls-22" x1="1639.2" y1="2327.9" x2="1639.2" y2="2400"/>
            <line class="cls-22" x1="1670" y1="2327.9" x2="1670" y2="2400"/>
          </g>
          <g>
            <line class="cls-28" x1="130" y1="2270" x2="130" y2="2400"/>
            <line class="cls-28" x1="284" y1="2270" x2="284" y2="2400"/>
            <line class="cls-28" x1="438" y1="2270" x2="438" y2="2400"/>
            <line class="cls-28" x1="592" y1="2270" x2="592" y2="2400"/>
            <line class="cls-28" x1="746" y1="2270" x2="746" y2="2400"/>
            <line class="cls-28" x1="900" y1="2270" x2="900" y2="2400"/>
            <line class="cls-28" x1="1054" y1="2270" x2="1054" y2="2400"/>
            <line class="cls-28" x1="1208" y1="2270" x2="1208" y2="2400"/>
            <line class="cls-28" x1="1362" y1="2270" x2="1362" y2="2400"/>
            <line class="cls-28" x1="1516" y1="2270" x2="1516" y2="2400"/>
            <line class="cls-28" x1="1670" y1="2270" x2="1670" y2="2400"/>
          </g>
        </g>
        <g>
          <g>
            <line class="cls-28" x1="1670" y1="130" x2="1800" y2="130"/>
            <line class="cls-28" x1="1670" y1="272.7" x2="1800" y2="272.7"/>
            <line class="cls-28" x1="1670" y1="415.3" x2="1800" y2="415.3"/>
            <line class="cls-28" x1="1670" y1="558" x2="1800" y2="558"/>
            <line class="cls-28" x1="1670" y1="700.7" x2="1800" y2="700.7"/>
            <line class="cls-28" x1="1670" y1="843.3" x2="1800" y2="843.3"/>
            <line class="cls-28" x1="1670" y1="986" x2="1800" y2="986"/>
            <line class="cls-28" x1="1670" y1="1128.7" x2="1800" y2="1128.7"/>
            <line class="cls-28" x1="1670" y1="1271.3" x2="1800" y2="1271.3"/>
            <line class="cls-28" x1="1670" y1="1414" x2="1800" y2="1414"/>
            <line class="cls-28" x1="1670" y1="1556.7" x2="1800" y2="1556.7"/>
            <line class="cls-28" x1="1670" y1="1699.3" x2="1800" y2="1699.3"/>
            <line class="cls-28" x1="1670" y1="1842" x2="1800" y2="1842"/>
            <line class="cls-28" x1="1670" y1="1984.7" x2="1800" y2="1984.7"/>
            <line class="cls-28" x1="1670" y1="2127.3" x2="1800" y2="2127.3"/>
            <line class="cls-28" x1="1670" y1="2270" x2="1800" y2="2270"/>
          </g>
          <g>
            <line class="cls-22" x1="1735" y1="130" x2="1800" y2="130"/>
            <line class="cls-22" x1="1735" y1="158.5" x2="1800" y2="158.5"/>
            <line class="cls-22" x1="1735" y1="187.1" x2="1800" y2="187.1"/>
            <line class="cls-22" x1="1735" y1="215.6" x2="1800" y2="215.6"/>
            <line class="cls-22" x1="1735" y1="244.1" x2="1800" y2="244.1"/>
            <line class="cls-22" x1="1735" y1="272.7" x2="1800" y2="272.7"/>
            <line class="cls-22" x1="1735" y1="301.2" x2="1800" y2="301.2"/>
            <line class="cls-22" x1="1735" y1="329.7" x2="1800" y2="329.7"/>
            <line class="cls-22" x1="1735" y1="358.3" x2="1800" y2="358.3"/>
            <line class="cls-22" x1="1735" y1="386.8" x2="1800" y2="386.8"/>
            <line class="cls-22" x1="1735" y1="415.3" x2="1800" y2="415.3"/>
            <line class="cls-22" x1="1735" y1="443.9" x2="1800" y2="443.9"/>
            <line class="cls-22" x1="1735" y1="472.4" x2="1800" y2="472.4"/>
            <line class="cls-22" x1="1735" y1="500.9" x2="1800" y2="500.9"/>
            <line class="cls-22" x1="1735" y1="529.5" x2="1800" y2="529.5"/>
            <line class="cls-22" x1="1735" y1="558" x2="1800" y2="558"/>
            <line class="cls-22" x1="1735" y1="586.5" x2="1800" y2="586.5"/>
            <line class="cls-22" x1="1735" y1="615.1" x2="1800" y2="615.1"/>
            <line class="cls-22" x1="1735" y1="643.6" x2="1800" y2="643.6"/>
            <line class="cls-22" x1="1735" y1="672.1" x2="1800" y2="672.1"/>
            <line class="cls-22" x1="1735" y1="700.7" x2="1800" y2="700.7"/>
            <line class="cls-22" x1="1735" y1="729.2" x2="1800" y2="729.2"/>
            <line class="cls-22" x1="1735" y1="757.7" x2="1800" y2="757.7"/>
            <line class="cls-22" x1="1735" y1="786.3" x2="1800" y2="786.3"/>
            <line class="cls-22" x1="1735" y1="814.8" x2="1800" y2="814.8"/>
            <line class="cls-22" x1="1735" y1="843.3" x2="1800" y2="843.3"/>
            <line class="cls-22" x1="1735" y1="871.9" x2="1800" y2="871.9"/>
            <line class="cls-22" x1="1735" y1="900.4" x2="1800" y2="900.4"/>
            <line class="cls-22" x1="1735" y1="928.9" x2="1800" y2="928.9"/>
            <line class="cls-22" x1="1735" y1="957.5" x2="1800" y2="957.5"/>
            <line class="cls-22" x1="1735" y1="986" x2="1800" y2="986"/>
            <line class="cls-22" x1="1735" y1="1014.5" x2="1800" y2="1014.5"/>
            <line class="cls-22" x1="1735" y1="1043.1" x2="1800" y2="1043.1"/>
            <line class="cls-22" x1="1735" y1="1071.6" x2="1800" y2="1071.6"/>
            <line class="cls-22" x1="1735" y1="1100.1" x2="1800" y2="1100.1"/>
            <line class="cls-22" x1="1735" y1="1128.7" x2="1800" y2="1128.7"/>
            <line class="cls-22" x1="1735" y1="1157.2" x2="1800" y2="1157.2"/>
            <line class="cls-22" x1="1735" y1="1185.7" x2="1800" y2="1185.7"/>
            <line class="cls-22" x1="1735" y1="1214.3" x2="1800" y2="1214.3"/>
            <line class="cls-22" x1="1735" y1="1242.8" x2="1800" y2="1242.8"/>
            <line class="cls-22" x1="1735" y1="1271.3" x2="1800" y2="1271.3"/>
            <line class="cls-22" x1="1735" y1="1299.9" x2="1800" y2="1299.9"/>
            <line class="cls-22" x1="1735" y1="1328.4" x2="1800" y2="1328.4"/>
            <line class="cls-22" x1="1735" y1="1356.9" x2="1800" y2="1356.9"/>
            <line class="cls-22" x1="1735" y1="1385.5" x2="1800" y2="1385.5"/>
            <line class="cls-22" x1="1735" y1="1414" x2="1800" y2="1414"/>
            <line class="cls-22" x1="1735" y1="1442.5" x2="1800" y2="1442.5"/>
            <line class="cls-22" x1="1735" y1="1471.1" x2="1800" y2="1471.1"/>
            <line class="cls-22" x1="1735" y1="1499.6" x2="1800" y2="1499.6"/>
            <line class="cls-22" x1="1735" y1="1528.1" x2="1800" y2="1528.1"/>
            <line class="cls-22" x1="1735" y1="1556.7" x2="1800" y2="1556.7"/>
            <line class="cls-22" x1="1735" y1="1585.2" x2="1800" y2="1585.2"/>
            <line class="cls-22" x1="1735" y1="1613.7" x2="1800" y2="1613.7"/>
            <line class="cls-22" x1="1735" y1="1642.3" x2="1800" y2="1642.3"/>
            <line class="cls-22" x1="1735" y1="1670.8" x2="1800" y2="1670.8"/>
            <line class="cls-22" x1="1735" y1="1699.3" x2="1800" y2="1699.3"/>
            <line class="cls-22" x1="1735" y1="1727.9" x2="1800" y2="1727.9"/>
            <line class="cls-22" x1="1735" y1="1756.4" x2="1800" y2="1756.4"/>
            <line class="cls-22" x1="1735" y1="1784.9" x2="1800" y2="1784.9"/>
            <line class="cls-22" x1="1735" y1="1813.5" x2="1800" y2="1813.5"/>
            <line class="cls-22" x1="1735" y1="1842" x2="1800" y2="1842"/>
            <line class="cls-22" x1="1735" y1="1870.5" x2="1800" y2="1870.5"/>
            <line class="cls-22" x1="1735" y1="1899.1" x2="1800" y2="1899.1"/>
            <line class="cls-22" x1="1735" y1="1927.6" x2="1800" y2="1927.6"/>
            <line class="cls-22" x1="1735" y1="1956.1" x2="1800" y2="1956.1"/>
            <line class="cls-22" x1="1735" y1="1984.7" x2="1800" y2="1984.7"/>
            <line class="cls-22" x1="1735" y1="2013.2" x2="1800" y2="2013.2"/>
            <line class="cls-22" x1="1735" y1="2041.7" x2="1800" y2="2041.7"/>
            <line class="cls-22" x1="1735" y1="2070.3" x2="1800" y2="2070.3"/>
            <line class="cls-22" x1="1735" y1="2098.8" x2="1800" y2="2098.8"/>
            <line class="cls-22" x1="1735" y1="2127.3" x2="1800" y2="2127.3"/>
            <line class="cls-22" x1="1735" y1="2155.9" x2="1800" y2="2155.9"/>
            <line class="cls-22" x1="1735" y1="2184.4" x2="1800" y2="2184.4"/>
            <line class="cls-22" x1="1735" y1="2212.9" x2="1800" y2="2212.9"/>
            <line class="cls-22" x1="1735" y1="2241.5" x2="1800" y2="2241.5"/>
            <line class="cls-22" x1="1735" y1="2270" x2="1800" y2="2270"/>
          </g>
        </g>
        <g>
          <g>
            <line class="cls-22" x1="0" y1="130" x2="65" y2="130"/>
            <line class="cls-22" x1="0" y1="158.5" x2="65" y2="158.5"/>
            <line class="cls-22" x1="0" y1="187.1" x2="65" y2="187.1"/>
            <line class="cls-22" x1="0" y1="215.6" x2="65" y2="215.6"/>
            <line class="cls-22" x1="0" y1="244.1" x2="65" y2="244.1"/>
            <line class="cls-22" x1="0" y1="272.7" x2="65" y2="272.7"/>
            <line class="cls-22" x1="0" y1="301.2" x2="65" y2="301.2"/>
            <line class="cls-22" x1="0" y1="329.7" x2="65" y2="329.7"/>
            <line class="cls-22" x1="0" y1="358.3" x2="65" y2="358.3"/>
            <line class="cls-22" x1="0" y1="386.8" x2="65" y2="386.8"/>
            <line class="cls-22" x1="0" y1="415.3" x2="65" y2="415.3"/>
            <line class="cls-22" x1="0" y1="443.9" x2="65" y2="443.9"/>
            <line class="cls-22" x1="0" y1="472.4" x2="65" y2="472.4"/>
            <line class="cls-22" x1="0" y1="500.9" x2="65" y2="500.9"/>
            <line class="cls-22" x1="0" y1="529.5" x2="65" y2="529.5"/>
            <line class="cls-22" x1="0" y1="558" x2="65" y2="558"/>
            <line class="cls-22" x1="0" y1="586.5" x2="65" y2="586.5"/>
            <line class="cls-22" x1="0" y1="615.1" x2="65" y2="615.1"/>
            <line class="cls-22" x1="0" y1="643.6" x2="65" y2="643.6"/>
            <line class="cls-22" x1="0" y1="672.1" x2="65" y2="672.1"/>
            <line class="cls-22" x1="0" y1="700.7" x2="65" y2="700.7"/>
            <line class="cls-22" x1="0" y1="729.2" x2="65" y2="729.2"/>
            <line class="cls-22" x1="0" y1="757.7" x2="65" y2="757.7"/>
            <line class="cls-22" x1="0" y1="786.3" x2="65" y2="786.3"/>
            <line class="cls-22" x1="0" y1="814.8" x2="65" y2="814.8"/>
            <line class="cls-22" x1="0" y1="843.3" x2="65" y2="843.3"/>
            <line class="cls-22" x1="0" y1="871.9" x2="65" y2="871.9"/>
            <line class="cls-22" x1="0" y1="900.4" x2="65" y2="900.4"/>
            <line class="cls-22" x1="0" y1="928.9" x2="65" y2="928.9"/>
            <line class="cls-22" x1="0" y1="957.5" x2="65" y2="957.5"/>
            <line class="cls-22" x1="0" y1="986" x2="65" y2="986"/>
            <line class="cls-22" x1="0" y1="1014.5" x2="65" y2="1014.5"/>
            <line class="cls-22" x1="0" y1="1043.1" x2="65" y2="1043.1"/>
            <line class="cls-22" x1="0" y1="1071.6" x2="65" y2="1071.6"/>
            <line class="cls-22" x1="0" y1="1100.1" x2="65" y2="1100.1"/>
            <line class="cls-22" x1="0" y1="1128.7" x2="65" y2="1128.7"/>
            <line class="cls-22" x1="0" y1="1157.2" x2="65" y2="1157.2"/>
            <line class="cls-22" x1="0" y1="1185.7" x2="65" y2="1185.7"/>
            <line class="cls-22" x1="0" y1="1214.3" x2="65" y2="1214.3"/>
            <line class="cls-22" x1="0" y1="1242.8" x2="65" y2="1242.8"/>
            <line class="cls-22" x1="0" y1="1271.3" x2="65" y2="1271.3"/>
            <line class="cls-22" x1="0" y1="1299.9" x2="65" y2="1299.9"/>
            <line class="cls-22" x1="0" y1="1328.4" x2="65" y2="1328.4"/>
            <line class="cls-22" x1="0" y1="1356.9" x2="65" y2="1356.9"/>
            <line class="cls-22" x1="0" y1="1385.5" x2="65" y2="1385.5"/>
            <line class="cls-22" x1="0" y1="1414" x2="65" y2="1414"/>
            <line class="cls-22" x1="0" y1="1442.5" x2="65" y2="1442.5"/>
            <line class="cls-22" x1="0" y1="1471.1" x2="65" y2="1471.1"/>
            <line class="cls-22" x1="0" y1="1499.6" x2="65" y2="1499.6"/>
            <line class="cls-22" x1="0" y1="1528.1" x2="65" y2="1528.1"/>
            <line class="cls-22" x1="0" y1="1556.7" x2="65" y2="1556.7"/>
            <line class="cls-22" x1="0" y1="1585.2" x2="65" y2="1585.2"/>
            <line class="cls-22" x1="0" y1="1613.7" x2="65" y2="1613.7"/>
            <line class="cls-22" x1="0" y1="1642.3" x2="65" y2="1642.3"/>
            <line class="cls-22" x1="0" y1="1670.8" x2="65" y2="1670.8"/>
            <line class="cls-22" x1="0" y1="1699.3" x2="65" y2="1699.3"/>
            <line class="cls-22" x1="0" y1="1727.9" x2="65" y2="1727.9"/>
            <line class="cls-22" x1="0" y1="1756.4" x2="65" y2="1756.4"/>
            <line class="cls-22" x1="0" y1="1784.9" x2="65" y2="1784.9"/>
            <line class="cls-22" x1="0" y1="1813.5" x2="65" y2="1813.5"/>
            <line class="cls-22" x1="0" y1="1842" x2="65" y2="1842"/>
            <line class="cls-22" x1="0" y1="1870.5" x2="65" y2="1870.5"/>
            <line class="cls-22" x1="0" y1="1899.1" x2="65" y2="1899.1"/>
            <line class="cls-22" x1="0" y1="1927.6" x2="65" y2="1927.6"/>
            <line class="cls-22" x1="0" y1="1956.1" x2="65" y2="1956.1"/>
            <line class="cls-22" x1="0" y1="1984.7" x2="65" y2="1984.7"/>
            <line class="cls-22" x1="0" y1="2013.2" x2="65" y2="2013.2"/>
            <line class="cls-22" x1="0" y1="2041.7" x2="65" y2="2041.7"/>
            <line class="cls-22" x1="0" y1="2070.3" x2="65" y2="2070.3"/>
            <line class="cls-22" x1="0" y1="2098.8" x2="65" y2="2098.8"/>
            <line class="cls-22" x1="0" y1="2127.3" x2="65" y2="2127.3"/>
            <line class="cls-22" x1="0" y1="2155.9" x2="65" y2="2155.9"/>
            <line class="cls-22" x1="0" y1="2184.4" x2="65" y2="2184.4"/>
            <line class="cls-22" x1="0" y1="2212.9" x2="65" y2="2212.9"/>
            <line class="cls-22" x1="0" y1="2241.5" x2="65" y2="2241.5"/>
            <line class="cls-22" x1="0" y1="2270" x2="65" y2="2270"/>
          </g>
          <g>
            <line class="cls-28" x1="0" y1="130" x2="130" y2="130"/>
            <line class="cls-28" x1="0" y1="272.7" x2="130" y2="272.7"/>
            <line class="cls-28" x1="0" y1="415.3" x2="130" y2="415.3"/>
            <line class="cls-28" x1="0" y1="558" x2="130" y2="558"/>
            <line class="cls-28" x1="0" y1="700.7" x2="130" y2="700.7"/>
            <line class="cls-28" x1="0" y1="843.3" x2="130" y2="843.3"/>
            <line class="cls-28" x1="0" y1="986" x2="130" y2="986"/>
            <line class="cls-28" x1="0" y1="1128.7" x2="130" y2="1128.7"/>
            <line class="cls-28" x1="0" y1="1271.3" x2="130" y2="1271.3"/>
            <line class="cls-28" x1="0" y1="1414" x2="130" y2="1414"/>
            <line class="cls-28" x1="0" y1="1556.7" x2="130" y2="1556.7"/>
            <line class="cls-28" x1="0" y1="1699.3" x2="130" y2="1699.3"/>
            <line class="cls-28" x1="0" y1="1842" x2="130" y2="1842"/>
            <line class="cls-28" x1="0" y1="1984.7" x2="130" y2="1984.7"/>
            <line class="cls-28" x1="0" y1="2127.3" x2="130" y2="2127.3"/>
            <line class="cls-28" x1="0" y1="2270" x2="130" y2="2270"/>
          </g>
        </g>
        <rect class="cls-3" x="130" y="130" width="1540" height="2140"/>
        <rect class="cls-19" x="150" y="150" width="1500" height="2100"/>
        <g>
          <line class="cls-35" x1="150" y1="150" x2="1650" y2="150"/>
          <line class="cls-35" x1="150" y1="181.8" x2="1650" y2="181.8"/>
          <line class="cls-35" x1="150" y1="213.6" x2="1650" y2="213.6"/>
          <line class="cls-35" x1="150" y1="245.5" x2="1650" y2="245.5"/>
          <line class="cls-35" x1="150" y1="277.3" x2="1650" y2="277.3"/>
          <line class="cls-35" x1="150" y1="309.1" x2="1650" y2="309.1"/>
          <line class="cls-35" x1="150" y1="340.9" x2="1650" y2="340.9"/>
          <line class="cls-35" x1="150" y1="372.7" x2="1650" y2="372.7"/>
          <line class="cls-35" x1="150" y1="404.5" x2="1650" y2="404.5"/>
          <line class="cls-35" x1="150" y1="436.4" x2="1650" y2="436.4"/>
          <line class="cls-35" x1="150" y1="468.2" x2="1650" y2="468.2"/>
          <line class="cls-35" x1="150" y1="500" x2="1650" y2="500"/>
          <line class="cls-35" x1="150" y1="531.8" x2="1650" y2="531.8"/>
          <line class="cls-35" x1="150" y1="563.6" x2="1650" y2="563.6"/>
          <line class="cls-35" x1="150" y1="595.5" x2="1650" y2="595.5"/>
          <line class="cls-35" x1="150" y1="627.3" x2="1650" y2="627.3"/>
          <line class="cls-35" x1="150" y1="659.1" x2="1650" y2="659.1"/>
          <line class="cls-35" x1="150" y1="690.9" x2="1650" y2="690.9"/>
          <line class="cls-35" x1="150" y1="722.7" x2="1650" y2="722.7"/>
          <line class="cls-35" x1="150" y1="754.5" x2="1650" y2="754.5"/>
          <line class="cls-35" x1="150" y1="786.4" x2="1650" y2="786.4"/>
          <line class="cls-35" x1="150" y1="818.2" x2="1650" y2="818.2"/>
          <line class="cls-35" x1="150" y1="850" x2="1650" y2="850"/>
          <line class="cls-35" x1="150" y1="881.8" x2="1650" y2="881.8"/>
          <line class="cls-35" x1="150" y1="913.6" x2="1650" y2="913.6"/>
          <line class="cls-35" x1="150" y1="945.5" x2="1650" y2="945.5"/>
          <line class="cls-35" x1="150" y1="977.3" x2="1650" y2="977.3"/>
          <line class="cls-35" x1="150" y1="1009.1" x2="1650" y2="1009.1"/>
          <line class="cls-35" x1="150" y1="1040.9" x2="1650" y2="1040.9"/>
          <line class="cls-35" x1="150" y1="1072.7" x2="1650" y2="1072.7"/>
          <line class="cls-35" x1="150" y1="1104.5" x2="1650" y2="1104.5"/>
          <line class="cls-35" x1="150" y1="1136.4" x2="1650" y2="1136.4"/>
          <line class="cls-35" x1="150" y1="1168.2" x2="1650" y2="1168.2"/>
          <line class="cls-35" x1="150" y1="1200" x2="1650" y2="1200"/>
          <line class="cls-35" x1="150" y1="1231.8" x2="1650" y2="1231.8"/>
          <line class="cls-35" x1="150" y1="1263.6" x2="1650" y2="1263.6"/>
          <line class="cls-35" x1="150" y1="1295.5" x2="1650" y2="1295.5"/>
          <line class="cls-35" x1="150" y1="1327.3" x2="1650" y2="1327.3"/>
          <line class="cls-35" x1="150" y1="1359.1" x2="1650" y2="1359.1"/>
          <line class="cls-35" x1="150" y1="1390.9" x2="1650" y2="1390.9"/>
          <line class="cls-35" x1="150" y1="1422.7" x2="1650" y2="1422.7"/>
          <line class="cls-35" x1="150" y1="1454.5" x2="1650" y2="1454.5"/>
          <line class="cls-35" x1="150" y1="1486.4" x2="1650" y2="1486.4"/>
          <line class="cls-35" x1="150" y1="1518.2" x2="1650" y2="1518.2"/>
          <line class="cls-35" x1="150" y1="1550" x2="1650" y2="1550"/>
          <line class="cls-35" x1="150" y1="1581.8" x2="1650" y2="1581.8"/>
          <line class="cls-35" x1="150" y1="1613.6" x2="1650" y2="1613.6"/>
          <line class="cls-35" x1="150" y1="1645.5" x2="1650" y2="1645.5"/>
          <line class="cls-35" x1="150" y1="1677.3" x2="1650" y2="1677.3"/>
          <line class="cls-35" x1="150" y1="1709.1" x2="1650" y2="1709.1"/>
          <line class="cls-35" x1="150" y1="1740.9" x2="1650" y2="1740.9"/>
          <line class="cls-35" x1="150" y1="1772.7" x2="1650" y2="1772.7"/>
          <line class="cls-35" x1="150" y1="1804.5" x2="1650" y2="1804.5"/>
          <line class="cls-35" x1="150" y1="1836.4" x2="1650" y2="1836.4"/>
          <line class="cls-35" x1="150" y1="1868.2" x2="1650" y2="1868.2"/>
          <line class="cls-35" x1="150" y1="1900" x2="1650" y2="1900"/>
          <line class="cls-35" x1="150" y1="1931.8" x2="1650" y2="1931.8"/>
          <line class="cls-35" x1="150" y1="1963.6" x2="1650" y2="1963.6"/>
          <line class="cls-35" x1="150" y1="1995.5" x2="1650" y2="1995.5"/>
          <line class="cls-35" x1="150" y1="2027.3" x2="1650" y2="2027.3"/>
          <line class="cls-35" x1="150" y1="2059.1" x2="1650" y2="2059.1"/>
          <line class="cls-35" x1="150" y1="2090.9" x2="1650" y2="2090.9"/>
          <line class="cls-35" x1="150" y1="2122.7" x2="1650" y2="2122.7"/>
          <line class="cls-35" x1="150" y1="2154.5" x2="1650" y2="2154.5"/>
          <line class="cls-35" x1="150" y1="2186.4" x2="1650" y2="2186.4"/>
          <line class="cls-35" x1="150" y1="2218.2" x2="1650" y2="2218.2"/>
          <line class="cls-35" x1="150" y1="2250" x2="1650" y2="2250"/>
        </g>
        <g>
          <line class="cls-35" x1="150" y1="150" x2="150" y2="2250"/>
          <line class="cls-35" x1="179.4" y1="150" x2="179.4" y2="2250"/>
          <line class="cls-35" x1="208.8" y1="150" x2="208.8" y2="2250"/>
          <line class="cls-35" x1="238.2" y1="150" x2="238.2" y2="2250"/>
          <line class="cls-35" x1="267.6" y1="150" x2="267.6" y2="2250"/>
          <line class="cls-35" x1="297.1" y1="150" x2="297.1" y2="2250"/>
          <line class="cls-35" x1="326.5" y1="150" x2="326.5" y2="2250"/>
          <line class="cls-35" x1="355.9" y1="150" x2="355.9" y2="2250"/>
          <line class="cls-35" x1="385.3" y1="150" x2="385.3" y2="2250"/>
          <line class="cls-35" x1="414.7" y1="150" x2="414.7" y2="2250"/>
          <line class="cls-35" x1="444.1" y1="150" x2="444.1" y2="2250"/>
          <line class="cls-35" x1="473.5" y1="150" x2="473.5" y2="2250"/>
          <line class="cls-35" x1="502.9" y1="150" x2="502.9" y2="2250"/>
          <line class="cls-35" x1="532.4" y1="150" x2="532.4" y2="2250"/>
          <line class="cls-35" x1="561.8" y1="150" x2="561.8" y2="2250"/>
          <line class="cls-35" x1="591.2" y1="150" x2="591.2" y2="2250"/>
          <line class="cls-35" x1="620.6" y1="150" x2="620.6" y2="2250"/>
          <line class="cls-35" x1="650" y1="150" x2="650" y2="2250"/>
          <line class="cls-35" x1="679.4" y1="150" x2="679.4" y2="2250"/>
          <line class="cls-35" x1="708.8" y1="150" x2="708.8" y2="2250"/>
          <line class="cls-35" x1="738.2" y1="150" x2="738.2" y2="2250"/>
          <line class="cls-35" x1="767.6" y1="150" x2="767.6" y2="2250"/>
          <line class="cls-35" x1="797.1" y1="150" x2="797.1" y2="2250"/>
          <line class="cls-35" x1="826.5" y1="150" x2="826.5" y2="2250"/>
          <line class="cls-35" x1="855.9" y1="150" x2="855.9" y2="2250"/>
          <line class="cls-35" x1="885.3" y1="150" x2="885.3" y2="2250"/>
          <line class="cls-35" x1="914.7" y1="150" x2="914.7" y2="2250"/>
          <line class="cls-35" x1="944.1" y1="150" x2="944.1" y2="2250"/>
          <line class="cls-35" x1="973.5" y1="150" x2="973.5" y2="2250"/>
          <line class="cls-35" x1="1002.9" y1="150" x2="1002.9" y2="2250"/>
          <line class="cls-35" x1="1032.4" y1="150" x2="1032.4" y2="2250"/>
          <line class="cls-35" x1="1061.8" y1="150" x2="1061.8" y2="2250"/>
          <line class="cls-35" x1="1091.2" y1="150" x2="1091.2" y2="2250"/>
          <line class="cls-35" x1="1120.6" y1="150" x2="1120.6" y2="2250"/>
          <line class="cls-35" x1="1150" y1="150" x2="1150" y2="2250"/>
          <line class="cls-35" x1="1179.4" y1="150" x2="1179.4" y2="2250"/>
          <line class="cls-35" x1="1208.8" y1="150" x2="1208.8" y2="2250"/>
          <line class="cls-35" x1="1238.2" y1="150" x2="1238.2" y2="2250"/>
          <line class="cls-35" x1="1267.6" y1="150" x2="1267.6" y2="2250"/>
          <line class="cls-35" x1="1297.1" y1="150" x2="1297.1" y2="2250"/>
          <line class="cls-35" x1="1326.5" y1="150" x2="1326.5" y2="2250"/>
          <line class="cls-35" x1="1355.9" y1="150" x2="1355.9" y2="2250"/>
          <line class="cls-35" x1="1385.3" y1="150" x2="1385.3" y2="2250"/>
          <line class="cls-35" x1="1414.7" y1="150" x2="1414.7" y2="2250"/>
          <line class="cls-35" x1="1444.1" y1="150" x2="1444.1" y2="2250"/>
          <line class="cls-35" x1="1473.5" y1="150" x2="1473.5" y2="2250"/>
          <line class="cls-35" x1="1502.9" y1="150" x2="1502.9" y2="2250"/>
          <line class="cls-35" x1="1532.4" y1="150" x2="1532.4" y2="2250"/>
          <line class="cls-35" x1="1561.8" y1="150" x2="1561.8" y2="2250"/>
          <line class="cls-35" x1="1591.2" y1="150" x2="1591.2" y2="2250"/>
          <line class="cls-35" x1="1620.6" y1="150" x2="1620.6" y2="2250"/>
          <line class="cls-35" x1="1650" y1="150" x2="1650" y2="2250"/>
        </g>
        <g>
          <path class="cls-36" d="M142,2292c0-3.6.7-6.3,2.2-8.1,1.1-1.4,2.7-2.1,4.7-2.1s1.8.2,2.5.5c.7.3,1.4.8,1.9,1.3.4.4.8,1,1.1,1.8.3.7.6,1.7.8,2.7.2,1.1.3,2.3.3,3.6,0,3.6-.7,6.3-2.1,8.1-1.1,1.4-2.7,2.1-4.7,2.1s-2.6-.4-3.6-1.1c-1-.8-1.8-1.9-2.3-3.5-.5-1.6-.8-3.3-.8-5.3ZM144.6,2292c0,3.1.4,5.2,1.2,6.4.6.9,1.6,1.3,2.8,1.3s2.1-.5,2.7-1.4c.9-1.3,1.3-3.5,1.3-6.6s-.4-5.3-1.2-6.4c-.6-.9-1.6-1.3-2.8-1.3s-2.4.7-3.1,2c-.7,1.3-1,3.3-1,6.1Z"/>
          <path class="cls-36" d="M302.2,2301.5v-14.1h-4.6v-1.8c1.4,0,2.3-.2,2.9-.4.6-.2,1.1-.6,1.4-1.1.4-.5.7-1.3.9-2.2h2v19.7h-2.7Z"/>
          <path class="cls-36" d="M450.3,2288.8c0-1,0-1.9.3-2.6.3-.9.7-1.7,1.3-2.4.6-.7,1.3-1.2,2.2-1.5.9-.3,1.8-.5,2.9-.5,2,0,3.5.5,4.7,1.6,1.1,1.1,1.7,2.5,1.7,4.3s-.1,1.5-.3,2.1c-.2.6-.6,1.2-1.1,1.7-.5.5-1.1,1.1-1.9,1.6-.3.2-1.4.8-3.2,1.8-.7.4-1.4.8-1.9,1.2-.6.4-1,.7-1.3,1.1-.3.3-.5.6-.7.9s-.3.6-.4,1.1h10.7v2.4h-13.5c.1-1.4.3-2.5.6-3.3.2-.7.6-1.4,1-2,.4-.6,1.1-1.2,1.9-1.8.4-.3,1.2-.8,2.6-1.6,1.4-.8,2.2-1.3,2.4-1.4.6-.4,1.1-.8,1.4-1.1.3-.3.5-.7.7-1.1.2-.4.2-.9.2-1.5,0-1.1-.3-2-1-2.7-.7-.7-1.6-1-2.8-1s-2.3.4-2.9,1.3c-.6.9-.9,2-1,3.6h-2.5Z"/>
          <path class="cls-36" d="M606.2,2295.5c0,1.4.4,2.5,1.1,3.2.7.7,1.7,1.1,3,1.1s2.4-.4,3.2-1.1c.8-.7,1.1-1.6,1.1-2.7s-.1-1.2-.3-1.7c-.2-.5-.6-.9-1-1.2-.5-.3-1.1-.5-1.9-.6-.5,0-1.3-.1-2.5-.1v-2c1.4,0,2.4,0,3-.2.6-.2,1.1-.5,1.5-1,.4-.5.5-1.1.5-1.9s-.3-1.7-.9-2.3c-.6-.6-1.5-.9-2.6-.9s-1.5.2-2.1.5c-.6.3-1,.8-1.3,1.4-.3.6-.5,1.4-.5,2.4h-2.4c0-1,.1-1.8.3-2.4.3-.9.7-1.7,1.3-2.3.6-.6,1.3-1.1,2.1-1.4.8-.3,1.7-.4,2.6-.4,1.9,0,3.4.5,4.5,1.5,1.1,1,1.6,2.3,1.6,3.8s-.2,1.8-.7,2.5c-.4.7-1.1,1.2-1.9,1.5.7.2,1.2.5,1.6.8.6.4,1,.9,1.3,1.6.3.6.5,1.4.5,2.3s-.3,2.3-.9,3.3c-.6,1-1.4,1.7-2.5,2.2-1.1.5-2.3.7-3.6.7s-2.1-.2-3-.5c-.8-.3-1.5-.8-2-1.3-.5-.6-.9-1.2-1.2-2-.3-.7-.4-1.7-.5-2.7h2.5Z"/>
          <path class="cls-36" d="M766.2,2301.5v-4.8h-8.6v-2.4l9-12.4h2.1v12.7h2.9v2.2h-2.9v4.8h-2.5ZM766.2,2294.5v-8.8l-6.3,8.8h6.3Z"/>
          <path class="cls-36" d="M912.5,2292.8l1.6-10.5h10v2.4h-8.3l-.8,5.4c.6-.4,1.1-.7,1.7-.9.6-.2,1.3-.3,2-.3,1.6,0,3,.5,4.2,1.4,1.6,1.2,2.4,2.8,2.4,5s-.3,2.4-.8,3.4c-.6,1.1-1.4,1.9-2.4,2.5-1,.6-2.3.9-3.8.9s-2.6-.3-3.5-.8c-1-.5-1.7-1.2-2.2-2.2-.4-.7-.6-1.5-.7-2.5h2.5c.1,1,.5,1.8,1.2,2.4.7.6,1.6.9,2.8.9s2.3-.4,3.1-1.2c.8-.8,1.2-1.9,1.2-3.2s-.4-2.3-1.2-3.1c-.8-.8-1.8-1.2-3-1.2s-2.8.6-3.7,1.9h-2.1Z"/>
          <path class="cls-36" d="M1076.5,2287c-.2-1-.6-1.8-1.1-2.3-.6-.5-1.3-.7-2.2-.7s-1.6.3-2.3.8c-.7.5-1.2,1.3-1.7,2.4-.4,1.1-.7,2.5-.8,4.3,1-1.6,2.6-2.4,4.6-2.4s3.3.6,4.5,1.7c1.1,1.1,1.7,2.6,1.7,4.5s-.2,2.2-.7,3.3c-.5,1.1-1.2,1.9-2.2,2.5-1,.6-2.2.9-3.6.9-2,0-3.6-.6-4.8-1.9-1.4-1.5-2.2-4-2.2-7.3s.3-4.2.9-5.9c.6-1.7,1.4-2.9,2.5-3.8,1.1-.8,2.4-1.2,4-1.2s1.9.2,2.7.6c.6.3,1.1.7,1.6,1.1.4.5.7,1,1,1.5.2.6.4,1.2.4,2h-2.4ZM1068.8,2295.4c0,1.3.4,2.4,1.1,3.2.8.8,1.7,1.2,2.9,1.2s2.1-.4,2.8-1.2c.8-.8,1.1-1.9,1.1-3.2s-.4-2.3-1.1-3.1c-.7-.7-1.7-1.1-2.9-1.1s-2.2.4-2.9,1.1c-.7.7-1.1,1.8-1.1,3.1Z"/>
          <path class="cls-36" d="M1220,2284.8v-2.5h13.6v2.2c-1,1.2-1.8,2.2-2.4,3.1-1,1.4-1.8,3-2.7,4.7-.8,1.7-1.5,3.4-2.1,5.1-.4,1.2-.7,2.5-1,4.1h-2.7c.2-1.2.4-2.2.7-3.2.5-1.6,1.1-3.2,1.9-4.9.8-1.7,1.7-3.3,2.8-4.9.7-1.1,1.6-2.3,2.7-3.7h-10.8Z"/>
          <path class="cls-36" d="M1384.2,2291c.7.3,1.2.7,1.6,1,.5.4.9.9,1.1,1.6.3.6.4,1.4.4,2.3,0,1.8-.6,3.2-1.8,4.4-1.2,1.1-2.8,1.7-4.9,1.7s-3.7-.6-4.9-1.7c-1.2-1.1-1.8-2.6-1.8-4.3s.3-2.3.9-3.1,1.4-1.4,2.5-1.8c-.8-.3-1.4-.7-1.8-1.2-.6-.7-.9-1.6-.9-2.7,0-1.5.5-2.8,1.6-3.8,1.1-1,2.5-1.5,4.4-1.5s2.3.2,3.2.7c.9.5,1.6,1.1,2.1,1.9.5.8.7,1.7.7,2.6s-.2,1.6-.7,2.3c-.4.7-1.1,1.2-1.9,1.6ZM1376.7,2296c0,1.1.4,2,1.1,2.7.7.7,1.7,1,2.9,1s2.2-.3,2.9-1c.7-.7,1.1-1.6,1.1-2.7s-.4-2-1.1-2.7c-.7-.7-1.7-1-2.9-1s-2.2.3-2.9,1c-.7.7-1.1,1.6-1.1,2.7ZM1377.2,2287c0,.9.3,1.7.9,2.3.6.6,1.5.9,2.5.9s1.9-.3,2.6-.9c.7-.6,1-1.4,1-2.2s-.3-1.6-.9-2.2c-.6-.6-1.5-.8-2.7-.8s-2,.3-2.5.8c-.6.5-.9,1.3-.9,2.2Z"/>
          <path class="cls-36" d="M1530.9,2296.7c.2,1,.6,1.8,1.1,2.3.6.5,1.3.7,2.2.7s1.8-.3,2.5-.9c.7-.6,1.2-1.6,1.6-2.9.3-1,.5-2.2.6-3.7-.3.5-.6.9-.9,1.1-.4.4-1,.7-1.6,1-.6.2-1.4.4-2.2.4s-2.2-.3-3.2-.8c-1-.5-1.7-1.3-2.2-2.2-.5-1-.7-2-.7-3.2s.2-2.2.7-3.3c.5-1.1,1.2-1.9,2.2-2.5,1-.6,2.2-.9,3.6-.9,2,0,3.6.6,4.8,1.9,1.4,1.5,2.1,4,2.1,7.3s-.3,4.2-.9,5.9c-.6,1.7-1.4,2.9-2.5,3.8-1.1.8-2.4,1.2-4,1.2s-1.9-.2-2.7-.6c-.6-.3-1.1-.7-1.6-1.1-.4-.5-.7-1-1-1.5-.2-.6-.4-1.2-.4-2h2.4ZM1530.6,2288.4c0,1.3.4,2.4,1.1,3.1.7.7,1.7,1.1,2.9,1.1s2.2-.4,2.9-1.1c.7-.7,1.1-1.8,1.1-3.1s-.4-2.4-1.1-3.2c-.8-.8-1.7-1.2-2.9-1.2s-2.1.4-2.8,1.2c-.8.8-1.1,1.9-1.1,3.2Z"/>
        </g>
      </g>
      <g>
        <rect class="cls-31" x="706.8" y="2005" width="386.3" height="129.1"/>
        <g>
          <path class="cls-36" d="M889.9,2084.6l3.4,5.9c-3.1,3-7.1,3.7-12.9,4-4.1.2-9.4.2-13.7,0-8.4-.6-10-3.1-10-11.3v-16.6c-5.3.8-10.4,1.6-15.4,2.3l-.7-5.2c5.3-.7,10.6-1.5,16.1-2.3v-19.1h8.1v17.9c9.4-1.4,18.8-2.9,28-4.5l.7,5.2c-9.2,1.5-19.1,3.1-28.7,4.6v16.9c0,4,1,4.9,4.8,5.2,3.9.2,7.9.2,11.3,0,4.1-.4,6.5-1,9-2.8Z"/>
          <path class="cls-36" d="M958.3,2065.5c-2.2-.2-4.5-.5-6.7-.8l5,2.5c-2.4,4.3-4.4,6.9-7,9.3,4.5,3.1,7.3,6.7,7.5,10.6.7,6.7-6.3,8.8-12.8,3.4l1-2.6c4.3,1.3,5.8.9,5.6-2.9,0-1.7-1-4.4-4.4-8.4,1.1-2.3,2-5.3,2.6-8h-5.8v28.9h-6.8v-33.5l6.5,1.2h6.1l1.3-.7c-5.6-1-11-2.6-15.9-4.9-7,3.1-15.7,5-25.6,5.4h26.7v3.5h-2.9v29h-6.9v-8.6c-4.9,2.2-11.8,4.1-17,5l-1.6-6.7c1.7,0,3.5-.1,5.4-.2v-18.5h-4v-3.5c-.5,0-1.1,0-1.6,0l-.5-2.9c9.3-1,16.4-2.9,22.2-5.8-2.4-1.7-4.6-3.6-6.5-5.8-3.6,1.7-7.7,3.1-12.1,3.8l-1-2.8c6.7-2.5,12.3-6.5,15.6-10.6l6.5,3.7c-1.7,1.5-3.8,2.9-6.2,4.3,2.6,1.9,5.4,3.4,8.2,4.6,2.8-1.9,5.3-4,7.5-6.4l5.8,4c-1.7,1.8-3.7,3.5-5.9,4.9,6.2,1.7,13,2.2,20.2,2.4l-2.4,7ZM919.4,2072.2h6.2v-3.7h-6.2v3.7ZM919.4,2079.1h6.2v-4h-6.2v4ZM919.4,2082v4.4c2-.2,4.1-.6,6.2-1v-3.4h-6.2ZM953.9,2054.7c-3.8-3-9.8-7-16.5-10.6l1.1-2.7c7,1.7,13.4,4.1,19.3,7.5l-3.9,5.8Z"/>
        </g>
        <g>
          <path class="cls-36" d="M731.8,2025.3c0,2.4-2,4.4-4.4,4.4s-4.4-2-4.4-4.4,2-4.4,4.4-4.4,4.4,2,4.4,4.4Z"/>
          <path class="cls-36" d="M1077,2025.3c0,2.4-2,4.4-4.4,4.4s-4.4-2-4.4-4.4,2-4.4,4.4-4.4,4.4,2,4.4,4.4Z"/>
          <path class="cls-36" d="M731.8,2113.7c0,2.4-2,4.4-4.4,4.4s-4.4-2-4.4-4.4,2-4.4,4.4-4.4,4.4,2,4.4,4.4Z"/>
          <path class="cls-36" d="M1077,2113.7c0,2.4-2,4.4-4.4,4.4s-4.4-2-4.4-4.4,2-4.4,4.4-4.4,4.4,2,4.4,4.4Z"/>
        </g>
      </g>
      <g>
        <rect class="cls-31" x="776.8" y="250.2" width="246.3" height="109.1"/>
        <g>
          <path class="cls-36" d="M866.4,306.6h-9.6v3.5h-6.2v-22h15.8v-8.8h6.5v8.8h15.9v21.8h-6.2v-3.3h-9.6v17.6h-6.5v-17.6ZM866.4,303.5v-12.4h-9.6v12.4h9.6ZM882.6,303.5v-12.4h-9.6v12.4h9.6Z"/>
          <path class="cls-36" d="M949.7,280.9v42.8h-5.8v-2.2h-27.3v2.3h-5.8v-42.9h38.9ZM943.9,283.9h-6.3c1.5,1.2,3.5,3.3,4.6,5l-2.1,1.3h3v2.9h-8.1c.1,3.6.4,6.8.8,9.5,1-2.3,1.7-4.8,2.4-7.8l4.2,1.4c-1.1,4.4-2.8,8.4-5.3,12,.6,1.6,1.3,2.7,2.2,3.1.8.4,1-1.2,1.1-6h2.2c1.6,9.8-.1,12.3-3.4,11.6-2.4-.5-4.1-2.3-5.4-4.9-2.4,2.4-5.4,4.4-8.8,5.8l-1.1-2c3.6-2.2,6.4-4.6,8.5-7.3-1.3-4.3-1.8-9.8-2.1-15.3h-13v-2.9h12.9c0-1.8,0-3.6,0-5.3h4.7c0,1.8,0,3.6,0,5.3h3.3c-.8-1.9-1.8-3.8-2.5-5.3l1.6-1.1h-20.6v34.7h27.3v-34.7ZM918.2,315l-1.5-4.7c4.8-.8,10-2.2,13.7-3.5l.8,2c-3.6,2.4-8.7,4.9-13,6.2ZM918.5,295.6h10.8v10.7h-10.8v-10.7ZM922.4,303.7h2.9v-5.4h-2.9v5.4Z"/>
        </g>
        <g>
          <path class="cls-36" d="M801.8,270.5c0,2.4-2,4.4-4.4,4.4s-4.4-2-4.4-4.4,2-4.4,4.4-4.4,4.4,2,4.4,4.4Z"/>
          <path class="cls-36" d="M1007,270.5c0,2.4-2,4.4-4.4,4.4s-4.4-2-4.4-4.4,2-4.4,4.4-4.4,4.4,2,4.4,4.4Z"/>
          <path class="cls-36" d="M1007,339c0,2.4-2,4.4-4.4,4.4s-4.4-2-4.4-4.4,2-4.4,4.4-4.4,4.4,2,4.4,4.4Z"/>
        </g>
      </g>
    </g>
    <g id="Layer_2">
      <g>
        <path class="cls-7" d="M970.1,509.6c1,55.1,24,119.8,27.8,247.1,3.8,127.3-31.8,249.3-93.5,249.3s-61.6-318.4-67.7-437.1c0,0-25,166.6,15.4,281.5,0,0-36.6-69.6-38.2-148.9s2.5-84.5,19.8-193.8c61-51.3,136.3,1.9,136.3,1.9Z"/>
        <g>
          <g>
            <path class="cls-17" d="M1148.7,1263c-.8-13.3-2.4-31.8-10-59.4-2.4-8.6-6.1-18.9-6.1-18.9-.5-4.1-1.2-19.3-2-23.4-4.1-21.7-4.2-93.4-7.8-135.2-3.6-41.8-15-65.3-18.3-74.3-3.4-9-3.9-58.5-4.1-89.7-.3-31.2-10.1-41.1-9.6-51.1.5-10.1.9-14.5,4-33.6,3.1-19.1-1.8-50.9-12.1-69.5-10.3-18.6-22.2-20.4-29.9-29.2-7.7-8.8-17.6-7.7-17.6-7.7-15.7-10.6-60.7-16.9-81.9-28.5-9.7-5.3-48.5-42.3-48.5-42.3,0,0-38.8,37-48.5,42.3-21.2,11.6-66.2,17.9-81.9,28.5,0,0-9.8-1-17.6,7.7-7.7,8.8-19.6,10.6-29.9,29.2-10.3,18.6-15.2,50.3-12.1,69.5,3.1,19.1,3.5,23.5,4,33.6.5,10.1-9.3,19.9-9.6,51.1-.3,31.2-.8,80.7-4.1,89.7-3.4,9-14.7,32.5-18.3,74.3-3.6,41.8-3.7,113.5-7.8,135.2-.8,4.1-1.5,19.2-2,23.4,0,0-3.7,10.2-6.1,18.9-7.6,27.7-9.2,46.1-10,59.4-2.1,17.1,10.9,17.3,10.9,17.3,0,0,2.3,5.9,6.4,6.1,4.1.2,7.3-.4,7.3-.4,0,0,3.8,6.5,10.3,6.8,6.5.3,9-2.3,9-2.3,0,0,3.5,2.6,9.3,2.9,5.8.3,7.5-6,7.5-6,0,0,2,1.8,4.8,2,6.8.3,6.7-8.4,9.5-16.5,1.9-5.5-.3-16,.5-31.4.8-15.4-12.5-28.3-18.1-34.2-3.8-4-2-17-2-17,1.8-15.6.9-34.7,10.4-51.5,12.4-21.9,28.9-86.6,33.2-120.2,4.4-34.3-1.1-49.6,1.2-63.5s14.5-68.5,16.4-121c0,0,13.4,34.9,25.3,52.9,6.8,10.3,6,64,3.8,74.3-2.3,10.4-4.1,49.9-4.1,49.9,0,0-22.1,56.5-18,98.7-13.5,92.1-17.2,124.9-12.6,189.6,4.6,65.6,5.3,186.8,2.9,201.4-2.4,14.6-11.7,84.1-13.3,114.2-1.6,30.2,5.9,154.4,5.3,181.5-.3,14.1-.9,32.5-.9,46.6s1.4,14.4,1.4,20.2-5.9,17.9-5.7,29.3c.2,11.4-29.5,32.2-30.5,40.1,0,0-14.3,16.8-.5,23.9,0,0,3.4,10.4,13.4,6.7,0,0,4.7,9.4,16.1,4,0,0,5,8.4,20.2,1.7,0,0,3.4,5.4,16.5,5.4s15.8-6.7,19.8-16.1c4-9.4,8.4-7.4,8.4-17.7s-2-24.2,0-30c2-5.8,7.2-5.4,9-11.4,1.8-6.1.4-18.4-7.4-26-7.8-7.6-4.1-19-4.1-33.2s-2.8-25.2-2.8-36.6.8-39.4,9.4-82.1c8.7-43.2,20.3-63.9,23.6-107.2,3-40.4-3.7-94.9-1.2-125.6,2.4-29.2,47.3-242,53.3-321.9,6.1,79.9,50.9,292.7,53.3,321.9,2.6,30.7-4.2,85.2-1.2,125.6,3.2,43.3,14.9,64,23.6,107.2,8.6,42.7,9.4,68.2,9.4,82.1s-2.8,22.5-2.8,36.6,3.8,25.5-4.1,33.2c-7.8,7.6-9.2,19.9-7.4,26,1.8,6.1,6.9,5.6,9,11.4,2,5.8,0,19.7,0,30s4.4,8.3,8.4,17.7c4,9.4,6.7,16.1,19.8,16.1s16.5-5.4,16.5-5.4c15.1,6.7,20.2-1.7,20.2-1.7,11.4,5.4,16.1-4,16.1-4,10.1,3.7,13.4-6.7,13.4-6.7,13.8-7.1-.5-23.9-.5-23.9-1-7.9-30.8-28.7-30.5-40.1.2-11.4-5.7-23.5-5.7-29.3s1.4-4.9,1.4-20.2-.5-32.5-.9-46.6c-.7-27.2,6.9-151.4,5.3-181.5-1.6-30.2-10.9-99.6-13.3-114.2-2.4-14.6-1.7-135.9,2.9-201.4,4.6-64.7.9-97.5-12.6-189.6,4.1-42.3-18-98.7-18-98.7,0,0-1.8-39.5-4.1-49.9-2.3-10.4-3-64.1,3.8-74.3,11.9-18,25.3-52.9,25.3-52.9,1.9,52.5,14.1,107.1,16.4,121,2.3,13.9-3.2,29.2,1.2,63.5,4.3,33.7,20.8,98.3,33.2,120.2,9.5,16.8,8.5,35.9,10.4,51.5,0,0,1.8,13.1-2,17-5.6,5.9-18.9,18.8-18.1,34.2.8,15.4-1.4,25.9.5,31.4,2.8,8.1,2.7,16.8,9.5,16.5,2.8-.1,4.8-2,4.8-2,0,0,1.7,6.3,7.5,6,5.8-.3,9.3-2.9,9.3-2.9,0,0,2.6,2.6,9,2.3,6.5-.3,10.3-6.8,10.3-6.8,0,0,3.2.6,7.3.4,4.1-.2,6.4-6.1,6.4-6.1,0,0,13-.2,10.9-17.3Z"/>
            <path class="cls-10" d="M835.2,1473.8c-4.1,13.3-5.2,36.9-22.6,44.9"/>
            <path class="cls-10" d="M972.9,1473.8c4.1,13.3,5.2,36.9,22.6,44.9"/>
            <path class="cls-10" d="M1083.3,954c2.3,14-16.7,28.4-16.7,28.4"/>
            <path class="cls-10" d="M726.2,954c-2.3,14,16.7,28.4,16.7,28.4"/>
            <g>
              <path class="cls-10" d="M873.1,692.4s-5.8,2.4-15.1,2.4-49.9-18.1-57.6-18.1"/>
              <path class="cls-10" d="M936.3,692.4s5.8,2.4,15.1,2.4c12.7,0,49.9-18.1,57.6-18.1"/>
              <path class="cls-10" d="M895.6,698.2s3.9,9.7,9.1,9.7,9.1-9.7,9.1-9.7"/>
            </g>
            <path class="cls-10" d="M1083.3,954c2.3,14-16.7,28.4-16.7,28.4"/>
            <g>
              <path class="cls-11" d="M1088,1286.2c-3.2-8.8,2.2-18.1-2.1-38.5"/>
              <path class="cls-11" d="M1104.8,1289.3c3.8-8.4,2.2-14.6,4.7-20.5"/>
              <path class="cls-11" d="M1124,1284.8c1.9-3.3-.7-7.7,3.2-17.4"/>
              <path class="cls-11" d="M1137.7,1279c-.3-5,2.8-9,2.5-14.8"/>
            </g>
            <g>
              <path class="cls-11" d="M721.5,1286.2c3.2-8.8-2.2-18.1,2.1-38.5"/>
              <path class="cls-11" d="M704.7,1289.3c-3.8-8.4-2.2-14.6-4.7-20.5"/>
              <path class="cls-11" d="M685.4,1284.8c-1.9-3.3.7-7.7-3.2-17.4"/>
              <path class="cls-11" d="M671.7,1279c.3-5-2.8-9-2.5-14.8"/>
            </g>
          </g>
          <g>
            <path class="cls-10" d="M1029.2,1968s2.6-7.4,1.5-11.5c-1.1-4.1-9.6-9.5-10.9-15"/>
            <path class="cls-10" d="M1049.4,1966.3s3.1-5.5,1.9-9.2-7.7-9.1-8.3-13.9"/>
            <path class="cls-10" d="M1065.6,1962.3s1-4.9,0-8c-1-3-6.5-9.2-7-11.4"/>
            <path class="cls-10" d="M1079,1955.5s-.2-5.4-1.8-7.5c-1.2-1.5-5.8-5.7-6.8-9.1"/>
          </g>
          <g>
            <path class="cls-10" d="M778.5,1968s-2.6-7.4-1.5-11.5c1.1-4.1,9.6-9.5,10.9-15"/>
            <path class="cls-10" d="M758.4,1966.3s-3.1-5.5-1.9-9.2c1.1-3.7,7.7-9.1,8.3-13.9"/>
            <path class="cls-10" d="M742.2,1962.3s-1-4.9,0-8c1-3,6.5-9.2,7-11.4"/>
            <path class="cls-10" d="M728.8,1955.5s.2-5.4,1.8-7.5c1.2-1.5,5.8-5.7,6.8-9.1"/>
          </g>
          <line class="cls-29" x1="904.7" y1="1014.1" x2="904.7" y2="889.7"/>
          <g>
            <path class="cls-29" d="M774.6,797.1s7,23.6,28.3,32c21.4,8.5,56.2-2,56.2-2"/>
            <path class="cls-29" d="M1034.8,797.1s-7,23.6-28.3,32c-21.4,8.5-56.2-2-56.2-2"/>
            <ellipse class="cls-10" cx="811.7" cy="806.4" rx="6" ry="3.9"/>
            <ellipse class="cls-10" cx="997.8" cy="806.4" rx="6" ry="3.9"/>
            <path class="cls-29" d="M990.8,915.4s-8.7-35.7-41.5-55.6"/>
            <path class="cls-29" d="M818.8,915.4s8.7-35.7,41.5-55.6"/>
            <path class="cls-29" d="M821,1020.8c10,10.6,23.6,43.4,36.4,54"/>
            <path class="cls-29" d="M988.6,1020.8c-10,10.6-23.6,43.4-36.4,54"/>
          </g>
          <g>
            <path class="cls-27" d="M873.5,1125.6c4.1,6.5,6.7,13.9,6.7,20.4s-8.8,26.1,3.7,36.1c12.5,10,19.8,1.4,19.8,1.4,0,0,7.3,8.6,19.8-1.4,12.5-10,3.7-29.6,3.7-36.1s2.6-13.9,6.7-20.4"/>
            <path class="cls-27" d="M893.5,1132.9c1.7,5.5,0,31.6,2,35.5s8.2,1.8,8.2,1.8c0,0,6.3,2,8.2-1.8,2-3.9.3-30,2-35.5"/>
            <path class="cls-27" d="M914.1,1170.1c0,3.1-1.8,14.1-10,14.1s-10-11-10-14.1,4.5-4.4,10-4.4,10,1.3,10,4.4Z"/>
          </g>
          <path class="cls-10" d="M897.6,733s-7.3-7-21.7-9.8"/>
          <path class="cls-10" d="M897.6,749.5s-22.7-11-45.5-10.5"/>
          <path class="cls-10" d="M897.6,774.5s-30.2-8.8-54.7-8.5"/>
          <path class="cls-10" d="M911.9,733s7.3-7,21.7-9.7"/>
          <path class="cls-10" d="M911.9,749.5s22.7-11,45.5-10.5"/>
          <path class="cls-10" d="M911.9,774.5s30.2-8.7,54.7-8.5"/>
          <g>
            <path class="cls-10" d="M848.8,845.4s-26.8,12.3-37.3,31.9"/>
            <path class="cls-10" d="M804.6,856.9s7.5-10.5,16.2-12.5"/>
          </g>
          <g>
            <path class="cls-10" d="M960.6,845.4s26.8,12.3,37.3,31.9"/>
            <path class="cls-10" d="M1004.8,856.9s-7.5-10.5-16.2-12.5"/>
          </g>
          <path class="cls-10" d="M736.6,802.5s23-11,38-53"/>
          <path class="cls-10" d="M1072.8,802.5s-23-11-38-53"/>
        </g>
        <path class="cls-21" d="M1090.4,1185.5c-2.9,0-5.8-1.4-7.5-4.1-2.8-4.2-1.6-9.8,2.6-12.5,14.7-9.7,36.8-12.8,51.4-7.2,4.7,1.8,7,7,5.2,11.7-1.8,4.7-7,7-11.7,5.2-9.1-3.5-25.1-1.1-34.9,5.4-1.5,1-3.3,1.5-5,1.5Z"/>
        <path class="cls-21" d="M719.1,1185.5c2.9,0,5.8-1.4,7.5-4.1,2.8-4.2,1.6-9.8-2.6-12.5-14.7-9.7-36.8-12.8-51.4-7.2-4.7,1.8-7,7-5.2,11.7,1.8,4.7,7,7,11.7,5.2,9.1-3.5,25.1-1.1,34.9,5.4,1.5,1,3.3,1.5,5,1.5Z"/>
        <g>
          <path class="cls-20" d="M860.7,653.5c-.9-17.7,6.5-46.2,5.2-62.7h77.6c-1.3,16.4,6.1,45,5.2,62.7"/>
          <path class="cls-10" d="M867.7,590.8s11.6,67.5,23.6,85.5"/>
          <path class="cls-10" d="M943.1,590.8s-11.6,67.5-23.6,85.5"/>
        </g>
        <g>
          <path class="cls-32" d="M1044.5,1256.9c-4.7-216.5-19.9-210.2-19.9-210.2,0,0-64.9,21.4-118.1,21.4s-118.1-21.4-118.1-21.4c0,0-15.2-6.3-19.9,210.2-4.7,216.5-36.8,642.2-36.8,642.2,75.5,86.6,114.8,38.7,177.1,38.7s97.2,47.9,172.7-38.7c0,0-32.1-425.7-36.8-642.2Z"/>
          <path class="cls-10" d="M919.8,1778.2c34.2-32.9,60.8-201.7,78.2-512.1"/>
          <path class="cls-10" d="M828.9,1399.4c4.8,80.4,40.3,225.2,45.3,298.7"/>
          <g>
            <path class="cls-14" d="M1019.5,1089.1l-113.1,5.2-113.1-5.2c-1.2,37.5,4.8,237.4-3.5,399.5-9.8,191.4-10.9,376-10.9,376,0,0,30,39.2,127.5,39.2s127.5-39.2,127.5-39.2c0,0-1.2-184.7-10.9-376.2-8.3-162.1-2.2-361.8-3.5-399.3Z"/>
            <path class="cls-15" d="M1003.3,1089.1l-96.8,5-96.8-5q-2.2,79.1-6.7,754.6s26.2,35.4,103.5,35.4,103.5-35.4,103.5-35.4q-4.5-675.4-6.7-754.6Z"/>
            <path class="cls-8" d="M988.5,1089.1l-82.1,4.9-82.1-4.9q-1.8,76.6-1.5,737.9s19.7,29.2,83.6,29.2,83.6-29.2,83.6-29.2q.3-661.3-1.5-737.9Z"/>
            <path class="cls-10" d="M945,1109.6s-9.2,91.9-77,162.3"/>
            <path class="cls-10" d="M952.6,1304.1s4.1,150.8-79.9,304.8"/>
          </g>
          <g>
            <g>
              <path class="cls-23" d="M1027.6,1071.8c-35.8,24.1-88.3,29.1-122.1,29.1s-86.2-5-122.1-29.1c0,0-12.1,15.2-7.1,22,27.2,21.1,99.4,32.2,129.2,32.2s101.9-11.2,129.2-32.2c5.1-6.7-7.1-22-7.1-22Z"/>
              <path class="cls-1" d="M1027.4,1074.6c-12,18.8-25.7,33.6-42.4,39.9"/>
              <path class="cls-1" d="M940,1118s40.5-5.3,63.9-28"/>
              <path class="cls-1" d="M783.4,1080c12,18.8,35.1,31.8,54.8,37.4"/>
              <path class="cls-1" d="M879.3,1119.7s-54-11.8-74.1-32.4"/>
            </g>
            <g>
              <path class="cls-24" d="M911.2,1119.7c-4.5,51,3.2,151.3,56.5,239.4,53.3,88.1,72,134.4,48.1,180.7,0,0,2.2,5.7,8.2,7,5.9,1.4,11.3,2.5,11.8,5.4.5,3,14.4-9.1,12.2-37.3-2.2-28.2-10.9-88.4-53.6-149.8-42.7-61.4-70.7-160.8-55.4-253l-27.8,7.6Z"/>
              <path class="cls-1" d="M918.9,1118c-10.7,86.1,15.6,187.2,72.5,251.9"/>
              <path class="cls-1" d="M994.4,1393.8c27.8,39.3,45.3,99.1,26.9,133.2"/>
              <path class="cls-1" d="M1031.9,1548.9c10.3-13.1,14.8-50.3-3-92.1"/>
              <path class="cls-1" d="M934.8,1113.3c-27.2,47.7,10,201.3,0,111.9"/>
            </g>
            <g>
              <path class="cls-24" d="M888.5,1107.3s12.2,15.5,23.6,12.4c0,0-100.9,122.9,4.5,207.6,105.5,84.7,129.3,65.7,169.8,129.5,0,0-7-2.1-9.7,2.4-2.7,4.5-6.1,11.8-12.4,9.4-6.4-2.4-23.9-46.6-108.6-95.6-84.7-49-106.9-72.3-104.1-134.2,2.9-61.9,29.6-101.8,36.9-131.5Z"/>
              <path class="cls-1" d="M903.3,1118.9c-19.2,54-95.8,141.8,11.6,229.1"/>
              <path class="cls-1" d="M896.7,1322.3c45.9,60.1,158.9,72.7,176.4,142.8"/>
              <path class="cls-1" d="M893.1,1112.1c3,23.9-25,48.6-28.7,81.4"/>
            </g>
            <g>
              <path class="cls-23" d="M1001.7,1136.9c-6.2-26-52.9-24-72.1-32.9-11.7-5.4-19.9,12-18,23.2,1.9,11.2,3.3,5.7,18,27,14.7,21.3,44.7,31.4,55.7,28,11-3.4,22.6-19.3,16.4-45.3ZM970,1164.2c-16.1-3-21.3-17.8-36.9-30.3-12.1-9.7-7-22.7,3.8-17.2,14,7.1,52.6,13.2,52.4,29.3-.2,14.5-1.4,21.6-19.3,18.2Z"/>
              <path class="cls-1" d="M938.9,1112.4c14,10.4,49.6,4.2,50.1,31.2"/>
              <path class="cls-1" d="M997.6,1143.6c.9,24.2-7.8,41.7-34.1,35.8"/>
              <path class="cls-1" d="M924.2,1133.9s10.4,8.2,24.3,23.1c11.2,12,29.4,15.5,37.4,5.1"/>
            </g>
            <g>
              <path class="cls-23" d="M827.6,1182.3c11,3.4,41-6.7,55.7-28,14.7-21.3,16.2-15.8,18-27,1.9-11.2-6.4-28.6-18-23.2-19.2,8.9-65.8,6.9-72.1,32.9-6.2,26,5.4,42,16.4,45.3ZM823.6,1145.9c-.2-16.1,38.3-22.2,52.4-29.3,10.8-5.4,16,7.5,3.8,17.2-15.6,12.5-20.8,27.3-36.9,30.3-17.9,3.3-19.1-3.8-19.3-18.2Z"/>
              <path class="cls-1" d="M874,1112.4c-14,10.4-49.6,4.2-50.1,31.2"/>
              <path class="cls-1" d="M815.3,1143.6c-.9,24.2,7.8,41.7,34.1,35.8"/>
              <path class="cls-1" d="M888.7,1133.9s-10.4,8.2-24.3,23.1c-11.2,12-29.4,15.5-37.4,5.1"/>
            </g>
            <g>
              <path class="cls-23" d="M895.8,1097.9c-6.3,2-8,3.1-4.2,18.6,3.7,15.5,5.3,13.4,4.7,19.3s17.2,13.3,23.6,5.8,3.6-31.9,8.1-38.1-3.9-9.3-12.6-4.9c-8.7,4.4-10.7-3.5-19.6-.6Z"/>
              <path class="cls-1" d="M917.9,1097.4c-4.2,12.3-2.3,28.9-7.4,32-3,1.8-5-1.8-5-8.7"/>
              <path class="cls-1" d="M907.2,1099.3c-5.7,11.2-14.6,42.3,5.1,45.3"/>
            </g>
          </g>
        </g>
        <g>
          <path class="cls-5" d="M1011.3,657.2s-10.7-1.8-15.2-4.7-27.4,358.3-208.7,381.4c0,0-1.8,12.8-2.8,16.5-1,3.8,100-14.6,161.5-135s65.2-258.2,65.2-258.2Z"/>
          <path class="cls-5" d="M1187.9,1176.5c.8,9.3,4.4,15.3,4.4,15.3,0,0-77.1,31.2-121.3,14.9l-3.1-14.2,120-15.9Z"/>
          <path class="cls-2" d="M1009.1,654.5c-7.2,50.9-30.9,361.3-224.9,392,0,0-11.5,11-.7,25.4,4,5.3,51.5,26.9,121.3,26.9s106.6-5.7,127.9-26.9c12-20.9,1.8-38.7-5.8-57.7s-9.9-80.8-7.2-102.7,7.2-63.1,7.2-63.1c0,0,11.3,81.7,14.7,126.7,3.3,45,14.8,179.1,24.1,220.6,19.3,8.8,92.7,7,124.4-18-1-45.1-53.6-109.4-71.6-229.4-8.3-55.1-14.8-196.2-28.2-228.8s-51.7-57.5-81.1-65Z"/>
          <path class="cls-34" d="M1026.8,848.4c5.8-23.4,12-25.5,16.3-41.9"/>
          <path class="cls-10" d="M1078.4,933.6c-1.9,17.9-8.8,26.3-10.7,39.9"/>
          <path class="cls-1" d="M849.4,1096.2c-9.8-10.9-26.5,0-28.4-29.2"/>
          <path class="cls-1" d="M954,1097.3c8.8,1,44.6-5.3,48-40.1"/>
          <path class="cls-1" d="M1028.7,853.6c8.4-3.2,13.8-14,23.2-26.2"/>
          <path class="cls-1" d="M878.8,1097.7c24.6,1,67.8-35.5,99.2-104.7"/>
        </g>
        <g>
          <g>
            <g>
              <path class="cls-26" d="M961.9,512.6s4.2-5.9,8-4.7c4.8,1.5,3.5,5,3.4,6.9-.2,2.8,1.2,5.5,1.3,8,.2,3.7,1.1,8.3-.4,14.8s-4.2,6.7-4.6,10.1c-.4,3.4-3.1,8.1-7.8,7.5s-6.7-7.2-5.9-13.9c.8-6.7,6-28.6,6-28.6Z"/>
              <path class="cls-1" d="M968.8,514.7c-.8,4.2-4.2,6.5-4.7,10.8s2.6,5.2,2.1,9c-.5,3.7-3.8,4.3-4.2,7.7-.4,3.4,2.6,5.5,2.6,5.5"/>
              <path class="cls-1" d="M969.6,524.2s-1.5,3.7-5.5,3.6"/>
            </g>
            <g>
              <path class="cls-26" d="M842.3,512.6s-4.2-5.9-8-4.7-3.5,5-3.4,6.9c.2,2.8-1.2,5.5-1.3,8-.2,3.7-1.1,8.3.4,14.8,1.5,6.6,4.2,6.7,4.6,10.1.4,3.4,3.1,8.1,7.8,7.5,4.7-.6,6.7-7.2,5.9-13.9-.8-6.7-6-28.6-6-28.6Z"/>
              <path class="cls-1" d="M835.4,514.7c.8,4.2,4.2,6.5,4.7,10.8s-2.6,5.2-2.1,9c.5,3.7,3.8,4.3,4.2,7.7.4,3.4-2.6,5.5-2.6,5.5"/>
              <path class="cls-1" d="M834.6,524.2s1.5,3.7,5.5,3.6"/>
            </g>
            <path class="cls-25" d="M958.4,472.3c-4.1-13.5-15.3-27-23.7-30-8.5-3-18.5-9.8-32.5-9.8s-24.1,6.8-32.5,9.8c-8.5,3-19.6,16.4-23.7,30-4.1,13.5-3.5,37.7-1.7,47.3,1.8,9.5,0,16.4,2.8,30.5,2.7,14.1,3.8,37.8,11.3,48.6,7.5,10.8,12.1,16.4,17.8,24.9,5.3,8,13.2,15.7,26.1,15.7s20.8-7.7,26.1-15.7c5.7-8.5,10.3-14.1,17.8-24.9s8.6-34.5,11.3-48.6c2.7-14.1,1-20.9,2.8-30.5,1.8-9.5,2.4-33.7-1.7-47.3Z"/>
            <path class="cls-1" d="M921.9,559c.2,6.6,15.5,14.9,17.3,28"/>
            <path class="cls-1" d="M915.4,511.5c3.3,2.6,1.8,8.3,6.4,14.3,4.6,6,14.2,7.3,17.9,6.3s6.6-.3,7.4.1"/>
            <path class="cls-6" d="M944.3,526.4c-2-4.2-4.8-4.3-9-5.3s-13.7-7.4-13.7-7.4c0,.3.2.7.3,1,2.6,7.8,8.9,11.3,14.4,10.8s8,.9,8,.9Z"/>
            <path class="cls-33" d="M918.4,524.9c3,9,10.6,13.4,18.9,10.5,6.2-2.2,8.6-1.5,8.6-1.5"/>
            <path class="cls-1" d="M912.3,508.4c-1.9,1.6-2.9,11.5-2.9,11.5"/>
            <path class="cls-1" d="M930.3,548.1s5.1,8,6,13.4"/>
            <path class="cls-1" d="M895.9,549.2s-1.6-3-4.4-3.3c-2.9-.3-7.7,3.4-7.7,9.1,0,5.8,5.5,5,6.8,6.1,1.3,1.1,7.7,10.3,13,10.3,5.4,0,11.7-9.2,13-10.3s6.8-.3,6.8-6.1-4.8-9.4-7.7-9.1-4.4,3.3-4.4,3.3"/>
            <path class="cls-1" d="M885.3,559c-.2,6.6-15.5,14.9-17.3,28"/>
            <path class="cls-1" d="M881.4,491.8c7.1-2.3,12.3-12,22.1-12,9.8,0,15,9.7,22.1,12"/>
            <path class="cls-1" d="M887.2,479.2s7.6-4.8,16.4-4.8c8.7,0,16.4,4.8,16.4,4.8"/>
            <path class="cls-1" d="M894.9,508.4c1.9,1.6,2.9,11.5,2.9,11.5"/>
            <path class="cls-1" d="M896,503.9c2.1-.4,3.6-4.6,7.6-4.6s5.5,4.2,7.6,4.6"/>
            <path class="cls-1" d="M876.9,548.1s-5.1,8-6,13.4"/>
            <path class="cls-33" d="M921.3,511c4.2,1.8,9.7,6.3,14.8,7.7s6.1,1.7,7.2,2.8"/>
            <path class="cls-1" d="M891.7,511.5c-3.3,2.6-1.8,8.3-6.4,14.3-4.6,6-14.2,7.3-17.9,6.3-3.8-1-6.6-.3-7.4.1"/>
            <path class="cls-6" d="M862.8,526.4c2-4.2,4.8-4.3,9-5.3s13.7-7.4,13.7-7.4c0,.3-.2.7-.3,1-2.6,7.8-8.9,11.3-14.4,10.8s-8,.9-8,.9Z"/>
            <path class="cls-33" d="M888.7,524.9c-3,9-10.6,13.4-18.9,10.5s-8.6-1.5-8.6-1.5"/>
            <path class="cls-33" d="M885.9,511c-4.2,1.8-9.7,6.3-14.8,7.7s-6.1,1.7-7.2,2.8"/>
            <path class="cls-4" d="M927.3,590.8h4.5c-.9-2.5-12.1-12.9-16.5-13.5-4.4-.6-6.1,2.4-11.6,2.4s-7.2-2.9-11.6-2.4c-4.4.6-15.6,11-16.5,13.5h4.5c8.3,1.2,15.8,8.1,23.7,8.1s15.4-7,23.7-8.1Z"/>
            <g>
              <path class="cls-30" d="M919.1,968.2c-2.4-36.9,2.6-383.2-1-385s-4.4.8-14.4.8-10.8-2.6-14.4-.8,1.4,348.1-1,385c-2.4,36.9,2.5,57.8,15.5,57.8s17.9-20.9,15.5-57.8Z"/>
              <line class="cls-1" x1="903.6" y1="583.9" x2="903.6" y2="995.7"/>
            </g>
            <path class="cls-6" d="M915.2,577.3c-4.4-.6-6.1,2.4-11.6,2.4s-7.2-2.9-11.6-2.4c-1.5.2-3.7,1.5-6,3.2.1,1.6.3,3.1.7,3.4.8.6,7.8,2.6,17,2.6s16.1-2,17-2.6c.4-.3.6-1.8.7-3.4-2.3-1.7-4.6-3-6-3.2Z"/>
            <path class="cls-1" d="M936.4,591.3s1.7,7.2-5.9,4.6"/>
            <path class="cls-1" d="M870.8,591.3s-1.7,7.2,5.9,4.6"/>
            <path class="cls-1" d="M868,489.5c-2.6,4.4-10.2,3.1-11.7,6.4"/>
            <path class="cls-1" d="M939.2,489.5c2.6,4.4,10.2,3.1,11.7,6.4"/>
          </g>
          <g>
            <path class="cls-2" d="M938.9,91.4s-2.3-6-36.8-6-36.8,6-36.8,6c0,0-24,219.8-24,384.2,0,0,15.8-16,60.8-16s60.8,16,60.8,16c0-164.4-24-384.2-24-384.2Z"/>
            <g>
              <path class="cls-36" d="M924.4,180.3c6.9,1.2,10.7,3.8,11.2,7.9,0,1.9-1,3-3.1,3.3-4.5-.4-7.7-.6-9.5-.6-12.4.1-20.9.4-25.7,1-6.8.8-12.8,1.9-17.8,3.2-1.5,0-3-.8-4.4-2.4-2.4-3-3.9-5-4.4-6.1,0-.4.2-.8.6-1.1,1.2.2,2.3.2,3.3.2,16.6-1.7,33.2-3.5,49.9-5.4Z"/>
              <path class="cls-36" d="M882.7,216.7c.8,0,1.6,0,2.4.2.9.3,1.8.6,2.6,1,4.2-.5,8.5-1.1,12.6-1.9,4.9-.9,8.1-1.4,9.6-1.5,1.6,0,4,.7,7,2.1,3,1.8,4.5,3.4,4.5,4.8s-.1,1-.4,1.8c-.4.8-.6,1.6-.6,2.3,0,7.4,0,14.9.2,22.4-1.2,5.9-3.3,8.9-6.4,9-1.1,0-2.4-1-4-3-1.1.2-2.3.2-3.4.2-1.5.2-2.8.3-4.1.5,1.4.2,3.2.6,5.4,1.5,2.6.9,3.9,1.9,3.9,3.1s-.4,2.6-1.1,3.8c-.2.9-.3,1.9-.4,3.2-.1,1.4-.2,2.7-.2,3.9.9,2.5,3.5,3.7,7.8,3.8,4.4,0,7.8-.5,10-1.5,1.8-.8,3.1-4,3.8-9.5.4,0,.7.4.9,1.1.5,1.4,1,2.8,1.4,4.2.6,2,1.4,3.7,2.3,5,.9.9,1.4,2.3,1.4,4.2,0,3.7-6.5,5.7-19.6,6-12,0-18-2.9-18-8.8v-7.5c.1-2.5.2-4.8.3-7,0-.8-.3-1.6-.8-2.2-.7-.3-1-.7-1-1.2s.3-.8,1-1.1c.4-.2.7-.4,1-.5h-.2c-3,.4-5.3.7-6.9,1.1,3,1.9,4.4,3.8,4.4,5.7s-.4,1.4-1.2,2.4c-7.7,11.2-16.4,17.2-26.1,17.9-.8,0-1.2-.4-1.2-1.2,3-1.9,6.2-4.9,9.8-8.8,2.6-2.8,4.6-5.8,6.1-9,1.4-3,2.1-4.7,2.1-5.2-.3.2-.6.4-1,.5-3.5,0-5.6-2.8-6.4-8.4,1.1-6.1,1.6-13.4,1.6-21.9-.2-2.5-.5-4.4-1.1-5.8-.3-.5-.7-.9-1.2-1.3-.6-.2-1-.4-1.1-.6,0-.7.6-1.5,1.7-2.4,1.1-.7,2-1,2.8-1ZM890.9,249.2c1.9-.2,4-.4,6.2-.6,5.6-.7,9.2-1.3,10.9-1.6.4,0,.8,0,1.1,0,0-1.5,0-2.9,0-4.2-2.4.5-4.7.8-6.8,1.1-1.7.2-3.3.4-4.8.5-2.2.4-3.6.5-4.1.5s-1.3-.2-2.1-.5c0,1.5-.1,3.1-.2,4.6ZM891.2,238.5c5.6-.6,11.5-1.3,17.7-2.3,0-1.4,0-2.8,0-4.1-2.4.5-4.7.8-6.9,1.1-1.7.3-3.3.5-4.8.7-2.2.4-3.6.5-4.1.5s-1.1-.1-1.7-.3c0,1.4,0,2.8,0,4.4ZM891.5,227.8c5.5-.6,11.3-1.4,17.3-2.5,0-2.1-.5-3.2-1.6-3.2-3.9.3-9.1,1-15.6,2.2,0,1-.1,2.2-.2,3.5Z"/>
              <path class="cls-36" d="M916.5,305.5c1.5,0,3.6,1,6.1,3,2.5,1.9,3.8,3.4,3.9,4.3,0,2.1-1.2,3.1-3.6,3.1-6.7.4-13,.9-18.9,1.7,1.5,1.4,3.1,3.3,4.9,5.6,3.2,5,8.1,10,14.7,15.2,3.1,2.4,6,4.3,8.7,5.7,4.5,2.5,6.8,3.9,6.8,4.4-.1.8-1.1,1.3-3.1,1.5-4,.9-9.8,1.4-17.3,1.4s-5.1-2.7-7.9-8.1c-2.6-5.4-5.6-11.2-8.9-17.4-.9,3.1-1.9,5.7-3,7.9-5.7,9.3-14.9,15.1-27.5,17.2-.8,0-1.1-.4-1.1-1.1,11-5.4,18.2-15.6,21.6-30.6-2.8.5-5.5,1-8,1.7-2.2,0-5.6-2.5-10.2-7.4,0-.7.5-1.1,1.5-1.1,4-.3,10.1-1.3,18.3-2.8.5-4.3.7-8.8.7-13.6-.4-3.2-1.8-5-4.3-5.5,0-1.2,1.6-2.4,4.9-3.7,7.6,1.2,11.3,3.1,11.3,5.8s-.2,2.5-.5,3.6c-.1,3.9-.3,7.6-.6,11,6.7-1.3,10.5-1.9,11.5-1.9Z"/>
              <path class="cls-36" d="M896.9,351.5c1.9,0,4.5.6,7.9,1.9,2.6,1.2,3.8,2.3,3.8,3.4-.2,1.1-.4,3.8-.6,8.3,5.1-.6,10.1-1.1,15-1.8,6.9,1.2,10.7,3.8,11.2,7.9,0,1.9-1,3-3.1,3.3-4.5-.4-7.7-.6-9.5-.6-5.6,0-10.3.2-14.3.3-.1,2.4-.2,5-.4,7.8,4.1-.6,6.7-.8,7.7-.8,4.8.2,7.1,2.4,7.1,6.7s-1,2.4-2.9,2.4c-3.6.2-8.4.4-14.5.7-5.3.5-9.9,1.1-14,2.1-3.7,0-6.6-2.5-8.8-7.4,0-.6.3-.8.8-.8,1.6,0,4.9-.3,9.9-.9,1.5-.2,3-.4,4.4-.5,0-3,0-5.8,0-8.4-.2,0-.3,0-.3,0-6.7.8-12.5,2-17.4,3.4-1.5,0-3-.8-4.4-2.3-2.3-3-3.7-5.1-4.3-6.1,0-.4.2-.7.6-1,1.2.2,2.3.2,3.2.2,7.6-.9,15.1-1.8,22.5-2.7v-8c-.3-2.4-1.4-3.8-3.3-4.1,0-.8,1.2-1.8,3.6-2.8ZM884.2,397.6c2.1,0,4.1.3,5.9.8.8.2,1.5.4,2.1.6,7.2-1.2,14.6-2.5,22.4-3.9,2.5,0,5.3,1,8.4,3.1,2.3,1.7,3.5,3.2,3.5,4.4s-.9,2.6-2.7,4.5c-1.3,2.3-2.2,4.2-2.7,5.8.7,1,1,2.2,1,3.7s-.9,2.2-2.7,2.2c-2.8,0-6.6.2-11.4.3-4.1.2-7.7.5-11,.9-.9,0-1.7-.2-2.4-.5-.5,2-1.8,3-3.8,3s-3.8-1.7-4.6-5c-1-4.5-1.9-8.4-2.7-11.7-.7-2.4-1.1-3.8-1.5-4.3s-.7-.5-1.5-.7c-.7,0-1-.1-1-.3.5-1.1,2-2.1,4.4-3.1ZM894.7,413c1-.1,2.2-.2,3.4-.4,5.6-.7,9.9-1.3,12.8-1.7.4-1.4.8-3.1,1.2-5,0-1.7-1-2.6-3-2.6-3.2.3-6.3.7-9.3,1.1-1.4.3-3,.6-4.8,1-.4.1-.6.2-.8.2.2,1.9.3,4.2.5,6.9v.5Z"/>
            </g>
            <path class="cls-9" d="M984,507c-4.7-9.2-5.3-25.3-7.7-35.5-8-4.5-22-25.8-22-25.8,0,0-16.3,5.7-25.7-1.2-9.3-6.8-26.5-11.5-26.5-11.5,0,0-17.2,4.7-26.5,11.5-9.3,6.8-25.7,1.2-25.7,1.2,0,0-14,21.3-22,25.8-2.3,10.2-3,26.2-7.7,35.5,6.7,13.7,17.7-.3,26.3,36.9,0,0-12.1-54.3.7-68.3,12.8-14,54.9-16,54.9-16,0,0,42,2,54.9,16,12.8,14,.7,68.3.7,68.3,8.5-37.1,19.6-23.2,26.3-36.9Z"/>
            <path class="cls-16" d="M955.7,479.3c3.1,4.3,5.7,36.8,5.7,36.8,0,0,1.6-11.4,5-17.8-1.7-10-4.6-23.7-6.8-26.6-3.4-4.3-30.7-17.3-57.4-17.3s-54,13.1-57.4,17.3c-2.3,2.9-5.2,16.6-6.8,26.6,3.3,6.4,5,17.8,5,17.8,0,0,2.6-32.6,5.7-36.8,3.1-4.3,19.9-14.4,53.5-14.4s50.4,10.1,53.5,14.4Z"/>
          </g>
          <path class="cls-7" d="M915.4,494.8c1.9,8.6,11.1,12.9,18.6,14.5,7.6,1.5,25.8,18.5,30,41.8,0,0,.9-17.6-.5-26.3s-8-19.9-13.4-22.9c-5.4-3-17.2-.5-22.5-1.1-5.3-.6-12.1-5.8-12.1-5.8Z"/>
          <path class="cls-7" d="M891.7,494.8c-1.9,8.6-11.1,12.9-18.6,14.5-7.6,1.5-25.8,18.5-30,41.8,0,0-.9-17.6.5-26.3,1.4-8.8,8-19.9,13.4-22.9,5.4-3,17.2-.5,22.5-1.1,5.3-.6,12.1-5.8,12.1-5.8Z"/>
        </g>
      </g>
      <g>
        <g>
          <path class="cls-18" d="M1174.2,1866.5c5.3,9.2,9.6,11.9,15.4,21.9,5.8,10.1-1.5,20.4,2.2,43.4,2.9,18.1-4.9,48.2,0,53.9,4.9,5.6,11.8-1.2,13.4-6.4,2.6-8.6-.8-25.3,4.6-28.5,5.4-3.1,9.9,3.5,12.9,11.8,3,8.2,19.4,30.3,22,34.5,2.6,4.2,15.3,16,18.1,14.3,2.9-1.7,3-5.1,3-5.1,0,0,5.1,7.4,10.4,4.4,5.3-3.1.3-11,.3-11,0,0,2.1,1.7,5.3-.1,3.2-1.8,1-9.4-2.1-14.7,0,0,2.7,2.7,5,1.3,2.3-1.3,3.4-5.9.2-11.6-3.3-5.7-5-15.8-8.6-22.1-3.6-6.3-10.7-17.4-12.6-23.9-2-6.5-1.8-10.5-5.5-14.6-3.7-4.1-17.1-26-25.5-35.8-8.4-9.8-16.8-26-21-33.3,0,0-8.7.2-22,7.8-13.3,7.7-15.4,13.8-15.4,13.8Z"/>
          <path class="cls-12" d="M1265.9,2006.3s-6.3-15.6-12.5-22.6c-6.2-7-14.1-22.7-15.3-29.2"/>
          <path class="cls-12" d="M1276.6,1999.7s-4.6-12.5-7.3-15.4c-2.7-2.9-7.6-18.1-12.2-23.8-4.6-5.7-7.2-15-7.2-15"/>
          <path class="cls-12" d="M1279.8,1984.8c-2.5-5.2-4.7-16.9-9.9-24.5-5.1-7.6-7.3-17.9-10.9-24.2"/>
        </g>
        <g>
          <path class="cls-18" d="M1404.7,1897c-7.2-11.3-17.6-26.7-37.8-47.3-6.3-6.4-12.7-13.5-12.7-13.5,0,0-6.7-1.7-18.4,5.6-11.7,7.3-14.4,18.3-14.4,18.3,0,0,7.2,10.6,5.9,15.9-2,7.9-7.4,25.7.8,38.9,8.2,13.2,11.4,23.4,15.7,27.3,6.4,5.8,10.6,13.5,16.4,9.9,2.4-1.5,3.3-4.1,3.3-4.1,0,0,4.6,4.7,9.5,1.6,4.9-3.1,6.8-7.1,6.8-7.1,0,0,3.5,1.1,9.1-2.4,5.5-3.5,5.7-11,5.7-11,0,0,3.1-1,6.6-3.2,3.5-2.2,2.6-8.5,2.6-8.5,0,0,11.3-6.5,1.1-20.6Z"/>
          <path class="cls-11" d="M1363.4,1948.1c-7.1-6.2-6.9-17-20.6-32.8"/>
          <path class="cls-11" d="M1379.7,1942.7c-.7-9.2-5.2-13.9-5.9-20.3"/>
          <path class="cls-11" d="M1394.4,1929.3c0-3.9-4.4-6.4-5.7-16.8"/>
          <path class="cls-11" d="M1403.6,1917.6c-2.7-4.3-1.9-9.2-5-14.3"/>
        </g>
        <g>
          <path class="cls-18" d="M625.8,1866.5c-5.3,9.2-9.6,11.9-15.4,21.9-5.8,10.1,1.5,20.4-2.2,43.4-2.9,18.1,4.9,48.2,0,53.9-4.9,5.6-11.8-1.2-13.4-6.4-2.6-8.6.8-25.3-4.6-28.5-5.4-3.1-9.9,3.5-12.9,11.8-3,8.2-19.4,30.3-22,34.5-2.6,4.2-15.3,16-18.1,14.3-2.9-1.7-3-5.1-3-5.1,0,0-5.1,7.4-10.4,4.4-5.3-3.1-.3-11-.3-11,0,0-2.1,1.7-5.3-.1-3.2-1.8-1-9.4,2.1-14.7,0,0-2.7,2.7-5,1.3-2.3-1.3-3.4-5.9-.2-11.6,3.3-5.7,5-15.8,8.6-22.1,3.6-6.3,10.7-17.4,12.6-23.9,2-6.5,1.8-10.5,5.5-14.6,3.7-4.1,17.1-26,25.5-35.8,8.4-9.8,16.8-26,21-33.3,0,0,8.7.2,22,7.8,13.3,7.7,15.4,13.8,15.4,13.8Z"/>
          <path class="cls-12" d="M534.1,2006.3s6.3-15.6,12.5-22.6c6.2-7,14.1-22.7,15.3-29.2"/>
          <path class="cls-12" d="M523.4,1999.7s4.6-12.5,7.3-15.4c2.7-2.9,7.6-18.1,12.2-23.8,4.6-5.7,7.2-15,7.2-15"/>
          <path class="cls-12" d="M520.2,1984.8c2.5-5.2,4.7-16.9,9.9-24.5,5.1-7.6,7.3-17.9,10.9-24.2"/>
        </g>
        <g>
          <path class="cls-18" d="M395.3,1897c7.2-11.3,17.6-26.7,37.8-47.3,6.3-6.4,12.7-13.5,12.7-13.5,0,0,6.7-1.7,18.4,5.6,11.7,7.3,14.4,18.3,14.4,18.3,0,0-7.2,10.6-5.9,15.9,2,7.9,7.4,25.7-.8,38.9-8.2,13.2-11.4,23.4-15.7,27.3-6.4,5.8-10.6,13.5-16.4,9.9s-3.3-4.1-3.3-4.1c0,0-4.6,4.7-9.5,1.6-4.9-3.1-6.8-7.1-6.8-7.1,0,0-3.5,1.1-9.1-2.4-5.5-3.5-5.7-11-5.7-11,0,0-3.1-1-6.6-3.2-3.5-2.2-2.6-8.5-2.6-8.5,0,0-11.3-6.5-1.1-20.6Z"/>
          <path class="cls-11" d="M436.6,1948.1c7.1-6.2,6.9-17,20.6-32.8"/>
          <path class="cls-11" d="M420.3,1942.7c.7-9.2,5.2-13.9,5.9-20.3"/>
          <path class="cls-11" d="M405.6,1929.3c0-3.9,4.4-6.4,5.7-16.8"/>
          <path class="cls-11" d="M396.4,1917.6c2.7-4.3,1.9-9.2,5-14.3"/>
        </g>
      </g>
      <image width="600" height="600" transform="translate(1800 692.2) scale(2)" xlink:href="1297910871370.jpg"/>
    </g>
  </g>
</svg>