<?xml version="1.0" encoding="UTF-8"?>
<svg xmlns="http://www.w3.org/2000/svg" version="1.1" xmlns:xlink="http://www.w3.org/1999/xlink" viewBox="0 0 800 600">
  <defs>
    <style>
      .cls-1 {
        fill: #ffe58c;
      }

      .cls-2, .cls-3, .cls-4, .cls-5, .cls-6, .cls-7, .cls-8, .cls-9, .cls-10, .cls-11, .cls-12, .cls-13, .cls-14, .cls-15, .cls-16, .cls-17, .cls-18, .cls-19, .cls-20, .cls-21, .cls-22, .cls-23, .cls-24, .cls-25, .cls-26, .cls-27, .cls-28, .cls-29 {
        stroke: #1d1d1b;
      }

      .cls-2, .cls-4, .cls-6, .cls-8, .cls-11, .cls-13, .cls-14, .cls-17, .cls-18, .cls-20, .cls-22, .cls-24, .cls-26, .cls-28 {
        stroke-miterlimit: 10;
      }

      .cls-2, .cls-30 {
        fill: #c6c6c5;
      }

      .cls-3 {
        stroke-width: 2px;
      }

      .cls-3, .cls-12, .cls-18 {
        fill: #3c3c3b;
      }

      .cls-3, .cls-15, .cls-21, .cls-23 {
        stroke-miterlimit: 10;
      }

      .cls-4, .cls-31 {
        fill: #1d1d1b;
      }

      .cls-32 {
        fill: #29abe2;
      }

      .cls-5, .cls-33, .cls-11, .cls-13, .cls-14 {
        fill: none;
      }

      .cls-5, .cls-27 {
        stroke-miterlimit: 10;
        stroke-width: 1px;
      }

      .cls-6 {
        fill: #f5f5f5;
      }

      .cls-7, .cls-8, .cls-23 {
        fill: #d9d9d9;
      }

      .cls-7, .cls-9, .cls-12, .cls-16, .cls-25 {
        stroke-miterlimit: 10;
      }

      .cls-7, .cls-9, .cls-16, .cls-25 {
        stroke-width: 1px;
      }

      .cls-34, .cls-9, .cls-10, .cls-22, .cls-27, .cls-29 {
        fill: #fff;
      }

      .cls-10 {
        stroke-miterlimit: 10;
        stroke-width: 1px;
      }

      .cls-12 {
        stroke-width: 2px;
      }

      .cls-35 {
        clip-path: url(#clippath-1);
      }

      .cls-36 {
        isolation: isolate;
      }

      .cls-13 {
        stroke-linecap: round;
      }

      .cls-14, .cls-17, .cls-24 {
        stroke-width: 2px;
      }

      .cls-15, .cls-16, .cls-37 {
        fill: #9c9b9b;
      }

      .cls-15, .cls-21, .cls-23 {
        stroke-width: 1px;
      }

      .cls-17, .cls-19, .cls-28 {
        fill: #ececec;
      }

      .cls-19, .cls-29 {
        stroke-miterlimit: 10;
        stroke-width: 1px;
      }

      .cls-20 {
        fill: #6f6f6e;
      }

      .cls-21 {
        fill: #575756;
      }

      .cls-38 {
        fill: #1d70b7;
      }

      .cls-39 {
        fill: #fff4c3;
      }

      .cls-24, .cls-40 {
        fill: #252626;
      }

      .cls-25 {
        fill: #b1b1b1;
      }

      .cls-26 {
        fill: #868686;
      }

      .cls-41 {
        clip-path: url(#clippath);
      }
    </style>
    <clipPath id="clippath">
      <path class="cls-33" d="M247.1,346.3c2,1.8,3.6,2.6,4.5,4.4s2.3,6.6,2,7.9-1.5,2.3-3,2.3-5-4.7-5.9-7.6-1.7-9.5-.9-9.8,1.3,1.1,3.3,2.9h0Z"/>
    </clipPath>
    <clipPath id="clippath-1">
      <path class="cls-33" d="M483.2,248.1c7.4-1.1,19.5,3.9,20.3,6.5s.6,5.6-2.4,7.3-10.1,3.5-13.1,3.2-4,.5-5,1.3-4.1,6.5-6.3,6.5-4.9-2.7-5.4-3.7.3-1.9.9-2.3,5-3.5,5-4.5-1.6-2.1-1.6-5.2,3.9-8.7,7.5-9.2h.1Z"/>
    </clipPath>
  </defs>
  <!-- Generator: Adobe Illustrator 28.7.4, SVG Export Plug-In . SVG Version: 1.2.0 Build 166)  -->
  <g>
    <g id="Layer_1">
      <g id="Layer_1-2" data-name="Layer_1">
        <rect class="cls-32" x="-145" y="-37.5" width="978" height="698"/>
        <g class="cls-36">
          <g class="cls-36">
            <path d="M148.5,30.1c0,1.9,0,3.8,0,5.5,2.1-1.7,4-3.5,5.9-5.5l6.8,7.3c-2,1.3-4,2.9-6,4.3,2.2.9,4.6,1.9,6.4,2.7l-2.7,6.3c2.5,2.1,4.9,3.4,7.3,4.2-2.7,8.3-4.3,10-9.7,9.6l3.5,3.7c-1.4,1.1-2.7,2.1-4.2,3,2.1.7,4,1.5,5.9,2.4l-3.2,6.6c2.5,1.7,5.4,3.2,8,4.2-2.3,7.1-4.9,11-9.4,11s-8.1,0-13.8-10.2c-2.7-5-3.5-9-4.5-18.7h-3.5v27.8h-10.4v-27.8h-6.4c-.8,11.7-3.9,20-13.5,28.4-2.2-3.2-4.8-6-7.8-7.8,6.2-5.9,9.6-10.4,11-20.6h-9v-9.6h9.3v-5c-2.2.6-4.7,1.1-7.3,1.5-1-3.2-2.4-5.9-4.6-8.7,9.1-1.2,13.5-2.4,21.8-5.2h-17.6v-9.6h47.5ZM124.9,47.2c-2.2.9-4.2,1.4-6.3,2.2v7.6h6.3v-9.8ZM120.9,39.6l4,6.4v-5.8h10.4v16.7h9.9c-4.1-6.3-5-10-6.3-17.4h-18.1ZM151.4,62.5c-1.1-.6-2.2-1.2-3.3-2.3,0,1.7,0,3.6.4,5,1.2-.7,2.2-1.7,3-2.7ZM155.3,84.2c.6,0,1.2-1.9,1.6-2.9-1.4-.8-3.7-1.9-5.6-2.7,1.9,5.2,3.9,5.6,4,5.6ZM156.2,53.5c.6,0,.9-.7,1.1-1.8-1.4-.8-3.4-1.7-5.3-2.6,1.9,3.7,4,4.4,4.2,4.4Z"/>
            <path d="M117.9,108.8c-2.9,10.8-4.7,21.5-4.7,32.5s1.3,16.6,2.5,22l-11.8,1.9c-1.4-7.9-2.2-13.7-2.2-21.7s.5-14.3.6-15.2c.2-2.1.6-4.2.9-7.1.4-3.4.9-7.9,2.8-16.5l11.8,4ZM154.9,113.3c-1.1-2.1-2.3-4.3-3.5-6.5-.1,3.7-.1,6-.1,8.4,3-.4,6.5-1.2,9-1.7l.4,11.1c-2.7.4-5.8.9-9.3,1.4,0,3,.8,15.7.9,18.2,5.1,2.7,9.1,5.1,13.4,8.3l-7.9,9.6c-2.1-2.3-2.9-3.1-5.8-5.7-1.2,8.2-11.2,8.5-13.8,8.5-9.9,0-18.4-4-18.4-12.2s1.4-6.4,4.2-8.6c3.5-2.9,8.1-3.5,12.7-3.5s2.4,0,4.2.1c-.6-6.8-.6-7.6-.8-13.5-3.6.2-5.9.4-7.8.4-3,0-5.9-.2-11.2-.6l.2-10.8c3.6.6,6.6.8,11.4.8s3.9,0,7-.3c0-1.9,0-10.7,0-12.5h10.2c0,0-.8-1.2-.8-1.2l5.1-2.8c2.4,3.2,4.4,6.5,6.1,10l-5.3,3ZM132.3,155c1.3.4,2.2.6,3.5.6,4.2,0,4.6-2.2,5-4.5-1.6-.4-3.2-.8-5-.8s-6,.4-6,2.6c0,1.2.5,1.7,2.5,2.2ZM160.8,96.7c2.4,3,4.3,6.4,6,9.9l-5.4,3c-1.7-3.2-3.5-6.7-6-10l5.3-2.9Z"/>
            <path d="M141.3,170.4c-.1,2.2-.1,2.9-.1,8.4,6.8-.2,14-.4,20.5-.6v11.3c-3.2,0-20.5.2-20.5.2-.1,4.8-.2,12.7-.2,16.2.6,2.3.7,3.9.8,5.2,0,.6,0,1.2,0,1.7,0,7.3-3.1,11.3-5,13.4-6.2,7.2-15.3,9-22.8,10-.8-4-2.4-8.2-5.3-11.2,11.2,0,16-1.6,22-6.2-1.9.7-4,1.4-7.1,1.4-6.8,0-12-6.3-12-14.4s4.2-14,13.6-14,2.4,0,4.8.9v-2.6c-4.6.1-24.7.9-28.7,1v-11c15.9-.3,19.9-.4,28.6-.9,0-3.9,0-4.5-.3-8.9h11.7ZM125.7,211.9c1.7,0,4.2-.9,4.2-6.5s-3.3-5.4-4.3-5.4c-2.2,0-4,2.1-4,5.7s0,6.2,4,6.2Z"/>
            <path d="M152.7,237.6c4.7,4.1,8.4,8.4,11.8,12.7l-8.9,7.3c-3.1-4-7.4-8.9-10.9-12.8l8-7.2Z"/>
          </g>
          <g class="cls-36">
            <path d="M73.1,32.9l7.7,8.3c-1,1.4-1.5,2.5-2,3.5-4.6,9-7.2,12.8-9.3,15.8,12,9.7,17.3,17.6,20.8,22.7l-10.1,7.8c-3.3-5-5.7-8.1-8.5-11.6-1.9-2.6-3.8-4.9-9.4-10-11.6,11.9-19.9,16.3-29.2,20.2-1.1-3.1-2.7-6.9-7.2-10.5,21.6-8.3,31.5-21.1,38.3-33.7h-29v-11.8h36.6l1.3-.6Z"/>
            <path d="M47.7,98.5v18.4c6.6-1.2,14.4-2.7,28.2-8.3l7.5,10.9c-17.4,6-24.8,7.3-35.6,8.8v11.7c0,4,2.7,4.5,4.5,4.7,3,.4,9.2.6,12.3.6,6.7,0,10.3-.3,20.1-1.1v12.6c-7.8.6-15,.6-18.8.6-11.4,0-19.9-1.6-23.4-2.7-6.3-2.3-6.7-5.3-6.7-13.7v-42.5h12ZM93.1,101.1c0,5-4.1,9-9,9s-9-4.9-9-9,4.6-9,9-9,9,5.2,9,9ZM80.4,101.1c0,2.4,2,3.6,3.7,3.6s3.6-1.9,3.6-3.6-2.2-3.6-3.6-3.6-3.7,1.7-3.7,3.6Z"/>
            <path d="M86.3,194.5v8h-53.9v-8h53.9Z"/>
            <path d="M56.9,239.5v18.4c14.3,5.1,21,8.4,30.2,13.7l-6.3,10.9c-8.6-5.9-21.5-11.3-23.9-12.3v32.1h-12.6v-62.8h12.6ZM71.7,245c3.2,2.4,6.3,4.9,9.2,8.1l-4.7,4.9c-2.7-2.9-6.1-6-9.1-8.3l4.5-4.7ZM77.5,238.9c3.4,2.2,6.3,4.8,9.3,7.8l-4.8,5.1c-3-3.2-5.7-5.8-9.1-8.1l4.5-4.8Z"/>
          </g>
        </g>
        <g>
          <path class="cls-31" d="M250.1,369.1s-9.6,16.5,5,20.5,19.2,0,46.7,4.8,29.1,10.7,58,13.1c28.9,2.3,59.3,3.2,95.9-8.9,36.2-11.9,30.4-34.7,68.1-61.9,37.7-27.2,40.1-34.6,26.2-38.1-13.9-3.6-113.2-39.8-187.3-19.9-74.1,19.9-106.6,77.7-112.6,90.4Z"/>
          <g>
            <path class="cls-40" d="M548.3,271.9l-19.5,35.6-6.7-18.4,7.5-30,14.9-11.1s5.7,4.2,3.6,23.9h.2Z"/>
            <polygon class="cls-40" points="470.4 354.5 429.8 381.3 433 316.6 465.2 303.5 474.8 328.7 470.4 354.5"/>
            <g>
              <path class="cls-24" d="M536,316.6c-8.8,2.8-20.3.9-23.4-19.5s8.1-42.3,25.2-39.5c17.2,2.8-1.9,59-1.9,59h.1Z"/>
              <ellipse class="cls-12" cx="539.5" cy="288" rx="28.9" ry="7.4" transform="translate(193.1 792.1) rotate(-83.6)"/>
              <ellipse class="cls-9" cx="540" cy="289.3" rx="19.7" ry="5" transform="translate(192.3 793.6) rotate(-83.6)"/>
              <ellipse class="cls-25" cx="540" cy="289.8" rx="18.3" ry="4.2" transform="translate(191.7 794.1) rotate(-83.6)"/>
              <path class="cls-8" d="M541.8,271.4c-.5,0-1.1.3-1.6,1h.4c2.2.2,3.1,8.2,2.1,17.7-1.1,9.6-3.7,17.1-5.9,16.9h-.2c.3.6.7.9,1.1.9,2.3.3,5.1-7.7,6.2-17.8,1.1-10.1.2-18.4-2.2-18.7h.1Z"/>
              <ellipse class="cls-7" cx="540" cy="289.8" rx="13.6" ry="3.1" transform="translate(191.7 794.1) rotate(-83.6)"/>
              <ellipse class="cls-16" cx="540" cy="289.3" rx="4.6" ry="1.2" transform="translate(192.3 793.6) rotate(-83.6)"/>
              <ellipse class="cls-9" cx="539.6" cy="289.3" rx="3" ry=".8" transform="translate(192 793.3) rotate(-83.6)"/>
            </g>
            <g>
              <path class="cls-17" d="M314.9,239.6c0-3.2-.9-4.2-2.1-4.7s-8.2.1-10.1,1.4-2.4,6-1.3,9,3.2,4.7,4.9,4.7,8.6-8,8.6-10.3h0Z"/>
              <path class="cls-22" d="M300.8,240.5c0,1.7,5,3.7,5.4,5.2s-.2,2-1.2,1.8-5.3-3.5-4.2-6.9h0Z"/>
              <path class="cls-30" d="M314.9,239.6c0-.8,0-1.5-.2-2,0,0-1.8-.5-2.8,0-2,.8-5.2,5.9-4.3,11.8,2.6-1.9,7.3-7.7,7.3-9.7h0Z"/>
              <path class="cls-14" d="M314.9,239.6c0-3.2-.9-4.2-2.1-4.7s-8.2.1-10.1,1.4-2.4,6-1.3,9,3.2,4.7,4.9,4.7,8.6-8,8.6-10.3h0Z"/>
            </g>
            <g>
              <path class="cls-24" d="M467.6,363.6c-5.9,18.9-18.8,27.5-28.9,28.1-22.7,1.2-36.4-11.5-32.2-30.8,6.9-31.8,37.2-42.1,49.5-38.3,12.3,3.8,17.5,22.2,11.6,41.1h0Z"/>
              <ellipse class="cls-3" cx="445.5" cy="356.8" rx="35.8" ry="23.2" transform="translate(-27.1 676.8) rotate(-72.8)"/>
              <ellipse class="cls-23" cx="445.5" cy="357" rx="22.6" ry="14.6" transform="translate(-27.3 677) rotate(-72.8)"/>
              <ellipse class="cls-21" cx="445" cy="356.8" rx="20.9" ry="13.6" transform="translate(-27.4 676.4) rotate(-72.8)"/>
              <path class="cls-2" d="M451.1,334.4s-1,7.5-5.9,10.7c0,0-.4-6.5-2.2-8.3-1.8-1.8-2.7-1.2-1.5.9s1.3,9.1.9,10.1-1,2.3-2,2.3-4.3-1.7-4.3-1.7c0,0-1.7.4-.5,1.6s3.5,2.5,3.3,4.4-1.5,4.9-5.1,4.7c-3.5-.2,2.7,1,3.2,1.6s.8,2.6.6,3.2-4.5,8-5.9,7.7,1.7,2.9,1.7,2.9c0,0,6.6-8,7.4-8.4s1.8,3.1,1.7,4.7-2.3,7.6-2.9,7.8,1.6.9,1.6.9l2.8-7s0-4.7,1.2-5,3.8,6.1,3.3,9.3c-.5,3.2,1.5-2.4,1.5-2.4l-.6-5.8-1.6-4.3s-.5-.8,1-.9,7.4,3.3,7.2,5.5c-.3,2.3,1.8-2.7,1.8-2.7l-8.5-9.3,12.7-4.3s-.5-5.6-1.1-3.8-5,4.8-9,4.4,1.5-4.2,1.5-4.2l5.2-7.1s.5-1-.5-1.9c0,0-5,7-7.4,6.2l1.7-11.7-1.2-.2h-.1Z"/>
              <path class="cls-22" d="M453.3,331.8c-9-2.8-19.8,6.2-24,20.1-4.3,13.9-.5,27.4,8.5,30.1,9,2.8,19.8-6.2,24-20.1,4.3-13.9.5-27.4-8.5-30.1ZM459.5,361.3c-3.7,11.9-12.9,19.6-20.7,17.2-7.7-2.4-11-14-7.3-25.9s12.9-19.6,20.7-17.2c7.7,2.4,11,14,7.3,25.9Z"/>
              <path class="cls-22" d="M443.4,336.5c2.1,2.5,2.3,9,2.3,10.3s1.1,1.6,2.4.5,3-5.6,3.4-12.1c0,0,.5-.7,1,.3s-1,9.5-2.4,11.6.9,2,2.1,1.4,5.8-5.6,6.3-7.5c0,0,.6.3.5,1s-3.4,6.3-6,8.5c-2.6,2.3-1.2,3.4.4,3.5s5.3-.2,7.5-1.8c0,0,.7,1.1,0,1.5-6.5,3.3-9,2.5-9.5,4.2-.4,1.3,6.5,6.4,6.4,7.7s-.2,2.2-.6,1.2-6.6-4.9-8.5-3.3,3.1,4.3,1.6,12c0,0-1.7,2.6-1.5,1.1s.4-4.1-.3-6.9c-.7-2.8-1.3-4.2-2.6-4-1.3.2-1,3.8-1.1,4.9s-2.5,8.3-3.2,8.4-.9.4-1.1,0,2.4-4.7,2.7-7.6c.3-3,.5-4.8-.9-5.7-1.3-.9-1.6.7-2.1,1.9s-6.6,6.2-6.8,7.3-1.1-.5-.8-1.2,4.5-4.4,6.1-6.4,2.6-3.8,1.9-5.9-1.4-1.5-2.5-.9-3.8.7-4.8.4-.8-1.7.3-1.3c1.1.4,3,.4,4.8-1.5,1.9-1.9,2.8-4.1,2.3-5.1s-2.5-3.3-4.3-4.3-.9-1.5.3-1.1,4.5,2.9,5.2,3.6,2.6-.7,2.6-2.1.3-5.8-.4-8.5c-.8-2.8-1.1-3-1.7-3.6s.8-.5.8-.5h.2Z"/>
              <ellipse class="cls-15" cx="445.5" cy="357" rx="3.1" ry="2" transform="translate(-27.3 677) rotate(-72.8)"/>
              <path class="cls-22" d="M446.9,357c.3-1.1.2-2.2-.2-2.8,0,0-.2,0-.3-.1-1-.3-2.3.7-2.8,2.3-.3,1.1-.2,2.2.2,2.8,0,0,.2,0,.3.1,1,.3,2.3-.7,2.8-2.3Z"/>
            </g>
            <path class="cls-17" d="M387.3,193c-9.5,1.2-27.8,9.4-37.9,15.9s-39.1,35-43.5,40.4-14.1,10.2-17.6,14.1-26.9,11.4-39.4,28.4l-5,16.6s-1.7,2.4-1.7,6v19.8c0,3.4.9,5.8.9,7s0,12.4,1.7,19.6,10,14.7,15.2,14.8,7.1-.4,13.6,1.8c6.6,2.2,39.2,8.1,52.1,9.4s29.9,3.2,31.1,3.9c1.2.7,2.6,1.6,7.5,1.7s23.3-.7,38-3.9,19.2-2.9,20.4-2.9,2.7.2,4.2-1.3,2.8-1.7,3.5-5.1,5.6-32.3,14.6-52.3c9-20.1,21.2-21.1,23.2-2.1s.7,30.6,2.1,29.8,29.6-23.3,36.6-30.3c7-7,21-14.3,21.8-16.7s1.9-20.7,8.4-38.4c6.5-17.7,12.8-17.3,11.1,2.8,0,0,1.9-12.5.9-21.8-.9-9.3.2-22.5-4.6-30.6s-4.4-4.1-12.3-5.3c0,0-8.1-7.5-15.9-11.4-7.8-3.8-31.2-10-69.9-11.2-38.8-1.3-49.8.3-59.2,1.5v-.2Z"/>
            <path class="cls-30" d="M511.2,316.2c-4.9,4.6-36.9,36.7-39,31.6,0,0-.2,2.5-1.3,5.3,4.4-3.2,29.4-23.4,36-29.9,3.8-3.8,9.8-7.7,14.5-10.9-1.2-1.6,4-6.8,5.4-8.4,0,0-10.7,7.7-15.6,12.3h0Z"/>
            <path class="cls-30" d="M512.3,303.1c-7.3,7.8-1.5,8.9,5,5.7,0,0-26,20.9-44.7,37.3,0,0,8.8-7.4,3.4-11.2,0,0,17.4-14.9,22.1-19.2,4.7-4.2,14.1-12.6,14.1-12.6h.1Z"/>
            <path class="cls-34" d="M527.6,227.9s-1.8,2.1-4.9,5c-1.5,1.5-3.3,3.1-5.2,4.8-2,1.7-4.1,3.5-6.3,5.3-2.2,1.7-4.4,3.4-6.6,4.9-1.1.8-2.1,1.5-3.1,2.1-1,.7-2,1.2-2.9,1.8-.9.5-1.7,1-2.5,1.3-.8.4-1.4.7-2,.9-1.2.4-1.8.7-1.8.7,0,0,.6-.4,1.6-1s1.1-.8,1.8-1.2c.7-.5,1.5-1,2.3-1.7,1.7-1.2,3.6-2.7,5.6-4.3s2.1-1.7,3.1-2.5c1.1-.8,2.1-1.7,3.2-2.6,2.2-1.7,4.3-3.4,6.4-5,2-1.6,4-3.1,5.6-4.4,3.3-2.5,5.6-4.1,5.6-4.1h.1Z"/>
            <path class="cls-30" d="M526.2,286c-.7,3.3-10.1,11.9-16.8,17.6-6.8,5.7-27.1,22.9-27.1,22.9,0,0,19.1-18.7,27-25.3,7.9-6.7,16-16.6,16.9-15.2Z"/>
            <path class="cls-34" d="M480.4,327.7s2.6-3,6.6-7.2c1-1.1,2.1-2.2,3.3-3.4s2.4-2.5,3.7-3.7c2.6-2.6,5.4-5.3,8.3-7.9,1.4-1.3,2.9-2.6,4.3-3.9,1.5-1.3,2.9-2.5,4.3-3.6,2.8-2.3,5.4-4.5,7.7-6.4,4.5-3.8,7.6-6.2,7.6-6.2,0,0-2.6,2.9-6.8,7.1-2.1,2.1-4.6,4.4-7.3,6.9-1.4,1.2-2.8,2.5-4.2,3.7-1.4,1.3-2.9,2.6-4.3,3.9-2.9,2.6-5.7,5.3-8.4,7.7-1.4,1.2-2.7,2.4-3.9,3.5-1.3,1.1-2.4,2.2-3.5,3.2-4.4,3.9-7.4,6.4-7.4,6.4h0Z"/>
            <path class="cls-34" d="M444.8,324.3s.2-.6.6-1.7c.2-.5.5-1.2.8-1.9.3-.7.7-1.5,1.1-2.4s1-1.8,1.6-2.7c.6-.9,1.3-1.9,2.1-2.8,1.6-1.9,3.7-3.7,6.4-4.7,1.3-.5,2.8-.6,4.3-.4,1.4.3,2.7,1.1,3.7,2s1.6,2,2.1,3,.8,2.1,1.1,3c.1.5.2.9.3,1.4,0,.4.1.9.2,1.3.1.8.1,1.5.2,2v1.8s-.2-.6-.4-1.7c-.2-.5-.3-1.2-.6-1.9-.2-.7-.5-1.6-.9-2.4-.7-1.7-1.7-3.7-3.4-5.1-.8-.7-1.8-1.2-2.8-1.4-1-.2-2.2,0-3.2.3-1.1.4-2.1,1-3.1,1.7-.9.7-1.9,1.5-2.7,2.3-1.6,1.7-3,3.4-4,5-1.1,1.6-1.9,2.9-2.5,3.9s-.9,1.5-.9,1.5h0Z"/>
            <path class="cls-30" d="M368.5,309.2c-8.9,5.8-24,16.8-20.6,18.8s3.4.5,4.5-2.3c1.2-2.8,16.1-16.5,16.1-16.5Z"/>
            <path class="cls-30" d="M361.1,325.8s33.5-8.2,41.7-10.6c0,0-25.9,5.1-31.8,6.6s-9.9,4-9.9,4h0Z"/>
            <path class="cls-30" d="M257.7,323.6s1.8-2.3,7.7-3.5c5.9-1.3,66.4,5.8,81.1,9.6,0,0-11.4-3.8-47.5-8-16.2-1.9-33.9-3.7-34.2-5.6,0,0-1.7,2.9-3,3.8s-4.2,3.8-4.2,3.8h.1Z"/>
            <path class="cls-34" d="M440.3,281.9s-.9.4-2.5,1.1-3.9,1.7-6.7,2.9c-1.4.6-2.9,1.3-4.4,2-1.6.7-3.2,1.5-4.9,2.3-1.7.8-3.4,1.6-5.2,2.5-1.8.9-3.6,1.7-5.4,2.6s-3.6,1.8-5.3,2.7c-.9.5-1.7.9-2.6,1.4-.8.5-1.7.9-2.5,1.4-1.6.9-3.2,1.8-4.7,2.6-1.5.9-2.9,1.6-4.2,2.4-1.3.8-2.5,1.5-3.5,2.1-1,.7-1.9,1.2-2.7,1.7-1.5.9-2.4,1.5-2.4,1.5,0,0,.8-.6,2.1-1.8.7-.6,1.5-1.2,2.5-2,1-.7,2.1-1.5,3.3-2.4,1.2-.9,2.6-1.8,4-2.7.7-.5,1.5-1,2.2-1.5.8-.5,1.6-.9,2.4-1.4,1.6-1,3.3-2,5.1-2.9,1.7-1,3.5-1.9,5.3-2.8s3.6-1.7,5.4-2.6c1.8-.8,3.6-1.6,5.3-2.3,3.5-1.4,6.8-2.7,9.6-3.7,5.7-2,9.6-2.9,9.6-2.9l.2-.2Z"/>
            <path class="cls-30" d="M435.6,303.5s13.6-4.9,19.2-8,6.9.2,4.9,3.5c-2,3.4-2,5.7-.8,6s4.8-1.5,6-6.4,5.1-8.4,8.7-9.8,30.7-20.6,36.7-25.5,22.9-16.8,25.2-14c2.4,2.9.4,9.5,2.3,9.2s6.1-8.5,8.8-6c0,0-1.7-5.6-1.1-10.1s1.9-6.9,1.7-10.5-1.2-9-3.2-9-3.9,4.9-6.6,7c-2.7,2.1-3.5,7.1-5.2,7.6l12.4-7.4s-14.3,12.4-35.9,27.5-73.2,45.9-73.2,45.9h0Z"/>
            <path class="cls-30" d="M510,302.9s0-.2-.1-.5c0-.4-.1-.9-.2-1.6-.1-1.3-.3-3.3-.4-5.6v-12.2c0-1.5.1-3,.2-4.5,0-1.5.2-3,.2-4.5s.2-3,.3-4.4c0-1.4.2-2.8.2-4.1v-2.2h0c0-.1,0-.2,0-.1h0c0,.1.1.2.2.3,0,0-.3-.2-.1-.1h0c0-.1,0-.2-.2-.3-.2-.2-.3-.5-.3-.7-.4-1.3-.4-2.3-.5-3.3,0-.9,0-1.7-.1-2.4,0-.7-.1-1.2-.2-1.5,0-.3-.2-.5-.2-.5,0,0,.2,0,.4.4.2.3.4.8.6,1.5.2.6.4,1.4.7,2.3.1.4.3.9.4,1.4.2.5.3,1,.5,1.4h0v.2h0c.1,0-.2-.1-.1,0,.1,0,.2.2.3.3s.1.2.1.2h0v.6c0,.2,0,.4.1.5.1.7.2,1.3.2,2,0,1.3.2,2.7.2,4.2v4.4c0,1.5,0,3,0,4.6,0,1.5-.2,3-.3,4.5,0,1.5-.2,3-.3,4.4-.1,1.4-.3,2.8-.4,4.1-.1,1.3-.3,2.5-.4,3.7-.3,2.3-.6,4.2-.8,5.5,0,.7-.2,1.2-.2,1.5v.5h.3Z"/>
            <path class="cls-30" d="M475.1,333.3s0-.2-.2-.5c-.1-.3-.2-.8-.3-1.4-.2-1.3-.4-3.1-.5-5.2-.3-4.3-.4-10.1-.5-15.9,0-5.8-.1-11.5-.3-15.8,0-2.1-.1-3.9-.2-5.1,0-.6-.1-1-.2-1.2h0v.4c.1.2.2.3.3.4.2.2.4.2.4.2l1.9-3.5s.1,0,.4.3.3.3.4.5,0,.2.1.3c0,0,0,.2.1.3v2.3c0,1.3,0,3.1-.2,5.3-.3,4.3-.7,10.1-1.1,15.8-.4,5.7-.8,11.5-.9,15.8v5.2c0,.6.1,1.1.2,1.4,0,.3.1.5.1.5h.5Z"/>
            <path class="cls-34" d="M473.9,333.3s-.4-.6-.6-1.8c-.3-1.2-.6-2.9-.8-5-.2-2.1-.3-4.5-.4-7.1v-8.2c0-2.8,0-5.5.2-8.1,0-2.6.2-5,.2-7.1s.1-3.8.1-5v-1.4c0-.3-.1-.5-.1-.5,0,0,.1.1.2.5,0,.3.2.8.2,1.4.1,1.2.2,2.9.2,5v23.3c0,2.6,0,5,.1,7.1,0,2.1.2,3.8.4,5,.2,1.2.4,1.8.4,1.8h-.1Z"/>
            <path class="cls-34" d="M544.6,230.1s-1.5,1.4-4.1,3.9c-2.7,2.4-6.5,5.8-11.3,9.7-2.4,2-5,4.1-7.8,6.2-2.8,2.2-5.8,4.4-8.9,6.7-1.6,1.1-3.2,2.3-4.8,3.4-1.6,1.2-3.3,2.3-5,3.4-3.4,2.3-6.8,4.5-10.3,6.8-3.5,2.2-7,4.4-10.4,6.5-3.4,2.2-6.9,4.2-10.2,6.2-3.3,2-6.5,3.9-9.6,5.7-3,1.8-6,3.4-8.6,5-10.7,6.1-18,9.9-18,9.9,0,0,6.8-4.6,17.2-11.4,2.6-1.7,5.4-3.5,8.4-5.4s6.1-3.9,9.4-6c6.5-4.2,13.4-8.6,20.3-13,3.5-2.2,6.9-4.4,10.3-6.6s6.7-4.4,9.8-6.6c3.2-2.2,6.2-4.3,9.1-6.3,2.9-2.1,5.6-4,8.1-5.8,10-7.2,16.5-12.2,16.5-12.2h0Z"/>
            <g>
              <path class="cls-30" d="M248.7,291.7c-1.5,8.7,6.4,16.4,9.5,19.5.8.9,1,2.5.4,3.6-1.2,1.9-3.1,4.4-5,4.5-2.4,0-6.3-4.5-9.9-10.9-2.2-7.4,5-16.6,5-16.6h0Z"/>
              <path class="cls-11" d="M248.7,291.7c-1.5,8.7,6.4,16.4,9.5,19.5.8.9,1,2.5.4,3.6-1.2,1.9-3.1,4.4-5,4.5-2.4,0-6.3-4.5-9.9-10.9-2.2-7.4,5-16.6,5-16.6h0Z"/>
              <path class="cls-37" d="M245.5,302.7s0-6.1,1.8-5.5.2,3.6,3.4,7.9c0,0-2.3-2.6-2.9-5.1-.6-2.5-2.3,2.7-2.3,2.7Z"/>
              <path class="cls-37" d="M252.1,308.3c1,1.8,3.6,2.1,4.7,3.5,1.1,1.5-.3,5.3-2.5,5.4s-7.4-4.7-8.3-7.5c0,0,4.3,5.6,7,5.2s2.7-2.8,1.6-3.4-2.4-3.2-2.4-3.2h-.1Z"/>
              <path class="cls-34" d="M254.2,307.9v.6c0,.2-.2.4-.3.7-.2.2-.4.5-.7.7-.6.5-1.6.8-2.7.7-.5,0-1.1-.2-1.6-.5l-.4-.2h0c0-.1-.1-.1-.1-.1v-.2c-.1,0-.3-.2-.3-.2-.1-.1-.3-.3-.4-.4-.8-1-1.1-2.3-1.1-3.5s.6-2.2,1.2-2.9c.2-.2.3-.3.5-.4,0,0,.2,0,.3-.1h.3c.4,0,.7,0,1,.2.3.1.6.3.8.4s.3.2.3.2v.4c0,.2.1.5.2.8,0,.2.1.5.2.9v.2h0v1.1h0v.2h0c-.2-.2,0,0,0,0h0c0,.2,0,.4.2.5.2.3.5.5.9.7s.4.1.6.2h1.2-.1Z"/>
              <path class="cls-1" d="M246.3,299.1v4.2c0,.2,0,.5.1.8.1.5.3,1,.4,1.5.2.5.4,1,.7,1.6.1.3.3.5.4.8l.5.8c.3.6.7,1.1,1,1.6.4.5.7,1.1,1,1.6.4.5.7,1,1,1.5s.6,1,.9,1.4c.3.5.5.9.7,1.3s.4.7.6,1c.3.6.4.9.4.9,0,0-.4-.1-1-.4s-1.5-.6-2.4-1.2c-.5-.3-1-.6-1.5-1s-1-.8-1.5-1.3-1-1-1.5-1.6c-.4-.6-.9-1.2-1.3-1.9l-.5-1c-.2-.4-.3-.7-.4-1.1-.2-.4-.2-.8-.3-1.1,0-.4-.2-.8-.2-1.2-.1-.8,0-1.5,0-2.2s.1-.7.2-1c.1-.3.2-.6.3-.9.5-1.1,1-1.9,1.5-2.4.2-.3.4-.4.5-.6.1-.1.2-.2.2-.2h.2Z"/>
              <path class="cls-34" d="M246,299.6s0,.3-.1.9v2.3c0,.5,0,1,.2,1.6,0,.6.2,1.1.4,1.7s.4,1.2.6,1.8c.3.6.5,1.2.8,1.8.3.6.6,1.2.9,1.7.4.5.6,1.1,1,1.6s.7,1,1,1.4c.4.4.7.9,1,1.2.6.8,1.2,1.4,1.6,1.8.4.4.6.7.6.7,0,0-.3-.2-.7-.6-.2-.2-.5-.4-.8-.7-.3-.3-.7-.5-1-.9-.4-.4-.8-.7-1.2-1.2-.4-.4-.8-.9-1.2-1.4s-.8-1-1.1-1.6c-.4-.5-.7-1.2-1-1.8-.3-.6-.5-1.3-.8-1.9-.2-.6-.4-1.3-.5-1.9s-.2-1.2-.3-1.8v-1.7c0-1,.3-1.9.4-2.4.2-.6.3-.9.3-.9v.3Z"/>
              <path class="cls-34" d="M252.8,306.7s.1.2.3.5.5.7.9,1.1.9.9,1.4,1.5c.5.5,1.1,1.1,1.6,1.8.2.4.4.8.6,1.2v1.3c0,.4-.2.8-.4,1.1-.2.3-.4.6-.6.9-.4.5-.8.8-1.1,1s-.5.3-.5.3l.4-.4c.2-.3.5-.7.8-1.2s.5-1.1.5-1.8v-1c0-.3-.3-.6-.5-.9-.4-.6-.9-1.2-1.4-1.8-.5-.6-.9-1.2-1.2-1.7s-.5-1-.6-1.4c0-.3-.1-.6-.1-.6h0Z"/>
              <path class="cls-34" d="M247.7,294.5c-1.1.7-1.7,2.9-.9,6.1,0,0,0-3.1.9-6.1Z"/>
            </g>
            <g>
              <path class="cls-30" d="M361.9,326.7s40.5-9.8,51-13.3,14.5-7.3,17.2-7,5.3,2.2,5.4,3.8c.1,1.6-4.5,10.3-10.9,14.7-6.5,4.4-38,9.6-44.7,10.2s-8.1-.2-9.8-1.3c-1.7-1.1-8.2-7.2-8.2-7.2h0Z"/>
              <path class="cls-1" d="M431.5,307.6c3,3.1.8,16.3-18.6,20.8s-35.3,6.4-39.1,5.5-9.5-6.7-9.5-6.7c7.3,5.1,17.4,5.3,35.5,1.5s19.2-4.4,23-7c9.7-6.7,8.7-14.1,8.7-14.1h0Z"/>
              <path class="cls-39" d="M376.6,333.5c-1.2,0-2.2,0-2.7-.2-1.6-.4-3.7-1.8-5.4-3.1,3.1,1.2,6.8,1.8,11.1,1.8h0c5.2,0,11.7-.8,20.3-2.6,12.7-2.6,19.9-4.8,23.2-7.1,6.3-4.4,8.3-9,8.8-11.9.1,1,0,2.2-.4,3.5-.7,2.4-4.2,10.5-18.8,13.9-16.8,3.9-30.2,5.7-36.1,5.7h0Z"/>
              <path class="cls-11" d="M361.9,326.7s40.5-9.8,51-13.3,14.5-7.3,17.2-7,5.3,2.2,5.4,3.8c.1,1.6-4.5,10.3-10.9,14.7-6.5,4.4-38,9.6-44.7,10.2s-8.1-.2-9.8-1.3c-1.7-1.1-8.2-7.2-8.2-7.2h0Z"/>
              <path class="cls-34" d="M365.9,327.5s4,4.9,8.9,5.8c4.8.8,22.8-2.2,22.8-2.2,0,0-17.8,1-22.1.2-4.4-.8-9.5-3.8-9.5-3.8h0Z"/>
              <path class="cls-37" d="M400.6,318s2.8-1.1,5.4-1.4,5.4-1.2,5.4-1.2c0,0-3.5,1.5-3.9,4.2s-1.5,8.2-6.3,9.4c0,0,4.3-3.7,2.9-7.3s-3.5-3.7-3.5-3.7Z"/>
              <path class="cls-34" d="M430,307.9s-6.3,3.5-10.7,5.4-19.9,5.5-19.9,5.5c0,0,17.3-1.6,24.1-4.5,6.8-2.9,6.4-6.4,6.4-6.4h.1Z"/>
              <path class="cls-34" d="M428.1,312.4s-2.8,2.8-9.3,4.3c0,0,4.8-1,4.3.5s-2.3,5.8-8.9,8c0,0,5.5-1.4,8.8-4.5,3.4-3.1,5.1-8.3,5.1-8.3Z"/>
              <path class="cls-37" d="M431.1,311.9c1.6,2.6-1.4,9.9-9.9,13.2,0,0,5-3.1,7.4-6.5s2.5-6.7,2.5-6.7Z"/>
              <path class="cls-34" d="M431.8,308s2.9,1.3,2.7,2.7-4.5,8.9-8,11.5c0,0,4.3-4.8,6-9.9s-.7-4.3-.7-4.3h0Z"/>
              <path class="cls-37" d="M392.4,325.4v-.9c0-.6,0-1.4.5-2.4.2-.5.6-1,1.1-1.4s1.2-.7,2.1-.7h.5c.2,0,.4,0,.6.1.4,0,.7.3,1.1.5.7.4,1.2,1.1,1.5,1.7.4.7.6,1.4.7,2.1v1.1c0,.3,0,.7-.2,1-.3,1.3-1.1,2.5-2,3-.9.6-1.9.6-2.5.5-.3,0-.5-.2-.6-.3-.1,0-.2-.1-.2-.1h.9c.5,0,1.2-.4,1.7-1s.9-1.5,1-2.5v-1.5c0-.5-.2-1-.5-1.4-.2-.4-.5-.8-.9-1.1-.2-.1-.4-.2-.6-.3h-.6c-.3,0-.8,0-1.1.2-.4.2-.7.5-1,.8-.6.6-.9,1.3-1.1,1.8,0,.2-.2.5-.2.6v.2h-.2Z"/>
              <path class="cls-37" d="M385.1,322.2s-9.3,4.4-7.2,6.5c2.1,2.1,14.9,2.1,14.9,2.1,0,0-9.2,1.2-15.8-.3-6.5-1.5-6.8-3.4-9.5-3.3,0,0,10.1-3.4,17.5-5h.1Z"/>
              <path class="cls-37" d="M418.2,323.4s-13.8,5-20.7,5.9c0,0,19.4-2.1,20.7-5.9Z"/>
              <path class="cls-34" d="M398,325.4l.2.3c0,.2.2.4.4.8.1.4.2.8.2,1.4s0,1.2-.3,1.9c-.2.7-.7,1.4-1.4,2.1-.4.3-.8.6-1.3.8-.2.1-.5.2-.8.3h-.7s.2,0-.2,0h-.6c-.4,0-.8,0-1-.2-.6-.1-1.2-.4-1.7-.7-1-.7-1.8-1.5-2.3-2.5s-.8-2-.9-3v-2.1c.1-.3.2-.6.3-.8.5-1.8,1.8-3.3,3.2-3.9.7-.3,1.4-.5,2-.4.6,0,1.1.2,1.4.4.4.2.6.4.7.6l.2.2h-.3c-.2,0-.4.2-.7.3-.3.1-.5.4-.7.6-.2.3-.4.6-.5.9-.2.7-.3,1.4-.2,2.2v.7s0,.3.1.5c.1.3.2.7.4.9.1.3.3.4.4.6,0,0,0,.1.1.2h.3c-.3,0,0,0-.2,0h.4c.3,0,.6,0,1-.3.7-.3,1.3-.9,1.7-1.4.2-.2.4-.5.5-.6.1-.2.2-.2.2-.2v.4Z"/>
              <path class="cls-34" d="M406.1,319.1s5.5-.3,9.2-.7c0,0-3.3.5-3.4,1.7s-1,5.8-3.2,6.7c0,0,1.4-4,.4-5.9s-3-1.8-3-1.8h0Z"/>
              <path class="cls-37" d="M380.6,325.5s1.7,2,6.8,0c0,0-4.6.8-6.8,0Z"/>
              <path class="cls-34" d="M376.1,328.4s2.8,3.4,11.3-.1c0,0-7.7,1.4-11.3.1Z"/>
              <path class="cls-34" d="M371.7,327.5s.2-4.1,12.4-3.8c0,0-8.1,1.3-12.4,3.8Z"/>
            </g>
            <path class="cls-30" d="M266.3,300.4c1.5-14.7,21.9-37.1,21.9-37.1,0,0-17.7,17.4-22.5,30.4-3.3,8.9-8.8,7.5-10.4,6.2-2.4-1.9-4.9-6.1-4.2-9.1,0,0-2,2.6-.4,7,1.8,5.1,13.8,15.6,13.8,15.6,0,0,1.4-8.7,1.8-13Z"/>
            <path class="cls-11" d="M370.2,324.7s-3.2-2.4-10.4-5.2c-7.3-2.7-29.8-6.5-56.1-9.5-26.3-3-38.1-3.2-40.8-2s-5.1,1.6-5.7,2.4"/>
            <path class="cls-34" d="M360.9,320.5s-.4-.1-1.1-.3c-.7-.2-1.7-.4-3.1-.7-2.7-.6-6.5-1.2-11.1-1.9-4.6-.7-10-1.4-15.8-2.2-5.8-.7-12-1.5-18.1-2.2-6.2-.7-12.4-1.5-18.2-2.1-5.8-.7-11.2-1.3-15.9-1.7-4.6-.4-8.5-.8-11.2-.8s-2.4,0-3.1.1c-.7,0-1.1.2-1.1.2,0,0,.3-.2,1.1-.4.7-.2,1.8-.3,3.2-.4,2.7-.2,6.6-.2,11.3,0,4.7.2,10.1.6,16,1.1,2.9.3,5.9.5,9,.9,3.1.3,6.1.7,9.2,1,3.1.4,6.2.8,9.2,1.2,3,.4,6,.9,8.9,1.3s5.7.9,8.3,1.4c2.6.5,5.1.9,7.4,1.4,4.6.9,8.4,1.9,11,2.7,1.3.4,2.3.7,3,1s1,.4,1,.4h.1Z"/>
            <path class="cls-18" d="M366.4,345c0,2.4-4.4,7.9-7.5,9.1-3,1.3-30.5,1.2-59.2-2.9s-38.6-9.5-40.8-11.8c-2.2-2.4-4.4-8.9-4.4-10.4s5-6.5,10.9-7.7c5.9-1.3,69.2,5.7,81.1,9.6,11.9,3.9,19.9,11.7,19.9,14.1h0Z"/>
            <path class="cls-34" d="M359.8,355.4h-.3c-.2.1-.5.3-.8.4-.8.2-1.9.4-3.3.7-.7,0-1.5.2-2.4.3-.9,0-1.8.2-2.8.3-2,.2-4.2.4-6.7.5s-5.1.2-7.9.2h-8.9c-1.5,0-3.1-.1-4.7-.2-1.6,0-3.2-.1-4.8-.3-3.2-.2-6.5-.5-9.7-.9-3.3-.4-6.5-.8-9.7-1.3-1.6-.2-3.2-.5-4.7-.8-1.6-.3-3.1-.6-4.6-.9s-3-.6-4.4-1-2.8-.8-4.2-1.1c-1.4-.4-2.7-.8-4-1.2-1.3-.4-2.5-.8-3.6-1.3-2.3-.8-4.4-1.8-6.2-2.7-1.8-.9-3.3-1.8-4.5-2.6-1.2-.8-2.1-1.6-2.6-2.1l-.6-.6c-.1-.2-.2-.2-.2-.2l.2.2c.2.1.4.3.7.5.6.4,1.6,1,2.9,1.6s2.9,1.2,4.7,1.9c.9.3,1.9.7,3,.9,1.1.3,2.2.6,3.3.9,2.3.6,4.9,1.2,7.6,1.8,1.4.3,2.8.5,4.2.8,1.4.2,2.9.5,4.4.8,1.5.2,3,.5,4.5.7,1.6.2,3.1.4,4.7.7,3.1.4,6.4.8,9.6,1.1,3.2.4,6.4.7,9.6,1s6.3.6,9.3.8c3,.2,6,.4,8.8.6s5.4.3,7.9.5c2.4.1,4.7.2,6.6.3,2,0,3.7.1,5.1.1h3.3c.4,0,.7,0,.9-.1h.3v-.3Z"/>
            <path class="cls-34" d="M508.6,300.5s0-.1-.1-.4c0-.3-.1-.7-.1-1.2,0-1-.2-2.5-.2-4.2v-9.2c0-1.1,0-2.3.1-3.4,0-1.1.1-2.3.2-3.4,0-1.1.2-2.2.2-3.3.2-2.1.3-4.1.5-5.8.1-1.7.3-3.1.3-4.1v-1.2c0-.3-.1-.4-.1-.4,0,0,.1,0,.2.3s.2.6.3,1.1c.2,1,.4,2.4.5,4.2.1,1.7.2,3.7.1,5.9v3.3c0,1.1,0,2.3-.1,3.4,0,1.1-.1,2.3-.2,3.4,0,1.1-.2,2.2-.3,3.3-.2,2.1-.4,4.1-.6,5.8-.2,1.7-.4,3.1-.5,4.1,0,.5-.1.9-.1,1.2v.6Z"/>
            <path class="cls-11" d="M288.1,263.3s-20.4,22.4-21.9,37.1"/>
            <path class="cls-30" d="M328.3,357.8c0,4.5,12,10.9,21.6,11.2,8,.2-56.4,1.4-56.4,1.4l-27.4-13.6s3.5-2.3,3.7-6.4l58.6,7.4h-.1Z"/>
            <path class="cls-18" d="M298.5,363.5c31.1,4.5,57.8,5.8,57.8,5.8,0,0-4.2,10-8.9,11.3-6.5,1.8-35.8-2.3-47-4.3-10.6-1.9-25.9-4.1-31.3-7.3-5.4-3.2-8.9-13.8-8.9-13.8,0,0,23,6,38.4,8.2h-.1Z"/>
            <path class="cls-6" d="M460.8,272.1s28.1-13.7,49-30.5c20.8-16.9,19.4-15.8,19.8-17.5s.7-5.9-2-9.9-10.6-9.3-21.1-10.3-20.9.2-29.2,9.6-16.1,50.2-17,54.2-.2,4.9.6,4.5h0Z"/>
            <path class="cls-18" d="M461.3,268.8s7.2-31.7,11.4-43.2c4.2-11.5,15.8-22.3,31.9-20.6,16.2,1.7,21.8,8.9,22.9,11.4s.9,7.1.6,7.9-30.6,27.6-66.8,44.5Z"/>
            <path class="cls-11" d="M461.3,268.8s0,2.4-.6,3.3-6.9,4-16.8,10.2-31.8,20.8-36.8,32.9"/>
            <path class="cls-30" d="M459.5,272.1s-.2.2-.6.5-1,.7-1.8,1.2c-1.6,1-3.9,2.3-6.7,4-2.8,1.7-5.9,3.6-9.3,5.8-3.3,2.2-6.9,4.7-10.3,7.2-3.5,2.5-6.8,5.1-9.9,7.7-1.5,1.3-3,2.6-4.3,3.8-1.3,1.3-2.6,2.5-3.7,3.6-1.1,1.2-2,2.3-2.9,3.3-.8,1-1.5,1.9-2,2.7-.5.8-.9,1.4-1.1,1.9-.2.4-.4.7-.4.7,0,0,0-.3.3-.7.2-.5.4-1.2.9-2,.4-.8,1-1.9,1.7-3s1.6-2.3,2.6-3.6c2-2.5,4.7-5.3,7.7-8s6.4-5.4,9.9-8c3.5-2.5,7.1-4.9,10.6-7s6.8-3.9,9.7-5.4c2.9-1.4,5.4-2.5,7.1-3.3.9-.4,1.5-.7,2-.9.4-.2.6-.4.6-.4h-.1Z"/>
            <path class="cls-11" d="M466.8,217.2c2.4-8.8,11.4-14.3,16-15.6s15.8-3.2,30.8,0"/>
            <path class="cls-34" d="M514.3,202.3s-.4,0-1.3-.2-.9-.1-1.5-.2c-.6,0-1.3-.2-2-.3-1.5-.2-3.4-.4-5.5-.5-2.1,0-4.5-.1-7.2,0-2.6.1-5.4.4-8.4.9-1.5.3-3,.6-4.5,1.1-.3,0-.7.2-1.1.4-.3.1-.7.3-1,.4-.7.3-1.4.7-2.1,1.1-2.8,1.6-5.4,3.7-7.5,6.3-1,1.3-2,2.7-2.7,4.2l-.5,1.1c-.1.4-.3.8-.4,1.2-.3.8-.5,1.7-.7,2.5-1.9,6.8-3.7,13.6-5.5,20s-1.7,6.3-2.5,9.2c-.4,1.5-.7,2.9-1,4.3-.2.7-.3,1.3-.4,2s-.3,1.3-.5,2c-.4,1.3-.8,2.5-1.4,3.6s-1.3,2-2.1,2.8c-1.6,1.6-3.3,2.5-4.8,3-1.5.6-2.7.8-3.5.9s-1.3.2-1.3.2c0,0,.4,0,1.2-.3.8-.2,2-.5,3.4-1.1s3-1.6,4.4-3.2,2.4-3.7,3-6.3c.1-.6.3-1.3.4-2,.1-.7.2-1.4.3-2.1.3-1.4.6-2.9.9-4.3.7-3,1.4-6.1,2.2-9.3.8-3.2,1.6-6.5,2.5-9.9s1.8-6.8,2.7-10.2c.2-.9.5-1.7.7-2.6.1-.4.3-.9.4-1.3l.6-1.3c.8-1.7,1.8-3.2,3-4.6,2.3-2.8,5.2-4.9,8.2-6.6.8-.4,1.5-.8,2.3-1.1.4-.2.8-.3,1.2-.5.4-.1.7-.2,1.2-.3,1.6-.4,3.1-.7,4.7-.9,3-.5,5.9-.6,8.6-.6s5.1.2,7.3.4c2.1.3,4,.6,5.5.9,1.5.3,2.7.6,3.5.8l1.2.3h0Z"/>
            <path class="cls-11" d="M463.8,267.6s1.1,1.1,2.1,1.5,4.5,10.2,5.7,11.2.8,7.6,1.9,8.6-1.9,47.4,2.2,46.3c6.5-5,34.4-30.2,34.4-30.2,0,0-.4-.1-.9-1.5s2.2-39.6.9-40.3-1.3-7.3-2.3-8-4.1-9.3-4.1-9.3c0-.9-1.1-1.6-1.1-1.6"/>
            <path class="cls-11" d="M526.2,226.1s.7.1,1,1c0,0,5.2,3.7,6.4,6s3.2,4.1,3.1,5.8,2.3,14.7.6,23.5"/>
            <path class="cls-18" d="M350,388c-.2,0-.5,0-.6-.3-1.9-1.1-23.6-3.8-36.5-5.3-6.3-.8-11.7-1.4-14.5-1.8-4.6-.7-11.9-2.4-18.4-3.8-6.3-1.4-13.5-3.1-14.7-2.9-.5,0-1-.3-1-.8s.3-1,.8-1c1.5-.2,6.8,1,15.3,3,6.4,1.5,13.7,3.1,18.2,3.8,2.8.4,8.2,1.1,14.4,1.8,28.5,3.5,36.6,4.7,37.6,5.9.4.4.3,1,0,1.3s-.4.2-.6.2h0Z"/>
            <path class="cls-18" d="M247.1,346.3c2,1.8,3.6,2.6,4.5,4.4s2.3,6.6,2,7.9-1.5,2.3-3,2.3-5-4.7-5.9-7.6-1.7-9.5-.9-9.8,1.3,1.1,3.3,2.9h0Z"/>
            <g>
              <g class="cls-41">
                <g>
                  <ellipse class="cls-27" cx="245.2" cy="348.9" rx="2.7" ry="4" transform="translate(-125.6 138.3) rotate(-25.3)"/>
                  <ellipse class="cls-5" cx="245.2" cy="348.9" rx="1.9" ry="2.8" transform="translate(-125.6 138.3) rotate(-25.3)"/>
                </g>
              </g>
              <path class="cls-11" d="M247.1,346.3c2,1.8,3.6,2.6,4.5,4.4s2.3,6.6,2,7.9-1.5,2.3-3,2.3-5-4.7-5.9-7.6-1.7-9.5-.9-9.8,1.3,1.1,3.3,2.9h0Z"/>
            </g>
            <g>
              <path class="cls-30" d="M477.6,272.8c-.9.9-1.9,2.1-.4,2.5s1.4,1,.6,1.5-2.8,1.9-3.8,1.9-6.1-8.4-2.9-10.1,6.5,4.2,6.5,4.2h0Z"/>
              <path class="cls-28" d="M483.2,248.1c7.4-1.1,19.5,3.9,20.3,6.5s.6,5.6-2.4,7.3-10.1,3.5-13.1,3.2-4,.5-5,1.3-4.1,6.5-6.3,6.5-4.9-2.7-5.4-3.7.3-1.9.9-2.3,5-3.5,5-4.5-1.6-2.1-1.6-5.2,3.9-8.7,7.5-9.2h.1Z"/>
              <g class="cls-35">
                <g>
                  <path class="cls-30" d="M503.5,254.7c-2.9,3.4-27.4,6.1-27-.5.5-6.5-4.4,7.5-4.4,7.5,0,0,4,.2,5.1.8s.4,2.9-4.6,4.2-2.6,4-2.6,4l5,2s3.8-6.1,7.9-6.2,20.3,4,22.2-1.9c1.8-5.8-1.6-10-1.6-10h0Z"/>
                  <path class="cls-34" d="M487.5,248.1c4.6,1.6,13.5,4.4,13.3,6.2s-11.7,4.7-19.1,3.6c0,0,4.5,1.3,13.1,0s8.9-3.3,8.9-.2l.2-4-12.7-5.5h-3.7,0Z"/>
                </g>
              </g>
              <path class="cls-11" d="M483.2,248.1c7.4-1.1,19.5,3.9,20.3,6.5s.6,5.6-2.4,7.3-10.1,3.5-13.1,3.2-4,.5-5,1.3-4.1,6.5-6.3,6.5-4.9-2.7-5.4-3.7.3-1.9.9-2.3,5-3.5,5-4.5-1.6-2.1-1.6-5.2,3.9-8.7,7.5-9.2h.1Z"/>
              <path class="cls-22" d="M503.8,255.9s-.8,1.9-5.2,2.7-6.8.8-8.4,2.2.2,1.1,1.5.9,15.7.2,12.1-5.7h0Z"/>
            </g>
            <path class="cls-11" d="M472.3,263.3s-1.2-16.2-4.2-22.1"/>
            <path class="cls-11" d="M489.9,207.1s11.6,24.2,12.9,37.3"/>
            <path class="cls-11" d="M523,228.9s-.7-4.8-1.7-7.9-10.6-15-10.6-15"/>
            <path class="cls-11" d="M468.3,265.4c-2.5.9-5.2-4.3-4.6-6.6"/>
            <path class="cls-11" d="M472.3,346.5c6.4-5.8,25.1-20.8,34-28.7,8.9-7.9,13.1-9.6,18.6-15.8"/>
            <path class="cls-11" d="M476.9,334.3c.6,3.4,4,4.8,4,4.8"/>
            <g>
              <ellipse class="cls-10" cx="306.5" cy="316.7" rx="2.5" ry="6.5" transform="translate(-27.3 604.5) rotate(-86.7)"/>
              <ellipse class="cls-38" cx="306.5" cy="316.7" rx="2" ry="5.5" transform="translate(-27.3 604.5) rotate(-86.7)"/>
            </g>
            <path class="cls-11" d="M510.2,305s16.4-14.3,18-19.1"/>
            <path class="cls-30" d="M243.9,311c-.5,2.8,0,6.3,1.1,8.3s5.7,7.2,9.6,4.3c3.9-2.9,4.3-4.6,5-7,0,0-2.5,4.6-7.2,4.3-4.7-.3-8.6-9.9-8.6-9.9h0Z"/>
            <path class="cls-30" d="M304.6,253.7c-1.4,4-.4,10.9,25.2,8.4l1.8-1.4s62.7,1,60,6.6l3.1-1.5s37.4,9.1,54.7.1l-92.6-10.1-52.2-2.2h0Z"/>
            <path class="cls-18" d="M466.8,217.2s-9.3,31.2-10.4,38.2-4.5,11-12.9,12.2-14,1.5-22,.8-22.7-2-23.8-3.3-1.7-1.1-3.5-1.3-17.9-2.6-35.8-4c-17.2-1.4-24.3-2.2-25.2-.4,0,0-20.2-.4-25.4-1.8-5.2-1.4-3.7-5-.8-7.1s28.1-30.3,43.6-40.8c0,0,54.4-3.3,116.2,7.6h0Z"/>
            <path class="cls-30" d="M393.9,266.9s-.2.1-.7.3c-.5.2-1.1.5-2,.9-1.7.8-4.1,2-7,3.5s-6.2,3.3-9.7,5.3c-1.8,1-3.5,2.1-5.4,3.2-1.8,1.1-3.6,2.3-5.5,3.4-1.8,1.2-3.6,2.3-5.4,3.5s-3.5,2.4-5.2,3.5c-1.7,1.2-3.3,2.3-4.8,3.4s-2.9,2.1-4.2,3.1c-1.3,1-2.5,1.8-3.6,2.6-1,.8-2,1.5-2.7,2.1-1.5,1.2-2.4,1.8-2.4,1.8,0,0,.8-.7,2.3-1.9.7-.6,1.6-1.4,2.6-2.2,1-.9,2.2-1.8,3.4-2.8,1.3-1,2.6-2.2,4.1-3.3,1.5-1.2,3-2.4,4.6-3.6s3.3-2.5,5-3.8,3.5-2.5,5.2-3.8c1.8-1.2,3.5-2.5,5.3-3.7s3.5-2.4,5.2-3.5c3.4-2.3,6.6-4.3,9.4-6s5.2-3,6.9-4c.9-.5,1.5-.8,2-1.1.5-.2.7-.4.7-.4l1.7,3.6h.2Z"/>
            <path class="cls-13" d="M396.3,265.1s-29.3,12.2-60.7,38.4"/>
            <path class="cls-34" d="M396.9,265.7s-1,.5-2.8,1.3c-1.8.9-4.3,2.2-7.2,3.7-3,1.6-6.4,3.5-10.1,5.6-1.8,1-3.7,2.2-5.6,3.3-1.9,1.1-3.8,2.4-5.7,3.6-1.9,1.2-3.8,2.4-5.6,3.6-1.9,1.2-3.6,2.5-5.4,3.6-1.7,1.2-3.4,2.4-5,3.5s-3,2.2-4.4,3.2c-1.3,1-2.6,1.9-3.7,2.7-1.1.8-2,1.6-2.8,2.2-1.6,1.2-2.5,1.9-2.5,1.9,0,0,.9-.7,2.3-2,.8-.6,1.7-1.4,2.7-2.3s2.3-1.8,3.6-2.9c1.3-1,2.8-2.2,4.3-3.3,1.6-1.2,3.2-2.4,4.9-3.6,1.7-1.2,3.5-2.5,5.4-3.7s3.7-2.5,5.6-3.7,3.8-2.4,5.7-3.5c1.9-1.1,3.8-2.2,5.6-3.3,1.8-1.1,3.6-2,5.4-2.9,1.7-.9,3.4-1.7,4.9-2.5,3-1.5,5.6-2.6,7.4-3.4s2.9-1.2,2.9-1.2h.1Z"/>
            <path class="cls-11" d="M333.3,259.4s-24.1,16.6-34.8,39.8"/>
            <path class="cls-30" d="M330,262.9s-.1.1-.4.3c-.3.2-.7.5-1.2.9-1,.8-2.5,2-4.2,3.5-.9.7-1.8,1.6-2.7,2.4-1,.9-1.9,1.8-3,2.8l-3.1,3.1c-1,1.1-2.1,2.2-3.1,3.3-1,1.1-2,2.3-2.9,3.4-.5.6-.9,1.2-1.4,1.7-.4.6-.9,1.2-1.3,1.7-.4.6-.8,1.1-1.3,1.7-.4.6-.8,1.1-1.1,1.7-.7,1.1-1.5,2.1-2,3.1-.6,1-1.1,1.9-1.6,2.7-.4.8-.8,1.5-1.1,2.1-.6,1.2-1,1.8-1,1.8,0,0,.3-.7.8-1.9.3-.6.6-1.4,1-2.2l1.4-2.8c.5-1,1.1-2.1,1.8-3.3.3-.6.7-1.2,1-1.8.4-.6.7-1.2,1.1-1.8.4-.6.8-1.2,1.2-1.9.4-.6.8-1.2,1.3-1.9.8-1.3,1.8-2.5,2.7-3.7.9-1.3,1.9-2.4,2.8-3.6s1.9-2.3,2.9-3.4,1.9-2.1,2.8-3.1,1.8-1.9,2.6-2.7c1.6-1.7,3-3,4-3.9.5-.5.9-.8,1.2-1.1.3-.2.4-.4.4-.4l2.5,3.1v.2Z"/>
            <path class="cls-11" d="M333.3,259.4s-24.1,16.6-34.8,39.8"/>
            <path class="cls-34" d="M335.2,259.4s-.7.5-1.8,1.5c-1.1.9-2.7,2.3-4.6,4-.9.8-2,1.7-3,2.7-1.1,1-2.2,2-3.3,3.1-1.1,1.1-2.3,2.2-3.5,3.4-1.1,1.2-2.3,2.4-3.4,3.6-1.1,1.3-2.3,2.4-3.3,3.7-1.1,1.3-2.1,2.5-3.1,3.7-.9,1.2-1.9,2.4-2.7,3.6-.8,1.2-1.7,2.2-2.3,3.3-.7,1.1-1.3,2-1.9,2.9-.5.9-1,1.7-1.3,2.3-.7,1.3-1.2,2-1.2,2,0,0,.4-.8,1-2.1.3-.7.7-1.5,1.2-2.4s1.1-1.9,1.7-3,1.4-2.2,2.2-3.4c.8-1.2,1.7-2.4,2.7-3.7.9-1.3,2-2.5,3-3.8s2.2-2.5,3.3-3.8c1.1-1.2,2.3-2.4,3.5-3.6,1.2-1.1,2.4-2.3,3.5-3.4,2.3-2.2,4.6-4,6.6-5.6s3.7-2.8,4.9-3.7c1.2-.9,1.9-1.3,1.9-1.3h-.1Z"/>
            <path class="cls-30" d="M367.8,347.6c1.9,3.6,13.2,5.1,48.2-8.1,0,0-3.1,3.6-10.1,7.7-7,4.2-33.2,12.2-38,12.6s-8.6-2.9-8.6-2.9c0,0,5.4-2,8.4-9.3h.1Z"/>
            <path class="cls-30" d="M377.5,303.5s19.9-16.4,33-23.5c13.2-7.2,15-6.5,17.3-5.3s-32.6,15.4-50.4,28.9h.1Z"/>
            <path class="cls-30" d="M244.9,356s3.3,5.8,5.4,5.8,3-.6,3-.6c0,0-3.4,3.9-2.3,6.7,0,0-6-5.4-6.1-11.9h0Z"/>
            <path class="cls-30" d="M437.3,328.6c-4.9,0-2.9-6.4-5.4-6.9s-5.5,6-7.3,7.4c-1.8,1.5-8.1,4.2-8.1,4.2,0,0,8-1.9,10.2-.7s3.6,6.3,6.7,6.3,6.2-4.9,7.2-7.7,3.2-7.4,4.7-8.7c0,0-6.8,6-8,6h0Z"/>
            <path class="cls-30" d="M420.2,377.6s-9.8,6.7-25.6,10.1c-15.8,3.3-29.2,3.9-33,2.8s-5.5-2.8-5.5-2.8c0,0,28.1.4,64.1-10h0Z"/>
            <path class="cls-30" d="M369,366.4s9.2-4.2,17.5-7c8.2-2.7,31.6-10.8,31.9-9.1s-8.1,9.1-6.9,10.7c0,0-3.1-.4-.3-5,2.8-4.7-34.9,7.9-42.3,10.5h0Z"/>
            <path class="cls-30" d="M463.9,244.8s-5.5,20.9-8,25.1-4,3.8-4,3.8c0,0,5,.5,6.2-2.4s5.8-26.5,5.8-26.5h0Z"/>
            <path class="cls-26" d="M348.8,335.3c-15.3,0-79.4-8.6-83.8-10.8-.5-.2-.7-.8-.4-1.3.2-.5.8-.7,1.3-.4,4.1,2,76.1,11.7,85.1,10.5.5,0,1,.3,1.1.8s-.3,1-.8,1.1c-.6,0-1.3.1-2.3.1h-.2Z"/>
            <path class="cls-26" d="M356,339.4c-22.2,0-90.8-9.2-95.6-12.9-.4-.3-.5-.9-.2-1.3s.9-.5,1.3-.2c4.1,3.2,74.3,12.9,95.9,12.5h0c.5,0,.9.4.9.9s-.4,1-.9,1h-1.5.1Z"/>
            <path class="cls-26" d="M360.6,344.4c-9,0-32.1-2.4-52.5-5-14.2-1.8-47.5-6.5-50.9-9.7-.4-.4-.4-1,0-1.3.4-.4,1-.4,1.3,0,1.6,1.6,17.7,5,49.8,9.2,26.1,3.4,49.6,5.5,54.6,4.9.5,0,1,.3,1,.8s-.3,1-.8,1-1.5.1-2.6.1h.1Z"/>
            <path class="cls-26" d="M355,348.2c-13,0-34.3-2.3-51.9-4.8-11.6-1.6-22.3-3.5-30.4-5.1-13.7-2.9-14.3-4.2-14.6-4.8-.2-.5,0-1,.4-1.3.5-.2,1,0,1.2.4,3.2,3.6,79.8,15.8,101.5,13.5.5,0,1,.3,1,.8s-.3,1-.8,1c-1.8.2-4,.3-6.5.3h0Z"/>
            <path class="cls-26" d="M353.6,352.1c-23.4,0-90.7-9.8-94.2-14.2-.3-.4-.3-1,.1-1.3s1-.3,1.3.1c3.3,3.8,80.1,15.3,97.4,13.3.5,0,1,.3,1,.8s-.3,1-.8,1c-1.3.1-2.9.2-4.9.2h0Z"/>
            <path class="cls-30" d="M361.4,366.4s-8.3,12.9-8,13.9,13.6-.8,15-2.2c0,0-2.8-2-.7-5.8s3.7-4.8,3.7-4.8c0,0-5.1.6-10-1h0Z"/>
            <path class="cls-30" d="M406.8,335.3s-30.8,4.9-35.4,4.1c-4.7-.8-12-4.1-12-4.1,6.5,3.9,5,4.2,8.9,5.9s26.2-2.1,38.9-5.7"/>
            <path class="cls-11" d="M450.4,265.4c2.1.5,3.8,1.5,3.5,4s-.3,5.3,1.7,5.9"/>
            <path class="cls-34" d="M253.5,288.4s.3-.4.9-1.2c.6-.7,1.5-1.7,2.6-2.9.6-.6,1.2-1.2,1.9-1.8.7-.6,1.4-1.3,2.2-1.9,1.5-1.3,3.3-2.6,5.1-3.8.9-.6,1.8-1.2,2.7-1.8.9-.6,1.8-1.1,2.7-1.6,1.8-1,3.4-1.9,4.9-2.6s2.7-1.2,3.6-1.5,1.4-.5,1.4-.5c0,0-.4.3-1.2.9-.8.5-1.9,1.3-3.2,2.2-.7.4-1.4.9-2.2,1.4-.8.5-1.6,1.1-2.4,1.6-1.6,1.1-3.4,2.3-5.2,3.5-.9.6-1.7,1.2-2.6,1.8-.8.6-1.7,1.2-2.5,1.8-1.6,1.2-3.1,2.3-4.4,3.2-1.3,1-2.4,1.8-3.1,2.3-.8.6-1.2.9-1.2.9h0Z"/>
            <path class="cls-34" d="M243.4,322c-.7,1.1,0,11.2.2,12.9.2,1.7.3,7.6,6.1,10.4,0,0-5.2-7.6-3.6-12.4,1.6-4.8,2.7-1.8,5.6-2.8,0,0-8.4-3.7-8.3-8h0Z"/>
            <path class="cls-30" d="M255.1,326.3s-1.7,1.4-1.9,2.3-.1,10.1,9.9,14.3c0,0-3.2-1.9-4.8-3.4s-4.6-8.8-4.3-10.6,1.1-2.6,1.1-2.6h0Z"/>
            <path class="cls-34" d="M449.3,289.1s-5.6,1-9,2.9-12.2,13.1-12.2,13.1c0,0,13.9-13,21.2-16Z"/>
            <path class="cls-30" d="M464.6,277.3c-.8.7-2.8,8.2-2.8,8.2,0,0,5.7-3,7.5-4.4,0,0-3.2-1.5-3.2-2.9s-.7-1.7-1.5-.9h0Z"/>
            <path class="cls-34" d="M465.2,271.4s-2.1,1.5-5.4,3.7c-1.6,1.1-3.6,2.3-5.6,3.6-1,.7-2.1,1.3-3.2,2s-2.2,1.4-3.3,2.1c-4.4,2.8-8.9,5.5-12.2,7.6-1.7,1-3.1,1.9-4,2.5-1,.6-1.5.9-1.5.9l1.3-1.3c.8-.8,2.1-1.9,3.6-3.1s3.4-2.6,5.4-4.1c1-.7,2.1-1.4,3.1-2.1,1.1-.7,2.2-1.4,3.3-2.1,2.2-1.4,4.5-2.7,6.7-3.9,2.2-1.2,4.2-2.3,6-3.1,3.5-1.8,6-2.7,6-2.7h-.2Z"/>
            <path class="cls-34" d="M430.6,361.5s-5,3.7-8.7,4-8.6-3.8-8.6-3.8c0,0,6.7,1.3,9.4.9,2.7-.4,7.9-1.2,7.9-1.2h0Z"/>
            <path class="cls-34" d="M259,357.1s4,8,3.2,11.1-5.2,1.9-5.2,1.9c0,0,3,0,3.7-2.8.7-2.9-1.6-10.3-1.6-10.3h-.1Z"/>
            <path class="cls-30" d="M254.5,339.9c.9,3.1,5.2,4.4,5.2,4.4,0,0-2,2.9,0,8,0,0-4.8-2.6-5.2-12.4h0Z"/>
            <path class="cls-34" d="M427.9,335.8s-6-.8-8.4.6-5,7.5-5,7.5c0,0,4.1-3.9,5.9-5.5,1.9-1.7,4.2-2.7,7.5-2.6Z"/>
            <path class="cls-34" d="M427.9,343.5s-7.8,5.7-21.3,9.4c0,0,17.6-2.8,21.3-9.4Z"/>
            <g>
              <path class="cls-18" d="M374.4,368.8l-3.5,6.9c-.4.8-.2,1.7.5,2.2,1.2,1,3.5,2.3,7.1,2.4,5.6.2,39.5-7.6,41-8.5s.6-2.1-.3-2.9-5.8-4.1-9.1-5.5c-3.3-1.5-7-1.1-10.1-.8-2.6.3-18.4,3.5-23.3,4.6-.9.2-1.7.8-2.2,1.7h-.1Z"/>
              <g>
                <ellipse class="cls-29" cx="399.5" cy="369.8" rx="9.4" ry="5.8" transform="translate(-63.7 83.8) rotate(-11.1)"/>
                <ellipse class="cls-19" cx="399.5" cy="369.8" rx="7.7" ry="4.8" transform="translate(-63.7 83.8) rotate(-11.1)"/>
                <path class="cls-20" d="M398.6,364.8c-2,.4-3.7,1.2-4.9,2.3-.3.8-.4,1.6-.3,2.4.5,2.7,3.8,4.4,7.8,4.5,3.8-1,6.4-3.6,5.9-6-.5-2.6-4.3-4-8.5-3.2h0Z"/>
                <path class="cls-22" d="M407.2,368c-.5-2.6-4.3-4-8.5-3.2-.3,0-.6.1-.9.2-.1.5-.2.9-.2,1.4,0,2.9,2.4,5.3,5.3,5.3s3.3-.9,4.2-2.2c.2-.5.2-1,0-1.5h.1Z"/>
              </g>
              <path class="cls-4" d="M381.2,377.8c-3-.4-5.4-3.4-4.3-6.5.7-1.9,3-4.8,3-4.8-1.3.3-2.4.5-3.3.7s-1.7.8-2.2,1.7l-3.5,6.9c-.4.8-.2,1.7.5,2.2,1.2,1,3.5,2.3,7.1,2.4,1.9,0,6.9-.8,12.7-1.9,0,0-8.3-.3-10-.6h0Z"/>
              <path class="cls-31" d="M405.3,375.4c7.4-1.7,13.5-3.2,14.1-3.6,1.5-.9.6-2.1-.3-2.9s-5.8-4.1-9.1-5.5c-1-.5-2.1-.7-3.2-.9,2.8,1.2,5.4,3,5.7,5.7.3,2.6-3.2,5.2-7.2,7.2h0Z"/>
            </g>
            <path class="cls-34" d="M426.1,373.1c-3.9,2.5-23.8,8.9-33.7,10.8,0,0,20.7-2.6,27.8-6.4,4.6-2.4,6-4.4,6-4.4h0Z"/>
            <path class="cls-30" d="M535.9,265.5s-2.6,2.3-3.7,4.5-1.7,6.1-1.7,9.9c0,0,1.3-9.5,5.4-14.5h0Z"/>
            <path class="cls-34" d="M279.8,272.3s-.6.9-1.5,2.3c-.5.7-1,1.4-1.6,2.2-.6.8-1.2,1.6-1.8,2.5-1.3,1.7-2.5,3.4-3.5,4.6s-.9,1.2-1.2,1.5c-.3.4-.5.6-.5.6,0,0,0-.3.2-.7.1-.5.3-1.1.6-1.9.1-.4.3-.8.5-1.2.2-.4.4-.9.7-1.3.3-.4.5-.9.8-1.4.3-.4.6-.9.9-1.3.7-.9,1.4-1.7,2.1-2.4.3-.4.7-.7,1.1-1s.7-.6,1-.8c1.3-1,2.3-1.5,2.3-1.5v-.2Z"/>
            <path class="cls-34" d="M260.5,311.4s2.6,1.7,2.6,3.1-2.4,3.3-2.4,3.3c0,0,1.8-3.9-.2-6.4Z"/>
            <path class="cls-34" d="M301.4,254.7s-16,9.5-26,26.6c0,0,19.8-22.5,23.7-22.4s5.1.5,5.1.5c0,0-4.1-2-2.8-4.7h0Z"/>
            <g>
              <path class="cls-4" d="M326.2,372.1l-54.7-9.5c-.6,0-1-.6-1-1.1l-.8-12.1c0-.7,1.4-1.8,2.1-1.7l55.5,8.9c.6,0,1,.6,1,1.1v12.6c0,.7-1.4,1.8-2.1,1.7h0Z"/>
              <path class="cls-22" d="M326.2,372.1l-55.5-8.9c-.6,0-1-.6-1-1.1v-12.6c0-.7.6-1.2,1.3-1.1l55.5,8.9c.6,0,1,.6,1,1.1v12.6c0,.7-.6,1.2-1.3,1.1Z"/>
            </g>
            <path class="cls-34" d="M359.8,363s-1.3,2.7-3.2,3.5-5.6,1.1-5.6,1.1c0,0,4.8.9,6.5-.2s2.3-4.4,2.3-4.4h0Z"/>
            <path class="cls-34" d="M446.7,271.4s-.3,0-.9.3c-.6.2-1.4.5-2.5.8-1.1.4-2.4.8-3.8,1.3-1.5.5-3.1,1.2-4.9,1.8-1.8.7-3.7,1.4-5.8,2.3-2,.8-4.2,1.7-6.4,2.7-2.2.9-4.4,2-6.7,3-2.3,1-4.6,2.2-6.9,3.3-2.3,1.1-4.6,2.3-6.8,3.4-2.2,1.2-4.4,2.3-6.5,3.4-2.1,1.2-4.1,2.3-6.1,3.3-1.9,1-3.7,2.1-5.4,3.1-1.7,1-3.2,1.8-4.5,2.6-1.3.8-2.5,1.5-3.5,2.1-1.9,1.1-3,1.8-3,1.8,0,0,1-.8,2.8-2.1.9-.7,2-1.5,3.3-2.4s2.7-1.9,4.3-3c1.6-1.1,3.3-2.3,5.2-3.4,1.9-1.1,3.9-2.4,6-3.6s4.3-2.4,6.5-3.6c2.3-1.1,4.6-2.3,6.8-3.5,2.3-1.1,4.7-2.2,7-3.2s4.6-2,6.9-2.9c2.2-.9,4.4-1.7,6.5-2.4,2.1-.8,4.1-1.4,5.9-2,3.7-1.1,6.8-1.9,9-2.4s3.5-.7,3.5-.7h0Z"/>
            <path class="cls-34" d="M531,216.6s4.6,1.2,8-.5c0,0-5.8,4.3-7.6,7.2,0,0,1.6-3.8-.4-6.7Z"/>
          </g>
        </g>
      </g>
    </g>
  </g>
</svg>