<?xml version="1.0" encoding="UTF-8"?>
<svg xmlns="http://www.w3.org/2000/svg" version="1.1" xmlns:xlink="http://www.w3.org/1999/xlink" viewBox="0 0 800 600">
  <defs>
    <style>
      .cls-1, .cls-2, .cls-3, .cls-4, .cls-5, .cls-6, .cls-7, .cls-8, .cls-9, .cls-10, .cls-11 {
        stroke: #1d1d1b;
        stroke-miterlimit: 10;
      }

      .cls-1, .cls-12 {
        fill: #c6c6c5;
      }

      .cls-2, .cls-13, .cls-9 {
        fill: #fff;
      }

      .cls-2, .cls-3, .cls-4, .cls-6, .cls-8 {
        stroke-width: 2px;
      }

      .cls-14 {
        fill: #b1b1b1;
      }

      .cls-3, .cls-7 {
        fill: #3c3c3b;
      }

      .cls-4, .cls-15 {
        fill: #1d1d1b;
      }

      .cls-16, .cls-5, .cls-6 {
        fill: none;
      }

      .cls-17 {
        clip-path: url(#clippath-1);
      }

      .cls-18, .cls-8 {
        fill: #67a9dd;
      }

      .cls-19 {
        isolation: isolate;
      }

      .cls-20 {
        fill: #9c9b9b;
      }

      .cls-21, .cls-10 {
        fill: #1d70b7;
      }

      .cls-22 {
        fill: #ff8f83;
      }

      .cls-11 {
        fill: #868686;
      }

      .cls-23 {
        clip-path: url(#clippath);
      }
    </style>
    <clipPath id="clippath">
      <path class="cls-16" d="M297.5,272.3l-3.4-3.4s1.7-10.1-1-12.7-18.9.3-21,5.8,2.5,10.4,8,10.4,8.5,1.4,10.3,5.5,8.5-1.7,7-5.5h.1Z"/>
    </clipPath>
    <clipPath id="clippath-1">
      <path class="cls-16" d="M502.5,272.3l3.4-3.4s-1.7-10.1,1-12.7c2.7-2.7,18.9.3,21,5.8,2.1,5.5-2.5,10.4-8,10.4s-8.5,1.4-10.3,5.5c-1.9,4.2-8.5-1.7-7-5.5h-.1Z"/>
    </clipPath>
  </defs>
  <!-- Generator: Adobe Illustrator 28.7.4, SVG Export Plug-In . SVG Version: 1.2.0 Build 166)  -->
  <g>
    <g id="Layer_1">
      <g id="Layer_1-2" data-name="Layer_1">
        <rect class="cls-22" x="-145" y="-14.4" width="978" height="698"/>
        <g class="cls-19">
          <g class="cls-19">
            <path d="M148.5,30.1c0,1.9,0,3.8,0,5.5,2.1-1.7,4-3.5,5.9-5.5l6.8,7.3c-2,1.3-4,2.9-6,4.3,2.2.9,4.6,1.9,6.4,2.7l-2.7,6.3c2.5,2.1,4.9,3.4,7.3,4.2-2.7,8.3-4.3,10-9.7,9.6l3.5,3.7c-1.4,1.1-2.7,2.1-4.2,3,2.1.7,4,1.5,5.9,2.4l-3.2,6.6c2.5,1.7,5.4,3.2,8,4.2-2.3,7.1-4.9,11-9.4,11s-8.1,0-13.8-10.2c-2.7-5-3.5-9-4.5-18.7h-3.5v27.8h-10.4v-27.8h-6.4c-.8,11.7-3.9,20-13.5,28.4-2.2-3.2-4.8-6-7.8-7.8,6.2-5.9,9.6-10.4,11-20.6h-9v-9.6h9.3v-5c-2.2.6-4.7,1.1-7.3,1.5-1-3.2-2.4-5.9-4.6-8.7,9.1-1.2,13.5-2.4,21.8-5.2h-17.6v-9.6h47.5ZM124.9,47.2c-2.2.9-4.2,1.4-6.3,2.2v7.6h6.3v-9.8ZM120.9,39.6l4,6.4v-5.8h10.4v16.7h9.9c-4.1-6.3-5-10-6.3-17.4h-18.1ZM151.4,62.5c-1.1-.6-2.2-1.2-3.3-2.3,0,1.7,0,3.6.4,5,1.2-.7,2.2-1.7,3-2.7ZM155.3,84.2c.6,0,1.2-1.9,1.6-2.9-1.4-.8-3.7-1.9-5.6-2.7,1.9,5.2,3.9,5.6,4,5.6ZM156.2,53.5c.6,0,.9-.7,1.1-1.8-1.4-.8-3.4-1.7-5.3-2.6,1.9,3.7,4,4.4,4.2,4.4Z"/>
            <path d="M117.9,108.8c-2.9,10.8-4.7,21.5-4.7,32.5s1.3,16.6,2.5,22l-11.8,1.9c-1.4-7.9-2.2-13.7-2.2-21.7s.5-14.3.6-15.2c.2-2.1.6-4.2.9-7.1.4-3.4.9-7.9,2.8-16.5l11.8,4ZM154.9,113.3c-1.1-2.1-2.3-4.3-3.5-6.5-.1,3.7-.1,6-.1,8.4,3-.4,6.5-1.2,9-1.7l.4,11.1c-2.7.4-5.8.9-9.3,1.4,0,3,.8,15.7.9,18.2,5.1,2.7,9.1,5.1,13.4,8.3l-7.9,9.6c-2.1-2.3-2.9-3.1-5.8-5.7-1.2,8.2-11.2,8.5-13.8,8.5-9.9,0-18.4-4-18.4-12.2s1.4-6.4,4.2-8.6c3.5-2.9,8.1-3.5,12.7-3.5s2.4,0,4.2.1c-.6-6.8-.6-7.6-.8-13.5-3.6.2-5.9.4-7.8.4-3,0-5.9-.2-11.2-.6l.2-10.8c3.6.6,6.6.8,11.4.8s3.9,0,7-.3c0-1.9,0-10.7,0-12.5h10.2c0,0-.8-1.2-.8-1.2l5.1-2.8c2.4,3.2,4.4,6.5,6.1,10l-5.3,3ZM132.3,155c1.3.4,2.2.6,3.5.6,4.2,0,4.6-2.2,5-4.5-1.6-.4-3.2-.8-5-.8s-6,.4-6,2.6c0,1.2.5,1.7,2.5,2.2ZM160.8,96.7c2.4,3,4.3,6.4,6,9.9l-5.4,3c-1.7-3.2-3.5-6.7-6-10l5.3-2.9Z"/>
            <path d="M141.3,170.4c-.1,2.2-.1,2.9-.1,8.4,6.8-.2,14-.4,20.5-.6v11.3c-3.2,0-20.5.2-20.5.2-.1,4.8-.2,12.7-.2,16.2.6,2.3.7,3.9.8,5.2,0,.6,0,1.2,0,1.7,0,7.3-3.1,11.3-5,13.4-6.2,7.2-15.3,9-22.8,10-.8-4-2.4-8.2-5.3-11.2,11.2,0,16-1.6,22-6.2-1.9.7-4,1.4-7.1,1.4-6.8,0-12-6.3-12-14.4s4.2-14,13.6-14,2.4,0,4.8.9v-2.6c-4.6.1-24.7.9-28.7,1v-11c15.9-.3,19.9-.4,28.6-.9,0-3.9,0-4.5-.3-8.9h11.7ZM125.7,211.9c1.7,0,4.2-.9,4.2-6.5s-3.3-5.4-4.3-5.4c-2.2,0-4,2.1-4,5.7s0,6.2,4,6.2Z"/>
            <path d="M152.7,237.6c4.7,4.1,8.4,8.4,11.8,12.7l-8.9,7.3c-3.1-4-7.4-8.9-10.9-12.8l8-7.2Z"/>
          </g>
          <g class="cls-19">
            <path d="M73.1,32.9l7.7,8.3c-1,1.4-1.5,2.5-2,3.5-4.6,9-7.2,12.8-9.3,15.8,12,9.7,17.3,17.6,20.8,22.7l-10.1,7.8c-3.3-5-5.7-8.1-8.5-11.6-1.9-2.6-3.8-4.9-9.4-10-11.6,11.9-19.9,16.3-29.2,20.2-1.1-3.1-2.7-6.9-7.2-10.5,21.6-8.3,31.5-21.1,38.3-33.7h-29v-11.8h36.6l1.3-.6Z"/>
            <path d="M47.7,98.5v18.4c6.6-1.2,14.4-2.7,28.2-8.3l7.5,10.9c-17.4,6-24.8,7.3-35.6,8.8v11.7c0,4,2.7,4.5,4.5,4.7,3,.4,9.2.6,12.3.6,6.7,0,10.3-.3,20.1-1.1v12.6c-7.8.6-15,.6-18.8.6-11.4,0-19.9-1.6-23.4-2.7-6.3-2.3-6.7-5.3-6.7-13.7v-42.5h12ZM93.1,101.1c0,5-4.1,9-9,9s-9-4.9-9-9,4.6-9,9-9,9,5.2,9,9ZM80.4,101.1c0,2.4,2,3.6,3.7,3.6s3.6-1.9,3.6-3.6-2.2-3.6-3.6-3.6-3.7,1.7-3.7,3.6Z"/>
            <path d="M86.3,194.5v8h-53.9v-8h53.9Z"/>
            <path d="M56.9,239.5v18.4c14.3,5.1,21,8.4,30.2,13.7l-6.3,10.9c-8.6-5.9-21.5-11.3-23.9-12.3v32.1h-12.6v-62.8h12.6ZM71.7,245c3.2,2.4,6.3,4.9,9.2,8.1l-4.7,4.9c-2.7-2.9-6.1-6-9.1-8.3l4.5-4.7ZM77.5,238.9c3.4,2.2,6.3,4.8,9.3,7.8l-4.8,5.1c-3-3.2-5.7-5.8-9.1-8.1l4.5-4.8Z"/>
          </g>
        </g>
        <g>
          <path class="cls-15" d="M538.1,399c0,10.5-44.8,20.6-138.1,20.6s-138.1-10.1-138.1-20.6,60.6-17.6,138.1-17.6,138.1,7,138.1,17.6Z"/>
          <g>
            <g>
              <path class="cls-3" d="M300.8,401h-10.1c-11,0-17.1-10.1-18.1-22.4-1-12.4-1.8-58.4-1.8-58.4h51.8s-1.7,52.2-3,62.9c-1.2,10.7-8.7,17.9-18.8,17.9Z"/>
              <path class="cls-4" d="M319.6,383.1c1.2-10.7,3-62.9,3-62.9h-21s3.3,8,3.3,9.4c0,36.2-.2,61.3,4.7,69.4,5.5-2.9,9.2-8.5,10.1-15.8h-.1Z"/>
              <path class="cls-6" d="M301.5,401s-4.3-7.2-4.5-45.5"/>
              <path class="cls-6" d="M295.3,401s-6.5-7.2-6.8-45.5"/>
              <path class="cls-6" d="M288.7,401s-9.6-11.9-9.6-45.5"/>
            </g>
            <g>
              <path class="cls-3" d="M499.2,401h10.1c11,0,17.1-10.1,18.1-22.4,1-12.4,1.8-58.4,1.8-58.4h-51.8s1.7,52.2,3,62.9c1.2,10.7,8.7,17.9,18.8,17.9Z"/>
              <path class="cls-4" d="M480.4,383.1c-1.2-10.7-3-62.9-3-62.9h21s-3.3,8-3.3,9.4c0,36.2.2,61.3-4.7,69.4-5.5-2.9-9.2-8.5-10.1-15.8h.1Z"/>
              <path class="cls-6" d="M498.5,401s4.3-7.2,4.5-45.5"/>
              <path class="cls-6" d="M504.7,401s6.5-7.2,6.8-45.5"/>
              <path class="cls-6" d="M511.3,401s9.6-11.9,9.6-45.5"/>
            </g>
            <g>
              <g class="cls-23">
                <g>
                  <path class="cls-18" d="M297.5,272.3l-3.4-3.4s1.7-10.1-1-12.7-18.9.3-21,5.8,2.5,10.4,8,10.4,8.5,1.4,10.3,5.5,8.5-1.7,7-5.5h.1Z"/>
                  <path class="cls-21" d="M295.9,277.6c-1-2.2-4.2-4.5-7.1-5.8-4.2-1.9-9.2.2-14-1.3,1.5,1.1,3.4,1.8,5.5,1.8,5.5,0,8.5,1.4,10.3,5.5,1.1,2.3,3.6,1.5,5.3-.3h0Z"/>
                  <path class="cls-21" d="M283,267.9c4.6.8,8.6,2.2,11.1,1,0,0,.5-2.7.5-5.7-1.6,2.1-14.3,2.3-18.2,1.1-1.7-.5-3.3-.9-4.8-.8,0,1.2.3,3.4.8,4.4.1,0,5.9-.8,10.5,0h.1Z"/>
                  <path class="cls-13" d="M295.1,263.6c-1.2-2.3-1.9-8.7-10.4-6.6-8.5,2.1-12.9,4.6-13.4,6.5l1.6-3.6s10.6-7,19-4.7c3,3.2,3.1,4.4,3.1,8.4h0Z"/>
                </g>
              </g>
              <path class="cls-9" d="M271.7,263.9c4.3-.2,8.5,3.3,8.5,3.8s-6.9-.3-7.7.3c-.8,0-1.7-2.1-.8-4.1h0Z"/>
              <path class="cls-6" d="M297.5,272.3l-3.4-3.4s1.7-10.1-1-12.7-18.9.3-21,5.8,2.5,10.4,8,10.4,8.5,1.4,10.3,5.5,8.5-1.7,7-5.5h.1Z"/>
            </g>
            <g>
              <g class="cls-17">
                <g>
                  <path class="cls-18" d="M502.5,272.3l3.4-3.4s-1.7-10.1,1-12.7c2.7-2.7,18.9.3,21,5.8,2.1,5.5-2.5,10.4-8,10.4s-8.5,1.4-10.3,5.5c-1.9,4.2-8.5-1.7-7-5.5h-.1Z"/>
                  <path class="cls-21" d="M504.1,277.6c1-2.2,4.2-4.5,7.1-5.8,4.2-1.9,9.2.2,14-1.3-1.5,1.1-3.4,1.8-5.5,1.8-5.5,0-8.5,1.4-10.3,5.5-1.1,2.3-3.6,1.5-5.3-.3h0Z"/>
                  <path class="cls-21" d="M517,267.9c-4.6.8-8.6,2.2-11.1,1,0,0-.5-2.7-.5-5.7,1.6,2.1,14.3,2.3,18.2,1.1,1.7-.5,3.3-.9,4.8-.8,0,1.2-.3,3.4-.8,4.4,0,0-5.9-.8-10.5,0h0Z"/>
                  <path class="cls-13" d="M504.9,263.6c1.2-2.3,1.9-8.7,10.4-6.6,8.5,2.1,12.9,4.6,13.4,6.5l-1.6-3.6s-10.6-7-19-4.7c-3,3.2-3.1,4.4-3.1,8.4h-.1Z"/>
                </g>
              </g>
              <path class="cls-9" d="M528.3,263.9c-4.3-.2-8.5,3.3-8.5,3.8s6.9-.3,7.7.3c.8,0,1.7-2.1.8-4.1h0Z"/>
              <path class="cls-6" d="M502.5,272.3l3.4-3.4s-1.7-10.1,1-12.7c2.7-2.7,18.9.3,21,5.8,2.1,5.5-2.5,10.4-8,10.4s-8.5,1.4-10.3,5.5c-1.9,4.2-8.5-1.7-7-5.5h-.1Z"/>
            </g>
            <path class="cls-8" d="M528.5,306.4c-1.3-7.5-9.5-15.8-9.5-15.8-.6-3.9-2.3-5.1-8.2-11.4-6-6.3-7-.6-12.4-16.4-4.2-12-17-28.1-23.6-35.2-2.1-2.3-5-3.7-8-4-8.9-.9-32.1-3.2-66.7-3.2s-57.8,2.3-66.7,3.2c-3.1.3-5.9,1.8-8,4-6.6,7.1-19.4,23.2-23.6,35.2-5.5,15.7-6.5,10-12.4,16.4-6,6.3-7.6,7.5-8.2,11.4,0,0-8.2,8.4-9.5,15.8-1.3,7.5-1.1,47.8,2.5,62,3.7,14.2,7,15.1,10,13.2s17,4.8,51.3,2.5,41.7.5,64.6.5,30.3-2.8,64.6-.5c34.3,2.3,48.3-4.4,51.3-2.5s6.3,1,10-13.2,3.8-54.5,2.5-62h0Z"/>
            <path class="cls-21" d="M400,222.5c-34.7,0-71,7.1-71,7.1h141.9s-36.3-7.1-71-7.1h.1Z"/>
            <path class="cls-21" d="M447.8,265.1c-2.9,0-4.2-1.5-6.8-2.3-2.6-.9-41.1-.7-41.1-.7,0,0-38.5-.2-41.1.7-2.6.9-3.9,2.3-6.8,2.3h-44.2s9.3,5.9,21,5.9,34.6-7.1,38.8-2.5c2.4-2.7,13.7-4.7,32.3-4.7s29.9,2.1,32.3,4.7c4.2-4.6,27.1,2.5,38.8,2.5s21-5.9,21-5.9h-44.2,0Z"/>
            <path class="cls-21" d="M287.8,310.2c-1.9,2.1.6,4.2.6,4.2-5.4-.2-7.9-1.2-8.8-3.4s1.3-3.9,1.7-3.6,6.5,2.8,6.5,2.8h0Z"/>
            <path class="cls-5" d="M275.2,324.3v4c0,1.5.7,2.5,2.9,2.9s34.7,10.7,38,11.9c3.3,1.1,13.9,15,17.2,24.3"/>
            <path class="cls-5" d="M275.2,372.6c22.2,8.1,55,6.6,60.2,11.5"/>
            <path class="cls-5" d="M281.3,307.4s-2.3-.7-3.6,0c-1.3.7-3.4,7.3-6.9,10.4"/>
            <path class="cls-21" d="M305.1,269c17.1,8,35.2,35.6,35.2,35.6,0,0-17.6-21.7-30.7-27.6-9.8-4.4-4.5-8-4.5-8Z"/>
            <path class="cls-21" d="M494.9,269c-17.1,8-35.2,35.6-35.2,35.6,0,0,17.6-21.7,30.7-27.6,9.8-4.4,4.5-8,4.5-8Z"/>
            <path class="cls-5" d="M340.2,304.5s-18-27.6-35.2-35.6"/>
            <path class="cls-5" d="M360.6,262.5s5.1,3.8,8.7,7.5"/>
            <path class="cls-21" d="M355.1,354.1s1.1-3.3-.8-7.8c-1.9-4.4-3.5-3.5-3.5-3.5l4.3,11.3Z"/>
            <line class="cls-5" x1="350.8" y1="342.8" x2="355.1" y2="354.1"/>
            <path class="cls-13" d="M350.1,342.8s.4.6.9,1.7c.5,1,1.1,2.4,1.7,3.8.5,1.4,1,2.9,1.3,4s.4,1.9.4,1.9c0,0-.4-.6-.9-1.7-.5-1-1.1-2.4-1.7-3.8-.5-1.4-1-2.9-1.3-4s-.4-1.9-.4-1.9Z"/>
            <path class="cls-7" d="M466,355.9c-8.5.3-49.4,1.5-66,1.5s-57.4-1.2-66-1.5c-.6,0-1,.7-.6,1.2l7.6,11c2.1,2.7,5.3,4.4,8.7,4.5,10.6.5,35.6,1.6,50.3,1.6s39.6-1.1,50.3-1.6c3.4-.2,6.6-1.8,8.7-4.5l7.6-11c.4-.5,0-1.2-.6-1.2Z"/>
            <path class="cls-7" d="M460,377.9l-1.6-1.1c-.3-.2-.6-.3-1-.3h-114.8c-.3,0-.7.1-1,.3l-1.6,1.1c-.3.2-.5.5-.5.9s.4.9.9.9c5.4.1,34.7.6,59.6.6s54.1-.5,59.6-.6c.5,0,.9-.6.9-.9s-.2-.7-.5-.9h0Z"/>
            <path class="cls-5" d="M478.8,301.6s-7.5-5.1-19.4-7-59.4-2.3-59.4-2.3c0,0-47.5.4-59.4,2.3s-19.4,7-19.4,7"/>
            <path class="cls-7" d="M494.5,260.4c-.8-2.6-12.8-20.5-18-27.5-1.3-1.8-3.4-3-5.6-3.3-11-1.3-46.3-4.8-71-4.8s-59.9,3.5-71,4.8c-2.2.3-4.3,1.4-5.6,3.3-5.1,7-17.2,24.9-18,27.5-1,3.2,0,4.7,2.5,4.7h44.2c2.9,0,4.2-1.5,6.8-2.3,2.6-.9,41.1-.7,41.1-.7,0,0,38.5-.2,41.1.7,2.6.9,3.9,2.3,6.8,2.3h44.2c2.5,0,3.5-1.5,2.5-4.7Z"/>
            <path class="cls-5" d="M524.8,324.3v4c0,1.5-.7,2.5-2.9,2.9s-34.7,10.7-38,11.9-13.9,15-17.2,24.3"/>
            <path class="cls-5" d="M524.8,372.6c-22.2,8.1-55,6.6-60.2,11.5"/>
            <path class="cls-5" d="M518.7,307.4s2.3-.7,3.6,0,3.4,7.3,6.9,10.4"/>
            <path class="cls-5" d="M459.8,304.5s18-27.6,35.2-35.6"/>
            <path class="cls-5" d="M439.4,262.5s-5.1,3.8-8.7,7.5"/>
            <path class="cls-21" d="M444.9,354.1s-1.1-3.3.8-7.8c1.9-4.4,3.5-3.5,3.5-3.5l-4.3,11.3Z"/>
            <line class="cls-5" x1="449.2" y1="342.8" x2="444.9" y2="354.1"/>
            <path class="cls-13" d="M449.9,342.8s-.1.8-.4,1.9-.7,2.5-1.3,4c-.5,1.4-1.2,2.8-1.7,3.8s-.9,1.7-.9,1.7c0,0,.1-.8.4-1.9s.7-2.5,1.3-4c.5-1.4,1.2-2.8,1.7-3.8s.9-1.7.9-1.7Z"/>
            <g>
              <path class="cls-7" d="M477,322.5l-12.8-10.3c-4.9-3.8-10.9-5.8-17.1-5.8h-94.3c-6.2,0-12.2,2-17.1,5.8l-12.8,10.3c-2.1,1.7-2.4,4.7-.7,6.7l1.4,1.8c3,3.7,6.4,6.1,12,7.2,5.8,1.1,33.8,3.8,64.4,3.8s58.5-2.7,64.4-3.8c5.6-1.1,9-3.4,12-7.2l1.4-1.8c1.6-2.1,1.3-5.1-.7-6.7h0Z"/>
              <path class="cls-15" d="M476.4,331l1.4-1.8c1.6-2.1,1.3-5.1-.7-6.7l-12.8-10.3c-4.9-3.8-10.9-5.8-17.1-5.8h-94.3c-6.2,0-12.2,2-17.1,5.8l-12.8,10.3c-2.1,1.7-2.4,4.7-.7,6.7l1.4,1.8c3,3.7,6.4,6.1,12,7.2-8.9-14.4,5.6-23.8,64.4-23.8s73.3,9.4,64.4,23.8c5.6-1.1,9-3.4,12-7.2h0Z"/>
              <g>
                <path class="cls-11" d="M452.4,313h-104.9c-.7,0-5-.5-5-1.1s4.4-1.1,5-1.1h104.9c.7,0,5,.5,5,1.1s-4.4,1.1-5,1.1Z"/>
                <path class="cls-11" d="M459.5,318.7h-119.1c-.7,0-5-.5-5-1.1s4.4-1.1,5-1.1h119.1c.7,0,5,.5,5,1.1s-4.4,1.1-5,1.1Z"/>
                <path class="cls-11" d="M465.5,324.4h-131c-.7,0-5-.5-5-1.1s4.4-1.1,5-1.1h131c.7,0,5,.5,5,1.1s-4.4,1.1-5,1.1Z"/>
                <path class="cls-11" d="M464.5,330h-129c-.7,0-5-.5-5-1.1s4.4-1.1,5-1.1h129c.7,0,5,.5,5,1.1s-4.4,1.1-5,1.1Z"/>
                <path class="cls-11" d="M460.3,335.7h-120.7c-.7,0-5-.5-5-1.1s4.4-1.1,5-1.1h120.7c.7,0,5,.5,5,1.1s-4.4,1.1-5,1.1Z"/>
              </g>
            </g>
            <path class="cls-13" d="M282,315.7s31.7,6.3,36.4,3.9c4.8-2.4,15.7-11.5,22.8-14.4,0,0-11.8,5.7-16.9,9.1s-9.2,4.9-16.1,4.3-26.2-2.9-26.2-2.9h0Z"/>
            <path class="cls-21" d="M282,316.1s32.2,7.9,36.9,5.6,18.4-14.8,21.2-15.5c0,0-11.2,6.4-16.7,10.7-4.9,3.8-7.8,4-14.7,3.4-6.9-.6-26.7-4.1-26.7-4.1h0Z"/>
            <path class="cls-5" d="M518,316.1s-31.7,6.3-36.4,3.9-15.7-11.5-22.8-14.4c-7.1-2.9-39.7-3.2-58.8-3.2s-51.7.3-58.8,3.2-18.1,12-22.8,14.4c-4.8,2.4-36.4-3.9-36.4-3.9"/>
            <ellipse class="cls-10" cx="400" cy="297.2" rx="5.6" ry="2"/>
            <rect class="cls-2" x="366.8" y="344.8" width="66.4" height="20.6"/>
            <path class="cls-21" d="M291.3,319.9s-7.2-.3-10.3-1.8c0,0,2.2,4.1,1.8,7.4-.4,3.3-3.7,3.9-.8,5.5,2.9,1.5,9.5,2.6,11.1,3.7-.3-.2-3.7-1.6-5.1-4.5s-1.6-7.4.4-8.4,2.9-1.8,2.9-1.8h0Z"/>
            <path class="cls-21" d="M285.7,335.7s31.3,8.8,29.9,17.1c0,0-1.4-1.5-4-2.5s-18.6-3.2-22.5-3.3c0,0,8.9-.8,7.7-3s-11-8.2-11-8.2h-.1Z"/>
            <path class="cls-21" d="M319.9,365.1l13.4,2.3s2.4,5.4-.8,7.9c-3.2,2.5-11.3,3.1-11.3,3.1,0,0,4-2.3,1.5-3.6-2.5-1.3-10.3-.5-28.5-6.5,0,0,22.7,5,25.7-3.2h0Z"/>
            <path class="cls-21" d="M272.6,334.6s1.7,3,3.1,3.3c0,0,1.5,7.7,4.3,11.6,0,0-4.1,4.4-3.7,10.4s-3.6-11.4-3.7-25.2h0Z"/>
            <path class="cls-13" d="M282.3,333.4s31.5,9.3,34,10.8c2.6,1.5,5.7,6.3,6.7,9,0,0-2.6-2.7-5.9-5.5s-26.8-11.6-34.8-14.4h0Z"/>
            <path class="cls-13" d="M317.8,358.4s3.6,6.2,9.1,7.6c5.5,1.3,2.8-5.1,2.8-5.1,0,0,4,6.6,3.2,8.1s-9.6,0-12-2.6c-2.3-2.5-3.1-8-3.1-8Z"/>
            <path class="cls-21" d="M512.2,310.2c1.9,2.1-.6,4.2-.6,4.2,5.4-.2,7.9-1.2,8.8-3.4.9-2.2-1.3-3.9-1.7-3.6s-6.5,2.8-6.5,2.8Z"/>
            <path class="cls-13" d="M518,315.7s-31.7,6.3-36.4,3.9-15.7-11.5-22.8-14.4c0,0,11.8,5.7,16.9,9.1s9.2,4.9,16.1,4.3,26.2-2.9,26.2-2.9Z"/>
            <path class="cls-21" d="M518,316.1s-32.2,7.9-36.9,5.6-18.4-14.8-21.2-15.5c0,0,11.2,6.4,16.7,10.7,4.9,3.8,7.8,4,14.7,3.4s26.7-4.1,26.7-4.1h0Z"/>
            <path class="cls-21" d="M508.7,319.9s7.2-.3,10.3-1.8c0,0-2.2,4.1-1.8,7.4s3.7,3.9.8,5.5-9.5,2.6-11.1,3.7c.3-.2,3.7-1.6,5.1-4.5,1.4-2.9,1.6-7.4-.4-8.4s-2.9-1.8-2.9-1.8h0Z"/>
            <path class="cls-21" d="M514.3,335.7s-31.3,8.8-29.9,17.1c0,0,1.4-1.5,4-2.5,2.6-1.1,18.6-3.2,22.5-3.3,0,0-8.9-.8-7.7-3s11-8.2,11-8.2h.1Z"/>
            <path class="cls-21" d="M480.1,365.1l-13.4,2.3s-2.4,5.4.8,7.9c3.2,2.5,11.3,3.1,11.3,3.1,0,0-4-2.3-1.5-3.6,2.5-1.3,10.3-.5,28.5-6.5,0,0-22.7,5-25.7-3.2h0Z"/>
            <path class="cls-21" d="M527.4,334.6s-1.7,3-3.1,3.3c0,0-1.5,7.7-4.3,11.6,0,0,4.1,4.4,3.7,10.4-.4,6,3.6-11.4,3.7-25.2h0Z"/>
            <path class="cls-13" d="M517.7,333.4s-31.5,9.3-34,10.8-5.7,6.3-6.7,9c0,0,2.6-2.7,5.9-5.5,3.3-2.7,26.8-11.6,34.8-14.4h0Z"/>
            <path class="cls-13" d="M482.2,358.4s-3.6,6.2-9.1,7.6-2.8-5.1-2.8-5.1c0,0-4,6.6-3.2,8.1s9.6,0,12-2.6,3.1-8,3.1-8Z"/>
            <path class="cls-13" d="M340.9,304.2s-.5-.6-1.3-1.7c-.4-.5-.9-1.2-1.5-2s-1.3-1.6-2-2.5c-1.5-1.9-3.2-4-5.1-6.3-.9-1.1-1.9-2.3-3-3.5-1-1.2-2.1-2.3-3.2-3.5-1-1.2-2.2-2.3-3.2-3.4-1.1-1.1-2.2-2.1-3.3-3.2-1.1-1-2.2-1.9-3.2-2.8s-2-1.6-3-2.4c-.9-.7-1.8-1.3-2.6-1.9-.8-.6-1.5-1-2.1-1.3-1.2-.7-1.9-1.1-1.9-1.1,0,0,.7.3,2,.9.6.3,1.4.6,2.2,1.2.8.5,1.8,1,2.8,1.7s2,1.5,3.1,2.3c1,.9,2.2,1.8,3.3,2.8,1.1,1,2.2,2,3.3,3.1,1.1,1.1,2.2,2.2,3.3,3.4,1.1,1.2,2.1,2.3,3.1,3.5s2,2.4,2.9,3.5c1,1.1,1.8,2.3,2.6,3.4.8,1.1,1.6,2.1,2.3,3.1,1.4,1.9,2.4,3.6,3.2,4.8.7,1.2,1.1,1.8,1.1,1.8h.2Z"/>
            <path class="cls-13" d="M459.1,304.2s.4-.7,1.1-1.8c.7-1.2,1.8-2.8,3.2-4.8s1.5-2,2.3-3.1,1.7-2.2,2.6-3.4c.9-1.2,1.9-2.3,2.9-3.5s2.1-2.4,3.1-3.5c1.1-1.2,2.2-2.3,3.3-3.4,1.1-1.1,2.3-2.1,3.3-3.1,1.1-1,2.2-1.9,3.3-2.8,1.1-.8,2.1-1.6,3.1-2.3,1-.7,1.9-1.2,2.8-1.7.8-.5,1.6-.9,2.2-1.2,1.2-.6,2-.9,2-.9,0,0-.7.4-1.9,1.1-.6.3-1.3.7-2.1,1.3-.8.6-1.7,1.2-2.6,1.9-.9.7-1.9,1.5-3,2.4-1,.9-2.1,1.9-3.2,2.8-1.1,1-2.2,2.1-3.3,3.2-1.1,1.1-2.2,2.2-3.2,3.4-1.1,1.1-2.1,2.3-3.2,3.5-1,1.2-2,2.3-3,3.5-1.9,2.3-3.6,4.4-5.1,6.3-.7.9-1.4,1.8-2,2.5-.6.8-1.1,1.4-1.5,2-.8,1.1-1.3,1.7-1.3,1.7h.2Z"/>
            <g>
              <path class="cls-13" d="M281.9,317.3s0,.2.2.5c.1.3.3.8.5,1.4s.4,1.3.5,2.1c0,.4.1.8.1,1.2v1.2c0,.4,0,.8-.1,1.2,0,.4-.1.8-.3,1.2-.1.4-.2.7-.4,1-.2.3-.3.6-.5.9-.2.2-.3.5-.5.7s-.3.3-.4.5l-.4.4s.1-.2.3-.4c0-.1.2-.3.4-.5.1-.2.2-.5.3-.7.1-.2.2-.6.3-.9.1-.3.1-.7.2-1v-2.2c0-.4-.1-.7-.2-1.1,0-.4-.2-.7-.3-1-.2-.7-.5-1.3-.7-1.8s-.5-.9-.6-1.2c-.2-.3-.3-.4-.3-.4l1.7-1h.2Z"/>
              <path class="cls-13" d="M277.7,309.9s0,.3.3.8c.2.5.4,1.2.7,2.1.3.8.7,1.8,1.3,2.6.3.4.6.8.9,1.2.4.3.7.5,1.3.8.4.2,1,.4,1.5.6s1.1.3,1.6.5c1.1.3,2.1.5,3,.8,1.8.4,3,.8,3,.8,0,0-1.2.3-3.1.4h-1.5c-.5,0-1.1,0-1.7-.2-.6,0-1.2-.2-1.8-.4-.6-.2-1.2-.4-1.9-.7-.3-.2-.5-.3-.9-.5-.3-.2-.6-.5-.8-.7-.5-.5-.8-1.1-1.1-1.7-.3-.6-.4-1.1-.6-1.7-.1-.5-.2-1.1-.3-1.5-.2-1.9.1-3.1.1-3.1h0Z"/>
            </g>
            <g>
              <path class="cls-13" d="M519.9,318.3s0,.1-.3.4-.4.7-.6,1.2c-.2.5-.5,1.1-.7,1.8,0,.3-.2.7-.3,1,0,.4,0,.7-.2,1.1v2.2c0,.3,0,.7.2,1,0,.3.2.6.3.9s.2.5.3.7.3.4.4.5c.2.3.3.4.3.4,0,0,0-.1-.4-.4,0-.1-.3-.3-.4-.5,0-.2-.3-.4-.5-.7-.2-.2-.3-.5-.5-.9-.2-.3-.3-.7-.4-1,0-.4-.2-.8-.3-1.2,0-.4,0-.8,0-1.2v-1.2c0-.4,0-.8,0-1.2,0-.8.3-1.5.5-2.1s.4-1.1.5-1.4.2-.6.2-.5l1.7,1h.2Z"/>
              <path class="cls-13" d="M522.3,309.9s.3,1.2,0,3.1c0,.5,0,1-.3,1.5,0,.5-.3,1.1-.6,1.7s-.6,1.2-1.1,1.7c-.2.3-.5.5-.8.7-.4.2-.5.3-.9.5-.7.3-1.3.5-1.9.7-.6.2-1.2.3-1.8.4-.6,0-1.1.1-1.7.2h-1.5c-1.9,0-3.1-.4-3.1-.4,0,0,1.2-.4,3-.8.9-.2,1.9-.5,3-.8.5-.1,1.1-.3,1.6-.5s1.1-.4,1.5-.6c.6-.3.9-.5,1.3-.8.3-.3.7-.7.9-1.2.5-.9.9-1.8,1.3-2.6.3-.8.6-1.5.7-2.1.2-.5.3-.8.3-.8h0Z"/>
            </g>
            <path class="cls-21" d="M319.7,323.1s-2.6,2.4-2.6,4.7.7,7.1,9.1,10.4,21.4,3.8,21.4,3.8c0,0-12.7-1.4-18.2-3.9s-12.3-7.5-9.8-15h.1Z"/>
            <path class="cls-21" d="M480.3,323.1s2.6,2.4,2.6,4.7-.7,7.1-9.1,10.4-21.4,3.8-21.4,3.8c0,0,12.7-1.4,18.2-3.9s12.3-7.5,9.8-15h-.1Z"/>
            <path class="cls-13" d="M429.3,272s-7.5,10-10,12.6c0,0,4.7-6.9,6-8.6s4-4,4-4Z"/>
            <path class="cls-21" d="M370.7,272s7.5,10,10,12.6c0,0-4.7-6.9-6-8.6s-4-4-4-4Z"/>
            <path class="cls-21" d="M291.9,280.5s-1.2,8.7,7.1,13.5c0,0-11.7-3.5-12.5-6.6s5.3-6.9,5.3-6.9h.1Z"/>
            <path class="cls-21" d="M508.1,280.5s1.2,8.7-7.1,13.5c0,0,11.7-3.5,12.5-6.6s-5.3-6.9-5.3-6.9h-.1Z"/>
            <path class="cls-21" d="M400,303.7c-7.2,0-47,1.7-47,1.7,0,0,35.7.3,47,.3s47-.3,47-.3c0,0-39.8-1.7-47-1.7Z"/>
            <path class="cls-13" d="M445.5,302.6s-5.7-.1-14.2-.4c-4.3-.1-9.2-.2-14.6-.3-5.3-.1-11-.2-16.7-.2s-11.4,0-16.7.2c-5.3.1-10.3.2-14.6.3-8.5.2-14.2.4-14.2.4,0,0,1.4-.1,3.9-.3,2.5-.2,6-.4,10.3-.6s9.2-.5,14.6-.7c5.3-.2,11-.3,16.7-.3s11.4.2,16.7.3c5.3.2,10.3.4,14.6.7,4.3.2,7.8.5,10.3.6,2.5.2,3.9.3,3.9.3h0Z"/>
            <path class="cls-13" d="M292.7,368.3s.4.1,1.2.4c.8.2,1.9.6,3.2,1,1.3.4,2.9.8,4.6,1.3,1.7.4,3.5.9,5.2,1.3.9.2,1.8.4,2.7.6.9.2,1.8.4,2.6.5.9.1,1.7.3,2.5.4s1.5.2,2.2.3c.7,0,1.3.1,1.9.2.6,0,1,0,1.5.1.8,0,1.3.1,1.3.1h-4.7c-.7,0-1.5,0-2.2-.1-.8,0-1.6-.2-2.5-.3-.9-.1-1.8-.3-2.7-.4-.9-.2-1.8-.4-2.7-.6-1.8-.4-3.6-.9-5.3-1.4-1.7-.5-3.2-1.1-4.5-1.6s-2.4-1-3.1-1.3-1.2-.6-1.2-.6h0Z"/>
            <path class="cls-13" d="M507.3,368.3s-.4.2-1.2.6c-.7.3-1.8.8-3.1,1.3-1.3.5-2.8,1.1-4.5,1.6s-3.5,1-5.3,1.4c-.9.2-1.8.4-2.7.6-.9.2-1.8.3-2.7.4-.9.1-1.7.2-2.5.3-.8,0-1.6.1-2.2.1h-4.7s.5,0,1.3-.1c.4,0,.9,0,1.5-.1.6,0,1.2-.2,1.9-.2s1.4-.2,2.2-.3c.8-.1,1.6-.3,2.5-.4s1.7-.3,2.6-.5,1.8-.4,2.7-.6c1.8-.4,3.6-.9,5.2-1.3,1.7-.4,3.2-.9,4.6-1.3,1.3-.4,2.4-.7,3.2-1,.8-.2,1.2-.4,1.2-.4h0Z"/>
            <g>
              <path class="cls-7" d="M309.9,351.7c1.6.4,2.9,1.4,3.7,2.8,1.8,3.2,4.5,9,4.2,10.6-.4,2.3-5.8,3.3-8.9,3.2-3,0-27.3-3.9-29.3-6.6s2.3-11.1,6.1-13.1c3-1.6,18.2,1.8,24.2,3.2h0Z"/>
              <path class="cls-15" d="M317.8,365.1c.2-1.3-1.4-5.2-3-8.3.8,5.7-11.8,11.2-15.1,2.4-4-10.8-14-6.8-14-6.8,0,0-2.8,11.6-4.4.9-1.8,3.1-2.9,6.8-1.7,8.4,2,2.7,26.2,6.5,29.3,6.6,3,0,8.5-.9,8.9-3.2h0Z"/>
              <circle class="cls-9" cx="292.2" cy="356.8" r="7.9"/>
              <circle class="cls-9" cx="292.2" cy="356.8" r="5.3"/>
              <path class="cls-20" d="M296.1,356.8v.8c0,.5-.2,1.3-.8,2-.6.7-1.6,1.4-2.8,1.5h-.9c-.3,0-.6,0-.9-.2-.6-.2-1.2-.6-1.6-1s-.8-1-1-1.6-.3-1.3-.2-1.8c.1-1.2.8-2.2,1.5-2.8.7-.6,1.5-.8,2-.8h.8s-.3,0-.8.2c-.2,0-.5.2-.8.4-.3.2-.6.4-.9.7-.6.6-1,1.5-1,2.4s0,1,.2,1.5.5.9.8,1.3c.4.4.8.6,1.3.8.2,0,.5.2.7.2h.8c1,0,1.8-.5,2.4-1,.3-.3.5-.6.7-.9s.3-.6.4-.8c.1-.5.2-.8.2-.8h-.1Z"/>
              <path class="cls-20" d="M296.1,356.8v.8c0,.5-.2,1.3-.8,2-.6.7-1.6,1.4-2.8,1.5h-.9c-.3,0-.6,0-.9-.2-.6-.2-1.2-.6-1.6-1s-.8-1-1-1.6-.3-1.3-.2-1.8c.1-1.2.8-2.2,1.5-2.8.7-.6,1.5-.8,2-.8h.8s-.3,0-.8.2c-.2,0-.5.2-.8.4-.3.2-.6.4-.9.7-.6.6-1,1.5-1,2.4s0,1,.2,1.5.5.9.8,1.3c.4.4.8.6,1.3.8.2,0,.5.2.7.2h.8c1,0,1.8-.5,2.4-1,.3-.3.5-.6.7-.9s.3-.6.4-.8c.1-.5.2-.8.2-.8h-.1Z"/>
              <path class="cls-12" d="M297,361.5l-.2.3c-.2.2-.4.4-.8.7-.4.3-.8.6-1.4.8-.6.3-1.3.4-2,.5-1.5.1-3.5-.3-5-1.5-.2-.2-.4-.3-.6-.5l-.5-.5c-.3-.4-.6-.8-.8-1.3-.5-.9-.7-2-.7-3.1s.3-2.1.7-3.1c.4-.9,1.1-1.8,1.9-2.4,1.6-1.3,3.5-1.7,5-1.5.8,0,1.5.2,2,.5.6.2,1,.5,1.4.8.3.3.6.5.8.7.2.2.2.3.2.3l-.3-.2c-.2-.2-.5-.3-.8-.6-.4-.2-.8-.4-1.4-.6s-1.2-.3-1.9-.3c-1.4,0-3.1.5-4.4,1.6-.7.6-1.2,1.3-1.6,2.1-.4.8-.6,1.7-.6,2.7s.2,1.8.6,2.7c.2.4.4.8.7,1.1.1.2.3.4.4.5.1.2.3.3.5.5,1.3,1.2,3,1.7,4.4,1.6.7,0,1.4-.1,1.9-.3.6-.2,1-.4,1.4-.6s.6-.4.8-.6c.2-.1.3-.2.3-.2h0Z"/>
            </g>
            <g>
              <path class="cls-7" d="M490.1,351.7c-1.6.4-2.9,1.4-3.7,2.8-1.8,3.2-4.5,9-4.2,10.6.4,2.3,5.8,3.3,8.9,3.2s27.3-3.9,29.3-6.6-2.3-11.1-6.1-13.1c-3-1.6-18.2,1.8-24.2,3.2h0Z"/>
              <path class="cls-15" d="M482.2,365.1c-.2-1.3,1.4-5.2,3-8.3-.8,5.7,11.8,11.2,15.1,2.4,4-10.8,14-6.8,14-6.8,0,0,2.8,11.6,4.4.9,1.8,3.1,2.9,6.8,1.7,8.4-2,2.7-26.2,6.5-29.3,6.6-3,0-8.5-.9-8.9-3.2h0Z"/>
              <circle class="cls-9" cx="507.8" cy="356.8" r="7.9" transform="translate(74.3 800.9) rotate(-80.8)"/>
              <circle class="cls-9" cx="507.8" cy="356.8" r="5.3"/>
              <path class="cls-20" d="M503.9,356.8s0,.3.2.8c0,.2.2.5.4.8.2.3.4.6.7.9.6.6,1.5,1,2.4,1h.8c.2,0,.5-.1.7-.2.5-.2.9-.5,1.3-.8.4-.4.6-.8.8-1.3.2-.5.3-1,.2-1.5,0-.9-.5-1.8-1-2.4-.3-.3-.6-.5-.9-.7s-.6-.3-.8-.4c-.5-.1-.8-.2-.8-.2h.8c.5,0,1.3.2,2,.8.7.6,1.4,1.6,1.5,2.8,0,.6,0,1.2-.2,1.8-.2.6-.6,1.2-1,1.6s-1,.8-1.6,1c-.3.1-.6.2-.9.2h-.9c-1.2-.1-2.2-.8-2.8-1.5-.6-.7-.8-1.5-.8-2v-.8h-.1Z"/>
              <path class="cls-20" d="M503.9,356.8s0,.3.2.8c0,.2.2.5.4.8.2.3.4.6.7.9.6.6,1.5,1,2.4,1h.8c.2,0,.5-.1.7-.2.5-.2.9-.5,1.3-.8.4-.4.6-.8.8-1.3.2-.5.3-1,.2-1.5,0-.9-.5-1.8-1-2.4-.3-.3-.6-.5-.9-.7s-.6-.3-.8-.4c-.5-.1-.8-.2-.8-.2h.8c.5,0,1.3.2,2,.8.7.6,1.4,1.6,1.5,2.8,0,.6,0,1.2-.2,1.8-.2.6-.6,1.2-1,1.6s-1,.8-1.6,1c-.3.1-.6.2-.9.2h-.9c-1.2-.1-2.2-.8-2.8-1.5-.6-.7-.8-1.5-.8-2v-.8h-.1Z"/>
              <path class="cls-12" d="M503,361.5l.3.2c.2.2.5.3.8.6.4.2.8.4,1.4.6s1.2.3,1.9.3c1.4,0,3.1-.5,4.4-1.6.1-.2.3-.3.5-.5,0-.2.3-.4.4-.5.2-.3.5-.7.7-1.1.4-.8.6-1.7.6-2.7s-.2-1.8-.6-2.7c-.4-.8-.9-1.5-1.6-2.1-1.3-1.1-3-1.7-4.4-1.6-.7,0-1.4.1-1.9.3-.6.2-1,.4-1.4.6s-.6.4-.8.6c-.2.1-.3.2-.3.2l.2-.3c.2-.2.4-.4.8-.7.4-.3.8-.6,1.4-.8.6-.3,1.3-.4,2-.5,1.5-.1,3.4.2,5,1.5.7.6,1.4,1.4,1.9,2.4.5.9.7,2,.7,3.1s-.3,2.1-.7,3.1-.5.9-.8,1.3c-.2.2-.3.4-.5.5-.2.2-.4.3-.6.5-1.5,1.3-3.5,1.7-5,1.5-.8,0-1.5-.2-2-.5-.6-.2-1-.5-1.4-.8-.3-.3-.6-.5-.8-.7-.2-.2-.2-.3-.2-.3h0Z"/>
            </g>
            <g>
              <path class="cls-1" d="M319.3,311.8c-2,1.1-4.5,1.9-6.7,1.7-6.3-.6-20-1.9-24.8-3.3-6.3-1.8-8.2-3.5-8.2-6v-5.8c0-1.6,1.8-3.6,1.8-3.6,0,0-.4-1.6.5-3.8.3-.8,1.2-1.1,2-.8,4.9,2.2,22.8,9.7,38.1,11.5s1.5,7.8-2.7,10.1h0Z"/>
              <g>
                <path class="cls-20" d="M302.6,307s9.8,1.2,6.6,2.4c-3.2,1.2-10.6.8-11.5.6,12.7,3.1,25.8.5,26.6-6.6,0,0-13.5,3.6-21.7,3.6Z"/>
                <path class="cls-14" d="M299.9,310.5h0Z"/>
              </g>
              <path class="cls-20" d="M282.5,292.3c2.4,2.8,10.5,5.7,17,7.8,0,0-10.2-3-10.7-.6s1.6,8.5,5.2,10.4c0,0-8.1-2.3-9.4-6.6-1.3-4.3.6-6.4-2-10.9h-.1Z"/>
              <path class="cls-13" d="M283.9,291.2s.6.2,1.6.6,2.5.9,4.2,1.6c.9.3,1.8.7,2.8,1,1,.4,2.1.7,3.2,1.1s2.2.8,3.4,1.1c1.2.4,2.3.8,3.5,1.1,1.2.4,2.4.7,3.5,1,1.2.3,2.3.6,3.4.9s2.2.5,3.2.8,2,.5,2.9.7,1.8.4,2.5.5,1.4.3,1.9.4c1.1.2,1.7.4,1.7.4,0,0-.6,0-1.7.2-.6,0-1.2.1-2,.2h-4.1c-.5,0-1,0-1.6-.1-1.1-.1-2.3-.2-3.4-.4-1.2-.2-2.4-.4-3.6-.7-1.2-.3-2.5-.6-3.7-1l-1.8-.6c-.6-.2-1.2-.4-1.8-.7-1.2-.4-2.3-.9-3.4-1.4s-2.1-1-3.1-1.5-1.9-1-2.7-1.5c-.8-.5-1.5-1-2.2-1.4-.6-.4-1.2-.9-1.6-1.2-.9-.7-1.3-1.1-1.3-1.1h.2Z"/>
              <path class="cls-13" d="M314.1,311.9s-1.7.3-4.4.4c-1.3,0-2.8,0-4.5-.1-.8,0-1.7-.1-2.5-.3-.9-.1-1.7-.3-2.6-.4-.9-.2-1.7-.3-2.6-.6-.8-.2-1.7-.4-2.4-.7-.8-.2-1.5-.5-2.2-.8s-1.4-.5-2-.8-1.1-.6-1.6-.8c-.5-.3-.9-.5-1.2-.7-.6-.4-1-.7-1-.7,0,0,.4.1,1.2.3.4.1.8.2,1.3.4.5.1,1.1.3,1.7.4.6.2,1.3.3,2,.5s1.5.3,2.2.5c.8.2,1.6.3,2.4.5s1.7.3,2.5.5,1.7.3,2.5.5c.8.1,1.6.3,2.4.4,1.6.3,3.1.5,4.3.7,2.5.4,4.3.8,4.3.8h.2Z"/>
              <path class="cls-13" d="M325.3,304.2h.1s.3,0,.4.3c.1.2.2.5.1.8,0,.3-.1.6-.3.9-.6,1.2-1.7,2.3-3,3.1-1.3.9-2.7,1.5-3.8,1.7-1.1.3-1.9.3-1.9.3,0,0,.6-.6,1.4-1.3.9-.7,2-1.6,3.2-2.4s2.4-1.5,3.2-2.1c.4-.3.6-.6.7-.8,0-.2-.2-.5-.1-.4h0Z"/>
              <path class="cls-13" d="M282.9,293.4c1.4,2.4,5,3,5.6,4.5s-.1,7.1,1.6,8.6c0,0-3.3-1-3.9-4.3s-.5-3.3-1.9-4.8-1.3-4-1.3-4h-.1Z"/>
              <path class="cls-13" d="M282.1,297.4c.8,2.9,1.8,7.6,4.3,9.6,0,0-3.2-2.4-5.3-2,0,0,1.5-.7,1.5-1.8s-1-5.7-.5-5.8h0Z"/>
              <path class="cls-13" d="M304.8,303.4s10.2,1.6,14.2.5,4.4.2,4.1,1.2-6.2,5.6-12.6,5.6c0,0,6.7-1.5,6.4-3.6s-6.5-.6-12.1-3.7Z"/>
              <path class="cls-13" d="M296.4,297.3s.4-.2,1.3-.3c.4,0,1,0,1.6.1s1.3.4,1.9.8c.7.4,1.3,1,1.8,1.8s.9,1.8,1.1,2.8v1.6c0,.7-.2,1.2-.4,1.7-.3,1.1-1,2.1-1.8,3-.8.8-1.9,1.5-3,1.8-1.1.4-2.3.4-3.2.3-2.2-.3-3.8-1.6-4.7-2.9-.4-.7-.7-1.3-.8-1.9-.2-.6-.1-1.1-.1-1.6s.1-.7.2-1v-.3s0,.1.1.3c0,.2.2.5.4.8.2.3.4.7.7,1.1.3.4.7.7,1.2,1,.9.6,2.1,1,3.2.9.7,0,1.2-.2,1.7-.4.5-.2,1-.6,1.4-1s.7-.9,1-1.4c.1-.3.2-.6.3-.8h0v-.9c0-1.2-.3-2.3-.9-3.2-.3-.4-.7-.9-1-1.2-.4-.3-.7-.6-1.1-.7-.3-.2-.6-.3-.8-.4-.2,0-.3-.1-.3-.1h.2Z"/>
              <path class="cls-20" d="M298.8,304s0,.3-.1.8-.5,1.2-1.2,1.7c-.7.6-1.9,1-3.1.7-.2,0-.3,0-.5-.1-.1,0-.2,0-.4-.1-.3-.1-.6-.3-.9-.5-.5-.4-1-.9-1.3-1.5s-.5-1.3-.5-1.9.2-1.3.4-1.8c.6-1.2,1.5-1.8,2.4-2.1.9-.3,1.7-.1,2.1,0,.2,0,.4.2.5.2s.2.1.2.1h-.7c-.4,0-1,.2-1.6.6-.3.2-.5.4-.8.7-.2.3-.4.6-.5,1s-.1.8-.1,1.1.1.8.3,1.1c.2.3.4.6.7.9.1.1.3.2.4.3,0,0,.2.1.3.2h.2c.7.2,1.5.2,2.1,0s1.1-.6,1.4-.9c.1-.2.3-.3.3-.4s.1-.2.1-.2h.3Z"/>
            </g>
            <g>
              <path class="cls-1" d="M480.7,311.8c2,1.1,4.5,1.9,6.7,1.7,6.3-.6,20-1.9,24.8-3.3,6.3-1.8,8.2-3.5,8.2-6v-5.8c0-1.6-1.8-3.6-1.8-3.6,0,0,.4-1.6-.5-3.8s-1.2-1.1-2-.8c-4.9,2.2-22.8,9.7-38.1,11.5-12,1.4-1.5,7.8,2.7,10.1h0Z"/>
              <g>
                <path class="cls-20" d="M497.4,307s-9.8,1.2-6.6,2.4,10.6.8,11.5.6c-12.7,3.1-25.8.5-26.6-6.6,0,0,13.5,3.6,21.7,3.6Z"/>
                <path class="cls-14" d="M500.1,310.5h0Z"/>
              </g>
              <path class="cls-20" d="M517.5,292.3c-2.4,2.8-10.5,5.7-17,7.8,0,0,10.2-3,10.7-.6s-1.6,8.5-5.2,10.4c0,0,8.1-2.3,9.4-6.6s-.6-6.4,2-10.9h0Z"/>
              <path class="cls-13" d="M516.1,291.2s-.5.5-1.3,1.1c-.4.3-1,.8-1.6,1.2-.6.4-1.4.9-2.2,1.4-.8.5-1.7,1-2.7,1.5s-2,1-3.1,1.5-2.2,1-3.4,1.4c-.6.2-1.2.4-1.8.7l-1.8.6c-1.2.4-2.5.7-3.7,1s-2.4.5-3.6.7-2.3.3-3.4.4c-.5,0-1.1.1-1.6.1h-4.1c-.8,0-1.5-.1-2-.2-1.1-.1-1.7-.2-1.7-.2,0,0,.6-.2,1.7-.4.5-.1,1.2-.2,1.9-.4.7-.2,1.6-.3,2.5-.5s1.9-.4,2.9-.7c1-.3,2.1-.5,3.2-.8s2.3-.6,3.4-.9c1.2-.3,2.4-.6,3.5-1,1.2-.3,2.4-.7,3.5-1.1,1.2-.4,2.3-.8,3.4-1.1,1.1-.4,2.2-.8,3.2-1.1,1-.4,1.9-.7,2.8-1,1.8-.7,3.2-1.2,4.2-1.6s1.6-.6,1.6-.6h.2Z"/>
              <path class="cls-13" d="M485.9,311.9s1.7-.3,4.3-.8c1.3-.2,2.8-.5,4.3-.7.8-.1,1.6-.3,2.4-.4.8-.2,1.7-.3,2.5-.5s1.7-.3,2.5-.5,1.6-.3,2.4-.5,1.5-.3,2.2-.5,1.4-.3,2-.5,1.2-.3,1.7-.4.9-.3,1.3-.4c.7-.2,1.2-.3,1.2-.3,0,0-.4.3-1,.7s-.7.5-1.2.7c-.5.3-1,.5-1.6.8s-1.3.6-2,.8c-.7.3-1.5.5-2.2.8-.8.3-1.6.5-2.4.7s-1.7.4-2.6.6c-.9.1-1.7.3-2.6.4s-1.7.2-2.5.3c-1.6.1-3.2.2-4.5.1-2.6,0-4.4-.4-4.4-.4h.2Z"/>
              <path class="cls-13" d="M474.7,304.2s-.2.2-.1.4c0,.2.3.5.7.8.8.6,2,1.4,3.2,2.1,1.2.8,2.4,1.6,3.2,2.4.9.7,1.4,1.3,1.4,1.3,0,0-.8,0-1.9-.3s-2.5-.9-3.8-1.7c-1.3-.9-2.4-2-3-3.1-.1-.3-.2-.6-.3-.9,0-.3,0-.6.1-.8.1-.2.3-.3.4-.3h.1,0Z"/>
              <path class="cls-13" d="M517.1,293.4c-1.4,2.4-5,3-5.6,4.5-.5,1.4.1,7.1-1.6,8.6,0,0,3.3-1,3.9-4.3.7-3.3.5-3.3,1.9-4.8,1.4-1.4,1.3-4,1.3-4h0Z"/>
              <path class="cls-13" d="M517.9,297.4c-.8,2.9-1.8,7.6-4.3,9.6,0,0,3.2-2.4,5.3-2,0,0-1.5-.7-1.5-1.8s1-5.7.5-5.8h0Z"/>
              <path class="cls-13" d="M495.2,303.4s-10.2,1.6-14.2.5-4.4.2-4.1,1.2,6.2,5.6,12.6,5.6c0,0-6.7-1.5-6.4-3.6s6.5-.6,12.1-3.7Z"/>
              <path class="cls-13" d="M503.6,297.3s-.1,0-.3.1c-.2,0-.5.2-.8.4-.3.2-.7.4-1.1.7-.4.3-.7.7-1,1.2-.6.9-1,2.1-.9,3.2v.9h0c0,.3.1.6.3.8.2.5.6,1,1,1.4s.9.7,1.4,1c.6.2,1.1.4,1.7.4,1.1,0,2.3-.3,3.2-.9.4-.3.9-.7,1.2-1,.3-.4.6-.7.7-1.1.2-.3.3-.6.4-.8,0-.2.1-.3.1-.3v.3c0,.2.1.5.2,1,0,.4,0,1-.1,1.6s-.4,1.3-.8,1.9c-.9,1.3-2.5,2.6-4.7,2.9-1,.1-2.2,0-3.2-.3-1.1-.3-2.1-1-3-1.8-.8-.8-1.4-1.9-1.8-3-.2-.5-.3-1.1-.3-1.7v-1.6c.2-1.1.6-2,1.1-2.8s1.2-1.4,1.8-1.8c.7-.4,1.3-.7,1.9-.8.6-.2,1.1-.1,1.6-.1.9,0,1.3.3,1.3.3h0Z"/>
              <path class="cls-20" d="M501.2,304v.2c.1.1.3.2.4.4.3.3.8.7,1.4.9.6.2,1.4.3,2.1,0h.2s.3-.1.3-.2c.1,0,.3-.2.4-.3.3-.2.5-.5.7-.9.2-.3.3-.7.3-1.1s0-.7-.1-1.1c-.1-.3-.3-.7-.5-1s-.5-.5-.8-.7c-.6-.4-1.2-.6-1.6-.6h-.7.2c.1-.1.3-.3.5-.3.5-.2,1.2-.3,2.1,0s1.9.9,2.4,2.1c.2.5.4,1.2.4,1.8s-.2,1.3-.5,1.9-.8,1.1-1.3,1.5c-.3.2-.5.4-.9.5-.2,0-.3,0-.4.1-.2,0-.3,0-.5.1-1.2.2-2.4-.2-3.1-.7-.7-.6-1.1-1.3-1.2-1.7-.1-.5-.1-.8-.1-.8h.3Z"/>
            </g>
          </g>
        </g>
      </g>
    </g>
  </g>
</svg>