<?xml version="1.0" encoding="UTF-8"?>
<svg xmlns="http://www.w3.org/2000/svg" version="1.1" viewBox="0 0 800 600">
  <defs>
    <style>
      .cls-1 {
        stroke: #f2958c;
      }

      .cls-1, .cls-2, .cls-3, .cls-4, .cls-5, .cls-6, .cls-7, .cls-8, .cls-9, .cls-10, .cls-11, .cls-12, .cls-13, .cls-14, .cls-15, .cls-16 {
        stroke-miterlimit: 10;
      }

      .cls-1, .cls-17, .cls-18, .cls-16 {
        fill: #bd1622;
      }

      .cls-2, .cls-19, .cls-4, .cls-5, .cls-6, .cls-7, .cls-9, .cls-11, .cls-12, .cls-13, .cls-18, .cls-20, .cls-14, .cls-15, .cls-16 {
        stroke: #000;
      }

      .cls-2, .cls-8, .cls-10 {
        fill: none;
      }

      .cls-21 {
        fill: #6f6f6e;
      }

      .cls-3 {
        fill: #67a9dd;
        stroke: #fff;
      }

      .cls-22, .cls-4 {
        fill: #b1b1b1;
      }

      .cls-19 {
        stroke-linejoin: round;
      }

      .cls-19, .cls-23, .cls-14 {
        fill: #1d1d1b;
      }

      .cls-24, .cls-7 {
        fill: #fff;
      }

      .cls-5, .cls-20, .cls-25 {
        fill: #3c3c3b;
      }

      .cls-6, .cls-26 {
        fill: #c6c6c5;
      }

      .cls-8, .cls-10 {
        stroke: #422918;
      }

      .cls-9 {
        stroke-width: 2px;
      }

      .cls-9, .cls-27 {
        fill: #e20613;
      }

      .cls-10 {
        stroke-linecap: round;
      }

      .cls-11 {
        fill: #252626;
      }

      .cls-28 {
        isolation: isolate;
      }

      .cls-12, .cls-29 {
        fill: #9c9b9b;
      }

      .cls-13, .cls-30 {
        fill: #d9d9d9;
      }

      .cls-31 {
        fill: #868686;
      }

      .cls-18 {
        stroke-miterlimit: 10;
        stroke-width: 1px;
      }

      .cls-20 {
        stroke-miterlimit: 10;
        stroke-width: 1px;
      }

      .cls-32, .cls-15 {
        fill: #ed6d69;
      }

      .cls-33 {
        fill: #f5f5f5;
      }

      .cls-34 {
        fill: #ffe424;
      }

      .cls-15 {
        stroke-width: .8px;
      }
    </style>
  </defs>
  <!-- Generator: Adobe Illustrator 28.7.4, SVG Export Plug-In . SVG Version: 1.2.0 Build 166)  -->
  <g>
    <g id="Layer_1">
      <g id="Layer_1-2" data-name="Layer_1">
        <rect class="cls-34" x="-49.6" y="-115" width="978" height="746"/>
        <g>
          <path class="cls-23" d="M273.3,508.3c36.9,5.5,95.9,12.5,178.1-.9,81.9-13.4,97.1-9.9,105.1-24.5,14.6-26.8-159.4-62.6-235.5-84.9-76.2-22.4-230,46.2-198.7,72.8,31.3,26.6,112.5,31.8,151.1,37.6h-.1Z"/>
          <g>
            <path class="cls-23" d="M353.5,482.7c-31,2.4-111-22.9-111-22.9l22.3-83.3,66.8-.4,21.9,106.6h0Z"/>
            <path class="cls-11" d="M380.5,449.5c0,27-16.7,54.1-63.8,54.1s-43.4-21.9-43.4-49,19.4-49,43.4-49,63.8,16.8,63.8,43.8h0Z"/>
            <ellipse class="cls-5" cx="316.7" cy="454.6" rx="43.4" ry="49"/>
            <ellipse class="cls-23" cx="314.1" cy="454.6" rx="33.7" ry="38"/>
            <ellipse class="cls-24" cx="312.8" cy="454.6" rx="31.9" ry="36.2"/>
            <ellipse class="cls-30" cx="312.8" cy="454.6" rx="29.4" ry="33.3"/>
            <ellipse class="cls-22" cx="314.9" cy="453.8" rx="28.6" ry="32.5"/>
            <ellipse class="cls-30" cx="314.9" cy="453.8" rx="17.5" ry="19.8"/>
            <ellipse class="cls-29" cx="314.9" cy="453.8" rx="6.8" ry="7.7"/>
            <ellipse class="cls-24" cx="315.9" cy="452.7" rx="5.1" ry="5.8"/>
            <g>
              <path class="cls-11" d="M147.3,464.9c11.1,3.6,29.7,1.8,33.5-23.9,3.8-25.7-14.3-53.9-35.9-50.4-21.6,3.6,2.4,74.3,2.4,74.3h0Z"/>
              <ellipse class="cls-20" cx="143.4" cy="428.6" rx="9.3" ry="36.4" transform="translate(-46.9 18.7) rotate(-6.4)"/>
              <ellipse class="cls-24" cx="142.8" cy="430.2" rx="6.3" ry="24.8" transform="translate(-47.1 18.6) rotate(-6.4)"/>
              <ellipse class="cls-22" cx="142.9" cy="430.9" rx="5.3" ry="23.1" transform="translate(-47.1 18.6) rotate(-6.4)"/>
              <path class="cls-30" d="M140,408c.7,0,1.3.4,2,1.3h-.6c-2.8.3-3.9,10.3-2.6,22.3,1.3,12,4.7,21.5,7.5,21.2h.2c-.4.7-.9,1.1-1.4,1.2-2.9.3-6.4-9.7-7.9-22.4-1.4-12.7-.2-23.2,2.7-23.5h.1Z"/>
              <ellipse class="cls-30" cx="142.9" cy="430.9" rx="3.9" ry="17.1" transform="translate(-47.1 18.6) rotate(-6.4)"/>
              <ellipse class="cls-29" cx="142.8" cy="430.2" rx="1.5" ry="5.8" transform="translate(-47.1 18.6) rotate(-6.4)"/>
              <ellipse class="cls-24" cx="143.3" cy="430.1" rx="1" ry="3.8" transform="translate(-47 18.6) rotate(-6.4)"/>
            </g>
            <path class="cls-9" d="M444.3,352.6s-44.9-29.3-68.6-37.8-82.7-13.4-128.9-12.7-83.8,22.5-86.4,25.1c-2.6,2.6-7.5,18.9-12.1,25.2-4.6,6.2-11,4-13.6,12.1s.7,15.6,0,20.2-5.6,19.7-2.4,39c0,0-1.8-31,9.8-31.2s22.2,34.6,22.9,40.3.9,11.8.9,11.8c0,0,66.5,17.4,110.1,25.7,0,0-7.5-53.5,12.8-66.4s46.6,12.4,53,45.9c6.5,33.6,4.3,32.6,11.6,32.7,7.3.1,50.8-1.4,115.1-8.5,64.4-7.2,81.4-5,72.1-20.4,0,0,6-22.9,2.4-35,0,0-1.7-28.2-33.7-42.6-34-15.4-65.1-23.4-65.1-23.4h.1Z"/>
            <path class="cls-10" d="M445.9,396.7c-4.9-.2-4.9,1.2-12.4.9"/>
            <path class="cls-24" d="M294.8,369.7s-1.4-2.3-3.9-6.3-6.3-9.6-10.9-16.1c-1.2-1.6-2.4-3.3-3.7-5.1-1.3-1.7-2.7-3.5-4.1-5.3-2.9-3.6-5.9-7.4-9.4-11.1-1.7-1.9-3.5-3.6-5.4-5.4-.9-.9-2-1.7-2.9-2.5-1-.9-2-1.6-3.1-2.4l-1.6-1.1-1.7-1c-1.2-.6-2.3-1.2-3.6-1.7-2.5-1-5-1.7-7.6-2.3-5.2-1.1-10.6-1.4-15.8-1.2-5.3.3-10.4,1.1-15.3,2.3-9.8,2.4-18.4,6.1-25.5,9.9-3.5,1.9-6.7,3.9-9.4,5.6-2.7,1.8-5,3.5-6.9,4.9-.9.7-1.8,1.4-2.5,1.9-.7.6-1.3,1.1-1.8,1.5-1,.8-1.5,1.2-1.5,1.2,0,0,.5-.4,1.5-1.3.5-.4,1.1-.9,1.8-1.5s1.5-1.2,2.4-2c1.8-1.5,4.1-3.2,6.8-5.1,2.7-1.8,5.8-3.9,9.4-5.8,7-3.9,15.7-7.9,25.6-10.3,4.9-1.2,10.1-2.1,15.4-2.4,5.3-.3,10.8,0,16.1,1.1,2.7.6,5.3,1.4,7.8,2.4,1.3.5,2.5,1.1,3.7,1.7l1.7,1,1.6,1.2c1.1.8,2.2,1.5,3.2,2.4s2,1.7,3,2.6c1.9,1.8,3.7,3.6,5.4,5.5,3.5,3.7,6.5,7.5,9.3,11.2,1.4,1.9,2.7,3.7,4,5.4,1.3,1.8,2.5,3.5,3.6,5.1,4.6,6.6,8.1,12.4,10.6,16.4,2.4,4,3.8,6.4,3.8,6.4v.2Z"/>
            <path class="cls-24" d="M535.6,410.7s-1.1.2-3.1.5-4.8.7-8.2,1.1-7.4,1-11.6,1.5c-4.3.5-8.8,1-13.4,1.5-4.6.4-9.1.8-13.4,1.2-4.3.4-8.3.6-11.7.8-3.4.2-6.3.2-8.3.3h-3.1s1.1,0,3.1-.1c1,0,2.2-.2,3.6-.3,1.4-.1,3-.3,4.7-.4,1.7-.2,3.6-.3,5.5-.5,2-.2,4-.4,6.2-.6,4.3-.4,8.8-.9,13.4-1.4s9.1-.9,13.4-1.4c4.3-.4,8.3-.8,11.7-1.1,3.4-.3,6.3-.6,8.3-.8,2-.2,3.1-.3,3.1-.3h-.2Z"/>
            <path class="cls-24" d="M473.2,462s.4.1,1.1.2h3.1c2.7-.2,6.5-.6,11.1-1.1s9.9-1.2,15.6-2c2.8-.4,5.8-.8,8.7-1.3,3-.5,6-1,9-1.7.7-.2,1.5-.3,2.2-.6.7-.2,1.5-.5,1.9-.8h0c0-.1.2-.3.2-.3l.2-.4c0-.3.3-.7.4-1,.3-.7.5-1.4.7-2.1.9-2.9,1.7-5.7,2.4-8.5,1.4-5.6,2.5-10.8,3.4-15.3s1.6-8.3,1.9-10.9c.4-2.7.4-4.2.4-4.2,0,0,0,1.5-.2,4.2-.3,2.7-.8,6.5-1.6,11s-1.8,9.8-3.1,15.4c-.7,2.8-1.4,5.7-2.3,8.6-.2.7-.5,1.5-.7,2.2,0,.4-.3.7-.5,1.1l-.3.6-.2.2v.2h-.3c-.8.7-1.5.9-2.3,1.1-.7.2-1.5.4-2.3.6-3,.7-6,1.2-9,1.7s-5.9.9-8.8,1.3c-5.7.8-11,1.3-15.6,1.7-4.6.4-8.4.6-11.1.7h-3.1c-.7,0-1.1-.2-1.1-.2l.2-.4Z"/>
            <path class="cls-24" d="M275,468.2s-.4-2.3-.8-6.3-.8-9.7-.8-16.6.1-7.2.4-11.1.8-8.1,1.8-12.3c1-4.2,2.4-8.5,4.6-12.5s2.5-3.9,4.2-5.5c.8-.8,1.7-1.6,2.7-2.2.5-.3,1-.6,1.5-.9s1-.6,1.5-.8c4.2-2.1,9-2.9,13.6-2.2,4.6.7,8.7,2.7,12.3,5.1,3.6,2.5,6.6,5.4,9.2,8.4s4.7,6.1,6.6,9c3.7,5.9,5.9,11.2,7.4,14.9.7,1.9,1.2,3.4,1.6,4.4.3,1,.5,1.6.5,1.6,0,0-.2-.5-.6-1.5s-1-2.5-1.7-4.3c-1.6-3.7-4-8.9-7.7-14.6-1.9-2.9-4-5.9-6.6-8.8s-5.6-5.8-9.1-8.2c-3.5-2.4-7.6-4.3-12-4.9-4.4-.7-9,.1-13,2.2-2,1-3.9,2.2-5.5,3.8-1.6,1.6-2.9,3.4-4,5.3-2.2,3.9-3.6,8.1-4.6,12.2-1.9,8.3-2.4,16.4-2.5,23.2,0,6.9.2,12.6.5,16.6s.6,6.3.6,6.3v-.3Z"/>
            <path class="cls-24" d="M419.7,455.2s.4-.7,1.1-2,1.7-3.1,3.1-5.2c1.3-2.1,2.9-4.5,4.8-7s4-5.1,6.1-7.6c2.2-2.5,4.5-4.9,6.8-7s4.6-4,6.7-5.3c2.1-1.4,4.1-2.2,5.5-2.5.7-.2,1.3-.2,1.7-.2h.6-.6c-.4,0-.9.1-1.6.3-.7.2-1.5.5-2.4,1s-1.8,1.1-2.8,1.8c-2,1.4-4.2,3.3-6.4,5.5-2.2,2.1-4.5,4.6-6.6,7.1-2.2,2.5-4.3,5-6.2,7.5-1.9,2.4-3.6,4.8-5,6.8s-2.6,3.7-3.4,5c-.8,1.2-1.2,1.9-1.2,1.9h-.2Z"/>
            <path class="cls-24" d="M528.1,392s-1.3,0-3.6.1c-2.3,0-5.5.2-9.5.2h-6.3c-1.1,0-2.3,0-3.5-.3-1.3-.1-2.4-.7-3.5-1.2s-2.2-.9-3.5-1.1c-1.2-.2-2.5-.2-3.7,0-1.2.1-2.4.5-3.4,1.3-1,.7-2.2,1.5-3.5,2-.3.1-.6.2-1,.3l-1,.2-2,.3c-1.3.1-2.6.3-3.9.4-2.6.2-5.1.4-7.5.5-4.9.3-9.5.5-13.4.7s-7.2.3-9.5.4c-2.3,0-3.6.1-3.6.1,0,0,5.2-.4,13-.9,3.9-.3,8.5-.6,13.3-.9,2.4-.2,5-.4,7.5-.6,1.3-.1,2.6-.2,3.9-.4l1.9-.3,1-.2c.3,0,.6-.2.9-.3,1.2-.4,2.2-1.1,3.3-1.9.6-.4,1.2-.7,1.8-.9.6-.2,1.3-.4,2-.4,1.3-.1,2.6-.1,3.9,0,1.3.2,2.5.6,3.6,1.2,1.1.5,2.2,1.1,3.3,1.2,1.1.2,2.3.2,3.4.3,2.2.1,4.4.2,6.3.2,7.8.1,13.1.1,13.1.1h.2Z"/>
            <path class="cls-4" d="M337.7,378.1s12.8,17.6,21.6,21.1c8.8,3.5,62.9,14.3,70.1,12.3s9.5-5,9.5-7.7-13.8-13.5-18.6-15.7c-4.8-2.2-56.4-14.4-82.6-10h0Z"/>
            <path class="cls-31" d="M435.9,405.9c-1.5,4.6-10.1,6-19.5,4.7-28.1-3.9-56-11.4-56-11.4,0,0,36.5,7.4,54.6,8.1,18,.6,20.9-1.4,20.9-1.4h0Z"/>
            <path class="cls-31" d="M380.6,385.5s-23.3-5.2-31.2-3.2c-7.9,2,0,8,12.3,11.4,0,0-12.2-4.5-5.6-6.8s24.5-1.3,24.5-1.3h0Z"/>
            <path class="cls-21" d="M375.5,390.7c-3.2,1.5-3,8.8,9.3,11.1,0,0-5.7-3.6-5.6-6,0-2.4,3.8-4.9,3.8-4.9,0,0-5.1-1.3-7.5-.2h0Z"/>
            <path class="cls-21" d="M397.3,388.2c4.8.9,8,3.4,7.2,7.3s-5.5,6.4-9.1,6.4c0,0,6.2-1.5,5.9-6.4s-3.9-7.3-3.9-7.3h-.1Z"/>
            <path class="cls-19" d="M294.8,370.8s-25.6-44-44.7-55.8c-19.1-11.8-57.2-8.3-91.9,21.6,0,0-4,10,2.9,13.3,6.5,3,133.7,20.9,133.7,20.9Z"/>
            <path class="cls-5" d="M462.7,418.6c5.2,17.1,7.8,42.1,10.5,43.5,2.6,1.4,50.6-4.4,53.1-7.2,2.5-2.8,9.4-34.8,9.4-43.1,0,0-59.4,7.1-72.9,6.8h-.1Z"/>
            <path class="cls-23" d="M505.9,459.2c10.3-1.5,19.3-3.1,20.3-4.3,2.5-2.8,9.4-34.8,9.4-43.1,0,0-34.1,4.1-56.5,5.9,14.7,1.7,31.7,4.7,37.8,9.8,8.9,7.5,5.8,23.9-10.9,31.7h-.1Z"/>
            <path class="cls-4" d="M498.4,371.3s27.1,12.1,31.3,21.1,10,19.3,11,16.3c1.1-3.1-.2-19.4-8.8-26.3-8.5-7-33.6-11.1-33.6-11.1h0Z"/>
            <path class="cls-21" d="M534,389.4s3.9,2.5,4,5.9c0,3.4-3.4,5.2-3.4,5.2,0,0,2.1-2.3,1.7-4.8-.4-2.4-2.3-6.3-2.3-6.3h0Z"/>
            <path class="cls-5" d="M539.1,415.1s-4.1,24.9-6.2,31.2,0,6.5,2.8,5.5c2.9-1,11-9.5,3.4-36.7Z"/>
            <path class="cls-23" d="M539.1,415.1s-1.3,8-2.8,16.1c2.7,1.3,6.1,13.6-2.9,21.1.6,0,1.4,0,2.3-.4,2.9-1,11-9.5,3.4-36.7h0Z"/>
            <path class="cls-5" d="M457.2,419.4s-1.3,3.2-.7,5.4c.5,1.9,5.4,24.8,7.1,33,.3,1.6-.7,3.2-2.4,3.4-7.5,1.1-27.5,3.4-38.6-.2-1.9-.6-2.8-2.9-1.8-4.7,1.4-2.5,3.7-6.2,6.8-10.6,5.7-8,21-26.7,29.5-26.3h.1Z"/>
            <path class="cls-23" d="M308.9,354.7c20.7,3,62.5-2,81.8-1.7,19.3.4,37.6-3.3,50.3,0,0,0-28.3-21.2-55.3-33s-53-12.2-74.8-13.1c-16.2-.6-40.1.2-51.3.7-2.6.1-3.9,3.1-2.2,5.1,9.9,11.5,35.8,39.8,51.5,42h0Z"/>
            <path class="cls-25" d="M313.1,352.2c18.6,2.7,56-1.9,73.3-1.5,17.2.3,33.7-3,45,0,0,0-25.4-19.5-49.5-30.3-24.1-10.9-47.4-11.2-67-12-14.5-.6-35.9.2-45.9.6-2.3,0-3.5,2.9-2,4.6,8.9,10.5,32.1,36.5,46.1,38.6h0Z"/>
            <path class="cls-17" d="M460.8,411.8s3.9,3,5.9,3.4c0,0,9.3-2.9,25.9-4.1,14.9-1.1,34.5-3.4,43.1-2.6l-5-5.2-66.9,5.1-2.9,3.5h0Z"/>
            <path class="cls-5" d="M445.9,396.7c3.7,1.8,11.9,13.3,14.9,15.1,0,0,52.3-2.5,67.7-5.3,4.4-.7,7.2,1.9,7.2,1.9,0,0-4-11.2-7.6-16,0,0-21,1.1-23.9,0s-4.2-2.4-8.8-2.2c-4.5.2-4.6,2.4-8.6,3.6-4.1,1.2-40.8,2.9-40.8,2.9h-.1Z"/>
            <path class="cls-23" d="M528.9,393.6c-4,8.2-20.1,13.7-39.1,15-17.1,1.2-31.8-4.6-37.5-12.2-3.8.2-6.4.3-6.4.3,3.7,1.8,11.9,13.3,14.9,15.1,0,0,52.3-2.5,67.7-5.3,4.4-.7,7.2,1.9,7.2,1.9,0,0-3.4-9.6-6.8-14.8Z"/>
            <path class="cls-17" d="M405.5,451.7v.5c0,.3,0,.8-.2,1.5-.1.3-.2.6-.4,1-.2.3-.4.7-.7,1.1-.6.7-1.3,1.5-2.2,2.2-.9.7-1.9,1.3-3.1,1.9-1.2.5-2.4,1-3.8,1.4-.7.2-1.3.4-2,.5-.7.2-1.4.3-2.1.4-1.4.2-2.9.3-4.4.3h-2.2c-.7,0-1.5-.1-2.2-.2-.7,0-1.4-.2-2.1-.4-.7-.1-1.4-.3-2-.5-1.3-.4-2.6-.9-3.8-1.4-1.1-.6-2.2-1.2-3.1-1.9-.9-.7-1.6-1.4-2.2-2.2-.3-.4-.5-.8-.7-1.1-.1-.4-.3-.7-.4-1-.1-.6-.2-1.1-.2-1.5v-.5s0,.2.1.5c0,.2,0,.4.1.6,0,.2.2.5.3.8.2.3.3.5.5.9.2.3.5.6.8.9.6.6,1.3,1.2,2.2,1.7.9.6,1.9,1,3,1.5,1.1.4,2.3.8,3.6,1.1,1.3.3,2.6.5,4,.7.7,0,1.4.1,2,.2h2.1c1.4,0,2.8,0,4.2-.2,1.4-.2,2.7-.3,4-.7,1.3-.3,2.5-.7,3.6-1.1,1.1-.5,2.1-.9,3-1.5.9-.5,1.6-1.1,2.2-1.7s.5-.6.8-.9c.2-.3.4-.6.5-.9s.2-.5.3-.7c0-.2.1-.4.1-.6,0-.3.1-.5.1-.5l.3-.2Z"/>
            <ellipse class="cls-13" cx="497.6" cy="400" rx="10" ry="5.6"/>
            <path class="cls-29" d="M498.9,404.8c-5.5,0-10-2.5-10-5.6s.7-2.3,1.8-3.2c-1.9,1-3.1,2.5-3.1,4.1,0,3.1,4.5,5.6,10,5.6s6.4-.9,8.2-2.4c-1.8,1-4.2,1.6-6.9,1.6h0Z"/>
            <ellipse class="cls-3" cx="498.9" cy="400" rx="7.9" ry="4.2"/>
            <path class="cls-5" d="M222.2,312.4c7-.3,25,3,35.9,15.5,4.3,4.9,9,11.8,13.1,18.4,6.4,10.1.4,18.2.4,18.2,0,0-48-5.5-60.5-8.8,0,0,5.4-37.7,11.1-43.2h0Z"/>
            <path class="cls-5" d="M216.1,312.4s-9.6,22-12.4,42.3l-33.3-5.2s5-19.1,13.2-26.7c9.4-6,32.5-10.5,32.5-10.5h0Z"/>
            <path class="cls-5" d="M178.6,324.9s-16.5,10.9-18.6,13.2-.8,9.8,6.2,10.8c0,0,5.7-17.6,12.3-24h.1Z"/>
            <g>
              <ellipse class="cls-18" cx="209.4" cy="375.8" rx="4.6" ry="5.9" transform="translate(-204.7 492.4) rotate(-76.6)"/>
              <path class="cls-15" d="M208.8,374c5,.9,6.7,2,7,2.9s-.8,2.9-2.2,2.4-1.5-1.5-5.5-2.5c-4-.9-4.1.5-4.1.5,0,0-2.2-1.9-.2-3.5,0,0,1.4-.5,5,.2Z"/>
            </g>
            <g>
              <path class="cls-16" d="M166.7,370.5c-.6,2.4-3.1,3.7-5.6,2.9-2.5-.8-4.1-3.5-3.6-6,.6-2.4,3.1-3.7,5.6-2.9,2.5.8,4.1,3.5,3.6,6Z"/>
              <path class="cls-15" d="M161.3,367.2c2.5.6,5.2,1.7,5.5,2.6s-.5,3.1-1.3,2.8c-1.2-.3-1.1-1.4-4.3-2.4-3.3-1.1-3.4.2-3.4.2,0,0-1.7-1.9,0-3.5,0,0,1.2-.3,3.6.3h-.1Z"/>
            </g>
            <path class="cls-24" d="M139.1,381.9s3.6-9.3,10-6.4,10,14.9,10,14.9c0,0-7.4-12-12-12.3s-7.9,3.9-7.9,3.9h-.1Z"/>
            <path class="cls-17" d="M177.8,416.1s57.6,16.7,66.9,22.6c9.4,5.9,15.5,10.6,14.2,11.7s-55.4-12.3-68.9-18.4c0,0,52.8,13.7,49.4,8.3-3.4-5.4-61.6-24.1-61.6-24.1h0Z"/>
            <path class="cls-17" d="M337.7,358.5s69.6,11.6,99.2,31.7c0,0-14.1-2.9-30.6-10s-33.7-13.2-68.5-21.6h-.1Z"/>
            <path class="cls-24" d="M337.7,358.5s1.6.2,4.4.7,6.9,1.2,11.7,2.1c2.4.5,5,1,7.8,1.6,2.7.6,5.7,1.2,8.6,2,3,.7,6.1,1.5,9.2,2.3,1.6.4,3.1.8,4.7,1.2,1.6.4,3.1.9,4.7,1.3,3.2.9,6.3,1.9,9.3,2.9,3.1.9,6.1,2.1,9,3.1,1.5.5,2.9,1,4.2,1.6,1.4.5,2.7,1.1,4,1.6s2.6,1.1,3.8,1.6c1.2.5,2.4,1.1,3.5,1.6.6.3,1.1.5,1.6.7.5.3,1,.5,1.5.8,1,.5,1.9,1,2.8,1.5s1.7.9,2.5,1.3c.7.5,1.4.9,2,1.3,2.4,1.5,3.8,2.4,3.8,2.4,0,0-1.4-.8-3.9-2.3-.6-.4-1.3-.8-2-1.2-.8-.4-1.6-.8-2.5-1.2-.9-.4-1.8-.9-2.8-1.4-.5-.2-1-.5-1.5-.8-.5-.2-1.1-.5-1.7-.7-1.1-.5-2.3-1-3.5-1.5s-2.5-1.1-3.8-1.5c-1.3-.5-2.7-1-4-1.5-.7-.3-1.4-.5-2.1-.8-.7-.2-1.4-.5-2.2-.7-2.9-1-5.9-2.1-9-3-3.1-1-6.2-1.9-9.3-2.8-1.6-.5-3.1-.9-4.7-1.4-1.6-.4-3.1-.8-4.7-1.3-3.1-.9-6.2-1.6-9.1-2.4-3-.7-5.9-1.4-8.6-2.1-2.7-.6-5.3-1.2-7.7-1.8-2.4-.5-4.6-1-6.5-1.4-2-.4-3.7-.8-5.1-1.1-2.8-.6-4.4-.9-4.4-.9v.2Z"/>
            <path class="cls-17" d="M264.9,376.5s23.1-4,36.3-3.9c13.2.1,24.1,3.2,26.2,5.5s4.8,7,4.8,7c0,0-26.2-8.7-67.3-8.7h0Z"/>
            <path class="cls-24" d="M396.8,380.3c-4.7-1.8-9.7-3-14.6-4.2s-9.9-2.2-14.8-3.3c-9.9-2.1-19.9-4.1-29.8-6.3-5-1.1-9.9-2.3-14.8-3.5-2.5-.6-4.9-1.3-7.4-2-2.4-.7-4.9-1.5-7.2-2.5-9.4-3.9-18.4-8.9-26.3-15.2,4.1,3,8.4,5.7,12.9,8.1,4.4,2.4,9,4.5,13.7,6.4,4.7,1.8,9.6,3.1,14.5,4.3,4.9,1.2,9.9,2.3,14.8,3.4,9.9,2.2,19.8,4.3,29.7,6.5,4.9,1.1,9.9,2.3,14.8,3.5,4.9,1.3,9.8,2.6,14.5,4.6v.2Z"/>
            <path class="cls-8" d="M306.3,354.1c.6,4.5-2.5,3.3-1.8,8s2.4,8.7.9,10.6"/>
            <path class="cls-33" d="M454.5,401.7c1.3,1.8,6.9,1.5,14.4,1.1s18.3-.4,16.2-2.4c-2.1-2.1-3.6-1-7.8-.7-4.2.3-13.2,1.1-16,1-2.8,0-7.7-.3-6.8.9h0Z"/>
            <path class="cls-26" d="M468.9,402.1c-7.3.4-12.7.7-14.2-1-.2.1-.3.3-.2.6,1.3,1.8,6.9,1.5,14.4,1.1,7.4-.4,17.9-.4,16.3-2.4-1.4,1.2-9.9,1.3-16.3,1.6h0Z"/>
            <path class="cls-33" d="M528.6,397.7c-.8,1.4-2.8,1.5-8.2,2.1s-13.1,2-11.8,0c1.3-2.1,2.2-1.7,5.2-1.9s8.7-.5,10.7-.7c2.1-.2,4.8-.5,4.2.6h-.1Z"/>
            <path class="cls-26" d="M521.6,399c-5.4.6-13.1,2-11.8,0,.2-.3.4-.6.6-.8-.7.2-1.2.6-1.8,1.6-1.3,2.1,6.4.7,11.8,0,5-.6,7.1-.7,8-1.8-1.2.5-3.3.6-6.9,1h0Z"/>
            <path class="cls-25" d="M528.1,457.6c0,4.6-8.4,6.5-22.9,8.5-14.5,2.1-25,3.4-27.6,2.9s-4.7-3.9-2.9-3.9,19.1-1.3,32.3-3.3c13.8-2.1,21-4.2,21-4.2h0Z"/>
            <path class="cls-17" d="M348.8,468.6s30.2,8.6,101.1,5c-10.1,2.6-85.8,7.9-95.5,7-6.6-.7-5.6-11.9-5.6-11.9h0Z"/>
            <path class="cls-24" d="M348.8,468.6s1.5.4,4.3.9c1.4.3,3,.5,4.9.8s4.1.6,6.4.9c2.4.3,4.9.6,7.6.8,2.7.2,5.6.5,8.5.7,3,.2,6,.4,9.1.6s6.3.3,9.5.4c1.6,0,3.2.1,4.7.2h4.7c3.1,0,6.2.1,9.2,0h8.6c2.7,0,5.3,0,7.7-.1,4.8,0,8.7-.2,11.5-.3h4.4s-1.6.1-4.4.3c-1.4,0-3.1.2-5,.3-1.9.1-4.1.3-6.5.3s-5,.2-7.7.3c-2.7,0-5.6.1-8.6.1h-13.9c-1.6,0-3.2,0-4.8-.1-3.2,0-6.3-.3-9.5-.4-3.1-.1-6.2-.4-9.2-.6s-5.8-.6-8.5-.9-5.3-.6-7.6-1c-2.4-.3-4.5-.7-6.4-1.1s-3.6-.7-4.9-1c-1.4-.3-2.4-.6-3.1-.8-.7-.2-1.1-.3-1.1-.3h.1Z"/>
            <path class="cls-8" d="M352.9,395s-4.7,4.9-10.2,6.6-8.6,8.9-13,10.2"/>
            <path class="cls-24" d="M366.8,467.6s-6-1.8-12.2-1.4c-3.5.2-5.3,1-5.8,2.4,0,0,4.2-.6,6.9-.6s11.2-.4,11.2-.4h-.1Z"/>
            <path class="cls-24" d="M381.5,433.6c-8.6-2.2-21,5.9-21.1,12.1,0,6.2,3.7.8,4.7,3.8,1,2.9,3.7,4.9,3.7,4.9,0,0-4.9-6.1,2.1-11.3-2.6,0-4.8,2.4-5.7,2.1-2.5-.9-.7-10.5,16.3-11.5h0Z"/>
            <path class="cls-17" d="M389.2,411.8s44,10.4,56.7,8.4c0,0-6.6,6.6-12.5,10.3-5.9,3.7-30.2-1.1-34.1-4.6s-10.1-14.1-10.1-14.1h0Z"/>
            <path class="cls-24" d="M380.9,407l8.9,2c2.7.6,5.8,1.2,9.2,2s3.4.7,5.2,1.1c1.8.4,3.6.7,5.4,1.1,3.6.7,7.2,1.4,10.6,2,1.7.3,3.3.6,4.9.8,1.6.2,3,.5,4.4.7s2.6.4,3.7.5c1.1.2,2.1.3,2.9.4,1.6.2,2.5.3,2.5.3,0,0-.9,0-2.5-.1-.8,0-1.8,0-2.9-.2-1.1-.1-2.4-.2-3.7-.3-2.7-.3-5.9-.7-9.3-1.2-3.4-.6-7-1.2-10.6-1.9-1.8-.4-3.6-.7-5.4-1.1s-3.5-.8-5.2-1.2c-3.4-.8-6.4-1.6-9.1-2.3-5.3-1.4-8.8-2.5-8.8-2.5h-.2Z"/>
            <path class="cls-17" d="M276.8,388.6s-6.2,1.2-24.3-1.8-34-8.9-34-8.9c0,0,50.6,9.9,58.3,10.7h0Z"/>
            <path class="cls-6" d="M526.8,435.7l-51.1,4.7c-1.3.1-2.4-.9-2.4-2.2v-13c0-1.1.9-2.1,2-2.2l51.1-4.7c1.3-.1,2.4.9,2.4,2.2v13c0,1.1-.9,2.1-2,2.2Z"/>
            <path class="cls-7" d="M527.2,435.2l-49.7,4.6c-.8,0-1.5-.6-1.5-1.4v-13.6c0-.7.6-1.3,1.3-1.4l49.7-4.6c.8,0,1.5.6,1.5,1.4v13.6c0,.7-.6,1.3-1.3,1.4Z"/>
            <g>
              <path class="cls-14" d="M274.9,355.2s5.4,1.3,7.4,3c2.9,2.4.6,7.7-4,7.7s-7.8-4.8-7.8-4.8l4.4-5.9h0Z"/>
              <path class="cls-25" d="M274.9,355.2l-1.9,2.6c.9,1.8,2.2,3.8,4.4,5,1.9,1.1,3.8,1.3,5.3.9,1.2-1.8,1.3-4.1-.4-5.5-2.1-1.7-7.4-3-7.4-3Z"/>
              <path class="cls-17" d="M275.1,359.3c2.7-6.1.2-12.6-5.4-14.6s-22.4-2.4-26.7,4.7.6,11.1,4.8,12.3,23.2,7,27.4-2.4h-.1Z"/>
              <path class="cls-27" d="M274.4,360.6c.3-.4.5-.8.7-1.3,2.7-6.1.2-12.6-5.4-14.6-3.4-1.2-10.8-1.8-17.1-.6-1.5.8-2.7,1.9-3.5,3.2-3.9,6.7.5,10.5,4.3,11.7,3,.9,14.4,4.5,20.9,1.6h0Z"/>
              <path class="cls-2" d="M275.1,359.3c2.7-6.1.2-12.6-5.4-14.6s-22.4-2.4-26.7,4.7.6,11.1,4.8,12.3,23.2,7,27.4-2.4h-.1Z"/>
              <path class="cls-30" d="M241.3,354.7c4.2,0,14.2,1.4,17.2.9,2,0,1.9,1.9.8,3.2-2.2,1.1-11.7,1.5-16.7-.5-2.8-2-1.3-3.6-1.3-3.6h0Z"/>
              <path class="cls-24" d="M258.4,355.7c-3,.5-12.9-1-17.2-.9h0c0,.7.3,1.6,1.7,2.5,5,2,14.6,1.5,16.7.5.1-.2.3-.3.4-.5.1-.9-.3-1.6-1.6-1.6Z"/>
              <path class="cls-2" d="M241.3,354.7c4.2,0,14.2,1.4,17.2.9,2,0,1.9,1.9.8,3.2-2.2,1.1-11.7,1.5-16.7-.5-2.8-2-1.3-3.6-1.3-3.6h0Z"/>
              <path class="cls-24" d="M264.2,344.3s1.1,0,2.7.1c.8.1,1.8.3,2.7.7.5.2,1,.4,1.5.7.5.3,1,.6,1.4,1l.6.6c.2.2.3.4.5.7.3.5.6,1,.8,1.4.4,1,.7,1.9.8,2.7.3,1.6.2,2.7.2,2.7,0,0,0-.3-.2-.7-.1-.5-.3-1.1-.6-1.9-.3-.8-.6-1.6-1.1-2.5-.2-.4-.5-.9-.8-1.3-.1-.2-.3-.4-.5-.6s-.3-.4-.5-.5c-.4-.4-.8-.6-1.2-.9-.4-.3-.9-.5-1.3-.7-.9-.4-1.8-.7-2.5-1-.8-.2-1.4-.4-1.9-.5s-.7-.2-.7-.2v.2Z"/>
            </g>
            <path class="cls-8" d="M271.5,367.5s-6.2,19.8-5,20.9,2.4,19.6,1.4,23.4c-.9,3.8-2.6,7-2.1,17.8s3.1,26.3,1.2,30.2"/>
            <path class="cls-8" d="M203,357.4c.6,6.8-4.3,12.2-5,16.3-.7,4.1.1,12.2-2.5,16.7s1.5,9.9,0,21.5,5.6,22.3,3.3,30.9"/>
            <path class="cls-8" d="M271.5,460.3c-5.5.4-50.6-11.7-72.7-17.6-22.1-5.9-27.3-5.9-28.4-7.2"/>
            <path class="cls-24" d="M271.3,462.8h-1.2c-.4,0-.8,0-1.4-.1-.5,0-1.2-.1-1.9-.3-1.4-.2-3.1-.5-5.1-.9s-4.1-.8-6.5-1.4c-2.4-.5-5-1.1-7.7-1.8-2.7-.6-5.6-1.3-8.6-2.1-5.9-1.5-12.2-3.1-18.5-4.7-6.3-1.7-12.6-3.4-18.5-5s-11.4-3.1-16.1-4.3c-4.7-1.2-8.7-2.1-11.5-2.7-1.4-.3-2.5-.6-3.2-.9-.4-.1-.6-.3-.8-.4-.1-.1-.2-.2-.2-.2l.2.2c.2.1.4.2.8.4.7.2,1.8.5,3.2.8,2.8.6,6.8,1.3,11.6,2.4s10.3,2.4,16.2,4c5.9,1.5,12.2,3.2,18.5,4.8,6.3,1.7,12.6,3.3,18.5,4.9,3,.8,5.8,1.5,8.5,2.2s5.3,1.3,7.6,1.9c2.4.6,4.5,1.1,6.5,1.6,1.9.5,3.6.8,5,1.1,1.4.3,2.5.5,3.3.5h1.3Z"/>
            <g>
              <path class="cls-16" d="M147,353.9c0,4.6-1.8,8.6-5.8,10.4s-6.9,3.4-7,13.3c0,0-2.9-7.1,0-14.4s11.1-7.2,12.8-9.3Z"/>
              <path class="cls-32" d="M145.2,356.1c-1.6,1.4-6.6,1.8-8.4,6.1,0,0,2.6-2.1,4.7-2.5,2-.4,4-3,3.7-3.6Z"/>
            </g>
            <path class="cls-24" d="M477,363.8c27.2,8.6,51.8,24.9,47.6,25.9-4.1,1-11.4.6-11.4.6,0,0,10-1.1-1.7-9.7-4.4-3.3-34.6-16.7-34.6-16.7h.1Z"/>
            <path class="cls-17" d="M436.9,409.8c-3.3,2.8-7.1,3.9-10.1,3.9,0,0,12.4,2.6,18.1,3.1,0,0-8.1-2.8-8-7Z"/>
            <path class="cls-24" d="M322.8,404.3s.7.5,1.9,1.6c.6.6,1.3,1.2,2,2,.8.8,1.6,1.7,2.4,2.8.8,1.1,1.8,2.2,2.6,3.5.4.6.9,1.3,1.4,2,.4.7.9,1.4,1.3,2.1.9,1.4,1.7,3,2.6,4.6.8,1.6,1.6,3.2,2.4,4.9.7,1.7,1.4,3.3,2,5s1.2,3.3,1.7,5c.5,1.6.9,3.2,1.3,4.7s.6,3,.9,4.3.5,2.5.7,3.6.3,2,.4,2.8c.2,1.6.3,2.5.3,2.5,0,0-.2-.9-.5-2.4-.2-.8-.3-1.7-.6-2.8-.2-1.1-.5-2.3-.8-3.6-.3-1.3-.6-2.7-1.1-4.2s-.9-3-1.4-4.6-1.1-3.2-1.7-4.9c-.6-1.7-1.4-3.3-2-4.9-.7-1.6-1.5-3.3-2.3-4.8s-1.6-3.1-2.5-4.5c-.4-.7-.8-1.4-1.3-2.1-.4-.7-.9-1.3-1.3-2-.8-1.3-1.7-2.5-2.5-3.6s-1.6-2.1-2.3-2.9c-.7-.9-1.3-1.6-1.9-2.1-.5-.6-1-1-1.3-1.3s-.5-.4-.5-.4v-.3Z"/>
            <path class="cls-24" d="M333.8,392.4s.7.4,1.8,1.2c.6.4,1.2.9,1.9,1.6.7.6,1.5,1.4,2.4,2.2.8.9,1.7,1.8,2.6,2.9.9,1,1.8,2.2,2.7,3.4.9,1.2,1.7,2.5,2.6,3.8.8,1.4,1.6,2.7,2.4,4.1.7,1.4,1.5,2.8,2.1,4.3.6,1.4,1.3,2.8,1.8,4.2.5,1.4,1,2.8,1.5,4,.4,1.3.8,2.5,1.1,3.7.3,1.1.6,2.2.8,3.1.2.9.4,1.8.5,2.4.3,1.4.4,2.1.4,2.1,0,0-.3-.7-.8-2-.2-.6-.5-1.4-.9-2.3-.3-.9-.7-1.9-1.2-3-.4-1.1-.9-2.3-1.4-3.5s-1.1-2.5-1.7-3.9-1.3-2.7-1.9-4.1-1.4-2.7-2.1-4.1-1.5-2.7-2.3-4.1c-.8-1.3-1.6-2.6-2.4-3.8-.8-1.2-1.6-2.4-2.4-3.5s-1.6-2.1-2.3-3c-.8-.9-1.4-1.7-2.1-2.4-.6-.7-1.2-1.3-1.7-1.8l-1.1-1.1-.4-.4h.1Z"/>
            <path class="cls-24" d="M145.2,391.9s.8,0,2.1.7c.3.1.7.3,1,.5.2.1.4.2.6.3.2.1.4.3.6.4.8.5,1.6,1.3,2.5,2.1.8.9,1.7,1.8,2.5,2.9.9,1.1,1.6,2.3,2.4,3.6.8,1.3,1.4,2.7,2.2,4.1.6,1.4,1.3,2.9,1.9,4.4.5,1.5,1,3,1.6,4.5.5,1.5.9,3,1.3,4.4.4,1.4.7,2.8,1,4.2.3,1.3.6,2.6.8,3.8.2,1.2.4,2.2.5,3.2s.3,1.8.4,2.5c.2,1.4.3,2.2.3,2.2,0,0-.2-.8-.5-2.1-.3-1.3-.7-3.3-1.3-5.6-.3-1.1-.6-2.4-1-3.7-.3-1.3-.7-2.7-1.1-4.1-.4-1.4-.8-2.9-1.3-4.4s-1.1-2.9-1.6-4.4c-.6-1.4-1.2-2.9-1.8-4.3-.7-1.4-1.3-2.8-2.1-4-.8-1.3-1.4-2.5-2.2-3.6-.7-1.1-1.6-2.1-2.3-3-.8-.8-1.6-1.6-2.3-2.2-.2-.2-.4-.3-.5-.4-.2-.1-.4-.2-.5-.4-.3-.2-.7-.5-1-.6-1.2-.7-2-.8-2-.8l-.2-.2Z"/>
            <path class="cls-24" d="M146.9,359.6s0,.2-.1.6c0,.2,0,.5-.2.7-.1.3-.2.6-.4.9s-.4.7-.6,1c-.3.3-.6.7-.9,1-.7.6-1.5,1.2-2.3,1.6-.4.2-.8.4-1.3.7-.4.2-.8.4-1.2.6s-.7.4-1.1.6c-.3.2-.6.4-.8.7-.2.2-.5.5-.6.7s-.3.4-.4.6l-.3.6v-.7c0-.2.1-.5.2-.7,0-.3.3-.6.5-.9s.5-.6.8-.9.7-.6,1.1-.8c.8-.5,1.6-.9,2.4-1.4.4-.2.8-.4,1.2-.7.4-.2.8-.5,1.1-.7s.6-.5.9-.8c.3-.3.5-.6.7-.8.2-.3.4-.5.5-.8.2-.2.2-.5.3-.7l.3-.6.2.2Z"/>
            <path class="cls-17" d="M153.8,350.4c-4.1.8-3.9,6.9-3.9,6.9l24.2,1.3s-16.3-9-20.3-8.3h0Z"/>
            <path class="cls-17" d="M420.4,461.8c2.8,2.9,17,3.5,25.5,2.8s17.8-2.3,17.8-2.3c0,0-9.2,4.5-24.7,4.8-15.6.4-18.5-5.3-18.5-5.3h0Z"/>
            <path class="cls-24" d="M310,369.4s.5.2,1.4.5,2.1.8,3.6,1.3c1.5.6,3.2,1.1,5.1,1.7.9.3,1.9.6,2.9.9s2,.5,3,.8c1,.2,2,.5,3.1.6,1,.2,2,.3,3,.4,2,.2,3.8.4,5.4.5,1.6,0,2.9.1,3.8.1h1.5s-.1,0-.4.1c-.2,0-.6.2-1.1.2-.9.1-2.2.3-3.8.3s-3.5,0-5.4-.2c-1,0-2-.2-3.1-.3-1-.2-2.1-.4-3.1-.6-1-.3-2.1-.5-3.1-.8s-2-.6-2.9-1c-1.9-.7-3.6-1.4-5-2-1.5-.6-2.6-1.2-3.5-1.7-.8-.4-1.3-.7-1.3-.7h-.1Z"/>
            <path class="cls-24" d="M258.9,451.4s-.3.1-.8,0c-.5,0-1.3,0-2.3-.2-1.9-.3-4.7-.8-8-1.5s-7.1-1.5-11.2-2.5c-4.1-1-8.4-2.1-12.7-3.2-4.3-1.2-8.6-2.4-12.6-3.6s-7.7-2.4-10.9-3.5-5.8-2.1-7.6-2.8c-1.8-.7-2.8-1.3-2.8-1.3,0,0,1,.4,2.9,1.1,1.8.7,4.5,1.5,7.7,2.5s7,2,11,3.2c4,1.1,8.3,2.3,12.7,3.4,4.3,1.2,8.6,2.3,12.7,3.3,4.1,1,7.8,2,11.1,2.8s6,1.4,7.9,1.8c1,.2,1.7.3,2.2.4h.8,0Z"/>
            <path class="cls-24" d="M157.4,337.5s-.2.6-.4,1.6c-.2,1.1-.4,2.7-.2,4.7.1,1,.3,2.1.9,3.2.5,1.1,1.4,2.2,2.5,2.9,1.2.8,2.7,1,4.2,1.4,1.6.3,3.2.6,5,.9,6.9,1.2,15.1,2.5,23.8,3.8,8.7,1.4,18,2.8,27.3,4.1,18.6,2.8,37.2,5.6,51.1,7.7s23.2,3.6,23.2,3.6c0,0-2.3-.3-6.4-.8s-9.9-1.2-16.9-2.2-15.1-2-23.9-3.3c-8.7-1.3-18-2.6-27.3-4s-18.6-2.9-27.3-4.3-16.8-2.8-23.7-4.1c-1.7-.3-3.4-.7-5-1-.8-.2-1.5-.4-2.3-.6s-1.4-.5-2.1-1c-1.2-.8-2.1-2-2.6-3.1-.5-1.2-.7-2.3-.8-3.3-.1-2.1.1-3.7.4-4.8.2-1.1.4-1.6.4-1.6v.2Z"/>
            <path class="cls-17" d="M469.9,465.2s-9.8,4.5-21.1,6c0,0,10.4.5,16.8-.6,5-.9,4.3-5.3,4.3-5.3h0Z"/>
            <path class="cls-24" d="M474,463.4s-2.5-.4-3.3.6,1.3,3.9,2.6,4.6c0,0-1.6-3-.9-3.8s1.6-1.3,1.6-1.3h0Z"/>
            <g>
              <ellipse class="cls-1" cx="386.7" cy="449.5" rx="17.8" ry="9.7"/>
              <path class="cls-12" d="M386.6,439.8c-9.8,0-17.7,4.4-17.7,9.7s7.9,9.7,17.7,9.7c5.3-1.8,9-5.5,9-9.7s-3.7-7.9-9-9.7Z"/>
              <ellipse class="cls-24" cx="385.9" cy="449.5" rx="7.1" ry="8.1"/>
              <ellipse class="cls-5" cx="385.9" cy="449.5" rx="6.1" ry="7"/>
              <ellipse class="cls-29" cx="384.9" cy="449.5" rx="3" ry="3.4"/>
              <ellipse class="cls-2" cx="386.7" cy="449.5" rx="17.8" ry="9.7"/>
              <path class="cls-21" d="M377.6,450.7c0,3.3,2.8,6.4,3.9,6.9,0,0-8.7,0-12-7.5,0,0,4.9,1,8,.7h.1Z"/>
            </g>
            <path class="cls-24" d="M445.9,398.1c3.3,2.2,11.3,12.4,11,13.6s-10.5,0-10.5,0c0,0,6.7-.4,5.7-2.8-1-2.3-6.2-10.8-6.2-10.8h0Z"/>
            <path class="cls-24" d="M425.3,389.6s1.2.5,2.8,1.5c1.7,1,3.8,2.4,5.7,4.1,1,.8,1.9,1.7,2.7,2.6.4.4.8.9,1.1,1.3.4.4.7.9.9,1.3.3.4.5.8.7,1.1.2.3.3.6.4.9.2.5.3.8.3.8,0,0-.2-.3-.5-.7-.1-.2-.3-.5-.6-.8-.2-.3-.5-.6-.8-1-.6-.7-1.4-1.5-2.2-2.3-.4-.4-.9-.8-1.3-1.2-.5-.4-.9-.8-1.4-1.2-1-.8-1.9-1.6-2.9-2.3-.9-.7-1.8-1.4-2.5-2-1.5-1.2-2.5-2-2.5-2h0Z"/>
            <path class="cls-24" d="M336.7,378.9s.3.3.7.9c.5.6,1.2,1.4,2,2.5.8,1,1.8,2.2,2.9,3.4.5.6,1.1,1.2,1.7,1.9.6.6,1.1,1.3,1.8,1.9.6.6,1.2,1.3,1.8,1.9l1.8,1.8c.6.6,1.1,1.1,1.7,1.6s1.1,1,1.6,1.4,1,.8,1.3,1.2c.4.3.8.6,1.1.9.6.5.9.8.9.8,0,0-.4-.2-1-.6-.7-.4-1.6-1-2.7-1.7-.5-.4-1.1-.8-1.7-1.3s-1.2-1-1.8-1.5c-1.3-1.1-2.5-2.3-3.7-3.6-1.2-1.3-2.4-2.6-3.4-3.9s-1.9-2.5-2.7-3.6c-.8-1.1-1.3-2-1.7-2.7-.4-.7-.6-1.1-.6-1.1v-.2Z"/>
            <path class="cls-17" d="M538.8,453.6s-4.8,1.8-8.1,1.9c0,0,0,3.9-.9,5,0,0,7.7-2.8,9-6.8h0Z"/>
            <path class="cls-17" d="M148.1,361.8s-.7,3.4-3.1,3.9c0,0,8.6-1.9,11.1,1,0,0,.3-1.9,2.8-3.2,3.4-1.8-10.8-1.8-10.8-1.8h0Z"/>
            <path class="cls-24" d="M166.9,389.8s.4,0,1.2.1c.7,0,1.8.2,3.1.4,1.3.2,2.8.4,4.3.7,1.6.3,3.3.6,5,.9.8.2,1.7.4,2.5.5.8.2,1.6.4,2.4.6,1.6.4,3,.8,4.2,1.2,1.2.4,2.2.7,3,1,.7.3,1.1.4,1.1.4,0,0-1.7-.4-4.2-.9s-5.9-1.2-9.2-1.9c-1.7-.4-3.3-.7-4.9-1-1.6-.4-3-.7-4.3-1s-2.3-.6-3-.7c-.7-.2-1.1-.3-1.1-.3h-.1Z"/>
            <path class="cls-24" d="M272.4,414.6s-.2-.2-.6-.5c-.4-.4-1-.8-1.8-1.3-.4-.2-.9-.5-1.4-.8-.5-.2-1.1-.5-1.7-.8-1.2-.5-2.6-1.1-4.2-1.6s-3.3-1.1-5.1-1.6c-1.8-.5-3.8-1-5.8-1.5-4-1-8.3-1.9-12.6-2.7-4.3-.9-8.7-1.6-12.7-2.3-4.1-.7-7.9-1.3-11.1-1.8-6.5-1-10.9-1.7-10.9-1.7,0,0,1.1,0,3,.3,1.9.2,4.7.5,7.9.9,3.3.4,7.1.9,11.2,1.5,4.1.6,8.4,1.4,12.8,2.2,4.3.9,8.6,1.8,12.7,2.9,4,1,7.7,2.2,10.8,3.4.8.3,1.5.6,2.2.9s1.3.6,2,.9c.6.3,1.2.6,1.7.9s.9.6,1.4.9c.4.3.7.6,1,.8.3.2.5.5.7.7.3.4.5.6.5.6v-.3Z"/>
            <path class="cls-24" d="M395.4,354h2.8c1.8,0,4.4-.2,7.5-.4,3.1-.2,6.7-.5,10.6-.7s8.1-.4,12.2-.4,4.2,0,6.2.2c1,0,2,.2,3,.3,1,.1,2,.3,3,.5,3.8.7,7.4,1.6,10.4,2.4s5.5,1.6,7.2,2.1c1.7.6,2.7,1,2.7,1,0,0-1-.3-2.8-.8s-4.3-1.1-7.3-1.8c-3-.7-6.6-1.4-10.4-2.1-1-.2-1.9-.3-2.9-.4-1,0-2-.2-3-.3-2-.1-4.1-.2-6.2-.2-4.1,0-8.3.1-12.2.3-1.9,0-3.8.2-5.6.2s-3.5.1-5,.2h-7.6c-.9,0-1.6-.1-2.1-.2h-.7.2Z"/>
            <path class="cls-21" d="M342,379.4s9.2-.6,20.6,1.4c0,0-22.3,2.8,0,11.9,0,0-12.9-2.9-20.6-13.4h0Z"/>
            <path class="cls-24" d="M345.1,384.1s9.6,10.3,14.2,12.8c4.5,2.6,17.3,4.3,17.3,4.3-22.4-8.8-31.5-17.1-31.5-17.1h0Z"/>
            <path class="cls-24" d="M414.7,393.3s-33.5-9.5-45.2-9.2,3.9,13.6,9.1,14.9c0,0-8.5-9.3-3.6-10.8,5-1.5,39.6,5.1,39.6,5.1h.1Z"/>
            <path class="cls-21" d="M406.9,389.2s14.4.5,17.5,2.6c3.1,2,11,9.4,2.4,12.9,0,0,0-6.5-5.4-10.6-6.3-4.7-14.5-4.8-14.5-4.8h0Z"/>
            <path class="cls-24" d="M427.7,395s9,4.8,9.3,9.2c.2,4.4-6.5,6.2-15.9,5.5,0,0,10.7,0,11.1-4.8s-4.5-10-4.5-10h0Z"/>
            <path class="cls-24" d="M342.7,379.6s.3,0,.9-.1c.6,0,1.4-.2,2.5-.3,1.1-.1,2.4-.2,4-.3,1.5,0,3.3-.2,5.2-.2h6.1c2.2,0,4.5.2,6.8.4,2.4.2,4.8.4,7.3.7,2.5.3,5,.6,7.5,1s5,.8,7.4,1.3,4.8,1,7.1,1.5c2.3.6,4.5,1.1,6.6,1.6,2.1.6,4.1,1.1,5.9,1.6s3.5,1,4.9,1.5c1.5.5,2.7.9,3.8,1.2,2.1.7,3.3,1.1,3.3,1.1,0,0-1.2-.3-3.4-.7-1.1-.2-2.4-.6-3.9-.9-1.5-.4-3.2-.7-5-1.1s-3.8-.8-5.9-1.3c-2.1-.4-4.3-.9-6.6-1.3-2.3-.5-4.7-.8-7.1-1.3s-4.9-.8-7.4-1.2c-2.5-.4-5-.7-7.4-1.1-2.4-.3-4.8-.6-7.2-.9-2.3-.2-4.6-.5-6.7-.7s-4.2-.3-6-.4c-1.9,0-3.6-.2-5.1-.2h-7.6Z"/>
            <path class="cls-21" d="M388.3,403.9s13.5,2.3,14.7.6,1.1-5.2,1.1-5.2c0,0,5,4.4,8.7,5.4s10.9,1,10.9,1c0,0-4.7,1.6-15.5,1.4s-20-3.2-20-3.2h0Z"/>
            <path class="cls-24" d="M395.9,388.7s.1,0,.3.2c.2.2.5.4.9.8.3.4.7.9,1,1.6s.6,1.5.7,2.5v1.4c0,.5-.2,1-.4,1.6-.4,1-1,2.1-1.9,3s-2,1.6-3.3,1.9c-.6.2-1.3.3-2,.3h-.8c-.4,0-.8,0-1.1-.2-1.3-.3-2.6-1-3.5-1.9-1-.9-1.7-2-2.1-3.2s-.5-2.4-.4-3.5.5-2.1,1-2.9c1-1.6,2.4-2.4,3.3-2.8.5-.2.9-.3,1.1-.3h.4s-.1,0-.3.2c-.2.1-.5.4-.9.7-.7.6-1.6,1.6-2.1,3-.2.7-.4,1.5-.3,2.3,0,.8.2,1.6.6,2.4.7,1.5,2.2,2.7,3.9,3.1.2,0,.4,0,.6.1h.7s-.1,0,0,0h0c.4,0,.9,0,1.3-.1.8-.2,1.6-.6,2.3-1.1.7-.5,1.2-1.1,1.6-1.9,0-.2.2-.4.3-.5,0-.2.1-.4.2-.5,0-.2.1-.3.2-.5,0-.2,0-.4.1-.6v-2c-.1-.6-.3-1.2-.5-1.6s-.4-.8-.5-1-.2-.3-.2-.3l-.2-.2Z"/>
            <path class="cls-24" d="M409.6,393.8s9.4,0,12.2,3.1c2.8,3.2,3.6,7.7,3.6,7.7,0,0-8.7-8.5-15.8-10.9h0Z"/>
            <path class="cls-24" d="M419.7,403.8s-11.4,3.6-21.2,2.9c0,0,7.6,1.4,13.3.5s7.9-3.4,7.9-3.4h0Z"/>
            <path class="cls-24" d="M284.3,390.9s-.9.2-2.2.6c-.7.2-1.4.5-2.2.8-.4.1-.8.3-1.2.5-.4.2-.8.4-1.2.6-.4.2-.8.4-1.1.7-.4.2-.7.5-1.1.7-.3.2-.7.5-.9.7-.3.3-.6.5-.8.7l-.7.7c-.2.2-.3.4-.5.6-.3.3-.4.5-.4.5,0,0,0-.2.3-.6,0-.2.2-.4.3-.7.1-.2.3-.5.5-.8s.4-.6.7-.9c.1-.2.3-.3.4-.5.2-.1.3-.3.5-.4.7-.6,1.5-1.1,2.3-1.6.8-.4,1.7-.8,2.6-1,.8-.3,1.7-.4,2.4-.5,1.4-.2,2.3,0,2.3,0h0Z"/>
            <path class="cls-24" d="M409.6,398.8l-.5.5c-.3.3-.8.8-1.5,1.2-.7.5-1.5,1-2.4,1.4-.9.5-1.9.8-2.9,1.2-.5.1-1,.3-1.5.4s-1,.2-1.5.3c-1,.2-1.9.3-2.7.3h-2.6s.3,0,.7-.2c.5,0,1.1-.2,1.9-.4.8-.2,1.7-.4,2.6-.6.9-.3,1.9-.5,2.9-.9.5-.2,1-.3,1.5-.5s1-.3,1.4-.5c.9-.4,1.7-.8,2.4-1.1.7-.4,1.3-.7,1.7-.9.4-.2.6-.4.6-.4v.2Z"/>
            <path class="cls-23" d="M433.5,454.3c-5.6-7,5.8-21.5,13.8-30.3-7.6,6-15.8,16.3-19.7,21.7-3.1,4.4-5.4,8.1-6.8,10.6-1,1.8-.2,4,1.8,4.7,9.1,3,24.3,2,33.6.9-9-.6-18.7-2.5-22.7-7.5h0Z"/>
            <path class="cls-24" d="M509.8,374.7s22.2,4.9,24.8,12.9-.5,10.4-.5,10.4c0,0-1-9.9-6.1-14.1s-18.2-9.3-18.2-9.3h0Z"/>
            <path class="cls-21" d="M516.2,379.1s10.9,1,15.1,14c0,0-8.9-12-15.1-14Z"/>
            <path class="cls-24" d="M536.7,389.9s.2.2.4.6.6,1.1.9,1.9c.6,1.6,1.2,3.7,1.6,6,.4,2.2.6,4.5.4,6.2,0,.8-.2,1.6-.4,2,0,.2-.3.4-.4.4h-.2.2s.2-.2.2-.5c0-.4,0-1.1,0-2,0-1.6-.5-3.8-.9-6s-.8-4.3-1.2-6c-.2-.8-.4-1.5-.5-1.9,0-.5-.3-.7-.3-.7h.2Z"/>
          </g>
        </g>
        <g class="cls-28">
          <g class="cls-28">
            <path d="M752.6,36.1c0,1.9,0,3.8,0,5.5,2.1-1.7,4-3.5,5.9-5.5l6.8,7.3c-2,1.3-4,2.9-6,4.3,2.2.9,4.6,1.9,6.4,2.7l-2.7,6.3c2.5,2.1,4.9,3.4,7.3,4.2-2.7,8.3-4.3,10-9.7,9.6l3.5,3.7c-1.4,1.1-2.7,2.1-4.2,3,2.1.7,4,1.5,5.9,2.4l-3.2,6.6c2.5,1.7,5.4,3.2,8,4.2-2.3,7.1-4.9,11-9.4,11s-8.1,0-13.8-10.2c-2.7-5-3.5-9-4.5-18.7h-3.5v27.8h-10.4v-27.8h-6.4c-.8,11.7-3.9,20-13.5,28.4-2.2-3.2-4.8-6-7.8-7.8,6.2-5.9,9.6-10.4,11-20.6h-9v-9.6h9.3v-5c-2.2.6-4.7,1.1-7.3,1.5-1-3.2-2.4-5.9-4.6-8.7,9.1-1.2,13.5-2.4,21.8-5.2h-17.6v-9.6h47.5ZM729,53.2c-2.2.9-4.2,1.4-6.3,2.2v7.6h6.3v-9.8ZM725,45.6l4,6.4v-5.8h10.4v16.7h9.9c-4.1-6.3-5-10-6.3-17.4h-18.1ZM755.5,68.5c-1.1-.6-2.2-1.2-3.3-2.3,0,1.7,0,3.6.4,5,1.2-.7,2.2-1.7,3-2.7ZM759.4,90.2c.6,0,1.2-1.9,1.6-2.9-1.4-.8-3.7-1.9-5.6-2.7,1.9,5.2,3.9,5.6,4,5.6ZM760.3,59.5c.6,0,.9-.7,1.1-1.8-1.4-.8-3.4-1.7-5.3-2.6,1.9,3.7,4,4.4,4.2,4.4Z"/>
            <path d="M722,114.8c-2.9,10.8-4.7,21.5-4.7,32.5s1.3,16.6,2.5,22l-11.8,1.9c-1.4-7.9-2.2-13.7-2.2-21.7s.5-14.3.6-15.2c.2-2.1.6-4.2.9-7.1.4-3.4.9-7.9,2.8-16.5l11.8,4ZM759,119.3c-1.1-2.1-2.3-4.3-3.5-6.5-.1,3.7-.1,6-.1,8.4,3-.4,6.5-1.2,9-1.7l.4,11.1c-2.7.4-5.8.9-9.3,1.4,0,3,.8,15.7.9,18.2,5.1,2.7,9.1,5.1,13.4,8.3l-7.9,9.6c-2.1-2.3-2.9-3.1-5.8-5.7-1.2,8.2-11.2,8.5-13.8,8.5-9.9,0-18.4-4-18.4-12.2s1.4-6.4,4.2-8.6c3.5-2.9,8.1-3.5,12.7-3.5s2.4,0,4.2.1c-.6-6.8-.6-7.6-.8-13.5-3.6.2-5.9.4-7.8.4-3,0-5.9-.2-11.2-.6l.2-10.8c3.6.6,6.6.8,11.4.8s3.9,0,7-.3c0-1.9,0-10.7,0-12.5h10.2c0,0-.8-1.2-.8-1.2l5.1-2.8c2.4,3.2,4.4,6.5,6.1,10l-5.3,3ZM736.4,161c1.3.4,2.2.6,3.5.6,4.2,0,4.6-2.2,5-4.5-1.6-.4-3.2-.8-5-.8s-6,.4-6,2.6c0,1.2.5,1.7,2.5,2.2ZM764.9,102.7c2.4,3,4.3,6.4,6,9.9l-5.4,3c-1.7-3.2-3.5-6.7-6-10l5.3-2.9Z"/>
            <path d="M745.4,176.4c-.1,2.2-.1,2.9-.1,8.4,6.8-.2,14-.4,20.5-.6v11.3c-3.2,0-20.5.2-20.5.2-.1,4.8-.2,12.7-.2,16.2.6,2.3.7,3.9.8,5.2,0,.6,0,1.2,0,1.7,0,7.3-3.1,11.3-5,13.4-6.2,7.2-15.3,9-22.8,10-.8-4-2.4-8.2-5.3-11.2,11.2,0,16-1.6,22-6.2-1.9.7-4,1.4-7.1,1.4-6.8,0-12-6.3-12-14.4s4.2-14,13.6-14,2.4,0,4.8.9v-2.6c-4.6.1-24.7.9-28.7,1v-11c15.9-.3,19.9-.4,28.6-.9,0-3.9,0-4.5-.3-8.9h11.7ZM729.8,217.9c1.7,0,4.2-.9,4.2-6.5s-3.3-5.4-4.3-5.4c-2.2,0-4,2.1-4,5.7s0,6.2,4,6.2Z"/>
            <path d="M756.8,243.6c4.7,4.1,8.4,8.4,11.8,12.7l-8.9,7.3c-3.1-4-7.4-8.9-10.9-12.8l8-7.2Z"/>
          </g>
          <g class="cls-28">
            <path d="M677.2,38.9l7.7,8.3c-1,1.4-1.5,2.5-2,3.5-4.6,9-7.2,12.8-9.3,15.8,12,9.7,17.3,17.6,20.8,22.7l-10.1,7.8c-3.3-5-5.7-8.1-8.5-11.6-1.9-2.6-3.8-4.9-9.4-10-11.6,11.9-19.9,16.3-29.2,20.2-1.1-3.1-2.7-6.9-7.2-10.5,21.6-8.3,31.5-21.1,38.3-33.7h-29v-11.8h36.6l1.3-.6Z"/>
            <path d="M651.8,104.5v18.4c6.6-1.2,14.4-2.7,28.2-8.3l7.5,10.9c-17.4,6-24.8,7.3-35.6,8.8v11.7c0,4,2.7,4.5,4.5,4.7,3,.4,9.2.6,12.3.6,6.7,0,10.3-.3,20.1-1.1v12.6c-7.8.6-15,.6-18.8.6-11.4,0-19.9-1.6-23.4-2.7-6.3-2.3-6.7-5.3-6.7-13.7v-42.5h12ZM697.2,107.1c0,5-4.1,9-9,9s-9-4.9-9-9,4.6-9,9-9,9,5.2,9,9ZM684.5,107.1c0,2.4,2,3.6,3.7,3.6s3.6-1.9,3.6-3.6-2.2-3.6-3.6-3.6-3.7,1.7-3.7,3.6Z"/>
            <path d="M690.4,200.5v8h-53.9v-8h53.9Z"/>
            <path d="M661,245.5v18.4c14.3,5.1,21,8.4,30.2,13.7l-6.3,10.9c-8.6-5.9-21.5-11.3-23.9-12.3v32.1h-12.6v-62.8h12.6ZM675.8,251c3.2,2.4,6.3,4.9,9.2,8.1l-4.7,4.9c-2.7-2.9-6.1-6-9.1-8.3l4.5-4.7ZM681.6,244.9c3.4,2.2,6.3,4.8,9.3,7.8l-4.8,5.1c-3-3.2-5.7-5.8-9.1-8.1l4.5-4.8Z"/>
          </g>
        </g>
      </g>
    </g>
  </g>
</svg>