<?xml version="1.0" encoding="UTF-8"?>
<svg xmlns="http://www.w3.org/2000/svg" version="1.1" viewBox="0 0 1133.9 1020.5">
  <defs>
    <style>
      .cls-1 {
        stroke-width: 2.5px;
      }

      .cls-1, .cls-2, .cls-3, .cls-4, .cls-5, .cls-6, .cls-7, .cls-8, .cls-9, .cls-10, .cls-11, .cls-12, .cls-13, .cls-14, .cls-15, .cls-16, .cls-17, .cls-18, .cls-19, .cls-20, .cls-21, .cls-22 {
        stroke: #231f20;
      }

      .cls-1, .cls-2, .cls-3, .cls-4, .cls-5, .cls-6, .cls-7, .cls-10, .cls-11, .cls-12, .cls-14, .cls-15, .cls-16, .cls-17, .cls-18, .cls-19, .cls-20, .cls-21 {
        stroke-miterlimit: 10;
      }

      .cls-1, .cls-11, .cls-12, .cls-17, .cls-19, .cls-22 {
        fill: none;
      }

      .cls-2, .cls-5, .cls-8, .cls-9, .cls-14, .cls-16 {
        stroke-width: 2px;
      }

      .cls-2, .cls-8, .cls-11, .cls-12, .cls-13, .cls-14, .cls-15, .cls-18, .cls-21, .cls-22 {
        stroke-linecap: round;
      }

      .cls-2, .cls-18 {
        fill: #1b75bb;
      }

      .cls-3 {
        stroke-width: 1.5px;
      }

      .cls-3, .cls-8, .cls-14, .cls-23 {
        fill: #e6e7e8;
      }

      .cls-4, .cls-5, .cls-6, .cls-24, .cls-10, .cls-13, .cls-15 {
        fill: #fff;
      }

      .cls-4, .cls-7, .cls-17, .cls-18 {
        stroke-width: 3px;
      }

      .cls-7, .cls-20 {
        fill: #ffdd15;
      }

      .cls-8, .cls-9, .cls-13, .cls-22 {
        stroke-linejoin: round;
      }

      .cls-9, .cls-25, .cls-21 {
        fill: #404041;
      }

      .cls-10 {
        stroke-width: 4px;
      }

      .cls-11 {
        stroke-width: .5px;
      }

      .cls-26 {
        fill: #231f20;
      }

      .cls-16 {
        fill: #ee4036;
      }
    </style>
  </defs>
  <!-- Generator: Adobe Illustrator 28.7.4, SVG Export Plug-In . SVG Version: 1.2.0 Build 166)  -->
  <g>
    <g id="Layer_2">
      <rect class="cls-24" x="-2772.2" y="-1850.9" width="8519.3" height="4668.3"/>
      <rect class="cls-7" x="28.3" y="28.3" width="1077.2" height="963.8" transform="translate(1133.9 1020.5) rotate(-180)"/>
      <rect class="cls-20" x="36.9" y="36.8" width="1060.2" height="946.8" transform="translate(1133.9 1020.5) rotate(-180)"/>
      <g>
        <g>
          <rect class="cls-1" x="1040.3" y="83.6" width="15.2" height="15.2"/>
          <polyline class="cls-1" points="1017.3 74.1 1047.9 74.1 1047.9 91.3 1065.1 91.3 1065.1 121.8"/>
          <rect class="cls-1" x="1055.5" y="74.1" width="9.5" height="9.5"/>
        </g>
        <g>
          <rect class="cls-1" x="1040.3" y="922.6" width="15.2" height="15.2"/>
          <polyline class="cls-1" points="1017.3 947.4 1047.9 947.4 1047.9 930.2 1065.1 930.2 1065.1 899.6"/>
          <rect class="cls-1" x="1055.5" y="937.8" width="9.5" height="9.5"/>
        </g>
        <g>
          <rect class="cls-1" x="78.3" y="83.6" width="15.2" height="15.2" transform="translate(171.9 182.5) rotate(-180)"/>
          <polyline class="cls-1" points="116.5 74.1 86 74.1 86 91.3 68.8 91.3 68.8 121.8"/>
          <rect class="cls-1" x="68.8" y="74.1" width="9.5" height="9.5" transform="translate(147.1 157.7) rotate(-180)"/>
        </g>
        <g>
          <rect class="cls-1" x="78.3" y="921.6" width="15.2" height="15.2" transform="translate(171.9 1858.4) rotate(-180)"/>
          <polyline class="cls-1" points="116.5 946.4 86 946.4 86 929.2 68.8 929.2 68.8 898.6"/>
          <rect class="cls-1" x="68.8" y="936.8" width="9.5" height="9.5" transform="translate(147.1 1883.2) rotate(-180)"/>
        </g>
        <rect class="cls-17" x="53.8" y="59.1" width="1026.2" height="902.3"/>
        <rect class="cls-19" x="121.5" y="2.8" width="890.9" height="1014.9" transform="translate(56.7 1077.2) rotate(-90)"/>
      </g>
    </g>
    <g id="Layer_1">
      <g>
        <rect class="cls-4" x="136" y="110.1" width="102.4" height="308"/>
        <rect class="cls-6" x="39.8" y="219.6" width="294.7" height="89.1" transform="translate(-77 451.3) rotate(-90)"/>
        <g>
          <path class="cls-26" d="M167.8,176c2.5.2,4.2,1.2,5,3,.7,1.4.9,2.5.8,3.3v.7c.1.2.2.4.3.7-.1.2-.2.4-.2.7l-.2.2c-.1.3-.2.6-.3.8-.2.2-.4.4-.7.7h-.3v.2c-.6.1-1,.2-1.5.3l-.3-.2-.3.2c-1.1-.9-1.7-2.4-1.7-4.6s-.2-2.6-.7-3.6c-.2-.7-.4-1.3-.5-1.8l.5-.3ZM179.2,149c.5.1.9.1,1.2,0l.5.5c.3,0,.6,0,.8.2.2.1.4.3.7.5.3.4.7.9,1.2,1.3,0,.2,0,.4.2.7-.1.6-.3,1.1-.7,1.7-.3.4-.6.9-.8,1.5l.3.2c.3.1.6.3.8.5.4.2.8.4,1.2.5.3.3.7.6,1.2.8-.1.2-.1.5,0,.8-.3.7-.8,1.2-1.3,1.7-.6.6-1,1-1.5,1.5-.4.4-.9.9-1.3,1.3.8,0,1.6.3,2.5,1,2.2,1.5,3,3.5,2.3,5.9l-.5.2c-.3.4-.7.8-1.2,1l-.5-.5-.2.7h-.3c-.4-.3-.8-.3-1.2,0-.3-.3-.6-.7-.7-1-.2-.3-.4-.7-.5-1-.2.2-.4.4-.7.7l.2.2c-.6.4-1.5,1.1-3,2,1.4-.8,2.4-1.1,3-1,2.4.7,4,1.9,4.8,3.8.4,1,.6,1.8.3,2.5h-.3c-.1.2-.2.4-.3.7h-.3l-.2.2-.3.2-.3-.2c-.2.1-.4.2-.5.2-.4-.2-.8-.2-1.2,0h-.3c-.6-.7-1-1.5-1.3-2.5-.6-1.3-1.2-2.5-1.8-3.6,0-.2,0-.4.2-.7-1.7,1.1-3.2,1.9-4.6,2.5.2.1.5.2.8.3,2.3.8,3.9,3,4.6,6.6-.2.3-.3.7-.3,1-.6.6-1.1.7-1.7.5l-.3.3c-.3-.2-.6-.3-.8-.2l-.5-.2c-.2-.2-.4-.4-.5-.7h-.2c-.2-.4-.4-1-.5-1.8-.1-1.5-.6-3.1-1.5-4.8v-.8l-.7.2c-1.4.3-2.6-.3-3.6-1.8v-.7c.1-.5.2-1,.3-1.5l.2-.2c0-.2,0-.4-.2-.7.3-.1.6-.2.8-.3l.2-.2c.3-.2.7-.4,1.2-.7.8-1.5,1.3-2.5,1.7-2.8-.4-.2-.9-.3-1.3-.3-2.2-.7-3.4-1.5-3.6-2.6.3-.4.7-.7,1.2-.7v-.8h.3c.2-.3.7-.5,1.3-.7.7-.1,1.4-.6,2.1-1.5,1.8-2.2,3.2-4.2,4.5-5.9l-.5-.5c0-.3,0-.7-.2-1-.1-.6-.2-1-.2-1.5l.2-.3v-.5c.5-.2,1.2-.2,1.8,0ZM180.2,156.7c-1.5,1.2-3.1,2.6-4.6,4.1l.2.3c.3.1.7.2,1,.3,1.3-1.4,2.5-2.8,3.6-4.1,0-.2,0-.4-.2-.7ZM179.1,164.5c-1.1,1-2.1,2-3.1,3.1,1.5-.4,3-.9,4.3-1.5-.3-.7-.7-1.2-1.2-1.7ZM202.5,154.1c.3.1.7.2,1,.2l.3.2c.2,0,.4,0,.7.2l.2.7-.2.3c.2.2.4.4.5.7.1.1.3.3.5.5v.7c-1.9,1.3-3.6,2.1-5.1,2.3-1.4.3-2.6.7-3.5,1,.4.4.9.8,1.5,1.2.9.7,1.4,1.4,1.5,2.3,0,.4,0,.9.2,1.3-.1.2-.2.5-.2.8,0,.6,0,1-.2,1.5l.2.3-.3.3c.2.7.2,1.3,0,1.8l-.2.2h.2c-.2.7-.4,1.3-.5,1.8-.1.2-.2.5-.2.8l-.3.2v.3l-.3.3-.2.7-.3-.3.2.7c-.4.2-.7.5-.7.8-.3.2-.7.5-1,.8,1.1-.1,2.2-.1,3.3,0,.8,0,1.5-.2,2.1-.7.5-.2,1.1-.4,1.7-.5,1.7.1,3.1.8,4.3,2.1l.2.5-.2,2-.2.2v.3c-1,.8-2,1-3,.7-.8,0-1.5,0-2.1-.2-.3-.1-.7-.2-1-.2-.8-.2-1.5-.4-2.3-.5-2.5,0-5.6.3-9.1,1-.8.1-1.3.4-1.7.8-.2-.1-.4,0-.7.3-.4.1-.8.3-1.2.5-.6-.2-1.2-.6-1.8-1.2-.8-.5-1.4-1.2-2-1.8.1-.2.2-.4.3-.7l.3-.2v-.5c.8-.2,1.5-.4,2.3-.7.2.1.8.1,1.7,0,1.4-.2,2.8-.4,4.1-.7,2.1-7.6,2.6-12.2,1.7-13.7-.2-.8-.4-1.5-.7-2.3-.2.1-.4.2-.7.3-.1.2-.3.4-.5.7-.6-.1-1,0-1.5.2l-.5-.2-.2.2c-.7-.4-1.2-1.1-1.7-2-.8-1.9-1.2-3-1.2-3.3.1-.3.2-.6.2-.8.2-.2.5-.4.8-.5.4,0,1,.2,1.7.5.5.2,1.1.5,1.7.8,3.5-.3,7-1.2,10.6-2.5h.3l.2-.5c.3,0,.6,0,.8-.2Z"/>
          <path class="cls-26" d="M196.1,195c.9.3,1.8.4,2.8.3.7,0,1.3.2,2,.5l.5.2c.1.2.2.4.3.7l.7.2c.1.4.2.8.3,1.2-.2.3-.3.6-.3.8-.2.3-.4.7-.7,1.2-.8.4-1.5.6-2.1.5l-.5.5c-3.1-.2-6.8.2-11.1,1.2-.7.1-1.1.4-1.3.8.3.7.4,1.3.2,2,1.3.8,2.6,1.8,4,3,1.1-1.4,2.1-2.8,3.1-4-.1-.3-.2-.6-.2-.8.1-.2.3-.4.5-.5.4.2.9.2,1.5,0,.7.2,1.3.2,2,0h.3c.3.3.7.6,1.2.7.4.1.8.4,1.2.8-.1.4,0,.8.2,1.2-.3.9-.8,1.7-1.3,2.3l-.3-.2c-.3.1-.9.4-1.7,1-.6.3-1.1.7-1.7,1-.3.1-.7.3-1,.7-.3.1-.7.3-1,.5,2.1,2.5,4.1,4.3,6.1,5.3.4.1,1.8,1,4.1,2.6.8.6,1.3,1.2,1.7,2,.3.6.7,1.1,1.2,1.7l-.2.3c-2.6.8-4.7,1-6.1.7-.3-.1-.7-.2-1-.2s-.7,0-1.2-.2l-.5.2c-.2-.1-.4-.2-.7-.3l-.5.2c-.9-.5-1.7-1.3-2.3-2.1-1-1.2-2-2.4-3.1-3.5-.2.6-.5,1-.8,1.5-.6.6-.9,1-1.2,1.5-.9,2.2-3,4.4-6.4,6.4-.6.6-1.1,1-1.7,1.3-1,.8-1.9,1-2.8.8-.4-.2-.9-.5-1.3-.8-1.2-1.1-1.2-2.3,0-3.5.8-.8,1.2-1.3,1.3-1.7v-1.7c-.2-1.9-.2-4.4,0-7.6-2.2,2.2-4.3,4-6.3,5.5l-.2.3c-.4.3-.9.7-1.3,1-.1.1-.4.3-.8.5-.3.2-.7.4-1.2.7-.2-.2-.4-.4-.5-.7,4.6-5,8.7-10.2,12.2-15.9-1.1.7-2.1,1.2-3.1,1.7-1.1.4-1.9.9-2.5,1.5-1.7.4-3.2.4-4.8-.2-.6-.2-1.1-.4-1.7-.7.5-.8,1.5-1.5,2.8-2.3,7.8-3.7,15.6-6.7,23.5-8.8.6-.2,1-.3,1.3-.3v-.5l.5.3-.2-.7ZM182.2,189.4c.5-.2,1.4-.2,2.5.2.2-.1.6,0,1.2.2.3.1.7.2,1,.3.3.1.7.2,1,.3.9.1,1.4.6,1.7,1.5,0,.6,0,1.2.2,1.8l-.3.2c-.1.4-.3.9-.7,1.3,0,.7-.3,1.3-.8,1.8h-1.2l-.3.2h-.2c-.3-.2-.6-.4-.8-.7-.6-.2-1-.6-1.3-1.2-.2-.5-.6-.9-1-1-.1-.2-.3-.5-.7-.8-1.4-1.3-2.1-2.5-2-3.6.5-.2,1.2-.4,1.8-.5ZM184.2,207.9c-.7.3-1.2.8-1.5,1.3.1.2.3.4.5.7,0,.4,0,.8-.2,1.2-.4,1.2-.5,4.6-.2,10.1.8-.9,2-1.8,3.6-2.8,1.2-.9,2.4-1.8,3.6-2.6-.8-1-1.5-2-2.1-3-.6.2-1.1.4-1.7.5-.2-.1-.5-.2-.8-.2.4-.7,1-1.1,1.7-1.3-.8-1.4-1.8-2.7-3-3.8Z"/>
          <path class="cls-26" d="M172.6,246.6c.5,0,1,0,1.5.2h1.3c.7.3,1.3.8,2,1.3h.5c.1.2.3.4.7.5.1.2.2.4.3.7.3.9.3,1.8,0,2.6-.2.3-.5.8-.8,1.5-2,4.7-4,7.3-5.9,7.6l-.7.2c-.7.6-1.4,1.1-2.1,1.7,1.4-3.7,2.5-7.3,3.1-10.7-.3-.5-.6-1-.8-1.5-.6-1.3-.5-2.3.2-3v-.3h.2l.3-.7h.3ZM183.8,234.5c2.2.4,3.7,1.1,4.6,2,.3.2.7.4,1.2.5.2.3.4.6.7.8-.4,2.2-.7,3.6-.7,4.1-.2,1.9-.3,3.1-.3,3.8s0,1.8-.2,3c-.1,6.5-.1,10.2,0,11.1.1.7,0,1.3-.2,1.8.1.4.2.9.3,1.3-.3.8-.7,1.5-1.2,2.1l-.3.2c-.1.4-.2.9-.3,1.3-.2.1-.4.3-.7.5-.3-.1-.6,0-.8.2h-.5v.3c-.2-.1-.4-.2-.7-.2-.9.1-1.5-.3-1.8-1.2-.3-.8-1-1.3-2-1.7-1.3-.4-2.4-1-3.3-1.8v-.7c.5,0,1.1,0,1.7.2,1.3.2,2.6.2,4,0,.3-6.9.6-13.9.8-20.8,0-.9-.2-1.7-.7-2.3-1-1.8-1.2-3.3-.5-4.6l.3.2-.2-.5.7.3ZM193.8,244.1c1.3.3,2.9,1.3,4.8,2.8,2.8,2.2,4.5,3.7,5.3,4.6.2,1.1.2,2.9,0,5.5-.2.3-.3.7-.2,1l-.3.5c0,.8-.4,1.4-1.2,1.8h-.3c-3.9-4.8-7.1-9.9-9.6-15.2.1-.2.2-.4.2-.7l.3-.3h1Z"/>
          <path class="cls-26" d="M182.2,275.5c.2,0,.4,0,.7.2.3-.1.7-.1,1.2,0h.7c.4,0,.9.2,1.5.5.5.4,1,.7,1.3.7l.3.2c.1.6.4,1.1.8,1.7,0,.7-.1,1.3-.3,1.8,0,.9-.1,1.7-.3,2.5-1,4-1.4,6.1-1.3,6.4.4-.1.9-.2,1.5-.3.2-.4.5-.8.8-1.2l.3.2c.4-.2,1-.2,1.7.2.4.2,1,.3,1.8.2,2.5-.2,5.1-.5,7.6-.8.2-.4.6-.8,1-1,.3,0,1,.2,2.1.5.6.2,1.2.4,1.8.5.2.2.4.4.7.7,1.2.8,1.8,1.7,1.8,2.6s0,.9-.2,1.3c-.6.6-1.1,1-1.7,1.3-1-.2-2.2-.3-3.6-.2h-3.3c-1.8-.1-3.2,0-4.3.2-.1,1.9-.6,3.6-1.5,5.3-.2.6-.4,1.1-.5,1.7-.7.7-1.2,1.5-1.7,2.5,1.4.9,2.8,1.8,4.1,2.6,1.5.9,2.8,1.9,3.8,3.1h.2c.3.4.4.9.3,1.5.1.2.2.4.3.7,0,.9,0,1.7-.2,2.5l-.3.5c-.7,0-1.2.1-1.7.3-.4-.2-.8-.4-1.2-.7-.9-.1-1.8-.8-2.6-2-.3-.1-.7-.4-1.2-.8-1.3-1.4-2.9-2.8-4.8-4-.9.4-1.7.9-2.3,1.5h-.3c-.3.3-.7.6-1,.8-.3.1-.6.2-.8.3-.2.1-.4.2-.7.3-.7.2-1.3.6-1.8,1-.2-.1-.6,0-1,.2-1.5.5-2.2.8-2,.7-.4,0-1,.1-1.8.3-1.2.2-2,.4-2.3.5-.9.3-1.8.4-2.8.2,4.6-2.1,8.6-4.8,11.9-8.3-2.4-.8-3.9-1.1-4.5-1-.3,0-.6,0-.8-.2-.3.1-.6.2-.8.2-.7-.5-1-1.1-1-1.7l-.3-.3c.2-.4.3-.8.3-1.2l.5-.7v-.3l.2-.3c.4-.3.9-.9,1.3-1.7.2-.5.5-1.1.8-1.7-3.2.7-5.1,1.2-5.8,1.7v.3c-.6.2-1,.4-1.5.5-.7.2-1.3.5-2,.8l-1-1c-.4-.8-.9-1.5-1.5-2.1v-.8l.2-.2-.2-.5.3-.5c.1-.1.4-.1,1,0,.4,0,1-.1,1.7-.3,3.6-1.3,7.3-2.3,10.9-3,.8-3.4,1.4-6.8,1.8-10.2-.3-.2-.6-.5-.8-.8,0-.5,0-1-.2-1.5-.1-.3-.2-.7-.2-1l.2-.2v-.3l.2-.3h.3v-.5ZM186.7,294c-.9,0-1.5.4-2,1.3-.7,1.1-1.3,2.4-2,4,1.2.4,2.4.9,3.5,1.5,1.4-2.3,2.3-4.6,2.6-6.8-.4-.1-1.2-.1-2.1,0Z"/>
        </g>
      </g>
      <g>
        <rect class="cls-10" x="328.8" y="80.6" width="476.3" height="859.2"/>
        <rect class="cls-20" x="342.1" y="94" width="449.7" height="832.6"/>
        <circle class="cls-5" cx="566.9" cy="375.7" r="166.5"/>
      </g>
      <g>
        <path class="cls-18" d="M507,403.9h119.2c7.8,0,14.2,6.4,14.2,14.2v122.1h-147.6v-122.1c0-7.8,6.4-14.2,14.2-14.2Z"/>
        <path class="cls-9" d="M615.7,369.8c0,38.4,74.5,177.6-49.1,177.6s-49.1-139.2-49.1-177.6,3.7-73.5,49.1-73.5,49.1,35.1,49.1,73.5Z"/>
        <g>
          <path class="cls-14" d="M541.6,404.1c-4.7,7.3-22.1,10.9-27.5,14.6-5.4,3.7-7,45.6-7,45.6,0,13.8.3,36.9,3.5,54.9,3.5,19.4-1.1,41.6,5.7,59.8,6.2,16.7,28,43.8,50.4,43.8,22.3,0,44.2-27.1,50.4-43.8,6.8-18.2,2.2-40.4,5.7-59.8,3.3-18,3.5-41.1,3.5-54.9,0,0-1.6-41.9-7-45.6s-22.8-7.3-27.5-14.6"/>
          <g>
            <g>
              <path class="cls-23" d="M582.8,813.9c-1.7,0-3.3-.7-4.4-1.9-1.2-1.3-1.9-3.1-1.9-5,0-2.1.7-3.9,1.2-5.3.2-.6.5-1.3.4-1.6,0-.2-.1-.7-.3-1.3-.5-2.1-1.4-5.9-1.3-9.7,0-3.1.9-5.8,1.7-8.5.5-1.6,1-3.3,1.3-5,.3-1.7.2-2.8,0-4.2-.2-2-.5-4.2.8-8.4,2-6.5,1-21.5-1.6-25.8-2.9-4.8-4.7-18.4-2.5-26.4,1.2-4.5.6-8.3,0-11.9-.4-2.4-.7-4.6-.5-6.8.1-1.2-.9-4.9-2.2-9.5-3.9-13.9-11.1-39.9-6.1-64.3,6.8-33,49-40.4,49.4-40.5,0,0,.1,0,.2,0,.2,0,.5,0,.6.2.2.2.4.5.4.7.1,3.9,1,8.3,2,13.3,1.4,7.3,3.2,16.3,3.7,28.3.6,16.3-4.8,40.3-7.3,51.8-.7,2.9-1.1,5.1-1.3,6.1-.3,1.8-.3,3.6-.2,5.5,0,3.3.1,7.1-1.7,12.1-1.3,3.8-1,8.1-.5,13.6.4,5.1.9,10.9.1,18-1.1,10.1-2.6,16.5-3.6,20.8-.5,2-.8,3.4-.9,4.4-.2,1.7.3,3.2.8,4.7.4,1.3.9,2.7.8,4,0,1.4-.4,2.3-.8,3.1-.4.9-.8,1.8-.9,3.9,0,2,1.7,7,3.3,11.3,1.4,4,2.8,7.8,3.1,10.1.6,4.1-.3,6.4-.8,7.2.2,1.2.5,4.5-.9,6.3-.5.7-1.3,1.1-2.2,1.1-.5,1.2-1.6,3.4-3.9,3.6-.1,0-.3,0-.4,0-1.1,0-1.9-.3-2.5-.6-.7,1-1.9,2.5-3.8,2.6-.2,0-.3,0-.5,0-1.1,0-1.9-.4-2.4-.8-1,1.3-2.8,3.1-4.9,3.1s-.2,0-.2,0c-1.5,0-2.5-1-3.2-2-.8,1.2-2.2,2.4-4.5,2.9-.5.1-1.1.2-1.6.2Z"/>
              <path class="cls-26" d="M617,579c.3,9.7,4.9,21.3,5.7,41.6s-7.8,52.4-8.6,57.7c-.8,5.3.8,9.9-1.8,17.5-2.7,7.6,1.1,17.2-.5,31.9s-4.2,21.8-4.5,25.2c-.4,3.4,1.7,6.1,1.6,8.9,0,2.7-1.6,2.9-1.7,7,0,4.1,5.7,16.7,6.4,21.6.7,4.9-.8,6.9-.8,6.9,0,0,1.3,6.6-2.4,6.6s-.3,0-.4,0c0,0-.8,3.5-3.3,3.6-.1,0-.2,0-.4,0-2.1,0-2.8-1.1-2.8-1.1,0,0-1.2,2.9-3.6,3.2-.1,0-.3,0-.4,0-2,0-2.4-1.6-2.4-1.6,0,0-2.3,3.8-4.9,3.8s-.1,0-.2,0c-2.7-.2-3.3-3.9-3.3-3.9,0,0,0,3.9-4.6,4.9-.5.1-.9.2-1.4.2-3.3,0-5.4-2.9-5.3-5.8.1-3.3,1.7-6,1.6-7-.1-1-1.7-6-1.6-10.8.1-4.8,2.1-8.8,2.9-13.3.8-4.5-1.3-5.7.8-12.5,2.1-6.8,1-22.1-1.7-26.6-2.8-4.5-4.5-17.9-2.4-25.6,2.1-7.7-.9-13.6-.4-18.9.5-5.3-15-40.9-8.3-73.6,6.7-32.7,48.6-39.7,48.6-39.7M617,577c-.1,0-.2,0-.3,0-.4,0-10.9,1.9-22.4,7.8-15.4,7.9-25,19.5-27.9,33.5-5,24.6,2.2,50.7,6.1,64.7,1.1,4,2.2,8.1,2.1,9.1-.2,2.3.1,4.6.5,7.1.5,3.6,1.1,7.3,0,11.5-2.2,8.2-.4,22.2,2.6,27.1,2.3,3.8,3.6,18.4,1.5,25-1.4,4.4-1.1,6.8-.8,8.9.1,1.2.3,2.3,0,3.9-.3,1.6-.8,3.2-1.3,4.9-.8,2.7-1.6,5.5-1.7,8.7,0,3.9.9,7.8,1.4,10,0,.4.2.8.2,1,0,.2-.2.8-.4,1.2-.5,1.4-1.2,3.3-1.2,5.6,0,2.1.7,4.2,2.1,5.7,1.3,1.4,3.2,2.2,5.2,2.2s1.2,0,1.8-.2c2-.4,3.3-1.3,4.3-2.3.8.8,1.8,1.3,3.1,1.4,0,0,.2,0,.3,0,2.1,0,3.9-1.4,5.1-2.7.6.3,1.3.5,2.2.5s.4,0,.6,0c1.9-.2,3.2-1.3,4.1-2.4.6.2,1.3.3,2.1.3s.3,0,.5,0c2.4-.1,3.8-2,4.6-3.7.9-.2,1.6-.7,2.2-1.4,1.6-1.9,1.4-5.2,1.2-6.8.6-1.2,1.3-3.6.7-7.5-.3-2.4-1.7-6.3-3.2-10.3-1.4-4-3.3-9.1-3.2-10.9,0-1.8.4-2.6.8-3.5.4-.9.9-1.8.9-3.5,0-1.6-.4-3-.9-4.4-.5-1.5-.9-2.9-.8-4.3.1-1,.5-2.4.9-4.3,1-4.3,2.6-10.8,3.6-21,.8-7.2.3-13-.1-18.2-.4-5.4-.8-9.6.5-13.2,1.8-5.2,1.8-9,1.7-12.5,0-1.8,0-3.6.2-5.3.2-1,.7-3.2,1.3-6,2.6-11.6,8-35.6,7.4-52.1-.5-12.1-2.3-21.1-3.7-28.4-1-5-1.9-9.3-2-13.2,0-.6-.3-1.1-.7-1.5-.4-.3-.8-.5-1.3-.5h0Z"/>
            </g>
            <path class="cls-26" d="M602.8,695.4s0,.4-.2,1c-.2.6-.5,1.3-.9,2-.4.7-.8,1.3-1.2,1.8-.3.5-.6.8-.6.8,0,0-.1-.4,0-1.1.1-.6.4-1.4.8-2.1.4-.7.9-1.3,1.3-1.8.4-.5.7-.7.7-.7Z"/>
            <path class="cls-26" d="M587.9,811.1s.1-.6.3-1.5c.2-.9.4-2.1.5-3.3,0-.6,0-1.2,0-1.8,0-.3,0-.5-.1-.8,0-.3-.1-.5-.2-.7-.1-.2-.2-.4-.3-.5-.1-.1-.2-.3-.3-.4-.2-.2-.3-.3-.3-.3,0,0,.1.1.3.3.1,0,.2.2.3.4.1.1.2.3.3.5,0,.2.2.4.3.7,0,.3.2.5.2.8.1.6.2,1.2.2,1.8,0,1.2,0,2.5-.1,3.4,0,.9-.1,1.5-.1,1.5,0,.3-.3.5-.5.5-.3,0-.5-.3-.5-.5,0,0,0,0,0,0Z"/>
            <path class="cls-26" d="M596.7,809.8s0-.1,0-.3c0-.2,0-.5.2-.9.2-.7.4-1.6.5-2.6.2-.9.3-1.9.2-2.6,0-.4,0-.6-.2-.8,0-.2-.1-.3-.1-.3,0,0,0,.1.2.3,0,.2.2.5.3.8.1.7.2,1.7.1,2.7,0,1-.1,1.9-.2,2.7,0,.3,0,.6,0,.8,0,.2,0,.3,0,.3,0,.3-.2.5-.5.5-.3,0-.5-.2-.5-.5,0,0,0,0,0,0Z"/>
            <path class="cls-26" d="M603.1,808.1s0,0,.1-.3c0-.2.2-.3.2-.6.2-.6.3-1.4.4-2.2,0-.8,0-1.7-.2-2.3,0-.3-.2-.5-.3-.7-.1-.1-.2-.2-.2-.2,0,0,0,0,.2.2.1.1.3.4.4.7.3.6.5,1.4.5,2.3,0,.9,0,1.7,0,2.4,0,.3-.1.6-.2.8,0,.2,0,.3,0,.3,0,.3-.4.4-.6.3s-.4-.4-.3-.6c0,0,0,0,0,0Z"/>
            <path class="cls-26" d="M609.5,805.6s0,0,0-.3c0-.2.1-.3.2-.6.1-.5.2-1.3.2-2.1,0-.8-.1-1.5-.3-2,0-.3-.2-.5-.4-.6-.1-.1-.2-.2-.2-.2,0,0,0,0,.2.1.1.1.3.3.5.5.3.5.6,1.3.7,2.1.2.8.2,1.6.2,2.2,0,.3,0,.6,0,.8,0,.2,0,.3,0,.3,0,.3-.3.5-.6.4-.3,0-.5-.3-.4-.6,0,0,0,0,0,0Z"/>
            <path class="cls-26" d="M585.5,697.4s.4,0,.8.1c.2,0,.5.2.8.4.3.2.5.4.7.7.2.3.4.6.5.8.1.3.2.6.2.8,0,.5,0,.8,0,.8,0,0-.2-.3-.5-.6-.3-.3-.6-.8-.9-1.3-.3-.4-.7-.9-1-1.2-.3-.4-.5-.6-.5-.6Z"/>
            <path class="cls-11" d="M585.6,807.8c-.8.2-1.4-.4-2.2.1s-.8,1.2-2,1.2-1.6-3.2,1.6-4.4,4.1,2.8,2.6,3.1Z"/>
            <path class="cls-11" d="M594.9,807.3c-.7.4-1.1-.1-2,.4s-.8,1.2-2,1.2-1.4-3.4,1.6-4,2.8,2.1,2.3,2.4Z"/>
            <path class="cls-11" d="M602.2,805.3c-.5.2-.8,0-1.4.2s-.6.7-1.4.7-1-1.9,1.2-2.2,2,1.2,1.7,1.3Z"/>
            <path class="cls-11" d="M608,803.6c-.5.2-.7,0-1.3.3s-.5.7-1.3.7-.9-1.9,1-2.3c1-.2,1.8,1.2,1.5,1.3Z"/>
          </g>
          <g>
            <g>
              <path class="cls-23" d="M550.5,813.9c-.5,0-1.1,0-1.6-.2-2.3-.5-3.7-1.7-4.5-2.9-.6,1-1.6,1.9-3.2,2,0,0-.2,0-.2,0-2.1,0-3.9-1.8-4.9-3.1-.5.5-1.3.8-2.4.8s-.3,0-.5,0c-1.9-.2-3.1-1.6-3.8-2.6-.6.3-1.4.6-2.5.6s-.3,0-.4,0c-2.3-.1-3.5-2.3-3.9-3.6-.9,0-1.6-.5-2.2-1.1-1.5-1.8-1.1-5.1-.9-6.3-.5-.9-1.4-3.2-.8-7.2.3-2.3,1.7-6.1,3.1-10.1,1.6-4.3,3.3-9.2,3.3-11.3,0-2.1-.4-3-.9-3.9-.4-.8-.8-1.7-.8-3.1,0-1.4.4-2.7.8-4,.5-1.5,1-3.1.8-4.7-.1-1-.5-2.4-.9-4.4-1-4.3-2.6-10.8-3.6-20.8-.7-7.1-.3-12.9.1-18,.4-5.5.8-9.9-.5-13.6-1.8-5-1.7-8.8-1.7-12.1,0-1.9,0-3.7-.2-5.5-.2-1-.6-3.1-1.3-6.1-2.6-11.5-8-35.5-7.3-51.8.5-12,2.3-21,3.7-28.2,1-5,1.9-9.4,2-13.3,0-.3.1-.6.4-.7.2-.1.4-.2.6-.2s.1,0,.2,0c.4,0,42.7,7.5,49.4,40.5,5,24.4-2.2,50.3-6.1,64.3-1.3,4.6-2.3,8.3-2.2,9.5.2,2.2-.1,4.4-.5,6.8-.6,3.7-1.1,7.5,0,11.9,2.2,8,.4,21.6-2.5,26.4-2.7,4.4-3.6,19.3-1.6,25.8,1.3,4.2,1,6.5.8,8.4-.2,1.3-.3,2.5,0,4.2.3,1.7.8,3.4,1.3,5,.8,2.6,1.6,5.4,1.7,8.5,0,3.8-.8,7.6-1.3,9.7-.1.6-.3,1.1-.3,1.3,0,.2.2,1,.4,1.5.5,1.3,1.1,3.2,1.2,5.3,0,1.9-.6,3.7-1.9,5-1.2,1.2-2.7,1.9-4.4,1.9h0Z"/>
              <path class="cls-26" d="M516.3,579s41.9,7,48.6,39.7c6.7,32.7-8.8,68.4-8.3,73.6.5,5.3-2.5,11.3-.4,18.9,2.1,7.7.4,21.1-2.4,25.6-2.8,4.5-3.8,19.9-1.7,26.6,2.1,6.8,0,8,.8,12.5.8,4.5,2.8,8.5,2.9,13.3.1,4.8-1.5,9.8-1.6,10.8-.1,1,1.5,3.7,1.6,7,.1,2.9-1.9,5.8-5.3,5.8s-.9,0-1.4-.2c-4.7-1-4.6-4.9-4.6-4.9,0,0-.6,3.8-3.3,3.9,0,0-.1,0-.2,0-2.7,0-4.9-3.8-4.9-3.8,0,0-.4,1.6-2.4,1.6s-.3,0-.4,0c-2.3-.2-3.6-3.2-3.6-3.2,0,0-.7,1.1-2.8,1.1s-.2,0-.4,0c-2.4-.1-3.3-3.6-3.3-3.6-.1,0-.3,0-.4,0-3.6,0-2.4-6.6-2.4-6.6,0,0-1.5-2-.8-6.9.7-4.9,6.5-17.5,6.4-21.6,0-4.1-1.6-4.3-1.7-7,0-2.7,2-5.5,1.6-8.9-.4-3.4-3-10.6-4.5-25.2s2.2-24.3-.5-31.9c-2.7-7.6-1-12.2-1.8-17.5-.8-5.3-9.4-37.4-8.6-57.7s5.4-31.9,5.7-41.6M516.3,577c-.5,0-.9.2-1.3.5-.4.4-.7.9-.7,1.5-.1,3.9-1,8.2-2,13.2-1.5,7.3-3.3,16.4-3.7,28.4-.6,16.5,4.8,40.5,7.4,52.1.6,2.8,1.1,5,1.3,6,.3,1.8.3,3.5.2,5.3,0,3.4-.1,7.3,1.7,12.5,1.3,3.6.9,7.8.5,13.2-.4,5.2-.9,11-.1,18.2,1.1,10.1,2.6,16.6,3.6,21,.4,1.9.8,3.3.9,4.3.2,1.5-.3,2.8-.8,4.3-.4,1.4-.9,2.8-.9,4.4,0,1.6.5,2.6.9,3.5.4.9.8,1.6.8,3.5,0,1.9-1.8,6.9-3.2,10.9-1.5,4.1-2.8,7.9-3.2,10.3-.6,3.9.2,6.4.7,7.5-.2,1.6-.4,4.8,1.2,6.8.6.7,1.4,1.2,2.2,1.4.8,1.7,2.2,3.5,4.6,3.7.2,0,.3,0,.5,0,.9,0,1.6-.1,2.1-.3.9,1.1,2.2,2.2,4.1,2.4.2,0,.4,0,.6,0,.9,0,1.6-.2,2.2-.5,1.2,1.3,3,2.7,5.1,2.7s.2,0,.3,0c1.3,0,2.3-.6,3.1-1.4,1,1,2.3,1.9,4.3,2.3.6.1,1.2.2,1.8.2,2,0,3.8-.8,5.2-2.2,1.4-1.5,2.2-3.6,2.1-5.7,0-2.3-.7-4.2-1.2-5.6-.1-.4-.3-1-.4-1.2,0-.2.1-.7.2-1,.5-2.1,1.5-6,1.4-10,0-3.2-.9-6-1.7-8.7-.5-1.7-1-3.2-1.3-4.9-.3-1.5-.1-2.6,0-3.9.2-2.1.5-4.4-.8-8.9-2-6.6-.8-21.2,1.5-25,3-4.9,4.8-19,2.6-27.1-1.2-4.3-.6-7.9,0-11.5.4-2.5.7-4.8.5-7.1-.1-1,1-5.1,2.1-9.1,3.9-14,11.1-40.1,6.1-64.7-2.9-14-12.5-25.6-27.9-33.5-11.5-5.9-21.9-7.7-22.4-7.8-.1,0-.2,0-.3,0h0Z"/>
            </g>
            <path class="cls-26" d="M530.5,695.4s.3.3.7.7c.4.5.9,1.1,1.3,1.8.4.7.7,1.5.8,2.1.1.6,0,1.1,0,1.1,0,0-.2-.4-.6-.8-.3-.5-.8-1.1-1.2-1.8-.4-.7-.7-1.4-.9-2-.2-.6-.2-1-.2-1Z"/>
            <path class="cls-26" d="M544.4,811.2s0-.6-.1-1.5c0-.9-.2-2.1-.1-3.4,0-.6,0-1.2.2-1.8,0-.3.1-.6.2-.8,0-.3.2-.5.3-.7.1-.2.2-.4.3-.5.1-.1.2-.3.3-.4.2-.2.3-.3.3-.3,0,0,0,.1-.3.3,0,0-.2.2-.3.4-.1.1-.2.3-.3.5,0,.2-.2.4-.2.7,0,.2,0,.5-.1.8,0,.6,0,1.2,0,1.8,0,1.2.3,2.4.5,3.3.2.9.3,1.5.3,1.5,0,.3-.1.5-.4.6s-.5-.1-.6-.4c0,0,0,0,0,0Z"/>
            <path class="cls-26" d="M535.6,809.9s0-.1,0-.3c0-.2,0-.5,0-.8,0-.7-.2-1.7-.2-2.7,0-1,0-2,.1-2.7,0-.4.2-.6.3-.8.1-.2.2-.3.2-.3,0,0,0,.1-.1.3,0,.2-.1.5-.2.8,0,.7,0,1.7.2,2.6.2.9.4,1.9.5,2.6,0,.4.1.7.2.9,0,.2,0,.3,0,.3,0,.3-.1.5-.4.6-.3,0-.5-.1-.6-.4,0,0,0,0,0,0Z"/>
            <path class="cls-26" d="M529.3,808.5s0-.1,0-.3c0-.2-.1-.5-.2-.8-.1-.7-.1-1.5,0-2.4,0-.9.3-1.7.5-2.3.1-.3.3-.5.4-.7.1-.1.2-.2.2-.2,0,0,0,0-.2.2-.1.2-.2.4-.3.7-.2.6-.2,1.4-.2,2.3,0,.8.2,1.6.4,2.2,0,.3.2.5.2.6,0,.2.1.3.1.3.1.2,0,.5-.2.7-.2.1-.5,0-.7-.2,0,0,0,0,0,0Z"/>
            <path class="cls-26" d="M522.8,805.9s0,0,0-.3c0-.2,0-.5,0-.8,0-.6,0-1.4.2-2.2.1-.8.4-1.5.7-2.1.1-.3.3-.4.5-.5.1,0,.2-.1.2-.1,0,0,0,0-.2.2-.1.1-.3.3-.4.6-.2.5-.3,1.3-.3,2,0,.8,0,1.5.2,2.1,0,.3.1.5.2.6,0,.2,0,.3,0,.3,0,.3,0,.5-.3.6-.3,0-.5,0-.6-.3,0,0,0,0,0,0Z"/>
            <path class="cls-26" d="M547.8,697.4s-.2.2-.5.6c-.3.3-.6.8-1,1.2-.3.5-.7.9-.9,1.3-.3.4-.5.6-.5.6,0,0,0-.3,0-.8,0-.2,0-.5.2-.8.1-.3.3-.6.5-.8.2-.3.4-.5.7-.7.2-.2.5-.3.8-.4.5-.2.8-.1.8-.1Z"/>
            <path class="cls-11" d="M547.7,807.8c.8.2,1.4-.4,2.2.1s.8,1.2,2,1.2,1.6-3.2-1.6-4.4c-2-.7-4.1,2.8-2.6,3.1Z"/>
            <path class="cls-11" d="M538.4,807.3c.7.4,1.1-.1,2,.4s.8,1.2,2,1.2,1.4-3.4-1.6-4-2.8,2.1-2.3,2.4Z"/>
            <path class="cls-11" d="M531.1,805.3c.5.2.8,0,1.4.2s.6.7,1.4.7,1-1.9-1.2-2.2-2,1.2-1.7,1.3Z"/>
            <path class="cls-11" d="M525.3,803.6c.5.2.7,0,1.3.3s.5.7,1.3.7.9-1.9-1-2.3c-1-.2-1.8,1.2-1.5,1.3Z"/>
          </g>
          <g>
            <path class="cls-23" d="M540.1,416.7c1.1-3.1,3-16.1,1.7-22.7l24.9-2,24.9,2c-1.3,6.5.6,19.5,1.7,22.7"/>
            <path class="cls-26" d="M540.1,416.7c.3-.9.4-1.9.5-2.8.1-.9.3-1.9.4-2.8.2-1.9.4-3.8.5-5.7,0-1.9.2-3.8.1-5.7,0-.9,0-1.9-.1-2.8l-.2-1.4c0-.5-.2-.9-.2-1.4v-.8c-.1,0,.7,0,.7,0,4.1-.4,8.3-.8,12.4-1.2l12.4-1.1h0s0,0,0,0l12.4,1c4.1.4,8.3.7,12.4,1.2h.8c0,0-.1.9-.1.9,0,.5-.2.9-.2,1.4l-.2,1.4c0,.9-.1,1.9-.1,2.8,0,1.9,0,3.8.1,5.7,0,1.9.2,3.8.5,5.7.1.9.2,1.9.4,2.8.1.9.3,1.9.5,2.8-.7-1.8-1.1-3.7-1.4-5.6-.4-1.9-.7-3.8-.9-5.7-.1-1-.2-1.9-.3-2.9,0-1-.1-1.9-.2-2.9,0-1,0-1.9,0-2.9v-1.5c.2-.5.2-1,.3-1.5l.7.9c-4.2-.2-8.3-.5-12.4-.8l-12.4-.9h.2l-12.4.9c-4.1.3-8.3.6-12.4.8l.7-.9c0,.5.1,1,.2,1.5v1.5c.1,1,.1,1.9.1,2.9,0,1,0,1.9-.2,2.9,0,1-.2,1.9-.3,2.9-.2,1.9-.5,3.8-.9,5.7-.4,1.9-.8,3.8-1.4,5.6Z"/>
          </g>
        </g>
        <g>
          <path class="cls-13" d="M642.9,617s-2.7-3.3-6.2-1c-3.5,2.3,3.4,5.9,3.4,5.9l2.8-4.9Z"/>
          <path class="cls-8" d="M618.1,472.5c2.3,20.6,9.9,49.8,9.9,49.8,0,0-1.1,17,1.1,27.4,2.2,10.4,6.6,18.3,7.5,24,.7,4.6-.4,7,0,8.9,0,0,0,0,0,0-1.8,1.9-2.2,10.3-2.4,13.6-.2,3.3-1.8,8.2-3.1,10-1.2,1.8-.2,3.8,1.2,3.8s4.9-1.3,5.4-4.7c.5-3.5,2.2-3.8,1.6-6.3,0,0,2.4,3.5,3.5,4,1.1.5-.5,4-.6,7-.1,3,1,5.5,1,6.3,0,.7-3.9,4.6-4.1,7.1-.2,2.6,0,3.3,1.7,3.3s3.1-1.6,3.1-1.6c0,0,1.9-.2,3.3-1.2,0,0,1.6,2,4,.9s2.8-2.8,2.8-2.8c0,0,1.6,2.1,3.5-.4,1.9-2.6,2.8-4,2.9-6.1.2-2.1-1-6.3-.7-7.8.4-2.2-.5-5.2-.2-7.2.3-1.9-.8-10.8-2-13.3.6-1.4,1-4.3,0-7.3s-.3-14.2.5-24.5c.8-10.2-2.7-23.4-4-27-1.4-3.7-1.5-5.7-1.5-33.2,0-27.7-4.9-32.9-9.7-50.3-4.9-17.4-17.4-26.8-23.5-28.7"/>
          <path class="cls-26" d="M643.4,624.6s.2-.2.6-.6c.3-.4.8-.9,1.4-1.7.5-.7,1.1-1.6,1.7-2.6.3-.5.6-1,.9-1.5.3-.5.6-1.1.8-1.6.4-1.1.6-2.3.7-3.4.2-1.1.3-2.2.6-3.1.2-.9.5-1.6.8-2.1.1-.2.3-.4.3-.5,0-.1.1-.2.1-.2,0,0,0,0-.1.2,0,.1-.2.3-.3.5-.3.5-.5,1.2-.7,2.1-.2.9-.3,1.9-.4,3.1-.1,1.1-.2,2.4-.6,3.6-.2.6-.5,1.1-.7,1.7-.3.5-.5,1.1-.8,1.6-.5,1-1.1,1.9-1.6,2.7-.5.8-1,1.4-1.4,1.8-.4.4-.6.6-.6.6h0c-.2.2-.5.2-.7,0-.2-.2-.2-.5,0-.7,0,0,0,0,0,0Z"/>
          <path class="cls-26" d="M646.8,623.4s.2-.2.5-.4c.3-.3.8-.7,1.3-1.3,1.1-1.1,2.5-2.5,3.8-4.1.3-.4.6-.8.9-1.2.2-.4.3-.9.4-1.4.1-.9.1-1.8.1-2.6,0-.8,0-1.4.2-1.9,0-.2,0-.4.1-.5,0-.1,0-.2,0-.2,0,0,0,0,0,.2,0,.1,0,.3,0,.5,0,.4,0,1.1,0,1.9,0,.8,0,1.7,0,2.6,0,.5-.1,1-.3,1.5-.2.5-.5.9-.8,1.3-1.2,1.7-2.6,3.2-3.6,4.4-.5.6-1,1-1.3,1.4-.3.3-.5.5-.5.5h0c-.2.2-.5.2-.7,0s-.2-.5,0-.7c0,0,0,0,0,0Z"/>
          <path class="cls-26" d="M656.9,609.2s0,.8,0,2.1c0,.6.1,1.4.2,2.2,0,.8.2,1.6.2,2.5,0,.2,0,.4,0,.7,0,.1,0,.2,0,.3,0,.1,0,.2,0,.3-.2.4-.4.8-.6,1.2-.4.7-.8,1.3-1.1,1.9-.7,1.1-.9,1.8-.9,1.8,0,.3-.4.4-.6.3-.3,0-.4-.4-.3-.6,0,0,0,0,0,0h0s.4-.9,1.1-1.9c.4-.5.8-1.1,1.3-1.8.2-.3.4-.7.6-1,0,0,0-.2.1-.3,0,0,0-.2,0-.3,0-.2,0-.4,0-.6,0-.8,0-1.7,0-2.5,0-.8,0-1.5,0-2.2,0-1.3.1-2.1.1-2.1Z"/>
          <path class="cls-26" d="M640.4,511.7s.1.7,0,1.7c0,.5-.1,1.1-.2,1.7-.1.6-.3,1.3-.5,1.9-.3.6-.5,1.3-.9,1.8-.2.3-.3.5-.5.8-.2.2-.3.5-.5.6-.3.4-.7.7-.9.8-.2.2-.4.3-.4.3,0,0,0-.1.2-.4.2-.2.3-.6.6-1,.1-.2.2-.5.3-.7.1-.2.2-.5.4-.8.1-.3.2-.6.4-.9.1-.3.2-.6.3-.9.5-1.2.8-2.4,1.1-3.4.3-.9.5-1.6.5-1.6Z"/>
        </g>
        <g>
          <path class="cls-13" d="M491,617s2.7-3.3,6.2-1c3.5,2.3-3.4,5.9-3.4,5.9l-2.8-4.9Z"/>
          <path class="cls-8" d="M515.8,472.5c-2.3,20.6-9.9,49.8-9.9,49.8,0,0,1.1,17-1.1,27.4-2.2,10.4-6.6,18.3-7.5,24-.7,4.6.4,7,0,8.9,0,0,0,0,0,0,1.8,1.9,2.2,10.3,2.4,13.6.2,3.3,1.8,8.2,3.1,10,1.2,1.8.2,3.8-1.2,3.8s-4.9-1.3-5.4-4.7c-.5-3.5-2.2-3.8-1.6-6.3,0,0-2.4,3.5-3.5,4-1.1.5.5,4,.6,7,.1,3-1,5.5-1,6.3,0,.7,3.9,4.6,4.1,7.1.2,2.6,0,3.3-1.7,3.3-1.7,0-3.1-1.6-3.1-1.6,0,0-1.9-.2-3.3-1.2,0,0-1.6,2-4,.9s-2.8-2.8-2.8-2.8c0,0-1.6,2.1-3.5-.4-1.9-2.6-2.8-4-2.9-6.1-.2-2.1,1-6.3.7-7.8-.4-2.2.5-5.2.2-7.2-.3-1.9.8-10.8,2-13.3-.6-1.4-1-4.3,0-7.3.9-2.9.3-14.2-.5-24.5-.8-10.2,2.7-23.4,4-27,1.4-3.7,1.5-5.7,1.5-33.2,0-27.7,4.9-32.9,9.7-50.3,4.9-17.4,17.4-26.8,23.5-28.7"/>
          <path class="cls-26" d="M489.7,625.3s-.2-.2-.6-.6c-.4-.4-.8-1-1.4-1.8-.5-.8-1.1-1.7-1.6-2.7-.3-.5-.5-1-.8-1.6-.3-.6-.5-1.1-.7-1.7-.4-1.2-.5-2.4-.6-3.6-.1-1.1-.2-2.2-.4-3.1-.2-.9-.4-1.6-.7-2.1-.1-.2-.2-.4-.3-.5,0-.1-.1-.2-.1-.2,0,0,0,0,.1.2,0,.1.2.3.3.5.3.5.6,1.2.8,2.1.2.9.4,2,.6,3.1.2,1.1.3,2.3.7,3.4.2.5.5,1.1.8,1.6.3.5.6,1,.9,1.5.6,1,1.2,1.8,1.7,2.6.5.7,1,1.3,1.4,1.7.3.4.6.6.6.6.2.2.2.5,0,.7s-.5.2-.7,0c0,0,0,0,0,0h0Z"/>
          <path class="cls-26" d="M486.4,624.2s-.2-.2-.5-.5c-.3-.3-.8-.8-1.3-1.4-1-1.2-2.4-2.7-3.6-4.4-.3-.4-.6-.9-.8-1.3-.2-.5-.3-1-.3-1.5,0-1,0-1.9,0-2.6,0-.8,0-1.4,0-1.9,0-.2,0-.4,0-.5,0-.1,0-.2,0-.2,0,0,0,0,0,.2,0,.1,0,.3.1.5,0,.4.1,1.1.2,1.9,0,.8,0,1.7.1,2.6,0,.5.2.9.4,1.4.2.4.5.8.9,1.2,1.3,1.6,2.7,3,3.8,4.1.5.5,1,1,1.3,1.3.3.3.5.4.5.4.2.2.3.5,0,.7-.2.2-.5.3-.7,0,0,0,0,0,0,0h0Z"/>
          <path class="cls-26" d="M476.9,609.2s.1.8.1,2.1c0,.6,0,1.4,0,2.2,0,.8,0,1.6,0,2.5,0,.2,0,.4,0,.6,0,0,0,.2,0,.3,0,0,0,.2.1.3.2.3.4.7.6,1,.4.6.9,1.2,1.3,1.8.8,1,1.1,1.9,1.1,1.9h0c.1.3,0,.6-.3.7s-.5,0-.7-.3c0,0,0,0,0,0,0,0-.2-.7-.9-1.8-.3-.5-.7-1.2-1.1-1.9-.2-.4-.4-.7-.6-1.2,0-.1,0-.2,0-.3,0-.1,0-.2,0-.3,0-.2,0-.4,0-.7,0-.9,0-1.7.2-2.5,0-.8.1-1.5.2-2.2,0-1.3,0-2.1,0-2.1Z"/>
          <path class="cls-26" d="M493.4,511.7s.2.6.5,1.6c.3.9.7,2.2,1.1,3.4.1.3.2.6.3.9.1.3.2.6.4.9.1.3.2.5.4.8.1.2.2.5.3.7.2.4.4.8.6,1,.1.3.2.4.2.4,0,0-.1,0-.4-.3-.2-.2-.6-.5-.9-.8-.2-.2-.3-.4-.5-.6-.2-.2-.3-.5-.5-.8-.3-.5-.6-1.2-.9-1.8-.2-.6-.4-1.3-.5-1.9-.1-.6-.2-1.2-.2-1.7,0-1,0-1.7,0-1.7Z"/>
        </g>
        <path class="cls-16" d="M618.1,415.5c-3.4,10.6,5,75.8,4.7,94.4-.3,18.6.1,25.1,1.5,34.9,1.4,9.8,15.4,66.3,19.5,98,0,0-4.2,6.1-18.8,7-14.7.9-28-3.2-41,4.6-13.4,8-29.3,5.3-43.7.4-16.8-5.6-41.1-5.8-50.1-6.8,0-22,18.2-94,18.2-102.7s.5-25.1,1.6-37.6c1.2-12.5,4.4-82.2.6-90.3l21.2-8.3s-1.7,33.8,34.8,33.8,33.3-34.5,33.3-34.5l18.2,6.9Z"/>
        <path class="cls-2" d="M598.3,408.1c-1.1,23.1-3.6,91.9,27.4,129.6,0,0,5.7-6.1-.6-30-6.3-24-17-80.3-12.8-95.2-4.1-10.2-14-4.3-14-4.3Z"/>
        <path class="cls-2" d="M535.5,408.1c1.1,23.1,3.6,91.9-27.4,129.6,0,0-5.7-6.1.6-30,6.3-24,17-80.3,12.8-95.2,4.1-10.2,14-4.3,14-4.3Z"/>
        <path class="cls-26" d="M598,560.5s-.4.9-1.2,2.5c-.9,1.6-2.1,3.8-3.9,6.4-.9,1.3-1.9,2.6-2.9,4-1.1,1.4-2.3,2.8-3.6,4.3-1.3,1.4-2.7,2.8-4.2,4.2-1.5,1.4-3,2.7-4.7,4-1.6,1.3-3.3,2.4-5,3.5-.9.5-1.7,1-2.6,1.5-.9.5-1.7.9-2.6,1.4-.9.4-1.7.8-2.6,1.2-.9.3-1.7.7-2.5,1-.8.3-1.7.5-2.4.8-.8.3-1.6.4-2.3.6-1.5.4-2.9.6-4.1.9-1.2.2-2.3.3-3.2.4-1.8.1-2.8.2-2.8.2,0,0,1-.1,2.8-.4.9-.1,1.9-.4,3.2-.6.6-.1,1.2-.3,1.9-.5.7-.2,1.4-.3,2.1-.6.7-.2,1.5-.4,2.3-.7.8-.3,1.6-.6,2.4-.9.8-.3,1.6-.7,2.5-1.1.8-.4,1.7-.8,2.5-1.2.8-.5,1.7-.9,2.5-1.4.8-.5,1.7-1,2.5-1.5,1.7-1.1,3.3-2.2,4.9-3.5,1.6-1.2,3.2-2.6,4.6-3.9,1.5-1.4,2.9-2.7,4.2-4.2,2.6-2.8,4.9-5.5,6.7-8,1.8-2.5,3.2-4.6,4.1-6.1.9-1.5,1.4-2.4,1.4-2.4Z"/>
        <path class="cls-26" d="M558.1,576.1s-.5,0-1.2-.2c-.8-.2-1.9-.4-3.2-.8-.7-.2-1.3-.5-2.1-.7-.7-.3-1.5-.6-2.3-1-.8-.4-1.6-.8-2.3-1.2-.8-.4-1.5-1-2.3-1.4-.8-.5-1.5-1.1-2.2-1.6-.7-.6-1.4-1.2-2-1.7-.6-.6-1.2-1.2-1.7-1.7-.6-.5-1-1.1-1.5-1.6-.4-.5-.9-1-1.2-1.4-.3-.4-.6-.8-.8-1.2-.5-.6-.7-1-.7-1,0,0,.3.3.9.9.3.3.6.6,1,1,.4.4.8.8,1.3,1.3.5.5,1,1,1.6,1.5.6.5,1.2,1,1.8,1.6.7.5,1.3,1.1,2,1.6.7.5,1.4,1.1,2.2,1.5.7.5,1.5,1,2.2,1.4.4.2.7.4,1.1.7.4.2.8.4,1.1.6,1.5.8,2.9,1.5,4.1,2,1.2.5,2.3.9,3,1.2.7.2,1.2.4,1.2.4Z"/>
        <g>
          <g>
            <path class="cls-6" d="M605.1,360.6s.9-4.2,3.9-4.2,3.9,3,3.2,6.1c-.6,3,.8,5.4-.5,9.3-1.3,3.8-2.6,3.9-3.8,6.5-1.2,2.6-2.2,7.4-5.6,7.4s-4.4-4.2-4.4-5.8,3.5-19.3,7.1-19.3Z"/>
            <path class="cls-12" d="M610.5,361c-1.9,0-3.1,2.6-3.1,4.2s.7,2.5.7,4.2-.3,2.2-1.1,3.8c-.9,1.7-1.3,3.7-.9,4.3"/>
            <path class="cls-15" d="M607.7,367.2s1.8.7,2.6-.3"/>
          </g>
          <g>
            <path class="cls-6" d="M528.8,360.6s-.9-4.2-3.9-4.2-3.9,3-3.2,6.1c.6,3-.8,5.4.5,9.3,1.3,3.8,2.6,3.9,3.8,6.5,1.2,2.6,2.2,7.4,5.6,7.4s4.4-4.2,4.4-5.8-3.5-19.3-7.1-19.3Z"/>
            <path class="cls-12" d="M523.4,361c1.9,0,3.1,2.6,3.1,4.2s-.7,2.5-.7,4.2.3,2.2,1.1,3.8c.9,1.7,1.3,3.7.9,4.3"/>
            <path class="cls-15" d="M526.2,367.2s-1.8.7-2.6-.3"/>
          </g>
          <path class="cls-3" d="M606.1,328.6c-6.8-6.3-13.2-29.5-39.2-29.5s-31.7,23.2-38.5,29.5c0,0-.6,17.6.8,25.3,1.3,7.7,1.6,15.4,3,23.8,1.2,7.4,5.7,13.1,9.2,18.1,4.1,5.8,15.6,12.4,25.6,12.4s21.5-6.6,25.6-12.4c3.5-4.9,7.9-10.7,9.2-18.1,1.4-8.4,1.7-16.1,3-23.8,1.3-7.7,1.4-25.3,1.4-25.3Z"/>
          <path class="cls-26" d="M577.8,362.2s4.6,1.9,6.7,1.9,8.7-3.8,8.7-3.8c0,0-6.6-3.8-8.7-3.8s-6.7,5.8-6.7,5.8Z"/>
          <path class="cls-26" d="M556.2,362.2s-4.7,1.9-6.9,1.9c-2.2,0-8.9-3.9-8.9-3.9,0,0,6.7-3.9,8.9-3.9s6.9,5.9,6.9,5.9Z"/>
          <path class="cls-22" d="M555.8,336s-2.8-2.2-5.6-.2"/>
          <path class="cls-22" d="M578.1,336s2.8-2.2,5.6-.2"/>
          <path class="cls-26" d="M558.2,387.5s1.2,0,2.8,0c.8,0,1.8,0,2.8.1,1,0,2.1,0,3.2.1.5,0,1.1,0,1.6,0,.5,0,1,0,1.5,0,.5,0,1,0,1.5,0,.5,0,.9,0,1.3,0,1.7-.1,2.8-.2,2.8-.2,0,0-.9.7-2.6,1.3-.8.3-1.8.6-2.8.8-.5,0-1.1.2-1.7.2-.5,0-1.1,0-1.7,0-.6,0-1.1,0-1.7-.1-.6,0-1.1-.2-1.6-.3-1-.2-2-.5-2.8-.8-1.6-.5-2.6-1.1-2.6-1.1Z"/>
          <path class="cls-26" d="M571.4,376.8c0,2.1-3.7,2.3-3.7,2.3v-13.1s3.7,8.7,3.7,10.8Z"/>
        </g>
        <path class="cls-25" d="M566.8,315.8c-14.1,0-18.4,16.2-18.4,16.2l-25.1,3.7s2-12.9,11.9-25.6,31.4-12.6,31.4-12.6c0,0,21.5,0,31.4,12.6,9.9,12.7,11.9,25.6,11.9,25.6l-24.4-3.7s-4.6-16.2-18.7-16.2Z"/>
        <path class="cls-21" d="M566.9,315.8s16.9-.5,23.9,32.7c7,33.2-12.1,159.3,9.9,182.1,19.1-71.2,13.7-159.5,9.2-195.7"/>
        <path class="cls-21" d="M584.8,326.3c2.1,6.8-9.4,115.1,7.2,127.8,0,0-6.5-11.5-4.5-47.6,1.4-24.4,3.2-68.9,3.2-68.9"/>
        <path class="cls-21" d="M566.9,315.8s-16.9-.5-23.9,32.7c-7,33.2,12.1,159.3-9.9,182.1-19.1-71.2-13.7-159.5-9.2-195.7"/>
        <path class="cls-21" d="M557.5,316.7c-8.8,25.1-1.7,131.2-20.3,150.8,0,0,10.2-26.5,10.2-92s1.2-53.2,1.2-53.2"/>
      </g>
      <g>
        <rect class="cls-4" x="715" y="534.7" width="299.2" height="361.8"/>
        <g>
          <path class="cls-26" d="M756.8,587.5h3v-10.2h-2.3v-1c1.1-.2,2-.5,2.7-.9h1.1v12.1h2.7v1.2h-7.2v-1.2Z"/>
          <path class="cls-26" d="M773.5,576.8h-6.5v-1.3h8.2v.9c-3.1,4.1-3.7,7.2-3.9,12.4h-1.5c.2-5.1,1.2-8.4,3.8-12Z"/>
          <path class="cls-26" d="M794.3,585.9h-6.7v4.2h-1.2v-4.2h-8.4v-1.2h3v-4.9h5.4v-2.9h-4.5c-.8,1.4-1.8,2.7-2.8,3.6-.2-.2-.7-.6-1.1-.8,1.7-1.5,3.3-3.9,4.2-6.3l1.2.3c-.3.7-.5,1.3-.9,2h10.9v1.2h-5.8v2.9h5.4v1.1h-5.4v3.8h6.7v1.2ZM786.4,584.8v-3.8h-4.2v3.8h4.2Z"/>
          <path class="cls-26" d="M804.8,588.7c0,.7-.1,1-.6,1.2-.5.2-1.3.2-2.5.2,0-.3-.2-.8-.4-1.1.9,0,1.8,0,2,0,.3,0,.3,0,.3-.3v-2.6h-4.3c-.2,1.4-.6,3-1.4,4.1-.2-.2-.6-.6-.9-.7,1.2-1.7,1.3-4.1,1.3-5.9v-4.3h6.5v9.4ZM813.2,576.5v1.1h-16.1v-1.1h4.6c-.3-.7-1.1-1.7-1.7-2.5l1.1-.4c.7.8,1.5,1.9,1.8,2.6l-.9.3h5.5c.6-.9,1.3-2.1,1.7-3l1.3.4c-.5.9-1.1,1.8-1.7,2.6h4.3ZM803.6,585.1v-1.9h-4.2v.4c0,.5,0,1,0,1.5h4.2ZM799.5,580.3v1.9h4.2v-1.9h-4.2ZM808.3,586.9h-1.1v-7.4h1.1v7.4ZM810.8,578.9h1.2v9.7c0,.8-.2,1.1-.7,1.3-.5.2-1.5.2-2.8.2,0-.3-.3-.8-.5-1.2,1.1,0,2.1,0,2.4,0,.3,0,.4,0,.4-.4v-9.7Z"/>
          <path class="cls-26" d="M832.5,581v1.3h-16.5v-1.3h16.5Z"/>
          <path class="cls-26" d="M839.8,574c-.4,1.2-.9,2.4-1.5,3.5v12.6h-1.2v-10.5c-.6.9-1.2,1.8-1.9,2.6-.1-.3-.5-.9-.7-1.2,1.7-1.8,3.1-4.5,4-7.3l1.1.3ZM851,574.7v15.2h-1.1v-.9h-8.2v1.1h-1.1v-15.4h10.5ZM849.8,588v-12.2h-8.2v12.2h8.2ZM846.2,579.5v2.1h2.1v4.8h-5.2v-4.8h2.1v-2.1h-2.9v-1h2.9v-2.1h1v2.1h2.9v1h-2.9ZM847.4,582.5h-3.3v3h3.3v-3Z"/>
          <path class="cls-26" d="M868.7,580.9c-.8.7-1.9,1.4-2.9,2.1.9,2.5,2.7,4.6,5,5.5-.3.2-.6.7-.8,1-2.4-1-4.1-3.2-5.1-5.8-.3.2-.6.4-.9.6.7,2.3.2,4.6-.8,5.4-.5.5-1,.6-1.8.6-.4,0-1,0-1.6,0,0-.3-.1-.8-.3-1.1.7,0,1.3,0,1.7,0s.8,0,1.2-.4c.6-.4.9-1.8.7-3.4-2.1,1.6-5.2,3.2-7.9,4-.1-.3-.4-.8-.6-1,2.9-.7,6.4-2.4,8.2-4.1-.1-.5-.3-.9-.5-1.4-1.8,1.2-4.6,2.5-6.8,3.2-.1-.3-.4-.7-.6-1,2.3-.5,5.3-1.9,6.9-3.1-.3-.4-.6-.8-.9-1.2-1.7.9-3.5,1.7-5.3,2.2-.1-.3-.5-.7-.7-1,2.3-.6,4.8-1.5,6.6-2.8h-4.3v-1.1h10.5v1.1h-4.6c-.4.3-.8.7-1.3,1,.9.9,1.5,1.9,1.9,2.9,1.4-.9,3.1-2.1,4.1-3.1l1,.8ZM856.1,578.9h-1.2v-3.7h6.8c-.2-.5-.4-1-.7-1.4l1.2-.4c.3.5.7,1.2.9,1.7h6.8v3.7h-1.2v-2.5h-12.7v2.5Z"/>
          <path class="cls-26" d="M875.7,580.6c0,2.8-.2,6.8-1.5,9.5-.2-.2-.7-.6-1-.7,1.2-2.6,1.3-6.2,1.3-8.8v-5.4h7.5c-.2-.5-.4-1.1-.7-1.5l1.1-.3c.4.6.7,1.3.9,1.8h6.3v1.1h-13.8v4.3ZM881.2,582c-.3,2.2-.9,4-1.8,5.3,1.3,1.2,3.2,1.5,5.5,1.5s4.2,0,4.9,0c-.2.3-.4.8-.4,1.1h-4.5c-2.6,0-4.6-.4-6.1-1.7-.7.8-1.5,1.5-2.4,2-.2-.3-.5-.7-.8-.8.9-.5,1.8-1.1,2.5-1.9-.6-.8-1.1-1.8-1.5-3.1l.9-.3c.3,1.1.7,1.9,1.2,2.6.6-1,1.1-2.2,1.3-3.7h-2.5s-.7,0-.7,0c.7-1.1,1.6-2.6,2.3-3.9h-2.7v-1h4.4c-.7,1.3-1.6,2.8-2.3,4h2.1s.6.2.6.2ZM884.9,585.8v-3.1h-2.7v-1.1h2.7v-2.4c-1,.1-1.9.3-2.8.3,0-.3-.2-.6-.3-.9,2.2-.3,4.8-.7,6.3-1.2l.6.9c-.7.3-1.7.5-2.7.7v2.6h2.7v1.1h-2.7v3.1h3.3v1.1h-7.8v-1.1h3.4Z"/>
          <path class="cls-26" d="M900.2,588.7c0,.7-.1,1-.6,1.2-.5.2-1.3.2-2.5.2,0-.3-.2-.8-.4-1.1.9,0,1.8,0,2,0,.3,0,.3,0,.3-.3v-2.6h-4.3c-.2,1.4-.6,3-1.4,4.1-.2-.2-.6-.6-.9-.7,1.2-1.7,1.3-4.1,1.3-5.9v-4.3h6.5v9.4ZM908.6,576.5v1.1h-16.1v-1.1h4.6c-.3-.7-1.1-1.7-1.7-2.5l1.1-.4c.7.8,1.5,1.9,1.8,2.6l-.9.3h5.5c.6-.9,1.3-2.1,1.7-3l1.3.4c-.5.9-1.1,1.8-1.7,2.6h4.3ZM899,585.1v-1.9h-4.2v.4c0,.5,0,1,0,1.5h4.2ZM894.9,580.3v1.9h4.2v-1.9h-4.2ZM903.7,586.9h-1.1v-7.4h1.1v7.4ZM906.2,578.9h1.2v9.7c0,.8-.2,1.1-.7,1.3-.5.2-1.5.2-2.8.2,0-.3-.3-.8-.5-1.2,1.1,0,2.1,0,2.4,0,.3,0,.4,0,.4-.4v-9.7Z"/>
          <path class="cls-26" d="M916.6,578.1c-.4.8-.9,1.5-1.5,2.3v9.8h-1.2v-8.3c-.7.7-1.3,1.4-2,2-.1-.3-.5-.9-.7-1.2,1.6-1.2,3.3-3.1,4.3-5l1.1.4ZM916.3,574.1c-1,1.6-2.7,3.2-4.3,4.3-.1-.3-.4-.7-.6-1,1.4-.9,3-2.5,3.7-3.8l1.2.4ZM927.9,588.4v1.2h-11.5v-1.2h5.2v-4.8h-4v-1.1h4v-4.2h-4.7v-1.2h10.6v1.2h-4.7v4.2h4.1v1.1h-4.1v4.8h5.1ZM922.1,576.9c-.3-.8-.9-2.1-1.6-3l1.1-.4c.6.9,1.3,2.2,1.6,2.9l-1.2.5Z"/>
          <path class="cls-26" d="M937.8,581.3c-.4,1.2-.9,2.4-1.5,3.5.9,1,1.7,2,2.2,2.7l-.8.9c-.5-.7-1.2-1.6-2.1-2.6-1.1,1.6-2.6,3-4.3,4-.2-.2-.6-.6-.8-.8,1.8-1,3.3-2.4,4.4-4.1-.8-.9-1.6-1.7-2.4-2.5l.7-.7c.7.7,1.5,1.5,2.3,2.2.5-.9.9-1.9,1.2-2.9l1.1.3ZM934.2,578.1c-.7,1.4-1.9,3.1-2.9,4.1-.1-.2-.5-.7-.7-.9,1-.9,1.9-2.3,2.6-3.6l1,.3ZM935.7,576.2h4.2v1.1h-8.9v-1.1h4.4c-.2-.6-.7-1.5-1.2-2.2l1-.5c.5.7,1,1.6,1.3,2.2l-.8.4ZM937.3,577.8c.9,1.1,2,2.5,2.5,3.4l-.9.7c-.5-.9-1.5-2.5-2.5-3.6l.8-.6ZM946.7,575.1c-.7,1.7-1.7,3.7-2.6,5.4,1.9,1.7,2.4,3.1,2.4,4.4,0,1-.3,1.9-.9,2.3-.3.2-.7.3-1.2.4-.5,0-1.2,0-1.8,0,0-.3-.1-.8-.4-1.2.6,0,1.3,0,1.7,0,.3,0,.6,0,.9-.2.4-.2.5-.8.5-1.5,0-1.2-.6-2.5-2.5-4.1.8-1.6,1.6-3.5,2.2-5h-3.3v14.5h-1.1v-15.6h5.1c0,0,.9.5.9.5Z"/>
          <path class="cls-26" d="M962.8,588.1c.9,0,2.3,0,3-.2,0,.3.1.9.2,1.2-.5.1-1.8.1-3.2.1h-8.1c-2.7,0-4-.9-4-3.4v-10.3h-.7v-1.1h15.2v1.1h-13.3v10.4c0,1.5.7,2.2,2.7,2.2h8.3ZM953.3,582.1h4.7v4.6h-4.7v-4.6ZM954.4,585.8h2.6v-2.8h-2.6v2.8ZM962,580.8h-6.7v-4h6.7v4ZM960.8,577.7h-4.3v2.2h4.3v-2.2ZM964.2,586.7h-4.9v-4.6h4.9v4.6ZM963.1,583h-2.7v2.8h2.7v-2.8Z"/>
          <path class="cls-26" d="M759.9,615.6c-.3,1.6-.8,3.5-1.4,4.8.4.2.8.5,1.5,1,1.3.8,3,.9,5.2.9s5.4-.2,7.5-.3c-.1.3-.3.9-.4,1.2-1.3,0-4.9.2-7.2.2s-4-.2-5.4-1c-.7-.4-1.4-1-1.8-1s-.8,1.1-1.3,2.3l-.8-1c.6-1,1.2-1.9,1.7-2.2.5-1.1.9-2.5,1.1-3.9h-2.1c.4-1.1,1-2.7,1.4-4.1h-1.9v-1.1h3.3c-.4,1.3-.9,2.9-1.4,4.1h1.3s.5.2.5.2ZM757.9,610.3c-.2-.8-.6-2-.9-3l1-.2c.3.9.7,2.1.9,2.9l-1,.3ZM763,613.5c0,2.3-.4,5.1-2.2,7.2-.2-.2-.5-.5-.8-.7,1.7-2,2-4.7,2-6.9v-2.7h-1.8v-1h3c-.2-.6-.6-1.4-.8-2.1l1.1-.2c.4.7.8,1.7,1,2.3h2v1c.6-1,1.1-2.3,1.4-3.6l1.1.3c-.2.6-.4,1.2-.6,1.8h4.2v1h-4.6c-.4.8-.8,1.5-1.2,2-.2-.2-.6-.5-.9-.7.2-.3.4-.6.6-.9h-3.4v2h2.9v.5c-.1,5.3-.3,7-.7,7.5-.3.3-.5.5-.9.5-.3,0-.9,0-1.5,0,0-.3-.1-.7-.3-1,.6,0,1.1,0,1.3,0,.2,0,.3,0,.4-.2.3-.4.4-1.9.5-6.3h-1.8ZM770,619.8c0,.6-.1.9-.5,1.1s-1.1.2-2.1.2c0-.3-.2-.7-.4-1,.8,0,1.5,0,1.7,0s.3,0,.3-.3v-3.2h-2.6v-1h2.6v-1.6c.5-.3,1.1-.8,1.5-1.3h-3.4v-1h4.5c0,0,.7.5.7.5-.6.7-1.5,1.5-2.2,2.1v1.3h2.5v1h-2.5v3.2Z"/>
          <path class="cls-26" d="M781.6,619.5c-2.3.7-4.6,1.3-6.3,1.8l-.3-1.2c.7-.2,1.6-.4,2.7-.7v-4.7h-2.2v-1.1h2.2v-4.1h-2.4v-1.1h6v1.1h-2.4v4.1h2.1v1.1h-2.1v4.4c.9-.2,1.8-.5,2.7-.7v1.1ZM790.3,622.2c.4,0,.5-.3.5-2.5.3.2.7.4,1.1.5-.1,2.5-.4,3.1-1.5,3.1h-1.6c-1.2,0-1.5-.4-1.5-1.7v-7.1h-2.2c-.2,4.6-.9,7.4-4.9,8.9-.1-.3-.5-.7-.7-.9,3.7-1.3,4.2-3.9,4.4-8h-2.5v-1.2h10.3v1.2h-3.2v7.1c0,.5,0,.6.5.6h1.4ZM790.7,609.3h-8.5v-1.1h8.5v1.1Z"/>
          <path class="cls-26" d="M801,617.7c1.4-.6,2.2-1.5,2.3-2.8-.1,0-.2,0-.3,0-.7,0-1.3-.4-1.3-1.2s.6-1.2,1.3-1.2,1.5.8,1.5,2c0,1.9-1.2,3.4-3.1,4.1l-.4-.9Z"/>
          <path class="cls-26" d="M820.3,610.9c-.6,1.3-1.3,2.6-2.2,3.7v8.8h-1.2v-7.3c-.7.7-1.4,1.4-2.2,1.9-.1-.3-.4-.8-.6-1.1,2.1-1.5,3.7-3.7,4.9-6.1h-4.5v-1.2h5c.4-.9.7-1.9,1-2.9l1.2.3c-.3.9-.6,1.7-.9,2.5h9.5v1.2h-10ZM830.3,621.9v1.1h-10.9v-1.1h4.9v-5.3h-4.1v-1.1h4.1v-3.6h1.2v3.6h4.2v1.1h-4.2v5.3h4.9Z"/>
          <path class="cls-26" d="M838.5,607.3c-.5,1.4-1.2,2.7-1.9,4v12.2h-1.2v-10.4c-.6.9-1.3,1.7-1.9,2.4-.1-.3-.5-.9-.7-1.2,1.8-1.8,3.5-4.5,4.6-7.3l1.1.3ZM847.2,622.2c1.1,0,1.3-.5,1.5-2.7.3.2.7.4,1.1.5-.2,2.5-.6,3.3-2.5,3.3h-4.9c-2.1,0-2.7-.5-2.7-2.4v-6.1l-1.9.7-.5-1.1,2.3-.9v-4.8h1.1v4.4l2.8-1.1v-5h1.1v4.6l3.1-1.2.3-.2.9.3v.2c-.1,2.6-.3,6.1-.6,8.2l-1-.3c.2-1.7.3-4.6.3-7l-3.1,1.2v6.7h-1.1v-6.3l-2.8,1.1v6.6c0,1,.3,1.3,1.6,1.3h4.9Z"/>
          <path class="cls-26" d="M856.9,607.3c-.4,1.2-.9,2.4-1.4,3.6v12.6h-1.2v-10.4c-.6,1-1.2,1.9-1.8,2.6-.1-.3-.4-.9-.7-1.2,1.6-1.8,3.1-4.6,3.9-7.5l1.1.3ZM862.1,614.5h-3.7v8.9h-1.1v-15.4h4.8v6.5ZM858.4,609v1.8h2.7v-1.8h-2.7ZM861.1,613.5v-1.9h-2.7v1.9h2.7ZM868.2,621.8c0,.8-.2,1.2-.8,1.4-.6.2-1.6.2-3.3.2,0-.3-.3-.9-.5-1.2,1.3,0,2.6,0,2.9,0,.4,0,.5-.1.5-.5v-7.3h-3.9v-6.5h5v13.8ZM864.2,609v1.8h2.9v-1.8h-2.9ZM867.1,613.5v-1.9h-2.9v1.9h2.9Z"/>
          <path class="cls-26" d="M877.4,616c-.8.2-1.5.5-2.3.7v5.3c0,.7-.2,1.1-.6,1.3-.5.2-1.2.2-2.4.2,0-.3-.2-.8-.4-1.1.9,0,1.7,0,1.9,0,.3,0,.4,0,.4-.4v-4.9l-2.4.7-.3-1.2c.7-.2,1.7-.4,2.7-.7v-4h-2.4v-1.2h2.4v-3.7h1.2v3.7h2.1v1.2h-2.1v3.7l2.1-.6v1.1ZM887,610.2v13.1h-1.2v-.9h-6.3v1h-1.2v-13.3h3.1c.3-1,.6-2.3.8-3.2l1.4.2c-.3,1-.7,2.2-1,3.1h4.5ZM879.4,611.3v4.3h6.3v-4.3h-6.3ZM885.8,621.3v-4.5h-6.3v4.5h6.3Z"/>
          <path class="cls-26" d="M895.2,614.9c-.5.3-1,.6-1.5.9v6c0,.7-.2,1-.6,1.2-.4.2-1,.2-2.1.2,0-.3-.2-.8-.3-1.1.7,0,1.4,0,1.6,0s.3,0,.3-.3v-5.3l-1.8,1.1-.4-1.1c.6-.3,1.4-.8,2.2-1.3v-3.5h-2v-1.1h2v-3.7h1.1v3.7h1.6v1.1h-1.6v2.8c.4-.2.7-.5,1.1-.7l.3,1.1ZM895.5,615.1h5.5v.9h-.7v7.5h-1v-2c-1.5.1-2.8.3-4,.4v-.9c-.1,0,1,0,1,0v-4.8h-.9v-.9ZM903.4,613.9h-7.6v-.9h2.2v-4.4h-1.7v-.9h10.2v.9h-1.9v4.4h2.4v.9h-2.4v.8h-1.1v-.8ZM899.4,616h-2v1h2v-1ZM899.4,617.8h-2v1.1h2v-1.1ZM899.4,620.6v-1h-2v1.1h2ZM899.1,608.5v.9h4.3v-.9h-4.3ZM899.1,611.2h4.3v-1h-4.3v1ZM903.4,612.9v-1h-4.3v1h4.3ZM907,621.6h-.9v1.9h-1v-1.9h-4v-.9h.9v-4.7h-.8v-.9h5.7v.9h-.9v4.7h.9v.9ZM903,616v1h2.1v-1h-2.1ZM903,618.8h2.1v-1.1h-2.1v1.1ZM905.1,620.7v-1.1h-2.1v1.1h2.1Z"/>
          <path class="cls-26" d="M914.5,607.1c-.3.9-.6,1.9-1,2.7h3.1v11.7h-5.1v1.5h-1.1v-13.2h2c.3-.9.6-2.1.8-2.9l1.3.3ZM915.5,610.9h-4v4h4v-4ZM915.5,620.5v-4.5h-4v4.5h4ZM925.5,610.4c-.3,8.3-.5,11.1-1.3,12-.4.5-.8.6-1.4.7-.6,0-1.7,0-2.7,0,0-.4-.2-.9-.4-1.2,1.2.1,2.3.1,2.7.1s.6,0,.8-.3c.6-.6.9-3.4,1.1-10.8h-4.8c-.5,1.2-1.1,2.4-1.7,3.2-.2-.2-.7-.5-1-.7,1.2-1.6,2.2-4.1,2.8-6.6l1.2.3c-.2.9-.5,1.8-.8,2.7h5.5v.6ZM921.6,618.6c-.6-1.1-1.8-2.9-2.8-4.2l.9-.5c1.1,1.3,2.3,3,2.9,4.1l-1,.6Z"/>
          <path class="cls-26" d="M931.7,619.8c-.5,1.1-1.3,2.2-2,3-.2-.2-.6-.5-.9-.7.7-.7,1.4-1.6,1.8-2.6l1,.3ZM938.5,614.6h-9.6v-1h4.3c-.1-.3-.3-.6-.5-.9l1.1-.3c.2.3.5.8.6,1.1h4v1ZM937.9,612.4h-8v-4.9h8v4.9ZM934.4,619v3.1c0,.6-.1.9-.5,1-.4.2-1.1.2-2.1.2,0-.3-.2-.7-.4-1,.8,0,1.4,0,1.6,0,.2,0,.3,0,.3-.2v-3.1h-3.2v-3.4h7.7v3.4h-3.3ZM936.7,608.4h-5.7v1.2h5.7v-1.2ZM936.7,610.4h-5.7v1.2h5.7v-1.2ZM931.1,618.1h5.4v-1.6h-5.4v1.6ZM936.3,619.4c.7.8,1.4,1.9,1.7,2.6l-.9.5c-.3-.7-1-1.8-1.7-2.7l.8-.4ZM945.2,617.8c-1.4,2.3-3.8,4.3-6.4,5.5-.2-.3-.6-.7-.8-.9,2.4-1.1,4.8-3,6.1-5l1.1.4ZM944.2,607.8c-1.2,1.6-3.1,3.2-4.8,4.3-.2-.3-.6-.6-.9-.8,1.6-.9,3.5-2.4,4.5-3.9l1.1.5ZM944.8,612.6c-1.3,1.7-3.5,3.4-5.4,4.5-.2-.3-.5-.6-.9-.8,1.8-.9,4-2.5,5.1-4.1l1.1.5Z"/>
          <path class="cls-26" d="M960.8,615.7v7.8h-1.3v-6.6h-7.8c-.3,2.4-1,4.7-2.7,6.7-.2-.3-.6-.7-.9-.9,2.3-2.7,2.6-6.1,2.6-9.4v-6.1h1.2v4.4h7v-4.5h1.2v5.7h-8.2v.6c0,.8,0,1.6,0,2.5h8.9Z"/>
          <path class="cls-26" d="M771.5,643.5v8.4h-1.2v-1.1h-5.4v5.9h-1.3v-5.9h-5.4v1.1h-1.2v-8.5h6.6v-3.3h1.3v3.3h6.6ZM763.6,649.6v-5h-5.4v5h5.4ZM770.3,649.6v-5h-5.4v5h5.4Z"/>
          <path class="cls-26" d="M790.5,649.2v7.5h-1.3v-1.1h-12.8v-6.5h1.3v5.3h5.1v-6.5h-5.6v-6.2h1.3v5h4.4v-6.7h1.3v6.7h4.4v-5h1.3v6.2h-5.7v6.5h5.1v-5.3h1.3Z"/>
          <path class="cls-26" d="M800.8,652c-2.3.7-4.7,1.4-6.4,1.9l-.3-1.2c.8-.2,1.8-.5,2.9-.8v-4.6h-2.3v-1.1h2.3v-4h-2.6v-1.1h6.2v1.1h-2.5v4h2.3v1.1h-2.3v4.2c.8-.2,1.7-.5,2.6-.7v1.1ZM809.4,655.6c.4,0,.5-.3.6-2.2.2.2.7.4,1,.5,0,2.2-.4,2.7-1.5,2.7h-1.8c-1.2,0-1.5-.3-1.5-1.5v-4.1h-1.9c-.4,2.9-1.4,4.9-4.9,5.9-.1-.3-.5-.8-.7-1,3.2-.9,4-2.5,4.3-4.9h-1.7v-9.9h8.4v9.9h-2.5v4.1c0,.4,0,.5.5.5h1.5ZM802.5,644h6.1v-1.9h-6.1v1.9ZM802.5,646.9h6.1v-1.9h-6.1v1.9ZM802.5,649.9h6.1v-2h-6.1v2Z"/>
          <path class="cls-26" d="M829.8,647.7v1.3h-16.5v-1.3h16.5Z"/>
          <path class="cls-26" d="M838,640.6c-.5,1.3-1.2,2.7-1.9,3.9v12.2h-1.2v-10.4c-.6.9-1.3,1.7-1.9,2.4-.1-.3-.5-.9-.7-1.2,1.8-1.8,3.5-4.5,4.6-7.3l1.1.3ZM848.8,654.9v1.2h-11.3v-1.2h6.4c.7-2.5,1.4-6.4,1.8-9.1l1.3.2c-.5,2.8-1.2,6.4-1.9,8.9h3.8ZM848.1,644.7h-9.8v-1.2h9.8v1.2ZM840.8,654c-.2-1.9-.7-5.3-1.3-7.8l1.1-.2c.6,2.5,1.2,5.8,1.4,7.7l-1.2.3ZM842.8,643.3c-.2-.8-.5-2-.9-2.9l1.1-.3c.3.9.7,2.1.9,2.8l-1.2.3Z"/>
          <path class="cls-26" d="M856.7,644.3c-.5.8-1,1.6-1.6,2.4v10.2h-1.1v-8.9c-.7.8-1.5,1.5-2.2,2.1-.1-.3-.5-.8-.7-1.1,1.7-1.3,3.5-3.2,4.5-5.1l1.1.4ZM856.3,640.7c-1,1.5-2.7,3.2-4.3,4.3-.2-.2-.5-.7-.7-.9,1.4-1,3.1-2.5,3.9-3.8l1.1.4ZM863,655.4c.5,0,1.1.1,1.7.1.4,0,2.8,0,3.4,0-.2.3-.4.8-.4,1.1h-3.1c-2.7,0-4.6-.7-5.8-3.5-.5,1.5-1.2,2.6-2.2,3.6-.2-.2-.7-.6-.9-.8,1.9-1.5,2.5-4,2.7-7.4h1.2c0,1.1-.2,2-.3,2.8.6,2.1,1.5,3.1,2.7,3.7v-7.8h.1c-.2-.2-.6-.5-.9-.7,1.9-1.3,2.9-3.5,3.3-6.3h1.2c-.2,1.2-.4,2.2-.7,3.1,1.2,1,2.6,2.3,3.3,3.2l-.9.8c-.6-.8-1.7-2-2.8-3-.6,1.2-1.3,2.1-2.2,2.9h.8v3.1h4.1v1.1h-4.1v3.9ZM861.4,646c-.4-.5-1.2-1.2-1.9-1.8-.6,1.4-1.4,2.5-2.4,3.4-.2-.2-.6-.7-.9-.8,1.7-1.5,2.8-3.8,3.3-6.6l1.2.2c-.2,1-.5,1.9-.8,2.8.8.6,1.6,1.4,2.1,1.9l-.6.9Z"/>
          <path class="cls-26" d="M873.8,648.1c-.7-.6-2.2-1.5-3.3-2l.7-.9c1.2.5,2.6,1.3,3.4,1.9l-.7,1ZM875.2,650.6c-.9,1.9-2.1,4.2-3.1,5.9l-1-.8c.9-1.4,2.2-3.8,3.2-5.8l.9.8ZM874.7,643.3c-.7-.7-2.1-1.5-3.3-2.1l.7-.9c1.2.5,2.6,1.3,3.3,2l-.7,1ZM886,649c-.7,2-2,3.6-3.6,4.8,1.4.9,3,1.5,4.7,1.9-.3.3-.6.7-.8,1.1-1.9-.5-3.5-1.3-5-2.3-1.7,1.1-3.7,1.8-5.7,2.3-.1-.3-.4-.8-.6-1.1,1.9-.4,3.8-1,5.4-1.9-1.2-1-2.2-2.3-2.9-3.7l.8-.3h-2.1v-1.1h8.9c0,0,.8.3.8.3ZM879.3,643c-.6,2.2-1.5,3.9-3,5.2-.2-.2-.7-.6-1-.8,1.9-1.5,2.9-4,3.3-7.2h1.2c0,.7-.1,1.2-.3,1.7h6.3s0,.4,0,.5c-.2,3.2-.5,4.4-.9,4.9-.3.3-.6.4-1.2.4-.5,0-1.3,0-2.3,0,0-.3-.2-.8-.4-1.1.9,0,1.8.1,2.2.1s.5,0,.6-.2c.3-.3.5-1.3.7-3.6h-5.3ZM878.6,649.8c.6,1.3,1.6,2.4,2.8,3.3,1.2-.9,2.2-2,2.9-3.3h-5.7Z"/>
          <path class="cls-26" d="M895.7,646.9c-.3.5-.5.9-.8,1.3h9.2v8.6h-1.2v-.7h-8.1v.7h-1.2v-6.9c-.9,1.1-2,2-3.3,2.7-.2-.3-.5-.7-.8-.9,2.1-1.2,3.6-2.9,4.8-4.9h-4.4v-1h4.9c.3-.5.5-1,.7-1.4h-4.3v-1h4.6c.1-.5.3-.9.4-1.4-1.7,0-3.5.1-5.1.1,0-.3-.1-.7-.3-.9,4.4,0,9.9-.3,12.8-.9l.8.9c-1.8.4-4.3.6-6.9.8-.1.5-.3,1-.4,1.4h7.6v1h-8c-.2.5-.4,1-.6,1.4h9.6v1h-10.2ZM902.8,649.2h-8.1v1.3h8.1v-1.3ZM902.8,651.4h-8.1v1.4h8.1v-1.4ZM902.8,655.1v-1.5h-8.1v1.5h8.1Z"/>
          <path class="cls-26" d="M913,648.9c-.3,1.6-.9,3.4-1.5,4.7.4.2.8.6,1.5,1,1.3.8,2.9.9,5.1.9s5.3-.2,7.3-.3c-.2.3-.3.9-.4,1.3-1.3,0-4.8.2-7,.2s-4-.2-5.3-1c-.8-.5-1.4-1.1-1.8-1.1s-1,1.1-1.6,2.3l-.8-1.1c.7-.9,1.3-1.7,1.8-2.1.6-1.1,1-2.5,1.3-3.9h-2.4c.5-1.1,1.1-2.7,1.6-4.1h-2.1v-1.1h3.6c-.5,1.3-1.1,2.9-1.5,4.1h1.6s.6.2.6.2ZM910.6,643.6c-.2-.8-.6-2-.9-3l1.1-.3c.3.9.7,2.1.9,2.9l-1.1.4ZM915.2,654.3h-1.1v-7.8h1.4v-5.6h7.4v5.6h1.4v6.6c0,.6-.1.9-.6,1.1-.4.2-1.1.2-2.2.2,0-.3-.2-.7-.3-1,.8,0,1.5,0,1.7,0,.2,0,.3,0,.3-.3v-5.6h-8v6.9ZM916.6,646.5h1.8v-3.1h3.4v-1.5h-5.2v4.6ZM921.5,652.5h-3.7v.7h-.9v-4.5h4.7v3.8ZM920.6,649.6h-2.8v2.1h2.8v-2.1ZM921.8,646.5v-2.2h-2.4v2.2h2.4Z"/>
          <path class="cls-26" d="M932.7,640.4c-.3.9-.6,1.9-1,2.7h3.1v11.7h-5.1v1.5h-1.1v-13.2h2c.3-.9.6-2.1.8-2.9l1.3.3ZM933.7,644.2h-4v4h4v-4ZM933.7,653.8v-4.5h-4v4.5h4ZM943.7,643.7c-.3,8.3-.5,11.1-1.3,12-.4.5-.8.6-1.4.7-.6,0-1.7,0-2.7,0,0-.4-.2-.9-.4-1.2,1.2.1,2.3.1,2.7.1s.6,0,.8-.3c.6-.6.9-3.4,1.1-10.8h-4.8c-.5,1.2-1.1,2.4-1.7,3.2-.2-.2-.7-.5-1-.7,1.2-1.6,2.2-4.1,2.8-6.6l1.2.3c-.2.9-.5,1.8-.8,2.7h5.5v.6ZM939.9,651.9c-.6-1.1-1.8-2.9-2.8-4.2l.9-.5c1.1,1.3,2.3,3,2.9,4.1l-1,.6Z"/>
          <path class="cls-26" d="M949.2,652c-.3,1.5-.8,3.2-1.3,4.4-.2-.1-.7-.3-1.1-.4.5-1.1.9-2.7,1.2-4.2l1.1.2ZM953.1,650.8c0-.3-.1-.6-.2-.9-4.6.7-5.2.8-5.5,1,0-.2-.3-.9-.4-1.2.4,0,.8-.5,1.4-1.2.3-.3,1-1.1,1.8-2.2-2.3.3-2.7.4-3,.5,0-.3-.3-.9-.4-1.2.3,0,.7-.4,1.1-1,.5-.5,2-2.6,2.9-4.6l1.1.5c-1,1.8-2.2,3.5-3.4,4.9l2.3-.2c.5-.7,1.1-1.5,1.5-2.3l1.1.7c-1.4,2.1-2.9,4.2-4.5,5.8l3.5-.5c-.2-.6-.5-1.3-.7-1.8l1-.3c.5,1.2,1.1,2.7,1.3,3.6l-1.1.3ZM951.1,651.7c.3,1.2.5,2.7.6,3.8l-1.1.3c0-1-.3-2.6-.5-3.8l1-.2ZM953,651.2c.4.9.8,2,1,2.8l-1,.4c-.2-.8-.6-1.9-.9-2.8l.9-.3ZM963.4,654.5v1.2h-9.8v-1.2h4.5v-11.7h-3.7v-1.2h8.7v1.2h-3.8v11.7h4.1Z"/>
          <path class="cls-26" d="M771.8,680c-1.2,1.3-2.8,2.8-4.1,3.9,1.1,1.8,2.7,3.3,5.1,4.7-.3.2-.7.7-.9,1-4.7-3-6.5-6.4-7.5-11.5-.9,1.2-1.9,2.3-3.1,3.3v6.7l5.1-1.6c0,.3.2.8.3,1.1-5.7,1.8-6.4,2.1-6.9,2.4-.1-.3-.4-.7-.7-1,.3-.2.9-.7.9-1.5v-5.2c-1.1.8-2.2,1.5-3.4,2-.1-.3-.5-.8-.7-1,2.9-1.3,5.6-3.5,7.3-5.7h-6.8v-1.2h7.9c-.2-.7-.7-1.8-1.2-2.7l1.2-.4c.5.8,1.1,1.9,1.2,2.6l-1.2.4h7.9v1.2h-6.8c.4,2,.9,3.8,1.6,5.3,1.3-1.1,2.7-2.5,3.7-3.6l1,.7Z"/>
          <path class="cls-26" d="M779.4,678.3c-.6,2.6-1.7,5.9-3.3,7.9-.3-.2-.8-.5-1.1-.7,1.7-1.9,2.7-5,3.1-7.5l1.3.2ZM784.1,673.8v14.5c0,.9-.3,1.3-.9,1.5-.6.2-1.7.2-3.4.2,0-.3-.3-.9-.5-1.3,1.3,0,2.7,0,3,0,.4,0,.5-.1.5-.5v-14.5h1.3ZM788.3,677.9c1.6,2.5,3.2,5.9,3.6,8l-1.3.5c-.5-2.1-1.9-5.5-3.5-8.1l1.1-.4Z"/>
          <path class="cls-26" d="M807.2,679.2c-.7,2.6-1.7,4.8-3.2,6.4,2.4,1.1,4.5,2.3,6,3.4l-1,1.1c-1.5-1.1-3.6-2.3-6-3.5-1.8,1.6-4.3,2.8-7.7,3.5-.1-.4-.5-.9-.7-1.2,3.1-.6,5.4-1.5,7.1-2.9-1.6-.8-3.3-1.5-5.1-2.1.7-1.2,1.5-2.9,2.3-4.6h-4.5v-1.3h5c.6-1.6,1.2-3.2,1.6-4.6l1.3.2c-.4,1.4-.9,2.9-1.5,4.4h5.3c.1-.5.2-1.1.3-1.7l1.3.3c0,.5-.2.9-.3,1.4h3v1.3h-3.3ZM800.4,679.2c-.6,1.5-1.3,2.9-1.8,4,1.4.6,2.9,1.2,4.2,1.8,1.5-1.5,2.4-3.4,3.1-5.8h-5.5Z"/>
          <path class="cls-26" d="M817.2,683.4v5.2c0,.7-.2,1-.7,1.2-.5.2-1.3.2-2.6.2,0-.3-.3-.8-.4-1.1,1,0,1.9,0,2.2,0,.3,0,.4,0,.4-.3v-4.8c-.9.3-1.8.6-2.6.9l-.3-1.2c.8-.2,1.7-.5,2.8-.9v-3.4c.7-.9,1.4-2.2,2-3.3h-4.4v-1.1h5.3c0,0,.8.5.8.5-.7,1.3-1.6,2.9-2.5,4.1v2.9c.7-.2,1.5-.5,2.3-.7v1.1c.1,0-2.3.8-2.3.8ZM829.2,682.4c-.7,1.3-1.7,2.5-2.9,3.6,1.2,1,2.7,2.3,3.4,3.1l-.9.8c-.7-.9-2.1-2.2-3.3-3.2-1.7,1.4-3.7,2.5-5.9,3.3-.1-.3-.5-.7-.7-1,4.1-1.4,7.5-4.1,9.1-7.1l1.2.4ZM829.8,676.1v1.1h-5.2c-.6,1-1.5,2.5-2.1,3.5l3.1-.2c.4-.6.8-1.2,1.1-1.8l1.1.4c-1.5,2.8-4.3,5.4-7.5,6.9-.1-.3-.5-.7-.7-.9,1.9-.9,3.6-2.1,5-3.6-3.2.2-3.7.3-4,.5,0-.3-.2-.9-.3-1.2.3,0,.8-.2,1.1-.5.3-.4,1.4-2.1,2-3.2h-3.5v-1.1h4.8c-.2-.7-.6-1.5-.9-2.2l1.1-.4c.5.8.9,1.8,1.1,2.5h-.3c0,.1,4.3.1,4.3.1Z"/>
          <path class="cls-26" d="M841.1,679.1c1.5,0,2.7,1.2,2.7,2.7s-1.2,2.7-2.7,2.7-2.7-1.2-2.7-2.7,1.3-2.7,2.7-2.7ZM841.1,683.7c1.1,0,1.9-.8,1.9-1.9s-.8-1.9-1.9-1.9-1.9.8-1.9,1.9.8,1.9,1.9,1.9Z"/>
          <path class="cls-26" d="M857.9,678.4c0,2.1-.2,4.7-1.3,7.1.8.8,1.6,1.5,2.1,2.2l-.7,1c-.5-.6-1.1-1.3-1.9-2.1-.7,1.2-1.7,2.4-3,3.4-.2-.2-.6-.6-.8-.7,1.4-1.1,2.3-2.3,3-3.5-.9-.8-1.8-1.7-2.7-2.3.4-1.3.8-3,1.1-4.8h-1.4c0,0-.1-1.1-.1-1.1h1.7c.2-1.5.4-2.8.5-4.1h1.1c-.1,1.3-.3,2.6-.5,3.9h1.9v-1.4h1.1v1.2h1c0,0,0,1,0,1h-1ZM854.7,678.6c-.3,1.6-.6,3.2-1,4.5.7.5,1.3,1.1,2,1.7.9-2.2,1.1-4.5,1.1-6.3h-2.1ZM866.5,688.7c1,0,1.1-.5,1.2-2.7.3.2.7.4,1.1.5-.2,2.5-.5,3.3-2.3,3.3h-4c-1.8,0-2.3-.5-2.3-2.3v-6.6l-1.4.5-.3-1.1,1.8-.7v-4.6h1.1v4.2l2.3-.8v-4.9h1.1v4.5l2.5-.9.3-.3.9.3v.2c-.1,2.5-.3,5.8-.6,7.8l-1-.3c.2-1.6.3-4.3.3-6.6l-2.4.9v6.4h-1.1v-6l-2.3.8v7c0,.9.2,1.1,1.3,1.1h4Z"/>
          <path class="cls-26" d="M876.8,688.6c0,.6-.2,1-.5,1.1-.4.2-1.1.2-2.3.2,0-.3-.2-.7-.3-1,.9,0,1.6,0,1.8,0s.3,0,.3-.3v-5.3c-.6.5-1.3.9-1.9,1.4l-.5-1c.6-.3,1.5-.9,2.4-1.4v-2.4l-.7.5c-.3-.5-1-1.4-1.6-2l.7-.4c.6.5,1.2,1.3,1.6,1.8v-4.3h-2.3v5.3c0,2.8-.2,6.7-1.5,9.5-.2-.2-.6-.6-.9-.7,1.2-2.6,1.3-6.1,1.3-8.8v-6.4h4.3v14.4ZM880.7,685.1c-.1.5-.3.9-.4,1.4.7.5,1.6,1.1,2,1.6l-.6.8c-.4-.4-1.1-1-1.8-1.5-.5,1.1-1.2,2-1.9,2.7-.2-.2-.6-.6-.8-.7,1.2-1,2.1-2.6,2.5-4.5l1.1.2ZM879.8,677.8c-.5.4-1.1.8-1.6,1.1-.2-.2-.5-.6-.8-.7,2.1-1.2,4-3.1,4.9-4.8l1.1.3c-.1.2-.3.4-.4.6,1.1,1.3,3.2,2.7,4.9,3.4-.2.3-.5.7-.6,1-1.7-.8-3.7-2.2-4.9-3.6-.7.9-1.5,1.7-2.4,2.5h5.2v1h-5.4v-.8ZM878,680.1h4.1v4.3h-4.1v-4.3ZM878.9,683.4h2.3v-2.3h-2.3v2.3ZM885.7,685c0,.6-.2,1.1-.4,1.7,1.1.8,2.2,1.8,2.8,2.5l-.7.8c-.5-.6-1.5-1.5-2.5-2.3-.5,1-1.1,1.9-1.9,2.5-.2-.2-.6-.6-.8-.8,1.3-1,2.1-2.5,2.4-4.5h1.1ZM883,680.1h4.2v4.3h-4.2v-4.3ZM883.9,683.4h2.3v-2.3h-2.3v2.3Z"/>
          <path class="cls-26" d="M903.6,688.7c1.8,0,2.1-.5,2.3-2.9.3.2.8.4,1.2.5-.3,2.8-.8,3.6-3.5,3.6h-7.1c-2.8,0-3.6-.5-3.6-2.5v-7.9c-.5.5-1.1.9-1.7,1.3-.1-.3-.5-.9-.7-1.1,2.2-1.4,4.5-3.6,5.7-6.1l1.1.4c-.2.4-.5.8-.7,1.3h5.1c0,0,.8.5.8.5-.6,1-1.5,2-2.3,2.9h5.1v6.5h-1.2v-.9h-10v3.2c0,1.1.4,1.3,2.4,1.3h7.2ZM895.7,676.3c-.6.8-1.3,1.6-2,2.3h4.9c.7-.6,1.4-1.5,1.9-2.3h-4.9ZM894,683h4.3v-3.3h-4.3v3.3ZM904,679.7h-4.5v3.3h4.5v-3.3Z"/>
          <path class="cls-26" d="M925.7,680.8c-.5,2.2-1.2,4.1-2.1,5.8.3,1.6.8,2.3,1.2,2.3s.5-.6.6-2.7c.2.2.6.5.9.6-.2,2.7-.5,3.2-1.5,3.2s-1.4-.7-1.9-2.2c-.6.9-1.3,1.7-2.1,2.4-.2-.2-.6-.6-.8-.8.4-.3.8-.7,1.2-1.2-2,.3-4.1.7-5.7.9l-.2-1c.7,0,1.7-.2,2.7-.4v-1.2h-2.1v-.9h2.1v-1.1c-.8,0-1.5.1-2.2.1,0-.2-.2-.5-.3-.7,1.8-.1,4-.3,5.1-.6l.8.7c-.6.2-1.4.3-2.3.4v1.2h1.9v.9h-1.9v1.1c.7-.1,1.5-.2,2.2-.3v.8c.5-.5.9-1.1,1.2-1.7-.3-1.8-.6-4.3-.7-7.5h-6.5v-.9c-.6-.7-1.6-1.7-2.5-2.4-.6,1-1.2,1.9-1.9,2.6h4v1.1h-1.6v2.1h2.1v1.1h-2.1v5.2l2.2-.5v1c-1.9.5-4,1.1-5.5,1.4l-.3-1.1c.7-.2,1.6-.3,2.7-.6v-5.4h-2.5v-1.1h2.5v-2.1h-1.6v-.9c-.3.3-.5.5-.8.8,0-.3-.3-.9-.5-1.2,1.3-1.1,2.6-2.7,3.3-4.5l.9.4c-.1.2-.2.5-.4.8,1,.8,2,1.7,2.6,2.4l-.4.8h2.6v-1.7h-2.1v-1h2.1v-1.7h1.1v1.7h2v1h-2v1.7h2.7c0-1.3,0-2.8,0-4.3h1.1c0,1.6,0,3,0,4.3h3.2v1h-3.2c0,2.5.3,4.4.5,6,.6-1.3,1-2.7,1.3-4.2l1.1.2ZM910.9,683.4c.3,1.1.6,2.5.7,3.4l-.8.3c0-.9-.3-2.3-.6-3.4l.8-.2ZM913.6,686.5c.3-.9.6-2.4.8-3.4l.9.3c-.3,1.1-.7,2.5-.9,3.3l-.7-.3ZM921.1,683.1h-5.1v-3.3h5.1v3.3ZM920.1,680.6h-3.2v1.6h3.2v-1.6ZM925.1,677.2c-.3-.8-1-2-1.7-2.9l.9-.4c.7.9,1.4,2.1,1.7,2.8l-.9.5Z"/>
          <path class="cls-26" d="M944.8,679.4v1h-15.9v-1h7.3v-1.4h-5.5v-.9h5.5v-1.3h-6.1v-1h6.1v-1.3h1.2v1.3h6.4v1h-6.4v1.3h5.6v.9h-5.6v1.4h7.4ZM942.4,688.7c0,.7-.2,1-.7,1.2-.5.2-1.5.2-3,.2,0-.3-.2-.7-.4-1,1.1,0,2.2,0,2.5,0,.3,0,.4,0,.4-.4v-1.6h-8.7c-.2,1.1-.5,2.3-1.2,3.2-.2-.3-.6-.7-.9-.9,1-1.4,1.1-3.2,1.1-4.6v-3.3h10.9v7.1ZM941.2,686.2v-1.4h-8.5c0,.5,0,1,0,1.4h8.6ZM932.7,682.5v1.4h8.5v-1.4h-8.5Z"/>
          <path class="cls-26" d="M954,683.5l-1.1.9c-1.2-1.5-2.7-3-4-4.1l1-.9c1.3,1.1,2.9,2.7,4.1,4.1Z"/>
          <path class="cls-26" d="M762.1,713.6c-.3.5-.5.9-.8,1.3h9.2v8.6h-1.2v-.7h-8.1v.7h-1.2v-6.9c-.9,1.1-2,2-3.3,2.7-.2-.3-.5-.7-.8-.9,2.1-1.2,3.6-2.9,4.8-4.9h-4.4v-1h4.9c.3-.5.5-1,.7-1.4h-4.3v-1h4.6c.1-.5.3-.9.4-1.4-1.7,0-3.5.1-5.1.1,0-.3-.1-.7-.3-.9,4.4,0,9.9-.3,12.8-.9l.8.9c-1.8.4-4.3.6-6.9.8-.1.5-.3,1-.4,1.4h7.6v1h-8c-.2.5-.4,1-.6,1.4h9.7v1h-10.2ZM769.3,715.9h-8.1v1.3h8.1v-1.3ZM769.3,718.1h-8.1v1.4h8.1v-1.4ZM769.3,721.7v-1.5h-8.1v1.5h8.1Z"/>
          <path class="cls-26" d="M785.4,709.4c-.4.7-.9,1.4-1.3,2.1v12h-1.3v-10.3c-1.9,2.1-4.1,4.1-6.7,5.4-.2-.3-.6-.8-.8-1,3.6-1.8,6.8-4.9,8.6-8.1h-8.2v-1.2h15.5v1.2h-5.8ZM785.4,712.5c2.2,1.4,4.9,3.4,6.3,4.8l-.9.9c-1.3-1.4-4-3.5-6.2-4.9l.9-.8Z"/>
          <path class="cls-26" d="M808.7,722.1c.7,0,.9-.3,1-2.6.3.2.8.4,1.1.5-.1,2.6-.5,3.2-2,3.2h-3c-1.6,0-2.1-.4-2.1-1.7v-3.8h-3.1c-.4,2.9-1.6,4.7-5.7,5.7-.1-.3-.5-.8-.7-1.1,3.7-.7,4.7-2.2,5.1-4.6h-2.5v-10.2h11.4v10.2h-3.3v3.7c0,.5.1.6,1,.6h2.8ZM798,710.6h9v-2h-9v2ZM798,713.6h9v-2h-9v2ZM798,716.7h9v-2h-9v2Z"/>
          <path class="cls-26" d="M818.8,720.4h-3.8v1.6h-1.1v-14h4.9v12.4ZM815,709.1v2.7h2.8v-2.7h-2.8ZM815,715.5h2.8v-2.7h-2.8v2.7ZM817.8,719.3v-2.8h-2.8v2.8h2.8ZM829.6,717c-1,.8-2.3,1.6-3.3,2.2.9,1.3,2.1,2.4,3.6,3-.3.3-.7.7-.8,1.1-2.9-1.3-4.5-4.1-5.4-7.7h-2v6.1l3.3-.8c0,.3,0,.8,0,1.1-3.8,1-4.3,1.2-4.6,1.5-.1-.3-.4-.8-.6-1,.3-.1.6-.5.6-1.2v-13.5h8.2v7.9h-3.9c.3,1,.7,2,1.1,2.8,1-.6,2.3-1.5,3-2.2l.8.8ZM821.6,708.7v2.3h5.9v-2.3h-5.9ZM821.6,714.5h5.9v-2.4h-5.9v2.4Z"/>
          <path class="cls-26" d="M838.3,719.6c-2,.7-4.2,1.3-5.8,1.9l-.3-1.2c.7-.2,1.5-.4,2.4-.7v-5.1h-2.1v-1.1h2.1v-4.1h-2.2v-1.1h5.5v1.1h-2.1v4.1h1.9v1.1h-1.9v4.8l2.3-.7.2,1.1ZM848.6,712.8c-.9,1.3-2.2,2.9-3.2,4,.8,1.8,2,3.2,3.8,4.4-.3.2-.6.6-.8.9-2.1-1.6-3.5-3.4-4.3-5.8v5.5c0,.8-.2,1.1-.7,1.3-.5.2-1.3.3-2.7.3,0-.3-.3-.8-.5-1.2,1.1,0,2,0,2.3,0,.3,0,.4,0,.4-.4v-4.6c-1.5,1.5-3.1,3.1-4.4,4.3l-.8-1c1.3-1.1,3.3-2.9,5.2-4.6v-4.8h-4.5v-1.1h4.5v-3.2h1.2v3.2h4.8v1.1h-4.8v.7c.2,1.5.5,2.8.9,4,.9-1.1,1.9-2.5,2.5-3.5l1,.6ZM839.7,712.4c.8,1.1,1.7,2.5,2,3.4l-1,.5c-.3-.9-1.2-2.4-2-3.4l.9-.4ZM847.2,709.7c-.4-.6-1.3-1.4-2.2-2l.7-.6c.8.5,1.7,1.4,2.2,1.9l-.7.7Z"/>
          <path class="cls-26" d="M862.7,716.8l-1.1.9c-1.2-1.5-2.7-3-4-4.1l1-.9c1.3,1.1,2.9,2.7,4.1,4.1Z"/>
          <path class="cls-26" d="M887.6,712.7v1h-15.9v-1h7.3v-1.4h-5.5v-.9h5.5v-1.3h-6.1v-1h6.1v-1.3h1.2v1.3h6.4v1h-6.4v1.3h5.6v.9h-5.6v1.4h7.4ZM885.2,722c0,.7-.2,1-.7,1.2-.5.2-1.5.2-3,.2,0-.3-.2-.7-.4-1,1.1,0,2.2,0,2.5,0,.3,0,.4,0,.4-.4v-1.6h-8.7c-.2,1.1-.5,2.3-1.2,3.2-.2-.3-.6-.7-.9-.9,1-1.4,1.1-3.2,1.1-4.6v-3.3h10.9v7.1ZM884,719.5v-1.4h-8.5c0,.5,0,1,0,1.4h8.6ZM875.5,715.8v1.4h8.5v-1.4h-8.5Z"/>
          <path class="cls-26" d="M899.2,709.2c-.2.8-.5,1.7-.7,2.4h7.4v11.8h-1.2v-1h-11.8v1h-1.2v-11.8h5.6c.2-.7.4-1.6.6-2.4h-7v-1.1h15.9v1.1h-7.5ZM892.8,721.3h2.7v-8.6h-2.7v8.6ZM900.6,712.8h-4v2.1h4v-2.1ZM900.6,715.9h-4v2.2h4v-2.2ZM896.6,721.3h4v-2.3h-4v2.3ZM904.6,712.8h-2.9v8.6h2.9v-8.6Z"/>
          <path class="cls-26" d="M914.8,707.5c-.5.9-1.2,1.9-1.9,2.8.9,2,1.1,4.1,1.1,6.4s-.2,5.2-.9,6.2c-.2.3-.6.5-1,.6-.5,0-1.2.1-1.9,0,0-.4-.1-.8-.3-1.2.8,0,1.4,0,1.8,0,.3,0,.4-.1.5-.3.5-.6.6-3,.6-5.4s0-.7,0-1c-.8,1.3-1.8,2.5-2.8,3.3-.2-.3-.5-.7-.8-.9,1.3-.9,2.7-2.6,3.5-4.3-.1-.9-.3-1.7-.6-2.5-.6.7-1.3,1.3-1.9,1.9-.2-.2-.6-.6-.8-.7.8-.6,1.6-1.4,2.3-2.2-.5-.8-1.1-1.7-1.9-2.4l.8-.6c.7.7,1.3,1.4,1.8,2.2.6-.7,1.1-1.5,1.4-2.2l1,.5ZM925.4,710.9c-.5.6-1.1,1.1-1.6,1.5.7.8,1.5,1.4,2.3,1.8-.3.2-.6.6-.8.9-.5-.3-.9-.6-1.3-.9v4.2h-2.9v3.8c0,.6-.1.9-.5,1.1-.4.2-1.1.2-2.1.2,0-.3-.2-.7-.3-1.1.8,0,1.4,0,1.6,0,.2,0,.3,0,.3-.2v-3.7h-2.9v-4.2c-.4.4-.9.7-1.3,1-.1-.2-.6-.7-.8-.9.9-.5,1.7-1.2,2.4-1.9-.4-.5-.9-1-1.4-1.4l.7-.7c.5.4,1,.9,1.4,1.3.4-.6.8-1.2,1.1-1.8h-3.4v-1h3.9c.2-.6.4-1.3.6-1.9l1.1.2c-.2.6-.3,1.2-.5,1.7h5v1h-3.5c.3.7.7,1.3,1.2,1.9.5-.5,1-1.1,1.3-1.5l.8.6ZM918.4,719.6c-.6,1.2-1.7,2.5-2.6,3.3-.2-.2-.6-.5-.9-.7,1-.7,1.9-1.8,2.5-2.9l1,.3ZM922.9,713.9h-4.9v1.4h4.9v-1.4ZM922.9,716.1h-4.9v1.4h4.9v-1.4ZM920.1,709.8c-.5,1.2-1.2,2.2-1.9,3.2h4.7c-.8-.9-1.4-2-1.9-3.2h-.9ZM923.4,719.3c.8.9,1.8,2.2,2.3,3l-.9.6c-.4-.8-1.4-2.1-2.3-3.1l.9-.5Z"/>
          <path class="cls-26" d="M944.8,715.2h-4.1v6.5c0,.9-.2,1.2-.8,1.4-.6.2-1.5.3-3.1.2,0-.3-.3-.9-.5-1.2,1.2,0,2.3,0,2.7,0,.3,0,.4,0,.4-.4v-6.4c-2.4,3-6.3,5.8-9.8,7.2-.2-.3-.6-.8-.9-1,3.2-1.2,7-3.7,9.2-6.3h-7.6c.5-1.6,1.1-4.2,1.5-6.2h-1.8v-1.2h13.9v1.2h-3.3v5.1h4.1v1.2ZM933.2,709c-.3,1.6-.8,3.5-1.2,5.1h7.4v-5.1h-6.2Z"/>
          <path class="cls-26" d="M949.6,717.7c1.4-.6,2.2-1.5,2.3-2.8-.1,0-.2,0-.3,0-.7,0-1.3-.4-1.3-1.2s.6-1.2,1.3-1.2,1.5.8,1.5,2c0,1.9-1.2,3.4-3.1,4.1l-.4-.9Z"/>
          <path class="cls-26" d="M771.3,755c0,.8-.2,1.2-.8,1.4-.6.2-1.7.2-3.4.2,0-.3-.2-.8-.4-1.2,1.3,0,2.5,0,2.9,0,.3,0,.5-.1.5-.5v-3.9h-5.1v5.4h-1.2v-5.4h-4.7c-.3,2-.9,4.1-2.3,5.7-.2-.2-.6-.7-.9-.8,2-2.3,2.2-5.5,2.2-8v-6.5h13.2v13.5ZM763.8,750v-3.2h-4.5v1.2c0,.6,0,1.3,0,2h4.6ZM759.3,742.6v3.1h4.5v-3.1h-4.5ZM770.1,742.6h-5.1v3.1h5.1v-3.1ZM770.1,750v-3.2h-5.1v3.2h5.1Z"/>
          <path class="cls-26" d="M779.2,753.5v3.2h-1v-3.2h-3.1v-1.1h3.1v-1.5h-2.5v-6.3h2.5v-1.4h-2.9v-1.1h2.9v-2h1.1v2h2.8v1.1h-2.8v1.4h2.6v6.3h-2.6v1.5h3v1.1h-3ZM776.6,747.3h1.7v-1.7h-1.7v1.7ZM776.6,750h1.7v-1.8h-1.7v1.8ZM780.9,745.6h-1.7v1.7h1.7v-1.7ZM780.9,748.2h-1.7v1.8h1.7v-1.8ZM791.7,755.2v1.1h-9.9v-1.1h4.5v-3.7h-3.4v-1.1h8.3v1.1h-3.7v3.7h4.3ZM784.2,749.8c-.4-1-1.1-2.4-2-3.7.7-1.1,1.4-2.5,1.8-3.4l1,.3c-.4.9-1.1,2.1-1.7,3.1.7,1.1,1.5,2.4,1.9,3.3l-1,.4ZM791.5,742.1h-9v-1.1h9v1.1ZM788,743.1c-.5.9-1.2,2.1-1.7,3.1.8,1.1,1.6,2.4,2,3.2l-1,.4c-.4-.9-1.2-2.4-2.1-3.6.7-1.1,1.5-2.5,1.8-3.4l1.1.3ZM790.4,749.8c-.4-1-1.3-2.4-2.3-3.7.7-1.1,1.5-2.5,1.9-3.4l1,.3c-.5,1-1.2,2.1-1.8,3.1.8,1.1,1.7,2.4,2.1,3.3l-1,.4Z"/>
          <path class="cls-26" d="M796.4,752.7c-.4,1.1-.9,2.3-1.5,3.1-.2-.1-.6-.4-.8-.5.6-.8,1.1-1.8,1.4-2.9l.9.2ZM798.5,751.6v5h-1v-5h-3.3v-.9h7.5v.9h-3.2ZM796.4,741.9h-2.2v-1h7.4v1h-2.3v1.5h2v4.2h-6.8v-4.2h1.8v-1.5ZM795,749.5v-.9h5.8v.9h-5.8ZM795.4,746.7h1.1v-2.4h-1.1v2.4ZM798.5,741.9h-1.2v1.5h1.2v-1.5ZM797.3,744.3v2.4h1.2v-2.4h-1.2ZM800.6,744.3h-1.3v2.4h1.3v-2.4ZM800.2,752.3c.5.7.9,1.7,1.1,2.3l-.9.4c-.2-.7-.6-1.7-1.1-2.4l.8-.3ZM809.5,740.9c0,7-.3,14.8.5,14.8s.3-.9.3-2.1c.2.3.5.5.6.7-.1,1.8-.3,2.5-1,2.5-1.6,0-1.3-6.1-1.3-14.8h-5.6v8.7c0,2.1-.2,4.7-1.4,6.2-.2-.2-.5-.5-.8-.6,1.2-1.4,1.3-3.6,1.3-5.6v-9.7h7.4ZM807.6,752.5c.4,1.2.7,2.7.9,3.7l-.7.2c0-.4-.1-.9-.2-1.4-1.6.3-3.1.6-4.4.8l-.3-1c.7,0,1.5-.2,2.4-.4v-3h-1.6v-5.6h1.7v-1.9h-1.9v-.9h4.7v.9h-2v1.9h1.7v5.6h-1.8v2.9l1.2-.2c-.1-.5-.3-1-.4-1.4l.7-.2ZM804.4,750.6h1v-3.9h-1v3.9ZM807.2,746.7h-1.1v3.9h1.1v-3.9Z"/>
          <path class="cls-26" d="M815.5,752.7c-.4,1.1-.9,2.3-1.5,3.1-.2-.1-.6-.4-.8-.5.6-.8,1.1-1.8,1.4-2.9l.9.2ZM817.6,751.6v5h-1v-5h-3.3v-.9h7.5v.9h-3.2ZM815.5,741.9h-2.2v-1h7.4v1h-2.3v1.5h2v4.2h-6.8v-4.2h1.8v-1.5ZM814.1,749.5v-.9h5.8v.9h-5.8ZM814.5,746.7h1.1v-2.4h-1.1v2.4ZM817.6,741.9h-1.2v1.5h1.2v-1.5ZM816.4,744.3v2.4h1.2v-2.4h-1.2ZM819.7,744.3h-1.3v2.4h1.3v-2.4ZM819.3,752.3c.5.7.9,1.7,1.1,2.3l-.9.4c-.2-.7-.6-1.7-1.1-2.4l.8-.3ZM828.6,740.9c0,7-.3,14.8.5,14.8s.3-.9.3-2.1c.2.3.5.5.6.7-.1,1.8-.3,2.5-1,2.5-1.6,0-1.3-6.1-1.3-14.8h-5.6v8.7c0,2.1-.2,4.7-1.4,6.2-.2-.2-.5-.5-.8-.6,1.2-1.4,1.3-3.6,1.3-5.6v-9.7h7.4ZM826.7,752.5c.4,1.2.7,2.7.9,3.7l-.7.2c0-.4-.1-.9-.2-1.4-1.6.3-3.1.6-4.4.8l-.3-1c.7,0,1.5-.2,2.4-.4v-3h-1.6v-5.6h1.7v-1.9h-1.9v-.9h4.7v.9h-2v1.9h1.7v5.6h-1.8v2.9l1.2-.2c-.1-.5-.3-1-.4-1.4l.7-.2ZM823.5,750.6h1v-3.9h-1v3.9ZM826.3,746.7h-1.1v3.9h1.1v-3.9Z"/>
          <path class="cls-26" d="M837.3,740.4c-.3.9-.6,1.9-1,2.7h3.1v11.7h-5.1v1.5h-1.1v-13.2h2c.3-.9.6-2.1.8-2.9l1.3.3ZM838.3,744.2h-4v4h4v-4ZM838.3,753.7v-4.5h-4v4.5h4ZM848.3,743.7c-.3,8.3-.5,11.1-1.3,12-.4.5-.8.6-1.4.7-.6,0-1.7,0-2.7,0,0-.4-.2-.9-.4-1.2,1.2.1,2.3.1,2.7.1s.6,0,.8-.3c.6-.6.9-3.4,1.1-10.8h-4.8c-.5,1.2-1.1,2.4-1.7,3.2-.2-.2-.7-.5-1-.7,1.2-1.6,2.2-4.1,2.8-6.6l1.2.3c-.2.9-.5,1.8-.8,2.7h5.5v.6ZM844.5,751.8c-.6-1.1-1.8-2.9-2.8-4.2l.9-.5c1.1,1.3,2.3,3,2.9,4.1l-1,.6Z"/>
          <path class="cls-26" d="M866.1,748.4c-2.3,4.6-6.9,7.1-13.8,8.2-.1-.3-.4-.8-.6-1.1,6.8-.9,11.2-3.2,13.3-7.6l1.1.5ZM867.6,745.8v1.1h-7.2v5.8h-1.3v-5.8h-7.4v-1.1h2.8v-4.1h1.2v4.1h3.5v-5.6h1.3v2h5.3v1.1h-5.3v2.4h7.1ZM857.2,748.1c-1,1.7-2.5,3.4-3.9,4.5-.2-.2-.6-.7-.9-.9,1.4-1,2.8-2.5,3.7-4l1.1.4Z"/>
          <path class="cls-26" d="M876.3,740.6c-.5,1.3-1.2,2.7-1.9,3.9v12.2h-1.2v-10.3c-.6.9-1.3,1.7-2,2.4-.1-.3-.5-.9-.7-1.2,1.9-1.8,3.6-4.5,4.7-7.4l1.1.4ZM886,747.2c-1,1.9-2.2,3.5-3.7,4.9.8,2.1,1.8,3.5,2.9,3.5.5,0,.8-.9.9-3.2.3.3.7.5,1.1.6-.2,2.9-.7,3.8-2,3.8s-2.8-1.5-3.8-3.8c-1.5,1.3-3.3,2.3-5.2,3.1-.2-.3-.6-.8-.8-1,2.1-.8,4-1.9,5.6-3.3-.5-1.6-.9-3.5-1.1-5.5l-4.6.5v-1.1c-.1,0,4.4-.5,4.4-.5-.2-1.5-.3-3.1-.3-4.7h1.3c0,1.6,0,3.2.2,4.6l5.7-.6v1.1c.1,0-5.6.6-5.6.6.2,1.8.5,3.4.9,4.7,1.2-1.2,2.2-2.6,3-4.1l1.1.4ZM884.9,743.8c-.7-.7-2.1-1.8-3.1-2.7l.8-.6c1.1.8,2.4,1.9,3.1,2.5l-.8.8Z"/>
          <path class="cls-26" d="M896.6,754c-2.4.6-4.9,1.3-6.8,1.8l-.3-1.1,1-.2v-6.3h1v6l1.5-.4v-7.4h-2.6v-5.5h5.8v5.5h-2.1v2.6h2.3v1.1h-2.3v3.4c.8-.2,1.6-.4,2.4-.6v1.1ZM891.5,745.3h3.6v-3.3h-3.6v3.3ZM906,750.4c-.9.8-2.2,1.6-3.2,2.2.9,1.3,2.1,2.4,3.5,3-.3.3-.6.7-.8,1.1-2.8-1.3-4.5-4.1-5.3-7.7h-1.8v6.1l3.3-.8c0,.3,0,.8,0,1.1-3.8,1-4.3,1.2-4.7,1.5,0-.3-.4-.8-.5-1,.3-.1.6-.5.6-1.2v-13.5h7.8v7.9h-3.8c.3,1,.6,2,1.1,2.8,1-.6,2.2-1.5,3-2.2l.8.8ZM898.3,742.1v2.3h5.5v-2.3h-5.5ZM898.3,747.8h5.5v-2.4h-5.5v2.4Z"/>
          <path class="cls-26" d="M924.4,744.8c-1.1,1.1-2.4,2-3.8,2.8h4.4v1.1h-6.4c-1.1.5-2.3,1.1-3.5,1.5h8.1v6.5h-1.2v-.6h-8.3v.6h-1.2v-5.7c-1.1.4-2.2.7-3.3.9-.1-.3-.4-.8-.6-1,2.5-.5,5.1-1.3,7.5-2.3h-7.1v-1.1h6.2v-1.8h-4.7v-1h4.7v-1.4h1.2v1.4h4.5v1h-4.5v1.8h2.1c1.9-1,3.7-2.1,5-3.4l.9.6ZM912.7,742.5h-3.7v-1.1h3.7v-1.3h1.2v1.3h2.6v1.1h-2.6v1.5h-1.2v-1.5ZM922,751.1h-8.3v1.6h8.3v-1.6ZM922,755.2v-1.6h-8.3v1.6h8.3ZM925,741.5v1.1h-3.8v1.5h-1.2v-1.5h-2.7v-1.1h2.7v-1.3h1.2v1.3h3.8Z"/>
          <path class="cls-26" d="M933.1,740.6c-.5,1.4-1.2,2.7-1.9,4v12.2h-1.2v-10.4c-.6.9-1.3,1.7-1.9,2.4-.1-.3-.5-.9-.7-1.2,1.8-1.8,3.5-4.5,4.6-7.3l1.1.3ZM941.8,755.5c1.1,0,1.3-.5,1.5-2.7.3.2.7.4,1.1.5-.2,2.5-.6,3.3-2.5,3.3h-4.9c-2.1,0-2.7-.5-2.7-2.4v-6.1l-1.9.7-.5-1.1,2.3-.9v-4.8h1.1v4.4l2.8-1.1v-5h1.1v4.6l3.1-1.2.3-.2.9.3v.2c-.1,2.6-.3,6.1-.6,8.2l-1-.3c.2-1.7.3-4.6.3-7l-3.1,1.2v6.7h-1.1v-6.3l-2.8,1.1v6.6c0,1,.3,1.3,1.6,1.3h4.9Z"/>
          <path class="cls-26" d="M951.5,740.6c-.4,1.2-.9,2.4-1.4,3.6v12.6h-1.2v-10.4c-.6,1-1.2,1.9-1.8,2.6-.1-.3-.4-.9-.7-1.2,1.6-1.8,3.1-4.6,3.9-7.5l1.1.3ZM956.6,747.7h-3.7v8.9h-1.1v-15.4h4.8v6.5ZM953,742.2v1.8h2.7v-1.8h-2.7ZM955.7,746.8v-1.9h-2.7v1.9h2.7ZM962.8,755.1c0,.8-.2,1.2-.8,1.4-.6.2-1.6.2-3.3.2,0-.3-.3-.9-.5-1.2,1.3,0,2.6,0,2.9,0,.4,0,.5-.1.5-.5v-7.3h-3.9v-6.5h5v13.8ZM958.8,742.2v1.8h2.9v-1.8h-2.9ZM961.7,746.8v-1.9h-2.9v1.9h2.9Z"/>
          <path class="cls-26" d="M759.8,779c1.5,0,2.7,1.2,2.7,2.7s-1.2,2.7-2.7,2.7-2.7-1.2-2.7-2.7,1.3-2.7,2.7-2.7ZM759.8,783.7c1.1,0,1.9-.8,1.9-1.9s-.8-1.9-1.9-1.9-1.9.8-1.9,1.9.8,1.9,1.9,1.9Z"/>
          <path class="cls-26" d="M779.8,775.7c-.3.9-.5,1.9-.8,2.7h7.5v10c0,.7-.2,1.1-.7,1.3-.5.2-1.5.2-2.8.2,0-.3-.2-.8-.4-1.1,1.1,0,2,0,2.3,0,.3,0,.4,0,.4-.4v-8.9h-3.2v9.9h-1.2v-9.9h-3.2v9.9h-1.2v-9.9h-3v10.5h-1.2v-11.6h5.5c.3-.8.5-1.9.7-2.7h-7.1v-1.2h16.2v1.2h-7.6Z"/>
          <path class="cls-26" d="M806.4,784.8h-7.5v5.2h-1.3v-5.2h-7.4v-1.2h7.4v-3.1h-6.2v-1.2h6.2v-5.9h1.3v5.9h6.4v1.2h-6.4v3.1h7.5v1.2ZM794.2,778.5c-.4-1.1-1.3-2.8-2.1-4.1l1.1-.5c.9,1.3,1.8,3,2.2,4l-1.1.5ZM804.7,774.4c-.7,1.4-1.7,3.1-2.5,4.1l-1.1-.4c.8-1.1,1.7-2.9,2.3-4.2l1.3.5Z"/>
          <path class="cls-26" d="M825.6,785.8h-6.7v4.2h-1.2v-4.2h-8.4v-1.2h3v-4.9h5.4v-2.9h-4.5c-.8,1.4-1.8,2.7-2.8,3.6-.2-.2-.7-.6-1.1-.8,1.7-1.5,3.3-3.9,4.2-6.3l1.2.3c-.3.7-.5,1.3-.9,2h10.9v1.2h-5.8v2.9h5.4v1.1h-5.4v3.8h6.7v1.2ZM817.7,784.7v-3.8h-4.2v3.8h4.2Z"/>
          <path class="cls-26" d="M833.5,777.5c-.5.9-1,1.7-1.6,2.6v10h-1.1v-8.6c-.6.7-1.2,1.3-1.8,1.8-.1-.2-.5-.8-.7-1,1.6-1.3,3.2-3.2,4.2-5.1l1.1.4ZM833.1,773.9c-1,1.5-2.6,3.2-4,4.3-.1-.2-.5-.7-.7-.9,1.3-1,2.9-2.5,3.6-3.8l1.1.4ZM843.2,783.1c-.8,1.7-2,3.1-3.5,4.2,1.5.8,3.1,1.3,4.9,1.7-.3.3-.6.7-.7,1.1-1.9-.4-3.7-1.1-5.2-2-1.6,1-3.5,1.6-5.4,2.1,0-.3-.4-.8-.6-1,1.7-.3,3.4-.9,4.9-1.7-.8-.6-1.5-1.3-2.2-2-.5.5-1,.9-1.5,1.2-.2-.2-.6-.7-.8-.9.5-.4,1.1-.8,1.6-1.2-.3-.4-.6-.9-.9-1.3l1-.4c.2.3.4.6.6,1,.7-.7,1.3-1.5,1.8-2.4-2.7.2-3.2.3-3.5.4,0-.2-.2-.8-.4-1.1.5,0,1.1-.4,2-.9.4-.2,1.3-.8,2.4-1.5-2.8.1-3.3.2-3.6.3,0-.3-.3-.9-.4-1.2.3,0,.7-.3,1.2-.7.5-.3,2.1-1.7,3.2-3.1l1.2.5c-1.1,1.2-2.4,2.3-3.5,3.1h3.4c.9-.7,1.7-1.4,2.5-2.1l1.1.6c-2.2,1.8-4.5,3.3-6.8,4.5l6.1-.3c-.5-.6-.9-1.1-1.3-1.6l.9-.5c1.1,1.2,2.4,2.9,3,3.9l-1,.6c-.2-.4-.6-.9-1-1.5-1.7.1-3.1.2-4.1.3-.3.5-.6,1-.9,1.5h4.8c0,0,.7.3.7.3ZM836.8,783.8c-.2.3-.5.6-.7.8.7.8,1.5,1.5,2.5,2.1,1.2-.8,2.2-1.8,2.9-2.9h-4.7Z"/>
          <path class="cls-26" d="M854.2,784.3c1.4-.6,2.2-1.5,2.3-2.8-.1,0-.2,0-.3,0-.7,0-1.3-.4-1.3-1.2s.6-1.2,1.3-1.2,1.5.8,1.5,2c0,1.9-1.2,3.4-3.1,4.1l-.4-.9Z"/>
          <path class="cls-26" d="M875.5,775.1c0,10,0,13.1-.6,13.9-.3.5-.6.7-1.2.7-.5,0-1.3,0-2.1,0,0-.4-.1-.9-.3-1.3.9,0,1.6,0,1.9,0s.5,0,.6-.3c.2-.4.3-1.5.4-4.2h-3.3c-.5,2.4-1.3,4.4-2.7,6-.2-.2-.7-.7-1-.9,1.3-1.3,2-3.1,2.5-5.1h-2.2v-1.1h2.4c.2-1,.3-2,.3-3.2h-2.6v-1.1h2.6c0-1,0-2.1,0-3.2h-3v-1.1h8.1v.7ZM874.2,782.9c0-.9,0-2,0-3.2h-2.8c0,1.1-.2,2.2-.3,3.2h3.1ZM871.6,775.5c0,1.1,0,2.2,0,3.2h2.7v-3.2s-2.7,0-2.7,0ZM883.6,775c-.8,1.7-1.8,3.7-2.7,5.4,2,1.7,2.5,3.1,2.5,4.4,0,1-.3,1.9-.9,2.3-.3.2-.8.3-1.2.4-.6,0-1.3,0-1.9,0,0-.3-.2-.8-.4-1.1.7,0,1.3,0,1.8,0,.3,0,.7,0,.9-.2.4-.2.6-.8.6-1.4,0-1.2-.6-2.5-2.6-4.1.9-1.5,1.7-3.5,2.4-4.9h-3.7v14.4h-1.1v-15.5h5.6c0,0,.8.5.8.5Z"/>
          <path class="cls-26" d="M892,773.9c-.5,1.3-1.2,2.7-1.9,3.9v12.2h-1.2v-10.4c-.6.9-1.3,1.7-1.9,2.4-.1-.3-.5-.9-.7-1.2,1.8-1.8,3.5-4.5,4.6-7.3l1.1.3ZM902.8,788.1v1.2h-11.3v-1.2h6.4c.7-2.5,1.4-6.4,1.8-9.1l1.3.2c-.5,2.8-1.2,6.4-1.9,8.9h3.8ZM902,778h-9.8v-1.2h9.8v1.2ZM894.7,787.2c-.2-1.9-.7-5.3-1.3-7.8l1.1-.2c.6,2.5,1.2,5.8,1.4,7.7l-1.2.3ZM896.8,776.6c-.2-.8-.5-2-.9-2.9l1.1-.3c.3.9.7,2.1.9,2.8l-1.2.3Z"/>
          <path class="cls-26" d="M910.8,785.2c-.3-.6-1.1-1.7-1.7-2.6v7.4h-1.1v-7.2c-.7.9-1.4,1.7-2.1,2.3,0-.3-.4-.9-.6-1.1,1.7-1.4,3.5-3.9,4.5-6.2h-4.4v-1.1h5.1c0,0,.6.4.6.4-.5,1.4-1.2,2.8-2,4h0c.2.2.4.5.6.7.5-.5,1.1-1.3,1.5-1.8l.8.7c-.6.6-1.2,1.3-1.7,1.7.5.7,1.1,1.4,1.3,1.7l-.7.9ZM908.6,776.6c-.3-.7-.9-1.8-1.4-2.6l.9-.4c.5.8,1.1,1.8,1.4,2.5l-1,.6ZM921,780.9c-.6,2.4-1.7,4.3-3,5.8,1.1,1,2.5,1.8,4.1,2.3-.3.3-.6.7-.7,1-1.6-.6-3-1.4-4.1-2.5-1.2,1.1-2.7,2-4.1,2.6-.1-.3-.4-.8-.7-1,1.5-.5,2.8-1.3,4-2.4-1.2-1.4-2.1-3.1-2.7-5h-.3c0,2.6-.5,5.9-2.3,8.2-.2-.2-.6-.6-.9-.8,1.9-2.4,2.1-5.7,2.1-8.2v-4.7h3.9v-2.7h1.1v2.7h3.6c0,0,.8.2.8.2-.3,1.3-.8,2.7-1.2,3.6l-1-.3c.3-.6.5-1.5.7-2.4h-3v3.3h2.9c0,0,.7.3.7.3ZM913.4,777.3v3.3h2.8v-3.3h-2.8ZM914.8,781.7c.6,1.6,1.4,3,2.4,4.2,1-1.1,1.9-2.5,2.4-4.2h-4.8Z"/>
          <path class="cls-26" d="M930.1,787.3c-1.1.9-2.8,1.8-4.3,2.4-.2-.2-.6-.5-.9-.7,1.5-.5,3.1-1.3,4.1-2.1l1,.4ZM932.7,781.2h-7.4v-7h7.3v.9h-2.8v1.1h2.3v2.9h-2.3v1.2h2.9v.9ZM933.6,786.2v2.6c0,.6-.1.9-.7,1s-1.4.2-2.7.1c0-.3-.3-.6-.4-.9,1.1,0,2,0,2.3,0,.3,0,.4,0,.4-.3v-2.5c-5.5.3-6.1.4-6.6.5,0-.2-.2-.7-.3-1,.6,0,1.4-.2,2.4-.5.6-.2,2-.7,3.6-1.3-3.5.2-4,.2-4.3.3,0-.2-.2-.7-.3-.9.4,0,.8-.1,1.3-.3.5-.2,2.2-.9,3.5-1.7l.8.6c-.9.5-1.9,1-2.8,1.3l3.7-.2c.7-.3,1.4-.7,2.1-1l.7.7c-2.2,1.2-4.5,2.1-6.7,2.8l7.7-.4c-.5-.4-1-.7-1.4-1.1l.8-.5c1.3.9,2.8,2,3.5,2.9l-.8.7c-.3-.3-.7-.7-1.1-1.1l-4.6.3ZM926.4,775.1v1.1h2.4v-1.1h-2.4ZM931.1,777h-4.7v1.4h4.7v-1.4ZM926.4,780.3h2.4v-1.2h-2.4v1.2ZM940.3,774.6c-.5,1.9-1.5,3.4-2.6,4.6,1,.7,2.1,1.3,3.3,1.7-.3.2-.6.7-.7.9-1.3-.4-2.4-1.1-3.4-1.9-1,.8-2.1,1.4-3.2,1.8-.1-.3-.4-.7-.6-.9,1.1-.3,2.1-.9,3.1-1.6-1-1-1.7-2.2-2.3-3.6l.7-.2h-1.2v-1h6.4s.7.2.7.2ZM934.8,775.4c.5,1.2,1.2,2.2,2.1,3.1.9-.8,1.6-1.9,2-3.1h-4.1ZM936.1,786.7c1.4.6,3.3,1.5,4.3,2.1l-.8.7c-1-.6-2.8-1.6-4.3-2.2l.8-.7Z"/>
          <path class="cls-26" d="M949.2,787.3c-1.1.9-2.8,1.8-4.3,2.4-.2-.2-.6-.5-.9-.7,1.5-.5,3.1-1.3,4.1-2.1l1,.4ZM951.8,781.2h-7.4v-7h7.3v.9h-2.8v1.1h2.3v2.9h-2.3v1.2h2.9v.9ZM952.7,786.2v2.6c0,.6-.1.9-.7,1s-1.4.2-2.7.1c0-.3-.3-.6-.4-.9,1.1,0,2,0,2.3,0,.3,0,.4,0,.4-.3v-2.5c-5.5.3-6.1.4-6.6.5,0-.2-.2-.7-.3-1,.6,0,1.4-.2,2.4-.5.6-.2,2-.7,3.6-1.3-3.5.2-4,.2-4.3.3,0-.2-.2-.7-.3-.9.4,0,.8-.1,1.3-.3.5-.2,2.2-.9,3.5-1.7l.8.6c-.9.5-1.9,1-2.8,1.3l3.7-.2c.7-.3,1.4-.7,2.1-1l.7.7c-2.2,1.2-4.5,2.1-6.7,2.8l7.7-.4c-.5-.4-1-.7-1.4-1.1l.8-.5c1.3.9,2.8,2,3.5,2.9l-.8.7c-.3-.3-.7-.7-1.1-1.1l-4.6.3ZM945.5,775.1v1.1h2.4v-1.1h-2.4ZM950.2,777h-4.7v1.4h4.7v-1.4ZM945.5,780.3h2.4v-1.2h-2.4v1.2ZM959.4,774.6c-.5,1.9-1.5,3.4-2.6,4.6,1,.7,2.1,1.3,3.3,1.7-.3.2-.6.7-.7.9-1.3-.4-2.4-1.1-3.4-1.9-1,.8-2.1,1.4-3.2,1.8-.1-.3-.4-.7-.6-.9,1.1-.3,2.1-.9,3.1-1.6-1-1-1.7-2.2-2.3-3.6l.7-.2h-1.2v-1h6.4s.7.2.7.2ZM953.9,775.4c.5,1.2,1.2,2.2,2.1,3.1.9-.8,1.6-1.9,2-3.1h-4.1ZM955.2,786.7c1.4.6,3.3,1.5,4.3,2.1l-.8.7c-1-.6-2.8-1.6-4.3-2.2l.8-.7Z"/>
          <path class="cls-26" d="M763,820.7c-2.4.6-4.9,1.3-6.8,1.8l-.3-1.1,1-.2v-6.3h1v6l1.5-.4v-7.4h-2.6v-5.5h5.8v5.5h-2.1v2.6h2.3v1.1h-2.3v3.4c.8-.2,1.6-.4,2.4-.6v1.1ZM758,812h3.6v-3.3h-3.6v3.3ZM772.5,817c-.9.8-2.2,1.6-3.2,2.2.9,1.3,2.1,2.4,3.5,3-.3.3-.6.7-.8,1.1-2.8-1.3-4.5-4.1-5.3-7.7h-1.8v6.1l3.3-.8c0,.3,0,.8,0,1.1-3.8,1-4.3,1.2-4.7,1.5,0-.3-.4-.8-.5-1,.3-.1.6-.5.6-1.2v-13.5h7.8v7.9h-3.8c.3,1,.6,2,1.1,2.8,1-.6,2.2-1.5,3-2.2l.8.8ZM764.8,808.7v2.3h5.5v-2.3h-5.5ZM764.8,814.4h5.5v-2.4h-5.5v2.4Z"/>
          <path class="cls-26" d="M790.8,811.4c-1.1,1.1-2.4,2-3.8,2.8h4.4v1.1h-6.4c-1.1.5-2.3,1.1-3.5,1.5h8.1v6.5h-1.2v-.6h-8.3v.6h-1.2v-5.7c-1.1.4-2.2.7-3.3.9-.1-.3-.4-.8-.6-1,2.5-.5,5.1-1.3,7.5-2.3h-7.1v-1.1h6.2v-1.8h-4.7v-1h4.7v-1.4h1.2v1.4h4.5v1h-4.5v1.8h2.1c1.9-1,3.7-2.1,5-3.4l.9.6ZM779.2,809.2h-3.7v-1.1h3.7v-1.3h1.2v1.3h2.6v1.1h-2.6v1.5h-1.2v-1.5ZM788.5,817.8h-8.3v1.6h8.3v-1.6ZM788.5,821.8v-1.6h-8.3v1.6h8.3ZM791.4,808.1v1.1h-3.8v1.5h-1.2v-1.5h-2.7v-1.1h2.7v-1.3h1.2v1.3h3.8Z"/>
          <path class="cls-26" d="M799.1,807c-.3.9-.6,1.9-1,2.7h3.1v11.7h-5.1v1.5h-1.1v-13.2h2c.3-.9.6-2.1.8-2.9l1.3.3ZM800.1,810.8h-4v4h4v-4ZM800.1,820.4v-4.5h-4v4.5h4ZM810.2,810.3c-.3,8.3-.5,11.1-1.3,12-.4.5-.8.6-1.4.7-.6,0-1.7,0-2.7,0,0-.4-.2-.9-.4-1.2,1.2.1,2.3.1,2.7.1s.6,0,.8-.3c.6-.6.9-3.4,1.1-10.8h-4.8c-.5,1.2-1.1,2.4-1.7,3.2-.2-.2-.7-.5-1-.7,1.2-1.6,2.2-4.1,2.8-6.6l1.2.3c-.2.9-.5,1.8-.8,2.7h5.5v.6ZM806.3,818.5c-.6-1.1-1.8-2.9-2.8-4.2l.9-.5c1.1,1.3,2.3,3,2.9,4.1l-1,.6Z"/>
          <path class="cls-26" d="M821.6,808.4c0,10,0,13.1-.6,13.9-.3.5-.6.7-1.2.7-.5,0-1.3,0-2.1,0,0-.4-.1-.9-.3-1.3.9,0,1.6,0,1.9,0s.5,0,.6-.3c.2-.4.3-1.5.4-4.2h-3.3c-.5,2.4-1.3,4.4-2.7,6-.2-.2-.7-.7-1-.9,1.3-1.3,2-3.1,2.5-5.1h-2.2v-1.1h2.4c.2-1,.3-2,.3-3.2h-2.6v-1.1h2.6c0-1,0-2.1,0-3.2h-3v-1.1h8.1v.7ZM820.3,816.3c0-.9,0-2,0-3.2h-2.8c0,1.1-.2,2.2-.3,3.2h3.1ZM817.7,808.8c0,1.1,0,2.2,0,3.2h2.7v-3.2s-2.7,0-2.7,0ZM829.6,808.3c-.8,1.7-1.8,3.7-2.7,5.4,2,1.7,2.5,3.1,2.5,4.4,0,1-.3,1.9-.9,2.3-.3.2-.8.3-1.2.4-.6,0-1.3,0-1.9,0,0-.3-.2-.8-.4-1.1.7,0,1.3,0,1.8,0,.3,0,.7,0,.9-.2.4-.2.6-.8.6-1.4,0-1.2-.6-2.5-2.6-4.1.9-1.5,1.7-3.5,2.4-4.9h-3.7v14.4h-1.1v-15.5h5.6c0,0,.8.5.8.5Z"/>
          <path class="cls-26" d="M846.9,823.3h-1.2v-1h-8.3v1h-1.2v-6.1c-1,.4-2.1.7-3.1.9,0-.3-.4-.8-.6-1.1,2.3-.5,4.8-1.3,7-2.5-.9-.9-2.3-2-3.6-2.9-.7.5-1.3.9-2.1,1.3-.2-.3-.6-.7-.8-.9,2.9-1.4,5-3.5,6.1-5.2l1.3.3c-.3.5-.7,1.1-1.2,1.6h6.8c0,0,.8.4.8.4-1.5,2.9-4.3,5.2-7.4,6.8h7.5v7.5ZM838.1,809.7c-.4.4-.9.8-1.3,1.2,1.3.9,2.8,2.1,3.8,3,1.8-1.1,3.4-2.5,4.5-4.1h-6.9ZM845.7,821.3v-4.3h-8.3v4.3h8.3Z"/>
          <path class="cls-26" d="M866.7,812.9c-.8,2.4-1.8,4.4-3.2,6.1.7,1.9,1.6,2.9,2.5,2.9s.8-.9.9-3.4c.3.3.7.5,1,.6-.2,3-.7,3.9-2,3.9s-2.5-1.2-3.4-3.1c-1.1,1.2-2.4,2.3-3.9,3.1-.2-.3-.6-.7-.9-1,1.7-.9,3.1-2,4.3-3.4-.7-2.1-1.1-4.7-1.4-7.7h-6.5v2.5h4.7v.5c0,4.1-.2,5.6-.6,6.1-.3.3-.5.5-1,.5-.5,0-1.3,0-2.2,0,0-.4-.1-.8-.3-1.1.9,0,1.7,0,2,0s.4,0,.6-.2c.3-.3.3-1.5.4-4.8h-3.5v.3c0,2.5-.3,6.1-1.9,8.5-.2-.2-.7-.7-1-.8,1.5-2.2,1.7-5.3,1.7-7.7v-5.1h7.6c0-1,0-2.1,0-3.1h1.3c0,1.1,0,2.1,0,3.1h5.9v1.2h-5.8c.2,2.5.5,4.8,1,6.5,1-1.5,1.8-3.2,2.5-5.1l1.2.3ZM866.1,809.8c-.7-.6-2.1-1.6-3.3-2.2l.7-.7c1.2.6,2.6,1.5,3.3,2.1l-.7.8Z"/>
          <path class="cls-26" d="M877,821.1c-1.4.9-3.8,1.8-5.7,2.2-.2-.2-.6-.7-.9-.9,1.9-.5,4.3-1.3,5.4-2.1l1.1.7ZM885.2,812.6v7.7h-12.8v-7.7h12.8ZM884.5,807.5v4h-11.3v-4h11.3ZM873.7,814.9h10.3v-1.4h-10.3v1.4ZM873.7,817.2h10.3v-1.4h-10.3v1.4ZM873.7,819.5h10.3v-1.4h-10.3v1.4ZM874.4,810.5h8.8v-2h-8.8v2ZM881.4,820.5c1.9.5,4.3,1.5,5.7,2.1l-1,.9c-1.3-.6-3.8-1.6-5.7-2.1l1.1-.8Z"/>
          <path class="cls-26" d="M904.2,822c.7,0,.8-.2.9-2,.3.2.7.3,1.1.4-.1,2.1-.5,2.6-1.8,2.6h-3c-1.6,0-2-.3-2-1.5v-2.2h-3c-.4,2.5-1.8,3.5-6,4.1-.1-.3-.4-.8-.6-1,3.9-.4,5-1.1,5.3-3.1h-3.1v-5.6h12v5.6h-3.4v2.2c0,.4.1.5.9.5h2.8ZM905.9,812.6h-16v-1.1h4.7c-.2-.5-.5-1.2-.9-1.7l1.1-.3c.4.5.8,1.3,1,1.8l-.6.2h4.9c.4-.6.8-1.4,1-1.9l1.2.3c-.3.6-.6,1.1-.9,1.6h4.6v1.1ZM904.8,809.4h-14v-1h6.7c-.2-.4-.5-.9-.7-1.2l1.1-.3c.4.5.8,1.1,1,1.5h5.9v1ZM893,816h9.7v-1.5h-9.7v1.5ZM893,818.4h9.7v-1.5h-9.7v1.5Z"/>
          <path class="cls-26" d="M908.7,822.9c.8-.9,1.8-2.3,2.4-3.5l1.1.3c-.7,1.3-1.6,2.7-2.4,3.6l-1.1-.5ZM917.2,808.7c-1.1,5.3-3.9,8.4-7.4,10-.1-.3-.6-.7-.8-.9,2.2-.9,4.1-2.4,5.4-4.7-.6-.7-1.7-1.6-2.6-2.4-.7,1.1-1.5,2.1-2.4,2.8-.1-.3-.4-.7-.5-1,1.7-1.5,3.1-3.9,3.8-6l1.1.3c-.2.5-.4,1-.6,1.4h3.4s.7.3.7.3ZM912.9,814.2l-3.6,1.1-.3-1c1-.2,2.4-.6,3.8-.9v.8ZM912.5,809.4c-.1.2-.2.4-.3.6.9.7,1.9,1.5,2.6,2.2.4-.9.7-1.8,1-2.8h-3.3ZM915.3,819.8c.2,1.1.4,2.4.5,3.2l-1.2.2c0-.8-.2-2.2-.4-3.3h1.1ZM924.2,818.8c-.7-1.5-2-4-3.4-6-.6,2.1-1.8,4.4-4.6,6.2-.2-.2-.6-.6-.9-.8,2.9-1.9,4-4.2,4.5-6.3h-2.8v-1.1h3c0-.6,0-1.3,0-1.8v-1.9h1.1v1.9c0,.5,0,1.1,0,1.8h3.9v1.1h-3.6c1.5,2.1,3.1,4.7,3.8,6.4l-1.1.5ZM919,819.7c.5,1,1,2.4,1.2,3.3l-1.2.3c-.2-.9-.6-2.3-1.1-3.3l1.1-.2ZM922.7,819.3c.9,1.1,2,2.6,2.5,3.5l-1.1.5c-.5-.9-1.5-2.5-2.4-3.6l1.1-.4ZM923.7,810.2c-.4-.7-1.2-1.7-2-2.5l.9-.5c.8.7,1.6,1.7,2,2.4l-.9.6Z"/>
          <path class="cls-26" d="M932.1,815.5c-.3,1.6-.9,3.4-1.5,4.7.4.2.8.6,1.5,1,1.3.8,2.9.9,5.1.9s5.3-.2,7.3-.3c-.2.3-.3.9-.4,1.3-1.3,0-4.8.2-7,.2s-4-.2-5.3-1c-.8-.5-1.4-1.1-1.8-1.1s-1,1.1-1.6,2.3l-.8-1.1c.7-.9,1.3-1.7,1.8-2.1.6-1.1,1-2.5,1.3-3.9h-2.4c.5-1.1,1.1-2.7,1.6-4.1h-2.1v-1.1h3.6c-.5,1.3-1.1,2.9-1.5,4.1h1.6s.6.2.6.2ZM929.7,810.2c-.2-.8-.6-2-.9-3l1.1-.3c.3.9.7,2.1.9,2.9l-1.1.4ZM934.3,820.9h-1.1v-7.8h1.4v-5.6h7.4v5.6h1.4v6.6c0,.6-.1.9-.6,1.1-.4.2-1.1.2-2.2.2,0-.3-.2-.7-.3-1,.8,0,1.5,0,1.7,0,.2,0,.3,0,.3-.3v-5.6h-8v6.9ZM935.7,813h1.8v-3.1h3.4v-1.5h-5.2v4.6ZM940.6,819.1h-3.7v.7h-.9v-4.5h4.7v3.8ZM939.7,816.2h-2.8v2.1h2.8v-2.1ZM940.9,813v-2.2h-2.4v2.2h2.4Z"/>
          <path class="cls-26" d="M954.4,818.3v-5.8h-3.4v8.4h11.7v1.2h-13v-9.6h-2.7v-1.2h2.7v-4.1h1.3v4.1h3.4v-4.5h1.2v4.5h3.6v-4.3h1.3v4.3h2.8v1.2h-2.8v5.8h-6.1ZM955.6,812.5v4.7h3.6v-4.7h-3.6Z"/>
          <path class="cls-26" d="M771.3,842.2c-1.6,1.8-4.1,3.6-6.4,4.9v8c0,.9-.2,1.2-.9,1.4-.7.2-1.9.2-3.7.2,0-.4-.3-.9-.5-1.2,1.6,0,2.9,0,3.4,0,.4,0,.5-.1.5-.4v-8.6c1.8-.9,3.9-2.4,5.2-3.7h-11.9v-1.2h13.4c0,0,.9.6.9.6Z"/>
          <path class="cls-26" d="M776.5,854.4c0-.7.5-1.2,1.1-1.2s1.1.5,1.1,1.2-.5,1.2-1.1,1.2-1.1-.5-1.1-1.2ZM783.3,854.4c0-.7.5-1.2,1.1-1.2s1.1.5,1.1,1.2-.5,1.2-1.1,1.2-1.1-.5-1.1-1.2ZM790.1,854.4c0-.7.5-1.2,1.1-1.2s1.1.5,1.1,1.2-.5,1.2-1.1,1.2-1.1-.5-1.1-1.2Z"/>
          <path class="cls-26" d="M800.1,845.7c1.5,0,2.7,1.2,2.7,2.7s-1.2,2.7-2.7,2.7-2.7-1.2-2.7-2.7,1.3-2.7,2.7-2.7ZM800.1,850.3c1.1,0,1.9-.8,1.9-1.9s-.8-1.9-1.9-1.9-1.9.8-1.9,1.9.8,1.9,1.9,1.9Z"/>
        </g>
      </g>
    </g>
  </g>
</svg>