<?xml version="1.0" encoding="UTF-8"?>
<svg xmlns="http://www.w3.org/2000/svg" version="1.1" viewBox="0 0 1133.9 1020.5">
  <defs>
    <style>
      .cls-1 {
        fill: #ee4036;
      }

      .cls-1, .cls-2, .cls-3, .cls-4, .cls-5, .cls-6, .cls-7, .cls-8, .cls-9, .cls-10, .cls-11, .cls-12, .cls-13, .cls-14, .cls-15, .cls-16, .cls-17, .cls-18, .cls-19, .cls-20, .cls-21 {
        stroke: #231f20;
      }

      .cls-1, .cls-3, .cls-4, .cls-10, .cls-11, .cls-12, .cls-13, .cls-16, .cls-19, .cls-20 {
        stroke-linecap: round;
      }

      .cls-1, .cls-3, .cls-6, .cls-10, .cls-12, .cls-19 {
        stroke-width: 2px;
      }

      .cls-1, .cls-3, .cls-10, .cls-19, .cls-20 {
        stroke-linejoin: round;
      }

      .cls-2 {
        stroke-width: 2.5px;
      }

      .cls-2, .cls-3, .cls-11, .cls-15, .cls-16, .cls-17, .cls-20 {
        fill: none;
      }

      .cls-2, .cls-4, .cls-5, .cls-6, .cls-7, .cls-8, .cls-9, .cls-11, .cls-12, .cls-13, .cls-14, .cls-15, .cls-16, .cls-17, .cls-18, .cls-21 {
        stroke-miterlimit: 10;
      }

      .cls-4, .cls-10, .cls-12, .cls-14, .cls-22, .cls-21 {
        fill: #6d6e70;
      }

      .cls-5, .cls-6, .cls-7, .cls-23, .cls-9, .cls-13 {
        fill: #fff;
      }

      .cls-5, .cls-8, .cls-15 {
        stroke-width: 3px;
      }

      .cls-8, .cls-18 {
        fill: #ffdd15;
      }

      .cls-9, .cls-16 {
        stroke-width: 4px;
      }

      .cls-24, .cls-19 {
        fill: #231f20;
      }

      .cls-21 {
        stroke-width: 1.5px;
      }
    </style>
  </defs>
  <!-- Generator: Adobe Illustrator 28.7.4, SVG Export Plug-In . SVG Version: 1.2.0 Build 166)  -->
  <g>
    <g id="Layer_2">
      <rect class="cls-23" x="-1535.6" y="-1850.9" width="8519.3" height="4668.3"/>
      <rect class="cls-8" x="28.3" y="28.3" width="1077.2" height="963.8" transform="translate(1133.9 1020.5) rotate(-180)"/>
      <rect class="cls-18" x="36.9" y="36.8" width="1060.2" height="946.8" transform="translate(1133.9 1020.5) rotate(-180)"/>
      <g>
        <g>
          <rect class="cls-2" x="1040.3" y="83.6" width="15.2" height="15.2"/>
          <polyline class="cls-2" points="1017.3 74.1 1047.9 74.1 1047.9 91.3 1065.1 91.3 1065.1 121.8"/>
          <rect class="cls-2" x="1055.5" y="74.1" width="9.5" height="9.5"/>
        </g>
        <g>
          <rect class="cls-2" x="1040.3" y="922.6" width="15.2" height="15.2"/>
          <polyline class="cls-2" points="1017.3 947.4 1047.9 947.4 1047.9 930.2 1065.1 930.2 1065.1 899.6"/>
          <rect class="cls-2" x="1055.5" y="937.8" width="9.5" height="9.5"/>
        </g>
        <g>
          <rect class="cls-2" x="78.3" y="83.6" width="15.2" height="15.2" transform="translate(171.9 182.5) rotate(-180)"/>
          <polyline class="cls-2" points="116.5 74.1 86 74.1 86 91.3 68.8 91.3 68.8 121.8"/>
          <rect class="cls-2" x="68.8" y="74.1" width="9.5" height="9.5" transform="translate(147.1 157.7) rotate(-180)"/>
        </g>
        <g>
          <rect class="cls-2" x="78.3" y="921.6" width="15.2" height="15.2" transform="translate(171.9 1858.4) rotate(-180)"/>
          <polyline class="cls-2" points="116.5 946.4 86 946.4 86 929.2 68.8 929.2 68.8 898.6"/>
          <rect class="cls-2" x="68.8" y="936.8" width="9.5" height="9.5" transform="translate(147.1 1883.2) rotate(-180)"/>
        </g>
        <rect class="cls-15" x="53.8" y="59.1" width="1026.2" height="902.3"/>
        <rect class="cls-17" x="121.5" y="2.8" width="890.9" height="1014.9" transform="translate(56.7 1077.2) rotate(-90)"/>
      </g>
    </g>
    <g id="Layer_1">
      <g>
        <rect class="cls-5" x="136" y="110.1" width="102.4" height="308"/>
        <rect class="cls-7" x="39.8" y="219.6" width="294.7" height="89.1" transform="translate(-77 451.3) rotate(-90)"/>
        <g>
          <path class="cls-24" d="M195.2,146.9c.4.2.9.4,1.3.5h.7c.3.2.7.4,1,.5.4.1.8.4,1,1,.3.4.5.8.5,1.2l-.2.2c-.2.9-.8,1.6-1.8,2.1h-.3l-.2.2h-.5c-.1.4-.1.9,0,1.3.3.3.6.7.8,1.2,1.3-.2,2.7-.4,4.1-.7l.3.2.2-.5c.3,0,.7,0,1,.2h2.3c.5.7,1,1.4,1.3,2.3l-.5.3v.7c-.2.1-.4.2-.5.3l-.2.3c-.3,0-.7.1-1.2.3-.6.1-1.2.2-1.8.3-.8,0-1.5,0-2.1-.2h-2.8c-.7,0-1.1.1-1.3.3.7.4,1.4.9,2.1,1.3,2.1,1.5,4.3,2.9,6.6,4.1.9.6,1.4,1.2,1.5,2l-.3.2c-.1.3-.2.7-.2,1-.6.2-.9.6-1,1-.3,0-.8,0-1.5.2h-2c-.8-.1-1.9-.9-3.3-2.3-1-1-1.7-1.8-2.1-2.3v1.8c0,.9-.2,1.7-.5,2.3.2.4.4.8.5,1.2-.2.3-.4.7-.7,1,1.7-.1,3.3-.3,5-.5h1.5l.2-.2c.3-.2,1-.3,2-.2.9.1,1.7.5,2.3,1.2.2.2.4.4.7.7l.2.3.5.3c-.1.4-.2.9-.2,1.3l-.2.2c-.1.6-.4,1.1-1,1.7h-.3c-.2.1-.4.2-.7.3-.3-.2-.7-.3-1.2-.3-1.2-.4-2.4-.6-3.5-.5-.2.4-.5.9-.8,1.3-.6,1.2-1.1,2.4-1.7,3.6,2.6,1.3,4.3,2.3,5.1,2.8.1.2.3.4.5.7.3.3.6.7.8,1-.1.2-.2.4-.2.7l.3.3c-.1,0-.3.3-.5.8-.2.2-.4.4-.7.7h-.2l-.3.3c-.4.1-.9.1-1.3,0l-.3.3c-1.9-1.5-3.9-2.9-6.1-4-.4.3-.9.5-1.3.7-.7.2-1.3.5-1.8,1l-.3-.2c-1.9,1-3,1.5-3.3,1.5-.7.2-1.3.4-1.8.7-.4.1-.8.3-1.2.5-1.1.1-2.3,0-3.5-.2.9-.7,1.9-1.3,3.1-1.8,2-.8,3.9-2.1,5.8-4-2.1-1-3.6-1.2-4.6-.5l-.3-.2c-.2-.3-.4-.7-.5-1-.2-.3-.4-.7-.5-1l.2-.3c.5-.2,1.1-.4,1.7-.7.5-1.1,1.2-2.1,1.8-3.1-1.7.1-3.1.5-4.5,1.2,0,.6,0,1.2-.2,1.8-.1.4-.2.9-.3,1.3-.6.6-1.2,1-1.8,1.5-1.4.1-2.5-.9-3.3-3.1-.2-.4-.4-.9-.7-1.3-.4,1-.8,1.9-1.2,2.6-1.3,3.4-3.6,6.1-6.9,8.1-.7.4-1.3.7-2,.7l-.5-.3.3-.2-.5-.5v-.8c.2-.4.5-.8,1-1.2l.2.3c.4-.7.9-1.3,1.3-1.8.4-.4.8-.9,1.2-1.5,2.4-4.1,4-8.2,4.8-12.4-.3.1-.6.2-.8.2-.6.4-1.2.9-1.8,1.3-.1.8-.4,1.4-.8,1.8-.2.2-.4.4-.5.7-.7.1-1.3.2-1.8.3-1-.5-1.9-1-2.8-1.3h.3c-.3-.2-.7-.4-1-.5h.7l-.5-.5.5-.3c-.2-.1-.4-.3-.5-.5,3.1-2.1,6.3-3.9,9.6-5.3.2-1.7.2-3.2-.2-4.8.2-.3.3-.7.3-1.2l.3-.2c-.3,0-1,.2-2,.5-1,.2-1.6.6-1.8,1l-.5.2h-.5l-.2.3h-.3c-.2.2-.4.4-.5.7h-.5c-.3.2-.6.5-.8.8-.2.3-.4.7-.7,1-.3-.1-.6-.2-.8-.3-.1-.3-.1-.8,0-1.5,0-.4,0-.9.2-1.3.2-1.3,1-4.1,2.3-8.4-.1-.4-.2-.8-.2-1.2.1-.2.3-.4.5-.5.8-.3,1.5-.4,2.3-.3.5.3,1,.7,1.5,1,.4.2.7.4.8.7.3.1.6.2.8.3.1.1.2.3.3.5.1.9-.1,1.8-.7,2.8,1.2-.1,2.3-.4,3.3-.8.5-.1,1-.2,1.5-.3,1.4-.4,2.5-.5,3.1-.2h.3c.3.2.7.5,1,.8l-.2.5c-.2.1-.3.4-.2.8-.4.2-.7.5-.7.8-1.1.9-2.2,1.3-3.3,1.3-.4.1-.9.2-1.3.2.6.6.8,1.3.8,2.3s0,1.3-.2,2v1.2c.8-.3,1.7-.5,2.8-.5s1.6,0,1.8.2c.1.2.3.4.5.7-.2.9-.6,1.8-1.2,2.6-.2.2-.5.4-.8.5-2,.2-3.1.5-3.5.8-.1,1-.3,2-.5,3.1.3.1.6.2.8.3,3.5-3.3,6.5-6.9,8.9-10.9-1.4.4-2.4.8-3,1.2-1.9.7-3.1,0-3.8-1.8.4-.4,1.2-.8,2.1-1.2,2.3-.8,4.7-1.5,7.1-2.1v-.5c-.3-.5-.7-1.2-1-1.8-.6.1-1.1.3-1.7.7-.2,0-.7.2-1.3.7-.3.1-.7.3-1.2.5l-.2-.3h-.5c1.7-1.7,3.2-3.2,4.8-4.8.5-.9,1.2-1.7,2-2.3.1-.4.3-.9.5-1.5l.5-.2c.4-.1.9-.1,1.3,0ZM191.9,163.2c-.6.3-1.3,1-2.1,2.1-1.2,1.8-2.5,3.2-4,4.3l-.3-.2c-1.2.9-2.4,1.8-3.6,2.6l.5.5c2-.7,4.7-1.2,8.1-1.7.2-.4.4-.8.5-1.2-.6-.7-.9-1.3-1-2,.4,0,.9-.2,1.3-.5.1,0,.3-.1.5-.3l-.2-.2c.1-1.2.2-2.4.3-3.6ZM193.1,174.3c-.1.1-.4.4-.8,1-.6.8-1,1.6-1.5,2.5,1.1.2,2.1.4,3.1.7.2-.5.5-1.1.8-1.7.3-.9.6-1.8.8-2.6-1.4,0-2.3,0-2.5.2Z"/>
          <path class="cls-24" d="M196.4,208.3c.4.1.8.3,1.2.5,1.9.4,3.1,1,3.6,1.8,0,.3.1.7.3,1-.2.4-.4.9-.5,1.3-.7.2-1.2.3-1.7.3s-.6,0-.8.2c-.7-.3-1.5-.5-2.6-.5-2,0-3.7.2-5.1.5.3.8.5,1.5.5,2.1s0,.4.2.7v1.8c0,1.1,0,2-.2,2.6.8-1.1,1.5-2.1,2.1-3v-.5l-.3-.3v-.8c.1-.1.2-.2.3-.3-.2-.3-.4-.6-.5-.8.3,0,.7,0,1,.2-.1-.3-.3-.6-.5-.8.4,0,.9,0,1.3.2h.5c.2-.1.7,0,1.3.3.9.4,1.5.8,2,1.2l.5.2v.7c.1.3.2.8.2,1.3-.1.2-.2.4-.2.7-1.1.7-2.1,1.3-3.1,1.8-.3,0-.6.1-.8.3-.3.1-.7.2-1,.2-.9.3-1.8.9-2.6,1.7h5.6c.6-.2,1.4-.3,2.5-.2.4.1.9.2,1.5.2,2.3.8,3.7,1.4,4.3,1.8.1.2.2.4.3.7.2.4.2.9,0,1.5-.1.2-.2.5-.2.8-.4.2-.8.5-1.2.8l-.3-.2c-1.3.8-3.2.6-5.8-.5-.4,0-.9,0-1.3-.2-.8-.2-2-.3-3.8-.3s-1.3,0-2-.2c-.8.2-1.5.3-2.3.3h-1c-5.7.4-10.9,1.2-15.4,2.3-1,.4-2,.3-3.1-.5-.3-.2-.7-.4-1-.7l-.2-.5h.5l.3-.7c1.2-.8,2.7-1.3,4.5-1.5,3-.3,5.4-.8,7.3-1.5-.1-2.2-.2-4.4-.2-6.6-.7-.7-1.3-1.3-1.8-1.8-.6,0-1.1,0-1.7.2-.9.1-1.4.4-1.7,1-1.3.2-2.6,0-4-.8l.3-.2-.3-.3.3-.2c-.1-.8.2-1.4,1-1.8,5.9-1.4,11.8-2.7,17.7-3.8.3-.1.6-.2.8-.3,1.1-.2,2.2-.4,3.3-.7.6,0,1.1-.1,1.7-.3l.2-.3ZM185,189.4c2.9-.8,5.5-1,7.8-.7.8.3,1.3.8,1.7,1.5.7,1,.4,1.7-.7,2.1-.3.1-.6.2-.8.3-1,0-1.9,0-2.6.2-2.2.3-3.2.5-3,.5.2.2.4.4.7.5,2.1-.3,4.9-.5,8.4-.5s2.5-.2,3.1-.5h.3c.4-.3,1-.3,1.7,0,.6.2,1.1.5,1.7.8,1.3.6,2,1.3,2.1,2.3.2,1.1-.2,1.9-1.2,2.3-.4,0-.8.1-1.2.3-.4,0-.9.1-1.3.3l-.2-.3c-.6,0-1,0-1.5.2l-.2-.3c-.4-.1-.9-.2-1.3-.3l-.2-.3h-1.5c-.2.2-.5.4-.8.5h-.5c-.8.9-1.8,1.4-3.1,1.7-1.3.1-2.6,0-3.8-.5v-.3c.2-.1.4-.2.5-.3l.2-.2c1.1-1,2.8-1.5,5.1-1.5s1.6-.4,2.1-1.3c-2.8-.4-5.5-.3-8.3.3-.1.4-.2,1.2-.2,2.3v1.8c0,.3,0,.7-.2,1,0,.4,0,.9-.2,1.3-.1.2-.2.5-.3.8-.4.9-1.1,1.4-2,1.7l-.3-.2-.5.2-.5.5c-.2.1-.4.2-.7.3-.2-.3-.4-.7-.5-1l-.5-.2v-1.2l-.3-.2v-.5h.5c-.1-2-.1-3.9,0-5.8-2.4.6-4.8,1.3-7.1,2.3l.2.3c-.2.3-.5.9-.8,1.7-.3.8-.7,1.5-1.2,2.1-.4.7-.9,1.2-1.5,1.5-.4.3-.7.6-.8.7l-.5-.3c-.3.2-.7.5-1,.8-.4-.1-.8,0-1.2.2-.2-.5-.4-1-.5-1.3l.2-.2c-.1-.7,0-1.4.2-2.1h.3c.7-1.2,1.1-2.4,1.3-3.5l-.2-.2c.1-.2.2-.4.3-.7l-.2-.5.3-.2v-.7h.3l-.2-.3c.5,0,1.1,0,1.7.2,1.1.1,2,0,2.6-.2,2.5-.8,4.9-1.5,7.1-2.1v-.5h-2.1c-.8,0-1.4-.2-1.8-.5-.2-.2-.4-.4-.7-.7-.6-.3-.9-.7-1.2-1,.2-.3.5-.6.8-.8,5-1.2,7.5-1.8,7.8-1.8ZM176.2,218.3c1.2.3,2.1,1.2,2.8,2.5-.1.3-.1.6,0,.8-.2.3-.4.7-.5,1-.1.2-.2.4-.2.7-.3.3-.6.7-.8,1-.9.4-1.7.2-2.3-.8-.3-.3-.6-.7-.8-1-.2-1-.8-1.8-1.8-2.3l.3-.2-.3-.5.5-.3v-.2c.8-.8,1.8-1,3.1-.7ZM177.2,202.5c.4-.2.8-.4,1.2-.5.4.1.8.2,1.2.2.7,0,1.1,0,1.3.2l-.2.5c.1.3.2.7.2,1.2l-.3-.2c-.2.3-.4.7-.5,1-2.5.7-4.4.6-5.6-.2l.2-.3c.7-1,1.5-1.6,2.6-1.8ZM178.1,207.9c5.1-1,10.1-2.1,15-3.5.7,0,1.4.2,2.3.5l-.3.3.2.5c-.1.4-.3.8-.5,1.2v.5c-5.2,1.7-10.4,2.8-15.5,3.5h-1.3c-.7-.3-1.6-.9-2.8-1.7l.5-.2-.3-.2h.2l.3-.5c.8-.3,1.5-.5,2.3-.5ZM180,199c1,0,1.8.2,2.3.5-.1.4-.2.8-.3,1.2-.3.2-.7.4-1,.5v.3c-1.5.2-3,.1-4.3-.3-.4-.2-.8-.4-1.2-.5,1.4-1.1,2.9-1.7,4.5-1.7ZM186.8,214c-.9.1-1.8.2-2.6.3.4.3.8.6,1.2.8.1.3.2.7.3,1.2l-.2.3.2.3-.2.3c.1.3.2.6.3.8v.7c-.3.4-.4.9-.3,1.5l-.3.2c0,1,0,2-.2,3.1.5,0,1.2,0,1.8-.2.1-2.5.2-5,.2-7.4-.2-.3-.4-.5-.7-.7.2-.4.4-.8.5-1h.7l-.7-.3ZM196.1,200.8c1.3,0,1.9.6,1.8,1.8-.3.2-.6.6-.8,1-.2.1-.8.2-1.8.2-2.5-.1-4.2-.3-5-.7-.6-.2-.9-.5-1-.8h.3l.2-.5c1.7-.7,3.7-1,6.3-1Z"/>
        </g>
      </g>
      <g>
        <rect class="cls-9" x="328.8" y="80.6" width="476.3" height="859.2"/>
        <rect class="cls-18" x="342.1" y="94" width="449.7" height="832.6"/>
        <circle class="cls-6" cx="566.9" cy="375.7" r="166.5"/>
      </g>
      <g>
        <ellipse class="cls-19" cx="566.9" cy="332.9" rx="51.2" ry="48.8"/>
        <g>
          <path class="cls-12" d="M541.6,404.1c-4.7,7.3-22.1,10.9-27.5,14.6s-7,45.6-7,45.6c0,13.8.3,36.9,3.5,54.9,3.5,19.4-1.1,41.6,5.7,59.8,6.2,16.7,28,43.8,50.4,43.8,22.3,0,44.2-27.1,50.4-43.8,6.8-18.2,2.2-40.4,5.7-59.8,3.3-18,3.5-41.1,3.5-54.9,0,0-1.6-41.9-7-45.6s-22.8-7.3-27.5-14.6"/>
          <g>
            <g>
              <path class="cls-22" d="M582.8,813.9c-1.7,0-3.3-.7-4.4-1.9-1.2-1.3-1.9-3.1-1.9-5,0-2.1.7-3.9,1.2-5.3.2-.6.5-1.3.4-1.6,0-.2-.1-.7-.3-1.3-.5-2.1-1.4-5.9-1.3-9.7,0-3.1.9-5.8,1.7-8.5.5-1.6,1-3.3,1.3-5,.3-1.7.2-2.8,0-4.2-.2-2-.5-4.2.8-8.4,2-6.5,1-21.5-1.6-25.8-2.9-4.8-4.7-18.4-2.5-26.4,1.2-4.5.6-8.3,0-11.9-.4-2.4-.7-4.6-.5-6.8.1-1.2-.9-4.9-2.2-9.5-3.9-13.9-11.1-39.9-6.1-64.3,6.8-33,49-40.4,49.4-40.5l1.1-.2v1.1c.2,3.9,1,8.3,2,13.3,1.4,7.3,3.2,16.3,3.7,28.3.6,16.3-4.8,40.3-7.3,51.8-.7,2.9-1.1,5-1.3,6.1-.3,1.8-.3,3.6-.2,5.5,0,3.3.1,7.1-1.7,12.1-1.3,3.8-1,8.1-.5,13.6.4,5.1.9,10.9.1,18-1.1,10.1-2.6,16.5-3.6,20.8-.5,2-.8,3.4-.9,4.4-.2,1.7.3,3.2.8,4.7.4,1.3.9,2.7.8,4,0,1.4-.4,2.3-.8,3.1-.4.9-.8,1.8-.9,3.9,0,2,1.7,7,3.3,11.3,1.4,4,2.8,7.8,3.1,10.1.6,4.1-.3,6.4-.8,7.2.2,1.2.5,4.5-.9,6.3-.5.7-1.3,1.1-2.2,1.1-.5,1.2-1.6,3.4-3.9,3.6-.1,0-.3,0-.4,0-1.1,0-1.9-.3-2.5-.6-.7,1-1.9,2.5-3.8,2.6-.2,0-.3,0-.5,0-1.1,0-1.9-.4-2.4-.8-1,1.3-2.8,3.1-4.9,3.1s-.2,0-.2,0c-1.5,0-2.5-1-3.2-2-.8,1.2-2.2,2.4-4.5,2.9-.5.1-1.1.2-1.6.2Z"/>
              <path class="cls-24" d="M617,579c.3,9.7,4.9,21.3,5.7,41.6s-7.8,52.4-8.6,57.7c-.8,5.3.8,9.9-1.8,17.5-2.7,7.6,1.1,17.2-.5,31.9-1.5,14.7-4.2,21.8-4.5,25.2-.4,3.4,1.7,6.1,1.6,8.9,0,2.7-1.6,2.9-1.7,7,0,4.1,5.7,16.7,6.4,21.6.7,4.9-.8,6.9-.8,6.9,0,0,1.3,6.6-2.4,6.6s-.3,0-.4,0c0,0-.8,3.5-3.3,3.6-.1,0-.2,0-.4,0-2.1,0-2.8-1.1-2.8-1.1,0,0-1.2,2.9-3.6,3.2-.1,0-.3,0-.4,0-2,0-2.4-1.6-2.4-1.6,0,0-2.3,3.8-4.9,3.8s-.1,0-.2,0c-2.7-.2-3.3-3.9-3.3-3.9,0,0,0,3.9-4.6,4.9-.5.1-.9.2-1.4.2-3.3,0-5.4-2.9-5.3-5.8.1-3.3,1.7-6,1.6-7-.1-1-1.7-6-1.6-10.8.1-4.8,2.1-8.8,2.9-13.3.8-4.5-1.3-5.7.8-12.5,2.1-6.8,1-22.1-1.7-26.6-2.8-4.5-4.5-17.9-2.4-25.6,2.1-7.7-.9-13.6-.4-18.9.5-5.3-15-40.9-8.3-73.6,6.7-32.7,48.6-39.7,48.6-39.7M618.9,576.7l-2.3.4c-.4,0-10.9,1.9-22.4,7.8-15.4,7.9-25,19.5-27.9,33.5-5,24.6,2.2,50.7,6.1,64.7,1.1,4,2.2,8.1,2.1,9.1-.2,2.3.1,4.6.5,7.1.5,3.6,1.1,7.3,0,11.5-2.2,8.2-.4,22.2,2.6,27.1,2.3,3.8,3.6,18.4,1.5,25-1.4,4.4-1.1,6.8-.8,8.9.1,1.2.3,2.3,0,3.9-.3,1.6-.8,3.2-1.3,4.9-.8,2.7-1.6,5.5-1.7,8.7,0,3.9.9,7.8,1.4,10,0,.4.2.8.2,1,0,.2-.2.8-.4,1.2-.5,1.4-1.2,3.3-1.2,5.6,0,2.1.7,4.2,2.1,5.7,1.3,1.4,3.2,2.2,5.2,2.2s1.2,0,1.8-.2c2-.4,3.3-1.3,4.3-2.3.8.8,1.8,1.3,3.1,1.4,0,0,.2,0,.3,0,2.1,0,3.9-1.4,5.1-2.7.6.3,1.3.5,2.2.5s.4,0,.6,0c1.9-.2,3.2-1.3,4.1-2.4.6.2,1.3.3,2.1.3s.3,0,.5,0c2.4-.1,3.8-2,4.6-3.7.9-.2,1.6-.7,2.2-1.4,1.6-1.9,1.4-5.2,1.2-6.8.6-1.2,1.3-3.6.7-7.5-.3-2.4-1.7-6.3-3.2-10.3-1.4-4-3.3-9.1-3.2-10.9,0-1.8.4-2.6.8-3.5.4-.9.9-1.8.9-3.5,0-1.6-.4-3-.9-4.4-.5-1.5-.9-2.9-.8-4.3.1-1,.5-2.4.9-4.3,1-4.3,2.6-10.8,3.6-21,.8-7.2.3-13-.1-18.2-.4-5.4-.8-9.6.5-13.2,1.8-5.2,1.8-9,1.7-12.5,0-1.8,0-3.6.2-5.3.2-1,.7-3.2,1.3-6,2.6-11.6,8-35.6,7.4-52.1-.5-12.1-2.3-21.1-3.7-28.4-1-5-1.9-9.3-2-13.2v-2.3h0Z"/>
            </g>
            <path class="cls-24" d="M602.8,695.4s0,.4-.2,1c-.2.6-.5,1.3-.9,2-.4.7-.8,1.3-1.2,1.8-.3.5-.6.8-.6.8,0,0-.1-.4,0-1.1.1-.6.4-1.4.8-2.1.4-.7.9-1.3,1.3-1.8.4-.5.7-.7.7-.7Z"/>
            <path class="cls-24" d="M588.3,807.8s0-.5.2-1.3c.1-.8.3-1.8.3-2.8s0-1-.1-1.5c0-.5-.3-.9-.5-1.2-.2-.3-.4-.6-.5-.8-.2-.2-.2-.3-.2-.3,0,0,0,0,.3.2.2.2.4.4.6.7.2.3.5.7.6,1.2.2.5.3,1,.3,1.6.1,1.1,0,2.1,0,2.9,0,.8,0,1.3,0,1.3,0,.3-.3.5-.5.5s-.5-.3-.5-.5c0,0,0,0,0,0Z"/>
            <path class="cls-24" d="M596.7,807.9s0-.1,0-.3c0-.2,0-.5.2-.9.2-.7.4-1.6.5-2.6.2-.9.3-1.9.2-2.6,0-.4,0-.6-.2-.8,0-.2-.1-.3-.1-.3,0,0,0,.1.2.3,0,.2.2.5.3.8.1.7.2,1.7.1,2.7,0,1-.1,1.9-.2,2.7,0,.3,0,.6,0,.8,0,.2,0,.3,0,.3,0,.3-.2.5-.5.5-.3,0-.5-.2-.5-.5,0,0,0,0,0,0Z"/>
            <path class="cls-24" d="M603.1,806.1s0,0,.1-.3c0-.2.2-.3.2-.6.2-.6.3-1.4.4-2.2,0-.8,0-1.7-.2-2.3,0-.3-.2-.5-.3-.7-.1-.1-.2-.2-.2-.2,0,0,0,0,.2.2.1.1.3.4.4.7.3.6.5,1.4.5,2.3,0,.9,0,1.7,0,2.4,0,.3-.1.6-.2.8,0,.2,0,.3,0,.3,0,.3-.4.4-.6.3s-.4-.4-.3-.6c0,0,0,0,0,0Z"/>
            <path class="cls-24" d="M609.5,803.7s0,0,0-.3c0-.2.1-.3.2-.6.1-.5.2-1.3.2-2.1,0-.8-.1-1.5-.3-2,0-.3-.2-.5-.4-.6-.1-.1-.2-.2-.2-.2,0,0,0,0,.2.1.1.1.3.3.5.5.3.5.6,1.3.7,2.1.2.8.2,1.6.2,2.2,0,.3,0,.6,0,.8,0,.2,0,.3,0,.3,0,.3-.3.5-.6.4-.3,0-.5-.3-.4-.6,0,0,0,0,0,0Z"/>
            <path class="cls-24" d="M585.5,697.4s.4,0,.8.1c.2,0,.5.2.8.4.3.2.5.4.7.7.2.3.4.6.5.8.1.3.2.6.2.8,0,.5,0,.8,0,.8,0,0-.2-.3-.5-.6-.3-.3-.6-.8-.9-1.3-.3-.4-.7-.9-1-1.2-.3-.4-.5-.6-.5-.6Z"/>
            <path class="cls-24" d="M585.6,807.8c-.8.2-1.4-.4-2.2.1s-.8,1.2-2,1.2-1.6-3.2,1.6-4.4c2-.7,4.1,2.8,2.6,3.1Z"/>
            <path class="cls-24" d="M594.9,807.3c-.7.4-1.1-.1-2,.4-.9.5-.8,1.2-2,1.2-.8,0-1.4-3.4,1.6-4,1.5-.3,2.8,2.1,2.3,2.4Z"/>
            <path class="cls-24" d="M602.2,805.3c-.5.2-.8,0-1.4.2s-.6.7-1.4.7-1-1.9,1.2-2.2c1.1-.2,2,1.2,1.7,1.3Z"/>
            <path class="cls-24" d="M608,803.6c-.5.2-.7,0-1.3.3s-.5.7-1.3.7-.9-1.9,1-2.3c1-.2,1.8,1.2,1.5,1.3Z"/>
          </g>
          <g>
            <path class="cls-22" d="M540.1,416.7c1.1-3.1,3-16.1,1.7-22.7l24.9-2,24.9,2c-1.3,6.5.6,19.5,1.7,22.7"/>
            <path class="cls-24" d="M540.1,416.7c.3-.9.4-1.9.5-2.8.1-.9.3-1.9.4-2.8.2-1.9.4-3.8.5-5.7,0-1.9.2-3.8.1-5.7,0-.9,0-1.9-.1-2.8l-.2-1.4c0-.5-.2-.9-.2-1.4v-.8c-.1,0,.7,0,.7,0,4.1-.4,8.3-.8,12.4-1.2l12.4-1.1h0s0,0,0,0l12.4,1c4.1.4,8.3.7,12.4,1.2h.8c0,0-.1.9-.1.9,0,.5-.2.9-.2,1.4l-.2,1.4c0,.9-.1,1.9-.1,2.8,0,1.9,0,3.8.1,5.7,0,1.9.2,3.8.5,5.7.1.9.2,1.9.4,2.8.1.9.3,1.9.5,2.8-.7-1.8-1.1-3.7-1.4-5.6-.4-1.9-.7-3.8-.9-5.7-.1-1-.2-1.9-.3-2.9,0-1-.1-1.9-.2-2.9,0-1,0-1.9,0-2.9v-1.5c.2-.5.2-1,.3-1.5l.7.9c-4.2-.2-8.3-.5-12.4-.8l-12.4-.9h.2l-12.4.9c-4.1.3-8.3.6-12.4.8l.7-.9c0,.5.1,1,.2,1.5v1.5c.1,1,.1,1.9.1,2.9,0,1,0,1.9-.2,2.9,0,1-.2,1.9-.3,2.9-.2,1.9-.5,3.8-.9,5.7-.4,1.9-.8,3.8-1.4,5.6Z"/>
          </g>
          <g>
            <g>
              <path class="cls-22" d="M550.5,813.9c-.5,0-1.1,0-1.6-.2-2.3-.5-3.7-1.7-4.5-2.9-.6,1-1.6,1.9-3.2,2,0,0-.2,0-.2,0-2.1,0-3.9-1.8-4.9-3.1-.5.5-1.3.8-2.4.8s-.3,0-.5,0c-1.9-.2-3.1-1.6-3.8-2.6-.6.3-1.4.6-2.5.6s-.3,0-.4,0c-2.3-.1-3.5-2.3-3.9-3.6-.9,0-1.6-.5-2.2-1.1-1.5-1.8-1.1-5.1-.9-6.3-.5-.9-1.4-3.2-.8-7.2.3-2.3,1.7-6.1,3.1-10.1,1.6-4.3,3.3-9.2,3.3-11.3,0-2.1-.4-3-.9-3.9-.4-.8-.8-1.7-.8-3.1,0-1.4.4-2.7.8-4,.5-1.5,1-3.1.8-4.7-.1-1-.5-2.4-.9-4.4-1-4.3-2.6-10.8-3.6-20.8-.7-7.1-.3-12.9.1-18,.4-5.5.8-9.9-.5-13.6-1.8-5-1.7-8.8-1.7-12.1,0-1.9,0-3.7-.2-5.5-.2-1-.6-3.2-1.3-6.1-2.6-11.5-8-35.5-7.3-51.8.5-12,2.3-21,3.7-28.3,1-5,1.9-9.4,2-13.3v-1.1s1.2.2,1.2.2c.4,0,42.7,7.5,49.4,40.5,5,24.4-2.2,50.3-6.1,64.3-1.3,4.6-2.3,8.3-2.2,9.5.2,2.2-.1,4.4-.5,6.8-.6,3.7-1.1,7.5,0,11.9,2.2,8,.4,21.6-2.5,26.4-2.7,4.4-3.6,19.3-1.6,25.8,1.3,4.2,1,6.5.8,8.4-.2,1.3-.3,2.5,0,4.2.3,1.7.8,3.4,1.3,5,.8,2.6,1.6,5.4,1.7,8.5,0,3.8-.8,7.6-1.3,9.7-.1.6-.3,1.1-.3,1.3,0,.2.2,1,.4,1.5.5,1.3,1.1,3.2,1.2,5.3,0,1.9-.6,3.7-1.9,5-1.2,1.2-2.7,1.9-4.4,1.9h0Z"/>
              <path class="cls-24" d="M516.3,579s41.9,7,48.6,39.7c6.7,32.7-8.8,68.4-8.3,73.6.5,5.3-2.5,11.3-.4,18.9,2.1,7.7.4,21.1-2.4,25.6-2.8,4.5-3.8,19.9-1.7,26.6,2.1,6.8,0,8,.8,12.5s2.8,8.5,2.9,13.3c.1,4.8-1.5,9.8-1.6,10.8-.1,1,1.5,3.7,1.6,7,.1,2.9-1.9,5.8-5.3,5.8s-.9,0-1.4-.2c-4.7-1-4.6-4.9-4.6-4.9,0,0-.6,3.8-3.3,3.9,0,0-.1,0-.2,0-2.7,0-4.9-3.8-4.9-3.8,0,0-.4,1.6-2.4,1.6s-.3,0-.4,0c-2.3-.2-3.6-3.2-3.6-3.2,0,0-.7,1.1-2.8,1.1s-.2,0-.4,0c-2.4-.1-3.3-3.6-3.3-3.6-.1,0-.3,0-.4,0-3.6,0-2.4-6.6-2.4-6.6,0,0-1.5-2-.8-6.9s6.5-17.5,6.4-21.6c0-4.1-1.6-4.3-1.7-7,0-2.7,2-5.5,1.6-8.9-.4-3.4-3-10.6-4.5-25.2-1.5-14.7,2.2-24.3-.5-31.9-2.7-7.6-1-12.2-1.8-17.5-.8-5.3-9.4-37.4-8.6-57.7s5.4-31.9,5.7-41.6M514.4,576.7v2.3c-.2,3.9-1.1,8.2-2.1,13.2-1.5,7.3-3.3,16.4-3.7,28.4-.6,16.5,4.8,40.5,7.4,52.1.6,2.8,1.1,5,1.3,6,.3,1.8.3,3.5.2,5.3,0,3.4-.1,7.3,1.7,12.5,1.3,3.6.9,7.8.5,13.2-.4,5.2-.9,11-.1,18.2,1.1,10.1,2.6,16.6,3.6,21,.4,1.9.8,3.3.9,4.3.2,1.5-.3,2.8-.8,4.3-.4,1.4-.9,2.8-.9,4.4,0,1.6.5,2.6.9,3.5.4.9.8,1.6.8,3.5,0,1.9-1.8,6.9-3.2,10.9-1.5,4.1-2.8,7.9-3.2,10.3-.6,3.9.2,6.4.7,7.5-.2,1.6-.4,4.8,1.2,6.8.6.7,1.4,1.2,2.2,1.4.8,1.7,2.2,3.5,4.6,3.7.2,0,.3,0,.5,0,.9,0,1.6-.1,2.1-.3.9,1.1,2.2,2.2,4.1,2.4.2,0,.4,0,.6,0,.9,0,1.6-.2,2.2-.5,1.2,1.3,3,2.7,5.1,2.7s.2,0,.3,0c1.3,0,2.3-.6,3.1-1.4,1,1,2.3,1.9,4.3,2.3.6.1,1.2.2,1.8.2,2,0,3.8-.8,5.2-2.2,1.4-1.5,2.2-3.6,2.1-5.7,0-2.3-.7-4.2-1.2-5.6-.1-.4-.3-1-.4-1.2,0-.2.1-.7.2-1,.5-2.1,1.5-6,1.4-10,0-3.2-.9-6-1.7-8.7-.5-1.7-1-3.2-1.3-4.9-.3-1.5-.1-2.6,0-3.9.2-2.1.5-4.4-.8-8.9-2-6.6-.8-21.2,1.5-25,3-4.9,4.8-19,2.6-27.1-1.2-4.3-.6-7.9,0-11.5.4-2.5.7-4.8.5-7.1-.1-1,1-5.1,2.1-9.1,3.9-14,11.1-40.1,6.1-64.7-2.9-14-12.5-25.6-27.9-33.5-11.5-5.9-21.9-7.7-22.4-7.8l-2.3-.4h0Z"/>
            </g>
            <path class="cls-24" d="M530.5,695.4s.3.3.7.7c.4.5.9,1.1,1.3,1.8.4.7.7,1.5.8,2.1.1.6,0,1.1,0,1.1,0,0-.2-.4-.6-.8-.3-.5-.8-1.1-1.2-1.8-.4-.7-.7-1.4-.9-2-.2-.6-.2-1-.2-1Z"/>
            <path class="cls-24" d="M544,807.9s0-.5,0-1.3c0-.8,0-1.9,0-2.9,0-.5.2-1.1.3-1.6.2-.5.4-.9.6-1.2.2-.3.5-.6.6-.7.2-.2.3-.2.3-.2,0,0,0,0-.2.3-.2.2-.4.4-.5.8-.2.3-.4.8-.5,1.2,0,.5-.1,1-.1,1.5,0,1,.2,2.1.3,2.8.1.8.2,1.3.2,1.3,0,.3-.1.5-.4.6s-.5-.1-.6-.4c0,0,0,0,0,0Z"/>
            <path class="cls-24" d="M535.6,808s0-.1,0-.3c0-.2,0-.5,0-.8,0-.7-.2-1.7-.2-2.7,0-1,0-2,.1-2.7,0-.4.2-.6.3-.8.1-.2.2-.3.2-.3,0,0,0,.1-.1.3,0,.2-.1.5-.2.8,0,.7,0,1.7.2,2.6.2.9.4,1.9.5,2.6,0,.4.1.7.2.9,0,.2,0,.3,0,.3,0,.3-.1.5-.4.6-.3,0-.5-.1-.6-.4,0,0,0,0,0,0Z"/>
            <path class="cls-24" d="M529.3,806.5s0-.1,0-.3c0-.2-.1-.5-.2-.8-.1-.7-.1-1.5,0-2.4,0-.9.3-1.7.5-2.3.1-.3.3-.5.4-.7.1-.1.2-.2.2-.2,0,0,0,0-.2.2-.1.2-.2.4-.3.7-.2.6-.2,1.4-.2,2.3,0,.8.2,1.6.4,2.2,0,.3.2.5.2.6,0,.2.1.3.1.3.1.2,0,.5-.2.7s-.5,0-.7-.2c0,0,0,0,0,0Z"/>
            <path class="cls-24" d="M522.8,803.9s0,0,0-.3c0-.2,0-.5,0-.8,0-.6,0-1.4.2-2.2.1-.8.4-1.5.7-2.1.1-.3.3-.4.5-.5.1,0,.2-.1.2-.1,0,0,0,0-.2.2-.1.1-.3.3-.4.6-.2.5-.3,1.3-.3,2,0,.8,0,1.5.2,2.1,0,.3.1.5.2.6,0,.2,0,.3,0,.3,0,.3,0,.5-.3.6-.3,0-.5,0-.6-.3,0,0,0,0,0,0Z"/>
            <path class="cls-24" d="M547.8,697.4s-.2.2-.5.6c-.3.3-.6.8-1,1.2-.3.5-.7.9-.9,1.3-.3.4-.5.6-.5.6,0,0,0-.3,0-.8,0-.2,0-.5.2-.8.1-.3.3-.6.5-.8.2-.3.4-.5.7-.7.2-.2.5-.3.8-.4.5-.2.8-.1.8-.1Z"/>
            <path class="cls-24" d="M547.7,807.8c.8.2,1.4-.4,2.2.1s.8,1.2,2,1.2,1.6-3.2-1.6-4.4c-2-.7-4.1,2.8-2.6,3.1Z"/>
            <path class="cls-24" d="M538.4,807.3c.7.4,1.1-.1,2,.4s.8,1.2,2,1.2,1.4-3.4-1.6-4c-1.5-.3-2.8,2.1-2.3,2.4Z"/>
            <path class="cls-24" d="M531.1,805.3c.5.2.8,0,1.4.2s.6.7,1.4.7,1-1.9-1.2-2.2-2,1.2-1.7,1.3Z"/>
            <path class="cls-24" d="M525.3,803.6c.5.2.7,0,1.3.3s.5.7,1.3.7.9-1.9-1-2.3c-1-.2-1.8,1.2-1.5,1.3Z"/>
          </g>
        </g>
        <g>
          <path class="cls-4" d="M642.9,619.6s-2.7-3.3-6.2-1c-3.5,2.3,3.4,5.9,3.4,5.9l2.8-4.9Z"/>
          <path class="cls-10" d="M618.1,475.1c2.3,20.6,9.9,49.8,9.9,49.8,0,0-1.1,17,1.1,27.4,2.2,10.4,6.6,18.3,7.5,24,.7,4.6-.4,7,0,8.9,0,0,0,0,0,0-1.8,1.9-2.2,10.3-2.4,13.6-.2,3.3-1.8,8.2-3.1,10-1.2,1.8-.2,3.8,1.2,3.8s4.9-1.3,5.4-4.7c.5-3.5,2.2-3.8,1.6-6.3,0,0,2.4,3.5,3.5,4,1.1.5-.5,4-.6,7-.1,3,1,5.5,1,6.3,0,.7-3.9,4.6-4.1,7.1-.2,2.6,0,3.3,1.7,3.3s3.1-1.6,3.1-1.6c0,0,1.9-.2,3.3-1.2,0,0,1.6,2,4,.9,2.5-1.1,2.8-2.8,2.8-2.8,0,0,1.6,2.1,3.5-.4,1.9-2.6,2.8-4,2.9-6.1.2-2.1-1-6.3-.7-7.8.4-2.2-.5-5.2-.2-7.2.3-1.9-.8-10.8-2-13.3.6-1.4,1-4.3,0-7.3-.9-2.9-.3-14.2.5-24.5.8-10.2-2.7-23.4-4-27-1.4-3.7-1.5-5.7-1.5-33.2,0-27.7-4.9-32.9-9.7-50.3-4.9-17.4-17.4-26.8-23.5-28.7"/>
          <path class="cls-24" d="M643.4,627.2s.2-.2.6-.6c.3-.4.8-.9,1.4-1.7.5-.7,1.1-1.6,1.7-2.6.3-.5.6-1,.9-1.5.3-.5.6-1.1.8-1.6.4-1.1.6-2.3.7-3.4.2-1.1.3-2.2.6-3.1.2-.9.5-1.6.8-2.1.1-.2.3-.4.3-.5,0-.1.1-.2.1-.2,0,0,0,0-.1.2,0,.1-.2.3-.3.5-.3.5-.5,1.2-.7,2.1-.2.9-.3,1.9-.4,3.1-.1,1.1-.2,2.4-.6,3.6-.2.6-.5,1.1-.7,1.7-.3.5-.5,1.1-.8,1.6-.5,1-1.1,1.9-1.6,2.7-.5.8-1,1.4-1.4,1.8-.4.4-.6.6-.6.6h0c-.2.2-.5.2-.7,0-.2-.2-.2-.5,0-.7,0,0,0,0,0,0Z"/>
          <path class="cls-24" d="M646.8,626.1s.2-.2.5-.4c.3-.3.8-.7,1.3-1.3,1.1-1.1,2.5-2.5,3.8-4.1.3-.4.6-.8.9-1.2.2-.4.3-.9.4-1.4.1-.9.1-1.8.1-2.6,0-.8,0-1.4.2-1.9,0-.2,0-.4.1-.5,0-.1,0-.2,0-.2,0,0,0,0,0,.2,0,.1,0,.3,0,.5,0,.4,0,1.1,0,1.9,0,.8,0,1.7,0,2.6,0,.5-.1,1-.3,1.5-.2.5-.5.9-.8,1.3-1.2,1.7-2.6,3.2-3.6,4.4-.5.6-1,1-1.3,1.4-.3.3-.5.5-.5.5h0c-.2.2-.5.2-.7,0-.2-.2-.2-.5,0-.7,0,0,0,0,0,0Z"/>
          <path class="cls-24" d="M656.9,611.8s0,.8,0,2.1c0,.6.1,1.4.2,2.2,0,.8.2,1.6.2,2.5,0,.2,0,.4,0,.7,0,.1,0,.2,0,.3,0,.1,0,.2,0,.3-.2.4-.4.8-.6,1.2-.4.7-.8,1.3-1.1,1.9-.7,1.1-.9,1.8-.9,1.8,0,.3-.4.4-.6.3-.3,0-.4-.4-.3-.6,0,0,0,0,0,0h0s.4-.9,1.1-1.9c.4-.5.8-1.1,1.3-1.8.2-.3.4-.7.6-1,0,0,0-.2.1-.3,0,0,0-.2,0-.3,0-.2,0-.4,0-.6,0-.8,0-1.7,0-2.5,0-.8,0-1.5,0-2.2,0-1.3.1-2.1.1-2.1Z"/>
          <path class="cls-24" d="M640.4,514.4s.1.7,0,1.7c0,.5-.1,1.1-.2,1.7-.1.6-.3,1.3-.5,1.9-.3.6-.5,1.3-.9,1.8-.2.3-.3.5-.5.8-.2.2-.3.5-.5.6-.3.4-.7.7-.9.8-.2.2-.4.3-.4.3,0,0,0-.1.2-.4.2-.2.3-.6.6-1,.1-.2.2-.5.3-.7.1-.2.2-.5.4-.8.1-.3.2-.6.4-.9.1-.3.2-.6.3-.9.5-1.2.8-2.4,1.1-3.4.3-.9.5-1.6.5-1.6Z"/>
        </g>
        <g>
          <path class="cls-4" d="M491,619.6s2.7-3.3,6.2-1c3.5,2.3-3.4,5.9-3.4,5.9l-2.8-4.9Z"/>
          <path class="cls-10" d="M515.8,475.1c-2.3,20.6-9.9,49.8-9.9,49.8,0,0,1.1,17-1.1,27.4-2.2,10.4-6.6,18.3-7.5,24-.7,4.6.4,7,0,8.9,0,0,0,0,0,0,1.8,1.9,2.2,10.3,2.4,13.6.2,3.3,1.8,8.2,3.1,10,1.2,1.8.2,3.8-1.2,3.8s-4.9-1.3-5.4-4.7c-.5-3.5-2.2-3.8-1.6-6.3,0,0-2.4,3.5-3.5,4-1.1.5.5,4,.6,7,.1,3-1,5.5-1,6.3,0,.7,3.9,4.6,4.1,7.1.2,2.6,0,3.3-1.7,3.3-1.7,0-3.1-1.6-3.1-1.6,0,0-1.9-.2-3.3-1.2,0,0-1.6,2-4,.9-2.5-1.1-2.8-2.8-2.8-2.8,0,0-1.6,2.1-3.5-.4-1.9-2.6-2.8-4-2.9-6.1s1-6.3.7-7.8c-.4-2.2.5-5.2.2-7.2-.3-1.9.8-10.8,2-13.3-.6-1.4-1-4.3,0-7.3s.3-14.2-.5-24.5c-.8-10.2,2.7-23.4,4-27,1.4-3.7,1.5-5.7,1.5-33.2,0-27.7,4.9-32.9,9.7-50.3,4.9-17.4,17.4-26.8,23.5-28.7"/>
          <path class="cls-24" d="M489.7,627.9s-.2-.2-.6-.6c-.4-.4-.8-1-1.4-1.8-.5-.8-1.1-1.7-1.6-2.7-.3-.5-.5-1-.8-1.6-.3-.6-.5-1.1-.7-1.7-.4-1.2-.5-2.4-.6-3.6-.1-1.1-.2-2.2-.4-3.1-.2-.9-.4-1.6-.7-2.1-.1-.2-.2-.4-.3-.5,0-.1-.1-.2-.1-.2,0,0,0,0,.1.2,0,.1.2.3.3.5.3.5.6,1.2.8,2.1.2.9.4,2,.6,3.1.2,1.1.3,2.3.7,3.4.2.5.5,1.1.8,1.6.3.5.6,1,.9,1.5.6,1,1.2,1.8,1.7,2.6.5.7,1,1.3,1.4,1.7.3.4.6.6.6.6.2.2.2.5,0,.7-.2.2-.5.2-.7,0,0,0,0,0,0,0h0Z"/>
          <path class="cls-24" d="M486.4,626.8s-.2-.2-.5-.5c-.3-.3-.8-.8-1.3-1.4-1-1.2-2.4-2.7-3.6-4.4-.3-.4-.6-.9-.8-1.3-.2-.5-.3-1-.3-1.5,0-1,0-1.9,0-2.6,0-.8,0-1.4,0-1.9,0-.2,0-.4,0-.5,0-.1,0-.2,0-.2,0,0,0,0,0,.2,0,.1,0,.3.1.5,0,.4.1,1.1.2,1.9,0,.8,0,1.7.1,2.6,0,.5.2.9.4,1.4.2.4.5.8.9,1.2,1.3,1.6,2.7,3,3.8,4.1.5.5,1,1,1.3,1.3.3.3.5.4.5.4.2.2.3.5,0,.7-.2.2-.5.3-.7,0,0,0,0,0,0,0h0Z"/>
          <path class="cls-24" d="M476.9,611.8s.1.8.1,2.1c0,.6,0,1.4,0,2.2,0,.8,0,1.6,0,2.5,0,.2,0,.4,0,.6,0,0,0,.2,0,.3,0,0,0,.2.1.3.2.3.4.7.6,1,.4.6.9,1.2,1.3,1.8.8,1,1.1,1.9,1.1,1.9h0c.1.3,0,.6-.3.7s-.5,0-.7-.3c0,0,0,0,0,0,0,0-.2-.7-.9-1.8-.3-.5-.7-1.2-1.1-1.9-.2-.4-.4-.7-.6-1.2,0-.1,0-.2,0-.3,0-.1,0-.2,0-.3,0-.2,0-.4,0-.7,0-.9,0-1.7.2-2.5,0-.8.1-1.5.2-2.2,0-1.3,0-2.1,0-2.1Z"/>
          <path class="cls-24" d="M493.4,514.4s.2.6.5,1.6c.3.9.7,2.2,1.1,3.4.1.3.2.6.3.9.1.3.2.6.4.9.1.3.2.5.4.8.1.2.2.5.3.7.2.4.4.8.6,1,.1.3.2.4.2.4,0,0-.1,0-.4-.3-.2-.2-.6-.5-.9-.8-.2-.2-.3-.4-.5-.6-.2-.2-.3-.5-.5-.8-.3-.5-.6-1.2-.9-1.8-.2-.6-.4-1.3-.5-1.9-.1-.6-.2-1.2-.2-1.7,0-1,0-1.7,0-1.7Z"/>
        </g>
        <g>
          <g>
            <path class="cls-14" d="M605.1,360.6s.9-4.2,3.9-4.2,3.9,3,3.2,6.1c-.6,3,.8,5.4-.5,9.3-1.3,3.8-2.6,3.9-3.8,6.5-1.2,2.6-2.2,7.4-5.6,7.4s-4.4-4.2-4.4-5.8,3.5-19.3,7.1-19.3Z"/>
            <path class="cls-11" d="M610.5,361c-1.9,0-3.1,2.6-3.1,4.2s.7,2.5.7,4.2-.3,2.2-1.1,3.8c-.9,1.7-1.3,3.7-.9,4.3"/>
            <path class="cls-13" d="M607.7,367.2s1.8.7,2.6-.3"/>
          </g>
          <g>
            <path class="cls-14" d="M528.8,360.6s-.9-4.2-3.9-4.2-3.9,3-3.2,6.1c.6,3-.8,5.4.5,9.3,1.3,3.8,2.6,3.9,3.8,6.5,1.2,2.6,2.2,7.4,5.6,7.4s4.4-4.2,4.4-5.8-3.5-19.3-7.1-19.3Z"/>
            <path class="cls-11" d="M523.4,361c1.9,0,3.1,2.6,3.1,4.2s-.7,2.5-.7,4.2.3,2.2,1.1,3.8c.9,1.7,1.3,3.7.9,4.3"/>
            <path class="cls-13" d="M526.2,367.2s-1.8.7-2.6-.3"/>
          </g>
          <path class="cls-21" d="M606.1,328.6c-6.8-6.3-13.2-21.8-39.2-21.8s-31.7,15.5-38.5,21.8c0,0-.6,17.6.8,25.3,1.3,7.7,1.6,15.4,3,23.8,1.2,7.4,5.7,13.1,9.2,18.1,4.1,5.8,15.6,12.4,25.6,12.4s21.5-6.6,25.6-12.4c3.5-4.9,7.9-10.7,9.2-18.1,1.4-8.4,1.7-16.1,3-23.8,1.3-7.7,1.4-25.3,1.4-25.3Z"/>
          <path class="cls-24" d="M577.8,362.2s4.6,1.9,6.7,1.9,8.7-3.8,8.7-3.8c0,0-6.6-3.8-8.7-3.8s-6.7,5.8-6.7,5.8Z"/>
          <path class="cls-24" d="M556.2,362.2s-4.7,1.9-6.9,1.9c-2.2,0-8.9-3.9-8.9-3.9,0,0,6.7-3.9,8.9-3.9,2.2,0,6.9,5.9,6.9,5.9Z"/>
          <path class="cls-20" d="M555.8,336s-2.8-2.2-5.6-.2"/>
          <path class="cls-20" d="M578.1,336s2.8-2.2,5.6-.2"/>
          <path class="cls-24" d="M558.2,387.5s1.2,0,2.8,0c.8,0,1.8,0,2.8.1,1,0,2.1,0,3.2.1.5,0,1.1,0,1.6,0,.5,0,1,0,1.5,0,.5,0,1,0,1.5,0,.5,0,.9,0,1.3,0,1.7-.1,2.8-.2,2.8-.2,0,0-.9.7-2.6,1.3-.8.3-1.8.6-2.8.8-.5,0-1.1.2-1.7.2-.5,0-1.1,0-1.7,0-.6,0-1.1,0-1.7-.1-.6,0-1.1-.2-1.6-.3-1-.2-2-.5-2.8-.8-1.6-.5-2.6-1.1-2.6-1.1Z"/>
          <path class="cls-24" d="M571.4,376.8c0,2.1-3.7,2.3-3.7,2.3v-13.1s3.7,8.7,3.7,10.8Z"/>
        </g>
        <g>
          <path class="cls-1" d="M593.2,403c4.9,8.1,12.4,31.6-7,47.9,0,0,1.6,15.5,5,32.3,3.4,16.8,1.4,40.9.9,58,18.3-1,20.4-10.2,32.4-12.7.8-19.8-9.2-29.7-5.9-47.4-7.3-18.9,2.7-50.8,12.5-60.6,0,0-18.2-5.6-23.1-8.5-4.9-2.9-14.9-8.9-14.9-8.9Z"/>
          <path class="cls-20" d="M598.9,406.5c4.9,8.1,13.7,29.6-5.7,45.8,0,0,1.7,14.1,5.1,30.9,3.4,16.8,1.9,39.9,1.3,57"/>
        </g>
        <g>
          <path class="cls-1" d="M540.1,403c-4.9,8.1-12.4,31.6,7,47.9,0,0-1.6,15.5-5,32.3-3.4,16.8-1.4,40.9-.9,58-18.3-1-20.4-10.2-32.4-12.7-.8-19.8,9.2-29.7,5.9-47.4,7.3-18.9-2.7-50.8-12.5-60.6,0,0,18.2-5.6,23.1-8.5,4.9-2.9,14.9-8.9,14.9-8.9Z"/>
          <path class="cls-20" d="M534.4,406.5c-4.9,8.1-13.7,29.6,5.7,45.8,0,0-1.7,14.1-5.1,30.9-3.4,16.8-1.9,39.9-1.3,57"/>
        </g>
        <rect class="cls-24" x="563.7" y="397.2" width="5.9" height="11.7"/>
        <rect class="cls-24" x="563.7" y="299.1" width="5.9" height="25.9"/>
        <g>
          <path class="cls-1" d="M566.7,565.3c-23.2,0-53.5-9.8-53.5-9.8,0,0-9.6,60.1-8.4,115.9,8.5,7.7,37.9,12.5,62,12.5s53.5-4.9,62-12.5c1.2-55.8-8.4-115.9-8.4-115.9,0,0-30.3,9.8-53.5,9.8Z"/>
          <path class="cls-3" d="M504.7,647.9c8.5,7.7,37.9,12.5,62,12.5s53.5-4.9,62-12.5"/>
          <path class="cls-20" d="M504.7,640.9c8.5,7.7,37.9,12.5,62,12.5s53.5-4.9,62-12.5"/>
          <path class="cls-20" d="M504.7,655c8.5,7.7,37.9,12.5,62,12.5s53.5-4.9,62-12.5"/>
          <path class="cls-3" d="M506.3,619.7c8.3,7.7,36.9,12.5,60.4,12.5s52.1-4.9,60.4-12.5"/>
          <path class="cls-20" d="M506.3,612.7c8.3,7.7,36.9,12.5,60.4,12.5s52.1-4.9,60.4-12.5"/>
          <path class="cls-20" d="M506.3,626.8c8.3,7.7,36.9,12.5,60.4,12.5s52.1-4.9,60.4-12.5"/>
          <path class="cls-3" d="M508.7,586.8c7.9,7.7,35.5,12.5,58,12.5s50.1-4.9,58-12.5"/>
          <path class="cls-20" d="M508.7,579.8c7.9,7.7,35.5,12.5,58,12.5s50.1-4.9,58-12.5"/>
          <path class="cls-20" d="M508.7,593.9c7.9,7.7,35.5,12.5,58,12.5s50.1-4.9,58-12.5"/>
        </g>
        <path class="cls-16" d="M636.1,577.7s14,4.3,21-2.9"/>
        <path class="cls-16" d="M497.3,577.7s-14,4.3-21-2.9"/>
      </g>
      <g>
        <rect class="cls-5" x="715" y="534.7" width="299.2" height="361.8"/>
        <g>
          <path class="cls-24" d="M772.3,580.3c-.9,1.2-1.9,2.3-3,3.3v4.7c0,.9-.2,1.3-.9,1.5-.7.2-1.8.2-3.7.2,0-.4-.3-.9-.5-1.3,1.5,0,2.9,0,3.3,0,.4,0,.5-.1.5-.5v-3.7c-3.1,2.4-6.9,4.1-11,5.3-.2-.3-.6-.8-.8-1.1,3.9-1,7.5-2.5,10.5-4.7-3.6.3-7.1.6-9.7.8v-1.1c-.1,0,2.2-.2,2.2-.2v-8.4h3.7c.3-.6.6-1.3.8-1.8l1.4.2c-.3.5-.6,1.1-.9,1.6h5.1v6.6c.7-.7,1.3-1.5,1.9-2.2l1.1.6ZM760.3,576.5v1.8h7.7v-1.8h-7.7ZM768,579.2h-7.7v1.7h7.7v-1.7ZM760.3,583.7c2.3-.2,5.1-.4,7.7-.6v-1.2h-7.7v1.8Z"/>
          <path class="cls-24" d="M781.9,583.7c-.4-.7-1.4-2.1-2.2-3.1v9.5h-1.2v-9c-.8,2.2-1.9,4.4-3,5.7-.1-.3-.5-.8-.7-1.1,1.4-1.5,2.8-4.4,3.5-7h-2.9v-1.1h3.1v-3.9h1.2v3.9h2.5v1.1h-2.5v.5c.7.7,2.5,2.9,3,3.5l-.8,1ZM791.7,578.7h-1.9v9.8c0,.9-.2,1.3-.8,1.5-.6.2-1.7.2-3.2.2,0-.3-.3-.9-.4-1.3,1.2,0,2.4,0,2.7,0,.3,0,.4-.1.4-.4v-8.2c-1.4,2.7-3.6,5.4-5.6,6.9-.2-.3-.5-.7-.9-1,2.3-1.6,4.7-4.7,6.1-7.6h-5.1v-1.1h5.5v-3.9h1.3v3.9h1.9v1.1Z"/>
          <path class="cls-24" d="M799.9,587.9c-.4-.7-1.4-2.2-2.1-3.2-.5,1.7-1.4,3.5-2.9,4.8-.1-.2-.6-.7-.8-.8,2.2-2,2.9-4.5,3.1-6.8h-2.9v-1.1h3c0-.3,0-.6,0-.9v-2.7h-.9c-.4,1.1-.9,2-1.4,2.8-.2-.2-.7-.5-1-.6,1.1-1.4,1.8-3.5,2.3-5.7l1.1.2c-.2.8-.4,1.5-.6,2.2h3.2v1.1h-1.5v2.7c0,.3,0,.6,0,.9h1.9v.4c1.5-.6,3.1-1.7,4.2-2.9h-3.8v-1.1h4.3v-1.6c-1.2.1-2.4.3-3.5.3,0-.3-.2-.7-.3-.9,2.9-.3,6.4-.7,8.3-1.3l.9.8c-1.1.3-2.7.6-4.2.9v1.7h4.6v1.1h-4.6v3.3h-1.1v-2.5c-1.1,1.2-2.6,2.3-4,2.9-.2-.3-.5-.7-.7-.8v.7h-1.9c0,.5-.1,1-.2,1.6.7.9,2.2,2.9,2.6,3.4l-.8,1ZM808.9,584.4c-.5,1.2-1.1,2.2-1.9,3,1.4.6,2.8,1.2,3.7,1.8l-.9.9c-.9-.6-2.3-1.3-3.8-1.9-1.3.9-3,1.5-5.1,2,0-.3-.3-.8-.5-1,1.8-.3,3.3-.8,4.5-1.5-1.1-.4-2.2-.9-3.3-1.2.4-.6.9-1.3,1.4-2.1h-2.5v-1.1h3.1c.3-.5.5-1.1.8-1.6l1.1.2c-.2.5-.4.9-.7,1.4h3.2c0-.3.2-.7.2-1.1h1.2c0,.4-.1.7-.2,1.1h1.5v1.1h-1.8ZM804.3,584.4c-.3.6-.7,1.1-1,1.6.9.3,1.8.6,2.7.9.7-.7,1.3-1.5,1.7-2.5h-3.4ZM807.1,578.5c1.4.8,2.9,1.8,3.9,2.5l-.6.8c-.9-.8-2.4-1.8-3.7-2.6l.5-.7Z"/>
          <path class="cls-24" d="M817.6,578.3c-.6,2.6-1.7,5.9-3.3,7.9-.3-.2-.8-.5-1.1-.7,1.7-1.9,2.7-5,3.1-7.5l1.3.2ZM822.3,573.9v14.5c0,.9-.3,1.3-.9,1.5-.6.2-1.7.2-3.4.2,0-.3-.3-.9-.5-1.3,1.3,0,2.7,0,3,0,.4,0,.5-.1.5-.5v-14.5h1.3ZM826.5,578c1.6,2.5,3.2,5.9,3.6,8l-1.3.5c-.5-2.1-1.9-5.5-3.5-8.1l1.1-.4Z"/>
          <path class="cls-24" d="M844.2,584.4c1.4-.6,2.2-1.5,2.3-2.8-.1,0-.2,0-.3,0-.7,0-1.3-.4-1.3-1.2s.6-1.2,1.3-1.2,1.5.8,1.5,2c0,1.9-1.2,3.4-3.1,4.1l-.4-.9Z"/>
          <path class="cls-24" d="M873.5,580.3c-.9,1.2-1.9,2.3-3,3.3v4.7c0,.9-.2,1.3-.9,1.5-.7.2-1.8.2-3.7.2,0-.4-.3-.9-.5-1.3,1.5,0,2.9,0,3.3,0,.4,0,.5-.1.5-.5v-3.7c-3.1,2.4-6.9,4.1-11,5.3-.2-.3-.6-.8-.8-1.1,3.9-1,7.5-2.5,10.5-4.7-3.6.3-7.1.6-9.7.8v-1.1c-.1,0,2.2-.2,2.2-.2v-8.4h3.7c.3-.6.6-1.3.8-1.8l1.4.2c-.3.5-.6,1.1-.9,1.6h5.1v6.6c.7-.7,1.3-1.5,1.9-2.2l1.1.6ZM861.5,576.5v1.8h7.7v-1.8h-7.7ZM869.2,579.2h-7.7v1.7h7.7v-1.7ZM861.5,583.7c2.3-.2,5.1-.4,7.7-.6v-1.2h-7.7v1.8Z"/>
          <path class="cls-24" d="M882.6,579.3h.8v2.5h-.8v7.1c0,.5-.1.8-.5,1-.4.2-1,.2-2,.2,0-.3-.2-.7-.3-.9.7,0,1.4,0,1.6,0s.3,0,.3-.3v-2.5c-.9.5-1.8,1.1-2.6,1.5l-.5-.9c.8-.3,1.9-.9,3.1-1.5v-3.2h-3v2.5c0,1.6-.2,3.8-1.3,5.4-.2-.2-.6-.5-.9-.7,1-1.4,1.1-3.3,1.1-4.7v-3h-.9v-2.5h.7v-5h5.3v5ZM882.4,580.2h-4.9v1.3h4.9v-1.3ZM878.3,579.3h1.2v-2.8h2v-1.2h-3.2v4.1ZM880.6,585.3c-.4-.4-1.3-1.2-2-1.6l.6-.6c.7.5,1.6,1.1,2,1.5l-.6.7ZM881.5,579.3v-2h-1.3v2h1.3ZM892.8,588.8v1h-9.4v-1h2.7c-.2-.6-.4-1.3-.7-1.8l.9-.3c.3.6.6,1.5.8,2.1h1.8c.3-.6.6-1.5.8-2.1l1.1.3c-.3.6-.6,1.3-.9,1.8h2.8ZM892.7,582.4h-9v-.9h9v.9ZM892.2,580.5h-8.1v-5.4h2.3v-1.4h1v1.4h1.4v-1.4h1v1.4h2.4v5.4ZM884.6,586.6v-3.3h7.2v3.3h-7.2ZM885.1,577.3h1.5v-1.4h-1.5v1.4ZM885.1,579.6h1.5v-1.4h-1.5v1.4ZM885.7,585.8h5v-1.6h-5v1.6ZM888.8,577.3v-1.4h-1.4v1.4h1.4ZM887.4,578.1v1.4h1.4v-1.4h-1.4ZM891.2,575.9h-1.6v1.4h1.6v-1.4ZM891.2,578.1h-1.6v1.4h1.6v-1.4Z"/>
          <path class="cls-24" d="M900.4,581.8c-.4.7-.9,1.3-1.5,2v6.3h-1.1v-5.3c-.5.5-1.1,1-1.7,1.4-.2-.2-.5-.6-.7-.8,1.5-1,3.2-2.6,4-4l1.1.4ZM899.9,579.6c-.9,1.3-2.4,2.6-3.7,3.5-.2-.2-.5-.6-.7-.8,1.3-.8,2.7-2,3.4-3.1l1.1.4ZM900.9,575.2h-5v-.9h15.7v.9h-5.2v.9h4.4v2.9h-13.9v-2.9h4.2v-.9ZM897.9,578.2h3.1v-1.2h-3.1v1.2ZM910.1,586.4c-.7.9-1.7,1.6-2.8,2.1,1.3.3,2.8.6,4.3.7-.2.2-.5.6-.6.9-1.7-.2-3.5-.6-5-1.1-1.7.6-3.8.9-5.7,1.1,0-.3-.3-.6-.5-.8,1.7-.1,3.4-.4,4.9-.8-.8-.3-1.5-.7-2.2-1.1-.5.3-1.1.5-1.6.7-.1-.2-.5-.5-.7-.7.5-.2,1-.4,1.5-.7-.3-.3-.7-.6-.9-.9l.8-.3c.3.3.6.5.9.8.6-.4,1.1-.7,1.6-1.1h-2.1v-3.1c-.4.5-.8.9-1.3,1.3-.2-.2-.6-.6-.9-.7,1.2-.9,2.3-2.2,2.9-3.7l1.1.3c-.1.2-.2.5-.4.7h7.8v.9h-8.3c-.2.2-.3.5-.5.7h7.8v3.7h-4.8c-.2.3-.5.5-.8.8h4.9s.7.4.7.4ZM905.2,575.2h-3.2v.9h3.2v-.9ZM902,578.2h3.2v-1.2h-3.2v1.2ZM903,583.1h6.1v-.8h-6.1v.8ZM903,584.6h6.1v-.8h-6.1v.8ZM903.3,586.9c.8.5,1.7.9,2.7,1.2.9-.4,1.7-.8,2.4-1.3h-5.1ZM906.3,577v1.2h3.2v-1.2h-3.2Z"/>
          <path class="cls-24" d="M930.9,588.5v1h-16.2v-1h2.1v-3.5h11.9v3.5h2.1ZM928.9,585c-.3-.3-.7-.7-1.2-1.1-9.4.3-10.3.3-10.9.5,0-.2-.2-.8-.4-1.1.3,0,.7-.2,1.2-.5.3-.2,1.3-.8,2.2-1.6h-5v-.9h7.3v-1.4h-5.7v-.9h5.7v-1.3h1.2v1.3h5.9v.9h-5.9v1.4h7.5v.9h-9.2c-.9.7-1.8,1.4-2.7,1.9l7.6-.2c-.5-.4-1.1-.7-1.6-1l.9-.6c1.4.8,3.2,2,4.1,2.9l-.9.8ZM919,576h-4.1v-1.1h4.1v-1.3h1.1v1.3h2v1.1h-2v1.1h-1.1v-1.1ZM918,588.5h2.5v-2.6h-2.5v2.6ZM921.5,585.9v2.6h2.5v-2.6h-2.5ZM925.2,576h-1.8v-1.1h1.8v-1.3h1.1v1.3h4.4v1.1h-4.4v1h-1.1v-1ZM925,585.9v2.6h2.5v-2.6h-2.5Z"/>
          <path class="cls-24" d="M936.4,581.6c-.7-.6-1.9-1.4-2.9-1.9l.7-.8c1,.5,2.3,1.2,3,1.8l-.7.9ZM937.8,583.9c-.8,1.9-1.9,4.1-2.8,5.8l-1-.8c.8-1.4,2.1-3.8,2.9-5.8l.9.8ZM937.4,576.8c-.7-.6-1.9-1.5-3-2.1l.7-.8c1,.5,2.3,1.3,3,1.9l-.7.9ZM945.4,583.6c1.1,1.8,3,3.5,4.8,4.3-.3.2-.7.6-.8.9-1.8-1-3.7-2.8-4.9-4.7v6h-1.2v-5.9c-1.2,2-3,3.7-4.9,4.7-.2-.3-.6-.7-.8-1,1.9-.8,3.8-2.5,4.9-4.3h-4.1v-1.1h4.9v-2h1.2v2h5.2v1.1h-4.3ZM943.1,576.2c-.3,2.7-1.1,4-4.4,4.8,0-.3-.4-.7-.6-.9,3-.6,3.7-1.6,3.9-3.8h1.1ZM939.9,577.8h-1.1v-3.2h10.6v3.1h-1.2v-2.1h-8.3v2.1ZM948.7,579.4c.3,0,.8,0,1.1,0,0,.3,0,.8,0,1-.2,0-.7,0-1.2,0h-2.4c-1.2,0-1.5-.4-1.5-1.6v-2.6h1.1v2.6c0,.5,0,.6.4.6h2.4Z"/>
          <path class="cls-24" d="M965.8,588.7c1.8,0,2.1-.5,2.3-2.9.3.2.8.4,1.2.5-.3,2.8-.8,3.6-3.5,3.6h-7.1c-2.8,0-3.6-.5-3.6-2.5v-7.9c-.5.5-1.1.9-1.7,1.3-.1-.3-.5-.9-.7-1.1,2.2-1.4,4.5-3.6,5.7-6.1l1.1.4c-.2.4-.5.8-.7,1.3h5.1c0,0,.8.5.8.5-.6,1-1.5,2-2.3,2.9h5.1v6.5h-1.2v-.9h-10v3.2c0,1.1.4,1.3,2.4,1.3h7.3ZM957.9,576.3c-.6.8-1.3,1.6-2,2.3h4.9c.7-.6,1.4-1.5,1.9-2.3h-4.9ZM956.2,583.1h4.3v-3.3h-4.3v3.3ZM966.2,579.7h-4.5v3.3h4.5v-3.3Z"/>
          <path class="cls-24" d="M762.3,612.6h.8v2.5h-.8v7.1c0,.5-.1.8-.5,1-.4.2-1,.2-2,.2,0-.3-.2-.7-.3-.9.7,0,1.4,0,1.6,0s.3,0,.3-.3v-2.5c-.9.5-1.8,1.1-2.6,1.5l-.5-.9c.8-.3,1.9-.9,3.1-1.5v-3.2h-3v2.5c0,1.6-.2,3.8-1.3,5.4-.2-.2-.6-.5-.9-.7,1-1.4,1.1-3.3,1.1-4.7v-3h-.9v-2.5h.7v-5h5.3v5ZM762.1,613.5h-4.9v1.3h4.9v-1.3ZM758,612.6h1.2v-2.8h2v-1.2h-3.2v4.1ZM760.4,618.6c-.4-.4-1.3-1.2-2-1.6l.6-.6c.7.5,1.6,1.1,2,1.5l-.6.7ZM761.3,612.6v-2h-1.3v2h1.3ZM772.6,622.1v1h-9.4v-1h2.7c-.2-.6-.4-1.3-.7-1.8l.9-.3c.3.6.6,1.5.8,2.1h1.8c.3-.6.6-1.5.8-2.1l1.1.3c-.3.6-.6,1.3-.9,1.8h2.8ZM772.4,615.7h-9v-.9h9v.9ZM771.9,613.8h-8.1v-5.4h2.3v-1.4h1v1.4h1.4v-1.4h1v1.4h2.4v5.4ZM764.3,620v-3.3h7.2v3.3h-7.2ZM764.8,610.6h1.5v-1.4h-1.5v1.4ZM764.8,612.9h1.5v-1.4h-1.5v1.4ZM765.4,619.1h5v-1.6h-5v1.6ZM768.5,610.6v-1.4h-1.4v1.4h1.4ZM767.1,611.4v1.4h1.4v-1.4h-1.4ZM770.9,609.2h-1.6v1.4h1.6v-1.4ZM770.9,611.4h-1.6v1.4h1.6v-1.4Z"/>
          <path class="cls-24" d="M789.1,622c1.1,0,1.3-.5,1.4-2.6.3.2.8.4,1.2.5-.2,2.5-.6,3.3-2.6,3.3h-4.8c-2.1,0-2.7-.5-2.7-2.4v-2.7l-6,.8-.2-1.1,6.2-.8v-3l-5.5.8-.2-1.1,5.6-.8v-2.9c-1.9.3-3.8.7-5.6.9,0-.3-.2-.8-.3-1,4.5-.6,9.7-1.6,12.4-2.8l1.1,1c-1.7.7-4,1.2-6.3,1.7v2.9l7-.9.2,1.1-7.2,1v3l8.2-1.1v1.1c.1,0-8.2,1.1-8.2,1.1v2.8c0,.9.3,1.2,1.5,1.2h4.7Z"/>
          <path class="cls-24" d="M801,617.7c1.4-.6,2.2-1.5,2.3-2.8-.1,0-.2,0-.3,0-.7,0-1.3-.4-1.3-1.2s.6-1.2,1.3-1.2,1.5.8,1.5,2c0,1.9-1.2,3.4-3.1,4.1l-.4-.9Z"/>
          <path class="cls-24" d="M830.3,611.8c-.2,7.7-.4,10.2-1,10.9-.3.5-.7.6-1.2.6-.5,0-1.4,0-2.2,0,0-.3-.2-.8-.4-1.1.9,0,1.7,0,2.1,0s.5,0,.6-.3c.4-.5.7-3,.9-9.7h-2.8c-.2,4.8-1,8.9-4.3,11.3-.2-.3-.6-.7-.9-.9.3-.3.7-.5,1-.8-2.8.3-5.7.7-7.8.9l-.2-1.1c1.1-.1,2.5-.2,4-.4v-1.7h-3.5v-.9h3.5v-1.2h-3.4v-5.4h3.4v-1.2h-4v-.9h4v-1.3c-1.2.1-2.4.2-3.5.2,0-.3-.2-.7-.3-.9,2.7-.1,6-.5,7.9-.9l.6.9c-1,.2-2.2.4-3.6.5v1.4h3.9v.9h-3.9v1.2h3.6v5.4h-3.6v1.2h3.6v.9h-3.6v1.5c1.2-.1,2.5-.3,3.7-.4h0c1.6-2.1,2.1-5.1,2.3-8.5h-2.2v-1.1h2.2c0-1.3,0-2.7,0-4h1.1c0,1.4,0,2.7,0,4h3.9v.6ZM815.7,614.4h2.4v-1.4h-2.4v1.4ZM818.1,616.7v-1.4h-2.4v1.4h2.4ZM819.2,613v1.4h2.5v-1.4h-2.5ZM821.8,615.3h-2.5v1.4h2.5v-1.4Z"/>
          <path class="cls-24" d="M838.9,607.3c-.5,1.3-1.2,2.7-1.9,3.9v12.2h-1.2v-10.3c-.6.9-1.3,1.7-1.9,2.3-.1-.3-.5-.9-.7-1.2,1.8-1.8,3.5-4.5,4.6-7.3l1.2.4ZM844.1,611.1v2.7h5.3v1.1h-5.3v2.9h5.5v1.1h-5.5v4.5h-1.2v-12.3h-1.3c-.8,1.5-1.7,2.8-2.6,3.8-.2-.2-.7-.6-.9-.8,1.7-1.7,3.1-4.3,4-7l1.2.3c-.3.9-.7,1.7-1,2.5h7.7v1.2h-5.7Z"/>
          <path class="cls-24" d="M859.7,620.6c-.1,1.2-.3,1.8-.6,2.1-.3.4-.6.5-1.1.6-.5,0-1.2,0-2,0,0-.3-.1-.8-.3-1.1.8,0,1.5,0,1.9,0,.3,0,.4,0,.6-.3.2-.2.3-.6.4-1.5h-5.6c.1-1.1.3-2.5.5-4h-1.2v-1.1h1.3c.1-1.3.2-2.6.3-3.7-.3.5-.5.9-.8,1.2-.2-.2-.7-.5-1-.7,1.1-1.3,2-3.4,2.5-5.5l1.1.2c-.2.6-.4,1.3-.6,1.9h6.1v1.1h-6.5c-.3.6-.6,1.2-.9,1.7h6.3v.6c0,1.2,0,2.2-.1,3.2h1.4v1.1h-1.5c0,1.2-.1,2.2-.2,2.9h1.5v1h-1.6ZM858.7,619.6c0-.8.1-1.7.2-2.9h-4.3c-.1,1.1-.2,2.1-.3,2.9h4.5ZM854.9,612.8c0,.9-.1,1.8-.2,2.7h4.3c0-.8,0-1.7,0-2.7h-4.1ZM856.2,616.8c.6.7,1.3,1.6,1.5,2.3l-.8.5c-.2-.7-.9-1.6-1.5-2.3l.8-.4ZM856.4,613c.6.6,1.2,1.5,1.4,2.1l-.8.4c-.2-.6-.8-1.5-1.4-2.1l.8-.4ZM867.7,611.5c-.5,2.9-1.1,5.4-2.2,7.4.9,1.6,2.1,2.8,3.5,3.6-.3.2-.7.7-.9,1-1.4-.9-2.5-2-3.3-3.5-1,1.4-2.2,2.5-3.7,3.4-.1-.2-.5-.7-.8-.9,1.7-.9,3-2.1,3.9-3.6-.8-1.6-1.4-3.5-1.8-5.5-.3.7-.7,1.4-1.1,1.9-.2-.2-.6-.6-.9-.7,1.3-1.9,2.2-4.7,2.7-7.7l1.1.2c-.2,1.1-.5,2.3-.8,3.3h5.3v1.1h-1ZM863.1,611.6c.4,2.3,1,4.3,1.8,6.1.8-1.7,1.4-3.8,1.7-6.2h-3.5Z"/>
          <path class="cls-24" d="M874.8,616.4v5.6c0,.7-.1,1-.6,1.2-.4.2-1.1.2-2.2.2,0-.3-.2-.8-.4-1.1.8,0,1.5,0,1.7,0,.2,0,.3,0,.3-.3v-5.3c-.8.3-1.6.5-2.3.7l-.3-1.2c.7-.2,1.6-.5,2.6-.8v-3.8h-2.3v-1.1h2.3v-3.7h1.1v3.7h2v1.1h-2v3.5c.6-.2,1.3-.4,1.9-.6l.2,1.1-2,.7ZM882.8,616.9v1.7h4.1v1h-4.1v2.6c.5,0,1.1.1,1.7.1s2.9,0,3.5,0c-.2.3-.4.8-.4,1.1h-3.2c-2.9,0-4.7-.6-6-2.8-.5,1.2-1.1,2.2-1.9,3-.2-.2-.7-.5-.9-.7,1.4-1.3,2.2-3.2,2.6-5.6h1.1c0,.8-.2,1.3-.3,1.9.6,1.5,1.5,2.3,2.7,2.8v-5h-3.8v-1h3.8v-1.6h-4.8v-1h4.8v-1.5h-3.8v-1h3.8v-1.3h-4.6v-1h4.6v-1.7h1.1v1.7h4.8v1h-4.8v1.3h4v2.4h1.3v1h-1.3v2.6h-4ZM882.8,613.3h2.8v-1.5h-2.8v1.5ZM882.8,615.9h2.8v-1.6h-2.8v1.6Z"/>
          <path class="cls-24" d="M897.3,617.7c1.4-.6,2.2-1.5,2.3-2.8-.1,0-.2,0-.3,0-.7,0-1.3-.4-1.3-1.2s.6-1.2,1.3-1.2,1.5.8,1.5,2c0,1.9-1.2,3.4-3.1,4.1l-.4-.9Z"/>
          <path class="cls-24" d="M926.8,617.1v1h-16.2v-1h4.6c-.1-.4-.4-.9-.6-1.2l.6-.2h-2v-3.3h10.9v3.3h-1.6.3c-.3.5-.5,1-.8,1.4h4.8ZM918,609.2h-6.9v-.9h6.9v-1.3h1.2v1.3h7.1v.9h-7.1v1.3h5.9v.9h-12.7v-.9h5.6v-1.3ZM912.9,619.1h11.6v4.3h-1.2v-.6h-9.2v.6h-1.2v-4.3ZM914.1,620v1.9h9.2v-1.9h-9.2ZM914.4,614.8h8.5v-1.5h-8.5v1.5ZM915.7,615.7c.3.4.6,1,.7,1.4h4.3c.2-.4.5-1,.7-1.4h-5.7Z"/>
          <path class="cls-24" d="M931.9,622.5v1h-1v-6.2c-.3.5-.7.9-1.1,1.2-.1-.2-.4-.6-.6-.8,1-1,2-2.4,2.5-3.9l.9.3c-.1.4-.3.7-.5,1.1h2.3c-.2-.3-.4-.7-.6-1l.8-.3c.3.4.6.9.8,1.3h2.6v.9h-2.8v1.2h2.4v.9h-2.4v1.2h2.5v.9h-2.5v1.4h2.7v.9h-6.1ZM932,609h-2.6v-.9h2.6v-1.2h1.1v3.3h-1.1v-1.1ZM930.1,610.5h3.4v3.2h-3.4v-3.2ZM931,612.9h1.8v-1.6h-1.8v1.6ZM934.3,616.1h-2.4v1.2h2.4v-1.2ZM934.3,618.2h-2.4v1.2h2.4v-1.2ZM934.3,620.2h-2.4v1.4h2.4v-1.4ZM938.1,613.7h-3.5v-3.2h3.5v3.2ZM936.2,610.2h-1.1v-3.3h1.1v1.2h2.7v.9h-2.7v1.1ZM937.2,611.3h-1.8v1.6h1.8v-1.6ZM940.5,610.8c-.4,1.6-.9,3.1-1.6,4.2-.2-.2-.7-.5-1-.7,1.1-1.8,1.8-4.6,2.1-7.5l1.1.2c-.1.9-.3,1.8-.4,2.6h4.5c0,0,.7.2.7.2-.3,1.6-.8,3.5-1.3,4.6l-.9-.3c.3-.9.7-2.2.9-3.4h-4.3ZM942.4,612.6c0,.6,0,1.3,0,2,.5,3.5,1.8,6.6,3.8,8-.3.2-.6.7-.8,1-1.6-1.2-2.7-3.4-3.4-6.1-.4,2-1.3,4.2-3.1,6.1-.2-.3-.6-.6-.9-.8,3.1-3.3,3.3-7.4,3.3-10.2v-1h1.1v1Z"/>
          <path class="cls-24" d="M952,616.7v5.3c0,.7-.2,1-.6,1.2-.4.2-1.1.2-2.3.2,0-.3-.2-.8-.4-1.1.8,0,1.5,0,1.7,0,.2,0,.3,0,.3-.3v-4.9c-.8.3-1.5.5-2.2.7l-.3-1.2c.7-.2,1.6-.5,2.5-.8v-4.1h-2.3v-1.1h2.3v-3.7h1.1v3.7h2.2v1.1h-2.2v3.8c.7-.2,1.3-.4,2-.7l.2,1.1-2.2.7ZM960.2,622c.6.1,1.2.1,1.9.1s2.7,0,3.3,0c-.1.3-.3.7-.4,1.1h-2.9c-2.7,0-4.7-.5-5.9-3.3-.5,1.5-1.2,2.7-2.2,3.7-.2-.2-.6-.6-.9-.8,1.7-1.5,2.5-3.9,2.7-7h1.1c0,1.1-.2,1.9-.4,2.8.6,1.8,1.5,2.7,2.6,3.2v-8h-3.6v-5.8h8.5v5.8h-3.7v2.9h4.3v1.1h-4.3v4.4ZM956.5,612.6h6.2v-3.7h-6.2v3.7Z"/>
          <path class="cls-24" d="M772.4,651.6h-4.3v5.2h-1.2v-5.2h-5.4c-.3,1.9-1.3,3.8-4.8,5.1-.2-.3-.5-.7-.8-.9,3.1-1.1,4.1-2.7,4.4-4.2h-4.1v-1.1h4.2v-2.4h1.2v2.4h5.3v-2.4h1.2v2.4h4.3v1.1ZM772.2,647.7h-15.8v-1.1h7.3v-1.8h-5.9v-1h5.9v-1.7h-6.5v-1.1h14.2v1.1h-6.5v1.7h5.9v1h-5.9v1.8h7.3v1.1Z"/>
          <path class="cls-24" d="M784.1,640.3c0,.6,0,1.5-.1,2.6.3,2.1,1.4,9.8,7.8,12.7-.3.3-.7.7-.9,1-4.7-2.2-6.6-6.9-7.5-10.3-.8,3.7-2.7,8-7.3,10.4-.2-.3-.6-.7-.9-.9,7.6-3.8,7.5-12.8,7.6-15.5h1.3Z"/>
          <path class="cls-24" d="M797.2,646.2c-.5,1.2-1.5,2.5-2.4,3.2-.2-.3-.5-.6-.7-.8.9-.5,1.9-1.7,2.3-2.7l.8.3ZM801.1,655.9c-.6-.6-1.8-1.5-2.9-2.2-.5,1.1-1.5,2.1-3.5,3-.1-.3-.4-.7-.6-.9,2.6-1.1,3.3-2.6,3.5-3.9h-3.3v-1h3.3v-1.7h1.1v1.7h2c-.3-.4-.7-1-1.2-1.5l.7-.4c.5.5,1,1.1,1.3,1.5l-.6.4h1.2v1h-3.5c0,.3,0,.6-.1.9,1.1.7,2.5,1.7,3.2,2.4l-.7.8ZM797.7,645.3h-3.4v-1h3.4v-4h1.1v4h3.2v1h-3.2v3.5h-1.1v-3.5ZM795.9,643.4c-.2-.6-.6-1.5-1.1-2.2l.9-.3c.5.7.9,1.5,1.1,2.1l-.9.4ZM799.8,645.9c.5.3,2,1.7,2.4,2l-.7.8c-.5-.5-1.8-1.9-2.3-2.3l.6-.5ZM801.8,641.2c-.4.8-.9,1.7-1.3,2.3l-.8-.3c.4-.6.8-1.6,1.1-2.3l1,.3ZM806,654.4c-.8.9-2.2,1.9-3.4,2.4-.2-.2-.6-.6-.8-.8,1.2-.5,2.5-1.4,3.2-2.2l1.1.6ZM805.2,644c.2-.6.3-1.2.4-1.8h-3.3v-1.1h8.4v1.1h-3.8c-.2.6-.4,1.3-.6,1.8h3.7v9.4h-6.9v-9.4h2.1ZM808.8,645h-4.7v1.9h4.7v-1.9ZM808.8,647.7h-4.7v1.9h4.7v-1.9ZM808.8,650.5h-4.7v1.9h4.7v-1.9ZM807.8,653.8c1.1.6,2.4,1.6,3.1,2.3l-.9.7c-.6-.7-2-1.7-3.1-2.3l.9-.6Z"/>
          <path class="cls-24" d="M820.1,651c1.4-.6,2.2-1.5,2.3-2.8-.1,0-.2,0-.3,0-.7,0-1.3-.4-1.3-1.2s.6-1.2,1.3-1.2,1.5.8,1.5,2c0,1.9-1.2,3.4-3.1,4.1l-.4-.9Z"/>
          <path class="cls-24" d="M840.7,655.4c0,.7-.1.9-.6,1.1-.5.2-1.3.2-2.4.2,0-.3-.2-.7-.4-1,.9,0,1.7,0,1.9,0,.3,0,.3,0,.3-.3v-3c-1.3.7-2.5,1.5-3.6,2l-.5-1c1-.4,2.6-1.2,4.1-2v-3.8h-3.9v3.5c0,1.8-.2,4.1-1.5,5.6-.1-.3-.6-.7-.8-.8,1.1-1.4,1.2-3.3,1.2-4.8v-4.5h6.2v8.8ZM839.5,641.5c.9,1.3,2,2.9,2.4,4l-1,.5c-.1-.4-.4-.8-.6-1.3-5,.4-5.6.5-6,.7,0-.3-.3-.9-.4-1.1.3,0,.6-.3.9-.7.3-.4,1.6-1.9,2.3-3.3l1.2.4c-.8,1.3-1.7,2.5-2.6,3.5l4-.3c-.4-.6-.8-1.3-1.2-1.9l1-.4ZM836.5,648.8c1,.6,2.3,1.4,3,1.9l-.6.7c-.7-.5-2-1.4-3-2l.6-.6ZM844.3,648c-1.5,0-1.9-.5-1.9-2v-5.8h1.2v2.6h5v1.1h-5v2.2c0,.7.2.9.8.9h3.5c.4,0,1.1,0,1.5-.1,0,.3,0,.8.1,1.1-.3,0-.9.1-1.6.1h-3.5ZM847.8,655.5c.8,0,.9-.3,1-2.3.3.2.8.4,1.1.5-.2,2.4-.5,3-2,3h-3.3c-1.7,0-2.1-.4-2.1-1.8v-6.2h1.2v2.2h5.2v1.1h-5.2v2.9c0,.6.2.7,1.1.7h3.1Z"/>
          <path class="cls-24" d="M859.8,642.3c-1.1,3.4-3.8,5.6-6.5,6.8-.1-.3-.4-.6-.7-.9,1.2-.4,2.4-1.1,3.4-2-.5-.5-1.3-1.2-2-1.7-.3.2-.6.5-.9.7-.1-.2-.5-.6-.8-.7,1.8-1.2,3.1-2.9,3.7-4.3l1.1.2c-.3.5-.5,1.1-.9,1.6h2.9c0,0,.7.3.7.3ZM859.7,648.4l.7.3c-1.1,4.3-4.1,6.8-7.5,8-.1-.3-.4-.7-.6-.9,1.5-.5,3-1.3,4.2-2.5-.5-.6-1.3-1.4-2.1-2.1-.4.3-.9.7-1.4.9-.1-.2-.5-.6-.7-.7,2.3-1.3,3.8-3.1,4.5-4.6l1.1.2c-.2.5-.5.9-.8,1.4h2.6ZM855.4,643c-.2.3-.5.5-.7.8.7.5,1.5,1.1,2,1.6.7-.7,1.2-1.5,1.6-2.4h-2.9ZM856.3,649.5c-.3.4-.7.7-1.1,1.1.7.5,1.5,1.3,2.1,1.9.7-.9,1.3-1.9,1.7-3h-2.7ZM868.3,642.9s0,.5,0,.7c-.2,8.7-.3,11.5-.9,12.3-.3.5-.7.6-1.2.7-.5,0-1.3,0-2.1,0,0-.4-.2-.9-.4-1.2.9,0,1.7,0,2.1,0s.4,0,.6-.3c.4-.6.6-3.4.8-11.2h-4.9c-.6,1.2-1.3,2.3-2,3.2-.2-.2-.7-.5-.9-.7,1.3-1.5,2.4-3.8,3.1-6.2l1.1.3c-.2.8-.5,1.6-.8,2.4h5.6ZM862.4,652.5v1.4h-1v-7.7h4.2v6.3h-3.2ZM862.4,647.1v4.3h2.2v-4.3h-2.2Z"/>
          <path class="cls-24" d="M875.9,640.7c-.3,1.2-.8,2.4-1.3,3.5v12.6h-1.1v-10.3c-.5.9-1.1,1.8-1.6,2.5-.1-.3-.5-.9-.7-1.2,1.5-1.8,2.8-4.7,3.6-7.5l1.1.3ZM887.9,655.9h-9.4v.9h-1.1v-7.1c-.5.7-.9,1.3-1.4,1.9-.1-.2-.5-.8-.7-1.1,1.3-1.3,2.4-3.3,3.1-5.3l1.1.3c-.2.6-.4,1.2-.7,1.8h3.8c-.2-.6-.5-1.3-.8-1.8l1-.3c.4.7.9,1.5,1,2.1h3.9v1h-4.2v1.5h3.8v.9h-3.8v1.6h3.8v.9h-3.8v1.6h4.5v1.1ZM887,645h-9.9v-3.9h1.1v2.9h3.3v-3.7h1.2v3.7h3.1v-2.9h1.1v3.9ZM882.2,648.4h-3.8v1.5h3.8v-1.5ZM882.2,650.8h-3.8v1.6h3.8v-1.6ZM878.4,654.9h3.8v-1.6h-3.8v1.6Z"/>
          <path class="cls-24" d="M895.9,653.8h-3.7v1.6h-1.1v-14h4.9v12.4ZM892.2,642.5v2.6h2.6v-2.6h-2.6ZM892.2,648.9h2.6v-2.7h-2.6v2.7ZM894.7,652.7v-2.8h-2.6v2.8h2.6ZM903,649.9c.5,3.4,1.4,5.5,2.6,5.5s.5-.8.6-2.6c.3.3.7.5,1,.6-.2,2.5-.6,3.2-1.7,3.2-2,0-3.1-2.7-3.7-6.7h-3.3v5.2l3.5-.8c0,.3,0,.8,0,1.1-4.1,1.1-4.7,1.3-5,1.5-.1-.2-.4-.7-.6-.9.4-.2.9-.6.9-1.4v-13.5h8.7v5h-3.4c0,1,0,1.9.2,2.8h4.1v1.1h-4ZM898.5,642.1v2.7h6.4v-2.7h-6.4ZM901.7,648.8c0-.9-.1-1.9-.2-2.8h-3v2.8h3.2Z"/>
          <path class="cls-24" d="M918.5,640.3c0,.6,0,1.5-.1,2.6.3,2.1,1.4,9.8,7.8,12.7-.3.3-.7.7-.9,1-4.7-2.2-6.6-6.9-7.5-10.3-.8,3.7-2.7,8-7.3,10.4-.2-.3-.6-.7-.9-.9,7.6-3.8,7.5-12.8,7.6-15.5h1.3Z"/>
          <path class="cls-24" d="M933.5,640.4c-.3.9-.6,1.9-1,2.7h3.1v11.7h-5.1v1.5h-1.1v-13.2h2c.3-.9.6-2.1.8-2.9l1.3.3ZM934.5,644.2h-4v4h4v-4ZM934.5,653.8v-4.5h-4v4.5h4ZM944.6,643.7c-.3,8.3-.5,11.1-1.3,12-.4.5-.8.6-1.4.7-.6,0-1.7,0-2.7,0,0-.4-.2-.9-.4-1.2,1.2.1,2.3.1,2.7.1s.6,0,.8-.3c.6-.6.9-3.4,1.1-10.8h-4.8c-.5,1.2-1.1,2.4-1.7,3.2-.2-.2-.7-.5-1-.7,1.2-1.6,2.2-4.1,2.8-6.6l1.2.3c-.2.9-.5,1.8-.8,2.7h5.5v.6ZM940.7,651.9c-.6-1.1-1.8-2.9-2.8-4.2l.9-.5c1.1,1.3,2.3,3,2.9,4.1l-1,.6Z"/>
          <path class="cls-24" d="M950.6,646.9c-.3,2.1-.9,5.1-1.6,7.1l-1.2-.5c.8-1.8,1.4-4.7,1.7-6.8l1.2.2ZM953.5,645.3v9.1c0,.8.2,1,1.3,1h3.7c1.2,0,1.3-.7,1.5-3.9.3.2.8.5,1.1.6-.2,3.4-.6,4.4-2.6,4.4h-3.8c-1.9,0-2.4-.5-2.4-2.2v-9h1.2ZM954,640.9c1.7,1.2,3.9,2.9,4.9,4.1l-.9.9c-1-1.1-3.1-2.9-4.8-4.2l.8-.8ZM961.9,646.2c1.1,2.2,2.1,5,2.5,6.8l-1.2.5c-.4-1.9-1.4-4.7-2.4-6.9l1.1-.4Z"/>
          <path class="cls-24" d="M763.3,682.2c-.5-.5-2-1.5-2.9-2.1-.6,1.1-1.7,2.1-3.7,3-.2-.3-.5-.7-.8-.9,2.4-1,3.4-2.2,3.7-3.3h-3.6v-1h3.8c0-.3,0-.5,0-.7v-1.1h-1.6c-.4.6-.8,1.2-1.2,1.7-.2-.2-.7-.5-1-.6.9-.9,1.6-2.3,2.1-3.6l1.1.2c-.1.5-.3.9-.5,1.3h5v1h-2.7v1.1c0,.2,0,.4,0,.7h3.2v1h-3.4c0,.1,0,.3-.1.4.7.4,2.8,1.7,3.3,2.1l-.8.8ZM758.9,682.7h11v7.4h-1.2v-.6h-8.6v.7h-1.2v-7.4ZM760.1,683.7v1.8h8.6v-1.8h-8.6ZM768.6,688.4v-1.9h-8.6v1.9h8.6ZM771.4,675.1v6.2h-6.3v-6.2h6.3ZM770.2,676.1h-3.9v4h3.9v-4Z"/>
          <path class="cls-24" d="M782,684.3c1.4-.6,2.2-1.5,2.3-2.8-.1,0-.2,0-.3,0-.7,0-1.3-.4-1.3-1.2s.6-1.2,1.3-1.2,1.5.8,1.5,2c0,1.9-1.2,3.4-3.1,4.1l-.4-.9Z"/>
          <path class="cls-24" d="M796.7,685.4v1.5h-1.1v-11.9h4.7v10.4h-3.7ZM796.7,676.2v8.1h2.6v-8.1h-2.6ZM811.3,680.1c-.7,2.7-1.8,4.9-3.3,6.6,1.1,1.1,2.4,1.9,3.9,2.5-.3.2-.6.7-.8,1-1.5-.6-2.7-1.5-3.9-2.6-1.2,1.1-2.6,2-4.1,2.6-.2-.3-.5-.8-.8-1,1.5-.6,2.9-1.4,4.1-2.5-1.2-1.5-2.2-3.2-2.9-5.2-.5,3.4-1.4,6.6-3.5,8.7-.2-.2-.6-.6-.8-.8,3.1-3.1,3.5-8.9,3.6-13.5h-1.6v-1.1h7.7c0,0,.8,0,.8,0-.2,1.4-.5,3.4-.8,5.1h1.7s.7.3.7.3ZM803.9,675.8c0,1.3-.1,2.7-.2,4h3.9c.3-1.3.5-2.9.7-4h-4.4ZM804.5,680.9c.6,1.8,1.6,3.5,2.8,4.9,1.1-1.3,2.1-2.9,2.6-4.9h-5.4Z"/>
          <path class="cls-24" d="M823.2,682.5s0,.4,0,.6c-.3,4.1-.6,5.7-1.2,6.3-.4.4-.7.5-1.4.5-.6,0-1.7,0-2.9,0,0-.4-.2-.9-.4-1.2,1.2.1,2.4.1,2.9.1s.6,0,.8-.2c.5-.4.7-1.7,1-4.9h-6.9c.3-1.4.7-3.5,1-5.2h6v-3.1h-6.7v-1.1h7.9v5.3h-6.1c-.2,1-.4,2-.6,2.9h6.7ZM828.8,673.7v16.4h-1.2v-16.4h1.2Z"/>
          <path class="cls-24" d="M842.2,673.6c0,.6,0,1.5-.1,2.6.3,2.1,1.4,9.8,7.8,12.7-.3.3-.7.7-.9,1-4.7-2.2-6.6-6.9-7.5-10.3-.8,3.7-2.7,8-7.3,10.4-.2-.3-.6-.7-.9-.9,7.6-3.8,7.5-12.8,7.6-15.5h1.3Z"/>
          <path class="cls-24" d="M856.9,674c-.4,1.2-.9,2.4-1.4,3.6v12.6h-1.2v-10.4c-.6,1-1.2,1.9-1.8,2.6-.1-.3-.4-.9-.7-1.2,1.6-1.8,3.1-4.6,3.9-7.5l1.1.3ZM862.1,681.1h-3.7v8.9h-1.1v-15.4h4.8v6.5ZM858.4,675.6v1.8h2.7v-1.8h-2.7ZM861.1,680.1v-1.9h-2.7v1.9h2.7ZM868.2,688.5c0,.8-.2,1.2-.8,1.4-.6.2-1.6.2-3.3.2,0-.3-.3-.9-.5-1.2,1.3,0,2.6,0,2.9,0,.4,0,.5-.1.5-.5v-7.3h-3.9v-6.5h5v13.8ZM864.2,675.6v1.8h2.9v-1.8h-2.9ZM867.1,680.1v-1.9h-2.9v1.9h2.9Z"/>
          <path class="cls-24" d="M879.3,688.6c0,.7-.1,1-.6,1.2-.5.2-1.3.2-2.5.2,0-.3-.2-.8-.4-1.1.9,0,1.8,0,2,0,.3,0,.3,0,.3-.3v-2.6h-4.3c-.2,1.4-.6,3-1.4,4.1-.2-.2-.6-.6-.9-.7,1.2-1.7,1.3-4.1,1.3-5.9v-4.3h6.5v9.4ZM887.7,676.4v1.1h-16.1v-1.1h4.6c-.3-.7-1.1-1.7-1.7-2.5l1.1-.4c.7.8,1.5,1.9,1.8,2.6l-.9.3h5.5c.6-.9,1.3-2.1,1.7-3l1.3.4c-.5.9-1.1,1.8-1.7,2.6h4.3ZM878.1,685.1v-1.9h-4.2v.4c0,.5,0,1,0,1.5h4.2ZM873.9,680.2v1.9h4.2v-1.9h-4.2ZM882.7,686.8h-1.1v-7.4h1.1v7.4ZM885.3,678.9h1.2v9.7c0,.8-.2,1.1-.7,1.3-.5.2-1.5.2-2.8.2,0-.3-.3-.8-.5-1.2,1.1,0,2.1,0,2.4,0,.3,0,.4,0,.4-.4v-9.7Z"/>
          <path class="cls-24" d="M895.7,678c-.4.8-.9,1.5-1.5,2.3v9.8h-1.2v-8.3c-.7.7-1.3,1.4-2,2-.1-.3-.5-.9-.7-1.2,1.6-1.2,3.3-3.1,4.3-5l1.1.4ZM895.4,674c-1,1.6-2.7,3.2-4.3,4.3-.1-.3-.4-.7-.6-1,1.4-.9,3-2.5,3.7-3.8l1.2.4ZM907,688.4v1.2h-11.5v-1.2h5.2v-4.8h-4v-1.1h4v-4.2h-4.7v-1.2h10.6v1.2h-4.7v4.2h4.1v1.1h-4.1v4.8h5.1ZM901.1,676.9c-.3-.8-.9-2.1-1.6-3l1.1-.4c.6.9,1.3,2.2,1.6,2.9l-1.2.5Z"/>
          <path class="cls-24" d="M925.9,683.7h-7.5v6.4h-1.2v-6.4h-7.4v-1.2h7.4v-6.5h-6.5v-1.2h14.2v1.2h-6.5v6.5h7.5v1.2ZM913,676.9c.7,1.3,1.5,3.1,1.8,4.2l-1.1.4c-.3-1.1-1-2.9-1.7-4.2l1.1-.3ZM920.5,681.2c.7-1.2,1.6-3.1,2-4.4l1.3.4c-.7,1.5-1.5,3.3-2.3,4.3l-1-.3Z"/>
          <path class="cls-24" d="M944.5,676.4v3.8h-1.2v-2.7h-12.6v2.7h-1.2v-3.8h6.9v-2.9h1.2v2.9h6.8ZM943.3,688c0,.7-.1,1-.7,1.2-.6.2-1.5.2-2.9.2,0-.3-.3-.8-.4-1.1,1.1,0,2.1,0,2.4,0,.3,0,.4,0,.4-.3v-2.7h-4.4v4.8h-1.2v-4.8h-4.7v4h-1.2v-5.1h5.9v-1.6h-4.3v-3.8h9.5v3.8h-4v1.6h5.6v3.8ZM932,673.7c.6.7,1.3,1.6,1.6,2.2l-1.1.5c-.3-.6-.9-1.5-1.5-2.2l1.1-.5ZM933.4,681.7h7.1v-1.9h-7.1v1.9ZM942.9,674.1c-.6.8-1.3,1.7-1.8,2.2l-1-.4c.5-.6,1.2-1.6,1.6-2.3l1.2.5Z"/>
          <path class="cls-24" d="M957.9,676.1c-.4.7-.9,1.4-1.3,2.1v12h-1.3v-10.3c-1.9,2.1-4.1,4.1-6.7,5.4-.2-.3-.6-.8-.8-1,3.6-1.8,6.8-4.9,8.6-8.1h-8.2v-1.2h15.5v1.2h-5.8ZM958,679.2c2.2,1.4,4.9,3.4,6.3,4.8l-.9.9c-1.3-1.4-4-3.5-6.2-4.9l.9-.8Z"/>
          <path class="cls-24" d="M772.4,709.4h-2.3v12.2c0,.9-.2,1.3-.9,1.5-.7.2-1.9.2-3.7.2,0-.4-.3-.9-.5-1.3,1.5,0,2.9,0,3.4,0,.4,0,.5-.1.5-.5v-12.2h-12.6v-1.2h16.1v1.2ZM759.4,718.8v1.5h-1.2v-8.1h7.3v6.7h-6.2ZM759.4,713.3v4.4h5v-4.4h-5Z"/>
          <path class="cls-24" d="M782.6,722c0,.7-.1.9-.6,1.1-.5.2-1.3.2-2.4.2,0-.3-.2-.7-.4-1,.9,0,1.7,0,1.9,0,.3,0,.3,0,.3-.3v-3c-1.3.7-2.5,1.5-3.6,2l-.5-1c1-.4,2.6-1.2,4.1-2v-3.8h-3.9v3.5c0,1.8-.2,4.1-1.5,5.6-.1-.3-.6-.7-.8-.8,1.1-1.4,1.2-3.3,1.2-4.8v-4.5h6.2v8.8ZM781.4,708.2c.9,1.3,2,2.9,2.4,4l-1,.5c-.1-.4-.4-.8-.6-1.3-5,.4-5.6.5-6,.7,0-.3-.3-.9-.4-1.1.3,0,.6-.3.9-.7.3-.4,1.6-1.9,2.3-3.3l1.2.4c-.8,1.3-1.7,2.5-2.6,3.5l4-.3c-.4-.6-.8-1.3-1.2-1.9l1-.4ZM778.4,715.5c1,.6,2.3,1.4,3,1.9l-.6.7c-.7-.5-2-1.4-3-2l.6-.6ZM786.3,714.7c-1.5,0-1.9-.5-1.9-2v-5.8h1.2v2.6h5v1.1h-5v2.2c0,.7.2.9.8.9h3.5c.4,0,1.1,0,1.5-.1,0,.3,0,.8.1,1.1-.3,0-.9.1-1.6.1h-3.5ZM789.7,722.2c.8,0,.9-.3,1-2.3.3.2.8.4,1.1.5-.2,2.4-.5,3-2,3h-3.3c-1.7,0-2.1-.4-2.1-1.8v-6.2h1.2v2.2h5.2v1.1h-5.2v2.9c0,.6.2.7,1.1.7h3.1Z"/>
          <path class="cls-24" d="M797.1,714.8c-.7-.6-1.9-1.4-2.9-1.9l.7-.8c1,.5,2.3,1.2,3,1.8l-.7.9ZM798.4,717.2c-.8,1.9-1.9,4.1-2.8,5.8l-1-.8c.8-1.4,2.1-3.8,2.9-5.8l.9.8ZM798.1,710c-.7-.6-1.9-1.5-3-2.1l.7-.8c1,.5,2.3,1.3,3,1.9l-.7.9ZM806.1,716.9c1.1,1.8,3,3.5,4.8,4.3-.3.2-.7.6-.8.9-1.8-1-3.7-2.8-4.9-4.7v6h-1.2v-5.9c-1.2,2-3,3.7-4.9,4.7-.2-.3-.6-.7-.8-1,1.9-.8,3.8-2.5,4.9-4.3h-4.1v-1.1h4.9v-2h1.2v2h5.2v1.1h-4.3ZM803.7,709.5c-.3,2.7-1.1,4-4.4,4.8,0-.3-.4-.7-.6-.9,3-.6,3.7-1.6,3.9-3.8h1.1ZM800.5,711.1h-1.1v-3.2h10.6v3.1h-1.2v-2.1h-8.3v2.1ZM809.4,712.7c.3,0,.8,0,1.1,0,0,.3,0,.8,0,1-.2,0-.7,0-1.2,0h-2.4c-1.2,0-1.5-.4-1.5-1.6v-2.6h1.1v2.6c0,.5,0,.6.4.6h2.4Z"/>
          <path class="cls-24" d="M822.3,708c0,3.2.4,10.1,7.6,14.4-.3.2-.8.7-1,1-4.6-2.8-6.5-6.9-7.3-10.3-1.4,4.8-3.7,8.2-7.4,10.3-.2-.2-.7-.7-1.1-1,4.1-2.1,6.3-5.8,7.5-11h.7c-.1-.8-.2-1.6-.2-2.3h-4.5v-1.2h5.7Z"/>
          <path class="cls-24" d="M837.3,707.1c-.3.9-.6,1.9-1,2.7h3.1v11.7h-5.1v1.5h-1.1v-13.2h2c.3-.9.6-2.1.8-2.9l1.3.3ZM838.3,710.8h-4v4h4v-4ZM838.3,720.4v-4.5h-4v4.5h4ZM848.3,710.4c-.3,8.3-.5,11.1-1.3,12-.4.5-.8.6-1.4.7-.6,0-1.7,0-2.7,0,0-.4-.2-.9-.4-1.2,1.2.1,2.3.1,2.7.1s.6,0,.8-.3c.6-.6.9-3.4,1.1-10.8h-4.8c-.5,1.2-1.1,2.4-1.7,3.2-.2-.2-.7-.5-1-.7,1.2-1.6,2.2-4.1,2.8-6.6l1.2.3c-.2.9-.5,1.8-.8,2.7h5.5v.6ZM844.5,718.5c-.6-1.1-1.8-2.9-2.8-4.2l.9-.5c1.1,1.3,2.3,3,2.9,4.1l-1,.6Z"/>
          <path class="cls-24" d="M857.1,716.8l.2,1.1c-1.9.9-3.9,1.8-5.5,2.5l-.5-1.2c.7-.3,1.6-.6,2.5-1v-5.8h-2.2v-1.1h2.2v-4.2h1.1v4.2h2v1.1h-2v5.3l2.1-.9ZM865.6,721.9c1.1,0,1.3-.5,1.4-2.6.3.2.7.4,1.1.5-.2,2.5-.6,3.3-2.4,3.3h-4.6c-2,0-2.6-.5-2.6-2.3v-5.9l-1.5.7-.5-1.1,2-.8v-5h1.1v4.5l2.6-1.1v-5.1h1.1v4.6l2.9-1.2.9.3v.2c-.3,2.6-.6,5.9-1.1,8l-1-.3c.3-1.7.6-4.5.7-6.8l-2.5,1.1v6.7h-1.1v-6.3l-2.6,1.1v6.4c0,1,.2,1.2,1.5,1.2h4.5Z"/>
          <path class="cls-24" d="M883.8,721.4c.9,0,2.3,0,3-.2,0,.3.1.9.2,1.2-.5.1-1.8.1-3.2.1h-8.1c-2.7,0-4-.9-4-3.4v-10.3h-.7v-1.1h15.2v1.1h-13.3v10.4c0,1.5.7,2.2,2.7,2.2h8.3ZM874.3,715.4h4.7v4.6h-4.7v-4.6ZM875.3,719.1h2.6v-2.8h-2.6v2.8ZM883,714h-6.7v-4h6.7v4ZM881.8,711h-4.3v2.2h4.3v-2.2ZM885.2,720h-4.9v-4.6h4.9v4.6ZM884.1,716.2h-2.7v2.8h2.7v-2.8Z"/>
          <path class="cls-24" d="M896.4,717.7c1.4-.6,2.2-1.5,2.3-2.8-.1,0-.2,0-.3,0-.7,0-1.3-.4-1.3-1.2s.6-1.2,1.3-1.2,1.5.8,1.5,2c0,1.9-1.2,3.4-3.1,4.1l-.4-.9Z"/>
          <path class="cls-24" d="M925.9,721.4v1.2h-16.1v-1.2h5.5v-9.7h-5v-1.2h10.6l-.9-.3c.6-.9,1.4-2.3,1.9-3.4l1.3.4c-.6,1.1-1.4,2.4-2.1,3.3h4.3v1.2h-5.1v9.7h5.6ZM912.2,713.6c.9,1.8,1.7,4.2,1.9,5.8l-1.2.3c-.2-1.6-.9-4-1.8-5.8l1.1-.3ZM914.5,710.5c-.3-.9-1.1-2.3-1.8-3.2l1.1-.4c.8,1,1.5,2.3,1.9,3.1l-1.1.5ZM916.4,721.4h2.6v-9.7h-2.6v9.7ZM921.2,719.3c.7-1.5,1.6-4.1,2.1-5.9l1.3.3c-.6,2-1.5,4.4-2.2,5.9l-1.1-.3Z"/>
          <path class="cls-24" d="M934.3,719.9h-3.9v1.4h-1.1v-13.2h5.1v11.8ZM930.4,709.2v4.2h2.8v-4.2h-2.8ZM933.2,718.8v-4.3h-2.8v4.3h2.8ZM940.5,710.2v2.5h4v1.1h-1.6v2.1h2.2v1.1h-2.2v5.1c0,.7-.2,1.1-.7,1.3-.5.2-1.4.2-2.9.2,0-.3-.2-.8-.4-1.1,1.1,0,2.2,0,2.5,0,.3,0,.4,0,.4-.4v-5h-6.9v-1.1h6.9v-2.1h-6.2v-1.1h3.8v-2.5h-4.6v-1.1h4.6v-2.2h1.2v2.2h4.6v1.1h-4.6ZM936.9,717.6c.9.9,1.9,2.3,2.4,3.1l-1,.7c-.4-.9-1.4-2.2-2.3-3.2l1-.6Z"/>
          <path class="cls-24" d="M963.5,709.7v3.8h-1.2v-2.7h-12.6v2.7h-1.2v-3.8h6.9v-2.9h1.2v2.9h6.8ZM962.4,721.3c0,.7-.1,1-.7,1.2-.6.2-1.5.2-2.9.2,0-.3-.3-.8-.4-1.1,1.1,0,2.1,0,2.4,0,.3,0,.4,0,.4-.3v-2.7h-4.4v4.8h-1.2v-4.8h-4.7v4h-1.2v-5.1h5.9v-1.6h-4.3v-3.8h9.5v3.8h-4v1.6h5.6v3.8ZM951.1,707c.6.7,1.3,1.6,1.6,2.2l-1.1.5c-.3-.6-.9-1.5-1.5-2.2l1.1-.5ZM952.4,715h7.1v-1.9h-7.1v1.9ZM962,707.5c-.6.8-1.3,1.7-1.8,2.2l-1-.4c.5-.6,1.2-1.6,1.6-2.3l1.2.5Z"/>
          <path class="cls-24" d="M760.4,748.9c-.3,1.6-.9,3.4-1.5,4.7.4.2.8.6,1.5,1,1.3.8,2.9.9,5.1.9s5.3-.2,7.3-.3c-.2.3-.3.9-.4,1.3-1.3,0-4.8.2-7,.2s-4-.2-5.3-1c-.7-.5-1.4-1.1-1.8-1.1s-1,1.1-1.6,2.3l-.8-1.1c.6-.9,1.3-1.7,1.8-2.1.6-1.1,1-2.5,1.3-3.9h-2.4c.5-1.1,1.1-2.7,1.6-4.1h-2.1v-1.1h3.7c-.5,1.3-1.1,2.9-1.6,4.1h1.5s.6.2.6.2ZM758,743.6c-.2-.8-.6-2-.9-3l1.1-.3c.3.9.7,2.1,1,2.9l-1.2.4ZM764.7,748.2c-.8,1.8-2.3,3.8-3.5,4.9-.2-.3-.6-.7-.9-.9,1.2-.9,2.6-2.8,3.4-4.4l1,.4ZM765.9,747.2h-5v-1.1h5v-5.7h1.2v5.7h5.2v1.1h-5.2v7.2h-1.2v-7.2ZM763.5,745.2c-.4-.9-1.3-2.5-2-3.7l1-.4c.7,1.1,1.7,2.6,2.1,3.6l-1.1.5ZM769,747.9c1.2,1.4,2.7,3.4,3.4,4.6l-.9.7c-.7-1.2-2.1-3.3-3.3-4.7l.9-.6ZM771.6,741.4c-.7,1.3-1.5,2.8-2.1,3.8l-.9-.4c.7-1,1.5-2.7,1.9-3.8l1.2.5Z"/>
          <path class="cls-24" d="M783.4,750.3l-8,.9v-1.1c1.9-.2,5-.5,8-.8v1ZM775.4,755.7c.7-.9,1.3-2.4,1.7-3.6l1.1.4c-.4,1.2-.9,2.7-1.7,3.7l-1.1-.6ZM789.7,744.7c-.6,1.5-1.5,2.9-2.5,4.1.8,1.1,1.7,1.6,2.5,1.6.5,0,.7-.6.8-2.3.3.2.7.5,1,.6-.2,2.3-.7,2.9-1.9,2.9s-2.3-.7-3.3-1.9c-.7.7-1.5,1.3-2.3,1.7-.2-.2-.6-.6-.9-.8.9-.5,1.7-1.1,2.5-1.9-.8-1.3-1.5-3.1-1.9-5.1h-8.3v-1.1h8.2c-.1-.7-.2-1.5-.2-2.3h1.2c0,.8.1,1.6.2,2.3h4c-.6-.5-1.7-1.2-2.6-1.5l.7-.7c1,.3,2.2,1,2.8,1.6l-.6.7h2.2v1.1h-6.2c.3,1.6.9,3,1.5,4.2.9-1,1.5-2.1,2-3.3l1.1.3ZM776.7,748.3v-3.6h5.7v3.6h-5.7ZM777.9,747.4h3.5v-1.8h-3.5v1.8ZM785.7,755.4c.9,0,1.1-.2,1.1-1.8.3.2.7.4,1.1.4-.2,2-.6,2.5-2.1,2.5h-4.2c-1.9,0-2.5-.3-2.5-1.6v-2.6h1.2v2.6c0,.5.2.6,1.3.6h4ZM782.4,751.2c1.1.5,2.5,1.4,3.2,2.1l-.8.8c-.6-.7-1.9-1.6-3.1-2.2l.7-.7ZM789.2,752.1c.9,1.1,1.8,2.7,2.2,3.7l-1.2.4c-.3-1-1.2-2.6-2.1-3.7l1.1-.4Z"/>
          <path class="cls-24" d="M803.2,740.2c0,.6,0,1.5-.1,2.6.3,2.1,1.4,9.8,7.8,12.7-.3.3-.7.7-.9,1-4.7-2.2-6.6-6.9-7.5-10.3-.8,3.7-2.7,8-7.3,10.4-.2-.3-.6-.7-.9-.9,7.6-3.8,7.5-12.8,7.6-15.5h1.3Z"/>
          <path class="cls-24" d="M817.9,740.6c-.4,1.2-.9,2.4-1.4,3.6v12.6h-1.2v-10.4c-.6,1-1.2,1.9-1.8,2.6-.1-.3-.4-.9-.7-1.2,1.6-1.8,3.1-4.6,3.9-7.5l1.1.3ZM823.1,747.7h-3.7v8.9h-1.1v-15.4h4.8v6.5ZM819.4,742.2v1.8h2.7v-1.8h-2.7ZM822.1,746.8v-1.9h-2.7v1.9h2.7ZM829.2,755.1c0,.8-.2,1.2-.8,1.4-.6.2-1.6.2-3.3.2,0-.3-.3-.9-.5-1.2,1.3,0,2.6,0,2.9,0,.4,0,.5-.1.5-.5v-7.3h-3.9v-6.5h5v13.8ZM825.2,742.2v1.8h2.9v-1.8h-2.9ZM828.1,746.8v-1.9h-2.9v1.9h2.9Z"/>
          <path class="cls-24" d="M840,751.5c-2.5,1.2-5.3,2.4-7.3,3.3l-.4-1.2c.7-.3,1.6-.6,2.5-1l-.3-11.4h1.2s.3,10.9.3,10.9c1.2-.5,2.5-1.1,3.7-1.7l.3,1.2ZM848.1,756.7c-.9-1.3-2.6-3.2-4.2-4.9-1.4,2.2-3.5,3.8-6.4,5-.2-.2-.7-.8-.9-1,6.3-2.3,8.3-6.7,9.1-14.6h1.3c-.4,4.1-1.1,7.2-2.4,9.6,1.7,1.6,3.6,3.7,4.6,5l-1,.9ZM841.1,747.4c-.5-1.3-1.7-3.1-2.8-4.4l1-.5c1.2,1.3,2.4,3.1,2.9,4.3l-1.1.6Z"/>
          <path class="cls-24" d="M867.5,749.9s0,.4,0,.5c-.3,3.8-.7,5.3-1.2,5.8-.3.3-.6.4-1.1.5-.5,0-1.3,0-2.2,0,0-.3-.1-.8-.3-1.1.9,0,1.8,0,2.1,0s.5,0,.7-.1c.4-.4.7-1.6,1-4.6h-10.9c-1,.9-2.1,1.6-3.3,2.3-.1-.3-.4-.8-.7-1,3.4-1.8,6-4.6,7.8-7.8h-6.6v-1.1h3.7c-.3-.7-.9-1.9-1.5-2.7l1-.4c.6.8,1.3,1.9,1.5,2.7l-1,.4h3.3c.5-1,.9-2.1,1.3-3.2l1.2.4c-.3,1-.7,1.9-1.2,2.8h3.7c-.2,1.1-.4,2.3-.6,3.3h2.1c-.2,1.1-.4,2.3-.6,3.3h1.8ZM852.3,755.9c1.1-.9,1.8-2.3,2.1-3.8l1,.3c-.4,1.5-1,3.1-2.2,4.1l-.9-.6ZM864.6,749.9c.1-.6.3-1.5.4-2.2h-6.6c-.6.8-1.2,1.5-1.9,2.2h8.1ZM857.7,752.5c.3,1,.5,2.4.5,3.3l-1.1.2c0-.9-.1-2.3-.5-3.3h1ZM860.5,744.4c-.4.7-.8,1.5-1.3,2.2h3.9c.1-.6.3-1.4.4-2.2h-3ZM860.4,752.2c.5.9.9,2.1,1,2.9l-1,.3c-.1-.8-.5-2-1-2.9l.9-.2ZM863.5,754.5c-.2-.7-.8-1.7-1.4-2.5l.8-.3c.6.7,1.2,1.7,1.4,2.4l-.9.4Z"/>
          <path class="cls-24" d="M885.1,742.7v14h-1.3v-.9h-9.8v1h-1.2v-14.1h4.5c.3-.8.6-1.8.8-2.5l1.4.2c-.3.8-.6,1.6-.9,2.3h6.6ZM874,743.8v2.9h9.8v-2.9h-9.8ZM874,747.8v2.8h9.8v-2.8h-9.8ZM883.8,754.6v-2.8h-9.8v2.8h9.8Z"/>
          <path class="cls-24" d="M902.4,755.1c1.9,0,2.3-.5,2.5-3.3.3.2.9.4,1.2.5-.3,3.2-.9,4.1-3.7,4.1h-7c-2.8,0-3.7-.4-3.7-2.4v-6.8h10.9v-4.7h-11.1v-1.2h12.4v8.3h-1.3v-1.2h-9.7v5.6c0,.9.4,1.2,2.4,1.2h7.1Z"/>
          <path class="cls-24" d="M925.1,754.7v1.2h-16.2v-1.2h2.5v-8.6h1.2v8.6h4.1v-12h-7.2v-1.2h14.9v1.2h-6.4v5h5.8v1.2h-5.8v5.9h7Z"/>
          <path class="cls-24" d="M934,744.2c-.6,1.3-1.3,2.6-2.2,3.7v8.8h-1.2v-7.3c-.7.7-1.4,1.4-2.2,1.9-.1-.3-.4-.8-.6-1.1,2.1-1.5,3.7-3.7,4.9-6.1h-4.5v-1.2h5c.4-.9.7-1.9,1-2.9l1.2.3c-.3.9-.6,1.7-.9,2.5h9.5v1.2h-10ZM943.9,755.2v1.1h-10.9v-1.1h4.9v-5.3h-4.1v-1.1h4.1v-3.6h1.2v3.6h4.2v1.1h-4.2v5.3h4.9Z"/>
          <path class="cls-24" d="M947.6,748.9h6.3v7.7h-1.2v-.8h-4v1h-1.1v-7.9ZM948.8,750v4.5h4v-4.5h-4ZM960.1,746.9h-9.8v-5.9h9.8v5.9ZM958.8,742.1h-7.4v3.6h7.4v-3.6ZM962.8,748.9v7.7h-1.2v-.9h-4.4v1h-1.2v-7.9h6.7ZM961.6,754.6v-4.5h-4.4v4.5h4.4Z"/>
          <path class="cls-24" d="M757.8,785.6v1.4h-1.1v-11.9h4.6v10.5h-3.5ZM757.8,776.3v8.1h2.4v-8.1h-2.4ZM768.1,782c1,2.4,2.7,4.7,4.5,5.9-.3.2-.7.7-.9,1-1.5-1.2-3-3.4-4.1-5.7v6.8h-1.2v-6.7c-1.2,2.4-2.9,4.5-4.8,5.7-.2-.3-.5-.7-.8-.9,2-1.1,3.9-3.5,5.1-6h-3.9v-1.1h4.5v-3.2h-3.7v-1.1h3.7v-3h1.2v3h4v1.1h-4v3.2h4.8v1.1h-4.3Z"/>
          <path class="cls-24" d="M780.4,773.9c-.5,1.4-1.1,2.7-1.8,4v12.2h-1.2v-10.2c-.5.8-1.1,1.5-1.6,2.1-.1-.3-.5-.9-.7-1.2,1.7-1.8,3.2-4.5,4.1-7.3l1.1.3ZM791.7,788.2v1.2h-12v-1.2h5.5v-3.2h-4.4v-1.1h4.4v-2.2h1.2v2.2h4.4v1.1h-4.4v3.2h5.3ZM785.2,777.1h-4v-1.1h4v-2.5h1.2v2.5h4.1v1.1h-4.1v2.7h4.9v1.1h-11v-1.1h4.9v-2.7Z"/>
          <path class="cls-24" d="M800.5,777.3c-.6-.6-1.7-1.4-2.6-2.1-.9,1.2-2.1,2.4-3.3,3.2,0-.3-.4-.9-.6-1.1,1.5-.9,2.9-2.4,3.8-3.9l1,.4c-.1.2-.3.4-.4.6.9.6,2.1,1.5,2.7,2l-.7.9ZM799,785.4c.7,1.2,1.5,2.7,1.9,3.6l-.9.5c-.2-.4-.4-.9-.7-1.5-3.5,1.5-4,1.7-4.3,2,0-.3-.3-.8-.4-1.1.3-.1.8-.3.8-1v-9h4.8v6h-3.6v3.2l2.5-.9c-.3-.5-.5-1-.8-1.5l.9-.4ZM796.4,779.9v1.5h2.6v-1.5h-2.6ZM799.1,784v-1.7h-2.6v1.7h2.6ZM796.5,776.9h3.1v.9h-3.1v-.9ZM805.1,780.1c-.3.5-.6,1.1-.9,1.5h5.3v7.2c0,.6-.1.9-.6,1.1-.5.2-1.2.2-2.4.2,0-.3-.1-.7-.3-1,.8,0,1.6,0,1.8,0,.2,0,.3,0,.3-.3v-2.4c-1.5.5-3,.9-4.2,1.3l-.3-1c1.2-.3,2.8-.7,4.5-1.1v-3.1h-4.4v2.3c0,1.6-.2,3.7-1.3,5.2-.2-.2-.6-.6-.9-.7,1-1.4,1.1-3.1,1.1-4.5v-1.6c-.6.6-1.2,1.1-1.8,1.6,0-.2-.3-.8-.5-1.1,1.3-.9,2.5-2.2,3.4-3.7h-3v-1h3.5c.2-.5.5-1.1.6-1.7l1,.3c-.1.5-.3,1-.5,1.4h5.2v1h-5.7ZM809.4,778.2c-.8-.6-1.9-1.2-3.2-1.8-1.5.7-3.1,1.2-4.5,1.6-.1-.2-.5-.7-.7-.9,1.3-.3,2.8-.7,4.1-1.3-1.2-.5-2.5-1-3.7-1.4l.6-.7c1.3.4,2.8,1,4.2,1.6,1-.5,1.9-1.1,2.6-1.7l.9.4c-.7.6-1.5,1.2-2.5,1.7,1.1.5,2.1,1.1,2.8,1.6l-.7.9ZM804.5,783.5c1.2.3,2.6.7,3.4,1.2l-.4.7c-.8-.4-2.2-1-3.4-1.3l.4-.7Z"/>
          <path class="cls-24" d="M820.1,784.3c1.4-.6,2.2-1.5,2.3-2.8-.1,0-.2,0-.3,0-.7,0-1.3-.4-1.3-1.2s.6-1.2,1.3-1.2,1.5.8,1.5,2c0,1.9-1.2,3.4-3.1,4.1l-.4-.9Z"/>
          <path class="cls-24" d="M838.7,773.9c-.5,1.4-1.2,2.7-1.9,3.9v12.2h-1.2v-10.4c-.6.9-1.3,1.7-2,2.4-.1-.3-.5-.9-.7-1.2,1.8-1.8,3.6-4.5,4.6-7.3l1.1.4ZM849.9,788.2v1.1h-11.9v-1.1h11.9ZM848.3,785.7h-8.8v-10.9h8.8v10.9ZM847,775.9h-6.3v3.7h6.3v-3.7ZM847,780.8h-6.3v3.8h6.3v-3.8Z"/>
          <path class="cls-24" d="M868.7,778.5v.9h-3v1.6h-10.6l.2-1.6h-2.9v-.9h3l.2-1.6h10.3v1.6c-.1,0,2.8,0,2.8,0ZM859.4,788.2c-1.5.8-3.9,1.5-5.9,1.8-.1-.3-.5-.6-.7-.9,1.9-.3,4.4-1,5.5-1.6l1,.7ZM854.1,777.9h-1.1v-2.8h7.1c-.2-.5-.6-1-.9-1.4l1.1-.3c.4.5.8,1.2,1.1,1.7h6.7v2.8h-1.1v-1.8h-12.8v1.8ZM866.4,787.5h-11.5v-5.6h11.5v5.6ZM865.1,782.7h-9.1v.9h9.1v-.9ZM865.1,784.3h-9.1v.9h9.1v-.9ZM865.1,785.9h-9.1v.9h9.1v-.9ZM856.3,780.3h3.6c0-.3,0-.6.1-.9h-3.6v.9ZM856.6,777.7v.9c-.1,0,3.4,0,3.4,0,0-.3,0-.6,0-.9h-3.5ZM864.5,780.3v-.9c0,0-3.5,0-3.5,0,0,.3,0,.7-.1.9h3.6ZM864.7,777.7h-3.6v.9c0,0,3.5,0,3.5,0v-.9ZM862.4,787.6c2.1.5,4.3,1.2,5.7,1.7l-.8.8c-1.3-.5-3.5-1.2-5.6-1.8l.6-.7Z"/>
          <path class="cls-24" d="M877,774.6c-.5,1.5-1.2,3.3-1.8,4.7,1.3,1.5,1.6,2.8,1.6,4s-.2,1.7-.7,2.1c-.2.2-.6.3-.9.3-.4,0-.8,0-1.2,0,0-.3-.1-.7-.3-1.1.4,0,.8,0,1.1,0,.2,0,.4,0,.6-.2.3-.2.4-.7.4-1.3,0-1-.3-2.3-1.7-3.8.5-1.3,1.1-2.9,1.5-4.1h-2.5v14.7h-1.1v-15.8h4.2c0,0,.8.4.8.4ZM879.6,781c-.6.7-1.3,1.2-2,1.7-.1-.2-.4-.6-.7-.8,1.2-.7,2.3-1.9,3.2-3.3-.4-.5-1.1-1.1-1.7-1.5-.4.6-.9,1.1-1.3,1.6-.2-.2-.6-.5-.8-.6,1.3-1.1,2.3-2.7,2.9-4.5l1,.2c-.1.4-.3.8-.5,1.2h2.2s.6.2.6.2c-.5,2.3-1.5,4.2-2.7,5.7h5.5v1h-5.7v-.8ZM879.4,779.6c-1,.2-1.8.3-2.7.4v-.9c.7,0,1.6-.2,2.7-.3v.8ZM880.3,785.9c-.7,1.2-1.7,2.5-2.5,3.4-.2-.2-.7-.5-1-.7.9-.8,1.8-2,2.4-3.1l1.1.4ZM883,784.6v5.5h-1.1v-5.5h-4.1v-1h9.3v1h-4.1ZM879.2,775.8c0,.2-.2.4-.3.5.6.4,1.2.9,1.7,1.4.3-.6.5-1.3.7-1.9h-2.1ZM887.7,774.8c-.6,1.5-1.5,3.1-2.5,4.1.8,1.2,1.7,2.3,2.8,2.9-.2.2-.6.6-.7.9-2.1-1.4-3.8-4.3-4.7-7.3l.7-.2v-.8h3.7c0,0,.7.3.7.3ZM883.6,775.4c.3.9.7,1.9,1.1,2.7.6-.8,1.2-1.8,1.6-2.7h-2.7ZM885.3,785.4c.9,1,2.1,2.3,2.7,3.1l-.9.6c-.6-.8-1.7-2.2-2.6-3.2l.9-.5Z"/>
          <path class="cls-24" d="M906.8,788v1.2h-16.2v-1.2h6.9v-14.2h1.3v5.6h6.9v1.2h-6.9v7.4h8.1Z"/>
          <path class="cls-24" d="M915.3,777.3c-.1.3-.2.5-.3.8,1.5,1.3,3.3,2.9,4.2,4l-.6,1c-.8-1.1-2.5-2.7-4-4.1-1.1,2-2.6,3.8-4.4,5-.2-.3-.5-.7-.8-.9,2.2-1.3,4-3.6,5-6.2l1,.4ZM914.1,774.4c-.8,1.8-2.2,3.4-3.6,4.5-.1-.2-.5-.7-.8-.9,1.3-1,2.6-2.4,3.3-3.9l1.1.3ZM911.4,783.1h6.5v6.8h-1.1v-1.2h-4.3v1.3h-1.1v-6.9ZM912.5,784.2v3.5h4.3v-3.5h-4.3ZM916.4,773.9c1.1,1.2,2.3,2.7,2.9,3.8l-.9.7c-.5-1.1-1.7-2.7-2.8-3.9l.8-.6ZM925.3,785.3c0,.7-.1,1.1-.7,1.3-.5.2-1.4.3-2.6.3,0-.4-.2-.9-.4-1.3,1,0,1.9,0,2.2,0,.3,0,.3,0,.3-.3v-9.6h-3.1v14.3h-1.2v-15.5h5.5v10.7Z"/>
          <path class="cls-24" d="M933.9,785.6h-3.6v1.4h-1.1v-11.9h4.7v10.5ZM930.4,776.3v8.1h2.5v-8.1h-2.5ZM937.2,777.5c-.5,1.1-1.2,2.1-1.9,2.9-.2-.2-.7-.6-1-.8,1.4-1.5,2.5-3.7,3.1-6.1l1.2.3c-.2.9-.6,1.7-.9,2.6h7.1v1.1h-7.7ZM943.1,788.6c.8,0,1-.4,1.1-2.7.3.2.7.3,1.1.4-.2,3-.7,3.5-2.2,3.5h-5.2c-1.8,0-2.7-.6-2.7-1.7s.3-1.9,6.2-6.9h-5v-1.1h6.8s.8.4.8.4c0,0-.1.1-.2.2-6.9,5.7-7.3,6.6-7.3,7.2s.5.7,1.3.7h5.3Z"/>
          <path class="cls-24" d="M956.2,776v3.3l.2-.2c2.2,1.1,5.1,2.7,6.5,3.8l-.8,1.1c-1.3-1-3.8-2.6-5.9-3.7v9.7h-1.3v-14h-7v-1.2h16v1.2h-7.7Z"/>
          <path class="cls-24" d="M759.4,814.7c-.7-.5-2.2-1.4-3.3-2l.7-.9c1.1.5,2.6,1.3,3.3,1.8l-.7,1ZM760.8,817.2c-.9,1.9-2.1,4.2-3.1,5.9l-1.1-.8c.9-1.4,2.3-3.8,3.3-5.9l.9.7ZM760.4,809.9c-.8-.5-2.3-1.4-3.4-2l.7-.9c1.1.5,2.6,1.4,3.4,1.9l-.7,1ZM763.4,812.8v.9c0,2.9-.3,7-2.4,9.7-.2-.2-.7-.5-1-.6,2-2.6,2.2-6.3,2.2-9.1v-5.9h9.4v5h-8.2ZM763.4,808.8v2.8h7v-2.8h-7ZM770.3,822.1c.9,0,1-.4,1.1-2.9.3.2.7.4,1.1.5-.2,2.7-.5,3.5-2.1,3.5h-3.5c-1.7,0-2.2-.4-2.2-1.9v-7.6h1.1v2.6h5.9v1.1h-5.9v4c0,.7.2.8,1.1.8h3.3Z"/>
          <path class="cls-24" d="M791.5,821.4v1.2h-16.2v-1.2h7.4v-7.5h-6.3v-1.2h6.3v-5.8h1.3v5.8h6.4v1.2h-6.4v7.5h7.5Z"/>
          <path class="cls-24" d="M805.5,816.7l-1.1.9c-1.2-1.5-2.7-3-4-4.1l1-.9c1.3,1.1,2.9,2.7,4.1,4.1Z"/>
          <path class="cls-24" d="M830.7,821.6v1.1h-9.1v-.9l-1,.3c0-.3,0-.7-.2-1.1-2.2.3-4.5.7-6.2,1l-.2-1.2c.9-.1,2-.3,3.2-.5v-3.9h-1.6v.9h-1v-7.4h2.6v-3.2h1.1v3.2h2.7v6.5h-2.7v3.7l1.9-.3c-.2-.7-.4-1.5-.7-2.1l.9-.2c.5,1.2,1,2.8,1.1,3.9h1.4v-13.1c2.1-.4,4.6-1,6-1.5l1,.9c-1.6.6-3.8,1.1-5.9,1.5v3.8h6.2v1.1h-1.9v7.4h2.2ZM815.8,815.6h1.7v-4.5h-1.7v4.5ZM820.1,811.1h-1.7v4.5h1.7v-4.5ZM824.2,821.6h3.2v-7.4h-3.2v7.4Z"/>
          <path class="cls-24" d="M839,817.6c.5,1.4,1.1,3.3,1.3,4.5l-.9.3c0-.4-.2-.9-.3-1.3-2.1.4-4.2.7-5.7,1l-.2-1.1c.8-.1,1.9-.3,3-.4v-3.8h-1.4v.9h-.9v-7.4h2.3v-3.1h1v3.1h2.4v6.5h-2.4v3.7l1.7-.3c-.2-.7-.5-1.5-.7-2.2l.9-.3ZM834.7,815.6h1.5v-4.5h-1.5v4.5ZM838.6,811.1h-1.5v4.5h1.5v-4.5ZM845.8,815.7s0,.4,0,.5c-.3,4.3-.5,5.9-1,6.4-.3.3-.6.4-1.1.5-.4,0-1.1,0-1.9,0,0-.3-.1-.8-.3-1.1.8,0,1.5,0,1.8,0s.4,0,.6-.2c.3-.3.6-1.7.8-5.2h-4.1c.2-1.4.4-3.5.5-5.2h3.4v-3h-3.9v-1.1h5v5.1h-3.5c0,1-.2,2.1-.3,3h4ZM848.8,807.1v16.1h-1.1v-16.1h1.1Z"/>
          <path class="cls-24" d="M863.5,816.7l-1.1.9c-1.2-1.5-2.7-3-4-4.1l1-.9c1.3,1.1,2.9,2.7,4.1,4.1Z"/>
          <path class="cls-24" d="M888.6,817h-7.3v6.4h-1.3v-6.4h-7.6v-1.2h7.6v-4.4h-4.5c-.6,1.2-1.2,2.2-1.9,3-.2-.2-.8-.5-1.1-.7,1.4-1.5,2.6-3.9,3.3-6.4l1.2.3c-.2.9-.6,1.7-.9,2.6h4v-3.3h1.3v3.3h6.3v1.2h-6.3v4.4h7.3v1.2Z"/>
          <path class="cls-24" d="M897.9,821.3c-1.5.9-3.8,1.7-5.6,2.2-.2-.2-.6-.6-.9-.8,1.9-.4,4.1-1.1,5.5-1.8l1.1.5ZM907.8,819.9v.9h-16.4v-.9h4.7v-1.1h-3.9v-.9h3.9v-.9h1.2v.9h4.5v-.9h1.2v.9h4v.9h-4v1.1h4.8ZM897.1,810.5c-1.1.9-3.2,1.7-4.9,2.1-.2-.3-.5-.6-.7-.9,1.7-.3,3.7-.9,4.7-1.6l.8.4ZM898.9,809.9h-7.2v-.9h4.5c-.5-.5-1.4-1.1-2.1-1.5l.8-.6c.7.5,1.7,1.1,2.3,1.6l-.7.5h2.4v-2.2h1.2v2.2h7.2v.9h-7.2v2.2h-1.2v-2.2ZM893.8,812.5h11.6v4.4h-11.6v-4.4ZM894.9,814.3h4v-1h-4v1ZM894.9,816.1h4v-1.1h-4v1.1ZM897.3,819.9h4.5v-1.1h-4.5v1.1ZM904.2,813.3h-4.1v1h4.1v-1ZM904.2,815h-4.1v1.1h4.1v-1.1ZM902,820.8c2,.5,4.3,1.2,5.6,1.8l-1.1.7c-1.2-.6-3.2-1.3-5.3-1.9l.9-.7ZM906.8,812.6c-1.1-.5-3.4-1.3-5.1-1.8l.5-.7c1.6.5,3.9,1.2,5.1,1.7l-.5.8ZM905.2,807.3c-.7.6-1.6,1.2-2.3,1.6l-.8-.4c.7-.5,1.6-1.1,2.1-1.6l1.1.4Z"/>
          <path class="cls-24" d="M913.1,809.2c-.6.9-1.2,1.6-1.8,2.2-.2-.2-.6-.6-.9-.8,1.1-1,2.2-2.4,2.8-3.9l1.1.3c-.2.4-.3.8-.5,1.2h4.8v1.1h-3.6c.7.5,1.5,1.3,1.9,1.7l-.8.7c-.4-.5-1.2-1.4-1.9-1.9l.7-.5h-1.7ZM922.9,817.8h3.7v1h-3.7v3.2c0,.7-.2,1-.8,1.2-.6.2-1.6.2-3.2.2,0-.3-.2-.7-.3-1,1.3,0,2.4,0,2.7,0,.3,0,.4-.1.4-.4v-3.2h-11v-1h11v-1.3h1.2v1.3ZM926.9,808.2v1.1h-6c-.4.9-.9,1.6-1.5,2.2l-.2-.2v1h6.7v1.1h-6.7v1.7h5.7v1h-12.6v-1h5.7v-1.7h-6.6v-1.1h6.6v-1.2h1c-.2-.1-.4-.3-.5-.3,1-1,1.8-2.5,2.2-4l1.1.2c-.1.4-.3.8-.4,1.2h5.5ZM914.5,819.1c1.1.8,2.5,2,3.1,2.7l-.9.7c-.7-.7-2-2-3.1-2.8l.9-.6ZM922.8,809.2c.6.6,1.4,1.4,1.8,1.9l-.8.7c-.4-.5-1.1-1.4-1.7-2l.8-.6Z"/>
          <path class="cls-24" d="M936.2,816c-.8.3-1.6.5-2.3.8v6.7h-1.1v-6.3c-1.1.3-2.1.7-3.1.9l-.3-1.2c.9-.3,2.1-.6,3.4-1v-4.2h-1.7c-.2,1.1-.5,2-.8,2.8-.2-.1-.7-.4-.9-.6.7-1.5,1.1-3.8,1.3-6.1l1.1.2c-.1.9-.2,1.7-.4,2.5h1.5v-3.7h1.1v3.7h1.9v1.2h-1.9v3.9l2.2-.7v1.1ZM945.8,809.9s0,.5,0,.6c-.4,8.3-.8,11.1-1.6,12-.3.5-.7.6-1.2.7-.5,0-1.3,0-2.1,0,0-.4-.1-.9-.3-1.2.9,0,1.6,0,1.9,0s.5,0,.7-.3c.6-.7,1-3.4,1.4-10.7h-1c-.9,4.8-2.9,9.7-6,12.1-.2-.3-.7-.6-1-.7,3-2.2,5-6.7,5.9-11.3h-1.6c-.8,3.1-2.5,6.6-4.5,8.3-.3-.3-.6-.5-1-.7,1.9-1.5,3.6-4.6,4.4-7.6h-1.7c-.6,1.3-1.3,2.5-2.1,3.5-.2-.2-.7-.5-.9-.7,1.5-1.6,2.6-4.3,3.2-7l1.1.2c-.2,1-.5,2-.8,2.9h7.1Z"/>
          <path class="cls-24" d="M952.3,812.4c1.5,0,2.7,1.2,2.7,2.7s-1.2,2.7-2.7,2.7-2.7-1.2-2.7-2.7,1.3-2.7,2.7-2.7ZM952.3,817c1.1,0,1.9-.8,1.9-1.9s-.8-1.9-1.9-1.9-1.9.8-1.9,1.9.8,1.9,1.9,1.9Z"/>
        </g>
      </g>
    </g>
  </g>
</svg>