<?xml version="1.0" encoding="UTF-8"?>
<svg xmlns="http://www.w3.org/2000/svg" version="1.1" viewBox="0 0 1133.9 1020.5">
  <defs>
    <style>
      .cls-1, .cls-2, .cls-3, .cls-4, .cls-5, .cls-6, .cls-7, .cls-8, .cls-9, .cls-10, .cls-11, .cls-12, .cls-13, .cls-14, .cls-15, .cls-16, .cls-17, .cls-18, .cls-19, .cls-20, .cls-21, .cls-22, .cls-23 {
        stroke: #231f20;
      }

      .cls-1, .cls-2, .cls-3, .cls-10, .cls-15, .cls-16, .cls-18, .cls-19, .cls-20, .cls-23 {
        fill: none;
      }

      .cls-1, .cls-3, .cls-4, .cls-6, .cls-10, .cls-12, .cls-14, .cls-16, .cls-18, .cls-22, .cls-23 {
        stroke-linejoin: round;
      }

      .cls-1, .cls-3, .cls-4, .cls-6, .cls-15, .cls-17, .cls-18, .cls-23 {
        stroke-linecap: round;
      }

      .cls-1, .cls-16 {
        stroke-width: .8px;
      }

      .cls-2 {
        stroke-width: 2.5px;
      }

      .cls-2, .cls-5, .cls-7, .cls-8, .cls-9, .cls-11, .cls-13, .cls-15, .cls-17, .cls-19, .cls-20, .cls-21 {
        stroke-miterlimit: 10;
      }

      .cls-3, .cls-4, .cls-8, .cls-12, .cls-22 {
        stroke-width: 2px;
      }

      .cls-4, .cls-7, .cls-8, .cls-9, .cls-24, .cls-13, .cls-17 {
        fill: #fff;
      }

      .cls-5 {
        stroke-width: 6px;
      }

      .cls-5, .cls-25 {
        fill: #231f20;
      }

      .cls-6 {
        fill: #bbbdbf;
      }

      .cls-7, .cls-11, .cls-19 {
        stroke-width: 3px;
      }

      .cls-11, .cls-21 {
        fill: #ffdd15;
      }

      .cls-26 {
        fill: #8a5d3b;
      }

      .cls-12 {
        fill: #404041;
      }

      .cls-13 {
        stroke-width: 4px;
      }

      .cls-14, .cls-22 {
        fill: #cebed2;
      }

      .cls-18 {
        stroke-width: .5px;
      }
    </style>
  </defs>
  <!-- Generator: Adobe Illustrator 28.7.4, SVG Export Plug-In . SVG Version: 1.2.0 Build 166)  -->
  <g>
    <g id="Layer_2">
      <rect class="cls-24" x="-5323.1" y="-1850.9" width="8519.3" height="4668.3"/>
      <rect class="cls-11" x="28.3" y="28.3" width="1077.2" height="963.8" transform="translate(1133.9 1020.5) rotate(-180)"/>
      <rect class="cls-21" x="36.9" y="36.8" width="1060.2" height="946.8" transform="translate(1133.9 1020.5) rotate(-180)"/>
      <g>
        <g>
          <rect class="cls-2" x="1040.3" y="83.6" width="15.2" height="15.2"/>
          <polyline class="cls-2" points="1017.3 74.1 1047.9 74.1 1047.9 91.3 1065.1 91.3 1065.1 121.8"/>
          <rect class="cls-2" x="1055.5" y="74.1" width="9.5" height="9.5"/>
        </g>
        <g>
          <rect class="cls-2" x="1040.3" y="922.6" width="15.2" height="15.2"/>
          <polyline class="cls-2" points="1017.3 947.4 1047.9 947.4 1047.9 930.2 1065.1 930.2 1065.1 899.6"/>
          <rect class="cls-2" x="1055.5" y="937.8" width="9.5" height="9.5"/>
        </g>
        <g>
          <rect class="cls-2" x="78.3" y="83.6" width="15.2" height="15.2" transform="translate(171.9 182.5) rotate(-180)"/>
          <polyline class="cls-2" points="116.5 74.1 86 74.1 86 91.3 68.8 91.3 68.8 121.8"/>
          <rect class="cls-2" x="68.8" y="74.1" width="9.5" height="9.5" transform="translate(147.1 157.7) rotate(-180)"/>
        </g>
        <g>
          <rect class="cls-2" x="78.3" y="921.6" width="15.2" height="15.2" transform="translate(171.9 1858.4) rotate(-180)"/>
          <polyline class="cls-2" points="116.5 946.4 86 946.4 86 929.2 68.8 929.2 68.8 898.6"/>
          <rect class="cls-2" x="68.8" y="936.8" width="9.5" height="9.5" transform="translate(147.1 1883.2) rotate(-180)"/>
        </g>
        <rect class="cls-19" x="53.8" y="59.1" width="1026.2" height="902.3"/>
        <rect class="cls-20" x="121.5" y="2.8" width="890.9" height="1014.9" transform="translate(56.7 1077.2) rotate(-90)"/>
      </g>
    </g>
    <g id="Layer_1">
      <g>
        <rect class="cls-7" x="136" y="110.1" width="102.4" height="308"/>
        <rect class="cls-9" x="39.8" y="219.6" width="294.7" height="89.1" transform="translate(-77 451.3) rotate(-90)"/>
        <g>
          <path class="cls-25" d="M181.7,162.2v3.1c.4.3.9.6,1.5.8.7.3,1.5.9,2.5,1.7v1.7c-.6,1-1.3,1.5-2.3,1.7-.3-.1-.7-.3-1.2-.5h-.5c-.3,1.8-.3,3.6,0,5.5,3.2-4.6,5.9-9.3,8.3-13.9-1.9.6-3.1,1-3.6,1.5-.6.4-1.2.7-2,.8-1-.2-1.8-.9-2.3-2v-.3l.5-1c.4-.2.9-.5,1.3-.8,3.1-1.3,6.1-2.6,9.1-3.8,0-1.3,0-2.6-.2-4,0-.5-.1-1-.3-1.5-.7-1.5-.8-2.7-.5-3.5.6-.3,1.2-.4,1.8-.2l.2-.3c1.1.7,2.2,1.3,3.3,2,.1.1.3.2.5.3.1.4.3.8.7,1.2-.1.4-.2.8-.2,1.2-.2,1-.4,2-.7,3.1.8-.2,1.5-.5,2.3-.8l.3-.3c1.3,0,2.5.2,3.6.7.3.1.7.2,1,.3l.5.5c0,.3,0,.7.2,1-.2.4-.3.8-.3,1.2-.9,1-2,1.5-3.3,1.5s-3,.2-4.3.7c-.2.1-.4.3-.5.5-.1,1.1-.2,2.3-.3,3.5,0,.8.3,1.4,1,2,.6.6,1.2,1,1.8,1.5,2.5,1.8,5.2,4,7.9,6.6l.2.5v.5c-.7,1-1.6,1.5-2.8,1.5-.3-.1-.7-.1-1,0h-1.2l-.3.2h-1c-1.4-1.4-2.9-2.8-4.5-4.1-.1,2.9-.1,5.7,0,8.6v2.5c.1.3.3.7.5,1,0,.3,0,.6.2.8-.1,1.4-.9,2.2-2.5,2.3l-.3-.3c-.4.1-.9,0-1.3-.2-.1-.6-.6-1.1-1.3-1.7-1.2-.9-2.4-1.8-3.6-2.6-1.4-.8-2.1-1.5-2-2.1.4.1.9.2,1.3.3.7.2,1.3.4,2,.7,1.1.4,2,.6,2.8.5.3-4.6.3-9.3,0-13.9-.6.3-1.1,1-1.7,2.1-.4.7-.8,1.3-1.2,2-1.3,2.2-3.4,3.7-6.3,4.6-.8.2-1.4.5-1.8.8.1.9.2,2.6.2,5.1v1.5c-.3,0-.6,0-.8.2l-.2.3h-.2c-.7.5-1.3,1.2-2,1.8l-.5.2c-.7-.6-1.2-1.2-1.5-1.8-.2-.6-.6-1-1-1.5-.4-.4-.8-.9-1.2-1.3v-1.2c.2-.1.7,0,1.3.2.2.1.4.2.7.3.2-2.4.2-4.8,0-7.3-.4.2-.9.8-1.3,1.7-.3.6-.8,1.1-1.3,1.7-.4.3-.8.7-1.2,1-2,1.3-3.3,2.4-4,3.1-.3.3-.7.7-1.2,1.2h-.7c.1-.4.4-1.2,1-2.1,2.4-4.1,4.4-8.1,5.8-12.1.9-1.8,1.6-3.5,2.1-5.3-.8.3-1.7.8-2.6,1.5-2.2,1.5-4.4,1.3-6.6-.8,0-.9.5-1.5,1.7-2,2.8-1.5,5.6-3,8.4-4.3v-4c0-.7-.2-1.3-.5-2-.4-.8-.6-1.4-.5-1.8v-.3h.2l.2-.3c.7-.3,1.5-.3,2.6,0,.3.1.7.2,1,.3.3.1.6.3.8.5.8.3,1.3.7,1.5,1,.2.3.3.9.3,1.7s0,1.3-.2,2v.3h2.3c.3.1.7.2,1,.3.4.2.9.4,1.5.7.5.9.4,1.8-.5,2.6-.6.7-1.3,1-2.1,1s-1.5.1-2.1.3l-.2.3c0,.2,0,.4-.2.7-.1.4-.2.9-.2,1.3Z"/>
          <path class="cls-25" d="M178.7,190.9c1.5.8,2.5,1.4,3,2,.4.3.9.7,1.3,1-.3.4-.6,1-.7,1.8-.1.3-.2.7-.3,1.2-.2.2-.4.4-.5.7-.1.3-.2.6-.3.8.4.1.9.2,1.3.3.4.6.8,1.2,1,1.8-.2.2-.4.6-.5,1-.1.4-.4.9-1,1.3-.4.2-.8.4-1.2.7-.4,1.9-.7,2.9-.7,3,0,.3,0,.7-.2,1.2,0,.2,0,.4-.2.7l-.5.7c1.1-.7,2.1-1.3,3.1-2,0,.3,0,.6.2.8v2.5c-.2.2-.4.5-.5.8-.4.9-1,1.6-1.7,2.1-1,.9-1.2,2.5-.7,4.8v2.3c-.1,1.1,0,2.1.2,3,3-1.7,5.9-3.5,8.8-5.5-1.3-1.5-2.8-2.9-4.3-4-.2-.3-.4-.6-.5-.8-.1-.3-.2-.6-.3-.8v-.5c.1-.2.2-.4.3-.7l.3-.2c-.6-.7-.9-1.3-1.2-1.8.1-.4.2-.9.3-1.3.5.2,1,0,1.5-.5,1.2.3,2.6.3,4.1-.2,2-.7,3.9-1.3,5.6-1.8.2-.3.5-.7.8-1,.7-.1,1.3,0,2,.5h.3c.6.6.9.9,1.2,1.2.2.3.5.7.8,1,.7.6,1,1.1,1.2,1.7-.1.1-.2.3-.2.7-.7.8-1.2,1.6-1.5,2.5-.2.8-.6,1.5-1.2,2.3-.8,1.1-1.5,2.3-2.1,3.5h-.3c.7.4,1.2.9,1.7,1.5.3.1.7.3,1,.5,1.7,1,3.6,1.9,5.8,2.6,1.1.4,1.9,1,2.5,1.7.2.1.5.3.8.5l.2.2c-.3.5-.8,1-1.3,1.5-.6.4-1.2.7-1.8.8-.6.2-1.1.4-1.7.5l-.5-.2c-.2,0-.4,0-.7.2l-.3.3c-.4-.2-.9-.3-1.3-.2l-.2.5-.3-.2h-.2c-1.3-.6-2.6-1.5-4-2.8-1.3-1.3-2.6-2.6-4-3.8-.6.2-1.1.5-1.7.8-1.9,1.2-3.6,1.9-5.1,2l-.2.2c-.3-.1-.5,0-.5.2-.4-.1-.7,0-.7.2h-.5c-.6.4-.7.5-.5.3-.4.2-.8.3-1.2.3-.3.1-.7.2-1,.3.1.4.2.8.2,1.2.1.9,0,1.6-.2,2.1-.6.1-1,.3-1.5.5v.3l-.2.2h-.7l-.2-.3-.7.2c-.6-1-.9-1.5-1-1.7-.2-.6-.7-1-1.5-1.5-.7-.4-1.3-.9-1.8-1.3.1-.3.3-.6.5-.8l.7-.3c.5.1,1.1.1,1.7,0,.2-2.1.3-4.3.3-6.6-1.4,1.3-2.6,2.4-3.6,3.3-.4,0-1-.3-1.8-.8-2.2-1.3-3.3-2.5-3.3-3.5.2-.2.4-.5.7-.8.1-.2.4-.3,1-.3,1.1-.1,2-.4,2.8-1,1.1-.8,2.2-1.5,3.3-2.3.7-.4,1-1,1.2-1.7.1-1.5.2-3.1.2-4.6-.4.1-.8.3-1.2.5-.9.3-1.8.7-2.6,1-.8.3-1.5.2-2.1-.3-.7-.5-1.4-1-2.1-1.5l.2-.3c-.2-.2-.4-.5-.7-.8-.2-.4-.5-.8-.8-1.2.4-.5.7-1.1.8-1.7.2-.1.7-.1,1.3,0h1.5c.8.3,1.7.3,2.6,0,1.4-.4,2.5-.8,3.3-1.2-.1-1.4-.2-2.8-.3-4.1,0-.8-.2-1.3-.5-1.7l.2-.2c-.9-1-1.3-1.9-1.3-2.8.2-.1.4-.3.5-.5,0-.2,0-.4.2-.7,1.1-.1,2.3.1,3.6.7ZM193.1,190.8c.9-.2,1.7-.7,2.3-1.3.4.2.9.4,1.3.7.7.6,1.2.9,1.7,1,.7.2,1.2.5,1.5.8,0,.4,0,.8.2,1.2-.2.7-.4,1.3-.7,1.8-.2.4-.3.9-.3,1.3-.3,1.8-.4,2.9-.2,3.5.5,0,1.2,0,1.8-.2.4-.1.9-.2,1.5-.2,2,.3,3.2,1.2,3.6,2.5-.4.8-1,1.4-1.7,1.8-2.2.4-3.5.7-3.8.7-.9,0-1.7.1-2.3.3-.4-.1-.9-.3-1.5-.5-2.1-.7-3.1-2.5-3.1-5.5s0-3.4-.2-5.1c-.7,0-1.3.2-2,.5l-.3-.2c-.4.3-.7.7-.8,1.2.2.2.3.7.3,1.5.3,1.8.4,3.1.2,4.1-.1.7-.2,1.3-.3,1.8-.1.7-.3,1.2-.7,1.7l-.2.5c-.4.3-.9.6-1.3.8l-.5.5c-.2,0-.4,0-.7.2l-.3-.2c-.4-.5-.7-1.3-.7-2.1-.1-2.4-.3-4.9-.5-7.4l-.5-.2v-.5c-.4-.9-.4-1.8,0-2.6l.5-.5h1.5l.2-.3c2-.4,4-.9,5.9-1.5ZM194.6,208.9c-.8.2-1.5.4-2.3.7-1.8.7-2.6,1-2.5,1-1.4.2-2.2.6-2.3,1.2.3.1.6.2.8.3,1.2.9,2.4,1.8,3.5,2.6,1.3-1.9,2.3-3.8,2.8-5.8Z"/>
          <path class="cls-25" d="M207.5,264.6c-.6.3-1,.6-1.5.8-.3-.1-.7-.1-1,0l-.3-.3c-3.3-.6-6.6-.8-9.9-.8v-.3c-.4.1-.8.2-1.2.3h-1.3c-.3.1-.7.2-1.2.2-3.1.3-5,.7-5.8,1.2.1.3.2.7.2,1l.3.2c.2.9,0,1.7-.5,2.3-.3.4-.7.8-1.2,1.2-.3,0-.6,0-.8.2-.4,0-.9,0-1.3-.2-.4-.4-.8-.9-1.2-1.3-.1-.2-.3-.4-.5-.7l.2-.2c-.9-1.4-1.6-2.3-2.1-2.5-.6.2-1.1.4-1.7.7-.4.7-1,1.2-1.8,1.7-.6.8-1.2,1.3-1.8,1.5-.2.1-.5.3-.8.5-.2.1-.4.3-.7.5l-.3.3c-.3.1-.7.2-1,.3l-.5-.2-.3-.5c2.3-2.9,4.2-5.8,5.6-8.9-1-.8-1.9-1-2.6-.7-.4.2-.8.4-1.2.7l-.5-.2c-.9-1.1-1.2-2.1-.8-3l-.3-.5c.9-1.4,1.3-2.5,1.3-3.3-.8.3-1.3.8-1.7,1.3l-.3.2c-1.1-.2-1.8-1-2.1-2.3-.1-.2-.2-.4-.3-.7.3-.8.2-1.5-.3-2.1.1-.2.2-.4.3-.7l.5.2-.2-.5h.2c.1-.2.2-.4.3-.7.7.3,1.5.3,2.5,0,1.8-.4,2.9-.7,3.5-.8,1.3-4.7,1.9-7.9,1.7-9.6v-1l-.2-.3c0-.2.1-.4.3-.7l-.2-.3.2-.3c-.1-.2-.2-.5-.3-.8l.5.3v-.7l.3-.2h.3c.3.2.7.4,1,.7.2.1.4.2.7.3.8.6,1.3,1.1,1.7,1.7.6.7.8,1.4.8,2.3-.2.7-.5,1.4-.8,2.1.1.3.2.6.2.8l-.2.5c0,.2,0,.6-.2,1.2-.1.6-.2,1.1-.3,1.7l-.3.7c2.1-.9,4.1-1.4,5.9-1.7.3.6.6,1,.8,1.5v.5c-.3.8-.8,1.4-1.5,1.8-.4.3-.8.6-1,.8.4.3.8.7,1.2,1,.1.4.3.8.5,1.2l-.2.3c-.1.3-.3.7-.5,1.2,0,.8-.3,1.9-.8,3.3-.9,2-1.4,3.1-1.5,3.5l.5.3c.1.2.3.4.5.7.2.3.4.6.7.8,1-.2,2-.4,3-.7-.1-.7-.1-1.7,0-3.1.3-4.7.4-9.5.3-14.2-.9-.8-1.3-1.9-1.3-3.3v-1.2l.5-.5c.2-.1.4-.2.7-.3v-.7c.9.2,1.8.2,2.8,0,2.6-.4,5.2-.9,7.8-1.5v-.3c.9,0,2,.4,3.5,1.2.7.3,1.3.7,2,1.2l.2.3.3.2c.3,1,.2,2.1-.3,3.5-.4,1-.7,1.9-.7,2.8s0,1.4-.2,2.1v.8c-.2,3.5-.3,5.4-.3,5.6.1.4.2.9.2,1.3-.1.3-.1.7,0,1-.2,2.1-.3,3.4-.2,3.8,1.7-.1,3.1.1,4.5.7,1.5.8,2.1,1.1,1.8,1,.2.4.4.8.5,1.2,0,.4,0,.8-.2,1.2-.1.4-.2.7-.3.7ZM178.4,251.4c-.7.4-1.3.9-2,1.5-.1.4-.2.9-.3,1.5-.2.7-.3,1.1-.2,1.3l-.2.3c.3.3.7.7,1.2,1,.2-.5.4-1,.5-1.5.4-1.3.9-2.7,1.3-4.1h-.3ZM195.4,255.4c-1.5.2-3.1.4-4.6.7-.1.9-.2,1.8-.3,2.8-.2.9-.3,1.5-.3,1.8,1.9-.2,3.7-.4,5.5-.5,0-1.5,0-3.1-.2-4.8ZM195.9,239.8c-.7-.1-1.8,0-3.5.3-.8.1-1.3.3-1.7.5.3.4.6.9.7,1.5,0,.4,0,.9.2,1.3-.4.7-.6,1.4-.5,2.1,2.1-.4,3.2-.7,3.5-.7h1.2c.1-1.7.2-3.2.3-4.8l-.2-.3ZM195.6,248.4c-1.7.2-3.2.6-4.6,1-.1,1.3-.2,2.6-.2,4,2.5-.7,4.1-.9,4.6-.8,0-1.4,0-2.8.2-4.1Z"/>
        </g>
      </g>
      <g>
        <rect class="cls-13" x="328.8" y="80.6" width="476.3" height="859.2"/>
        <rect class="cls-21" x="342.1" y="94" width="449.7" height="832.6"/>
        <circle class="cls-8" cx="566.9" cy="275.7" r="166.5"/>
      </g>
      <g>
        <g>
          <path class="cls-22" d="M712.9,549.5c-.4-6.3-1.1-15-4.6-28.1-1.1-4.1-3.2-10.3-3.2-10.3h0c-1.1-4.5-2.8-10.5-5.5-18.7-5-15.1-12.2-55.5-16.2-66.1-4-10.7-9.5-21.3-12.2-29.5-2.7-8.2-9.1-59.7-9.3-72.4-.2-12.8-5-31.6-13-41.6-8-9.9-30.3-9-35.1-9.3-4.8-.4-21-9.1-24-15.1-3-5.9,0-29.6,0-29.6l-22.9-4.7-22.9,4.7s3,23.7,0,29.6c-3,5.9-19.3,14.7-24,15.1-4.8.4-27.1-.6-35.1,9.3-8,9.9-12.8,28.8-13,41.6-.2,12.8-6.7,64.2-9.3,72.4-2.7,8.2-8.2,18.9-12.2,29.5-4,10.7-11.2,51.1-16.2,66.1-2.7,8.1-4.4,14.2-5.5,18.7h0s-2.1,6.2-3.2,10.3c-3.5,13.1-4.2,21.8-4.6,28.1-.9,8.1,5.2,8.2,5.2,8.2,0,0,1.1,2.8,3,2.9,1.9,0,3.4-.2,3.4-.2,0,0,1.8,3.1,4.9,3.2,3.1.1,4.3-1.1,4.3-1.1,0,0,1.7,1.2,4.4,1.3,2.7.1,3.5-2.9,3.5-2.9,0,0,1,.9,2.3.9,3.2.2,3.1-4,4.4-7.8.9-2.6-.2-7.5.2-14.8.3-7.3-6-13.4-8.6-16.1-1.2-1.2-2.3-5-3-7.4,4.6-12.5,12.9-29.5,18-40,6.9-14,15.7-25.4,21.7-40,5-12.2,2.7-21.3,4.1-27.6,3.2-14,14.7-45.6,16.7-54.2,0,0,.9,27.6,2.4,41.2,1.6,13.6,5.4,18.6,5.4,28.7s-12,24.1-14.9,41.7c-3.1,19-10.5,40-10.5,73.8s17.4,99.6,17.7,112.4c.5,21.3,1.5,43.5,1.3,50.9-.2,7.4-4.4,22.7-4.4,53.3s12.4,49.1,15.1,71c2.7,21.9-.2,27.1-.2,33.5s1,6.8,1,9.2-3,7-2.9,11.8c0,4.9-12.6,13.7-13,17.1,0,0-6.1,7.1-.2,10.2,0,0,1.4,4.4,5.7,2.9,0,0,2,4,6.9,1.7,0,0,2.1,3.6,8.6.7,0,0,1.4,2.3,7,2.3s6.7-2.9,8.4-6.9c1.7-4,3.6-3.1,3.6-7.5s-.9-10.3,0-12.8c.9-2.5,3-2.3,3.8-4.9.8-2.6.2-7.8-3.1-11.1-3.3-3.2.4-8.1.4-14.1s-3-8.8-3-13.6c0-43.7,6-56.1,6-79.3s-1.8-35.5-1.8-48.9,4.9-16.3,7.7-30.3-.6-59.2,2.3-70.9c2.9-11.7,10.9-50,4.3-72.1,0,0,5.9,5.3,7.6,2.3,1.7,3,7.6-2.3,7.6-2.3-6.6,22,1.4,60.3,4.3,72.1,2.9,11.7-.6,56.9,2.3,70.9,2.9,14,7.7,16.9,7.7,30.3s-1.8,25.7-1.8,48.9,6,35.6,6,79.3-3,7.6-3,13.6,3.7,10.9.4,14.1c-3.3,3.2-3.9,8.5-3.1,11.1.8,2.6,3,2.4,3.8,4.9.9,2.5,0,8.4,0,12.8s1.9,3.5,3.6,7.5c1.7,4,2.9,6.9,8.4,6.9s7-2.3,7-2.3c6.4,2.9,8.6-.7,8.6-.7,4.9,2.3,6.9-1.7,6.9-1.7,4.3,1.6,5.7-2.9,5.7-2.9,5.9-3-.2-10.2-.2-10.2-.4-3.4-13.1-12.2-13-17.1,0-4.9-2.9-9.3-2.9-11.8s1-2.8,1-9.2-2.9-11.6-.2-33.5c2.7-21.9,15.1-40.4,15.1-71s-4.2-45.8-4.4-53.3c-.2-7.4.8-29.5,1.3-50.9.3-12.8,17.7-78.5,17.7-112.4s-7.4-54.9-10.5-73.8c-2.9-17.6-14.9-31.5-14.9-41.7s3.9-15.2,5.4-28.7c1.6-13.6,2.4-41.2,2.4-41.2,2,8.6,13.5,40.2,16.7,54.2,1.5,6.3-.9,15.4,4.1,27.6,6,14.6,14.9,26,21.7,40,5.1,10.5,13.4,27.5,18,40-.7,2.5-1.8,6.2-3,7.4-2.6,2.8-8.9,8.8-8.6,16.1.3,7.3-.7,12.2.2,14.8,1.3,3.8,1.2,8,4.4,7.8,1.3,0,2.3-.9,2.3-.9,0,0,.8,3,3.5,2.9,2.7-.1,4.4-1.3,4.4-1.3,0,0,1.2,1.3,4.3,1.1,3.1-.1,4.9-3.2,4.9-3.2,0,0,1.5.3,3.4.2,1.9,0,3-2.9,3-2.9,0,0,6.1,0,5.2-8.2Z"/>
          <path class="cls-23" d="M602.8,277.3c-5.7,2.7-22.5,0-25.5.8-3,.8-7.4,4.6-7.4,4.6"/>
          <path class="cls-23" d="M584.6,244.6s-4.4,23.9-7.7,28.7"/>
          <g>
            <g>
              <path class="cls-26" d="M684.2,561c-1.5-4.2,1.1-8.6-.9-18.2"/>
              <path class="cls-25" d="M683.2,561.3l-.2-.8c0-.3-.1-.6-.1-1,0-.4,0-.8,0-1.3,0-1.8.5-4.1.7-6.3.1-1.1.2-2.3.2-3.3,0-1.1,0-2.1-.1-2.9,0-.9-.1-1.6-.2-2.1,0-.5,0-.8,0-.8,0,0,0,.3.2.8.1.5.3,1.2.4,2,.2.8.3,1.8.4,2.9.1,1.1.2,2.2.2,3.4,0,2.3-.1,4.6,0,6.2,0,.4,0,.8.1,1.1,0,.3.1.5.2.7.2.5.3.7.3.7.2.5,0,1.1-.6,1.3-.5.2-1.1,0-1.3-.6,0,0,0,0,0-.1Z"/>
            </g>
            <g>
              <path class="cls-26" d="M692.1,562.5c1.8-4,1.1-6.9,2.2-9.7"/>
              <path class="cls-25" d="M691.2,562.1s0-.1.2-.4c0-.1.2-.3.2-.4,0-.2.2-.3.3-.5.4-.8.8-1.9,1-3.1.3-1.2.5-2.5.8-3.4.1-.5.3-.8.4-1.1.1-.2.2-.4.2-.4,0,0,0,.2-.1.4,0,.3-.1.6-.2,1.1-.1.9,0,2.2-.1,3.4,0,1.3-.2,2.6-.4,3.5,0,.2-.1.5-.2.7,0,.2-.1.3-.1.5,0,.3-.1.4-.1.4-.2.5-.7.8-1.3.7s-.8-.7-.7-1.3c0,0,0-.1,0-.2Z"/>
            </g>
            <g>
              <path class="cls-26" d="M701.2,560.4c.9-1.6-.3-3.6,1.5-8.2"/>
              <path class="cls-25" d="M700.3,560s0-.1.2-.3c0,0,0,0,.1-.2,0-.1,0-.2.1-.4.2-.7.2-1.8.5-2.9.2-1.1.6-2.1.9-2.8.2-.4.3-.7.4-.9.1-.2.2-.3.2-.3,0,0,0,.1,0,.4,0,.2-.1.5-.2.9-.2.8-.3,1.8-.2,2.8,0,1,.2,2,.2,2.9,0,.2,0,.4,0,.7,0,.2,0,.4-.1.6,0,.2-.1.4-.1.4-.2.5-.8.8-1.3.6-.5-.2-.8-.8-.6-1.3,0,0,0-.1.1-.2h0Z"/>
            </g>
            <g>
              <path class="cls-26" d="M707.7,557.7c-.1-2.4,1.3-4.2,1.2-7"/>
              <path class="cls-25" d="M706.7,557.7s0-.1,0-.3c0,0,0-.2,0-.4,0-.2,0-.3.1-.5.2-.7.6-1.6,1-2.4.4-.8.7-1.6.9-2.3.2-.6.2-1.1.2-1.1,0,0,0,.4.1,1.1,0,.7,0,1.6-.2,2.5-.1.9-.3,1.8-.2,2.3,0,.3,0,.5,0,.7,0,.2,0,.3,0,.3,0,.6-.3,1.1-.9,1.1s-1.1-.3-1.1-.8c0,0,0-.2,0-.3Z"/>
            </g>
          </g>
          <g>
            <g>
              <path class="cls-26" d="M449.7,561c1.5-4.2-1.1-8.6.9-18.2"/>
              <path class="cls-25" d="M448.7,560.7s0-.3.3-.7c0-.2.1-.5.2-.7,0-.3.1-.7.1-1.1.2-1.6,0-3.9,0-6.2,0-1.2,0-2.3.2-3.4.1-1.1.3-2.1.4-2.9.2-.8.3-1.5.4-2,.1-.5.2-.8.2-.8,0,0,0,.3,0,.8,0,.5-.2,1.2-.2,2.1,0,.9-.1,1.9-.1,2.9,0,1.1,0,2.2.2,3.3.2,2.3.6,4.5.7,6.3,0,.5,0,.9,0,1.3,0,.4-.1.8-.1,1l-.2.8c-.1.5-.7.9-1.2.7s-.9-.7-.7-1.2c0,0,0,0,0-.1Z"/>
            </g>
            <g>
              <path class="cls-26" d="M441.8,562.5c-1.8-4-1.1-6.9-2.2-9.7"/>
              <path class="cls-25" d="M440.8,562.9s0-.1-.1-.4c0-.1,0-.3-.1-.5,0-.2-.1-.4-.2-.7-.2-1-.4-2.3-.4-3.5,0-1.3,0-2.5-.1-3.4,0-.5-.1-.8-.2-1.1,0-.3-.1-.4-.1-.4,0,0,0,.1.2.4.1.2.3.6.4,1.1.3.9.5,2.2.8,3.4.3,1.2.7,2.3,1,3.1,0,.2.2.4.3.5,0,.1.2.3.2.4.1.2.2.4.2.4.3.5,0,1.1-.4,1.4-.5.3-1.1,0-1.4-.4,0,0,0-.1,0-.2Z"/>
            </g>
            <g>
              <path class="cls-26" d="M432.6,560.4c-.9-1.6.3-3.6-1.5-8.2"/>
              <path class="cls-25" d="M431.7,560.8s0-.1-.1-.4c0-.2-.1-.4-.1-.6,0-.2,0-.4,0-.7,0-.9.2-1.9.2-2.9,0-1,0-2.1-.2-2.8,0-.4-.1-.7-.2-.9,0-.2,0-.4,0-.4,0,0,0,.1.2.3.1.2.3.5.4.9.3.7.7,1.7.9,2.8.2,1.1.3,2.2.5,2.9,0,.2,0,.3.1.4,0,.1,0,.1.1.2.1.2.2.3.2.3h0c.3.5.2,1.1-.3,1.4-.5.3-1.1.2-1.4-.3,0,0,0-.1-.1-.2Z"/>
            </g>
            <g>
              <path class="cls-26" d="M426.2,557.7c.1-2.4-1.3-4.2-1.2-7"/>
              <path class="cls-25" d="M425.2,557.7s0-.1,0-.3c0-.2,0-.4,0-.7,0-.6,0-1.5-.2-2.3-.1-.9-.2-1.8-.2-2.5,0-.7.1-1.1.1-1.1,0,0,0,.5.2,1.1.2.6.5,1.5.9,2.3.4.8.8,1.7,1,2.4,0,.2,0,.4.1.5,0,.2,0,.3,0,.4,0,.2,0,.3,0,.3,0,.6-.3,1.1-.9,1.1-.6,0-1.1-.3-1.1-.9,0,0,0-.2,0-.3Z"/>
            </g>
          </g>
          <path class="cls-23" d="M665.4,398.9c-5.3,6.2-2.7,14-2.7,14"/>
          <path class="cls-23" d="M590.2,675.8c2,6.4,2.5,17.7,10.9,21.6"/>
          <path class="cls-23" d="M468.5,398.9c5.3,6.2,2.7,14,2.7,14"/>
          <path class="cls-23" d="M543.7,675.8c-2,6.4-2.5,17.7-10.9,21.6"/>
          <path class="cls-23" d="M531.1,277.3c5.7,2.7,22.5,0,25.5.8,3,.8,7.4,4.6,7.4,4.6"/>
          <path class="cls-23" d="M549.3,244.6s4.4,23.9,7.7,28.7"/>
          <g>
            <path class="cls-23" d="M610.2,914.1s1.1-3.1.6-4.9-4.1-4.1-4.6-6.4"/>
            <path class="cls-23" d="M618.7,913.4s1.3-2.3.8-3.9c-.5-1.6-3.3-3.9-3.5-5.9"/>
            <path class="cls-23" d="M625.6,911.7s.4-2.1,0-3.4c-.4-1.3-2.8-3.9-3-4.9"/>
            <path class="cls-23" d="M631.3,908.8s-.1-2.3-.8-3.2-2.5-2.4-2.9-3.9"/>
          </g>
          <g>
            <path class="cls-23" d="M523.7,914.1s-1.1-3.1-.6-4.9,4.1-4.1,4.6-6.4"/>
            <path class="cls-23" d="M515.1,913.4s-1.3-2.3-.8-3.9c.5-1.6,3.3-3.9,3.5-5.9"/>
            <path class="cls-23" d="M508.3,911.7s-.4-2.1,0-3.4,2.8-3.9,3-4.9"/>
            <path class="cls-23" d="M502.5,908.8s.1-2.3.8-3.2,2.5-2.4,2.9-3.9"/>
          </g>
          <g>
            <path class="cls-14" d="M638.3,315.4c2.3,6.2-3.6,11.6-6.8,13.7-1.4,2.5,7.9,24.6-8.5,31-15.8,6.2-27.3-5.1-27.3-5.1"/>
            <path class="cls-10" d="M624.2,336.5c.9,3.7-1.2,6.8-4.7,7.7-3.4.9-6.9-.8-7.8-4.5s1-7.9,4.4-8.8,7.1,1.9,8.1,5.6Z"/>
            <path class="cls-16" d="M621,337c.2,1.2-.7,2.2-1.9,2.4s-2.4-.4-2.6-1.6c-.2-1.2.6-2.7,1.8-2.9s2.5.9,2.7,2.1Z"/>
          </g>
          <g>
            <path class="cls-14" d="M495.5,315.4c-2.3,6.2,3.6,11.6,6.8,13.7,1.4,2.5-7.9,24.6,8.5,31,15.8,6.2,27.3-5.1,27.3-5.1"/>
            <path class="cls-10" d="M509.6,336.5c-.9,3.7,1.2,6.8,4.7,7.7,3.4.9,6.9-.8,7.8-4.5.9-3.7-1-7.9-4.4-8.8-3.4-.9-7.1,1.9-8.1,5.6Z"/>
            <path class="cls-16" d="M512.9,337c-.2,1.2.7,2.2,1.9,2.4s2.4-.4,2.6-1.6c.2-1.2-.6-2.7-1.8-2.9-1.2-.2-2.5.9-2.7,2.1Z"/>
          </g>
          <g>
            <g>
              <path class="cls-14" d="M601.9,197.7s.8-3.8,3.6-3.8,3.5,2.7,3,5.6c-.5,2.7.7,5-.4,8.5-1.2,3.5-2.4,3.6-3.5,5.9-1.1,2.4-2,6.8-5.2,6.8s-4-3.9-4-5.3,3.2-17.6,6.5-17.6Z"/>
              <path class="cls-15" d="M606.8,198c-1.7,0-2.9,2.4-2.9,3.8s.6,2.3.6,3.9-.3,2-1,3.5c-.8,1.5-1.2,3.4-.8,4"/>
              <path class="cls-17" d="M604.2,203.7s1.7.6,2.3-.2"/>
            </g>
            <g>
              <path class="cls-14" d="M532,197.7s-.8-3.8-3.6-3.8-3.5,2.7-3,5.6c.5,2.7-.7,5,.4,8.5,1.2,3.5,2.4,3.6,3.5,5.9,1.1,2.4,2,6.8,5.2,6.8s4-3.9,4-5.3-3.2-17.6-6.5-17.6Z"/>
              <path class="cls-15" d="M527.1,198c1.7,0,2.8,2.4,2.8,3.8s-.6,2.3-.6,3.9.3,2,1,3.5c.8,1.5,1.2,3.4.8,4"/>
              <path class="cls-17" d="M529.6,203.7s-1.7.6-2.3-.2"/>
            </g>
            <path class="cls-5" d="M600.8,163.1c-8.1-21.2-33.9-21.9-33.9-21.9,0,0-25.9.7-33.9,21.9-8.1,21.2,1.2,40.3,1.2,40.3h65.5s9.2-19.1,1.2-40.3Z"/>
            <path class="cls-22" d="M593.6,168.4c-6.2-5.7-15.4-15.5-26.7-8.9-11.3-6.7-20.5,3.1-26.7,8.9,0,0-6.8,16.1-5.6,23.1,1.2,7-.8,14.1.5,21.8,1.1,6.8,5.2,18.3,8.4,22.8,3.8,5.3,14.3,14.3,23.5,14.3s19.7-9,23.5-14.3c3.2-4.5,7.3-16,8.4-22.8,1.3-7.7-.8-14.8.5-21.8,1.2-7-5.6-23.1-5.6-23.1Z"/>
            <path class="cls-25" d="M581.1,198.5c0,1.2,1,2.2,2.2,2.2s2.2-1,2.2-2.2-1-2.2-2.2-2.2-2.2,1-2.2,2.2Z"/>
            <path class="cls-25" d="M552.7,198.5c0,1.2-1,2.2-2.2,2.2s-2.2-1-2.2-2.2,1-2.2,2.2-2.2,2.2,1,2.2,2.2Z"/>
            <path class="cls-1" d="M573.6,191s3.6-6,16.4-1.6"/>
            <path class="cls-1" d="M560.3,191s-3.6-6-16.4-1.6"/>
            <line class="cls-18" x1="558.9" y1="229.8" x2="574.9" y2="229.8"/>
            <path class="cls-25" d="M571,215.8c0,2.9-3.4,3.2-3.4,3.2v-18.3s3.4,12.1,3.4,15.1Z"/>
          </g>
          <path class="cls-6" d="M521.2,465.2s9,21.5,16.4,28.4"/>
          <path class="cls-6" d="M532.1,512.2s5.4,5.7,6.9,8.3"/>
          <path class="cls-6" d="M546.7,383.6s-6.1,10.4-9.1,11.7"/>
          <path class="cls-6" d="M612.7,465.2s-9,21.5-16.4,28.4"/>
          <path class="cls-6" d="M601.7,512.2s-5.4,5.7-6.9,8.3"/>
          <path class="cls-6" d="M587.1,383.6s6.1,10.4,9.1,11.7"/>
          <line class="cls-23" x1="566.9" y1="461.8" x2="566.9" y2="445.1"/>
          <line class="cls-23" x1="566.9" y1="546.2" x2="566.9" y2="538.8"/>
        </g>
        <g>
          <path class="cls-4" d="M628,424.3s16.4,46.3,18.6,81.8c3,48.1-8,106.9-7.1,153.6,1.2,61.3-3.5,124.7-3.5,124.7,0,0-93.6,12.9-140.9.1,0,0-1.8-1.1-3.7-97.8-1.2-62.2-5.9-113.3-3.7-174.5,1.2-32.1,11-62.2,16.1-88l2.3-28.3s21.2,5.4,60.1,5.4,58.2-6.6,58.2-6.6l3.7,29.6Z"/>
          <path class="cls-25" d="M606.6,500.7s-.2,3.1-.8,8.4-.6,5.9-1.1,9.6c-.5,3.7-1,7.9-1.7,12.4-.7,4.5-1.5,9.5-2.4,14.7-.9,5.2-1.9,10.7-3.2,16.3-.6,2.8-1.2,5.7-1.9,8.6-.6,2.9-1.4,5.8-2.1,8.7-1.4,5.9-3.1,11.8-4.8,17.7-.9,2.9-1.8,5.9-2.7,8.8-1,2.9-1.9,5.8-2.9,8.6-1,2.8-2,5.7-3.1,8.4-.5,1.4-1.1,2.7-1.6,4.1-.6,1.4-1.1,2.7-1.7,4-.6,1.3-1.1,2.6-1.7,3.9-.6,1.3-1.2,2.5-1.8,3.8-.6,1.2-1.2,2.5-1.8,3.7-.6,1.2-1.2,2.4-1.8,3.6-1.2,2.4-2.5,4.6-3.7,6.7-1.2,2.2-2.5,4.2-3.8,6.1-.6,1-1.2,1.9-1.8,2.8-.6.9-1.3,1.8-1.9,2.6-.6.9-1.2,1.7-1.8,2.5-.6.8-1.2,1.5-1.8,2.3-1.2,1.4-2.3,2.8-3.3,4-1.1,1.2-2.1,2.3-3,3.2-.5.5-.9,1-1.3,1.4-.4.4-.9.8-1.2,1.1-.8.7-1.4,1.3-1.9,1.8-1.1,1-1.6,1.5-1.6,1.5,0,0,.6-.5,1.6-1.5.5-.5,1.2-1.1,1.9-1.8.4-.4.8-.7,1.2-1.2.4-.4.8-.9,1.3-1.4.9-1,1.9-2.1,3-3.3,1.1-1.2,2.1-2.6,3.3-4.1.6-.7,1.2-1.5,1.8-2.3.6-.8,1.1-1.7,1.7-2.5.6-.9,1.2-1.7,1.8-2.6.6-.9,1.2-1.9,1.8-2.8,1.2-1.9,2.5-4,3.7-6.1,1.2-2.2,2.5-4.4,3.6-6.7.6-1.2,1.2-2.4,1.8-3.6.6-1.2,1.1-2.5,1.7-3.7.6-1.3,1.2-2.5,1.8-3.8.6-1.3,1.1-2.6,1.7-3.9.6-1.3,1.1-2.6,1.7-4,.5-1.4,1.1-2.7,1.6-4.1,1.1-2.7,2.1-5.6,3.1-8.4,1-2.8,1.9-5.7,2.9-8.6.9-2.9,1.8-5.8,2.7-8.8,1.7-5.9,3.4-11.8,4.8-17.6.7-2.9,1.5-5.8,2.1-8.7.7-2.9,1.3-5.7,1.9-8.5,1.2-5.6,2.3-11.1,3.3-16.2,1-5.2,1.8-10.1,2.6-14.6.7-4.5,1.4-8.7,1.9-12.4.5-3.7,1-6.9,1.3-9.6.7-5.3,1-8.4,1-8.4Z"/>
          <path class="cls-25" d="M522,613s.2.4.5,1.1c.3.7.8,1.8,1.5,3.1.3.7.7,1.4,1.2,2.2.5.8.9,1.6,1.5,2.5.3.4.6.9.9,1.3.3.4.7.9,1,1.4.2.2.4.5.5.7.2.2.4.4.6.7.4.4.8.9,1.3,1.4,1.8,1.8,4,3.5,6.8,4.4,2.7.9,5.9.7,8.8-.3,2.9-1.1,5.7-3,8.1-5.2,2.5-2.3,4.7-4.8,6.8-7.5,2.1-2.7,4-5.5,5.7-8.4.9-1.4,1.8-2.8,2.5-4.3.8-1.4,1.6-2.8,2.3-4.3,1.5-2.8,2.9-5.6,4.2-8.2,1.2-2.7,2.4-5.2,3.5-7.5,1-2.3,2-4.5,2.8-6.4.8-1.9,1.5-3.6,2.1-5,1.1-2.8,1.8-4.4,1.8-4.4,0,0-.6,1.6-1.6,4.4-.5,1.4-1.1,3.1-1.9,5.1-.4,1-.8,2-1.2,3.1-.4,1.1-.9,2.2-1.4,3.4-1,2.4-2.1,4.9-3.3,7.6-1.2,2.7-2.5,5.5-4.1,8.3-.7,1.4-1.5,2.9-2.3,4.3-.8,1.5-1.7,2.9-2.5,4.3-1.7,2.9-3.7,5.7-5.7,8.5-2.1,2.7-4.4,5.3-6.9,7.6-2.5,2.3-5.3,4.2-8.4,5.3-3.1,1.1-6.5,1.2-9.3.2-2.9-1-5.2-2.8-6.9-4.7-1.8-1.9-3.2-3.8-4.2-5.6-.6-.9-1-1.8-1.4-2.6-.4-.8-.8-1.6-1.1-2.2-.7-1.3-1.1-2.5-1.4-3.2-.3-.7-.5-1.1-.5-1.1Z"/>
          <path class="cls-4" d="M528.3,254.4s74.7,93.1,82.7,124.2l-101.7,16.1-3.4-27.9-17.5,126.3c-32.1-7.3-55.5-23.8-55.5-23.8,0,0,37.1-168.6,47.3-187.9,12.7-24.1,37.4-15.5,48-27Z"/>
          <path class="cls-4" d="M625.5,376.9l18.2,118.5c43.2-14.5,55.5-23.8,55.5-23.8,0,0-37.1-168.6-47.3-187.9-12.7-24.1-37.4-15.5-48-27,0,0-87.7,106.2-95.8,137.2,0,0,11,15.8,54.6,15.8s61.6-15,61.6-15l1.2-17.8"/>
          <path class="cls-25" d="M660.6,365.5s0,.9.2,2.6c0,1.6.2,4,.3,6.8,0,2.8,0,6.1,0,9.6-.1,3.5-.3,7.2-.7,11-.4,3.7-1,7.4-1.8,10.9-.8,3.4-1.9,6.6-3.4,9-.8,1.2-1.7,2.2-2.6,2.9-1,.7-2,.9-2.8.9-.8,0-1.5-.2-1.9-.3-.4-.1-.6-.2-.6-.2,0,0,.2,0,.6.2.4,0,1.1.2,1.9.1.8,0,1.7-.4,2.6-1,.9-.7,1.7-1.7,2.4-2.9,1.4-2.4,2.3-5.5,3.1-8.9.8-3.4,1.3-7.1,1.6-10.8.4-3.7.7-7.4.8-10.9.2-3.5.3-6.7.4-9.5,0-2.8.1-5.1.1-6.8,0-1.6,0-2.6,0-2.6Z"/>
          <path class="cls-25" d="M474.5,375.4s.1.6.3,1.7c0,.5.2,1.2.3,1.9.1.8.3,1.6.5,2.5.2.9.4,1.9.6,2.9.3,1,.5,2.1.8,3.2.3,1.1.7,2.3,1,3.4.4,1.2.8,2.3,1.2,3.5.4,1.2.8,2.3,1.3,3.4.5,1.1.9,2.2,1.4,3.3.5,1.1,1,2.1,1.4,3,.5,1,1,1.8,1.4,2.6.9,1.6,1.7,2.9,2.4,3.8.6.9,1,1.4,1,1.4,0,0-.4-.4-1.2-1.3-.7-.8-1.7-2.1-2.7-3.6-.5-.8-1.1-1.6-1.6-2.6-.3-.5-.5-.9-.8-1.4-.3-.5-.5-1-.8-1.5-.5-1-1-2.2-1.5-3.3-.5-1.1-.9-2.3-1.4-3.5-.4-1.2-.8-2.4-1.1-3.6-.3-1.2-.6-2.4-.9-3.5-.2-1.1-.5-2.3-.7-3.3-.2-1.1-.3-2.1-.5-3-.1-.9-.3-1.8-.3-2.5,0-.8-.1-1.4-.2-2,0-1.1-.1-1.7-.1-1.7Z"/>
          <path class="cls-3" d="M627.1,311.7c12.1,28.7,4.3,50.5.9,56.7-3.5,6.2-4.4,17.4-4.4,17.4"/>
          <path class="cls-3" d="M505.2,311.7c-12.1,28.7-2.7,44.3-.3,50.3,2.3,6,3,21.8,3,21.8"/>
        </g>
        <path class="cls-12" d="M640.1,288.3c-4.7-7.5-8.3-16-11.2-24.9,9.4,9.9,20.2,16.2,20.2,16.2-16.1-14.7-30-66-32.8-95.7h0c-.5-5-1.1-9.3-1.8-12.5-4.5-19.4-18.7-39.5-48.5-39.5s-44,29.8-45.1,44.4c-1,14.6-2.4,48.2-7.8,60.1-5.4,12-8,23.6-4.3,38,3.6,14.4,1.2,44.9-4.7,58.2-5.9,13.3-1.9,18-1,27.4.9,9.4-9,15.9-3.5,28.1,5.5,12.1,14.6,8.3,14.7,19.2.2,10.9,9.4,15.4,15.6,23,6.2,7.6,2.3,21.3,14.6,28.9,0,0-1.9-10.4,0-18.7,1.9-8.3,3.3-10.5,3.6-15.5,0,0,1.3,8.6,1.1,23.7-.2,22,8.6,29.4,8.6,29.4,0,0-3.6-11.4,1.3-24.7,3.4-9.3,7.2-51.6,7.4-59.8,0,0,0,61.8,4.7,86.9,6-14.4,8.3-45.2,8.3-45.2,0,0,3.7,21,0,31.7,7.3-5.7,13-14.6,17.7-32.2,0,0,1.7,12.1,0,18.7,6.9-6.2,12.5-14.2,17.8-32.4,5.4-18.2,8.5-35.2,16.8-43.1,8.3-8,15.9-15.9,14.6-27.4-1.4-11.4,17-25-6.2-62.4ZM514,393.8s-4.7-8.4-3.7-13.2c1-4.8,5.3-10.3,5.3-10.3.8,8.1-2.6,19.5-1.6,23.5ZM519.2,258.8c-1.9,8.3-4.2,12-4.2,12,0,0-2.6-4.7-.8-10.7,1.8-6,4.9-5.6,6.5-17.5,0,0,.3,8-1.6,16.3ZM533.8,417.6s-7-9-7-23.8,9.3-15.5,10.1-25.5c4.6,11.5-4.7,38.2-3.1,49.3ZM588,202.9c.1,10.7-5.3,54.4-5.3,54.4-5.4-20.1-5.7-62.8,1.9-76.6,0,0,3.2,10.6,3.4,22.2ZM548.9,310.9c-.3,7.1-4.1,19.8-4.1,19.8-2.2-13.5-2.6-21.6,2.6-39.5,0,0,1.9,12,1.5,19.7ZM628.5,361s-4.1-18.1-4.8-33c-.6-11.8.8-31.8.8-31.8,3,7.4,7.4,19.9,6.5,32.8-.9,12.9,7.7,18.6-2.5,32.1ZM641.7,325.5c-.2-11.3-4.3-21-4.3-21,2.5,5.3,9.8,7.6,10.1,19.2.4,12.9-2.9,19.2-2.9,19.2,0,0-2.7-6.1-2.9-17.4Z"/>
      </g>
      <g>
        <rect class="cls-7" x="715" y="534.7" width="299.2" height="361.8"/>
        <g>
          <path class="cls-25" d="M761.4,585.3c-.3-.6-1.1-1.7-1.7-2.6v7.4h-1.1v-7.2c-.7.9-1.4,1.7-2.1,2.3,0-.3-.4-.9-.6-1.1,1.7-1.4,3.5-3.9,4.5-6.2h-4.4v-1.1h5.1c0,0,.6.4.6.4-.5,1.4-1.2,2.8-2,4h0c.2.2.4.5.6.7.5-.5,1.1-1.3,1.5-1.8l.8.7c-.6.6-1.2,1.3-1.7,1.7.5.7,1.1,1.4,1.3,1.7l-.7.9ZM759.2,576.7c-.3-.7-.9-1.8-1.4-2.6l.9-.4c.5.8,1.1,1.8,1.4,2.5l-1,.6ZM771.7,581c-.6,2.4-1.7,4.3-3,5.8,1.1,1,2.5,1.8,4.1,2.3-.3.3-.6.7-.7,1-1.6-.6-3-1.4-4.1-2.5-1.2,1.1-2.7,2-4.1,2.6-.1-.3-.4-.8-.7-1,1.5-.5,2.8-1.3,4-2.4-1.2-1.4-2.1-3.1-2.7-5h-.3c0,2.6-.5,5.9-2.3,8.2-.2-.2-.6-.6-.9-.8,1.9-2.4,2.1-5.7,2.1-8.2v-4.7h3.9v-2.7h1.1v2.7h3.6c0,0,.8.2.8.2-.3,1.3-.8,2.7-1.2,3.6l-1-.3c.3-.6.5-1.5.7-2.4h-3v3.3h2.9c0,0,.7.3.7.3ZM764.1,577.4v3.3h2.8v-3.3h-2.8ZM765.4,581.8c.6,1.6,1.4,3,2.4,4.2,1-1.1,1.9-2.5,2.4-4.2h-4.8Z"/>
          <path class="cls-25" d="M775.9,588.7c.4-1,.7-2.7.8-4l.7.2c-.1,1.3-.4,3.1-.8,4.1l-.7-.3ZM782.8,582.7s0,.3,0,.5c-.2,4.5-.3,5.9-.7,6.5-.2.3-.5.4-.9.4-.3,0-.9,0-1.4,0,0-.3,0-.6-.2-.9.5,0,1,0,1.3,0s.3,0,.4-.2c.3-.3.4-1.7.6-5.3h-4s-1,0-1,0v-9.3h6v1.1h-2.3v1.7h2.1v1h-2.1v1.7h2.1v1h-2.1v1.9h2.3ZM778.4,584.9c.2,1,.3,2.4.3,3.3h-.6c0-.8,0-2.1-.2-3.2h.6ZM777.9,575.5v1.7h1.7v-1.7h-1.7ZM779.5,578.2h-1.7v1.7h1.7v-1.7ZM777.9,582.7h1.7v-1.9h-1.7v1.9ZM779.4,584.7c.4.9.7,2.2.8,3h-.6c0-.7-.4-1.9-.7-2.8h.5ZM781,586.9c-.2-.7-.7-1.7-1.1-2.4l.5-.2c.4.7.9,1.7,1.1,2.4l-.5.2ZM792.2,588.9c0,.5,0,.7-.4.9-.3.2-.7.2-1.3.2,0-.3-.1-.6-.3-.9.4,0,.8,0,.9,0s.2,0,.2-.2v-2.8h-1.5v3.3h-.8v-3.3h-1.5v3.4h-.8v-3.4h-1.5v3.9h-.9v-6.2c-.2,2-.5,4.1-1.2,5.7-.2-.2-.7-.4-.9-.5,1.1-2.6,1.2-6.3,1.2-8.8v-4.8c2.6-.3,5.7-.7,7.4-1.2l.7.7c-1.9.5-4.7.9-7.2,1.2v.9h7.5v3.3h-7.5c0,.3,0,.7,0,1.1h7.6v7.5ZM784.6,577.9v1.5h6.4v-1.5h-6.4ZM786.8,585.1v-2.7h-1.5v2.7h1.5ZM789.1,585.1v-2.7h-1.5v2.7h1.5ZM791.3,585.1v-2.7h-1.5v2.7h1.5Z"/>
          <path class="cls-25" d="M799.3,586.3c-.5,1.5-1.5,2.9-2.4,3.8-.2-.2-.7-.6-1-.7.9-.9,1.7-2.1,2.2-3.4l1.2.3ZM803.1,585.6h-6.3v-11.3h6.3v11.3ZM801.9,575.3h-4v2.4h4v-2.4ZM801.9,578.7h-4v2.5h4v-2.5ZM801.9,582.1h-4v2.5h4v-2.5ZM801.7,586c.8.9,1.6,2.1,2,2.9l-1,.5c-.4-.8-1.2-2.1-1.9-3l1-.5ZM812.6,579h-2.4v9.5c0,.8-.2,1.1-.7,1.3-.5.2-1.3.2-2.7.2,0-.3-.3-.9-.4-1.2,1,0,1.9,0,2.2,0,.3,0,.4-.1.4-.4v-8.1c-1.2,2.8-3,5.3-4.9,6.7-.2-.3-.6-.7-.8-.9,2-1.5,4.1-4.4,5.2-7.3h-4.9v-1.1h5.3v-4.3h1.2v4.3h2.4v1.1Z"/>
          <path class="cls-25" d="M815.9,588.7c.4-1,.7-2.7.8-4l.7.2c-.1,1.3-.4,3.1-.8,4.1l-.7-.3ZM822.8,582.7s0,.3,0,.5c-.2,4.5-.3,5.9-.7,6.5-.2.3-.5.4-.9.4-.3,0-.9,0-1.4,0,0-.3,0-.6-.2-.9.5,0,1,0,1.3,0s.3,0,.4-.2c.3-.3.4-1.7.6-5.3h-4s-1,0-1,0v-9.3h6v1.1h-2.3v1.7h2.1v1h-2.1v1.7h2.1v1h-2.1v1.9h2.3ZM818.4,584.9c.2,1,.3,2.4.3,3.3h-.6c0-.8,0-2.1-.2-3.2h.6ZM817.8,575.5v1.7h1.7v-1.7h-1.7ZM819.5,578.2h-1.7v1.7h1.7v-1.7ZM817.8,582.7h1.7v-1.9h-1.7v1.9ZM819.4,584.7c.4.9.7,2.2.8,3h-.6c0-.7-.4-1.9-.7-2.8h.5ZM821,586.9c-.2-.7-.7-1.7-1.1-2.4l.5-.2c.4.7.9,1.7,1.1,2.4l-.5.2ZM832.2,588.9c0,.5,0,.7-.4.9-.3.2-.7.2-1.3.2,0-.3-.1-.6-.3-.9.4,0,.8,0,.9,0s.2,0,.2-.2v-2.8h-1.5v3.3h-.8v-3.3h-1.5v3.4h-.8v-3.4h-1.5v3.9h-.9v-6.2c-.2,2-.5,4.1-1.2,5.7-.2-.2-.7-.4-.9-.5,1.1-2.6,1.2-6.3,1.2-8.8v-4.8c2.6-.3,5.7-.7,7.4-1.2l.7.7c-1.9.5-4.7.9-7.2,1.2v.9h7.5v3.3h-7.5c0,.3,0,.7,0,1.1h7.6v7.5ZM824.6,577.9v1.5h6.4v-1.5h-6.4ZM826.8,585.1v-2.7h-1.5v2.7h1.5ZM829.1,585.1v-2.7h-1.5v2.7h1.5ZM831.3,585.1v-2.7h-1.5v2.7h1.5Z"/>
          <path class="cls-25" d="M849.1,588.7c1.8,0,2.1-.5,2.3-2.9.3.2.8.4,1.2.5-.3,2.8-.8,3.6-3.5,3.6h-7.1c-2.8,0-3.6-.5-3.6-2.5v-7.9c-.5.5-1.1.9-1.7,1.3-.1-.3-.5-.9-.7-1.1,2.2-1.4,4.5-3.6,5.7-6.1l1.1.4c-.2.4-.5.8-.7,1.3h5.1c0,0,.8.5.8.5-.6,1-1.5,2-2.3,2.9h5.1v6.5h-1.2v-.9h-10v3.2c0,1.1.4,1.3,2.4,1.3h7.3ZM841.3,576.3c-.6.8-1.3,1.6-2,2.3h4.9c.7-.6,1.4-1.5,1.9-2.3h-4.9ZM839.5,583.1h4.3v-3.3h-4.3v3.3ZM849.6,579.7h-4.5v3.3h4.5v-3.3Z"/>
          <path class="cls-25" d="M861.2,577.6c-.5.9-1,1.7-1.6,2.6v10h-1.1v-8.6c-.6.7-1.2,1.3-1.8,1.8-.1-.2-.5-.8-.7-1,1.6-1.3,3.2-3.2,4.2-5.1l1.1.4ZM860.8,574c-1,1.5-2.6,3.2-4,4.3-.1-.2-.5-.7-.7-.9,1.3-1,2.9-2.5,3.6-3.8l1.1.4ZM870.9,583.2c-.8,1.7-2,3.1-3.5,4.2,1.5.8,3.1,1.3,4.9,1.7-.3.3-.6.7-.7,1.1-1.9-.4-3.7-1.1-5.2-2-1.6,1-3.5,1.6-5.4,2.1,0-.3-.4-.8-.6-1,1.7-.3,3.4-.9,4.9-1.7-.8-.6-1.5-1.3-2.2-2-.5.5-1,.9-1.5,1.2-.2-.2-.6-.7-.8-.9.5-.4,1.1-.8,1.6-1.2-.3-.4-.6-.9-.9-1.3l1-.4c.2.3.4.6.6,1,.7-.7,1.3-1.5,1.8-2.4-2.7.2-3.2.3-3.5.4,0-.2-.2-.8-.4-1.1.5,0,1.1-.4,2-.9.4-.2,1.3-.8,2.4-1.5-2.8.1-3.3.2-3.6.3,0-.3-.3-.9-.4-1.2.3,0,.7-.3,1.2-.7.5-.3,2.1-1.7,3.2-3.1l1.2.5c-1.1,1.2-2.4,2.3-3.5,3.1h3.4c.9-.7,1.7-1.4,2.5-2.1l1.1.6c-2.2,1.8-4.5,3.3-6.8,4.5l6.1-.3c-.5-.6-.9-1.1-1.3-1.6l.9-.5c1.1,1.2,2.4,2.9,3,3.9l-1,.6c-.2-.4-.6-.9-1-1.5-1.7.1-3.1.2-4.1.3-.3.5-.6,1-.9,1.5h4.8c0,0,.7.3.7.3ZM864.6,583.9c-.2.3-.5.6-.7.8.7.8,1.5,1.5,2.5,2.1,1.2-.8,2.2-1.8,2.9-2.9h-4.7Z"/>
          <path class="cls-25" d="M882.7,580.3s0,.4,0,.6c-.2,5.8-.4,7.7-.9,8.4-.3.4-.6.5-1,.5-.4,0-1,0-1.6,0,0-.3-.1-.8-.3-1.1.6,0,1.2,0,1.4,0,.2,0,.4,0,.5-.2.4-.4.6-2.2.8-7h-2.5c-.2,3.6-.7,6.6-2.3,8.6-.2-.3-.6-.7-.9-.9,2-2.3,2.1-6.5,2.2-11.5h-1.9v-1.1h7.3v1.1h-4.2c0,.9,0,1.8,0,2.6h3.6ZM879.8,576.6c-.3-.7-.9-1.8-1.5-2.6l1.1-.4c.6.8,1.3,1.8,1.6,2.5l-1.1.5ZM888.5,573.8c0,.3-.2.6-.3.9,1,2,2.8,4.1,4.5,5.1-.3.2-.7.7-.9,1-1.5-1-3.1-2.9-4.1-4.8-.9,2.1-2.3,3.8-4,4.9-.2-.3-.5-.7-.9-1,2.1-1.3,3.8-3.7,4.5-6.5l1.1.3ZM885.5,585.6c1.7.8,3.9,2.1,4.9,3l-.8,1.1c-1-.9-3.2-2.3-4.9-3.1l.7-.9ZM889,583.9c-.7-.7-2.1-1.8-3.1-2.5l.8-.8c1.1.7,2.5,1.7,3.2,2.4l-.8.9Z"/>
          <path class="cls-25" d="M907,575.7c1.8,1.5,3.9,3.8,4.8,5.3l-1,.7c-.3-.5-.7-1-1.1-1.6-10.6.6-11.6.6-12.2.9,0-.3-.3-.9-.4-1.2.4,0,.9-.5,1.5-1.1.6-.6,2.8-2.9,4.3-5.2l1.2.5c-1.5,2-3.1,3.9-4.8,5.5l9.6-.5c-.9-1-1.8-1.9-2.7-2.7l.9-.6ZM898.5,582.6h11.5v7.5h-1.3v-1h-9v1h-1.2v-7.5ZM899.7,583.8v4.2h9v-4.2h-9Z"/>
          <path class="cls-25" d="M924.7,576.6c-.1.7-.2,1.4-.3,2h6.8v10c0,.8-.2,1.1-.7,1.3-.6.2-1.6.2-3.1.2,0-.3-.3-.8-.4-1.1,1.2,0,2.3,0,2.6,0,.3,0,.4-.1.4-.4v-8.9h-11.4v10.4h-1.2v-11.5h5.9c0-.6.2-1.3.3-2h-7.2v-1.1h7.3c0-.7.1-1.3.1-1.9h1.3c0,.1-.2,1.9-.2,1.9h7.4v1.1h-7.5ZM924.8,586.5v3.3h-1.1v-3.3h-4v-1h4v-2h-3.6v-1h5.4c.4-.8.9-1.8,1.1-2.5l1.1.3c-.3.8-.7,1.6-1.1,2.3h2.2v1h-3.9v2h4.1v1h-4.1ZM921.9,580.1c.5.7.9,1.5,1.1,2.1l-1,.3c-.2-.6-.6-1.5-1.1-2.2l.9-.3Z"/>
          <path class="cls-25" d="M942.9,583.5c-.4-.7-1.4-2-2.2-3v9.6h-1.2v-9.2c-.8,2.3-2,4.5-3.1,5.9-.1-.3-.4-.8-.7-1.1,1.4-1.5,2.8-4.4,3.5-7h-3.1v-1.1h3.3v-3.9h1.2v3.9h2.6v1.1h-2.6v.4c.6.6,2.6,2.8,3,3.4l-.8,1.1ZM949,578.7c.8,2.9,2.2,6,3.7,7.5-.3.2-.7.6-.9.9-1.2-1.4-2.3-3.8-3.1-6.3v9.3h-1.2v-9.2c-1,2.6-2.4,5.1-3.8,6.5-.2-.3-.5-.8-.7-1.1,1.7-1.7,3.5-4.7,4.3-7.7h-3v-1.1h3.3v-3.9h1.2v3.9h3.5v1.1h-3.2Z"/>
          <path class="cls-25" d="M959.7,583.3v5.2c0,.7-.2,1.1-.6,1.2-.5.2-1.2.2-2.4.2,0-.3-.2-.8-.4-1.1.9,0,1.7,0,1.9,0s.4,0,.4-.3v-4.9c-.9.3-1.7.5-2.4.7l-.4-1.2c.8-.2,1.7-.5,2.7-.7v-4.1h-2.5v-1.1h2.5v-3.7h1.2v3.7h2.3v1.1h-2.3v3.7c.6-.2,1.2-.3,1.8-.5v1.1c.1,0-1.8.6-1.8.6ZM971.1,581.9c-.7,2.2-2,3.9-3.6,5.2,1.4.9,3.1,1.6,4.9,2-.3.3-.6.8-.8,1.1-2-.5-3.7-1.3-5.1-2.3-1.6,1.1-3.5,1.9-5.4,2.3-.1-.3-.4-.8-.6-1.1,1.8-.4,3.5-1.1,5.1-2-1.3-1.2-2.3-2.6-3.1-4.3h0s-.6,0-.6,0v-1.1h8.4c0,0,.8.3.8.3ZM964.9,576.3c0,1.6-.5,3.5-2.7,4.8-.1-.2-.6-.7-.8-.9,2-1.1,2.3-2.7,2.3-4v-2h5.6v4.3c0,.5,0,.7.3.7h1.5c.3,0,.7,0,.9,0,0,.3,0,.8.1,1-.2,0-.6,0-1,0h-1.6c-1.2,0-1.4-.5-1.4-1.8v-3.1h-3.3v.9ZM963.7,582.7c.7,1.4,1.6,2.6,2.9,3.6,1.3-1,2.3-2.2,3-3.6h-5.8Z"/>
          <path class="cls-25" d="M760.7,617.3c-.2-.6-.7-1.7-1.2-2.6v8.8h-1.1v-8.6c-.5,2-1.2,3.9-1.9,5.1-.1-.3-.4-.7-.6-1,1-1.5,2-4.5,2.5-7h-2.1v-1.1h2.2v-4h1.1v4h1.7v1.1h-1.7v1.2c.4.7,1.6,2.7,1.8,3.2l-.6.9ZM766.8,618.2c-.3,1-.7,2.2-1.1,3.1.7-.1,1.4-.2,2.1-.3v1c-2.4.4-4.9.8-6.8,1.1l-.3-1.1c1.1-.1,2.6-.4,4.2-.6h-.3c.4-1,.8-2.5,1.1-3.4l1.1.3ZM763.8,609.8h-2.7v-1h2.7v-1.9h1.1v1.9h2.7v1h-2.7v1.7h2.3v1h-5.6v-1h2.3v-1.7ZM767,617.6h-5.3v-4h5.3v4ZM762.8,621.3c0-.8-.4-2-.8-3l1-.2c.4.9.7,2.2.8,2.9l-1,.3ZM765.9,614.4h-3.2v2.2h3.2v-2.2ZM772.6,612.2h-1.1v9.8c0,.7-.2,1.1-.6,1.3-.5.2-1.2.2-2.3.2,0-.3-.2-.8-.4-1.1.9,0,1.6,0,1.9,0,.2,0,.3,0,.3-.3v-9.8h-2.8v-1.1h2.8v-4.1h1.1v4.1h1.1v1.1ZM768.7,618.6c-.1-1.1-.6-3-1.1-4.5l.9-.3c.5,1.4,1,3.3,1.1,4.4l-1,.3Z"/>
          <path class="cls-25" d="M778.1,613.8v9.6h-1.2v-15.8h6.5v6.1h-5.3ZM778.1,608.6v1.6h4.2v-1.6h-4.2ZM782.3,612.9v-1.7h-4.2v1.7h4.2ZM782,621.8v.9h-1.1v-7.4h6.7v6.5h-5.6ZM782,616.2v1.8h4.5v-1.8h-4.5ZM786.5,620.8v-1.9h-4.5v1.9h4.5ZM791.8,621.8c0,.8-.2,1.2-.8,1.4-.5.2-1.5.2-3,.2,0-.3-.2-.9-.4-1.2,1.1,0,2.3,0,2.6,0,.3,0,.4-.1.4-.4v-7.9h-5.5v-6.2h6.7v14.1ZM786.3,608.6v1.6h4.3v-1.6h-4.3ZM790.6,612.9v-1.7h-4.3v1.7h4.3Z"/>
          <path class="cls-25" d="M810.6,609.4v14h-1.3v-.9h-9.8v1h-1.2v-14.1h4.5c.3-.8.6-1.8.8-2.5l1.4.2c-.3.8-.6,1.6-.9,2.3h6.6ZM799.5,610.6v2.9h9.8v-2.9h-9.8ZM799.5,614.6v2.8h9.8v-2.8h-9.8ZM809.3,621.3v-2.8h-9.8v2.8h9.8Z"/>
          <path class="cls-25" d="M817.4,617.1h.9v1.4c0,1.2-.4,2.8-1.9,3.9-.1-.2-.5-.5-.7-.6,1.4-1,1.7-2.3,1.7-3.3v-1.4ZM823,612.7c-.6-.6-1.4-1.3-2.4-1.9-1.1,1.1-2.3,2-3.6,2.7-.2-.2-.6-.7-.9-.9,1.3-.6,2.5-1.5,3.5-2.4-1-.6-2-1.2-3-1.7l.7-.8c1,.5,2.1,1.1,3.1,1.7.7-.7,1.2-1.5,1.7-2.3l1.1.3c-.5.9-1.1,1.8-1.9,2.6,1,.6,1.8,1.3,2.4,1.8l-.7.9ZM820.6,616.2v7.1h-1.1v-7.1h-3.3v-1.1h3.3v-2.2h1.1v2.2h1.9c-.3-.5-.8-1.2-1.3-1.7l.8-.5c.5.5,1.1,1.3,1.4,1.8l-.6.4h1v1.1h-3.2ZM823.4,620.8c.2,0,.4,0,.6,0,0,.3,0,.7,0,.9-.2,0-.4,0-.7,0h-.6c-.9,0-1.1-.4-1.1-1.5v-3.1h1v3.1c0,.4,0,.5.2.5h.6ZM831.6,614.8c-.5,2.2-1.5,4-2.7,5.4,1.1.9,2.3,1.7,3.7,2.1-.3.2-.7.7-.8.9-1.4-.5-2.6-1.3-3.7-2.3-1.1,1.1-2.4,1.9-3.8,2.4-.2-.3-.5-.7-.7-1,1.4-.5,2.6-1.3,3.7-2.3-1-1.2-1.8-2.5-2.4-4.1l1-.3c.5,1.3,1.2,2.5,2.1,3.6.9-1,1.6-2.3,2-3.7h-5.7v-1.1h6.5s.8.2.8.2ZM826.8,609.8c0,1.3-.3,2.9-2,4-.2-.2-.6-.6-.8-.8,1.5-.9,1.7-2.2,1.7-3.2v-2.2h4.9v4.2c0,.5,0,.6.3.6h1c.2,0,.5,0,.7,0,0,.3,0,.7.1.9-.2,0-.5,0-.8,0h-1.1c-1.1,0-1.3-.4-1.3-1.6v-3.1h-2.6v1.2Z"/>
          <path class="cls-25" d="M844.8,609.1c-.3.9-.5,1.9-.8,2.7h7.5v10c0,.7-.2,1.1-.7,1.3-.5.2-1.5.2-2.8.2,0-.3-.2-.8-.4-1.1,1.1,0,2,0,2.3,0,.3,0,.4,0,.4-.4v-8.9h-3.2v9.9h-1.2v-9.9h-3.2v9.9h-1.2v-9.9h-3v10.5h-1.2v-11.6h5.5c.3-.8.5-1.9.7-2.7h-7.1v-1.2h16.2v1.2h-7.6Z"/>
          <path class="cls-25" d="M860.2,611.7v7.8c0,1.1.4,1.5,1.8,1.5h6.7c.8,0,2,0,2.5-.2,0,.4.1.9.2,1.2-.4.1-1.6.1-2.7.1h-6.6c-2.3,0-3.2-.7-3.2-2.8v-7.8h-2.7v-1.2h8.1c-.4-1-1-2.3-1.5-3.3l1.2-.4c.7,1.1,1.4,2.7,1.8,3.6h6.4v1.2h-12.1Z"/>
          <path class="cls-25" d="M880.9,607.1c-.3.9-.6,1.9-1,2.7h3.1v11.7h-5.1v1.5h-1.1v-13.2h2c.3-.9.6-2.1.8-2.9l1.3.3ZM881.9,610.9h-4v4h4v-4ZM881.9,620.5v-4.5h-4v4.5h4ZM891.9,610.4c-.3,8.3-.5,11.1-1.3,12-.4.5-.8.6-1.4.7-.6,0-1.7,0-2.7,0,0-.4-.2-.9-.4-1.2,1.2.1,2.3.1,2.7.1s.6,0,.8-.3c.6-.6.9-3.4,1.1-10.8h-4.8c-.5,1.2-1.1,2.4-1.7,3.2-.2-.2-.7-.5-1-.7,1.2-1.6,2.2-4.1,2.8-6.6l1.2.3c-.2.9-.5,1.8-.8,2.7h5.5v.6ZM888.1,618.6c-.6-1.1-1.8-2.9-2.8-4.2l.9-.5c1.1,1.3,2.3,3,2.9,4.1l-1,.6Z"/>
          <path class="cls-25" d="M909,612.6c-.7,2.6-1.7,4.8-3.2,6.4,2.4,1.1,4.5,2.3,6,3.4l-1,1.1c-1.5-1.1-3.6-2.3-6-3.5-1.8,1.6-4.3,2.8-7.7,3.5-.1-.4-.5-.9-.7-1.2,3.1-.6,5.4-1.5,7.1-2.9-1.6-.8-3.3-1.5-5.1-2.1.7-1.2,1.5-2.9,2.3-4.6h-4.5v-1.3h5c.6-1.6,1.2-3.2,1.6-4.6l1.3.2c-.4,1.4-.9,2.9-1.5,4.4h5.3c.1-.5.2-1.1.3-1.7l1.3.3c0,.5-.2.9-.3,1.4h3v1.3h-3.3ZM902.1,612.6c-.6,1.5-1.3,2.9-1.8,4,1.4.6,2.9,1.2,4.2,1.8,1.5-1.5,2.4-3.4,3.1-5.8h-5.5Z"/>
          <path class="cls-25" d="M932.4,616.2h-7.5v5.6c0,.9-.2,1.2-.9,1.4-.7.2-1.8.2-3.5.2,0-.4-.3-.9-.5-1.3,1.5,0,2.8,0,3.2,0,.4,0,.5-.1.5-.5v-5.6h-7.6v-1.2h7.6v-2.7c1.6-.7,3.5-1.9,4.8-3h-10.5v-1.2h12.1c0,0,.9.6.9.6-1.6,1.5-3.9,3.1-6,4.2v2h7.5v1.2Z"/>
          <path class="cls-25" d="M943.7,617.7c1.4-.6,2.2-1.5,2.3-2.8-.1,0-.2,0-.3,0-.7,0-1.3-.4-1.3-1.2s.6-1.2,1.3-1.2,1.5.8,1.5,2c0,1.9-1.2,3.4-3.1,4.1l-.4-.9Z"/>
          <path class="cls-25" d="M770.6,654.9c.7,0,.8-.5.9-2.8.3.2.8.4,1.1.5-.2,2.6-.5,3.4-2,3.4h-2.9c-1.5,0-2-.4-2-2.1v-11.4h-4.5c-.3,1-.7,2.1-1.2,3.1h3.9s.7.3.7.3c-1.1,5.8-4,8.9-7.7,10.5-.2-.3-.6-.8-.8-.9,2-.8,3.7-1.9,4.9-3.7-.7-.8-1.7-1.8-2.6-2.5l.7-.8c.8.7,1.8,1.6,2.5,2.3.7-1.1,1.2-2.5,1.5-4h-3.8c-.7,1.3-1.6,2.4-2.5,3.4-.2-.2-.6-.6-.9-.8,1.9-1.7,3.2-4.4,4-6.8h-3.7v-1.2h16v1.2h-5.3v5h4.8v1.1h-4.8v5.3c0,.8.1.9.9.9h2.7Z"/>
          <path class="cls-25" d="M781.3,644.3c-.5.9-1,1.7-1.6,2.6v10h-1.1v-8.6c-.6.7-1.2,1.3-1.8,1.8-.1-.2-.5-.8-.7-1,1.6-1.3,3.2-3.2,4.2-5.1l1.1.4ZM780.8,640.7c-1,1.5-2.6,3.2-4,4.3-.1-.2-.5-.7-.7-.9,1.3-1,2.9-2.5,3.6-3.8l1.1.4ZM791,649.9c-.8,1.7-2,3.1-3.5,4.2,1.5.8,3.1,1.3,4.9,1.7-.3.3-.6.7-.7,1.1-1.9-.4-3.7-1.1-5.2-2-1.6,1-3.5,1.6-5.4,2.1,0-.3-.4-.8-.6-1,1.7-.3,3.4-.9,4.9-1.7-.8-.6-1.5-1.3-2.2-2-.5.5-1,.9-1.5,1.2-.2-.2-.6-.7-.8-.9.5-.4,1.1-.8,1.6-1.2-.3-.4-.6-.9-.9-1.3l1-.4c.2.3.4.6.6,1,.7-.7,1.3-1.5,1.8-2.4-2.7.2-3.2.3-3.5.4,0-.2-.2-.8-.4-1.1.5,0,1.1-.4,2-.9.4-.2,1.3-.8,2.4-1.5-2.8.1-3.3.2-3.6.3,0-.3-.3-.9-.4-1.2.3,0,.7-.3,1.2-.7.5-.3,2.1-1.7,3.2-3.1l1.2.5c-1.1,1.2-2.4,2.3-3.5,3.1h3.4c.9-.7,1.7-1.4,2.5-2.1l1.1.6c-2.2,1.8-4.5,3.3-6.8,4.5l6.1-.3c-.5-.6-.9-1.1-1.3-1.6l.9-.5c1.1,1.2,2.4,2.9,3,3.9l-1,.6c-.2-.4-.6-.9-1-1.5-1.7.1-3.1.2-4.1.3-.3.5-.6,1-.9,1.5h4.8c0,0,.7.3.7.3ZM784.6,650.5c-.2.3-.5.6-.7.8.7.8,1.5,1.5,2.5,2.1,1.2-.8,2.2-1.8,2.9-2.9h-4.7Z"/>
          <path class="cls-25" d="M801.8,641.4c-.5,1.5-1.2,3.3-1.8,4.8,1.3,1.5,1.7,2.8,1.7,3.9s-.2,1.7-.7,2.1c-.3.2-.6.3-.9.3-.4,0-.8,0-1.2,0,0-.3-.1-.8-.3-1.1.4,0,.8,0,1.1,0,.2,0,.4,0,.6-.2.3-.2.4-.7.4-1.3,0-1-.3-2.2-1.7-3.7.5-1.4,1.1-3,1.5-4.2h-2.5v14.7h-1.1v-15.8h4.3c0,0,.8.4.8.4ZM807.5,640.4c-.1.2-.2.4-.4.6,1.1,1.3,3.4,2.9,5.6,3.7-.2.2-.6.7-.8.9-2.1-.9-4.2-2.6-5.4-3.9-1.2,1.6-2.9,2.9-4.8,3.9-.2-.2-.6-.6-.8-.8,2.4-1.1,4.5-2.9,5.6-4.8l1,.3ZM801.8,651.5h10.6v.9h-6c-.8,1-1.7,1.9-2.6,2.7l6-.4c-.5-.6-1-1.2-1.5-1.7l.9-.5c1.1,1.1,2.4,2.6,2.9,3.6l-1,.6c-.1-.3-.4-.7-.7-1.1-7.1.5-7.8.6-8.3.7,0-.3-.2-.8-.4-1.1.3,0,.6-.3,1-.6.3-.3,1.3-1.2,2.1-2.3h-3.1v-.9ZM807.9,649c.4-.6.7-1.2,1-1.8h-6.3v-.9h7.1c0,0,.8.2.8.2-.4.9-.9,1.7-1.3,2.5h2.1v.9h-8.5v-.9h5.2ZM809.2,644.2v.9h-5.1v-.9h5.1Z"/>
          <path class="cls-25" d="M821.9,653.8c-.1-.4-.3-.8-.4-1.3-4.1.8-4.7.9-5,1.1,0-.3-.3-.8-.4-1.1.3,0,.5-.5.8-1.1.3-.5,1-2.4,1.5-4.2h-2.4v-1.1h6.6v1.1h-3.1c-.5,1.7-1.1,3.5-1.8,4.9l3.4-.6c-.3-.8-.7-1.6-1-2.3l.9-.3c.7,1.5,1.5,3.3,1.8,4.6l-1,.4ZM822.2,643.1h-5.5v-1.1h5.5v1.1ZM830.6,655.5c.3,0,.7,0,.9,0,.1,0,.3-.1.4-.3,0-.1.1-.5.1-1,.2.2.6.4.9.4,0,.5-.1,1.1-.2,1.3-.1.2-.4.4-.7.4-.3,0-.9.1-1.2.1h-1.6c-.4,0-1,0-1.3-.3-.3-.2-.5-.5-.5-1.5v-5.3h-1c-.2,3.9-.9,6.2-4.2,7.5-.1-.3-.5-.7-.7-.9,3.1-1.1,3.7-3.2,3.8-6.6h-1.8v-7.3h1.9c.2-.6.4-1.3.5-1.9l1.2.2c-.2.6-.4,1.2-.6,1.7h5.2v7.3h-3.2v5.5c0,.3,0,.5.2.6.2,0,.4,0,.6,0h1.4ZM824.4,645.2h2.5v-2.1h-2.5v2.1ZM824.4,648.3h2.5v-2.1h-2.5v2.1ZM830.5,643.1h-2.5v2.1h2.5v-2.1ZM830.5,646.2h-2.5v2.1h2.5v-2.1ZM830.7,650.2c-.3,1-.6,2.1-1,2.9l1.4-.2c-.1-.5-.3-.9-.5-1.4l.7-.2c.4.9.8,2,1,2.7l-.7.3c0-.2-.1-.5-.2-.7-1.9.4-2.3.4-2.5.6,0-.2-.2-.6-.3-.8.2,0,.3-.3.5-.6.1-.3.7-1.6.8-2.8l.9.3Z"/>
          <path class="cls-25" d="M846.2,642.7c-.4.7-.9,1.4-1.3,2.1v12h-1.3v-10.3c-1.9,2.1-4.1,4.1-6.7,5.4-.2-.3-.6-.8-.8-1,3.6-1.8,6.8-4.9,8.6-8.1h-8.2v-1.2h15.5v1.2h-5.8ZM846.3,645.9c2.2,1.4,4.9,3.4,6.3,4.8l-.9.9c-1.3-1.4-4-3.5-6.2-4.9l.9-.8Z"/>
          <path class="cls-25" d="M864.8,646.8h-8.8v-1.1h2.1v-2.3h-1.9v-1h1.9v-2.1h1.1v2.1h2.5v-2.1h1.1v2.1h1.9v1h-1.9v2.3h2v1.1ZM863.7,655.5c0,.6-.1.9-.6,1.1-.4.2-1.1.2-2.3.2,0-.3-.2-.7-.4-1,.8,0,1.5,0,1.8,0,.2,0,.3,0,.3-.3v-2.4c-1.3.5-2.7,1.1-3.7,1.5l-.5-1c1.1-.3,2.6-.9,4.2-1.4v-3.3h-4.1v2.5c0,1.7-.2,3.9-1.4,5.5-.2-.2-.6-.6-.9-.7,1.1-1.4,1.2-3.3,1.2-4.8v-3.4h6.3v7.5ZM859.3,649.6c1,.5,2.2,1.1,2.8,1.5l-.6.8c-.6-.5-1.8-1.2-2.8-1.7l.5-.7ZM859.3,645.7h2.5v-2.3h-2.5v2.3ZM871.4,644.7c-.4,3-1.1,5.5-2.1,7.5.9,1.5,2,2.8,3.5,3.5-.3.2-.7.7-.8,1-1.3-.8-2.4-2-3.3-3.4-.9,1.4-2.1,2.5-3.5,3.4-.1-.3-.5-.7-.7-1,1.6-.9,2.7-2.1,3.6-3.6-.8-1.6-1.4-3.5-1.8-5.7-.4.9-.8,1.8-1.3,2.5-.2-.2-.6-.7-.8-.9,1.3-1.9,2.1-4.9,2.6-8l1.1.2c-.2,1.1-.4,2.2-.7,3.2h5.4v1.1h-1.2ZM866.8,644.8c.4,2.3.9,4.5,1.8,6.3.8-1.7,1.3-3.9,1.6-6.3h-3.4Z"/>
          <path class="cls-25" d="M883.7,651c1.4-.6,2.2-1.5,2.3-2.8-.1,0-.2,0-.3,0-.7,0-1.3-.4-1.3-1.2s.6-1.2,1.3-1.2,1.5.8,1.5,2c0,1.9-1.2,3.4-3.1,4.1l-.4-.9Z"/>
          <path class="cls-25" d="M902.2,649.9v5.3c0,.7-.2,1-.6,1.2-.4.2-1.1.2-2.3.2,0-.3-.2-.8-.3-1.1.8,0,1.5,0,1.7,0,.2,0,.3,0,.3-.3v-4.9c-.8.3-1.6.5-2.3.7l-.3-1.2c.7-.2,1.6-.5,2.6-.8v-4.1h-2.4v-1.1h2.4v-3.7h1.1v3.7h1.9v1.1h-1.9v3.7l1.7-.6.2,1.1-1.9.6ZM914.1,647.6c-.7,2.4-1.8,4.3-3.2,5.8,1.2,1,2.7,1.8,4.4,2.3-.3.3-.6.7-.8,1-1.7-.6-3.2-1.4-4.4-2.5-1.3,1.1-2.9,2-4.5,2.5-.1-.3-.4-.7-.7-1,1.5-.5,3-1.3,4.3-2.4-1.3-1.4-2.2-3-2.9-5h-.3c0,2.6-.5,5.9-2.3,8.2-.2-.2-.7-.6-.9-.7,1.9-2.4,2.1-5.7,2.1-8.2v-4.7h4.2v-2.7h1.2v2.7h3.8c0,0,.9.2.9.2-.4,1.3-.8,2.7-1.2,3.6l-1.1-.3c.3-.6.5-1.5.7-2.4h-3.2v3.3h3.1c0,0,.8.3.8.3ZM906.1,644.1v3.3h3v-3.3h-3ZM907.5,648.4c.6,1.6,1.5,3,2.6,4.2,1.1-1.1,2-2.5,2.5-4.2h-5.1Z"/>
          <path class="cls-25" d="M926.1,654.1c-2.6.6-5.3,1.2-7.3,1.6l-.3-1.1c1.9-.3,4.7-.9,7.5-1.5v1ZM925.9,642.4h-7.1v-1.1h7.1v1.1ZM925.5,649h-6.2v-4.8h6.2v4.8ZM920.5,653.4c0-.9-.3-2.3-.7-3.4l1-.2c.4,1.1.7,2.5.8,3.4l-1.1.3ZM924.4,645.2h-4v2.8h4v-2.8ZM922.9,653.2c.3-1,.7-2.6.8-3.7l1.2.3c-.3,1.2-.7,2.7-1.1,3.7l-.9-.3ZM929.7,654.4c-1,.9-2.6,1.9-4,2.4-.2-.2-.5-.6-.8-.8,1.4-.5,3-1.4,3.7-2.2l1.1.6ZM929.5,644c.1-.6.3-1.2.4-1.8h-3.5v-1.1h8.7v1.1h-3.9c-.2.6-.3,1.3-.5,1.8h3.8v9.4h-7.5v-9.4h2.5ZM933.4,644.9h-5.3v1.9h5.3v-1.9ZM933.4,647.7h-5.3v1.9h5.3v-1.9ZM933.4,650.5h-5.3v1.9h5.3v-1.9ZM932.3,653.9c1.1.6,2.4,1.6,3.1,2.2l-1,.7c-.6-.6-2-1.6-3.1-2.3l.9-.6Z"/>
          <path class="cls-25" d="M947.4,646.8h-8.8v-1.1h2.1v-2.3h-1.9v-1h1.9v-2.1h1.1v2.1h2.5v-2.1h1.1v2.1h1.9v1h-1.9v2.3h2v1.1ZM946.3,655.5c0,.6-.1.9-.6,1.1-.4.2-1.1.2-2.3.2,0-.3-.2-.7-.4-1,.8,0,1.5,0,1.8,0,.2,0,.3,0,.3-.3v-2.4c-1.3.5-2.7,1.1-3.7,1.5l-.5-1c1.1-.3,2.6-.9,4.2-1.4v-3.3h-4.1v2.5c0,1.7-.2,3.9-1.4,5.5-.2-.2-.6-.6-.9-.7,1.1-1.4,1.2-3.3,1.2-4.8v-3.4h6.3v7.5ZM941.9,649.6c1,.5,2.2,1.1,2.8,1.5l-.6.8c-.6-.5-1.8-1.2-2.8-1.7l.5-.7ZM941.9,645.7h2.5v-2.3h-2.5v2.3ZM954,644.7c-.4,3-1.1,5.5-2.1,7.5.9,1.5,2,2.8,3.5,3.5-.3.2-.7.7-.8,1-1.3-.8-2.4-2-3.3-3.4-.9,1.4-2.1,2.5-3.5,3.4-.1-.3-.5-.7-.7-1,1.6-.9,2.7-2.1,3.6-3.6-.8-1.6-1.4-3.5-1.8-5.7-.4.9-.8,1.8-1.3,2.5-.2-.2-.6-.7-.8-.9,1.3-1.9,2.1-4.9,2.6-8l1.1.2c-.2,1.1-.4,2.2-.7,3.2h5.4v1.1h-1.2ZM949.4,644.8c.4,2.3.9,4.5,1.8,6.3.8-1.7,1.3-3.9,1.6-6.3h-3.4Z"/>
          <path class="cls-25" d="M769.6,685.6c-.6.9-1.6,1.7-2.7,2.3,1.7.6,3.7,1,5.7,1.3-.2.3-.5.7-.6,1-2.2-.3-4.3-.9-6.2-1.6-1.7.8-3.8,1.3-5.8,1.7-.1-.3-.5-.7-.7-1,1.9-.3,3.7-.6,5.2-1.2-1.1-.6-2.1-1.2-3-2-1.2,1.6-2.8,2.8-4.6,3.8-.2-.2-.6-.6-.9-.8,2.1-.9,3.8-2.3,5-4.2h-4.7v-1h5.2c.3-.5.5-1.1.7-1.7l1.1.3c-.2.5-.3,1-.6,1.5h6.8c-.7-.4-1.8-.9-2.7-1.2l.6-.7c1,.3,2.4.9,3.1,1.4l-.4.5h2.1v1h-10c0,.2-.2.3-.3.5.9.9,2.1,1.7,3.6,2.3,1.2-.6,2.1-1.3,2.8-2.2l1.1.4ZM764.1,682.1c-.1-.2-.3-.5-.5-.7-5.3.4-5.9.5-6.3.6,0-.2-.2-.7-.3-1,.2,0,.5-.1.7-.3.2-.2.9-.7,1.4-1.3h-2.5v-.8h1.6v-4.5h6.7v.8h-5.7v.8h5.2v.7h-5.2v.7h5.2v.7h-5.2v.8h6.3v.8h-2.4c.7.7,1.5,1.6,1.9,2.2l-.9.5ZM762.9,680.6c-.3-.3-.6-.6-.8-.9l.7-.3h-2.5c-.5.5-1,1.1-1.6,1.5l4.1-.3ZM771.2,674.1c-1.4,1.1-3.5,2-5.2,2.6-.2-.2-.5-.6-.7-.8,1.7-.5,3.8-1.4,5-2.3l1,.5ZM772.4,679.1c-1.3,1.5-3.9,2.5-6.5,3-.1-.3-.4-.6-.6-.9,2.5-.4,5-1.3,6.1-2.5l1,.4ZM771.8,676.6c-1.3,1.2-3.4,2.1-5.3,2.7-.2-.2-.5-.6-.7-.8,1.8-.5,3.9-1.3,5.1-2.3l1,.4Z"/>
          <path class="cls-25" d="M781.7,677.1c-.5,1.1-1.1,2.3-1.7,3.3v9.7h-1.2v-8c-.7.9-1.4,1.7-2.1,2.3-.2-.2-.6-.7-.9-.9,1.9-1.6,3.7-4.1,4.8-6.7l1.2.3ZM792.3,676.7h-15.9v-1.1h7.7c-.3-.6-.6-1.3-1-1.8l1.1-.4c.5.7,1,1.6,1.3,2.2h6.8v1.1ZM791.8,679.2c-.8,3-2.2,5.3-4.1,7.1,1.5,1.2,3.2,2.2,5.1,2.8-.3.2-.6.7-.8,1.1-1.9-.7-3.6-1.7-5.1-3.1-1.6,1.3-3.4,2.3-5.3,3-.2-.3-.5-.8-.8-1,1.9-.6,3.8-1.6,5.3-2.8-1.1-1.1-1.9-2.4-2.6-3.8-.6.7-1.2,1.3-1.8,1.8-.2-.3-.6-.6-.8-.8,2.1-1.7,3.9-4.3,4.7-6.7l1.2.3c-.2.6-.5,1.2-.9,1.8h5.2c0,0,.7.3.7.3ZM785.2,680c-.3.5-.7,1.1-1.1,1.6.7,1.5,1.6,2.8,2.8,4,1.5-1.5,2.7-3.3,3.4-5.6h-5.1ZM787.5,683.4c-.4-.6-1.3-1.5-2.1-2.2l.8-.6c.8.6,1.7,1.5,2.2,2.1l-.8.7Z"/>
          <path class="cls-25" d="M801.7,677.1c-.5,1.1-1.1,2.3-1.7,3.3v9.7h-1.2v-8c-.7.9-1.4,1.7-2.1,2.3-.2-.2-.6-.7-.9-.9,1.9-1.6,3.7-4.1,4.8-6.7l1.2.3ZM812.3,676.7h-15.9v-1.1h7.7c-.3-.6-.6-1.3-1-1.8l1.1-.4c.5.7,1,1.6,1.3,2.2h6.8v1.1ZM811.8,679.2c-.8,3-2.2,5.3-4.1,7.1,1.5,1.2,3.2,2.2,5.1,2.8-.3.2-.6.7-.8,1.1-1.9-.7-3.6-1.7-5.1-3.1-1.6,1.3-3.4,2.3-5.3,3-.2-.3-.5-.8-.8-1,1.9-.6,3.8-1.6,5.3-2.8-1.1-1.1-1.9-2.4-2.6-3.8-.6.7-1.2,1.3-1.8,1.8-.2-.3-.6-.6-.8-.8,2.1-1.7,3.9-4.3,4.7-6.7l1.2.3c-.2.6-.5,1.2-.9,1.8h5.2c0,0,.7.3.7.3ZM805.2,680c-.3.5-.7,1.1-1.1,1.6.7,1.5,1.6,2.8,2.8,4,1.5-1.5,2.7-3.3,3.4-5.6h-5.1ZM807.5,683.4c-.4-.6-1.3-1.5-2.1-2.2l.8-.6c.8.6,1.7,1.5,2.2,2.1l-.8.7Z"/>
          <path class="cls-25" d="M822.2,677.6c-.6,1.3-1.3,2.6-2.2,3.7v8.8h-1.2v-7.3c-.7.7-1.4,1.4-2.2,1.9-.1-.3-.4-.8-.6-1.1,2.1-1.5,3.7-3.7,4.9-6.1h-4.5v-1.2h5c.4-.9.7-1.9,1-2.9l1.2.3c-.3.9-.6,1.7-.9,2.5h9.5v1.2h-10ZM832.2,688.5v1.1h-10.9v-1.1h4.9v-5.3h-4.1v-1.1h4.1v-3.6h1.2v3.6h4.2v1.1h-4.2v5.3h4.9Z"/>
          <path class="cls-25" d="M842.9,683.5c-.4-.7-1.4-2-2.2-3v9.6h-1.2v-9.2c-.8,2.3-2,4.5-3.1,5.9-.1-.3-.4-.8-.7-1.1,1.4-1.5,2.8-4.4,3.5-7h-3.1v-1.1h3.3v-3.9h1.2v3.9h2.6v1.1h-2.6v.4c.6.6,2.6,2.8,3,3.4l-.8,1.1ZM849,678.6c.8,2.9,2.2,6,3.7,7.5-.3.2-.7.6-.9.9-1.2-1.4-2.3-3.8-3.1-6.3v9.3h-1.2v-9.2c-1,2.6-2.4,5.1-3.8,6.5-.2-.3-.5-.8-.7-1.1,1.7-1.7,3.5-4.7,4.3-7.7h-3v-1.1h3.3v-3.9h1.2v3.9h3.5v1.1h-3.2Z"/>
          <path class="cls-25" d="M859.8,683.3v5.2c0,.7-.2,1.1-.6,1.2-.5.2-1.2.2-2.4.2,0-.3-.2-.8-.4-1.1.9,0,1.7,0,1.9,0s.4,0,.4-.3v-4.9c-.9.3-1.7.5-2.4.7l-.4-1.2c.8-.2,1.7-.5,2.7-.7v-4.1h-2.5v-1.1h2.5v-3.7h1.2v3.7h2.3v1.1h-2.3v3.7c.6-.2,1.2-.3,1.8-.5v1.1c.1,0-1.8.6-1.8.6ZM871.2,681.9c-.7,2.2-2,3.9-3.6,5.2,1.4.9,3.1,1.6,4.9,2-.3.3-.6.8-.8,1.1-2-.5-3.7-1.3-5.1-2.3-1.6,1.1-3.5,1.9-5.4,2.3-.1-.3-.4-.8-.6-1.1,1.8-.4,3.5-1.1,5.1-2-1.3-1.2-2.3-2.6-3.1-4.3h0s-.6,0-.6,0v-1.1h8.4c0,0,.8.3.8.3ZM864.9,676.2c0,1.6-.5,3.5-2.7,4.8-.1-.2-.6-.7-.8-.9,2-1.1,2.3-2.7,2.3-4v-2h5.6v4.3c0,.5,0,.7.3.7h1.5c.3,0,.7,0,.9,0,0,.3,0,.8.1,1-.2,0-.6,0-1,0h-1.6c-1.2,0-1.4-.5-1.4-1.8v-3.1h-3.3v.9ZM863.7,682.7c.7,1.4,1.6,2.6,2.9,3.6,1.3-1,2.3-2.2,3-3.6h-5.8Z"/>
          <path class="cls-25" d="M880.6,683.9c-.2-.6-.7-1.7-1.2-2.6v8.8h-1.1v-8.6c-.5,2-1.2,3.9-1.9,5.1-.1-.3-.4-.7-.6-1,1-1.5,2-4.5,2.5-7h-2.1v-1.1h2.2v-4h1.1v4h1.7v1.1h-1.7v1.2c.4.7,1.6,2.7,1.8,3.2l-.6.9ZM886.8,684.8c-.3,1-.7,2.2-1.1,3.1.7-.1,1.4-.2,2.1-.3v1c-2.4.4-4.9.8-6.8,1.1l-.3-1.1c1.1-.1,2.6-.4,4.2-.6h-.3c.4-1,.8-2.5,1.1-3.4l1.1.3ZM883.7,676.4h-2.7v-1h2.7v-1.9h1.1v1.9h2.7v1h-2.7v1.7h2.3v1h-5.6v-1h2.3v-1.7ZM886.9,684.2h-5.3v-4h5.3v4ZM882.7,687.9c0-.8-.4-2-.8-3l1-.2c.4.9.7,2.2.8,2.9l-1,.3ZM885.8,681.1h-3.2v2.2h3.2v-2.2ZM892.5,678.8h-1.1v9.8c0,.7-.2,1.1-.6,1.3-.5.2-1.2.2-2.3.2,0-.3-.2-.8-.4-1.1.9,0,1.6,0,1.9,0,.2,0,.3,0,.3-.3v-9.8h-2.8v-1.1h2.8v-4.1h1.1v4.1h1.1v1.1ZM888.7,685.2c-.1-1.1-.6-3-1.1-4.5l.9-.3c.5,1.4,1,3.3,1.1,4.4l-1,.3Z"/>
          <path class="cls-25" d="M904.5,676.1v3.3l.2-.2c2.2,1.1,5.1,2.7,6.5,3.8l-.8,1.1c-1.3-1-3.8-2.6-5.9-3.7v9.7h-1.3v-14h-7v-1.2h16v1.2h-7.7Z"/>
          <path class="cls-25" d="M925.4,683.8c1.2,2.8,3.6,4.4,7.3,5-.3.3-.6.8-.8,1.2-4-.8-6.4-2.8-7.7-6.1-.9,2.9-2.8,5.1-7.7,6.2-.1-.3-.4-.8-.7-1.1,4.4-.9,6.2-2.8,7-5.2h-6.9v-1.2h7.2c.2-.9.3-1.8.4-2.8h1.3c0,1-.2,1.9-.4,2.8h5.3c-.7-.6-1.9-1.5-3-2l.8-.7c1.1.5,2.4,1.4,3.1,2l-.8.8h2.5v1.2h-7ZM923.1,679.7h-5.9v-5.2h5.9v5.2ZM921.9,675.5h-3.6v3.1h3.6v-3.1ZM931.2,679.7h-6.2v-5.2h6.2v5.2ZM930.1,675.5h-3.9v3.1h3.9v-3.1Z"/>
          <path class="cls-25" d="M939.3,681.5c-.7-.6-2.2-1.4-3.3-2l.6-.9c1.2.5,2.6,1.3,3.4,1.9l-.7,1ZM940.9,684c-1,1.9-2.2,4.2-3.3,5.9l-1-.8c1-1.4,2.4-3.8,3.5-5.9l.9.8ZM940.3,676.6c-.7-.6-2.2-1.5-3.4-2l.7-.9c1.2.5,2.7,1.3,3.5,1.9l-.7,1ZM952.5,688.1v1.2h-12.4v-1.2h7c.7-2.4,1.6-6.4,2-9.1l1.3.2c-.6,2.8-1.4,6.5-2.1,8.9h4.2ZM952,678.1h-11v-1.2h11v1.2ZM943.7,687.5c-.2-2.2-.7-5.5-1.3-8.1l1.1-.2c.6,2.6,1.2,5.8,1.4,8.1l-1.2.2ZM946.2,676.7c-.2-.8-.5-2-.9-2.9l1.1-.3c.4.9.8,2.1.9,2.9l-1.2.3Z"/>
          <path class="cls-25" d="M963.7,684.3c1.4-.6,2.2-1.5,2.3-2.8-.1,0-.2,0-.3,0-.7,0-1.3-.4-1.3-1.2s.6-1.2,1.3-1.2,1.5.8,1.5,2c0,1.9-1.2,3.4-3.1,4.1l-.4-.9Z"/>
          <path class="cls-25" d="M771.6,721.7c0,.8-.2,1.3-.8,1.5-.6.2-1.7.2-3.4.2,0-.3-.3-.9-.5-1.2,1.4,0,2.6,0,3,0,.3,0,.5-.1.5-.5v-10.6h-12.1v12.2h-1.2v-13.4h5c.4-1,.9-2.3,1.2-3.2l1.5.3c-.4,1-.9,2.1-1.3,2.9h8.2v11.7ZM761.9,719.6v1.3h-1.1v-7.3h7.1v5.9h-6ZM761.9,714.8v3.8h4.8v-3.8h-4.8Z"/>
          <path class="cls-25" d="M791.3,709c-.6,1.9-1.5,3.5-2.7,4.8,1.1,1.1,2.5,2.1,4.2,2.8-.2.2-.6.7-.7,1-.2-.1-.5-.2-.7-.3v6h-1.2v-.6h-4.7v.7h-1.1v-6.1c-.4.2-.8.4-1.2.6-.1-.3-.5-.7-.7-.9h.1c0,0-2,0-2,0v3.4l2.4-.6v1.1c-2.3.6-4.9,1.2-6.8,1.7l-.2-1.2.9-.2v-6.2h1v6l1.5-.3v-7.5h-2.5v-5.5h5.8v4.9c1.5-1.4,2.7-3.4,3.3-5.7l1.1.3c-.2.5-.4,1.1-.6,1.6h3.9s.7.3.7.3ZM778,712h3.6v-3.3h-3.6v3.3ZM782.9,716.8c1.5-.7,2.9-1.7,4.2-3-.7-.9-1.3-1.8-1.8-2.7-.5.8-1.1,1.6-1.8,2.2-.2-.2-.6-.5-.9-.7v.4h-2.1v2.7h2.3v1ZM790.6,716.9c-1.1-.6-2-1.4-2.8-2.3-.9.9-1.9,1.7-2.9,2.3h5.6ZM790.2,721.6v-3.7h-4.7v3.7h4.7ZM786.1,709.8l-.2.3c.5.9,1.1,1.9,1.9,2.9.8-1,1.5-2,2-3.2h-3.7Z"/>
          <path class="cls-25" d="M800.3,715.6c-.3,1.6-.9,3.4-1.5,4.7.4.2.8.6,1.5,1,1.3.8,2.9.9,5.1.9s5.3-.2,7.3-.3c-.2.3-.3.9-.4,1.3-1.3,0-4.8.2-7,.2s-4-.2-5.3-1c-.8-.5-1.4-1.1-1.8-1.1s-1,1.1-1.6,2.3l-.8-1.1c.7-.9,1.3-1.7,1.8-2.1.6-1.1,1-2.5,1.3-3.9h-2.4c.5-1.1,1.1-2.7,1.6-4.1h-2.1v-1.1h3.6c-.5,1.3-1.1,2.9-1.5,4.1h1.6s.6.2.6.2ZM798,710.2c-.2-.8-.6-2-.9-3l1.1-.3c.3.9.7,2.1.9,2.9l-1.1.4ZM802.5,720.9h-1.1v-7.8h1.4v-5.6h7.4v5.6h1.4v6.6c0,.6-.1.9-.6,1.1-.4.2-1.1.2-2.2.2,0-.3-.2-.7-.3-1,.8,0,1.5,0,1.7,0,.2,0,.3,0,.3-.3v-5.6h-8v6.9ZM803.9,713.1h1.8v-3.1h3.4v-1.5h-5.2v4.6ZM808.9,719.1h-3.7v.7h-.9v-4.5h4.7v3.8ZM807.9,716.2h-2.8v2.1h2.8v-2.1ZM809.1,713.1v-2.2h-2.4v2.2h2.4Z"/>
          <path class="cls-25" d="M826.2,709.4c-.4.7-.9,1.4-1.3,2.1v12h-1.3v-10.3c-1.9,2.1-4.1,4.1-6.7,5.4-.2-.3-.6-.8-.8-1,3.6-1.8,6.8-4.9,8.6-8.1h-8.2v-1.2h15.5v1.2h-5.8ZM826.3,712.5c2.2,1.4,4.9,3.4,6.3,4.8l-.9.9c-1.3-1.4-4-3.5-6.2-4.9l.9-.8Z"/>
          <path class="cls-25" d="M841.1,713.5c0,.2,0,.4,0,.7h3.5v1.1h-3.5c0,.4-.1.9-.2,1.3.8.8,3.1,3.3,3.6,4l-.8,1c-.6-.9-2.1-2.7-3.1-3.8-.5,2-1.7,4-3.8,5.5-.1-.3-.6-.7-.8-.9,2.8-2,3.7-4.7,3.9-7.1h-3.7v-1.1h3.8c0-.2,0-.5,0-.7v-3.1h-1.5c-.4,1.1-.9,2.1-1.5,2.9-.2-.2-.7-.5-1-.7,1.1-1.4,1.8-3.6,2.3-5.8l1.2.2c-.2.8-.4,1.5-.6,2.2h5.3v1.1h-2.9v3.1ZM851.6,708.4v14.3h-1.2v-1.3h-4v1.5h-1.2v-14.5h6.4ZM850.4,720.3v-10.7h-4v10.7h4Z"/>
          <path class="cls-25" d="M855.8,715c.4-1.2.8-3.2.9-4.6h1c0,1.6-.4,3.7-.9,5l-1-.3ZM858.5,706.9h1.1v16.5h-1.1v-16.5ZM860.7,709.5c.4.8.9,2,1.1,2.6l-.9.5c-.2-.7-.7-1.9-1.1-2.8l.8-.4ZM872.5,712.8v.9h-11.1v-.9h4.9v-1.4h-3.9v-.9h3.9v-1.2h-4.4v-.9h4.4v-1.5h1.2v1.5h4.5v.9h-4.5v1.2h4v.9h-4v1.4h5ZM871.3,722.1c0,.6-.1.9-.6,1.1-.5.2-1.3.2-2.6.2,0-.3-.2-.7-.3-1.1.9,0,1.8,0,2,0,.3,0,.3,0,.3-.3v-1.5h-6.5c-.2,1.1-.5,2.2-1.2,3.1-.2-.3-.6-.7-.9-.8,1-1.4,1.1-3.2,1.1-4.7v-3.3h8.7v7.3ZM870.2,719.6v-1.5h-6.4c0,.5,0,1,0,1.5h6.4ZM863.8,715.7v1.5h6.4v-1.5h-6.4Z"/>
          <path class="cls-25" d="M880.9,707.1c-.3.9-.6,1.9-1,2.7h3.1v11.7h-5.1v1.5h-1.1v-13.2h2c.3-.9.6-2.1.8-2.9l1.3.3ZM881.9,710.8h-4v4h4v-4ZM881.9,720.4v-4.5h-4v4.5h4ZM891.9,710.4c-.3,8.3-.5,11.1-1.3,12-.4.5-.8.6-1.4.7-.6,0-1.7,0-2.7,0,0-.4-.2-.9-.4-1.2,1.2.1,2.3.1,2.7.1s.6,0,.8-.3c.6-.6.9-3.4,1.1-10.8h-4.8c-.5,1.2-1.1,2.4-1.7,3.2-.2-.2-.7-.5-1-.7,1.2-1.6,2.2-4.1,2.8-6.6l1.2.3c-.2.9-.5,1.8-.8,2.7h5.5v.6ZM888.1,718.5c-.6-1.1-1.8-2.9-2.8-4.2l.9-.5c1.1,1.3,2.3,3,2.9,4.1l-1,.6Z"/>
          <path class="cls-25" d="M900.3,711.6c-.6,2.6-1.7,5.9-3.3,7.9-.3-.2-.8-.5-1.1-.7,1.7-1.9,2.7-5,3.1-7.5l1.3.2ZM904.9,707.1v14.5c0,.9-.3,1.3-.9,1.5-.6.2-1.7.2-3.4.2,0-.3-.3-.9-.5-1.3,1.3,0,2.7,0,3,0,.4,0,.5-.1.5-.5v-14.5h1.3ZM909.2,711.2c1.6,2.5,3.2,5.9,3.6,8l-1.3.5c-.5-2.1-1.9-5.5-3.5-8.1l1.1-.4Z"/>
          <path class="cls-25" d="M918.9,719.6c-.4,1.5-1.2,2.9-2.1,3.9-.2-.2-.7-.5-1-.7.9-.9,1.5-2.1,1.9-3.5l1.1.3ZM922.1,718.8h-5.4v-11.3h5.4v11.3ZM921,708.6h-3.2v2.4h3.2v-2.4ZM921,712h-3.2v2.5h3.2v-2.5ZM921,715.4h-3.2v2.5h3.2v-2.5ZM921,719.3c.5.7,1.1,1.7,1.3,2.3l-1,.5c-.2-.6-.8-1.6-1.3-2.3l.9-.4ZM931.7,712.5c-.5,3.1-1.4,5.5-2.7,7.3,1,1.1,2.2,2.1,3.6,2.6-.3.2-.6.7-.8,1-1.4-.7-2.6-1.6-3.5-2.7-1,1.2-2.2,2-3.6,2.7-.1-.3-.5-.8-.7-1,1.3-.5,2.5-1.4,3.6-2.6-1.2-1.7-2-3.8-2.5-6.3h-.2v.8c0,2.8-.2,6.6-1.9,9.2-.2-.2-.7-.5-1-.7,1.7-2.4,1.8-5.9,1.8-8.5v-6.5h8.4v1.1h-7.3v3.5h6.2s.7.2.7.2ZM926.1,713.4c.5,2.1,1.2,3.9,2.2,5.4,1-1.4,1.7-3.2,2.2-5.4h-4.3Z"/>
          <path class="cls-25" d="M938.7,719.5c-.4,1.5-1.2,2.9-2,3.9-.2-.2-.7-.5-.9-.7.8-.9,1.5-2.2,1.8-3.5l1.1.3ZM941.7,718.9h-5v-11.3h5v11.3ZM940.7,708.6h-2.9v2.4h2.9v-2.4ZM940.7,712h-2.9v2.5h2.9v-2.5ZM940.7,715.4h-2.9v2.5h2.9v-2.5ZM940.8,719.3c.6.9,1.2,2,1.5,2.8l-1,.5c-.3-.8-.9-1.9-1.4-2.8l.9-.4ZM952.5,720.4h-1.1v1.7c0,.6-.1.9-.6,1.1-.5.2-1.3.2-2.6.2,0-.3-.2-.7-.3-1,1,0,1.9,0,2.1,0,.2,0,.3,0,.3-.3v-1.7h-6v3h-1.1v-3h-1.2v-.9h1.2v-4.6h3.5v-1.1h-4.6v-.9h2.7v-1.3h-1.7v-.9h1.7v-1.2h-2.2v-.9h2.2v-1.6h1.1v1.6h2.9v-1.6h1.1v1.6h2.3v.9h-2.3v1.2h2v.9h-2v1.3h2.7v.9h-4.7v1.1h3.6v4.6h1.1v.9ZM944.3,715.8v1.4h2.4v-1.4h-2.4ZM944.3,719.5h2.4v-1.5h-2.4v1.5ZM945.8,710.6h2.9v-1.2h-2.9v1.2ZM945.8,712.8h2.9v-1.3h-2.9v1.3ZM947.8,715.8v1.4h2.5v-1.4h-2.5ZM950.3,719.5v-1.5h-2.5v1.5h2.5Z"/>
          <path class="cls-25" d="M962.6,721.2c-1.5.9-3.8,1.7-5.6,2.2-.2-.2-.6-.7-.9-.9,1.9-.4,4.1-1.1,5.4-1.8l1.1.5ZM971.2,707.7v3.9h-13.9v-3.9h13.9ZM970.2,712.8v7.8h-11.8v-7.8h11.8ZM958.4,710.7h3.1v-2h-3.1v2ZM959.6,715.1h9.4v-1.5h-9.4v1.5ZM959.6,717.3h9.4v-1.4h-9.4v1.4ZM959.6,719.6h9.4v-1.5h-9.4v1.5ZM962.6,710.7h3.2v-2h-3.2v2ZM966.7,720.8c2.1.6,4.3,1.4,5.6,2l-1.3.7c-1.2-.6-3.3-1.4-5.3-2l.9-.7ZM966.8,710.7h3.3v-2h-3.3v2Z"/>
          <path class="cls-25" d="M765.9,751.2c1.7,1.8,4.3,3.4,6.7,4.2-.3.2-.7.7-.8,1-2.4-.9-5.1-2.8-6.9-4.8v5.1h-1.2v-5c-1.7,2-4.4,3.7-6.8,4.7-.2-.3-.5-.8-.8-1,2.3-.8,4.9-2.4,6.6-4.2h-4.5v-6.6h5.6v-1.6h-7.2v-1.1h7.2v-1.7h1.2v1.7h7.4v1.1h-7.4v1.6h5.9v6.6h-4.8ZM759.3,747.5h4.4v-1.8h-4.4v1.8ZM759.3,750.3h4.4v-1.9h-4.4v1.9ZM764.9,745.7v1.8h4.7v-1.8h-4.7ZM769.5,748.4h-4.7v1.9h4.7v-1.9Z"/>
          <path class="cls-25" d="M786.8,742.6v2.7h4.6v11.3h-1.2v-1.1h-11.6v1.1h-1.2v-11.4h4.4v-2.7h-5.4v-1.2h15.8v1.2h-5.4ZM790.1,754.4v-3.3h-2.8c-1.4,0-1.8-.3-1.8-1.7v-3h-2.7c0,1.9-.8,4.1-3.5,5.4-.1-.3-.5-.7-.7-.9,2.5-1.2,3-2.9,3.1-4.5h-3.2v8h11.6ZM785.6,742.6h-2.7v2.7h2.7v-2.7ZM786.8,746.4v3c0,.5,0,.5.7.5h2.3c.2,0,.3,0,.4,0v-3.5h-3.4Z"/>
          <path class="cls-25" d="M803.8,751c1.4-.6,2.2-1.5,2.3-2.8-.1,0-.2,0-.3,0-.7,0-1.3-.4-1.3-1.2s.6-1.2,1.3-1.2,1.5.8,1.5,2c0,1.9-1.2,3.4-3.1,4.1l-.4-.9Z"/>
          <path class="cls-25" d="M824.2,740.6c-.5,1.4-1.2,2.7-1.9,3.9v12.2h-1.2v-10.4c-.6.9-1.3,1.7-2,2.4-.1-.3-.5-.9-.7-1.2,1.8-1.8,3.6-4.5,4.6-7.3l1.1.4ZM835.3,754.8v1.1h-11.9v-1.1h11.9ZM833.8,752.4h-8.8v-10.9h8.8v10.9ZM832.5,742.6h-6.3v3.7h6.3v-3.7ZM832.5,747.5h-6.3v3.8h6.3v-3.8Z"/>
          <path class="cls-25" d="M854.6,743v3.7h-1.2v-2.6h-12.8v2.6h-1.1v-3.7h3c-.3-.7-.9-1.5-1.5-2.2l1.1-.4c.6.7,1.3,1.6,1.6,2.2l-.7.4h3.4v-2.9h1.2v2.9h3.3l-.6-.3c.6-.7,1.3-1.7,1.7-2.4l1.2.4c-.5.8-1.2,1.6-1.8,2.3h3.3ZM840.7,750.3h12.8v6.4h-1.2v-.5h-10.5v.5h-1.2v-6.5ZM841.8,751.2v1.6h4.5v-1.6h-4.5ZM846.4,755.3v-1.6h-4.5v1.6h4.5ZM851.7,745.5v3.7h-9.4v-3.7h9.4ZM850.5,746.4h-7.1v1.8h7.1v-1.8ZM852.3,751.2h-4.8v1.6h4.8v-1.6ZM852.3,755.3v-1.6h-4.8v1.6h4.8Z"/>
          <path class="cls-25" d="M862.9,744.9c-.6,2.6-1.7,5.9-3.3,7.9-.3-.2-.8-.5-1.1-.7,1.7-1.9,2.7-5,3.1-7.5l1.3.2ZM867.6,740.5v14.5c0,.9-.3,1.3-.9,1.5-.6.2-1.7.2-3.4.2,0-.3-.3-.9-.5-1.3,1.3,0,2.7,0,3,0,.4,0,.5-.1.5-.5v-14.5h1.3ZM871.8,744.6c1.6,2.5,3.2,5.9,3.6,8l-1.3.5c-.5-2.1-1.9-5.5-3.5-8.1l1.1-.4Z"/>
          <path class="cls-25" d="M881.5,752.9c-.4,1.5-1.2,2.9-2.1,3.9-.2-.2-.7-.5-1-.7.9-.9,1.5-2.1,1.9-3.5l1.1.3ZM884.8,752.2h-5.4v-11.3h5.4v11.3ZM883.7,741.9h-3.2v2.4h3.2v-2.4ZM883.7,745.3h-3.2v2.5h3.2v-2.5ZM883.7,748.7h-3.2v2.5h3.2v-2.5ZM883.7,752.6c.5.7,1.1,1.7,1.3,2.3l-1,.5c-.2-.6-.8-1.6-1.3-2.3l.9-.4ZM894.4,745.9c-.5,3.1-1.4,5.5-2.7,7.3,1,1.1,2.2,2.1,3.6,2.6-.3.2-.6.7-.8,1-1.4-.7-2.6-1.6-3.5-2.7-1,1.2-2.2,2-3.6,2.7-.1-.3-.5-.8-.7-1,1.3-.5,2.5-1.4,3.6-2.6-1.2-1.7-2-3.8-2.5-6.3h-.2v.8c0,2.8-.2,6.6-1.9,9.2-.2-.2-.7-.5-1-.7,1.7-2.4,1.8-5.9,1.8-8.5v-6.5h8.4v1.1h-7.2v3.5h6.2s.7.2.7.2ZM888.8,746.8c.5,2.1,1.2,3.9,2.2,5.4,1-1.4,1.7-3.2,2.2-5.4h-4.3Z"/>
          <path class="cls-25" d="M915.2,747.6v1.3h-16.5v-1.3h16.5Z"/>
          <path class="cls-25" d="M928,740.3c-.1.1-.2.3-.4.4,1.8,1.3,5,2.6,7.6,3.1-.3.2-.6.7-.7,1-1.1-.3-2.3-.7-3.5-1.1v.6h-8.2v-.6c-1.1.5-2.4.9-3.6,1.2-.1-.2-.5-.7-.7-.9,3.5-.9,6.9-2.3,8.5-4.1l1.1.5ZM927.5,753.1h7.3v.9h-7.3v1.4c0,.7-.2.9-.7,1.1-.5.2-1.4.2-2.9.2,0-.3-.3-.7-.4-1,1.1,0,2.2,0,2.5,0,.3,0,.4,0,.4-.3v-1.4h-7.3v-.9h7.3v-1.2h-6.3v-.9h6.3v-1.1c-1.9.1-3.9.2-5.7.2,0-.2-.1-.6-.2-.8,4.1,0,9.2-.3,11.8-.8l.9.7c-1.5.3-3.5.5-5.5.6v1.2h6.4v.9h-6.4v1.2ZM932.3,748.1h-11v-3h11v3ZM931.1,746h-8.6v1.3h8.6v-1.3ZM930.4,743.3c-1.3-.6-2.6-1.3-3.6-2-1,.8-2.2,1.4-3.5,2h7Z"/>
          <path class="cls-25" d="M944.4,753.7c1.3-.2,2.6-.5,3.9-.7v1.1c-3.1.6-6.6,1.3-9,1.7l-.3-1.1c1.1-.2,2.6-.5,4.2-.7v-3.2h-3.6v-1.1h3.6v-2h1.2v2h3.7v1.1h-3.7v2.9ZM939.1,741.4h9.3v1.1h-4.9c-.7,1.3-1.4,2.5-2.2,3.5l4.9-.4c-.5-.7-1-1.3-1.4-1.9l.9-.5c1,1.2,2.2,2.9,2.8,3.9l-.9.6c-.2-.3-.4-.7-.7-1.2-5.8.6-6.4.7-6.8.8,0-.3-.3-.8-.4-1.1.3,0,.6-.4.9-.8.3-.4,1.1-1.6,1.7-2.9h-3v-1.1ZM950.6,752.6h-1.1v-10.9h1.1v10.9ZM954.2,740.5v14.2c0,.8-.2,1.2-.7,1.4-.5.2-1.5.2-2.8.2,0-.3-.3-.9-.5-1.2,1.1,0,2.1,0,2.4,0s.4,0,.4-.4v-14.2h1.2Z"/>
          <path class="cls-25" d="M762.6,786.9v1c-2.1.5-4.5,1.1-6.2,1.5l-.3-1.1c.8-.2,1.8-.4,3-.6v-5.4h-2.8v-1.1h2.8v-2.1h-1.8v-.8c-.3.3-.6.6-.9.8,0-.3-.4-.9-.5-1.2,1.4-1.1,2.8-2.8,3.7-4.6l.9.4c-.1.3-.3.5-.4.8,1.1.8,2.2,1.7,3,2.4l-.6,1c-.7-.8-1.8-1.7-2.9-2.5-.6.9-1.3,1.9-2,2.6h4.5v1.1h-2v2.1h2.5v1.1h-2.5v5.2l2.5-.5ZM757.5,783.3c.3,1.1.6,2.5.7,3.4l-.8.2c0-.9-.4-2.3-.7-3.4l.8-.2ZM760.6,786.5c.3-.9.7-2.4.9-3.4l.9.3c-.3,1.1-.7,2.5-1,3.3l-.7-.3ZM771.3,785.3c-.7.9-1.5,1.7-2.5,2.4.8.9,1.6,1.3,2.4,1.3.5,0,.6-.5.7-2,.3.2.6.4.9.5-.2,2-.6,2.5-1.7,2.5s-2.3-.7-3.2-1.8c-1.3.7-2.8,1.3-4.2,1.8-.1-.2-.5-.7-.7-.9,1.5-.4,3-1,4.4-1.7-.4-.7-.8-1.5-1.2-2.4l-2.6.2v-1c0,0,2.4-.2,2.4-.2-.2-.9-.4-1.8-.5-2.7h1.1c0,.9.2,1.8.4,2.6l5.6-.5v1c0,0-5.3.5-5.3.5.3.7.6,1.4,1,1.9.8-.6,1.5-1.2,2.1-1.9l1,.4ZM771.3,777.4c-.6.8-1.4,1.4-2.3,2,.7.7,1.4,1.1,2.1,1.1.5,0,.6-.5.7-1.7.2.2.6.4.9.5-.2,1.8-.6,2.3-1.6,2.3s-2.1-.6-3-1.6c-1.3.7-2.8,1.2-4.2,1.6-.1-.2-.5-.7-.7-.9,1.5-.4,3-.8,4.3-1.5-.4-.6-.7-1.3-1-2.1l-2.8.2v-1c0,0,2.5-.2,2.5-.2-.2-.8-.4-1.7-.4-2.6h1.1c0,.9.2,1.7.4,2.5l5.1-.4v1c.1,0-4.8.4-4.8.4.2.6.5,1.2.8,1.6.8-.5,1.4-1,1.9-1.6l1,.3ZM768.5,781.5c.9.3,2.2.7,2.8,1.1l-.5.8c-.6-.4-1.8-.9-2.8-1.2l.6-.7ZM770.5,775.5c-.5-.4-1.6-.9-2.4-1.3l.6-.7c.8.3,1.9.8,2.5,1.2l-.6.8Z"/>
          <path class="cls-25" d="M783.8,784.3c1.4-.6,2.2-1.5,2.3-2.8-.1,0-.2,0-.3,0-.7,0-1.3-.4-1.3-1.2s.6-1.2,1.3-1.2,1.5.8,1.5,2c0,1.9-1.2,3.4-3.1,4.1l-.4-.9Z"/>
          <path class="cls-25" d="M815.1,784.1h-7.5v4.2c0,.9-.3,1.3-.9,1.5-.7.2-1.8.2-3.7.2,0-.3-.3-.9-.5-1.2,1.6,0,3,0,3.4,0,.4,0,.6-.1.6-.5v-4.2h-7.5v-1.2h7.5v-3.1h-6.3v-1.2h6.3v-2.9c-2,.2-4.1.3-6,.4,0-.3-.2-.8-.3-1.1,4.3-.2,9.6-.7,12.3-1.6l.9,1c-1.5.5-3.5.8-5.7,1.1v3h6.5v1.2h-6.5v3.1h7.5v1.2Z"/>
          <path class="cls-25" d="M834.1,776.7v8.4h-1.2v-1.1h-5.4v5.9h-1.3v-5.9h-5.4v1.1h-1.2v-8.5h6.6v-3.3h1.3v3.3h6.6ZM826.3,782.9v-5h-5.4v5h5.4ZM832.9,782.9v-5h-5.4v5h5.4Z"/>
          <path class="cls-25" d="M843.6,773.7c-.3.9-.6,1.9-1,2.7h3.1v11.7h-5.1v1.5h-1.1v-13.2h2c.3-.9.6-2.1.8-2.9l1.3.3ZM844.6,777.5h-4v4h4v-4ZM844.6,787v-4.5h-4v4.5h4ZM854.6,777c-.3,8.3-.5,11.1-1.3,12-.4.5-.8.6-1.4.7-.6,0-1.7,0-2.7,0,0-.4-.2-.9-.4-1.2,1.2.1,2.3.1,2.7.1s.6,0,.8-.3c.6-.6.9-3.4,1.1-10.8h-4.8c-.5,1.2-1.1,2.4-1.7,3.2-.2-.2-.7-.5-1-.7,1.2-1.6,2.2-4.1,2.8-6.6l1.2.3c-.2.9-.5,1.8-.8,2.7h5.5v.6ZM850.7,785.2c-.6-1.1-1.8-2.9-2.8-4.2l.9-.5c1.1,1.3,2.3,3,2.9,4.1l-1,.6Z"/>
          <path class="cls-25" d="M865.2,786.9v1c-2.1.5-4.5,1.1-6.2,1.5l-.3-1.1c.8-.2,1.8-.4,3-.6v-5.4h-2.8v-1.1h2.8v-2.1h-1.8v-.8c-.3.3-.6.6-.9.8,0-.3-.4-.9-.5-1.2,1.4-1.1,2.8-2.8,3.7-4.6l.9.4c-.1.3-.3.5-.4.8,1.1.8,2.2,1.7,3,2.4l-.6,1c-.7-.8-1.8-1.7-2.9-2.5-.6.9-1.3,1.9-2,2.6h4.5v1.1h-2v2.1h2.5v1.1h-2.5v5.2l2.5-.5ZM860.1,783.3c.3,1.1.6,2.5.7,3.4l-.8.2c0-.9-.4-2.3-.7-3.4l.8-.2ZM863.2,786.5c.3-.9.7-2.4.9-3.4l.9.3c-.3,1.1-.7,2.5-1,3.3l-.7-.3ZM873.9,785.3c-.7.9-1.5,1.7-2.5,2.4.8.9,1.6,1.3,2.4,1.3.5,0,.6-.5.7-2,.3.2.6.4.9.5-.2,2-.6,2.5-1.7,2.5s-2.3-.7-3.2-1.8c-1.3.7-2.8,1.3-4.2,1.8-.1-.2-.5-.7-.7-.9,1.5-.4,3-1,4.4-1.7-.4-.7-.8-1.5-1.2-2.4l-2.6.2v-1c0,0,2.4-.2,2.4-.2-.2-.9-.4-1.8-.5-2.7h1.1c0,.9.2,1.8.4,2.6l5.6-.5v1c0,0-5.3.5-5.3.5.3.7.6,1.4,1,1.9.8-.6,1.5-1.2,2.1-1.9l1,.4ZM873.9,777.4c-.6.8-1.4,1.4-2.3,2,.7.7,1.4,1.1,2.1,1.1.5,0,.6-.5.7-1.7.2.2.6.4.9.5-.2,1.8-.6,2.3-1.6,2.3s-2.1-.6-3-1.6c-1.3.7-2.8,1.2-4.2,1.6-.1-.2-.5-.7-.7-.9,1.5-.4,3-.8,4.3-1.5-.4-.6-.7-1.3-1-2.1l-2.8.2v-1c0,0,2.5-.2,2.5-.2-.2-.8-.4-1.7-.4-2.6h1.1c0,.9.2,1.7.4,2.5l5.1-.4v1c.1,0-4.8.4-4.8.4.2.6.5,1.2.8,1.6.8-.5,1.4-1,1.9-1.6l1,.3ZM871.1,781.5c.9.3,2.2.7,2.8,1.1l-.5.8c-.6-.4-1.8-.9-2.8-1.2l.6-.7ZM873.1,775.5c-.5-.4-1.6-.9-2.4-1.3l.6-.7c.8.3,1.9.8,2.5,1.2l-.6.8Z"/>
          <path class="cls-25" d="M884.4,777.3c-.1.3-.2.5-.3.8,1.5,1.3,3.3,2.9,4.2,4l-.6,1c-.8-1.1-2.5-2.7-4-4.1-1.1,2-2.6,3.8-4.4,5-.2-.3-.5-.7-.8-.9,2.2-1.3,4-3.6,5-6.2l1,.4ZM883.2,774.4c-.8,1.8-2.2,3.4-3.6,4.5-.1-.2-.5-.7-.8-.9,1.3-1,2.6-2.4,3.3-3.9l1.1.3ZM880.5,783.1h6.5v6.8h-1.1v-1.2h-4.3v1.3h-1.1v-6.9ZM881.6,784.2v3.5h4.3v-3.5h-4.3ZM885.5,773.9c1.1,1.2,2.3,2.7,2.9,3.8l-.9.7c-.5-1.1-1.7-2.7-2.8-3.9l.8-.6ZM894.4,785.3c0,.7-.1,1.1-.7,1.3-.5.2-1.4.3-2.6.3,0-.4-.2-.9-.4-1.3,1,0,1.9,0,2.2,0,.3,0,.3,0,.3-.3v-9.6h-3.1v14.3h-1.2v-15.5h5.5v10.7Z"/>
          <path class="cls-25" d="M907.5,774c1.7,2.5,4.9,5,7.7,6.2-.3.3-.7.7-.8,1.1-2.7-1.3-5.7-3.7-7.6-6.1-1.9,2.3-5,4.9-7.5,6.3-.2-.3-.5-.7-.8-1,2.3-1.1,5.1-3.3,6.9-5.3h-3.4v-1.1h5.4ZM907.5,788.4h7.2v1.1h-15.4v-1.1h7v-3.2h-5.2v-1.1h5.2v-2.9h-4.4v-1.1h10.2v1.1h-4.6v2.9h5.2v1.1h-5.2v3.2Z"/>
          <path class="cls-25" d="M927,777.2c-.4,1.1-.9,2.4-1.4,3.3h2.6v1.1h-9.4v-1.1h5.6c.5-1,1.1-2.6,1.4-3.6l1.2.3ZM927.8,776.8h-8.5v-1.1h3.8c-.2-.6-.5-1.3-.8-1.9l1.1-.3c.4.7.8,1.6,1,2.2h3.4v1.1ZM919.9,783.4h7.5v6.4h-1.2v-.7h-5.1v.9h-1.2v-6.5ZM921.6,780.4c-.2-.9-.7-2.2-1.2-3.2l1.1-.3c.6,1,1.1,2.3,1.2,3.1l-1.1.3ZM921,784.5v3.5h5.1v-3.5h-5.1ZM934.9,775c-.7,1.7-1.5,3.7-2.3,5.4,1.7,1.7,2.1,3.1,2.1,4.4s-.2,1.9-.8,2.3c-.3.2-.7.3-1.1.4-.5,0-1.1,0-1.6,0,0-.3-.1-.8-.4-1.1.6,0,1.1,0,1.5,0,.3,0,.5,0,.7-.2.4-.2.5-.8.5-1.5,0-1.1-.5-2.5-2.1-4.2.7-1.6,1.4-3.5,1.9-4.9h-3.1v14.4h-1.1v-15.6h4.9c0,0,.8.5.8.5Z"/>
          <path class="cls-25" d="M952.1,785.4c-.9,1-2.1,1.9-3.6,2.5,2.1.6,4.4,1,6.7,1.2-.2.3-.5.7-.6,1-2.6-.3-5.2-.8-7.5-1.6-2.4.9-5.2,1.3-8,1.7-.1-.3-.4-.8-.6-1,2.5-.2,5-.6,7.2-1.2-1.3-.5-2.4-1.2-3.3-1.9-.9.7-1.9,1.3-2.8,1.7-.1-.2-.5-.7-.7-.9,1.9-.7,3.8-2,4.8-3.5l1.1.3c-.2.3-.4.6-.7.9h10.5v.9h-2.4ZM940.1,781c-.1,1.1-.4,2.2-.7,3-.2,0-.5-.3-.7-.4.3-.8.5-1.8.6-2.7l.8.2ZM943.3,780.5c0-.2-.1-.5-.2-.8-3.2.5-3.7.6-3.9.7,0-.2-.2-.7-.3-.9.3,0,.7-.3,1.1-.8.2-.2.7-.7,1.3-1.4-1.5.1-1.8.2-2,.3,0-.2-.2-.7-.3-.9.3,0,.5-.2.7-.5s1.2-1.5,1.7-2.7l.9.3c-.5,1-1.2,2.1-1.8,2.8h1.5c.3-.5.7-1,1-1.5l.9.4c-1,1.4-2.1,2.7-3.2,3.8l2.3-.3c-.1-.4-.3-.8-.5-1.1l.7-.2c.4.8.8,1.9.9,2.6l-.8.2ZM941.2,783.5c0-.7-.2-1.7-.3-2.5l.8-.2c.2.8.4,1.9.4,2.5l-.8.2ZM943.2,780.7c.3.7.5,1.6.6,2.3l-.8.2c0-.6-.3-1.6-.6-2.3l.7-.2ZM943.2,785.4c1,.8,2.3,1.5,3.9,2.1,1.4-.5,2.6-1.2,3.5-2.1h-7.4ZM949.6,775.8h-5.6v-.8h2.4c-.2-.4-.4-.9-.6-1.3l.9-.3c.3.5.6,1.1.8,1.6h2.1v.8ZM949.3,777.4h-4.9v-.7h4.9v.7ZM949.3,779.1h-4.9v-.8h4.9v.8ZM944.5,783.3v-3.3h4.6v3.3h-4.6ZM945.3,782.5h3v-1.7h-3v1.7ZM954.2,780.5c0-.2-.1-.5-.2-.9-3.3.5-3.7.6-4,.7,0-.2-.2-.7-.3-.9.3,0,.7-.3,1.1-.7.2-.2.7-.7,1.3-1.4-1.5.1-1.9.2-2.1.3,0-.2-.2-.7-.3-.9.2,0,.5-.2.7-.5s1.2-1.5,1.7-2.7l.9.4c-.5,1-1.2,2.1-1.9,2.8h1.6c.4-.5.7-1.1,1-1.5l.9.4c-1,1.4-2,2.7-3.1,3.7l2.3-.3c-.1-.4-.3-.8-.5-1.1l.8-.2c.4.9.8,2,.9,2.7l-.8.2ZM951,781c-.1.9-.4,2.1-.6,2.8-.2-.1-.5-.3-.8-.4.3-.8.4-1.7.5-2.6l.9.2ZM952.1,783.5c0-.7-.1-1.7-.3-2.6h.8c.2.7.4,1.7.4,2.4l-.8.2ZM954.2,783.4c-.1-.7-.4-1.8-.7-2.7l.7-.2c.3.8.6,1.9.7,2.6l-.8.2Z"/>
          <path class="cls-25" d="M771.3,812.9c-.8,2.4-1.8,4.4-3.2,6.1.7,1.9,1.6,2.9,2.5,2.9s.8-.9.9-3.4c.3.3.7.5,1,.6-.2,3-.7,3.9-2,3.9s-2.5-1.2-3.4-3.1c-1.1,1.2-2.4,2.3-3.9,3.1-.2-.3-.6-.7-.9-1,1.7-.9,3.1-2,4.3-3.4-.7-2.1-1.1-4.7-1.4-7.7h-6.5v2.5h4.7v.5c0,4.1-.2,5.6-.6,6.1-.3.3-.5.5-1,.5-.5,0-1.3,0-2.2,0,0-.4-.1-.8-.3-1.1.9,0,1.7,0,2,0s.4,0,.6-.2c.3-.3.3-1.5.4-4.8h-3.5v.3c0,2.5-.3,6.1-1.9,8.5-.2-.2-.7-.7-1-.8,1.5-2.2,1.7-5.3,1.7-7.7v-5.1h7.6c0-1,0-2.1,0-3.1h1.3c0,1.1,0,2.1,0,3.1h5.9v1.2h-5.8c.2,2.5.5,4.8,1,6.5,1-1.5,1.8-3.2,2.5-5.1l1.2.3ZM770.7,809.8c-.7-.6-2.1-1.6-3.3-2.2l.7-.7c1.2.6,2.6,1.5,3.3,2.1l-.7.8Z"/>
          <path class="cls-25" d="M792.3,818.1v1.1h-15.9v-1.1h7.8c-.2-.5-.5-.9-.7-1.4l1.1-.3c.4.5.7,1.2,1,1.7h6.8ZM782.5,820.2c-1.3,1.3-3.4,2.4-5.1,3.1-.2-.2-.7-.7-1-.9,1.8-.6,3.8-1.5,4.9-2.6l1.2.5ZM778,811h-1.2v-3.3h15.2v3.3h-1.2v-2.2h-12.8v2.2ZM778.8,816.3v-6h11.1v6h-11.1ZM779.9,812.9h8.7v-1.6h-8.7v1.6ZM779.9,815.4h8.7v-1.6h-8.7v1.6ZM787.1,819.7c1.7.8,3.9,2,5.2,2.7l-1,.8c-1.2-.8-3.4-2-5.2-2.8l1-.7Z"/>
          <path class="cls-25" d="M797.9,818.6c-.2,1.6-.6,3.3-1,4.4-.2-.1-.7-.3-1-.4.4-1.1.7-2.7.9-4.2l1.1.2ZM802,817.5c0-.3-.2-.6-.3-1-4.4.7-4.9.8-5.3,1,0-.2-.3-.8-.4-1.1.4,0,.8-.5,1.4-1.2.3-.3,1-1.2,1.8-2.2-2.2.3-2.7.4-2.9.5,0-.3-.2-.8-.4-1.1.3,0,.6-.5,1.1-1,.4-.5,1.8-2.7,2.6-4.6l1.1.5c-.9,1.7-2,3.5-3.1,4.9l2.3-.2c.5-.7,1-1.6,1.5-2.4l1,.6c-1.3,2.1-2.9,4.3-4.5,5.9l3.3-.5c-.2-.6-.5-1.2-.7-1.7l.9-.3c.5,1.2,1.1,2.7,1.3,3.6l-1,.4ZM799.9,818.3c.2,1.2.5,2.8.5,3.9l-1,.2c0-1.1-.2-2.7-.5-3.9l1-.2ZM801.9,817.8c.4,1,.8,2.3,1,3.2l-1,.3c-.2-.9-.6-2.2-.9-3.2l.9-.3ZM809.2,815.1c.3,4.3,1.1,6.9,2.1,6.9s.5-.9.6-2.9c.2.3.6.5.9.6-.1,2.6-.5,3.4-1.6,3.4-1.8,0-2.7-3.3-3.1-8.1h-3.4v6.6l3.1-1c0,.3,0,.8.1,1.1-3.7,1.2-4.2,1.5-4.5,1.7-.1-.3-.4-.7-.6-.9.3-.2.6-.6.6-1.4v-12.6h0c2.7-.4,5.8-.9,7.6-1.5l.9,1c-.9.3-1.9.5-3.1.7,0,1.9,0,3.6.1,5.2h3.2v1.1h-3.1ZM808,814c0-1.5-.1-3.2-.2-5-1,.2-2.1.3-3.1.5v4.5h3.3Z"/>
          <path class="cls-25" d="M819.8,812.4c1.5,0,2.7,1.2,2.7,2.7s-1.2,2.7-2.7,2.7-2.7-1.2-2.7-2.7,1.3-2.7,2.7-2.7ZM819.8,817c1.1,0,1.9-.8,1.9-1.9s-.8-1.9-1.9-1.9-1.9.8-1.9,1.9.8,1.9,1.9,1.9Z"/>
        </g>
      </g>
    </g>
  </g>
</svg>