<?xml version="1.0" encoding="UTF-8"?>
<svg xmlns="http://www.w3.org/2000/svg" version="1.1" xmlns:xlink="http://www.w3.org/1999/xlink" viewBox="0 0 900 1200">
  <defs>
    <style>
      .cls-1, .cls-2, .cls-3, .cls-4, .cls-5, .cls-6, .cls-7, .cls-8, .cls-9, .cls-10, .cls-11, .cls-12, .cls-13, .cls-14 {
        stroke-miterlimit: 10;
      }

      .cls-1, .cls-2, .cls-3, .cls-4, .cls-5, .cls-7, .cls-8, .cls-15, .cls-10, .cls-11, .cls-12, .cls-13, .cls-14 {
        stroke: #000;
      }

      .cls-1, .cls-3, .cls-6, .cls-16, .cls-13 {
        fill: none;
      }

      .cls-2, .cls-7, .cls-17, .cls-12 {
        fill: #ed1c24;
      }

      .cls-3, .cls-5, .cls-8, .cls-15, .cls-9, .cls-12 {
        stroke-width: 2px;
      }

      .cls-3, .cls-11 {
        stroke-linecap: round;
      }

      .cls-18, .cls-4, .cls-8, .cls-15 {
        fill: #fff;
      }

      .cls-6 {
        stroke: #fff;
      }

      .cls-7, .cls-10, .cls-11 {
        stroke-width: 3px;
      }

      .cls-15 {
        stroke-linejoin: round;
      }

      .cls-9 {
        stroke: #f9db28;
      }

      .cls-10, .cls-11, .cls-14 {
        fill: #f9db28;
      }

      .cls-13 {
        stroke-width: 5px;
      }

      .cls-19 {
        clip-path: url(#clippath);
      }

      .cls-14 {
        stroke-width: 4px;
      }
    </style>
    <clipPath id="clippath">
      <rect class="cls-16" x="986.8" y="-6" width="900" height="900"/>
    </clipPath>
  </defs>
  <!-- Generator: Adobe Illustrator 28.7.4, SVG Export Plug-In . SVG Version: 1.2.0 Build 166)  -->
  <g>
    <g id="Layer_1">
      <rect x="-8.4" y="-12" width="916.8" height="1223.9"/>
      <g>
        <rect class="cls-17" y="-6" width="900" height="900"/>
        <g>
          <path class="cls-12" d="M76.6,596.9s-15.2,17-18.8,25.5c-3.6,8.5-21.5,17.6-21.5,43.2s19.6,59,28,62.8,11.1,5.3,14.8,10.3c3.7,5,9.2,10.6,15.3,10.4s22.5,28.5,50.7,10.5,29-104.9-7.8-134.4c-36.8-29.5-60.7-28.4-60.7-28.4Z"/>
          <path d="M125.5,632s-55.1,2.2-61.5,11.8c0,0,56.3-7,63,5.9,6.7,12.9-1.5-17.7-1.5-17.7Z"/>
          <path d="M64.3,728.5c8.4,3.8,11.1,5.3,14.8,10.3s9.2,10.6,15.3,10.4c.5,0,1,.1,1.5.4-4.5-5-7.5-9.8-8-14.2-2.8-23.3-30.7-36-39.4-43.7-8.7-7.7-11.9-20.5-11.8-32.7-.3,2.1-.4,4.3-.4,6.6,0,25.7,19.6,59,28,62.8Z"/>
          <path class="cls-12" d="M834,596.9s15.2,17,18.8,25.5c3.6,8.5,21.5,17.6,21.5,43.2,0,25.7-19.6,59-28,62.8-8.4,3.8-11.1,5.3-14.8,10.3s-9.2,10.6-15.3,10.4c-6-.2-22.5,28.5-50.7,10.5-28.2-17.9-29-104.9,7.8-134.4,36.8-29.5,60.7-28.4,60.7-28.4Z"/>
          <g>
            <path class="cls-15" d="M455.3,736h206.8s2.4-25.3,2-47.5c-.1-7.3-4-37.7-5.6-48,0,0,9,9.4,22,12.8,13.1,3.4,36.3,37.2,65.5,30.9,29.2-6.4-5.6-37.1,11.4-44.7,17-7.6,44.3-21,53.7-28.2,9.4-7.2,21.9-3.6,27.8-13l-6.3-22.4s5.4-9.6-.8-12.1c-6.2-2.5-24.9-16.8-28-20.8-3.2-4-14.6-40.9-45-56.3-30.4-15.5-63.1-73.8-104.8-102.4-41.6-28.6-184.6-16.9-198.7-16.5-14.1-.4-157.1-12.1-198.7,16.5-41.6,28.6-74.3,86.9-104.8,102.4-30.4,15.5-41.8,52.3-45,56.3-3.2,4-21.8,18.3-28,20.8s-.8,12.1-.8,12.1l-6.3,22.4c5.8,9.4,18.4,5.8,27.8,13,9.4,7.2,36.7,20.6,53.7,28.2,17,7.6-17.8,38.3,11.4,44.7s52.4-27.5,65.5-30.9c13.1-3.4,22-12.9,22-12.9-1.6,10.3-.7,40.9-.2,48.2,1.1,15.6,5.3,47.5,5.3,47.5h198.1Z"/>
            <path d="M630.5,575.5c-7,20.5-10.5,43.5-10.5,58s-1,20.4-6.2,33.6c-7.2,18.4-9.6,39.5-8.8,43.4,0,0,8.3-32.4,12.3-40.4s8.5-32,6.7-43.7,6.5-50.9,6.5-50.9Z"/>
            <path d="M361.4,656.1c19.9,42.9,25.9,71.4,57.8,87.8,5.4,2.8.2,34.9-22.6.2-19.9-30.2-35.2-88-35.2-88Z"/>
            <path d="M666.9,499.5s2.4,35.4-8.5,50.1c0,0,9.6-13.3,11.9-19.6,2.2-6.4-3.4-30.5-3.4-30.5Z"/>
            <path d="M756.7,663.7c-15-21.5-70.8-27.4-80-37.2-9.9-10.6-14-29.9-14.4-48.7s-6.3-20.9-6.3-20.9c2.3,16.5-5.1,46-2.4,58.1,2.7,12.1,4.8,25.4,4.8,25.4v.2c1.3,1.2,9.9,9.6,22,12.7,13.1,3.4,36.3,37.2,65.5,30.9,13.9-3,13.3-11.5,10.7-20.5Z"/>
            <path d="M127.3,532.5c.2,11.2,14.2,18.7,15.1,27.6s-27.1-1.1-34-.7c0,0,5.4-.7,11.9-.2,3.2.2,12.6-.7,13.7-2.3s-6-11.7-6.7-15.8,0-8.6,0-8.6Z"/>
            <path d="M251.5,579s-1.6,29.5-11.4,38.6c-9.8,9.1-14.5,12.2-21-2-6.5-14.3-13.8,16.6-24.3,25.1-10.5,8.5-24,4.7-27.8,16.2-1.5,4.5-7.4,11.5-14.1,18.5,1,4,4.3,7.2,11.8,8.9,29.2,6.4,52.4-27.5,65.5-30.9,13.1-3.4,22-12.9,22-12.9,0,0,2.1-13.3,4.8-25.4,2.7-12.1-5.4-35.9-5.4-35.9Z"/>
            <path d="M256.7,548.4s6-16.3,4.3-22.6-7.2-4.7-8.3-1.3,4.1,23.9,4.1,23.9Z"/>
            <path d="M383.8,529.4s6.9,22.7,13.4,31.1c6.5,8.4,4.7,14.4,7.7,23.8,3,9.4,1.2,27.2,7.1,36.1,0,0-6.2-4.9-9.6-35.3s-23.2-32.2-29.5-55.7c-6.4-23.5,10.9,0,10.9,0Z"/>
            <path class="cls-8" d="M368.1,469.2s-12.6,42.9-7.9,58.4c0,0,50.7,19.3,60.4,20.6s-52.5-78.9-52.5-78.9Z"/>
            <g>
              <circle class="cls-1" cx="453.3" cy="585.1" r="7.1"/>
              <circle class="cls-1" cx="453.3" cy="585.1" r="3.6"/>
            </g>
            <g>
              <circle class="cls-1" cx="453.3" cy="633.5" r="7.1"/>
              <circle class="cls-1" cx="453.3" cy="633.5" r="3.6"/>
            </g>
            <path d="M435,556.2s0,.5-.3,1.3c-.2.9-.4,2.1-.7,3.7-.5,3.2-1.1,7.8-1.6,13.3-.3,2.8-.5,5.8-.7,9-.1,1.6-.2,3.2-.4,4.9v.3s0,.3,0,.3v.6c0,.4,0,.8,0,1.2,0,.8,0,1.7.1,2.5.5,6.9,1.4,14.4,1.4,21.9,0,3.8-.6,7.5-.9,11.2-.4,3.7-.7,7.2-1.1,10.7-.6,7-1,13.5-1.2,19.1,0,2.8,0,5.4,0,7.6,0,1.1,0,2.2,0,3.2,0,1,0,1.9.1,2.7,0,1.6.2,2.9.3,3.8,0,.9.1,1.3.1,1.3,0,0,0-.5-.1-1.3,0-.9-.3-2.1-.4-3.8,0-.8-.1-1.7-.2-2.7,0-1,0-2-.2-3.2,0-2.3-.1-4.8-.1-7.6,0-5.6.2-12.1.7-19.1.2-3.5.5-7.1.8-10.8.3-3.7.7-7.4.6-11.1,0-3.7-.4-7.4-.8-11-.4-3.6-.8-7.2-1.2-10.8,0-.9-.1-1.8-.2-2.6,0-.5,0-.9,0-1.4v-.6s0-.4,0-.4v-.3c.1-1.7.2-3.3.3-4.9.1-3.2.3-6.2.5-9.1.4-5.6.9-10.3,1.3-13.6.2-1.6.4-3,.6-3.8.2-.9.2-1.3.2-1.3l2.9.6Z"/>
            <path d="M82,576.9c1.6,9.4,62.1,29,73.8,45.3,0,0-4.2-12.1-37.8-30.3s-36-15-36-15Z"/>
            <path d="M653.8,548.4s-6-16.3-4.3-22.6c1.8-6.3,3-3.1,4.1.2,1.1,3.4.2,22.4.2,22.4Z"/>
            <path d="M526.8,529.4s-6.9,22.7-13.4,31.1c-6.5,8.4-4.7,14.4-7.7,23.8s-1.2,27.2-7.1,36.1c0,0,6.2-4.9,9.6-35.3,3.4-30.4,23.2-32.2,29.5-55.7s-10.9,0-10.9,0Z"/>
            <path class="cls-8" d="M542.5,454.4s12.6,57.7,7.9,73.1c0,0-50.7,19.3-60.4,20.6s52.5-93.7,52.5-93.7Z"/>
            <path d="M828.5,576.9c-1.6,9.4-62.1,29-73.8,45.3,0,0,4.2-12.1,37.8-30.3,33.6-18.1,36-15,36-15Z"/>
            <path d="M238,498.8s1.7,28,6.4,38.1c4.7,10.1,5,24.2,5,24.2,0,0-4.6-12.6-6.7-18.5s-4.7-18.1-4.7-26.5v-17.2Z"/>
            <path d="M228.9,538.2s7.6,24.6,12.3,28.9,8.2,9.7,8.2,9.7c0,0-7.7-4.1-12.4-10.2-4.7-6.2-8.1-28.3-8.1-28.3Z"/>
          </g>
          <rect class="cls-7" x="-8.4" y="735.6" width="916.8" height="160.4"/>
          <path d="M96.8,733s-59.6,44.8-22.6,57.5c73.4,25.1,120.1-23.5,121.1-34.2,1-10.7-98.5-23.3-98.5-23.3Z"/>
          <path d="M813.7,733s59.6,44.8,22.6,57.5c-73.4,25.1-120.1-23.5-121.1-34.2-1-10.7,98.5-23.3,98.5-23.3Z"/>
          <g>
            <path class="cls-12" d="M138.5,624.6s12.8-11.6,30.9-16.8c18.1-5.3,24.3-9.8,32.3-4.9,8.8,5.5,16.1,2.4,20.3,3.2,4.2.8,11.9,5.1,11.9,10.9s-2.7,11.7-10.6,15.9c-7.8,4.2-20,7.7-37.1,5.8-17-1.9-47.6-14.1-47.6-14.1Z"/>
            <path d="M199.6,619.9c-16.2.6-25.6,9.8-29.8,15.2,5.8,1.6,11.6,2.9,16.3,3.5,17,1.9,29.3-1.6,37.1-5.8,9.1-12.9-10.4-13.3-23.6-12.9Z"/>
            <g>
              <path class="cls-5" d="M141.7,317.5s-8.6,61.5-6.4,105.9c2.1,44.4,10,173.8,10,173.8l50.8-3.6s-18.2-206.8-30.6-237.5-23.8-38.6-23.8-38.6Z"/>
              <path class="cls-6" d="M141.7,317.5s10.3,140.2,16.3,189.8c6,49.6,9.9,87,9.9,87"/>
              <path class="cls-12" d="M180.4,594.8s3.2,14.3,2.2,17.1c0,0-10.4,5.7-8.9,21.8,1.4,16.1,20.7,127,18.6,133.1-2.1,6.1-23.6,3.2-23.6,3.2,0,0-22.2-90.1-21.1-122.7,1.1-32.6-7.5-45.8-2.1-50.1,5.4-4.3,35-2.5,35-2.5Z"/>
            </g>
            <path class="cls-12" d="M95.4,638.6c-8.2,7.8-3.8,16-3.2,24.4.5,8.4-8.1,16.5-7.3,31.7.8,15.2,8.4,16,9.2,23.5s-1.1,13,2.7,20c3.8,7,10.4,8.7,10.8,17.3s6.5,20.9,15.2,19.9c8.7-1,23.1,4.2,33.9,0,10.8-4.1,32.9-13.5,37.8-18.1s8.4-13.4,6-19.6-4.4-8.5-4.4-8.5c0,0,5-4.5,6.4-8s3.7-13.9,2.5-18.5-6.9-7.6-6.9-7.6c0,0,5.2-2.2,7.2-8.3s2-19.7-2.2-22.5-9.5-8-9.5-8c0,0,3.9-5.8,1.2-11-2.7-5.1,4.5-15-8.5-25.4-13-10.4-39.9.8-46.8,2.1-7.2,1.4-14.9.2-24.1,5.1-9.2,4.8-12.9,4.9-19.9,11.5Z"/>
            <path d="M193.5,656.4s3.9-5.8,1.2-11c-2.4-4.6,3.1-13.1-5.2-22.3h0c5.1,7.6,3.8,17.8.3,22.7-3,4.2-7.8,4-15.6,4.9-5.9.6-10.6,1.3-15.5,1.5-16.2.8-30,12.3-30,12.3,12.3-5.5,30.9-4.1,44.7-6.7,9.5-1.8,19.5,1,25.5,3.5-2.9-2.4-5.4-4.8-5.4-4.8Z"/>
            <path d="M205.2,686.8c1.5-4.3,1.8-12.2.5-17.5,0,.3,0,.7,0,1,1.8,16.6-7.8,23-18.5,23.6-10.7.5-17.5,4.1-23.6,6.8-6.1,2.8-22.8,4.5-22.8,4.5,10.7,1.7,32.1-4.6,38.2-5,6.1-.4,15-3.7,18.7-5.3h.4c1-.4,5.2-2.7,7-8Z"/>
            <path d="M200.4,737.7c-2.4-6.2-4.4-8.5-4.4-8.5,0,0,4.1-3.7,5.9-7.1-8.7,7.8-32.5,11.2-42.9,14.9-10.4,3.7-12.4,5.1-18.2,4.7,0,0,8,4.9,17.7,0,9.7-4.8,21.5-7.3,28.3-6,6.7,1.3,9.4-4.8,13.5,2,0,0,0,0,0,0,0,0,0,0,0,0Z"/>
            <path d="M108.9,708.2c9.6-1.4,13.9-11.9,13.9-11.9,0,0-2.7,0-10.4,4s-10.4-2.4-17.9,0c-3.5,1.1-6,9.1-9.1-1.1,1.9,10.8,8,12.2,8.7,19,.3,2.4.2,4.5.2,6.6.3-9.1,10.8-16.1,14.7-16.6Z"/>
            <path d="M138.3,771.1c-5.3-1.9-7.6-12.5-7.6-12.5,0,0-.4,9.3-7.8,12-5.3,2-9.2.6-12.4-4.3,2.7,5.4,7,9.8,12.3,9.2,8.7-1,23.1,4.2,33.9,0,3.6-1.4,8.4-3.3,13.4-5.4-14.3,5.6-28,2.4-31.7,1.1Z"/>
            <path d="M90.7,653.4c.4,3.2,1.2,6.4,1.4,9.6.3,4.6-2.1,9.1-4.3,14.6.1-.2,5.6-9.2,10.1-12,4.6-2.9,13.1-1.9,13.1-1.9-9.4-7.5-17.6-6-20.4-10.3Z"/>
          </g>
          <g>
            <path class="cls-12" d="M772.1,624.6s-12.8-11.6-30.9-16.8-24.3-9.8-32.3-4.9c-8.8,5.5-16.1,2.4-20.3,3.2s-11.9,5.1-11.9,10.9,2.7,11.7,10.6,15.9c7.8,4.2,20,7.7,37.1,5.8,17-1.9,47.6-14.1,47.6-14.1Z"/>
            <path d="M710.9,619.9c16.2.6,25.6,9.8,29.8,15.2-5.8,1.6-11.6,2.9-16.3,3.5-17,1.9-29.3-1.6-37.1-5.8-9.1-12.9,10.4-13.3,23.6-12.9Z"/>
            <path class="cls-12" d="M815.1,638.6c8.2,7.8,3.8,16,3.2,24.4-.5,8.4,8.1,16.5,7.3,31.7-.8,15.2-8.4,16-9.2,23.5-.8,7.6,1.1,13-2.7,20-3.8,7-10.4,8.7-10.8,17.3-.4,8.5-6.5,20.9-15.2,19.9-8.7-1-23.1,4.2-33.9,0-10.8-4.1-32.9-13.5-37.8-18.1-4.9-4.7-8.4-13.4-6-19.6,2.4-6.2,4.4-8.5,4.4-8.5,0,0-5-4.5-6.4-8-1.4-3.6-3.7-13.9-2.5-18.5,1.2-4.6,6.9-7.6,6.9-7.6,0,0-5.2-2.2-7.2-8.3-2.1-6.1-2-19.7,2.2-22.5,4.2-2.7,9.5-8,9.5-8,0,0-3.9-5.8-1.2-11,2.7-5.1-4.5-15,8.5-25.4,13-10.4,39.9.8,46.8,2.1,7.2,1.4,14.9.2,24.1,5.1,9.2,4.8,12.9,4.9,19.9,11.5Z"/>
            <path d="M802.7,741.9s-1.8-7.1-6.4-8.8-15.8,2.5-15.8,2.5c0,0,5.4,5.4,11.1,5.4,5.7,0,11.1,1,11.1,1Z"/>
            <path d="M717,656.4s-3.9-5.8-1.2-11c2.4-4.6-3.1-13.1,5.2-22.3h0c-5.1,7.6-3.8,17.8-.3,22.7,3,4.2,7.8,4,15.6,4.9,5.9.6,10.6,1.3,15.5,1.5,16.2.8,30,12.3,30,12.3-12.3-5.5-30.9-4.1-44.7-6.7-9.5-1.8-19.5,1-25.5,3.5,2.9-2.4,5.4-4.8,5.4-4.8Z"/>
            <path d="M705.3,686.8c-1.5-4.3-1.8-12.2-.5-17.5,0,.3,0,.7,0,1-1.8,16.6,7.8,23,18.5,23.6,10.7.5,17.5,4.1,23.6,6.8,6.1,2.8,22.8,4.5,22.8,4.5-10.7,1.7-32.1-4.6-38.2-5-6.1-.4-15-3.7-18.7-5.3h-.4c-1-.4-5.2-2.7-7-8Z"/>
            <path d="M710.2,737.7c2.4-6.2,4.4-8.5,4.4-8.5,0,0-4.1-3.7-5.9-7.1,8.7,7.8,32.5,11.2,42.9,14.9,10.4,3.7,12.4,5.1,18.2,4.7,0,0-8,4.9-17.7,0s-21.5-7.3-28.3-6c-6.7,1.3-9.4-4.8-13.5,2,0,0,0,0,0,0,0,0,0,0,0,0Z"/>
            <path d="M801.6,708.2c-9.6-1.4-13.9-11.9-13.9-11.9,0,0,2.7,0,10.4,4,7.7,4.1,10.4-2.4,17.9,0,3.5,1.1,6,9.1,9.1-1.1-1.9,10.8-8,12.2-8.7,19-.3,2.4-.2,4.5-.2,6.6-.3-9.1-10.8-16.1-14.7-16.6Z"/>
            <path d="M772.2,771.1c5.3-1.9,7.6-12.5,7.6-12.5,0,0,.4,9.3,7.8,12,5.3,2,9.2.6,12.4-4.3-2.7,5.4-7,9.8-12.3,9.2-8.7-1-23.1,4.2-33.9,0-3.6-1.4-8.4-3.3-13.4-5.4,14.3,5.6,28,2.4,31.7,1.1Z"/>
            <path d="M819.8,653.4c-.4,3.2-1.2,6.4-1.4,9.6-.3,4.6,2.1,9.1,4.3,14.6-.1-.2-5.6-9.2-10.1-12-4.6-2.9-13.1-1.9-13.1-1.9,9.4-7.5,17.6-6,20.4-10.3Z"/>
          </g>
          <g>
            <path d="M384.3,459.5s-8.8,16.4-32.8,9.9c-24-6.6-27.3-18.5-28.9-27.9-1.6-9.4-10.7-.8-11.3-8.6-.6-7.8.2-13.5-6.4-17.2-6.6-3.7-24.1-2.5-23.9-15.2.2-12.7-4.5-7.2-3.5-24,1-16.8,3.1-11.5-.1-20.5-2.9-8.2,2.6-12.4,8.3-14.8s-3.1-6.3-.7-12.3c4.9-12.4-.5-12.8,1.1-24.5,1.6-11.7-7.6-15.6,2.9-25.2,10.5-9.6,0-11.7,13.1-17.2,0,0-6.4-4.3-4.3-13.5s-4.7-15.2,10.3-20.5c15-5.3,6.6-10.9,14.8-16.8,8.2-6,6.8-26.8,20.8-18.4s1.4-20.1,28.5-16.6c27.1,3.5,24.4-18.4,47.3-21.5,23-3.1,18.7,20.1,28.6,14.2,9.8-6,24.8-22.8,36.3-7.2,11.5,15.6,33-6.8,35.2,6.6,2.2,13.4,24.3,8,25.1,20.3.8,12.3,26.6.6,28.6,24.4,2.1,23.8,19.5,9,15,32.6-2.3,12,2.6,17,13.6,19.7,16.4,4.1,15.6,24.7,13.8,33.1-1.4,6.8,15.2,6.6,11.5,20.5-3.7,14-5.2,11.9-4.4,16,.8,4.1,2.9,10.7-4.5,17.2,0,0,18.5,12.7,6.2,31.2-12.3,18.5,3.7,18.5-11.5,26.7-15.2,8.2-.8,18.9-19.1,21.8-18.3,2.9-8,29.6-38,15.2-30-14.4-25.9-23-41.9-17.7-16,5.3-129.7,30.4-129.7,30.4Z"/>
            <path class="cls-2" d="M438.4,226.3c-52.7,2.1-85.3,37.7-92.7,69.5-7.4,31.9-1,85,2.9,98.5,3.9,13.5,1.6,48.9,13.5,70.8,11.9,21.9,34,52.6,36.4,58.9,2.4,6.3,7.5,9.3,7.5,9.3,0,0,15,19.1,18,24,3,4.9,14.6,12.9,28.1,13.1,13.5.2,33.3-7.3,40.6-28.8,0,0,13.9-11.2,21-29.4,7.1-18.2,11.2-27.5,18.7-37.8,7.5-10.3,17.6-24.9,14.6-68.7s2.8-59.2.5-74.7c-2.3-15.4,10.9-109.8-109.1-104.9Z"/>
            <path d="M383.4,383s-10.8,2.1-7.3,7c1,1.3,1.7.7,1.7.7,0,0,5.4-2.1,5.8.8.4,3,3.2,6.1,3.2,6.1,0,0-4.4-1.4-5.4-2.5-1-1.1-2.3-2.4-2.7-.7s2.1,6.4,8.1,7.5c0,0-10.4-2.4-11.8-5.1s-1.9-9-5.3-8.4c0,0,.7-2.3,3.3-3.6,2.6-1.3,10.4-1.8,10.4-1.8Z"/>
            <path d="M513.1,513.9c-5.8,7.9-10,7.6-9.3.7.8-8.5,8.5-27.1,8.5-27.1-6.7,6.9-14.6,42.3-19.5,54.3,0,0,13.1-10.5,20.4-27.8Z"/>
            <path d="M457.3,420.9s7,.2,11.2,5.3c4.2,5,23.3,24.6,24.7,30.3,0,0-6.5-9-16.2-17.8-9.7-8.7-11.3-15-19.6-17.8Z"/>
            <path d="M414.3,426.9c-2.7,4.7-13.5,15.7-17.4,27.1,0,0,4.5-8.7,8.7-12.3,4.2-3.6,8.7-14.8,8.7-14.8Z"/>
            <path d="M428.8,473.2s5.6.5,10.4,0c4.7-.5,10.5-1.9,10.5-1.9,0,0-6.8,3.8-11.3,4-4.6.2-9.5-2.2-9.5-2.2Z"/>
            <path d="M438.3,479.1c4.7-.2,12.2-2.1,16.9-2.6,4.7-.5,20-1.4,22.7,0s7.7,6.9,7.8,9.3-3.1,35.1-17.5,47.5c-12.2,10.4-29.5,6.9-38.6-.5-9.2-7.4-20-38.1-20-41.8s-.2-6.9.4-8,4.2-4.6,8-4.5c3.8,0,6.9.2,11,0s5.4.8,9.3.6Z"/>
            <path d="M436.8,459c-6.8,0-9.8-2.6-13.6-14.4,0,0,1,11.8,4.8,13.9,6.2,3.5,8.2,5.1,13.2,3.2s8.1-5.1,8.4-8.9c0,0-3.6,6-12.8,6.1Z"/>
            <path d="M419.3,425.9c0,4.2-4.8,6-6.1,9s-1,10.8,4.3,9.3,4.3,3.5,4.3,3.5c0,0-2.2-1.7-5.2-1.7-3,0-6.1-1-5.7-5.9s1.8-7.2,3.4-8.9,4.1-2.3,5-5.4Z"/>
            <path d="M456.1,421.8c3.1.5,10.5,5.8,10.8,9.4s0,6.7-.3,8.7-2.6,4.3-4.6,4.4c-2,0-8.6.7-9.5,4.6,0,0-1.5-3.5.7-5.6,2.3-2.2,6.3-1.7,7.6-1s4.2-1.2,4.9-4.7.2-6.9-.6-7.9-6.9-.4-7.8-3.3-1.2-4.4-1.2-4.4Z"/>
            <path d="M381.8,481.4s8.2,15.4,10.3,22.9c2,7.2,8.8,15.6,9.1,24.5,2.3,3.1,4.9,4.6,4.9,4.6-2.8-8.5-14.8-39.4-17.2-43-2.4-3.5-7-9-7-9Z"/>
            <path d="M417.7,534.2s9.5,14,18.3,14.9c8.8.9,23.7,1.3,30.4-2.6,6.7-3.9,8.7-4.4,8.7-4.4,0,0-1.7,7.2-5.8,9.2-4.1,2-15.1.2-20.3,1.2-5.3,1.1-9,2.2-14.6-.2-5.7-2.4-16.6-18.2-16.6-18.2Z"/>
            <path d="M423.6,473.3s-7.2.4-9.3,2-5.9,1.5-7,2.8c0,0,4.4-.2,7.5-1.4s4.6-3,8.9-3.4Z"/>
            <path d="M462.6,470.8s10.9-1.1,15.9.5c5.1,1.6,7.2,4,7.2,4,0,0-3.5-2.1-9.6-3-6.1-.9-13.5-1.5-13.5-1.5Z"/>
            <path d="M500,370.9s5.7,3.4,7.1,5.7c1.4,2.3,3.3,5.6,2.9,8.1-.7,4,2.9,5.3,2.9,5.3,0,0-3.5-.2-4.8,2.1s-5.5,6.7-10.1,7.8c0,0,3.7-2.1,4.3-4,.6-1.9-.5-3.8-1.8-2.6-1.3,1.1-13.2,4.4-18.5,0-5.4-4.4,9.6-13.2,13.7-10.3,6.2,4.5,7.8,3.8,6.3,1.1s-8-5.3-8-5.3c7.3,0,9.8,5,10.9,3.1,2.2-4-4.9-11-4.9-11Z"/>
            <path class="cls-4" d="M467.1,392.9c4.1-.7,12.2-10.9,19.6-11.5,7.3-.6,10.6,2.1,12.3,4.8s4.4,3.4,4.4,3.4c0,0-.2.4-2.8.7s-4.2,2.4-11.3,3.2c-7.1.8-15.4-2.3-17.7-1.1-2.3,1.1-4.4.4-4.4.4Z"/>
            <path class="cls-4" d="M412.8,396.5s-3.8-2.9-6.5-4.2c-2.7-1.3-10.1-6.9-15.2-7-4.6,0-12.2,2.1-13.3,5.3,0,0,3-.1,3.3,1.4s5.8,8.9,16.4,7,9-2.7,11.6-2.6c2.6.1,3.7,0,3.7,0Z"/>
            <path d="M378.6,409.5s.6,1.5,7,2.3c6.3.8,14.4.9,22.1-1.1,7.7-2,11.2-10.1,14.2-9.8s4.4,3.5,4.4,3.5c.3-2.9-1-3.6-.9-4.7s7.5,1.4,8.9-.7c-3.1.4-10-2.6-10.2-3.3-.4-1.3-.8-2.5-2.3-3.3-2.5-1.3-7.7-3.4-13.6-8.6-5.9-5.1-13.4-4.4-20-10.1-6.5-5.7-10.2-14.3-15-16s-7.8,5.5-12.2,5.6-6.4,3.8-6.4,3.8c0,0,4.1,2.1,6.1,1.3s-2.1,5.6-2,8.2c0,0,.9-3.7,5.3-4.8s5.8-6.2,8-5.1c2.2,1.1,7.5,5.6,8.7,8.7,1.3,3.1,4.2,6.1,10.8,6.7,6.6.6,14.4,6.1,16.7,8.6,2.3,2.6,8.4,6.5,6.7,8.4-1.8,1.9-7.8,2.5-13.3,5.7-1.4.8-4.1,1.8-4.1,1.8,0,0,9.9-2.1,13.4-1.3-3,4.5-13.3,3.8-18.2,4.7-3.2.6-7.4,1.1-14.1-.5Z"/>
            <path d="M500.7,356.3c-11.4,1.8-14,12.7-23.5,16.9-13.2,5.8-15.8,15.4-19.2,18s-4.9,1-6.7,1.8,0,2.8-1.9,3.6c-1.9.8-6.1-.8-8.8,3.7,0,0,5.9-3.6,5.3,3.1-.6,6.7,2.6,9.4,7.2,8.8,4.6-.6,8.7.8,11.1,1,0,0-10.4-5.5-10.2-8.9s1.2-5.4,2.1-4.9,6,6.2,8.5,7.4,7.5,4.2,11.5,4.6c4,.4,13.4.5,16.3-.6,2.9-1.2,8.3-3.8,8.3-3.8,0,0-6.3,1.2-11.1,2.1-4.8,1-14.7-.3-17.5-2.1-2.8-1.8-5.9-3.9-5.9-7.9s3.3-2,4.5-1.3,4.5,2.9,8.8,3.1c0,0-6.6-3.4-7.5-4.7s-5.1-1.7-5-4.6-2.5-6.2,3.6-8.2c6.1-1.9,9.3-2.3,15.4-6.4,6.1-4.2,11.3-9.8,14.2-10.6,4.8-1.3,11.7,2.1,12,5.1,0,0-1.7-4.3-1.9-6.2s2.7-3,4-.7c0,0-2-3.1-5.1-4.3s-2.4-5-8.5-4.1Z"/>
            <path d="M537.6,384.7c-.9,4.5-3.3,8.7-3,13.6.3,4.9,6.1,8.7,4.3,14.9,0,0,3.2-9.7,1.4-11.9s-3.2-5.7-2.6-10.6c.6-4.9-.1-6-.1-6Z"/>
            <path d="M364.2,354s3.8-4.3,10.9-2.3c7.2,2,13.8,9.8,13.8,9.8,0,0-9.3-7-12.1-8.2-2.8-1.1-9-1.4-12.7.6Z"/>
            <path d="M498,352.4s8.7-3.3,11.6-1.6,11.7,9.5,9.2,14.8c0,0-.3-5.5-3.9-8.9-3.6-3.3-5.3-4.9-8.2-5.2-2.8-.3-8.7.9-8.7.9Z"/>
            <path d="M478.3,350.3s10.3-8.3,16.7-9.2c6.7-.9,12.6-.4,15.2,1.1,2.7,1.5,9.3,4.3,11.4,7.1,0,0-10.2-7.2-23.2-6.4-13,.8-20.1,7.4-20.1,7.4Z"/>
            <path d="M365.5,346s8.9-2,14.8,0c5.9,2,16.7,11,16.7,11,0,0-12.5-9.7-19.9-10.2s-11.7-.8-11.7-.8Z"/>
            <path d="M427.4,392.4s8.5-2.8,18.5-.5c0,0-8.3,2.9-18.5.5Z"/>
            <path d="M532,423.3s-.4,7.2-5.4,12c-3,2.9-11.3,4.1-17.2,3.5-4.4-.5-7.1,5.9-6.6,7s5.7,2.1,12.1,2.5,3.6-.4,4.8-1c4.6-2.2,9.4-5.6,11.3-8.6,2.7-4.4,1-15.4,1-15.4Z"/>
            <path d="M361.4,435.6s6,6.4,9.2,6.6c3.2.2,6.5,1.2,8.5,3.2s2.3,8,2.6,9.3-8.7-.6-10.7-3.1c-2-2.4-9.6-16.1-9.6-16.1Z"/>
            <path d="M343.2,356.2c-2.4-17,3.2-33.1,3.3-46.8.1-8.8,3.2-5.1,9.9-17.6,3.3-6.2-.4-16.3,10.9-21,6.7-2.8,7.4,3.7,14.4,3.4,15.8-.6,9.2-1,15.3.9,6.1,1.9,6.6,11.4,18.2,18.5,11.7,7.2,31,8.2,40.8-2.7,9.9-10.8,8.5-19.8,15.3-16.9,6.8,2.9,17.6-2.2,23.7-8s16.1-13.8,19.3-4.9c4,11.1,7.9,6.5,11.7,12.2,8.5,12.6-.4,38.5,8.5,51,8.9,12.6,12.4,33.3,11.9,42.3-.5,9,31-26,31-26l-19.3-89.9-84-54.1-106.1,9.7-52.6,76,2.6,43.1,25.2,30.7Z"/>
            <path class="cls-4" d="M472.4,482.2s2.7-2.3,3.3-3.4c0,0,0-.1-.3-.2-5.3-.6-16.5.1-20.3.5-4.7.5-12.2,2.4-16.9,2.6-3.9.2-5.1-.8-9.3-.6s-7.2,0-11,0c-.8,0-1.7.1-2.5.4,1.4,1.6,5.4,5.8,7.4,5.8,0,0,4.7,2.2,8.4,1.7,0,0,2.9,1.8,5.5,1.9,2.6.1,4.5,0,4.5,0,0,0,4.1.9,7.1.5,3-.4,4.2-1.6,4.2-1.6,0,0,7.8.6,9-1.8,0,0,3.5,0,4.8-.7s1.8-3.2,1.8-3.2c0,0,3.3.4,4.3-1.8Z"/>
          </g>
          <g>
            <ellipse cx="459.8" cy="829.2" rx="217" ry="52.1"/>
            <ellipse class="cls-12" cx="459.8" cy="797.9" rx="230.5" ry="53.8"/>
            <ellipse class="cls-1" cx="459.8" cy="797.9" rx="96.3" ry="22.5"/>
            <path class="cls-1" d="M668.1,814.4c-30.7,19.5-113.7,33.9-208.3,33.9s-173.7-13.7-206.1-32.5"/>
            <path class="cls-1" d="M256.5,778.6c34.1-18,113.4-30.9,203.3-30.9s139.1,8.6,179.6,21.4"/>
          </g>
        </g>
      </g>
      <g class="cls-19">
        <path class="cls-10" d="M1603.5,872v-443c4-2.3,3.9-3.2,4.7-6.9.8-3.7-2.9-4.5-2.5-9.3.4-4.9,16-15.2,9.4-37.1-6.7-21.9-27.2-27.2-36-28.3-8.7-1.1-5.3-8.2-5.3-11.9s-4.3-1.2-4.2-5.7c.1-4.5-3.4-2.9-3.6-5.8-.2-2.8-1.4-4.4-5.7-3.7-4.3.7-17-2.1-7.9-10.9s-.2-16.2,1.8-21.9c2-5.7,0-10.9-2.5-15-2.5-4.2,5.5-5.3-8.3-20.3-13.8-15-28.8,2.6-28.5,7.3.3,4.7-4.6,6.5-5.8,5.1-1.2-1.4-3.5,1.6-4.1,3.1s-2.3,1.8-3.3-2.2c-1-4.1-5.4-3.3-7.1-4.5-1.7-1.1-5.2-1-8.2-4.8-3-3.8-10.3-4.2-12.6-3.7-2.3.5-2.6,2.4-4.8,2.6-2.1.2-3.3-.2-5.8,2.8-2.4,3-1.4,6-5.8,6.9-4.4.9-5.4,9.2-7.8,8.8s-6.8,1.7-8.2,6.4c-1.4,4.7-3.8,6.9-5.2,4.3-1.4-2.6-4.7-2.4-6.8.6-5.8,8.3-11.4-2.9-2.7-3.6s7.7-6.9,6.4-10.3c-.7-1.8-2.1-3.5-1.5-5.2,1.7-4.3,3.1-4,6.5-6.4,6.8-4.9,6.8-7.6,6.9-17,.1-8.7-11.2-7.4-11.6-12.7-.5-5.3-11.1-5.2-8.1-10.5,3-5.3-1-8.3-.7-14.7.7-12.5-11.5-10.5-8.3-15,3.5-4.9,5.9-5,6.1-12.9.2-8-3.8-9.4,0-15.5,3.8-6.1-.3-12.5-6.1-15.7-5.8-3.2-5.8-7.8-5.8-7.8-1.1-6.1,7.2-4.7,10.8-6.4,3.7-1.7-2.7-4.9,16.4-1.4,19.1,3.5,20.1-2.4,28-10.8,7.9-8.3,5.1-19.1,3.4-24.2-1.7-5.1-2.6-10.6-.6-16.6,2-6.1-1.8-8.3-4.3-19.3-2.4-11-16.2-8.7-16.8-15.2-.6-6.5-10.6-9.3-10.4-15.6.2-6.3-3.9-9.3-8.5-12.4-4.7-3-9.1-3.5-15.6-8.3-6.6-4.9-15.2-4.5-20.3,0s-12.8,1.8-20.5,11.2c-7.7,9.3-.8,15.2-3,21.5-2.2,6.3-7.3,6.3-9.3,11.6s-10.7-2-15.9-1c-5.3,1-7.1,1.6-7.6-1.6s-8.1-10.4-17.8-5.4c-9.6,5-9,9.3-10.7,11.8-1.6,2.4-6.5,6.8-6.5,6.8,0,0-2.5-4.3-8.2-2.1-5.7,2.1-10.4,1.3-9.2-2.7,1.1-4.1,4.7-5.2,8-6.4,3.3-1.2,7.3-7.6,7.4-13.9.1-6.3-3.4-8.7-2.9-16.6.5-7.9-6.1-6.4-7.9-10.7-1.8-4.3-3-11.9-9.9-5.7,0,0-2.3-3.7-6.5-3.1-4.3.6,1.8-8.1-4-11-5.8-2.9-5.4-5.9-12.5-8.2-7.1-2.4-12.1-.8-14.6,2.1-2.5,2.9-8.6-1.8-10,4.6-1.4,6.4-4.5,2.1-6.5,7.8-2,5.8-7.8-2-10.2,1.4,0,0-2.2-6.2-1.4-8.2.8-1.9,5.8-2.5,6.2-9.5s-3.9-6.7-4.2-9.9c-.3-3.2.7-11-11.9-13.6-12.6-2.6-6.3-11.2-19.5-10.6-13.2.6-11.5,9.2-14.8,11.6-3.3,2.4-15.2,4-18.1,13.5-2.9,9.6-.9,11.7-2.9,16.4-2,4.7-6.1,3.2-7.3,9.3-1.2,6.1.5,9.4-3,12.5-3.5,3-6.5,2.6-5.6,8.8.9,6.2,4.7,5,6.1,6.4,1.4,1.4,3.6,4.5,3,5.8s-1.3,7.3-4,7.8c-2.7.5-2.2-2.7-7.9-6.5-5.7-3.8-10.6-6-14.8-.1-4.3,5.9-8.5,6.1-14,6.9s-11.6.6-16.6,9.3-5.5,18.3-12,24c-6.5,5.7-9.5,10.1-9.7,18.5s-1,13.9-2.3,18.8c-1.4,4.9,5,16,13.9,15.7,8.8-.3,13.4-6.2,17.4-5.5s8.7,7.5,7.8,11-4.9,7.2-7.6,8.5c-2.7,1.4-7.8,3.2-8.5,9.4-.8,6.2,2.9,11-.2,16.4-3,5.5-5.9,10.2-5,18.7.9,8.5,1.2,20.2,12.9,25.4,11.7,5.2,13.4,8.7,14.9,15.1,1.5,6.4,2.1,12.3-.2,13.7-2.3,1.4-9,1.2-12.3,6.7-3.3,5.5-10.8,5.9-17.4,6.1-2.4,0-3.9-5.1-7.5-9.3-1.8-2.1-5.7-1.3-7.4-4.6-4.2-8.3,2.8-21.2-15.4-29.7s-28.6,7-34,15.5c-5.5,8.5-10,7.9-15.8,10.4-5.8,2.4-9.1,8.8-9.1,16.7s3.2,9.1-1.2,14.6c-4.4,5.5-3.2,11.4-1.4,15.5,1.8,4.1-2.2,5.3-6.4,3s-8.7.4-10.4,5.3c-1.6,4.9-5.3,5.1-6.1,12.4-.8,7.3-4.6,3-11.9,3.2s-18.2,6.2-18.1,15.8c0,6-3,11.3-.8,18.9,1.7,5.8,5.1,9.9,7.1,13.5,2.1,3.5,1.4,5.7,2.7,9,1.5,3.8-1.6,6.9-1.4,11.2.2,4.3,2.9,5.6,3.3,10.6.7,8,9.7,3.9,10.7,8.9s-6.3,8.3-8.7,16.8c-2.4,8.5,3,12.2,3,15.6s.6,15.6,9.1,22.7c8.5,7.1,4.3,13.2,8.7,17.5s9.3.8,12.8,9.1c3.5,8.3,29.4,25.4,48.3,10.8,18.9-14.6,12.4-19.9,24.2-21.1,11.8-1.2,12.6,2.6,19.3-2.4,6.7-5.1,12.2-4.7,17.1-5.1,4.9-.4,9.2,1.6,12.9-2.6,3.7-4.3,6-9.5,4.4-11.9-1.6-2.3-.1-3.7-3.3-5.5-3.2-1.8-5.4-9.8.5-9.3s6.6,5.7,11.4,4.3,5.9-4.9,10.8-5.1c4.9-.2,10.7-8.1,7.4-12.1,0,0,7.9-1.3,9.5-5.5s-.7-8.4.3-10.7c1-2.2,6.5-3,8.3.8,1.8,3.9,4,5.9,7.1,5.6s5.9,4.5,9.5,7.4c3.7,2.9,14.8,4.8,19.3.9s8.4-9.6,10.1-5,7.3,10.1,11.3,11.7c0,0-.9,1.8-6.2,1.7-5.3-.1-10.5.5-12.9,7.6-2.4,7.1,1.4,13.5-.8,17.3-2.1,3.8-8.5,12.2-8.4,25.9,0,0-5-5.8-11.4-3.2-6.4,2.6-19.9,9.9-23,25.4-3,15.5-2.7,21.5-9.1,12.9s3.3-17.4-6.2-27.1c-9.6-9.7-11.4,4.6-14.8,6.1-3.3,1.5-10.4-3-15.8,5.8-5.5,8.8-4.9,12.7-10,19.1-5.2,6.4-7.9,15.3-6.4,17.7,0,0-9.8,3.8-11.1,9.4-1.2,5.7-7.7.4-20.7,17.5-13,17.1-8.5,39.8-13.4,47.5-4.9,7.7-12.3,22.3-14.7,33.2,0,0-2.4-3.8-6.2-2.7-7.8,2.3-5.4,8.2-9.7,12.1-14.1,12.8-10.4,33-18.3,44-7.9,11-23.8,12.7-34.8,29.8-11,17.1-4.6,22-11.7,27.1s-7.4,9.7-7.6,12.8c-.3,8.7-5.8,11.1-10.5,8.7-4.7-2.4-11.9-7.1-21.5-2.4-9.5,4.7-9.7,10.8-10.3,14.9-.6,4-6.1,6.8-9.4,6.9-3.2.2-8.2,3.9-8.1,8.6.2,4.7-1,6-3.1,8.2-2.1,2.3-2.7,5.1-2.4,6.6.9,5.7-11.5,5.8-12.5,11.8"/>
        <g>
          <path class="cls-11" d="M1125.8,375.6c-13.1,21.3-44.1,35.7-77.8,36.8-33.7,1.1-70.2,29.5-75.6,34-5.3,4.5-17.5,15.1-36.8,10.1s-23.4.8-33.7,1.7c-10.3.8-17.7-.7-36.1,2.6-18.5,3.3-38.6,22.6-57.1,44.8-18.5,22.2-12.7,39.8-19.7,50.9-7,11.1-16.8,25.9-11.1,48.5,5.8,22.6,18.6,30.1,22.8,33.2,3.1,2.3,5.6,7.6,1.4,14.7-1.9,3.3-3.4,2.3-8.2,7.9-15.2,17.7,10.2,24.4-5.2,33.4-15.4,9-6,12.5-12.1,24s1.6,15.4-.8,36.4c-2.5,20.9-11.5,30.5-10.5,42,2,21.5,7.5,36-31.2,83h97.9s34.2-73.4,57.6-83.7c23.4-10.3,17.7-26.3,24.1-32.9,6.4-6.6-2.9-16.7,11.1-21.5,14-4.8,10.1-11.3,15.3-17.7,5.2-6.4,1.2-6.5.1-13-1.1-6.4-7.7-4-9.7-5.6-2-1.5,2.7-8.1,7-5.7,4.3,2.4,6.9,4.5,19.4-5.4,12.5-9.9,7.2-18.5,8.4-19.9,1.2-1.4,2.5-11.2.5-14.3s-3.7-4.8-2.5-8.1c1.2-3.3-13.1-7.8-7.8-7.8s7.3-6.9,12.5-7.5c5.2-.6,4-7.4,8.5-7.2s9,9.7,23.8,10.6c14.8.9,23.4-8.3,26.9-11.3,3.5-3,7.1-1.4,15-7.6,7.9-6.2,4-12.7,7-16.9,3-4.2,6.4-1.6,17.5-2.2,11.1-.6,5.5-6.1,19.4-7.5,13.8-1.4.1,5.6,35.5,9.3,35.3,3.7,59.5-19.3,92-53.8,32.4-34.5,29.1-49.3,34.5-64.9,5.3-15.6,9-15.1,28.7-32.8,19.7-17.7,14.7-63.3,67.3-53.3,39.8,7.6,68.4-14.5,87.4-32.3,10.1-9.4,24.3-35.3,48.9-50.5,43.3-26.9,81-19.4,112.3-56.6,20.5-24.3,15.2-40.9,26.1-59.6,18.6-31.9,30.8-28.3,46.6-51,12.1-17.4,18.9-35,27.8-41.5,15.5-11.2,26.7-2,48.5-2.3,18.5-.2,46.4-10,71.6-16.9,71.8-20,56.9-141.5,129.6-143.1s94.8-89.3,133.9-157.2c39.1-67.8,137.6-150.2,137.6-150.2v-304s-160.2,72-244.4,133c-33.6,24.3-25.6,46.3-77.8,80.6-30.1,19.8-55.6,74.8-44.4,123.8,7.6,33.3-14.9,82.8-46.2,108.3-18.8,15.3-66,5.7-89.3,18.3-108.2,58.4-87.4,117-143.9,174.2-27.1,27.4-86.1,45.7-113.7,66.1-30.1,22.2-48.5,44.4-50,95.4-1.6,54.8-44.8,100.2-94.3,126.3-42.2,22.3-90.1,27.8-107.7,42.7-38.2,32.2-53.6,35.2-77.1,73.2Z"/>
          <path class="cls-11" d="M1125.8,375.6c-13.1,21.3-44.1,35.7-77.8,36.8-33.7,1.1-70.2,29.5-75.6,34-5.3,4.5-17.5,15.1-36.8,10.1s-23.4.8-33.7,1.7c-10.3.8-17.7-.7-36.1,2.6-18.5,3.3-38.6,22.6-57.1,44.8-18.5,22.2-12.7,39.8-19.7,50.9-7,11.1-16.8,25.9-11.1,48.5,5.8,22.6,18.6,30.1,22.8,33.2,3.1,2.3,5.6,7.6,1.4,14.7-1.9,3.3-3.4,2.3-8.2,7.9-15.2,17.7,10.2,24.4-5.2,33.4-15.4,9-6,12.5-12.1,24s1.6,15.4-.8,36.4c-2.5,20.9-11.5,30.5-10.5,42,2,21.5,7.5,36-31.2,83h97.9s34.2-73.4,57.6-83.7c23.4-10.3,17.7-26.3,24.1-32.9,6.4-6.6-2.9-16.7,11.1-21.5,14-4.8,10.1-11.3,15.3-17.7,5.2-6.4,1.2-6.5.1-13-1.1-6.4-7.7-4-9.7-5.6-2-1.5,2.7-8.1,7-5.7,4.3,2.4,6.9,4.5,19.4-5.4,12.5-9.9,7.2-18.5,8.4-19.9,1.2-1.4,2.5-11.2.5-14.3s-3.7-4.8-2.5-8.1c1.2-3.3-13.1-7.8-7.8-7.8s7.3-6.9,12.5-7.5c5.2-.6,4-7.4,8.5-7.2s9,9.7,23.8,10.6c14.8.9,23.4-8.3,26.9-11.3,3.5-3,7.1-1.4,15-7.6,7.9-6.2,4-12.7,7-16.9,3-4.2,6.4-1.6,17.5-2.2,11.1-.6,5.5-6.1,19.4-7.5,13.8-1.4.1,5.6,35.5,9.3,35.3,3.7,59.5-19.3,92-53.8,32.4-34.5,29.1-49.3,34.5-64.9,5.3-15.6,9-15.1,28.7-32.8,19.7-17.7,14.7-63.3,67.3-53.3,39.8,7.6,68.4-14.5,87.4-32.3,10.1-9.4,24.3-35.3,48.9-50.5,43.3-26.9,81-19.4,112.3-56.6,20.5-24.3,15.2-40.9,26.1-59.6,18.6-31.9,30.8-28.3,46.6-51,12.1-17.4,18.9-35,27.8-41.5,15.5-11.2,26.7-2,48.5-2.3,18.5-.2,46.4-10,71.6-16.9,71.8-20,56.9-141.5,129.6-143.1s94.8-89.3,133.9-157.2c39.1-67.8,137.6-150.2,137.6-150.2v-304s-160.2,72-244.4,133c-33.6,24.3-25.6,46.3-77.8,80.6-30.1,19.8-55.6,74.8-44.4,123.8,7.6,33.3-14.9,82.8-46.2,108.3-18.8,15.3-66,5.7-89.3,18.3-108.2,58.4-87.4,117-143.9,174.2-27.1,27.4-86.1,45.7-113.7,66.1-30.1,22.2-48.5,44.4-50,95.4-1.6,54.8-44.8,100.2-94.3,126.3-42.2,22.3-90.1,27.8-107.7,42.7-38.2,32.2-53.6,35.2-77.1,73.2Z"/>
          <path class="cls-9" d="M1236.8,375.6c-13.1,21.3-33.1,46.7-66.8,47.8-33.7,1.1-70.2,29.5-75.6,34-5.3,4.5-17.5,26.1-36.8,21.1s-23.4.8-33.7,1.7c-10.3.8-17.7-.7-36.1,2.6-18.5,3.3-38.6,22.6-57.1,44.8-18.5,22.2-23.7,17.8-30.7,28.9-7,11.1-16.8,25.9-11.1,48.5,5.8,22.6,18.6,30.1,22.8,33.2,3.1,2.3,5.6,7.6,1.4,14.7-1.9,3.3-3.4,2.3-8.2,7.9-15.2,17.7,10.2,24.4-5.2,33.4-15.4,9-6,12.5-12.1,24-6.2,11.5,1.6,15.4-.8,36.4-2.5,20.9-11.5,31.3-10.5,42.7,2,21.5,7.5,36.8-31.2,83.8h97.9s-20.8-74.1,2.6-84.4c23.4-10.3,17.7-26.7,24.1-33.3,6.4-6.6-2.9-16.9,11.1-21.7,14-4.8,10.1-11.4,15.3-17.8,5.2-6.4,1.2-6.6.1-13-1.1-6.4-7.7-4-9.7-5.6-2-1.5,2.7-8.1,7-5.7,4.3,2.4,6.9,4.5,19.4-5.4,12.5-9.9,7.2-18.5,8.4-19.9,1.2-1.4,2.5-11.2.5-14.3s-3.7-4.8-2.5-8.1c1.2-3.3-13.1-7.8-7.8-7.8s7.3-6.9,12.5-7.5c5.2-.6,4-7.4,8.5-7.2,4.5.2,9,9.7,23.8,10.6,14.8.9,23.4-8.3,26.9-11.3,3.5-3,7.1-1.4,15-7.6,7.9-6.2,4-12.7,7-16.9,3-4.2,6.4-1.6,17.5-2.2,11.1-.6,16.5-6.1,30.4-7.5,13.8-1.4-54.9,5.6-19.5,9.3,35.3,3.7,59.5-19.3,92-53.8,32.4-34.5,29.1-49.3,34.5-64.9,5.3-15.6,9-15.1,28.7-32.8,19.7-17.7,14.7-63.3,67.3-53.3,39.8,7.6,68.4-14.5,87.4-32.3,10.1-9.4,24.3-35.3,48.9-50.5,43.3-26.9,81-19.4,112.3-56.6,20.5-24.3,15.2-40.9,26.1-59.6,18.6-31.9,30.8-28.3,46.6-51,12.1-17.4,18.9-35,27.8-41.5,15.5-11.2,26.7-2,48.5-2.3,18.5-.2,46.4-10,71.6-16.9,71.8-20,56.9-141.5,129.6-143.1,72.6-1.6,94-89.3,133.1-157.2,39.1-67.8,235.8-150.2,235.8-150.2v-304s-159.4,72-243.6,133c-33.6,24.3-25.2,46.3-77.4,80.6-30.1,19.8-55.4,74.8-44.2,123.8,7.6,33.3,7.2,93.8-24.1,119.3-18.8,15.3-65.9,5.7-89.2,18.3-108.2,58.4-87.4,117-143.9,174.2-27.1,27.4-86,45.7-113.7,66.1-30.1,22.2-48.4,55.4-50,106.4-1.6,54.8-55.8,89.2-105.3,115.3-42.2,22.3-101.1,16.8-118.7,31.7-38.2,32.2-53.6,35.2-77.1,73.2Z"/>
          <path class="cls-3" d="M886.2,567.5c-5.9,8.8-24.1-4.2-37,7-10.7,9.2-22.3,5.6-28.5,23.3-6.5,18.5-19.7,23-3.3,44.8,10.2,13.6,27.1,0,30.2,22.2"/>
        </g>
        <g>
          <path class="cls-14" d="M827.6,909.2c6.2-17.6,13.2-15.5,11.5-19-1.7-3.5-12.1-15.4-11.4-24.4.7-9,5.2-17.6,5.2-19.5s.3-12.3,10-20.6,18.3-2.9,24.2-5.4c5.9-2.4,15.9-15.1,15.7-25.3-.2-10.2-5.4-8.1-8.3-14-2.9-5.9.2-15.1,3.3-18.5,3.1-3.5,5.2-17,7.8-22,2.6-4.9-4.7-22.1,0-29.6,4.7-7.5,1.6-18.2,17.9-27.2,16.3-9.1,25.7-4.4,29.7-5.3,4-.9,10.9-1.6,13.1,3.3,2.2,4.8,7.1,4.8,9.2-1,2.1-5.9,6.7-15.2,13.8-16.8,7.1-1.6-7.4-21.1,18.2-46,25.6-24.9,46.4-8.8,46.4-6.1,0,0,4.2-6.7,7.4-6.9s-3.8-10.4,16.4-22.7c20.2-12.3,43.2-4.4,44.9,7.4,1.7,11.8,8.3,12.3,4.7,21-3.6,8.7,3.1,15-8.8,25.8-4.2,3.8,16.7-.3,11.8,13.4-4,11.2,0,10.5,2.7,8.9,2.2-1.3,17.5-1.7,19.7-.5s4.5,2.1,4.9-2.9,1-9.6,6.6-10.1c5.6-.5,4.7-3.1,3.2-6-1.4-2.9,1.4-12.8,13-13,11.5-.1,19.5-6.7,25.2,3.2,5.7,10,9.3,12.6,12.5,15.3,3.1,2.7,4.2,9.9.9,12.5-3.2,2.6.6,3.8,2,5.1,1.4,1.3,3.6,6.4-3.8,9.1-7.4,2.7.5,10.7,5.2,13.1,4.7,2.4,19.9,7.9,17.4,17.2-2.6,9.3,0,11.9.3,17.6.5,7.4,12.7,10.6,15.8,21.5,2,7.3,3,19.5-2.8,26.6-5.2,6.4-15.4,7.8-17.3,11.1-12.1,20.8,2.4,19.7,2.8,28,.3,8.3,7.6,14.9,4.5,23.5-3.1,8.6,23.2,2.9,24.5,10.9,1.3,8,9.5,4.2,15,15.7s2.9,16.8,10.5,18.8c29.6,7.8,19.4-11.5,38.2-9.3s18.1,18.1,27.8,36.6"/>
          <path class="cls-9" d="M1247.2,913.2c-5.3-15.1-11.3-13.3-9.8-16.3,1.5-3,10.4-13.2,9.8-20.9-.6-7.7-4.4-15.1-4.4-16.7,0-1.6-.3-10.5-8.6-17.6-8.3-7.1-15.7-2.5-20.7-4.6-5-2.1-13.6-12.9-13.5-21.6.1-8.7,4.6-7,7.1-12,2.5-5-.1-12.9-2.8-15.8-2.7-3-4.4-14.6-6.7-18.8-2.2-4.2,4-18.9,0-25.3-4-6.4-1.3-15.5-15.3-23.3-14-7.8-22-3.8-25.4-4.5s-9.3-1.3-11.3,2.8c-1.9,4.1-6.1,4.1-7.8-.9-1.8-5-5.8-13-11.8-14.4-6.1-1.3,6.4-18.1-15.5-39.4-21.9-21.3-39.7-7.6-39.7-5.2,0,0-3.6-5.8-6.4-5.9s3.3-8.9-14.1-19.4c-17.3-10.5-37-3.8-38.5,6.3-1.4,10.1-7.1,10.5-4,18,3.1,7.4-2.7,12.8,7.6,22.1,3.6,3.2-14.3-.2-10.1,11.5,3.4,9.6,0,9-2.3,7.6-1.9-1.1-15-1.4-16.9-.4s-3.9,1.8-4.2-2.4c-.3-4.2-.9-8.2-5.7-8.7-4.8-.4-4-2.7-2.8-5.1,1.2-2.4-1.2-11-11.1-11.1-9.9-.1-16.7-5.8-21.5,2.8-4.9,8.6-8,10.8-10.7,13.1-2.7,2.3-3.6,8.4-.8,10.7,2.8,2.2-.5,3.2-1.7,4.3-1.2,1.1-3.1,5.4,3.3,7.8,6.3,2.3-.4,9.2-4.5,11.3-4,2.1-17.1,6.7-14.9,14.7,2.2,8,0,10.2-.3,15.1s-10.9,9.1-13.5,18.4c-1.7,6.3-2.6,16.7,2.4,22.8,4.4,5.5,13.2,6.7,14.8,9.5,10.4,17.8-2.1,16.9-2.4,24-.3,7.1-6.5,12.7-3.8,20.1,2.7,7.4-19.9,2.5-21,9.3-1.1,6.9-8.1,3.6-12.8,13.4-4.7,9.8-2.5,14.4-9,16.1-25.3,6.7-16.6-9.8-32.7-8-16.1,1.9-15.5,15.5-23.8,31.3"/>
        </g>
      </g>
      <g>
        <path d="M604.9,789.8c-5-8.6-17.8-5.7-24.5-8.6s-4.6-1.8-5.4-7,6-7.1,1.2-14.7-14.2-1.6-16.2-2.8-6.5-7-13.2-8-2.9-1.5-12.1-8.4-9.6-9-6.8-11.9,7.5-1.9,10.6,2.1,14.5-4.4,9-11.6-16.1-8-23.6-1.8-8.6,8.1-8.6,8.1c0,0,2-8.4-4.1-13.6s-1.5-9.2-.9-9.6,8.8-4.2,6.1-9.2-14.2-8.6-22.5,6-18.8,4.6-25.9-.6c0,0-21.5-14.2-36,0s-10.2,19.5-16.5,19.8-27.4-13.8-39.9-3.1-17.4,15.1-12.9,16.5,11-8.6,15-8,11-1.2,13.9,2.9,4.4,11.4,1.6,14.4-6.2,4.5-8.1,3.5-8.8-6-14.9-3.4-15,5.8-14.5,8.2,3.9,1.9,6.6,0,10-2.6,11.6-.2,8.4,9.4,3.1,15-18.7,15.2-21.4,20.2c-10.7,13.7-27.1,22.2-39,19.9-35.3-7-52.5,17.6-49.5,31.4,2,9.2,21.3-15.2,32-13.3,6.9,1.2,20.6,4.5,39.8.5s18.2-10.1,30.7-16.5c29.1-15,128.6,31,156.3,16.8,39-20,39-19.2,39.8-22.8s6.4-7.3,11-9.3c7.3-3.1,31.2,4.4,28.1-.9Z"/>
        <path d="M470.3,706.8c-7.2-13-11.8-24-33.7-27-21.9-3,25.5-43,2.3-60.7-18-13.7-1.8,4.3-4.5,14.2-2.7,9.9-50,47.4-25.3,69.6s18.4,35.6,18.4,35.6"/>
        <g>
          <path d="M516.2,784c6.5,12,12.8,21,4.2,39.5s46,1.5,48.2,28.3-4.2-.8-13.2-3.5c-9-2.7-61.5,15.3-66.5-14.8-5-30.2-18.5-31.9-18.5-31.9"/>
          <path class="cls-17" d="M516.2,784s.5.8,1.4,2.4c.9,1.6,2.3,3.8,3.8,6.9,1.5,3,3.2,6.9,3.6,11.7.2,1.2.1,2.4.1,3.7-.1,1.3-.1,2.6-.4,3.9-.4,2.7-1.2,5.4-2.2,8.1-.3.7-.6,1.4-.8,2.1-.1.3-.3.7-.4,1-.1.3-.3.7-.4,1-.4,1.2-.6,2.7,0,3.7.6,1,1.8,1.8,3.2,2.3,1.4.5,3,.9,4.5,1.1,6.4,1,13.5,1.2,20.7,2.5,3.6.7,7.3,1.5,10.9,3.3,1.8.9,3.5,2,5,3.4,1.5,1.4,2.8,3.1,3.6,5.1.9,1.9,1.3,4,1.4,6,.2,1.9.3,3.9.3,5.9,0,.5,0,1-.1,1.6,0,.3,0,.6-.2,1,0,.2-.1.4-.3.7-.2.2-.5.6-1,.8-.6.2-1,0-1.3,0-.3-.1-.5-.2-.7-.4-.3-.2-.5-.4-.8-.7-.4-.4-.7-.8-1-1.2-1.2-1.6-2.3-3.1-3.5-4.6-1.2-1.5-2.4-2.9-3.7-3.9-.7-.5-1.4-1-2.1-1.3-.2,0-.4-.2-.5-.2h0s-.2,0,0,0h-.2s-.4-.1-.4-.1c-.5-.1-.8,0-1.2-.1-1.7,0-3.6.1-5.5.3-1.9.2-3.8.4-5.6.7-7.5,1-15,1.9-22.3,2-3.7,0-7.3-.1-10.8-.7-3.5-.6-7-1.5-10.1-3-3.1-1.5-5.8-3.8-7.7-6.5-1.9-2.7-2.8-5.9-3.3-8.7-.9-5.7-2.1-10.8-3.7-15.2-1.6-4.4-3.5-8-5.6-10.6-2.1-2.6-4.2-4.3-5.8-5.1-1.6-.9-2.6-1-2.6-1,0,0,1,0,2.6.9,1.6.8,3.9,2.3,6.1,4.9,2.2,2.6,4.4,6.2,6.2,10.6,1.8,4.4,3.3,9.6,4.4,15.3.6,2.8,1.5,5.5,3.2,7.9,1.7,2.4,4.1,4.3,7,5.7,2.9,1.4,6.1,2.2,9.4,2.6,3.4.4,6.9.6,10.4.5,7.1-.2,14.5-1.2,22-2.2,1.9-.3,3.8-.5,5.7-.7,1.9-.2,3.8-.4,6-.3.6,0,1.2,0,1.7.2h.4c0,0,.2.1.2.1.3,0,.1,0,.2,0h.1c.3.1.5.2.8.3,1,.5,2,1.1,2.8,1.7,1.7,1.3,3,2.9,4.2,4.4,1.2,1.6,2.3,3.2,3.5,4.7.3.4.6.7.8,1,.1.1.3.3.3.3,0,0,0,0,0,0-.1,0-.3,0-.6,0-.3,0-.4.3-.5.3,0,0,0,0,0,0,0,0,0-.3,0-.4,0-.4,0-.8,0-1.3,0-1.8,0-3.7-.2-5.6-.1-1.8-.5-3.5-1.2-5.1-1.3-3.2-4-5.5-7.2-7.1-3.1-1.6-6.6-2.5-10.1-3.2-7-1.3-14-1.6-20.6-2.9-1.7-.3-3.3-.7-4.9-1.4-.8-.3-1.6-.7-2.3-1.3-.7-.5-1.4-1.2-1.9-2.1-.4-.9-.6-1.9-.5-2.7,0-.9.3-1.7.6-2.5.1-.4.3-.7.5-1.1l.4-1c.3-.7.6-1.3.9-2,1-2.6,1.9-5.2,2.4-7.8.3-1.3.4-2.5.5-3.7,0-1.2.1-2.4,0-3.6-.2-4.6-1.7-8.5-3-11.6-1.4-3.1-2.6-5.4-3.4-7-.8-1.6-1.3-2.5-1.3-2.5Z"/>
        </g>
        <g>
          <path d="M560.8,785.8c-.7,10.5,17.7,1.2,33.3,15,15.7,13.8,12.8,36.8-16.7,28.8s-.4-6.2,4.7-7.3c5.1-1.2,12.5-9.7-10-10.8s-28.8,4.3-38.8.7"/>
          <path class="cls-17" d="M560.8,785.8s0,.2,0,.5c0,.2,0,.4,0,.7,0,.3,0,.6.2.9.2.6.6,1.4,1.4,2,.8.5,1.9.9,3.1,1.1,2.5.5,5.7.5,9.3,1,3.6.4,7.8,1.2,11.9,3.1,2.1.9,4.2,2.1,6.1,3.6,2,1.5,3.8,3.2,5.6,5.2,1.7,2,3.2,4.3,4.4,6.9,1.1,2.6,1.9,5.4,1.9,8.5,0,1.5-.3,3.1-.8,4.5-.5,1.5-1.4,2.9-2.4,4.1-2.2,2.4-5.3,3.8-8.3,4.4-6.2,1.1-12.4,0-18.1-1.7-2.9-.8-5.7-1.7-8.6-2.8-.7-.3-1.4-.6-2.2-1.1-.2-.1-.4-.3-.6-.5-.2-.2-.6-.5-.7-1.3,0-.3,0-.9.2-1.2,0-.2.2-.3.3-.4,0,0,.2-.2.3-.3.3-.3.6-.4.9-.5,1-.4,1.7-.5,2.5-.6.8-.1,1.5-.2,2.3-.2,3-.2,5.9-.3,8.7-.4.7,0,1.4,0,2.1-.1.7,0,1.4-.1,1.9-.2,1.1-.3,2.2-.9,3.1-1.7.9-.8,1.3-1.7,1.1-2.4-.2-.7-1.1-1.5-2.1-2-2.2-1.1-4.7-1.6-7.2-1.9-2.5-.4-4.9-.5-7.3-.6-1.2,0-2.4-.1-3.5-.1-1.1,0-2.3,0-3.4,0-4.4,0-8.5.3-12,.7-3.6.4-6.7.8-9.4.7-2.6,0-4.7-.5-6-.8-1.3-.4-2-.7-2-.7,0,0,.7.2,2.1.5,1.4.3,3.4.6,5.9.4,2.6-.1,5.7-.7,9.2-1.3,3.6-.6,7.7-1.1,12.1-1.3,1.1,0,2.3-.1,3.4-.1,1.2,0,2.4,0,3.6,0,2.4,0,4.9.1,7.5.4,2.6.3,5.3.7,8,1.9.7.3,1.4.7,2,1.2.6.5,1.2,1.3,1.5,2.3.3,1,.1,2.1-.3,2.9-.4.8-.9,1.5-1.5,2.1-1.2,1.1-2.6,1.9-4.2,2.4-.9.2-1.6.3-2.3.4-.7,0-1.5.1-2.2.2-2.9.2-5.8.2-8.6.5-.7,0-1.4.1-2.1.2-.7,0-1.4.2-1.8.4,0,0-.2,0-.1,0,0,0,0,0,0,0,0,0,0,0,.1-.2,0,0,0-.2.1-.3,0-.1,0-.2,0-.3,0-.4-.2-.4-.1-.4,0,0,.1.1.2.2.4.3,1.1.6,1.7.9,2.6,1.1,5.5,1.9,8.3,2.7,2.8.8,5.6,1.5,8.5,1.9,2.8.4,5.7.4,8.3,0,2.6-.5,5.1-1.6,6.8-3.5.8-.9,1.5-2,1.9-3.2.4-1.2.6-2.4.7-3.7,0-2.5-.5-5.1-1.5-7.4-.9-2.4-2.3-4.5-3.8-6.4-1.5-1.9-3.3-3.6-5.1-5.1-1.8-1.5-3.7-2.7-5.7-3.6-3.9-1.9-7.8-2.9-11.4-3.5-3.5-.6-6.7-.9-9.3-1.5-1.3-.3-2.4-.8-3.2-1.4-.8-.7-1.2-1.5-1.4-2.2-.1-.3-.1-.7-.1-.9,0-.3,0-.5,0-.7,0-.4,0-.5,0-.5Z"/>
        </g>
        <g>
          <path d="M402.9,787.6c4.6,9.5-24.1,12-33.3,30.7-9.3,18.7,8.4,33,37.8,24.4,25.3-7.4-2.8-6.2-8-5.3-5.2.9-17.6-12.2,2.8-21.7,20.4-9.6,28.3-6.9,36.2-14"/>
          <path class="cls-17" d="M402.9,787.6s0,.2.2.5c.1.4.3.9.3,1.7,0,.8-.4,1.7-1,2.6-.7.9-1.7,1.8-2.8,2.6-2.3,1.7-5.4,3.4-8.8,5.3-3.4,2-7.3,4.3-11,7.2-3.7,3-7.3,6.9-9.5,11.8-1.1,2.4-1.9,5.1-1.9,7.9,0,2.7.6,5.5,2.1,7.9,1.5,2.4,3.7,4.3,6.3,5.6,2.6,1.4,5.6,2.2,8.6,2.6,6.1.9,12.5.1,18.7-1.4,3.1-.8,6.2-1.8,9.1-2.8.7-.3,1.4-.6,2.1-.9.3-.2.6-.3.9-.5.1,0,.2-.2.2-.2,0,0,0,0-.1.4,0,.2,0,.5.2.6,0,.1.1.2.2.2,0,0,0,0-.2,0-.2,0-.6-.2-.9-.2-.7-.1-1.5-.2-2.2-.2-3.1-.2-6.3,0-9.3,0-1.6,0-3,.2-4.6.4-1.1.1-2.1-.2-2.9-.5-.8-.3-1.6-.8-2.3-1.3-1.4-1-2.5-2.3-3.3-3.8-.8-1.5-1.3-3.2-1.3-4.9,0-1.7.5-3.3,1.2-4.8.8-1.4,1.8-2.6,2.8-3.6,2.2-2.1,4.6-3.5,7.1-4.7,2.4-1.1,4.8-2.1,7.1-3,4.6-1.8,8.9-3,12.8-3.9,3.9-.9,7.3-1.6,10-2.4,2.7-.9,4.7-1.9,5.9-2.8.6-.4,1.1-.8,1.4-1,.3-.2.5-.4.5-.4,0,0-.1.1-.4.4-.3.3-.7.7-1.3,1.1-1.2,1-3.1,2.2-5.8,3.2-2.7,1-6.1,1.9-9.8,3-3.8,1.1-8,2.6-12.4,4.5-4.4,2-9.5,3.9-13.2,7.6-1.9,1.8-3.2,4.2-3.2,6.7,0,2.5,1.5,5,3.7,6.6.5.4,1.1.7,1.7,1,.6.2,1.2.3,1.6.3,1.5-.2,3.2-.4,4.7-.5,3.2-.2,6.4-.3,9.7-.2.8,0,1.7.1,2.6.3.4,0,.9.2,1.4.4.3,0,.5.2.9.5.2.1.4.3.6.6.2.3.3.8.3,1.2-.1.8-.5,1.2-.7,1.4-.2.3-.5.4-.7.6-.4.3-.8.5-1.2.7-.8.4-1.6.7-2.4,1-3.1,1.2-6.2,2.1-9.5,3-6.4,1.6-13.2,2.3-19.8,1.4-3.3-.5-6.5-1.5-9.5-3-2.9-1.6-5.6-3.8-7.3-6.7-1.7-2.8-2.5-6.2-2.3-9.3.2-3.2,1.1-6.1,2.3-8.7,1.2-2.6,2.9-5,4.7-7,1.8-2,3.8-3.7,5.8-5.2,4-3,8-5.1,11.5-6.9,3.5-1.8,6.7-3.3,9-4.8,1.2-.8,2.2-1.6,2.9-2.4.7-.8,1.1-1.7,1.2-2.4,0-.7,0-1.3-.2-1.7-.1-.4-.2-.6-.2-.6Z"/>
        </g>
        <g>
          <path d="M510.1,755.6s7.4-9.7,14.5-7.5c7.1,2.2-6.8,5.6-2.2,15.7"/>
          <path class="cls-17" d="M510.1,755.6s.3-.5.8-1.3c.6-.8,1.4-1.9,2.7-3.1.6-.6,1.3-1.2,2.1-1.8.4-.3.8-.6,1.3-.9.2-.1.5-.3.7-.4.3-.1.5-.2.8-.3,1-.5,2.2-.8,3.4-.9h.9c.3,0,.6,0,.9.1l.9.2c.4,0,.6.2.9.3.3.1.6.3,1,.5.3.2.7.5.9,1,.3.5.2,1.1,0,1.5-.1.4-.3.7-.5,1-.7,1-1.5,1.7-2.2,2.5-.7.8-1.3,1.5-1.7,2.3-.5.8-.8,1.5-1,2.3-.2.8-.3,1.5-.3,2.1,0,.3,0,.6,0,.9,0,.3,0,.6.1.8,0,.5.2.9.2,1.1,0,.3.1.4.1.4,0,0,0-.1-.2-.4-.1-.2-.3-.6-.5-1-.1-.2-.2-.5-.3-.8-.1-.3-.2-.6-.3-1-.1-.7-.2-1.5-.1-2.4,0-.9.4-1.9.8-2.8.4-.9,1-1.9,1.7-2.7.7-.8,1.4-1.7,1.9-2.5.1-.2.2-.4.3-.5,0-.1,0-.1,0,0,0,0-.4-.3-.8-.5-1-.4-1.9-.5-2.9-.5-1,.1-1.9.2-2.9.6-.2,0-.5.2-.7.3-.2.1-.4.2-.7.3-.4.2-.9.4-1.3.7-.8.5-1.5,1-2.2,1.4-1.3,1-2.4,1.9-3.1,2.5-.7.6-1.1,1-1.1,1Z"/>
        </g>
        <g>
          <path d="M493.2,764.4s5.1-11.1,12.5-10.5c7.4.6-5.4,6.9,1.3,15.8"/>
          <path class="cls-17" d="M493.2,764.4s.2-.5.5-1.5c.4-.9,1-2.2,1.9-3.7.5-.7,1-1.5,1.7-2.2.3-.4.7-.8,1.1-1.1.2-.2.4-.4.6-.6.2-.2.4-.3.7-.5.9-.7,2-1.2,3.1-1.6l.9-.2c.3,0,.6-.1.9-.1h1c.4,0,.6,0,.9,0,.3,0,.7.1,1,.3.3.1.8.3,1.1.8.4.5.4,1.1.4,1.5,0,.4-.2.8-.3,1.1-.5,1.2-1.1,2-1.6,2.9-.5.9-.9,1.8-1.2,2.6-.3.9-.4,1.7-.4,2.5,0,.8,0,1.5.2,2.1,0,.3.2.6.3.9,0,.3.2.5.3.7.2.4.4.8.5,1,.1.2.2.4.2.4,0,0,0-.1-.3-.3-.2-.2-.5-.5-.7-.9-.2-.2-.3-.4-.5-.7-.2-.3-.3-.6-.5-.9-.3-.6-.6-1.4-.6-2.3-.1-.9,0-1.9.2-2.9.2-1,.6-2,1-3,.4-1,1-2,1.3-2.8,0-.2.1-.4.1-.5,0-.1,0-.1,0,0,0,0-.5-.2-.9-.3-1.1-.2-2,0-2.9.1-.9.3-1.8.7-2.6,1.2-.2.1-.4.3-.6.4-.2.2-.4.3-.6.4-.4.3-.7.6-1.1.9-.7.6-1.3,1.3-1.8,1.9-1.1,1.2-1.9,2.4-2.5,3.2-.6.8-.9,1.3-.9,1.3Z"/>
        </g>
        <g>
          <path d="M472.3,759.2s.8-12.2,7.9-14.3c7.1-2.1-2.6,8.4,6.8,14.4"/>
          <path class="cls-17" d="M472.3,759.2s0-.6,0-1.6c0-1,.1-2.4.5-4.1.2-.8.4-1.8.8-2.7.2-.5.4-1,.6-1.4.1-.2.2-.5.4-.7.1-.2.3-.5.4-.7.6-1,1.4-1.9,2.3-2.6l.8-.5c.3-.2.5-.3.8-.4l.9-.4c.4-.1.6-.2.9-.2.3,0,.7-.1,1.1-.1.4,0,.8,0,1.3.3.5.3.8.8.9,1.2.1.4.1.8.1,1.1,0,1.3-.3,2.3-.4,3.3-.1,1-.2,2-.2,2.9,0,.9.2,1.7.5,2.5.3.7.6,1.4,1,1.9.2.3.4.5.6.7.2.2.4.4.5.6.3.4.6.6.8.8.2.2.3.3.3.3,0,0-.1,0-.4-.2-.2-.1-.6-.3-1-.6-.2-.1-.4-.3-.7-.5-.2-.2-.5-.4-.7-.7-.5-.5-1-1.1-1.4-2-.4-.8-.7-1.7-.9-2.8-.2-1-.2-2.1,0-3.2,0-1.1.2-2.2.3-3.1,0-.2,0-.4,0-.6,0-.1,0-.1,0,0,0,0-.5,0-.9,0-1,.2-1.9.6-2.7,1.2-.7.6-1.5,1.3-2,2.1-.1.2-.3.4-.4.6-.1.2-.2.4-.4.6-.3.4-.5.8-.7,1.2-.4.8-.8,1.6-1,2.4-.6,1.5-1,2.9-1.2,3.8-.3.9-.4,1.5-.4,1.5Z"/>
        </g>
        <g>
          <path d="M458.6,737.8s3.1-11.8,10.5-12.5c7.4-.7-4.2,7.8,4,15.4"/>
          <path class="cls-17" d="M458.6,737.8s0-.6.3-1.5c.2-1,.6-2.3,1.3-3.9.3-.8.7-1.6,1.3-2.5.3-.4.5-.9.9-1.3.2-.2.3-.4.5-.6.2-.2.4-.4.6-.6.8-.8,1.7-1.6,2.8-2.1l.9-.3c.3-.1.6-.2.9-.3l.9-.2c.4,0,.6,0,.9,0,.4,0,.7,0,1.1,0,.4,0,.8.2,1.2.6.5.4.6,1,.6,1.4,0,.4,0,.8,0,1.1-.3,1.2-.7,2.2-1,3.2-.3,1-.6,1.9-.7,2.8-.1.9-.1,1.7,0,2.5.1.8.3,1.5.6,2.1.1.3.3.6.4.8.1.3.3.5.4.7.3.4.5.7.7.9.2.2.2.3.2.3,0,0-.1,0-.3-.2-.2-.2-.5-.4-.9-.8-.2-.2-.4-.4-.6-.6-.2-.2-.4-.5-.6-.8-.4-.6-.8-1.3-1-2.2-.3-.9-.4-1.9-.3-2.9,0-1,.2-2.1.5-3.1.3-1,.6-2.1.8-3,0-.2,0-.4,0-.6,0-.1,0-.1,0,0,0,0-.5-.1-.9-.1-1.1,0-1.9.3-2.9.6-.9.5-1.7,1-2.4,1.7l-.5.5c-.2.2-.3.4-.5.5-.3.3-.6.7-.9,1.1-.6.7-1.1,1.5-1.5,2.2-.9,1.4-1.5,2.7-1.9,3.5-.4.9-.7,1.4-.7,1.4Z"/>
        </g>
        <g>
          <path d="M481.2,743.4s5.1-11.1,12.5-10.5c7.4.6-5.4,6.9,1.3,15.8"/>
          <path class="cls-17" d="M481.2,743.4s.2-.5.5-1.5c.4-.9,1-2.2,1.9-3.7.5-.7,1-1.5,1.7-2.2.3-.4.7-.8,1.1-1.1.2-.2.4-.4.6-.6.2-.2.4-.3.7-.5.9-.7,2-1.2,3.1-1.6l.9-.2c.3,0,.6-.1.9-.1h1c.4,0,.6,0,.9,0,.3,0,.7.1,1,.3.3.1.8.3,1.1.8.4.5.4,1.1.4,1.5,0,.4-.2.8-.3,1.1-.5,1.2-1.1,2-1.6,2.9-.5.9-.9,1.8-1.2,2.6-.3.9-.4,1.7-.4,2.5,0,.8,0,1.5.2,2.1,0,.3.2.6.3.9,0,.3.2.5.3.7.2.4.4.8.5,1,.1.2.2.4.2.4,0,0,0-.1-.3-.3-.2-.2-.5-.5-.7-.9-.2-.2-.3-.4-.5-.7-.2-.3-.3-.6-.5-.9-.3-.6-.6-1.4-.6-2.3-.1-.9,0-1.9.2-2.9.2-1,.6-2,1-3,.4-1,1-2,1.3-2.8,0-.2.1-.4.1-.5,0-.1,0-.1,0,0,0,0-.5-.2-.9-.3-1.1-.2-2,0-2.9.1-.9.3-1.8.7-2.6,1.2-.2.1-.4.3-.6.4-.2.2-.4.3-.6.4-.4.3-.7.6-1.1.9-.7.6-1.3,1.3-1.8,1.9-1.1,1.2-1.9,2.4-2.5,3.2-.6.8-.9,1.3-.9,1.3Z"/>
        </g>
        <g>
          <path d="M474.2,725.4s5.1-11.1,12.5-10.5c7.4.6-5.4,6.9,1.3,15.8"/>
          <path class="cls-17" d="M474.2,725.4s.2-.5.5-1.5c.4-.9,1-2.2,1.9-3.7.5-.7,1-1.5,1.7-2.2.3-.4.7-.8,1.1-1.1.2-.2.4-.4.6-.6.2-.2.4-.3.7-.5.9-.7,2-1.2,3.1-1.6l.9-.2c.3,0,.6-.1.9-.1h1c.4,0,.6,0,.9,0,.3,0,.7.1,1,.3.3.1.8.3,1.1.8.4.5.4,1.1.4,1.5,0,.4-.2.8-.3,1.1-.5,1.2-1.1,2-1.6,2.9-.5.9-.9,1.8-1.2,2.6-.3.9-.4,1.7-.4,2.5,0,.8,0,1.5.2,2.1,0,.3.2.6.3.9,0,.3.2.5.3.7.2.4.4.8.5,1,.1.2.2.4.2.4,0,0,0-.1-.3-.3-.2-.2-.5-.5-.7-.9-.2-.2-.3-.4-.5-.7-.2-.3-.3-.6-.5-.9-.3-.6-.6-1.4-.6-2.3-.1-.9,0-1.9.2-2.9.2-1,.6-2,1-3,.4-1,1-2,1.3-2.8,0-.2.1-.4.1-.5,0-.1,0-.1,0,0,0,0-.5-.2-.9-.3-1.1-.2-2,0-2.9.1-.9.3-1.8.7-2.6,1.2-.2.1-.4.3-.6.4-.2.2-.4.3-.6.4-.4.3-.7.6-1.1.9-.7.6-1.3,1.3-1.8,1.9-1.1,1.2-1.9,2.4-2.5,3.2-.6.8-.9,1.3-.9,1.3Z"/>
        </g>
        <g>
          <path d="M529.4,746.4s9.7-7.4,16-3.4c6.2,4-8.1,3.6-6.3,14.6"/>
          <path class="cls-17" d="M529.4,746.4s.4-.4,1.2-1c.8-.6,1.9-1.5,3.4-2.3.8-.4,1.6-.8,2.5-1.2.5-.2,1-.4,1.5-.5.3,0,.5-.1.8-.2.3,0,.5,0,.8-.1,1.1-.2,2.3-.2,3.5,0l.9.3c.3,0,.6.2.9.3l.8.4c.4.2.5.3.8.5.3.2.5.4.8.7.2.3.5.7.6,1.2.1.6-.1,1.1-.4,1.5-.2.3-.5.6-.7.8-1,.8-1.9,1.3-2.8,1.8-.8.6-1.6,1.1-2.3,1.7-.6.6-1.2,1.3-1.6,2-.4.7-.7,1.4-.8,2,0,.3-.1.6-.2.9,0,.3,0,.5-.1.8,0,.5,0,.9,0,1.1,0,.3,0,.4,0,.4,0,0,0-.1-.1-.4,0-.3-.2-.6-.2-1.1,0-.2,0-.5,0-.8,0-.3,0-.6,0-1,0-.7.2-1.5.5-2.4.3-.8.8-1.7,1.5-2.5.7-.8,1.5-1.5,2.3-2.2.9-.6,1.8-1.3,2.5-1.9.2-.1.3-.3.4-.4,0-.1,0-.1,0,0,0,0-.3-.4-.6-.6-.8-.6-1.7-1-2.6-1.3-1-.2-1.9-.3-2.9-.2-.2,0-.5,0-.7,0-.2,0-.5,0-.7.1-.5,0-.9.2-1.4.3-.9.2-1.7.5-2.5.8-1.5.6-2.8,1.2-3.7,1.6-.9.4-1.4.7-1.4.7Z"/>
        </g>
        <g>
          <path d="M534,764.1s2.5-13.9,13-9.8c6.9,2.7-5.9,5.3-2.9,16"/>
          <path class="cls-17" d="M534,764.1s0-.6.2-1.6c.2-1,.5-2.5,1.3-4.2.4-.8.9-1.7,1.6-2.5.7-.8,1.5-1.7,2.6-2.2,1.1-.6,2.4-.9,3.7-.9,1.3,0,2.6.3,3.8.8.2,0,.3.1.4.2.1,0,.3.1.5.2.3.2.6.3.9.6.3.2.6.6.9,1.1.2.5.2,1.1,0,1.5-.3.8-.7,1.3-1.1,1.7-.4.4-.8.8-1.1,1.3-.7.8-1.4,1.6-1.9,2.4-.5.8-.9,1.6-1.2,2.4-.6,1.6-.6,3-.6,4,0,1,.1,1.6.1,1.6,0,0,0-.1-.2-.4-.1-.3-.3-.6-.4-1.2-.3-1-.5-2.6-.1-4.4.2-.9.5-1.9,1-2.8.5-1,1.1-1.9,1.9-2.8.3-.4.7-.9,1-1.3.3-.4.6-.9.7-1.2,0-.1,0-.2,0-.2,0,0,0-.1-.3-.3-.2-.1-.4-.2-.6-.3-.1,0-.2-.1-.3-.2-.1,0-.3-.1-.4-.2-2-.8-4.2-1-6-.1-.9.4-1.7,1-2.3,1.7-.7.7-1.2,1.4-1.7,2.1-.9,1.4-1.5,2.8-1.9,3.7-.4.9-.6,1.5-.6,1.5Z"/>
        </g>
        <g>
          <path d="M501,737.1s2.5-13.9,13-9.8c6.9,2.7-5.9,5.3-2.9,16"/>
          <path class="cls-17" d="M501,737.1s0-.6.2-1.6c.2-1,.5-2.5,1.3-4.2.4-.8.9-1.7,1.6-2.5.7-.8,1.5-1.7,2.6-2.2,1.1-.6,2.4-.9,3.7-.9,1.3,0,2.6.3,3.8.8.2,0,.3.1.4.2.1,0,.3.1.5.2.3.2.6.3.9.6.3.2.6.6.9,1.1.2.5.2,1.1,0,1.5-.3.8-.7,1.3-1.1,1.7-.4.4-.8.8-1.1,1.3-.7.8-1.4,1.6-1.9,2.4-.5.8-.9,1.6-1.2,2.4-.6,1.6-.6,3-.6,4,0,1,.1,1.6.1,1.6,0,0,0-.1-.2-.4-.1-.3-.3-.6-.4-1.2-.3-1-.5-2.6-.1-4.4.2-.9.5-1.9,1-2.8.5-1,1.1-1.9,1.9-2.8.3-.4.7-.9,1-1.3.3-.4.6-.9.7-1.2,0-.1,0-.2,0-.2,0,0,0-.1-.3-.3-.2-.1-.4-.2-.6-.3-.1,0-.2-.1-.3-.2-.1,0-.3-.1-.4-.2-2-.8-4.2-1-6-.1-.9.4-1.7,1-2.3,1.7-.7.7-1.2,1.4-1.7,2.1-.9,1.4-1.5,2.8-1.9,3.7-.4.9-.6,1.5-.6,1.5Z"/>
        </g>
        <g>
          <path d="M516.5,774.1s-.4-15,8.7-11.7c5.9,2.1-4.4,6.7,2.4,14.2"/>
          <path class="cls-17" d="M516.5,774.1s0-.5-.2-1.5c0-.9,0-2.3,0-3.9.1-.8.2-1.7.5-2.6.3-.9.7-1.9,1.3-2.8.6-.9,1.6-1.7,2.8-2.1,1.2-.4,2.5-.3,3.6,0l.9.3c.2,0,.6.2.8.4.5.3,1.2.8,1.5,1.6.3.8,0,1.6,0,2.1-.2.6-.4,1-.6,1.5-.4.9-.8,1.7-1.1,2.5-.3.8-.3,1.6-.3,2.3,0,1.4.6,2.6,1,3.4.4.8.7,1.3.7,1.3,0,0-.1,0-.3-.2-.2-.2-.5-.4-.8-.8-.6-.7-1.5-1.8-1.9-3.5-.2-.9-.2-1.8,0-2.8.2-1,.5-1.9.9-2.8.4-.9.7-1.9.5-2.2,0-.3-1-.8-1.9-1-.9-.3-1.8-.3-2.6,0-.8.2-1.5.7-2,1.4-.6.7-1,1.4-1.3,2.2-.3.8-.6,1.6-.8,2.3-.4,1.5-.6,2.8-.8,3.7-.2.9-.2,1.4-.2,1.4Z"/>
        </g>
        <g>
          <path d="M497.5,781.1s-.4-15,8.7-11.7c5.9,2.1-4.4,6.7,2.4,14.2"/>
          <path class="cls-17" d="M497.5,781.1s0-.5-.2-1.5c0-.9,0-2.3,0-3.9.1-.8.2-1.7.5-2.6.3-.9.7-1.9,1.3-2.8.6-.9,1.6-1.7,2.8-2.1,1.2-.4,2.5-.3,3.6,0l.9.3c.2,0,.6.2.8.4.5.3,1.2.8,1.5,1.6.3.8,0,1.6,0,2.1-.2.6-.4,1-.6,1.5-.4.9-.8,1.7-1.1,2.5-.3.8-.3,1.6-.3,2.3,0,1.4.6,2.6,1,3.4.4.8.7,1.3.7,1.3,0,0-.1,0-.3-.2-.2-.2-.5-.4-.8-.8-.6-.7-1.5-1.8-1.9-3.5-.2-.9-.2-1.8,0-2.8.2-1,.5-1.9.9-2.8.4-.9.7-1.9.5-2.2,0-.3-1-.8-1.9-1-.9-.3-1.8-.3-2.6,0-.8.2-1.5.7-2,1.4-.6.7-1,1.4-1.3,2.2-.3.8-.6,1.6-.8,2.3-.4,1.5-.6,2.8-.8,3.7-.2.9-.2,1.4-.2,1.4Z"/>
        </g>
      </g>
      <g>
        <path class="cls-18" d="M84.5,1123.4c.9,6.6,2.4,13,4.7,19.3v6.9c0,2.3-.9,4.3-2.6,6-8,.6-15.6,0-22.8-1.7-7.2-1.7-14.2-4.3-21.1-7.7,2.9,0,5.7-.4,8.6-1.3,2.9-.9,5.4-2.4,7.7-4.7,3.4-6.3,6.7-12.5,9.9-18.5,3.1-6,6.7-11.9,10.7-17.6h.9c1.7,6.3,3,12.8,3.9,19.3ZM126.2,971.7v.9h.9l-.9.9-3.4-.9h-5.2l-5.2,5.2,1.7,5.2c7.4-1.1,15-1.9,22.8-2.1,7.7-.3,15.3-.7,22.8-1.3l1.7-4.3h1.7l.9-2.6-2.6-6-2.6-3.4-3.4-5.2c-.6-1.7-.6-3.3,0-4.7.6-1.4,1.4-2.7,2.6-3.9,6.3.6,12.5,1.4,18.5,2.6,6,1.1,11.6,2.9,16.8,5.2-.6,3.4-1.7,6.6-3.4,9.5-1.7,2.9-3.7,5.7-6,8.6l3.4,1.7h16.8c5.4,0,10.5-.9,15-2.6h3.4l6.9,7.7-1.7,5.2-3.4,1.7-4.3-.9-7.7.9-11.2-.9c-2.9,0-5.4.1-7.7.4-2.3.3-4.3,1.3-6,3l2.6,9.5,2.6.9h13.3c4.3,0,8.2-1.4,11.6-4.3h7.7l1.7,8.6-2.6,16.3c-2.3-.6-4.6-1.4-6.9-2.6-2.3-1.1-4.6-1.7-6.9-1.7-3.4.6-6.7,1.4-9.9,2.6-3.2,1.1-6.2,2.6-9,4.3l2.6,9.5h1.7l.9,4.3,6-1.7h9.5l6,11.2c0,1.7-.1,3.4-.4,5.2-.3,1.7-1,3.2-2.1,4.3l-13.8-2.6-6.9.9-4.3,7.7.9,4.3c4.6,1.7,9.2,3,13.8,3.9,4.6.9,9.5,1.6,14.6,2.1v11.6c0,3.7-.9,7-2.6,9.9v-.9c-5.2-2.3-10.5-4.4-15.9-6.4-5.4-2-10.7-3.9-15.9-5.6-10.9-.6-21.3.3-31.4,2.6-10,2.3-20.2,4.6-30.5,6.9h-43.8c3.4-9.7,5.9-19.8,7.3-30.1,1.4-10.3,3-20.3,4.7-30.1l-3.4,2.6-1.7,9.5-2.6,3.4c-5.7,2.9-11.6,4.9-17.6,6-6,1.1-11.6,3.2-16.8,6,2.3-2.3,4.3-4.7,6-7.3s2.6-5.6,2.6-9h1.7c2.9-10.3,6.6-20.5,11.2-30.5,4.6-10,7.2-20.5,7.7-31.4.6-3.4.6-6.7,0-9.9-.6-3.1-1.4-6.2-2.6-9l1.7-12.9h3.4v1.7l26.6,9.5h7.3c2.6,0,4.7-.9,6.4-2.6l1.7-2.6h1.7l2.6-3.4h.9l1.7,4.3c0,2.3-.1,4.6-.4,6.9-.3,2.3-1.3,4.3-3,6l-.9,2.6ZM115,1106.7c2.3-.6,4.3-.4,6,.4s3.4,1.9,5.2,3c5.7,5.2,10.3,11,13.8,17.6s6.6,13,9.5,19.3v4.3l-4.3,3.4-12.9-1.7-9.5-7.7c-.6-1.7-.3-3.3.9-4.7,1.1-1.4,2-3,2.6-4.7v-2.6c-2.3-4.6-5.3-8.7-9-12.5-3.7-3.7-7.3-7.6-10.7-11.6l8.6-2.6ZM148.5,1013l-.9.9,2.6-6,3.4-3.4h-1.7l-2.6-6-6-.9c-4-.6-7.4-.3-10.3.9-2.9,1.1-5.7,2.9-8.6,5.2l.9,6,2.6,1.7,9.5,2.6h11.2v-.9ZM160.5,1035.3l5.2-.9c-2.3-2.3-5.3-3.6-9-3.9-3.7-.3-7-1-9.9-2.1h-7.7c-2.9,1.7-5.3,3.7-7.3,6-2,2.3-3.9,4.9-5.6,7.7v1.7l7.7,3.4,20.6-6.9h3.4l2.6-5.2ZM152,1063.7l5.2-1.7,7.7-7.7v-3.4c-7.4-.6-14.2.6-20.2,3.4-6,2.9-11.9,6.3-17.6,10.3v.9h13.3c4.3,0,8.2-.9,11.6-2.6v.9ZM152.8,1112.7h-.9c6.3,0,12.6.3,18.9.9,6.3.6,12.3,1.7,18,3.4l8.6,10.3c.6,2.3.3,4.3-.9,6-1.1,1.7-2,3.4-2.6,5.2l-9.5,6c-2.3,0-4.3-.1-6-.4-1.7-.3-3.4-1-5.2-2.1-2.9-4-6.4-8-10.7-12s-7.6-8.3-9.9-12.9v-4.3ZM202.7,1109.2v.9h5.6c2,0,3.9-.6,5.6-1.7,4.6.6,9.3.7,14.2.4,4.9-.3,9.6.4,14.2,2.1l-3.4,4.3-.9,16.3-5.2,3.4h-3.4l-.9-3.4-24.1-21.5v-1.7l-1.7.9Z"/>
        <path class="cls-17" d="M321.4,983.8l-6,3.4c.6-2.9,1.4-5.4,2.6-7.7,1.1-2.3,2.9-4.3,5.2-6h6.9c-.6,5.7-.6,11.2,0,16.3.6,5.2,1.7,10,3.4,14.6-2.3,16.6-4.6,33.1-6.9,49.4-2.3,16.3-5.4,32.5-9.5,48.6l-2.6,1.7-1.7,1.7-7.7,6c-2.3,1.7-4.3,3.6-6,5.6-1.7,2-2.6,4.4-2.6,7.3h-1.7l-7.7,12.9-6,3.4c-4.6,1.1-9.2,2.4-13.8,3.9-4.6,1.4-8.9,3.3-12.9,5.6l-1.7.9h-.9v-1.7l7.7-6,4.3-8.6h1.7c4-6.9,7-14.3,9-22.3,2-8,4.7-15.5,8.2-22.3l-12.9-7.7v-1.7l4.3-3.4-1.7-12.9.9-9.5,6.9,1.7,3.4,4.3,5.2-1.7,3.4-8.6h1.7l7.7-14.6-5.2-4.3-3.4-6v-1.7l-6.9-7.7-6,1.7-.9,2.6-2.6.9-.9,2.6h-1.7c-1.7,8.6-3.3,17-4.7,25.4-1.4,8.3-5.3,15.9-11.6,22.8h-1.7l-2.6,5.2-10.3,5.2c5.2-13.8,8.3-27.8,9.5-42.1,1.1-14.3,3.1-28.4,6-42.1-.6-7.4-1.6-14.8-3-21.9-1.4-7.2-3.6-14.2-6.4-21.1v-.9c5.2,2.3,10.5,3.9,15.9,4.7,5.4.9,11,1.3,16.8,1.3l1.7,20.6,2.6,1.7v1.7l6.9,3.4c4,0,7.7-.3,11.2-.9,3.4-.6,6.6-1.7,9.5-3.4h7.7ZM422,958v.9h1.7c.6,2.3.4,4.2-.4,5.6-.9,1.4-1.9,2.7-3,3.9l.9,8.6,6,2.6v1.7l4.3,1.7c4,.6,7.6.3,10.7-.9,3.1-1.1,6.2-2.3,9-3.4h3.4c-.6,6.3-.3,12.3.9,18,1.1,5.7,2.6,11.5,4.3,17.2v1.7l-6-2.6-22.3,1.7c-1.1,8-2,15.9-2.6,23.6-.6,7.7-.9,15.6-.9,23.6l.9,18.9,16.3-4.3h6.9c0,6.9.3,13.6.9,20.2.6,6.6,2.3,12.5,5.2,17.6v4.3l-14.6-1.7-4.3-3.4h-10.3l-.9,3.4h-1.7l-2.6,6.9c0,2.9.1,5.7.4,8.6.3,2.9,1.3,5.4,3,7.7l-1.7,6-2.6,2.6-3.4,6,2.6,5.2h-34.4l-1.7,1.7v1.7c2.9-9.2,4.4-19.1,4.7-29.6.3-10.6,2.1-20.5,5.6-29.6-11.5,1.1-22.6,3-33.5,5.6-10.9,2.6-21.8,5.3-32.7,8.2v.9h.9c0-3.4-.1-6.7-.4-9.9-.3-3.1-1.3-6.2-3-9-.6-4-.4-7.9.4-11.6.9-3.7,1.9-7.3,3-10.7l5.2-5.2c4.6,1.1,9.2,2.3,13.8,3.4,4.6,1.1,8.9,2.6,12.9,4.3h1.7l.9-21.5c0-5.2-.4-10.3-1.3-15.5s-2.4-9.7-4.7-13.8v-8.2c0-2.6.9-5,2.6-7.3-2.3,0-4.4.7-6.4,2.1-2,1.4-3.9,3-5.6,4.7l1.7-13.8c0-5.2-1-9.7-3-13.8-2-4-3.9-8.3-5.6-12.9v-5.2c5.2,3.4,11,5.3,17.6,5.6,6.6.3,13,1,19.3,2.1l15.5-.9.9-2.6c.6-6.3.1-12.5-1.3-18.5-1.4-6-3.6-11.6-6.4-16.8v-1.7l12.9,6.9c4.6.6,8.7.4,12.5-.4,3.7-.9,7.6-1.6,11.6-2.1h.9l-4.3,11.2ZM390.2,1018.1v35.2c-.6,3.4-.9,7.2-.9,11.2s-.9,7.4-2.6,10.3v4.3l12.9-2.6c2.9-10.3,4.7-20.6,5.6-30.9s1.9-20.6,3-30.9l-.9.9-16.3-3.4h-5.2l4.3,6Z"/>
        <path class="cls-17" d="M653.3,1020.3v.9h3.4c1.1,0,1.7.6,1.7,1.7l-.9,3.4-5.2,5.2.9,4.3h1.7l.9,3.4h1.7l.9,2.6-.9,3.4,7.7,10.3v.9h-1.7l-.9-2.6-5.2,1.7h-86.8l-4.3,1.7-3.4,4.3c-2.9,2.9-5.9,5.3-9,7.3-3.2,2-6.4,3.6-9.9,4.7-1.7.6-3,.3-3.9-.9-.9-1.1-1.6-2.3-2.1-3.4-5.2-.6-10-2.1-14.6-4.7-4.6-2.6-9.7-3.6-15.5-3h-6.9l-9.5,11.2-6.9-.9c-1.1-2.3-2.4-4.4-3.9-6.4-1.4-2-2.4-4.2-3-6.4l-5.2-1.7v-1.7l-2.6-2.6h-1.7c-2.3-3.4-3.3-7.4-3-12,.3-4.6-.4-8.9-2.1-12.9h-1.7l-1.7-2.6-3.4-7.7-5.2.9v.9c2.9,0,5.6.1,8.2.4,2.6.3,5,1.3,7.3,3,11.5-1.1,22.6-2.9,33.5-5.2,10.9-2.3,22.1-3.1,33.5-2.6l23.2.9h38.7l8.6-7.7c2.3-2.3,3.3-5.2,3-8.6-.3-3.4,1-6.3,3.9-8.6h2.6l27.5,20.6,1.7,8.6,5.2-.9,6.9.9h-1.7Z"/>
        <path class="cls-17" d="M692.6,1056.4h2.6v1.7l-3.4.9v1.7c-3.4,2.3-6.9,4-10.4,5.3-3.5,1.2-6.6,2.6-9.1,4.2l-1.1,1.7h-1.7c.9-.6,1.8-1.1,2.8-1.7,2.3-4.2,4.1-8.8,5.5-13.9,1.4-5.1,3.5-9.9,6.3-14.5v-7.7l-4.3,1.7h-4.3l.9-3.4,3.4-3.4,4.3-2.6.9-3.4h1.7l5.2-5.2,3.4-1.7v-1.7c2.3-2.9,4.9-5.7,7.7-8.6s6-4.9,9.5-6l6-23.2-.9-17.2v-10.3c5.2,1.7,10.2,4.2,15,7.3,4.9,3.2,10.2,5.3,15.9,6.4,2.9,0,5.4-.1,7.7-.4,2.3-.3,4.3-1.6,6-3.9h.9v10.7c0,3.7-.9,7-2.6,9.9l-1.7.9-.9,2.6-6.9,5.2-1.7,2.6h-1.7l-.9,2.6-4.3,1.7-.9,2.6-2.6,1.7-1.7.9c-1.3,5-2.6,9.9-3.9,14.6h24.5c3-1.6,6.1-2.9,9.2-4.1,0-3.9.5-8,1.4-12.5.9-4.4,2.5-9.2,4.8-14.4v-6.9c0-2.3-.6-4.3-1.7-6,0-4.6.7-8.9,2.1-12.9,1.4-4,3.3-7.7,5.6-11.2,0,1.7.6,3.2,1.7,4.3,1.1,1.1,2.6,2,4.3,2.6l1.7,1.7.9,2.6h.9l3.4-4.3v46.4l-1.1,4.1c5.2-1.1,10.4-2.2,15.7-3.2,5.2-.6,10.2-.6,15,0,4.9.6,9.3,2,13.3,4.3l4.3-1.7h1.7v-1.7h1.7v-1.7h1.7l8.6-6.9,4.3-2.6h.9c-1.7,8-3,16-3.9,24.1-.9,8-1.6,16.3-2.1,24.9l-4.3-4.3c-4-2.3-8.6-3.7-13.8-4.3-5.2-.6-10-2-14.6-4.3-10-.9-19.8-.6-29.4.6.4,8.7,1.3,17.5,2.6,26.2,3.1.9,8.6,2.9,16.2,6.1,7.7,3.2,18.1,6,31.3,8.3l-16.3.9v6.9c0,2.3-.9,4.3-2.6,6-4,1.7-7.9,2.7-11.7,2.9-3.8.2-7.1.9-10,2,1.4,7.3,2.6,14.7,3.7,22.1,2.1.3,5.1.7,8.9,1.3,3.8.6,8.3,1.4,13.4,2.6l-4.3-1.9-2.6.2v-.9h.9l1.7.6c7.2-.4,14.7-.6,22.6-.6s15-3.1,21.3-9.5h.9l-4.3,6.9c1.7,5.7,2.7,11.9,3,18.5.3,6.6,1.9,12.5,4.7,17.6v1.7l-22.3-.9c-4.6,0-8.9.1-12.9.4-4,.3-7.7,1.3-11.2,3l-8.6,7.7-8.6,3.4c-12,.6-23.5-.4-34.4-3-10.9-2.6-21.5-6.2-31.8-10.7-8-1.1-15.6-.7-22.8,1.3-7.2,2-13.9,5.3-20.2,9.9h-4.3l.9-7.7-1.7-12h-1.7v-1.7c-1.1-2.3-2.7-4.2-4.7-5.6-2-1.4-4.2-2.7-6.4-3.9l-.9-1.7v-1.7h14.2c4.9,0,9.3.9,13.3,2.6,15.5,0,27.8-.7,37-2.1,9.2-1.4,15.4-2.5,18.7-3.2.4-3,1.6-5.5,3.7-7.5v-27.5h-9.6c-4.5,0-9.9,2-16.2,6h-.9l-1.7-4.5-.9.2-.4-3.9,1.3,3.7,4.3-.6v-.9l-5.2-1.7-.4-.4-2.1-2.1c-2.3-1.1-4.6-2.3-6.9-3.4-2.3-1.1-4.9-2-7.7-2.6l-4.3.6v.2h-.9l.9-.2,1.7-3.2c4.6-2.9,9.5-5,14.6-6.4,5.2-1.4,10.3-3,15.5-4.7v-1.7l4.3-1.7.9-1.7,12-5.2c2.6-.1,5.1-.1,7.5,0,.3-1.1.6-2.3,1.1-3.4.6-5.2.3-10.2-.9-15.3-10,2-20.1,3.7-30.1,4.9h-2.6c-.7.7-1.3,1.6-1.7,2.6l-1.3-2.6h-.4l.4-.2-3.9-8.4-.6-.4c-.7,3-1.4,6-1.9,9h-1.7l-.9,2.6c-5.7,2.9-11.3,6-16.8,9.5-5.4,3.4-11,6.3-16.8,8.6Z"/>
      </g>
      <line class="cls-13" y1="894.5" x2="900" y2="894.5"/>
    </g>
  </g>
</svg>