<?xml version="1.0" encoding="UTF-8"?>
<svg xmlns="http://www.w3.org/2000/svg" version="1.1" xmlns:xlink="http://www.w3.org/1999/xlink" viewBox="0 0 900 1200">
  <defs>
    <style>
      .cls-1, .cls-2, .cls-3, .cls-4, .cls-5, .cls-6, .cls-7, .cls-8, .cls-9, .cls-10, .cls-11, .cls-12, .cls-13 {
        stroke-miterlimit: 10;
      }

      .cls-1, .cls-2, .cls-3, .cls-5, .cls-7, .cls-8, .cls-14, .cls-9, .cls-11, .cls-12, .cls-13 {
        stroke: #000;
      }

      .cls-1, .cls-5, .cls-6, .cls-9, .cls-12 {
        stroke-width: 3px;
      }

      .cls-1, .cls-15, .cls-7, .cls-14, .cls-11 {
        fill: #fff;
      }

      .cls-2, .cls-4, .cls-7, .cls-8, .cls-14, .cls-10 {
        stroke-width: 2px;
      }

      .cls-2, .cls-5, .cls-11, .cls-12 {
        stroke-linecap: round;
      }

      .cls-2, .cls-8, .cls-9, .cls-16 {
        fill: #22b573;
      }

      .cls-3, .cls-4, .cls-5, .cls-17, .cls-13 {
        fill: none;
      }

      .cls-4, .cls-6, .cls-10 {
        stroke: #f9db28;
      }

      .cls-14 {
        stroke-linejoin: round;
      }

      .cls-12 {
        fill: #f9db28;
      }

      .cls-13 {
        stroke-width: 5px;
      }

      .cls-18 {
        clip-path: url(#clippath);
      }
    </style>
    <clipPath id="clippath">
      <rect class="cls-17" x="-992.2" y="-6" width="900" height="900"/>
    </clipPath>
  </defs>
  <!-- Generator: Adobe Illustrator 28.7.4, SVG Export Plug-In . SVG Version: 1.2.0 Build 166)  -->
  <g>
    <g id="Layer_1">
      <rect x="-8.4" y="-12" width="916.8" height="1223.9"/>
      <rect class="cls-16" y="-6" width="900" height="900"/>
      <g class="cls-18">
        <g>
          <path class="cls-6" d="M244.5,942v-341.6c4-1.8,3.4-2.5,4-5.3s-2.1-3.4-1.8-7.2c.3-3.8,12.5-11.7,7.3-28.6-5.2-16.9-21-21-27.7-21.8-6.7-.9-4.1-6.3-4.1-9.2s-3.3-.9-3.2-4.4c0-3.4-2.6-2.3-2.8-4.5-.2-2.2-1.1-3.4-4.4-2.8s-13.1-1.6-6.1-8.4c7-6.7-.1-12.5,1.4-16.9,1.6-4.4,0-8.4-2-11.6-2-3.2,4.2-4.1-6.4-15.7-10.6-11.6-22.2,2-22,5.6s-3.5,5-4.5,3.9-2.7,1.3-3.1,2.4c-.5,1.2-1.8,1.4-2.6-1.7-.8-3.1-4.1-2.6-5.5-3.4-1.3-.9-4-.8-6.3-3.7-2.3-2.9-7.9-3.2-9.7-2.8-1.8.4-2,1.9-3.7,2-1.6.2-2.6-.2-4.5,2.2-1.9,2.3-1.1,4.6-4.5,5.3-3.4.7-4.1,7.1-6,6.8-1.9-.3-5.2,1.3-6.3,4.9-1.1,3.6-2.9,5.3-4,3.3s-3.6-1.9-5.2.5c-4.5,6.4-8.8-2.3-2.1-2.7s5.9-5.3,4.9-8c-.5-1.4-1.7-2.7-1.1-4,1.3-3.3,2.4-3.1,5-4.9,5.2-3.8,5.3-5.9,5.4-13.1,0-6.7-8.6-5.7-9-9.8-.4-4.1-8.6-4-6.2-8.1s-.8-6.4-.5-11.3c.5-9.6-8.9-8.1-6.4-11.6,2.7-3.8,4.5-3.8,4.7-10,.2-6.1-2.9-7.3,0-12,2.9-4.7-.2-9.6-4.7-12.1-4.5-2.5-4.5-6-4.5-6-.8-4.7,5.5-3.6,8.3-4.9,2.8-1.3-2.1-3.8,12.6-1.1,14.7,2.7,15.5-1.9,21.6-8.3,6.1-6.4,3.9-14.7,2.6-18.6-1.3-3.9-2-8.1-.4-12.8,1.6-4.7-1.4-6.4-3.3-14.9-1.9-8.5-12.5-6.7-13-11.7s-8.1-7.2-8-12.1c.2-4.9-3-7.2-6.6-9.5-3.6-2.3-7-2.7-12.1-6.4-5.1-3.8-11.7-3.4-15.7,0s-9.9,1.4-15.8,8.6c-5.9,7.2-.6,11.7-2.3,16.6-1.7,4.9-5.6,4.9-7.2,8.9-1.6,4.1-8.2-1.6-12.3-.8-4.1.8-5.5,1.3-5.9-1.3s-6.3-8-13.7-4.1c-7.4,3.8-7,7.2-8.2,9.1-1.3,1.9-5,5.2-5,5.2,0,0-2-3.3-6.3-1.6-4.4,1.6-8,1-7.1-2.1s3.6-4,6.2-4.9c2.6-.9,5.6-5.9,5.7-10.7s-2.6-6.7-2.3-12.8c.4-6.1-4.7-4.9-6.1-8.2-1.4-3.3-2.3-9.2-7.6-4.4,0,0-1.8-2.9-5-2.4-3.3.5,1.4-6.2-3.1-8.5-4.5-2.2-4.2-4.5-9.6-6.3-5.5-1.8-9.3-.6-11.3,1.6-1.9,2.2-6.6-1.4-7.7,3.5s-3.5,1.6-5,6c-1.5,4.5-6-1.5-7.9,1.1,0,0-1.7-4.8-1.1-6.3s4.5-2,4.8-7.4c.3-5.4-3-5.2-3.2-7.7-.2-2.5.5-8.5-9.2-10.5s-4.9-8.6-15-8.1c-10.2.5-8.8,7.1-11.4,9-2.6,1.9-11.7,3.1-14,10.4-2.2,7.4-.7,9-2.2,12.7s-4.7,2.5-5.6,7.2c-.9,4.7.4,7.3-2.3,9.6-2.7,2.3-5,2-4.3,6.8.7,4.8,3.6,3.9,4.7,4.9,1.1,1.1,2.8,3.5,2.3,4.5s-1,5.6-3.1,6c-2.1.4-1.7-2.1-6.1-5-4.4-2.9-8.1-4.6-11.4,0-3.3,4.5-6.6,4.7-10.8,5.3-4.2.6-8.9.5-12.8,7.2-3.9,6.7-4.2,14.1-9.2,18.5s-7.4,7.8-7.5,14.2-.7,10.7-1.8,14.5c-1.1,3.8,3.9,12.3,10.7,12.1,6.8-.2,10.3-4.8,13.4-4.2s6.7,5.8,6,8.5c-.7,2.7-3.8,5.5-5.9,6.6-2.1,1.1-6,2.5-6.6,7.3-.6,4.8,2.2,8.5-.1,12.7-2.3,4.2-4.6,7.9-3.9,14.4.7,6.6.9,15.6,10,19.6,9,4,10.3,6.7,11.5,11.6,1.2,4.9,1.6,9.5-.1,10.6s-6.9.9-9.5,5.2c-2.6,4.2-8.3,4.6-13.4,4.7-1.9,0-3-3.9-5.8-7.2-1.4-1.6-4.4-1-5.7-3.5-3.3-6.4,2.1-16.3-11.9-22.9-14.5-6.8-22,5.4-26.3,12s-7.7,6.1-12.2,8c-4.5,1.9-7,6.8-7,12.9s2.5,7-.9,11.3c-3.4,4.2-2.5,8.8-1.1,12,1.4,3.2-1.7,4.1-5,2.3s-6.7.3-8,4.1c-1.3,3.8-4.1,3.9-4.7,9.5-.6,5.6-3.5,2.3-9.2,2.5s-14,4.8-13.9,12.2c0,4.6-2.3,8.7-.6,14.6,1.3,4.5,3.9,7.7,5.5,10.4,1.6,2.7,1.1,4.4,2.1,6.9s-1.3,5.3-1.1,8.6,2.2,4.3,2.6,8.2c.6,6.2,7.5,3,8.3,6.9s-4.9,6.4-6.7,13,2.3,9.4,2.3,12.1.5,12.1,7,17.5c6.6,5.5,3.3,10.2,6.7,13.5,3.4,3.3,7.2.6,9.9,7,2.7,6.4,22.7,19.6,37.3,8.3,14.6-11.3,9.5-15.3,18.6-16.3,9.1-.9,9.7,2,14.9-1.9,5.2-3.9,9.4-3.6,13.1-3.9s7.1,1.3,9.9-2,4.6-7.4,3.4-9.2,0-2.8-2.6-4.2c-2.5-1.4-4.1-7.6.4-7.2,4.5.4,5.1,4.4,8.8,3.3,3.7-1.1,4.5-3.8,8.3-3.9s8.2-6.3,5.7-9.3c0,0,6.1-1,7.4-4.2,1.3-3.2-.5-6.5.2-8.2s5-2.3,6.4.6c1.4,3,3.1,4.5,5.5,4.3s4.5,3.4,7.4,5.7c2.8,2.3,11.4,3.7,14.9.7,3.4-3,6.5-7.4,7.8-3.8,1.3,3.6,5.6,7.8,8.7,9,0,0-.7,1.4-4.8,1.3-4.1,0-8.1.4-9.9,5.9-1.9,5.5,1.1,10.4-.6,13.3-1.6,2.9-6.6,9.4-6.5,20,0,0-3.9-4.5-8.8-2.5-4.9,2-15.4,7.6-17.7,19.6-2.3,12-2.1,16.6-7,10-4.9-6.6,2.6-13.4-4.8-20.9-7.4-7.5-8.8,3.5-11.4,4.7-2.6,1.2-8-2.3-12.2,4.5-4.2,6.8-3.8,9.8-7.7,14.8-4,5-6.1,11.8-4.9,13.7,0,0-7.6,2.9-8.5,7.3-.9,4.4-5.9.3-16,13.5-10,13.1-6.6,30.7-10.3,36.6-3.8,5.9-9.5,17.2-11.3,25.6,0,0-1.8-2.9-4.8-2-6,1.8-4.2,6.3-7.5,9.3-10.9,9.9-8,25.5-14.1,33.9-6.1,8.5-18.4,9.8-26.8,23-8.5,13.1-3.5,16.9-9,20.9-5.5,4-5.7,7.5-5.8,9.9-.3,6.7-4.5,8.6-8.1,6.7-3.6-1.9-9.2-5.5-16.6-1.9-7.3,3.6-7.5,8.3-8,11.5-.5,3.1-4.7,5.2-7.2,5.4-2.5.1-6.4,3-6.2,6.6s-.7,4.6-2.4,6.4-2.1,3.9-1.9,5.1c.7,4.4-9.2,4.4-10,9.1"/>
          <path class="cls-4" d="M-127.1,774.9c-5-6.7-6.2-20.6,0-24.7,6.2-4.1,10.1-8.1,9.8-10.6-.3-2.4-4.5-6,0-9.5,4.5-3.5,9.8-4.3,6.2-7.5-3.6-3.2,2-5.6-1.3-8.4-3.3-2.9-7-.8-9.5,1.5-2.5,2.4-5.3,1.6-7.2-.6s-6.1.8-8.2-2.3-3.9-.6-7.9-3.1c-4-2.6-8-6.2-10.5-10.5-2.5-4.3-.4-7-6.5-6.1s-4.9,3.5-14.3,2.9-8.4,1.8-18-5.1c-9.5-6.9-13.7-13.8-11.6-26.3,2.1-12.5-3.7-12.9.6-21.9s9.4-15.4,15.4-14.9,4.1,4,7.5,2.7,3-4.4,7.2-5.5c4.1-1.1-6.3-4.6-3.1-13,3.1-8.4.3-10.5-4.1-12.9-4.4-2.4-6.8,0-13.6-8.1-6.8-8.1-4.2-15.5-.7-22.6,3.5-7.1,9.8-17.7,21.2-16.6s9.5,5.6,13.9,5,7.4-3.1,6.3-7.1c-1.1-4,.2-8.1,4.4-8.2,4.2-.1,4.4-2.6-.4-5.1-4.7-2.4-5.9-11-2.9-14.6,3-3.7-7.2-9.1.6-22.7,7.8-13.5,8.9-17.7,19.1-21.9,10.3-4.2,14.2,1.3,17.8-.7,3.7-2,7.7-2.9,9.1.5,1.4,3.3,7.4-4.9,5.2-11-2.2-6.1-.5-12.4,6.9-11.2,7.4,1.2,11.5-2.2,10.7-7.2s.4-10.5,7.4-14.1c7-3.7,4.5-7,15.9-7s13.5,7.8,13.6,11.9,2.4,2.6,0,8.3c-2.4,5.7-1.8,9.4,2.2,9.1,4.1-.3,3.8-6.5,8.3-8.3,4.6-1.8,11-6.4,13.3.9s4.7,16.1-2,23.4c-6.7,7.3-1.8,21.6,2.7,18.9,4.6-2.7,12.2-9.1,18.6-22.8,6.4-13.7,20.4-20.1,24.4-11,4,9.1-.3,12.5,9.7,16.9"/>
        </g>
        <path class="cls-12" d="M-625.9,570.9c-8.4,13.7-28.4,23-50.1,23.7-21.7.7-45.2,19-48.7,21.9-3.4,2.9-11.3,9.7-23.7,6.5-12.4-3.2-15.1.5-21.7,1.1-6.6.5-11.4-.4-23.3,1.7-11.9,2.1-24.9,14.5-36.8,28.8-11.9,14.3-8.2,25.7-12.7,32.8-4.5,7.1-10.8,16.7-7.1,31.2,3.7,14.5,12,19.4,14.7,21.4,2,1.5,3.6,4.9.9,9.4s-2.2,1.5-5.3,5.1c-9.8,11.4,6.6,15.7-3.3,21.5-9.9,5.8-3.8,8.1-7.8,15.5s1.1,9.9-.5,23.4c-1.6,13.5-7.4,19.7-6.7,27.1,1.3,13.9,4.8,22.5-20.1,53.5h63s22-47.3,37.1-53.9c15.1-6.6,11.4-17,15.5-21.2,4.1-4.2-1.9-10.8,7.1-13.9,9-3.1,6.5-7.3,9.9-11.4s.8-4.2,0-8.4c-.7-4.1-5-2.6-6.2-3.6-1.3-1,1.7-5.2,4.5-3.7,2.8,1.5,4.4,2.9,12.5-3.5,8.1-6.3,4.6-11.9,5.4-12.8.8-.9,1.6-7.2.3-9.2s-2.4-3.1-1.6-5.2-8.5-5-5-5,4.7-4.4,8.1-4.8,2.6-4.8,5.5-4.6,5.8,6.2,15.3,6.8c9.5.6,15.1-5.4,17.3-7.3,2.2-1.9,4.6-.9,9.7-4.9,5.1-4,2.6-8.2,4.5-10.9,1.9-2.7,4.1-1,11.2-1.4,7.1-.4,3.6-3.9,12.5-4.8,8.9-.9,0,3.6,22.8,6,22.7,2.4,38.3-12.4,59.2-34.6s18.8-31.7,22.2-41.8,5.8-9.8,18.5-21.1,9.4-40.8,43.3-34.3c25.6,4.9,44.1-9.3,56.3-20.8,6.5-6.1,15.7-22.7,31.5-32.5,27.9-17.3,52.2-12.5,72.3-36.4,13.2-15.7,9.8-26.3,16.8-38.4,12-20.5,19.8-18.2,30-32.8,7.8-11.2,12.2-22.6,17.9-26.7,10-7.2,17.2-1.3,31.2-1.5,11.9-.2,29.9-6.4,46.1-10.9,46.3-12.9,36.7-91.2,83.4-92.2,46.8-1,61.2-57.5,86.3-101.2,25.2-43.7,88.7-96.7,88.7-96.7V-100.1S-27.8-53.7-82-14.4c-21.7,15.7-16.5,29.8-50.1,51.9-19.4,12.7-35.9,48.2-28.6,79.7,4.9,21.5-9.6,53.4-29.8,69.7-12.1,9.8-42.5,3.7-57.5,11.8-69.7,37.6-56.3,75.3-92.7,112.2-17.4,17.7-55.4,29.4-73.2,42.6s-31.2,28.6-32.2,61.5c-1,35.3-28.9,64.5-60.7,81.3-27.2,14.4-58,17.9-69.3,27.5-24.6,20.7-34.5,22.7-49.6,47.2Z"/>
        <path class="cls-12" d="M-298.7,711.1c-6.1,9.9-20.5,16.6-36.2,17.1-15.7.5-32.7,13.7-35.2,15.8-2.5,2.1-8.2,7-17.2,4.7-9-2.3-10.9.4-15.7.8-4.8.4-8.2-.3-16.8,1.2-8.6,1.5-18,10.5-26.6,20.9s-5.9,18.6-9.2,23.7c-3.3,5.2-7.8,12.1-5.2,22.6,2.7,10.5,8.7,14,10.6,15.5,1.4,1.1,2.6,3.5.7,6.8s-1.6,1.1-3.8,3.7c-7.1,8.2,4.8,11.4-2.4,15.6-7.2,4.2-2.8,5.8-5.6,11.2-2.9,5.4.8,7.2-.4,16.9s-5.4,15.5-4.9,20.9c.9,10,3.5,17.4-14.6,40h45.6s15.9-35.5,26.8-40.3c10.9-4.8,8.2-12.9,11.2-16s-1.3-8.1,5.2-10.3c6.5-2.2,4.7-5.4,7.1-8.4,2.4-3,.6-3.1,0-6.1-.5-3-3.6-1.9-4.5-2.6s1.2-3.8,3.3-2.7c2,1.1,3.2,2.1,9-2.5s3.3-8.6,3.9-9.3,1.1-5.2.2-6.7-1.7-2.3-1.1-3.8-6.1-3.6-3.6-3.6,3.4-3.2,5.8-3.5,1.9-3.4,4-3.4,4.2,4.5,11.1,4.9c6.9.4,10.9-3.9,12.5-5.3,1.6-1.4,3.3-.7,7-3.5,3.7-2.9,1.9-5.9,3.3-7.9,1.4-2,3-.8,8.1-1s2.6-2.8,9-3.5c6.4-.6,0,2.6,16.5,4.3,16.5,1.7,27.8-9,42.9-25.1,15.1-16.1,13.6-23,16.1-30.2,2.5-7.3,4.2-7.1,13.4-15.3,9.2-8.2,6.8-29.5,31.3-24.8,18.6,3.5,31.9-6.8,40.7-15,4.7-4.4,11.3-16.4,22.8-23.6,20.2-12.5,37.8-9,52.4-26.4,9.6-11.3,7.1-19.1,12.2-27.8,8.7-14.9,14.3-13.2,21.7-23.8,5.7-8.1,8.8-16.3,13-19.3,7.2-5.2,12.4-.9,22.6-1.1s21.6-4.6,33.4-7.9c33.5-9.3,26.5-66,60.4-66.7,33.8-.7,44.1-41.6,62.3-73.2,18.2-31.6,64-70,64-70v-141.7s-74.6,33.6-113.8,62c-15.7,11.3-11.9,21.6-36.2,37.6-14,9.2-25.9,34.9-20.7,57.7,3.5,15.5-6.9,38.6-21.5,50.5-8.7,7.1-30.7,2.7-41.6,8.5-50.4,27.2-40.7,54.5-67.1,81.2-12.6,12.8-40.1,21.3-53,30.8-14,10.3-22.6,20.7-23.3,44.5-.8,25.5-20.9,46.7-43.9,58.9-19.7,10.4-42,13-50.2,19.9-17.8,15-25,16.4-35.9,34.1Z"/>
        <g>
          <path class="cls-12" d="M-853.2,375.6c-13.1,21.3-44.1,35.7-77.8,36.8-33.7,1.1-70.2,29.5-75.6,34-5.3,4.5-17.5,15.1-36.8,10.1s-23.4.8-33.7,1.7c-10.3.8-17.7-.7-36.1,2.6-18.5,3.3-38.6,22.6-57.1,44.8-18.5,22.2-12.7,39.8-19.7,50.9-7,11.1-16.8,25.9-11.1,48.5,5.8,22.6,18.6,30.1,22.8,33.2,3.1,2.3,5.6,7.6,1.4,14.7-1.9,3.3-3.4,2.3-8.2,7.9-15.2,17.7,10.2,24.4-5.2,33.4-15.4,9-6,12.5-12.1,24s1.6,15.4-.8,36.4c-2.5,20.9-11.5,30.5-10.5,42,2,21.5,7.5,36-31.2,83h97.9s34.2-73.4,57.6-83.7c23.4-10.3,17.7-26.3,24.1-32.9,6.4-6.6-2.9-16.7,11.1-21.5,14-4.8,10.1-11.3,15.3-17.7,5.2-6.4,1.2-6.5.1-13-1.1-6.4-7.7-4-9.7-5.6-2-1.5,2.7-8.1,7-5.7,4.3,2.4,6.9,4.5,19.4-5.4,12.5-9.9,7.2-18.5,8.4-19.9,1.2-1.4,2.5-11.2.5-14.3s-3.7-4.8-2.5-8.1c1.2-3.3-13.1-7.8-7.8-7.8s7.3-6.9,12.5-7.5c5.2-.6,4-7.4,8.5-7.2s9,9.7,23.8,10.6c14.8.9,23.4-8.3,26.9-11.3,3.5-3,7.1-1.4,15-7.6,7.9-6.2,4-12.7,7-16.9,3-4.2,6.4-1.6,17.5-2.2,11.1-.6,5.5-6.1,19.4-7.5,13.8-1.4.1,5.6,35.5,9.3,35.3,3.7,59.5-19.3,92-53.8,32.4-34.5,29.1-49.3,34.5-64.9,5.3-15.6,9-15.1,28.7-32.8,19.7-17.7,14.7-63.3,67.3-53.3,39.8,7.6,68.4-14.5,87.4-32.3,10.1-9.4,24.3-35.3,48.9-50.5,43.3-26.9,81-19.4,112.3-56.6,20.5-24.3,15.2-40.9,26.1-59.6,18.6-31.9,30.8-28.3,46.6-51,12.1-17.4,18.9-35,27.8-41.5,15.5-11.2,26.7-2,48.5-2.3,18.5-.2,46.4-10,71.6-16.9C-93.7,68.3-108.6-53.3-36-54.9S58.8-144.2,97.9-212c39.1-67.8,137.6-150.2,137.6-150.2v-304s-160.2,72-244.4,133c-33.6,24.3-25.6,46.3-77.8,80.6-30.1,19.8-55.6,74.8-44.4,123.8,7.6,33.3-14.9,82.8-46.2,108.3-18.8,15.3-66,5.7-89.3,18.3-108.2,58.4-87.4,117-143.9,174.2-27.1,27.4-86.1,45.7-113.7,66.1-30.1,22.2-48.5,44.4-50,95.4-1.6,54.8-44.8,100.2-94.3,126.3-42.2,22.3-90.1,27.8-107.7,42.7-38.2,32.2-53.6,35.2-77.1,73.2Z"/>
          <path class="cls-12" d="M-853.2,375.6c-13.1,21.3-44.1,35.7-77.8,36.8-33.7,1.1-70.2,29.5-75.6,34-5.3,4.5-17.5,15.1-36.8,10.1s-23.4.8-33.7,1.7c-10.3.8-17.7-.7-36.1,2.6-18.5,3.3-38.6,22.6-57.1,44.8-18.5,22.2-12.7,39.8-19.7,50.9-7,11.1-16.8,25.9-11.1,48.5,5.8,22.6,18.6,30.1,22.8,33.2,3.1,2.3,5.6,7.6,1.4,14.7-1.9,3.3-3.4,2.3-8.2,7.9-15.2,17.7,10.2,24.4-5.2,33.4-15.4,9-6,12.5-12.1,24s1.6,15.4-.8,36.4c-2.5,20.9-11.5,30.5-10.5,42,2,21.5,7.5,36-31.2,83h97.9s34.2-73.4,57.6-83.7c23.4-10.3,17.7-26.3,24.1-32.9,6.4-6.6-2.9-16.7,11.1-21.5,14-4.8,10.1-11.3,15.3-17.7,5.2-6.4,1.2-6.5.1-13-1.1-6.4-7.7-4-9.7-5.6-2-1.5,2.7-8.1,7-5.7,4.3,2.4,6.9,4.5,19.4-5.4,12.5-9.9,7.2-18.5,8.4-19.9,1.2-1.4,2.5-11.2.5-14.3s-3.7-4.8-2.5-8.1c1.2-3.3-13.1-7.8-7.8-7.8s7.3-6.9,12.5-7.5c5.2-.6,4-7.4,8.5-7.2s9,9.7,23.8,10.6c14.8.9,23.4-8.3,26.9-11.3,3.5-3,7.1-1.4,15-7.6,7.9-6.2,4-12.7,7-16.9,3-4.2,6.4-1.6,17.5-2.2,11.1-.6,5.5-6.1,19.4-7.5,13.8-1.4.1,5.6,35.5,9.3,35.3,3.7,59.5-19.3,92-53.8,32.4-34.5,29.1-49.3,34.5-64.9,5.3-15.6,9-15.1,28.7-32.8,19.7-17.7,14.7-63.3,67.3-53.3,39.8,7.6,68.4-14.5,87.4-32.3,10.1-9.4,24.3-35.3,48.9-50.5,43.3-26.9,81-19.4,112.3-56.6,20.5-24.3,15.2-40.9,26.1-59.6,18.6-31.9,30.8-28.3,46.6-51,12.1-17.4,18.9-35,27.8-41.5,15.5-11.2,26.7-2,48.5-2.3,18.5-.2,46.4-10,71.6-16.9C-93.7,68.3-108.6-53.3-36-54.9S58.8-144.2,97.9-212c39.1-67.8,137.6-150.2,137.6-150.2v-304s-160.2,72-244.4,133c-33.6,24.3-25.6,46.3-77.8,80.6-30.1,19.8-55.6,74.8-44.4,123.8,7.6,33.3-14.9,82.8-46.2,108.3-18.8,15.3-66,5.7-89.3,18.3-108.2,58.4-87.4,117-143.9,174.2-27.1,27.4-86.1,45.7-113.7,66.1-30.1,22.2-48.5,44.4-50,95.4-1.6,54.8-44.8,100.2-94.3,126.3-42.2,22.3-90.1,27.8-107.7,42.7-38.2,32.2-53.6,35.2-77.1,73.2Z"/>
          <path class="cls-10" d="M-742.2,375.6c-13.1,21.3-33.1,46.7-66.8,47.8-33.7,1.1-70.2,29.5-75.6,34-5.3,4.5-17.5,26.1-36.8,21.1s-23.4.8-33.7,1.7c-10.3.8-17.7-.7-36.1,2.6-18.5,3.3-38.6,22.6-57.1,44.8-18.5,22.2-23.7,17.8-30.7,28.9-7,11.1-16.8,25.9-11.1,48.5,5.8,22.6,18.6,30.1,22.8,33.2,3.1,2.3,5.6,7.6,1.4,14.7-1.9,3.3-3.4,2.3-8.2,7.9-15.2,17.7,10.2,24.4-5.2,33.4-15.4,9-6,12.5-12.1,24-6.2,11.5,1.6,15.4-.8,36.4-2.5,20.9-11.5,31.3-10.5,42.7,2,21.5,7.5,36.8-31.2,83.8h97.9s-20.8-74.1,2.6-84.4c23.4-10.3,17.7-26.7,24.1-33.3,6.4-6.6-2.9-16.9,11.1-21.7,14-4.8,10.1-11.4,15.3-17.8,5.2-6.4,1.2-6.6.1-13-1.1-6.4-7.7-4-9.7-5.6-2-1.5,2.7-8.1,7-5.7,4.3,2.4,6.9,4.5,19.4-5.4,12.5-9.9,7.2-18.5,8.4-19.9,1.2-1.4,2.5-11.2.5-14.3s-3.7-4.8-2.5-8.1c1.2-3.3-13.1-7.8-7.8-7.8s7.3-6.9,12.5-7.5c5.2-.6,4-7.4,8.5-7.2,4.5.2,9,9.7,23.8,10.6,14.8.9,23.4-8.3,26.9-11.3,3.5-3,7.1-1.4,15-7.6,7.9-6.2,4-12.7,7-16.9,3-4.2,6.4-1.6,17.5-2.2,11.1-.6,16.5-6.1,30.4-7.5,13.8-1.4-54.9,5.6-19.5,9.3,35.3,3.7,59.5-19.3,92-53.8,32.4-34.5,29.1-49.3,34.5-64.9,5.3-15.6,9-15.1,28.7-32.8,19.7-17.7,14.7-63.3,67.3-53.3,39.8,7.6,68.4-14.5,87.4-32.3,10.1-9.4,24.3-35.3,48.9-50.5,43.3-26.9,81-19.4,112.3-56.6,20.5-24.3,15.2-40.9,26.1-59.6,18.6-31.9,30.8-28.3,46.6-51,12.1-17.4,18.9-35,27.8-41.5,15.5-11.2,26.7-2,48.5-2.3,18.5-.2,46.4-10,71.6-16.9C-81.7,68.3-96.6-53.3-24-54.9c72.6-1.6,94-89.3,133.1-157.2,39.1-67.8,235.8-150.2,235.8-150.2v-304s-159.4,72-243.6,133c-33.6,24.3-25.2,46.3-77.4,80.6-30.1,19.8-55.4,74.8-44.2,123.8,7.6,33.3,7.2,93.8-24.1,119.3-18.8,15.3-65.9,5.7-89.2,18.3-108.2,58.4-87.4,117-143.9,174.2-27.1,27.4-86,45.7-113.7,66.1-30.1,22.2-48.4,55.4-50,106.4-1.6,54.8-55.8,89.2-105.3,115.3-42.2,22.3-101.1,16.8-118.7,31.7-38.2,32.2-53.6,35.2-77.1,73.2Z"/>
        </g>
      </g>
      <g>
        <g>
          <path class="cls-8" d="M110.9,353.9s-29.4-21.2-58.8-53.9c-29.4-32.6-24.5-32.9-20.9-49.8,3.5-16.9,39.5-75.9,55.8-96.6,16.3-20.7,97.9-72.4,124.1-97.4,26.1-25,34.3-47.1,70.5-59.3,36.2-12.2,40.1-17.3,47.6-20,7.5-2.7,11.3,1.8,16.3,2.2s16.5-4.8,21.6,6c5.2,10.7,16.5,21.4,23.5,33.5,7.1,12.1,20.3,27.1,19.9,33.5-.4,6.4,0,15.8-1.3,18.7-1.2,2.9-2.9,11.8-14.2,4.3,0,0-.7,8.3-1.1,10.9-.4,2.6-4.1,8.3-8.6,8.3s-10.7-.8-15.1-13.5c0,0,4.4,16.1,0,17.7-4.4,1.6-9.1,3.4-15.9-6.9,0,0-3.9,3.9-10.6.5-6.7-3.4-12-12-15.9-16.2-3.9-4.2-3.7-6.7-6.4-8.4-2.7-1.8-9.5-6.4-10.5-8.8,0,0-11.1,5.7-14.3,7.9-5.6,3.8-17.1,3.7-23.7.3,0,0-66.1,49.4-85.8,119.6-13.7,48.9-22.7,65.3-22.7,65.3l10.4,5.9-63.9,96.5Z"/>
          <path d="M264.5,67.6c.6,2.6-2.3,8-40.6,38-38.3,30-47.2,79-65,122.8-17.8,43.8-57.6,62.1-57.6,62.1,14.1-.8,52.4-25.9,63-38.9,0,0,9-16.4,22.7-65.3,19.7-70.1,85.8-119.6,85.8-119.6-6.9-2.7-15.4-8.7-15.4-8.7,0,0,6.4,7,7,9.6Z"/>
          <path d="M310.6,59.5s0,0-.3,0c-.2,0-.5,0-.9,0-.8,0-1.9,0-3.2.5-.6.2-1.3.5-2.1.9-.8.3-1.6.7-2.5,1-.9.3-1.8.7-2.7,1-.9.3-1.9.6-2.8.9-1,.3-1.9.5-2.9.7-.9.2-1.9.3-2.8.5-.9.1-1.8.2-2.7.2-.8,0-1.7,0-2.4-.1-.7-.2-1.4-.2-2-.4-.6-.2-1.1-.4-1.4-.6-.7-.4-1.2-.7-1.2-.7,0,0,.4.2,1.2.6.4.2.9.3,1.5.5.6.2,1.2.2,2,.3.7,0,1.5,0,2.3,0,.4,0,.8,0,1.3-.1.4,0,.9-.1,1.3-.2.9-.2,1.8-.4,2.7-.6.9-.2,1.8-.6,2.8-.9.9-.3,1.8-.7,2.7-1,.9-.4,1.7-.7,2.6-1.1.8-.4,1.6-.8,2.4-1.1.7-.4,1.4-.8,2.2-1.1,1.5-.6,2.8-.8,3.7-.8.5,0,.8,0,1.1,0,.3,0,.5,0,.4,0,.5.1.9.6.8,1.2-.1.5-.6.9-1.2.8Z"/>
          <path d="M353.4,92s-.1-.3-.4-.8c-.3-.5-.7-1.3-1.2-2.3-.9-1.9-2.2-4.7-3.5-8.1-1.4-3.4-2.9-7.4-4.5-11.6-.8-2.1-1.6-4.4-2.3-6.7-.2-.6-.4-1.1-.5-1.7v-.4c-.1,0-.3-.4-.3-.4-.1-.3-.2-.6-.3-.8-.5-1-1-2.1-1.7-3.1-2.5-4.1-5.3-8.1-7.8-11.9-2.5-3.8-4.7-7.5-6.2-10.9-.7-1.7-1.4-3.2-2.1-4.5-.7-1.3-1.4-2.4-2-3.2-.7-.8-1.2-1.5-1.3-2.1,0-.3-.1-.5-.1-.6,0-.1,0-.2,0-.2,0,0,0,0,0,.2,0,.1,0,.4.1.6.1.6.7,1.2,1.3,2,.7.8,1.4,1.9,2.1,3.2.7,1.3,1.4,2.8,2.2,4.5,1.5,3.3,3.8,6.9,6.4,10.6,2.6,3.8,5.5,7.6,8.1,11.8.7,1,1.3,2.1,1.8,3.3.2.3.2.6.3.9l.2.5v.4c.3.6.5,1.1.7,1.7.8,2.2,1.6,4.4,2.5,6.5,1.7,4.2,3.3,8.1,4.8,11.5,1.5,3.3,2.7,6.1,3.7,7.9.5.9.8,1.6,1.1,2.1.3.5.4.7.4.7l-1.7,1Z"/>
          <path d="M316.4,29.6c-2.3,3.3-4.1,8.9-3.7,9.4s8.1,4.4,9.2,1.8c1.1-2.6-5.4-11.3-5.4-11.3Z"/>
          <path d="M369.2,80.7s0-.3,0-.9c0-.6,0-1.5,0-2.5,0-1.1-.2-2.4-.3-3.9-.2-1.5-.4-3.2-.7-5.1-.5-3.8-1.3-8.1-2.2-12.8-.2-1.2-.5-2.3-.7-3.5-.1-.6-.3-1.2-.4-1.8v-.5c0,0-.1-.1-.1-.1,0,0,0,0,0,0v-.2c-.1-.3-.2-.6-.3-.9-.8-2.2-2-4.5-3.2-6.8-1.2-2.2-2.4-4.4-3.8-6.5-.7-1.1-1.3-2.1-2.1-3.1-.4-.5-.7-1-1.1-1.4-.2-.2-.4-.4-.6-.6l-.7-.6c-1.8-1.7-3.1-3.5-4.5-5.3-1.3-1.7-2.5-3.4-3.6-5-1.1-1.6-2-3.1-2.8-4.4-.8-1.3-1.4-2.5-1.9-3.5-.2-.5-.4-1-.6-1.4-.1-.4-.3-.8-.4-1-.1-.6-.2-.9-.2-.9,0,0,0,.3.2.9.1.3.2.6.4,1,.2.4.4.8.6,1.3.5,1,1.2,2.2,2,3.5.8,1.3,1.8,2.8,2.9,4.3,1.1,1.5,2.3,3.2,3.7,4.9,1.4,1.7,2.8,3.5,4.5,5.1l.7.6c.2.2.5.4.7.7.4.4.8.9,1.2,1.4.8,1,1.5,2,2.2,3,1.4,2.1,2.7,4.3,4,6.5,1.2,2.2,2.5,4.4,3.4,6.8.1.3.2.6.3.9v.2c0,0,.1.1.1.1h0c0,.1.1.6.1.6.1.6.3,1.2.4,1.8.3,1.2.5,2.4.8,3.5,1,4.7,1.9,9,2.5,12.8.3,1.9.6,3.6.8,5.2.2,1.5.3,2.9.4,4,0,1.1.1,2,.2,2.6,0,.6,0,.9,0,.9h-2Z"/>
          <path d="M394,75.3s-.4-1.4-1-3.7c-.7-2.4-1.7-5.7-2.9-9.8-1.2-4-2.7-8.7-4.2-13.8-.7-2.6-1.5-5.2-2-8-.4-2.7-.9-5.5-1.8-8.1-.9-2.6-2.2-5.1-3.9-7.3-.4-.5-.9-1-1.3-1.5-.5-.5-1-1-1.4-1.4-1-1-1.9-2-2.7-3-3.5-4-6.5-7.9-9.1-11.3-1.3-1.7-2.4-3.3-3.4-4.7-1-1.4-1.8-2.7-2.4-3.7-.3-.5-.6-1-.8-1.4-.2-.4-.4-.8-.5-1.1-.2-.6-.3-1-.3-1,0,0,.1.3.3,1,.1.3.3.7.5,1.1.2.4.5.9.8,1.4.7,1,1.5,2.3,2.5,3.7,1,1.4,2.2,2.9,3.5,4.6,2.6,3.3,5.7,7.1,9.3,11,.9,1,1.8,2,2.8,2.9.5.5,1,.9,1.5,1.4.5.5,1,1,1.4,1.6,1.8,2.2,3.2,4.7,4.2,7.4,1,2.7,1.6,5.5,2.1,8.2.5,2.7,1.3,5.3,2.1,7.8,1.6,5,3.2,9.7,4.5,13.7,1.3,4,2.4,7.4,3.2,9.7.7,2.4,1.1,3.7,1.1,3.7l-1.9.6Z"/>
        </g>
        <path class="cls-8" d="M805.9,607.8s14.2,15.9,17.6,23.9c3.4,8,27.9,18.9,27.9,43,0,24-26.1,52.7-34,56.3-7.9,3.5-10.4,5-13.8,9.7-3.5,4.7-8.6,9.9-14.3,9.7-5.7-.2-21.1,26.7-47.5,9.9-26.4-16.8-27.2-98.1,7.3-125.8,34.5-27.6,56.8-26.6,56.8-26.6Z"/>
        <path class="cls-1" d="M424.8,312.8c-50.1-2.8-82.9-21.1-93.5-26-10.6-4.9-28-2-34.3-1.4s-86.5-29.7-103.9-28.2c-17.4,1.5-14.7-7.2-21.8-5.3-7.1,1.9-31,52.9-42.4,66-11.4,13.1-25.3,34.7-27.3,36.7s15.9,17.1,22,18.4c6.1,1.2,9.4,18.7,17.5,26.5,8.2,7.8,17.5-6.9,29,4.1s58.9,32.5,67.6,40.7c8.7,8.2,26.5,14.1,26.5,14.1,0,0-12.9,48.5-14,71.9-1.1,23.4-4.4,70.6-4.9,88.6-.5,18,1.1,118.7,1.1,118.7h372.2s0-51.8,6.6-60c6.5-8.2,15.2-30.4,10.8-35.9,0,0,5.4,13.6,28.3,21.8,22.9,8.2,22.9,24,51.7,20.7,28.8-3.3,31.3-13.6,51.5-41.3,20.1-27.8,37-8.7,55.8-11.4,18.8-2.7-15.1-16.6-14.6-18.7s4.3-18.6-9.2-21.9c-13.5-3.3-2.9-15.6-9.8-27.3-6.9-11.7-54.1-24.1-57.8-37.1s-26.4-34.3-51.4-39.7-205.8-171.2-255.8-173.9Z"/>
        <path d="M664.3,663.5c22.9,8.2,22.9,24,51.7,20.7,25.6-2.9,30.5-11.4,45.4-32.7-9-4.2-22.5-6.9-42.6-7-51.8-.2-71-16.5-75.5-23.2s-7.7-4.8-11.2,1.2c-2.2,3.8.2,12,.2,12l-1,11.4c-1,11.4-4.5,9.9-11.2,26.9-6.7,17-1.1,47.2-1.1,47.3.6-15.8,2.2-37.4,6.2-42.5,6-7.6,13.9-27.2,11.6-34.4,2.1,3.7,9.3,13.8,27.5,20.3Z"/>
        <rect class="cls-9" x="-8.4" y="733.6" width="916.8" height="160.4"/>
        <g>
          <ellipse cx="450" cy="827.2" rx="217" ry="52.1"/>
          <ellipse class="cls-8" cx="450" cy="795.9" rx="230.5" ry="53.8"/>
          <ellipse cx="450" cy="795.9" rx="96.3" ry="22.5"/>
          <path class="cls-3" d="M658.3,812.4c-30.7,19.5-113.7,33.9-208.3,33.9s-173.7-13.7-206.1-32.5"/>
          <path class="cls-3" d="M246.7,776.6c34.1-18,113.4-30.9,203.3-30.9s139.1,8.6,179.6,21.4"/>
        </g>
        <path class="cls-2" d="M564.2,409.7l-43.9,74.3-119.7,63.7-21.8-102.3,1.7-66.7,9.9-27.5,20.4-15.3s-8-23.7-10-25.7c-2-2,39.4,0,39.4,0l69.3,47.6,54.7,52Z"/>
        <path d="M520.3,394c-19.3,16-27.3,16.2-44.6,26.7-17.3,10.5-17.3,32.5-37.8,47.7,0,0,19-1.4,37.8-18.4,18.7-17,37-23.3,51.3-27.8,14.4-4.5,35-28.3,35-28.3h-41.8Z"/>
        <g>
          <g>
            <path class="cls-14" d="M410.8,335.8s-25.3,27.8-24.9,54.7c.4,26.9,15.5,151.8,15.5,151.8l-3.1,2.4s-15.3-48-21.4-67.7c-6.1-19.6-11.4-54.3-1.2-79.2,10.2-24.9,13.5-25.2,9.8-33.2-3.7-8-9-10.5-4.6-14,4.4-3.5,29.9-14.8,29.9-14.8Z"/>
            <path class="cls-14" d="M410.8,335.8s-54.8-1.8-64.1-7.2c0,0,5.2,17.4,10.1,19.3s15.8.3,17.7,2.3c1.9,2,.3,9.4,4.3,11.3s5.8,9.1,3.5,11.6-2.2,16.2-7.2,26.4c0,0,7.6-10.6,12.3-14.7s2.9-15.9.5-19.5c-2.3-3.5-10.1-10.4-9.2-13s32-16.5,32-16.5Z"/>
          </g>
          <path class="cls-7" d="M562.5,386.7s-29.4,61.3-34.3,69.5c-4.9,8.2-30.5,8.6-59.4,27.3-29,18.8-77.9,67.7-93,74.7,0,0,100.4-26.5,114.3-35.5,13.9-9,23.3-13.5,33.5-30.6,10.2-17.1,23.3-38.8,29.8-45.3,6.5-6.5,9.3-60.1,9.3-60.1Z"/>
          <path class="cls-7" d="M558.7,427.4s0,0,0,0c-1.1,8.2-19.6,26.7-23.4,28-3.8,1.4-7.3,9.4-13.2,13.7-5.8,4.4-11.7,19.2-11.8,23.9-.1,4.8-.7,16.1-.7,16.1h0c4.8-4.2,9.3-9.4,13.9-17.2,10.2-17.1,23.3-38.8,29.8-45.3,2.3-2.3,4-10.1,5.4-19.4Z"/>
          <path class="cls-7" d="M562.5,386.7s-7.3,28.4-27.2,68.8c0,0,13.3.7,25.8,3.9,12.5,3.3,33.5,10.3,42.7,11.4,9.3,1.1,19.9,7.3,21.2,6s-28-79.4-62.6-90.2Z"/>
        </g>
        <path d="M397.4,409.7s1.4-5.9,3.4-14.9c2-8.9,4.6-20.9,6.8-32.8.5-3,1-6,1.5-9,.4-3,.8-5.9.7-8.6v-1.1s0-1,0-1c0-.7,0-1.3-.2-2-.2-1.3-.3-2.6-.6-3.9-.2-1.3-.5-2.5-.8-3.7-.3-1.2-.6-2.3-1-3.4-.6-2.2-1.4-4.1-2-5.8-.7-1.7-1.3-3.2-1.8-4.4-.5-1.2-1-2.1-1.3-2.8-.3-.6-.5-.9-.5-.9l2.7-1.4s.2.4.5,1c.3.7.7,1.6,1.2,2.9.5,1.3,1.1,2.8,1.7,4.6.6,1.8,1.3,3.8,1.9,6.1.3,1.1.6,2.3.9,3.5.2,1.2.5,2.5.7,3.8.2,1.3.4,2.7.5,4.1,0,.7,0,1.4.1,2.2,0,.4,0,.7,0,1.1v1.1c0,2.9-.6,5.9-1.1,8.9-.5,3-1.1,6-1.8,9-2.6,12-5.6,23.8-7.8,32.7-2.3,8.9-3.9,14.8-3.9,14.8Z"/>
        <path d="M376.6,558.7s-1.5,2.5-3.9,6.9c-1.2,2.2-2.6,4.9-4.2,8.1-1.6,3.1-3.3,6.7-5,10.7-1.7,4-3.3,8.3-4.5,13.1-1.2,4.8-2.5,9.9-3.8,15.2-2.5,10.5-5.2,21.8-7.7,33.1-1.3,5.6-2.5,11.3-3.7,16.9-1.2,5.6-2.3,11.1-3.2,16.4-.4,2.7-.9,5.3-1.2,7.9-.2,1.3-.2,2.6-.3,3.8,0,1.3,0,2.5-.1,3.8-.2,5-.5,9.7-.8,14-.6,8.7-1.2,15.9-1.6,20.9-.4,5-.7,7.9-.7,7.9,0,0,.2-2.9.6-7.9.4-5.1.9-12.3,1.4-20.9.2-4.3.5-9,.6-14,0-1.2,0-2.5,0-3.8,0-1.3.1-2.6.3-3.9.3-2.6.7-5.2,1.1-7.9.9-5.4,1.9-10.9,3.1-16.5,1.1-5.6,2.3-11.3,3.5-16.9,2.4-11.3,4.9-22.6,7.3-33.2,1.2-5.3,2.4-10.4,3.6-15.2,1.2-4.9,2.8-9.4,4.5-13.4,1.7-4,3.4-7.7,4.9-10.8,1.5-3.2,3-5.9,4.1-8.2,2.4-4.5,3.8-7,3.8-7h0c.3-.5.9-.7,1.4-.4.5.3.6.9.4,1.4,0,0,0,0,0,0Z"/>
        <path d="M263.2,458s.2-.6.5-1.8c.4-1.2.8-2.9,1.4-5.1,1.1-4.4,2.5-10.8,4.1-18.5,1.6-7.7,3.4-16.7,5.5-26.3,1.1-4.8,2.2-9.8,3.4-14.8,1.3-5,2.7-10.1,4.5-15,1.8-4.9,3.1-9.9,4.3-15,1.2-5,2.3-10,3.2-14.8.9-4.8,1.8-9.5,2.4-13.9.7-4.4,1.3-8.7,1.7-12.6.5-3.9.8-7.5,1-10.7,0-1.6.2-3.1.3-4.5,0-1.4,0-2.6,0-3.8,0-2.3,0-4.1-.3-5.3-.1-1.2-.2-1.9-.2-1.9,0,0,0,.6.2,1.9.2,1.2.2,3,.3,5.3,0,1.1,0,2.4,0,3.8,0,1.4-.1,2.9-.2,4.5-.2,3.2-.5,6.8-.9,10.7-.4,3.9-.9,8.1-1.6,12.6-.6,4.5-1.4,9.1-2.3,14-.9,4.8-1.9,9.8-3.1,14.8-.6,2.5-1.2,5-1.9,7.6-.7,2.5-1.4,5.1-2.3,7.5-1.8,4.9-3.1,10-4.3,15-1.2,5-2.2,10-3.3,14.8-2,9.6-3.7,18.6-5.2,26.3-1.5,7.7-2.9,14.1-3.9,18.6-.5,2.2-1,4-1.3,5.2-.3,1.2-.5,1.8-.5,1.8l-1.9-.6Z"/>
        <g>
          <path d="M463.1,201.3c-5.3,4.3-32,48-48.8,49.6s8.4,31.7,8.4,31.7l44.3-13.7,8.8-55.3-12.7-12.3Z"/>
          <path class="cls-7" d="M459.8,202.1s-6.1,7.8-5,8.3,3.5,2.8,3.5,2.8c0,0,.6,3.4,2,4.7,1.4,1.3,3.6,3.4,3.6,3.4,0,0,0,2.2,1.3,3.1s2.8,5,2.8,5l5.2-8.3-13.4-18.9Z"/>
          <path class="cls-2" d="M536,399h35.5l59.3-4.3,44.1-100.4-8.2-80.7-48.2-39s-37.8-6.1-42.2-5.9c-4.5.2-22-3.3-25.3-2.4-3.3.8-6.7.5-12.4,4.1-5.7,3.6-8.5,6.3-11,6.3s-43.9,11.3-46.7,15.4-8.7,7.8-14.1,6.8c-5.4-1-7.3,1.2-7.8,3.3s8.6,11.3,8.6,13.9c0,5.1-3.3,33.7-7.1,40s-20.5,12.3-33.3,8.8c-11.4-3.1-10.5-11.9-12.9-13.9-2.6-2.1-9.3,3.1-10.7,7.5-1.4,4.5-3.4,8.6-11.4,10.6-8.1,2-13.3,7.6-12.7,14.4.6,6.7,8,16.4,14.9,24.6,6.9,8.2,31.4,18.3,60.8,27.7"/>
          <path class="cls-2" d="M539.8,174.9c-3.2,1.1-12.7-.4-16.9-2.6s-28-7.9-32.2-6.7c-4.3,1.1-12.4-1.8-14.2,6.1-1.7,8,.3,9.9,1.8,13.6s.5,9.2.5,9.2"/>
          <path d="M483.8,188.9c-1.7-2.4-.1-5.2,2.1-2.1,2.2,3.1,6.6,10.5,6.4,16.2-.2,5.7,4.6,11,4.6,11,0,0-3.8-1.9-5.9-12.1s-5-9.8-7.2-13Z"/>
          <path d="M506.5,187c-1.5-1.8-5.1.4-3.9,4.5s3.8,13.7,1,17.5c0,0,3.7-5.4,3.1-10.1-.6-4.7,2.1-9.1-.1-11.9Z"/>
          <path d="M496.9,219.9s-9.6,24.2-17.1,33.1c0,0,16.3-21.2,17.1-33.1Z"/>
          <path d="M463.1,268.9s-24.5,21.4-35.9,24.9c0,0,7.7,0,14.8-3.8s21.1-21.1,21.1-21.1Z"/>
          <path d="M406.6,257.2s3.1,5.7,13.5,9.1c0,0-6.5,0-9.8-2-3.3-2-3.7-7.1-3.7-7.1Z"/>
          <path d="M466.9,201.6c-.4,2.8,4.9,6.6,4,13.9,0,0,1.3-8.8-.6-12s-3.4-1.8-3.4-1.8Z"/>
          <path d="M556.4,181.8c-4.9,3.1.1,12.9,2.4,15.8,2.3,2.9,11,8.6,10.2,16.3s-1.5,15.4,0,20.8-4.4,17.1-4.4,17.1c0,0,14.7-14.4,15-18.8.3-4.4.1-12.2,1-17.3.8-5-7.8-9.1-9.7-14.1-1.9-5-6.9-14.8-9.1-16.9-2.2-2-5.4-3-5.4-3Z"/>
          <path d="M537.7,196.6c-1.8.1-2.2,4.2-3.9,5-2.9,1.4-6-4.1-7.2,2.7-.7,3.9,4.5,17.9,4.5,17.9,0,0-2.6-12.5,1-14.9,3.6-2.3,9.4,4.9,9.6,8.9s9.6,10.1,9.2,14.4c0,0,0-7.1-1.7-9.3-1.6-2.1-4.6-2.1-5.9-7.9-1.3-5.7.3-6.3-2.1-10.5-2.4-4.2-3.5-6.3-3.5-6.3Z"/>
          <g>
            <path class="cls-2" d="M539.6,326.8s-9.8,6.3-9.6,13.2,5.3,13,9.6,15c4.3,2,10.8,6.5,17.5,8.6s16.5,5.5,21.4,5.1,16.7,2.9,22.9-2c6.1-4.9,7.6-20.7,6.1-25.5s-5.7-17.1-17.5-19"/>
            <path class="cls-3" d="M597.3,361.7c3.7-4.5,5.9-9.8,4.9-14.3-1-4.5,1.2-9.6-3.7-13.3-4.9-3.7-8.2-.4-16.1,0-8,.4-9.5-2.2-13.4,1.2"/>
            <path class="cls-3" d="M575.7,327.6c-6.9-1.6-13.3,4.5-18,1.8-4.7-2.7-9.2-1.4-9.8,3-.6,4.4,10.4,12.7,18.4,10.5,8-2.2,16-2.6,13.9-8.7"/>
            <path class="cls-3" d="M592,332.6c-5.5,4-8.5,18.5-8.5,18.5"/>
            <path class="cls-3" d="M547.9,345.7c.2,2.7,25.1,25.2,47.2,13.9"/>
          </g>
          <path d="M597,157.6c-.4,8.8,5.8,4.8,7.7,9.9,1.8,5.2,5.7,13.9,15.2,14.3,9.5.4,4.9,23.8,13.3,27.2,8.4,3.4,9,10.5,9.5,16.2.5,5.7,1.1,10.1-9,18.2-10.1,8.2-23.4-6.4-29.9,9.6-6.5,16-23.7,6.7-29.1,19.8-5.4,13.1-16.3,10.1-20.4,17.7-4.1,7.6-19,9-8.8,20.8,10.2,11.8,40.6-2,47,9.8,6.5,11.8,24.4,18,13.8,30.2-10.6,12.2-15.2,0-13.8-5.5,0,0-9.7,8-7,19.2s-22.4,9.4-14.1-14.1c0,0-7.3,2.7-7.3,9.4s-7.8,5.7-11.8,8.8c-4.1,3.1-14.5-10-24.1-1-9.6,9-.2,17.8-3.5,20-3.3,2.2-11.2,15.5-7.3,21.8,3.9,6.3,16.4,7.5,26.1,1.8s19.4,7.8,20.4,12.2c1,4.5-6.3,7.6,10.4,13.1,16.7,5.5,11,20.8,50,13.1,39-7.8,31.8,12.9,50.9,2.1,19-10.7,22.9-8.8,21.5-21.6,0,0,10.6-14.4,5.4-25.8-5.2-11.4.3-18,6.3-19.9,6-1.9,18.8-3,14.1-12.2,0,0-7.6,15-13.9,1.9-6.3-13.1,9-13.9.8-33.2-8.2-19.3,25.8-11.4,26.9-25.8,1.1-14.4-12.5-10.3-8.2-24.8,4.4-14.4-7.1-17.7-14.4-20.1-7.3-2.4,17.4-8.7,6.8-21.8-10.6-13.1-4.6-7.3-10.6-13.1-6-5.7,6.8-9.4-3.8-19-10.6-9.6-11.4-6.6-12.8-10.7-1.4-4.1-4.4-8.3-8.7-8.5s2.7-11.1-11.4-13.8c-14.1-2.7.7,1.3-3.6-2.5-4.4-3.8-9.5-6.3-5.7-12.8,3.8-6.5,5.4-14.1-7.9-16.5s-22-3.1-27.4,2.9c-5.4,6-31.2-4.7-31.6,2.6Z"/>
          <path class="cls-2" d="M517.6,335.3c-7.3,5.8-47.6,6.4-62.8.4"/>
        </g>
        <path d="M504.9,236.5s0,6.4,6.8,10c6.8,3.5,8.7,5.2,8.7,5.2,0,0-15.9,5.8-18,1.4-2.1-4.4-1.7-9.2-1.5-9.9s4-6.7,4-6.7Z"/>
        <path d="M523.1,290.2c-22.4-4.6-26.4-1.1-30.2,7.1,0,0,4.2-4.9,9-5.2,4.8-.3,21.2-1.9,21.2-1.9Z"/>
        <path d="M782.2,737.4c31,4.3,78.4,40.4,29.6,51.8-96.5,22.6-163.2-22-159.1-30.8,8.3-18.1,74.5-28.6,129.5-21Z"/>
        <g>
          <path class="cls-8" d="M723.6,636.6s-16.1.3-31.8,8.2c-15.7,7.9-22.9,8.8-25.2,17.3-2.5,9.4-9.5,12-11.8,15.2-2.3,3.2-4.9,11.1-1.2,15s9.4,6.3,17.4,4.1c8-2.2,18.6-7.5,29-19.8,10.4-12.2,23.6-40.1,23.6-40.1Z"/>
          <path d="M678.8,672.6c11.4-10,23.7-9.7,30.1-8.6-3,4.8-6,9.4-8.9,12.8-10.4,12.2-21,17.6-29,19.8-14.5-3-1.4-15.8,7.9-23.9Z"/>
          <path class="cls-8" d="M762,618.7c10.6,0,12.8,8.5,17.8,14.6,5,6.1,16.1,6.1,25.2,17,9.1,10.9,4.5,16.3,8.8,22s9,8.2,11,15.4c1.9,7.2-1.5,12.6,3.7,18.7,5.2,6.1,8.9,18.4,2.3,23.3-6.6,4.9-13.1,17.6-23.1,21.7-10,4.1-31.1,11.8-37.4,11.8-6.3,0-14.3-3.8-16.6-9.5-2.3-5.8-2.5-8.6-2.5-8.6,0,0-6.3.1-9.5-1.4-3.2-1.5-11.4-7.2-13.5-11.1s-.1-9.6-.1-9.6c0,0-4.9,1.8-10.2-1-5.3-2.8-13.9-12.2-12.9-16.8,1.1-4.5,1.4-11.5,1.4-11.5,0,0-6.4-1.5-7.8-6.7-1.4-5.2-12.7-7.4-10.4-22.8,2.2-15.4,27.7-25,33.3-28.5,5.8-3.7,10.3-9.4,19.7-11.9,9.4-2.5,11.9-4.9,20.9-4.9Z"/>
          <path d="M819.5,697.2s-5.8-3.7-10-2c-4.2,1.7-9.2,11.8-9.2,11.8,0,0,7.1.2,11-3.4,3.9-3.6,8.2-6.4,8.2-6.4Z"/>
          <path d="M706.3,693.6s-6.4-1.5-7.8-6.7c-1.3-4.7-10.5-6.9-10.7-18.6h0c1.4,8.5,8.8,14.6,14.3,15.7,4.8.9,7.9-2.2,13.8-6.7,4.4-3.3,8-5.9,11.6-8.9,11.6-9.8,28.4-10.8,28.4-10.8-11.9,4.1-23.7,17-34.8,24-7.6,4.9-12.7,13.1-15.2,18.7.4-3.5.6-6.7.6-6.7Z"/>
          <path d="M717.8,721.8c-3.7-2-9.1-7.2-11.6-11.7.2.2.4.5.6.7,9.4,12.5,20,10.8,27.7,4.3,7.7-6.5,14.6-8.4,20.5-10.4,5.9-2,18.5-11.5,18.5-11.5-6.2,8-24.9,17.4-29.3,21-4.4,3.6-12.6,7.1-16.2,8.3l-.2.4c-1,.3-5.4,1.4-10-1.1Z"/>
          <path d="M753.6,753.5c-2.3-5.8-2.5-8.6-2.5-8.6,0,0-5.2.1-8.6-1,10.9-.2,29.4-13.1,38.8-17.2,9.4-4.1,11.7-4.5,15.4-8.4,0,0-2.3,8.5-12.1,11.4-9.7,2.9-19.3,8.8-23.1,14-3.8,5.2-9.5,2.7-8,10,0,0,0,0,0,0,0,0,0,0,0,0Z"/>
          <path d="M797.2,674.9c-7.4,5.2-17.1.8-17.1.8,0,0,1.8-1.8,9.7-3.9s5.6-8.3,12.3-11.5c3.1-1.5,9.9,2.4,5.6-6.6,5.6,8.6,2.4,13.5,6.2,18.5,1.3,1.8,2.7,3.2,4.1,4.6-6.1-6-17.6-4.1-20.6-2Z"/>
          <path d="M817.3,736.6c2.4-4.7-2.8-13.4-2.8-13.4,0,0,6.2,6.1,13,3.3,4.9-2,6.7-5.5,5.7-10.9,1.6,5.4,1.5,11.1-2.6,14.1-6.6,4.9-13.1,17.6-23.1,21.7-3.3,1.3-7.8,3.1-12.6,4.8,13.4-5.3,20.6-16.3,22.3-19.6Z"/>
          <path d="M774.6,625.8c1.7,2.4,3.3,5.1,5.2,7.5,2.7,3.3,7.2,4.8,12.3,7.3-.2,0-9.7-2.7-14.6-1.7-5,1-10.2,7-10.2,7,1.7-11.1,8.2-15.4,7.3-20.1Z"/>
        </g>
        <path d="M569,592.3c-6.7,19.7-15.8,41.9-15.8,55.8s-1,19.6-5.9,32.4c-6.9,17.7-9.2,38.1-8.5,41.8,0,0,7.9-31.2,11.8-38.9,3.9-7.7,8.2-30.8,6.5-42.1s12-49.1,12-49.1Z"/>
        <path d="M644.4,555.1s-7.9,25.8-7.1,36.5c.8,10.7-3.6,23.5-3.6,23.5,0,0,.1-12.9.2-18.9s1.9-17.9,4.7-25.5c2.8-7.6,5.8-15.5,5.8-15.5Z"/>
        <path d="M622.9,587.6s-1.4,24.8,1.4,30.2c2.8,5.4,4.1,11.5,4.1,11.5,0,0-5.6-6.3-7.8-13.4-2.2-7.1,2.3-28.3,2.3-28.3Z"/>
        <path d="M717,533.7c-4.5,14.7-16.1,18.6-21.1,26.5-4,6.3-9.8,14.4-5.9,16.2,8.8,4.2,60.8-19.8,65.8-18.1,0,0-41.8,5.3-46.1,4-4.3-1.3,4.8-6.5,5.8-15s1.5-13.5,1.5-13.5Z"/>
        <path d="M237.7,444.2c8.7,8.2,26.5,14.1,26.5,14.1,0,0-.2.9-.6,2.5,0,0,7.8-26.2,10.4-47.1,2.6-20.9,8.9-35.8,8.9-35.8-7.3,13.7-16.8,53.5-31.8,50.6-15-2.9-49-15.4-52.5-33.9s-13.5-10.5-20-3-29.5,7.9-27.5-4.8-16.3-20-10.3-29.7c6-9.7,39.2-51.1,40-76,0,0-31.3,65.3-53.3,70.3-22,5-22.5-1.5-17.1-9-4.5,6.4-7.9,11.4-8.8,12.3-2,2,15.9,17.1,22,18.4,6.1,1.2,9.4,18.7,17.5,26.5,8.2,7.8,17.5-6.9,29,4.1,11.4,11,58.9,32.5,67.6,40.7Z"/>
        <g>
          <g>
            <path d="M496,648.3c-21.8,0-43.9-11.6-44.2-11.7-.4-.2-.6-.7-.5-1.2.1-.4.5-.7,1-.7s0,0,0,0c1.7.1,3.4.2,5.1.2,19.3,0,42.9-7.6,48.9-24.3,4.5-12.4,1-34.4-40.6-69-22.3-18.5-32.7-36-31.1-52.1,1.5-14.6,12.8-27.7,33.7-38.8,13.8-7.3,21-14.7,22.1-22.4,1.5-10.9-9.9-21.9-19-30.8-16.3-15.7-29-41-18.4-59.2,4.3-7.5,7.8-11.2,10.7-11.2s2.9,1.5,3.2,2.5c0,.2,0,.4,0,.6-.1.4-11.1,38,1,53,2.2,2.7,4.7,5.6,7.3,8.6,12.3,14.2,26.3,30.3,19.3,43.7-2.6,5-9,10.5-16.3,16.8-16.2,14-36.3,31.3-26.6,52,4.9,10.6,19,24,33.8,38.2,28.6,27.4,61,58.4,47.3,85-7.1,13.8-19.5,20.8-36.7,20.8Z"/>
            <path class="cls-15" d="M463.8,328c1.7,0,2.3,1.8,2.3,1.8,0,0-11.4,38.3,1.2,53.9,12.5,15.5,34.6,35.6,26.5,51.2-8.1,15.6-57.4,38.9-43,69.8,14.4,30.9,101.6,82.5,81.1,122.4-8,15.5-21.9,20.3-35.8,20.3-21.8,0-43.7-11.6-43.7-11.6,1.7.1,3.4.2,5.2.2,38.7,0,88.7-28.8,9-95.1-47.1-39.2-35.4-69.1,2.5-89.3,37.9-20.2,21-37.7,3.3-54.9-17.7-17.1-27.8-41.4-18.3-58,5-8.6,8-10.7,9.8-10.7M463.8,326h0c-3.3,0-7,3.7-11.6,11.7-10.8,18.7,2.1,44.5,18.6,60.4,9,8.7,20.2,19.5,18.7,29.9-1,7.4-8.1,14.5-21.6,21.7-21.2,11.3-32.7,24.6-34.2,39.6-1.7,16.4,8.9,34.3,31.4,53,41.2,34.2,44.6,55.8,40.3,67.8-5.9,16.3-29,23.7-48,23.7s-3.4,0-5.1-.2c0,0,0,0-.1,0-.9,0-1.7.6-1.9,1.5-.3.9.2,1.9,1,2.3.9.5,22.6,11.8,44.6,11.8s30.3-7.2,37.6-21.4c14.1-27.3-18.6-58.6-47.5-86.2-14.8-14.1-28.7-27.5-33.6-37.9-9.3-20,10.5-37.1,26.4-50.9,7.5-6.4,13.9-12,16.6-17.1,7.3-14-6.9-30.4-19.4-44.8-2.6-3-5.1-5.8-7.2-8.5-11.7-14.6-.9-51.7-.8-52.1.1-.4.1-.8,0-1.2-.4-1.2-1.7-3.1-4.2-3.1h0Z"/>
          </g>
          <g>
            <path d="M426.3,589.1c-.1,0-.2,0-.4,0-2.2-.9-21.7-8.6-22.1-15.5-.4-7-5-12.7-13.6-16.9-6.6-3.2-5.5-8.1-4.7-12,.4-2,.9-4,.3-5.6-.6-1.8-4.3-4.2-7.6-6.3-4.3-2.7-7.9-5-7.8-7.5,0-1.2.9-2.1,2.4-2.9.9-.5,2-.7,3.1-.7,4.8,0,11.3,4.8,14.5,13.9.8,2.5.7,4.9.5,7.2-.3,4.5-.6,8.3,7.1,11.9,6,2.8,7.5,6.7,9.2,10.8,2.5,6.4,5.4,13.6,26.6,19.8.4.1.7.5.7,1s-.3.8-.7,1l-7.2,1.9c0,0-.2,0-.3,0Z"/>
            <path class="cls-15" d="M376.1,522.7c4.7,0,10.7,4.9,13.5,13.2,2.4,7.1-4.1,13.9,8.1,19.7,14.7,6.9.8,20.4,35.9,30.7l-7.2,1.9s-21.1-8.2-21.5-14.7c-.5-8.1-6.1-13.8-14.1-17.7-9-4.4-2.1-11.6-3.8-17-1.7-5.4-21.5-11.5-13.5-15.5.8-.4,1.7-.6,2.6-.6M376.1,520.7c-1.3,0-2.5.3-3.5.8-1.9.9-2.9,2.2-3,3.7-.2,3.1,3.6,5.5,8.3,8.4,2.8,1.8,6.7,4.2,7.2,5.7.4,1.4,0,3.2-.4,5.1-.9,4-2.1,9.5,5.2,13.1,8.2,4,12.6,9.4,13,16,.2,3.5,4,7.1,11.9,11.4,5.4,2.9,10.6,4.9,10.8,5,.2,0,.5.1.7.1s.3,0,.5,0l7.2-1.9c.9-.2,1.5-1,1.5-1.9s-.6-1.7-1.4-1.9c-20.7-6.1-23.5-13.1-25.9-19.2-1.6-4.1-3.3-8.4-9.7-11.3-7-3.3-6.8-6.5-6.5-10.9.2-2.3.3-4.9-.6-7.6-2.9-8.4-9.3-14.5-15.4-14.5h0Z"/>
          </g>
          <g>
            <path d="M433.1,586.1c-.2,0-.4,0-.5-.1-.4-.2-.6-.7-.5-1.1,1.7-7.5.7-12.3-.2-17-1.1-5.4-2.1-10.5,1.1-18.8,3-7.7-1.9-15.2-5.8-21.2-2.6-4.1-4.7-7.3-4-9.9.3-1.1,1.1-2,2.5-2.6.7-.3,1.5-.5,2.1-.5,3.5,0,4.7,4.4,5.8,8.6.5,1.7,1,3.5,1.6,4.9.6,1.3,1.4,2.5,2.2,3.7,2.2,3.3,4.5,6.7,3.1,13.4-.8,3.5-2,6-3.1,8-1.6,3.1-2.5,4.9-.6,7.7,3.5,5.6,5.9,15.8,5.9,16.3,0,.4,0,.7-.3,1l-8.7,7.4c-.2.2-.4.2-.6.2Z"/>
            <path class="cls-15" d="M427.8,515.9c4,0,4.4,8.3,6.5,12.8,2.3,5.1,7.1,7.8,5.2,16.5-1.9,8.7-7,11-3.5,16.5,3.5,5.5,5.8,16,5.8,16l-8.7,7.4c3.8-16.3-5.1-20.5.8-35.6,5.9-15.1-16.5-29.1-7.8-33.2.6-.3,1.2-.4,1.7-.4M427.8,513.9h0c-.8,0-1.7.2-2.5.6-1.6.7-2.6,1.8-3,3.2-.9,3,1.3,6.4,4.1,10.7,3.8,5.8,8.5,13.1,5.7,20.3-3.3,8.5-2.2,14-1.1,19.3.9,4.6,1.9,9.3.2,16.5-.2.8.2,1.7.9,2.2.3.2.7.3,1,.3s.9-.2,1.3-.5l8.7-7.4c.6-.5.8-1.2.7-2,0-.4-2.4-10.9-6.1-16.6-1.5-2.3-1-3.4.7-6.8,1-2.1,2.3-4.7,3.1-8.3,1.6-7.1-1-10.9-3.2-14.2-.8-1.2-1.6-2.3-2.1-3.6-.6-1.3-1.1-3-1.5-4.7-1.2-4.4-2.5-9.3-6.8-9.3h0Z"/>
          </g>
          <g>
            <path d="M417.1,757.6c-1.3,0-2.3-.5-2.8-1.5-2-3.6,2-12,5.8-18.5,8.6-14.7,10.4-32.2,5-49.2-6.4-20.5-22.7-38-44.7-48.1-6.8-3.1-12.9-5.7-18.4-8-30-12.6-42.5-17.8-50.4-67-8.1-50.1-13.5-53-52.4-53s-7.8,0-12.3,0c-3.1,0-6.3,0-9.8,0h-.8c-33.8,0-37.3-12.4-41.1-25.6-2.4-8.4-4.9-17.1-15.6-23.6-13.2-8-17-19.6-15-27,1.5-5.3,5.7-8.4,11.4-8.4s9.3,1.8,14.6,5.3c7.9,5.2,10.6,15.2,13.4,25.8,4.2,15.8,8.6,32.2,30.5,36.4,10.8,2.1,20.4,2.7,28.9,3.2,24.7,1.5,41.1,2.5,51.7,40.1,9.8,34.5,32.2,50.9,56,68.1,10.1,7.3,20.5,14.9,30.3,24.1,32.8,30.7,39.9,72.6,36,99.2-2.2,14.7-14.3,27.6-20.5,27.6Z"/>
            <path class="cls-15" d="M176.3,428.8c3.8,0,8.6,1.5,14,5.1,19,12.5,6.8,55.1,44.2,62.4,42.7,8.3,65.8-6.9,79.8,42.6,14,49.5,53.4,61.6,86.6,92.7s39.3,73.5,35.7,98.4c-2.2,14.9-14.3,26.7-19.5,26.7s-3.9-5.3,3.9-18.6c19.3-33,3.8-78.6-40.1-98.8-43.9-20.2-58.9-16.7-68.2-74.2-8-49.6-13.3-53.8-53.3-53.8s-13.7.1-22,.2c-.3,0-.5,0-.8,0-54.5,0-28.2-32.1-56.1-49.1-20.2-12.3-18.5-33.5-4.1-33.5M176.3,426.8c-6.1,0-10.8,3.4-12.4,9.1-2.2,7.7,1.7,19.8,15.4,28.1,10.3,6.3,12.8,14.8,15.1,23,1.9,6.6,3.8,13.3,9.7,18.3,6.5,5.5,16.8,8,32.3,8h.8c3.4,0,6.7,0,9.8,0,4.4,0,8.5,0,12.2,0,20,0,30.6,1.2,37.3,7.7,6.9,6.9,10.2,20.4,14.1,44.4,8,49.7,20.6,55,51,67.7,5.4,2.3,11.6,4.9,18.3,8,21.7,10,37.8,27.3,44.1,47.5,5.3,16.8,3.5,34-4.9,48.4-5.8,9.9-7.7,16.3-5.8,19.5.8,1.3,2.1,2,3.7,2,6.7,0,19.2-13,21.5-28.4,2.1-14.5.7-31.8-4.1-47.7-6-20.2-17.1-38.3-32.2-52.4-9.9-9.2-20.3-16.8-30.4-24.2-23.6-17.2-45.9-33.4-55.6-67.6-10.8-38.2-27.5-39.3-52.6-40.8-8.4-.5-18-1.1-28.8-3.2-21.3-4.1-25.5-20.2-29.7-35.7-2.9-10.8-5.6-20.9-13.8-26.4-5.5-3.6-10.6-5.4-15.1-5.4h0Z"/>
          </g>
          <g>
            <path d="M449.9,477.6c-.2,0-.3,0-.5-.1l-8-4.6c-.3-.2-.5-.5-.5-.9,0-.4.3-8.9,2.3-13.9,1-2.5.1-3.6-1.6-5.9-1.1-1.5-2.5-3.3-3.7-6-2.2-5.2-.9-8.3.4-11.3.5-1.1.9-2.1,1.2-3.3.3-1.2.4-2.6.5-4.1.3-3.7.7-7.9,4.2-7.9s.8,0,1.2.2c1.2.3,2,.9,2.5,1.8,1,2-.2,4.9-1.7,8.6-2.2,5.4-4.9,12-1.5,17.6,3.8,6.1,3.8,10.4,3.7,14.9,0,3.8-.1,7.8,2.3,13.5.2.4,0,.9-.2,1.1-.2.2-.4.3-.7.3Z"/>
            <path class="cls-15" d="M444.2,420.7c.3,0,.6,0,.9.1,7.5,1.9-8.2,16.5-1.3,27.6,7,11.1.5,15.8,6,28.2l-8-4.6s.3-8.7,2.3-13.6c2-4.9-2.5-6-5.3-12.6-2.8-6.7.6-9.5,1.7-13.9,1-4.1,0-11.2,3.7-11.2M444.2,418.7c-4.4,0-4.9,5.1-5.2,8.8-.1,1.4-.2,2.8-.5,3.9-.3,1.1-.7,2.1-1.2,3.1-1.3,3-2.8,6.5-.5,12.1,1.2,2.8,2.6,4.7,3.8,6.2,1.8,2.4,2.2,3,1.5,4.9-2.1,5.2-2.4,13.9-2.4,14.3,0,.7.4,1.4,1,1.8l8,4.6c.3.2.7.3,1,.3s1-.2,1.3-.5c.6-.6.8-1.5.5-2.3-2.4-5.5-2.3-9.3-2.3-13.1,0-4.5.1-9.1-3.8-15.5-3.2-5.1-.6-11.5,1.5-16.7,1.6-3.9,2.9-7,1.7-9.5-.6-1.2-1.6-1.9-3.1-2.3-.5-.1-1-.2-1.4-.2h0Z"/>
          </g>
          <g>
            <path d="M474.6,759c-.6,0-1.1-.2-1.5-.7-.5-.6-.7-1.4-.6-2.2.7-5.1,5.7-49.5-21.9-69.7-19.4-14.2-14.5-32.7-9.8-50.6,2.5-9.5,5.1-19.2,3.9-28.1-2.2-16.1-16.5-25.2-29.1-33.3-7.2-4.6-14-8.9-18-14.1-8.1-10.5-8.1-16,10.6-46.7,12.6-20.6,11.9-68.8,4.7-105.8-1.5-7.8-7.3-14.1-12.5-19.6-5.3-5.7-9.9-10.6-8-15.7,1-2.7,2.5-4,4.3-4,10.9,0,28.7,53.9,29.5,56.2,7.8,23.6,3.3,54.6-13.2,92.1-.7,1.5-1.4,3-2.3,4.6-3.6,7.1-7.8,15.1-4.8,27.8,2.4,10.4,6.1,13.3,14.2,19.6,4,3.1,9,7,15.3,12.9,17.8,16.6,13.5,37.5,10.9,50-.3,1.4-.6,2.8-.8,4-.2,1.2-.5,2.4-.7,3.5-2.2,10.5-4.2,20.4,14.4,44.4,19.4,24.9,19,48.9,18.8,61.8,0,1.2,0,2.3,0,3.3,0,8.4-1.9,10.1-3.5,10.1h0Z"/>
            <path class="cls-15" d="M396.8,369.7c7.4,0,20.7,31.6,28.5,55.5,9.3,28.3-.8,63.2-13.2,91.4-3.6,8.1-10.8,17.1-7.1,33.1,3.7,16,10.5,14.9,29.8,33,19.3,18.1,12,40.9,9.8,53.2-2.2,12.3-7,21.8,13.9,48.8s18.5,52.7,18.5,64.4c0,7.1-1.4,9.1-2.5,9.1s-1.2-.9-1.1-1.8c.3-2.3,6.8-49.4-22.3-70.6-29.1-21.2-2.1-52.3-5.5-78-3.4-25.7-36.3-33.7-47.3-47.8-7.6-9.8-8-15,10.7-45.5,13.6-22.2,11.4-72.9,4.9-106.5-3.1-16.2-24-25.7-20.5-34.7.9-2.3,2-3.4,3.4-3.4M396.8,367.7c-1.6,0-3.8.8-5.3,4.7-2.2,5.7,2.6,10.8,8.2,16.8,5.1,5.4,10.8,11.5,12.2,19.1,7.1,36.8,7.8,84.7-4.6,105.1-18.9,31-18.9,37.1-10.6,47.8,4.1,5.3,11,9.7,18.2,14.3,12.5,7.9,26.6,16.9,28.7,32.6,1.2,8.7-1.4,18.3-3.8,27.7-4.8,18.2-9.8,37.1,10.2,51.6,27.1,19.8,22.2,63.7,21.5,68.7h0c-.1,1.2.2,2.3.9,3.1.6.7,1.4,1,2.2,1,3,0,4.5-3.8,4.5-11.1,0-1,0-2.1,0-3.3.2-13,.6-37.2-19-62.4-18.4-23.6-16.4-33.3-14.2-43.6.2-1.1.5-2.3.7-3.5.2-1.2.5-2.6.8-4,2.6-12.7,7-33.9-11.2-51-6.4-6-11.4-9.8-15.4-12.9-8.1-6.3-11.5-8.9-13.9-19-2.9-12.3,1.2-20.2,4.7-27.1.8-1.6,1.6-3.1,2.3-4.7,16.6-37.7,21.1-69,13.2-92.8-4.4-13.5-9.7-26.9-14.5-37-8.6-17.8-13.2-19.9-15.9-19.9h0Z"/>
          </g>
          <g>
            <path d="M452.5,574c-.4,0-.8-.3-.9-.7-.1-.4,0-.9.3-1.1,6.9-5.3,9.6-10.3,12.1-15.1,2.9-5.5,5.7-10.8,14.5-15.7,8.2-4.6,7.5-14.5,6.9-23.2-.5-7.6-1-14.8,5.3-16,.6-.1,1.1-.2,1.6-.2,1.8,0,3.2.6,4.1,1.9,3.3,4.3.5,14.5-.9,20l-.2.6c-.4,1.6-.6,3.2-.7,4.9-.4,4.5-.8,9.1-6.9,13.9-3.2,2.5-6.1,3.8-8.5,4.8-3.7,1.6-5.7,2.5-6.2,6.5-.9,7.4-6.3,18.1-6.5,18.6-.2.3-.5.5-.9.5l-13,.2Z"/>
            <path class="cls-15" d="M492.3,503c8,0,3.6,15.4,2.1,21.3-1.6,6.2.7,12-7.3,18.3-8,6.3-14.2,4.6-15.1,12-.9,7.3-6.4,18.3-6.4,18.3l-13,.2c15.1-11.7,10.4-21.7,26.5-30.7s0-36.9,11.8-39.2c.5,0,1-.1,1.4-.1M492.3,501h0c-.6,0-1.2,0-1.8.2-7.2,1.4-6.6,9.4-6.1,17.1.6,8.5,1.3,18-6.4,22.3-9,5.1-12,10.7-14.9,16.1-2.5,4.7-5.1,9.6-11.8,14.8-.7.5-1,1.4-.7,2.2.3.8,1,1.3,1.9,1.3s0,0,0,0l13-.2c.7,0,1.4-.4,1.7-1.1.2-.5,5.7-11.3,6.6-18.9.4-3.4,2-4.1,5.6-5.7,2.4-1.1,5.4-2.4,8.7-5,6.4-5.1,6.9-10.1,7.3-14.6.1-1.6.3-3.2.7-4.7l.2-.6c2.3-8.4,3.9-16.8.8-20.9-1.2-1.5-2.9-2.3-4.9-2.3h0Z"/>
          </g>
          <g>
            <path d="M490.7,596.6l-11.4-1.3c-.4,0-.8-.4-.9-.8,0-.4.1-.9.5-1.1,6.6-3.8,9.5-7.8,12.3-11.7,3.2-4.5,6.2-8.7,14.5-12,7.6-3,8.1-11.7,8.6-19.3.4-6.8.8-13.1,6.6-13.5.2,0,.3,0,.5,0,1.9,0,3.4.7,4.3,2,2.7,4-1,12.9-3,17.7l-.2.5c-.6,1.4-.9,2.7-1.2,4.2-.9,3.9-1.8,7.9-7.7,11.4-3.1,1.8-5.8,2.6-8,3.2-3.4,1-5.2,1.5-6.1,4.8-1.7,6.4-7.6,15.1-7.9,15.4-.2.3-.5.4-.8.4s0,0-.1,0Z"/>
            <path class="cls-15" d="M521.4,538c8.2,0,2.3,13.7.1,18.8-2.2,5.2-.8,10.5-8.5,15.1-7.7,4.5-12.9,2.4-14.5,8.7-1.6,6.3-7.7,15.1-7.7,15.1l-11.4-1.3c14.5-8.4,11.6-17.7,26.6-23.7,15.1-6,4.3-32.1,14.9-32.7.1,0,.3,0,.4,0M521.4,536h0c-.2,0-.4,0-.5,0-6.6.4-7.1,7.5-7.5,14.4-.5,7.7-1,15.7-8,18.4-8.5,3.4-11.8,7.9-14.9,12.4-2.7,3.8-5.5,7.7-11.9,11.4-.7.4-1.1,1.3-1,2.1.2.8.9,1.5,1.7,1.6l11.4,1.3c0,0,.2,0,.2,0,.7,0,1.3-.3,1.6-.9.3-.4,6.3-9.2,8-15.8.7-2.6,1.8-3.1,5.4-4.1,2.2-.6,5-1.5,8.2-3.3,6.3-3.7,7.3-8.1,8.2-12,.3-1.4.6-2.7,1.1-4l.2-.5c2.9-6.9,5.7-14.5,2.9-18.6-.7-1.1-2.2-2.4-5.1-2.4h0Z"/>
          </g>
          <g>
            <path d="M452.8,555.1c-.3,0-.6-.2-.8-.4-.3-.4-.8-.9.8-11.2,0,0,0-.2,0-.3,3.2-6.8,3.9-13.6,4.5-20.1.8-7.9,1.5-15.4,6.4-22.8,4.5-6.8,1.2-15.2-1.8-22.7-2.7-6.8-5.2-13.2-.7-16.7,1.2-.9,2.4-1.4,3.5-1.4,5.6,0,7.9,10.8,9.2,16.5v.5c.4,1.4,1,2.7,1.5,4.1,1.5,3.7,3,7.5.2,13.7-1.3,2.9-3,5-4.5,7.1-2.8,3.7-5.2,6.8-5.5,14.1-.4,11.9-3.9,19.4-7,26.1-1.5,3.2-2.9,6.2-3.8,9.4-.9,3.1-1.3,3.9-2.2,3.9Z"/>
            <path class="cls-15" d="M464.9,460.6c5,0,7.3,11.6,8.3,16.3,1.2,5.5,5.3,9.1,1.6,17.2-3.7,8.1-9.6,9.9-10.1,21.6-.6,17.3-7.8,25.2-10.8,35.3-.7,2.3-1,3.2-1.2,3.2-.6,0,1-10.4,1-10.4,7.1-15.2,1.9-29.3,10.8-42.8,9-13.5-11-32.6-2.7-39.1,1-.8,2-1.2,2.9-1.2M464.9,458.6h0c-1.4,0-2.7.5-4.1,1.6-5.1,4-2.4,10.7.4,17.8,2.8,7.2,6.1,15.5,1.9,21.8-5.1,7.7-5.9,15.6-6.6,23.3-.6,6.4-1.3,13.1-4.4,19.8,0,.2-.1.4-.2.5-1.7,10.7-1.2,11.3-.6,12,.4.5,1,.7,1.6.7,1.8,0,2.3-1.7,3.1-4.6.9-3.2,2.3-6.1,3.8-9.3,3.1-6.7,6.7-14.4,7.1-26.5.2-7,2.6-10,5.3-13.5,1.5-2,3.2-4.2,4.6-7.3,3-6.6,1.3-10.8-.1-14.5-.5-1.3-1-2.6-1.3-3.9v-.5c-1.4-6.1-3.9-17.3-10.3-17.3h0Z"/>
          </g>
          <g>
            <path d="M424.5,768.7c-2.7,0-3.8-1.2-4.3-2.3-2.1-4.7,4.8-15.8,20.4-33,23.7-26,51.8-36.1,72.4-43.5,15-5.4,26.9-9.6,30.6-17.7,2-4.3,1.6-9.8-1.1-16.7-16.1-40.8-1.8-59.2,18-84.5l1.5-2c11.4-14.6,8.5-19.8,4.3-27.8-3.3-6.1-7.4-13.8-6.5-27.8,1-17.1,11-19.7,19.8-21.9,8.5-2.2,15.9-4,15.6-17.8,0,0,0-.1,0-.2.4-1.8,9.3-44.9,30.6-44.9s3.4.3,5.1.8c4.4,1.4,7.1,3.4,8,6.3,1.9,5.8-3.9,13.7-10,21.9-6.3,8.5-12.8,17.3-12.1,24.7,1,10.5-9,17.9-18.6,25-8.2,6.1-16,11.9-16.7,19-.4,4-.3,7.6-.3,11,.2,10.4.4,19.4-13.1,33.5-18,18.8-26.5,58.8-21.5,79.5l.3,1c5.1,21.1,7.2,29.8-22,42-25.5,10.6-56.5,29.6-66.9,51.2-5.5,11.4-24.7,24.2-33.4,24.2h0Z"/>
            <path class="cls-15" d="M625.8,429.6c1.5,0,3.1.2,4.8.8,24.1,7.5-16.6,33.5-14.8,52.1,1.8,18.5-33.7,27.5-35.4,43.9-1.7,16.3,4.5,25.6-13.1,44-17.6,18.4-27.1,58.5-21.7,80.4,5.3,21.9,7.8,29.8-21.1,41.8-28.9,12-57.5,31.1-67.5,51.7-5.4,11.2-24.5,23.6-32.5,23.6s-5.8-8.6,16.9-33.6c50-55,118.3-37.6,102-78.9-16.3-41.4-1.1-59.2,19.4-85.5,20.5-26.3-3.9-23.9-2-56.2,1.9-32.3,36.1-10.2,35.4-39.9,0,0,8.9-44.1,29.6-44.1M625.8,427.6c-22.1,0-31.2,43.8-31.6,45.7,0,.1,0,.3,0,.4.3,13-6.4,14.7-14.8,16.9-8.7,2.2-19.5,5-20.6,22.8-.8,14.3,3.3,22.1,6.6,28.4,4.2,7.9,6.8,12.7-4.2,26.7l-1.5,2c-20,25.6-34.4,44.1-18.1,85.5,2.6,6.7,3,11.9,1.2,15.9-3.5,7.7-15.2,11.9-30,17.2-20.6,7.4-48.9,17.5-72.8,43.7-8.1,8.9-13.9,16.3-17.4,22-3.4,5.6-4.4,9.4-3.2,12.1.5,1.1,1.8,2.9,5.2,2.9,9,0,28.7-13,34.3-24.7,10.3-21.3,41.1-40.1,66.4-50.7,14.6-6.1,21.7-11.3,24.4-18,2.7-6.7.8-14.4-1.8-25.1l-.3-1c-4.9-20.4,3.4-60,21.2-78.5,13.8-14.4,13.6-23.6,13.4-34.2,0-3.4-.1-7,.3-10.9.7-6.7,8.3-12.4,16.3-18.3,9.9-7.3,20.1-14.9,19-25.9-.7-7,6-16,11.9-24,6.3-8.5,12.2-16.5,10.2-22.8-1-3.2-3.9-5.5-8.7-6.9-1.8-.6-3.6-.8-5.4-.8h0Z"/>
          </g>
          <g>
            <path d="M443.2,775.8c-4,0-8-5.7-12.4-17.5-10-27.1,13.1-58.3,38.8-75.8,18.6-12.7,32.8-23.5,33.3-37.7.3-10.9-7.8-22.7-25-36-26.2-20.3-37.9-38-36.7-55.4,1.3-19.5,19.1-38.8,54.2-59,38.7-22.3,59.5-43.8,61.7-63.9,2.3-20.9-14.9-36.7-28.7-49.3-8.6-7.8-15.3-14-14.8-19.5.7-7.5,7.9-12.3,18.5-12.3,20,0,45.4,16.4,56.9,52.9,12.2,38.6-31.6,65.8-70.2,89.8-21.8,13.6-42.4,26.4-51.9,40-18.1,26.1,5.3,54.6,24,77.5,8.5,10.4,15.9,19.3,18.2,26.6,6.3,19.7-16.3,38.2-36.4,54.5-4.3,3.5-8.3,6.8-11.9,10-20,17.7-13.9,71.6-13.9,72.2,0,.2,0,.4-.1.6,0,0-1.4,2.4-3.9,2.4h0Z"/>
            <path class="cls-15" d="M532.2,350.2c17.7,0,43.9,14.2,55.9,52.2,18.6,59-95.1,90.4-121.9,129-26.8,38.6,34.7,81.9,42.1,105,7.4,23.1-27.3,45.2-48,63.5-20.7,18.2-14.2,73-14.2,73,0,0-1,1.9-3,1.9s-6.3-3.1-11.4-16.8c-9.1-24.7,10.4-55.5,38.4-74.6,28.1-19.1,55.1-39.1,8.3-75.4-46.8-36.3-55.9-70.6,17.4-112.8,129.6-74.7,16.9-113.7,18.7-133.5.6-7,7.8-11.4,17.5-11.4M532.2,348.2c-11.2,0-18.8,5.2-19.5,13.2-.5,5.9,6.4,12.3,15.1,20.3,13.6,12.5,30.6,28.1,28.4,48.5-2.2,19.8-22.8,41-61.2,63.2-35.5,20.4-53.4,40-54.7,59.8-1.2,17.8,10.5,35.7,37.1,56.3,16.9,13.1,24.9,24.6,24.6,35.2-.5,14.9-18.4,27.1-32.8,37-14.5,9.9-26.5,22.6-33.8,35.9-8,14.6-9.9,28.8-5.4,41.1,4.6,12.4,8.8,18.2,13.3,18.2s4.2-1.9,4.7-3c.2-.4.3-.8.2-1.2,0-.5-6.1-54,13.5-71.3,3.6-3.2,7.6-6.5,11.9-9.9,20.3-16.6,43.2-35.3,36.7-55.6-2.4-7.5-9.8-16.5-18.4-26.9-18.6-22.6-41.7-50.8-24-76.3,9.4-13.5,29.9-26.3,51.6-39.8,19.8-12.3,40.2-25,54.4-39.6,16.5-16.9,21.8-33.7,16.2-51.4-5.5-17.5-14.7-31.8-26.5-41.3-9.7-7.8-21.1-12.3-31.3-12.3h0Z"/>
          </g>
          <g>
            <path d="M471.3,582.8c-.3,0-.5-.1-.7-.3-.3-.3-.4-.8-.2-1.2,2.9-5.4,3.2-9.4,3.4-13.2.3-4.5.6-8.7,4.9-14.6,3.9-5.3,1.8-12.1,0-17.7-1.2-3.8-2.2-6.8-1-8.8.5-.9,1.4-1.4,2.6-1.6.3,0,.6,0,.9,0,1.2,0,2.8.5,3.5,3,.4,1.5.4,3.4.4,5.2,0,1.4,0,2.9.2,4.1.2,1.2.6,2.2.9,3.4,1.1,3.1,2.1,6.3-.5,11.3-1.4,2.6-2.9,4.3-4.1,5.7-1.9,2.1-2.9,3.2-2.1,5.7,1.6,5.1,1.2,13.7,1.2,14.1,0,.4-.2.7-.6.9l-8.4,3.9c-.1,0-.3,0-.4,0Z"/>
            <path class="cls-15" d="M481.3,526.4c4,0,2.4,7.2,3.1,11.5.7,4.5,3.9,7.6.6,14-3.4,6.4-7.9,7.1-6.3,12.2s1.1,13.7,1.1,13.7l-8.4,3.9c6.4-12,.4-17.1,8.3-27.7,7.8-10.5-6.7-26.3,1-27.6.2,0,.5,0,.7,0M481.3,524.4h0c-.3,0-.7,0-1,0-1.5.3-2.6,1-3.3,2.1-1.4,2.3-.4,5.5.9,9.6,1.7,5.3,3.8,11.9.1,16.8-4.5,6-4.8,10.6-5.1,15.1-.2,3.7-.5,7.6-3.3,12.8-.4.8-.3,1.7.3,2.3.4.4.9.6,1.5.6s.6,0,.8-.2l8.4-3.9c.7-.3,1.1-1,1.1-1.7,0-.4.4-9.1-1.2-14.4-.6-1.9,0-2.6,1.9-4.8,1.3-1.4,2.9-3.2,4.3-5.9,2.8-5.4,1.6-8.9.5-12.1-.4-1.1-.7-2.1-.9-3.2-.2-1.1-.2-2.5-.2-3.9,0-1.9,0-3.9-.4-5.5-.9-3.3-3.1-3.8-4.4-3.8h0Z"/>
          </g>
          <g>
            <path d="M420.7,780.9c-1.5,0-1.6-1.7-2.2-7.3-.8-7.4-2.1-19.7-7.1-28.9h0c-4.5-8.4-12.8-23.7,22.1-58.4,35.2-35.1,40.1-44.6,17.7-75-23.6-32-22.4-42.4,9.2-79.5,20.8-24.5,18.7-27.3,7.1-42.8-5.6-7.5-13.2-17.7-21.5-34.3-18.5-37.4,8.2-54.2,29.8-67.7,8.4-5.3,16.4-10.3,19.8-15.7,11.8-18.5,13.3-25.5,2.7-57.2-.1-.3,0-.6.1-.9.2-.3,5.7-7.8,12.2-7.8s5.8,1.6,8.1,4.9c8.5,11.9-2.6,35-15.9,59.5-6.1,11.3-13.9,16.7-21.4,21.8-8.4,5.8-17.1,11.7-23.7,26.3-10.6,23.2.8,41.6,11.9,59.4,2,3.2,4,6.5,5.9,9.7,10.6,18.3,7.4,22.7-5.8,41.3-2.8,4-6.1,8.5-9.8,14-20.8,31-14.7,50.9,3.6,76.8,17.9,25.1-6.8,51.5-23.2,68.9-1.2,1.2-2.3,2.4-3.3,3.6-14.9,16-13.3,34.2-11.7,51.8.9,10.1,1.7,19.6-.6,28.4-2.2,8.4-2.8,9.2-3.9,9.2h0Z"/>
            <path class="cls-15" d="M510.5,306.4c2.4,0,4.9,1.2,7.3,4.4,8.2,11.5-3.2,34.8-15.9,58.5-12.7,23.7-32.4,20.3-45.1,48.1-12.7,27.8,5.4,48.5,17.8,70.1,12.4,21.6,5.4,23.1-15.5,54.3-20.9,31.2-14.9,51.7,3.7,77.9,18.6,26.2-10.1,53.6-26.4,71.2-23.7,25.6-6.4,56.8-12.5,80.6-1.6,6-2.4,8.4-3,8.4-1.7,0-.8-21.5-8.4-35.6-4.3-8-12.6-22.9,21.8-57.2,34.4-34.4,41.1-44.8,17.8-76.3-23.2-31.5-22.2-41.3,9.1-78.2,31.4-36.9,11.3-26.6-14.3-78.2-25.6-51.7,37.4-63.3,49.5-82.4,12.1-19.1,13.4-26.4,2.8-58.1,0,0,5.3-7.4,11.4-7.4M510.5,304.4c-7,0-12.7,7.9-13,8.2-.4.5-.5,1.2-.3,1.8,10.5,31.5,9.1,37.9-2.6,56.4-3.3,5.2-11.2,10.1-19.5,15.4-10.7,6.7-22.8,14.3-30,25.1-8.5,12.6-8.5,27,0,44,8.3,16.7,16,27,21.6,34.5,5.8,7.7,9,12,8.5,17.2-.5,5.1-4.7,11.7-15.5,24.4-15.5,18.2-24.1,30.3-25.5,42.2-1.4,11.9,4.7,22.7,16.3,38.5,11.8,16,15.2,25.6,12.4,35.4-2.8,9.9-11.9,20.3-30,38.4-35.3,35.2-26.8,51-22.2,59.5h0c4.8,9.1,6.2,21.3,6.9,28.6.2,2,.4,3.6.6,4.8.2,1.1.6,3.4,2.7,3.4s2.8-1.9,4.9-9.9c2.3-8.9,1.5-18.5.6-28.7-1.5-17.4-3.1-35.3,11.5-51.1,1.1-1.1,2.2-2.3,3.3-3.6,16.6-17.7,41.6-44.3,23.3-70.1-18.1-25.5-24.1-45.1-3.6-75.6,3.7-5.5,6.9-10,9.7-14,13.2-18.5,16.7-23.5,5.8-42.4-1.9-3.3-3.9-6.6-5.9-9.8-11.4-18.4-22.2-35.8-11.8-58.5,6.5-14.3,14.7-19.9,23.4-25.9,7.6-5.2,15.5-10.6,21.7-22.2,13.4-24.9,24.6-48.2,15.8-60.6-2.5-3.5-5.5-5.3-8.9-5.3h0Z"/>
          </g>
          <g>
            <path d="M397.7,757.7c-1.1,0-2-.4-2.6-1.3-1.9-2.4-1.6-8.3.9-18,4.2-16.4,23.4-27.9,45.5-41.2,17-10.2,36.3-21.8,51.6-37.4,17.1-17.5,19.5-27.2,22-37.5,2.6-10.8,5.3-22,24.7-42.4,19.9-20.9,37.1-24.6,55.4-28.5,17.3-3.7,35.3-7.6,58.5-25.5,43.9-33.9,33.3-63.5,24-89.6-.9-2.5-1.7-4.8-2.5-7.1-3.2-9.6-5.9-27.1-2.8-45,2.4-13.9,9.1-32.2,27.5-40.5,4-1.8,7.3-2.7,10-2.7s5.5,1.2,6.9,3.6c6.5,11.4-10.4,45.5-16.8,56.5-5.4,9.3-4.3,14-2.2,23.2,2.3,9.5,5.7,24,3.9,53-3.7,59-85.6,80.9-107.3,83.6-23.5,2.9-55.6,23.2-68.8,55.1-.7,1.8-1.4,3.5-2.1,5.2-11.8,28.9-18.3,44.8-52.1,65.2-35.9,21.7-49.1,42.4-57.8,56.1-4.4,7-11.2,15.1-15.8,15.1h0Z"/>
            <path class="cls-15" d="M709.9,342.1c17.6,0-.8,41.4-10.8,58.7-11.5,19.7,5.2,19.7,1.6,76.6-3.6,57-82.6,79.7-106.4,82.7-23.8,2.9-56.3,23.3-69.6,55.7-13.3,32.4-18.4,48.5-53.9,70-35.5,21.5-48.8,41.7-58.2,56.4-5,7.9-11.4,14.6-14.9,14.6s-4.1-4.9-.7-18c7.3-28.5,61.7-42.3,96.9-78.2,35.2-35.9,8.8-40.1,46.7-79.9,37.8-39.8,65.2-16.3,113.7-53.9,48.6-37.6,31-70.6,21.8-97.9-7.1-21-8.3-69.6,24.2-84.2,4-1.8,7.1-2.6,9.6-2.6M709.9,340.1c-2.9,0-6.3.9-10.4,2.8-18.8,8.5-25.6,27.1-28.1,41.2-3.1,18.1-.4,35.8,2.8,45.5.8,2.3,1.6,4.7,2.5,7.2,9.2,25.8,19.6,55-23.7,88.5-23,17.8-40.8,21.6-58.1,25.3-18.4,4-35.9,7.7-55.9,28.8-19.6,20.6-22.3,31.9-24.9,42.8-2.5,10.2-4.8,19.8-21.7,37.1-15.3,15.6-34.5,27.1-51.4,37.3-22.4,13.4-41.7,25-46,41.8-3.4,13.3-2.1,17.1-.7,18.8.8,1.1,2,1.7,3.4,1.7,6.4,0,15-12.9,16.6-15.5,8.7-13.6,21.8-34.2,57.5-55.8,34.1-20.6,40.7-36.6,52.6-65.7.7-1.7,1.4-3.4,2.1-5.2,13-31.6,44.7-51.6,68-54.5,10.6-1.3,37.1-7.4,61.5-21.3,13.1-7.5,23.7-16.1,31.4-25.5,9.3-11.4,14.4-24.1,15.2-37.7,1.8-29.2-1.6-43.7-3.9-53.3-2.2-9.2-3.2-13.4,2-22.4,6.5-11.2,23.6-45.8,16.8-57.5-1.1-1.9-3.3-4.1-7.7-4.1h0Z"/>
          </g>
          <g>
            <path d="M556.7,566.4c0,0-.2,0-.3,0-.5-.2-.8-.7-.7-1.2,0,0,0,0,0,0,.1-.5,3.7-11.8,14.3-17.9,23-13.3,21.7-18.5,16.9-37.8-.3-1.3-.7-2.6-1-4-2.6-10.8-.7-15.4.7-17.1.9-1.2,2.1-1.8,3.4-1.8s2.7.7,3.9,2c2.5,2.7,3.6,7.4,3,12.9-.6,6.2.3,10.2,1.2,14.4.5,2.4,1.1,4.8,1.3,7.6.8,8.8-5.8,20.1-22.2,25.7-16,5.5-19.4,16.1-19.5,16.6h0c-.1.4-.5.7-1,.7Z"/>
            <path class="cls-15" d="M590,487.4c3.2,0,6.8,5.1,5.9,13.8-1,10,1.9,14.6,2.5,22.2.7,7.7-4.7,18.9-21.5,24.7-16.5,5.6-20,16.8-20.1,17.3.1-.5,3.5-11.4,13.8-17.4,25.2-14.5,22-20.1,16.4-42.9-3-12.3-.2-17.7,3.1-17.7M556.7,565.4s0,0,0,0c0,0,0,0,0,0M556.7,565.4h0M590,485.4h0c-1.6,0-3.1.8-4.2,2.2-2.6,3.3-2.9,9.7-.8,18,.3,1.4.7,2.7,1,4,4.8,19.2,6,23.8-16.4,36.7-11,6.3-14.6,18-14.7,18.5,0,0,0,0,0,0,0,0,0,0,0,0-.3,1.1.3,2.2,1.4,2.5.2,0,.4,0,.5,0,.9,0,1.7-.6,1.9-1.4.1-.4,3.4-10.7,18.9-16,16.9-5.8,23.7-17.6,22.9-26.8-.3-2.9-.8-5.4-1.4-7.8-.9-4.1-1.8-8-1.2-14.1.6-5.8-.6-10.7-3.3-13.7-1.3-1.5-3-2.3-4.6-2.3h0Z"/>
          </g>
          <g>
            <path d="M464.5,756.1c-1.1,0-11.2-.1-11.7-3.9-.2-1.7,1-4.1,13.1-7.5l2.6-.7c28.5-7.9,76.3-21.2,97.8-50.6,14.6-19.9,19-21.9,28.8-26.4,5.3-2.4,12.5-5.7,24.1-13.2,18.3-11.9,13.3-23.7,8-36.2-3.8-8.9-7.7-18.2-2.5-27.4,7.6-13.4,14.6-14.8,25.2-16.9,6.5-1.3,14.5-2.8,25-7.7,14.6-6.7,22-21.4,27.9-33.2,4.7-9.4,8.5-16.8,14.4-16.8s1.3,0,1.9.3c3.9,1,6.3,2.6,7.6,4.9,2.2,4.2.3,9.8-2.5,17.6-1.7,5-3.7,10.6-5,17.1-2.8,14-14.8,20-25.4,25.3-6.1,3.1-11.8,5.9-14.6,9.9-5.1,7.2-11.5,7.8-17,7.8s-1.9,0-2.8,0c-.9,0-1.9,0-2.8,0-1.6,0-3.8,0-5.9.5-6.5,1.4-13.4,6.7-8.5,34.8,3.4,19.8-20.8,29-36.9,35.1-5.2,2-9.6,3.6-12.3,5.3-4.9,3.1-11.1,9.5-18.2,16.9-8.9,9.3-18.9,19.8-29.8,27.1-18.5,12.4-62.8,36.3-77.2,37.8-1.1.1-2.2.2-3.3.2Z"/>
            <path class="cls-15" d="M717.2,516.6c.5,0,1.1,0,1.7.2,15.5,4.1,3.8,16.8-.6,38.5-4.4,21.7-32,23.8-39.8,34.9-4.7,6.6-10.4,7.4-16.2,7.4s-3.8,0-5.6,0-4.1.1-6.1.5c-9.3,2-13.6,10.9-9.3,35.9,4.3,25-37.4,32.3-48.7,39.3-11.3,7-28.5,31-48,44.1-19.5,13.1-63.1,36.2-76.7,37.6-1,.1-2.1.2-3.2.2-9.3,0-19.3-3.6,1.6-9.5,28.1-7.8,78.5-21.1,100.9-51.7,22.4-30.6,20.2-18.3,52.6-39.4,32.5-21.1-6.1-42.8,5.8-63.9,11.9-21.1,22.1-11.4,49.8-24.1,26.5-12.2,29.7-50,41.9-50M717.2,514.6c-6.5,0-10.4,7.7-15.3,17.4-5.9,11.7-13.1,26.2-27.5,32.7-10.4,4.8-18.4,6.3-24.8,7.6-10.5,2.1-18.1,3.6-25.9,17.4-5.4,9.6-1.4,19.1,2.5,28.2,5.3,12.6,9.9,23.5-7.6,35-11.5,7.4-18.4,10.6-23.9,13.2-10,4.6-14.5,6.6-29.2,26.7-21.3,29.1-68.9,42.3-97.3,50.2l-2.6.7c-10.2,2.9-14.2,5.3-13.8,8.6.6,4.4,9.9,4.8,12.7,4.8s2.3,0,3.4-.2c14.6-1.5,59.1-25.5,77.6-37.9,11-7.4,21.1-17.9,30-27.3,7.1-7.4,13.2-13.8,18-16.8,2.6-1.6,7-3.3,12.1-5.2,16.4-6.2,41.1-15.6,37.5-36.2-4.7-27.3,1.7-32.3,7.8-33.6,2-.4,4.1-.5,5.6-.5s1.8,0,2.8,0c1,0,1.9,0,2.9,0,6.2,0,12.7-1,17.8-8.3,2.7-3.8,8.3-6.6,14.3-9.6,10.8-5.4,23-11.5,25.9-26,1.3-6.4,3.2-12,4.9-17,2.7-7.8,4.8-13.9,2.4-18.4-1.4-2.6-4-4.3-8.2-5.4-.7-.2-1.5-.3-2.2-.3h0Z"/>
          </g>
          <g>
            <path d="M439.3,683.3c-.3,0-.6-.2-.8-.4-.4-.6-.3-.8,1.4-5.8,2.6-7.5,7.4-21.4,7.9-30.9.2-4.1.8-8.2,1.3-12.5,2.2-16.4,4.7-35-12.5-61.7-4.8-7.5-10.1-14.8-15.7-22.6-19.4-26.8-39.5-54.4-36.3-88.1,3.7-38.7-28.5-54.5-42.2-61.2-1.2-.6-2.3-1.1-3.2-1.6-26.2-13.6-50-45.8-51-68.9-.4-10.5,1.7-18.8,6.2-23.4,2.3-2.4,5.1-3.7,8.1-3.7,7.3,0,16.2,8.1,18.4,26,3.2,26.4,6.1,42.2,28.3,59.3,4.5,3.5,8.6,6.5,12.6,9.5,15.5,11.5,26.8,19.7,30.9,32.8,2.3,7.2,1.8,16.4,1.3,26.2-.6,12-1.3,25.5,3.3,37.1,4.2,10.7,13.3,22.6,22.1,34,8.5,11.1,17.4,22.6,22.1,33.5,1.3,3,2.9,6.1,4.5,9.5,10.7,21.7,25.4,51.5,5,91.5l-.7,1.3q-10.3,20.2-11.2,20.2Z"/>
            <path class="cls-15" d="M302.5,303.4c7.3,0,15.4,8.5,17.4,25.2,3.2,26.1,6.1,42.5,28.7,59.9,22.6,17.4,38.1,25.8,43.2,41.8,5.1,16-3.7,42.2,4.7,63.4,8.4,21.2,34.6,45.6,44.3,67.5,9.7,22,32.8,54.3,9.5,100.1-7.8,15.3-10.7,21-11,21-.7,0,8.7-22.5,9.5-36.2,1.1-20.5,10.4-41-11.3-74.8-21.7-33.8-56-67.2-51.9-110.1s-34.8-58-46-63.8c-25.1-13.1-49.4-45-50.4-68.1-.7-17.5,5.9-26,13.3-26M302.5,301.4v2-2h0c-3.3,0-6.3,1.4-8.8,4-4.6,4.8-6.9,13.4-6.4,24.1.5,11.4,6.4,25.3,16.6,38.9,9.9,13.2,22.6,24.5,34.9,30.9.9.5,2,1,3.2,1.6,13.6,6.6,45.3,22.2,41.7,60.3-3.3,34.1,16.9,61.9,36.5,88.8,5.6,7.7,10.9,15,15.7,22.5,16.9,26.4,14.6,44,12.3,61-.6,4.3-1.1,8.4-1.3,12.5-.5,9.4-5.3,23.2-7.9,30.7-1.9,5.5-2,5.7-1.3,6.7.4.5,1,.9,1.6.9,1.4,0,1.8-.6,4.3-5.5,1.6-3.1,4.1-7.9,7.8-15.2l.7-1.3c20.6-40.5,5.8-70.5-5-92.4-1.6-3.3-3.2-6.5-4.5-9.4-4.8-10.9-13.7-22.5-22.3-33.7-8.8-11.4-17.8-23.2-22-33.8-4.5-11.4-3.9-24.3-3.2-36.7.5-9.8,1-19.1-1.4-26.5-4.3-13.4-15.6-21.8-31.3-33.3-4-2.9-8.1-6-12.6-9.5-21.9-16.8-24.7-32.5-27.9-58.6-1-8.1-3.4-14.9-7.1-19.8-3.5-4.6-7.8-7.1-12.3-7.1h0Z"/>
          </g>
          <g>
            <path d="M401.3,626.6c0,0-.2,0-.3,0-.4-.1-.7-.5-.7-.9-.3-7.7-2.5-12.1-4.6-16.3-2.5-4.9-4.8-9.6-3.8-18.4.9-8.1-6.5-12.6-13-16.6-5.8-3.6-11.2-6.9-8.8-12.1,1.3-2.7,3.1-3.3,4.4-3.3,4.7,0,10.6,7.1,13.8,11l.3.4c.9,1.1,2,2,3.1,3,3,2.6,6.1,5.3,6.4,12.1.2,3.6-.4,6.3-.9,8.5-.7,3.4-1.1,5.3,1.4,7.6,4.9,4.5,9.8,13.8,10,14.2.2.3.1.7,0,1l-6.5,9.4c-.2.3-.5.4-.8.4Z"/>
            <path class="cls-15" d="M374.6,559.8c4.4,0,10.6,7.7,13.3,11,3.6,4.3,8.9,5.7,9.3,14.6.4,8.9-3.9,12.5.9,16.9,4.8,4.4,9.8,13.9,9.8,13.9l-6.5,9.4c-.6-16.7-10.2-18.5-8.4-34.6,1.8-16.1-26.3-18.9-21.9-28.5.9-1.9,2.1-2.7,3.5-2.7M374.6,557.8h0c-1.6,0-3.9.7-5.4,3.9-2.8,6,3.3,9.8,9.2,13.4,6.6,4.1,13.4,8.2,12.5,15.7-1,9.1,1.5,14.1,3.9,19,2.1,4.2,4.2,8.5,4.5,15.9,0,.9.6,1.6,1.4,1.8.2,0,.4,0,.6,0,.6,0,1.3-.3,1.6-.9l6.5-9.4c.4-.6.5-1.4.1-2.1-.2-.4-5.2-9.9-10.2-14.5-2-1.8-1.9-3.1-1.1-6.7.5-2.3,1.1-5.1.9-8.8-.3-7.3-3.8-10.3-6.8-12.9-1.1-.9-2.1-1.8-3-2.9l-.3-.4c-4.8-5.9-10-11.3-14.5-11.3h0Z"/>
          </g>
        </g>
        <g>
          <path class="cls-2" d="M450,805.3c-29.5,0-75.9-4.2-88.9-46.7-13.1-42.5,10.3-69.9,21.5-93.3,11.2-23.4,8.3-34.3,21.1-66.4,12.8-32.1,29.2-31.8,46.3-31.8,17.1,0,33.5-.2,46.3,31.8,12.8,32.1,9.9,43,21.1,66.4,11.2,23.4,34.6,50.7,21.5,93.3-13.1,42.5-59.4,46.7-88.9,46.7Z"/>
          <path d="M412.7,600c-21.5,25-9.2,61.3-26.2,80s-18.9,24.6-21.8,40.2c-4.4,23.2,1.4,49.2,19.7,64.5,30.5,25.5,125.8,20.7,141.1-11.2,0,0-52.5,16.6-70.2-4.4s-9.6-56.9-27.1-82.2c-17.5-25.3-22-75.8-15.5-86.8Z"/>
          <path d="M457.2,573.9c-.6,2.7-9.1,4-12.4,1.9s13.1-5.2,12.4-1.9Z"/>
        </g>
        <g>
          <g>
            <path class="cls-15" d="M438.8,719.9c-.7,0-1.3-.2-1.9-.5-1.4-.8-2.6-2.6-2.9-4.3-.3-2-.9-2.5-2.5-2.7-3.2-.4-5.6-1.9-6.8-4.1-1.2-2.3-.9-5.2.7-8.2.9-1.6.9-3.1,0-5-2.8-6-3.5-11.9-2-17.6,1.9-7.2,7-12.2,14.8-14.6,3.9-1.2,7.8-1.8,11.8-1.8s7.8.6,11.6,1.7c6.1,1.9,10.7,5.5,13.3,10.5,2.8,5.3,3.1,11.6,1,18.2-.4,1.1-.7,2.2-1.3,3.3-1.1,2-1,3.7.2,5.7,1.5,2.5,1.7,5.3.5,7.6-1.1,2.3-3.4,3.8-6.2,4.1-2.3.3-2.9.9-3.1,3-.1,1.5-1.5,3.5-3,4.2-.6.3-1.3.4-1.9.4-1.3,0-2.6-.7-3.6-1.9-1.4,1.3-2.5,1.9-3.8,1.9s-2.4-.6-3.8-1.9c-1.3,1.3-2.5,1.9-3.7,1.9-1.2,0-2.4-.6-3.8-1.9-1,1.2-2.3,1.9-3.6,1.9ZM448,710c1.1.2,2.1.2,3.1.2s.5,0,.8,0c0-.2.2-.4.2-.6,0-.1,0-.2.1-.3-.7-.9-1.3-1.9-2.1-2.9h0c0,0-.2,0-.2.2-.7.9-1.4,1.8-1.8,2.6,0,.1,0,.5,0,.9ZM438.9,690.9c-3.7,0-6.8,2.6-6.8,5.8,0,1.2.5,2.5,1.6,3.5,1.3,1.4,3.3,2.2,5.3,2.2,2,0,3.9-.8,5.2-2.1,1-1,1.6-2.3,1.6-3.7,0-3.1-3.1-5.7-6.7-5.7v-1,1ZM461.1,690.8c-3.7,0-6.7,2.5-6.8,5.7,0,1.3.5,2.7,1.5,3.7,1.3,1.3,3.1,2.1,5.2,2.1h0c3.7,0,6.9-2.6,6.9-5.6,0-1.3-.5-2.6-1.6-3.7-1.3-1.3-3.2-2.1-5.2-2.1v-1c0,0,0,1,0,1Z"/>
            <path d="M450,662c3.8,0,7.6.6,11.3,1.7,12.2,3.7,17.7,14.8,13.7,27.4-.3,1.1-.7,2.1-1.2,3.1-1.3,2.3-1.2,4.4.2,6.7,2.7,4.6.3,9.7-5,10.3-2.6.3-3.8,1.2-4,3.9,0,1.2-1.3,2.8-2.5,3.3-.5.2-1,.3-1.5.3-1.4,0-2.6-1-3.4-2.5-1.5,1.6-2.7,2.4-3.9,2.4s-2.4-.8-3.8-2.3c-1.4,1.5-2.5,2.3-3.7,2.3s-2.4-.8-3.9-2.4c-.2.3-.4.5-.5.7-.8,1.1-1.9,1.7-3,1.7s-1-.1-1.4-.4c-1.2-.7-2.2-2.3-2.4-3.6-.4-2.1-1.1-3.3-3.3-3.6-6.1-.7-8.4-5.5-5.3-10.8,1.1-2,1.1-3.8,0-5.9-2.5-5.4-3.4-11.1-1.9-16.9,1.9-7.3,7.1-11.7,14.1-13.9,3.8-1.2,7.6-1.7,11.5-1.7M461,703.3c4.2,0,7.8-3,7.8-6.6,0-3.7-3.5-6.8-7.7-6.8,0,0,0,0,0,0-4.3,0-7.7,2.9-7.8,6.6,0,3.7,3.3,6.8,7.7,6.8,0,0,0,0,0,0M439,703.3s0,0,0,0c4.3,0,7.8-3,7.7-6.7,0-3.7-3.5-6.7-7.7-6.7s0,0,0,0c-4.3,0-7.8,3-7.8,6.8,0,3.5,3.7,6.7,7.8,6.7M451.1,711.2c.4,0,.8,0,1.3,0,.4,0,.6-1.2.9-1.9,0-.1,0-.3-.1-.4-.9-1.3-1.9-2.6-3.1-4.3-1.2,1.6-2.2,2.8-3,4.2-.3.6,0,2.2.2,2.2,1.2.2,2.5.3,3.8.3M450,660h0c-4,0-8.1.6-12.1,1.8-8.1,2.5-13.5,7.8-15.4,15.3-1.6,5.9-.9,12.1,2.1,18.3.7,1.5.7,2.7,0,4-1.8,3.2-2.1,6.5-.7,9.1,1.3,2.6,4,4.3,7.6,4.7,1,.1,1.3.2,1.6,1.9.3,2,1.8,4.1,3.4,5,.8.4,1.6.7,2.4.7,1.3,0,2.6-.5,3.7-1.5,1.1.8,2.3,1.5,3.7,1.5s2.7-.7,3.8-1.5c1.1.9,2.3,1.5,3.8,1.5s2.7-.6,3.7-1.5c1,1,2.3,1.5,3.6,1.5s1.6-.2,2.3-.5c1.8-.9,3.4-3.1,3.6-5,.1-1.5.3-1.9,2.2-2.1,3.2-.4,5.7-2.1,7-4.7,1.3-2.7,1.1-5.8-.6-8.6-1-1.7-1.1-3.1-.2-4.7.6-1.1,1-2.3,1.4-3.5,2.2-6.9,1.8-13.5-1.1-19-2.8-5.2-7.6-9-13.9-10.9-3.9-1.2-7.9-1.8-11.9-1.8h0ZM461,701.3h0c-1.8,0-3.4-.7-4.5-1.8-.6-.6-1.3-1.6-1.2-3,0-2.6,2.7-4.7,5.8-4.7h0c1.7,0,3.3.7,4.5,1.8.8.9,1.3,1.9,1.3,3,0,2.5-2.8,4.6-5.8,4.6h0ZM439,703.3v-2c-1.7,0-3.4-.7-4.6-1.9-.8-.8-1.3-1.8-1.3-2.8,0-2.6,2.6-4.7,5.8-4.8h0c3.1,0,5.7,2.1,5.7,4.7,0,1.4-.7,2.4-1.3,3-1.1,1.1-2.7,1.8-4.5,1.8v2h0ZM449.1,709.1c.2-.4.5-.8.9-1.3.3.5.7.9,1,1.4-.6,0-1.2,0-1.9-.1h0Z"/>
          </g>
          <g>
            <path class="cls-15" d="M482.3,756.9c-1.6,0-3-.6-4.2-1.7-.4-.4-.7-.7-1-1.2-1.7-3.9-5.1-5.3-8.9-6.5-3.3-1.1-6.7-2.3-9.9-3.5-2.3-.9-4.7-1.8-7.1-2.6-.4-.1-.8-.2-1.2-.2s-.9,0-1.2.2c-2.5.9-5.1,1.8-7.6,2.8-4.1,1.5-8.4,3.1-12.6,4.5-2.2.7-3.4,2.2-4.7,3.9-.3.3-.5.7-.8,1-.7.8-2.5,2.8-4.6,3.2-.4,0-.8.1-1.2.1-1.8,0-3.4-.8-4.4-2.2-1.1-1.5-1.4-3.6-.7-5.6,0,0,0-.2,0-.3h0c-.3-.5-.7-1-1.1-1.5-.9-1.1-1.8-2.3-2.2-3.8-.4-1.6,0-3.2.9-4.5,1.1-1.4,2.8-2.2,4.8-2.2s.5,0,.5,0c.3,0,.8,0,1.2.2,1.4.7,2.8,1.1,4.4,1.1,2.6,0,5.2-1.1,7.9-2.2l.5-.2c1.2-.5,2.4-.9,3.8-1.4-.4-.1-.8-.3-1.2-.4-3.4-1.3-6.6-2.5-9.8-3.5,0,0-.1,0-.2,0-.3,0-.8.1-1.2.3-.3,0-.5.1-.8.2-.5.1-1,.3-1.5.4-.9.2-1.8.5-2.7.6-.3,0-.6,0-.9,0-2.6,0-4.6-1.5-5.4-3.9-.9-2.9.3-5.8,3-7.2,0,0,.2,0,.2-.1,0-.4,0-.7-.1-1-.2-1.2-.3-2.4,0-3.5.6-2.5,2.8-4.3,5.5-4.3s2.9.6,4,1.6c.5.5,1,1,1.3,1.6,1.5,3.4,4.4,5,8.3,6.2,3.3,1.1,6.7,2.3,9.9,3.5,2.5.9,5,1.9,7.6,2.7.4.1.8.2,1.3.2s1,0,1.4-.2l2.2-.8c6.3-2.2,12.9-4.5,19.2-7.1.9-.4,1.8-1.4,2.6-2.5.5-.6,1-1.3,1.6-1.8.2-.2.5-.5.7-.7.9-.9,1.8-1.9,3.1-2.3.6-.2,1.2-.3,1.8-.3,1.7,0,3.3.8,4.4,2.2,1.1,1.5,1.5,3.5.9,5.4-.1.4-.2.7-.4,1.1,1.9,1,3.8,2.5,3.7,5.6,0,3.3-2.4,5.7-5.7,5.7h-.5c-.5,0-1,0-1.5-.3-1.4-.7-2.8-1.1-4.3-1.1-2.5,0-5.1,1-7.6,2.1-1.4.6-2.9,1.1-4.6,1.7.6.2,1.1.4,1.7.6,3.3,1.2,6.4,2.4,9.6,3.2.1,0,.3,0,.5,0,.8,0,1.7-.3,2.6-.7.7-.2,1.4-.5,2.1-.7.6-.1,1.1-.2,1.7-.2,2,0,3.8.8,4.9,2.3,1,1.3,1.3,3,.8,4.8-.4,1.3-1.3,2.4-2.3,3.4-.4.4-.8.8-1.1,1.3h0c0,.3.2.5.2.8.8,2.7-.3,5.3-2.6,6.7-.9.5-1.9.8-3,.8Z"/>
            <path d="M417.7,713.1c1.2,0,2.3.4,3.3,1.3.4.4.8.8,1.1,1.3,1.7,3.9,5.1,5.5,8.9,6.8,5.9,1.9,11.6,4.2,17.5,6.2.5.2,1.1.3,1.6.3s1.2,0,1.7-.3c7.2-2.5,14.4-5,21.4-7.9,1.8-.8,3-3,4.5-4.6,1-1,2.1-2.4,3.3-2.8.5-.2,1.1-.2,1.5-.2,3.1,0,5.3,3,4.3,6.3-.2.6-.4,1.2-.7,1.9,2.3,1,4,2.3,3.9,5.1,0,2.8-2,4.7-4.7,4.7s0,0-.1,0c0,0-.1,0-.2,0s-.1,0-.2,0c-.4,0-.8,0-1.1-.2-1.6-.8-3.2-1.2-4.7-1.2-2.7,0-5.3,1-8,2.2-2.1.9-4.3,1.6-7.1,2.6,5.1,1.8,9.4,3.7,14,4.9.2,0,.5,0,.7,0,1.5,0,3.3-1,5-1.4.5-.1,1-.2,1.5-.2,3.3,0,5.7,2.5,4.8,5.8-.4,1.6-2.1,2.9-3.2,4.4-.2,0-.4-.2-.6-.3.2.7.5,1.3.7,2,.6,2.2-.2,4.4-2.2,5.5-.8.4-1.6.7-2.5.7-1.3,0-2.5-.5-3.5-1.4-.3-.3-.6-.6-.7-.9-1.8-4.2-5.4-5.8-9.5-7.1-5.7-1.9-11.3-4.2-17-6.1-.5-.2-1-.2-1.6-.2s-1.1,0-1.6.2c-6.7,2.4-13.3,5.1-20.1,7.2-3,1-4.3,3.2-6,5.3-1,1.3-2.5,2.6-4,2.9-.3,0-.7,0-1,0-3.2,0-5.2-3.1-4.1-6.4.2-.5.4-1,0-1.2-1.1-1.6-2.7-3.1-3.1-4.8-.7-3,1.6-5.4,4.7-5.4s.2,0,.3,0c.3,0,.7,0,.9.1,1.7.9,3.3,1.2,4.8,1.2,3,0,5.9-1.2,8.8-2.4,1.9-.8,3.8-1.4,6.3-2.4-4.9-1.8-9.2-3.5-13.6-4.9-.2,0-.3,0-.5,0-.7,0-1.5.3-2.2.5-1.4.3-2.7.8-4.1,1-.3,0-.5,0-.8,0-2.1,0-3.8-1.2-4.5-3.2-.8-2.4.2-4.8,2.5-6,.3-.2.7-.3.8-.4-.1-1.9-.6-3.5-.3-5,.5-2.2,2.5-3.5,4.5-3.5M417.7,711.1h0c-3.1,0-5.7,2.1-6.4,5-.3,1.3-.1,2.6,0,3.9,0,.1,0,.2,0,.3-2.9,1.7-4.2,5-3.1,8.2.9,2.8,3.3,4.5,6.4,4.5s.7,0,1.1,0c1-.1,1.9-.4,2.9-.7.5-.1,1-.3,1.5-.4.3,0,.5-.1.8-.2.3,0,.7-.2.9-.2,2.8.9,5.5,1.9,8.4,3-.4.2-.9.3-1.3.5l-.5.2c-2.6,1.1-5.1,2.1-7.5,2.1s-2.6-.3-3.9-1c-.6-.3-1.3-.4-1.7-.4h-.1c-.1,0-.2,0-.3,0-2.3,0-4.3.9-5.5,2.6-1.2,1.5-1.6,3.4-1.1,5.3.4,1.6,1.5,3,2.4,4.1.3.4.5.7.8,1-.7,2.2-.3,4.5.9,6.3,1.2,1.6,3.1,2.6,5.2,2.6s.9,0,1.3-.1c2.4-.4,4.3-2.4,5.2-3.6.3-.4.6-.7.8-1.1,1.3-1.7,2.3-3,4.2-3.6,4.3-1.4,8.5-2.9,12.7-4.5,2.5-.9,5-1.9,7.5-2.8.2,0,.6-.1.9-.1s.7,0,.9.1c2.4.8,4.8,1.7,7.1,2.6,3.2,1.2,6.6,2.5,9.9,3.5,4.3,1.4,6.9,2.8,8.2,6,.3.7.8,1.2,1.1,1.5h0c1.3,1.4,3,2.1,4.9,2.1s2.4-.3,3.4-.9c2.7-1.5,4-4.7,3.1-7.8,0-.1,0-.2,0-.3.2-.3.5-.5.7-.8,1-1.1,2.1-2.3,2.5-3.8.6-2.1.2-4.1-1-5.6-1.3-1.7-3.4-2.7-5.7-2.7s-1.3,0-1.9.2c-.8.2-1.5.4-2.2.7-.8.3-1.7.6-2.3.6s-.2,0-.2,0c-2.8-.7-5.7-1.8-8.6-2.9.7-.3,1.4-.5,2.1-.8,2.3-1,4.8-2,7.2-2,1.3,0,2.6.3,3.8.9.7.4,1.4.4,2,.4h0s0,0,0,0h.1s.1,0,.1,0c3.8,0,6.6-2.8,6.7-6.7,0-3.2-1.6-5-3.5-6.1,0-.1,0-.2.1-.3.6-2.2.2-4.5-1.1-6.3-1.2-1.6-3.1-2.6-5.2-2.6s-1.4.1-2.1.3c-1.5.5-2.6,1.6-3.5,2.6-.2.2-.4.5-.7.7-.6.6-1.1,1.3-1.7,1.9-.7.9-1.5,1.9-2.2,2.2-6.3,2.6-12.8,4.9-19.1,7.1l-2.2.8c-.3.1-.7.2-1,.2s-.7,0-1-.1c-2.5-.9-5.1-1.8-7.5-2.7-3.2-1.2-6.6-2.4-10-3.5-3.6-1.2-6.3-2.6-7.7-5.7-.4-.8-1-1.4-1.5-1.9-1.3-1.2-2.9-1.8-4.6-1.8h0Z"/>
          </g>
        </g>
        <g>
          <circle class="cls-11" cx="360.7" cy="132.3" r="9.7"/>
          <circle class="cls-11" cx="362.7" cy="129.3" r="9.7"/>
          <line class="cls-5" x1="358.8" y1="123.8" x2="367.1" y2="134"/>
        </g>
        <g>
          <circle class="cls-11" cx="409.1" cy="147.9" r="9.7"/>
          <circle class="cls-11" cx="409.2" cy="145.8" r="9.7"/>
          <line class="cls-5" x1="403.5" y1="149.3" x2="414.1" y2="141.6"/>
        </g>
        <g>
          <circle class="cls-11" cx="395.4" cy="177" r="9.7"/>
          <circle class="cls-11" cx="396" cy="174.7" r="9.7"/>
          <line class="cls-5" x1="397.7" y1="168.2" x2="395.3" y2="181.1"/>
        </g>
        <g>
          <path d="M515.5,689.5c-.2,0-.5-.2-.5-.3-.1-.3-.4-.9,6.9-8.5,0,0,0,0,.1,0,6.6-3.8,11-9,15.3-14,5.1-6,9.9-11.7,18.1-14.9,7.8-3.1,9.9-12.1,11.8-20,1.7-7.2,3.2-13.4,8.5-13.7.2,0,.3,0,.5,0,1.8,0,3.1.6,3.9,1.8,2.5,3.8-1.2,12.9-3,17.2l-.2.5c-.6,1.4-.9,2.8-1.2,4.2-.9,3.8-1.7,7.7-7.5,11.1-2.7,1.6-5.2,2.4-7.6,3.2-4.3,1.4-8.3,2.7-12.8,8.6-7.1,9.4-14.2,13.6-20.5,17.3-3.1,1.8-5.9,3.5-8.6,5.6-2.5,2-2.8,2-3.1,2Z"/>
          <path class="cls-15" d="M576.2,618.4c8.2,0,2.3,13.7.1,18.8-2.2,5.2-.8,10.5-8.5,15.1-7.7,4.5-13.6,2.6-20.6,12-10.4,13.9-20.8,16.2-29,22.8-1.7,1.4-2.5,1.9-2.8,1.9-.9,0,6.7-8,6.7-8,14.5-8.4,18.3-23,33.3-28.9,15.1-6,9.6-33.1,20.2-33.6.1,0,.3,0,.4,0M576.2,617.4h0c-.2,0-.3,0-.5,0-5.7.3-7.3,7-9,14.1-1.9,7.8-4,16.7-11.5,19.6-8.3,3.3-13.2,9-18.3,15.1-4.2,5-8.6,10.1-15.2,13.9,0,0-.2.1-.2.2-7.5,7.8-7.3,8.4-7,9,.2.4.6.6,1,.6s.9-.1,3.4-2.1c2.6-2.1,5.5-3.8,8.5-5.6,6.3-3.7,13.5-7.9,20.6-17.4,4.4-5.8,8.2-7.1,12.5-8.5,2.4-.8,4.9-1.6,7.7-3.2,5.9-3.5,6.8-7.5,7.7-11.4.3-1.4.6-2.8,1.2-4.2l.2-.5c2-4.8,5.7-13.7,3-17.7-.9-1.3-2.3-2-4.3-2h0Z"/>
        </g>
        <g>
          <path d="M425.2,598.1c-.4,0-.7-.3-1.4-2.4-.7-2.1-1.7-4-2.8-6.1-2.2-4.2-4.7-9.1-5.3-16.8-.4-4.8-2.1-6.8-4-9.1-1.1-1.3-2.2-2.6-3.1-4.5-2-3.9-1.1-6.4-.3-8.9.3-.9.6-1.8.8-2.7v-.3c.7-3.6,1.9-11,5.5-11s1.4.3,2.1.8c2.9,2.1,1.6,6.1,0,10.7-1.7,5-3.6,10.7-.4,15,3.4,4.7,4.1,9.5,4.9,14.7.6,4.2,1.2,8.6,3.6,13,0,0,0,0,0,.1,1.4,6.6,1.1,7,.9,7.2,0,.1-.3.2-.4.2h0Z"/>
          <path class="cls-15" d="M414.6,536.8c.5,0,1.1.2,1.8.7,5.7,4-6.8,17.1-.6,25.7,6.3,8.5,3.3,18,8.4,27.6,0,0,1.4,6.8,1,6.8s-.4-.6-.9-2c-2.2-6.5-7.2-11.4-8.1-22.7-.6-7.6-4.6-8.6-7.2-13.8s0-7.7.5-11.3c.5-3.1,1.7-10.9,5.1-10.9M414.6,535.8c-4.1,0-5.3,7.4-6,11.4v.3c-.2.9-.5,1.8-.8,2.7-.8,2.4-1.8,5.1.3,9.3,1,1.9,2.1,3.3,3.2,4.6,1.9,2.3,3.5,4.2,3.9,8.9.6,7.8,3.2,12.7,5.4,17,1.1,2,2.1,4,2.8,6,.7,1.9,1,2.7,1.8,2.7s.6-.2.8-.4c.3-.4.6-.7-.8-7.6,0,0,0-.2,0-.3-2.3-4.3-2.9-8.7-3.5-12.9-.7-5-1.4-10.1-5-14.9-3-4.1-1.1-9.7.5-14.6,1.6-4.6,3.1-9-.2-11.3-.8-.6-1.6-.9-2.4-.9h0Z"/>
        </g>
      </g>
      <g>
        <path class="cls-16" d="M116.1,1041.3c1.4,15.8,3.9,31.1,7.3,46l-.9,17.2h-.9l-1.7-1.7-1.7-3.4c-4-1.7-8.2-2.9-12.5-3.4-4.3-.6-8.7-1.1-13.3-1.7-4-.6-7.7-.4-11.2.4s-6.6,1.9-9.5,3c-3.4,1.7-6.6,3.4-9.5,5.2-2.9,1.7-5.4,4-7.7,6.9.6-4.6,1-9,1.3-13.3.3-4.3,1.3-8.4,3-12.5-.6-16-1.6-31.8-3-47.3-1.4-15.5-7.9-29.5-19.3-42.1v-1.7l15.5,6c8.6.6,16.9.3,24.9-.9,8-1.1,16-2.3,24.1-3.4h8.6c2.9,15.5,5,31.1,6.4,46.8ZM73.6,1025.4h-5.2c1.7,4.6,3.1,9.3,4.3,14.2,1.1,4.9,2,9.6,2.6,14.2l-.9,10.3v5.2l3.4-2.6c3.4,0,6.6.1,9.5.4,2.9.3,5.7,1,8.6,2.1h.9c.6-7.4,0-14.6-1.7-21.5s-2.6-14-2.6-21.5h-.9l-18-.9ZM164.7,969.6l2.6,13.8,12,1.7c10.3-2.3,20.5-5.3,30.5-9,10-3.7,19.9-7,29.6-9.9h2.6c-.6,5.2-.6,10.3,0,15.5.6,5.2,1.7,10,3.4,14.6v6.9l-13.8-7.7c-6.3,1.7-12.5,3.7-18.5,6-6,2.3-12.2,4-18.5,5.2-4,0-7.9-.1-11.6-.4-3.7-.3-7.3-1-10.7-2.1h-5.2c-1.7,5.7-3.9,11.3-6.4,16.8-2.6,5.4-5.6,10.7-9,15.9l-18,8.6-3.4,3.4h-1.7l-7.7,6-1.7,1.7h-.9c4.6-10.9,7.2-22.3,7.7-34.4.6-12,2.9-23.5,6.9-34.4l-5.2-30.1.9-7.7,8.6,1.7.9,2.6c3.4,1.7,7.2,3.2,11.2,4.3,4,1.1,8,2.3,12,3.4h7.7l-4.3,7.7ZM199.1,1037.5h2.6l-3.4,1.7c0,2.3-.4,4.4-1.3,6.4-.9,2-2.1,3.6-3.9,4.7v6.4c0,2,.9,3.9,2.6,5.6l-4.3,12c-2.9,4.6-5.7,8.7-8.6,12.5-2.9,3.7-6.3,7.3-10.3,10.7v1.7h-1.7l-9.5,17.2v11.2l11.2-1.7c4.6-.6,8.9-.1,12.9,1.3,4,1.4,8,2.4,12,3l2.6-.9c2.9-3.4,5-7.2,6.4-11.2,1.4-4,2.7-8,3.9-12,4-8,8.6-15.8,13.8-23.2,5.2-7.4,10.9-14.3,17.2-20.6h.9l1.7,3.4c0,8-.9,15.8-2.6,23.2-1.7,7.4-3.4,14.9-5.2,22.3l.9,16.3v15c0,4.9-.9,9.3-2.6,13.3-7.4,0-14.6-1.1-21.5-3.4-6.9-2.3-13.5-4.3-19.8-6-8,0-15.8.3-23.2.9-7.4.6-14.9,1.4-22.3,2.6h-13.8v-18.5c0-6-.9-11.6-2.6-16.8-.6-2.9-.4-5.6.4-8.2s2.4-5,4.7-7.3l1.7-2.6,12-7.7,1.7-3.4h1.7c4.6-2.9,8-6.3,10.3-10.3,2.3-4,5.4-7.7,9.5-11.2l6-9.5h1.7l.9-1.7-10.3,2.6h-22.3l-.9-17.2v-1.7l6.9,3.4c2.9,0,5.7-.1,8.6-.4,2.9-.3,5.4-1,7.7-2.1l18.9.9h5.2l3.4-.9Z"/>
        <path class="cls-15" d="M311,958.8l-.9,26.6.9,9.5,24.1.9,1.7,13.8-.9,22.3-5.2-3.4-26.6,5.2,3.4,5.2,2.6.9v1.7l6.9,6c2.9,2.9,5.4,5.9,7.7,9,2.3,3.2,3.7,6.7,4.3,10.7.6,4,.4,7.7-.4,11.2s-2.1,6.9-3.9,10.3h-1.7l-3.4-8.6-12-5.2-5.2.9c4,11.5,7,23.2,9,35.2,2,12,4.7,23.8,8.2,35.2v6.9c-4.6,0-9.3-.1-14.2-.4-4.9-.3-9,1-12.5,3.9h-1.7l.9-8.6c-1.1-12.6-2.9-25.1-5.2-37.4-2.3-12.3-4.6-24.8-6.9-37.4l-3.4,1.7-5.2,24.1c-1.7,4-4,7.6-6.9,10.7-2.9,3.2-6,6.2-9.5,9h-.9c5.2-12.6,8.7-25.8,10.7-39.5,2-13.8,4.4-27.2,7.3-40.4v-.9l-14.6,6.9h-3.4c-.6-8-1.9-15.9-3.9-23.6-2-7.7-4.7-15.3-8.2-22.8v-2.6c4,2.3,8.3,4,12.9,5.2,4.6,1.1,9.2,2.3,13.8,3.4h5.2c0-9.2-.4-18-1.3-26.6s-3-16.6-6.4-24.1v-4.3l15.5,4.3,24.1-.9,5.2,6ZM420.1,965.7h-.9c1.7,9.7,3.6,19.6,5.6,29.6,2,10,5,19.3,9,27.9l12-.9h3.4c3.4,10.3,4.9,21.1,4.3,32.2-.6,11.2.6,21.9,3.4,32.2v38.7l.9.9c0,4-.1,7.9-.4,11.6-.3,3.7-1.3,7.3-3,10.7l-11.2-6c-14.3.6-28.5.9-42.5.9s-27.6,2.3-40.8,6.9h-1.7l.9-15.5-.9-11.2c0-4.6-.1-9.2-.4-13.8-.3-4.6.4-8.9,2.1-12.9-2.9-9.7-5.7-19.5-8.6-29.2-2.9-9.7-6.3-19.5-10.3-29.2l-3.4,1.7,4.3-6c2.9-.6,5.9-1,9-1.3,3.1-.3,5.9-1.3,8.2-3l18,.9,7.7-.9c1.7-2.3,2.9-4.9,3.4-7.7.6-2.9,1.4-5.7,2.6-8.6v-43l-6.9-18.9v-2.6c5.2,1.7,10.5,2.7,15.9,3,5.4.3,10.5,1.6,15,3.9l5.2,9.5ZM391.7,1080l2.6-.9c0-4.6.1-9.3.4-14.2.3-4.9-.4-9.3-2.1-13.3l-5.2-3.4h-6.9l-8.6,7.7c0,3.4.4,6.7,1.3,9.9.9,3.2,2.1,6.2,3.9,9h1.7v1.7l12.9,3.4ZM404.6,1123h.9l-.9,1.7.9,2.6,1.7-9.5c0-3.4-.3-6.6-.9-9.5-.6-2.9-1.4-5.7-2.6-8.6h-1.7l-3.4-6-1.7-.9h-4.3l-11.2,18c0,4,.7,7.9,2.1,11.6,1.4,3.7,3.3,7.3,5.6,10.7h.9l14.6-10.3ZM439,1118.7v-.9l-.9,1.7v2.6c2.3-2.3,3.6-4.9,3.9-7.7.3-2.9,1-5.7,2.1-8.6,0-1.1-.1-2.4-.4-3.9-.3-1.4-1-2.4-2.1-3,0-1.7-.7-2.9-2.1-3.4-1.4-.6-3-1.1-4.7-1.7h-3.9c-1.4,0-2.7.6-3.9,1.7.6,4,1.1,8.2,1.7,12.5.6,4.3,2,8.2,4.3,11.6l3.4,2.6.9-.9,1.7-2.6ZM443.3,1078.3l-7.7-30.1-3.4-1.7h-1.7c0,5.2.1,10,.4,14.6.3,4.6,2.1,8.6,5.6,12l6.9,5.2Z"/>
        <path class="cls-16" d="M605.5,957.6c-.3,3.4.4,6.3,2.1,8.6h1.7v2.6c7.4.6,14.6.4,21.5-.4s13.5-2.7,19.8-5.6h4.3c0,4-.9,7.7-2.6,11.2l-5.2,10.3-13.8-2.6h-27.5l-.9,13.8h-29.2v-13.8l-8.6.9h-18.9c-6.3,0-12-1.1-17.2-3.4h-5.2v9.5l-8.6.9-9.5,7.7h-.9v-18l-2.6-.9c-4.6,0-8.7.3-12.5.9-3.7.6-7.6,1.4-11.6,2.6l-24.9-.9c.6-4,1.3-8,2.1-12,.9-4,2.1-8,3.9-12l1.7,1.7c4.6,2.3,9.7,3.7,15.5,4.3,5.7.6,11.2,2,16.3,4.3h13.8v-3.9c0-1.4-.6-2.4-1.7-3l-6.9-9.5v-.9l24.9.9,2.6,6h1.7v2.6c4,.6,8,1.4,12,2.6,4,1.1,8,2.6,12,4.3l16.3-.9c1.7-1.7,2.7-3.9,3-6.4.3-2.6,1.6-4.7,3.9-6.4l1.7-2.6h2.6l1.7,2.6,3.4.9c3.4,0,6.7-.1,9.9-.4,3.1-.3,5.9-1.6,8.2-3.9,1.1,2.3,1.6,5.2,1.3,8.6ZM486.4,1004h-.9v8.6c0,2.9-.6,5.4-1.7,7.7l-3.4,3.4v2.6h23.2l-2.6,9.5h-1.7v14.6l-8.6,8.6v2.6h5.2l2.6-3.4-1.7-8.6v-1.7l11.2-1.7,2.6-3.4h1.7l.9-1.7c1.1,4.6,2.3,9.2,3.4,13.8,1.1,4.6,2.9,8.9,5.2,12.9v12l-10.3,2.6h-5.2v-9.5l-6.9-3.4-8.6.9-.9,1.7c-4,2.9-8.5,4.9-13.3,6-4.9,1.1-9.6,2.3-14.2,3.4h-4.3l5.2-6.9h1.7l2.6-3.4c2.9-5.2,5.6-10.3,8.2-15.5s5-10.3,7.3-15.5l-.9-5.2c-4-2.9-8.2-5-12.5-6.4-4.3-1.4-8.7-2.4-13.3-3l3.4-2.6,3.4-3.4h1.7l12-21.5v-4.3l9.5,10.3ZM575,1075.3v2.6l-4.3,4.3.9,4.3h1.7l1.7,2.6v1.7l4.3,4.3,24.1,1.7c6.3,0,12.5.1,18.5.4,6,.3,11.9-.4,17.6-2.1h10.3l8.6,18.9v1.7l-15.5-.9-3.4-4.3-18-4.3h-12c-4,0-7.7.6-11.2,1.7l6,5.2v1.7h1.7l.9,2.6,6,3.4.9,2.6c8,4,16,7.2,24.1,9.5,8,2.3,15.5,6,22.3,11.2v1.7c-14.9-1.1-29.4-4.7-43.4-10.7-14-6-27.4-13.3-40-21.9h-.9c-.6,6.9-1,14-1.3,21.5-.3,7.4-.4,14.9-.4,22.3h-24.1l4.3-10.3c.6-6.3.4-12.3-.4-18s-2.7-10.9-5.6-15.5v1.7l-18.9,10.3v1.7h-3.4v1.7l-24.1,12h-41.2c3.4-.6,6.7-1.1,9.9-1.7,3.1-.6,6.2-1.7,9-3.4v-1.7l6.9-3.4v-1.7l12.9-6v-1.7c3.4-2.9,7-5.4,10.7-7.7,3.7-2.3,7.9-4,12.5-5.2h3.4c-1.1,0-2.1.1-3,.4-.9.3-1.6,1-2.1,2.1-8,.6-15.6.1-22.8-1.3-7.2-1.4-14.8-1.9-22.8-1.3l2.6-5.2v-9.9c0-3.1-.9-5.9-2.6-8.2l16.3,5.2v1.7c10.3.6,20.5.3,30.5-.9,10-1.1,19.9-2.6,29.6-4.3v-12.9l8.6-.9h2.6l12,2.6ZM555.2,1001.4l-12,11.2v2.6h48.1v59.3c-4-1.1-8.5-1.7-13.3-1.7s-9.3-.6-13.3-1.7c-6.3,0-12.9-.1-19.8-.4-6.9-.3-12.6,2.1-17.2,7.3h-.9c-.6-13.2-1-26.5-1.3-40-.3-13.5-6.2-24.5-17.6-33.1v-.9c5.7,0,11.3-.3,16.8-.9,5.4-.6,10.7-1.7,15.9-3.4l3.4-7.7h12l-.9,9.5ZM564.6,1023.7l-6-3.4c-2.3,0-4.7-.1-7.3-.4-2.6-.3-4.7.4-6.4,2.1-.6,2.3-.4,4.4.4,6.4.9,2,1.9,3.9,3,5.6l12-1.7h6l-1.7-8.6ZM563.8,1045.2l-4.3-3.4-13.8.9,3.4,11.2,6.9,3.4h8.6l-.9-12ZM634.3,1007.4v2.6l-5.2,4.3v1.7l-4.3,4.3,1.7,7.7,6,.9-3.4,19.8h-1.7l-1.7,3.4c0,1.7.1,3.6.4,5.6.3,2,1.3,3.3,3,3.9h6.9l.9-8.6h1.7l1.7-4.3h1.7l3.4-4.3h2.6l11.2,29.2,3.4,3.4v4.3c-2.9.6-5.6,1.1-8.2,1.7-2.6.6-5,1.7-7.3,3.4h-.9v-9.5l-7.7-6.9-18.9,4.3h-24.9l4.3-1.7c4-4,6.7-8.4,8.2-13.3,1.4-4.9,3.6-9.6,6.4-14.2l-1.7-6.9h-1.7l-1.7-1.7-3.4-2.6v-1.7l-2.6-1.7v-1.7l3.4-1.7c2.9-4,4.6-8.6,5.2-13.8.6-5.2,1.1-10.3,1.7-15.5h12.9l8.6,9.5Z"/>
        <path class="cls-16" d="M772.4,946.4c4.6,3.4,9,6.7,13.3,9.9,4.3,3.2,8.7,5.9,13.3,8.2l15.5,22.3,31.8,16.3v1.7l8.6,9.5,3.4,3.4c2.9,6.3,6.4,12.5,10.7,18.5s7.3,12.5,9,19.3v6l-10.3-2.6h-2.6l5.2,11.2v.9c-2.9-4-6.3-7.6-10.3-10.7-4-3.1-7.7-6.4-11.2-9.9s-7.6-5.6-12.5-6.4c-4.9-.9-9.6-2.1-14.2-3.9-2.9-3.4-5-7.3-6.4-11.6-1.4-4.3-2.1-8.7-2.1-13.3h-1.7l-3.4-6c-7.4-4-15.5-7.4-24.1-10.3-8.6-2.9-16.3-7.2-23.2-12.9l-4.3,9.5c-3.4,3.4-7,6.3-10.7,8.6-3.7,2.3-7.6,4.3-11.6,6l-12,13.8-10.3,23.2-9.5,6.9v1.7l-10.3,6v1.7h-2.6l-3.4,3.4-3.4.9-.9,1.7c-3.4,3.4-7.3,5.6-11.6,6.4s-8.5,2.7-12.5,5.6v-1.7h1.7c2.9-5.7,5.4-11.7,7.7-18,2.3-6.3,4.9-12.3,7.7-18v-.9h-5.2v-.9l5.2-3.4,1.7-3.4h1.7c2.3-5.2,4.7-10.5,7.3-15.9,2.6-5.4,5.3-10.7,8.2-15.9,2.3-4,5.2-7.9,8.6-11.6,3.4-3.7,6.9-7,10.3-9.9l.9-2.6,11.2-7.7c2.3-2.9,4-6.2,5.2-9.9,1.1-3.7,1.4-7.9.9-12.5l2.6-.9c4-.6,7.7-.1,11.2,1.3,3.4,1.4,6.9,2.1,10.3,2.1,3.4.6,6.4.4,9-.4s5-2.1,7.3-3.9l.9-.9ZM744,1061.5v.9l4.3.9,2.6,3.4c3.4,5.2,6.2,10.9,8.2,17.2,2,6.3,3.3,12.9,3.9,19.8,0,4-.3,7.7-.9,11.2-.6,3.4-2,6.6-4.3,9.5l-.9-3.4-4.3-2.6c-11.5.6-22.3,2.4-32.7,5.6-10.3,3.2-20.9,5.3-31.8,6.4h-1.7l1.7-1.7c.6-8.6.3-16.8-.9-24.5-1.1-7.7-3.2-15.3-6-22.8v-8.6l5.2,1.7c9.7-1.1,18.9-3.3,27.5-6.4,8.6-3.1,18-4.7,28.4-4.7h.9l.9-1.7ZM725.1,1083.9c-4,1.1-7.7,2.6-11.2,4.3l-8.6-.9,5.2,13.8-.9,6,24.1-4.3v-10.7c0-3.7,1.4-6.7,4.3-9v-.9c-4.6,0-8.9.6-12.9,1.7ZM804.2,1022l2.6-4.3,2.6,1.7v4.3l-3.4,3.4,3.4,12.9v8.6h-1.7l-2.6-6.9-10.3-1.7c-6.3.6-12.2,1.9-17.6,3.9-5.4,2-11,3.6-16.8,4.7l-11.2-.9-13.8.9c-2.9,1.1-5.6,3-8.2,5.6l-7.3,7.3h-.9l5.2-13.8v-13.8l-4.3-3.4.9-6h17.6c6,0,11.6-.9,16.8-2.6h49ZM781.8,1054.7l6,4.3h27.1c8.9,0,17.3-.9,25.4-2.6h15.5c2.3,2.3,3.9,4.9,4.7,7.7.9,2.9,1,6,.4,9.5l6,7.7c1.7,5.2,2.3,10.7,1.7,16.8-.6,6,.9,11.3,4.3,15.9l-1.7,11.2c-4.6-2.3-9.7-3.1-15.5-2.6-5.7.6-10.9,0-15.5-1.7v-1.7h-1.7c-1.7-2.3-4.3-3.4-7.7-3.4h-9.5l1.7-7.7h1.7l.9-1.7,19.8-.9-2.6-13.8c.6-2.3.4-4-.4-5.2-.9-1.1-2.1-2-3.9-2.6l-7.7,2.6-17.2-6h-4.3l1.7,2.6-.9,12,6,23.2c-1.7,6.3-2.7,13-3,20.2-.3,7.2-1.6,13.9-3.9,20.2l-4.3-5.2-3.4-2.6-19.8,8.6,7.7-10.3-.9-3.4.9-10.3v-41.2c-2.3-5.7-3.2-11.7-2.6-18,.6-6.3.3-12.3-.9-18h-.9v.9l-3.4-4.3Z"/>
      </g>
      <line class="cls-13" y1="894.5" x2="900" y2="894.5"/>
    </g>
  </g>
</svg>