<?xml version="1.0" encoding="UTF-8"?>
<svg xmlns="http://www.w3.org/2000/svg" version="1.1" xmlns:xlink="http://www.w3.org/1999/xlink" viewBox="0 0 900 1200">
  <defs>
    <style>
      .cls-1, .cls-2, .cls-3, .cls-4, .cls-5, .cls-6, .cls-7 {
        stroke: #000;
      }

      .cls-1, .cls-2, .cls-4, .cls-5, .cls-6, .cls-8, .cls-7 {
        stroke-miterlimit: 10;
      }

      .cls-1, .cls-8 {
        fill: none;
      }

      .cls-2 {
        stroke-width: 3px;
      }

      .cls-2, .cls-3, .cls-4, .cls-9 {
        fill: #333;
      }

      .cls-10 {
        fill: #fff;
      }

      .cls-3 {
        stroke-linecap: round;
        stroke-linejoin: round;
        stroke-width: 5px;
      }

      .cls-4, .cls-5 {
        stroke-width: 2px;
      }

      .cls-11 {
        font-family: hakidame, hakidame;
        font-size: 180px;
        letter-spacing: 0em;
      }

      .cls-11, .cls-7 {
        fill: #f9db28;
      }

      .cls-5 {
        fill: #b3b3b3;
      }

      .cls-6 {
        fill: #f2f2f2;
      }

      .cls-8 {
        stroke: #f2f2f2;
        stroke-width: 4px;
      }

      .cls-12 {
        clip-path: url(#clippath);
      }
    </style>
    <symbol id="New_Symbol" viewBox="0 0 12 12">
      <circle class="cls-10" cx="6" cy="6" r="6"/>
    </symbol>
    <clipPath id="clippath">
      <circle class="cls-8" cx="690" cy="365.5" r="68.5"/>
    </clipPath>
  </defs>
  <!-- Generator: Adobe Illustrator 28.7.4, SVG Export Plug-In . SVG Version: 1.2.0 Build 166)  -->
  <g>
    <g id="Layer_1">
      <rect width="900" height="1200"/>
      <g>
        <use width="12" height="12" transform="translate(34.4 98) scale(.5)" xlink:href="#New_Symbol"/>
        <use width="12" height="12" transform="translate(671.9 163.7) scale(.7)" xlink:href="#New_Symbol"/>
        <use width="12" height="12" transform="translate(526.9 201.8) scale(1)" xlink:href="#New_Symbol"/>
        <use width="12" height="12" transform="translate(-1.5 343) scale(.9)" xlink:href="#New_Symbol"/>
        <use width="12" height="12" transform="translate(529 304.5)" xlink:href="#New_Symbol"/>
        <use width="12" height="12" transform="translate(354 352) scale(.5)" xlink:href="#New_Symbol"/>
        <use width="12" height="12" transform="translate(352.2 336) scale(.6)" xlink:href="#New_Symbol"/>
        <use width="12" height="12" transform="translate(16.8 333.5) scale(.6)" xlink:href="#New_Symbol"/>
        <use width="12" height="12" transform="translate(4.2 157) scale(.5)" xlink:href="#New_Symbol"/>
        <use width="12" height="12" transform="translate(744.5 315) scale(.5)" xlink:href="#New_Symbol"/>
        <use width="12" height="12" transform="translate(773.2 218.1) scale(.5)" xlink:href="#New_Symbol"/>
        <use width="12" height="12" transform="translate(845.9 241.6) scale(.5)" xlink:href="#New_Symbol"/>
        <use width="12" height="12" transform="translate(751.9 232.9) scale(.5)" xlink:href="#New_Symbol"/>
        <use width="12" height="12" transform="translate(361.1 315.6) scale(.5)" xlink:href="#New_Symbol"/>
        <use width="12" height="12" transform="translate(340.5 316.5) scale(.5)" xlink:href="#New_Symbol"/>
        <use width="12" height="12" transform="translate(290.3 342.1) scale(.5)" xlink:href="#New_Symbol"/>
        <use width="12" height="12" transform="translate(238.1 390.3) scale(.5)" xlink:href="#New_Symbol"/>
        <use width="12" height="12" transform="translate(169.4 385.5) scale(.5)" xlink:href="#New_Symbol"/>
        <use width="12" height="12" transform="translate(38.7 380.7) scale(1.1)" xlink:href="#New_Symbol"/>
        <use width="12" height="12" transform="translate(898.6 28.2) scale(.5)" xlink:href="#New_Symbol"/>
        <use width="12" height="12" transform="translate(804.6 262.3) scale(.5)" xlink:href="#New_Symbol"/>
        <use width="12" height="12" transform="translate(571 186) scale(.6)" xlink:href="#New_Symbol"/>
        <use width="12" height="12" transform="translate(718.7 255.5) scale(.7)" xlink:href="#New_Symbol"/>
        <use width="12" height="12" transform="translate(438.2 125.3) scale(.5)" xlink:href="#New_Symbol"/>
        <use width="12" height="12" transform="translate(109.4 163.7) scale(.5)" xlink:href="#New_Symbol"/>
        <use width="12" height="12" transform="translate(420.8 137.9) scale(.5)" xlink:href="#New_Symbol"/>
        <use width="12" height="12" transform="translate(439.7 93.2) scale(.5)" xlink:href="#New_Symbol"/>
        <use width="12" height="12" transform="translate(356.4 124.1) scale(.5)" xlink:href="#New_Symbol"/>
        <use width="12" height="12" transform="translate(391.1 103.6) scale(.5)" xlink:href="#New_Symbol"/>
        <use width="12" height="12" transform="translate(416.6 95.1) scale(.5)" xlink:href="#New_Symbol"/>
        <use width="12" height="12" transform="translate(10.2 113.5) scale(.5)" xlink:href="#New_Symbol"/>
        <use width="12" height="12" transform="translate(277.9 173.8) scale(.5)" xlink:href="#New_Symbol"/>
        <use width="12" height="12" transform="translate(338.6 73.3) scale(.5)" xlink:href="#New_Symbol"/>
        <use width="12" height="12" transform="translate(614.1 27) scale(.5)" xlink:href="#New_Symbol"/>
        <use width="12" height="12" transform="translate(720.4 -3.9) scale(.5)" xlink:href="#New_Symbol"/>
      </g>
      <g>
        <circle class="cls-6" cx="690" cy="365.5" r="68.5"/>
        <g>
          <g class="cls-12">
            <path d="M639.1,287.9s-12.1,150.7,116.4,127.8c126.5-22.5-48.3,43.3-48.3,43.3l-150.4-30.4,32.8-141.3,49.4.6Z"/>
            <g>
              <circle class="cls-5" cx="743.3" cy="359.7" r="8.5"/>
              <circle class="cls-5" cx="707.3" cy="399.4" r="8.5"/>
              <circle class="cls-5" cx="735.2" cy="383.1" r="4.5"/>
              <circle class="cls-5" cx="697.5" cy="358.6" r="7.8"/>
              <circle class="cls-5" cx="718.3" cy="340.1" r="3.7"/>
              <circle class="cls-5" cx="651.1" cy="346.4" r="14.3"/>
              <circle class="cls-5" cx="690.1" cy="321.6" r="8.5"/>
              <circle class="cls-5" cx="667.2" cy="394.1" r="10.8"/>
            </g>
          </g>
          <circle class="cls-8" cx="690" cy="365.5" r="68.5"/>
        </g>
      </g>
      <g>
        <path class="cls-4" d="M326.9,675c11.6,22.9,37,31.7,45.9,33.3,8.9,1.6,204.4,53.7,223.9,68.3,25.5,19.1,92.5,13.7,133.1,77.2,42.8,67,222.3,139.4,222.3,139.4v258.8H-64V422.9c55-29.8,405.1,66.6,405.1,66.6-17.5,25-19.6,182.9-11.2,209.8,8.4,26.8,8.6,43.3,8.6,43.3"/>
        <path d="M-100.4,537.4s27.1-37.9,44.3-5.4c17.2,32.4,66.6,92.5,72.7,160,5.9,64.6,10.6,207.6,10.6,207.6,0,0,7-247.9,59.4-260.4,52.4-12.6,122.9-17.2,122.9-17.2l-138.1-229.5-145.5-28-26.5,172.9Z"/>
        <path d="M316.5,584.1s-2.5,3.3-7,9c-4.4,5.7-10.6,14-17.7,24.1-1.8,2.5-3.6,5.2-5.5,7.9-1.9,2.8-3.8,5.6-5.7,8.6-1,1.5-1.9,3-2.9,4.5-.9,1.5-1.9,3.1-2.9,4.6-2,3.1-3.8,6.4-5.7,9.7-1,1.6-1.9,3.3-2.8,5-.9,1.7-1.8,3.4-2.8,5.1-.9,1.7-1.7,3.5-2.6,5.2-.4.9-.9,1.8-1.3,2.6-.4.9-.8,1.8-1.2,2.7-.8,1.8-1.6,3.6-2.3,5.4-.7,1.8-1.3,3.6-2,5.4-.7,1.8-1.2,3.6-1.7,5.4l-.8,2.7-.8,3.3c-.2.9-.6,2.3-1,3.5l-.6,1.8c-.2.6-.4,1.1-.6,1.7-.8,2.2-1.7,4.4-2.6,6.5-1.9,4.2-4.1,8.2-6.5,12-4.7,7.6-9.9,14.3-15.2,20.5-5.3,6.2-10.5,11.9-15.6,17.2-5.1,5.2-9.9,10.2-14.3,14.7-4.4,4.5-8.4,8.7-11.9,12.5-3.5,3.8-6.4,7.1-8.8,9.9-1.2,1.4-2.3,2.7-3.2,3.8-.9,1.1-1.7,2.1-2.3,2.8-1.2,1.6-1.9,2.4-1.9,2.4,0,0,.5-.9,1.5-2.6.5-.9,1.1-1.9,1.8-3.2.7-1.2,1.6-2.7,2.6-4.2,2-3.2,4.4-6.9,7.3-11.2,2.9-4.3,6.3-9.1,10-14.2,3.7-5.1,7.7-10.7,11.9-16.6,4.2-5.9,8.4-12.2,12.5-18.7,4.1-6.6,7.9-13.5,11-20.6,1.5-3.6,2.8-7.2,3.9-10.8.5-1.8,1-3.6,1.3-5.4,0-.4.2-.9.3-1.3l.2-1.2c.1-.8.3-1.6.4-2.7l.3-2.9.5-3.5c.3-2.3.6-4.7,1.1-6.9.5-2.2.9-4.5,1.4-6.7.6-2.2,1.2-4.3,1.7-6.5.3-1.1.6-2.2.9-3.2.3-1,.7-2.1,1-3.1.7-2.1,1.3-4.1,2-6.2.7-2,1.4-4,2.2-6,.7-2,1.4-4,2.2-5.9,1.5-3.8,3-7.6,4.6-11.2.8-1.8,1.5-3.6,2.3-5.4.8-1.8,1.6-3.5,2.3-5.2,1.5-3.4,3.1-6.7,4.6-9.9,1.5-3.2,3-6.2,4.5-9.1,5.8-11.7,11-21.2,14.7-27.8,1.8-3.3,3.3-5.9,4.3-7.7,1-1.7,1.5-2.6,1.5-2.6,5.4-9.6,17.7-13,27.3-7.6,9.6,5.5,13,17.7,7.6,27.3-.5.8-1,1.6-1.5,2.3h0Z"/>
        <g>
          <path class="cls-2" d="M-114.6-457.5L-33.7-6.7c-9,88.8-24.3,257.3-13.6,284.5,14.7,37.2,2.3,135.4,12.4,184.2s51.1,59.2,72.4,75.9c21.3,16.6,68.9,28.6,79,41,10.1,12.4,24.8,36.4,85.5,50.3,60.8,13.9,80.5-24.8,87.5-33.3,7-8.5,27.9-15.1,44.5-32.9s56.1-112.2,68.1-135.1c12-22.8,39.9-63.9,59.6-92.5,19.7-28.6,12.8-52.6,20.9-73.2s37.9-44.5,43.7-63.5c0,0,22.7-52.2,35.4-60,12.7-7.8,29.8-1.6,45.6-4.8,10.9-2.2,26-17.3,28.6-27.3,3-11.3.5-19.7,5-26.8,6-9.4,26.6-9.1,42.7-17,6.6-3.2,12-13.3,16-17.4,13.9-13.9.8-53.4,33.3-51.1s51.1-9.3,80.5-25.6c29.4-16.3,23.2-44.1,25.5-71.2,2.3-27.1,5.4-39.5,24.8-52.6,19.4-13.2,48-1.5,75.9-30.2,27.9-28.6-4.6-73.1,27.9-141.2,32.5-68.1,1.5-112.1,71.2-131.1H-114.6Z"/>
          <path d="M289.4,595.9c7-8.5,27.9-15.1,44.5-32.9,3.6-3.8,8.2-11.2,13.4-20.6-13.2,20.6-47.5,40.5-58.8,33.4-2.5-1.6,1.1-8.6,3.7-20.9s5.7-27.6,5.7-27.6c-3.6,6-5.8,18.6-13.5,27.1-15.7,17.3-9.1,30.8-20.7,47.9-12.1,17.9-37.8,22.4-61.9,26.9,60.8,13.9,80.5-24.8,87.5-33.3Z"/>
          <path d="M93,513s-3.9,8.2-4.2,19.4c-.3,11.3-2.2,10.5-10.3,10.8s-19.2-23.5-31.6-36.2c-12.5-12.7-28.6-18.6-46.7-16.4-17.7,2.1-30.3-13.6-31.1-14.9,14.2,37.2,49.3,47.2,68.4,62.2,21.3,16.6,68.9,28.6,79,41-20.4-30.7-22.7-51.4-23.4-65.9Z"/>
          <path d="M327.1,305.8s3.9-20.9,9.5-36.6c5.7-15.7,10.8-47,11.4-52.9.5-5.9,1.5-15.2,18.1-21.7,0,0-8.4-.7-13.4,3-5,3.7-8.3,5-12,1.9-3.7-3.1-4.3-11-14.4-7.2s-13.9,3.5-13.9,3.5c0,0,13.6,9.9,22.9,11.4,9.3,1.5,9.5,15,4,36.9-5.5,21.9-11,35.4-11.7,45.7s-.5,16-.5,16Z"/>
          <path d="M247.9,276.2s17.8-3.6,21.9-12.4c0,0-2.3,10.8-8.2,12.6s-13.7-.3-13.7-.3Z"/>
          <path d="M300,352c22.8,7.1,31.7-4.1,35.6-15.5,3.9-11.4-2.1-26.8,0-35.6,0,0-3.4,6.5-3.4,14.1,0,7.6-12,8.9-12,8.9,0,0,6.1,6.3,10.2,6.8,4.1.5,1,11.5-1.4,13.7s-4.8,11.4-28.9,7.6Z"/>
          <path d="M227.5,321.6c-2.7,0-8.8-3.6-13.4-3.6s-11.4-13.4-9.8-20.4c1.5-7,18.8-33.2,28.6-33.8,0,0-5.8,3.6-4.4,9.5,1.3,5.9,6.4,13.2-10,17.8-15,4.2-9.3,19.3-4.9,22.9,4.8,3.9,13.4,3.1,13.9,7.5Z"/>
          <path d="M223.9,312c9.8-5.9,15.7,6.2,25,17.3,9.3,11.1,24.8,17.8,39.2,19.1,14.4,1.3,18.3-6.2,26.1-6.7,0,0-.3-6.7-20.7-.1-20.4,6.6-48.3-21.4-51.5-26.7s-8.3-8.9-12.7-6.3c-4.4,2.6-5.4,3.5-5.4,3.5Z"/>
          <path d="M299.9,509.9c10-3.2,16.9-10.8,22.1-14.7,5.2-3.9,20.4-34.5,20.9-40.7.5-6.2,12.1-52.6,13.7-65,1.5-12.4-17.5-37.7-16.5-46.4,0,0,5.5,11.1,14.8,16.4,9.3,5.3,23.4,12.6,12.9,32.3-10.5,19.7-14,45.4-16.3,53.5-2.3,8.1-16.6,39-23.3,46.9-6.6,7.9-7.1,10.7-9.6,12.8-2.6,2.1-18.7,4.9-18.7,4.9Z"/>
          <path d="M115,440.5c-4.6-5.2-19.1-28.4-18.6-39.7.5-11.4,6.7-25,20.1-43.1,13.4-18.1,25.8-46.2,31.2-51.9,5.4-5.7,44.4-25.8,56.3-27.6,0,0-24.2,0-36.1,7.4-11.9,7.4-17,13.2-26.7,18.3s-7.4,21.8-14.5,29.9c-7.1,8-16.6,30.2-23.3,38.6-6.7,8.4-13.3,28.5-9.4,36.2,3.9,7.7,12.8,25.3,16.5,28.2s4.4,3.7,4.4,3.7Z"/>
          <path d="M254.6,197.4c6-1.2,22.6-13.5,24.8-19.5,2.1-6,.4-11.8-3.3-18.2,0,0,16.2,12.8,16.7,17.9.5,5.2,20.4-1.5,25.7,4.1,0,0-13.1,2.7-17.2,10.8-4.1,8.1-16.6,20.8-31.5,22.8-14.9,2-28.3-1.8-40,8-11.6,9.8-32-3.4-37.2-12.9-5.2-9.5-46.1-47.6-46.1-47.6,3.9,3.1,35.2,16.9,53.5,30.4,18.3,13.6,48.4,5.4,54.4,4.2Z"/>
          <path d="M241.5,115.3c-.6-7.2-14.7-25.3-14.7-25.3,0,0,15.1,11,16.9,16,1.7,5-2.2,9.3-2.2,9.3Z"/>
          <path d="M393,193.5s5.8-1.7,22.8,0c0,0-11.9-6.6-15.9-5.4-4,1.2-6.9,5.4-6.9,5.4Z"/>
          <path d="M107,66.4c-4.5,3.3-12,18.6-3.9,20.1,11-1.2,20.1,33.5,32.8,45.3,4.6,4.3,15.5,8.1,24.5,12-16.1-9.7-25.9-19.5-23.3-21.5,8.4-6.7,31.1,20.9,46,28.1,19.3,9.3,39.3,13.2,41.6,12,14.1-7.7-43-60.3-52.6-69.8-9.2-9.1-30-.8-29.6-8.2.7-11.8,37-26.8,59.5-11,0,0-33.4-35-61.3-10.6-6.1,5.3-12.7,1.2-20.9,4.7-8.3,3.5-12.8-1-12.8-1Z"/>
          <path d="M465.9,275.5c2.3-5.7-2.3-14.8-4.5-9.7-2.2,5.2-10.4,4.6-10.4,1.9s-4.2-4.5-.5-10.2c3.7-5.6,1.1-19.5,1.1-19.5-3.6,14.2-95.8-17.5-87.4-10.2,11.7,10.3,21.6,21,29.3,27.6,17.3,14.9,37.2,14.5,43.7,18.6,4.3,2.7,11,4.7-.5,7.2-11.5,2.5-16.9-1.7-26-1.4s-20.1,3.3-34.6-8.4c3.4,13.7,33.4,20.7,45,23.2,11.6,2.5,9.3,13.5,21.9,14.7,12.6,1.2,21.9-12,23.5-18.6,1.6-6.6-3-9.7-.6-15.4ZM442.4,291.5c-3.4,4.3-13.9-4.9-13.9-4.9,0,0,14.8,0,17.9-5.1,0,0-.7,5.7-4,10Z"/>
          <path class="cls-7" d="M349.6,219.4s22.4-9.5,55.5-7.2c33,2.3,46.1,16,46.7,22.8.6,6.8-6.1,25.3-11,27.7-4.9,2.5-41.9-9.7-58.2-21.8-16.3-12.1-23.4-17.7-30.6-16.5s-2.5-5-2.5-5Z"/>
          <path d="M452.6,259.2c4.1-6.8,7.2-16.9,6.8-24.7-.4-7.7-7.2-23.2-12.1-24.9,0,0,12.5,4.7,14.1,11.5,1.5,6.2,4.6.5,5-4.4s-4.7-10.7-10.7-12.1c0,0,12.2,2.1,13.5,8.3,1.4,6.2,1.5,12.2,2.7,17.9,1.3,5.7-1.7,13.8-8.9,19-5.9,4.2-10.5,9.3-10.5,9.3Z"/>
          <path d="M345.3,233.8s-.6,9.8,5.8,16.4,9.7,10.4,9.7,10.4c0,0-6.4-3.7-10.6-3.4s-10-1.5-10.3-5.9,5.3-17.5,5.3-17.5Z"/>
          <path class="cls-7" d="M116.4,91.1c16.1-.5,30.2-1.8,44.9-.5,14.7,1.4,48,13.2,60,28.3,12,15.1,11.6,48.8,14.5,51.1,0,0-6.8-3.1-11.2-7.6-4.4-4.5-22.3-1.9-51.3-24-29-22.1-33-28.6-41.4-34.2-8.4-5.5-7.2-11.7-15.5-13.1Z"/>
          <path d="M69.8,118.6s10.6-3.5,14.5-6c3.9-2.5,9.6-13.3,15.3-14.9,0,0-10.9,1.5-16.1,6.2-5.2,4.6-5.7,10.2-13.7,14.7Z"/>
          <path d="M339.4,153.7s.8-10.8,3.2-19.7,0-25.7,0-25.7c0,0,10.8,7,8.5,18.6-2.3,11.6-5.5,12.5-7.2,18-1.7,5.5-4.5,8.9-4.5,8.9Z"/>
          <path d="M197.9,467s29.3-9.2,51.5-1.1c16.1,5.8,23,22.8,23,22.8,0,0-5.1-6.1-14.2-11.1s-19.1-8.7-23.1-9c-7.8-.6-37.3-1.6-37.3-1.6Z"/>
          <path d="M248.9,372.9c-23.2-9.8-113.3,7-113.3,7,0,0,60.3-16.2,85.3-15.6,25.1.6,27.9,8.6,27.9,8.6Z"/>
          <path d="M295.4,393.5s-10.9-.2-20.2-4.4c-9.3-4.2-12.2-9.7-19.9-13.5,0,0,17,3.6,23.2,9s16.9,9,16.9,9Z"/>
          <path d="M332.2,449.4c-1.4-1.9-2.5-7.2-5.2-15.5s-18.2-33.1-25.2-36.8c0,0,21.1,14.6,25.8,31,4.7,16.4,4.6,21.3,4.6,21.3Z"/>
          <path d="M321.6,453.1c-6.3.4-10.7-7.6-14.8-15.3-4.1-7.7-16.4-20.1-30.4-22.3s-21.3-7.9-27.5-12.6c-6.3-4.6-25.1-11.8-47-15.5-21.9-3.7-41.6,2.5-56.1,2.5s-15.5-3.5-19-4.9c0,0,2.2,11.4,10.7,14.7s-1.6-4.1,2.3-5.4c5.7-2,14-2.7,17.7-3.7,6.2-1.6,34-4.6,45.2-1.8,11.1,2.8,24.4,3.9,34.7,11.8,10.3,7.9,13.7,18.1,27.5,20.8,13.8,2.7,18.3-3,25.1,1.8,6.7,4.8,15.8,16.7,17.8,21,2,4.3,6.1,9.3,9.2,10.1,3.1.7,0,12,0,12,0,0,16.1-13.9,4.6-13.3Z"/>
          <path d="M298,462.3c-5.2,4.3-20.8-.4-25.5-5.2-4.8-4.8-28.8-15.7-45.2-18.5s-22.4-5.3-30.3-10c-7.9-4.6-44.3-22.2-46.7-26.3,0,0,9.4,9.1,23.9,17.9,14.5,8.8,32.8,20.2,41,22.2,8.2,1.9,13.7,9.3,31.5,14.1,17.8,4.8,48.2,17.1,51.4,5.8Z"/>
          <path d="M251.1,179.7c-6.4,3.2-35,2.1-35,2.1,0,0,14.3,6.9,20.2,6.1,5.9-.8,14.9-8.2,14.9-8.2Z"/>
          <path d="M503,232.6c6-13.9,7.8-43.9-10-49.8-17.8-5.9-79.9-7.7-90-24.6,0,0,19-5.8,22,0,3,5.8,23.8,3.6,30.3,4,6.5.4,14.3.3,17.6,3.7,3.4,3.4,24.3-3.9,32.8-2.8,8.5,1.2,19,2.8,19.7,12.6.8,9.8-5.5,33.4.1,24.8,0,0-1.6,7.3-22.7,32.1Z"/>
          <path d="M116,30.3c29-10.8,78.2-18.9,108.2,17.1,9.9,11.8,23.8,17.9,32.6,29.2,20.5,26.5,49.3,44.7,59.4,31.5,0,0-13.4-1.2-19-8.1-5.6-7-7-20-10.1-26.9,0,0-3.3,9.4-6.8,4.3s-6.1-26.6-16.1-32c-10.1-5.4-8.6-29.5-19.6-23.8-11,5.6-15-21.7-25.3-25.6s-18,0-26.1-3.3c-8.1-3.3-14.5-3.7-25.4-1.5-10.8,2.1-23.1,17.8-35.5,28.5-12.4,10.6-16.4,10.5-16.4,10.5Z"/>
          <path d="M375.4,135.3c-4.6,8.1-15.2,15.1-15.2,15.1,0,0,2.9-22.4,11-32.5,0,0,.3,5.7-.8,8.7-1.1,3-5.9,10.1-3.4,10.6,2.5.6,8.4-1.9,8.4-1.9Z"/>
          <path d="M404.9,142.2c-11.4-3.4-22.3,16.4-33.8,17.5,0,0,12.7,1.5,16.9-3.2,4.2-4.6,6.4-9.5,10.1-11.6s6.8-2.7,6.8-2.7Z"/>
          <path class="cls-1" d="M224.7,162.4s7.5-2.3,7.7-11"/>
          <path class="cls-1" d="M363.2,215.3c-5.8,8,1.1,12.6,1.1,12.6"/>
          <path d="M144.6,228.5c-11.2-1.9-33.9-8-51.6,10.3-17.7,18.3-36.8,2.3-41.2-12-4.5-14.3-4.8-42.6,8.4-47.7,13.2-5.1,24.1-14.3,24.1-14.3h0c7.2-5.1,13.3-13.1,21.8-11,19.5,4.8,27.3,1.9,27.3,1.9,0,0-15.8-13.2-17.3-23.6-1.7-11.6-9.3-21.5-7.5-29.2,0,0-19.5,12.8-23.8,21.3-4.3,8.5-10.1,14.9-18.6,21.5-8.5,6.6-25.2,11.2-32.4,24.4-7.2,13.2-19.5,25.6-20.3,45.7-.9,20.1-2.6,36.4,13.3,47.5,15.8,11.1,18.8,32.8,30.9,49,4.1,5.5,7.7,48.4,5.4,57.7-2.3,9.3-5.4,19.7-5.4,19.7,0,0,9.2-17.8,11.5-28.8,2.2-10.9,6.4-39.2,10.3-71.5,2.8-23.6,40.7-35.9,56.3-41,25.1-8.3,43.9-16,43.9-16,0,0-23.8-1.9-35-3.9Z"/>
          <path d="M352.5,532.7c18.3-35.4,41-88.5,49.6-104.8,12-22.8,39.9-63.9,59.6-92.5,3.3-4.7,5.8-9.3,7.8-13.8-25.5,32.1-40.6,11.6-58.6,27-18,15.4-6,37.9-17.8,61.5-6.6,13.2-17.8,56.9-42.3,79.7,0,0,8.7-3.1,15.4-11.1,6.6-8,22.9-45.3,24.8-38.2,1.9,7.1-24.4,53.9-38.4,92.2h0Z"/>
          <path d="M338.6,514.2c-1.2,3.5-4.4,10.8-8.5,14.6s-21,2.1-23.8,2.3c0,0,11.4,3.2,14.8,5.3s11.8,4,14.6-3.7c2.7-7.7,2.9-18.4,2.9-18.4Z"/>
          <path d="M55,415.9c-1.3,5.9-2,40.8,2.7,45.2,7.6,7.3,16.6,11.4,16.6,11.4,0,0-20.2-2.4-27.3-7.7-7.1-5.3,1.3-35,2.2-39.5s5.8-9.5,5.8-9.5Z"/>
          <path d="M122,8.8c-31.9,24-27.5,39.4-37.3,48.3-16.9,15.3-25.8-4.7-33.5,27.6-7.7,32.1,7.9,57-23,77.9-20.5,13.9-41.1,43.3-41.1,57.2V-99h181.9s-13.9,8-26.8,40.5c-12.9,32.5,7.1,46.8-20.1,67.3Z"/>
          <path d="M25.3,270.3c2.1,12.7,3.4,36.2-.5,45.3-3.9,9.2,6.8,41.6,7.9,56.5s12.6,33.4,12.6,33.4c-9.5-11.8-20.8-21.8-23-33.7s-18.2-46.7-7.5-62.8c11.1-17,10.6-38.7,10.6-38.7Z"/>
        </g>
        <g>
          <path class="cls-2" d="M561.3,1307.1c9.2,16.3,42.2,18,82.8,12.3,40.6-5.7,48.6-39.9,48.6-39.9,2.3-6.2,41.7-13.1,41.7-13.1,17.7,2.3,50.1,26.2,64.9,27.8,14.8,1.5,77.3-8.4,99.9-46.8,22.6-38.4-5.1-81.3,27.8-95.7,32.9-14.4,60.7-54.5,72-118.3,11.3-63.8-64.8-119.3-66.9-153.3s-29.3-62.5-42.7-71c-13.4-8.5-6.9-66.6-7.7-83.1-.8-16.5-9.8-23.9-18.8-29.1-9-5.1-31.4-2.3-58.4-1.5-27,.8-36.3,27.8-42.4,42.4-6.2,14.7-3,102-15.2,123.7-8.7,15.6-50.4,64.3-58.6,105.4-8.2,41.1-7.2,73-7.2,73,0,0-32.4,13.4-43.2,35.7-10.8,22.4-62.5,21.6-94.1,64-31.6,42.4-34.2,102.6-27.1,124.2,7.1,21.6,33.6,23.4,44.6,42.9Z"/>
          <path class="cls-1" d="M736.3,903c15-15.4,25.8-21.6,39.3-22,13.5-.4,42-12.3,56.7-22.4"/>
          <path class="cls-1" d="M750.6,907.7c9.8-6.9,24.7-14.7,31.6-13.6,6.9,1,24.2,3.4,32.7,0,8.5-3.5,9.5-7.1,13.1-5.1"/>
          <path class="cls-1" d="M681.1,1040.1c.8,9.3-8.7,16.7-10.2,20.9"/>
          <path class="cls-1" d="M677.3,1074.1s50.3-30.3,77.5-36.5c27.3-6.2,72.4-22.1,77.5-31.9"/>
          <path class="cls-1" d="M879,814.7c4.2,4.2,12.3,15-9.3,29.7"/>
          <g>
            <path class="cls-9" d="M767.1,751.6c2.7,7.7,6.9,51.1,22.8,63.1,7.7,5.8,46.3,13.5,59.8,7.7,13.5-5.8,22.8-35.4,24.7-56.7,1.4-15.4,2.5-30,2.5-30"/>
            <path d="M767.1,751.6s.3.8.7,2.4c.4,1.6.9,3.9,1.6,6.9.6,3,1.4,6.6,2.3,10.8,1,4.1,2.1,8.8,3.6,13.8,1.5,5,3.3,10.4,5.9,15.7,1.3,2.7,2.8,5.3,4.6,7.7.9,1.2,1.9,2.4,3.1,3.4.5.5,1.2,1,1.7,1.4.7.5,1.3.8,2,1.1,2.8,1.3,6,2.3,9.2,3.2,3.2.9,6.5,1.6,9.9,2.3,6.7,1.2,13.6,2.2,20.5,2.5,3.4.1,6.9.1,10.2-.3,1.7-.2,3.3-.5,4.9-.9.4-.1.8-.2,1.1-.4l.6-.2h.1c0,0,0,0,0,0h0s.3-.2.3-.2c.7-.3,1.4-.7,2-1.2,2.6-1.8,4.8-4.3,6.6-7,1.9-2.7,3.4-5.5,4.8-8.4,2.8-5.8,4.8-11.8,6.4-17.5,1.6-5.7,2.7-11.3,3.5-16.4.4-2.6.7-5,.9-7.4.3-2.4.5-4.6.7-6.7.5-4.2.9-7.9,1.2-11,.4-3,.6-5.4.8-7.1.2-1.6.3-2.5.3-2.5,0,0,0,.9-.1,2.5,0,1.6-.2,4-.4,7.1-.2,3.1-.4,6.8-.6,11-.1,2.1-.3,4.4-.4,6.8-.1,2.4-.3,4.9-.6,7.5-.6,5.2-1.6,10.9-3.1,16.8-1.5,5.9-3.4,12-6.2,18.1-1.4,3-3,6.1-4.9,8.9-2,2.9-4.3,5.6-7.4,7.8-.8.5-1.6,1-2.5,1.4h-.3c0,.1,0,.2,0,.2h-.1s-.2.1-.2.1l-.7.3c-.4.2-.9.3-1.3.4-1.8.5-3.6.8-5.4,1-3.6.4-7.1.4-10.7.3-7.1-.3-14.1-1.3-20.9-2.7-3.4-.7-6.7-1.5-10-2.5-3.3-1-6.5-2.1-9.5-3.6-.8-.4-1.6-.9-2.2-1.3-.8-.6-1.4-1.1-2-1.7-1.2-1.2-2.3-2.4-3.2-3.8-1.9-2.6-3.4-5.4-4.6-8.2-2.5-5.6-4.2-11-5.5-16.1-1.3-5.1-2.3-9.8-3.1-14-.8-4.2-1.4-7.9-1.9-10.9-.5-3-.9-5.4-1.2-7-.3-1.6-.6-2.4-.6-2.4Z"/>
          </g>
          <path d="M789.3,732.1s4.8,27.8,26.9,31.6c22.1,3.8,41.8-4.2,45.6-12.7,3.8-8.6,6-24.1,6-24.1,0,0-6.5,13.3-25.9,13.6-8,.1-28,1.3-35.5-.6-10.7-2.8-17.1-7.8-17.1-7.8Z"/>
          <text class="cls-11" transform="translate(106.5 643)"><tspan x="0" y="0">中秋三大</tspan><tspan x="0" y="216">恐怖奇譚</tspan></text>
          <g>
            <path class="cls-9" d="M677.3,1250.2c-.5-13.1-3.7-23-5.4-41.9-1.8-20.5-9.3-50.4-11.3-65.8-2.1-15.4-7.6-74.4-14.7-84.1-7.1-9.6-26.7-23.1-48.9-15.9-22.1,7.2-36,27.5-37.5,59.1-1.5,31.6.2,49.5,0,58.4-.5,21.3,2.3,86.7,1.3,94.4"/>
            <path d="M677.3,1250.2s0-.5,0-1.4c0-.9-.2-2.2-.4-4-.2-1.7-.5-3.9-.9-6.4-.4-2.5-.9-5.4-1.5-8.6-1.2-6.4-2.4-14.3-3.3-23.3-1-9-2.9-19.1-5.1-30-1.1-5.5-2.3-11.2-3.5-17.1-1.2-5.9-2.4-12-3.3-18.4-1.6-12.7-3.2-26.1-5.1-40-1-6.9-2-13.9-3.3-21-.7-3.5-1.4-7-2.3-10.5-.4-1.7-.9-3.5-1.5-5.2-.6-1.7-1.2-3.4-2-4.7-1.9-2.8-4.5-5.3-7.3-7.6-2.8-2.2-5.9-4.1-9.1-5.7-3.2-1.6-6.7-2.8-10.2-3.5-.9-.2-1.8-.4-2.6-.5l-2.7-.3c-.9,0-1.8,0-2.7-.1h-1.3s-1.3,0-1.3,0c-3.6,0-7.2.9-10.5,1.9l-2.6,1c-.4.2-.9.3-1.3.5l-1.2.6-2.4,1.1-2.3,1.3-1.2.7-1.1.8-2.2,1.5-2.1,1.7-1,.9-1,1-1.9,1.9-1.7,2c-1.2,1.3-2.2,2.9-3.2,4.3-4,6-6.6,12.7-8.4,19.5-1.8,6.9-2.6,13.8-2.9,20.8-.7,13.9-.8,27.4-.5,40.2.1,6.4.4,12.7.2,18.7-.1,6,0,11.8,0,17.4.3,22.4.5,41,.7,54,0,6.5,0,11.7,0,15.1,0,1.7,0,3.1-.2,4,0,.9-.1,1.4-.1,1.4,0,0,0-.5,0-1.4,0-.9,0-2.2,0-4,0-3.5-.2-8.6-.4-15.1-.2-6.5-.5-14.4-.8-23.5-.3-9.1-.7-19.3-1-30.5-.1-5.6-.3-11.4-.2-17.5.1-6-.3-12.2-.5-18.6-.5-12.8-.6-26.4,0-40.4.3-7,1.1-14.2,2.9-21.3,1.8-7.1,4.5-14.1,8.7-20.4,1.1-1.5,2.1-3.1,3.4-4.5l1.8-2.2,2-2,1-1,1.1-.9,2.2-1.8,2.3-1.7,1.2-.8,1.2-.7,2.5-1.4,2.6-1.2,1.3-.6c.4-.2.9-.3,1.3-.5l2.6-1c1-.3,1.9-.5,2.8-.8.9-.3,1.9-.5,2.8-.7l2.9-.5c1-.1,1.9-.1,2.9-.2h1.4c0,0,1.4,0,1.4,0,1,0,1.9,0,2.9.1l2.9.4c1,0,1.9.4,2.8.6,3.8.8,7.4,2.1,10.8,3.8,3.4,1.7,6.7,3.7,9.6,6.1.7.6,1.5,1.2,2.2,1.8.7.7,1.4,1.3,2.1,2,.6.7,1.3,1.4,1.9,2.2l.9,1.1.2.3h.1c0,.1.1.3.1.3l.4.7c1.1,1.8,1.7,3.6,2.3,5.3.6,1.8,1.1,3.6,1.5,5.4.9,3.6,1.6,7.1,2.2,10.7,1.3,7.1,2.3,14.2,3.3,21.1,1.9,13.9,3.2,27.3,4.7,40,.7,6.3,1.9,12.4,3,18.3,1.1,5.9,2.2,11.6,3.3,17.1,2.1,11,3.7,21.1,4.5,30.2.7,9.1,1.8,16.9,2.8,23.3,1,6.4,1.7,11.5,2,15,.1,1.7.2,3.1.2,4,0,.9,0,1.4,0,1.4Z"/>
          </g>
          <path d="M649.4,1152.9c-1.6-12.1-5.9-58.2-11.5-65.7s-20.9-18.1-38.2-12.5c-17.3,5.6-28.1,21.5-29.3,46.2-1.2,24.7.2,38.7,0,45.6,0,0,2.5-49.5,19.6-54.5,17.1-5,33.3-13.1,42-4.4,8.8,8.7,17.4,45.2,17.4,45.2Z"/>
          <g>
            <path class="cls-9" d="M752.9,1234.5c1-4.1,2.8-11.6,0-17.5s-21.9-35-27.3-50.4-20.3-76.9-21.6-91.6c-1.3-14.7-15.9-39-14.2-55,1.4-12.5,18.5-30.3,33.9-35.3,15.4-5,49.8-6.6,56.7,3.7,6.9,10.2,19.5,39.8,22.3,51.9,2.8,12.1,28.5,47,37,58.9,8.5,11.8,44.5,45.3,50.4,70.5"/>
            <path d="M752.9,1234.5s.1-.5.4-1.5c.2-1,.6-2.5.8-4.5.2-2,.4-4.5,0-7.4-.3-1.4-.7-2.9-1.5-4.4-.8-1.5-1.7-3-2.7-4.6-3.9-6.4-8.7-14.2-14-23.3-2.6-4.6-5.3-9.4-7.9-14.8-.7-1.3-1.2-2.7-1.9-4.1-.3-.7-.6-1.4-.8-2.1-.1-.4-.3-.7-.4-1.1l-.4-1.1c-.5-1.5-1-2.9-1.4-4.5-.5-1.5-.9-3.1-1.4-4.6-3.6-12.4-7.1-25.9-10.5-40.3-1.7-7.2-3.5-14.6-5.1-22.2-.4-1.9-.8-3.8-1.2-5.7-.4-1.9-.7-3.9-1.1-5.8-.3-2-.7-3.9-.9-6l-.2-1.5-.2-1.5c-.1-1-.3-1.9-.5-2.9-1.8-7.6-5-15.2-7.8-23.1-1.4-3.9-2.8-7.9-3.9-12-1.1-4.1-2-8.4-2-12.8v-1.7c0,0,.1-.8.1-.8v-.2s0-.3,0-.3v-.4c.3-1,.4-2.1.8-3.2.2-.6.3-1.1.5-1.7l.7-1.5c.4-1,1-2,1.5-3,2.1-3.9,4.8-7.4,7.8-10.6,3-3.2,6.3-6.1,9.8-8.7,3.5-2.6,7.4-4.9,11.5-6.5,2.1-.8,4.2-1.5,6.3-2,2.1-.5,4.3-.9,6.4-1.3,4.3-.7,8.6-1.1,12.9-1.4,4.3-.2,8.7-.2,13,0,4.3.3,8.6.9,12.8,2.2,2.1.7,4.2,1.5,6.1,2.8.9.7,1.9,1.4,2.6,2.4l.3.4s.1.2.1.2v.2c.1,0,.5.7.5.7l.8,1.3c2.2,3.7,4.1,7.4,5.9,11.2,3.6,7.5,6.8,15.1,9.7,22.7,1.4,3.8,2.8,7.6,4,11.4.3,1,.6,1.9.8,2.9l.4,1.5v.4c.1,0,.1.2.1.1v.2c0,0,.3.7.3.7l.4,1.4c.1.5.3.9.5,1.3.4.9.7,1.7,1.1,2.6,3.3,6.9,7.4,13.3,11.3,19.5,8,12.4,16.1,23.7,23.6,34.2,3.9,5,8.1,9.6,12,14,3.9,4.4,7.5,8.6,10.9,12.7,6.7,8.1,12.2,15.4,16.2,21.8,4.1,6.3,6.6,11.7,8,15.5.4.9.6,1.8.9,2.5.2.7.4,1.4.5,1.9.3,1,.4,1.5.4,1.5,0,0-.1-.5-.4-1.5-.1-.5-.3-1.1-.6-1.8-.2-.7-.5-1.6-.9-2.5-1.5-3.7-4.2-9-8.3-15.3-4.1-6.3-9.7-13.5-16.6-21.4-3.4-4-7.2-8.1-11.1-12.4-2-2.2-4-4.4-6.1-6.7-2.1-2.3-4.2-4.7-6.2-7.2-7.6-10.4-15.9-21.7-24.1-34-4.1-6.2-8.2-12.6-11.7-19.6-.5-.9-.8-1.8-1.2-2.8-.2-.5-.4-1-.6-1.4l-.4-1.4-.2-.7v-.2c0,0-.1-.3-.1-.3v-.3c0,0-.5-1.4-.5-1.4-.2-.9-.6-1.9-.8-2.8-1.2-3.7-2.5-7.5-4-11.2-2.9-7.5-6.1-15-9.7-22.4-1.8-3.7-3.7-7.4-5.8-10.9l-.8-1.3-.4-.7v-.2c-.1,0-.1,0-.2-.1l-.2-.3c-.5-.7-1.3-1.3-2-1.9-1.6-1.1-3.4-1.8-5.4-2.5-3.9-1.2-8-1.7-12.2-2.1-4.2-.3-8.4-.3-12.6,0-4.2.2-8.4.7-12.6,1.4-4.2.7-8.3,1.6-12.1,3.1-3.8,1.5-7.5,3.7-10.9,6.1-3.4,2.5-6.6,5.3-9.4,8.3-2.9,3.1-5.4,6.4-7.4,10-.5.9-1,1.8-1.4,2.7l-.6,1.4c-.2.5-.3.9-.4,1.4-.1.5-.3.9-.4,1.4l-.3,1.6v.4c0,0,0,0,0,0v.2s0,.8,0,.8v1.5c0,4,.8,8.1,1.8,12.1,1.1,4,2.4,7.9,3.8,11.8,2.7,7.8,5.9,15.4,7.8,23.5.2,1,.5,2.1.6,3l.2,1.5.2,1.5c.2,1.9.5,3.9.8,5.8.7,3.9,1.4,7.7,2.2,11.5,1.5,7.6,3.2,15,4.8,22.2,3.3,14.4,6.6,28,10,40.4.4,1.6.9,3.1,1.3,4.6.4,1.5.9,3,1.4,4.5l.4,1.1.4,1.1c.3.7.5,1.4.8,2.1.6,1.4,1.1,2.7,1.8,4.1,2.4,5.3,5,10.2,7.5,14.8,5,9.2,9.7,17,13.5,23.5.9,1.6,1.8,3.2,2.6,4.7.8,1.5,1.2,3.1,1.4,4.5.4,2.9.2,5.4-.1,7.4-.3,2-.7,3.5-.9,4.5-.3,1-.4,1.5-.4,1.5Z"/>
          </g>
          <path class="cls-1" d="M717,1135.7c-4.2,5-12.5,1.1-21.2,11.7-8.7,10.5-12.9,30.3-15.7,36.2-2.8,5.9-5.4,15.9,3.3,24.7"/>
          <g>
            <path class="cls-9" d="M922.9,1099.8s-9.3-15.4-20.1-25.7c-10.8-10.3-29.3-41.7-33-51.9-3.7-10.3-35.4-50.9-41.8-55.5-6.4-4.6-19.8-30.3-17.7-51.4,2.1-21.1,27.3-38.1,34.7-44,7.5-5.9,21.9-5.4,30.1,0s36,33.7,60.7,52.7c24.7,19,50.2,59.1,54,66.3,9.1,17.4,11.5,21.7,10.4,32.4"/>
            <path d="M922.9,1099.8s-1-1.7-3.2-4.8c-2.1-3.1-5.3-7.5-9.8-12.9-2.3-2.7-4.9-5.5-7.9-8.4-3-3-5.9-6.6-8.8-10.4-5.8-7.9-11.8-17.1-17.7-27.6-1.5-2.6-2.9-5.3-4.3-8.1-.7-1.4-1.4-2.8-2-4.4l-.2-.6v-.2c0,0-.2-.3-.2-.3l-.5-1.1c-.3-.8-.7-1.4-1.1-2.1-1.5-2.7-3.3-5.5-5.2-8.2-1.9-2.7-3.8-5.5-5.8-8.2-4-5.5-8.3-11.1-12.8-16.7-2.2-2.8-4.6-5.6-6.9-8.4-2.4-2.8-4.8-5.6-7.4-8.2-.3-.3-.6-.6-1-.9l-1.1-.9-1.1-.9c-.4-.3-.7-.7-1.1-1.1-1.4-1.5-2.5-3.1-3.5-4.7-2.1-3.3-3.9-6.7-5.5-10.3-1.6-3.6-2.9-7.3-4.1-11-1.1-3.8-2-7.7-2.6-11.6-.1-1-.2-2-.3-3l-.2-1.5v-1.5c0-1-.1-2-.1-3l.2-3.1c0-.3,0-.5,0-.8v-.7c.2-.5.2-1,.3-1.5l.3-1.6c.1-.5.3-1,.4-1.5.6-2,1.3-3.9,2.1-5.8,3.5-7.5,8.8-13.8,14.6-19.4,2.9-2.8,6-5.4,9.1-7.9,1.6-1.3,3.2-2.5,4.8-3.7l2.4-1.8,1.2-.9,1.3-.9c.4-.3.9-.6,1.4-.8.2-.1.5-.3.7-.4l.7-.3c1-.4,2-.7,3-1.1,2-.5,4.1-.9,6.2-1,4.1-.2,8.3.3,12.2,1.5,2,.6,3.9,1.4,5.6,2.5.2.1.4.2.7.4l.6.4,1.2.9,2.4,1.9c3,2.5,5.9,5.1,8.7,7.7,5.7,5.2,11.3,10.3,16.8,15.4,5.5,5,11,9.9,16.4,14.6,2.7,2.3,5.4,4.7,8.1,6.9,2.7,2.3,5.4,4.3,8.1,6.6,2.7,2.1,5.2,4.5,7.6,6.8,2.4,2.4,4.7,4.7,6.9,7.1,2.2,2.4,4.3,4.8,6.3,7.2,2,2.4,4,4.7,5.8,7.1,3.7,4.7,7.1,9.3,10.3,13.8,3.1,4.5,6,8.8,8.6,12.9,2.6,4.1,5,8,6.9,11.8,1.9,3.7,3.7,7.2,5.2,10.4,1.5,3.2,2.7,6.1,3.5,8.7.8,2.6,1,4.9,1.1,6.8,0,1.9,0,3.3-.2,4.3,0,1-.1,1.5-.1,1.5,0,0,0-.5.1-1.5,0-1,.1-2.4,0-4.3,0-1.9-.4-4.2-1.3-6.7-.8-2.6-2.1-5.4-3.7-8.5-1.6-3.1-3.4-6.5-5.4-10.2-2-3.7-4.5-7.5-7.1-11.5-5.4-8.1-11.8-17-19.3-26.2-1.8-2.3-3.9-4.6-5.9-7-2.1-2.3-4.1-4.7-6.4-7-2.2-2.4-4.5-4.6-6.9-6.9-2.4-2.2-4.9-4.5-7.6-6.6-2.6-2.1-5.5-4.2-8.2-6.5-2.8-2.2-5.5-4.5-8.3-6.8-5.5-4.6-11-9.6-16.6-14.6-5.5-5-11.2-10.2-16.8-15.3-2.9-2.6-5.7-5.2-8.7-7.6l-2.2-1.8-1.2-.9-.6-.4-.5-.3c-1.5-1-3.3-1.7-5.1-2.2-3.6-1.1-7.4-1.6-11.2-1.4-1.9.1-3.7.4-5.5.9-.9.3-1.8.5-2.6.9l-.6.3-.6.3c-.4.2-.7.4-1.2.7-6.3,4.7-12.7,9.5-18.3,15-5.7,5.4-10.8,11.5-14.1,18.5-.8,1.7-1.5,3.5-2,5.4-.1.5-.3.9-.4,1.4l-.3,1.4c-.1.4-.1,1-.2,1.4v.7c-.1.1-.1.5-.1.7l-.2,2.9c0,1,0,1.9,0,2.9v1.4s.2,1.4.2,1.4c.1,1,.2,1.9.3,2.9.6,3.8,1.4,7.6,2.5,11.2,1.1,3.7,2.4,7.3,3.9,10.7,1.5,3.5,3.3,6.8,5.2,10,1,1.5,2.1,3.1,3.2,4.4.3.3.5.6.9.9l1.1.9,1.1.9c.4.3.7.7,1.1,1,2.7,2.7,5.1,5.5,7.5,8.4,2.4,2.8,4.7,5.7,6.9,8.5,4.4,5.7,8.7,11.3,12.7,16.9,2,2.8,3.9,5.6,5.8,8.4,1.8,2.8,3.6,5.5,5.2,8.5.4.7.8,1.5,1.1,2.2l.5,1.1v.3c.1,0,.2.3.2.3l.2.5c.5,1.4,1.2,2.9,1.8,4.3,1.3,2.8,2.7,5.5,4.1,8.1,2.8,5.2,5.8,10.2,8.6,14.8,2.9,4.6,5.7,9,8.5,12.9,2.8,3.9,5.6,7.5,8.5,10.5,3,3,5.6,5.9,7.8,8.6,4.4,5.4,7.5,10,9.5,13.1,2,3.1,3,4.9,3,4.9Z"/>
          </g>
          <path class="cls-1" d="M902.8,1074.1c-1,12.9-24,12.3-25.9,46.3"/>
          <path class="cls-1" d="M865.1,1013.6c-10.1.2-29.7,20.8-37.2,50.1"/>
          <path d="M926.3,919.4c-16.5-6.7-41.5-38.6-56.7-35.5-15.2,3.2-39.3,20.6-38,37.4,1.3,16.8,45,71.9,45,71.9,0,0-29.5-61.4-22.5-69.7s13-21.9,28.2-18.4,44,14.3,44,14.3Z"/>
          <path d="M740.6,1008.2c-21.8,9.6-28.3,24.6-23.6,47.9,4.6,23.3,12.5,49.9,11.2,59.9,0,0,4.7-36.2,6.2-54.9,1.5-18.7,7.7-28.7,24.8-29.2s28.5,23.8,38.5,30.2c0,0-15.4-34.2-19.2-42.1-3.8-7.8-14.7-21.9-37.8-11.8Z"/>
        </g>
        <path d="M850,50v1100H50V50h800M900,0H0v1200h900V0h0Z"/>
      </g>
      <g>
        <path class="cls-3" d="M-118.9,868.7s62.2-56.2,82.9-66.1c20.7-9.9,10.4-40.9,51.8-46.4,41.4-5.4,32.6,12.8,84.1,10.4,51.6-2.5,62.7-8.9,71.8,4.9s7.2,27.6,0,39.2c-7.2,11.6-34.8,42.7-65.4,54.3-30.6,11.6-50.6.1-54.3,2.7-27.6,19.5-25.4,49.8-37.2,60.7,0,0,22.7,25.2,43.9,24.7,21.2-.5,53.8-7.9,98.7-3,44.9,4.9,114.5-28.6,134.7-25.7,20.2,3,79.9-33.5,104.1-38.5,24.2-4.9,67.1-20.2,88.6-18s30.3,30.3,31.8,39.2c1.5,8.9.5,26.9-17.3,34.8-17.8,7.9-50.1,30.6-67.3,35.3-17.3,4.7-53.8,24.2-73.3,41.9-19.5,17.8-22,28.1-59.2,30.1-37.2,2-46.9-6.9-82.4,4.9s-78,29.6-78,29.6c0,0,168.2,28.6,178.1,26.6s17.8-8.4,24.2-6.9,40.9-39,75.5-45.4c0,0,34.5-35.5,72-52.8,37.5-17.3,74.5-16.8,84.4-2,9.9,14.8,20.7,33.5,0,45.9-20.7,12.3-65.6,67.6-67.6,69.1,0,0,41.9-3,44.6,18.3,2.7,21.2-9.9,29.8-20,36.3-10.1,6.4-32.6,30.8-32.6,30.8,0,0,20.7,8.1,12.8,21.2-7.9,13.1-23.7,33.5-42.4,41.4-18.7,7.9-37.5,42.7-63.4,44.9-25.9,2.2-84.4,47.4-121.4,46.6-37-.7-339.2,33.8-415.2-5.7-76-39.5-34.5-448-34.5-448l47.4-35.5Z"/>
        <path d="M21.5,961c11.4,10.1,105.5,17.8,138.8,6.4,33.3-11.4,61.2-14.8,61.2-14.8,0,0-100.1,33.8-104.5,35.3-19.2,6.4-65.5-.7-76-6.4s-19.5-20.5-19.5-20.5Z"/>
        <path d="M499.8,1132.9s32.3-2.3,34.4,14.1c2.1,16.3-7.6,23-15.4,27.9-7.8,4.9-25.1,23.7-25.1,23.7,0,0,19.7-21.3,23.2-32.9,5.8-19.2-17.1-32.8-17.1-32.8Z"/>
        <path d="M496.5,1015c27.5-12.7,54.6-12.3,61.8-1.4,7.2,10.8,15.2,24.6,0,33.6-15.2,9-48.1,49.5-49.5,50.6,0,0,30.7-39.6,36.8-55.8s-3.2-24.7-19.6-25.7-29.6-1.3-29.6-1.3Z"/>
        <path d="M431.9,967.3c13.8-3.8,39.7-21.9,53.9-28.2s15-20.7,13.8-27.8c-1.2-7.1-8.3-29.6-25.5-31.4-17.2-1.8-51.6,10.5-70.9,14.4,0,0,56.2-3,63.4,4.6,7.2,7.6,18.1,23.5,12.3,32.8-5.9,9.2-47,35.8-47,35.8Z"/>
        <path d="M51.5,870.1s-.2,0-.7-.3c-.2,0-.5-.2-.8-.3-.3-.1-.6-.2-1-.4-.4-.2-.8-.4-1.3-.6-.4-.2-.9-.5-1.4-.7-.5-.2-.9-.5-1.4-.8-.5-.3-.9-.6-1.4-1-.5-.3-.9-.7-1.3-1.1-.4-.4-.8-.8-1.1-1.1-.3-.4-.7-.8-.9-1.2-.3-.4-.5-.8-.7-1.1-.8-1.4-1-2.5-1-2.5,0,0,.1.2.4.6.3.4.7.9,1.2,1.4.3.3.6.5.9.8.3.3.7.5,1.1.8.4.2.8.5,1.3.7.4.2.9.4,1.4.6.5.2.9.3,1.4.5.5.1.9.3,1.4.3.5,0,.9.2,1.3.2.4,0,.8.1,1.1.1.3,0,.7,0,1,.1.3,0,.6,0,.8,0,.5,0,.7,0,.7,0l-1.1,4.9Z"/>
        <path d="M47.4,802.1s-.2.2-.5.6c-.3.4-.8.9-1.4,1.5-1.3,1.3-3.2,2.9-5.7,4.7-1.2.9-2.6,1.8-4.1,2.8-1.5,1-3,1.9-4.6,3-3.2,2-6.6,4.1-9.8,6.4-1.6,1.1-3.2,2.3-4.8,3.4-1.5,1.2-3,2.4-4.3,3.6-1.3,1.2-2.6,2.5-3.7,3.7-1.1,1.2-2.1,2.5-2.9,3.7-.8,1.2-1.5,2.4-2,3.5-.2.5-.5,1.1-.7,1.5-.2.5-.4.9-.5,1.4-.3.8-.5,1.5-.6,1.9-.1.5-.2.7-.2.7,0,0,0-.3,0-.7,0-.5,0-1.2,0-2.1,0-.5.1-1,.2-1.5.1-.5.2-1.1.4-1.7.1-.6.4-1.3.6-2,.2-.7.5-1.4.8-2.1.3-.7.7-1.5,1.1-2.2.4-.7.9-1.5,1.4-2.2,1-1.5,2.2-3,3.6-4.4,1.4-1.4,2.8-2.8,4.4-4.1,1.6-1.3,3.2-2.5,4.9-3.7,1.7-1.2,3.4-2.2,5.2-3.3,1.7-1,3.5-2,5.1-2.9,3.4-1.8,6.5-3.3,9.2-4.7,2.7-1.4,4.9-2.5,6.4-3.4.7-.4,1.4-.8,1.8-1.1.4-.3.6-.4.6-.4Z"/>
        <path d="M12.8,929.9s-.1-.2-.3-.4c-.1-.1-.2-.3-.4-.5-.2-.2-.3-.5-.5-.8-.3-.6-.8-1.2-1.3-2-.5-.7-1-1.5-1.6-2.4-.6-.8-1.4-1.7-2.2-2.6-.4-.4-.9-.9-1.3-1.3-.5-.4-1-.9-1.5-1.3-.5-.5-1-.9-1.6-1.3-.6-.4-1.1-.9-1.7-1.3-1.2-.8-2.4-1.7-3.6-2.4l-1.9-1.2c-.6-.4-1.3-.7-1.9-1.1-1.3-.7-2.5-1.4-3.8-2-1.2-.6-2.4-1.3-3.6-1.8-1.2-.5-2.3-1-3.3-1.5-2-.9-3.8-1.6-5-2.1-1.2-.5-1.9-.8-1.9-.8,0,0,.7.2,2,.6,1.2.4,3.1.9,5.2,1.6,1.1.4,2.2.7,3.4,1.2,1.2.4,2.5.9,3.8,1.4,1.3.5,2.7,1,4,1.6.7.3,1.4.6,2.1.9.7.3,1.4.7,2,1,1.4.6,2.7,1.4,4,2.1.7.4,1.3.8,1.9,1.2.6.4,1.3.8,1.8,1.2.6.4,1.2.8,1.7,1.3.5.4,1.1.9,1.6,1.3,1,.9,2,1.8,2.8,2.7.8.9,1.5,1.7,2.1,2.5.5.7,1,1.3,1.4,1.8.2.2.3.4.5.6.2.2.3.4.4.5.2.3.4.4.4.4l-3.9,3.1Z"/>
        <path d="M269.4,967.4s0,.2.2.5c.1.3.2.7.5,1.3.1.3.2.5.4.9.2.3.3.6.5,1,.4.7.8,1.4,1.3,2.2.5.8,1.1,1.6,1.7,2.5.7.9,1.4,1.7,2.1,2.6.8.9,1.6,1.8,2.4,2.7.9.9,1.7,1.8,2.6,2.7,3.6,3.7,7.3,7.3,9.7,10.6.6.8,1.1,1.6,1.5,2.3.4.7.7,1.4.9,1.9.1.3.2.5.2.8,0,.2.1.4.1.6,0,.3,0,.5,0,.5,0,0,0-.1-.3-.4-.2-.3-.5-.6-.8-1-.4-.4-.9-.9-1.5-1.4-.6-.5-1.3-1.1-2-1.7-3-2.4-7.2-5.6-10.9-9.4-.9-1-1.8-2-2.7-3-.8-1-1.6-2.1-2.3-3.1-.7-1.1-1.3-2.1-1.9-3.2-.5-1.1-.9-2.1-1.3-3.1-.3-1-.5-1.9-.6-2.7,0-.4-.1-.8-.1-1.2,0-.4,0-.7,0-1,0-.6,0-1,0-1.4,0-.3,0-.5,0-.5Z"/>
        <path d="M140.7,1085.7s-2.5,1.8-6.3,4.6c-.9.7-1.9,1.4-2.9,2.3-1,.8-2.1,1.7-3.2,2.6-.6.5-1.1,1-1.6,1.5-.5.5-1.1,1-1.6,1.5-1.1,1-2.1,2.2-3.1,3.3-.9,1.2-1.9,2.4-2.8,3.6-.9,1.2-1.6,2.5-2.4,3.7-.7,1.2-1.3,2.5-1.9,3.7-.5,1.2-1.1,2.3-1.5,3.4-.4,1.1-.8,2.1-1.1,3-.3.9-.5,1.7-.7,2.3-.4,1.3-.6,2-.6,2,0,0,.2-.8.4-2.1.1-.7.3-1.5.5-2.4.2-.9.5-2,.8-3.1.3-1.1.8-2.3,1.2-3.6.5-1.3,1-2.6,1.6-3.9.6-1.3,1.3-2.7,2.1-4.1.7-1.4,1.6-2.7,2.5-4,.9-1.3,1.8-2.6,2.9-3.8.5-.6,1-1.2,1.5-1.8.5-.6,1-1.2,1.5-1.7,1-1.1,2-2.1,3-3.1,1-1,1.9-1.8,2.8-2.6,3.5-3.1,5.8-5.2,5.8-5.2l3.2,3.9Z"/>
        <path d="M87.8,1196.3s.3-.1,1-.4c.6-.3,1.6-.6,2.8-1.2.6-.3,1.2-.6,2-.9.7-.3,1.5-.7,2.3-1.1,1.6-.8,3.4-1.8,5.3-3,1.9-1.1,4-2.4,6.2-3.7,2.2-1.3,4.7-2.6,7.5-3.6,2.8-1,5.8-1.7,8.9-1.9.8,0,1.5,0,2.3,0h1.2s1.2,0,1.2,0c.7,0,1.5,0,2.2.1l2.3.2c3.1.4,6.1.9,9,1.6,2.9.7,5.7,1.5,8.4,2.3,2.7.8,5.3,1.5,7.7,2.3,1.2.3,2.4.7,3.6,1,1.2.3,2.3.6,3.4.9,2.2.6,4.1,1,5.9,1.5,1.8.4,3.3.8,4.6,1,2.6.5,4,.9,4,.9,0,0-1.5,0-4.1,0-1.3,0-2.9-.2-4.7-.3-1.8-.2-3.9-.4-6.1-.7-2.2-.3-4.7-.7-7.2-1.3-2.5-.5-5.2-1.1-7.9-1.8-2.7-.7-5.5-1.3-8.4-1.9-2.8-.6-5.7-1.1-8.6-1.4l-2.1-.2c-.7,0-1.5,0-2.2-.1h-1.1c0,0-1.1,0-1.1,0-.7,0-1.4,0-2.1,0-2.8.1-5.5.6-8,1.4-2.5.8-5,1.8-7.3,2.9-2.3,1.1-4.5,2.2-6.5,3.1-1,.5-2,.9-3,1.3-1,.4-1.9.7-2.8,1-.9.3-1.7.6-2.5.8-.8.2-1.5.4-2.1.6-.6.2-1.2.3-1.7.4-.5,0-.9.2-1.3.2-.7.1-1.1.2-1.1.2Z"/>
        <path d="M507.5,1120.1s-1.1,1.1-3.1,3.2c-2.2,2.1-5.3,5-9.4,8.5-8.2,7.1-20.3,16.8-34.7,28.5-7.2,5.8-15,12.1-23,19-.5.4-1,.9-1.5,1.3-.5.4-1,.9-1.5,1.3-1,.9-1.9,1.8-2.9,2.8-1.9,1.9-3.9,3.8-5.8,5.8-3.9,4-7.8,8.1-11.8,12.3-8,8.4-16.1,17.2-24.8,25.8-4.3,4.3-8.8,8.5-13.5,12.6-2.4,2-4.8,4-7.3,5.8-2.6,1.8-5.2,3.6-8.2,4.9l-.6.2h-.1c0,0-.2.1-.2.1h-.3c0,0-1.1.5-1.1.5-.7.3-1.5.5-2.3.7-.8.2-1.5.4-2.3.5-.8.2-1.6.3-2.3.4-3.1.5-6.2.8-9.3.9-6.2.3-12.4,0-18.5-.5-6.1-.5-12.1-1.3-18-2.2-5.9-1-11.7-2.1-17.3-3.8-.7-.2-1.4-.5-2.1-.7-.3-.2-.7-.3-1-.5l-.5-.3-.4-.2c-.3-.2-.6-.3-.9-.4-.3-.1-.6-.2-1-.3-.7-.2-1.3-.4-2-.6-2.7-.8-5.5-1.4-8.2-2-5.4-1.1-10.8-2-16.1-2.8-10.5-1.5-20.5-2.4-29.7-2.8-9.2-.4-17.7-.3-25.3.2-7.5.5-14,1.4-19.3,2.6-5.3,1.1-9.3,2.4-12.1,3.4-1.4.5-2.4,1-3.1,1.2-.7.3-1,.4-1,.4,0,0,.4-.2,1-.4.7-.3,1.7-.8,3.1-1.3,2.7-1,6.7-2.4,12-3.6,5.3-1.2,11.8-2.2,19.3-2.8,7.5-.6,16-.8,25.3-.5,9.3.3,19.3,1.1,29.9,2.4,5.3.7,10.7,1.5,16.2,2.6,2.7.5,5.5,1.1,8.3,1.9.7.2,1.4.4,2.1.6.7.2,1.5.5,2.1.8l1,.5c.3.2.6.3.9.4.7.2,1.3.5,2,.7,5.5,1.6,11.3,2.7,17.1,3.6,5.9.9,11.8,1.6,17.9,2,6,.4,12.1.6,18.2.2,3-.2,6.1-.5,9.1-1,3-.5,5.9-1.2,8.6-2.5,2.7-1.2,5.2-2.9,7.6-4.7,2.4-1.8,4.8-3.8,7.1-5.8,4.6-4,9-8.3,13.2-12.6,8.5-8.6,16.6-17.5,24.4-26,3.9-4.3,7.8-8.5,11.6-12.5,1.9-2,3.9-4,5.8-6,1-1,2-1.9,2.9-2.9.5-.5,1-.9,1.5-1.4.5-.5,1-.9,1.5-1.4,8-7.1,15.7-13.5,22.9-19.4,7.1-5.9,13.7-11.3,19.5-16.1,5.8-4.8,10.7-9.1,14.8-12.7,4-3.6,7.1-6.5,9.1-8.4,2-2.1,3.1-3.2,3.1-3.2l3.6,3.5Z"/>
        <polygon points="417.9 1055.9 423.3 1061.1 415.8 1060.4 417.9 1055.9"/>
      </g>
    </g>
  </g>
</svg>