<?xml version="1.0" encoding="UTF-8"?>
<svg xmlns="http://www.w3.org/2000/svg" version="1.1" viewBox="0 0 1800 2400">
  <defs>
    <style>
      .cls-1, .cls-2, .cls-3, .cls-4, .cls-5, .cls-6, .cls-7, .cls-8, .cls-9, .cls-10, .cls-11, .cls-12, .cls-13, .cls-14, .cls-15, .cls-16, .cls-17, .cls-18, .cls-19, .cls-20, .cls-21, .cls-22, .cls-23, .cls-24, .cls-25, .cls-26, .cls-27, .cls-28, .cls-29, .cls-30, .cls-31, .cls-32, .cls-33, .cls-34, .cls-35, .cls-36, .cls-37, .cls-38, .cls-39, .cls-40, .cls-41, .cls-42, .cls-43, .cls-44, .cls-45, .cls-46, .cls-47, .cls-48, .cls-49 {
        stroke: #231f20;
      }

      .cls-1, .cls-2, .cls-3, .cls-4, .cls-6, .cls-7, .cls-8, .cls-9, .cls-10, .cls-11, .cls-12, .cls-13, .cls-15, .cls-16, .cls-17, .cls-18, .cls-19, .cls-20, .cls-21, .cls-23, .cls-24, .cls-25, .cls-26, .cls-27, .cls-28, .cls-29, .cls-30, .cls-31, .cls-32, .cls-37, .cls-38, .cls-39, .cls-40, .cls-41, .cls-42, .cls-44, .cls-45, .cls-46, .cls-47, .cls-48, .cls-49 {
        stroke-linejoin: round;
      }

      .cls-1, .cls-13, .cls-29, .cls-35, .cls-48 {
        stroke-width: 6px;
      }

      .cls-1, .cls-24 {
        fill: #be1e2d;
      }

      .cls-2 {
        fill: #ee4036;
      }

      .cls-2, .cls-5, .cls-6, .cls-8, .cls-10, .cls-17, .cls-22, .cls-39, .cls-43, .cls-44, .cls-46 {
        stroke-width: 5px;
      }

      .cls-3, .cls-4, .cls-50, .cls-10, .cls-11, .cls-15, .cls-23, .cls-33, .cls-36, .cls-41, .cls-43, .cls-44, .cls-45 {
        fill: none;
      }

      .cls-3, .cls-12, .cls-15, .cls-19, .cls-30, .cls-40, .cls-47 {
        stroke-width: 3px;
      }

      .cls-4, .cls-7, .cls-9, .cls-14, .cls-25, .cls-28, .cls-36, .cls-37, .cls-45 {
        stroke-width: 2px;
      }

      .cls-4, .cls-8, .cls-9, .cls-11, .cls-12, .cls-14, .cls-15, .cls-26, .cls-36, .cls-41, .cls-42, .cls-44 {
        stroke-linecap: round;
      }

      .cls-5, .cls-50, .cls-14, .cls-22, .cls-33, .cls-34, .cls-35, .cls-36, .cls-43 {
        stroke-miterlimit: 10;
      }

      .cls-5, .cls-14, .cls-46 {
        fill: #fff;
      }

      .cls-6, .cls-7 {
        fill: #58595b;
      }

      .cls-50 {
        stroke: #929497;
        stroke-width: .5px;
      }

      .cls-8, .cls-13, .cls-20, .cls-26, .cls-34, .cls-35 {
        fill: #e4c5b7;
      }

      .cls-9, .cls-30 {
        fill: #f1f1f2;
      }

      .cls-11, .cls-21, .cls-23, .cls-26, .cls-27, .cls-33, .cls-34, .cls-38, .cls-42 {
        stroke-width: 4px;
      }

      .cls-12 {
        fill: #8a5d3b;
      }

      .cls-16, .cls-18, .cls-20, .cls-24, .cls-31, .cls-49 {
        stroke-width: 7px;
      }

      .cls-16, .cls-19 {
        fill: #ffdd15;
      }

      .cls-17, .cls-18, .cls-40, .cls-48 {
        fill: #3d3d3f;
      }

      .cls-51, .cls-31 {
        fill: #231f20;
      }

      .cls-21 {
        fill: #754c28;
      }

      .cls-22 {
        fill: #00adee;
      }

      .cls-25 {
        fill: #6d6e70;
      }

      .cls-27, .cls-29 {
        fill: #e6e7e8;
      }

      .cls-28, .cls-32 {
        fill: #fffdf3;
      }

      .cls-37 {
        fill: #c5bfa7;
      }

      .cls-38 {
        fill: #bbbdbf;
      }

      .cls-39, .cls-47, .cls-49 {
        fill: #404041;
      }

      .cls-41 {
        stroke-width: 2.5px;
      }

      .cls-42 {
        fill: #d0d2d3;
      }
    </style>
  </defs>
  <!-- Generator: Adobe Illustrator 28.7.4, SVG Export Plug-In . SVG Version: 1.2.0 Build 166)  -->
  <g>
    <g id="Layer_1">
      <g>
        <rect class="cls-22" y="0" width="1800" height="2400"/>
        <g>
          <g>
            <line class="cls-43" x1="130" y1="0" x2="130" y2="130"/>
            <line class="cls-43" x1="284" y1="0" x2="284" y2="130"/>
            <line class="cls-43" x1="438" y1="0" x2="438" y2="130"/>
            <line class="cls-43" x1="592" y1="0" x2="592" y2="130"/>
            <line class="cls-43" x1="746" y1="0" x2="746" y2="130"/>
            <line class="cls-43" x1="900" y1="0" x2="900" y2="130"/>
            <line class="cls-43" x1="1054" y1="0" x2="1054" y2="130"/>
            <line class="cls-43" x1="1208" y1="0" x2="1208" y2="130"/>
            <line class="cls-43" x1="1362" y1="0" x2="1362" y2="130"/>
            <line class="cls-43" x1="1516" y1="0" x2="1516" y2="130"/>
            <line class="cls-43" x1="1670" y1="0" x2="1670" y2="130"/>
          </g>
          <g>
            <line class="cls-33" x1="130" y1="0" x2="130" y2="72.1"/>
            <line class="cls-33" x1="160.8" y1="0" x2="160.8" y2="72.1"/>
            <line class="cls-33" x1="191.6" y1="0" x2="191.6" y2="72.1"/>
            <line class="cls-33" x1="222.4" y1="0" x2="222.4" y2="72.1"/>
            <line class="cls-33" x1="253.2" y1="0" x2="253.2" y2="72.1"/>
            <line class="cls-33" x1="284" y1="0" x2="284" y2="72.1"/>
            <line class="cls-33" x1="314.8" y1="0" x2="314.8" y2="72.1"/>
            <line class="cls-33" x1="345.6" y1="0" x2="345.6" y2="72.1"/>
            <line class="cls-33" x1="376.4" y1="0" x2="376.4" y2="72.1"/>
            <line class="cls-33" x1="407.2" y1="0" x2="407.2" y2="72.1"/>
            <line class="cls-33" x1="438" y1="0" x2="438" y2="72.1"/>
            <line class="cls-33" x1="468.8" y1="0" x2="468.8" y2="72.1"/>
            <line class="cls-33" x1="499.6" y1="0" x2="499.6" y2="72.1"/>
            <line class="cls-33" x1="530.4" y1="0" x2="530.4" y2="72.1"/>
            <line class="cls-33" x1="561.2" y1="0" x2="561.2" y2="72.1"/>
            <line class="cls-33" x1="592" y1="0" x2="592" y2="72.1"/>
            <line class="cls-33" x1="622.8" y1="0" x2="622.8" y2="72.1"/>
            <line class="cls-33" x1="653.6" y1="0" x2="653.6" y2="72.1"/>
            <line class="cls-33" x1="684.4" y1="0" x2="684.4" y2="72.1"/>
            <line class="cls-33" x1="715.2" y1="0" x2="715.2" y2="72.1"/>
            <line class="cls-33" x1="746" y1="0" x2="746" y2="72.1"/>
            <line class="cls-33" x1="776.8" y1="0" x2="776.8" y2="72.1"/>
            <line class="cls-33" x1="807.6" y1="0" x2="807.6" y2="72.1"/>
            <line class="cls-33" x1="838.4" y1="0" x2="838.4" y2="72.1"/>
            <line class="cls-33" x1="869.2" y1="0" x2="869.2" y2="72.1"/>
            <line class="cls-33" x1="900" y1="0" x2="900" y2="72.1"/>
            <line class="cls-33" x1="930.8" y1="0" x2="930.8" y2="72.1"/>
            <line class="cls-33" x1="961.6" y1="0" x2="961.6" y2="72.1"/>
            <line class="cls-33" x1="992.4" y1="0" x2="992.4" y2="72.1"/>
            <line class="cls-33" x1="1023.2" y1="0" x2="1023.2" y2="72.1"/>
            <line class="cls-33" x1="1054" y1="0" x2="1054" y2="72.1"/>
            <line class="cls-33" x1="1084.8" y1="0" x2="1084.8" y2="72.1"/>
            <line class="cls-33" x1="1115.6" y1="0" x2="1115.6" y2="72.1"/>
            <line class="cls-33" x1="1146.4" y1="0" x2="1146.4" y2="72.1"/>
            <line class="cls-33" x1="1177.2" y1="0" x2="1177.2" y2="72.1"/>
            <line class="cls-33" x1="1208" y1="0" x2="1208" y2="72.1"/>
            <line class="cls-33" x1="1238.8" y1="0" x2="1238.8" y2="72.1"/>
            <line class="cls-33" x1="1269.6" y1="0" x2="1269.6" y2="72.1"/>
            <line class="cls-33" x1="1300.4" y1="0" x2="1300.4" y2="72.1"/>
            <line class="cls-33" x1="1331.2" y1="0" x2="1331.2" y2="72.1"/>
            <line class="cls-33" x1="1362" y1="0" x2="1362" y2="72.1"/>
            <line class="cls-33" x1="1392.8" y1="0" x2="1392.8" y2="72.1"/>
            <line class="cls-33" x1="1423.6" y1="0" x2="1423.6" y2="72.1"/>
            <line class="cls-33" x1="1454.4" y1="0" x2="1454.4" y2="72.1"/>
            <line class="cls-33" x1="1485.2" y1="0" x2="1485.2" y2="72.1"/>
            <line class="cls-33" x1="1516" y1="0" x2="1516" y2="72.1"/>
            <line class="cls-33" x1="1546.8" y1="0" x2="1546.8" y2="72.1"/>
            <line class="cls-33" x1="1577.6" y1="0" x2="1577.6" y2="72.1"/>
            <line class="cls-33" x1="1608.4" y1="0" x2="1608.4" y2="72.1"/>
            <line class="cls-33" x1="1639.2" y1="0" x2="1639.2" y2="72.1"/>
            <line class="cls-33" x1="1670" y1="0" x2="1670" y2="72.1"/>
          </g>
        </g>
        <g>
          <g>
            <line class="cls-33" x1="130" y1="2327.9" x2="130" y2="2400"/>
            <line class="cls-33" x1="160.8" y1="2327.9" x2="160.8" y2="2400"/>
            <line class="cls-33" x1="191.6" y1="2327.9" x2="191.6" y2="2400"/>
            <line class="cls-33" x1="222.4" y1="2327.9" x2="222.4" y2="2400"/>
            <line class="cls-33" x1="253.2" y1="2327.9" x2="253.2" y2="2400"/>
            <line class="cls-33" x1="284" y1="2327.9" x2="284" y2="2400"/>
            <line class="cls-33" x1="314.8" y1="2327.9" x2="314.8" y2="2400"/>
            <line class="cls-33" x1="345.6" y1="2327.9" x2="345.6" y2="2400"/>
            <line class="cls-33" x1="376.4" y1="2327.9" x2="376.4" y2="2400"/>
            <line class="cls-33" x1="407.2" y1="2327.9" x2="407.2" y2="2400"/>
            <line class="cls-33" x1="438" y1="2327.9" x2="438" y2="2400"/>
            <line class="cls-33" x1="468.8" y1="2327.9" x2="468.8" y2="2400"/>
            <line class="cls-33" x1="499.6" y1="2327.9" x2="499.6" y2="2400"/>
            <line class="cls-33" x1="530.4" y1="2327.9" x2="530.4" y2="2400"/>
            <line class="cls-33" x1="561.2" y1="2327.9" x2="561.2" y2="2400"/>
            <line class="cls-33" x1="592" y1="2327.9" x2="592" y2="2400"/>
            <line class="cls-33" x1="622.8" y1="2327.9" x2="622.8" y2="2400"/>
            <line class="cls-33" x1="653.6" y1="2327.9" x2="653.6" y2="2400"/>
            <line class="cls-33" x1="684.4" y1="2327.9" x2="684.4" y2="2400"/>
            <line class="cls-33" x1="715.2" y1="2327.9" x2="715.2" y2="2400"/>
            <line class="cls-33" x1="746" y1="2327.9" x2="746" y2="2400"/>
            <line class="cls-33" x1="776.8" y1="2327.9" x2="776.8" y2="2400"/>
            <line class="cls-33" x1="807.6" y1="2327.9" x2="807.6" y2="2400"/>
            <line class="cls-33" x1="838.4" y1="2327.9" x2="838.4" y2="2400"/>
            <line class="cls-33" x1="869.2" y1="2327.9" x2="869.2" y2="2400"/>
            <line class="cls-33" x1="900" y1="2327.9" x2="900" y2="2400"/>
            <line class="cls-33" x1="930.8" y1="2327.9" x2="930.8" y2="2400"/>
            <line class="cls-33" x1="961.6" y1="2327.9" x2="961.6" y2="2400"/>
            <line class="cls-33" x1="992.4" y1="2327.9" x2="992.4" y2="2400"/>
            <line class="cls-33" x1="1023.2" y1="2327.9" x2="1023.2" y2="2400"/>
            <line class="cls-33" x1="1054" y1="2327.9" x2="1054" y2="2400"/>
            <line class="cls-33" x1="1084.8" y1="2327.9" x2="1084.8" y2="2400"/>
            <line class="cls-33" x1="1115.6" y1="2327.9" x2="1115.6" y2="2400"/>
            <line class="cls-33" x1="1146.4" y1="2327.9" x2="1146.4" y2="2400"/>
            <line class="cls-33" x1="1177.2" y1="2327.9" x2="1177.2" y2="2400"/>
            <line class="cls-33" x1="1208" y1="2327.9" x2="1208" y2="2400"/>
            <line class="cls-33" x1="1238.8" y1="2327.9" x2="1238.8" y2="2400"/>
            <line class="cls-33" x1="1269.6" y1="2327.9" x2="1269.6" y2="2400"/>
            <line class="cls-33" x1="1300.4" y1="2327.9" x2="1300.4" y2="2400"/>
            <line class="cls-33" x1="1331.2" y1="2327.9" x2="1331.2" y2="2400"/>
            <line class="cls-33" x1="1362" y1="2327.9" x2="1362" y2="2400"/>
            <line class="cls-33" x1="1392.8" y1="2327.9" x2="1392.8" y2="2400"/>
            <line class="cls-33" x1="1423.6" y1="2327.9" x2="1423.6" y2="2400"/>
            <line class="cls-33" x1="1454.4" y1="2327.9" x2="1454.4" y2="2400"/>
            <line class="cls-33" x1="1485.2" y1="2327.9" x2="1485.2" y2="2400"/>
            <line class="cls-33" x1="1516" y1="2327.9" x2="1516" y2="2400"/>
            <line class="cls-33" x1="1546.8" y1="2327.9" x2="1546.8" y2="2400"/>
            <line class="cls-33" x1="1577.6" y1="2327.9" x2="1577.6" y2="2400"/>
            <line class="cls-33" x1="1608.4" y1="2327.9" x2="1608.4" y2="2400"/>
            <line class="cls-33" x1="1639.2" y1="2327.9" x2="1639.2" y2="2400"/>
            <line class="cls-33" x1="1670" y1="2327.9" x2="1670" y2="2400"/>
          </g>
          <g>
            <line class="cls-43" x1="130" y1="2270" x2="130" y2="2400"/>
            <line class="cls-43" x1="284" y1="2270" x2="284" y2="2400"/>
            <line class="cls-43" x1="438" y1="2270" x2="438" y2="2400"/>
            <line class="cls-43" x1="592" y1="2270" x2="592" y2="2400"/>
            <line class="cls-43" x1="746" y1="2270" x2="746" y2="2400"/>
            <line class="cls-43" x1="900" y1="2270" x2="900" y2="2400"/>
            <line class="cls-43" x1="1054" y1="2270" x2="1054" y2="2400"/>
            <line class="cls-43" x1="1208" y1="2270" x2="1208" y2="2400"/>
            <line class="cls-43" x1="1362" y1="2270" x2="1362" y2="2400"/>
            <line class="cls-43" x1="1516" y1="2270" x2="1516" y2="2400"/>
            <line class="cls-43" x1="1670" y1="2270" x2="1670" y2="2400"/>
          </g>
        </g>
        <g>
          <g>
            <line class="cls-43" x1="1670" y1="130" x2="1800" y2="130"/>
            <line class="cls-43" x1="1670" y1="272.7" x2="1800" y2="272.7"/>
            <line class="cls-43" x1="1670" y1="415.3" x2="1800" y2="415.3"/>
            <line class="cls-43" x1="1670" y1="558" x2="1800" y2="558"/>
            <line class="cls-43" x1="1670" y1="700.7" x2="1800" y2="700.7"/>
            <line class="cls-43" x1="1670" y1="843.3" x2="1800" y2="843.3"/>
            <line class="cls-43" x1="1670" y1="986" x2="1800" y2="986"/>
            <line class="cls-43" x1="1670" y1="1128.7" x2="1800" y2="1128.7"/>
            <line class="cls-43" x1="1670" y1="1271.3" x2="1800" y2="1271.3"/>
            <line class="cls-43" x1="1670" y1="1414" x2="1800" y2="1414"/>
            <line class="cls-43" x1="1670" y1="1556.7" x2="1800" y2="1556.7"/>
            <line class="cls-43" x1="1670" y1="1699.3" x2="1800" y2="1699.3"/>
            <line class="cls-43" x1="1670" y1="1842" x2="1800" y2="1842"/>
            <line class="cls-43" x1="1670" y1="1984.7" x2="1800" y2="1984.7"/>
            <line class="cls-43" x1="1670" y1="2127.3" x2="1800" y2="2127.3"/>
            <line class="cls-43" x1="1670" y1="2270" x2="1800" y2="2270"/>
          </g>
          <g>
            <line class="cls-33" x1="1735" y1="130" x2="1800" y2="130"/>
            <line class="cls-33" x1="1735" y1="158.5" x2="1800" y2="158.5"/>
            <line class="cls-33" x1="1735" y1="187.1" x2="1800" y2="187.1"/>
            <line class="cls-33" x1="1735" y1="215.6" x2="1800" y2="215.6"/>
            <line class="cls-33" x1="1735" y1="244.1" x2="1800" y2="244.1"/>
            <line class="cls-33" x1="1735" y1="272.7" x2="1800" y2="272.7"/>
            <line class="cls-33" x1="1735" y1="301.2" x2="1800" y2="301.2"/>
            <line class="cls-33" x1="1735" y1="329.7" x2="1800" y2="329.7"/>
            <line class="cls-33" x1="1735" y1="358.3" x2="1800" y2="358.3"/>
            <line class="cls-33" x1="1735" y1="386.8" x2="1800" y2="386.8"/>
            <line class="cls-33" x1="1735" y1="415.3" x2="1800" y2="415.3"/>
            <line class="cls-33" x1="1735" y1="443.9" x2="1800" y2="443.9"/>
            <line class="cls-33" x1="1735" y1="472.4" x2="1800" y2="472.4"/>
            <line class="cls-33" x1="1735" y1="500.9" x2="1800" y2="500.9"/>
            <line class="cls-33" x1="1735" y1="529.5" x2="1800" y2="529.5"/>
            <line class="cls-33" x1="1735" y1="558" x2="1800" y2="558"/>
            <line class="cls-33" x1="1735" y1="586.5" x2="1800" y2="586.5"/>
            <line class="cls-33" x1="1735" y1="615.1" x2="1800" y2="615.1"/>
            <line class="cls-33" x1="1735" y1="643.6" x2="1800" y2="643.6"/>
            <line class="cls-33" x1="1735" y1="672.1" x2="1800" y2="672.1"/>
            <line class="cls-33" x1="1735" y1="700.7" x2="1800" y2="700.7"/>
            <line class="cls-33" x1="1735" y1="729.2" x2="1800" y2="729.2"/>
            <line class="cls-33" x1="1735" y1="757.7" x2="1800" y2="757.7"/>
            <line class="cls-33" x1="1735" y1="786.3" x2="1800" y2="786.3"/>
            <line class="cls-33" x1="1735" y1="814.8" x2="1800" y2="814.8"/>
            <line class="cls-33" x1="1735" y1="843.3" x2="1800" y2="843.3"/>
            <line class="cls-33" x1="1735" y1="871.9" x2="1800" y2="871.9"/>
            <line class="cls-33" x1="1735" y1="900.4" x2="1800" y2="900.4"/>
            <line class="cls-33" x1="1735" y1="928.9" x2="1800" y2="928.9"/>
            <line class="cls-33" x1="1735" y1="957.5" x2="1800" y2="957.5"/>
            <line class="cls-33" x1="1735" y1="986" x2="1800" y2="986"/>
            <line class="cls-33" x1="1735" y1="1014.5" x2="1800" y2="1014.5"/>
            <line class="cls-33" x1="1735" y1="1043.1" x2="1800" y2="1043.1"/>
            <line class="cls-33" x1="1735" y1="1071.6" x2="1800" y2="1071.6"/>
            <line class="cls-33" x1="1735" y1="1100.1" x2="1800" y2="1100.1"/>
            <line class="cls-33" x1="1735" y1="1128.7" x2="1800" y2="1128.7"/>
            <line class="cls-33" x1="1735" y1="1157.2" x2="1800" y2="1157.2"/>
            <line class="cls-33" x1="1735" y1="1185.7" x2="1800" y2="1185.7"/>
            <line class="cls-33" x1="1735" y1="1214.3" x2="1800" y2="1214.3"/>
            <line class="cls-33" x1="1735" y1="1242.8" x2="1800" y2="1242.8"/>
            <line class="cls-33" x1="1735" y1="1271.3" x2="1800" y2="1271.3"/>
            <line class="cls-33" x1="1735" y1="1299.9" x2="1800" y2="1299.9"/>
            <line class="cls-33" x1="1735" y1="1328.4" x2="1800" y2="1328.4"/>
            <line class="cls-33" x1="1735" y1="1356.9" x2="1800" y2="1356.9"/>
            <line class="cls-33" x1="1735" y1="1385.5" x2="1800" y2="1385.5"/>
            <line class="cls-33" x1="1735" y1="1414" x2="1800" y2="1414"/>
            <line class="cls-33" x1="1735" y1="1442.5" x2="1800" y2="1442.5"/>
            <line class="cls-33" x1="1735" y1="1471.1" x2="1800" y2="1471.1"/>
            <line class="cls-33" x1="1735" y1="1499.6" x2="1800" y2="1499.6"/>
            <line class="cls-33" x1="1735" y1="1528.1" x2="1800" y2="1528.1"/>
            <line class="cls-33" x1="1735" y1="1556.7" x2="1800" y2="1556.7"/>
            <line class="cls-33" x1="1735" y1="1585.2" x2="1800" y2="1585.2"/>
            <line class="cls-33" x1="1735" y1="1613.7" x2="1800" y2="1613.7"/>
            <line class="cls-33" x1="1735" y1="1642.3" x2="1800" y2="1642.3"/>
            <line class="cls-33" x1="1735" y1="1670.8" x2="1800" y2="1670.8"/>
            <line class="cls-33" x1="1735" y1="1699.3" x2="1800" y2="1699.3"/>
            <line class="cls-33" x1="1735" y1="1727.9" x2="1800" y2="1727.9"/>
            <line class="cls-33" x1="1735" y1="1756.4" x2="1800" y2="1756.4"/>
            <line class="cls-33" x1="1735" y1="1784.9" x2="1800" y2="1784.9"/>
            <line class="cls-33" x1="1735" y1="1813.5" x2="1800" y2="1813.5"/>
            <line class="cls-33" x1="1735" y1="1842" x2="1800" y2="1842"/>
            <line class="cls-33" x1="1735" y1="1870.5" x2="1800" y2="1870.5"/>
            <line class="cls-33" x1="1735" y1="1899.1" x2="1800" y2="1899.1"/>
            <line class="cls-33" x1="1735" y1="1927.6" x2="1800" y2="1927.6"/>
            <line class="cls-33" x1="1735" y1="1956.1" x2="1800" y2="1956.1"/>
            <line class="cls-33" x1="1735" y1="1984.7" x2="1800" y2="1984.7"/>
            <line class="cls-33" x1="1735" y1="2013.2" x2="1800" y2="2013.2"/>
            <line class="cls-33" x1="1735" y1="2041.7" x2="1800" y2="2041.7"/>
            <line class="cls-33" x1="1735" y1="2070.3" x2="1800" y2="2070.3"/>
            <line class="cls-33" x1="1735" y1="2098.8" x2="1800" y2="2098.8"/>
            <line class="cls-33" x1="1735" y1="2127.3" x2="1800" y2="2127.3"/>
            <line class="cls-33" x1="1735" y1="2155.9" x2="1800" y2="2155.9"/>
            <line class="cls-33" x1="1735" y1="2184.4" x2="1800" y2="2184.4"/>
            <line class="cls-33" x1="1735" y1="2212.9" x2="1800" y2="2212.9"/>
            <line class="cls-33" x1="1735" y1="2241.5" x2="1800" y2="2241.5"/>
            <line class="cls-33" x1="1735" y1="2270" x2="1800" y2="2270"/>
          </g>
        </g>
        <g>
          <g>
            <line class="cls-33" y1="130" x2="65" y2="130"/>
            <line class="cls-33" y1="158.5" x2="65" y2="158.5"/>
            <line class="cls-33" y1="187.1" x2="65" y2="187.1"/>
            <line class="cls-33" y1="215.6" x2="65" y2="215.6"/>
            <line class="cls-33" y1="244.1" x2="65" y2="244.1"/>
            <line class="cls-33" y1="272.7" x2="65" y2="272.7"/>
            <line class="cls-33" y1="301.2" x2="65" y2="301.2"/>
            <line class="cls-33" y1="329.7" x2="65" y2="329.7"/>
            <line class="cls-33" y1="358.3" x2="65" y2="358.3"/>
            <line class="cls-33" y1="386.8" x2="65" y2="386.8"/>
            <line class="cls-33" y1="415.3" x2="65" y2="415.3"/>
            <line class="cls-33" y1="443.9" x2="65" y2="443.9"/>
            <line class="cls-33" y1="472.4" x2="65" y2="472.4"/>
            <line class="cls-33" y1="500.9" x2="65" y2="500.9"/>
            <line class="cls-33" y1="529.5" x2="65" y2="529.5"/>
            <line class="cls-33" y1="558" x2="65" y2="558"/>
            <line class="cls-33" y1="586.5" x2="65" y2="586.5"/>
            <line class="cls-33" y1="615.1" x2="65" y2="615.1"/>
            <line class="cls-33" y1="643.6" x2="65" y2="643.6"/>
            <line class="cls-33" y1="672.1" x2="65" y2="672.1"/>
            <line class="cls-33" y1="700.7" x2="65" y2="700.7"/>
            <line class="cls-33" y1="729.2" x2="65" y2="729.2"/>
            <line class="cls-33" y1="757.7" x2="65" y2="757.7"/>
            <line class="cls-33" y1="786.3" x2="65" y2="786.3"/>
            <line class="cls-33" y1="814.8" x2="65" y2="814.8"/>
            <line class="cls-33" y1="843.3" x2="65" y2="843.3"/>
            <line class="cls-33" y1="871.9" x2="65" y2="871.9"/>
            <line class="cls-33" y1="900.4" x2="65" y2="900.4"/>
            <line class="cls-33" y1="928.9" x2="65" y2="928.9"/>
            <line class="cls-33" y1="957.5" x2="65" y2="957.5"/>
            <line class="cls-33" y1="986" x2="65" y2="986"/>
            <line class="cls-33" y1="1014.5" x2="65" y2="1014.5"/>
            <line class="cls-33" y1="1043.1" x2="65" y2="1043.1"/>
            <line class="cls-33" y1="1071.6" x2="65" y2="1071.6"/>
            <line class="cls-33" y1="1100.1" x2="65" y2="1100.1"/>
            <line class="cls-33" y1="1128.7" x2="65" y2="1128.7"/>
            <line class="cls-33" y1="1157.2" x2="65" y2="1157.2"/>
            <line class="cls-33" y1="1185.7" x2="65" y2="1185.7"/>
            <line class="cls-33" y1="1214.3" x2="65" y2="1214.3"/>
            <line class="cls-33" y1="1242.8" x2="65" y2="1242.8"/>
            <line class="cls-33" y1="1271.3" x2="65" y2="1271.3"/>
            <line class="cls-33" y1="1299.9" x2="65" y2="1299.9"/>
            <line class="cls-33" y1="1328.4" x2="65" y2="1328.4"/>
            <line class="cls-33" y1="1356.9" x2="65" y2="1356.9"/>
            <line class="cls-33" y1="1385.5" x2="65" y2="1385.5"/>
            <line class="cls-33" y1="1414" x2="65" y2="1414"/>
            <line class="cls-33" y1="1442.5" x2="65" y2="1442.5"/>
            <line class="cls-33" y1="1471.1" x2="65" y2="1471.1"/>
            <line class="cls-33" y1="1499.6" x2="65" y2="1499.6"/>
            <line class="cls-33" y1="1528.1" x2="65" y2="1528.1"/>
            <line class="cls-33" y1="1556.7" x2="65" y2="1556.7"/>
            <line class="cls-33" y1="1585.2" x2="65" y2="1585.2"/>
            <line class="cls-33" y1="1613.7" x2="65" y2="1613.7"/>
            <line class="cls-33" y1="1642.3" x2="65" y2="1642.3"/>
            <line class="cls-33" y1="1670.8" x2="65" y2="1670.8"/>
            <line class="cls-33" y1="1699.3" x2="65" y2="1699.3"/>
            <line class="cls-33" y1="1727.9" x2="65" y2="1727.9"/>
            <line class="cls-33" y1="1756.4" x2="65" y2="1756.4"/>
            <line class="cls-33" y1="1784.9" x2="65" y2="1784.9"/>
            <line class="cls-33" y1="1813.5" x2="65" y2="1813.5"/>
            <line class="cls-33" y1="1842" x2="65" y2="1842"/>
            <line class="cls-33" y1="1870.5" x2="65" y2="1870.5"/>
            <line class="cls-33" y1="1899.1" x2="65" y2="1899.1"/>
            <line class="cls-33" y1="1927.6" x2="65" y2="1927.6"/>
            <line class="cls-33" y1="1956.1" x2="65" y2="1956.1"/>
            <line class="cls-33" y1="1984.7" x2="65" y2="1984.7"/>
            <line class="cls-33" y1="2013.2" x2="65" y2="2013.2"/>
            <line class="cls-33" y1="2041.7" x2="65" y2="2041.7"/>
            <line class="cls-33" y1="2070.3" x2="65" y2="2070.3"/>
            <line class="cls-33" y1="2098.8" x2="65" y2="2098.8"/>
            <line class="cls-33" y1="2127.3" x2="65" y2="2127.3"/>
            <line class="cls-33" y1="2155.9" x2="65" y2="2155.9"/>
            <line class="cls-33" y1="2184.4" x2="65" y2="2184.4"/>
            <line class="cls-33" y1="2212.9" x2="65" y2="2212.9"/>
            <line class="cls-33" y1="2241.5" x2="65" y2="2241.5"/>
            <line class="cls-33" y1="2270" x2="65" y2="2270"/>
          </g>
          <g>
            <line class="cls-43" y1="130" x2="130" y2="130"/>
            <line class="cls-43" y1="272.7" x2="130" y2="272.7"/>
            <line class="cls-43" y1="415.3" x2="130" y2="415.3"/>
            <line class="cls-43" y1="558" x2="130" y2="558"/>
            <line class="cls-43" y1="700.7" x2="130" y2="700.7"/>
            <line class="cls-43" y1="843.3" x2="130" y2="843.3"/>
            <line class="cls-43" y1="986" x2="130" y2="986"/>
            <line class="cls-43" y1="1128.7" x2="130" y2="1128.7"/>
            <line class="cls-43" y1="1271.3" x2="130" y2="1271.3"/>
            <line class="cls-43" y1="1414" x2="130" y2="1414"/>
            <line class="cls-43" y1="1556.7" x2="130" y2="1556.7"/>
            <line class="cls-43" y1="1699.3" x2="130" y2="1699.3"/>
            <line class="cls-43" y1="1842" x2="130" y2="1842"/>
            <line class="cls-43" y1="1984.7" x2="130" y2="1984.7"/>
            <line class="cls-43" y1="2127.3" x2="130" y2="2127.3"/>
            <line class="cls-43" y1="2270" x2="130" y2="2270"/>
          </g>
        </g>
        <rect class="cls-5" x="130" y="130" width="1540" height="2140"/>
        <rect class="cls-30" x="150" y="150" width="1500" height="2100"/>
        <g>
          <line class="cls-50" x1="150" y1="150" x2="1650" y2="150"/>
          <line class="cls-50" x1="150" y1="181.8" x2="1650" y2="181.8"/>
          <line class="cls-50" x1="150" y1="213.6" x2="1650" y2="213.6"/>
          <line class="cls-50" x1="150" y1="245.5" x2="1650" y2="245.5"/>
          <line class="cls-50" x1="150" y1="277.3" x2="1650" y2="277.3"/>
          <line class="cls-50" x1="150" y1="309.1" x2="1650" y2="309.1"/>
          <line class="cls-50" x1="150" y1="340.9" x2="1650" y2="340.9"/>
          <line class="cls-50" x1="150" y1="372.7" x2="1650" y2="372.7"/>
          <line class="cls-50" x1="150" y1="404.5" x2="1650" y2="404.5"/>
          <line class="cls-50" x1="150" y1="436.4" x2="1650" y2="436.4"/>
          <line class="cls-50" x1="150" y1="468.2" x2="1650" y2="468.2"/>
          <line class="cls-50" x1="150" y1="500" x2="1650" y2="500"/>
          <line class="cls-50" x1="150" y1="531.8" x2="1650" y2="531.8"/>
          <line class="cls-50" x1="150" y1="563.6" x2="1650" y2="563.6"/>
          <line class="cls-50" x1="150" y1="595.5" x2="1650" y2="595.5"/>
          <line class="cls-50" x1="150" y1="627.3" x2="1650" y2="627.3"/>
          <line class="cls-50" x1="150" y1="659.1" x2="1650" y2="659.1"/>
          <line class="cls-50" x1="150" y1="690.9" x2="1650" y2="690.9"/>
          <line class="cls-50" x1="150" y1="722.7" x2="1650" y2="722.7"/>
          <line class="cls-50" x1="150" y1="754.5" x2="1650" y2="754.5"/>
          <line class="cls-50" x1="150" y1="786.4" x2="1650" y2="786.4"/>
          <line class="cls-50" x1="150" y1="818.2" x2="1650" y2="818.2"/>
          <line class="cls-50" x1="150" y1="850" x2="1650" y2="850"/>
          <line class="cls-50" x1="150" y1="881.8" x2="1650" y2="881.8"/>
          <line class="cls-50" x1="150" y1="913.6" x2="1650" y2="913.6"/>
          <line class="cls-50" x1="150" y1="945.5" x2="1650" y2="945.5"/>
          <line class="cls-50" x1="150" y1="977.3" x2="1650" y2="977.3"/>
          <line class="cls-50" x1="150" y1="1009.1" x2="1650" y2="1009.1"/>
          <line class="cls-50" x1="150" y1="1040.9" x2="1650" y2="1040.9"/>
          <line class="cls-50" x1="150" y1="1072.7" x2="1650" y2="1072.7"/>
          <line class="cls-50" x1="150" y1="1104.5" x2="1650" y2="1104.5"/>
          <line class="cls-50" x1="150" y1="1136.4" x2="1650" y2="1136.4"/>
          <line class="cls-50" x1="150" y1="1168.2" x2="1650" y2="1168.2"/>
          <line class="cls-50" x1="150" y1="1200" x2="1650" y2="1200"/>
          <line class="cls-50" x1="150" y1="1231.8" x2="1650" y2="1231.8"/>
          <line class="cls-50" x1="150" y1="1263.6" x2="1650" y2="1263.6"/>
          <line class="cls-50" x1="150" y1="1295.5" x2="1650" y2="1295.5"/>
          <line class="cls-50" x1="150" y1="1327.3" x2="1650" y2="1327.3"/>
          <line class="cls-50" x1="150" y1="1359.1" x2="1650" y2="1359.1"/>
          <line class="cls-50" x1="150" y1="1390.9" x2="1650" y2="1390.9"/>
          <line class="cls-50" x1="150" y1="1422.7" x2="1650" y2="1422.7"/>
          <line class="cls-50" x1="150" y1="1454.5" x2="1650" y2="1454.5"/>
          <line class="cls-50" x1="150" y1="1486.4" x2="1650" y2="1486.4"/>
          <line class="cls-50" x1="150" y1="1518.2" x2="1650" y2="1518.2"/>
          <line class="cls-50" x1="150" y1="1550" x2="1650" y2="1550"/>
          <line class="cls-50" x1="150" y1="1581.8" x2="1650" y2="1581.8"/>
          <line class="cls-50" x1="150" y1="1613.6" x2="1650" y2="1613.6"/>
          <line class="cls-50" x1="150" y1="1645.5" x2="1650" y2="1645.5"/>
          <line class="cls-50" x1="150" y1="1677.3" x2="1650" y2="1677.3"/>
          <line class="cls-50" x1="150" y1="1709.1" x2="1650" y2="1709.1"/>
          <line class="cls-50" x1="150" y1="1740.9" x2="1650" y2="1740.9"/>
          <line class="cls-50" x1="150" y1="1772.7" x2="1650" y2="1772.7"/>
          <line class="cls-50" x1="150" y1="1804.5" x2="1650" y2="1804.5"/>
          <line class="cls-50" x1="150" y1="1836.4" x2="1650" y2="1836.4"/>
          <line class="cls-50" x1="150" y1="1868.2" x2="1650" y2="1868.2"/>
          <line class="cls-50" x1="150" y1="1900" x2="1650" y2="1900"/>
          <line class="cls-50" x1="150" y1="1931.8" x2="1650" y2="1931.8"/>
          <line class="cls-50" x1="150" y1="1963.6" x2="1650" y2="1963.6"/>
          <line class="cls-50" x1="150" y1="1995.5" x2="1650" y2="1995.5"/>
          <line class="cls-50" x1="150" y1="2027.3" x2="1650" y2="2027.3"/>
          <line class="cls-50" x1="150" y1="2059.1" x2="1650" y2="2059.1"/>
          <line class="cls-50" x1="150" y1="2090.9" x2="1650" y2="2090.9"/>
          <line class="cls-50" x1="150" y1="2122.7" x2="1650" y2="2122.7"/>
          <line class="cls-50" x1="150" y1="2154.5" x2="1650" y2="2154.5"/>
          <line class="cls-50" x1="150" y1="2186.4" x2="1650" y2="2186.4"/>
          <line class="cls-50" x1="150" y1="2218.2" x2="1650" y2="2218.2"/>
          <line class="cls-50" x1="150" y1="2250" x2="1650" y2="2250"/>
        </g>
        <g>
          <line class="cls-50" x1="150" y1="150" x2="150" y2="2250"/>
          <line class="cls-50" x1="179.4" y1="150" x2="179.4" y2="2250"/>
          <line class="cls-50" x1="208.8" y1="150" x2="208.8" y2="2250"/>
          <line class="cls-50" x1="238.2" y1="150" x2="238.2" y2="2250"/>
          <line class="cls-50" x1="267.6" y1="150" x2="267.6" y2="2250"/>
          <line class="cls-50" x1="297.1" y1="150" x2="297.1" y2="2250"/>
          <line class="cls-50" x1="326.5" y1="150" x2="326.5" y2="2250"/>
          <line class="cls-50" x1="355.9" y1="150" x2="355.9" y2="2250"/>
          <line class="cls-50" x1="385.3" y1="150" x2="385.3" y2="2250"/>
          <line class="cls-50" x1="414.7" y1="150" x2="414.7" y2="2250"/>
          <line class="cls-50" x1="444.1" y1="150" x2="444.1" y2="2250"/>
          <line class="cls-50" x1="473.5" y1="150" x2="473.5" y2="2250"/>
          <line class="cls-50" x1="502.9" y1="150" x2="502.9" y2="2250"/>
          <line class="cls-50" x1="532.4" y1="150" x2="532.4" y2="2250"/>
          <line class="cls-50" x1="561.8" y1="150" x2="561.8" y2="2250"/>
          <line class="cls-50" x1="591.2" y1="150" x2="591.2" y2="2250"/>
          <line class="cls-50" x1="620.6" y1="150" x2="620.6" y2="2250"/>
          <line class="cls-50" x1="650" y1="150" x2="650" y2="2250"/>
          <line class="cls-50" x1="679.4" y1="150" x2="679.4" y2="2250"/>
          <line class="cls-50" x1="708.8" y1="150" x2="708.8" y2="2250"/>
          <line class="cls-50" x1="738.2" y1="150" x2="738.2" y2="2250"/>
          <line class="cls-50" x1="767.6" y1="150" x2="767.6" y2="2250"/>
          <line class="cls-50" x1="797.1" y1="150" x2="797.1" y2="2250"/>
          <line class="cls-50" x1="826.5" y1="150" x2="826.5" y2="2250"/>
          <line class="cls-50" x1="855.9" y1="150" x2="855.9" y2="2250"/>
          <line class="cls-50" x1="885.3" y1="150" x2="885.3" y2="2250"/>
          <line class="cls-50" x1="914.7" y1="150" x2="914.7" y2="2250"/>
          <line class="cls-50" x1="944.1" y1="150" x2="944.1" y2="2250"/>
          <line class="cls-50" x1="973.5" y1="150" x2="973.5" y2="2250"/>
          <line class="cls-50" x1="1002.9" y1="150" x2="1002.9" y2="2250"/>
          <line class="cls-50" x1="1032.4" y1="150" x2="1032.4" y2="2250"/>
          <line class="cls-50" x1="1061.8" y1="150" x2="1061.8" y2="2250"/>
          <line class="cls-50" x1="1091.2" y1="150" x2="1091.2" y2="2250"/>
          <line class="cls-50" x1="1120.6" y1="150" x2="1120.6" y2="2250"/>
          <line class="cls-50" x1="1150" y1="150" x2="1150" y2="2250"/>
          <line class="cls-50" x1="1179.4" y1="150" x2="1179.4" y2="2250"/>
          <line class="cls-50" x1="1208.8" y1="150" x2="1208.8" y2="2250"/>
          <line class="cls-50" x1="1238.2" y1="150" x2="1238.2" y2="2250"/>
          <line class="cls-50" x1="1267.6" y1="150" x2="1267.6" y2="2250"/>
          <line class="cls-50" x1="1297.1" y1="150" x2="1297.1" y2="2250"/>
          <line class="cls-50" x1="1326.5" y1="150" x2="1326.5" y2="2250"/>
          <line class="cls-50" x1="1355.9" y1="150" x2="1355.9" y2="2250"/>
          <line class="cls-50" x1="1385.3" y1="150" x2="1385.3" y2="2250"/>
          <line class="cls-50" x1="1414.7" y1="150" x2="1414.7" y2="2250"/>
          <line class="cls-50" x1="1444.1" y1="150" x2="1444.1" y2="2250"/>
          <line class="cls-50" x1="1473.5" y1="150" x2="1473.5" y2="2250"/>
          <line class="cls-50" x1="1502.9" y1="150" x2="1502.9" y2="2250"/>
          <line class="cls-50" x1="1532.4" y1="150" x2="1532.4" y2="2250"/>
          <line class="cls-50" x1="1561.8" y1="150" x2="1561.8" y2="2250"/>
          <line class="cls-50" x1="1591.2" y1="150" x2="1591.2" y2="2250"/>
          <line class="cls-50" x1="1620.6" y1="150" x2="1620.6" y2="2250"/>
          <line class="cls-50" x1="1650" y1="150" x2="1650" y2="2250"/>
        </g>
        <g>
          <path class="cls-51" d="M142,2292c0-3.6.7-6.3,2.2-8.1,1.1-1.4,2.7-2.1,4.7-2.1s1.8.2,2.5.5c.7.3,1.4.8,1.9,1.3.4.4.8,1,1.1,1.8.3.7.6,1.7.8,2.7.2,1.1.3,2.3.3,3.6,0,3.6-.7,6.3-2.1,8.1-1.1,1.4-2.7,2.1-4.7,2.1s-2.6-.4-3.6-1.1c-1-.8-1.8-1.9-2.3-3.5-.5-1.6-.8-3.3-.8-5.3ZM144.6,2292c0,3.1.4,5.2,1.2,6.4.6.9,1.6,1.3,2.8,1.3s2.1-.5,2.7-1.4c.9-1.3,1.3-3.5,1.3-6.6s-.4-5.3-1.2-6.4c-.6-.9-1.6-1.3-2.8-1.3s-2.4.7-3.1,2c-.7,1.3-1,3.3-1,6.1Z"/>
          <path class="cls-51" d="M302.2,2301.5v-14.1h-4.6v-1.8c1.4,0,2.3-.2,2.9-.4.6-.2,1.1-.6,1.4-1.1.4-.5.7-1.3.9-2.2h2v19.7h-2.7Z"/>
          <path class="cls-51" d="M450.3,2288.8c0-1,0-1.9.3-2.6.3-.9.7-1.7,1.3-2.4.6-.7,1.3-1.2,2.2-1.5.9-.3,1.8-.5,2.9-.5,2,0,3.5.5,4.7,1.6,1.1,1.1,1.7,2.5,1.7,4.3s-.1,1.5-.3,2.1c-.2.6-.6,1.2-1.1,1.7-.5.5-1.1,1.1-1.9,1.6-.3.2-1.4.8-3.2,1.8-.7.4-1.4.8-1.9,1.2-.6.4-1,.7-1.3,1.1-.3.3-.5.6-.7.9s-.3.6-.4,1.1h10.7v2.4h-13.5c.1-1.4.3-2.5.6-3.3.2-.7.6-1.4,1-2,.4-.6,1.1-1.2,1.9-1.8.4-.3,1.2-.8,2.6-1.6,1.4-.8,2.2-1.3,2.4-1.4.6-.4,1.1-.8,1.4-1.1.3-.3.5-.7.7-1.1.2-.4.2-.9.2-1.5,0-1.1-.3-2-1-2.7-.7-.7-1.6-1-2.8-1s-2.3.4-2.9,1.3c-.6.9-.9,2-1,3.6h-2.5Z"/>
          <path class="cls-51" d="M606.2,2295.5c0,1.4.4,2.5,1.1,3.2.7.7,1.7,1.1,3,1.1s2.4-.4,3.2-1.1c.8-.7,1.1-1.6,1.1-2.7s-.1-1.2-.3-1.7c-.2-.5-.6-.9-1-1.2-.5-.3-1.1-.5-1.9-.6-.5,0-1.3-.1-2.5-.1v-2c1.4,0,2.4,0,3-.2.6-.2,1.1-.5,1.5-1,.4-.5.5-1.1.5-1.9s-.3-1.7-.9-2.3c-.6-.6-1.5-.9-2.6-.9s-1.5.2-2.1.5c-.6.3-1,.8-1.3,1.4-.3.6-.5,1.4-.5,2.4h-2.4c0-1,.1-1.8.3-2.4.3-.9.7-1.7,1.3-2.3.6-.6,1.3-1.1,2.1-1.4.8-.3,1.7-.4,2.6-.4,1.9,0,3.4.5,4.5,1.5,1.1,1,1.6,2.3,1.6,3.8s-.2,1.8-.7,2.5c-.4.7-1.1,1.2-1.9,1.5.7.2,1.2.5,1.6.8.6.4,1,.9,1.3,1.6.3.6.5,1.4.5,2.3s-.3,2.3-.9,3.3c-.6,1-1.4,1.7-2.5,2.2-1.1.5-2.3.7-3.6.7s-2.1-.2-3-.5c-.8-.3-1.5-.8-2-1.3-.5-.6-.9-1.2-1.2-2-.3-.7-.4-1.7-.5-2.7h2.5Z"/>
          <path class="cls-51" d="M766.2,2301.5v-4.8h-8.6v-2.4l9-12.4h2.1v12.7h2.9v2.2h-2.9v4.8h-2.5ZM766.2,2294.5v-8.8l-6.3,8.8h6.3Z"/>
          <path class="cls-51" d="M912.5,2292.8l1.6-10.5h10v2.4h-8.3l-.8,5.4c.6-.4,1.1-.7,1.7-.9.6-.2,1.3-.3,2-.3,1.6,0,3,.5,4.2,1.4,1.6,1.2,2.4,2.8,2.4,5s-.3,2.4-.8,3.4c-.6,1.1-1.4,1.9-2.4,2.5-1,.6-2.3.9-3.8.9s-2.6-.3-3.5-.8c-1-.5-1.7-1.2-2.2-2.2-.4-.7-.6-1.5-.7-2.5h2.5c.1,1,.5,1.8,1.2,2.4.7.6,1.6.9,2.8.9s2.3-.4,3.1-1.2c.8-.8,1.2-1.9,1.2-3.2s-.4-2.3-1.2-3.1c-.8-.8-1.8-1.2-3-1.2s-2.8.6-3.7,1.9h-2.1Z"/>
          <path class="cls-51" d="M1076.5,2287c-.2-1-.6-1.8-1.1-2.3-.6-.5-1.3-.7-2.2-.7s-1.6.3-2.3.8c-.7.5-1.2,1.3-1.7,2.4-.4,1.1-.7,2.5-.8,4.3,1-1.6,2.6-2.4,4.6-2.4s3.3.6,4.5,1.7c1.1,1.1,1.7,2.6,1.7,4.5s-.2,2.2-.7,3.3c-.5,1.1-1.2,1.9-2.2,2.5-1,.6-2.2.9-3.6.9-2,0-3.6-.6-4.8-1.9-1.4-1.5-2.2-4-2.2-7.3s.3-4.2.9-5.9c.6-1.7,1.4-2.9,2.5-3.8,1.1-.8,2.4-1.2,4-1.2s1.9.2,2.7.6c.6.3,1.1.7,1.6,1.1.4.5.7,1,1,1.5.2.6.4,1.2.4,2h-2.4ZM1068.8,2295.4c0,1.3.4,2.4,1.1,3.2.8.8,1.7,1.2,2.9,1.2s2.1-.4,2.8-1.2c.8-.8,1.1-1.9,1.1-3.2s-.4-2.3-1.1-3.1c-.7-.7-1.7-1.1-2.9-1.1s-2.2.4-2.9,1.1c-.7.7-1.1,1.8-1.1,3.1Z"/>
          <path class="cls-51" d="M1220,2284.8v-2.5h13.6v2.2c-1,1.2-1.8,2.2-2.4,3.1-1,1.4-1.8,3-2.7,4.7-.8,1.7-1.5,3.4-2.1,5.1-.4,1.2-.7,2.5-1,4.1h-2.7c.2-1.2.4-2.2.7-3.2.5-1.6,1.1-3.2,1.9-4.9.8-1.7,1.7-3.3,2.8-4.9.7-1.1,1.6-2.3,2.7-3.7h-10.8Z"/>
          <path class="cls-51" d="M1384.2,2291c.7.3,1.2.7,1.6,1,.5.4.9.9,1.1,1.6.3.6.4,1.4.4,2.3,0,1.8-.6,3.2-1.8,4.4-1.2,1.1-2.8,1.7-4.9,1.7s-3.7-.6-4.9-1.7c-1.2-1.1-1.8-2.6-1.8-4.3s.3-2.3.9-3.1,1.4-1.4,2.5-1.8c-.8-.3-1.4-.7-1.8-1.2-.6-.7-.9-1.6-.9-2.7,0-1.5.5-2.8,1.6-3.8,1.1-1,2.5-1.5,4.4-1.5s2.3.2,3.2.7c.9.5,1.6,1.1,2.1,1.9.5.8.7,1.7.7,2.6s-.2,1.6-.7,2.3c-.4.7-1.1,1.2-1.9,1.6ZM1376.7,2296c0,1.1.4,2,1.1,2.7.7.7,1.7,1,2.9,1s2.2-.3,2.9-1c.7-.7,1.1-1.6,1.1-2.7s-.4-2-1.1-2.7c-.7-.7-1.7-1-2.9-1s-2.2.3-2.9,1c-.7.7-1.1,1.6-1.1,2.7ZM1377.2,2287c0,.9.3,1.7.9,2.3.6.6,1.5.9,2.5.9s1.9-.3,2.6-.9c.7-.6,1-1.4,1-2.2s-.3-1.6-.9-2.2c-.6-.6-1.5-.8-2.7-.8s-2,.3-2.5.8c-.6.5-.9,1.3-.9,2.2Z"/>
          <path class="cls-51" d="M1530.9,2296.7c.2,1,.6,1.8,1.1,2.3.6.5,1.3.7,2.2.7s1.8-.3,2.5-.9c.7-.6,1.2-1.6,1.6-2.9.3-1,.5-2.2.6-3.7-.3.5-.6.9-.9,1.1-.4.4-1,.7-1.6,1-.6.2-1.4.4-2.2.4s-2.2-.3-3.2-.8c-1-.5-1.7-1.3-2.2-2.2-.5-1-.7-2-.7-3.2s.2-2.2.7-3.3c.5-1.1,1.2-1.9,2.2-2.5,1-.6,2.2-.9,3.6-.9,2,0,3.6.6,4.8,1.9,1.4,1.5,2.1,4,2.1,7.3s-.3,4.2-.9,5.9c-.6,1.7-1.4,2.9-2.5,3.8-1.1.8-2.4,1.2-4,1.2s-1.9-.2-2.7-.6c-.6-.3-1.1-.7-1.6-1.1-.4-.5-.7-1-1-1.5-.2-.6-.4-1.2-.4-2h2.4ZM1530.6,2288.4c0,1.3.4,2.4,1.1,3.1.7.7,1.7,1.1,2.9,1.1s2.2-.4,2.9-1.1c.7-.7,1.1-1.8,1.1-3.1s-.4-2.4-1.1-3.2c-.8-.8-1.7-1.2-2.9-1.2s-2.1.4-2.8,1.2c-.8.8-1.1,1.9-1.1,3.2Z"/>
        </g>
      </g>
      <g>
        <rect class="cls-46" x="706.8" y="2005" width="386.3" height="129.1"/>
        <g>
          <path class="cls-51" d="M866.7,2081.6v10c0,6.7-7,8-15.1,3l.9-2.8c5.8,1.3,6.6.9,6.6-2.1v-7.2c-2.6.3-5.3.5-7.8.7l5.2,3.3c-5,4.9-13.3,8.9-19.6,10.7l-1.2-2.7c5.3-2.7,10.6-6.7,14.3-11.2-3.3.2-6.4.4-8.9.4l-1.4-6.5c3.1.2,6.3.3,9.7.4,2.8-1.2,5.7-2.6,8.6-4.4-4.1.7-8.5,1.3-12.3,1.5l-1.4-6.3c1.9.2,3.8.3,5.8.4,2.4-2.2,5-5.2,7.2-8.3h-12.3v7.4h-7.3v-11.2h20.7v-5.2h-18.3v-3.7h18.3v-5.7h7.7v5.7h18.5v3.7h-18.5v5.2h20.8v11.3h-7.3v-7.6h-18.5l3.8,2.1c-2.5,2.3-5.9,4.6-9.1,6.3,2.9,0,5.8,0,8.5-.1,2.3-1.9,4.6-3.9,6.7-6.2l6.4,4c-5.8,5-12.4,8.6-19,11.1,5.8,0,11.6-.3,16.6-.6-1-1.6-2-3.1-2.9-4.3l2.1-1.9c3.5,2.3,8.5,6.8,11.2,10.4l-5.8,3.9c-.7-1.5-1.7-3.3-2.8-5.2-2.9.7-6.4,1.3-10,1.7ZM888.2,2091l-4.4,6.1c-4.1-3.7-9.9-8.2-14.8-11.6l1.3-2.6c5.3,1.5,13.1,4.7,17.9,8Z"/>
          <path class="cls-51" d="M962.2,2060.1c-.7-.5-1.4-1-2.1-1.6v32.5c0,6.4-5.1,8.2-14.6,4.4l.5-3c6.5.7,7.4.2,7.4-2.6v-3.1l-3.1,2.9c-1-1.4-1.9-2.7-2.9-3.9-1.7,1.7-3.5,3.2-5.3,4.2l-1-1.4v7.8h-6.6v-9.7l-2.9,2.8c-.9-1.3-1.8-2.6-2.8-3.8-1.7,1.8-3.7,3.4-5.6,4.6l-.6-.8v8h-6.7v-36.9c-1.5.7-2.9,1.3-4,1.6l-1.4-2.8c4.7-2.8,9.2-6.6,13-11.5h-11.2v-3.7h51.3v3.7h-22v7.4h13.1c-3-1.7-6-3.2-8.2-4.3l1.1-2.9c5.6.9,13,3,18.1,5.9l-3.5,6.3ZM934.5,2058.8h-12v3.1l.9-1.2c1.6.8,3.1,1.7,4.6,2.8.7-1.3,1.3-2.6,1.9-4l4.5,2.3c-.8,1.6-1.6,3.1-2.6,4.6,1,.8,1.9,1.6,2.7,2.5v-10.1ZM922.5,2071.2c1.3-1.4,2.4-2.7,3.4-4.1-1-1.1-2.2-2.2-3.4-3.4v7.5ZM934.5,2084.1v-13.1l-2.9,2.8c-1-1.3-1.9-2.5-2.9-3.6-1.6,1.6-3.4,3.1-5.5,4.3l-.8-1.1v4.3l1-1.5c1.4.8,2.9,1.7,4.4,2.6.7-1.4,1.3-2.8,1.8-4.3l4.7,2.2c-.7,1.7-1.6,3.4-2.6,5,.9.8,1.8,1.6,2.6,2.4ZM925.9,2082.5c-1.1-1.1-2.2-2.3-3.4-3.4v7.8c1.3-1.4,2.5-2.8,3.4-4.4ZM930.4,2051c-1.4,1.4-3.2,2.8-5.3,4.2h8.9v-7.4h-9.1l5.5,3.2ZM941.1,2058.8v3.7l1.2-1.7c1.5.8,3,1.7,4.4,2.6.7-1.2,1.2-2.5,1.8-3.8l4.8,2.3c-.7,1.6-1.6,3.1-2.6,4.5,1,.8,1.9,1.6,2.7,2.5v-10.1h-12.3ZM941.1,2071.4c1.4-1.4,2.5-2.8,3.5-4.3-1.1-1.1-2.2-2.2-3.5-3.4v7.7ZM953.4,2084.3v-12.8l-2.8,2.7c-1-1.4-2-2.7-3.1-4-1.7,1.7-3.5,3.2-5.5,4.4l-.9-1.3v4.1l1.2-1.6c1.5.8,2.9,1.8,4.4,2.8.7-1.4,1.3-2.8,1.8-4.2l4.9,2.3c-.7,1.7-1.7,3.4-2.8,5,1,.8,1.9,1.7,2.8,2.6ZM944.5,2082.4c-1.1-1.2-2.2-2.3-3.5-3.6v8.1c1.3-1.4,2.5-2.9,3.5-4.5Z"/>
        </g>
        <g>
          <path class="cls-51" d="M731.8,2025.3c0,2.4-2,4.4-4.4,4.4s-4.4-2-4.4-4.4,2-4.4,4.4-4.4,4.4,2,4.4,4.4Z"/>
          <path class="cls-51" d="M1077,2025.3c0,2.4-2,4.4-4.4,4.4s-4.4-2-4.4-4.4,2-4.4,4.4-4.4,4.4,2,4.4,4.4Z"/>
          <path class="cls-51" d="M731.8,2113.7c0,2.4-2,4.4-4.4,4.4s-4.4-2-4.4-4.4,2-4.4,4.4-4.4,4.4,2,4.4,4.4Z"/>
          <path class="cls-51" d="M1077,2113.7c0,2.4-2,4.4-4.4,4.4s-4.4-2-4.4-4.4,2-4.4,4.4-4.4,4.4,2,4.4,4.4Z"/>
        </g>
      </g>
      <g>
        <rect class="cls-46" x="776.8" y="250.2" width="246.3" height="109.1"/>
        <g>
          <path class="cls-51" d="M870.1,313.1l.9,2.5c-6,3.8-15.9,6.8-21.6,8l-1.6-6.2c3.5-.4,8-1.2,12.4-2v-16.7h-11.9v-3.2h11.9v-15.8h6.3v34.3c1.3-.3,2.5-.6,3.6-.9ZM885.7,322c-2.3,0-4.8,0-7.8,0-5.4-.2-6.2-1.4-6.2-7.3v-34.9h6.2v17.6c2.9-2.1,6-4.8,9-8l4.6,4.9c-3.6,2.8-9.5,5.5-13.6,6.8v12.3c0,2.3.3,2.8,2.6,3,1.4,0,3.2,0,4.8,0,2.1-.2,2.3-1.5,2.4-10.2h2.4c2.3,11.4,2.5,15.6-4.3,16Z"/>
          <path class="cls-51" d="M952.6,318.7l-4.8,4.9c-3.4-3.9-5.5-9.5-6.3-18.3-.9,7.2-4,14.4-12.2,18.9l-1.3-2c1.2-1,2.2-2,3.1-3.1-1.2.6-2.6.9-4.3,1-2.8.1-6,.1-8.6,0-6.5-.3-8-1.3-8-7.5v-27.9h-1.7v-2.9h24.7v2.9h-17.9v27.2c0,2.7.5,3.3,3.6,3.5,2.1.1,5.5.1,7.5,0,2.1,0,3.1-.2,4.9-1.4l1.6,2.5c3-4.9,3.7-10.8,3.7-18.6v-3.7c-1,1.9-2.1,3.7-3.3,5.3l-2.1-1.2c2.1-5.4,3.5-13,3.8-19.2l6,1c-.3,2-.9,4.6-1.8,7.4h5.8l1.6-1.2,5.3,2.7c-1.4,3.1-4.5,8.3-6.9,10.7l-2-1.2c1-2.5,2-5.5,2.4-8.2h-7.2c-.4,1.2-.9,2.3-1.4,3.4h5.6v4c1.1,10,5.4,16.8,10,20.9ZM916.7,299.9h7.5v12.9h-7.5v-12.9ZM918,287h12.7v10.5h-12.7v-10.5ZM919.8,310.1h1.4v-7.5h-1.4v7.5ZM922.4,295h3.9v-5.3h-3.9v5.3ZM925.3,299.9h7.5v12.9h-7.5v-12.9ZM928.3,310.1h1.5v-7.5h-1.5v7.5Z"/>
        </g>
        <g>
          <path class="cls-51" d="M801.8,270.5c0,2.4-2,4.4-4.4,4.4s-4.4-2-4.4-4.4,2-4.4,4.4-4.4,4.4,2,4.4,4.4Z"/>
          <path class="cls-51" d="M1007,270.5c0,2.4-2,4.4-4.4,4.4s-4.4-2-4.4-4.4,2-4.4,4.4-4.4,4.4,2,4.4,4.4Z"/>
          <path class="cls-51" d="M801.8,339c0,2.4-2,4.4-4.4,4.4s-4.4-2-4.4-4.4,2-4.4,4.4-4.4,4.4,2,4.4,4.4Z"/>
          <path class="cls-51" d="M1007,339c0,2.4-2,4.4-4.4,4.4s-4.4-2-4.4-4.4,2-4.4,4.4-4.4,4.4,2,4.4,4.4Z"/>
        </g>
      </g>
    </g>
    <g id="Layer_2">
      <g>
        <g>
          <path class="cls-13" d="M1174.2,1866.5c5.3,9.2,9.6,11.9,15.4,21.9,5.8,10.1-1.5,20.4,2.2,43.4,2.9,18.1-4.9,48.2,0,53.9,4.9,5.6,11.8-1.2,13.4-6.4,2.6-8.6-.8-25.3,4.6-28.5,5.4-3.1,9.9,3.5,12.9,11.8,3,8.2,19.4,30.3,22,34.5,2.6,4.2,15.3,16,18.1,14.3,2.9-1.7,3-5.1,3-5.1,0,0,5.1,7.4,10.4,4.4,5.3-3.1.3-11,.3-11,0,0,2.1,1.7,5.3-.1,3.2-1.8,1-9.4-2.1-14.7,0,0,2.7,2.7,5,1.3,2.3-1.3,3.4-5.9.2-11.6-3.3-5.7-5-15.8-8.6-22.1-3.6-6.3-10.7-17.4-12.6-23.9-2-6.5-1.8-10.5-5.5-14.6-3.7-4.1-17.1-26-25.5-35.8-8.4-9.8-16.8-26-21-33.3,0,0-8.7.2-22,7.8-13.3,7.7-15.4,13.8-15.4,13.8Z"/>
          <path class="cls-15" d="M1265.9,2006.3s-6.3-15.6-12.5-22.6c-6.2-7-14.1-22.7-15.3-29.2"/>
          <path class="cls-15" d="M1276.6,1999.7s-4.6-12.5-7.3-15.4c-2.7-2.9-7.6-18.1-12.2-23.8-4.6-5.7-7.2-15-7.2-15"/>
          <path class="cls-15" d="M1279.8,1984.8c-2.5-5.2-4.7-16.9-9.9-24.5-5.1-7.6-7.3-17.9-10.9-24.2"/>
        </g>
        <g>
          <path class="cls-13" d="M1404.7,1897c-7.2-11.3-17.6-26.7-37.8-47.3-6.3-6.4-12.7-13.5-12.7-13.5,0,0-6.7-1.7-18.4,5.6-11.7,7.3-14.4,18.3-14.4,18.3,0,0,7.2,10.6,5.9,15.9-2,7.9-7.4,25.7.8,38.9,8.2,13.2,11.4,23.4,15.7,27.3,6.4,5.8,10.6,13.5,16.4,9.9,2.4-1.5,3.3-4.1,3.3-4.1,0,0,4.6,4.7,9.5,1.6,4.9-3.1,6.8-7.1,6.8-7.1,0,0,3.5,1.1,9.1-2.4,5.5-3.5,5.7-11,5.7-11,0,0,3.1-1,6.6-3.2,3.5-2.2,2.6-8.5,2.6-8.5,0,0,11.3-6.5,1.1-20.6Z"/>
          <path class="cls-12" d="M1363.4,1948.1c-7.1-6.2-6.9-17-20.6-32.8"/>
          <path class="cls-12" d="M1379.7,1942.7c-.7-9.2-5.2-13.9-5.9-20.3"/>
          <path class="cls-12" d="M1394.4,1929.3c0-3.9-4.4-6.4-5.7-16.8"/>
          <path class="cls-12" d="M1403.6,1917.6c-2.7-4.3-1.9-9.2-5-14.3"/>
        </g>
        <g>
          <path class="cls-13" d="M625.8,1866.5c-5.3,9.2-9.6,11.9-15.4,21.9-5.8,10.1,1.5,20.4-2.2,43.4-2.9,18.1,4.9,48.2,0,53.9-4.9,5.6-11.8-1.2-13.4-6.4-2.6-8.6.8-25.3-4.6-28.5-5.4-3.1-9.9,3.5-12.9,11.8-3,8.2-19.4,30.3-22,34.5-2.6,4.2-15.3,16-18.1,14.3-2.9-1.7-3-5.1-3-5.1,0,0-5.1,7.4-10.4,4.4-5.3-3.1-.3-11-.3-11,0,0-2.1,1.7-5.3-.1-3.2-1.8-1-9.4,2.1-14.7,0,0-2.7,2.7-5,1.3-2.3-1.3-3.4-5.9-.2-11.6,3.3-5.7,5-15.8,8.6-22.1,3.6-6.3,10.7-17.4,12.6-23.9,2-6.5,1.8-10.5,5.5-14.6,3.7-4.1,17.1-26,25.5-35.8,8.4-9.8,16.8-26,21-33.3,0,0,8.7.2,22,7.8,13.3,7.7,15.4,13.8,15.4,13.8Z"/>
          <path class="cls-15" d="M534.1,2006.3s6.3-15.6,12.5-22.6c6.2-7,14.1-22.7,15.3-29.2"/>
          <path class="cls-15" d="M523.4,1999.7s4.6-12.5,7.3-15.4c2.7-2.9,7.6-18.1,12.2-23.8,4.6-5.7,7.2-15,7.2-15"/>
          <path class="cls-15" d="M520.2,1984.8c2.5-5.2,4.7-16.9,9.9-24.5,5.1-7.6,7.3-17.9,10.9-24.2"/>
        </g>
        <g>
          <path class="cls-13" d="M395.3,1897c7.2-11.3,17.6-26.7,37.8-47.3,6.3-6.4,12.7-13.5,12.7-13.5,0,0,6.7-1.7,18.4,5.6,11.7,7.3,14.4,18.3,14.4,18.3,0,0-7.2,10.6-5.9,15.9,2,7.9,7.4,25.7-.8,38.9-8.2,13.2-11.4,23.4-15.7,27.3-6.4,5.8-10.6,13.5-16.4,9.9s-3.3-4.1-3.3-4.1c0,0-4.6,4.7-9.5,1.6-4.9-3.1-6.8-7.1-6.8-7.1,0,0-3.5,1.1-9.1-2.4-5.5-3.5-5.7-11-5.7-11,0,0-3.1-1-6.6-3.2-3.5-2.2-2.6-8.5-2.6-8.5,0,0-11.3-6.5-1.1-20.6Z"/>
          <path class="cls-12" d="M436.6,1948.1c7.1-6.2,6.9-17,20.6-32.8"/>
          <path class="cls-12" d="M420.3,1942.7c.7-9.2,5.2-13.9,5.9-20.3"/>
          <path class="cls-12" d="M405.6,1929.3c0-3.9,4.4-6.4,5.7-16.8"/>
          <path class="cls-12" d="M396.4,1917.6c2.7-4.3,1.9-9.2,5-14.3"/>
        </g>
      </g>
      <g>
        <path class="cls-24" d="M1081.2,800.6h-364.4l-104.8,980.3s84.5,48,287,48,287-48,287-48l-104.8-980.3Z"/>
        <g>
          <path class="cls-16" d="M1006.9,740.4c3.9-5.6,4.6-29.4-12.4-46.2-14.7-14.4,1.1-83.4-24.2-123.8-26.5-42.2-69.4-36.2-69.4-36.2,0,0-42.9-6-69.4,36.2-25.3,40.3-10.6,109.3-25.2,123.8-17,16.8-15.3,40.6-11.4,46.2,3.9,5.6-46.8,40.8-12.3,62.6,34.5,21.8,118.3,18.4,118.3,18.4,0,0,83.9,3.4,118.3-18.4,34.5-21.8-16.2-57-12.3-62.6Z"/>
          <g>
            <path class="cls-4" d="M960.8,626.4c7.5,38.2,27,28.1,16.8,63.2-11.6,39.7,27.6,44.2.9,73.8"/>
            <path class="cls-4" d="M957,638.3c7.5,38.2,27.6,26.6,11.2,59.7s10.5,42.5-9.2,59.7"/>
            <path class="cls-4" d="M839.1,626.4c-7.5,38.2-27,28.1-16.8,63.2,11.6,39.7-27.6,44.2-.9,73.8"/>
            <path class="cls-4" d="M843,638.3c-7.5,38.2-27.6,26.6-11.2,59.7,13.4,27-10.5,42.5,9.2,59.7"/>
            <path class="cls-4" d="M893.6,584.2c-8.7-16.1-41.6-30.9-10.9-49.5"/>
            <path class="cls-4" d="M870.3,581.1c-5.7-10.6-29.8-18.9,0-43.4"/>
            <path class="cls-4" d="M852.2,590.1c-8.6-4.1-26-17.5,6.2-46.3"/>
            <path class="cls-4" d="M899.5,590.1c-13.9-37.1-6-56.2-6-56.2"/>
            <path class="cls-4" d="M905.5,584.2c8.7-16.1,41.6-30.9,10.9-49.5"/>
            <path class="cls-4" d="M928.7,581.1c5.7-10.6,29.8-18.9,0-43.4"/>
            <path class="cls-4" d="M946.9,590.1c8.6-4.1,26-17.5-6.2-46.3"/>
            <path class="cls-4" d="M899.5,590.1c13.9-37.1,6-56.2,6-56.2"/>
          </g>
          <path class="cls-20" d="M1145.2,1332c-.8-13.4-2.4-31.9-10.1-59.7-2.4-8.7-6.1-19-6.1-19-.5-4.2-1.2-19.4-2-23.5-4.2-21.8-2.2-73.8-5.9-115.9-3.6-42.1-17.1-65.6-20.4-74.7s-1.9-28.6-2.1-60-7.1-43.3-6.6-53.4c.5-10.1,1-7.5,4.1-26.7,3.1-19.2-3.8-57.1-14.2-75.8-10.4-18.7-25.3-21.5-33.1-30.3-7.8-8.8-17.7-7.8-17.7-7.8-15.8-10.6-61.1-32.1-82.4-43.7-9.7-5.3-48.7-55.2-48.7-55.2,0,0-39,49.8-48.7,55.2-21.3,11.7-66.5,33.1-82.4,43.7,0,0-9.9-1-17.7,7.8-7.8,8.8-22.7,11.6-33.1,30.3-10.4,18.7-17.3,56.6-14.2,75.8,3.1,19.2,3.6,16.6,4.1,26.7.5,10.1-6.4,22-6.6,53.4s1.2,51-2.1,60-16.8,32.7-20.4,74.7c-3.6,42.1-1.7,94-5.9,115.9-.8,4.1-1.5,19.3-2,23.5,0,0-3.8,10.3-6.1,19-7.6,27.8-9.2,46.4-10.1,59.7-2.1,17.2,10.9,17.4,10.9,17.4,0,0,2.3,6,6.4,6.2,4.1.2,7.3-.4,7.3-.4,0,0,3.8,6.5,10.3,6.9,6.5.3,9.1-2.3,9.1-2.3,0,0,3.6,2.6,9.4,2.9,5.8.3,7.5-6,7.5-6,0,0,2.1,1.9,4.8,2,6.8.3,6.7-8.4,9.5-16.6,1.9-5.5-.3-16,.5-31.5.8-15.5-12.6-28.5-18.2-34.4-3.8-4-1-17.1-1-17.1,1.9-15.7,5.9-35.9,15.5-52.8,12.5-22.1,25.1-73,29.4-106.8,4.4-34.5-.1-42.8,2.2-56.9s14.6-40.7,16.5-93.5c0,0,4.4,36.1,16.4,54.2,6.8,10.3,8.1,71.3,5.8,81.7-2.3,10.4-.1,42.1-.1,42.1,0,0-22.2,56.8-18.1,99.3-13.6,92.6-17.3,125.5-12.7,190.6,4.6,65.9,5.4,87.3,2.9,102-2.4,14.7-11.8,54.4-13.4,84.7-1.6,30.3,6,145.1,5.3,172.5-.3,14.1-.9,32.7-.9,46.9s1.4,14.4,1.4,20.3-5.9,18-5.7,29.5c.2,11.5-29.7,32.4-30.7,40.3,0,0-14.4,16.9-.5,24,0,0,3.4,10.5,13.5,6.8,0,0,4.7,9.5,16.2,4.1,0,0,5.1,8.4,20.3,1.7,0,0,3.4,5.4,16.6,5.4s15.9-6.8,19.9-16.2c4.1-9.5,8.4-7.4,8.4-17.8s-2-24.3,0-30.2c2-5.9,7.2-5.4,9-11.5,1.8-6.1.5-18.5-7.4-26.1s-2.1-19.2-2.1-33.3-2.8-25.3-2.8-36.8,2.9-29.6,11.5-72.5c8.7-43.4,27.4-63.2,30.7-106.8,3-40.6-2.7-66.2-.2-97.1,2.4-29.4,35.5-142.8,41.6-223.1,6.1,80.4,39.2,193.8,41.6,223.1,2.6,30.9-3.2,56.5-.2,97.1,3.3,43.5,22,63.4,30.7,106.8,8.6,42.9,11.5,58.6,11.5,72.5s-2.8,22.6-2.8,36.8,5.8,25.7-2.1,33.3-9.2,20.1-7.4,26.1c1.8,6.1,7,5.6,9,11.5,2,5.9,0,19.8,0,30.2s4.4,8.3,8.4,17.8c4.1,9.5,6.8,16.2,19.9,16.2s16.6-5.4,16.6-5.4c15.2,6.7,20.3-1.7,20.3-1.7,11.5,5.4,16.2-4.1,16.2-4.1,10.1,3.7,13.5-6.8,13.5-6.8,13.9-7.1-.5-24-.5-24-1-7.9-30.9-28.8-30.7-40.3.2-11.5-5.7-23.6-5.7-29.5s1.4-5,1.4-20.3-.5-32.7-.9-46.9c-.7-27.3,6.9-142.1,5.3-172.5-1.6-30.3-11-70-13.4-84.7-2.4-14.7-1.7-36.1,2.9-102,4.6-65.1.9-98-12.7-190.6,4.2-42.5-18.1-99.3-18.1-99.3,0,0,2.2-31.7-.1-42.1-2.3-10.4-1-71.4,5.8-81.7,12-18.1,16.4-54.2,16.4-54.2,1.9,52.8,14.2,79.5,16.5,93.5s-2.2,22.3,2.2,56.9c4.3,33.8,16.9,84.7,29.4,106.8,9.5,16.9,13.6,37.1,15.5,52.8,0,0,2.8,13.2-1,17.1-5.6,5.9-19,18.9-18.2,34.4.8,15.5-1.4,26,.5,31.5,2.8,8.2,2.7,16.9,9.5,16.6,2.8-.1,4.8-2,4.8-2,0,0,1.7,6.3,7.5,6,5.8-.3,9.4-2.9,9.4-2.9,0,0,2.6,2.6,9.1,2.3,6.5-.3,10.3-6.9,10.3-6.9,0,0,3.2.6,7.3.4,4.1-.2,6.4-6.2,6.4-6.2,0,0,13-.2,10.9-17.4Z"/>
          <path class="cls-11" d="M830.1,1492.9c-4.2,13.3-5.3,37.1-22.7,45.2"/>
          <path class="cls-11" d="M968.5,1492.9c4.2,13.3,5.3,37.1,22.7,45.2"/>
          <path class="cls-26" d="M845.6,775.1c-1-17.7,7.9-46.2,6.4-62.7h94.5c-1.5,16.4,7.4,45,6.4,62.7"/>
          <path class="cls-11" d="M712.8,1061.2c8.3-11.6,22.1-8.3,22.1-8.3"/>
          <g>
            <path class="cls-11" d="M848.1,807.9s-5.8,2.4-15.2,2.4-30.1-18.2-37.8-18.2"/>
            <path class="cls-11" d="M951.9,807.9s5.8,2.4,15.2,2.4c12.8,0,30.1-18.2,37.8-18.2"/>
            <path class="cls-11" d="M890.9,813.7s3.9,9.8,9.2,9.8,9.2-9.8,9.2-9.8"/>
          </g>
          <path class="cls-11" d="M1087.2,1061.2c-8.3-11.6-22.1-8.3-22.1-8.3"/>
          <g>
            <path class="cls-12" d="M1084.2,1356.6c-3.2-8.9,2.2-18.2-2.1-38.7"/>
            <path class="cls-12" d="M1101.1,1359.7c3.9-8.4,2.3-14.7,4.7-20.6"/>
            <path class="cls-12" d="M1120.5,1355.2c1.9-3.3-.7-7.7,3.2-17.5"/>
            <path class="cls-12" d="M1134.2,1349.4c-.3-5,2.8-9,2.6-14.9"/>
          </g>
          <g>
            <path class="cls-12" d="M715.8,1356.6c3.2-8.9-2.2-18.2,2.1-38.7"/>
            <path class="cls-12" d="M698.9,1359.7c-3.9-8.4-2.3-14.7-4.7-20.6"/>
            <path class="cls-12" d="M679.5,1355.2c-1.9-3.3.7-7.7-3.2-17.5"/>
            <path class="cls-12" d="M665.8,1349.4c.3-5-2.8-9-2.6-14.9"/>
          </g>
          <path class="cls-11" d="M938.4,712.4s-2.2,67.5-16.8,85.5"/>
          <path class="cls-11" d="M861.6,712.4s2.2,67.5,16.8,85.5"/>
          <path class="cls-11" d="M718.9,924.8c12-.8,38.6-12,43.7-34.1"/>
          <path class="cls-11" d="M1081.1,924.8c-12-.8-38.6-12-43.7-34.1"/>
          <g>
            <g>
              <path class="cls-34" d="M965.9,647.7s1.5-7.1,6.7-7.1,6.6,5.1,5.5,10.4c-1,5.1,1.4,9.2-.8,15.7-2.1,6.5-4.5,6.6-6.5,11-2,4.4-3.7,12.6-9.6,12.6s-7.4-7.2-7.4-9.9,5.9-32.7,12.1-32.7Z"/>
              <path class="cls-36" d="M975,648.4c-3.1,0-5.3,4.4-5.3,7.1s1.2,4.3,1.2,7.2-.5,3.7-1.9,6.5c-1.5,2.8-2.3,6.2-1.6,7.3"/>
              <path class="cls-14" d="M970.3,658.9s3.1,1.1,4.3-.5"/>
            </g>
            <g>
              <path class="cls-34" d="M834.1,647.7s-1.5-7.1-6.7-7.1-6.6,5.1-5.5,10.4c1,5.1-1.3,9.2.8,15.7,2.1,6.5,4.5,6.6,6.5,11,2,4.4,3.7,12.6,9.6,12.6s7.4-7.2,7.4-9.9-5.9-32.7-12.1-32.7Z"/>
              <path class="cls-36" d="M825,648.4c3.2,0,5.3,4.4,5.3,7.1s-1.2,4.3-1.2,7.2.5,3.7,1.9,6.5c1.5,2.8,2.3,6.2,1.6,7.3"/>
              <path class="cls-14" d="M829.7,658.9s-3.1,1.1-4.4-.5"/>
            </g>
            <path class="cls-35" d="M961,634.1c2.3-13-13.3-44-13.3-44-11.6-10.7-41.3-13.6-47.7.9-6.4-14.5-36.2-11.5-47.7-.9,0,0-15.6,31-13.3,44,2.3,13-3.9,30.4,1.9,43.7,5.9,13.3,4.9,33.4,10.1,42.3,5.2,8.9,13.3,13,16.3,15.4,3.6,2.8,15.7,16.6,32.7,16.5,17,0,29.1-13.7,32.7-16.5,3-2.4,11-6.5,16.3-15.4,5.3-8.9,4.2-29,10.1-42.3,5.9-13.3-.3-30.7,1.9-43.7Z"/>
            <path class="cls-51" d="M929.6,647c0,2.3,1.9,4.2,4.2,4.2s4.2-1.9,4.2-4.2-1.9-4.2-4.2-4.2-4.2,1.9-4.2,4.2Z"/>
            <path class="cls-51" d="M870.3,647c0,2.3-1.9,4.2-4.2,4.2s-4.2-1.9-4.2-4.2,1.9-4.2,4.2-4.2,4.2,1.9,4.2,4.2Z"/>
            <path class="cls-15" d="M888.7,632.1s-17-9.6-32.5-4"/>
            <path class="cls-15" d="M911.2,632.1s17-9.6,32.5-4"/>
            <line class="cls-41" x1="885.1" y1="707.4" x2="914.9" y2="707.4"/>
            <polygon class="cls-51" points="911.4 679.2 901.4 685.1 901.4 659.8 911.4 679.2"/>
          </g>
          <g>
            <path class="cls-11" d="M1025.2,1949.6s2.6-7.4,1.5-11.6-9.7-9.6-10.9-15.1"/>
            <path class="cls-11" d="M1045.5,1947.9s3.1-5.5,2-9.2-7.8-9.1-8.3-14"/>
            <path class="cls-11" d="M1061.7,1943.8s1-5,0-8c-1-3-6.6-9.2-7.1-11.5"/>
            <path class="cls-11" d="M1075.2,1937.1s-.2-5.4-1.8-7.5c-1.2-1.5-5.8-5.7-6.8-9.2"/>
          </g>
          <g>
            <path class="cls-11" d="M773.1,1949.6s-2.6-7.4-1.5-11.6c1.1-4.2,9.7-9.6,10.9-15.1"/>
            <path class="cls-11" d="M752.8,1947.9s-3.1-5.5-2-9.2c1.1-3.7,7.8-9.1,8.3-14"/>
            <path class="cls-11" d="M736.6,1943.8s-1-5,0-8c1-3,6.6-9.2,7.1-11.5"/>
            <path class="cls-11" d="M723.1,1937.1s.2-5.4,1.8-7.5,5.8-5.7,6.8-9.2"/>
          </g>
          <g>
            <g>
              <path class="cls-8" d="M760.9,876.7s-.6,51.8,28.9,64.4c42.2,18.1,88,3.3,98.9-9.2,6.8-7.8,7.8-12.5,7.8-12.5"/>
              <ellipse class="cls-11" cx="806.5" cy="922.5" rx="6" ry="4"/>
            </g>
            <g>
              <path class="cls-8" d="M1039.1,876.7s.6,51.8-28.9,64.4c-42.2,18.1-88,3.3-98.9-9.2-6.8-7.8-7.8-12.5-7.8-12.5"/>
              <ellipse class="cls-11" cx="993.5" cy="922.5" rx="6" ry="4"/>
            </g>
            <path class="cls-44" d="M986.5,1004s-13.7-24.9-46.7-44.8"/>
            <path class="cls-44" d="M813.6,1004s13.7-24.9,46.7-44.8"/>
            <path class="cls-44" d="M815.8,1138.1c10,10.7,23.7,43.7,36.6,54.3"/>
            <path class="cls-44" d="M984.3,1138.1c-10,10.7-23.7,43.7-36.6,54.3"/>
            <path class="cls-15" d="M896.5,1042.3c-5.1,14.8-55.5,7.3-63.8-3.7-6.8-9-5.2-22.8-5.2-22.8"/>
            <path class="cls-15" d="M896.5,1083.7c-5.1,14.8-55.5,7.3-63.8-3.7-6.8-9-5.2-23.8-5.2-23.8"/>
            <path class="cls-15" d="M897.5,1124c-5.1,14.8-56.5,6.3-64.8-4.7-6.8-9-5.2-21.8-5.2-21.8"/>
            <path class="cls-15" d="M905.2,1042.3c5.1,14.8,55.5,7.3,63.8-3.7,6.8-9,5.2-22.8,5.2-22.8"/>
            <path class="cls-15" d="M905.2,1083.7c5.1,14.8,55.5,7.3,63.8-3.7,6.8-9,5.2-23.8,5.2-23.8"/>
            <path class="cls-15" d="M904.2,1124c5.1,14.8,56.5,6.3,64.8-4.7,6.8-9,5.2-21.8,5.2-21.8"/>
            <path class="cls-15" d="M835.5,1001.2s54.8,11.2,61,1"/>
            <path class="cls-15" d="M966.2,1001.2s-54.8,11.2-61,1"/>
            <line class="cls-15" x1="900" y1="1094.2" x2="900" y2="1113"/>
            <line class="cls-15" x1="900" y1="1051" x2="900" y2="1068.7"/>
            <line class="cls-15" x1="900" y1="969.1" x2="900" y2="992.9"/>
            <line class="cls-15" x1="900" y1="853.2" x2="900" y2="876.9"/>
          </g>
          <g>
            <path class="cls-8" d="M868.6,1243.4c4.1,6.6,6.7,13.9,6.7,20.5,0,6.6-8.8,26.2,3.7,36.3,12.6,10,19.9,1.4,19.9,1.4,0,0,7.3,8.6,19.9-1.4,12.6-10,3.7-29.7,3.7-36.3s2.6-13.9,6.7-20.5"/>
            <path class="cls-8" d="M888.7,1250.8c1.7,5.5,0,31.8,2,35.7,2,3.9,8.3,1.8,8.3,1.8,0,0,6.3,2.1,8.3-1.8s.3-30.1,2-35.7"/>
            <path class="cls-8" d="M909.4,1288.1c0,3.1-1.8,14.2-10,14.2s-10-11.1-10-14.2,4.5-4.4,10-4.4,10,1.3,10,4.4Z"/>
          </g>
          <path class="cls-11" d="M784,816.7c-6.3,7.1-10.8,12.6-14,15.1"/>
          <path class="cls-11" d="M1016,816.7c6.3,7.1,10.8,12.6,14,15.1"/>
          <path class="cls-15" d="M715.3,949.6s-14.5,93.3,25.4,88"/>
          <path class="cls-15" d="M1084.7,949.6s14.5,93.3-25.4,88"/>
        </g>
        <path class="cls-31" d="M779.3,1208.5c-16.4,92.6-23.8,145.5-18.3,210.6,5.6,65.9,10.5,87.3,7.5,102-2.9,14.7-14.2,57.4-16.2,87.7-2,30.3,10.7,173.2,9.4,200.5-1.3,27.3,59.4,19.4,59.4,6.9s1-57.6,11.4-100.5c10.5-43.4,26.7-64.2,30.6-107.8,3.7-40.6-1.5-65.2,1.6-96.1,3.2-31.5,35.4-161.6,35.4-242v-118.2l-108.2-23.5s-17.6,37.9-12.5,80.4Z"/>
        <path class="cls-31" d="M1020.7,1208.5c16.4,92.6,23.8,145.5,18.3,210.6-5.6,65.9-10.5,87.3-7.5,102,2.9,14.7,14.2,57.4,16.2,87.7,2,30.3-10.7,173.2-9.4,200.5,1.3,27.3-59.4,19.4-59.4,6.9,0-13.9-1-57.6-11.4-100.5-10.5-43.4-26.7-64.2-30.6-107.8-3.7-40.6,1.5-65.2-1.6-96.1-3.2-31.5-35.4-161.6-35.4-242,0-40.4,0-118.2,0-118.2l108.2-23.5s17.6,37.9,12.5,80.4Z"/>
        <g>
          <polygon class="cls-39" points="900 1151.6 835.3 1151.6 835.3 1331 847 1359.7 847 1414 900 1406 953 1414 953 1359.7 964.7 1331 964.7 1151.6 900 1151.6"/>
          <polygon class="cls-47" points="900 1189.5 847.2 1189.5 847.2 1335.9 856.7 1359.3 856.7 1403.6 900 1397.1 943.3 1403.6 943.3 1359.3 952.8 1335.9 952.8 1189.5 900 1189.5"/>
          <polyline class="cls-47" points="856.7 1359.3 881.9 1323.6 881.9 1189.5"/>
          <polyline class="cls-47" points="943.3 1359.3 918.1 1323.6 918.1 1189.5"/>
          <line class="cls-3" x1="900" y1="1397.1" x2="900" y2="1189.5"/>
        </g>
        <g>
          <polygon class="cls-39" points="993.3 1443.5 962.1 1453.5 957.6 1217.3 949.1 1171.8 1019.3 1161.8 993.3 1203.9 993.3 1443.5"/>
          <path class="cls-19" d="M978.5,1425.8c-13.8-8.4-11.3-35.7-11.3-35.7l-6.3.7,1.2,62.7,31.2-10v-18.2c-5.2,1.7-11.2,2.7-14.8.5Z"/>
        </g>
        <g>
          <polygon class="cls-39" points="806.7 1443.5 837.9 1453.5 842.4 1217.3 850.9 1171.8 780.7 1161.8 806.7 1203.9 806.7 1443.5"/>
          <path class="cls-19" d="M821.5,1425.8c13.8-8.4,11.3-35.7,11.3-35.7l6.3.7-1.2,62.7-31.2-10v-18.2c5.2,1.7,11.2,2.7,14.8.5Z"/>
        </g>
        <g>
          <path class="cls-18" d="M1005.9,1081.6c-2.4-13.7.4-60.5,3.4-65.7s8.7-19.9,8.7-19.9c-18.5-23.6-4.1-53-11.1-72.5-6.8-18.8-5.6-17.5-11.5-36,20.9-31,24.9-109.6,24.9-109.6-13.7-17.9-50-26-50-26-11.7,44.1-70.3,72.1-70.3,90.3,0-18.1-58.5-46.2-70.3-90.3,0,0-36.3,8.1-50,26,0,0,4,78.6,24.9,109.6-5.9,18.5-4.7,17.3-11.5,36-7,19.5,7.4,48.9-11.1,72.5,0,0,5.7,14.6,8.7,19.9s5.9,52.1,3.4,65.7c-2.4,13.7-21.8,46.5-19.9,94.2,0,0,36.7,2.2,53.9,10l-2.8,9.4s52.7,29.9,56.2,43.7c0,0,12.5-4.3,18.5-4.3s18.5,4.3,18.5,4.3c3.5-13.9,56.2-43.7,56.2-43.7l-2.8-9.4c17.2-7.8,53.9-10,53.9-10,1.8-47.7-17.5-80.5-19.9-94.2Z"/>
          <line class="cls-15" x1="894.3" y1="1052.9" x2="894.3" y2="1141.1"/>
          <line class="cls-15" x1="906" y1="1052.9" x2="906" y2="1141.1"/>
          <g>
            <g>
              <path class="cls-37" d="M882.9,892.1l1.5,74.1-17.4-23.2-7.6-37.1s-27.3-33.7-49.8-47l4.3-6.9s43.3,20.4,69.1,40.1Z"/>
              <path class="cls-32" d="M869,942.1l-7.6-37.1-.2-.3c-1-1.4-26.2-31.9-48.2-46.2l1.4-3.6c7.8,3.8,43.7,21.4,66.3,38.5l1.3,66-12.9-17.2Z"/>
            </g>
            <g>
              <path class="cls-37" d="M819.3,825.8s53.8,23.8,78.5,47.5v33.5l-4.3,8.3v64.6l4.3,11.5v37.9l-11.9,11.9-13.3-16.3s9.1-4.1,9.1-16.7v-33.2c0-20-11.9-52.2-11.9-52.2,0,0,7.3-3.7,10.5-11.4-2.3-11.7-19.8-34.5-19.8-34.5l-3.2-11.7-37.8-29.6v-9.6Z"/>
              <path class="cls-32" d="M876.7,1025.1c2.4-2.3,8.3-7.5,8.3-17.2v-33.2c0-17.7-8.9-44.1-11.4-51.2,2.6-1.7,6.3-5.4,8.8-11.5l.3-.6v-.7c-2.4-11.4-17.7-32-20-35l-3.3-12-37.6-29.4v-4.6c11.2,3.2,51.9,26,72.9,45.5v31l-4.3,8.3v65.6l4.3,11.5v36.6l-8.3,8.3-9.6-11.4Z"/>
            </g>
            <g>
              <path class="cls-37" d="M918.8,892.1l-1.5,74.1,17.4-23.2,7.6-37.1s27.3-33.7,49.8-47l-4.3-6.9s-43.3,20.4-69.1,40.1Z"/>
              <path class="cls-32" d="M932.6,942.1l7.6-37.1.2-.3c1-1.4,26.2-31.9,48.2-46.2l-1.4-3.6c-7.8,3.8-43.7,21.4-66.3,38.5l-1.3,66,12.9-17.2Z"/>
            </g>
            <g>
              <path class="cls-37" d="M982.3,825.8s-53.8,23.8-78.5,47.5v33.5s4.3,8.3,4.3,8.3v64.6s-4.3,11.5-4.3,11.5v37.9s11.9,11.9,11.9,11.9l13.3-16.3s-9.1-4.1-9.1-16.7c0-12.6,0-13.2,0-33.2s11.9-52.2,11.9-52.2c0,0-7.3-3.7-10.5-11.4,2.3-11.7,19.8-34.5,19.8-34.5l3.3-11.7,37.8-29.6v-9.6Z"/>
              <path class="cls-32" d="M925,1025.1c-2.4-2.3-8.3-7.5-8.3-17.2v-33.2c0-17.7,8.9-44.1,11.4-51.2-2.6-1.7-6.3-5.4-8.8-11.5l-.3-.6v-.7c2.4-11.4,17.7-32,20-35l3.3-12,37.6-29.4v-4.6c-11.2,3.2-51.9,26-72.9,45.5v31s4.3,8.3,4.3,8.3v65.6s-4.3,11.5-4.3,11.5v36.6s8.3,8.3,8.3,8.3l9.6-11.4Z"/>
            </g>
          </g>
          <polyline class="cls-3" points="883.9 1229.9 887.3 1220.3 883.9 1114.7"/>
          <polyline class="cls-3" points="916.1 1229.9 912.7 1220.3 916.1 1114.7"/>
          <g>
            <polygon class="cls-37" points="881.9 1169.5 892.2 1172.3 900.1 1155.4 900.1 1121.2 881.9 1101.1 881.9 1169.5"/>
            <polygon class="cls-32" points="884.8 1165.6 884.8 1111.3 896.3 1125.1 896.3 1152.9 889.6 1167.2 884.8 1165.6"/>
          </g>
          <g>
            <polygon class="cls-37" points="918.4 1169.5 908 1172.3 900.1 1155.4 900.1 1121.2 918.4 1101.1 918.4 1169.5"/>
            <polygon class="cls-32" points="915.5 1165.6 915.5 1111.3 904 1125.1 904 1152.9 910.7 1167.2 915.5 1165.6"/>
          </g>
          <path class="cls-15" d="M837.4,1182l-2.4,11.6s45.8,24.8,48.9,36.3c0,0,10.9-3.6,16.1-3.6s16.1,3.6,16.1,3.6c3-11.5,48.9-36.3,48.9-36.3l-2.4-11.6"/>
          <path class="cls-10" d="M981.6,760.2c-13.6,51.2-81.6,83.8-81.6,104.9,0-21.1-68-53.7-81.6-104.9"/>
          <path class="cls-10" d="M804.6,887.5l17,21.7,25.8,13.4s10.2,34.5,20.9,46.6v24.2c0,6.2,7.8,25.7,0,41.6-6.8,13.7-12.3,15-12.3,15"/>
          <path class="cls-10" d="M995.4,887.5l-17,21.7-25.8,13.4s-10.2,34.5-20.9,46.6c0,0,0,18,0,24.2s-7.8,25.7,0,41.6c6.8,13.7,12.3,15,12.3,15"/>
          <polygon class="cls-17" points="874.3 1185.7 836.9 1181.7 790.8 1167.2 805.8 1071.8 856 1050 884.5 1076.3 884.5 1166.8 874.3 1185.7"/>
          <polygon class="cls-17" points="925.7 1185.7 963.1 1181.7 1009.2 1167.2 994.2 1071.8 944 1050 915.5 1076.3 915.5 1166.8 925.7 1185.7"/>
          <polyline class="cls-3" points="821.6 909.2 804.6 949.6 797.4 995.3 816.5 1032.3 805.8 1071.8"/>
          <polyline class="cls-3" points="978.4 909.2 995.4 949.6 1002.6 995.3 983.5 1032.3 994.2 1071.8"/>
          <polyline class="cls-10" points="915.8 1076.3 900.1 1041 884.5 1076.3"/>
          <polyline class="cls-3" points="868.3 993.4 865.1 1015.8 835.5 1036.5 816.5 1032.3"/>
          <polyline class="cls-3" points="931.7 993.4 934.9 1015.8 964.5 1036.5 983.5 1032.3"/>
        </g>
        <g>
          <path class="cls-1" d="M710.5,1269.8h0c-.3-5.1.9-10.9.9-10.9,1.9-15.7,8.4-28.5,18.6-52.7,11-26.1,25.2-74.6,26.3-106.9,0,0-20.3,11.5-72.3-11.1-.4-.2-.9-.4-1.3-.5-1.6,7.8-3,16.4-3.8,26.1-3.6,42.1-1.7,94-5.9,115.9-.8,4.1-1.5,19.3-2,23.5,0,0-3.8,10.3-6.1,19-.6,2.2-1.2,4.4-1.7,6.5.1-.1,25.8-21.3,47.3-8.9Z"/>
          <rect class="cls-40" x="705.8" y="1132.6" width="46" height="16.9" transform="translate(245.3 -123.6) rotate(11.6)"/>
          <rect class="cls-40" x="674" y="1224.3" width="46" height="16.9" transform="translate(439.3 -159.7) rotate(19)"/>
          <path class="cls-48" d="M676.3,1068.7c1.4-8.4,51.9,16.8,61.5,33.8,0,0,1.8,26.8-2.5,36.1,0,0-40,79.3-34.7,133.7,0,0-20.4,17.2-42.7,13.7-.7-13.9,8.9-16.8,9-36.2.2-34.8-5.3-91.8,9.3-181.1Z"/>
          <path class="cls-37" d="M675.3,1075c10.2-1,27.9,13.8,33.7,17.8s13.8,8.9,13.8,8.9v28.8l-24.7,29.8-8.9,92.9,4.5,8.9-12.8,6.8-7.2-1.8,6.7-12,1.6-98.7,25-28.6,2.7-21.6-4-4.6-33.5-5s-3.8-12.7,3.1-21.4Z"/>
          <path class="cls-32" d="M676.8,1265.4l5.8-10,1.6-98.3,24.9-28.5,2.9-23.3-5.2-6-32.8-4.9c-.6-3.2-1.7-11.2,2.4-17.2,7.9.2,20.8,9.7,27.7,14.9,1.4,1,2.6,1.9,3.5,2.6,4.6,3.2,10.4,6.8,12.9,8.3v26.7l-24.7,29.7-9.1,94.3,3.9,7.6-10.2,5.1-3.7-.9Z"/>
        </g>
        <g>
          <path class="cls-1" d="M1091.3,1269.8h0c.3-5.1-.9-10.9-.9-10.9-1.9-15.7-8.4-28.5-18.6-52.7-11-26.1-25.2-74.6-26.3-106.9,0,0,20.3,11.5,72.3-11.1.4-.2.9-.4,1.3-.5,1.6,7.8,3,16.4,3.8,26.1,3.6,42.1,1.7,94,5.9,115.9.8,4.1,1.5,19.3,2,23.5,0,0,3.8,10.3,6.1,19,.6,2.2,1.2,4.4,1.7,6.5-.1-.1-25.8-21.3-47.3-8.9Z"/>
          <rect class="cls-40" x="1049.9" y="1132.6" width="46" height="16.9" transform="translate(2354.1 2042.1) rotate(168.4)"/>
          <rect class="cls-40" x="1081.7" y="1224.3" width="46" height="16.9" transform="translate(2550.5 2038.9) rotate(161)"/>
          <path class="cls-48" d="M1125.4,1068.7c-1.4-8.4-51.9,16.8-61.5,33.8,0,0-1.8,26.8,2.5,36.1,0,0,40,79.3,34.7,133.7,0,0,20.4,17.2,42.7,13.7.7-13.9-8.9-16.8-9-36.2-.2-34.8,5.3-91.8-9.3-181.1Z"/>
          <path class="cls-37" d="M1126.4,1075c-10.2-1-27.9,13.8-33.7,17.8s-13.8,8.9-13.8,8.9v28.8s24.7,29.8,24.7,29.8l8.9,92.9-4.5,8.9,12.7,6.8,7.2-1.8-6.7-12-1.6-98.7-25-28.6-2.7-21.6,4-4.6,33.5-5s3.8-12.7-3.1-21.4Z"/>
          <path class="cls-32" d="M1124.9,1265.4l-5.8-10-1.6-98.3-24.9-28.5-2.9-23.3,5.2-6,32.8-4.9c.6-3.2,1.7-11.2-2.4-17.2-7.9.2-20.8,9.7-27.7,14.9-1.4,1-2.6,1.9-3.5,2.6-4.6,3.2-10.4,6.8-12.9,8.3v26.7s24.7,29.7,24.7,29.7l9.1,94.3-3.9,7.6,10.2,5.1,3.7-.9Z"/>
        </g>
        <path class="cls-39" d="M704,824.8s19.9,9.5,30.3,25.5c10.7,16.3,40.6,34.7,60.8,33.3s32.4-3,37.8-11c5.4-8,13.6-23.3,12.9-26.2-.7-2.8-22.4-56.6-16.1-94.6,0,0-83.1,28.2-125.7,73Z"/>
        <path class="cls-39" d="M1096,824.8s-19.9,9.5-30.3,25.5c-10.7,16.3-40.6,34.7-60.8,33.3s-32.4-3-37.8-11c-5.4-8-13.6-23.3-12.9-26.2s22.4-56.6,16.1-94.6c0,0,83.1,28.2,125.7,73Z"/>
        <g>
          <path class="cls-2" d="M819,831.8c5.7-18.5,1-67.9,4.5-78.4,3.5-10.5-32.9,0-39.5,10-4.2,6.4-22.5,0-39,21.3-7.4,9.6-17.2,3.2-28.2,15.9,0,0,29.9,42.4,69.2,52.5,39.3,10.1,33-21.4,33-21.4Z"/>
          <path class="cls-4" d="M794.1,846.7s-35.8-12.8-54.3-51.6"/>
          <path class="cls-4" d="M802.3,837.1s-10.4-26.9-.8-66.3"/>
          <path class="cls-4" d="M795.1,832.4s-22.4-18.1-26.8-44.5"/>
          <path class="cls-4" d="M783.3,775.2s-.4,14.8,4.4,26.7"/>
        </g>
        <g>
          <path class="cls-2" d="M981,831.8c-5.7-18.5-1-67.9-4.5-78.4-3.5-10.5,32.9,0,39.5,10s22.5,0,39,21.3c7.4,9.6,16.2,3.2,27.2,15.9,0,0-28.9,42.4-68.2,52.5s-33-21.4-33-21.4Z"/>
          <path class="cls-4" d="M1005.9,846.7s35.8-12.8,54.3-51.6"/>
          <path class="cls-4" d="M997.7,837.1s10.4-26.9.8-66.3"/>
          <path class="cls-4" d="M1004.9,832.4s22.4-18.1,26.8-44.5"/>
          <path class="cls-4" d="M1016.7,775.2s.4,14.8-4.4,26.7"/>
        </g>
        <g>
          <circle class="cls-6" cx="801.5" cy="842.9" r="35.5"/>
          <circle class="cls-25" cx="801.5" cy="842.9" r="27.5"/>
        </g>
        <g>
          <circle class="cls-6" cx="834.5" cy="991.4" r="28.1"/>
          <circle class="cls-25" cx="834.5" cy="991.4" r="19.6"/>
        </g>
        <g>
          <circle class="cls-6" cx="998.5" cy="842.9" r="35.5"/>
          <circle class="cls-25" cx="998.5" cy="842.9" r="27.5"/>
        </g>
        <g>
          <circle class="cls-6" cx="965.5" cy="991.4" r="28.1"/>
          <circle class="cls-25" cx="965.5" cy="991.4" r="19.6"/>
        </g>
        <g>
          <circle class="cls-6" cx="845.5" cy="1110" r="28.1"/>
          <circle class="cls-25" cx="845.5" cy="1110" r="19.6"/>
        </g>
        <g>
          <circle class="cls-6" cx="954.5" cy="1110" r="28.1"/>
          <circle class="cls-25" cx="954.5" cy="1110" r="19.6"/>
        </g>
        <g>
          <path class="cls-49" d="M871.5,1549c-6.2,11.2-36.6,11.5-48.8,12.5s-12,20.5-24.2,18.6c-11.7-1.8-6.9-16.8-15.6-21.8-8.7-5-23-11.1-26.6-21.7,0,0-9.4,44.4-8.9,83.4s15.2,177.7,13.2,219.8-30.7,52.9-41.2,78c-14,33.2,46,72.2,79.2,45.5s21.2-45.8,22-62.8,10.2-16.5,11-22.8c.8-6.5,2.2-22-7.2-38-10-16.8,1.5-103.8,16.5-138.8s33.2-110,30.5-152Z"/>
          <path class="cls-37" d="M822.8,1561.5c-12.1,1-16.9,19.5-24.7,18.7s-6.4-16.8-15.1-21.8c-8.7-5-23-11.1-26.6-21.7,0,0-3.5,16.5-6.1,38.3,18.6-3.7,31.5,29.4,41,56.5,15.8-24.3,59.8-53.2,79-48.5,1.3-12.5,1.8-24.1,1.2-33.9-6.2,11.2-36.6,11.5-48.8,12.5Z"/>
          <path class="cls-28" d="M871.7,1562.3c-9.6,3.1-30.3,6.5-42.8,7.2-2.1.1-3.9.2-5.4.4-1.5.1-3,2.4-5.2,5.9-3.2,5.1-14.2,12.5-21.4,11.8s-13.4-10.9-15-16.3c-.6-2.2-2.3-5.2-3.1-5.7-1.3-.7-2.8-1.5-4.3-2.4-3-1.6-13.9-8-20.7-12.2-.5,2.8-1,5.9-1.5,9.3,13.2,4.2,31.7,21.9,40.4,52.2,18-19.1,58-39,78.7-40.9.2-3.2.4-6.3.4-9.3Z"/>
          <g>
            <g>
              <path class="cls-37" d="M770.5,1672s8.1,19.7,16,25l-3.2,112.8-11.9,13.8-3-4.9s7.2-7.3,7.5-29c.3-22.1,1.7-72.5-4.6-85.7-6.3-13.2-11.8-20-11.8-20l11-12Z"/>
              <path class="cls-32" d="M772,1818.6c2.4-3.6,6.5-12.4,6.7-28.8,0-2,0-4.2,0-6.6.5-32.8.6-68.7-5-80.3-4.5-9.4-8.6-15.6-10.7-18.6l6.5-7.1c2.7,5.9,8.1,16.4,13.9,21.2l-3.1,110.3-8.5,9.9Z"/>
            </g>
            <g>
              <path class="cls-37" d="M803.8,1673s-9.2,19.2-17.3,24l-3.2,112.8,11.1,14.5,3.3-4.7s-6.8-7.7-5.8-29.3c1-22.1,2.4-72.5,9.4-85.3,7-12.8,12.9-19.3,12.9-19.3l-10.3-12.6Z"/>
              <path class="cls-32" d="M794.1,1819.2c-2.1-3.8-5.8-12.7-5.1-29.2,0-2,.2-4.2.3-6.6,1.3-32.8,3.3-68.6,9.5-79.9,5-9.1,9.4-15.1,11.7-18l-6.1-7.5c-3.1,5.7-9,15.9-15.1,20.4l-3.1,110.3,7.9,10.4Z"/>
            </g>
          </g>
          <path class="cls-45" d="M748.6,1586c14.1,6,26.7,37.6,26.4,47.3s27,12.4,30,5.5,38.5-47.8,63-44.5"/>
          <path class="cls-45" d="M745.6,1603c14.1,6,26.7,37.6,26.4,47.3-.3,9.7,27,12.4,30,5.5s38.5-47.8,63-44.5"/>
          <path class="cls-45" d="M743.8,1618.9c14.1,6,26.7,37.6,26.4,47.3-.3,9.7,27,12.4,30,5.5s38.5-47.8,63-44.5"/>
          <path class="cls-45" d="M824.5,1839.7c-7-16.5-25.6-3.5-29.9,13.2,0,0-14.5-1.5-17.7,0,0,0-4.9-33-16.2-13.2"/>
          <path class="cls-45" d="M826.8,1843.9c-3.3-11.5-39.9,29.3-41.9,70.3,0,0-2-9.9-8.7-10.9s-13.9,8.2-13.9,8.2c0,0,16.5-67.5-2.5-62.1"/>
          <path class="cls-45" d="M832.3,1869.2c-6.6,15-16.8,9-15.1,28s-10,62.8-47.5,59.2-50.7-18-50.8-37.3"/>
        </g>
        <g>
          <path class="cls-49" d="M930.2,1549c6.2,11.3,36.6,11.5,48.7,12.5s12,20.5,24.2,18.6c11.7-1.8,6.9-16.8,15.6-21.8s23-11.1,26.6-21.7c0,0,9.4,44.4,8.9,83.4s-15.3,177.7-13.3,219.7c2,42,30.7,52.9,41.2,78,14,33.3-46,72.2-79.3,45.5-33.2-26.8-21.2-45.8-22-62.8-.7-17-10.2-16.5-11-22.8-.8-6.5-2.2-22,7.3-38,10-16.8-1.5-103.8-16.5-138.8-15-35-33.2-110-30.5-152Z"/>
          <path class="cls-37" d="M979,1561.5c12.1,1,16.9,19.5,24.7,18.7s6.4-16.8,15.1-21.8c8.7-5,23-11.1,26.6-21.7,0,0,3.5,16.5,6.1,38.3-18.6-3.7-31.5,29.4-41,56.5-15.8-24.3-59.8-53.2-79-48.5-1.3-12.5-1.8-24.1-1.2-33.9,6.2,11.3,36.6,11.5,48.7,12.5Z"/>
          <path class="cls-28" d="M930,1562.3c9.6,3.1,30.3,6.5,42.8,7.2,2.1.1,3.9.2,5.4.4,1.5.1,3,2.4,5.2,5.9,3.2,5.1,14.2,12.5,21.4,11.8,6.3-.6,13.4-10.9,15-16.3.6-2.2,2.3-5.2,3.1-5.7,1.3-.7,2.8-1.5,4.3-2.4,3-1.6,13.9-8,20.7-12.2.5,2.8,1,5.9,1.5,9.3-13.2,4.2-31.7,21.9-40.4,52.2-18-19.1-58-39-78.7-40.9-.2-3.2-.4-6.3-.4-9.3Z"/>
          <g>
            <g>
              <path class="cls-37" d="M1031.3,1672s-8.1,19.7-16,25l3.2,112.8,11.9,13.8,3-4.9s-7.2-7.3-7.5-29c-.3-22.1-1.7-72.5,4.6-85.7,6.3-13.2,11.8-20,11.8-20l-11-12Z"/>
              <path class="cls-32" d="M1029.8,1818.6c-2.4-3.6-6.5-12.4-6.7-28.8,0-2,0-4.2,0-6.6-.5-32.8-.6-68.7,5-80.3,4.5-9.4,8.6-15.6,10.7-18.6l-6.5-7.1c-2.7,5.9-8.1,16.4-13.9,21.2l3.1,110.3,8.5,9.9Z"/>
            </g>
            <g>
              <path class="cls-37" d="M997.9,1673s9.2,19.2,17.3,24l3.2,112.8-11.1,14.5-3.3-4.7s6.8-7.7,5.8-29.3c-1-22.1-2.4-72.5-9.4-85.3-7-12.8-12.9-19.3-12.9-19.3l10.3-12.6Z"/>
              <path class="cls-32" d="M1007.7,1819.2c2.1-3.8,5.8-12.7,5.1-29.2,0-2-.2-4.2-.3-6.6-1.3-32.8-3.3-68.6-9.5-79.9-5-9.1-9.4-15.1-11.7-18l6.1-7.5c3.1,5.7,9,15.9,15.1,20.4l3.1,110.3-7.9,10.4Z"/>
            </g>
          </g>
          <path class="cls-45" d="M1053.1,1586c-14.1,6-26.7,37.6-26.4,47.3.3,9.7-27,12.4-30,5.5-3-6.9-38.5-47.8-63-44.5"/>
          <path class="cls-45" d="M1056.2,1603c-14.1,6-26.7,37.6-26.4,47.3.3,9.7-27,12.4-30,5.5-3-6.9-38.5-47.8-63-44.5"/>
          <path class="cls-45" d="M1057.9,1618.9c-14.1,6-26.7,37.6-26.4,47.3.3,9.7-27,12.4-30,5.5-3-6.9-38.5-47.8-63-44.5"/>
          <path class="cls-45" d="M977.2,1839.7c7-16.5,25.6-3.5,29.9,13.3,0,0,14.5-1.5,17.7,0,0,0,4.9-33,16.2-13.2"/>
          <path class="cls-45" d="M975,1843.9c3.3-11.5,39.9,29.3,41.9,70.3,0,0,2-9.9,8.7-10.9s13.9,8.3,13.9,8.3c0,0-16.5-67.5,2.5-62.1"/>
          <path class="cls-45" d="M969.4,1869.2c6.6,15,16.8,9,15.1,28s10,62.8,47.5,59.3c37.5-3.5,50.7-18,50.8-37.3"/>
        </g>
      </g>
      <g>
        <polygon class="cls-27" points="436.8 1523.1 423.3 1523.1 409.7 1523.1 405.9 1528.2 403.9 1554 413.3 1562.7 423.3 1562.7 433.3 1562.7 442.6 1554 440.7 1528.2 436.8 1523.1"/>
        <g>
          <polygon class="cls-29" points="505.5 1167.1 341 1167.1 319.8 1180.6 319.8 1275.6 360.4 1304.4 423.3 1304.4 486.2 1304.4 526.8 1275.6 526.8 1180.6 505.5 1167.1"/>
          <polygon class="cls-38" points="504.3 1276.8 423.3 1276.8 342.2 1276.8 319.8 1269.9 319.8 1275.6 360.4 1304.4 423.3 1304.4 486.2 1304.4 526.8 1275.6 526.8 1269.9 504.3 1276.8"/>
          <polyline class="cls-23" points="423.3 1304.4 486.2 1304.4 526.8 1275.6"/>
          <polyline class="cls-4" points="423.3 1264.9 452.8 1264.9 458.9 1271.9 502.4 1271.9"/>
          <polygon class="cls-7" points="505.8 1270.4 523.9 1265.5 523.9 1187.8 505.8 1179.1 505.8 1270.4"/>
          <line class="cls-11" x1="458.1" y1="1304.4" x2="458.1" y2="1283.5"/>
          <polyline class="cls-23" points="423.3 1304.4 360.4 1304.4 319.8 1275.6"/>
          <polyline class="cls-4" points="423.3 1264.9 393.7 1264.9 387.7 1271.9 344.2 1271.9"/>
          <polygon class="cls-7" points="340.8 1270.4 322.7 1265.5 322.7 1187.8 340.8 1179.1 340.8 1270.4"/>
          <polygon class="cls-27" points="423.3 1296.4 406.4 1296.4 407.3 1310.2 423.3 1310.2 439.2 1310.2 440.2 1296.4 423.3 1296.4"/>
          <line class="cls-11" x1="388.5" y1="1304.4" x2="388.5" y2="1283.5"/>
          <rect class="cls-42" x="400.2" y="1159.3" width="46.1" height="7.8"/>
        </g>
        <rect class="cls-21" x="415.5" y="1562.7" width="15.5" height="124.2"/>
        <g>
          <rect class="cls-21" x="410.1" y="1310.2" width="26.4" height="213"/>
          <g>
            <polygon class="cls-9" points="436.5 1339.1 410.1 1324.6 410.1 1316.5 436.5 1331 436.5 1339.1"/>
            <polygon class="cls-9" points="436.5 1364.8 410.1 1350.3 410.1 1342.1 436.5 1356.6 436.5 1364.8"/>
            <polygon class="cls-9" points="436.5 1390.4 410.1 1375.9 410.1 1367.7 436.5 1382.2 436.5 1390.4"/>
            <polygon class="cls-9" points="436.5 1416 410.1 1401.5 410.1 1393.4 436.5 1407.9 436.5 1416"/>
            <polygon class="cls-9" points="436.5 1441.7 410.1 1427.2 410.1 1419 436.5 1433.5 436.5 1441.7"/>
            <polygon class="cls-9" points="436.5 1467.3 410.1 1452.8 410.1 1444.6 436.5 1459.1 436.5 1467.3"/>
            <polygon class="cls-9" points="436.5 1492.9 410.1 1478.4 410.1 1470.2 436.5 1484.7 436.5 1492.9"/>
            <polygon class="cls-9" points="436.5 1518.5 410.1 1504 410.1 1495.9 436.5 1510.4 436.5 1518.5"/>
          </g>
        </g>
        <line class="cls-4" x1="344.3" y1="1176.9" x2="502.2" y2="1176.9"/>
      </g>
    </g>
  </g>
</svg>