<?xml version="1.0" encoding="UTF-8"?>
<svg xmlns="http://www.w3.org/2000/svg" version="1.1" viewBox="0 0 1800 2400">
  <defs>
    <style>
      .cls-1, .cls-2, .cls-3, .cls-4, .cls-5, .cls-6, .cls-7, .cls-8, .cls-9, .cls-10, .cls-11, .cls-12, .cls-13, .cls-14, .cls-15, .cls-16, .cls-17, .cls-18, .cls-19, .cls-20, .cls-21, .cls-22, .cls-23, .cls-24, .cls-25, .cls-26, .cls-27, .cls-28, .cls-29, .cls-30, .cls-31, .cls-32, .cls-33, .cls-34, .cls-35, .cls-36, .cls-37 {
        stroke: #231f20;
      }

      .cls-1, .cls-2, .cls-3, .cls-5, .cls-6, .cls-8, .cls-9, .cls-12, .cls-13, .cls-15, .cls-16, .cls-22, .cls-29, .cls-30, .cls-31, .cls-36, .cls-37 {
        stroke-linejoin: round;
      }

      .cls-1, .cls-10, .cls-30, .cls-32 {
        stroke-width: 6px;
      }

      .cls-1, .cls-13, .cls-15, .cls-26 {
        fill: #be1e2d;
      }

      .cls-2, .cls-3, .cls-6, .cls-8, .cls-9, .cls-11, .cls-12, .cls-13, .cls-15, .cls-17, .cls-18, .cls-20, .cls-21, .cls-25, .cls-29, .cls-33, .cls-35, .cls-37 {
        stroke-linecap: round;
      }

      .cls-2, .cls-8, .cls-12, .cls-18, .cls-20, .cls-24, .cls-25, .cls-38, .cls-27, .cls-28, .cls-29, .cls-37 {
        fill: none;
      }

      .cls-2, .cls-11, .cls-25, .cls-26, .cls-36 {
        stroke-width: 2px;
      }

      .cls-3, .cls-5, .cls-6, .cls-17, .cls-19, .cls-30, .cls-32 {
        fill: #c5cbb5;
      }

      .cls-3, .cls-8, .cls-15, .cls-17, .cls-19, .cls-24, .cls-33 {
        stroke-width: 4px;
      }

      .cls-4, .cls-6, .cls-14, .cls-28, .cls-29, .cls-31, .cls-34 {
        stroke-width: 5px;
      }

      .cls-4, .cls-7, .cls-10, .cls-11, .cls-14, .cls-17, .cls-18, .cls-19, .cls-20, .cls-21, .cls-23, .cls-24, .cls-25, .cls-38, .cls-26, .cls-27, .cls-28, .cls-32, .cls-33, .cls-34, .cls-35 {
        stroke-miterlimit: 10;
      }

      .cls-4, .cls-7, .cls-11, .cls-31, .cls-36 {
        fill: #fff;
      }

      .cls-5, .cls-21, .cls-23, .cls-35, .cls-37 {
        stroke-width: 7px;
      }

      .cls-7, .cls-9, .cls-12, .cls-13, .cls-16, .cls-18, .cls-22, .cls-27 {
        stroke-width: 3px;
      }

      .cls-9 {
        fill: #8a5d3b;
      }

      .cls-10 {
        fill: #e4dbce;
      }

      .cls-14, .cls-23 {
        fill: #ffce34;
      }

      .cls-16 {
        fill: #ffdd15;
      }

      .cls-39 {
        fill: #231f20;
      }

      .cls-21 {
        fill: #6b8884;
      }

      .cls-22 {
        fill: #f1f1f2;
      }

      .cls-38 {
        stroke: #5a4a42;
        stroke-width: .5px;
      }

      .cls-33 {
        fill: #fff8d2;
      }

      .cls-34 {
        fill: #00a69c;
      }

      .cls-35 {
        fill: #157c73;
      }
    </style>
  </defs>
  <!-- Generator: Adobe Illustrator 28.7.4, SVG Export Plug-In . SVG Version: 1.2.0 Build 166)  -->
  <g>
    <g id="Layer_1">
      <g>
        <rect class="cls-34" x="0" y="0" width="1800" height="2400"/>
        <g>
          <g>
            <line class="cls-28" x1="130" y1="0" x2="130" y2="130"/>
            <line class="cls-28" x1="284" y1="0" x2="284" y2="130"/>
            <line class="cls-28" x1="438" y1="0" x2="438" y2="130"/>
            <line class="cls-28" x1="592" y1="0" x2="592" y2="130"/>
            <line class="cls-28" x1="746" y1="0" x2="746" y2="130"/>
            <line class="cls-28" x1="900" y1="0" x2="900" y2="130"/>
            <line class="cls-28" x1="1054" y1="0" x2="1054" y2="130"/>
            <line class="cls-28" x1="1208" y1="0" x2="1208" y2="130"/>
            <line class="cls-28" x1="1362" y1="0" x2="1362" y2="130"/>
            <line class="cls-28" x1="1516" y1="0" x2="1516" y2="130"/>
            <line class="cls-28" x1="1670" y1="0" x2="1670" y2="130"/>
          </g>
          <g>
            <line class="cls-24" x1="130" y1="0" x2="130" y2="72.1"/>
            <line class="cls-24" x1="160.8" y1="0" x2="160.8" y2="72.1"/>
            <line class="cls-24" x1="191.6" y1="0" x2="191.6" y2="72.1"/>
            <line class="cls-24" x1="222.4" y1="0" x2="222.4" y2="72.1"/>
            <line class="cls-24" x1="253.2" y1="0" x2="253.2" y2="72.1"/>
            <line class="cls-24" x1="284" y1="0" x2="284" y2="72.1"/>
            <line class="cls-24" x1="314.8" y1="0" x2="314.8" y2="72.1"/>
            <line class="cls-24" x1="345.6" y1="0" x2="345.6" y2="72.1"/>
            <line class="cls-24" x1="376.4" y1="0" x2="376.4" y2="72.1"/>
            <line class="cls-24" x1="407.2" y1="0" x2="407.2" y2="72.1"/>
            <line class="cls-24" x1="438" y1="0" x2="438" y2="72.1"/>
            <line class="cls-24" x1="468.8" y1="0" x2="468.8" y2="72.1"/>
            <line class="cls-24" x1="499.6" y1="0" x2="499.6" y2="72.1"/>
            <line class="cls-24" x1="530.4" y1="0" x2="530.4" y2="72.1"/>
            <line class="cls-24" x1="561.2" y1="0" x2="561.2" y2="72.1"/>
            <line class="cls-24" x1="592" y1="0" x2="592" y2="72.1"/>
            <line class="cls-24" x1="622.8" y1="0" x2="622.8" y2="72.1"/>
            <line class="cls-24" x1="653.6" y1="0" x2="653.6" y2="72.1"/>
            <line class="cls-24" x1="684.4" y1="0" x2="684.4" y2="72.1"/>
            <line class="cls-24" x1="715.2" y1="0" x2="715.2" y2="72.1"/>
            <line class="cls-24" x1="746" y1="0" x2="746" y2="72.1"/>
            <line class="cls-24" x1="776.8" y1="0" x2="776.8" y2="72.1"/>
            <line class="cls-24" x1="807.6" y1="0" x2="807.6" y2="72.1"/>
            <line class="cls-24" x1="838.4" y1="0" x2="838.4" y2="72.1"/>
            <line class="cls-24" x1="869.2" y1="0" x2="869.2" y2="72.1"/>
            <line class="cls-24" x1="900" y1="0" x2="900" y2="72.1"/>
            <line class="cls-24" x1="930.8" y1="0" x2="930.8" y2="72.1"/>
            <line class="cls-24" x1="961.6" y1="0" x2="961.6" y2="72.1"/>
            <line class="cls-24" x1="992.4" y1="0" x2="992.4" y2="72.1"/>
            <line class="cls-24" x1="1023.2" y1="0" x2="1023.2" y2="72.1"/>
            <line class="cls-24" x1="1054" y1="0" x2="1054" y2="72.1"/>
            <line class="cls-24" x1="1084.8" y1="0" x2="1084.8" y2="72.1"/>
            <line class="cls-24" x1="1115.6" y1="0" x2="1115.6" y2="72.1"/>
            <line class="cls-24" x1="1146.4" y1="0" x2="1146.4" y2="72.1"/>
            <line class="cls-24" x1="1177.2" y1="0" x2="1177.2" y2="72.1"/>
            <line class="cls-24" x1="1208" y1="0" x2="1208" y2="72.1"/>
            <line class="cls-24" x1="1238.8" y1="0" x2="1238.8" y2="72.1"/>
            <line class="cls-24" x1="1269.6" y1="0" x2="1269.6" y2="72.1"/>
            <line class="cls-24" x1="1300.4" y1="0" x2="1300.4" y2="72.1"/>
            <line class="cls-24" x1="1331.2" y1="0" x2="1331.2" y2="72.1"/>
            <line class="cls-24" x1="1362" y1="0" x2="1362" y2="72.1"/>
            <line class="cls-24" x1="1392.8" y1="0" x2="1392.8" y2="72.1"/>
            <line class="cls-24" x1="1423.6" y1="0" x2="1423.6" y2="72.1"/>
            <line class="cls-24" x1="1454.4" y1="0" x2="1454.4" y2="72.1"/>
            <line class="cls-24" x1="1485.2" y1="0" x2="1485.2" y2="72.1"/>
            <line class="cls-24" x1="1516" y1="0" x2="1516" y2="72.1"/>
            <line class="cls-24" x1="1546.8" y1="0" x2="1546.8" y2="72.1"/>
            <line class="cls-24" x1="1577.6" y1="0" x2="1577.6" y2="72.1"/>
            <line class="cls-24" x1="1608.4" y1="0" x2="1608.4" y2="72.1"/>
            <line class="cls-24" x1="1639.2" y1="0" x2="1639.2" y2="72.1"/>
            <line class="cls-24" x1="1670" y1="0" x2="1670" y2="72.1"/>
          </g>
        </g>
        <g>
          <g>
            <line class="cls-24" x1="130" y1="2327.9" x2="130" y2="2400"/>
            <line class="cls-24" x1="160.8" y1="2327.9" x2="160.8" y2="2400"/>
            <line class="cls-24" x1="191.6" y1="2327.9" x2="191.6" y2="2400"/>
            <line class="cls-24" x1="222.4" y1="2327.9" x2="222.4" y2="2400"/>
            <line class="cls-24" x1="253.2" y1="2327.9" x2="253.2" y2="2400"/>
            <line class="cls-24" x1="284" y1="2327.9" x2="284" y2="2400"/>
            <line class="cls-24" x1="314.8" y1="2327.9" x2="314.8" y2="2400"/>
            <line class="cls-24" x1="345.6" y1="2327.9" x2="345.6" y2="2400"/>
            <line class="cls-24" x1="376.4" y1="2327.9" x2="376.4" y2="2400"/>
            <line class="cls-24" x1="407.2" y1="2327.9" x2="407.2" y2="2400"/>
            <line class="cls-24" x1="438" y1="2327.9" x2="438" y2="2400"/>
            <line class="cls-24" x1="468.8" y1="2327.9" x2="468.8" y2="2400"/>
            <line class="cls-24" x1="499.6" y1="2327.9" x2="499.6" y2="2400"/>
            <line class="cls-24" x1="530.4" y1="2327.9" x2="530.4" y2="2400"/>
            <line class="cls-24" x1="561.2" y1="2327.9" x2="561.2" y2="2400"/>
            <line class="cls-24" x1="592" y1="2327.9" x2="592" y2="2400"/>
            <line class="cls-24" x1="622.8" y1="2327.9" x2="622.8" y2="2400"/>
            <line class="cls-24" x1="653.6" y1="2327.9" x2="653.6" y2="2400"/>
            <line class="cls-24" x1="684.4" y1="2327.9" x2="684.4" y2="2400"/>
            <line class="cls-24" x1="715.2" y1="2327.9" x2="715.2" y2="2400"/>
            <line class="cls-24" x1="746" y1="2327.9" x2="746" y2="2400"/>
            <line class="cls-24" x1="776.8" y1="2327.9" x2="776.8" y2="2400"/>
            <line class="cls-24" x1="807.6" y1="2327.9" x2="807.6" y2="2400"/>
            <line class="cls-24" x1="838.4" y1="2327.9" x2="838.4" y2="2400"/>
            <line class="cls-24" x1="869.2" y1="2327.9" x2="869.2" y2="2400"/>
            <line class="cls-24" x1="900" y1="2327.9" x2="900" y2="2400"/>
            <line class="cls-24" x1="930.8" y1="2327.9" x2="930.8" y2="2400"/>
            <line class="cls-24" x1="961.6" y1="2327.9" x2="961.6" y2="2400"/>
            <line class="cls-24" x1="992.4" y1="2327.9" x2="992.4" y2="2400"/>
            <line class="cls-24" x1="1023.2" y1="2327.9" x2="1023.2" y2="2400"/>
            <line class="cls-24" x1="1054" y1="2327.9" x2="1054" y2="2400"/>
            <line class="cls-24" x1="1084.8" y1="2327.9" x2="1084.8" y2="2400"/>
            <line class="cls-24" x1="1115.6" y1="2327.9" x2="1115.6" y2="2400"/>
            <line class="cls-24" x1="1146.4" y1="2327.9" x2="1146.4" y2="2400"/>
            <line class="cls-24" x1="1177.2" y1="2327.9" x2="1177.2" y2="2400"/>
            <line class="cls-24" x1="1208" y1="2327.9" x2="1208" y2="2400"/>
            <line class="cls-24" x1="1238.8" y1="2327.9" x2="1238.8" y2="2400"/>
            <line class="cls-24" x1="1269.6" y1="2327.9" x2="1269.6" y2="2400"/>
            <line class="cls-24" x1="1300.4" y1="2327.9" x2="1300.4" y2="2400"/>
            <line class="cls-24" x1="1331.2" y1="2327.9" x2="1331.2" y2="2400"/>
            <line class="cls-24" x1="1362" y1="2327.9" x2="1362" y2="2400"/>
            <line class="cls-24" x1="1392.8" y1="2327.9" x2="1392.8" y2="2400"/>
            <line class="cls-24" x1="1423.6" y1="2327.9" x2="1423.6" y2="2400"/>
            <line class="cls-24" x1="1454.4" y1="2327.9" x2="1454.4" y2="2400"/>
            <line class="cls-24" x1="1485.2" y1="2327.9" x2="1485.2" y2="2400"/>
            <line class="cls-24" x1="1516" y1="2327.9" x2="1516" y2="2400"/>
            <line class="cls-24" x1="1546.8" y1="2327.9" x2="1546.8" y2="2400"/>
            <line class="cls-24" x1="1577.6" y1="2327.9" x2="1577.6" y2="2400"/>
            <line class="cls-24" x1="1608.4" y1="2327.9" x2="1608.4" y2="2400"/>
            <line class="cls-24" x1="1639.2" y1="2327.9" x2="1639.2" y2="2400"/>
            <line class="cls-24" x1="1670" y1="2327.9" x2="1670" y2="2400"/>
          </g>
          <g>
            <line class="cls-28" x1="130" y1="2270" x2="130" y2="2400"/>
            <line class="cls-28" x1="284" y1="2270" x2="284" y2="2400"/>
            <line class="cls-28" x1="438" y1="2270" x2="438" y2="2400"/>
            <line class="cls-28" x1="592" y1="2270" x2="592" y2="2400"/>
            <line class="cls-28" x1="746" y1="2270" x2="746" y2="2400"/>
            <line class="cls-28" x1="900" y1="2270" x2="900" y2="2400"/>
            <line class="cls-28" x1="1054" y1="2270" x2="1054" y2="2400"/>
            <line class="cls-28" x1="1208" y1="2270" x2="1208" y2="2400"/>
            <line class="cls-28" x1="1362" y1="2270" x2="1362" y2="2400"/>
            <line class="cls-28" x1="1516" y1="2270" x2="1516" y2="2400"/>
            <line class="cls-28" x1="1670" y1="2270" x2="1670" y2="2400"/>
          </g>
        </g>
        <g>
          <g>
            <line class="cls-28" x1="1670" y1="130" x2="1800" y2="130"/>
            <line class="cls-28" x1="1670" y1="272.7" x2="1800" y2="272.7"/>
            <line class="cls-28" x1="1670" y1="415.3" x2="1800" y2="415.3"/>
            <line class="cls-28" x1="1670" y1="558" x2="1800" y2="558"/>
            <line class="cls-28" x1="1670" y1="700.7" x2="1800" y2="700.7"/>
            <line class="cls-28" x1="1670" y1="843.3" x2="1800" y2="843.3"/>
            <line class="cls-28" x1="1670" y1="986" x2="1800" y2="986"/>
            <line class="cls-28" x1="1670" y1="1128.7" x2="1800" y2="1128.7"/>
            <line class="cls-28" x1="1670" y1="1271.3" x2="1800" y2="1271.3"/>
            <line class="cls-28" x1="1670" y1="1414" x2="1800" y2="1414"/>
            <line class="cls-28" x1="1670" y1="1556.7" x2="1800" y2="1556.7"/>
            <line class="cls-28" x1="1670" y1="1699.3" x2="1800" y2="1699.3"/>
            <line class="cls-28" x1="1670" y1="1842" x2="1800" y2="1842"/>
            <line class="cls-28" x1="1670" y1="1984.7" x2="1800" y2="1984.7"/>
            <line class="cls-28" x1="1670" y1="2127.3" x2="1800" y2="2127.3"/>
            <line class="cls-28" x1="1670" y1="2270" x2="1800" y2="2270"/>
          </g>
          <g>
            <line class="cls-24" x1="1735" y1="130" x2="1800" y2="130"/>
            <line class="cls-24" x1="1735" y1="158.5" x2="1800" y2="158.5"/>
            <line class="cls-24" x1="1735" y1="187.1" x2="1800" y2="187.1"/>
            <line class="cls-24" x1="1735" y1="215.6" x2="1800" y2="215.6"/>
            <line class="cls-24" x1="1735" y1="244.1" x2="1800" y2="244.1"/>
            <line class="cls-24" x1="1735" y1="272.7" x2="1800" y2="272.7"/>
            <line class="cls-24" x1="1735" y1="301.2" x2="1800" y2="301.2"/>
            <line class="cls-24" x1="1735" y1="329.7" x2="1800" y2="329.7"/>
            <line class="cls-24" x1="1735" y1="358.3" x2="1800" y2="358.3"/>
            <line class="cls-24" x1="1735" y1="386.8" x2="1800" y2="386.8"/>
            <line class="cls-24" x1="1735" y1="415.3" x2="1800" y2="415.3"/>
            <line class="cls-24" x1="1735" y1="443.9" x2="1800" y2="443.9"/>
            <line class="cls-24" x1="1735" y1="472.4" x2="1800" y2="472.4"/>
            <line class="cls-24" x1="1735" y1="500.9" x2="1800" y2="500.9"/>
            <line class="cls-24" x1="1735" y1="529.5" x2="1800" y2="529.5"/>
            <line class="cls-24" x1="1735" y1="558" x2="1800" y2="558"/>
            <line class="cls-24" x1="1735" y1="586.5" x2="1800" y2="586.5"/>
            <line class="cls-24" x1="1735" y1="615.1" x2="1800" y2="615.1"/>
            <line class="cls-24" x1="1735" y1="643.6" x2="1800" y2="643.6"/>
            <line class="cls-24" x1="1735" y1="672.1" x2="1800" y2="672.1"/>
            <line class="cls-24" x1="1735" y1="700.7" x2="1800" y2="700.7"/>
            <line class="cls-24" x1="1735" y1="729.2" x2="1800" y2="729.2"/>
            <line class="cls-24" x1="1735" y1="757.7" x2="1800" y2="757.7"/>
            <line class="cls-24" x1="1735" y1="786.3" x2="1800" y2="786.3"/>
            <line class="cls-24" x1="1735" y1="814.8" x2="1800" y2="814.8"/>
            <line class="cls-24" x1="1735" y1="843.3" x2="1800" y2="843.3"/>
            <line class="cls-24" x1="1735" y1="871.9" x2="1800" y2="871.9"/>
            <line class="cls-24" x1="1735" y1="900.4" x2="1800" y2="900.4"/>
            <line class="cls-24" x1="1735" y1="928.9" x2="1800" y2="928.9"/>
            <line class="cls-24" x1="1735" y1="957.5" x2="1800" y2="957.5"/>
            <line class="cls-24" x1="1735" y1="986" x2="1800" y2="986"/>
            <line class="cls-24" x1="1735" y1="1014.5" x2="1800" y2="1014.5"/>
            <line class="cls-24" x1="1735" y1="1043.1" x2="1800" y2="1043.1"/>
            <line class="cls-24" x1="1735" y1="1071.6" x2="1800" y2="1071.6"/>
            <line class="cls-24" x1="1735" y1="1100.1" x2="1800" y2="1100.1"/>
            <line class="cls-24" x1="1735" y1="1128.7" x2="1800" y2="1128.7"/>
            <line class="cls-24" x1="1735" y1="1157.2" x2="1800" y2="1157.2"/>
            <line class="cls-24" x1="1735" y1="1185.7" x2="1800" y2="1185.7"/>
            <line class="cls-24" x1="1735" y1="1214.3" x2="1800" y2="1214.3"/>
            <line class="cls-24" x1="1735" y1="1242.8" x2="1800" y2="1242.8"/>
            <line class="cls-24" x1="1735" y1="1271.3" x2="1800" y2="1271.3"/>
            <line class="cls-24" x1="1735" y1="1299.9" x2="1800" y2="1299.9"/>
            <line class="cls-24" x1="1735" y1="1328.4" x2="1800" y2="1328.4"/>
            <line class="cls-24" x1="1735" y1="1356.9" x2="1800" y2="1356.9"/>
            <line class="cls-24" x1="1735" y1="1385.5" x2="1800" y2="1385.5"/>
            <line class="cls-24" x1="1735" y1="1414" x2="1800" y2="1414"/>
            <line class="cls-24" x1="1735" y1="1442.5" x2="1800" y2="1442.5"/>
            <line class="cls-24" x1="1735" y1="1471.1" x2="1800" y2="1471.1"/>
            <line class="cls-24" x1="1735" y1="1499.6" x2="1800" y2="1499.6"/>
            <line class="cls-24" x1="1735" y1="1528.1" x2="1800" y2="1528.1"/>
            <line class="cls-24" x1="1735" y1="1556.7" x2="1800" y2="1556.7"/>
            <line class="cls-24" x1="1735" y1="1585.2" x2="1800" y2="1585.2"/>
            <line class="cls-24" x1="1735" y1="1613.7" x2="1800" y2="1613.7"/>
            <line class="cls-24" x1="1735" y1="1642.3" x2="1800" y2="1642.3"/>
            <line class="cls-24" x1="1735" y1="1670.8" x2="1800" y2="1670.8"/>
            <line class="cls-24" x1="1735" y1="1699.3" x2="1800" y2="1699.3"/>
            <line class="cls-24" x1="1735" y1="1727.9" x2="1800" y2="1727.9"/>
            <line class="cls-24" x1="1735" y1="1756.4" x2="1800" y2="1756.4"/>
            <line class="cls-24" x1="1735" y1="1784.9" x2="1800" y2="1784.9"/>
            <line class="cls-24" x1="1735" y1="1813.5" x2="1800" y2="1813.5"/>
            <line class="cls-24" x1="1735" y1="1842" x2="1800" y2="1842"/>
            <line class="cls-24" x1="1735" y1="1870.5" x2="1800" y2="1870.5"/>
            <line class="cls-24" x1="1735" y1="1899.1" x2="1800" y2="1899.1"/>
            <line class="cls-24" x1="1735" y1="1927.6" x2="1800" y2="1927.6"/>
            <line class="cls-24" x1="1735" y1="1956.1" x2="1800" y2="1956.1"/>
            <line class="cls-24" x1="1735" y1="1984.7" x2="1800" y2="1984.7"/>
            <line class="cls-24" x1="1735" y1="2013.2" x2="1800" y2="2013.2"/>
            <line class="cls-24" x1="1735" y1="2041.7" x2="1800" y2="2041.7"/>
            <line class="cls-24" x1="1735" y1="2070.3" x2="1800" y2="2070.3"/>
            <line class="cls-24" x1="1735" y1="2098.8" x2="1800" y2="2098.8"/>
            <line class="cls-24" x1="1735" y1="2127.3" x2="1800" y2="2127.3"/>
            <line class="cls-24" x1="1735" y1="2155.9" x2="1800" y2="2155.9"/>
            <line class="cls-24" x1="1735" y1="2184.4" x2="1800" y2="2184.4"/>
            <line class="cls-24" x1="1735" y1="2212.9" x2="1800" y2="2212.9"/>
            <line class="cls-24" x1="1735" y1="2241.5" x2="1800" y2="2241.5"/>
            <line class="cls-24" x1="1735" y1="2270" x2="1800" y2="2270"/>
          </g>
        </g>
        <g>
          <g>
            <line class="cls-24" x1="0" y1="130" x2="65" y2="130"/>
            <line class="cls-24" x1="0" y1="158.5" x2="65" y2="158.5"/>
            <line class="cls-24" x1="0" y1="187.1" x2="65" y2="187.1"/>
            <line class="cls-24" x1="0" y1="215.6" x2="65" y2="215.6"/>
            <line class="cls-24" x1="0" y1="244.1" x2="65" y2="244.1"/>
            <line class="cls-24" x1="0" y1="272.7" x2="65" y2="272.7"/>
            <line class="cls-24" x1="0" y1="301.2" x2="65" y2="301.2"/>
            <line class="cls-24" x1="0" y1="329.7" x2="65" y2="329.7"/>
            <line class="cls-24" x1="0" y1="358.3" x2="65" y2="358.3"/>
            <line class="cls-24" x1="0" y1="386.8" x2="65" y2="386.8"/>
            <line class="cls-24" x1="0" y1="415.3" x2="65" y2="415.3"/>
            <line class="cls-24" x1="0" y1="443.9" x2="65" y2="443.9"/>
            <line class="cls-24" x1="0" y1="472.4" x2="65" y2="472.4"/>
            <line class="cls-24" x1="0" y1="500.9" x2="65" y2="500.9"/>
            <line class="cls-24" x1="0" y1="529.5" x2="65" y2="529.5"/>
            <line class="cls-24" x1="0" y1="558" x2="65" y2="558"/>
            <line class="cls-24" x1="0" y1="586.5" x2="65" y2="586.5"/>
            <line class="cls-24" x1="0" y1="615.1" x2="65" y2="615.1"/>
            <line class="cls-24" x1="0" y1="643.6" x2="65" y2="643.6"/>
            <line class="cls-24" x1="0" y1="672.1" x2="65" y2="672.1"/>
            <line class="cls-24" x1="0" y1="700.7" x2="65" y2="700.7"/>
            <line class="cls-24" x1="0" y1="729.2" x2="65" y2="729.2"/>
            <line class="cls-24" x1="0" y1="757.7" x2="65" y2="757.7"/>
            <line class="cls-24" x1="0" y1="786.3" x2="65" y2="786.3"/>
            <line class="cls-24" x1="0" y1="814.8" x2="65" y2="814.8"/>
            <line class="cls-24" x1="0" y1="843.3" x2="65" y2="843.3"/>
            <line class="cls-24" x1="0" y1="871.9" x2="65" y2="871.9"/>
            <line class="cls-24" x1="0" y1="900.4" x2="65" y2="900.4"/>
            <line class="cls-24" x1="0" y1="928.9" x2="65" y2="928.9"/>
            <line class="cls-24" x1="0" y1="957.5" x2="65" y2="957.5"/>
            <line class="cls-24" x1="0" y1="986" x2="65" y2="986"/>
            <line class="cls-24" x1="0" y1="1014.5" x2="65" y2="1014.5"/>
            <line class="cls-24" x1="0" y1="1043.1" x2="65" y2="1043.1"/>
            <line class="cls-24" x1="0" y1="1071.6" x2="65" y2="1071.6"/>
            <line class="cls-24" x1="0" y1="1100.1" x2="65" y2="1100.1"/>
            <line class="cls-24" x1="0" y1="1128.7" x2="65" y2="1128.7"/>
            <line class="cls-24" x1="0" y1="1157.2" x2="65" y2="1157.2"/>
            <line class="cls-24" x1="0" y1="1185.7" x2="65" y2="1185.7"/>
            <line class="cls-24" x1="0" y1="1214.3" x2="65" y2="1214.3"/>
            <line class="cls-24" x1="0" y1="1242.8" x2="65" y2="1242.8"/>
            <line class="cls-24" x1="0" y1="1271.3" x2="65" y2="1271.3"/>
            <line class="cls-24" x1="0" y1="1299.9" x2="65" y2="1299.9"/>
            <line class="cls-24" x1="0" y1="1328.4" x2="65" y2="1328.4"/>
            <line class="cls-24" x1="0" y1="1356.9" x2="65" y2="1356.9"/>
            <line class="cls-24" x1="0" y1="1385.5" x2="65" y2="1385.5"/>
            <line class="cls-24" x1="0" y1="1414" x2="65" y2="1414"/>
            <line class="cls-24" x1="0" y1="1442.5" x2="65" y2="1442.5"/>
            <line class="cls-24" x1="0" y1="1471.1" x2="65" y2="1471.1"/>
            <line class="cls-24" x1="0" y1="1499.6" x2="65" y2="1499.6"/>
            <line class="cls-24" x1="0" y1="1528.1" x2="65" y2="1528.1"/>
            <line class="cls-24" x1="0" y1="1556.7" x2="65" y2="1556.7"/>
            <line class="cls-24" x1="0" y1="1585.2" x2="65" y2="1585.2"/>
            <line class="cls-24" x1="0" y1="1613.7" x2="65" y2="1613.7"/>
            <line class="cls-24" x1="0" y1="1642.3" x2="65" y2="1642.3"/>
            <line class="cls-24" x1="0" y1="1670.8" x2="65" y2="1670.8"/>
            <line class="cls-24" x1="0" y1="1699.3" x2="65" y2="1699.3"/>
            <line class="cls-24" x1="0" y1="1727.9" x2="65" y2="1727.9"/>
            <line class="cls-24" x1="0" y1="1756.4" x2="65" y2="1756.4"/>
            <line class="cls-24" x1="0" y1="1784.9" x2="65" y2="1784.9"/>
            <line class="cls-24" x1="0" y1="1813.5" x2="65" y2="1813.5"/>
            <line class="cls-24" x1="0" y1="1842" x2="65" y2="1842"/>
            <line class="cls-24" x1="0" y1="1870.5" x2="65" y2="1870.5"/>
            <line class="cls-24" x1="0" y1="1899.1" x2="65" y2="1899.1"/>
            <line class="cls-24" x1="0" y1="1927.6" x2="65" y2="1927.6"/>
            <line class="cls-24" x1="0" y1="1956.1" x2="65" y2="1956.1"/>
            <line class="cls-24" x1="0" y1="1984.7" x2="65" y2="1984.7"/>
            <line class="cls-24" x1="0" y1="2013.2" x2="65" y2="2013.2"/>
            <line class="cls-24" x1="0" y1="2041.7" x2="65" y2="2041.7"/>
            <line class="cls-24" x1="0" y1="2070.3" x2="65" y2="2070.3"/>
            <line class="cls-24" x1="0" y1="2098.8" x2="65" y2="2098.8"/>
            <line class="cls-24" x1="0" y1="2127.3" x2="65" y2="2127.3"/>
            <line class="cls-24" x1="0" y1="2155.9" x2="65" y2="2155.9"/>
            <line class="cls-24" x1="0" y1="2184.4" x2="65" y2="2184.4"/>
            <line class="cls-24" x1="0" y1="2212.9" x2="65" y2="2212.9"/>
            <line class="cls-24" x1="0" y1="2241.5" x2="65" y2="2241.5"/>
            <line class="cls-24" x1="0" y1="2270" x2="65" y2="2270"/>
          </g>
          <g>
            <line class="cls-28" x1="0" y1="130" x2="130" y2="130"/>
            <line class="cls-28" x1="0" y1="272.7" x2="130" y2="272.7"/>
            <line class="cls-28" x1="0" y1="415.3" x2="130" y2="415.3"/>
            <line class="cls-28" x1="0" y1="558" x2="130" y2="558"/>
            <line class="cls-28" x1="0" y1="700.7" x2="130" y2="700.7"/>
            <line class="cls-28" x1="0" y1="843.3" x2="130" y2="843.3"/>
            <line class="cls-28" x1="0" y1="986" x2="130" y2="986"/>
            <line class="cls-28" x1="0" y1="1128.7" x2="130" y2="1128.7"/>
            <line class="cls-28" x1="0" y1="1271.3" x2="130" y2="1271.3"/>
            <line class="cls-28" x1="0" y1="1414" x2="130" y2="1414"/>
            <line class="cls-28" x1="0" y1="1556.7" x2="130" y2="1556.7"/>
            <line class="cls-28" x1="0" y1="1699.3" x2="130" y2="1699.3"/>
            <line class="cls-28" x1="0" y1="1842" x2="130" y2="1842"/>
            <line class="cls-28" x1="0" y1="1984.7" x2="130" y2="1984.7"/>
            <line class="cls-28" x1="0" y1="2127.3" x2="130" y2="2127.3"/>
            <line class="cls-28" x1="0" y1="2270" x2="130" y2="2270"/>
          </g>
        </g>
        <rect class="cls-4" x="130" y="130" width="1540" height="2140"/>
        <rect class="cls-22" x="150" y="150" width="1500" height="2100"/>
        <g>
          <line class="cls-38" x1="150" y1="150" x2="1650" y2="150"/>
          <line class="cls-38" x1="150" y1="181.8" x2="1650" y2="181.8"/>
          <line class="cls-38" x1="150" y1="213.6" x2="1650" y2="213.6"/>
          <line class="cls-38" x1="150" y1="245.5" x2="1650" y2="245.5"/>
          <line class="cls-38" x1="150" y1="277.3" x2="1650" y2="277.3"/>
          <line class="cls-38" x1="150" y1="309.1" x2="1650" y2="309.1"/>
          <line class="cls-38" x1="150" y1="340.9" x2="1650" y2="340.9"/>
          <line class="cls-38" x1="150" y1="372.7" x2="1650" y2="372.7"/>
          <line class="cls-38" x1="150" y1="404.5" x2="1650" y2="404.5"/>
          <line class="cls-38" x1="150" y1="436.4" x2="1650" y2="436.4"/>
          <line class="cls-38" x1="150" y1="468.2" x2="1650" y2="468.2"/>
          <line class="cls-38" x1="150" y1="500" x2="1650" y2="500"/>
          <line class="cls-38" x1="150" y1="531.8" x2="1650" y2="531.8"/>
          <line class="cls-38" x1="150" y1="563.6" x2="1650" y2="563.6"/>
          <line class="cls-38" x1="150" y1="595.5" x2="1650" y2="595.5"/>
          <line class="cls-38" x1="150" y1="627.3" x2="1650" y2="627.3"/>
          <line class="cls-38" x1="150" y1="659.1" x2="1650" y2="659.1"/>
          <line class="cls-38" x1="150" y1="690.9" x2="1650" y2="690.9"/>
          <line class="cls-38" x1="150" y1="722.7" x2="1650" y2="722.7"/>
          <line class="cls-38" x1="150" y1="754.5" x2="1650" y2="754.5"/>
          <line class="cls-38" x1="150" y1="786.4" x2="1650" y2="786.4"/>
          <line class="cls-38" x1="150" y1="818.2" x2="1650" y2="818.2"/>
          <line class="cls-38" x1="150" y1="850" x2="1650" y2="850"/>
          <line class="cls-38" x1="150" y1="881.8" x2="1650" y2="881.8"/>
          <line class="cls-38" x1="150" y1="913.6" x2="1650" y2="913.6"/>
          <line class="cls-38" x1="150" y1="945.5" x2="1650" y2="945.5"/>
          <line class="cls-38" x1="150" y1="977.3" x2="1650" y2="977.3"/>
          <line class="cls-38" x1="150" y1="1009.1" x2="1650" y2="1009.1"/>
          <line class="cls-38" x1="150" y1="1040.9" x2="1650" y2="1040.9"/>
          <line class="cls-38" x1="150" y1="1072.7" x2="1650" y2="1072.7"/>
          <line class="cls-38" x1="150" y1="1104.5" x2="1650" y2="1104.5"/>
          <line class="cls-38" x1="150" y1="1136.4" x2="1650" y2="1136.4"/>
          <line class="cls-38" x1="150" y1="1168.2" x2="1650" y2="1168.2"/>
          <line class="cls-38" x1="150" y1="1200" x2="1650" y2="1200"/>
          <line class="cls-38" x1="150" y1="1231.8" x2="1650" y2="1231.8"/>
          <line class="cls-38" x1="150" y1="1263.6" x2="1650" y2="1263.6"/>
          <line class="cls-38" x1="150" y1="1295.5" x2="1650" y2="1295.5"/>
          <line class="cls-38" x1="150" y1="1327.3" x2="1650" y2="1327.3"/>
          <line class="cls-38" x1="150" y1="1359.1" x2="1650" y2="1359.1"/>
          <line class="cls-38" x1="150" y1="1390.9" x2="1650" y2="1390.9"/>
          <line class="cls-38" x1="150" y1="1422.7" x2="1650" y2="1422.7"/>
          <line class="cls-38" x1="150" y1="1454.5" x2="1650" y2="1454.5"/>
          <line class="cls-38" x1="150" y1="1486.4" x2="1650" y2="1486.4"/>
          <line class="cls-38" x1="150" y1="1518.2" x2="1650" y2="1518.2"/>
          <line class="cls-38" x1="150" y1="1550" x2="1650" y2="1550"/>
          <line class="cls-38" x1="150" y1="1581.8" x2="1650" y2="1581.8"/>
          <line class="cls-38" x1="150" y1="1613.6" x2="1650" y2="1613.6"/>
          <line class="cls-38" x1="150" y1="1645.5" x2="1650" y2="1645.5"/>
          <line class="cls-38" x1="150" y1="1677.3" x2="1650" y2="1677.3"/>
          <line class="cls-38" x1="150" y1="1709.1" x2="1650" y2="1709.1"/>
          <line class="cls-38" x1="150" y1="1740.9" x2="1650" y2="1740.9"/>
          <line class="cls-38" x1="150" y1="1772.7" x2="1650" y2="1772.7"/>
          <line class="cls-38" x1="150" y1="1804.5" x2="1650" y2="1804.5"/>
          <line class="cls-38" x1="150" y1="1836.4" x2="1650" y2="1836.4"/>
          <line class="cls-38" x1="150" y1="1868.2" x2="1650" y2="1868.2"/>
          <line class="cls-38" x1="150" y1="1900" x2="1650" y2="1900"/>
          <line class="cls-38" x1="150" y1="1931.8" x2="1650" y2="1931.8"/>
          <line class="cls-38" x1="150" y1="1963.6" x2="1650" y2="1963.6"/>
          <line class="cls-38" x1="150" y1="1995.5" x2="1650" y2="1995.5"/>
          <line class="cls-38" x1="150" y1="2027.3" x2="1650" y2="2027.3"/>
          <line class="cls-38" x1="150" y1="2059.1" x2="1650" y2="2059.1"/>
          <line class="cls-38" x1="150" y1="2090.9" x2="1650" y2="2090.9"/>
          <line class="cls-38" x1="150" y1="2122.7" x2="1650" y2="2122.7"/>
          <line class="cls-38" x1="150" y1="2154.5" x2="1650" y2="2154.5"/>
          <line class="cls-38" x1="150" y1="2186.4" x2="1650" y2="2186.4"/>
          <line class="cls-38" x1="150" y1="2218.2" x2="1650" y2="2218.2"/>
          <line class="cls-38" x1="150" y1="2250" x2="1650" y2="2250"/>
        </g>
        <g>
          <line class="cls-38" x1="150" y1="150" x2="150" y2="2250"/>
          <line class="cls-38" x1="179.4" y1="150" x2="179.4" y2="2250"/>
          <line class="cls-38" x1="208.8" y1="150" x2="208.8" y2="2250"/>
          <line class="cls-38" x1="238.2" y1="150" x2="238.2" y2="2250"/>
          <line class="cls-38" x1="267.6" y1="150" x2="267.6" y2="2250"/>
          <line class="cls-38" x1="297.1" y1="150" x2="297.1" y2="2250"/>
          <line class="cls-38" x1="326.5" y1="150" x2="326.5" y2="2250"/>
          <line class="cls-38" x1="355.9" y1="150" x2="355.9" y2="2250"/>
          <line class="cls-38" x1="385.3" y1="150" x2="385.3" y2="2250"/>
          <line class="cls-38" x1="414.7" y1="150" x2="414.7" y2="2250"/>
          <line class="cls-38" x1="444.1" y1="150" x2="444.1" y2="2250"/>
          <line class="cls-38" x1="473.5" y1="150" x2="473.5" y2="2250"/>
          <line class="cls-38" x1="502.9" y1="150" x2="502.9" y2="2250"/>
          <line class="cls-38" x1="532.4" y1="150" x2="532.4" y2="2250"/>
          <line class="cls-38" x1="561.8" y1="150" x2="561.8" y2="2250"/>
          <line class="cls-38" x1="591.2" y1="150" x2="591.2" y2="2250"/>
          <line class="cls-38" x1="620.6" y1="150" x2="620.6" y2="2250"/>
          <line class="cls-38" x1="650" y1="150" x2="650" y2="2250"/>
          <line class="cls-38" x1="679.4" y1="150" x2="679.4" y2="2250"/>
          <line class="cls-38" x1="708.8" y1="150" x2="708.8" y2="2250"/>
          <line class="cls-38" x1="738.2" y1="150" x2="738.2" y2="2250"/>
          <line class="cls-38" x1="767.6" y1="150" x2="767.6" y2="2250"/>
          <line class="cls-38" x1="797.1" y1="150" x2="797.1" y2="2250"/>
          <line class="cls-38" x1="826.5" y1="150" x2="826.5" y2="2250"/>
          <line class="cls-38" x1="855.9" y1="150" x2="855.9" y2="2250"/>
          <line class="cls-38" x1="885.3" y1="150" x2="885.3" y2="2250"/>
          <line class="cls-38" x1="914.7" y1="150" x2="914.7" y2="2250"/>
          <line class="cls-38" x1="944.1" y1="150" x2="944.1" y2="2250"/>
          <line class="cls-38" x1="973.5" y1="150" x2="973.5" y2="2250"/>
          <line class="cls-38" x1="1002.9" y1="150" x2="1002.9" y2="2250"/>
          <line class="cls-38" x1="1032.4" y1="150" x2="1032.4" y2="2250"/>
          <line class="cls-38" x1="1061.8" y1="150" x2="1061.8" y2="2250"/>
          <line class="cls-38" x1="1091.2" y1="150" x2="1091.2" y2="2250"/>
          <line class="cls-38" x1="1120.6" y1="150" x2="1120.6" y2="2250"/>
          <line class="cls-38" x1="1150" y1="150" x2="1150" y2="2250"/>
          <line class="cls-38" x1="1179.4" y1="150" x2="1179.4" y2="2250"/>
          <line class="cls-38" x1="1208.8" y1="150" x2="1208.8" y2="2250"/>
          <line class="cls-38" x1="1238.2" y1="150" x2="1238.2" y2="2250"/>
          <line class="cls-38" x1="1267.6" y1="150" x2="1267.6" y2="2250"/>
          <line class="cls-38" x1="1297.1" y1="150" x2="1297.1" y2="2250"/>
          <line class="cls-38" x1="1326.5" y1="150" x2="1326.5" y2="2250"/>
          <line class="cls-38" x1="1355.9" y1="150" x2="1355.9" y2="2250"/>
          <line class="cls-38" x1="1385.3" y1="150" x2="1385.3" y2="2250"/>
          <line class="cls-38" x1="1414.7" y1="150" x2="1414.7" y2="2250"/>
          <line class="cls-38" x1="1444.1" y1="150" x2="1444.1" y2="2250"/>
          <line class="cls-38" x1="1473.5" y1="150" x2="1473.5" y2="2250"/>
          <line class="cls-38" x1="1502.9" y1="150" x2="1502.9" y2="2250"/>
          <line class="cls-38" x1="1532.4" y1="150" x2="1532.4" y2="2250"/>
          <line class="cls-38" x1="1561.8" y1="150" x2="1561.8" y2="2250"/>
          <line class="cls-38" x1="1591.2" y1="150" x2="1591.2" y2="2250"/>
          <line class="cls-38" x1="1620.6" y1="150" x2="1620.6" y2="2250"/>
          <line class="cls-38" x1="1650" y1="150" x2="1650" y2="2250"/>
        </g>
        <g>
          <path class="cls-39" d="M142,2292c0-3.6.7-6.3,2.2-8.1,1.1-1.4,2.7-2.1,4.7-2.1s1.8.2,2.5.5c.7.3,1.4.8,1.9,1.3.4.4.8,1,1.1,1.8.3.7.6,1.7.8,2.7.2,1.1.3,2.3.3,3.6,0,3.6-.7,6.3-2.1,8.1-1.1,1.4-2.7,2.1-4.7,2.1s-2.6-.4-3.6-1.1c-1-.8-1.8-1.9-2.3-3.5-.5-1.6-.8-3.3-.8-5.3ZM144.6,2292c0,3.1.4,5.2,1.2,6.4.6.9,1.6,1.3,2.8,1.3s2.1-.5,2.7-1.4c.9-1.3,1.3-3.5,1.3-6.6s-.4-5.3-1.2-6.4c-.6-.9-1.6-1.3-2.8-1.3s-2.4.7-3.1,2c-.7,1.3-1,3.3-1,6.1Z"/>
          <path class="cls-39" d="M302.2,2301.5v-14.1h-4.6v-1.8c1.4,0,2.3-.2,2.9-.4.6-.2,1.1-.6,1.4-1.1.4-.5.7-1.3.9-2.2h2v19.7h-2.7Z"/>
          <path class="cls-39" d="M450.3,2288.8c0-1,0-1.9.3-2.6.3-.9.7-1.7,1.3-2.4.6-.7,1.3-1.2,2.2-1.5.9-.3,1.8-.5,2.9-.5,2,0,3.5.5,4.7,1.6,1.1,1.1,1.7,2.5,1.7,4.3s-.1,1.5-.3,2.1c-.2.6-.6,1.2-1.1,1.7-.5.5-1.1,1.1-1.9,1.6-.3.2-1.4.8-3.2,1.8-.7.4-1.4.8-1.9,1.2-.6.4-1,.7-1.3,1.1-.3.3-.5.6-.7.9s-.3.6-.4,1.1h10.7v2.4h-13.5c.1-1.4.3-2.5.6-3.3.2-.7.6-1.4,1-2,.4-.6,1.1-1.2,1.9-1.8.4-.3,1.2-.8,2.6-1.6,1.4-.8,2.2-1.3,2.4-1.4.6-.4,1.1-.8,1.4-1.1.3-.3.5-.7.7-1.1.2-.4.2-.9.2-1.5,0-1.1-.3-2-1-2.7-.7-.7-1.6-1-2.8-1s-2.3.4-2.9,1.3c-.6.9-.9,2-1,3.6h-2.5Z"/>
          <path class="cls-39" d="M606.2,2295.5c0,1.4.4,2.5,1.1,3.2.7.7,1.7,1.1,3,1.1s2.4-.4,3.2-1.1c.8-.7,1.1-1.6,1.1-2.7s-.1-1.2-.3-1.7c-.2-.5-.6-.9-1-1.2-.5-.3-1.1-.5-1.9-.6-.5,0-1.3-.1-2.5-.1v-2c1.4,0,2.4,0,3-.2.6-.2,1.1-.5,1.5-1,.4-.5.5-1.1.5-1.9s-.3-1.7-.9-2.3c-.6-.6-1.5-.9-2.6-.9s-1.5.2-2.1.5c-.6.3-1,.8-1.3,1.4-.3.6-.5,1.4-.5,2.4h-2.4c0-1,.1-1.8.3-2.4.3-.9.7-1.7,1.3-2.3.6-.6,1.3-1.1,2.1-1.4.8-.3,1.7-.4,2.6-.4,1.9,0,3.4.5,4.5,1.5s1.6,2.3,1.6,3.8-.2,1.8-.7,2.5c-.4.7-1.1,1.2-1.9,1.5.7.2,1.2.5,1.6.8.6.4,1,.9,1.3,1.6.3.6.5,1.4.5,2.3s-.3,2.3-.9,3.3c-.6,1-1.4,1.7-2.5,2.2-1.1.5-2.3.7-3.6.7s-2.1-.2-3-.5c-.8-.3-1.5-.8-2-1.3-.5-.6-.9-1.2-1.2-2-.3-.7-.4-1.7-.5-2.7h2.5Z"/>
          <path class="cls-39" d="M766.2,2301.5v-4.8h-8.6v-2.4l9-12.4h2.1v12.7h2.9v2.2h-2.9v4.8h-2.5ZM766.2,2294.5v-8.8l-6.3,8.8h6.3Z"/>
          <path class="cls-39" d="M912.5,2292.8l1.6-10.5h10v2.4h-8.3l-.8,5.4c.6-.4,1.1-.7,1.7-.9.6-.2,1.3-.3,2-.3,1.6,0,3,.5,4.2,1.4,1.6,1.2,2.4,2.8,2.4,5s-.3,2.4-.8,3.4c-.6,1.1-1.4,1.9-2.4,2.5-1,.6-2.3.9-3.8.9s-2.6-.3-3.5-.8c-1-.5-1.7-1.2-2.2-2.2-.4-.7-.6-1.5-.7-2.5h2.5c.1,1,.5,1.8,1.2,2.4.7.6,1.6.9,2.8.9s2.3-.4,3.1-1.2c.8-.8,1.2-1.9,1.2-3.2s-.4-2.3-1.2-3.1c-.8-.8-1.8-1.2-3-1.2s-2.8.6-3.7,1.9h-2.1Z"/>
          <path class="cls-39" d="M1076.5,2287c-.2-1-.6-1.8-1.1-2.3-.6-.5-1.3-.7-2.2-.7s-1.6.3-2.3.8c-.7.5-1.2,1.3-1.7,2.4-.4,1.1-.7,2.5-.8,4.3,1-1.6,2.6-2.4,4.6-2.4s3.3.6,4.5,1.7c1.1,1.1,1.7,2.6,1.7,4.5s-.2,2.2-.7,3.3c-.5,1.1-1.2,1.9-2.2,2.5-1,.6-2.2.9-3.6.9-2,0-3.6-.6-4.8-1.9-1.4-1.5-2.2-4-2.2-7.3s.3-4.2.9-5.9c.6-1.7,1.4-2.9,2.5-3.8,1.1-.8,2.4-1.2,4-1.2s1.9.2,2.7.6c.6.3,1.1.7,1.6,1.1.4.5.7,1,1,1.5.2.6.4,1.2.4,2h-2.4ZM1068.8,2295.4c0,1.3.4,2.4,1.1,3.2.8.8,1.7,1.2,2.9,1.2s2.1-.4,2.8-1.2c.8-.8,1.1-1.9,1.1-3.2s-.4-2.3-1.1-3.1c-.7-.7-1.7-1.1-2.9-1.1s-2.2.4-2.9,1.1c-.7.7-1.1,1.8-1.1,3.1Z"/>
          <path class="cls-39" d="M1220,2284.8v-2.5h13.6v2.2c-1,1.2-1.8,2.2-2.4,3.1-1,1.4-1.8,3-2.7,4.7-.8,1.7-1.5,3.4-2.1,5.1-.4,1.2-.7,2.5-1,4.1h-2.7c.2-1.2.4-2.2.7-3.2.5-1.6,1.1-3.2,1.9-4.9.8-1.7,1.7-3.3,2.8-4.9.7-1.1,1.6-2.3,2.7-3.7h-10.8Z"/>
          <path class="cls-39" d="M1384.2,2291c.7.3,1.2.7,1.6,1,.5.4.9.9,1.1,1.6.3.6.4,1.4.4,2.3,0,1.8-.6,3.2-1.8,4.4-1.2,1.1-2.8,1.7-4.9,1.7s-3.7-.6-4.9-1.7c-1.2-1.1-1.8-2.6-1.8-4.3s.3-2.3.9-3.1,1.4-1.4,2.5-1.8c-.8-.3-1.4-.7-1.8-1.2-.6-.7-.9-1.6-.9-2.7,0-1.5.5-2.8,1.6-3.8,1.1-1,2.5-1.5,4.4-1.5s2.3.2,3.2.7c.9.5,1.6,1.1,2.1,1.9.5.8.7,1.7.7,2.6s-.2,1.6-.7,2.3c-.4.7-1.1,1.2-1.9,1.6ZM1376.7,2296c0,1.1.4,2,1.1,2.7.7.7,1.7,1,2.9,1s2.2-.3,2.9-1c.7-.7,1.1-1.6,1.1-2.7s-.4-2-1.1-2.7c-.7-.7-1.7-1-2.9-1s-2.2.3-2.9,1c-.7.7-1.1,1.6-1.1,2.7ZM1377.2,2287c0,.9.3,1.7.9,2.3.6.6,1.5.9,2.5.9s1.9-.3,2.6-.9c.7-.6,1-1.4,1-2.2s-.3-1.6-.9-2.2-1.5-.8-2.7-.8-2,.3-2.5.8c-.6.5-.9,1.3-.9,2.2Z"/>
          <path class="cls-39" d="M1530.9,2296.7c.2,1,.6,1.8,1.1,2.3.6.5,1.3.7,2.2.7s1.8-.3,2.5-.9c.7-.6,1.2-1.6,1.6-2.9.3-1,.5-2.2.6-3.7-.3.5-.6.9-.9,1.1-.4.4-1,.7-1.6,1-.6.2-1.4.4-2.2.4s-2.2-.3-3.2-.8-1.7-1.3-2.2-2.2c-.5-1-.7-2-.7-3.2s.2-2.2.7-3.3c.5-1.1,1.2-1.9,2.2-2.5s2.2-.9,3.6-.9c2,0,3.6.6,4.8,1.9,1.4,1.5,2.1,4,2.1,7.3s-.3,4.2-.9,5.9c-.6,1.7-1.4,2.9-2.5,3.8-1.1.8-2.4,1.2-4,1.2s-1.9-.2-2.7-.6c-.6-.3-1.1-.7-1.6-1.1-.4-.5-.7-1-1-1.5-.2-.6-.4-1.2-.4-2h2.4ZM1530.6,2288.4c0,1.3.4,2.4,1.1,3.1.7.7,1.7,1.1,2.9,1.1s2.2-.4,2.9-1.1c.7-.7,1.1-1.8,1.1-3.1s-.4-2.4-1.1-3.2c-.8-.8-1.7-1.2-2.9-1.2s-2.1.4-2.8,1.2c-.8.8-1.1,1.9-1.1,3.2Z"/>
        </g>
      </g>
      <g>
        <rect class="cls-31" x="706.8" y="2005" width="386.3" height="129.1"/>
        <g>
          <path class="cls-39" d="M858.6,2055.5h-14.6v9.5h-7.1v-13.2h21.4v-3.8h-17.8v-3.7h43.5v3.7h-18v3.8h21.5v13.2h-7.1v-9.5h-14.7v15.2h-7.1v-15.2ZM841.7,2072.4h41v24.7h-7.1v-3h-26.8v3.3h-7.1v-25ZM845.9,2058.5h10.9v3.2h-10.9v-3.2ZM845.9,2065.2h10.9v3.2h-10.9v-3.2ZM858.5,2081.1v-5h-9.7v5h9.7ZM858.5,2090.6v-5.9h-9.7v5.9h9.7ZM875.6,2081.1v-5h-10v5h10ZM875.6,2090.6v-5.9h-10v5.9h10ZM867.4,2058.6h10.7v3.2h-10.7v-3.2ZM867.4,2065.2h10.9v3.3h-10.9v-3.3Z"/>
          <path class="cls-39" d="M962.4,2051.6v32.5h-6.6v-4.3h-4.1v17.9h-7.2v-17.9h-4.1v4.6h-6.6v-8.6l-3.3,3.1c-1.4-2.5-2.6-4.4-3.9-6.2v24.8h-7.3v-22.6c-2.3,1.9-4.7,3.6-7.3,5.2l-1.7-2.6c6.9-5.8,11.5-12.3,14.2-20.1h-13.1v-3.7h8.9c-1.6-3.8-3.2-7.3-5.2-10.6l2.3-1.9c3.5,2.3,6.7,5.7,8.8,8.6l-5.7,3.8h4.1l1.6-1.4,6.4,3.1c-1.7,4.4-3.7,8.3-6.1,11.6v.7c2.6,1.5,5.1,3.4,7.2,5.5v-21.5h10.6v-9.8h7.3v9.8h10.7ZM944.7,2055.2h-4.3v8.3h4.3v-8.3ZM944.7,2067h-4.3v9.2h4.3v-9.2ZM955.8,2055.2h-4.3v8.3h4.3v-8.3ZM955.8,2067h-4.3v9.2h4.3v-9.2Z"/>
        </g>
        <g>
          <path class="cls-39" d="M731.8,2025.3c0,2.4-2,4.4-4.4,4.4s-4.4-2-4.4-4.4,2-4.4,4.4-4.4,4.4,2,4.4,4.4Z"/>
          <path class="cls-39" d="M1077,2025.3c0,2.4-2,4.4-4.4,4.4s-4.4-2-4.4-4.4,2-4.4,4.4-4.4,4.4,2,4.4,4.4Z"/>
          <path class="cls-39" d="M731.8,2113.7c0,2.4-2,4.4-4.4,4.4s-4.4-2-4.4-4.4,2-4.4,4.4-4.4,4.4,2,4.4,4.4Z"/>
          <path class="cls-39" d="M1077,2113.7c0,2.4-2,4.4-4.4,4.4s-4.4-2-4.4-4.4,2-4.4,4.4-4.4,4.4,2,4.4,4.4Z"/>
        </g>
      </g>
      <g>
        <rect class="cls-31" x="776.8" y="250.2" width="246.3" height="109.1"/>
        <g>
          <path class="cls-39" d="M854.5,281.3h30.8v41.8h-6.3v-5.1h-18.2v5.1h-6.3v-41.7ZM879,297.6v-13.1h-18.2v13.1h18.2ZM879,314.7v-14.1h-18.2v14.1h18.2Z"/>
          <path class="cls-39" d="M952.3,309.7l-4,6.3c-2.4-1.6-4.8-3.6-6.9-5.8v2.4h-8v11.2h-6.5v-11.2h-7.9v-2.7c-2.9,2.8-6.1,5.3-9.3,6.9l-1.4-2.3c6.9-5.4,13-13.8,16.1-22.5h-14.2v-3.4h16.7v-9.3h6.5v9.3h17.1v3.4h-16.3c4.2,8,10.8,13.8,18,17.8ZM926.9,309.6v-10c-2,3.6-4.6,7-7.6,10h7.6ZM940.7,309.6c-3-3.3-5.5-7.2-7.3-11.5v11.5h7.3Z"/>
        </g>
        <g>
          <path class="cls-39" d="M801.8,270.5c0,2.4-2,4.4-4.4,4.4s-4.4-2-4.4-4.4,2-4.4,4.4-4.4,4.4,2,4.4,4.4Z"/>
          <path class="cls-39" d="M1007,270.5c0,2.4-2,4.4-4.4,4.4s-4.4-2-4.4-4.4,2-4.4,4.4-4.4,4.4,2,4.4,4.4Z"/>
          <path class="cls-39" d="M801.8,339c0,2.4-2,4.4-4.4,4.4s-4.4-2-4.4-4.4,2-4.4,4.4-4.4,4.4,2,4.4,4.4Z"/>
          <path class="cls-39" d="M1007,339c0,2.4-2,4.4-4.4,4.4s-4.4-2-4.4-4.4,2-4.4,4.4-4.4,4.4,2,4.4,4.4Z"/>
        </g>
      </g>
    </g>
    <g id="Layer_2">
      <g>
        <g>
          <path class="cls-23" d="M1237,669.8c18.8,45.5,28.2,93.3,27.8,142.2-.4,47.2-9.7,93.3-27.8,137-18.1,43.8-44.1,83-77.2,116.6-34.3,34.8-74.7,62-120.2,80.8-45.5,18.8-93.3,28.2-142.2,27.8-47.2-.4-93.3-9.7-137-27.8-43.8-18.1-83-44.1-116.6-77.2-34.8-34.3-62-74.7-80.8-120.2-18.8-45.5-28.2-93.3-27.8-142.2.4-47.2,9.7-93.3,27.8-137,18.1-43.8,44.1-83,77.2-116.6,34.3-34.8,74.7-62,120.2-80.8,45.5-18.8,93.3-28.2,142.2-27.8,47.2.4,93.3,9.7,137,27.8,43.8,18.1,83,44.1,116.6,77.2,34.8,34.3,62,74.7,80.8,120.2ZM590.7,937.6c70.6,170.5,266.9,251.8,437.4,181.2,170.5-70.6,251.8-266.9,181.2-437.4-70.6-170.5-266.9-251.8-437.4-181.2-170.5,70.6-251.8,266.9-181.2,437.4Z"/>
          <circle class="cls-27" cx="900" cy="809.4" r="348.2"/>
          <g>
            <circle class="cls-10" cx="578.3" cy="942.7" r="79.4"/>
            <circle class="cls-7" cx="578.3" cy="942.7" r="68"/>
            <g>
              <path class="cls-39" d="M555.8,914.3c-20,8.3-27.3,26-19.7,44.4,3.7,9,14,13.2,23,9.5,9-3.7,13.2-14,9.5-23-3.7-9-14-13.2-23-9.5,0,0-.1,0-.2,0-1-11.5,10.3-21.5,10.3-21.5Z"/>
              <path class="cls-39" d="M571.7,974.9c17.2,13.2,36.2,10.6,48.3-5.2,5.9-7.7,4.5-18.7-3.2-24.7s-18.7-4.5-24.7,3.2c-5.9,7.7-4.5,18.7,3.2,24.7,0,0,.1,0,.2.1-9.5,6.6-23.8,1.8-23.8,1.8Z"/>
              <path class="cls-39" d="M616.2,930.9c2.8-21.5-8.9-36.7-28.6-39.2-9.6-1.3-18.5,5.5-19.7,15.1-1.3,9.6,5.5,18.5,15.1,19.7,9.6,1.3,18.5-5.5,19.7-15.1s0-.1,0-.2c10.5,4.9,13.5,19.7,13.5,19.7Z"/>
            </g>
          </g>
          <g>
            <circle class="cls-10" cx="766.8" cy="1131.1" r="79.4"/>
            <circle class="cls-7" cx="766.8" cy="1131.1" r="68"/>
            <g>
              <path class="cls-39" d="M730.7,1127c-8.3,20-.9,37.7,17.5,45.3,9,3.7,19.3-.5,23-9.5,3.7-9-.5-19.3-9.5-23-9-3.7-19.3.5-23,9.5,0,0,0,.1,0,.2-8.9-7.5-7.9-22.5-7.9-22.5Z"/>
              <path class="cls-39" d="M784.9,1158.6c21.5-2.8,33.1-18.1,30.5-37.8-1.3-9.6-10.1-16.4-19.7-15.1-9.6,1.3-16.4,10.1-15.1,19.7s10.1,16.4,19.7,15.1.1,0,.2,0c-2,11.4-15.6,18.1-15.6,18.1Z"/>
              <path class="cls-39" d="M785.2,1096c-13.2-17.2-32.2-19.6-48-7.5-7.7,5.9-9.2,17-3.2,24.7,5.9,7.7,17,9.2,24.7,3.2,7.7-5.9,9.2-17,3.2-24.7,0,0,0-.1-.1-.2,10.9-4,23.5,4.4,23.5,4.4Z"/>
            </g>
          </g>
          <g>
            <circle class="cls-10" cx="1033.2" cy="1131.1" r="79.4"/>
            <circle class="cls-7" cx="1033.2" cy="1131.1" r="68"/>
            <g>
              <path class="cls-39" d="M1004.9,1153.7c8.3,20,26,27.3,44.4,19.7,9-3.7,13.2-14,9.5-23-3.7-9-14-13.2-23-9.5-9,3.7-13.2,14-9.5,23,0,0,0,.1,0,.2-11.5,1-21.5-10.3-21.5-10.3Z"/>
              <path class="cls-39" d="M1065.5,1137.8c13.2-17.2,10.6-36.2-5.2-48.3-7.7-5.9-18.7-4.5-24.7,3.2-5.9,7.7-4.5,18.7,3.2,24.7,7.7,5.9,18.7,4.5,24.7-3.2,0,0,0-.1.1-.2,6.6,9.5,1.8,23.8,1.8,23.8Z"/>
              <path class="cls-39" d="M1021.4,1093.2c-21.5-2.8-36.7,8.9-39.2,28.6-1.3,9.6,5.5,18.5,15.1,19.7,9.6,1.3,18.5-5.5,19.7-15.1s-5.5-18.5-15.1-19.7c0,0-.1,0-.2,0,4.9-10.5,19.7-13.5,19.7-13.5Z"/>
            </g>
          </g>
          <g>
            <circle class="cls-10" cx="1221.7" cy="942.7" r="79.4"/>
            <circle class="cls-7" cx="1221.7" cy="942.7" r="68"/>
            <g>
              <path class="cls-39" d="M1217.6,978.7c20,8.3,37.7.9,45.3-17.5,3.7-9-.5-19.3-9.5-23-9-3.7-19.3.5-23,9.5-3.7,9,.5,19.3,9.5,23s.1,0,.2,0c-7.5,8.9-22.5,7.9-22.5,7.9Z"/>
              <path class="cls-39" d="M1249.2,924.6c-2.8-21.5-18.1-33.1-37.8-30.5-9.6,1.3-16.4,10.1-15.1,19.7,1.3,9.6,10.1,16.4,19.7,15.1,9.6-1.3,16.4-10.1,15.1-19.7s0-.1,0-.2c11.4,2,18.1,15.6,18.1,15.6Z"/>
              <path class="cls-39" d="M1186.5,924.3c-17.2,13.2-19.6,32.2-7.5,48,5.9,7.7,17,9.2,24.7,3.2,7.7-5.9,9.2-17,3.2-24.7-5.9-7.7-17-9.2-24.7-3.2,0,0-.1,0-.2.1-4-10.9,4.4-23.5,4.4-23.5Z"/>
            </g>
          </g>
          <g>
            <circle class="cls-10" cx="1221.7" cy="676.2" r="79.4"/>
            <circle class="cls-7" cx="1221.7" cy="676.2" r="68"/>
            <g>
              <path class="cls-39" d="M1244.2,704.6c20-8.3,27.3-26,19.7-44.4-3.7-9-14-13.2-23-9.5-9,3.7-13.2,14-9.5,23,3.7,9,14,13.2,23,9.5s.1,0,.2,0c1,11.5-10.3,21.5-10.3,21.5Z"/>
              <path class="cls-39" d="M1228.3,643.9c-17.2-13.2-36.2-10.6-48.3,5.2-5.9,7.7-4.5,18.7,3.2,24.7,7.7,5.9,18.7,4.5,24.7-3.2,5.9-7.7,4.5-18.7-3.2-24.7,0,0-.1,0-.2-.1,9.5-6.6,23.8-1.8,23.8-1.8Z"/>
              <path class="cls-39" d="M1183.8,688c-2.8,21.5,8.9,36.7,28.6,39.2,9.6,1.3,18.5-5.5,19.7-15.1,1.3-9.6-5.5-18.5-15.1-19.7-9.6-1.3-18.5,5.5-19.7,15.1,0,0,0,.1,0,.2-10.5-4.9-13.5-19.7-13.5-19.7Z"/>
            </g>
          </g>
          <g>
            <circle class="cls-10" cx="1033.2" cy="487.8" r="79.4"/>
            <circle class="cls-7" cx="1033.2" cy="487.8" r="68"/>
            <g>
              <path class="cls-39" d="M1069.3,491.9c8.3-20,.9-37.7-17.5-45.3-9-3.7-19.3.5-23,9.5-3.7,9,.5,19.3,9.5,23,9,3.7,19.3-.5,23-9.5,0,0,0-.1,0-.2,8.9,7.5,7.9,22.5,7.9,22.5Z"/>
              <path class="cls-39" d="M1015.1,460.2c-21.5,2.8-33.1,18.1-30.5,37.8,1.3,9.6,10.1,16.4,19.7,15.1,9.6-1.3,16.4-10.1,15.1-19.7-1.3-9.6-10.1-16.4-19.7-15.1s-.1,0-.2,0c2-11.4,15.6-18.1,15.6-18.1Z"/>
              <path class="cls-39" d="M1014.8,522.9c13.2,17.2,32.2,19.6,48,7.5,7.7-5.9,9.2-17,3.2-24.7-5.9-7.7-17-9.2-24.7-3.2-7.7,5.9-9.2,17-3.2,24.7,0,0,0,.1.1.2-10.9,4-23.5-4.4-23.5-4.4Z"/>
            </g>
          </g>
          <g>
            <circle class="cls-10" cx="766.8" cy="487.8" r="79.4"/>
            <circle class="cls-7" cx="766.8" cy="487.8" r="68"/>
            <g>
              <path class="cls-39" d="M795.1,465.2c-8.3-20-26-27.3-44.4-19.7-9,3.7-13.2,14-9.5,23,3.7,9,14,13.2,23,9.5,9-3.7,13.2-14,9.5-23,0,0,0-.1,0-.2,11.5-1,21.5,10.3,21.5,10.3Z"/>
              <path class="cls-39" d="M734.5,481.1c-13.2,17.2-10.6,36.2,5.2,48.3,7.7,5.9,18.7,4.5,24.7-3.2,5.9-7.7,4.5-18.7-3.2-24.7-7.7-5.9-18.7-4.5-24.7,3.2,0,0,0,.1-.1.2-6.6-9.5-1.8-23.8-1.8-23.8Z"/>
              <path class="cls-39" d="M778.6,525.6c21.5,2.8,36.7-8.9,39.2-28.6,1.3-9.6-5.5-18.5-15.1-19.7-9.6-1.3-18.5,5.5-19.7,15.1-1.3,9.6,5.5,18.5,15.1,19.7,0,0,.1,0,.2,0-4.9,10.5-19.7,13.5-19.7,13.5Z"/>
            </g>
          </g>
          <g>
            <circle class="cls-10" cx="578.3" cy="676.2" r="79.4"/>
            <circle class="cls-7" cx="578.3" cy="676.2" r="68"/>
            <g>
              <path class="cls-39" d="M582.4,640.2c-20-8.3-37.7-.9-45.3,17.5-3.7,9,.5,19.3,9.5,23s19.3-.5,23-9.5c3.7-9-.5-19.3-9.5-23s-.1,0-.2,0c7.5-8.9,22.5-7.9,22.5-7.9Z"/>
              <path class="cls-39" d="M550.8,694.3c2.8,21.5,18.1,33.1,37.8,30.5,9.6-1.3,16.4-10.1,15.1-19.7-1.3-9.6-10.1-16.4-19.7-15.1-9.6,1.3-16.4,10.1-15.1,19.7,0,0,0,.1,0,.2-11.4-2-18.1-15.6-18.1-15.6Z"/>
              <path class="cls-39" d="M613.5,694.6c17.2-13.2,19.6-32.2,7.5-48-5.9-7.7-17-9.2-24.7-3.2-7.7,5.9-9.2,17-3.2,24.7,5.9,7.7,17,9.2,24.7,3.2,0,0,.1,0,.2-.1,4,10.9-4.4,23.5-4.4,23.5Z"/>
            </g>
          </g>
        </g>
        <g>
          <path class="cls-5" d="M1145.2,1352c-.8-13.4-2.4-31.9-10.1-59.7-2.4-8.7-7.4-25.4-8.1-29.5-4.2-21.8-2.2-73.8-5.9-115.9-3.6-42.1-17.1-65.6-20.4-74.7s.1-28.6-.1-60-7.1-43.3-6.6-53.4c.5-10.1,1-7.5,4.1-26.7,3.1-19.2-5.8-57.1-16.2-75.8-10.4-18.7-25.3-21.5-33.1-30.3-7.8-8.8-17.7-7.8-17.7-7.8-15.8-10.6-61.1-32.1-82.4-43.7-9.7-5.3-48.7-55.2-48.7-55.2,0,0-39,49.8-48.7,55.2-21.3,11.7-66.5,33.1-82.4,43.7,0,0-9.9-1-17.7,7.8-7.8,8.8-22.7,11.6-33.1,30.3-10.4,18.7-19.3,56.6-16.2,75.8,3.1,19.2,3.6,16.6,4.1,26.7.5,10.1-6.4,22-6.6,53.4s3.2,51-.1,60-16.8,32.7-20.4,74.7c-3.6,42.1-1.7,94-5.9,115.9-.8,4.1-5.8,20.8-8.1,29.5-7.6,27.8-9.2,46.4-10.1,59.7-2.1,17.2,10.9,17.4,10.9,17.4,0,0,2.3,6,6.4,6.2,4.1.2,7.3-.4,7.3-.4,0,0,3.8,6.5,10.3,6.9,6.5.3,9.1-2.3,9.1-2.3,0,0,3.6,2.6,9.4,2.9,5.8.3,7.5-6,7.5-6,0,0,2.1,1.9,4.8,2,6.8.3,6.7-8.4,9.5-16.6,1.9-5.5-.3-16,.5-31.5.8-15.5-8.6-28.5-14.2-34.4-3.8-4-2-15.1-2-15.1,1.9-15.7,2.9-21.9,12.5-38.8,12.5-22.1,31.1-70,35.4-103.8,4.4-34.5-2.1-48.8.2-62.9s13-32.4,14-58.9c0,0,.9,1.5,12.9,19.6,6.8,10.3-9.7,56.6-11.2,81.7-1.6,25.2,2.9,42.1,2.9,42.1,0,0-23.3,47.8-7.1,99.3-13.6,92.6-22.9,97.9-20.7,175.6,1.9,67,14.4,102.3,11.9,117-2.4,14.7-15.2,33.3-21.4,90.7-6.2,57.4,18,106.1,17.3,133.5-.3,14.1-.9,32.7-.9,46.9s1.4,14.4,1.4,20.3-5.9,18-5.7,29.5c.2,11.5-29.7,32.4-30.7,40.3,0,0-30,22.7-23.9,30.8,0,0,21.5-7.7,23.4-6.8,0,0-10.9,14.8-7,16.9,0,0,17.1-8.8,20.6-10.1,0,0-6.7,17.9-.4,21.1,0,0,11.7-14.7,16.7-17.1l6.4,21.4s6.9-16.6,13.9-19.7c0,0-1.8,6.7,11.9,24.4,7.7-19.3,20.5-25.7,24.6-35.2,4.1-9.5,8.4-7.4,8.4-17.8s6-24.3,8-30.2c2-5.9,7.2-5.4,9-11.5,1.8-6.1.5-18.5-7.4-26.1s-4.1-19.2-4.1-33.3,2-43.4,10.6-86.3c8.7-43.4,28.4-53.2,31.7-96.8,3-40.6-11.7-66.2-9.2-97.1,2.4-29.4,35.5-142.8,41.6-223.1,6.1,80.4,39.2,193.8,41.6,223.1,2.6,30.9-12.2,56.5-9.2,97.1,3.3,43.5,23,53.4,31.7,96.8,8.6,42.9,10.6,72.1,10.6,86.3s3.8,25.7-4.1,33.3-9.2,20.1-7.4,26.1c1.8,6.1,7,5.6,9,11.5,2,5.9,8,19.8,8,30.2s4.4,8.3,8.4,17.8c4.1,9.5,16.9,15.9,24.6,35.2,13.7-17.7,11.9-24.4,11.9-24.4,7,3.1,13.9,19.7,13.9,19.7l6.4-21.4c5,2.4,16.7,17.1,16.7,17.1,6.2-3.2-.4-21.1-.4-21.1,3.5,1.3,20.6,10.1,20.6,10.1,3.9-2.1-7-16.9-7-16.9,1.8-.9,23.4,6.8,23.4,6.8,6.2-8-23.9-30.8-23.9-30.8-1-7.9-30.9-28.8-30.7-40.3.2-11.5-5.7-23.6-5.7-29.5s1.4-5,1.4-20.3-.5-32.7-.9-46.9c-.7-27.3,23.5-76.1,17.3-133.5-6.2-57.4-19-76-21.4-90.7-2.4-14.7,10-50,11.9-117,2.2-77.7-7.1-83-20.7-175.6,16.3-51.4-7.1-99.3-7.1-99.3,0,0,4.5-17,2.9-42.1-1.6-25.2-18-71.4-11.2-81.7,12-18.1,12.9-19.6,12.9-19.6,1,26.6,11.7,44.9,14,58.9s-4.2,28.3.2,62.9c4.3,33.8,22.9,81.7,35.4,103.8,9.5,16.9,10.6,23.1,12.5,38.8,0,0,1.8,11.2-2,15.1-5.6,5.9-15,18.9-14.2,34.4.8,15.5-1.4,26,.5,31.5,2.8,8.2,2.7,16.9,9.5,16.6,2.8-.1,4.8-2,4.8-2,0,0,1.7,6.3,7.5,6,5.8-.3,9.4-2.9,9.4-2.9,0,0,2.6,2.6,9.1,2.3,6.5-.3,10.3-6.9,10.3-6.9,0,0,3.2.6,7.3.4,4.1-.2,6.4-6.2,6.4-6.2,0,0,13-.2,10.9-17.4Z"/>
          <path class="cls-12" d="M1079.8,940.7s3.1-57.8-43.4-91"/>
          <path class="cls-8" d="M968.5,1525.9c4.2,13.3,5.3,37.1,22.7,45.2"/>
          <path class="cls-3" d="M845.6,808.1c-1-17.7,7.9-46.2,6.4-62.7h94.5c-1.5,16.4,7.4,45,6.4,62.7"/>
          <g>
            <path class="cls-8" d="M848.1,840.9s-5.8,2.4-15.2,2.4-30.1-18.2-37.8-18.2"/>
            <path class="cls-8" d="M951.9,840.9s5.8,2.4,15.2,2.4c12.8,0,30.1-18.2,37.8-18.2"/>
            <path class="cls-8" d="M890.9,846.7s3.9,9.8,9.2,9.8,9.2-9.8,9.2-9.8"/>
          </g>
          <path class="cls-8" d="M1087.2,1094.2c-8.3-11.6-22.1-8.3-22.1-8.3"/>
          <g>
            <path class="cls-9" d="M1084.2,1376.6c-3.2-8.9,2.2-18.2-2.1-38.7"/>
            <path class="cls-9" d="M1101.1,1379.7c3.9-8.4,2.3-14.7,4.7-20.6"/>
            <path class="cls-9" d="M1120.5,1375.2c1.9-3.3-.7-7.7,3.2-17.5"/>
            <path class="cls-9" d="M1134.2,1369.4c-.3-5,2.8-9,2.6-14.9"/>
          </g>
          <path class="cls-8" d="M938.4,745.4s-2.2,67.5-16.8,85.5"/>
          <path class="cls-8" d="M861.6,745.4s2.2,67.5,16.8,85.5"/>
          <path class="cls-8" d="M1083.1,957.8c-12-.8-40.6-12-45.7-34.1"/>
          <g>
            <path class="cls-8" d="M1025.2,1949.6s2.6-7.4,1.5-11.6c-1.1-4.2-9.7-9.6-10.9-15.1"/>
            <path class="cls-8" d="M1045.5,1947.9s3.1-5.5,2-9.2c-1.1-3.7-7.8-9.1-8.3-14"/>
            <path class="cls-8" d="M1061.7,1943.8s1-5,0-8c-1-3-6.6-9.2-7.1-11.5"/>
            <path class="cls-8" d="M1075.2,1937.1s-.2-5.4-1.8-7.5c-1.2-1.5-5.8-5.7-6.8-9.2"/>
          </g>
          <g>
            <path class="cls-6" d="M1039.1,909.7s.6,51.8-28.9,64.4c-42.2,18.1-88,3.3-98.9-9.2-6.8-7.8-7.8-12.5-7.8-12.5"/>
            <ellipse class="cls-8" cx="993.5" cy="955.5" rx="6" ry="4"/>
          </g>
          <path class="cls-29" d="M986.5,1037s-13.7-24.9-46.7-44.8"/>
          <path class="cls-12" d="M903.7,919.1s8.5-8.6,15-10.1"/>
          <path class="cls-12" d="M903.7,930.5s4-2.4,9.7-4.2"/>
          <path class="cls-12" d="M903.7,899.6s3-8.9,8-10.1"/>
          <path class="cls-12" d="M994.5,988.6s-9.1,11.2-21.1,12.3"/>
          <path class="cls-12" d="M1010.6,988.1s-9.5,20.2-27.5,25.9"/>
          <path class="cls-12" d="M1009.6,1008.3s-4.3,17-14.7,19.7"/>
          <line class="cls-12" x1="900" y1="1020.9" x2="900" y2="1110.5"/>
          <line class="cls-12" x1="900" y1="1127.1" x2="900" y2="1165.3"/>
          <path class="cls-29" d="M979.3,1045c4.7,37,39.8,98-2.8,149.3"/>
          <g>
            <path class="cls-6" d="M868.6,1276.4c4.1,6.6,6.7,13.9,6.7,20.5,0,6.6-8.8,26.2,3.7,36.3,12.6,10,19.9,1.4,19.9,1.4,0,0,7.3,8.6,19.9-1.4,12.6-10,3.7-29.7,3.7-36.3s2.6-13.9,6.7-20.5"/>
            <path class="cls-6" d="M888.7,1283.8c1.7,5.5,0,31.8,2,35.7,2,3.9,8.3,1.8,8.3,1.8,0,0,6.3,2.1,8.3-1.8s.3-30.1,2-35.7"/>
            <path class="cls-6" d="M909.4,1321.1c0,3.1-1.8,14.2-10,14.2s-10-11.1-10-14.2,4.5-4.4,10-4.4,10,1.3,10,4.4Z"/>
          </g>
          <path class="cls-8" d="M1016,849.7c6.3,7.1,10.8,12.6,14,15.1"/>
          <path class="cls-12" d="M1087.7,982.6s19.6,102.8-34.7,87.7"/>
          <path class="cls-12" d="M1094.2,1107c-8,21.4-15.2,97.4-7.1,132.4"/>
          <path class="cls-12" d="M1053.7,1094.2s18.1,43.8,22.4,85.8"/>
          <path class="cls-37" d="M1023.5,1016.6c-1.3-5.4-4.9-34.1,5.5-57.1"/>
          <path class="cls-12" d="M942.9,1313.3s13.3,116.7,43.9,162"/>
          <path class="cls-12" d="M1016.3,1287.3c11.5,26,35.3,132.7-6.7,214.7"/>
          <path class="cls-12" d="M991.3,1600.6c15,90,0,177.3,0,177.3"/>
          <path class="cls-12" d="M954.3,1581c20.1,21.7,25.6,69,18,131.7"/>
          <path class="cls-12" d="M720.2,940.7s-3.1-57.8,43.4-91"/>
          <path class="cls-8" d="M831.5,1525.9c-4.2,13.3-5.3,37.1-22.7,45.2"/>
          <path class="cls-8" d="M712.8,1094.2c8.3-11.6,22.1-8.3,22.1-8.3"/>
          <g>
            <path class="cls-9" d="M715.8,1376.6c3.2-8.9-2.2-18.2,2.1-38.7"/>
            <path class="cls-9" d="M698.9,1379.7c-3.9-8.4-2.3-14.7-4.7-20.6"/>
            <path class="cls-9" d="M679.5,1375.2c-1.9-3.3.7-7.7-3.2-17.5"/>
            <path class="cls-9" d="M665.8,1369.4c.3-5-2.8-9-2.6-14.9"/>
          </g>
          <path class="cls-8" d="M861.6,745.4s2.2,67.5,16.8,85.5"/>
          <path class="cls-8" d="M716.9,957.8c12-.8,40.6-12,45.7-34.1"/>
          <g>
            <path class="cls-8" d="M774.8,1949.6s-2.6-7.4-1.5-11.6c1.1-4.2,9.7-9.6,10.9-15.1"/>
            <path class="cls-8" d="M754.5,1947.9s-3.1-5.5-2-9.2c1.1-3.7,7.8-9.1,8.3-14"/>
            <path class="cls-8" d="M738.3,1943.8s-1-5,0-8c1-3,6.6-9.2,7.1-11.5"/>
            <path class="cls-8" d="M724.8,1937.1s.2-5.4,1.8-7.5c1.2-1.5,5.8-5.7,6.8-9.2"/>
          </g>
          <g>
            <path class="cls-6" d="M760.9,909.7s-.6,51.8,28.9,64.4c42.2,18.1,88,3.3,98.9-9.2,6.8-7.8,7.8-12.5,7.8-12.5"/>
            <ellipse class="cls-8" cx="806.5" cy="955.5" rx="6" ry="4"/>
          </g>
          <path class="cls-29" d="M813.5,1037s13.7-24.9,46.7-44.8"/>
          <path class="cls-12" d="M896.3,919.1s-8.5-8.6-15-10.1"/>
          <path class="cls-12" d="M896.3,930.5s-4-2.4-9.7-4.2"/>
          <path class="cls-12" d="M896.3,899.6s-3-8.9-8-10.1"/>
          <path class="cls-12" d="M805.5,988.6s9.1,11.2,21.1,12.3"/>
          <path class="cls-12" d="M789.4,988.1s9.5,20.2,27.5,25.9"/>
          <path class="cls-12" d="M790.4,1008.3s4.3,17,14.7,19.7"/>
          <line class="cls-12" x1="900" y1="1020.9" x2="900" y2="1110.5"/>
          <line class="cls-12" x1="900" y1="1127.1" x2="900" y2="1165.3"/>
          <path class="cls-29" d="M820.7,1045c-4.7,37-39.8,98,2.8,149.3"/>
          <path class="cls-8" d="M784,849.7c-6.3,7.1-10.8,12.6-14,15.1"/>
          <path class="cls-12" d="M712.3,982.6s-19.6,102.8,34.7,87.7"/>
          <path class="cls-12" d="M705.8,1107c8,21.4,15.2,97.4,7.1,132.4"/>
          <path class="cls-12" d="M746.3,1094.2s-18.1,43.8-22.4,85.8"/>
          <path class="cls-37" d="M776.5,1016.6c1.3-5.4,4.9-34.1-5.5-57.1"/>
          <path class="cls-12" d="M857.1,1313.3s-13.3,116.7-43.9,162"/>
          <path class="cls-12" d="M783.7,1287.3c-11.5,26-35.3,132.7,6.7,214.7"/>
          <path class="cls-12" d="M808.7,1600.6c-15,90,0,177.3,0,177.3"/>
          <path class="cls-12" d="M845.7,1581c-20.1,21.7-25.6,69-18,131.7"/>
          <g>
            <path class="cls-21" d="M900,480.8c-325.7,0-341.6,245.9-243,333.6,88.2,78.5,94.1,101.1,108,169,13.9,67.9-7.5,76.2,1.3,92.3,8.8,16.1,32.8,3.4,36.8-24.1,4-27.6,8-88.5-38.5-168.9-46.5-80.5-121.9-101.8-110.5-206s124.3-144.8,246-144.8,234.7,40.6,246,144.8-64,125.5-110.5,206c-46.5,80.5-42.5,141.4-38.5,168.9s28,40.2,36.8,24.1c8.8-16.1-12.6-24.3,1.3-92.3s19.8-90.6,108-169c98.6-87.7,82.7-333.6-243-333.6Z"/>
            <path class="cls-18" d="M1168.5,640c5.3,178.8-125.2,170-168.9,334.3"/>
            <path class="cls-18" d="M1155.9,777.6c-39.3,72.6-149.7,99.1-125.9,259.2"/>
            <path class="cls-18" d="M654.6,671.6c7.5-69.7,53.1-159.7,245.4-159.7s237.9,90,245.4,159.7"/>
            <path class="cls-18" d="M631.5,640c-5.3,178.8,125.2,170,168.9,334.3"/>
            <path class="cls-18" d="M644.1,777.6c39.3,72.6,149.7,99.1,125.9,259.2"/>
          </g>
          <g>
            <g>
              <path class="cls-1" d="M991.6,582.3c-24.5,28.7,0-22.7-37.7-37.3,2,11.5,5.1,19.3-1.8,20-5,.5-8.3-2.8-10.4-12.5-3.8-17.4-14.4-25.7-19.1-23.2,4.5,12.2-1.1,15.9-7.8,9.7s-14.8-20.5-14.8-20.5c0,0-6.3,14.3-13,20.5-6.8,6.3-3.2-5.9-10.5-12.9-2.8,15.6-15.6,7-19.4,24.4-2.1,9.6-6.4,10.2-11.3,9.8-6.8-.6-9.2-4-3.5-17.5-37.8,14.7-6.8,57.5-40,55.4,21.2,12.4,24,26,21.2,33.4-26,67.5,33,129.8,77.4,129.8s103.4-62.2,77.4-129.8c-2.8-7.3,17-24.9,13.3-49.2Z"/>
              <g>
                <path class="cls-2" d="M964.1,716.4c4.7-24,16.9-17.6,10.5-39.6-7.2-24.9,17.3-27.7.5-46.3"/>
                <path class="cls-2" d="M959,708.9c4.7-24,17.3-16.7,7-37.4-8.4-16.9,6.6-26.6-5.8-37.4"/>
                <path class="cls-2" d="M835,716.4c-4.7-24-16.9-17.6-10.5-39.6,7.2-24.9-17.3-27.7-.5-46.3"/>
                <path class="cls-2" d="M840.1,708.9c-4.7-24-17.3-16.7-7-37.4,8.4-16.9-6.6-26.6,5.8-37.4"/>
                <path class="cls-2" d="M892.7,616.7c-9.9-17.4-43.2-47.4-8.4-67.4"/>
                <path class="cls-2" d="M866.4,613.3c-6.5-11.5-31.9-33.5,2-59.9"/>
                <path class="cls-2" d="M845.8,623.1c-9.8-4.4-38.5-18.9-1.9-50"/>
                <path class="cls-2" d="M899.5,623.1c-15.8-40.1-5.8-81.7-5.8-81.7"/>
                <path class="cls-2" d="M906.3,616.7c9.9-17.4,43.2-47.4,8.4-67.4"/>
                <path class="cls-2" d="M932.7,613.3c6.5-11.5,31.9-33.5-2-59.9"/>
                <path class="cls-2" d="M953.3,623.1c9.8-4.4,38.5-18.9,1.9-50"/>
                <path class="cls-2" d="M899.5,623.1c15.8-40.1,5.8-81.7,5.8-81.7"/>
              </g>
            </g>
            <g>
              <path class="cls-19" d="M960.7,679.1s9.6-1.3,16.9-10.5c3.8,3.8,1.6,10.1.6,15.4-1,5.1,1.4,9.2-.8,15.7-2.1,6.5-4.5,6.6-6.5,11-2,4.4-3.7,12.6-9.6,12.6s-7.4-7.2-7.4-9.9.7-34.3,6.8-34.3Z"/>
              <path class="cls-25" d="M975,681.4c-3.1,0-5.3,4.4-5.3,7.1s1.2,4.3,1.2,7.2-.5,3.7-1.9,6.5c-1.5,2.8-2.3,6.2-1.6,7.3"/>
              <path class="cls-11" d="M970.3,691.9s3.1,1.1,4.3-.5"/>
            </g>
            <g>
              <path class="cls-19" d="M839.3,679.1s-9.6-1.3-16.9-10.5c-3.8,3.8-1.6,10.1-.6,15.4,1,5.1-1.4,9.2.8,15.7,2.1,6.5,4.5,6.6,6.5,11,2,4.4,3.7,12.6,9.6,12.6s7.4-7.2,7.4-9.9-.7-34.3-6.8-34.3Z"/>
              <path class="cls-25" d="M825,681.4c3.1,0,5.3,4.4,5.3,7.1s-1.2,4.3-1.2,7.2.5,3.7,1.9,6.5c1.5,2.8,2.3,6.2,1.6,7.3"/>
              <path class="cls-11" d="M829.7,691.9s-3.1,1.1-4.3-.5"/>
            </g>
            <path class="cls-32" d="M961,667.1c2.3-13-13.3-53-13.3-53-11.6-10.7-41.3-10.6-47.7,3.9-6.4-14.5-36.2-14.5-47.7-3.9,0,0-15.6,40-13.3,53,2.3,13-3.9,30.4,1.9,43.7,5.9,13.3,4.9,33.4,10.1,42.3,5.2,8.9,13.3,13,16.3,15.4,3.6,2.8,15.7,16.6,32.7,16.5,17,0,29.1-13.7,32.7-16.5,3-2.4,11-6.5,16.3-15.4,5.3-8.9,4.2-29,10.1-42.3,5.9-13.3-.3-30.7,1.9-43.7Z"/>
            <path class="cls-39" d="M929.6,680c0,2.3,1.9,4.2,4.2,4.2s4.2-1.9,4.2-4.2-1.9-4.2-4.2-4.2-4.2,1.9-4.2,4.2Z"/>
            <path class="cls-39" d="M870.3,680c0,2.3-1.9,4.2-4.2,4.2s-4.2-1.9-4.2-4.2,1.9-4.2,4.2-4.2,4.2,1.9,4.2,4.2Z"/>
            <path class="cls-25" d="M905.5,664.6c-5.6,6.2-.2,15.5,6.3,15.5s19.9-8.9,27-22c6.1-11.2,13.5-3.1,14.1,4.6"/>
            <path class="cls-25" d="M893.9,683.1s.1,2.7,6.1,2.7c6,0,6.1-2.8,6.1-2.8"/>
            <path class="cls-20" d="M911.2,685c-1.7,3.7-5.9,3.8-9,11.1"/>
            <path class="cls-20" d="M913.8,686.3c3.9,2.2-2.5,9.2-2.1,14.4"/>
            <path class="cls-25" d="M922,759.5c-8.1,4.2-14.1-3.5-22-3.5-8,0-13.9,7.7-22,3.5"/>
            <path class="cls-25" d="M925.7,709.8c1.8,2.1,9.7,2.9,10.9,17.5s9.5,12.1-2.7,32.7"/>
            <path class="cls-25" d="M915.6,765s4.3,4.8,12.8-3.8"/>
            <path class="cls-25" d="M946.6,684.2c-.5,3.9-4.9,9.2-11.1,9.2s-9.2-5.4-13.8-6.5"/>
            <path class="cls-25" d="M894.5,664.6c5.6,6.2.2,15.5-6.3,15.5s-19.9-8.9-27-22c-6.1-11.2-13.5-3.1-14.1,4.6"/>
            <path class="cls-20" d="M888.8,685c1.7,3.7,5.9,3.8,9,11.1"/>
            <path class="cls-18" d="M883.7,700.9c-.8-2.2-4.8-4-5.6,4-.7,7.6,6.5,9.3,8.6,8s7.2,7.7,13.3,7.7c6.2,0,11.3-9,13.3-7.7s9.3-.4,8.6-8c-.7-8-4.7-6.2-5.6-4"/>
            <path class="cls-20" d="M886.2,686.3c-3.9,2.2,2.5,9.2,2.1,14.4"/>
            <path class="cls-26" d="M929.1,729.4c-1.5-3.3-.3-9.8-4.7-10.6-4.4-.8-11.7,7.3-24.4,7.3s-20-8.2-24.4-7.3-3.2,7.2-4.7,10.6c-1.5,3.3-4.7,8.7-1.3,14.8,3.3,6.1,7.2,10.6,13.2,10.6s10.3-5.1,17.2-5.1c6.9,0,11.2,5.1,17.2,5.1s9.9-4.5,13.2-10.6c3.3-6.1.2-11.4-1.3-14.8Z"/>
            <path class="cls-25" d="M874.3,709.8c-1.7,2.1-9.7,2.9-10.9,17.5-1.2,14.7-9.5,12.1,2.7,32.7"/>
            <path class="cls-25" d="M884.4,765s-4.3,4.8-12.8-3.7"/>
            <path class="cls-25" d="M853.4,684.2c.5,3.9,4.9,9.2,11.1,9.2s9.2-5.4,13.8-6.5"/>
            <path class="cls-36" d="M925.5,723.3c-2.1,0-3.2,3.1-3.2,3.1,0,0-2.2-3.1-6,1.1,0,0-2.1-4.2-7.2-.4-3.4-1-9.2.7-9.2.7,0,0-5.7-1.7-9.2-.7-5.1-3.8-7.2.4-7.2.4-3.9-4.1-6-1.1-6-1.1,0,0-1.1-3.1-3.2-3.1s-1.2,7-.3,8.4c.9,1.4,3.2,2.2,3.2,2.2,0-.9,1.1-1.9,1.1-1.9.9,2.4,4.8,5.9,4.8,5.9-.3-1.7.9-3.3.9-3.3,1.3,1.5,6.7,1.2,6.7,1.2,3.3,2.8,9.1.8,9.1.8,0,0,5.8,2,9.1-.8,0,0,5.4.4,6.7-1.2,0,0,1.2,1.5.9,3.3,0,0,3.9-3.5,4.8-5.9,0,0,1.1,1.1,1.1,1.9,0,0,2.3-.8,3.2-2.2.9-1.4,1.8-8.4-.3-8.4Z"/>
            <path class="cls-36" d="M926.1,731.1s-.3,1.6-2,2.2c0,0-.7-15.7-2.5-17.5,0,0-.8,15.9-3.9,21.1,0,0-1.1-1.8-1.8-2.4,0,0-3.1,1.9-6.7,1.2,0,0-3.3,3.4-9.1.8-5.8,2.7-9.1-.8-9.1-.8-3.6.8-6.7-1.2-6.7-1.2-.8.6-1.8,2.4-1.8,2.4-3-5.3-3.9-21.1-3.9-21.1-1.8,1.7-2.5,17.5-2.5,17.5-1.7-.6-2-2.2-2-2.2,0,0-2.9,5.1-3.1,9.6s4.4.2,4.4.2c2.2,6.4,7.7,2.9,7.7,2.9,2.6,3.4,8.1,1.7,8.1,1.7,3.9,3.6,9.1.5,9.1.5,0,0,5.2,3.1,9.1-.5,0,0,5.5,1.7,8.1-1.7,0,0,5.5,3.5,7.7-2.9,0,0,4.6,4.3,4.4-.2-.2-4.5-3.1-9.6-3.1-9.6Z"/>
            <path class="cls-14" d="M900,648.9c-59,0-78.2-12.1-79-12.6-2.2-1.4-2.9-4.5-1.6-6.9,1.3-2.4,4-3.2,6.2-1.8.3.2,18.8,11.2,74.4,11.2s74.2-11.1,74.4-11.2c2.2-1.4,4.9-.6,6.2,1.8,1.3,2.4.6,5.4-1.6,6.8-.8.5-20,12.6-79,12.6Z"/>
            <path class="cls-17" d="M935.1,613.8c9.9-3.3,18.9-16.9,21.2-26.2,2.3-9.3,6.6,25.8-7.2,43.8"/>
            <path class="cls-17" d="M864.9,613.8c-9.9-3.3-18.9-16.9-21.2-26.2-2.3-9.3-6.6,25.8,7.2,43.8"/>
          </g>
        </g>
        <path class="cls-35" d="M1039,1230.7c-4.7-75-20.1-72.9-20.1-72.9,0,0-65.4,7.4-119,7.4s-119-7.4-119-7.4c0,0-15.3-2.2-20.1,72.9-4.7,75-37.1,218.6-37.1,218.6,76.1,30,115.6-13.8,178.3-13.8s97.9,43.8,174,13.8c0,0-32.4-143.5-37.1-218.6Z"/>
        <g>
          <path class="cls-12" d="M827.8,1276.4c.9,69.7,68,113.5,68,113.5"/>
          <path class="cls-12" d="M846.2,1276.4s17.2,62,43.2,66"/>
          <path class="cls-12" d="M813.5,1281.5s2.3,113,71.8,132.5"/>
          <path class="cls-12" d="M798,1257.3c-5.8,47.3-30.3,64.9-42.7,112.1"/>
        </g>
        <g>
          <path class="cls-12" d="M972.2,1276.4c-.9,69.7-68,113.5-68,113.5"/>
          <path class="cls-12" d="M953.8,1276.4s-17.2,62-43.2,66"/>
          <path class="cls-12" d="M986.5,1281.5s-2.3,113-71.8,132.5"/>
          <path class="cls-12" d="M1002,1257.3c5.8,47.3,30.3,64.9,42.7,112.1"/>
        </g>
        <path class="cls-35" d="M1041.3,1209.8c2-25.3-3.5-68.2-34-60.7s-73,10-107.3,10-76.8-2.5-107.3-10-36,35.4-34,60.7-20.5,75.8-16.9,90.3,44.9-13.3,79.9-1.6c35,11.7,45.5,22.9,78.3,22.9s43.3-11.1,78.3-22.9c35-11.7,76.2,16.1,79.9,1.6s-18.9-65-16.9-90.3Z"/>
        <g>
          <g>
            <path class="cls-15" d="M1033.5,1185.6c-39.5,26.6-97.2,32-134.5,32s-95-5.5-134.5-32c0,0-13.4,16.8-7.8,24.2,30,23.2,109.5,35.5,142.3,35.5s112.3-12.3,142.3-35.5c5.6-7.4-7.8-24.2-7.8-24.2Z"/>
            <path class="cls-2" d="M1033.2,1188.6c-13.2,20.7-28.4,37-46.7,44"/>
            <path class="cls-2" d="M936.9,1236.5s44.7-5.8,70.3-30.8"/>
            <path class="cls-2" d="M764.5,1194.6c13.2,20.7,38.7,35.1,60.4,41.2"/>
            <path class="cls-2" d="M870.1,1238.3s-59.5-13-81.7-35.7"/>
          </g>
          <g>
            <path class="cls-15" d="M905.3,1238.3c-5,56.2,3.5,166.7,62.3,263.7,58.7,97,79.3,148.1,53,199,0,0,2.5,6.2,9,7.8s12.5,2.8,13,6,15.8-10,13.5-41.1c-2.4-31-12-97.4-59-165s-77.8-177.2-61-278.7l-30.7,8.3Z"/>
            <path class="cls-2" d="M913.7,1236.5c-11.8,94.8,17.1,206.2,79.8,277.5"/>
            <path class="cls-2" d="M996.9,1540.3c30.7,43.3,49.9,109.2,29.6,146.7"/>
            <path class="cls-2" d="M1038.2,1711c11.4-14.4,16.3-55.4-3.3-101.4"/>
            <path class="cls-2" d="M931.3,1231.2c-30,52.6,11,221.7,0,123.3"/>
          </g>
          <g>
            <path class="cls-15" d="M880.3,1224.6s13.4,17.1,26,13.7c0,0-111.2,135.4,5,228.7,116.2,93.3,142.5,72.3,187,142.7,0,0-7.7-2.3-10.7,2.7s-6.7,13-13.7,10.3c-7-2.7-26.3-51.3-119.7-105.3-93.3-54-117.8-79.6-114.6-147.9,3.2-68.2,32.6-112.1,40.6-144.8Z"/>
            <path class="cls-2" d="M896.5,1237.4c-21.1,59.5-105.6,156.2,12.8,252.3"/>
            <path class="cls-2" d="M889.3,1461.5c50.6,66.2,175.1,80.1,194.3,157.3"/>
            <path class="cls-2" d="M885.3,1229.9c3.3,26.3-27.6,53.6-31.7,89.7"/>
          </g>
          <g>
            <path class="cls-15" d="M1004.9,1257.3c-6.9-28.7-58.3-26.5-79.4-36.2-12.8-5.9-21.9,13.2-19.9,25.6,2.1,12.3,3.6,6.3,19.9,29.8,16.2,23.5,49.3,34.5,61.4,30.8,12.1-3.7,24.9-21.3,18-50ZM970,1287.3c-17.8-3.3-23.5-19.6-40.7-33.3-13.4-10.7-7.7-25,4.2-19,15.4,7.8,57.9,14.5,57.7,32.2-.2,15.9-1.5,23.8-21.2,20.1Z"/>
            <path class="cls-2" d="M935.8,1230.3c15.4,11.5,54.6,4.6,55.2,34.3"/>
            <path class="cls-2" d="M1000.4,1264.6c1,26.7-8.6,46-37.5,39.5"/>
            <path class="cls-2" d="M919.6,1254s11.5,9,26.8,25.4c12.3,13.2,32.4,17.1,41.2,5.6"/>
          </g>
          <g>
            <path class="cls-15" d="M813.1,1307.2c12.1,3.7,45.1-7.4,61.4-30.8,16.2-23.5,17.8-17.4,19.9-29.8,2.1-12.3-7-31.5-19.9-25.6-21.1,9.8-72.5,7.6-79.4,36.2-6.9,28.7,5.9,46.2,18,50ZM808.7,1267.2c-.2-17.8,42.2-24.5,57.7-32.2,11.9-6,17.6,8.3,4.2,19-17.2,13.7-22.9,30-40.7,33.3s-21-4.1-21.2-20.1Z"/>
            <path class="cls-2" d="M864.2,1230.3c-15.4,11.5-54.6,4.6-55.2,34.3"/>
            <path class="cls-2" d="M799.6,1264.6c-1,26.7,8.6,46,37.5,39.5"/>
            <path class="cls-2" d="M880.4,1254s-11.5,9-26.8,25.4c-12.3,13.2-32.4,17.1-41.2,5.6"/>
          </g>
          <g>
            <path class="cls-13" d="M888.3,1214.3c-6.9,2.3-8.8,3.4-4.7,20.5,4.1,17.1,5.8,14.7,5.1,21.2s19,14.7,26,6.4c9.1-10.7,3.9-35.1,8.9-42,3.6-4.9-4.3-10.3-13.8-5.4s-11.8-3.8-21.6-.7Z"/>
            <path class="cls-2" d="M912.7,1213.8c-4.6,13.6-2.5,31.8-8.2,35.3-3.3,2-5.5-2-5.5-9.6"/>
            <path class="cls-2" d="M900.9,1215.9c-6.2,12.3-16.1,46.6,5.6,49.9"/>
          </g>
        </g>
        <path class="cls-33" d="M1043.3,1194.3c-8.3-39.3-11.2-52.3-36-44.8-31,9.4-73,10-107.3,10h0c-34.3,0-76.2-.6-107.3-10-24.8-7.5-27.7,5.5-36,44.8-7.8,36.7-16.4,24.2-10.8,38.1,8.2,20.2,49-55.8,84-38.4s37.4,31.7,70.1,31.7,35.1-14.3,70.1-31.7,75.8,58.6,84,38.4c5.6-13.8-3-1.3-10.8-38.1Z"/>
        <path class="cls-12" d="M745.9,1224.4c8.2,20.2,49-61.8,84-44.4,35,17.4,37.4,37.7,70.1,37.7,32.7,0,35.1-20.3,70.1-37.7,35-17.4,75.8,64.6,84,44.4"/>
        <path class="cls-23" d="M1082.6,1284.8c-3.2,0-6.4-1.6-8.3-4.5-3-4.6-1.8-10.8,2.8-13.9,16.3-10.8,40.8-14.2,56.9-7.9,5.1,2,7.7,7.8,5.7,12.9-2,5.1-7.8,7.7-12.9,5.7-10.1-3.9-27.8-1.2-38.6,6-1.7,1.1-3.6,1.7-5.5,1.7Z"/>
        <path class="cls-23" d="M717.3,1284.8c3.2,0,6.4-1.6,8.3-4.5,3-4.6,1.8-10.8-2.8-13.9-16.3-10.8-40.8-14.2-56.9-7.9-5.1,2-7.7,7.8-5.7,12.9,2,5.1,7.8,7.7,12.9,5.7,10.1-3.9,27.8-1.2,38.6,6,1.7,1.1,3.6,1.7,5.5,1.7Z"/>
        <path class="cls-23" d="M1008.1,1837.1c-17.7,0-39.8-3.2-50.8-15-4.9-5.2-4.6-13.5.6-18.4s13.5-4.6,18.4.6c2.3,2.5,12.6,6.5,30.4,6.8,16.6.2,27.6-3.1,30.3-5.1,3.8-5.7,11.3-7.5,17.3-4.1,6.2,3.6,8.4,11.5,4.8,17.8-5.1,8.8-17.1,14.4-35.7,16.6-4.3.5-9.6.8-15.3.8Z"/>
        <path class="cls-23" d="M791.9,1837.1c17.7,0,39.8-3.2,50.8-15,4.9-5.2,4.6-13.5-.6-18.4-5.2-4.9-13.5-4.6-18.4.6-2.3,2.5-12.6,6.5-30.4,6.8-16.6.2-27.6-3.1-30.3-5.1-3.8-5.7-11.3-7.5-17.3-4.1-6.2,3.6-8.4,11.5-4.8,17.8,5.1,8.8,17.1,14.4,35.7,16.6,4.3.5,9.6.8,15.3.8Z"/>
      </g>
      <g>
        <g>
          <path class="cls-30" d="M1174.2,1866.5c5.3,9.2,9.6,11.9,15.4,21.9,5.8,10.1-1.5,20.4,2.2,43.4,2.9,18.1-4.9,48.2,0,53.9,4.9,5.6,11.8-1.2,13.4-6.4,2.6-8.6-.8-25.3,4.6-28.5,5.4-3.1,9.9,3.5,12.9,11.8,3,8.2,19.4,30.3,22,34.5,2.6,4.2,15.3,16,18.1,14.3,2.9-1.7,3-5.1,3-5.1,0,0,5.1,7.4,10.4,4.4,5.3-3.1.3-11,.3-11,0,0,2.1,1.7,5.3-.1,3.2-1.8,1-9.4-2.1-14.7,0,0,2.7,2.7,5,1.3,2.3-1.3,3.4-5.9.2-11.6-3.3-5.7-5-15.8-8.6-22.1-3.6-6.3-10.7-17.4-12.6-23.9-2-6.5-1.8-10.5-5.5-14.6-3.7-4.1-17.1-26-25.5-35.8-8.4-9.8-16.8-26-21-33.3,0,0-8.7.2-22,7.8-13.3,7.7-15.4,13.8-15.4,13.8Z"/>
          <path class="cls-12" d="M1265.9,2006.3s-6.3-15.6-12.5-22.6c-6.2-7-14.1-22.7-15.3-29.2"/>
          <path class="cls-12" d="M1276.6,1999.7s-4.6-12.5-7.3-15.4c-2.7-2.9-7.6-18.1-12.2-23.8-4.6-5.7-7.2-15-7.2-15"/>
          <path class="cls-12" d="M1279.8,1984.8c-2.5-5.2-4.7-16.9-9.9-24.5-5.1-7.6-7.3-17.9-10.9-24.2"/>
        </g>
        <g>
          <path class="cls-30" d="M1404.7,1897c-7.2-11.3-17.6-26.7-37.8-47.3-6.3-6.4-12.7-13.5-12.7-13.5,0,0-6.7-1.7-18.4,5.6-11.7,7.3-14.4,18.3-14.4,18.3,0,0,7.2,10.6,5.9,15.9-2,7.9-7.4,25.7.8,38.9,8.2,13.2,11.4,23.4,15.7,27.3,6.4,5.8,10.6,13.5,16.4,9.9,2.4-1.5,3.3-4.1,3.3-4.1,0,0,4.6,4.7,9.5,1.6,4.9-3.1,6.8-7.1,6.8-7.1,0,0,3.5,1.1,9.1-2.4,5.5-3.5,5.7-11,5.7-11,0,0,3.1-1,6.6-3.2,3.5-2.2,2.6-8.5,2.6-8.5,0,0,11.3-6.5,1.1-20.6Z"/>
          <path class="cls-9" d="M1363.4,1948.1c-7.1-6.2-6.9-17-20.6-32.8"/>
          <path class="cls-9" d="M1379.7,1942.7c-.7-9.2-5.2-13.9-5.9-20.3"/>
          <path class="cls-9" d="M1394.4,1929.3c0-3.9-4.4-6.4-5.7-16.8"/>
          <path class="cls-9" d="M1403.6,1917.6c-2.7-4.3-1.9-9.2-5-14.3"/>
        </g>
        <g>
          <path class="cls-30" d="M625.8,1866.5c-5.3,9.2-9.6,11.9-15.4,21.9s1.5,20.4-2.2,43.4c-2.9,18.1,4.9,48.2,0,53.9-4.9,5.6-11.8-1.2-13.4-6.4-2.6-8.6.8-25.3-4.6-28.5-5.4-3.1-9.9,3.5-12.9,11.8-3,8.2-19.4,30.3-22,34.5-2.6,4.2-15.3,16-18.1,14.3-2.9-1.7-3-5.1-3-5.1,0,0-5.1,7.4-10.4,4.4-5.3-3.1-.3-11-.3-11,0,0-2.1,1.7-5.3-.1-3.2-1.8-1-9.4,2.1-14.7,0,0-2.7,2.7-5,1.3-2.3-1.3-3.4-5.9-.2-11.6,3.3-5.7,5-15.8,8.6-22.1,3.6-6.3,10.7-17.4,12.6-23.9,2-6.5,1.8-10.5,5.5-14.6,3.7-4.1,17.1-26,25.5-35.8,8.4-9.8,16.8-26,21-33.3,0,0,8.7.2,22,7.8,13.3,7.7,15.4,13.8,15.4,13.8Z"/>
          <path class="cls-12" d="M534.1,2006.3s6.3-15.6,12.5-22.6c6.2-7,14.1-22.7,15.3-29.2"/>
          <path class="cls-12" d="M523.4,1999.7s4.6-12.5,7.3-15.4c2.7-2.9,7.6-18.1,12.2-23.8,4.6-5.7,7.2-15,7.2-15"/>
          <path class="cls-12" d="M520.2,1984.8c2.5-5.2,4.7-16.9,9.9-24.5,5.1-7.6,7.3-17.9,10.9-24.2"/>
        </g>
        <g>
          <path class="cls-30" d="M395.3,1897c7.2-11.3,17.6-26.7,37.8-47.3,6.3-6.4,12.7-13.5,12.7-13.5,0,0,6.7-1.7,18.4,5.6,11.7,7.3,14.4,18.3,14.4,18.3,0,0-7.2,10.6-5.9,15.9,2,7.9,7.4,25.7-.8,38.9-8.2,13.2-11.4,23.4-15.7,27.3-6.4,5.8-10.6,13.5-16.4,9.9s-3.3-4.1-3.3-4.1c0,0-4.6,4.7-9.5,1.6-4.9-3.1-6.8-7.1-6.8-7.1,0,0-3.5,1.1-9.1-2.4-5.5-3.5-5.7-11-5.7-11,0,0-3.1-1-6.6-3.2-3.5-2.2-2.6-8.5-2.6-8.5,0,0-11.3-6.5-1.1-20.6Z"/>
          <path class="cls-9" d="M436.6,1948.1c7.1-6.2,6.9-17,20.6-32.8"/>
          <path class="cls-9" d="M420.3,1942.7c.7-9.2,5.2-13.9,5.9-20.3"/>
          <path class="cls-9" d="M405.6,1929.3c0-3.9,4.4-6.4,5.7-16.8"/>
          <path class="cls-9" d="M396.4,1917.6c2.7-4.3,1.9-9.2,5-14.3"/>
        </g>
      </g>
      <g>
        <circle class="cls-16" cx="554.8" cy="1487.2" r="9.4"/>
        <path class="cls-16" d="M536.2,1564.3s6.5-4.2,18.6-4.2,18.6,4.2,18.6,4.2"/>
        <path class="cls-16" d="M570.3,1500.2c0,2.4-6.9,2.6-15.5,2.6s-15.5-.2-15.5-2.6,3.3-6.3,15.5-6.3,15.5,3.8,15.5,6.3Z"/>
        <path class="cls-16" d="M554.8,1498.3c-18.5,0-33.5,11.3-33.5,29.4s15,42.4,33.5,42.4,33.5-24.3,33.5-42.4-15-29.4-33.5-29.4ZM526.8,1532c0-17.7,12.5-24.5,12.5-24.5,0,0-13.4,30.5,3.3,50.6,0,0-15.8-8.6-15.8-26.1ZM540.4,1532c0-19,10-28,10-28,0,0-7.3,43.3.3,53.9,0,0-10.3-6.9-10.3-25.9ZM558.9,1557.9c7.6-10.5.3-53.9.3-53.9,0,0,10,9,10,28s-10.3,25.9-10.3,25.9ZM566.9,1558.1c16.8-20.1,3.3-50.6,3.3-50.6,0,0,12.6,6.7,12.5,24.5,0,17.5-15.8,26.1-15.8,26.1Z"/>
        <path class="cls-16" d="M576.8,1564.3c0,6.6-11.2,17.9-22,17.9s-22-11.2-22-17.9,7.8-9.1,22-9.1,22,2.4,22,9.1Z"/>
        <path class="cls-16" d="M565.1,1583c0,1.6-1.6,1.9-10.3,1.9s-10.3-.4-10.3-1.9,1.2-3.7,10.3-3.7,10.3,2.1,10.3,3.7Z"/>
        <path class="cls-16" d="M567.2,1589.2c0,2.4-5.6,2.5-12.4,2.5s-12.4-.2-12.4-2.5,1.3-6.1,12.4-6.1,12.4,3.7,12.4,6.1Z"/>
        <circle class="cls-16" cx="554.8" cy="1714" r="9.4"/>
        <path class="cls-16" d="M536.2,1636.9s6.5,4.2,18.6,4.2,18.6-4.2,18.6-4.2"/>
        <path class="cls-16" d="M570.3,1701c0-2.4-6.9-2.6-15.5-2.6s-15.5.2-15.5,2.6,3.3,6.3,15.5,6.3,15.5-3.8,15.5-6.3Z"/>
        <path class="cls-16" d="M554.8,1631.2c-18.5,0-33.5,24.3-33.5,42.4s15,29.4,33.5,29.4,33.5-11.3,33.5-29.4-15-42.4-33.5-42.4ZM526.8,1669.2c0-17.5,15.8-26.1,15.8-26.1-16.8,20.1-3.3,50.6-3.3,50.6,0,0-12.6-6.7-12.5-24.5ZM550.4,1697.2s-10-9-10-28,10.3-25.9,10.3-25.9c-7.6,10.5-.3,53.9-.3,53.9ZM559.2,1697.2s7.3-43.3-.3-53.9c0,0,10.3,6.9,10.3,25.9s-10,28-10,28ZM570.2,1693.7s13.4-30.5-3.3-50.6c0,0,15.8,8.6,15.8,26.1,0,17.7-12.5,24.5-12.5,24.5Z"/>
        <path class="cls-16" d="M576.8,1636.9c0-6.6-11.2-17.9-22-17.9s-22,11.2-22,17.9,7.8,9.1,22,9.1,22-2.4,22-9.1Z"/>
        <path class="cls-16" d="M565.1,1618.3c0-1.6-1.6-1.9-10.3-1.9s-10.3.4-10.3,1.9,1.2,3.7,10.3,3.7,10.3-2.1,10.3-3.7Z"/>
        <path class="cls-16" d="M567.2,1612c0-2.4-5.6-2.5-12.4-2.5s-12.4.2-12.4,2.5,1.3,6.1,12.4,6.1,12.4-3.7,12.4-6.1Z"/>
        <path class="cls-16" d="M554.8,1589.4c-9.5,0-17.2,2.9-17.2,11.2s7.7,11.2,17.2,11.2,17.2-2.9,17.2-11.2-7.7-11.2-17.2-11.2Z"/>
      </g>
      <g>
        <circle class="cls-16" cx="1245.2" cy="1487.2" r="9.4"/>
        <path class="cls-16" d="M1226.7,1564.3s6.5-4.2,18.6-4.2,18.6,4.2,18.6,4.2"/>
        <path class="cls-16" d="M1260.7,1500.2c0,2.4-6.9,2.6-15.5,2.6s-15.5-.2-15.5-2.6,3.3-6.3,15.5-6.3,15.5,3.8,15.5,6.3Z"/>
        <path class="cls-16" d="M1245.2,1498.3c-18.5,0-33.5,11.3-33.5,29.4s15,42.4,33.5,42.4,33.5-24.3,33.5-42.4-15-29.4-33.5-29.4ZM1217.3,1532c0-17.7,12.5-24.5,12.5-24.5,0,0-13.4,30.5,3.3,50.6,0,0-15.8-8.6-15.8-26.1ZM1230.8,1532c0-19,10-28,10-28,0,0-7.3,43.3.3,53.9,0,0-10.3-6.9-10.3-25.9ZM1249.3,1557.9c7.6-10.5.3-53.9.3-53.9,0,0,10,9,10,28s-10.3,25.9-10.3,25.9ZM1257.3,1558.1c16.8-20.1,3.3-50.6,3.3-50.6,0,0,12.6,6.7,12.5,24.5,0,17.5-15.8,26.1-15.8,26.1Z"/>
        <path class="cls-16" d="M1267.2,1564.3c0,6.6-11.2,17.9-22,17.9s-22-11.2-22-17.9,7.8-9.1,22-9.1,22,2.4,22,9.1Z"/>
        <path class="cls-16" d="M1255.5,1583c0,1.6-1.6,1.9-10.3,1.9s-10.3-.4-10.3-1.9,1.2-3.7,10.3-3.7,10.3,2.1,10.3,3.7Z"/>
        <path class="cls-16" d="M1257.6,1589.2c0,2.4-5.6,2.5-12.4,2.5s-12.4-.2-12.4-2.5,1.3-6.1,12.4-6.1,12.4,3.7,12.4,6.1Z"/>
        <circle class="cls-16" cx="1245.2" cy="1714" r="9.4"/>
        <path class="cls-16" d="M1226.7,1636.9s6.5,4.2,18.6,4.2,18.6-4.2,18.6-4.2"/>
        <path class="cls-16" d="M1260.7,1701c0-2.4-6.9-2.6-15.5-2.6s-15.5.2-15.5,2.6,3.3,6.3,15.5,6.3,15.5-3.8,15.5-6.3Z"/>
        <path class="cls-16" d="M1245.2,1631.2c-18.5,0-33.5,24.3-33.5,42.4s15,29.4,33.5,29.4,33.5-11.3,33.5-29.4-15-42.4-33.5-42.4ZM1217.3,1669.2c0-17.5,15.8-26.1,15.8-26.1-16.8,20.1-3.3,50.6-3.3,50.6,0,0-12.6-6.7-12.5-24.5ZM1240.8,1697.2s-10-9-10-28,10.3-25.9,10.3-25.9c-7.6,10.5-.3,53.9-.3,53.9ZM1249.6,1697.2s7.3-43.3-.3-53.9c0,0,10.3,6.9,10.3,25.9s-10,28-10,28ZM1260.7,1693.7s13.4-30.5-3.3-50.6c0,0,15.8,8.6,15.8,26.1,0,17.7-12.5,24.5-12.5,24.5Z"/>
        <path class="cls-16" d="M1267.2,1636.9c0-6.6-11.2-17.9-22-17.9s-22,11.2-22,17.9,7.8,9.1,22,9.1,22-2.4,22-9.1Z"/>
        <path class="cls-16" d="M1255.5,1618.3c0-1.6-1.6-1.9-10.3-1.9s-10.3.4-10.3,1.9,1.2,3.7,10.3,3.7,10.3-2.1,10.3-3.7Z"/>
        <path class="cls-16" d="M1257.6,1612c0-2.4-5.6-2.5-12.4-2.5s-12.4.2-12.4,2.5,1.3,6.1,12.4,6.1,12.4-3.7,12.4-6.1Z"/>
        <path class="cls-16" d="M1245.2,1589.4c-9.5,0-17.2,2.9-17.2,11.2s7.7,11.2,17.2,11.2,17.2-2.9,17.2-11.2-7.7-11.2-17.2-11.2Z"/>
      </g>
    </g>
  </g>
</svg>