<?xml version="1.0" encoding="UTF-8"?>
<svg xmlns="http://www.w3.org/2000/svg" version="1.1" xmlns:xlink="http://www.w3.org/1999/xlink" viewBox="0 0 1800 2400">
  <defs>
    <style>
      .cls-1 {
        fill: #29b473;
      }

      .cls-1, .cls-2, .cls-3, .cls-4, .cls-5, .cls-6, .cls-7, .cls-8, .cls-9, .cls-10, .cls-11, .cls-12, .cls-13, .cls-14, .cls-15, .cls-16, .cls-17, .cls-18, .cls-19, .cls-20, .cls-21, .cls-22, .cls-23, .cls-24, .cls-25, .cls-26, .cls-27, .cls-28, .cls-29, .cls-30, .cls-31, .cls-32, .cls-33, .cls-34, .cls-35, .cls-36, .cls-37 {
        stroke: #231f20;
      }

      .cls-1, .cls-2, .cls-3, .cls-5, .cls-9, .cls-12, .cls-13, .cls-15, .cls-16, .cls-17, .cls-38, .cls-19, .cls-39, .cls-21, .cls-23, .cls-25, .cls-27, .cls-40, .cls-41, .cls-30, .cls-42, .cls-32, .cls-34, .cls-36, .cls-37 {
        stroke-miterlimit: 10;
      }

      .cls-1, .cls-3, .cls-4, .cls-13, .cls-15, .cls-16, .cls-24, .cls-29, .cls-31, .cls-32, .cls-33, .cls-35 {
        stroke-width: 5px;
      }

      .cls-2, .cls-8, .cls-14, .cls-17, .cls-20, .cls-30, .cls-37 {
        stroke-width: 7px;
      }

      .cls-2, .cls-26, .cls-28, .cls-31 {
        fill: #a13c29;
      }

      .cls-43, .cls-4, .cls-6, .cls-7, .cls-8, .cls-10, .cls-11, .cls-14, .cls-44, .cls-18, .cls-20, .cls-45, .cls-22, .cls-24, .cls-26, .cls-28, .cls-46, .cls-29, .cls-31, .cls-33, .cls-35, .cls-47 {
        stroke-linejoin: round;
      }

      .cls-43, .cls-6, .cls-7, .cls-11, .cls-19, .cls-21, .cls-27, .cls-28, .cls-29, .cls-31, .cls-33, .cls-37 {
        stroke-linecap: round;
      }

      .cls-43, .cls-6, .cls-11, .cls-12, .cls-48, .cls-44, .cls-38, .cls-19, .cls-20, .cls-39, .cls-21, .cls-45, .cls-25, .cls-27, .cls-40, .cls-41, .cls-42, .cls-32, .cls-33, .cls-47 {
        fill: none;
      }

      .cls-43, .cls-44, .cls-38, .cls-45, .cls-47 {
        stroke: #be1e2d;
      }

      .cls-43, .cls-23, .cls-27, .cls-47 {
        stroke-width: 2px;
      }

      .cls-3, .cls-34, .cls-35 {
        fill: #fff;
      }

      .cls-4, .cls-5, .cls-9, .cls-10, .cls-14, .cls-18, .cls-23 {
        fill: #ffdd15;
      }

      .cls-5, .cls-10, .cls-12, .cls-26, .cls-34 {
        stroke-width: 6px;
      }

      .cls-6, .cls-39, .cls-25, .cls-28 {
        stroke-width: 4px;
      }

      .cls-7 {
        fill: #8a5d3b;
      }

      .cls-7, .cls-9, .cls-11, .cls-38, .cls-18, .cls-19, .cls-45, .cls-22, .cls-40, .cls-42, .cls-36 {
        stroke-width: 3px;
      }

      .cls-8, .cls-16, .cls-24, .cls-36 {
        fill: #2b388f;
      }

      .cls-13, .cls-17 {
        fill: #404041;
      }

      .cls-15 {
        fill: #ffce34;
      }

      .cls-49 {
        clip-path: url(#clippath-1);
      }

      .cls-50 {
        fill: #231f20;
      }

      .cls-39, .cls-40 {
        stroke: #29b473;
      }

      .cls-22 {
        fill: #f1f1f2;
      }

      .cls-46 {
        fill: #be1e2d;
        stroke: #fff;
      }

      .cls-29, .cls-30, .cls-37 {
        fill: #262261;
      }

      .cls-41 {
        stroke: #716558;
        stroke-width: .5px;
      }

      .cls-42 {
        stroke: #2b388f;
      }

      .cls-51 {
        clip-path: url(#clippath);
      }
    </style>
    <clipPath id="clippath">
      <path class="cls-48" d="M785.1,1157.5s93.8,331.1,241.9,290.8c7.5-2,12.8-8.8,13-16.6.8-38,7.3-180.8-25.1-274.2,0,0-103.9,27.2-229.7,0Z"/>
    </clipPath>
    <clipPath id="clippath-1">
      <path class="cls-48" d="M1099.9,1858.2l22.5-3.2c-10.5-47.1-20-209.6-29.9-292.8l-19.3-10.2-12.7,14.3c3.8,27,8.2,60.7,14.2,102.4,9.6,66.9,25.2,189.5,25.2,189.5Z"/>
    </clipPath>
  </defs>
  <!-- Generator: Adobe Illustrator 28.7.4, SVG Export Plug-In . SVG Version: 1.2.0 Build 166)  -->
  <g>
    <g id="Layer_1">
      <g>
        <rect class="cls-15" width="1800" height="2400"/>
        <g>
          <g>
            <line class="cls-32" x1="130" x2="130" y2="130"/>
            <line class="cls-32" x1="284" x2="284" y2="130"/>
            <line class="cls-32" x1="438" x2="438" y2="130"/>
            <line class="cls-32" x1="592" x2="592" y2="130"/>
            <line class="cls-32" x1="746" x2="746" y2="130"/>
            <line class="cls-32" x1="900" x2="900" y2="130"/>
            <line class="cls-32" x1="1054" x2="1054" y2="130"/>
            <line class="cls-32" x1="1208" x2="1208" y2="130"/>
            <line class="cls-32" x1="1362" x2="1362" y2="130"/>
            <line class="cls-32" x1="1516" x2="1516" y2="130"/>
            <line class="cls-32" x1="1670" x2="1670" y2="130"/>
          </g>
          <g>
            <line class="cls-25" x1="130" x2="130" y2="72.1"/>
            <line class="cls-25" x1="160.8" x2="160.8" y2="72.1"/>
            <line class="cls-25" x1="191.6" x2="191.6" y2="72.1"/>
            <line class="cls-25" x1="222.4" x2="222.4" y2="72.1"/>
            <line class="cls-25" x1="253.2" x2="253.2" y2="72.1"/>
            <line class="cls-25" x1="284" x2="284" y2="72.1"/>
            <line class="cls-25" x1="314.8" x2="314.8" y2="72.1"/>
            <line class="cls-25" x1="345.6" x2="345.6" y2="72.1"/>
            <line class="cls-25" x1="376.4" x2="376.4" y2="72.1"/>
            <line class="cls-25" x1="407.2" x2="407.2" y2="72.1"/>
            <line class="cls-25" x1="438" x2="438" y2="72.1"/>
            <line class="cls-25" x1="468.8" x2="468.8" y2="72.1"/>
            <line class="cls-25" x1="499.6" x2="499.6" y2="72.1"/>
            <line class="cls-25" x1="530.4" x2="530.4" y2="72.1"/>
            <line class="cls-25" x1="561.2" x2="561.2" y2="72.1"/>
            <line class="cls-25" x1="592" x2="592" y2="72.1"/>
            <line class="cls-25" x1="622.8" x2="622.8" y2="72.1"/>
            <line class="cls-25" x1="653.6" x2="653.6" y2="72.1"/>
            <line class="cls-25" x1="684.4" x2="684.4" y2="72.1"/>
            <line class="cls-25" x1="715.2" x2="715.2" y2="72.1"/>
            <line class="cls-25" x1="746" x2="746" y2="72.1"/>
            <line class="cls-25" x1="776.8" x2="776.8" y2="72.1"/>
            <line class="cls-25" x1="807.6" x2="807.6" y2="72.1"/>
            <line class="cls-25" x1="838.4" x2="838.4" y2="72.1"/>
            <line class="cls-25" x1="869.2" x2="869.2" y2="72.1"/>
            <line class="cls-25" x1="900" x2="900" y2="72.1"/>
            <line class="cls-25" x1="930.8" x2="930.8" y2="72.1"/>
            <line class="cls-25" x1="961.6" x2="961.6" y2="72.1"/>
            <line class="cls-25" x1="992.4" x2="992.4" y2="72.1"/>
            <line class="cls-25" x1="1023.2" x2="1023.2" y2="72.1"/>
            <line class="cls-25" x1="1054" x2="1054" y2="72.1"/>
            <line class="cls-25" x1="1084.8" x2="1084.8" y2="72.1"/>
            <line class="cls-25" x1="1115.6" x2="1115.6" y2="72.1"/>
            <line class="cls-25" x1="1146.4" x2="1146.4" y2="72.1"/>
            <line class="cls-25" x1="1177.2" x2="1177.2" y2="72.1"/>
            <line class="cls-25" x1="1208" x2="1208" y2="72.1"/>
            <line class="cls-25" x1="1238.8" x2="1238.8" y2="72.1"/>
            <line class="cls-25" x1="1269.6" x2="1269.6" y2="72.1"/>
            <line class="cls-25" x1="1300.4" x2="1300.4" y2="72.1"/>
            <line class="cls-25" x1="1331.2" x2="1331.2" y2="72.1"/>
            <line class="cls-25" x1="1362" x2="1362" y2="72.1"/>
            <line class="cls-25" x1="1392.8" x2="1392.8" y2="72.1"/>
            <line class="cls-25" x1="1423.6" x2="1423.6" y2="72.1"/>
            <line class="cls-25" x1="1454.4" x2="1454.4" y2="72.1"/>
            <line class="cls-25" x1="1485.2" x2="1485.2" y2="72.1"/>
            <line class="cls-25" x1="1516" x2="1516" y2="72.1"/>
            <line class="cls-25" x1="1546.8" x2="1546.8" y2="72.1"/>
            <line class="cls-25" x1="1577.6" x2="1577.6" y2="72.1"/>
            <line class="cls-25" x1="1608.4" x2="1608.4" y2="72.1"/>
            <line class="cls-25" x1="1639.2" x2="1639.2" y2="72.1"/>
            <line class="cls-25" x1="1670" x2="1670" y2="72.1"/>
          </g>
        </g>
        <g>
          <g>
            <line class="cls-25" x1="130" y1="2327.9" x2="130" y2="2400"/>
            <line class="cls-25" x1="160.8" y1="2327.9" x2="160.8" y2="2400"/>
            <line class="cls-25" x1="191.6" y1="2327.9" x2="191.6" y2="2400"/>
            <line class="cls-25" x1="222.4" y1="2327.9" x2="222.4" y2="2400"/>
            <line class="cls-25" x1="253.2" y1="2327.9" x2="253.2" y2="2400"/>
            <line class="cls-25" x1="284" y1="2327.9" x2="284" y2="2400"/>
            <line class="cls-25" x1="314.8" y1="2327.9" x2="314.8" y2="2400"/>
            <line class="cls-25" x1="345.6" y1="2327.9" x2="345.6" y2="2400"/>
            <line class="cls-25" x1="376.4" y1="2327.9" x2="376.4" y2="2400"/>
            <line class="cls-25" x1="407.2" y1="2327.9" x2="407.2" y2="2400"/>
            <line class="cls-25" x1="438" y1="2327.9" x2="438" y2="2400"/>
            <line class="cls-25" x1="468.8" y1="2327.9" x2="468.8" y2="2400"/>
            <line class="cls-25" x1="499.6" y1="2327.9" x2="499.6" y2="2400"/>
            <line class="cls-25" x1="530.4" y1="2327.9" x2="530.4" y2="2400"/>
            <line class="cls-25" x1="561.2" y1="2327.9" x2="561.2" y2="2400"/>
            <line class="cls-25" x1="592" y1="2327.9" x2="592" y2="2400"/>
            <line class="cls-25" x1="622.8" y1="2327.9" x2="622.8" y2="2400"/>
            <line class="cls-25" x1="653.6" y1="2327.9" x2="653.6" y2="2400"/>
            <line class="cls-25" x1="684.4" y1="2327.9" x2="684.4" y2="2400"/>
            <line class="cls-25" x1="715.2" y1="2327.9" x2="715.2" y2="2400"/>
            <line class="cls-25" x1="746" y1="2327.9" x2="746" y2="2400"/>
            <line class="cls-25" x1="776.8" y1="2327.9" x2="776.8" y2="2400"/>
            <line class="cls-25" x1="807.6" y1="2327.9" x2="807.6" y2="2400"/>
            <line class="cls-25" x1="838.4" y1="2327.9" x2="838.4" y2="2400"/>
            <line class="cls-25" x1="869.2" y1="2327.9" x2="869.2" y2="2400"/>
            <line class="cls-25" x1="900" y1="2327.9" x2="900" y2="2400"/>
            <line class="cls-25" x1="930.8" y1="2327.9" x2="930.8" y2="2400"/>
            <line class="cls-25" x1="961.6" y1="2327.9" x2="961.6" y2="2400"/>
            <line class="cls-25" x1="992.4" y1="2327.9" x2="992.4" y2="2400"/>
            <line class="cls-25" x1="1023.2" y1="2327.9" x2="1023.2" y2="2400"/>
            <line class="cls-25" x1="1054" y1="2327.9" x2="1054" y2="2400"/>
            <line class="cls-25" x1="1084.8" y1="2327.9" x2="1084.8" y2="2400"/>
            <line class="cls-25" x1="1115.6" y1="2327.9" x2="1115.6" y2="2400"/>
            <line class="cls-25" x1="1146.4" y1="2327.9" x2="1146.4" y2="2400"/>
            <line class="cls-25" x1="1177.2" y1="2327.9" x2="1177.2" y2="2400"/>
            <line class="cls-25" x1="1208" y1="2327.9" x2="1208" y2="2400"/>
            <line class="cls-25" x1="1238.8" y1="2327.9" x2="1238.8" y2="2400"/>
            <line class="cls-25" x1="1269.6" y1="2327.9" x2="1269.6" y2="2400"/>
            <line class="cls-25" x1="1300.4" y1="2327.9" x2="1300.4" y2="2400"/>
            <line class="cls-25" x1="1331.2" y1="2327.9" x2="1331.2" y2="2400"/>
            <line class="cls-25" x1="1362" y1="2327.9" x2="1362" y2="2400"/>
            <line class="cls-25" x1="1392.8" y1="2327.9" x2="1392.8" y2="2400"/>
            <line class="cls-25" x1="1423.6" y1="2327.9" x2="1423.6" y2="2400"/>
            <line class="cls-25" x1="1454.4" y1="2327.9" x2="1454.4" y2="2400"/>
            <line class="cls-25" x1="1485.2" y1="2327.9" x2="1485.2" y2="2400"/>
            <line class="cls-25" x1="1516" y1="2327.9" x2="1516" y2="2400"/>
            <line class="cls-25" x1="1546.8" y1="2327.9" x2="1546.8" y2="2400"/>
            <line class="cls-25" x1="1577.6" y1="2327.9" x2="1577.6" y2="2400"/>
            <line class="cls-25" x1="1608.4" y1="2327.9" x2="1608.4" y2="2400"/>
            <line class="cls-25" x1="1639.2" y1="2327.9" x2="1639.2" y2="2400"/>
            <line class="cls-25" x1="1670" y1="2327.9" x2="1670" y2="2400"/>
          </g>
          <g>
            <line class="cls-32" x1="130" y1="2270" x2="130" y2="2400"/>
            <line class="cls-32" x1="284" y1="2270" x2="284" y2="2400"/>
            <line class="cls-32" x1="438" y1="2270" x2="438" y2="2400"/>
            <line class="cls-32" x1="592" y1="2270" x2="592" y2="2400"/>
            <line class="cls-32" x1="746" y1="2270" x2="746" y2="2400"/>
            <line class="cls-32" x1="900" y1="2270" x2="900" y2="2400"/>
            <line class="cls-32" x1="1054" y1="2270" x2="1054" y2="2400"/>
            <line class="cls-32" x1="1208" y1="2270" x2="1208" y2="2400"/>
            <line class="cls-32" x1="1362" y1="2270" x2="1362" y2="2400"/>
            <line class="cls-32" x1="1516" y1="2270" x2="1516" y2="2400"/>
            <line class="cls-32" x1="1670" y1="2270" x2="1670" y2="2400"/>
          </g>
        </g>
        <g>
          <g>
            <line class="cls-32" x1="1670" y1="130" x2="1800" y2="130"/>
            <line class="cls-32" x1="1670" y1="272.7" x2="1800" y2="272.7"/>
            <line class="cls-32" x1="1670" y1="415.3" x2="1800" y2="415.3"/>
            <line class="cls-32" x1="1670" y1="558" x2="1800" y2="558"/>
            <line class="cls-32" x1="1670" y1="700.7" x2="1800" y2="700.7"/>
            <line class="cls-32" x1="1670" y1="843.3" x2="1800" y2="843.3"/>
            <line class="cls-32" x1="1670" y1="986" x2="1800" y2="986"/>
            <line class="cls-32" x1="1670" y1="1128.7" x2="1800" y2="1128.7"/>
            <line class="cls-32" x1="1670" y1="1271.3" x2="1800" y2="1271.3"/>
            <line class="cls-32" x1="1670" y1="1414" x2="1800" y2="1414"/>
            <line class="cls-32" x1="1670" y1="1556.7" x2="1800" y2="1556.7"/>
            <line class="cls-32" x1="1670" y1="1699.3" x2="1800" y2="1699.3"/>
            <line class="cls-32" x1="1670" y1="1842" x2="1800" y2="1842"/>
            <line class="cls-32" x1="1670" y1="1984.7" x2="1800" y2="1984.7"/>
            <line class="cls-32" x1="1670" y1="2127.3" x2="1800" y2="2127.3"/>
            <line class="cls-32" x1="1670" y1="2270" x2="1800" y2="2270"/>
          </g>
          <g>
            <line class="cls-25" x1="1735" y1="130" x2="1800" y2="130"/>
            <line class="cls-25" x1="1735" y1="158.5" x2="1800" y2="158.5"/>
            <line class="cls-25" x1="1735" y1="187.1" x2="1800" y2="187.1"/>
            <line class="cls-25" x1="1735" y1="215.6" x2="1800" y2="215.6"/>
            <line class="cls-25" x1="1735" y1="244.1" x2="1800" y2="244.1"/>
            <line class="cls-25" x1="1735" y1="272.7" x2="1800" y2="272.7"/>
            <line class="cls-25" x1="1735" y1="301.2" x2="1800" y2="301.2"/>
            <line class="cls-25" x1="1735" y1="329.7" x2="1800" y2="329.7"/>
            <line class="cls-25" x1="1735" y1="358.3" x2="1800" y2="358.3"/>
            <line class="cls-25" x1="1735" y1="386.8" x2="1800" y2="386.8"/>
            <line class="cls-25" x1="1735" y1="415.3" x2="1800" y2="415.3"/>
            <line class="cls-25" x1="1735" y1="443.9" x2="1800" y2="443.9"/>
            <line class="cls-25" x1="1735" y1="472.4" x2="1800" y2="472.4"/>
            <line class="cls-25" x1="1735" y1="500.9" x2="1800" y2="500.9"/>
            <line class="cls-25" x1="1735" y1="529.5" x2="1800" y2="529.5"/>
            <line class="cls-25" x1="1735" y1="558" x2="1800" y2="558"/>
            <line class="cls-25" x1="1735" y1="586.5" x2="1800" y2="586.5"/>
            <line class="cls-25" x1="1735" y1="615.1" x2="1800" y2="615.1"/>
            <line class="cls-25" x1="1735" y1="643.6" x2="1800" y2="643.6"/>
            <line class="cls-25" x1="1735" y1="672.1" x2="1800" y2="672.1"/>
            <line class="cls-25" x1="1735" y1="700.7" x2="1800" y2="700.7"/>
            <line class="cls-25" x1="1735" y1="729.2" x2="1800" y2="729.2"/>
            <line class="cls-25" x1="1735" y1="757.7" x2="1800" y2="757.7"/>
            <line class="cls-25" x1="1735" y1="786.3" x2="1800" y2="786.3"/>
            <line class="cls-25" x1="1735" y1="814.8" x2="1800" y2="814.8"/>
            <line class="cls-25" x1="1735" y1="843.3" x2="1800" y2="843.3"/>
            <line class="cls-25" x1="1735" y1="871.9" x2="1800" y2="871.9"/>
            <line class="cls-25" x1="1735" y1="900.4" x2="1800" y2="900.4"/>
            <line class="cls-25" x1="1735" y1="928.9" x2="1800" y2="928.9"/>
            <line class="cls-25" x1="1735" y1="957.5" x2="1800" y2="957.5"/>
            <line class="cls-25" x1="1735" y1="986" x2="1800" y2="986"/>
            <line class="cls-25" x1="1735" y1="1014.5" x2="1800" y2="1014.5"/>
            <line class="cls-25" x1="1735" y1="1043.1" x2="1800" y2="1043.1"/>
            <line class="cls-25" x1="1735" y1="1071.6" x2="1800" y2="1071.6"/>
            <line class="cls-25" x1="1735" y1="1100.1" x2="1800" y2="1100.1"/>
            <line class="cls-25" x1="1735" y1="1128.7" x2="1800" y2="1128.7"/>
            <line class="cls-25" x1="1735" y1="1157.2" x2="1800" y2="1157.2"/>
            <line class="cls-25" x1="1735" y1="1185.7" x2="1800" y2="1185.7"/>
            <line class="cls-25" x1="1735" y1="1214.3" x2="1800" y2="1214.3"/>
            <line class="cls-25" x1="1735" y1="1242.8" x2="1800" y2="1242.8"/>
            <line class="cls-25" x1="1735" y1="1271.3" x2="1800" y2="1271.3"/>
            <line class="cls-25" x1="1735" y1="1299.9" x2="1800" y2="1299.9"/>
            <line class="cls-25" x1="1735" y1="1328.4" x2="1800" y2="1328.4"/>
            <line class="cls-25" x1="1735" y1="1356.9" x2="1800" y2="1356.9"/>
            <line class="cls-25" x1="1735" y1="1385.5" x2="1800" y2="1385.5"/>
            <line class="cls-25" x1="1735" y1="1414" x2="1800" y2="1414"/>
            <line class="cls-25" x1="1735" y1="1442.5" x2="1800" y2="1442.5"/>
            <line class="cls-25" x1="1735" y1="1471.1" x2="1800" y2="1471.1"/>
            <line class="cls-25" x1="1735" y1="1499.6" x2="1800" y2="1499.6"/>
            <line class="cls-25" x1="1735" y1="1528.1" x2="1800" y2="1528.1"/>
            <line class="cls-25" x1="1735" y1="1556.7" x2="1800" y2="1556.7"/>
            <line class="cls-25" x1="1735" y1="1585.2" x2="1800" y2="1585.2"/>
            <line class="cls-25" x1="1735" y1="1613.7" x2="1800" y2="1613.7"/>
            <line class="cls-25" x1="1735" y1="1642.3" x2="1800" y2="1642.3"/>
            <line class="cls-25" x1="1735" y1="1670.8" x2="1800" y2="1670.8"/>
            <line class="cls-25" x1="1735" y1="1699.3" x2="1800" y2="1699.3"/>
            <line class="cls-25" x1="1735" y1="1727.9" x2="1800" y2="1727.9"/>
            <line class="cls-25" x1="1735" y1="1756.4" x2="1800" y2="1756.4"/>
            <line class="cls-25" x1="1735" y1="1784.9" x2="1800" y2="1784.9"/>
            <line class="cls-25" x1="1735" y1="1813.5" x2="1800" y2="1813.5"/>
            <line class="cls-25" x1="1735" y1="1842" x2="1800" y2="1842"/>
            <line class="cls-25" x1="1735" y1="1870.5" x2="1800" y2="1870.5"/>
            <line class="cls-25" x1="1735" y1="1899.1" x2="1800" y2="1899.1"/>
            <line class="cls-25" x1="1735" y1="1927.6" x2="1800" y2="1927.6"/>
            <line class="cls-25" x1="1735" y1="1956.1" x2="1800" y2="1956.1"/>
            <line class="cls-25" x1="1735" y1="1984.7" x2="1800" y2="1984.7"/>
            <line class="cls-25" x1="1735" y1="2013.2" x2="1800" y2="2013.2"/>
            <line class="cls-25" x1="1735" y1="2041.7" x2="1800" y2="2041.7"/>
            <line class="cls-25" x1="1735" y1="2070.3" x2="1800" y2="2070.3"/>
            <line class="cls-25" x1="1735" y1="2098.8" x2="1800" y2="2098.8"/>
            <line class="cls-25" x1="1735" y1="2127.3" x2="1800" y2="2127.3"/>
            <line class="cls-25" x1="1735" y1="2155.9" x2="1800" y2="2155.9"/>
            <line class="cls-25" x1="1735" y1="2184.4" x2="1800" y2="2184.4"/>
            <line class="cls-25" x1="1735" y1="2212.9" x2="1800" y2="2212.9"/>
            <line class="cls-25" x1="1735" y1="2241.5" x2="1800" y2="2241.5"/>
            <line class="cls-25" x1="1735" y1="2270" x2="1800" y2="2270"/>
          </g>
        </g>
        <g>
          <g>
            <line class="cls-25" y1="130" x2="65" y2="130"/>
            <line class="cls-25" y1="158.5" x2="65" y2="158.5"/>
            <line class="cls-25" y1="187.1" x2="65" y2="187.1"/>
            <line class="cls-25" y1="215.6" x2="65" y2="215.6"/>
            <line class="cls-25" y1="244.1" x2="65" y2="244.1"/>
            <line class="cls-25" y1="272.7" x2="65" y2="272.7"/>
            <line class="cls-25" y1="301.2" x2="65" y2="301.2"/>
            <line class="cls-25" y1="329.7" x2="65" y2="329.7"/>
            <line class="cls-25" y1="358.3" x2="65" y2="358.3"/>
            <line class="cls-25" y1="386.8" x2="65" y2="386.8"/>
            <line class="cls-25" y1="415.3" x2="65" y2="415.3"/>
            <line class="cls-25" y1="443.9" x2="65" y2="443.9"/>
            <line class="cls-25" y1="472.4" x2="65" y2="472.4"/>
            <line class="cls-25" y1="500.9" x2="65" y2="500.9"/>
            <line class="cls-25" y1="529.5" x2="65" y2="529.5"/>
            <line class="cls-25" y1="558" x2="65" y2="558"/>
            <line class="cls-25" y1="586.5" x2="65" y2="586.5"/>
            <line class="cls-25" y1="615.1" x2="65" y2="615.1"/>
            <line class="cls-25" y1="643.6" x2="65" y2="643.6"/>
            <line class="cls-25" y1="672.1" x2="65" y2="672.1"/>
            <line class="cls-25" y1="700.7" x2="65" y2="700.7"/>
            <line class="cls-25" y1="729.2" x2="65" y2="729.2"/>
            <line class="cls-25" y1="757.7" x2="65" y2="757.7"/>
            <line class="cls-25" y1="786.3" x2="65" y2="786.3"/>
            <line class="cls-25" y1="814.8" x2="65" y2="814.8"/>
            <line class="cls-25" y1="843.3" x2="65" y2="843.3"/>
            <line class="cls-25" y1="871.9" x2="65" y2="871.9"/>
            <line class="cls-25" y1="900.4" x2="65" y2="900.4"/>
            <line class="cls-25" y1="928.9" x2="65" y2="928.9"/>
            <line class="cls-25" y1="957.5" x2="65" y2="957.5"/>
            <line class="cls-25" y1="986" x2="65" y2="986"/>
            <line class="cls-25" y1="1014.5" x2="65" y2="1014.5"/>
            <line class="cls-25" y1="1043.1" x2="65" y2="1043.1"/>
            <line class="cls-25" y1="1071.6" x2="65" y2="1071.6"/>
            <line class="cls-25" y1="1100.1" x2="65" y2="1100.1"/>
            <line class="cls-25" y1="1128.7" x2="65" y2="1128.7"/>
            <line class="cls-25" y1="1157.2" x2="65" y2="1157.2"/>
            <line class="cls-25" y1="1185.7" x2="65" y2="1185.7"/>
            <line class="cls-25" y1="1214.3" x2="65" y2="1214.3"/>
            <line class="cls-25" y1="1242.8" x2="65" y2="1242.8"/>
            <line class="cls-25" y1="1271.3" x2="65" y2="1271.3"/>
            <line class="cls-25" y1="1299.9" x2="65" y2="1299.9"/>
            <line class="cls-25" y1="1328.4" x2="65" y2="1328.4"/>
            <line class="cls-25" y1="1356.9" x2="65" y2="1356.9"/>
            <line class="cls-25" y1="1385.5" x2="65" y2="1385.5"/>
            <line class="cls-25" y1="1414" x2="65" y2="1414"/>
            <line class="cls-25" y1="1442.5" x2="65" y2="1442.5"/>
            <line class="cls-25" y1="1471.1" x2="65" y2="1471.1"/>
            <line class="cls-25" y1="1499.6" x2="65" y2="1499.6"/>
            <line class="cls-25" y1="1528.1" x2="65" y2="1528.1"/>
            <line class="cls-25" y1="1556.7" x2="65" y2="1556.7"/>
            <line class="cls-25" y1="1585.2" x2="65" y2="1585.2"/>
            <line class="cls-25" y1="1613.7" x2="65" y2="1613.7"/>
            <line class="cls-25" y1="1642.3" x2="65" y2="1642.3"/>
            <line class="cls-25" y1="1670.8" x2="65" y2="1670.8"/>
            <line class="cls-25" y1="1699.3" x2="65" y2="1699.3"/>
            <line class="cls-25" y1="1727.9" x2="65" y2="1727.9"/>
            <line class="cls-25" y1="1756.4" x2="65" y2="1756.4"/>
            <line class="cls-25" y1="1784.9" x2="65" y2="1784.9"/>
            <line class="cls-25" y1="1813.5" x2="65" y2="1813.5"/>
            <line class="cls-25" y1="1842" x2="65" y2="1842"/>
            <line class="cls-25" y1="1870.5" x2="65" y2="1870.5"/>
            <line class="cls-25" y1="1899.1" x2="65" y2="1899.1"/>
            <line class="cls-25" y1="1927.6" x2="65" y2="1927.6"/>
            <line class="cls-25" y1="1956.1" x2="65" y2="1956.1"/>
            <line class="cls-25" y1="1984.7" x2="65" y2="1984.7"/>
            <line class="cls-25" y1="2013.2" x2="65" y2="2013.2"/>
            <line class="cls-25" y1="2041.7" x2="65" y2="2041.7"/>
            <line class="cls-25" y1="2070.3" x2="65" y2="2070.3"/>
            <line class="cls-25" y1="2098.8" x2="65" y2="2098.8"/>
            <line class="cls-25" y1="2127.3" x2="65" y2="2127.3"/>
            <line class="cls-25" y1="2155.9" x2="65" y2="2155.9"/>
            <line class="cls-25" y1="2184.4" x2="65" y2="2184.4"/>
            <line class="cls-25" y1="2212.9" x2="65" y2="2212.9"/>
            <line class="cls-25" y1="2241.5" x2="65" y2="2241.5"/>
            <line class="cls-25" y1="2270" x2="65" y2="2270"/>
          </g>
          <g>
            <line class="cls-32" y1="130" x2="130" y2="130"/>
            <line class="cls-32" y1="272.7" x2="130" y2="272.7"/>
            <line class="cls-32" y1="415.3" x2="130" y2="415.3"/>
            <line class="cls-32" y1="558" x2="130" y2="558"/>
            <line class="cls-32" y1="700.7" x2="130" y2="700.7"/>
            <line class="cls-32" y1="843.3" x2="130" y2="843.3"/>
            <line class="cls-32" y1="986" x2="130" y2="986"/>
            <line class="cls-32" y1="1128.7" x2="130" y2="1128.7"/>
            <line class="cls-32" y1="1271.3" x2="130" y2="1271.3"/>
            <line class="cls-32" y1="1414" x2="130" y2="1414"/>
            <line class="cls-32" y1="1556.7" x2="130" y2="1556.7"/>
            <line class="cls-32" y1="1699.3" x2="130" y2="1699.3"/>
            <line class="cls-32" y1="1842" x2="130" y2="1842"/>
            <line class="cls-32" y1="1984.7" x2="130" y2="1984.7"/>
            <line class="cls-32" y1="2127.3" x2="130" y2="2127.3"/>
            <line class="cls-32" y1="2270" x2="130" y2="2270"/>
          </g>
        </g>
        <rect class="cls-3" x="130" y="130" width="1540" height="2140"/>
        <rect class="cls-22" x="150" y="150" width="1500" height="2100"/>
        <g>
          <line class="cls-41" x1="150" y1="150" x2="1650" y2="150"/>
          <line class="cls-41" x1="150" y1="181.8" x2="1650" y2="181.8"/>
          <line class="cls-41" x1="150" y1="213.6" x2="1650" y2="213.6"/>
          <line class="cls-41" x1="150" y1="245.5" x2="1650" y2="245.5"/>
          <line class="cls-41" x1="150" y1="277.3" x2="1650" y2="277.3"/>
          <line class="cls-41" x1="150" y1="309.1" x2="1650" y2="309.1"/>
          <line class="cls-41" x1="150" y1="340.9" x2="1650" y2="340.9"/>
          <line class="cls-41" x1="150" y1="372.7" x2="1650" y2="372.7"/>
          <line class="cls-41" x1="150" y1="404.5" x2="1650" y2="404.5"/>
          <line class="cls-41" x1="150" y1="436.4" x2="1650" y2="436.4"/>
          <line class="cls-41" x1="150" y1="468.2" x2="1650" y2="468.2"/>
          <line class="cls-41" x1="150" y1="500" x2="1650" y2="500"/>
          <line class="cls-41" x1="150" y1="531.8" x2="1650" y2="531.8"/>
          <line class="cls-41" x1="150" y1="563.6" x2="1650" y2="563.6"/>
          <line class="cls-41" x1="150" y1="595.5" x2="1650" y2="595.5"/>
          <line class="cls-41" x1="150" y1="627.3" x2="1650" y2="627.3"/>
          <line class="cls-41" x1="150" y1="659.1" x2="1650" y2="659.1"/>
          <line class="cls-41" x1="150" y1="690.9" x2="1650" y2="690.9"/>
          <line class="cls-41" x1="150" y1="722.7" x2="1650" y2="722.7"/>
          <line class="cls-41" x1="150" y1="754.5" x2="1650" y2="754.5"/>
          <line class="cls-41" x1="150" y1="786.4" x2="1650" y2="786.4"/>
          <line class="cls-41" x1="150" y1="818.2" x2="1650" y2="818.2"/>
          <line class="cls-41" x1="150" y1="850" x2="1650" y2="850"/>
          <line class="cls-41" x1="150" y1="881.8" x2="1650" y2="881.8"/>
          <line class="cls-41" x1="150" y1="913.6" x2="1650" y2="913.6"/>
          <line class="cls-41" x1="150" y1="945.5" x2="1650" y2="945.5"/>
          <line class="cls-41" x1="150" y1="977.3" x2="1650" y2="977.3"/>
          <line class="cls-41" x1="150" y1="1009.1" x2="1650" y2="1009.1"/>
          <line class="cls-41" x1="150" y1="1040.9" x2="1650" y2="1040.9"/>
          <line class="cls-41" x1="150" y1="1072.7" x2="1650" y2="1072.7"/>
          <line class="cls-41" x1="150" y1="1104.5" x2="1650" y2="1104.5"/>
          <line class="cls-41" x1="150" y1="1136.4" x2="1650" y2="1136.4"/>
          <line class="cls-41" x1="150" y1="1168.2" x2="1650" y2="1168.2"/>
          <line class="cls-41" x1="150" y1="1200" x2="1650" y2="1200"/>
          <line class="cls-41" x1="150" y1="1231.8" x2="1650" y2="1231.8"/>
          <line class="cls-41" x1="150" y1="1263.6" x2="1650" y2="1263.6"/>
          <line class="cls-41" x1="150" y1="1295.5" x2="1650" y2="1295.5"/>
          <line class="cls-41" x1="150" y1="1327.3" x2="1650" y2="1327.3"/>
          <line class="cls-41" x1="150" y1="1359.1" x2="1650" y2="1359.1"/>
          <line class="cls-41" x1="150" y1="1390.9" x2="1650" y2="1390.9"/>
          <line class="cls-41" x1="150" y1="1422.7" x2="1650" y2="1422.7"/>
          <line class="cls-41" x1="150" y1="1454.5" x2="1650" y2="1454.5"/>
          <line class="cls-41" x1="150" y1="1486.4" x2="1650" y2="1486.4"/>
          <line class="cls-41" x1="150" y1="1518.2" x2="1650" y2="1518.2"/>
          <line class="cls-41" x1="150" y1="1550" x2="1650" y2="1550"/>
          <line class="cls-41" x1="150" y1="1581.8" x2="1650" y2="1581.8"/>
          <line class="cls-41" x1="150" y1="1613.6" x2="1650" y2="1613.6"/>
          <line class="cls-41" x1="150" y1="1645.5" x2="1650" y2="1645.5"/>
          <line class="cls-41" x1="150" y1="1677.3" x2="1650" y2="1677.3"/>
          <line class="cls-41" x1="150" y1="1709.1" x2="1650" y2="1709.1"/>
          <line class="cls-41" x1="150" y1="1740.9" x2="1650" y2="1740.9"/>
          <line class="cls-41" x1="150" y1="1772.7" x2="1650" y2="1772.7"/>
          <line class="cls-41" x1="150" y1="1804.5" x2="1650" y2="1804.5"/>
          <line class="cls-41" x1="150" y1="1836.4" x2="1650" y2="1836.4"/>
          <line class="cls-41" x1="150" y1="1868.2" x2="1650" y2="1868.2"/>
          <line class="cls-41" x1="150" y1="1900" x2="1650" y2="1900"/>
          <line class="cls-41" x1="150" y1="1931.8" x2="1650" y2="1931.8"/>
          <line class="cls-41" x1="150" y1="1963.6" x2="1650" y2="1963.6"/>
          <line class="cls-41" x1="150" y1="1995.5" x2="1650" y2="1995.5"/>
          <line class="cls-41" x1="150" y1="2027.3" x2="1650" y2="2027.3"/>
          <line class="cls-41" x1="150" y1="2059.1" x2="1650" y2="2059.1"/>
          <line class="cls-41" x1="150" y1="2090.9" x2="1650" y2="2090.9"/>
          <line class="cls-41" x1="150" y1="2122.7" x2="1650" y2="2122.7"/>
          <line class="cls-41" x1="150" y1="2154.5" x2="1650" y2="2154.5"/>
          <line class="cls-41" x1="150" y1="2186.4" x2="1650" y2="2186.4"/>
          <line class="cls-41" x1="150" y1="2218.2" x2="1650" y2="2218.2"/>
          <line class="cls-41" x1="150" y1="2250" x2="1650" y2="2250"/>
        </g>
        <g>
          <line class="cls-41" x1="150" y1="150" x2="150" y2="2250"/>
          <line class="cls-41" x1="179.4" y1="150" x2="179.4" y2="2250"/>
          <line class="cls-41" x1="208.8" y1="150" x2="208.8" y2="2250"/>
          <line class="cls-41" x1="238.2" y1="150" x2="238.2" y2="2250"/>
          <line class="cls-41" x1="267.6" y1="150" x2="267.6" y2="2250"/>
          <line class="cls-41" x1="297.1" y1="150" x2="297.1" y2="2250"/>
          <line class="cls-41" x1="326.5" y1="150" x2="326.5" y2="2250"/>
          <line class="cls-41" x1="355.9" y1="150" x2="355.9" y2="2250"/>
          <line class="cls-41" x1="385.3" y1="150" x2="385.3" y2="2250"/>
          <line class="cls-41" x1="414.7" y1="150" x2="414.7" y2="2250"/>
          <line class="cls-41" x1="444.1" y1="150" x2="444.1" y2="2250"/>
          <line class="cls-41" x1="473.5" y1="150" x2="473.5" y2="2250"/>
          <line class="cls-41" x1="502.9" y1="150" x2="502.9" y2="2250"/>
          <line class="cls-41" x1="532.4" y1="150" x2="532.4" y2="2250"/>
          <line class="cls-41" x1="561.8" y1="150" x2="561.8" y2="2250"/>
          <line class="cls-41" x1="591.2" y1="150" x2="591.2" y2="2250"/>
          <line class="cls-41" x1="620.6" y1="150" x2="620.6" y2="2250"/>
          <line class="cls-41" x1="650" y1="150" x2="650" y2="2250"/>
          <line class="cls-41" x1="679.4" y1="150" x2="679.4" y2="2250"/>
          <line class="cls-41" x1="708.8" y1="150" x2="708.8" y2="2250"/>
          <line class="cls-41" x1="738.2" y1="150" x2="738.2" y2="2250"/>
          <line class="cls-41" x1="767.6" y1="150" x2="767.6" y2="2250"/>
          <line class="cls-41" x1="797.1" y1="150" x2="797.1" y2="2250"/>
          <line class="cls-41" x1="826.5" y1="150" x2="826.5" y2="2250"/>
          <line class="cls-41" x1="855.9" y1="150" x2="855.9" y2="2250"/>
          <line class="cls-41" x1="885.3" y1="150" x2="885.3" y2="2250"/>
          <line class="cls-41" x1="914.7" y1="150" x2="914.7" y2="2250"/>
          <line class="cls-41" x1="944.1" y1="150" x2="944.1" y2="2250"/>
          <line class="cls-41" x1="973.5" y1="150" x2="973.5" y2="2250"/>
          <line class="cls-41" x1="1002.9" y1="150" x2="1002.9" y2="2250"/>
          <line class="cls-41" x1="1032.4" y1="150" x2="1032.4" y2="2250"/>
          <line class="cls-41" x1="1061.8" y1="150" x2="1061.8" y2="2250"/>
          <line class="cls-41" x1="1091.2" y1="150" x2="1091.2" y2="2250"/>
          <line class="cls-41" x1="1120.6" y1="150" x2="1120.6" y2="2250"/>
          <line class="cls-41" x1="1150" y1="150" x2="1150" y2="2250"/>
          <line class="cls-41" x1="1179.4" y1="150" x2="1179.4" y2="2250"/>
          <line class="cls-41" x1="1208.8" y1="150" x2="1208.8" y2="2250"/>
          <line class="cls-41" x1="1238.2" y1="150" x2="1238.2" y2="2250"/>
          <line class="cls-41" x1="1267.6" y1="150" x2="1267.6" y2="2250"/>
          <line class="cls-41" x1="1297.1" y1="150" x2="1297.1" y2="2250"/>
          <line class="cls-41" x1="1326.5" y1="150" x2="1326.5" y2="2250"/>
          <line class="cls-41" x1="1355.9" y1="150" x2="1355.9" y2="2250"/>
          <line class="cls-41" x1="1385.3" y1="150" x2="1385.3" y2="2250"/>
          <line class="cls-41" x1="1414.7" y1="150" x2="1414.7" y2="2250"/>
          <line class="cls-41" x1="1444.1" y1="150" x2="1444.1" y2="2250"/>
          <line class="cls-41" x1="1473.5" y1="150" x2="1473.5" y2="2250"/>
          <line class="cls-41" x1="1502.9" y1="150" x2="1502.9" y2="2250"/>
          <line class="cls-41" x1="1532.4" y1="150" x2="1532.4" y2="2250"/>
          <line class="cls-41" x1="1561.8" y1="150" x2="1561.8" y2="2250"/>
          <line class="cls-41" x1="1591.2" y1="150" x2="1591.2" y2="2250"/>
          <line class="cls-41" x1="1620.6" y1="150" x2="1620.6" y2="2250"/>
          <line class="cls-41" x1="1650" y1="150" x2="1650" y2="2250"/>
        </g>
        <g>
          <path class="cls-50" d="M142,2292c0-3.6.7-6.3,2.2-8.1,1.1-1.4,2.7-2.1,4.7-2.1s1.8.2,2.5.5c.7.3,1.4.8,1.9,1.3.4.4.8,1,1.1,1.8.3.7.6,1.7.8,2.7.2,1.1.3,2.3.3,3.6,0,3.6-.7,6.3-2.1,8.1-1.1,1.4-2.7,2.1-4.7,2.1s-2.6-.4-3.6-1.1c-1-.8-1.8-1.9-2.3-3.5-.5-1.6-.8-3.3-.8-5.3ZM144.6,2292c0,3.1.4,5.2,1.2,6.4.6.9,1.6,1.3,2.8,1.3s2.1-.5,2.7-1.4c.9-1.3,1.3-3.5,1.3-6.6s-.4-5.3-1.2-6.4c-.6-.9-1.6-1.3-2.8-1.3s-2.4.7-3.1,2c-.7,1.3-1,3.3-1,6.1Z"/>
          <path class="cls-50" d="M302.2,2301.5v-14.1h-4.6v-1.8c1.4,0,2.3-.2,2.9-.4.6-.2,1.1-.6,1.4-1.1.4-.5.7-1.3.9-2.2h2v19.7h-2.7Z"/>
          <path class="cls-50" d="M450.3,2288.8c0-1,0-1.9.3-2.6.3-.9.7-1.7,1.3-2.4.6-.7,1.3-1.2,2.2-1.5.9-.3,1.8-.5,2.9-.5,2,0,3.5.5,4.7,1.6,1.1,1.1,1.7,2.5,1.7,4.3s-.1,1.5-.3,2.1c-.2.6-.6,1.2-1.1,1.7-.5.5-1.1,1.1-1.9,1.6-.3.2-1.4.8-3.2,1.8-.7.4-1.4.8-1.9,1.2-.6.4-1,.7-1.3,1.1-.3.3-.5.6-.7.9s-.3.6-.4,1.1h10.7v2.4h-13.5c.1-1.4.3-2.5.6-3.3s.6-1.4,1-2c.4-.6,1.1-1.2,1.9-1.8.4-.3,1.2-.8,2.6-1.6,1.4-.8,2.2-1.3,2.4-1.4.6-.4,1.1-.8,1.4-1.1.3-.3.5-.7.7-1.1.2-.4.2-.9.2-1.5,0-1.1-.3-2-1-2.7s-1.6-1-2.8-1-2.3.4-2.9,1.3c-.6.9-.9,2-1,3.6h-2.5Z"/>
          <path class="cls-50" d="M606.2,2295.5c0,1.4.4,2.5,1.1,3.2.7.7,1.7,1.1,3,1.1s2.4-.4,3.2-1.1c.8-.7,1.1-1.6,1.1-2.7s-.1-1.2-.3-1.7c-.2-.5-.6-.9-1-1.2-.5-.3-1.1-.5-1.9-.6-.5,0-1.3-.1-2.5-.1v-2c1.4,0,2.4,0,3-.2.6-.2,1.1-.5,1.5-1,.4-.5.5-1.1.5-1.9s-.3-1.7-.9-2.3c-.6-.6-1.5-.9-2.6-.9s-1.5.2-2.1.5c-.6.3-1,.8-1.3,1.4-.3.6-.5,1.4-.5,2.4h-2.4c0-1,.1-1.8.3-2.4.3-.9.7-1.7,1.3-2.3s1.3-1.1,2.1-1.4c.8-.3,1.7-.4,2.6-.4,1.9,0,3.4.5,4.5,1.5s1.6,2.3,1.6,3.8-.2,1.8-.7,2.5c-.4.7-1.1,1.2-1.9,1.5.7.2,1.2.5,1.6.8.6.4,1,.9,1.3,1.6.3.6.5,1.4.5,2.3s-.3,2.3-.9,3.3c-.6,1-1.4,1.7-2.5,2.2-1.1.5-2.3.7-3.6.7s-2.1-.2-3-.5c-.8-.3-1.5-.8-2-1.3-.5-.6-.9-1.2-1.2-2-.3-.7-.4-1.7-.5-2.7h2.5Z"/>
          <path class="cls-50" d="M766.2,2301.5v-4.8h-8.6v-2.4l9-12.4h2.1v12.7h2.9v2.2h-2.9v4.8h-2.5ZM766.2,2294.5v-8.8l-6.3,8.8h6.3Z"/>
          <path class="cls-50" d="M912.5,2292.8l1.6-10.5h10v2.4h-8.3l-.8,5.4c.6-.4,1.1-.7,1.7-.9.6-.2,1.3-.3,2-.3,1.6,0,3,.5,4.2,1.4,1.6,1.2,2.4,2.8,2.4,5s-.3,2.4-.8,3.4c-.6,1.1-1.4,1.9-2.4,2.5-1,.6-2.3.9-3.8.9s-2.6-.3-3.5-.8c-1-.5-1.7-1.2-2.2-2.2-.4-.7-.6-1.5-.7-2.5h2.5c.1,1,.5,1.8,1.2,2.4.7.6,1.6.9,2.8.9s2.3-.4,3.1-1.2c.8-.8,1.2-1.9,1.2-3.2s-.4-2.3-1.2-3.1c-.8-.8-1.8-1.2-3-1.2s-2.8.6-3.7,1.9h-2.1Z"/>
          <path class="cls-50" d="M1076.5,2287c-.2-1-.6-1.8-1.1-2.3-.6-.5-1.3-.7-2.2-.7s-1.6.3-2.3.8-1.2,1.3-1.7,2.4c-.4,1.1-.7,2.5-.8,4.3,1-1.6,2.6-2.4,4.6-2.4s3.3.6,4.5,1.7c1.1,1.1,1.7,2.6,1.7,4.5s-.2,2.2-.7,3.3c-.5,1.1-1.2,1.9-2.2,2.5s-2.2.9-3.6.9c-2,0-3.6-.6-4.8-1.9-1.4-1.5-2.2-4-2.2-7.3s.3-4.2.9-5.9c.6-1.7,1.4-2.9,2.5-3.8,1.1-.8,2.4-1.2,4-1.2s1.9.2,2.7.6c.6.3,1.1.7,1.6,1.1.4.5.7,1,1,1.5.2.6.4,1.2.4,2h-2.4ZM1068.8,2295.4c0,1.3.4,2.4,1.1,3.2.8.8,1.7,1.2,2.9,1.2s2.1-.4,2.8-1.2c.8-.8,1.1-1.9,1.1-3.2s-.4-2.3-1.1-3.1c-.7-.7-1.7-1.1-2.9-1.1s-2.2.4-2.9,1.1c-.7.7-1.1,1.8-1.1,3.1Z"/>
          <path class="cls-50" d="M1220,2284.8v-2.5h13.6v2.2c-1,1.2-1.8,2.2-2.4,3.1-1,1.4-1.8,3-2.7,4.7-.8,1.7-1.5,3.4-2.1,5.1-.4,1.2-.7,2.5-1,4.1h-2.7c.2-1.2.4-2.2.7-3.2.5-1.6,1.1-3.2,1.9-4.9.8-1.7,1.7-3.3,2.8-4.9.7-1.1,1.6-2.3,2.7-3.7h-10.8Z"/>
          <path class="cls-50" d="M1384.2,2291c.7.3,1.2.7,1.6,1,.5.4.9.9,1.1,1.6.3.6.4,1.4.4,2.3,0,1.8-.6,3.2-1.8,4.4-1.2,1.1-2.8,1.7-4.9,1.7s-3.7-.6-4.9-1.7c-1.2-1.1-1.8-2.6-1.8-4.3s.3-2.3.9-3.1,1.4-1.4,2.5-1.8c-.8-.3-1.4-.7-1.8-1.2-.6-.7-.9-1.6-.9-2.7,0-1.5.5-2.8,1.6-3.8,1.1-1,2.5-1.5,4.4-1.5s2.3.2,3.2.7,1.6,1.1,2.1,1.9c.5.8.7,1.7.7,2.6s-.2,1.6-.7,2.3c-.4.7-1.1,1.2-1.9,1.6ZM1376.7,2296c0,1.1.4,2,1.1,2.7.7.7,1.7,1,2.9,1s2.2-.3,2.9-1c.7-.7,1.1-1.6,1.1-2.7s-.4-2-1.1-2.7c-.7-.7-1.7-1-2.9-1s-2.2.3-2.9,1c-.7.7-1.1,1.6-1.1,2.7ZM1377.2,2287c0,.9.3,1.7.9,2.3.6.6,1.5.9,2.5.9s1.9-.3,2.6-.9c.7-.6,1-1.4,1-2.2s-.3-1.6-.9-2.2-1.5-.8-2.7-.8-2,.3-2.5.8c-.6.5-.9,1.3-.9,2.2Z"/>
          <path class="cls-50" d="M1530.9,2296.7c.2,1,.6,1.8,1.1,2.3.6.5,1.3.7,2.2.7s1.8-.3,2.5-.9c.7-.6,1.2-1.6,1.6-2.9.3-1,.5-2.2.6-3.7-.3.5-.6.9-.9,1.1-.4.4-1,.7-1.6,1-.6.2-1.4.4-2.2.4s-2.2-.3-3.2-.8-1.7-1.3-2.2-2.2c-.5-1-.7-2-.7-3.2s.2-2.2.7-3.3c.5-1.1,1.2-1.9,2.2-2.5s2.2-.9,3.6-.9c2,0,3.6.6,4.8,1.9,1.4,1.5,2.1,4,2.1,7.3s-.3,4.2-.9,5.9c-.6,1.7-1.4,2.9-2.5,3.8-1.1.8-2.4,1.2-4,1.2s-1.9-.2-2.7-.6c-.6-.3-1.1-.7-1.6-1.1-.4-.5-.7-1-1-1.5-.2-.6-.4-1.2-.4-2h2.4ZM1530.6,2288.4c0,1.3.4,2.4,1.1,3.1.7.7,1.7,1.1,2.9,1.1s2.2-.4,2.9-1.1c.7-.7,1.1-1.8,1.1-3.1s-.4-2.4-1.1-3.2c-.8-.8-1.7-1.2-2.9-1.2s-2.1.4-2.8,1.2c-.8.8-1.1,1.9-1.1,3.2Z"/>
        </g>
      </g>
    </g>
    <g id="Layer_2">
      <g>
        <rect class="cls-35" x="706.8" y="2005" width="386.3" height="129.1"/>
        <g>
          <path class="cls-50" d="M870.4,2088.3c5.4.7,11.6,1.9,16.5,3.2l-2.8,6.5c-5.3-2.4-13.1-5.3-19.4-7.3l.7-2.5h-8.4l3.7,2.9c-5.4,3.2-13.7,5.5-22.6,6.7l-.8-2.8c6.4-1.8,11-4,15.3-6.7h-6.9v-12.5c-3.4,1.9-6.8,3.4-9.9,4.3l-1-2.6c4.6-2.3,10.1-6.1,13.5-10.2h-11.6v-3.4h14.6v-2.3h-7.1v-3.1h7.1v-2.3h-6v-3.1h6v-2.4h-7.3v6.1h-6.6v-9.5h24.6c-2.8-1.3-5.7-2.5-8.4-3.5l.7-2.8c3.7.2,9.6,1.1,13.9,2.5l-1.9,3.7h20.6v9.5h-6.6v-6.1h-7.5v2.4h6.1v3.1h-6.1v2.3h7.3v3.1h-7.3v2.3h14.9v3.4h-13.9c4.2,2.8,9.7,4.4,15.3,5.5l-3.4,6.5c-2-.7-4.7-1.8-7.3-3.5v12.5h-8ZM871.5,2072.7h-18.7v2.3h18.7v-2.3ZM871.5,2077.6h-18.7v2.3h18.7v-2.3ZM871.5,2082.6h-18.7v2.5h18.7v-2.5ZM854,2069.6h17.6c-.7-.8-1.2-1.6-1.8-2.4h-13.6c-.7.8-1.4,1.6-2.2,2.4ZM858.1,2050.7v2.4h8v-2.4h-8ZM866.1,2058.5v-2.3h-8v2.3h8ZM858.1,2061.5v2.3h8v-2.3h-8Z"/>
          <path class="cls-50" d="M928.9,2073.3v24.2h-7.3v-19.9c-2.5,1.4-5.1,2.7-7.7,3.8l-3-7.6c3.8-1,7.4-2,10.7-3.1v-11.4h-4c-1.1,3.9-2.5,7.7-4.2,10.5l-2.5-1.2c1.6-6.2,2.3-13.1,2.5-23.6l6.7.7c-.2,2.9-.8,6.4-1.6,10h3.1v-14.2h7.3v14.2h6.1v3.6h-6.1v8.7c1.6-.7,3-1.3,4.4-2l1.6,2.5c-1.7,1.5-3.7,3.1-6,4.6ZM944.1,2053.5h-10.2v-3.6h10.2v-7.9h7.6v7.9h10.3v3.6h-10.3v7.7h12.7v3.6h-32.8v-3.6h12.5v-7.7ZM964.6,2071.9v3.6h-6.4v15.7c0,6.5-7.4,8.9-16.9,2.4l.8-2.7c7.3,1.5,8.5,1,8.5-1.6v-13.8h-19v-3.6h19v-5.6h7.6v5.6h6.4ZM941.7,2089.1c-1.8-3.5-4.2-7.7-6.3-10.8l2.1-2c3.1,1.7,7.7,5.5,10.1,8.6l-5.9,4.3Z"/>
        </g>
        <g>
          <path class="cls-50" d="M731.8,2025.3c0,2.4-2,4.4-4.4,4.4s-4.4-2-4.4-4.4,2-4.4,4.4-4.4,4.4,2,4.4,4.4Z"/>
          <path class="cls-50" d="M1077,2025.3c0,2.4-2,4.4-4.4,4.4s-4.4-2-4.4-4.4,2-4.4,4.4-4.4,4.4,2,4.4,4.4Z"/>
          <path class="cls-50" d="M731.8,2113.7c0,2.4-2,4.4-4.4,4.4s-4.4-2-4.4-4.4,2-4.4,4.4-4.4,4.4,2,4.4,4.4Z"/>
          <path class="cls-50" d="M1077,2113.7c0,2.4-2,4.4-4.4,4.4s-4.4-2-4.4-4.4,2-4.4,4.4-4.4,4.4,2,4.4,4.4Z"/>
        </g>
      </g>
      <g>
        <rect class="cls-35" x="776.8" y="250.2" width="246.3" height="109.1"/>
        <g>
          <path class="cls-50" d="M891.7,318.1l-3.1,6c-4.6-2-8.8-6.1-10.8-11.9-2.5,5.8-7.6,10-16.4,11.9l-.9-2.4c7-2.9,10.4-6.4,12.1-11.5h-8.9v-2.8c-4.2,3.4-9.2,6-14.3,8l-2.2-6c1.8-.4,3.7-.9,5.7-1.4v-14.3h-4.6v-2.9h4.6v-11.4h6v11.4h4.6v2.9h-4.6v12.4c1.5-.5,2.9-1.1,4.4-1.7l1.3,2.3-.9.7h9.6c.4-2.1.6-4.4.6-7h-2.9c-1.2,2.4-2.8,4.5-4.4,6.2l-2.1-1.2c1.5-3.2,2.4-6.7,3.1-11-1,.1-1.8.2-2.5.3l-1.1-5.6h4.1c1.4-3.2,2.5-7,3.5-10.3l6.6,1.8c-1.8,2.9-4.1,6-6.2,8.4,3.5-.1,6.9-.4,10.1-.7-.9-1.4-1.8-2.8-2.6-4l1.9-1.6c3.3,2.3,7.1,6,9.5,9.3l-4.7,3.5c-.6-1.2-1.5-2.9-2.5-4.6-4.2,1.4-8.9,2.4-12.9,3l2.6.7c-.3,1-.6,2-1,2.9h15.7v2.9h-8.1c0,2.4-.2,4.8-.7,7h11.2v2.9h-10.8c2.9,4.4,7.1,6.3,11.9,7.9Z"/>
          <path class="cls-50" d="M948.5,324.1c-4.8-1.5-9.6-3.9-13.8-7.5-4.9,3.9-11.1,6.5-18.6,7.8l-.8-2.3c6.9-2.3,12-5.3,15.8-9-3.3-3.8-5.8-8.6-7.2-14.8-2,10.9-6.2,19.8-13.9,25.6l-1.6-1.9c7.8-9.4,9.9-20.8,10.2-37.2h-7.5v-3.2h29.8c-1,5-2.3,9.8-3.3,13.1h2.5l1.5-1.4,6.1,2.6c-2,6.6-4.9,12.1-8.8,16.6,3.8,2.2,8.2,3.6,12.9,4.8l-3.4,6.7ZM925.3,284.9c-.1,3.4-.4,6.7-.8,9.9h6.9c.9-2.9,1.8-6.5,2.4-9.9h-8.4ZM940,297.8h-13.4c1.9,5,4.6,8.8,7.9,11.6,2.5-3.4,4.3-7.3,5.5-11.6Z"/>
        </g>
        <g>
          <path class="cls-50" d="M801.8,270.5c0,2.4-2,4.4-4.4,4.4s-4.4-2-4.4-4.4,2-4.4,4.4-4.4,4.4,2,4.4,4.4Z"/>
          <path class="cls-50" d="M1007,270.5c0,2.4-2,4.4-4.4,4.4s-4.4-2-4.4-4.4,2-4.4,4.4-4.4,4.4,2,4.4,4.4Z"/>
          <path class="cls-50" d="M801.8,339c0,2.4-2,4.4-4.4,4.4s-4.4-2-4.4-4.4,2-4.4,4.4-4.4,4.4,2,4.4,4.4Z"/>
          <path class="cls-50" d="M1007,339c0,2.4-2,4.4-4.4,4.4s-4.4-2-4.4-4.4,2-4.4,4.4-4.4,4.4,2,4.4,4.4Z"/>
        </g>
      </g>
      <g>
        <path class="cls-16" d="M379.1,1687.9c-3.9,0-7-3.1-7-7V442.8c0-6.3-2.4-9.9-4.7-10.6-2.4-.8-7.1,1-12.7,8.7-2.3,3.1-6.7,3.8-9.8,1.5-3.1-2.3-3.8-6.7-1.5-9.8,12.3-16.7,23.9-15.1,28.4-13.7,8.7,2.8,14.3,12.2,14.3,23.9v1238.2c0,3.9-3.1,7-7,7Z"/>
        <path class="cls-16" d="M344.3,487.4c-3.9,0-7-3.1-7-7,0-58.2,14.1-75.3,26.5-90.4,3.4-4.1,6.6-8,9.4-12.6,2-3.3,6.3-4.4,9.6-2.4,3.3,2,4.4,6.3,2.4,9.6-3.3,5.5-7,10-10.6,14.3-11.4,13.9-23.3,28.3-23.3,81.5s-3.1,7-7,7Z"/>
        <path class="cls-16" d="M395.5,1693c-.2-2.1-.7-4.3-1.5-6.2-.8-1.9-1.9-3.6-3-5.1-2.3-2.9-4.8-4.7-6.6-5.8-.7-.4-1.3-.7-1.8-1-.5-.3-1-.5-1.5-.6,0,0-.1,0-.2,0,0,0,0,0-.1,0-.1,0-.3,0-.4,0,0,0-.2,0-.3,0-.1,0-.3,0-.4,0-.1,0-.2,0-.3,0-.1,0-.2,0-.4,0-.1,0-.2,0-.4,0-.1,0-.2,0-.3,0-.1,0-.3,0-.4,0,0,0-.2,0-.3,0-.1,0-.3,0-.4,0,0,0,0,0-.1,0,0,0,0,0-.2,0-.5.2-1,.4-1.5.6-.5.2-1.1.6-1.8,1-1.8,1.1-4.3,2.9-6.6,5.8-1.1,1.5-2.2,3.2-3,5.1-.8,1.9-1.3,4-1.5,6.2-.2,2.2,0,4.3.2,6.3.3,2,.8,3.9,1.4,5.8,1.2,3.7,2.7,7.1,4,10.2,1.3,3.1,2.5,6,3.1,8.5.7,2.5.9,4.7.8,6.3,0,.8,0,1.4-.2,1.8,0,.4,0,.6,0,.6,0,0,0-.2.3-.6.2-.4.4-1,.6-1.8.5-1.5.9-3.9.8-6.7,0-2.8-.5-6.1-1-9.5-.5-3.4-1.1-6.9-1.3-10.3,0-1.7,0-3.3,0-4.9.2-1.5.4-3,.8-4.1.8-2.4,2.2-3.9,3.6-5,1.1-.8,2.2-1.3,3.1-1.7.9.3,2,.8,3.1,1.7,1.4,1.1,2.8,2.6,3.6,5,.4,1.1.7,2.6.8,4.1.2,1.5.2,3.2,0,4.9-.2,3.4-.8,6.9-1.3,10.3-.5,3.4-1,6.6-1,9.5,0,2.8.3,5.2.8,6.7.2.8.4,1.4.6,1.8.2.4.3.6.3.6,0,0,0-.2,0-.6,0-.4-.1-1-.2-1.8,0-1.6.1-3.8.8-6.3.7-2.5,1.8-5.4,3.1-8.5,1.3-3.1,2.8-6.5,4-10.2.6-1.9,1.1-3.8,1.4-5.8.3-2,.5-4,.2-6.3Z"/>
      </g>
      <g>
        <path class="cls-30" d="M899.8,529.9c-130.7,0-80.2,221.1-174.7,324.8,0,0,132,74.8,174.7,74.8,42.8,0,174.7-74.8,174.7-74.8-94.5-103.7-44.1-324.8-174.7-324.8Z"/>
        <g>
          <g>
            <path class="cls-2" d="M1145.2,1332c-.8-13.4-2.4-31.9-10.1-59.7-2.4-8.7-6.1-19-6.1-19-.5-4.2-1.2-19.4-2-23.5-4.2-21.8-4.2-73.8-7.9-115.9-3.6-42.1-15.1-65.6-18.4-74.7s-3.9-30.6-4.1-62-10.1-41.3-9.6-51.4c.5-10.1,2-14.5,5.1-33.7,3.1-19.2-.8-51.1-11.2-69.8-10.4-18.7-24.3-20.5-32.1-29.3-7.8-8.8-17.7-7.8-17.7-7.8-15.8-10.6-61.1-32.1-82.4-43.7-9.7-5.3-48.7-55.2-48.7-55.2,0,0-39,49.8-48.7,55.2-21.3,11.7-66.5,33.1-82.4,43.7,0,0-9.9-1-17.7,7.8-7.8,8.8-21.7,10.6-32.1,29.3-10.4,18.7-14.3,50.6-11.2,69.8,3.1,19.2,4.6,23.6,5.1,33.7.5,10.1-9.4,20-9.6,51.4s-.8,53-4.1,62-14.8,32.7-18.4,74.7c-3.6,42.1-3.7,94-7.9,115.9-.8,4.1-1.5,19.3-2,23.5,0,0-3.8,10.3-6.1,19-7.6,27.8-9.2,46.4-10.1,59.7-2.1,17.2,10.9,17.4,10.9,17.4,0,0,2.3,6,6.4,6.2,4.1.2,7.3-.4,7.3-.4,0,0,3.8,6.5,10.3,6.9,6.5.3,9.1-2.3,9.1-2.3,0,0,3.6,2.6,9.4,2.9,5.8.3,7.5-6,7.5-6,0,0,2.1,1.9,4.8,2,6.8.3,6.7-8.4,9.5-16.6,1.9-5.5-.3-16,.5-31.5.8-15.5-12.6-28.5-18.2-34.4-3.8-4-2-17.1-2-17.1,1.9-15.7,5.9-34.9,15.5-51.8,12.5-22.1,26.1-74,30.4-107.8,4.4-34.5-1.1-42.8,1.2-56.9s15.6-40.7,17.5-93.5c0,0,7.4,35.1,19.4,53.2,6.8,10.3,7.1,64.3,4.8,74.7-2.3,10.4-2.1,50.1-2.1,50.1,0,0-22.2,56.8-18.1,99.3-13.6,92.6-17.3,125.5-12.7,190.6,4.6,65.9,5.4,87.3,2.9,102-2.4,14.7-11.8,54.4-13.4,84.7-1.6,30.3,6,145.1,5.3,172.5-.3,14.1-.9,32.7-.9,46.9s1.4,14.4,1.4,20.3-5.9,18-5.7,29.5c.2,11.5-29.7,32.4-30.7,40.3,0,0-14.4,16.9-.5,24,0,0,3.4,10.5,13.5,6.8,0,0,4.7,9.5,16.2,4.1,0,0,5.1,8.4,20.3,1.7,0,0,3.4,5.4,16.6,5.4s15.9-6.8,19.9-16.2c4.1-9.5,8.4-7.4,8.4-17.8s-2-24.3,0-30.2c2-5.9,7.2-5.4,9-11.5,1.8-6.1.5-18.5-7.4-26.1s-4.1-19.2-4.1-33.3-2.8-25.3-2.8-36.8.9-29.6,9.5-72.5c8.7-43.4,20.4-64.2,23.7-107.8,3-40.6-3.7-65.2-1.2-96.1,2.4-29.4,47.5-142.8,53.6-223.1,6.1,80.4,51.2,193.8,53.6,223.1,2.6,30.9-4.2,55.5-1.2,96.1,3.3,43.5,15,64.4,23.7,107.8,8.6,42.9,9.5,58.6,9.5,72.5s-2.8,22.6-2.8,36.8,3.8,25.7-4.1,33.3-9.2,20.1-7.4,26.1c1.8,6.1,7,5.6,9,11.5,2,5.9,0,19.8,0,30.2s4.4,8.3,8.4,17.8c4.1,9.5,6.8,16.2,19.9,16.2s16.6-5.4,16.6-5.4c15.2,6.7,20.3-1.7,20.3-1.7,11.5,5.4,16.2-4.1,16.2-4.1,10.1,3.7,13.5-6.8,13.5-6.8,13.9-7.1-.5-24-.5-24-1-7.9-30.9-28.8-30.7-40.3.2-11.5-5.7-23.6-5.7-29.5s1.4-5,1.4-20.3-.5-32.7-.9-46.9c-.7-27.3,6.9-142.1,5.3-172.5-1.6-30.3-11-70-13.4-84.7-2.4-14.7-1.7-36.1,2.9-102,4.6-65.1.9-98-12.7-190.6,4.2-42.5-18.1-99.3-18.1-99.3,0,0,.2-39.7-2.1-50.1-2.3-10.4-2-64.4,4.8-74.7,12-18.1,19.4-53.2,19.4-53.2,1.9,52.8,15.2,79.5,17.5,93.5s-3.2,22.3,1.2,56.9c4.3,33.8,17.9,85.7,30.4,107.8,9.5,16.9,13.6,36.1,15.5,51.8,0,0,1.8,13.2-2,17.1-5.6,5.9-19,18.9-18.2,34.4.8,15.5-1.4,26,.5,31.5,2.8,8.2,2.7,16.9,9.5,16.6,2.8-.1,4.8-2,4.8-2,0,0,1.7,6.3,7.5,6,5.8-.3,9.4-2.9,9.4-2.9,0,0,2.6,2.6,9.1,2.3,6.5-.3,10.3-6.9,10.3-6.9,0,0,3.2.6,7.3.4,4.1-.2,6.4-6.2,6.4-6.2,0,0,13-.2,10.9-17.4Z"/>
            <path class="cls-6" d="M830.1,1492.9c-4.2,13.3-5.3,37.1-22.7,45.2"/>
            <path class="cls-6" d="M968.5,1492.9c4.2,13.3,5.3,37.1,22.7,45.2"/>
            <path class="cls-28" d="M845.6,775.1c-1-17.7,7.9-46.2,6.4-62.7h94.5c-1.5,16.4,7.4,45,6.4,62.7"/>
            <path class="cls-6" d="M1079.5,1042.7c2.3,14.1-16.8,28.5-16.8,28.5"/>
            <path class="cls-6" d="M720.5,1042.7c-2.3,14.1,16.8,28.5,16.8,28.5"/>
            <g>
              <path class="cls-6" d="M848.1,807.9s-5.8,2.4-15.2,2.4-30.1-18.2-37.8-18.2"/>
              <path class="cls-6" d="M951.9,807.9s5.8,2.4,15.2,2.4c12.8,0,30.1-18.2,37.8-18.2"/>
              <path class="cls-6" d="M890.9,813.7s3.9,9.8,9.2,9.8,9.2-9.8,9.2-9.8"/>
            </g>
            <path class="cls-6" d="M1079.5,1042.7c2.3,14.1-16.8,28.5-16.8,28.5"/>
            <g>
              <path class="cls-7" d="M1084.2,1356.6c-3.2-8.9,2.2-18.2-2.1-38.7"/>
              <path class="cls-7" d="M1101.1,1359.7c3.9-8.4,2.3-14.7,4.7-20.6"/>
              <path class="cls-7" d="M1120.5,1355.2c1.9-3.3-.7-7.7,3.2-17.5"/>
              <path class="cls-7" d="M1134.2,1349.4c-.3-5,2.8-9,2.6-14.9"/>
            </g>
            <g>
              <path class="cls-7" d="M715.8,1356.6c3.2-8.9-2.2-18.2,2.1-38.7"/>
              <path class="cls-7" d="M698.9,1359.7c-3.9-8.4-2.3-14.7-4.7-20.6"/>
              <path class="cls-7" d="M679.5,1355.2c-1.9-3.3.7-7.7-3.2-17.5"/>
              <path class="cls-7" d="M665.8,1349.4c.3-5-2.8-9-2.6-14.9"/>
            </g>
          </g>
          <g>
            <path class="cls-6" d="M1025.2,1949.6s2.6-7.4,1.5-11.6c-1.1-4.2-9.7-9.6-10.9-15.1"/>
            <path class="cls-6" d="M1045.5,1947.9s3.1-5.5,2-9.2-7.8-9.1-8.3-14"/>
            <path class="cls-6" d="M1061.7,1943.8s1-5,0-8c-1-3-6.6-9.2-7.1-11.5"/>
            <path class="cls-6" d="M1075.2,1937.1s-.2-5.4-1.8-7.5c-1.2-1.5-5.8-5.7-6.8-9.2"/>
          </g>
          <g>
            <path class="cls-6" d="M773.1,1949.6s-2.6-7.4-1.5-11.6,9.7-9.6,10.9-15.1"/>
            <path class="cls-6" d="M752.8,1947.9s-3.1-5.5-2-9.2c1.1-3.7,7.8-9.1,8.3-14"/>
            <path class="cls-6" d="M736.6,1943.8s-1-5,0-8c1-3,6.6-9.2,7.1-11.5"/>
            <path class="cls-6" d="M723.1,1937.1s.2-5.4,1.8-7.5,5.8-5.7,6.8-9.2"/>
          </g>
          <line class="cls-33" x1="900" y1="1131.3" x2="900" y2="1036.4"/>
          <g>
            <path class="cls-33" d="M769.2,913.2s7,23.7,28.5,32.2c21.5,8.5,56.5-2,56.5-2"/>
            <path class="cls-33" d="M1030.8,913.2s-7,23.7-28.5,32.2c-21.5,8.5-56.5-2-56.5-2"/>
            <ellipse class="cls-6" cx="806.5" cy="922.5" rx="6" ry="4"/>
            <ellipse class="cls-6" cx="993.5" cy="922.5" rx="6" ry="4"/>
            <path class="cls-33" d="M986.5,1016s-8.7-29.9-41.7-49.8"/>
            <path class="cls-33" d="M813.6,1016s8.7-29.9,41.7-49.8"/>
            <path class="cls-33" d="M815.8,1138.1c10,10.7,23.7,43.7,36.6,54.3"/>
            <path class="cls-33" d="M984.3,1138.1c-10,10.7-23.7,43.7-36.6,54.3"/>
          </g>
          <g>
            <path class="cls-31" d="M868.6,1243.4c4.1,6.6,6.7,13.9,6.7,20.5s-8.8,26.2,3.7,36.3c12.6,10,19.9,1.4,19.9,1.4,0,0,7.3,8.6,19.9-1.4,12.6-10,3.7-29.7,3.7-36.3s2.6-13.9,6.7-20.5"/>
            <path class="cls-31" d="M888.7,1250.8c1.7,5.5,0,31.8,2,35.7,2,3.9,8.3,1.8,8.3,1.8,0,0,6.3,2.1,8.3-1.8s.3-30.1,2-35.7"/>
            <path class="cls-31" d="M909.4,1288.1c0,3.1-1.8,14.2-10,14.2s-10-11.1-10-14.2,4.5-4.4,10-4.4,10,1.3,10,4.4Z"/>
          </g>
        </g>
        <g>
          <path class="cls-5" d="M1087.8,932.5s-29.3,11.1-62.8,16.5c0,0-1.9,23.7,5.2,46,0,0,33.4-2.5,66.4-17.9,0,0,2-18.9-8.7-44.6Z"/>
          <path class="cls-36" d="M1028.8,986c24.8-2.3,49-10.4,66.7-17.6-.4-6.3-1.7-15.9-5.6-27.3-23.5,11.2-51.4,16.2-64.1,18,.1,6.9.7,16.7,3,26.9Z"/>
          <path class="cls-9" d="M1024.2,975.7c15.3-2.1,46.7-7.4,72.5-19.2-.4-2-.8-4.1-1.3-6.3-9.4,4.3-33.8,14-71.8,19.7.2,1.9.4,3.9.6,5.9Z"/>
        </g>
        <g>
          <path class="cls-5" d="M1128.8,1252.2s-20.6-1.3-39.2,6.8c0,0-7.8-18.3-8.8-35.1,0,0,20.3-8.5,44.4-7.3,0,0,4.8,14.8,3.7,35.7Z"/>
          <path class="cls-36" d="M1086.6,1251c7.7-3.4,24.7-7.7,42.4-7.7-.2-8.5-1.2-15.5-2.2-20.2-13.1.8-29.6,2.9-45.2,8.1,1.2,7.5,3.2,14.6,5,19.8Z"/>
          <path class="cls-9" d="M1084.4,1243.8c19.5-5.5,34.7-7.4,44.2-8.1-.1-1.7-.3-3.3-.5-4.8-16.9,1.1-34,5.3-44.8,8.5.4,1.5.8,3,1.1,4.4Z"/>
        </g>
        <g>
          <path class="cls-5" d="M671.1,1252.2s20.6-1.3,39.2,6.8c0,0,7.8-18.3,8.8-35.1,0,0-20.3-8.5-44.4-7.3,0,0-4.8,14.8-3.7,35.7Z"/>
          <path class="cls-36" d="M713.3,1251c-7.7-3.4-24.7-7.7-42.4-7.7.2-8.5,1.2-15.5,2.2-20.2,13.1.8,29.6,2.9,45.2,8.1-1.2,7.5-3.2,14.6-5,19.8Z"/>
          <path class="cls-9" d="M715.6,1243.8c-19.5-5.5-34.7-7.4-44.2-8.1.1-1.7.3-3.3.5-4.8,16.9,1.1,34,5.3,44.8,8.5-.4,1.5-.8,3-1.1,4.4Z"/>
        </g>
        <g>
          <path class="cls-5" d="M710.5,932.5s29.3,11.1,62.8,16.5c0,0,1.9,23.7-5.2,46,0,0-33.4-2.5-66.4-17.9,0,0-2-18.9,8.7-44.6Z"/>
          <path class="cls-36" d="M769.5,986c-24.8-2.3-49-10.4-66.7-17.6.4-6.3,1.7-15.9,5.6-27.3,23.5,11.2,51.4,16.2,64.1,18-.1,6.9-.7,16.7-3,26.9Z"/>
          <path class="cls-9" d="M774.1,975.7c-15.3-2.1-46.7-7.4-72.5-19.2.4-2,.8-4.1,1.3-6.3,9.4,4.3,33.8,14,71.8,19.7-.2,1.9-.4,3.9-.6,5.9Z"/>
        </g>
        <g>
          <path class="cls-14" d="M1021.5,779.2c-21.8-25.6-65.7-34.2-65.7-34.2,22.6,29.2,1.9,80.9-56.6,80.9s-79.2-51.7-56.6-80.9c0,0-43.9,8.6-65.7,34.2,0,0-8.5,125.7,122.4,125.7s122.4-125.7,122.4-125.7Z"/>
          <path class="cls-8" d="M987,755.3c-16.6-7.4-31.3-10.2-31.3-10.2,22.6,29.2,1.9,80.9-56.6,80.9s-79.2-51.7-56.6-80.9c0,0-14.7,2.9-31.3,10.2-4.2,22.8-13.5,109,87.9,109s92.1-86.2,87.9-109Z"/>
          <path class="cls-39" d="M832.8,748.5c-15.9,29.7,2.3,88,66.4,88,64.1,0,82.3-58.3,66.4-88"/>
          <path class="cls-46" d="M978.4,751.8c-3.5-1.3-6.8-2.4-9.7-3.3,16.5,31.7-3.4,96.3-69.6,96.3s-86.1-64.6-69.6-96.3c-2.9.9-6.2,2-9.7,3.3-6.6,23.3-10.6,105.2,79.2,105.2s85.8-81.8,79.2-105.2Z"/>
          <path class="cls-21" d="M783.9,779.2s-8,118.5,115.3,118.5,115.3-118.5,115.3-118.5"/>
          <path class="cls-20" d="M1021.5,779.2c-21.8-25.6-65.7-34.2-65.7-34.2,22.6,29.2,1.9,80.9-56.6,80.9s-79.2-51.7-56.6-80.9c0,0-43.9,8.6-65.7,34.2,0,0-8.5,125.7,122.4,125.7s122.4-125.7,122.4-125.7Z"/>
          <g>
            <g>
              <path class="cls-47" d="M905.2,885.5c0,6.6-2.5,9.5-5.5,9.5-2.9,0-5.3-3-5.2-9.6,0-6.6,5.5-12.7,5.5-12.7,0,0,5.2,6.3,5.2,12.9Z"/>
              <path class="cls-44" d="M902.5,887c0,.8-.3,1.4-.8,1.9s-1.2.8-1.9.8-1.4-.3-1.9-.8-.8-1.2-.8-1.9.3-1.4.8-1.9,1.2-.8,1.9-.8,1.4.3,1.9.8.8,1.2.8,1.9Z"/>
            </g>
            <g>
              <path class="cls-47" d="M924.6,883.8c.5,6.4-1.5,9.4-4.4,9.6s-5.4-2.4-5.9-8.8,4.1-12.8,4.1-12.8c0,0,5.6,5.5,6.2,11.9Z"/>
              <path class="cls-44" d="M921.3,883.5c.5.4.9,1.1,1,1.8s-.1,1.4-.6,2-1.1.9-1.8,1-1.4-.1-2-.6-.9-1.1-1-1.8.1-1.4.6-2,1.1-.9,1.8-1,1.4.1,2,.6Z"/>
            </g>
            <g>
              <path class="cls-47" d="M941.4,879.7c1.2,6.1-.5,9.2-3.2,9.7-2.7.5-5.4-1.7-6.6-7.8-1.2-6.1,2.6-12.7,2.6-12.7,0,0,6,4.7,7.2,10.8Z"/>
              <path class="cls-44" d="M938.1,879.8c.6.3,1,.9,1.2,1.6s0,1.4-.3,2-.9,1-1.6,1.2-1.4,0-2-.3-1-.9-1.2-1.6,0-1.4.3-2,.9-1,1.6-1.2,1.4,0,2,.3Z"/>
            </g>
            <g>
              <path class="cls-47" d="M955.7,873.8c1.9,5.7.6,8.9-1.9,9.7s-5.4-1-7.3-6.7c-1.9-5.7,1-12.5,1-12.5,0,0,6.3,3.8,8.2,9.5Z"/>
              <path class="cls-44" d="M952.5,874.2c.6.2,1.1.7,1.4,1.4s.3,1.3,0,2-.7,1.1-1.4,1.4-1.3.3-2,0-1.1-.7-1.4-1.4-.3-1.3,0-2,.7-1.1,1.4-1.4,1.3-.3,2,0Z"/>
            </g>
            <g>
              <path class="cls-47" d="M967.8,866.2c2.5,5.3,1.7,8.4-.7,9.5s-5.3-.3-7.8-5.6c-2.5-5.3-.5-12.1-.5-12.1,0,0,6.5,2.9,9,8.2Z"/>
              <path class="cls-44" d="M964.6,866.9c.6.1,1.2.5,1.6,1.1s.5,1.3.3,1.9-.5,1.2-1.1,1.6-1.3.5-1.9.3-1.2-.5-1.6-1.1-.5-1.3-.3-1.9.5-1.2,1.1-1.6,1.3-.5,1.9-.3Z"/>
            </g>
            <g>
              <path class="cls-47" d="M977.8,857.5c3,4.8,2.6,7.9.4,9.2-2.1,1.3-5.1.3-8.1-4.5-3-4.8-1.9-11.6-1.9-11.6,0,0,6.6,2.1,9.6,6.8Z"/>
              <path class="cls-44" d="M974.8,858.5c.6,0,1.2.3,1.7.8s.7,1.1.6,1.8-.3,1.2-.8,1.7-1.1.7-1.8.6-1.2-.3-1.7-.8-.7-1.1-.6-1.8.3-1.2.8-1.7,1.1-.7,1.8-.6Z"/>
            </g>
            <g>
              <path class="cls-47" d="M986.1,847.9c3.3,4.3,3.3,7.4,1.4,8.9-1.9,1.5-4.9.8-8.3-3.5-3.3-4.3-3-11-3-11,0,0,6.6,1.3,9.9,5.6Z"/>
              <path class="cls-44" d="M983.2,849.2c.6,0,1.2.1,1.7.5s.8,1,.9,1.6-.1,1.2-.5,1.7-1,.8-1.6.9-1.2-.1-1.7-.5-.8-1-.9-1.6.1-1.2.5-1.7,1-.8,1.6-.9Z"/>
            </g>
            <g>
              <path class="cls-47" d="M992.7,837.9c3.6,3.8,3.8,6.8,2.1,8.4s-4.7,1.2-8.3-2.7c-3.6-3.8-3.9-10.3-3.9-10.3,0,0,6.5.7,10,4.6Z"/>
              <path class="cls-44" d="M989.9,839.4c.6-.1,1.2,0,1.8.3s.9.9,1,1.5,0,1.2-.3,1.8-.9.9-1.5,1-1.2,0-1.8-.3-.9-.9-1-1.5,0-1.2.3-1.8.9-.9,1.5-1Z"/>
            </g>
            <g>
              <path class="cls-47" d="M997.9,827.6c3.7,3.5,4.1,6.4,2.6,8s-4.4,1.5-8.2-2-4.4-9.7-4.4-9.7c0,0,6.3.3,10,3.7Z"/>
              <path class="cls-44" d="M995.1,829.3c.6-.2,1.2-.2,1.7,0s1,.7,1.2,1.3.2,1.2,0,1.7-.7,1-1.3,1.2-1.2.2-1.7,0-1-.7-1.2-1.3-.2-1.2,0-1.7.7-1,1.3-1.2Z"/>
            </g>
            <g>
              <path class="cls-47" d="M1001.7,817.5c3.8,3.2,4.3,6,2.9,7.7-1.4,1.7-4.2,1.6-8-1.6-3.8-3.2-4.8-9.2-4.8-9.2,0,0,6.1,0,9.9,3.1Z"/>
              <path class="cls-44" d="M999,819.2c.5-.3,1.1-.3,1.7,0s1,.6,1.3,1.1.3,1.1,0,1.7-.6,1-1.1,1.3-1.1.3-1.7,0-1-.6-1.3-1.1-.3-1.1,0-1.7.6-1,1.1-1.3Z"/>
            </g>
            <g>
              <path class="cls-47" d="M1004.4,806.7c3.8,3,4.4,5.7,3,7.4s-4.1,1.7-7.9-1.3c-3.8-3-4.9-8.8-4.9-8.8,0,0,6-.2,9.7,2.7Z"/>
              <path class="cls-44" d="M1001.7,808.6c.5-.3,1.1-.4,1.6-.2s1,.5,1.3,1,.4,1.1.2,1.6-.5,1-1,1.3-1.1.4-1.6.2-1-.5-1.3-1-.4-1.1-.2-1.6.5-1,1-1.3Z"/>
            </g>
            <g>
              <path class="cls-47" d="M1006.2,795.6c3.7,2.9,4.4,5.5,3.1,7.1s-4,1.8-7.7-1.1-4.9-8.6-4.9-8.6c0,0,5.8-.3,9.6,2.5Z"/>
              <path class="cls-44" d="M1003.5,797.6c.5-.3,1-.4,1.6-.3s1,.4,1.3.9.4,1,.3,1.6-.4,1-.9,1.3-1,.4-1.6.3-1-.4-1.3-.9-.4-1-.3-1.6.4-1,.9-1.3Z"/>
            </g>
            <g>
              <path class="cls-47" d="M1007.7,783.8c3.6,2.8,4.2,5.3,2.9,6.9s-3.8,1.7-7.4-1.1-4.7-8.2-4.7-8.2c0,0,5.6-.3,9.2,2.5Z"/>
              <path class="cls-44" d="M1005,785.8c.4-.4.9-.5,1.4-.5s1,.3,1.4.7.5.9.5,1.4-.3,1-.7,1.4-.9.5-1.4.5-1-.3-1.4-.7-.5-.9-.5-1.4.3-1,.7-1.4Z"/>
            </g>
            <g>
              <path class="cls-47" d="M1007.8,772.3c3.3,2.9,3.7,5.4,2.3,6.9-1.3,1.5-3.8,1.3-7.1-1.6s-4-8.3-4-8.3c0,0,5.4.1,8.7,3Z"/>
              <path class="cls-44" d="M1007.4,774.3c.4.3.6.8.6,1.3s-.1.9-.5,1.3-.8.6-1.3.6-.9-.1-1.3-.5c-.7-.7-.8-1.8-.1-2.6s1.8-.8,2.6-.1Z"/>
            </g>
            <g>
              <path class="cls-47" d="M875.4,883.8c-.5,6.4,1.5,9.4,4.4,9.6s5.4-2.4,5.9-8.8c.5-6.4-4.1-12.8-4.1-12.8,0,0-5.6,5.5-6.2,11.9Z"/>
              <path class="cls-44" d="M878.7,883.5c-.5.4-.9,1.1-1,1.8s.1,1.4.6,2,1.1.9,1.8,1,1.4-.1,2-.6.9-1.1,1-1.8-.1-1.4-.6-2-1.1-.9-1.8-1-1.4.1-2,.6Z"/>
            </g>
            <g>
              <path class="cls-47" d="M858.6,879.7c-1.2,6.1.5,9.2,3.2,9.7s5.4-1.7,6.6-7.8c1.2-6.1-2.6-12.7-2.6-12.7,0,0-6,4.7-7.2,10.8Z"/>
              <path class="cls-44" d="M861.9,879.8c-.6.3-1,.9-1.2,1.6s0,1.4.3,2,.9,1,1.6,1.2,1.4,0,2-.3,1-.9,1.2-1.6,0-1.4-.3-2-.9-1-1.6-1.2-1.4,0-2,.3Z"/>
            </g>
            <g>
              <path class="cls-47" d="M844.3,873.8c-1.9,5.7-.6,8.9,1.9,9.7s5.4-1,7.3-6.7-1-12.5-1-12.5c0,0-6.3,3.8-8.2,9.5Z"/>
              <path class="cls-44" d="M847.5,874.2c-.6.2-1.1.7-1.4,1.4s-.3,1.3,0,2,.7,1.1,1.4,1.4,1.3.3,2,0,1.1-.7,1.4-1.4.3-1.3,0-2-.7-1.1-1.4-1.4-1.3-.3-2,0Z"/>
            </g>
            <g>
              <path class="cls-47" d="M832.2,866.2c-2.5,5.3-1.7,8.4.7,9.5s5.3-.3,7.8-5.6c2.5-5.3.5-12.1.5-12.1,0,0-6.5,2.9-9,8.2Z"/>
              <path class="cls-44" d="M835.4,866.9c-.6.1-1.2.5-1.6,1.1s-.5,1.3-.3,1.9.5,1.2,1.1,1.6,1.3.5,1.9.3,1.2-.5,1.6-1.1.5-1.3.3-1.9-.5-1.2-1.1-1.6-1.3-.5-1.9-.3Z"/>
            </g>
            <g>
              <path class="cls-47" d="M822.2,857.5c-3,4.8-2.6,7.9-.4,9.2,2.1,1.3,5.1.3,8.1-4.5,3-4.8,1.9-11.6,1.9-11.6,0,0-6.6,2.1-9.6,6.8Z"/>
              <path class="cls-44" d="M825.2,858.5c-.6,0-1.2.3-1.7.8s-.7,1.1-.6,1.8.3,1.2.8,1.7,1.1.7,1.8.6,1.2-.3,1.7-.8.7-1.1.6-1.8-.3-1.2-.8-1.7-1.1-.7-1.8-.6Z"/>
            </g>
            <g>
              <path class="cls-47" d="M813.9,847.9c-3.3,4.3-3.3,7.4-1.4,8.9,1.9,1.5,4.9.8,8.3-3.5,3.3-4.3,3-11,3-11,0,0-6.6,1.3-9.9,5.6Z"/>
              <path class="cls-44" d="M816.8,849.2c-.6,0-1.2.1-1.7.5s-.8,1-.9,1.6.1,1.2.5,1.7,1,.8,1.6.9,1.2-.1,1.7-.5.8-1,.9-1.6-.1-1.2-.5-1.7-1-.8-1.6-.9Z"/>
            </g>
            <g>
              <path class="cls-47" d="M807.3,837.9c-3.6,3.8-3.8,6.8-2.1,8.4,1.7,1.6,4.7,1.2,8.3-2.7,3.6-3.8,3.9-10.3,3.9-10.3,0,0-6.5.7-10,4.6Z"/>
              <path class="cls-44" d="M810.1,839.4c-.6-.1-1.2,0-1.8.3s-.9.9-1,1.5,0,1.2.3,1.8.9.9,1.5,1,1.2,0,1.8-.3.9-.9,1-1.5,0-1.2-.3-1.8-.9-.9-1.5-1Z"/>
            </g>
            <g>
              <path class="cls-47" d="M802.1,827.6c-3.7,3.5-4.1,6.4-2.6,8,1.5,1.7,4.4,1.5,8.2-2,3.7-3.5,4.4-9.7,4.4-9.7,0,0-6.3.3-10,3.7Z"/>
              <path class="cls-44" d="M804.9,829.3c-.6-.2-1.2-.2-1.7,0s-1,.7-1.2,1.3-.2,1.2,0,1.7.7,1,1.3,1.2,1.2.2,1.7,0,1-.7,1.2-1.3.2-1.2,0-1.7-.7-1-1.3-1.2Z"/>
            </g>
            <g>
              <path class="cls-47" d="M798.3,817.5c-3.8,3.2-4.3,6-2.9,7.7,1.4,1.7,4.2,1.6,8-1.6,3.8-3.2,4.8-9.2,4.8-9.2,0,0-6.1,0-9.9,3.1Z"/>
              <path class="cls-44" d="M801,819.2c-.5-.3-1.1-.3-1.7,0s-1,.6-1.3,1.1-.3,1.1,0,1.7.6,1,1.1,1.3,1.1.3,1.7,0,1-.6,1.3-1.1.3-1.1,0-1.7-.6-1-1.1-1.3Z"/>
            </g>
            <g>
              <path class="cls-47" d="M795.6,806.7c-3.8,3-4.4,5.7-3,7.4,1.3,1.7,4.1,1.7,7.9-1.3,3.8-3,4.9-8.8,4.9-8.8,0,0-6-.2-9.7,2.7Z"/>
              <path class="cls-44" d="M798.3,808.6c-.5-.3-1.1-.4-1.6-.2s-1,.5-1.3,1-.4,1.1-.2,1.6.5,1,1,1.3,1.1.4,1.6.2,1-.5,1.3-1,.4-1.1.2-1.6-.5-1-1-1.3Z"/>
            </g>
            <g>
              <path class="cls-47" d="M793.8,795.6c-3.7,2.9-4.4,5.5-3.1,7.1s4,1.8,7.7-1.1,4.9-8.6,4.9-8.6c0,0-5.8-.3-9.6,2.5Z"/>
              <path class="cls-44" d="M796.5,797.6c-.5-.3-1-.4-1.6-.3s-1,.4-1.3.9-.4,1-.3,1.6.4,1,.9,1.3,1,.4,1.6.3,1-.4,1.3-.9.4-1,.3-1.6-.4-1-.9-1.3Z"/>
            </g>
            <g>
              <path class="cls-47" d="M792.3,783.8c-3.6,2.8-4.2,5.3-2.9,6.9s3.8,1.7,7.4-1.1c3.6-2.8,4.7-8.2,4.7-8.2,0,0-5.6-.3-9.2,2.5Z"/>
              <path class="cls-44" d="M795,785.8c-.4-.4-.9-.5-1.4-.5s-1,.3-1.4.7-.5.9-.5,1.4.3,1,.7,1.4.9.5,1.4.5,1-.3,1.4-.7.5-.9.5-1.4-.3-1-.7-1.4Z"/>
            </g>
            <g>
              <path class="cls-47" d="M792.2,772.3c-3.3,2.9-3.7,5.4-2.3,6.9s3.8,1.3,7.1-1.6,4-8.3,4-8.3c0,0-5.4.1-8.7,3Z"/>
              <path class="cls-44" d="M792.6,774.3c-.4.3-.6.8-.6,1.3s.1.9.5,1.3.8.6,1.3.6.9-.1,1.3-.5c.7-.7.8-1.8.1-2.6s-1.8-.8-2.6-.1Z"/>
            </g>
          </g>
        </g>
        <g>
          <g>
            <path class="cls-34" d="M1025.1,1206.5c-12-61.6-22.9-87.5-22.9-87.5,0,0-32.2,22-102.2,22s-102.2-22-102.2-22c0,0-10.9,25.9-22.9,87.5-12,61.6-20.1,183.9-10.9,228.6,0,0,54.1,28.9,136,28.9s136-28.9,136-28.9c9.3-44.7,1.1-167-10.9-228.6Z"/>
            <g>
              <path class="cls-10" d="M785.1,1157.5s93.8,331.1,241.9,290.8c7.5-2,12.8-8.8,13-16.6.8-38,7.3-180.8-25.1-274.2,0,0-103.9,27.2-229.7,0Z"/>
              <g class="cls-51">
                <g>
                  <path class="cls-38" d="M806.3,1141.3s89.1,314.7,229.9,276.3c7.1-1.9,12.2-8.3,12.3-15.7"/>
                  <path class="cls-38" d="M831,1140.2s78.5,277.1,202.4,243.4c6.3-1.7,10.7-7.3,10.9-13.9"/>
                  <path class="cls-38" d="M855.8,1139s67.9,239.6,175,210.4c5.4-1.5,9.3-6.3,9.4-12"/>
                  <path class="cls-38" d="M880.5,1137.9s57.2,202,147.6,177.4c4.6-1.2,7.8-5.3,7.9-10.1"/>
                  <path class="cls-38" d="M905.3,1136.7s46.6,164.5,120.1,144.4,6.4-4.4,6.4-8.2"/>
                  <path class="cls-38" d="M930.1,1135.6s35.9,126.9,92.7,111.4c2.9-.8,4.9-3.4,5-6.3"/>
                  <path class="cls-38" d="M954.8,1134.4s25.3,89.3,65.3,78.5c2-.6,3.5-2.4,3.5-4.5"/>
                  <path class="cls-38" d="M979.6,1133.3s14.7,51.8,37.8,45.5c1.2-.3,2-1.4,2-2.6"/>
                </g>
              </g>
            </g>
          </g>
          <g>
            <path class="cls-24" d="M1051.7,1423.3c4.3,34.3,21.4,51,33.9,96.7,12.5,45.7,23.9,277.1,36.8,334.9l-22.5,3.2s-15.5-122.6-25.2-189.5c-9.6-66.9-15.1-113-20.8-144.4-5.7-31.4-1-82.8-5.7-101h3.5Z"/>
            <path class="cls-18" d="M1099.9,1858.2l22.5-3.2c-10.5-47.1-20-209.6-29.9-292.8l-19.3-10.2-12.7,14.3c3.8,27,8.2,60.7,14.2,102.4,9.6,66.9,25.2,189.5,25.2,189.5Z"/>
            <g class="cls-49">
              <g>
                <polyline class="cls-45" points="1100.8 1573.9 1075.3 1560.4 1058.5 1579.4"/>
                <polyline class="cls-45" points="1102.5 1589.1 1077 1575.5 1060.2 1594.5"/>
                <polyline class="cls-45" points="1104.3 1604.2 1078.7 1590.7 1061.9 1609.7"/>
                <polyline class="cls-45" points="1106 1619.4 1080.5 1605.8 1063.7 1624.8"/>
                <polyline class="cls-45" points="1107.7 1634.5 1082.2 1621 1065.4 1640"/>
                <polyline class="cls-45" points="1109.5 1649.7 1083.9 1636.1 1067.1 1655.1"/>
                <polyline class="cls-45" points="1111.2 1664.8 1085.7 1651.3 1068.9 1670.3"/>
                <polyline class="cls-45" points="1112.9 1680 1087.4 1666.5 1070.6 1685.4"/>
                <polyline class="cls-45" points="1114.7 1695.2 1089.1 1681.6 1072.3 1700.6"/>
                <polyline class="cls-45" points="1116.4 1710.3 1090.9 1696.8 1074.1 1715.8"/>
                <polyline class="cls-45" points="1118.1 1725.5 1092.6 1711.9 1075.8 1730.9"/>
                <polyline class="cls-45" points="1119.9 1740.6 1094.3 1727.1 1077.5 1746.1"/>
                <polyline class="cls-45" points="1121.6 1755.8 1096.1 1742.2 1079.3 1761.2"/>
                <polyline class="cls-45" points="1123.3 1770.9 1097.8 1757.4 1081 1776.4"/>
                <polyline class="cls-45" points="1125.1 1786.1 1099.5 1772.6 1082.7 1791.5"/>
                <polyline class="cls-45" points="1126.8 1801.2 1101.3 1787.7 1084.5 1806.7"/>
                <polyline class="cls-45" points="1128.5 1816.4 1103 1802.9 1086.2 1821.9"/>
                <polyline class="cls-45" points="1130.3 1831.6 1104.7 1818 1087.9 1837"/>
                <polyline class="cls-45" points="1132 1846.7 1106.5 1833.2 1089.7 1852.2"/>
                <polyline class="cls-45" points="1133.7 1861.9 1108.2 1848.3 1091.4 1867.3"/>
              </g>
            </g>
            <path class="cls-9" d="M1049.3,1423.3c-1.8,0-3.4-1.3-3.8-3.1-6.9-36.5-8.5-77.4-10-116.8-2.5-65.5-4.9-127.5-32.9-143.1-1.9-1-2.5-3.4-1.5-5.3,1-1.9,3.4-2.5,5.3-1.5,31.8,17.7,34.1,78.8,36.9,149.5,1.5,39.2,3.1,79.7,9.9,115.7.4,2.1-1,4.1-3.1,4.5-.2,0-.5,0-.7,0Z"/>
          </g>
          <g>
            <path class="cls-5" d="M1004.3,1124.6s-38.3,31.2-104.3,31.2-104.3-31.2-104.3-31.2c0,0-10.5,10.8-10.5,32.9,0,0,59.7,25.8,114.9,25.8s114.9-25.8,114.9-25.8c0-22.1-10.5-32.9-10.5-32.9Z"/>
            <path class="cls-42" d="M1006.6,1130.3s-39.2,31.2-106.6,31.2-106.6-31.2-106.6-31.2"/>
            <path class="cls-38" d="M1014.2,1146.1s-56.4,30.4-115.4,30.4-113-30.4-113-30.4"/>
            <path class="cls-40" d="M1014.2,1150.6s-55.2,29.2-114.2,29.2-114.2-29.2-114.2-29.2"/>
            <path class="cls-23" d="M789.8,1134c-1.3,2.9-2.5,4.5-3.4,8.7,21.1,10.3,68.7,30.9,113.6,30.9s92.5-20.5,113.6-30.9c-.9-4.2-2.1-5.8-3.4-8.7-13.5,9.2-52.9,32.2-110.2,32.2s-96.7-23-110.2-32.2Z"/>
            <path class="cls-9" d="M917,1161.5h-34s-4.6,3.4-4.6,8.5,4.6,8.5,4.6,8.5h34s4.6-3.4,4.6-8.5-4.6-8.5-4.6-8.5Z"/>
            <path class="cls-12" d="M1004.3,1124.6s-38.3,31.2-104.3,31.2-104.3-31.2-104.3-31.2c0,0-10.5,10.8-10.5,32.9,0,0,59.7,25.8,114.9,25.8s114.9-25.8,114.9-25.8c0-22.1-10.5-32.9-10.5-32.9Z"/>
          </g>
        </g>
        <g>
          <path class="cls-5" d="M1039.5,1779.8s-20.3,5.5-54.1,2.1c0,0-6.9,27-1.9,52.3,0,0,19.8,7.7,55.6,1.3,0,0,7.4-28.4.3-55.7Z"/>
          <path class="cls-36" d="M983.6,1791.4c-1.3,8.3-2.6,21-1.3,34.1,20.4,3.3,42.2,3.8,58.7-.3,1.1-8.6,2-21.5,0-35.1-20.1,4.1-41.4,3.4-57.4,1.3Z"/>
          <path class="cls-9" d="M982,1805.5c-.1,2.2-.2,4.5-.3,6.9,16.9,2.1,37.9,2.8,60.3-1,0-2.2,0-4.5,0-6.9-15.3,2.8-36.3,3.8-60.1,1Z"/>
        </g>
        <g>
          <path class="cls-5" d="M760.5,1779.8s20.3,5.5,54.1,2.1c0,0,6.9,27,1.9,52.3,0,0-19.8,7.7-55.6,1.3,0,0-7.4-28.4-.3-55.7Z"/>
          <path class="cls-36" d="M816.4,1791.4c1.3,8.3,2.6,21,1.3,34.1-20.4,3.3-42.2,3.8-58.7-.3-1.1-8.6-2-21.5,0-35.1,20.1,4.1,41.4,3.4,57.4,1.3Z"/>
          <path class="cls-9" d="M818,1805.5c.1,2.2.2,4.5.3,6.9-16.9,2.1-37.9,2.8-60.3-1,0-2.2,0-4.5,0-6.9,15.3,2.8,36.3,3.8,60.1,1Z"/>
        </g>
        <polygon class="cls-13" points="938.9 563.4 912.5 550.3 922.3 538.1 939.3 408.5 962.6 416.1 984.7 417.7 947.5 528.9 938.9 563.4"/>
        <polygon class="cls-13" points="859.5 563.4 885.8 550.3 876.1 538.1 859 408.5 835.8 416.1 813.6 417.7 850.8 528.9 859.5 563.4"/>
        <g>
          <polyline class="cls-29" points="980 722 992 905 939.8 905 940.8 692"/>
          <rect class="cls-4" x="939.8" y="905" width="52.1" height="29.5"/>
          <line class="cls-43" x1="946" y1="913.2" x2="985.8" y2="913.2"/>
          <line class="cls-43" x1="946" y1="919.7" x2="985.8" y2="919.7"/>
          <line class="cls-43" x1="946" y1="926.3" x2="985.8" y2="926.3"/>
        </g>
        <g>
          <polyline class="cls-29" points="818.3 722 806.3 905 858.5 905 857.5 692"/>
          <rect class="cls-4" x="806.3" y="905" width="52.1" height="29.5"/>
          <line class="cls-43" x1="852.3" y1="913.2" x2="812.5" y2="913.2"/>
          <line class="cls-43" x1="852.3" y1="919.7" x2="812.5" y2="919.7"/>
          <line class="cls-43" x1="852.3" y1="926.3" x2="812.5" y2="926.3"/>
        </g>
        <g>
          <path class="cls-17" d="M975.7,636.5c.3-35.3-24.3-43.8-32.2-64.2-5.3-13.6-6.8-27.2-44.3-27.2s-39,13.6-44.3,27.2c-7.9,20.4-32.6,28.9-32.2,64.2.3,35.3,19.2,27.9,26.3,66.3,6.5,35.1,25.1,46.9,21.4,69.3-3.7,22.3-1.9,57.7,28.8,46,30.7,11.7,32.5-23.7,28.8-46-3.7-22.3,14.8-34.1,21.4-69.3,7.1-38.5,26-31,26.3-66.3Z"/>
          <path class="cls-27" d="M883.6,757.1s-6.5,51,15.6,51,15.6-51,15.6-51"/>
          <path class="cls-27" d="M930.5,665.1s-12.1,33.3-12.1,64.1"/>
          <path class="cls-27" d="M867.9,665.1s12.1,33.3,12.1,64.1"/>
          <path class="cls-19" d="M911.4,640.2s1.3,7.3,6.9,9.5"/>
          <path class="cls-19" d="M886.9,640.2s-1.3,7.3-6.9,9.5"/>
          <circle class="cls-50" cx="945.4" cy="650.7" r="5.2"/>
          <circle class="cls-50" cx="853" cy="650.7" r="5.2"/>
          <path class="cls-11" d="M930,639.1s11.2-14.8,26.9-15.8"/>
          <path class="cls-11" d="M868.3,639.1s-11.2-14.8-26.9-15.8"/>
          <path class="cls-27" d="M942.8,725.3c5.3-20.9-1.9-24.7,2.9-41.1"/>
          <path class="cls-27" d="M855.6,725.3c-5.3-20.9,1.9-24.7-2.9-41.1"/>
          <path class="cls-37" d="M880,541.9s9.2,37.9,19.2,37.9,19.2-37.9,19.2-37.9"/>
        </g>
      </g>
      <g>
        <g>
          <path class="cls-26" d="M1174.2,1866.5c5.3,9.2,9.6,11.9,15.4,21.9,5.8,10.1-1.5,20.4,2.2,43.4,2.9,18.1-4.9,48.2,0,53.9,4.9,5.6,11.8-1.2,13.4-6.4,2.6-8.6-.8-25.3,4.6-28.5,5.4-3.1,9.9,3.5,12.9,11.8,3,8.2,19.4,30.3,22,34.5,2.6,4.2,15.3,16,18.1,14.3,2.9-1.7,3-5.1,3-5.1,0,0,5.1,7.4,10.4,4.4,5.3-3.1.3-11,.3-11,0,0,2.1,1.7,5.3-.1,3.2-1.8,1-9.4-2.1-14.7,0,0,2.7,2.7,5,1.3,2.3-1.3,3.4-5.9.2-11.6-3.3-5.7-5-15.8-8.6-22.1-3.6-6.3-10.7-17.4-12.6-23.9-2-6.5-1.8-10.5-5.5-14.6-3.7-4.1-17.1-26-25.5-35.8-8.4-9.8-16.8-26-21-33.3,0,0-8.7.2-22,7.8-13.3,7.7-15.4,13.8-15.4,13.8Z"/>
          <path class="cls-11" d="M1265.9,2006.3s-6.3-15.6-12.5-22.6c-6.2-7-14.1-22.7-15.3-29.2"/>
          <path class="cls-11" d="M1276.6,1999.7s-4.6-12.5-7.3-15.4c-2.7-2.9-7.6-18.1-12.2-23.8-4.6-5.7-7.2-15-7.2-15"/>
          <path class="cls-11" d="M1279.8,1984.8c-2.5-5.2-4.7-16.9-9.9-24.5-5.1-7.6-7.3-17.9-10.9-24.2"/>
        </g>
        <g>
          <path class="cls-26" d="M1404.7,1897c-7.2-11.3-17.6-26.7-37.8-47.3-6.3-6.4-12.7-13.5-12.7-13.5,0,0-6.7-1.7-18.4,5.6-11.7,7.3-14.4,18.3-14.4,18.3,0,0,7.2,10.6,5.9,15.9-2,7.9-7.4,25.7.8,38.9,8.2,13.2,11.4,23.4,15.7,27.3,6.4,5.8,10.6,13.5,16.4,9.9,2.4-1.5,3.3-4.1,3.3-4.1,0,0,4.6,4.7,9.5,1.6s6.8-7.1,6.8-7.1c0,0,3.5,1.1,9.1-2.4,5.5-3.5,5.7-11,5.7-11,0,0,3.1-1,6.6-3.2,3.5-2.2,2.6-8.5,2.6-8.5,0,0,11.3-6.5,1.1-20.6Z"/>
          <path class="cls-7" d="M1363.4,1948.1c-7.1-6.2-6.9-17-20.6-32.8"/>
          <path class="cls-7" d="M1379.7,1942.7c-.7-9.2-5.2-13.9-5.9-20.3"/>
          <path class="cls-7" d="M1394.4,1929.3c0-3.9-4.4-6.4-5.7-16.8"/>
          <path class="cls-7" d="M1403.6,1917.6c-2.7-4.3-1.9-9.2-5-14.3"/>
        </g>
        <g>
          <path class="cls-26" d="M625.8,1866.5c-5.3,9.2-9.6,11.9-15.4,21.9-5.8,10.1,1.5,20.4-2.2,43.4-2.9,18.1,4.9,48.2,0,53.9-4.9,5.6-11.8-1.2-13.4-6.4-2.6-8.6.8-25.3-4.6-28.5-5.4-3.1-9.9,3.5-12.9,11.8-3,8.2-19.4,30.3-22,34.5-2.6,4.2-15.3,16-18.1,14.3-2.9-1.7-3-5.1-3-5.1,0,0-5.1,7.4-10.4,4.4-5.3-3.1-.3-11-.3-11,0,0-2.1,1.7-5.3-.1-3.2-1.8-1-9.4,2.1-14.7,0,0-2.7,2.7-5,1.3-2.3-1.3-3.4-5.9-.2-11.6,3.3-5.7,5-15.8,8.6-22.1,3.6-6.3,10.7-17.4,12.6-23.9,2-6.5,1.8-10.5,5.5-14.6,3.7-4.1,17.1-26,25.5-35.8,8.4-9.8,16.8-26,21-33.3,0,0,8.7.2,22,7.8,13.3,7.7,15.4,13.8,15.4,13.8Z"/>
          <path class="cls-11" d="M534.1,2006.3s6.3-15.6,12.5-22.6c6.2-7,14.1-22.7,15.3-29.2"/>
          <path class="cls-11" d="M523.4,1999.7s4.6-12.5,7.3-15.4c2.7-2.9,7.6-18.1,12.2-23.8,4.6-5.7,7.2-15,7.2-15"/>
          <path class="cls-11" d="M520.2,1984.8c2.5-5.2,4.7-16.9,9.9-24.5,5.1-7.6,7.3-17.9,10.9-24.2"/>
        </g>
        <g>
          <path class="cls-26" d="M395.3,1897c7.2-11.3,17.6-26.7,37.8-47.3,6.3-6.4,12.7-13.5,12.7-13.5,0,0,6.7-1.7,18.4,5.6,11.7,7.3,14.4,18.3,14.4,18.3,0,0-7.2,10.6-5.9,15.9,2,7.9,7.4,25.7-.8,38.9-8.2,13.2-11.4,23.4-15.7,27.3-6.4,5.8-10.6,13.5-16.4,9.9-2.4-1.5-3.3-4.1-3.3-4.1,0,0-4.6,4.7-9.5,1.6-4.9-3.1-6.8-7.1-6.8-7.1,0,0-3.5,1.1-9.1-2.4-5.5-3.5-5.7-11-5.7-11,0,0-3.1-1-6.6-3.2-3.5-2.2-2.6-8.5-2.6-8.5,0,0-11.3-6.5-1.1-20.6Z"/>
          <path class="cls-7" d="M436.6,1948.1c7.1-6.2,6.9-17,20.6-32.8"/>
          <path class="cls-7" d="M420.3,1942.7c.7-9.2,5.2-13.9,5.9-20.3"/>
          <path class="cls-7" d="M405.6,1929.3c0-3.9,4.4-6.4,5.7-16.8"/>
          <path class="cls-7" d="M396.4,1917.6c2.7-4.3,1.9-9.2,5-14.3"/>
        </g>
      </g>
      <path class="cls-1" d="M618.3,1616.1l1.1-8.6-43.7,3.1v-1.7c11.7-9.8,28.4-44.7,28.4-71.4s-18.5-39.6-34-39.6-34,8.2-34,39.6,16.8,61.7,28.5,71.4v1.7s-43.8-3.1-43.8-3.1l1.1,8.6-1.1,8.6,43.4-3-2.7,91.5,8.6-2.7,8.6,2.7-2.7-91.5,43.4,3-1.1-8.6ZM555.8,1579.4c-6.8-14.7-10.6-30-10.6-41.9s2.8-19.9,8.2-24.9c5.2-4.7,12-5.7,16.8-5.7s11.6,1,16.8,5.7c5.5,5,8.2,13.4,8.2,24.9s-3.9,27.2-10.6,41.9c-5.9,12.8-11.6,19.9-14.4,22.4-2.8-2.5-8.5-9.6-14.4-22.4Z"/>
    </g>
  </g>
</svg>