<?xml version="1.0" encoding="UTF-8"?>
<svg xmlns="http://www.w3.org/2000/svg" version="1.1" xmlns:xlink="http://www.w3.org/1999/xlink" viewBox="0 0 1200 900">
  <defs>
    <style>
      .cls-1, .cls-2, .cls-3, .cls-4, .cls-5, .cls-6, .cls-7, .cls-8, .cls-9, .cls-10, .cls-11, .cls-12, .cls-13, .cls-14, .cls-15, .cls-16, .cls-17, .cls-18, .cls-19, .cls-20, .cls-21, .cls-22, .cls-23, .cls-24, .cls-25, .cls-26, .cls-27, .cls-28, .cls-29, .cls-30, .cls-31, .cls-32, .cls-33, .cls-34, .cls-35, .cls-36, .cls-37, .cls-38, .cls-39 {
        stroke: #434e5f;
      }

      .cls-1, .cls-4, .cls-5, .cls-8, .cls-9, .cls-12, .cls-13, .cls-14, .cls-18, .cls-19, .cls-20, .cls-22, .cls-24, .cls-25, .cls-26, .cls-27, .cls-28, .cls-30, .cls-40, .cls-32, .cls-33, .cls-34, .cls-35, .cls-36, .cls-38 {
        stroke-linejoin: round;
      }

      .cls-1, .cls-9, .cls-19, .cls-36 {
        fill: #fce2da;
      }

      .cls-2, .cls-3, .cls-6, .cls-7, .cls-10, .cls-11, .cls-15, .cls-16, .cls-41, .cls-42, .cls-17, .cls-43, .cls-21, .cls-23, .cls-44, .cls-29, .cls-31, .cls-37, .cls-39 {
        stroke-miterlimit: 10;
      }

      .cls-2, .cls-6, .cls-8, .cls-45, .cls-16, .cls-41, .cls-20, .cls-24, .cls-25, .cls-30, .cls-35, .cls-37 {
        fill: #fff;
      }

      .cls-3, .cls-7, .cls-10, .cls-16, .cls-43, .cls-20, .cls-22, .cls-44, .cls-28, .cls-30, .cls-40 {
        stroke-linecap: round;
      }

      .cls-3, .cls-7, .cls-42, .cls-46, .cls-43, .cls-22, .cls-44, .cls-28, .cls-29, .cls-31, .cls-40, .cls-32 {
        fill: none;
      }

      .cls-3, .cls-28, .cls-31 {
        stroke-width: .6px;
      }

      .cls-4 {
        fill: #af4820;
      }

      .cls-4, .cls-18, .cls-38 {
        stroke-width: .2px;
      }

      .cls-5, .cls-9, .cls-22, .cls-23, .cls-24, .cls-30 {
        stroke-width: 2px;
      }

      .cls-5, .cls-11, .cls-12, .cls-14, .cls-15, .cls-47, .cls-23, .cls-27, .cls-39 {
        fill: #d33c67;
      }

      .cls-6, .cls-10, .cls-12, .cls-13, .cls-15, .cls-21, .cls-26, .cls-36 {
        stroke-width: 3px;
      }

      .cls-7, .cls-16, .cls-19, .cls-37, .cls-39 {
        stroke-width: .5px;
      }

      .cls-8, .cls-43, .cls-27, .cls-32, .cls-34 {
        stroke-width: 4px;
      }

      .cls-10 {
        fill: #00a99d;
      }

      .cls-48, .cls-17, .cls-21, .cls-33 {
        fill: #ffe48c;
      }

      .cls-49, .cls-13, .cls-34 {
        fill: #434e5f;
      }

      .cls-41 {
        stroke: #000;
      }

      .cls-42, .cls-43, .cls-44 {
        stroke: #fff;
      }

      .cls-18 {
        fill: #de9371;
      }

      .cls-20, .cls-44 {
        stroke-width: 5px;
      }

      .cls-50 {
        clip-path: url(#clippath-1);
      }

      .cls-26 {
        fill: #bed9ed;
      }

      .cls-40 {
        stroke: #2e3192;
      }

      .cls-35 {
        stroke-width: .8px;
      }

      .cls-51 {
        clip-path: url(#clippath);
      }

      .cls-38 {
        fill: #fcf2d9;
      }
    </style>
    <clipPath id="clippath">
      <rect class="cls-46" x="-1327" width="1200" height="900"/>
    </clipPath>
    <clipPath id="clippath-1">
      <rect class="cls-46" width="1200" height="900"/>
    </clipPath>
  </defs>
  <!-- Generator: Adobe Illustrator 28.7.4, SVG Export Plug-In . SVG Version: 1.2.0 Build 166)  -->
  <g>
    <g id="Layer_1">
      <g class="cls-51">
        <g>
          <rect class="cls-47" x="-575.2" y="-266" width="40" height="1563" transform="translate(-527.1 -241.6) rotate(-45)"/>
          <rect class="cls-49" x="-474.1" y="-266" width="40" height="1563" transform="translate(-497.5 -170.1) rotate(-45)"/>
          <rect class="cls-47" x="-372.9" y="-266" width="40" height="1563" transform="translate(-467.9 -98.6) rotate(-45)"/>
          <rect class="cls-49" x="-271.7" y="-266" width="40" height="1563" transform="translate(-438.2 -27) rotate(-45)"/>
          <rect class="cls-47" x="-170.6" y="-266" width="40" height="1563" transform="translate(-408.6 44.5) rotate(-45)"/>
          <rect class="cls-49" x="-69.4" y="-266" width="40" height="1563" transform="translate(-379 116.1) rotate(-45)"/>
          <rect class="cls-47" x="31.8" y="-266" width="40" height="1563" transform="translate(-349.3 187.6) rotate(-45)"/>
          <rect class="cls-49" x="132.9" y="-266" width="40" height="1563" transform="translate(-319.7 259.1) rotate(-45)"/>
          <rect class="cls-47" x="234.1" y="-266" width="40" height="1563" transform="translate(-290.1 330.7) rotate(-45)"/>
          <rect class="cls-49" x="335.3" y="-266" width="40" height="1563" transform="translate(-260.4 402.2) rotate(-45)"/>
          <rect class="cls-47" x="436.4" y="-266" width="40" height="1563" transform="translate(-230.8 473.7) rotate(-45)"/>
          <rect class="cls-49" x="537.6" y="-266" width="40" height="1563" transform="translate(-201.2 545.3) rotate(-45)"/>
          <rect class="cls-47" x="638.8" y="-266" width="40" height="1563" transform="translate(-171.6 616.8) rotate(-45)"/>
        </g>
      </g>
      <path class="cls-40" d="M144.5,353.9c-4.3,0-7.9-3.5-7.9-7.9s3.5-7.9,7.9-7.9v-10.2"/>
      <rect class="cls-41" width="1200" height="900"/>
      <g class="cls-50">
        <g>
          <rect class="cls-47" x="-462.2" y="-266" width="40" height="1563" transform="translate(-494 -161.7) rotate(-45)"/>
          <rect class="cls-49" x="-361.1" y="-266" width="40" height="1563" transform="translate(-464.4 -90.2) rotate(-45)"/>
          <rect class="cls-47" x="-259.9" y="-266" width="40" height="1563" transform="translate(-434.8 -18.7) rotate(-45)"/>
          <rect class="cls-49" x="-158.7" y="-266" width="40" height="1563" transform="translate(-405.1 52.9) rotate(-45)"/>
          <rect class="cls-47" x="-57.6" y="-266" width="40" height="1563" transform="translate(-375.5 124.4) rotate(-45)"/>
          <rect class="cls-49" x="43.6" y="-266" width="40" height="1563" transform="translate(-345.9 196) rotate(-45)"/>
          <rect class="cls-47" x="144.8" y="-266" width="40" height="1563" transform="translate(-316.2 267.5) rotate(-45)"/>
          <rect class="cls-49" x="245.9" y="-266" width="40" height="1563" transform="translate(-286.6 339) rotate(-45)"/>
          <rect class="cls-47" x="347.1" y="-266" width="40" height="1563" transform="translate(-257 410.6) rotate(-45)"/>
          <rect class="cls-49" x="448.3" y="-266" width="40" height="1563" transform="translate(-227.3 482.1) rotate(-45)"/>
          <rect class="cls-47" x="549.4" y="-266" width="40" height="1563" transform="translate(-197.7 553.6) rotate(-45)"/>
          <rect class="cls-49" x="650.6" y="-266" width="40" height="1563" transform="translate(-168.1 625.2) rotate(-45)"/>
          <rect class="cls-47" x="751.8" y="-266" width="40" height="1563" transform="translate(-138.5 696.7) rotate(-45)"/>
          <rect class="cls-49" x="852.9" y="-266" width="40" height="1563" transform="translate(-108.8 768.2) rotate(-45)"/>
          <rect class="cls-47" x="954.1" y="-266" width="40" height="1563" transform="translate(-79.2 839.8) rotate(-45)"/>
          <rect class="cls-49" x="1055.3" y="-266" width="40" height="1563" transform="translate(-49.6 911.3) rotate(-45)"/>
          <rect class="cls-47" x="1156.4" y="-266" width="40" height="1563" transform="translate(-19.9 982.8) rotate(-45)"/>
          <rect class="cls-49" x="1257.6" y="-266" width="40" height="1563" transform="translate(9.7 1054.4) rotate(-45)"/>
          <rect class="cls-47" x="1358.8" y="-266" width="40" height="1563" transform="translate(39.3 1125.9) rotate(-45)"/>
          <rect class="cls-49" x="1459.9" y="-266" width="40" height="1563" transform="translate(69 1197.5) rotate(-45)"/>
          <rect class="cls-47" x="1561.1" y="-266" width="40" height="1563" transform="translate(98.6 1269) rotate(-45)"/>
          <rect class="cls-49" x="1662.3" y="-266" width="40" height="1563" transform="translate(128.2 1340.5) rotate(-45)"/>
        </g>
      </g>
      <rect class="cls-45" x="189" y="-109" width="820" height="1120" transform="translate(1050 -148) rotate(90)"/>
      <g>
        <path class="cls-49" d="M353.8,238.1h-3.7c0,1.1,0,2.3-.1,3h3.5c-.1,2.4-.3,7.7-.7,8.9-.4,1.1-1.1,1.2-2.9,1.4,0-.4-.3-1-.6-1.5h1.6c.3,0,.6,0,.7-.7.2-.9.5-4.1.5-6.9h-2.2c-.4,4.7-1.1,6.3-2.5,8.7-.3-.4-.7-.9-1.1-1.1,1.1-1.8,1.7-2.9,2.1-5.8.1-1.2.4-3.3.4-6h-2.1v-1.3h3.1v-3.7h1.4v3.7h2.7v1.3ZM364.8,236v1.3h-8.8c-.6,1.1-1.1,2-1.8,3.1-.4-.3-.9-.6-1.3-.8,1.7-2.3,2.7-5,3.3-6.6l1.4.3c-.3,1-.7,1.9-1.1,2.7h8.3ZM358.3,241.5v10.3h-1.4v-9.8c-.5.2-1,.4-1.7.5-.1-.4-.4-1-.7-1.4,2.7-.5,5.9-1.8,8.3-2.9l.8,1.2c-1,.4-2,.8-2.7,1.1.1,1.1.2,2.2.4,3.3,1-.6,2.1-1.2,3.1-1.9l.7,1.2c-.9.6-2.2,1.3-3.4,2,.9,3,2.3,4.4,3.2,5.2-.3.2-.7.5-1.2,1-3.4-3.8-3.7-6.9-4.1-10.4l-1.4.5Z"/>
        <path class="cls-49" d="M375.5,241v6.8c3,2.2,4,2.3,10.1,2.3s3.2,0,4.8,0c-.3.5-.6.9-.7,1.4h-6.6c-3.9,0-5-.3-7.7-2-1.1.9-2.2,1.6-3.1,2.2l-.8-1.3c.8-.5,1.7-1,2.6-1.6v-6.3h-2.5v-1.3h3.9ZM375.4,236.3c-.9-.7-1.9-1.3-2.9-1.8l.7-1.2c1,.4,2,1.1,3,1.7l-.8,1.3ZM380.2,232.9v3h2.3v1.3h-2.8v2.9h2.8c0,4.9-.2,6.7-.3,6.9-.1,1.5-1,1.6-2.5,1.8,0-.4-.2-.9-.5-1.4h1.1c.4,0,.5,0,.6-.9.1-1,.2-3.2.2-5.2h-1.6c-.3,3-.8,4.8-2.1,6.9-.3-.3-.8-.7-1.2-.9,2.1-3.2,2.1-6.2,2.1-10.1h-2.1v-1.3h2.5v-3h1.4ZM389.9,235.4v1.2h-5c-.3.6-.7,1.2-1,1.7h5.3c0-.1,1,1,1,1-1.4,1.2-1.6,1.4-3.1,2.4v1.2h3.1v1.3h-3.1v3.1c0,1.1-.1,1.4-2.2,1.7-.1-.4-.3-.9-.7-1.5h1.3c.2,0,.3-.1.3-.3v-3h-2.8v-1.2h2.8v-2h.4c.7-.5,1.3-1,1.9-1.5h-4.2v-1.1c-.2.4-.5.8-.7,1.2-.3-.4-.7-.7-1-1,1.4-1.9,2-3.6,2.7-6l1.3.5c-.3.8-.5,1.6-.8,2.2h4.6Z"/>
        <path class="cls-49" d="M406.7,234.4c0,1,0,2,0,2.9,0,0,.6,4.9,3.5,8.5,1.5,1.9,3.6,3.4,5.4,4.3-.4.4-.7,1-.9,1.4-1.7-.8-3.1-1.9-4.7-3.7-1.8-1.9-2.8-4.2-3.7-6.8-.5,2-1.7,6.8-8.2,10.5-.2-.4-.6-.9-1-1.2,3.2-1.7,5.5-4,6.9-7,1.1-2.5,1.4-4.7,1.4-10.1h1.4v1Z"/>
        <path class="cls-49" d="M428.2,233v1.3h3.5v2h1.5v1.1h-1.5v2.1h-3.5v1.2h3.6v3.4h-4.4c-.2.4-.5.9-.7,1.4,2,0,3.1-.1,6.4-.3v1.1c-.6,0-1.5.1-2.2.1-.3.8-.7,1.7-1.3,2.5.6.3,1.4.6,2.1.9l-.7,1.2c-.8-.4-1.6-.8-2.2-1-.9.8-2.8,1.7-5.5,1.9,0-.4-.2-.9-.5-1.3,2.9-.2,4-.7,4.7-1.2-.7-.3-1.5-.6-2.3-.8l-.3.5-1.2-.6c.4-.6.7-1.2,1-1.8-.8,0-1.8.2-2.7.2l-.2-1.2c1.1,0,2.3-.1,3.4-.2.2-.4.5-.9.7-1.4h-2.6v-3.4h3.5v-1.2h-3.5v-2.1h-1.3v-1.1h1.3v-2h3.5v-1.3h1.3ZM424.7,241.6v1.6h2.2v-1.6h-2.2ZM424.7,235.3v1h2.2v-1h-2.2ZM424.7,237.3v1h2.2v-1h-2.2ZM425.7,247.6c.9.3,1.9.7,2.7.9.4-.5.8-1.3,1.1-2-1,0-2.1.1-3.3.2l-.5.9ZM428.2,235.3v1h2.2v-1h-2.2ZM428.2,237.3v1h2.2v-1h-2.2ZM428.2,241.6v1.6h2.3v-1.6h-2.3ZM440.6,237.6v1.3h-.9c-.3,2.3-.8,5.5-1.9,7.6,1,1.4,1.8,2.4,3.2,3.5-.3.3-.7.8-.9,1.2-1.3-1.2-2.1-2-3-3.5-1.4,1.9-2.1,2.4-3.9,3.8-.1-.3-.5-.8-.8-1.1,1.6-1.1,2.7-1.9,3.9-3.7-.9-1.8-1.5-3.3-2-6.2-.3.5-.7,1.1-1,1.6-.2-.4-.5-1-.8-1.3,2-2.9,2.8-5.6,3.3-7.8l1.3.3c-.4,1.4-.9,3.1-1.4,4.3h5ZM435.2,238.9c.1,2.1.9,5.1,1.7,6.4.8-2,1.2-4.2,1.5-6.4h-3.1Z"/>
        <path class="cls-49" d="M352.1,259.1h2v15.2h-3.1v-11.8l-3.1,1.6-1.1-2.2,5.3-2.8Z"/>
        <path class="cls-49" d="M379.8,257v1.4h5v-1.4h1.3v1.4h5.1v1.3h-5.1v1.3h-1.3v-1.3h-5v1.3h-1.3v-1.3h-5.1v-1.3h5.1v-1.4h1.3ZM388.6,261.4v6.3h-6v1.4h7.7v5.5c0,1-.7,1.2-2.6,1.3,0-.4-.2-.9-.5-1.4h1.5c.2,0,.3,0,.3-.3v-3.9h-3.3c.7.7,1.3,1.6,2.1,2.5l-1,.8-.7-.8c-3.4.5-4,.6-8.7,1.2l-.4-1.4c1.4,0,3.1-.2,4.2-.3v-1.9h-5.7v5.5h-1.3v-6.8h7.1v-1.4h-5.4v-6.3h12.6ZM377.3,262.6v1.4h4v-1.4h-4ZM377.3,265.1v1.4h4v-1.4h-4ZM382.7,262.6v1.4h4.6v-1.4h-4.6ZM382.7,265.1v1.4h4.6v-1.4h-4.6ZM382.7,270.3v1.7c.9,0,2.1-.2,2.8-.3l-.7-.7.9-.7h-3.1Z"/>
        <path class="cls-49" d="M408.2,258.4c0,1,0,2,0,2.9,0,0,.6,4.9,3.5,8.5,1.5,1.9,3.6,3.4,5.4,4.3-.4.4-.7,1-.9,1.4-1.7-.8-3.1-1.9-4.7-3.7-1.8-1.9-2.8-4.2-3.7-6.8-.5,2-1.7,6.8-8.2,10.5-.2-.4-.6-.9-1-1.2,3.2-1.7,5.5-4,6.9-7,1.1-2.5,1.4-4.7,1.4-10.1h1.4v1Z"/>
        <path class="cls-49" d="M423.9,274.6h-1.4l4.5-16.4h1.4l-4.4,16.4Z"/>
        <path class="cls-49" d="M451.8,259.5v1.3h-6.3v3.3h5.1v1.3h-5.1v4h7v1.3h-7v5.1h-1.4v-5.1h-10.2v-1.3h3.5v-5.3h6.7v-3.3h-6.1c-.8,1.4-1.6,2.8-2.8,4.2-.3-.4-.8-.9-1.2-1.1,1.9-2,3.4-4.9,4.2-6.9l1.4.5c-.3.7-.7,1.5-1,2.1h13.2ZM438.8,265.4v4h5.2v-4h-5.2Z"/>
      </g>
      <g>
        <rect class="cls-8" x="802.5" y="101" width="277" height="632.5"/>
        <g>
          <g>
            <circle class="cls-49" cx="901.9" cy="695.2" r="24"/>
            <g>
              <polygon class="cls-45" points="899.3 702.8 894.4 697.9 904.9 687.4 908.1 694 899.3 702.8"/>
              <polygon class="cls-45" points="910.7 689.4 907.8 686.5 909.4 684.9 911.4 688.6 910.7 689.4"/>
              <polygon class="cls-45" points="889.6 706.8 890.4 707.6 895.1 702.8 895.6 700.8 889.6 706.8"/>
              <rect class="cls-45" x="903.5" y="688.1" width="9.6" height="1.5" transform="translate(753.2 -440.5) rotate(45)"/>
              <rect class="cls-45" x="907.9" y="685.3" width="7.2" height=".8" transform="translate(751.8 -443.7) rotate(45)"/>
              <g>
                <line class="cls-29" x1="901.8" y1="690.3" x2="903.5" y2="691.9"/>
                <line class="cls-29" x1="900.1" y1="691.9" x2="901.8" y2="693.6"/>
                <line class="cls-29" x1="898.5" y1="693.6" x2="900.1" y2="695.3"/>
                <line class="cls-29" x1="896.8" y1="695.3" x2="898.5" y2="696.9"/>
              </g>
            </g>
          </g>
          <g>
            <path class="cls-49" d="M965.2,682.8v2.4h8.4v1.9h-15.7c0,4.3,0,8-.6,10.3-.9,3.3-2.8,5.7-3.8,6.9-.2-.8-.8-1.4-1.4-1.8,2-2.2,2.9-3.8,3.5-6.8l-2.7,1.5-.8-2.2c1.6-.6,2.5-.9,3.8-1.5,0-.4,0-1.3,0-2.6v-5.6h7.1v-2.4h2.3ZM953.8,688c.6,1,1.1,2.3,1.5,3.3l-1.9.8c-.3-1.1-.8-2.3-1.3-3.4l1.7-.8ZM970,696l1.3,1.1c-.2.3-1.2,1.3-1.3,1.6-.7.8-1.4,1.4-2.2,2,1.7.8,4.3,1.5,6.8,1.5-.6.8-.9,1.6-.9,2.4-1.3-.2-2.7-.6-4.1-1-1.4-.5-2.1-.8-3.8-1.7-2.2,1.2-5.2,2.2-8.4,2.7-.1-.6-.4-1.3-1-2,2.5-.3,4.2-.5,7.6-1.9-1.1-1.1-1.6-1.5-2.5-2.8h-1.8v-1.8h10.4ZM969.2,688.7v3.5c0,.6,0,.7.4.7,1.6,0,2,0,2.1-.5.1-.3.3-1.3.4-1.9.6.6,1.6.8,2.2,1-.6,2.7-1,3.2-2.6,3.2h-2.5c-1.1,0-2.1,0-2.1-1.1v-3h-3.9c-.1,1.5-.4,3.6-3.8,5.1-.2-.6-.7-1.3-1.2-1.8.8-.3,1.9-.7,2.4-1.6.3-.5.5-1.2.5-1.8v-1.8h8.2ZM963.8,697.9c.6.6,1.3,1.3,2.1,1.8.8-.5,1.7-1.3,2.1-1.8h-4.2Z"/>
            <path class="cls-49" d="M987,682.9v2.3h5.2v-2.3h2.1v2.3h5.6v2h-5.6v1.9h-2.1v-1.9h-5.2v1.9h-2.1v-1.9h-5.5v-2h5.5v-2.3h2.1ZM998.1,689.8v14.2h-2.3v-1.3h-12.2v1.6h-2.2v-14.4h16.7ZM983.6,691.8v3.5h4.9v-3.5h-4.9ZM983.6,697.1v3.7h4.9v-3.7h-4.9ZM990.6,691.8v3.5h5.2v-3.5h-5.2ZM990.6,697.1v3.7h5.2v-3.7h-5.2Z"/>
          </g>
        </g>
        <g>
          <rect class="cls-26" x="834.3" y="112.1" width="213.4" height="213.4"/>
          <g>
            <g>
              <path class="cls-36" d="M982.5,212.5c0,4.2-3.4,14.3-7.6,14.3s-7.6-10-7.6-14.3,3.4-7.6,7.6-7.6,7.6,3.4,7.6,7.6Z"/>
              <path class="cls-36" d="M899.5,212.5c0,4.2,3.4,14.3,7.6,14.3,4.2,0,7.6-10,7.6-14.3s-3.4-7.6-7.6-7.6-7.6,3.4-7.6,7.6Z"/>
              <path class="cls-15" d="M974.9,192.9c0-20.5-13.3-37.2-33.9-37.2s-33.9,16.7-33.9,37.2-2,68.1,33.9,68.1,33.9-47.6,33.9-68.1Z"/>
              <path class="cls-15" d="M1027.2,318.9c-12.2-12.2-26.5-17.6-42.2-22.9-10.3-3.5-17.2-13.1-17.2-24v-32.1c0-10.6-5.7-19.2-26.9-19.2s-26.9,8.6-26.9,19.2v32.1c0,10.8-6.9,20.5-17.2,24-15.6,5.3-29.9,10.7-42.2,22.9l-4.5,6.6h181.5l-4.5-6.6Z"/>
              <path class="cls-13" d="M941,220.6c-21.2,0-26.9,18.6-26.9,29.2,0,0,53.8,5.9,53.8,21.7v-31.8c0-10.6-5.7-19.2-26.9-19.2Z"/>
              <path class="cls-9" d="M941,185.1c-25,0-31.7,6.8-31.7,19.3v35.2c0,12.5,12.7,22.6,31.7,22.6s31.7-10.1,31.7-22.6v-35.2c0-12.5-6.7-19.3-31.7-19.3Z"/>
              <path class="cls-22" d="M935.1,231.8c1.2.6,3.7.5,6.5-.3,2.8-.7,5-2,5.8-3"/>
              <circle class="cls-49" cx="926.2" cy="210.9" r="1.3"/>
              <circle class="cls-49" cx="955.8" cy="210.9" r="1.3"/>
              <g>
                <circle class="cls-49" cx="961.3" cy="223.7" r=".9"/>
                <circle class="cls-49" cx="961.3" cy="227.7" r=".9"/>
                <circle class="cls-49" cx="961.3" cy="231.7" r=".9"/>
                <circle class="cls-49" cx="965.3" cy="227.7" r=".9"/>
                <circle class="cls-49" cx="957.3" cy="227.7" r=".9"/>
              </g>
              <g>
                <circle class="cls-49" cx="920.7" cy="223.7" r=".9"/>
                <circle class="cls-49" cx="920.7" cy="227.7" r=".9"/>
                <circle class="cls-49" cx="920.7" cy="231.7" r=".9"/>
                <circle class="cls-49" cx="916.7" cy="227.7" r=".9"/>
                <circle class="cls-49" cx="924.7" cy="227.7" r=".9"/>
              </g>
              <path class="cls-22" d="M940.8,211.8s-1.3,7-1.3,9.4,3.8,1.9,3.8,1.9"/>
            </g>
            <circle class="cls-29" cx="941" cy="210.5" r="79.2"/>
            <path class="cls-43" d="M970.6,144.7c12.1,5.4,22.3,14.1,29.8,24.8"/>
            <circle class="cls-42" cx="941" cy="210.5" r="84.3"/>
            <circle class="cls-6" cx="941.3" cy="152.6" r="7.5"/>
          </g>
        </g>
        <g>
          <path class="cls-49" d="M913.4,352.6v3.7h16.3v4.8h-33.9c0,15.4,0,15.9-.9,22.6,3.6-4.2,5.6-8.4,6.8-11.3h-4.8v-4.9h5.2v-5.5h5.3v5.5h3.7v4.9h-3.7v3.1c1.4,1.2,3.1,2.4,4.9,3.6-1.1,1.5-2.1,3.2-3,4.5-.7-.5-1.3-.9-2-1.6v14.2h-5.3v-13.4c-2.1,3.5-3.9,5.9-5.9,8.2-.7-1.4-1.3-2.5-2.1-3.6-1,3.7-2.1,6.2-3.8,9.2-1.2-1.5-2.6-2.9-4.2-4,2-3.4,3.8-7.2,4.4-17.7.1-3.7.1-7,.1-18.4h16.7v-3.7h6.1ZM923.3,362v5.5h6.5v4.9h-6c3,7.9,6,11.1,8.2,13.3-1.5,1.5-2.4,3.1-3.3,5.1-1.4-1.4-2.9-3.1-5.4-8v13.3h-5.2v-13.9c-2.2,3.6-3.5,5.2-6.3,8.4-.9-1.9-1.9-3.4-3.2-4.9,3.4-3.4,5.8-6.4,9.2-13.3h-4.9v-4.9h5.2v-5.5h5.2Z"/>
          <path class="cls-49" d="M951.5,357.2h13.9v-4.4h6.1v4.4h16.1v4.9h-16.8l3.8,1.2-.5.9c2.3,2.2,7.7,6.5,15,8.9-1.2,1.4-2.3,3.1-3.1,4.8-6.7-3.1-8.6-4.1-15-10.2-3.6,3.6-6.4,5.7-13.2,9.6-.4-.9-1-1.7-1.6-2.4-1.2,13-4.9,17.4-8.5,21.5-.9-1.6-2.2-3.2-3.6-4.4,4.8-5.6,5.8-9.6,6.4-12.5-1.7,1-3.3,1.8-4.9,2.4l-1.8-5.2c2.4-1,4.8-1.8,7.3-2.9,0-1.4.1-2.7.2-3.7l-4,1.7c-.8-2.4-1.9-4.9-3.2-7.2l4.1-1.7c1,1.7,1.8,3.8,3,6.9,0-2,0-3.5,0-4.8v-7.6ZM987.1,383.4c-2,2-4.2,4.2-9.8,7.4-4.2,2.3-10.7,4.8-18.9,6-.6-1.5-1.6-3.6-2.3-4.5,7.7-1,14.4-3.5,19-6.2,3.6-2.2,5.7-4.1,7.5-6l4.6,3.2ZM956.7,362.1c0,1.6-.2,8.6-.2,10,7.5-4.1,10.1-7.2,12.6-10h-12.4ZM976.1,373.2c-6.4,6-11,7.9-15.6,9.7-.6-1.3-1.6-2.6-2.8-3.9,5.6-1.9,10.4-4.9,14.5-8.9l3.9,3.1ZM980.8,378.4c-4.7,4.4-10.3,8.2-19.2,11.3-.8-1.5-1.7-2.9-2.9-4.1,3.1-.8,5.4-1.5,8.7-3.3,2.5-1.3,6.4-3.6,9.3-6.7l4,2.8Z"/>
        </g>
        <g>
          <g>
            <path class="cls-49" d="M864.4,466.3c.5.9,1.1,2.1,1.7,3.4v-6.3h7v-2.2h3.1v2.2h8v2.4h-15.6c0,3.3,0,3.7,0,6.1,2-.8,2.7-1.8,2.7-3.6v-1.3h8.8v3.5c0,.6.1.6,1.3.6s.5,0,.7-.4c0-.2.3-.8.5-1.8.8.5,1.8.8,2.7,1.1-.3,1.3-.7,2.7-1.6,3.2-.5.2-.8.3-3.5.3s-2.5-.2-2.5-1.5v-2.6h-3.8c-.1,1.5-.5,3.6-3.9,5-.2-.6-.6-1.2-1.2-2-.3,2.7-.5,4.2-1.4,6.3-1,2.3-1.7,3.2-2.8,4.5-.5-.9-1.1-1.7-1.9-2.2,2-2.2,2.7-4,3.2-6.3-.3.2-2,1.1-2.4,1.2l-.9-2.6c1.2-.4,2.6-.9,3.6-1.4,0-.3,0-.9,0-1.9l-2.2.8c-.3-1.2-.9-2.5-1.5-3.6l2-.8ZM880.6,474.2l1.6,1.5c-.3.2-1.2,1.4-1.5,1.6-.4.5-.6.6-2,1.7,2.4.9,4.2,1.3,6.3,1.4-.6.8-.9,1.7-1.1,2.6-3.4-.5-4.8-1-7.7-2.4-2,1-4.2,1.9-8.3,2.4-.2-.8-.6-1.6-1.1-2.4,1.9-.2,3.9-.4,7-1.6-1.4-1.4-1.6-1.6-2.3-2.5h-1.6v-2.3h10.6ZM874.7,476.5c.5.5,1,.9,1.6,1.3.6-.4,1.2-1,1.6-1.3h-3.2Z"/>
            <path class="cls-49" d="M895.7,469c-.2-.8-.6-1.7-1.3-3.1v17.1h-2.6v-15.6c-.5,2.7-.6,3-1,4.9l-2.2-.6c.6-1.9,1.1-4,1.2-6.1l2,.4v-4.7h2.6v4.1l1.8-.8c.6,1,1.2,2.4,1.6,3.5l-2.1.9ZM905,461.3v1.7h5.7v2.1h-5.7v.9h4.6v1.9h-4.6v1.1h6.4v1.9h-15v-1.9h5.8v-1.1h-4.2v-1.9h4.2v-.9h-5.1v-2.1h5.1v-1.7h2.9ZM909.4,471.7v9c0,2.2-1.3,2.4-4.2,2.6-.1-.7-.4-1.7-.8-2.4h1.9c.2,0,.3,0,.3-.3v-1.3h-6.1v3.7h-2.7v-11.3h11.6ZM900.5,473.6v1.1h6.1v-1.1h-6.1ZM900.5,476.4v1.1h6.1v-1.1h-6.1Z"/>
            <path class="cls-49" d="M928.1,467.1c-.3-.6-.6-1-1.2-1.7,0,4.3-.3,4.7-3.2,4.9,0-.6-.1-1.1-.6-1.9h1c.6,0,.6,0,.6-2.2h-6.5l-.7.7h5.6v2.8h-4.1v.3h-2.1v-2.6l-.6.4c-.3-.6-.7-1.2-1.1-1.8.9-.7,1.7-1.6,2.5-2.5l1.1.7v-.7h-3v-1.4h3v-1.1h2.3v1.1h1.5v-1.1h2.4v1.1h2.5v1.4h-2.5v.8h-2.4v-.8h-1.5v.8h-2.2l.5.3-.2.3h7.7c1-1.1,1.8-2.3,2.7-4.2l2.3.8c-.2.3-.4.8-.7,1.2h5.8v1.9h-1.2c-.5.9-1.1,1.9-1.8,2.7,1.2.6,2.3,1,3.9,1.4-.6.7-1.1,1.4-1.4,2.2-1.5-.6-2.9-1.3-4.3-2.2-1.2.7-1.9.9-4.1,1.7-.3-.8-.6-1.5-1.2-2.1,1.4-.3,2.4-.6,3.4-1.1-.5-.5-.9-.9-1.2-1.4l-.9,1ZM937.3,472.8v1.2h-21.6v-1.2h21.6ZM934.9,478.5v4.4h-2.7v-.7h-11.6v.8h-2.6v-4.5h16.9ZM933.7,474.7v1.1h-14.7v-1.1h14.7ZM933.7,476.6v1.1h-14.7v-1.1h14.7ZM919,467.9v.9h2v-.9h-2ZM933.6,470.7v1.3h-14.6v-1.3h14.6ZM920.6,479.8v1.1h11.6v-1.1h-11.6ZM930.5,464.7c.4.5.9.9,1.5,1.5.6-.5,1-.9,1.3-1.5h-2.8Z"/>
            <path class="cls-49" d="M947.4,468.2v3.4h1.4v-3.4h2.6v3.4h2.2v2.5h-2.2v5.6h-2.6v-5.6h-1.6c-.4,4.1-1.4,6.1-3.1,8.3-.7-.7-1.4-1.3-2.3-1.8,1.6-1.8,2.3-3.1,2.7-6.5h-2.2v-2.5h2.3v-3.4h2.7ZM959.8,464.7c-1-.9-1.8-1.4-2.7-1.9l1.5-1.7c1,.6,2.1,1.3,3,2.1l-1.3,1.5h3v2.7h-6.7c0,3,.3,4.9.8,7.1,1.6-2.7,1.9-3.8,2.4-5.1l2.7,1.4c-1.7,3.5-2.2,4.2-3.9,6.8,1.1,1.9,1.9,2.3,2.1,2.3.3,0,.6-1.3.6-2.4.9.6,1.8,1,2.7,1.2-.6,2.6-1.1,4.4-2.6,4.4s-1.8-.4-3.1-1.5c-.4-.3-.9-.8-1.6-1.9-2.1,2-4.3,3-5.6,3.7-.4-.9-.9-1.7-1.7-2.5,1.5-.6,3.9-1.6,6-3.8-.7-2.2-1.5-4.8-1.5-9.7h-11.4v-2.7h11.3v-3.5h3c0,.6,0,3,0,3.5h3.2Z"/>
            <path class="cls-49" d="M974.7,477.5c1,.6,2,1.3,2.9,2l-1.5,2.1c-1.1-.9-2.3-1.7-3.4-2.4l1.3-1.7h-4.4v-2.3h13.3v-1.4h-14.3v-2.2h9.2v-1.3h-6.7v-2.3h6.7v-1.2h1.5c-.4-.3-1-.6-1.6-.9.3-.4.5-.7.6-.9h-2.1c.1.3.3.8.5,1.2l-2.6.8c-.3-.7-.6-1.4-.9-2h-1c-1.1,1.4-1.5,1.8-2.8,3.2-.5-.7-1-1.5-1.8-2.1,1.7-1.8,2.3-2.5,3.9-5.2l2.6.8c-.2.4-.4.7-.6,1.2h4.8v2c1.1-1.8,1.6-2.7,2.2-4l2.6.8c-.4.7-.4,1-.6,1.2h7.1v2.2h-3.9c.1.3.4.7.6,1.2l-2.5.8c-.3-.7-.6-1.4-1-2h-1.4c-.4.6-.8,1.2-1.3,1.8h.4v1.2h7.3v2.3h-7.3v1.3h9.4v2.2h-4.3v1.4h3.6v2.3h-3.6v3c0,1.8-.6,2.3-4.6,2.6-.1-1-.5-1.8-.9-2.6h2.1c.4,0,.5,0,.5-.4v-2.6h-8.2Z"/>
            <path class="cls-49" d="M998,475.6c-.3,1.6-.5,2.3-.6,3.1-.1.7-.3,1.4-.8,2.7-.7-.2-1.5-.5-2.2-.7.6-1.8,1.2-3.7,1.3-5.6l2.3.5ZM1000.6,470.2l2.1-.9c.7,1.3,1.3,2.7,1.7,4l-2.2.9-.3-.7h-1.1v9.5h-2.6v-9c-1,.1-2.4.3-3.1.4l-.4-2.6h1.7c.5-.7,1-1.7,1.4-2.5-1-.9-2.1-1.7-3.4-2.4l1.2-2.2.8.4c.5-1.2,1.2-2.8,1.7-4.2l2.4,1.1c-.4.7-1.9,3.8-2.2,4.4l.9.6c.6-1,1.2-2.3,1.9-3.5l2.3,1.2c-1,1.8-2.9,5-4.1,6.9.6,0,1.3-.1,1.9-.2l-.5-1.2ZM1016.6,469.7c-1,3.3-1.7,5.3-3.4,7.9.9.9,1.8,1.7,3.8,2.8-.6.8-1.2,1.7-1.5,2.7-1.4-.9-2.4-1.6-4-3.3-.9.9-2,1.9-4.5,3.1-.3-.6-.8-1.3-1.6-2.3-.4.6-.9,1.4-1.4,2.1-.6-.7-1.3-1.4-2.2-1.9.5-.6.9-1.1,1.3-1.8-.3,0-.9.2-1.4.4-.2-.8-.4-1.7-.7-4l2.1-.4c.2,1,.3,1.9.5,2.8,2.1-3.6,2.2-7.4,2.2-13.6h-2.2v-2.5h10.6c-.1.6-1.1,5.3-1.4,6.6h2c0,0,1.9,1.3,1.9,1.3ZM1009.7,477.7c-.8-1.2-.9-1.4-1.9-3.6-.6,2.2-.6,2.3-1.1,3.5-.5,1.2-.9,2.2-1.4,2.9,2.2-1,3-1.6,4.4-2.9ZM1012.3,470.8v.6c-.1,0-2.6-.6-2.6-.6.3-1.7.5-2.2,1.3-6.5h-2.5c0,2,0,3.5,0,4.8,0,.1,1,3.8,3,6.4,1.2-1.6,1.8-3.8,2-4.7h-1.1Z"/>
          </g>
          <g>
            <path class="cls-49" d="M910.8,535.8v4.4h-2.5v-2.3h-4.2c-.6,1.3-1.2,2.5-1.9,3.9h1.8c.4-.9.7-2,1.1-3l2.5.7c-.3.8-.7,1.6-1,2.3h3.6v2.1h-3.7v1.5h3.2v2h-3.2v1.3h3.2v2h-3.2v1.5h4.6v2.1h-9.5v.8h-2.6v-9.2c-.4.5-.8,1-1.3,1.5-.3-.6-.7-1.1-1.1-1.6v6.6h-2.3v-1.4h-1.3v2.3h-2.3v-6.3c-.2.3-.6,1.2-.7,1.3-.2-1.1-.7-2.1-1.3-2.9,1.8-3.5,2.5-6.8,2.9-8.8h-2.1v-2.5h7.4v2.5h-2.6c-.4,1.8-.7,3.1-1.2,4.5h3.5v3.4c2.3-2.2,3.8-4.9,4.5-6.8h-1.2v2.3h-2.3v-4.4h4.2c.3-.6.5-1.6.7-2.4l2.8.4c-.2.6-.4,1.3-.6,2h6ZM893,543.8v4.9h1.3v-4.9h-1.3ZM901.6,544v1.5h2.3v-1.5h-2.3ZM901.6,547.5v1.3h2.3v-1.3h-2.3ZM901.6,550.9v1.5h2.3v-1.5h-2.3Z"/>
            <path class="cls-49" d="M925,539.1c2.3-1.8,3.7-4.4,4.4-5.7l2.7,1-.3.4c2,2.7,3.9,4.3,5.9,5.6-.7.7-1.3,1.5-1.7,2.3-2.2-1.5-3.8-3.2-5.7-5.7-1.3,1.8-2.4,3.1-5.1,5.3-.4-.7-.9-1.4-1.7-2,.4-.2.7-.5.9-.7h-8.9v-2.1h9.4v1.7ZM923.9,546.8v7.8h-2.5v-.9h-2.4v1.3h-2.5v-8.2h7.5ZM923.7,540.5v2h-7v-2h7ZM923.7,543.5v2h-7v-2h7ZM923.8,534.2v2.2h-7v-2.2h7ZM919,549v2.5h2.4v-2.5h-2.4ZM937.7,548.6c-3.3,3.2-6.7,5.5-12,6.7-.4-.9-.9-1.7-1.6-2.4,6.8-1.2,9.9-4.5,11.4-6l2.2,1.7ZM932.8,541.5c-2.2,2.2-3.8,3.6-6.7,5-.4-.7-.9-1.4-1.6-2.1,3.3-1.7,5.1-3.5,6.3-4.7l2,1.7ZM935.2,545.1c-1.6,1.5-4.1,3.7-8.9,5.5-.3-.8-.8-1.5-1.3-2.2,3.7-1.4,5.8-2.9,8.1-5l2,1.6Z"/>
            <path class="cls-49" d="M943.7,538.5c.6,1,1.1,2,1.6,3.1v-5.9h7v-2.2h3.1v2.2h8v2.4h-15.5c0,7.8,0,12.4-4.2,17.1-.6-.7-1.3-1.5-2-2.1,1.8-2.1,2.7-4.3,3.2-6.3-.8.5-1.6.9-2.4,1.3l-.8-2.6c1.2-.5,2.4-1,3.6-1.5,0-.8,0-1.4,0-1.9l-2,.9c-.4-1.2-1-2.4-1.6-3.6l2.1-.9ZM960.3,549.7l-1.6,2.1c-1.3-1.4-2.2-2.3-3.3-3.2-1,1.6-2,2.6-3.4,3.6-.2-.4-.5-.8-.8-1.2v4.2h-2.6v-11.6h5.4v-1.8s-5.6,0-5.6,0v-2.4h14.9v2.4h-6.6v1.8c0,0,6.1,0,6.1,0v9.2c0,1.7-.5,2.2-3.8,2.6-.2-.9-.5-1.8-.9-2.6h1.6c.3,0,.5,0,.5-.4v-2.7ZM951.2,545.8v3.6c1.9-1.5,2.3-2.4,2.6-3.6h-2.6ZM956.4,546.3c1.9,1.4,2,1.5,3.9,3.1v-3.7h-3.8v.5Z"/>
            <path class="cls-49" d="M982.5,539.5c-.1,4.4-.8,10.5-6.7,15.6-.6-.8-1.2-1.5-2-2.1,2.1-1.9,3-3,4.2-5.1-.6-.6-1.4-1.2-2.3-1.7-.3.5-.6,1-1,1.6-.4-.8-1.2-1.8-1.7-2.3v9.6h-2.7v-11c-.4.9-.8,1.5-1.3,2.3-.2-1.3-.7-2.3-1.3-3.3,1.7-2.7,2.9-4.9,4.4-10l2.7,1c-1.1,3-1.2,3.3-1.8,5.1v6.1c.9-1.2,2.6-3.6,3.4-8.3h-1.4v-2.5h7.8v2.5h-3.7c-.1.8-.3,1.7-.5,2.4h3.9ZM978,541.9c-.3.7-.6,1.4-1,2.2.7.4,1.4.9,2,1.3.4-1.2.7-2.4.8-3.6h-1.8ZM985.8,536v13.6h-2.5v-13.6h2.5ZM989.6,534v18.8c0,1.8-1.1,2.2-3.9,2.5-.1-1-.5-1.8-1-2.6h1.9c.3,0,.4,0,.4-.4v-18.3h2.6Z"/>
          </g>
          <g>
            <path class="cls-49" d="M881.2,497.8v1.5h-2.5c.3.6.6,1.1.8,1.7l-1.5.5c-.3-.9-.6-1.6-1-2.3h-1.7c-.7,1-1.6,2-2.6,2.9-.3-.5-.7-1-1.1-1.3,1.5-1.4,2.4-2.4,3.9-5.4l1.6.6c-.3.5-.6,1.1-1,1.6h5.1ZM891.1,502v5.2h-8v2.4h9.2c-.2,6-.2,6-3.6,6.3-.1-.6-.4-1.2-.7-1.7h2.1c.3,0,.4-.2.4-.4.1-.4.3-1.7.3-2.9h-7.6v6.3h-1.6v-5.6c-1.2,1-1.9,1.5-2.4,1.8-2.3,1.4-4.3,2.4-6.3,3-.2-.5-.6-1-1-1.4,1.8-.6,5.4-1.7,8.2-4.2h-5l-.2.8-1.6-.3c.4-1.9.8-4,1.2-5.7h7.1v-2.4h-7.8v-1.4h17.4ZM875.7,507.2l-.5,2.4h6.3v-2.4h-5.8ZM892.5,497.8v1.5h-4.5c.4.6.7,1.1,1,1.8l-1.6.5c-.4-.7-.7-1.5-1.3-2.2h-1.9c-.5.9-1.3,1.8-1.8,2.5-.4-.4-.8-.7-1.3-1,1.5-1.8,2.1-2.9,3-5.2l1.6.4c-.3.6-.5,1.2-.8,1.8h7.6ZM883.1,503.4v2.4h6.5v-2.4h-6.5Z"/>
            <path class="cls-49" d="M919.2,505.6v1.7h-21v-1.7h21Z"/>
            <path class="cls-49" d="M930.2,504.7l1.3-.7c.7,1.2,1.3,2.4,1.7,3.7l-1.4.7-.4-.9-1.9.2v9.6h-1.6v-9.5c-.6,0-3.2.4-3.7.4v-1.8c-.1,0,1.8,0,1.8,0,.4-.9,1.2-2.1,1.7-3.2-1.2-.9-2.4-1.7-3.9-2.5l.8-1.4,1.1.6c.6-1.2,1.2-2.8,1.8-4.5l1.7.7c-.3.6-2.2,4.4-2.2,4.5l1.5,1.1c.7-1.3,1.5-2.9,2-3.8l1.5.9c-.8,1.6-2.8,5-4.3,7.5.9,0,1.9-.1,3-.3l-.7-1.4ZM926.8,510c-.2,1.5-.5,3.7-1.3,5.6-.4-.2-.9-.4-1.5-.5.8-1.9,1.1-3.9,1.3-5.4l1.5.3ZM932.3,509.8c0,1.3.2,2.2.4,3.4-.5,0-1,.2-1.5.3-.3-1.2-.3-2.3-.5-3.6h1.5ZM943.7,503.3h.3c0,0,1.2.7,1.2.7-.3.6-.9,3-1.1,3.6-.7,2-1.2,3.1-2.5,4.9,1.5,1.5,2.3,2.2,4.1,3.3-.4.5-.7,1-1,1.4-1.5-.9-3-2.3-4.1-3.5-2.1,1.9-3.3,2.6-4.8,3.3-.3-.5-.6-.9-1.1-1.3,2.2-1,3.4-1.8,4.8-3.3-1.4-2-1.8-2.7-2.8-5.3-.5,3-1.2,5.9-4.2,9.5-.4-.4-.8-.8-1.4-1.2,4.5-4.4,4.5-10.5,4.5-17.4h-2.9v-1.6h10.1c-.3,1.8-.3,2-1.3,6.7h2.1ZM941.3,504.7l-.2.8-1.7-.3c.6-2.4.7-3,1.5-7.1h-3.6v5.2c.5,3,1.6,5.4,3.4,7.8,1.1-1.4,1.3-2,2-3.8.2-.6.4-1.2.8-2.6h-2.1Z"/>
            <path class="cls-49" d="M953.9,503.4v2.6h-1.9v-2.6h1.9ZM953.9,513v2.6h-1.9v-2.6h1.9Z"/>
            <path class="cls-49" d="M960.1,515.8c.9-1.6,1.2-2.2,3.7-7.2.4.3.9.6,1.3.8-2.3,4.6-2.5,5.1-3.6,7.1l-1.5-.8ZM963.6,505c-.9-.5-2.1-1.1-3.2-1.5l.7-1.3c1.1.4,2.2.9,3.2,1.5l-.7,1.3ZM964.5,500c-.9-.8-1.8-1.5-2.9-2.2l.9-1.2c1.1.6,2.1,1.4,3,2.2l-1,1.2ZM980.8,500.7v1.5h-6.6v5.1h5.9v1.5h-5.9v6h7.1v1.5h-16.3v-1.5h7.6v-6h-5.5v-1.5h5.5v-5.1h-6.5v-1.5h14.6ZM971.6,495.9c1.3.9,2.3,1.8,3.3,2.7l-1.1,1c-1-.9-2-1.8-3.2-2.7l1-1.1Z"/>
            <path class="cls-49" d="M990.6,512.8c-.9,1.5-1.7,2.8-2.6,3.7l-1.4-1c1.1-1.2,1.9-2.2,2.7-3.7l1.3.9ZM998,495.7v1.8h8.1v1.5h-3.7c-.3.8-.5,1.4-.7,2h6.5v1.4h-21.4v-1.4h6.2c-.3-.6-.5-1.4-.9-2h-3.5v-1.5h7.8v-1.8h1.6ZM1004.1,511h-7.2c.8.7,1.7,1.4,2.4,2.1l-1.2,1.2c-.6-.7-1.4-1.4-2.4-2.1l1.1-1.2h-6.8v-7.2h14v7.2ZM991.6,505.1v1.5h10.8v-1.5h-10.8ZM991.6,508v1.6h10.8v-1.6h-10.8ZM993.7,511.7v3c0,1,.5,1,1.7,1s2.2,0,3.1,0,1.9,0,2.2-.1c.4-.2.7-.9,1.1-2,.6.3,1.2.6,1.8.7-.8,2.3-1.6,3-3.3,3s-3.2,0-4.5,0c-2.9,0-3.7,0-3.7-1.7v-3.7h1.6ZM993.8,499c.3.6.6,1.3.8,2h5.3c.2-.6.6-1.3.8-2h-6.9ZM1005.1,512c1,1.1,2,2.5,2.7,3.7l-1.5.9c-.6-1.2-1.6-2.4-2.6-3.7l1.3-.9Z"/>
          </g>
          <g>
            <path class="cls-49" d="M899.1,634l1.3,1.7c-1.8,2-2.4,2.5-4,3.9l.7.7-.9.8h3.4l.3-.2,1.7,1.3c-1.3,2.7-1.6,3.2-2.7,5.3-.4-.2-1-.6-1.8-.9.6-1.3,1.1-2.4,1.7-3.6h-2.3v9c0,1.3-.4,2.2-3.5,2.7,0-.7-.5-1.6-1-2.4h2.1c.2,0,.3-.2.3-.4v-8.9h-4v-1.9h4.7c-1.2-1.2-1.6-1.6-3.2-3l1.3-1.4c.6.5,1.2.9,1.7,1.5.7-.7,1.3-1.4,2-2.2h-6v-1.9h8ZM905.5,652c-2.3,1.7-3.5,2.4-5.1,3.1-.2-.6-.6-1.2-1.2-1.9,1.1-.5,2.7-1.2,4.8-2.7l1.5,1.5ZM912,634.1v1.9h-4.3c-.1.8-.3,1.6-.5,2.4h3.9v11.8h-8.9v-11.8h2.9c.2-.7.4-1.6.5-2.4h-4.4v-1.9h10.7ZM904.3,640.2v1.6h4.6v-1.6h-4.6ZM904.3,643.4v1.8h4.6v-1.8h-4.6ZM904.3,646.9v1.7h4.6v-1.7h-4.6ZM909,650.6c1,.8,2.3,1.8,3.7,2.7-.7.5-1.2,1.1-1.6,1.7-1.2-.8-2.6-1.9-3.8-3l1.6-1.3Z"/>
            <path class="cls-49" d="M923.9,633.6l1.5,1.5c-1.2,2.7-1.8,4-2.7,6.2.4.6,2.5,4.1,2.5,6.3s-1.2,2.9-4.2,3.6c0-.9-.3-1.6-.9-2.5h1.5c.8,0,1.4-.2,1.4-1.3s-.9-3.2-2.4-5.9c1.2-3,1.2-3.1,2.1-5.9h-2.9v19.2h-2.1v-21h6.2ZM932.6,633.4v3.8h5.7v2.1h-7.2c0,1.1-.1,2.5-.2,3.7h6.4c-.2,4.3-.4,7.9-.6,8.8-.3,1.9-1.5,2.3-4.1,2.6-.2-.7-.4-1.3-.9-2.2h1.9c.5,0,.6,0,.7-.8.3-1.6.5-6.3.5-6.6h-4.3c-.8,4.4-2.3,7.5-6.6,9.9-.2-.6-.8-1.4-1.6-2.1,5.1-2.3,6.3-6.4,6.3-13.3h-3.6v-2.1h5.2v-3.8h2.2Z"/>
            <path class="cls-49" d="M948.4,633.3v4.7h2.3v1.9h-2.3v3.5c.7-.3,1.4-.5,2.3-.9v1.9c-.9.4-1.6.6-2.3.9v6.6c0,1.9-.3,2.5-3.6,2.9,0-.7-.3-1.3-.8-2.1h2.1c.2,0,.3-.2.3-.4v-6.2c-.7.3-1.9.8-2.8,1.1l-.6-2.1c1.2-.3,2.3-.7,3.3-1v-4.2h-3v-1.9h3v-4.7h2ZM956.2,633.3v3.1h3v-3.1h2.1v3.1h2.7v1.8h-2.7v3.1h3.5v1.8h-13.7v-1.8h3v-3.1h-2.2v-1.8h2.2v-3.1h2.1ZM963.2,644.6v9.8h-2.2v-1.1h-6.6v1.2h-2v-10h10.9ZM954.3,646.3v1.9h6.6v-1.9h-6.6ZM954.3,649.8v2h6.6v-2h-6.6ZM956.2,638.2v3.1h3v-3.1h-3Z"/>
            <path class="cls-49" d="M991.1,635.9v1.9h-9.9c-1.2,2.3-1.6,2.8-2.4,4-.5-.5-1.1-.9-1.7-1.3l1-1.4h-3.8v3.2h3.8c0,3.9-.3,8.5-.6,10-.4,1.7-.9,2-3.6,2.4-.2-.7-.5-1.6-.9-2.3h1.9c.4,0,.5-.1.5-.7.2-1.7.3-2.8.6-7.6h-1.8c-.4,3.1-.8,6.5-3.3,9.9-.5-.7-1-1.1-1.6-1.6,2.4-3.6,2.8-6.2,2.8-13.4h-2.1v-1.9h3.2v-3.8h2.3v3.8h3v1.4c1.2-2.1,1.6-3.2,2.5-5.7l2.1.6c-.3.9-.6,1.8-.9,2.4h9.1ZM986.3,638.5v3.5l4.2-.7v6c0,1.7-.2,2.2-3,2.5-.2-.7-.5-1.4-.9-2.1h1.4c.2,0,.3,0,.3-.3v-3.7l-2,.4v6h-2v-5.6l-1.8.3v7c0,.4.1.6.4.6.5,0,2.2,0,3.3,0,2,0,2.4,0,2.7-.1.5-.2.8-1.3.9-1.8.6.5,1.3.8,2.1,1-.4,1.2-.8,2.2-1.7,2.5-.6.2-3,.2-4.1.2-3.3,0-3.8,0-4.3-.1-.1,0-.5-.1-.9-.5s-.5-.7-.5-1.5v-7l-1.6.3-.3-2.2,1.9-.3v-3.2h2.1v2.9l1.8-.3v-3.9h2Z"/>
          </g>
          <g>
            <path class="cls-49" d="M890.9,584.6l-6.4,5.9-3.4-4,10.3-8.5h5.2v34h-5.8v-27.4Z"/>
            <path class="cls-49" d="M920.7,577.4c3.8,0,12.3,1.5,12.3,17.6s-8.5,17.6-12.3,17.6-12.3-1.5-12.3-17.6,8.5-17.6,12.3-17.6ZM920.7,607.1c5.8,0,6.5-7.9,6.5-12.1s-.8-12.1-6.5-12.1-6.5,7.9-6.5,12.1.8,12.1,6.5,12.1Z"/>
            <path class="cls-49" d="M945.6,591.7h1.5c3.3,0,6.6-.5,6.6-4.6s-2-4.5-4.8-4.5-4.3,1.4-5.1,3.7l-6.1-1.6c1.5-5,5.9-7.3,10.9-7.3s10.9,3.1,10.9,9.1-2.2,6.8-5.8,7.7h0c4.3.7,6.6,4.2,6.6,8.4,0,6.5-5.4,10-11.5,10s-10.2-2.3-11.7-8l6.1-1.6c.7,2.8,2.4,4.4,5.5,4.4s5.7-2.2,5.7-5.3-4-5.2-7.5-5.2h-1.4v-5.2Z"/>
            <path class="cls-49" d="M982.9,613.7h-1.6v-13.2c-.6,1.4-1.4,2.7-2.1,3.8-.3-.5-.7-1.1-1.1-1.5,2.2-3.3,3.6-6.7,4.8-10.5l1.6.8c-.8,2.2-1.1,3.2-1.5,4.2v16.4ZM993,593.4v1.5h-4.2c-.1,1.2-.3,2.4-.5,3.5h4c0,5.3-1.3,10.3-6.5,14.7-.3-.4-.8-1-1.3-1.3,2.1-1.6,3.2-2.8,4.7-5.5-1-.7-2.1-1.5-3.1-2.2-.3.5-.6,1.1-1.1,1.6-.3-.5-.8-1-1.2-1.3,2.1-2.8,3-5.5,3.5-9.5h-1.9v-1.5h7.7ZM987.9,599.8c-.3.8-.7,2-1.2,3,1.1.6,2.1,1.4,2.9,2,.6-1.8.9-3.6,1-5h-2.7ZM995.4,594.7v13.2h-1.6v-13.2h1.6ZM999.3,592.6v18.7c0,1-.1,1.7-3.2,2-.1-.5-.4-1.3-.8-1.9h2.1c.2,0,.3-.1.3-.3v-18.6h1.6Z"/>
          </g>
        </g>
        <g>
          <polygon class="cls-5" points="911.2 417.4 914.9 424.9 923.3 426.1 917.2 432 918.6 440.3 911.2 436.4 903.7 440.3 905.2 432 899.1 426.1 907.5 424.9 911.2 417.4"/>
          <polygon class="cls-24" points="941 417.4 944.7 424.9 953.1 426.1 947 432 948.5 440.3 941 436.4 933.5 440.3 935 432 928.9 426.1 937.3 424.9 941 417.4"/>
          <polygon class="cls-24" points="970.8 417.4 974.5 424.9 982.9 426.1 976.8 432 978.3 440.3 970.8 436.4 963.4 440.3 964.8 432 958.7 426.1 967.1 424.9 970.8 417.4"/>
        </g>
      </g>
      <g>
        <path class="cls-34" d="M458.5,588.2c38.8,0,70.5,31.4,70.5,70.2v91.6h-141v-91.6c0-38.8,31.7-70.2,70.5-70.2Z"/>
        <rect class="cls-8" x="509.5" y="101" width="277" height="632.5"/>
        <g>
          <rect class="cls-26" x="541.3" y="112.1" width="213.4" height="213.4"/>
          <g>
            <g>
              <path class="cls-36" d="M689.5,212.5c0,4.2-3.4,14.3-7.6,14.3s-7.6-10-7.6-14.3,3.4-7.6,7.6-7.6,7.6,3.4,7.6,7.6Z"/>
              <path class="cls-36" d="M606.5,212.5c0,4.2,3.4,14.3,7.6,14.3,4.2,0,7.6-10,7.6-14.3s-3.4-7.6-7.6-7.6-7.6,3.4-7.6,7.6Z"/>
              <path class="cls-21" d="M681.9,192.9c0-20.5-13.3-37.2-33.9-37.2s-33.9,16.7-33.9,37.2-2,68.1,33.9,68.1,33.9-47.6,33.9-68.1Z"/>
              <path class="cls-21" d="M734.2,318.9c-12.2-12.2-26.5-17.6-42.2-22.9-10.3-3.5-17.2-13.1-17.2-24v-32.1c0-10.6-5.7-19.2-26.9-19.2s-26.9,8.6-26.9,19.2v32.1c0,10.8-6.9,20.5-17.2,24-15.6,5.3-29.9,10.7-42.2,22.9l-4.5,6.6h181.5l-4.5-6.6Z"/>
              <path class="cls-13" d="M648,220.6c-21.2,0-26.9,18.6-26.9,29.2,0,0,53.8,5.9,53.8,21.7v-31.8c0-10.6-5.7-19.2-26.9-19.2Z"/>
              <path class="cls-9" d="M648,185.1c-25,0-31.7,6.8-31.7,19.3v35.2c0,12.5,12.7,22.6,31.7,22.6s31.7-10.1,31.7-22.6v-35.2c0-12.5-6.7-19.3-31.7-19.3Z"/>
              <path class="cls-22" d="M642.1,231.8c1.2.6,3.7.5,6.5-.3,2.8-.7,5-2,5.8-3"/>
              <circle class="cls-49" cx="633.2" cy="210.9" r="1.3"/>
              <circle class="cls-49" cx="662.8" cy="210.9" r="1.3"/>
              <path class="cls-22" d="M647.8,211.8s-1.3,7-1.3,9.4,3.8,1.9,3.8,1.9"/>
              <circle class="cls-47" cx="668.3" cy="225.7" r="3.1"/>
              <circle class="cls-47" cx="627.7" cy="225.7" r="3.1"/>
            </g>
            <circle class="cls-29" cx="648" cy="210.5" r="79.2"/>
            <path class="cls-43" d="M677.6,144.7c12.1,5.4,22.3,14.1,29.8,24.8"/>
            <circle class="cls-42" cx="648" cy="210.5" r="84.3"/>
            <circle class="cls-6" cx="648.3" cy="152.6" r="7.5"/>
          </g>
        </g>
        <g>
          <path class="cls-49" d="M583.5,353.4v3.6h7.6v-3.6h5.7v3.6h9.5v4.5h-9.5v2.6h12v4.8h-18.6v2.3h13.6v18.3h-5.8c3.2,1.4,6.9,2.4,11.1,3.1-1,1.3-2,2.9-2.7,4.4-3.8-.8-9.8-2.4-14.9-5.1l2-2.4h-11.6l2.1,2.5c-5,2.5-10.5,3.9-14.9,4.8-.5-1.7-1.5-3.4-2.5-4.7,3.3-.4,7.7-1.3,10.7-2.7h-5.1v-18.3h12.2v-2.3h-18.2v-4.8h11.5v-2.6h-9v-4.5h9v-3.6h6ZM577.5,375.3v2.9h6.8v-2.9h-6.8ZM577.5,381.8v3.2h6.8v-3.2h-6.8ZM583.5,361.5v2.6h7.6v-2.6h-7.6ZM590.2,375.3v2.9h7.9v-2.9h-7.9ZM590.2,381.8v3.2h7.9v-3.2h-7.9Z"/>
          <path class="cls-49" d="M662.6,360.6c-.3,4.9-.4,7.4-.4,10,0,4.1.5,8.8,1,8.8s.2,0,.9-2.9c1.2,1.2,2.5,2.2,4,2.8-.7,2.6-1.9,6.6-5.1,6.6s-5.1-7.3-5.6-10.7l-2.8,3.8-1.5-1.3c-1.7,4.1-3.3,6.5-5.9,9.6-.9-1.3-1.9-2.4-3-3.4v.6c-2.4.3-19.6,2.2-20,2.2l-.8-4.7c3.2-.2,6.2-.4,8.9-.6v-2.8h-6.7v-3.8h6.7v-3.4h5c-.1-.2-.2-.5-.2-.8v-4.1h-4.2c-1.2,3.6-3.3,6-8.6,7.3-.4-1.4-1-2.6-2.1-4,3.7-.6,4.8-1.6,5.8-3.3h-4.6v-4h9v-2.2h-7.4v-4.2h7.4v-3.2h5.3v3.2h6.6v4.2h-6.6v2.2h8v4h-4.3v1.9c0,.7.2.7.6.7.8,0,.8,0,1-.2.1-.2.3-.8.5-1.9,1.7.7,2.8,1,4.1,1.3-.7,3.6-1.8,4.4-4.6,4.4-4.3,0-4.6,0-5.5-.8v2.9h6.6v3.8h-6.6v2.5c2.2-.2,4.4-.4,6.6-.7v1.9c1.3-1.2,3.3-3.2,4.8-7.5-.9-.8-1.9-1.4-2.9-2l2.7-3.9,1.4.9c.3-1.3.4-2.8.6-4.2h-3.8v-4.8h4.1v-7.7h5.3v7.7c-.1,0,6.3,0,6.3,0ZM632.5,390.5c-1.5,2.3-3.2,4.3-5.2,6.3l-4.1-3.6c2.2-2,3.7-3.9,5.1-6l4.2,3.3ZM640.1,387.9c1,1.8,2.1,3.8,2.9,6l-4.5,2.3c-.8-2.2-1.9-4.1-2.9-6.2l4.5-2.1ZM650.1,396.2c-1.1-1.9-2.3-4-3.8-6l4.4-2.5c1.4,1.7,2.6,3.7,3.8,5.8l-4.4,2.7ZM655.8,365.5c-.3,2.6-.7,4.9-1.2,7,.8.7,1.7,1.3,2.8,2.2,0-1,0-2,0-3.1,0-1.8,0-3.8.3-6h-1.8ZM661.1,387.3c1.9,1.9,3.7,4.2,5.2,6.6l-4.4,3.1c-1.4-2.3-3.2-4.6-5.1-6.8l4.2-2.9Z"/>
          <path class="cls-49" d="M684.1,362.8c1.2,2,2.2,4,3.1,6.2v-11.8h14.1v-4.4h6.1v4.4h16v4.8h-31c0,15.6,0,24.7-8.4,34.3-1.2-1.5-2.6-3-4.1-4.2,3.6-4.2,5.5-8.6,6.5-12.7-1.5.9-3.2,1.8-4.8,2.7l-1.6-5.3c2.4-.9,4.9-2,7.2-3,.1-1.5.2-2.8.2-3.8l-4.1,1.8c-.8-2.4-2-4.8-3.2-7.1l4.1-1.8ZM717.1,385.2l-3.3,4.2c-2.6-2.8-4.5-4.6-6.5-6.4-1.9,3.1-4,5.2-6.9,7.2-.4-.9-.9-1.7-1.5-2.4v8.5h-5.1v-23.2h10.9v-3.6s-11.2,0-11.2,0v-4.7h29.9v4.7h-13.2v3.6c-.1,0,12.3,0,12.3,0v18.3c0,3.4-1,4.5-7.6,5.1-.3-1.8-1-3.6-1.8-5.2h3.3c.7,0,.9,0,.9-.7v-5.5ZM699,377.4v7.1c3.7-2.9,4.6-4.9,5.2-7.1h-5.2ZM709.3,378.4c3.8,2.8,4,3,7.8,6.3v-7.3h-7.7v1.1Z"/>
        </g>
        <g>
          <g>
            <path class="cls-49" d="M571.4,466.3c.5.9,1.1,2.1,1.7,3.4v-6.3h7v-2.2h3.1v2.2h8v2.4h-15.6c0,3.3,0,3.7,0,6.1,2-.8,2.7-1.8,2.7-3.6v-1.3h8.8v3.5c0,.6.1.6,1.3.6s.5,0,.7-.4c0-.2.3-.8.5-1.8.8.5,1.8.8,2.7,1.1-.3,1.3-.7,2.7-1.6,3.2-.5.2-.8.3-3.5.3s-2.5-.2-2.5-1.5v-2.6h-3.8c-.1,1.5-.5,3.6-3.9,5-.2-.6-.6-1.2-1.2-2-.3,2.7-.5,4.2-1.4,6.3-1,2.3-1.7,3.2-2.8,4.5-.5-.9-1.1-1.7-1.9-2.2,2-2.2,2.7-4,3.2-6.3-.3.2-2,1.1-2.4,1.2l-.9-2.6c1.2-.4,2.6-.9,3.6-1.4,0-.3,0-.9,0-1.9l-2.2.8c-.3-1.2-.9-2.5-1.5-3.6l2-.8ZM587.6,474.2l1.6,1.5c-.3.2-1.2,1.4-1.5,1.6-.4.5-.6.6-2,1.7,2.4.9,4.2,1.3,6.3,1.4-.6.8-.9,1.7-1.1,2.6-3.4-.5-4.8-1-7.7-2.4-2,1-4.2,1.9-8.3,2.4-.2-.8-.6-1.6-1.1-2.4,1.9-.2,3.9-.4,7-1.6-1.4-1.4-1.6-1.6-2.3-2.5h-1.6v-2.3h10.6ZM581.7,476.5c.5.5,1,.9,1.6,1.3.6-.4,1.2-1,1.6-1.3h-3.2Z"/>
            <path class="cls-49" d="M602.7,469c-.2-.8-.6-1.7-1.3-3.1v17.1h-2.6v-15.6c-.5,2.7-.6,3-1,4.9l-2.2-.6c.6-1.9,1.1-4,1.2-6.1l2,.4v-4.7h2.6v4.1l1.8-.8c.6,1,1.2,2.4,1.6,3.5l-2.1.9ZM612,461.3v1.7h5.7v2.1h-5.7v.9h4.6v1.9h-4.6v1.1h6.4v1.9h-15v-1.9h5.8v-1.1h-4.2v-1.9h4.2v-.9h-5.1v-2.1h5.1v-1.7h2.9ZM616.4,471.7v9c0,2.2-1.3,2.4-4.2,2.6-.1-.7-.4-1.7-.8-2.4h1.9c.2,0,.3,0,.3-.3v-1.3h-6.1v3.7h-2.7v-11.3h11.6ZM607.5,473.6v1.1h6.1v-1.1h-6.1ZM607.5,476.4v1.1h6.1v-1.1h-6.1Z"/>
            <path class="cls-49" d="M635.1,467.1c-.3-.6-.6-1-1.2-1.7,0,4.3-.3,4.7-3.2,4.9,0-.6-.1-1.1-.6-1.9h1c.6,0,.6,0,.6-2.2h-6.5l-.7.7h5.6v2.8h-4.1v.3h-2.1v-2.6l-.6.4c-.3-.6-.7-1.2-1.1-1.8.9-.7,1.7-1.6,2.5-2.5l1.1.7v-.7h-3v-1.4h3v-1.1h2.3v1.1h1.5v-1.1h2.4v1.1h2.5v1.4h-2.5v.8h-2.4v-.8h-1.5v.8h-2.2l.5.3-.2.3h7.7c1-1.1,1.8-2.3,2.7-4.2l2.3.8c-.2.3-.4.8-.7,1.2h5.8v1.9h-1.2c-.5.9-1.1,1.9-1.8,2.7,1.2.6,2.3,1,3.9,1.4-.6.7-1.1,1.4-1.4,2.2-1.5-.6-2.9-1.3-4.3-2.2-1.2.7-1.9.9-4.1,1.7-.3-.8-.6-1.5-1.2-2.1,1.4-.3,2.4-.6,3.4-1.1-.5-.5-.9-.9-1.2-1.4l-.9,1ZM644.3,472.8v1.2h-21.6v-1.2h21.6ZM641.9,478.5v4.4h-2.7v-.7h-11.6v.8h-2.6v-4.5h16.9ZM640.7,474.7v1.1h-14.7v-1.1h14.7ZM640.7,476.6v1.1h-14.7v-1.1h14.7ZM626,467.9v.9h2v-.9h-2ZM640.6,470.7v1.3h-14.6v-1.3h14.6ZM627.6,479.8v1.1h11.6v-1.1h-11.6ZM637.5,464.7c.4.5.9.9,1.5,1.5.6-.5,1-.9,1.3-1.5h-2.8Z"/>
            <path class="cls-49" d="M654.4,468.2v3.4h1.4v-3.4h2.6v3.4h2.2v2.5h-2.2v5.6h-2.6v-5.6h-1.6c-.4,4.1-1.4,6.1-3.1,8.3-.7-.7-1.4-1.3-2.3-1.8,1.6-1.8,2.3-3.1,2.7-6.5h-2.2v-2.5h2.3v-3.4h2.7ZM666.8,464.7c-1-.9-1.8-1.4-2.7-1.9l1.5-1.7c1,.6,2.1,1.3,3,2.1l-1.3,1.5h3v2.7h-6.7c0,3,.3,4.9.8,7.1,1.6-2.7,1.9-3.8,2.4-5.1l2.7,1.4c-1.7,3.5-2.2,4.2-3.9,6.8,1.1,1.9,1.9,2.3,2.1,2.3.3,0,.6-1.3.6-2.4.9.6,1.8,1,2.7,1.2-.6,2.6-1.1,4.4-2.6,4.4s-1.8-.4-3.1-1.5c-.4-.3-.9-.8-1.6-1.9-2.1,2-4.3,3-5.6,3.7-.4-.9-.9-1.7-1.7-2.5,1.5-.6,3.9-1.6,6-3.8-.7-2.2-1.5-4.8-1.5-9.7h-11.4v-2.7h11.3v-3.5h3c0,.6,0,3,0,3.5h3.2Z"/>
            <path class="cls-49" d="M681.7,477.5c1,.6,2,1.3,2.9,2l-1.5,2.1c-1.1-.9-2.3-1.7-3.4-2.4l1.3-1.7h-4.4v-2.3h13.3v-1.4h-14.3v-2.2h9.2v-1.3h-6.7v-2.3h6.7v-1.2h1.5c-.4-.3-1-.6-1.6-.9.3-.4.5-.7.6-.9h-2.1c.1.3.3.8.5,1.2l-2.6.8c-.3-.7-.6-1.4-.9-2h-1c-1.1,1.4-1.5,1.8-2.8,3.2-.5-.7-1-1.5-1.8-2.1,1.7-1.8,2.3-2.5,3.9-5.2l2.6.8c-.2.4-.4.7-.6,1.2h4.8v2c1.1-1.8,1.6-2.7,2.2-4l2.6.8c-.4.7-.4,1-.6,1.2h7.1v2.2h-3.9c.1.3.4.7.6,1.2l-2.5.8c-.3-.7-.6-1.4-1-2h-1.4c-.4.6-.8,1.2-1.3,1.8h.4v1.2h7.3v2.3h-7.3v1.3h9.4v2.2h-4.3v1.4h3.6v2.3h-3.6v3c0,1.8-.6,2.3-4.6,2.6-.1-1-.5-1.8-.9-2.6h2.1c.4,0,.5,0,.5-.4v-2.6h-8.2Z"/>
            <path class="cls-49" d="M705,475.6c-.3,1.6-.5,2.3-.6,3.1-.1.7-.3,1.4-.8,2.7-.7-.2-1.5-.5-2.2-.7.6-1.8,1.2-3.7,1.3-5.6l2.3.5ZM707.6,470.2l2.1-.9c.7,1.3,1.3,2.7,1.7,4l-2.2.9-.3-.7h-1.1v9.5h-2.6v-9c-1,.1-2.4.3-3.1.4l-.4-2.6h1.7c.5-.7,1-1.7,1.4-2.5-1-.9-2.1-1.7-3.4-2.4l1.2-2.2.8.4c.5-1.2,1.2-2.8,1.7-4.2l2.4,1.1c-.4.7-1.9,3.8-2.2,4.4l.9.6c.6-1,1.2-2.3,1.9-3.5l2.3,1.2c-1,1.8-2.9,5-4.1,6.9.6,0,1.3-.1,1.9-.2l-.5-1.2ZM723.6,469.7c-1,3.3-1.7,5.3-3.4,7.9.9.9,1.8,1.7,3.8,2.8-.6.8-1.2,1.7-1.5,2.7-1.4-.9-2.4-1.6-4-3.3-.9.9-2,1.9-4.5,3.1-.3-.6-.8-1.3-1.6-2.3-.4.6-.9,1.4-1.4,2.1-.6-.7-1.3-1.4-2.2-1.9.5-.6.9-1.1,1.3-1.8-.3,0-.9.2-1.4.4-.2-.8-.4-1.7-.7-4l2.1-.4c.2,1,.3,1.9.5,2.8,2.1-3.6,2.2-7.4,2.2-13.6h-2.2v-2.5h10.6c-.1.6-1.1,5.3-1.4,6.6h2c0,0,1.9,1.3,1.9,1.3ZM716.7,477.7c-.8-1.2-.9-1.4-1.9-3.6-.6,2.2-.6,2.3-1.1,3.5-.5,1.2-.9,2.2-1.4,2.9,2.2-1,3-1.6,4.4-2.9ZM719.3,470.8v.6c-.1,0-2.6-.6-2.6-.6.3-1.7.5-2.2,1.3-6.5h-2.5c0,2,0,3.5,0,4.8,0,.1,1,3.8,3,6.4,1.2-1.6,1.8-3.8,2-4.7h-1.1Z"/>
          </g>
          <g>
            <path class="cls-49" d="M617.8,535.8v4.4h-2.5v-2.3h-4.2c-.6,1.3-1.2,2.5-1.9,3.9h1.8c.4-.9.7-2,1.1-3l2.5.7c-.3.8-.7,1.6-1,2.3h3.6v2.1h-3.7v1.5h3.2v2h-3.2v1.3h3.2v2h-3.2v1.5h4.6v2.1h-9.5v.8h-2.6v-9.2c-.4.5-.8,1-1.3,1.5-.3-.6-.7-1.1-1.1-1.6v6.6h-2.3v-1.4h-1.3v2.3h-2.3v-6.3c-.2.3-.6,1.2-.7,1.3-.2-1.1-.7-2.1-1.3-2.9,1.8-3.5,2.5-6.8,2.9-8.8h-2.1v-2.5h7.4v2.5h-2.6c-.4,1.8-.7,3.1-1.2,4.5h3.5v3.4c2.3-2.2,3.8-4.9,4.5-6.8h-1.2v2.3h-2.3v-4.4h4.2c.3-.6.5-1.6.7-2.4l2.8.4c-.2.6-.4,1.3-.6,2h6ZM600,543.8v4.9h1.3v-4.9h-1.3ZM608.6,544v1.5h2.3v-1.5h-2.3ZM608.6,547.5v1.3h2.3v-1.3h-2.3ZM608.6,550.9v1.5h2.3v-1.5h-2.3Z"/>
            <path class="cls-49" d="M632,539.1c2.3-1.8,3.7-4.4,4.4-5.7l2.7,1-.3.4c2,2.7,3.9,4.3,5.9,5.6-.7.7-1.3,1.5-1.7,2.3-2.2-1.5-3.8-3.2-5.7-5.7-1.3,1.8-2.4,3.1-5.1,5.3-.4-.7-.9-1.4-1.7-2,.4-.2.7-.5.9-.7h-8.9v-2.1h9.4v1.7ZM630.9,546.8v7.8h-2.5v-.9h-2.4v1.3h-2.5v-8.2h7.5ZM630.7,540.5v2h-7v-2h7ZM630.7,543.5v2h-7v-2h7ZM630.8,534.2v2.2h-7v-2.2h7ZM626,549v2.5h2.4v-2.5h-2.4ZM644.7,548.6c-3.3,3.2-6.7,5.5-12,6.7-.4-.9-.9-1.7-1.6-2.4,6.8-1.2,9.9-4.5,11.4-6l2.2,1.7ZM639.8,541.5c-2.2,2.2-3.8,3.6-6.7,5-.4-.7-.9-1.4-1.6-2.1,3.3-1.7,5.1-3.5,6.3-4.7l2,1.7ZM642.2,545.1c-1.6,1.5-4.1,3.7-8.9,5.5-.3-.8-.8-1.5-1.3-2.2,3.7-1.4,5.8-2.9,8.1-5l2,1.6Z"/>
            <path class="cls-49" d="M650.7,538.5c.6,1,1.1,2,1.6,3.1v-5.9h7v-2.2h3.1v2.2h8v2.4h-15.5c0,7.8,0,12.4-4.2,17.1-.6-.7-1.3-1.5-2-2.1,1.8-2.1,2.7-4.3,3.2-6.3-.8.5-1.6.9-2.4,1.3l-.8-2.6c1.2-.5,2.4-1,3.6-1.5,0-.8,0-1.4,0-1.9l-2,.9c-.4-1.2-1-2.4-1.6-3.6l2.1-.9ZM667.3,549.7l-1.6,2.1c-1.3-1.4-2.2-2.3-3.3-3.2-1,1.6-2,2.6-3.4,3.6-.2-.4-.5-.8-.8-1.2v4.2h-2.6v-11.6h5.4v-1.8s-5.6,0-5.6,0v-2.4h14.9v2.4h-6.6v1.8c0,0,6.1,0,6.1,0v9.2c0,1.7-.5,2.2-3.8,2.6-.2-.9-.5-1.8-.9-2.6h1.6c.3,0,.5,0,.5-.4v-2.7ZM658.2,545.8v3.6c1.9-1.5,2.3-2.4,2.6-3.6h-2.6ZM663.4,546.3c1.9,1.4,2,1.5,3.9,3.1v-3.7h-3.8v.5Z"/>
            <path class="cls-49" d="M689.5,539.5c-.1,4.4-.8,10.5-6.7,15.6-.6-.8-1.2-1.5-2-2.1,2.1-1.9,3-3,4.2-5.1-.6-.6-1.4-1.2-2.3-1.7-.3.5-.6,1-1,1.6-.4-.8-1.2-1.8-1.7-2.3v9.6h-2.7v-11c-.4.9-.8,1.5-1.3,2.3-.2-1.3-.7-2.3-1.3-3.3,1.7-2.7,2.9-4.9,4.4-10l2.7,1c-1.1,3-1.2,3.3-1.8,5.1v6.1c.9-1.2,2.6-3.6,3.4-8.3h-1.4v-2.5h7.8v2.5h-3.7c-.1.8-.3,1.7-.5,2.4h3.9ZM685,541.9c-.3.7-.6,1.4-1,2.2.7.4,1.4.9,2,1.3.4-1.2.7-2.4.8-3.6h-1.8ZM692.8,536v13.6h-2.5v-13.6h2.5ZM696.6,534v18.8c0,1.8-1.1,2.2-3.9,2.5-.1-1-.5-1.8-1-2.6h1.9c.3,0,.4,0,.4-.4v-18.3h2.6Z"/>
          </g>
          <g>
            <path class="cls-49" d="M588.2,497.8v1.5h-2.5c.3.6.6,1.1.8,1.7l-1.5.5c-.3-.9-.6-1.6-1-2.3h-1.7c-.7,1-1.6,2-2.6,2.9-.3-.5-.7-1-1.1-1.3,1.5-1.4,2.4-2.4,3.9-5.4l1.6.6c-.3.5-.6,1.1-1,1.6h5.1ZM598.1,502v5.2h-8v2.4h9.2c-.2,6-.2,6-3.6,6.3-.1-.6-.4-1.2-.7-1.7h2.1c.3,0,.4-.2.4-.4.1-.4.3-1.7.3-2.9h-7.6v6.3h-1.6v-5.6c-1.2,1-1.9,1.5-2.4,1.8-2.3,1.4-4.3,2.4-6.3,3-.2-.5-.6-1-1-1.4,1.8-.6,5.4-1.7,8.2-4.2h-5l-.2.8-1.6-.3c.4-1.9.8-4,1.2-5.7h7.1v-2.4h-7.8v-1.4h17.4ZM582.7,507.2l-.5,2.4h6.3v-2.4h-5.8ZM599.5,497.8v1.5h-4.5c.4.6.7,1.1,1,1.8l-1.6.5c-.4-.7-.7-1.5-1.3-2.2h-1.9c-.5.9-1.3,1.8-1.8,2.5-.4-.4-.8-.7-1.3-1,1.5-1.8,2.1-2.9,3-5.2l1.6.4c-.3.6-.5,1.2-.8,1.8h7.6ZM590.1,503.4v2.4h6.5v-2.4h-6.5Z"/>
            <path class="cls-49" d="M626.2,505.6v1.7h-21v-1.7h21Z"/>
            <path class="cls-49" d="M637.2,504.7l1.3-.7c.7,1.2,1.3,2.4,1.7,3.7l-1.4.7-.4-.9-1.9.2v9.6h-1.6v-9.5c-.6,0-3.2.4-3.7.4v-1.8c-.1,0,1.8,0,1.8,0,.4-.9,1.2-2.1,1.7-3.2-1.2-.9-2.4-1.7-3.9-2.5l.8-1.4,1.1.6c.6-1.2,1.2-2.8,1.8-4.5l1.7.7c-.3.6-2.2,4.4-2.2,4.5l1.5,1.1c.7-1.3,1.5-2.9,2-3.8l1.5.9c-.8,1.6-2.8,5-4.3,7.5.9,0,1.9-.1,3-.3l-.7-1.4ZM633.8,510c-.2,1.5-.5,3.7-1.3,5.6-.4-.2-.9-.4-1.5-.5.8-1.9,1.1-3.9,1.3-5.4l1.5.3ZM639.3,509.8c0,1.3.2,2.2.4,3.4-.5,0-1,.2-1.5.3-.3-1.2-.3-2.3-.5-3.6h1.5ZM650.7,503.3h.3c0,0,1.2.7,1.2.7-.3.6-.9,3-1.1,3.6-.7,2-1.2,3.1-2.5,4.9,1.5,1.5,2.3,2.2,4.1,3.3-.4.5-.7,1-1,1.4-1.5-.9-3-2.3-4.1-3.5-2.1,1.9-3.3,2.6-4.8,3.3-.3-.5-.6-.9-1.1-1.3,2.2-1,3.4-1.8,4.8-3.3-1.4-2-1.8-2.7-2.8-5.3-.5,3-1.2,5.9-4.2,9.5-.4-.4-.8-.8-1.4-1.2,4.5-4.4,4.5-10.5,4.5-17.4h-2.9v-1.6h10.1c-.3,1.8-.3,2-1.3,6.7h2.1ZM648.3,504.7l-.2.8-1.7-.3c.6-2.4.7-3,1.5-7.1h-3.6v5.2c.5,3,1.6,5.4,3.4,7.8,1.1-1.4,1.3-2,2-3.8.2-.6.4-1.2.8-2.6h-2.1Z"/>
            <path class="cls-49" d="M660.9,503.4v2.6h-1.9v-2.6h1.9ZM660.9,513v2.6h-1.9v-2.6h1.9Z"/>
            <path class="cls-49" d="M667.1,515.8c.9-1.6,1.2-2.2,3.7-7.2.4.3.9.6,1.3.8-2.3,4.6-2.5,5.1-3.6,7.1l-1.5-.8ZM670.6,505c-.9-.5-2.1-1.1-3.2-1.5l.7-1.3c1.1.4,2.2.9,3.2,1.5l-.7,1.3ZM671.5,500c-.9-.8-1.8-1.5-2.9-2.2l.9-1.2c1.1.6,2.1,1.4,3,2.2l-1,1.2ZM687.8,500.7v1.5h-6.6v5.1h5.9v1.5h-5.9v6h7.1v1.5h-16.3v-1.5h7.6v-6h-5.5v-1.5h5.5v-5.1h-6.5v-1.5h14.6ZM678.6,495.9c1.3.9,2.3,1.8,3.3,2.7l-1.1,1c-1-.9-2-1.8-3.2-2.7l1-1.1Z"/>
            <path class="cls-49" d="M697.6,512.8c-.9,1.5-1.7,2.8-2.6,3.7l-1.4-1c1.1-1.2,1.9-2.2,2.7-3.7l1.3.9ZM705,495.7v1.8h8.1v1.5h-3.7c-.3.8-.5,1.4-.7,2h6.5v1.4h-21.4v-1.4h6.2c-.3-.6-.5-1.4-.9-2h-3.5v-1.5h7.8v-1.8h1.6ZM711.1,511h-7.2c.8.7,1.7,1.4,2.4,2.1l-1.2,1.2c-.6-.7-1.4-1.4-2.4-2.1l1.1-1.2h-6.8v-7.2h14v7.2ZM698.6,505.1v1.5h10.8v-1.5h-10.8ZM698.6,508v1.6h10.8v-1.6h-10.8ZM700.7,511.7v3c0,1,.5,1,1.7,1s2.2,0,3.1,0,1.9,0,2.2-.1c.4-.2.7-.9,1.1-2,.6.3,1.2.6,1.8.7-.8,2.3-1.6,3-3.3,3s-3.2,0-4.5,0c-2.9,0-3.7,0-3.7-1.7v-3.7h1.6ZM700.8,499c.3.6.6,1.3.8,2h5.3c.2-.6.6-1.3.8-2h-6.9ZM712.1,512c1,1.1,2,2.5,2.7,3.7l-1.5.9c-.6-1.2-1.6-2.4-2.6-3.7l1.3-.9Z"/>
          </g>
          <g>
            <path class="cls-49" d="M583.7,584.6l-6.4,5.9-3.4-4,10.3-8.5h5.2v34h-5.8v-27.4Z"/>
            <path class="cls-49" d="M602.1,605.9l13.2-12.8c1.6-1.5,3.5-3.4,3.5-5.8s-2.3-4.5-4.9-4.5-4.8,1.8-5.2,4.6l-6-.5c.6-6.3,5.1-9.6,11.3-9.6s11,3.1,11,9.6-2.2,7.2-5.2,10l-10.5,9.7h15.7v5.2h-22.8v-6.1Z"/>
            <path class="cls-49" d="M640.6,584.6l-6.4,5.9-3.4-4,10.3-8.5h5.2v34h-5.8v-27.4Z"/>
            <path class="cls-49" d="M680.7,586.3c0,3.6-1.7,6.6-5.1,7.6h0c3.3.8,6.2,4.2,6.2,8.4,0,6.7-5.1,10.2-11.5,10.2s-11.5-3.5-11.5-10.2,3-7.6,6.2-8.3h0c-3.4-1.1-5.1-4.1-5.1-7.7,0-5.7,4.7-8.9,10.4-8.9s10.4,3.2,10.4,8.9ZM664.6,601.6c0,3.2,2.4,5.5,5.7,5.5s5.7-2.3,5.7-5.5-2.6-5.3-5.7-5.3-5.7,2.2-5.7,5.3ZM665.7,586.9c0,2.7,1.8,4.8,4.7,4.8s4.7-2.1,4.7-4.8-2-4.6-4.7-4.6-4.7,2.1-4.7,4.6Z"/>
            <path class="cls-49" d="M704.1,613.7h-1.6v-13.2c-.6,1.4-1.4,2.7-2.1,3.8-.3-.5-.7-1.1-1.1-1.5,2.2-3.3,3.6-6.7,4.8-10.5l1.6.8c-.8,2.2-1.1,3.2-1.5,4.2v16.4ZM714.2,593.4v1.5h-4.2c-.1,1.2-.3,2.4-.5,3.5h4c0,5.3-1.3,10.3-6.5,14.7-.3-.4-.8-1-1.3-1.3,2.1-1.6,3.2-2.8,4.7-5.5-1-.7-2.1-1.5-3.1-2.2-.3.5-.6,1.1-1.1,1.6-.3-.5-.8-1-1.2-1.3,2.1-2.8,3-5.5,3.5-9.5h-1.9v-1.5h7.7ZM709.1,599.8c-.3.8-.7,2-1.2,3,1.1.6,2.1,1.4,2.9,2,.6-1.8.9-3.6,1-5h-2.7ZM716.6,594.7v13.2h-1.6v-13.2h1.6ZM720.6,592.6v18.7c0,1-.1,1.7-3.2,2-.1-.5-.4-1.3-.8-1.9h2.1c.2,0,.3-.1.3-.3v-18.6h1.6Z"/>
          </g>
          <g>
            <path class="cls-49" d="M604.9,634l1.3,1.7c-1.8,2-2.4,2.5-4,3.9l.7.7-.9.8h3.4l.3-.2,1.7,1.3c-1.3,2.7-1.6,3.2-2.7,5.3-.4-.2-1-.6-1.8-.9.6-1.3,1.1-2.4,1.7-3.6h-2.3v9c0,1.3-.4,2.2-3.5,2.7,0-.7-.5-1.6-1-2.4h2.1c.2,0,.3-.2.3-.4v-8.9h-4v-1.9h4.7c-1.2-1.2-1.6-1.6-3.2-3l1.3-1.4c.6.5,1.2.9,1.7,1.5.7-.7,1.3-1.4,2-2.2h-6v-1.9h8ZM611.3,652c-2.3,1.7-3.5,2.4-5.1,3.1-.2-.6-.6-1.2-1.2-1.9,1.1-.5,2.7-1.2,4.8-2.7l1.5,1.5ZM617.8,634.1v1.9h-4.3c-.1.8-.3,1.6-.5,2.4h3.9v11.8h-8.9v-11.8h2.9c.2-.7.4-1.6.5-2.4h-4.4v-1.9h10.7ZM610.1,640.2v1.6h4.6v-1.6h-4.6ZM610.1,643.4v1.8h4.6v-1.8h-4.6ZM610.1,646.9v1.7h4.6v-1.7h-4.6ZM614.8,650.6c1,.8,2.3,1.8,3.7,2.7-.7.5-1.2,1.1-1.6,1.7-1.2-.8-2.6-1.9-3.8-3l1.6-1.3Z"/>
            <path class="cls-49" d="M629.7,633.6l1.5,1.5c-1.2,2.7-1.8,4-2.7,6.2.4.6,2.5,4.1,2.5,6.3s-1.2,2.9-4.2,3.6c0-.9-.3-1.6-.9-2.5h1.5c.8,0,1.4-.2,1.4-1.3s-.9-3.2-2.4-5.9c1.2-3,1.2-3.1,2.1-5.9h-2.9v19.2h-2.1v-21h6.2ZM638.4,633.4v3.8h5.7v2.1h-7.2c0,1.1-.1,2.5-.2,3.7h6.4c-.2,4.3-.4,7.9-.6,8.8-.3,1.9-1.5,2.3-4.1,2.6-.2-.7-.4-1.3-.9-2.2h1.9c.5,0,.6,0,.7-.8.3-1.6.5-6.3.5-6.6h-4.3c-.8,4.4-2.3,7.5-6.6,9.9-.2-.6-.8-1.4-1.6-2.1,5.1-2.3,6.3-6.4,6.3-13.3h-3.6v-2.1h5.2v-3.8h2.2Z"/>
            <path class="cls-49" d="M654.2,633.3v4.7h2.3v1.9h-2.3v3.5c.7-.3,1.4-.5,2.3-.9v1.9c-.9.4-1.6.6-2.3.9v6.6c0,1.9-.3,2.5-3.6,2.9,0-.7-.3-1.3-.8-2.1h2.1c.2,0,.3-.2.3-.4v-6.2c-.7.3-1.9.8-2.8,1.1l-.6-2.1c1.2-.3,2.3-.7,3.3-1v-4.2h-3v-1.9h3v-4.7h2ZM662,633.3v3.1h3v-3.1h2.1v3.1h2.7v1.8h-2.7v3.1h3.5v1.8h-13.7v-1.8h3v-3.1h-2.2v-1.8h2.2v-3.1h2.1ZM669,644.6v9.8h-2.2v-1.1h-6.6v1.2h-2v-10h10.9ZM660.1,646.3v1.9h6.6v-1.9h-6.6ZM660.1,649.8v2h6.6v-2h-6.6ZM662,638.2v3.1h3v-3.1h-3Z"/>
            <path class="cls-49" d="M696.9,635.9v1.9h-9.9c-1.2,2.3-1.6,2.8-2.4,4-.5-.5-1.1-.9-1.7-1.3l1-1.4h-3.8v3.2h3.8c0,3.9-.3,8.5-.6,10-.4,1.7-.9,2-3.6,2.4-.2-.7-.5-1.6-.9-2.3h1.9c.4,0,.5-.1.5-.7.2-1.7.3-2.8.6-7.6h-1.8c-.4,3.1-.8,6.5-3.3,9.9-.5-.7-1-1.1-1.6-1.6,2.4-3.6,2.8-6.2,2.8-13.4h-2.1v-1.9h3.2v-3.8h2.3v3.8h3v1.4c1.2-2.1,1.6-3.2,2.5-5.7l2.1.6c-.3.9-.6,1.8-.9,2.4h9.1ZM692.1,638.5v3.5l4.2-.7v6c0,1.7-.2,2.2-3,2.5-.2-.7-.5-1.4-.9-2.1h1.4c.2,0,.3,0,.3-.3v-3.7l-2,.4v6h-2v-5.6l-1.8.3v7c0,.4.1.6.4.6.5,0,2.2,0,3.3,0,2,0,2.4,0,2.7-.1.5-.2.8-1.3.9-1.8.6.5,1.3.8,2.1,1-.4,1.2-.8,2.2-1.7,2.5-.6.2-3,.2-4.1.2-3.3,0-3.8,0-4.3-.1-.1,0-.5-.1-.9-.5-.4-.3-.5-.7-.5-1.5v-7l-1.6.3-.3-2.2,1.9-.3v-3.2h2.1v2.9l1.8-.3v-3.9h2Z"/>
          </g>
        </g>
        <g>
          <polygon class="cls-5" points="618.2 417.4 621.9 424.9 630.3 426.1 624.2 432 625.6 440.3 618.2 436.4 610.7 440.3 612.2 432 606.1 426.1 614.5 424.9 618.2 417.4"/>
          <polygon class="cls-24" points="648 417.4 651.7 424.9 660.1 426.1 654 432 655.5 440.3 648 436.4 640.5 440.3 642 432 635.9 426.1 644.3 424.9 648 417.4"/>
          <polygon class="cls-24" points="677.8 417.4 681.5 424.9 689.9 426.1 683.8 432 685.3 440.3 677.8 436.4 670.4 440.3 671.8 432 665.7 426.1 674.1 424.9 677.8 417.4"/>
        </g>
        <g>
          <g>
            <g>
              <circle class="cls-49" cx="547.9" cy="695.2" r="24"/>
              <g>
                <polygon class="cls-45" points="545.3 702.8 540.4 697.9 550.9 687.4 554.1 694 545.3 702.8"/>
                <polygon class="cls-45" points="556.7 689.4 553.8 686.5 555.4 684.9 557.4 688.6 556.7 689.4"/>
                <polygon class="cls-45" points="535.6 706.8 536.4 707.6 541.1 702.8 541.6 700.8 535.6 706.8"/>
                <rect class="cls-45" x="549.5" y="688.1" width="9.6" height="1.5" transform="translate(649.5 -190.1) rotate(45)"/>
                <rect class="cls-45" x="553.9" y="685.3" width="7.2" height=".8" transform="translate(648.1 -193.3) rotate(45)"/>
                <g>
                  <line class="cls-29" x1="547.8" y1="690.3" x2="549.5" y2="691.9"/>
                  <line class="cls-29" x1="546.1" y1="691.9" x2="547.8" y2="693.6"/>
                  <line class="cls-29" x1="544.5" y1="693.6" x2="546.1" y2="695.3"/>
                  <line class="cls-29" x1="542.8" y1="695.3" x2="544.5" y2="696.9"/>
                </g>
              </g>
            </g>
            <g>
              <path class="cls-49" d="M599.2,682.8v2.4h8.4v1.9h-15.7c0,4.3,0,8-.6,10.3-.9,3.3-2.8,5.7-3.8,6.9-.2-.8-.8-1.4-1.4-1.8,2-2.2,2.9-3.8,3.5-6.8l-2.7,1.5-.8-2.2c1.6-.6,2.5-.9,3.8-1.5,0-.4,0-1.3,0-2.6v-5.6h7.1v-2.4h2.3ZM587.8,688c.6,1,1.1,2.3,1.5,3.3l-1.9.8c-.3-1.1-.8-2.3-1.3-3.4l1.7-.8ZM604,696l1.3,1.1c-.2.3-1.2,1.3-1.3,1.6-.7.8-1.4,1.4-2.2,2,1.7.8,4.3,1.5,6.8,1.5-.6.8-.9,1.6-.9,2.4-1.3-.2-2.7-.6-4.1-1-1.4-.5-2.1-.8-3.8-1.7-2.2,1.2-5.2,2.2-8.4,2.7-.1-.6-.4-1.3-1-2,2.5-.3,4.2-.5,7.6-1.9-1.1-1.1-1.6-1.5-2.5-2.8h-1.8v-1.8h10.4ZM603.2,688.7v3.5c0,.6,0,.7.4.7,1.6,0,2,0,2.1-.5.1-.3.3-1.3.4-1.9.6.6,1.6.8,2.2,1-.6,2.7-1,3.2-2.6,3.2h-2.5c-1.1,0-2.1,0-2.1-1.1v-3h-3.9c-.1,1.5-.4,3.6-3.8,5.1-.2-.6-.7-1.3-1.2-1.8.8-.3,1.9-.7,2.4-1.6.3-.5.5-1.2.5-1.8v-1.8h8.2ZM597.8,697.9c.6.6,1.3,1.3,2.1,1.8.8-.5,1.7-1.3,2.1-1.8h-4.2Z"/>
              <path class="cls-49" d="M621,682.9v2.3h5.2v-2.3h2.1v2.3h5.6v2h-5.6v1.9h-2.1v-1.9h-5.2v1.9h-2.1v-1.9h-5.5v-2h5.5v-2.3h2.1ZM632.1,689.8v14.2h-2.3v-1.3h-12.2v1.6h-2.2v-14.4h16.7ZM617.6,691.8v3.5h4.9v-3.5h-4.9ZM617.6,697.1v3.7h4.9v-3.7h-4.9ZM624.6,691.8v3.5h5.2v-3.5h-5.2ZM624.6,697.1v3.7h5.2v-3.7h-5.2Z"/>
            </g>
          </g>
          <g>
            <g>
              <path class="cls-49" d="M727.4,683.4l1.5,1.5c-1.2,2.7-1.8,4-2.7,6.2.4.6,2.5,4.1,2.5,6.3s-1.2,2.9-4.2,3.6c0-.9-.3-1.6-.9-2.5h1.5c.8,0,1.4-.2,1.4-1.3s-.9-3.2-2.4-5.9c1.2-3,1.2-3.1,2.1-5.9h-2.9v19.2h-2.1v-21h6.2ZM736.1,683.2v3.8h5.7v2.1h-7.2c0,1.1-.1,2.5-.2,3.7h6.4c-.2,4.3-.4,7.9-.6,8.8-.3,1.9-1.5,2.3-4.1,2.6-.2-.7-.4-1.3-.9-2.2h1.9c.5,0,.6,0,.7-.8.3-1.6.5-6.3.5-6.6h-4.3c-.8,4.4-2.3,7.5-6.6,9.9-.2-.6-.8-1.4-1.6-2.1,5.1-2.3,6.3-6.4,6.3-13.3h-3.6v-2.1h5.2v-3.8h2.2Z"/>
              <path class="cls-49" d="M752.7,683v4.3h3.1v8.5h-3.1v3.8l1.2-.3-.8-1.6,1.7-.7c.8,1.3,1.5,2.8,2.1,4.3l-1.8.7-.5-1.2c-3.1,1.1-4.9,1.7-7.3,2.3l-.9-2.4c1.4-.2,2.9-.5,4.3-.7v-4.3h-1.2v1.2h-1.9v-9.8h3.1v-4.3h2ZM749.5,689.1v4.9h1.2v-4.9h-1.2ZM752.7,689.1v4.9h1.2v-4.9h-1.2ZM763.1,682.9v4.3h5v1.8h-1.8c-.5,4.2-1.1,6.1-2.8,9.4,1.1,1.4,2.4,2.7,5.4,4.1-.8.6-1.3,1.4-1.7,2.1-2.2-1.4-3.5-2.6-5-4.3-2,2-3.4,3.1-6.3,4.7-.3-.7-.7-1.3-1.3-1.8,3.2-1.4,4.6-2.5,6.3-4.5-1.2-2-2.3-4.4-3.1-9.6h-1.4v-1.8h4.6v-4.3h2.1ZM760,689c.3,3.6,1.4,6.1,2.3,7.5,1-1.8,1.7-3.8,2.1-7.5h-4.4Z"/>
            </g>
            <g>
              <circle class="cls-49" cx="681.9" cy="695.2" r="24"/>
              <g>
                <circle class="cls-45" cx="671.2" cy="688.8" r="1.5"/>
                <ellipse class="cls-2" cx="686.7" cy="702.8" rx="2.7" ry="11.3" transform="translate(-295.8 691.4) rotate(-45)"/>
                <path class="cls-2" d="M680.4,683.5c1.8-4.8,4.1-8.4,5.2-8,1.1.4,2.2,5.2.4,10-1.8,4.8-5.7,7.8-6.8,7.4s-.6-4.6,1.1-9.5Z"/>
                <path class="cls-2" d="M686.2,684.8c3.6-3.6,7.2-5.9,8.1-5s-.2,5.7-3.8,9.3c-3.6,3.6-8.4,4.7-9.3,3.8-.8-.8,1.4-4.5,5-8.1Z"/>
                <circle class="cls-2" cx="678.7" cy="694.4" r="4"/>
                <circle class="cls-45" cx="675.8" cy="688.8" r="1.5"/>
                <path class="cls-45" d="M673.3,690.3l-12.4,7.1,13.2-5.5s1-1.4-.8-1.6Z"/>
                <polyline class="cls-42" points="676.9 699.4 678.5 703.6 675.3 709.6"/>
                <polyline class="cls-42" points="674.7 697.7 671.8 701.1 672.7 707.8"/>
                <polyline class="cls-42" points="679.3 699.9 681.9 704.1 681 709.2"/>
              </g>
            </g>
          </g>
        </g>
      </g>
      <g>
        <g>
          <path class="cls-49" d="M388.2,108.9v25.1h-7.3v-1.7h-29.9v17c0,2.5.7,3.1,5.5,3.1h17.3c3.5,0,7,0,8.8,0,1.7,0,2.5-1.3,3.7-7.5,2.3,1.2,4.8,2.2,7.1,2.6-2.5,11.2-6.1,11.2-12.5,11.2h-20c-9.7,0-10.2,0-12.8-1.2-2.9-1.5-4.1-3.7-4.1-8.2v-40.6h44.4ZM351,115.1v11h11.8v-11h-11.8ZM369.5,115.1v11h11.5v-11h-11.5Z"/>
          <path class="cls-49" d="M457.4,108.5v6.4h-18.7v8.6h16.9v36.1h-7.3v-2.2h-34v2.6h-6.9v-36.5h14.1v-8.6h-16.1v-6.4h52ZM427.4,129.5c-.8,7.4-2.9,12.4-9.4,18.4-.8-1.9-2.1-3.9-3.7-5.6v8.9h34v-11.7c-1.7,5.9-3.6,6.2-6.7,6.2h-5.7c-.9-.1-3.5-.4-3.5-4.4v-11.7h-5ZM414.3,129.5v12.1c3.1-2.3,5.6-6.8,6.4-12.1h-6.4ZM432.4,123.5v-8.6h-4.5v8.6h4.5ZM438.7,129.5v9.1c0,1.1.7,1.1,1.1,1.1,1.7,0,1.9,0,2.2-.6.3-.6.7-3.7.8-4.3,2,1.6,3.8,2.2,5.5,2.6v-7.9h-9.6Z"/>
        </g>
        <g>
          <path class="cls-49" d="M348.5,181.7h7.8c4.2,0,8.5,1.6,8.5,6.3s-1.7,4.9-4.5,5.8h0c3.3.4,5.8,3,5.8,6.3,0,5.6-5.2,7.1-9.9,7.1h-7.6v-25.5ZM351.6,192.5h4.2c2.8,0,5.8-.6,5.8-4.1s-2.7-3.9-5.5-3.9h-4.5v8ZM351.6,204.4h5.1c3,0,6.2-1.2,6.2-4.4s-3-4.6-6.1-4.6h-5.2v9.1Z"/>
          <path class="cls-49" d="M374.3,194.4c0-1.5-.1-2.9-.1-4h2.7c0,.9,0,1.8,0,2.8h0c.8-1.7,2.8-3.2,5.6-3.2s.8,0,1.2.2l-.2,2.8c-.5-.1-1-.2-1.5-.2-3.4,0-4.9,2.4-4.9,6.3v8.2h-2.8v-12.9Z"/>
          <path class="cls-49" d="M390.4,192.5c1.7-1.8,4.2-2.6,6.7-2.6,5,0,7.1,2.4,7.1,7.1v7.2c0,1,.1,2.1.3,2.9h-2.7c-.2-.8-.2-1.8-.2-2.5h0c-1.1,1.7-3,3-5.5,3s-6.3-1.7-6.3-5c0-5.6,6.5-5.9,10.6-5.9h1.1v-.5c0-2.4-1.5-3.7-4.2-3.7s-3.7.6-5,1.8l-1.8-1.8ZM398.5,199.1c-3.6,0-5.9,1-5.9,3.2s1.6,2.9,3.7,2.9c3.2,0,4.9-2.3,5-5.1v-1.1h-2.8Z"/>
          <path class="cls-49" d="M411.3,205l9.9-12.3h-9.5v-2.4h13.1v2.2l-9.9,12.3h10.2v2.4h-13.8v-2.2Z"/>
          <path class="cls-49" d="M434.1,181.7c1.2,0,2.1.9,2.1,2.1s-.9,2.1-2.1,2.1-2.1-.9-2.1-2.1.9-2.1,2.1-2.1ZM432.7,190.4h2.8v16.8h-2.8v-16.8Z"/>
          <path class="cls-49" d="M444.9,180h2.8v27.2h-2.8v-27.2Z"/>
        </g>
      </g>
      <g>
        <path class="cls-34" d="M156.5,720.7c15,0,27.5,12.1,27.5,27.1v68.2h-55s0-68.2,0-68.2c0-15,12.5-27.1,27.5-27.1Z"/>
        <g>
          <path class="cls-49" d="M264.8,818c-1.1,0-2-.9-2-2,0-30.9,8.2-59.9,23.2-81.6,15.1-21.9,35.1-33.9,56.5-33.9s41.4,12,56.5,33.9c15,21.7,23.2,50.7,23.2,81.6s-.9,2-2,2h-155.4Z"/>
          <path class="cls-45" d="M342.5,702.5c42.6,0,77.7,50.2,77.7,113.5h-155.4c0-63.3,35.1-113.5,77.7-113.5M342.5,698.5c-22,0-42.7,12.3-58.1,34.8-15.2,22.1-23.6,51.5-23.6,82.7s1.8,4,4,4h155.4c2.2,0,4-1.8,4-4,0-31.3-8.4-60.7-23.6-82.7-15.4-22.4-36.1-34.8-58.1-34.8h0Z"/>
        </g>
        <g>
          <g>
            <g>
              <path class="cls-23" d="M329.5,411c0-3,3.2-10.5,12-10.5s12,7.4,12,10.5,1.6,28.3,1.6,28.3c0,0-4.9,5.6-13.6,5.6-8.7,0-13.6-5.6-13.6-5.6,0,0,1.6-25.3,1.6-28.3Z"/>
              <path class="cls-2" d="M328.9,438.5s3.9-.5,4.7-1.3c.8-.8.4-9.7.4-9.7l7.5-.2,7.5.2s-.3,8.9.4,9.7c.8.8,4.7,1.3,4.7,1.3l2.6,2.1v25.9h-15.2s-15.2,0-15.2,0v-25.9s2.6-2.1,2.6-2.1Z"/>
              <path class="cls-3" d="M325.1,441.5c3.2,1.7,13.7,2.3,14.7,4.5"/>
              <path class="cls-3" d="M357.9,441.5c-3.2,1.7-13.7,2.3-14.7,4.5"/>
              <path class="cls-28" d="M337,433.2s1.5,6.6,3.1,9.9"/>
              <path class="cls-28" d="M346,433.2s-1.5,6.6-3.1,9.9"/>
              <path class="cls-25" d="M332.8,413.6c0-2.3,8.7-4,8.7-5.3,0,1.3,8.7,3,8.7,5.3s1,5.2,1,6.6-.3,4.3-1.4,5.4c-1.1,1.1-1.5,6.6-2.9,8.1-1.4,1.5-3.9,3.3-5.4,2.3-1.5,1.1-4-.8-5.4-2.3-1.4-1.5-1.8-7-2.9-8.1-1.1-1.1-1.4-4-1.4-5.4s1-4.4,1-6.6Z"/>
              <path class="cls-49" d="M340,418.5s-1.2-1.5-2.4-1.5-3.1.1-3.4.3c-.2.2-.5,1.2-.5,1.2,0,0,1.6,1.9,2.9,1.9s3.3-.9,3.3-1.9Z"/>
              <path class="cls-49" d="M343,418.5s1.2-1.5,2.4-1.5,3.1.1,3.4.3c.2.2.5,1.2.5,1.2,0,0-1.6,1.9-2.9,1.9s-3.3-.9-3.3-1.9Z"/>
              <path class="cls-3" d="M342.4,418.3c-.2.8-.3,2.6-.1,3.9.1,1.4.1,2.8,0,3.5-.1.8-.8.8-.8.8"/>
              <path class="cls-49" d="M337.8,428.3c.3-.7,2.3-1.3,2.8-1.3s.9.2.9.2c0,0,.4-.2.9-.2s2.4.6,2.8,1.3c.3.7.6,2.4.6,2.4,0,0-.7-.3-1.1-.7,0,0-1.2.1-1.7-.8,0,0-.6.2-1.3-.4-.6.6-1.6.4-1.6.4-.5.9-1.7.8-1.7.8-.4.4-1.1.7-1.1.7,0,0,.3-1.7.6-2.4Z"/>
            </g>
            <g>
              <path class="cls-12" d="M323.6,605.8h2.9s0-2,0-2c14.2-1.8,41-22,41-22v84.9h-26s-26,0-26,0v-50.7c.9-5.1,8.1-10.1,8.1-10.1Z"/>
              <g>
                <line class="cls-37" x1="365.1" y1="583.5" x2="365.1" y2="666.7"/>
                <line class="cls-37" x1="360.8" y1="583.5" x2="360.8" y2="666.7"/>
                <line class="cls-37" x1="356.5" y1="583.5" x2="356.5" y2="666.7"/>
                <line class="cls-37" x1="352.2" y1="583.5" x2="352.2" y2="666.7"/>
                <line class="cls-37" x1="347.8" y1="583.5" x2="347.8" y2="666.7"/>
                <line class="cls-37" x1="343.5" y1="583.5" x2="343.5" y2="666.7"/>
                <line class="cls-37" x1="339.2" y1="583.5" x2="339.2" y2="666.7"/>
                <line class="cls-37" x1="334.9" y1="583.5" x2="334.9" y2="666.7"/>
                <line class="cls-37" x1="330.5" y1="583.5" x2="330.5" y2="666.7"/>
                <line class="cls-37" x1="326.2" y1="583.5" x2="326.2" y2="666.7"/>
                <line class="cls-37" x1="321.9" y1="583.5" x2="321.9" y2="666.7"/>
                <line class="cls-37" x1="317.5" y1="583.5" x2="317.5" y2="666.7"/>
              </g>
              <path class="cls-12" d="M243.6,452.2c5.3,0,45.1,0,45.1,0,2.7,0,18-9.5,21.8-10.5,3.8-1,10.4-.8,10.4-.8,2.9-1.9,8-2.8,8-2.8,0,0-2.6,21.8,12.6,21.8,15.2,0,12.6-21.8,12.6-21.8,0,0,5.1.9,8,2.8,0,0,6.6-.2,10.4.8,3.8,1,19.1,10.5,21.8,10.5,0,0,39.8,0,45.1,0s-.8,19.7-7.9,28.3c-7.2,8.6-12,8.3-12,8.3l-32-.8s-6.6,5.3-10.6,5.3v47.5c0,4.4-2.5,3.6-2.5,3.6,0,5.2-2.9,4.4-2.9,4.4,0,3.5-1.3,4.5-1.3,4.5,0,0,0,19.8,0,23.5s-2.7,5-2.7,5c0,0-26.8,20.2-41,22v2h-2.9s-7.1,5.1-8.1,10.1c0,0-2.7-1.2-2.7-5v-23.5s-1.3-1-1.3-4.5,0-88.3,0-88.3c-8.5,0-16-6.6-16-6.6l-32,.8s-4.9.3-12-8.3c-7.2-8.6-13.2-28.3-7.9-28.3Z"/>
            </g>
            <path class="cls-3" d="M387.5,488.1s18.6-7.3,37.3-24.2"/>
            <path class="cls-3" d="M295.5,488.1s-18.6-7.3-37.3-24.2"/>
            <path class="cls-3" d="M414,460.2s-15.8,18.7-34.1,26.4"/>
            <path class="cls-3" d="M269.9,460.2s18.4,21.8,39.6,30.7"/>
            <path class="cls-3" d="M372.5,452.6s-5,12.2-10.6,17.1"/>
            <path class="cls-28" d="M327.6,455.7s.7,106.2.7,113.3c0,7.1-1,18-1,18-2.9,0-8.4-1.2-8.4-1.2,0,0-5.2,2.9-6.2,1.8"/>
            <path class="cls-31" d="M326.5,587v18.8h-2.9s-7.1,5.1-8.1,10.1"/>
            <path class="cls-31" d="M367.5,581.8s-26.8,20.2-41,22"/>
            <path class="cls-3" d="M327.6,455.7c0,7.2,4.7,12.9,7.2,14"/>
            <path class="cls-3" d="M399.1,458c-6.5,8.1-26.4,26.8-35.6,31.4-9.2,4.5-26.3,2.5-26.3,2.5"/>
            <path class="cls-3" d="M363.5,489.3s-11.7,19.8-20.2,26"/>
            <path class="cls-3" d="M356.5,520.9s-11.6,31.4-23.9,40.3"/>
            <path class="cls-3" d="M360.1,524.4s-9.5,43.7-26.6,66.4"/>
            <line class="cls-7" x1="374.4" y1="544.4" x2="374.4" y2="481.8"/>
            <line class="cls-7" x1="371.5" y1="548.8" x2="371.5" y2="490.9"/>
            <line class="cls-16" x1="370.2" y1="553.3" x2="370.2" y2="517.5"/>
            <g>
              <path class="cls-30" d="M242.1,453.1h-3.2c-1.3,0-2.8-2-5.2-2s-5.5.6-8.5.6-4.5.2-3.4,1.4c0,0-9.8.5-7.9,2.4,0,0-2.6.5-2.6,1.7s1.4,1.6,1.4,1.6c0,0-1.1,1.7,2,2.5,0,0-.8.7,1.7,1.7,2.4,1,7.7.6,7.7.6,0,0,3.9.7,7,.7s7.4-1.7,7.4-1.7h7.1s-3.5-4-3.5-9.5Z"/>
              <path class="cls-16" d="M221.8,453.1s1.3,1.6,3.3,1.3,3,0,3,0c0,0,2.7,3.8,6.8,3.8"/>
              <path class="cls-16" d="M223.7,455.1s-.6,5,.4,7.3"/>
              <path class="cls-16" d="M213.9,455.5s1.3,1.4,4.3.4c0,0,2.6.7,5.4,0"/>
              <path class="cls-16" d="M212.7,458.8s2.1,0,2.9-.5c0,0,4.8,1.3,7.9.4"/>
              <path class="cls-16" d="M214.7,461.3s1.5-.1,2.1-.4c.6-.3,3.6,1.6,7,.4"/>
            </g>
            <g>
              <path class="cls-30" d="M440.9,453.1h3.2c1.3,0,2.8-2,5.2-2s5.5.6,8.5.6,4.5.2,3.4,1.4c0,0,9.8.5,7.9,2.4,0,0,2.6.5,2.6,1.7s-1.4,1.6-1.4,1.6c0,0,1.1,1.7-2,2.5,0,0,.8.7-1.7,1.7-2.4,1-7.7.6-7.7.6,0,0-3.9.7-7,.7s-7.4-1.7-7.4-1.7h-7.1s3.5-4,3.5-9.5Z"/>
              <path class="cls-16" d="M461.2,453.1s-1.3,1.6-3.3,1.3c-2-.3-3,0-3,0,0,0-2.7,3.8-6.8,3.8"/>
              <path class="cls-16" d="M459.3,455.1s.6,5-.4,7.3"/>
              <path class="cls-16" d="M469.1,455.5s-1.3,1.4-4.3.4c0,0-2.6.7-5.4,0"/>
              <path class="cls-16" d="M470.3,458.8s-2.1,0-2.9-.5c0,0-4.8,1.3-7.9.4"/>
              <path class="cls-16" d="M468.3,461.3s-1.5-.1-2.1-.4c-.6-.3-3.6,1.6-7,.4"/>
            </g>
          </g>
          <rect class="cls-49" x="311.1" y="666.7" width="60.7" height="4.7"/>
          <rect class="cls-49" x="308.7" y="673.9" width="65.6" height="39.1"/>
          <rect class="cls-25" x="310.5" y="671.4" width="62" height="2.5"/>
        </g>
        <g>
          <g>
            <rect class="cls-45" x="460.5" y="717.1" width="55" height="99"/>
            <rect class="cls-32" x="460.5" y="717.1" width="55" height="99"/>
          </g>
          <g>
            <rect class="cls-49" x="506.3" y="740.7" width="2" height="8.2"/>
            <rect class="cls-49" x="499.8" y="740.7" width="2" height="8.2"/>
            <rect class="cls-49" x="493.4" y="740.7" width="2" height="8.2"/>
            <rect class="cls-49" x="486.9" y="740.7" width="2" height="8.2"/>
          </g>
          <g>
            <rect class="cls-49" x="506.3" y="755.2" width="2" height="8.2"/>
            <rect class="cls-49" x="499.8" y="755.2" width="2" height="8.2"/>
            <rect class="cls-49" x="493.4" y="755.2" width="2" height="8.2"/>
            <rect class="cls-49" x="486.9" y="755.2" width="2" height="8.2"/>
            <rect class="cls-49" x="480.5" y="755.2" width="2" height="8.2"/>
            <rect class="cls-49" x="474" y="755.2" width="2" height="8.2"/>
            <rect class="cls-49" x="467.6" y="755.2" width="2" height="8.2"/>
          </g>
          <g>
            <rect class="cls-49" x="506.3" y="784.1" width="2" height="8.2"/>
            <rect class="cls-49" x="499.8" y="784.1" width="2" height="8.2"/>
            <rect class="cls-49" x="493.4" y="784.1" width="2" height="8.2"/>
          </g>
          <g>
            <rect class="cls-45" x="488.6" y="708.3" width="20.4" height="8.8"/>
            <rect class="cls-32" x="488.6" y="708.3" width="20.4" height="8.8"/>
          </g>
        </g>
        <g>
          <rect class="cls-27" x="197.1" y="687.1" width="55" height="129.1"/>
          <g>
            <rect class="cls-45" x="242.9" y="696.2" width="2" height="8.2"/>
            <rect class="cls-45" x="236.5" y="696.2" width="2" height="8.2"/>
            <rect class="cls-45" x="230" y="696.2" width="2" height="8.2"/>
            <rect class="cls-45" x="223.6" y="696.2" width="2" height="8.2"/>
            <rect class="cls-45" x="217.1" y="696.2" width="2" height="8.2"/>
            <rect class="cls-45" x="210.7" y="696.2" width="2" height="8.2"/>
            <rect class="cls-45" x="204.2" y="696.2" width="2" height="8.2"/>
          </g>
          <g>
            <rect class="cls-45" x="242.9" y="710.7" width="2" height="8.2"/>
            <rect class="cls-45" x="236.5" y="710.7" width="2" height="8.2"/>
            <rect class="cls-45" x="230" y="710.7" width="2" height="8.2"/>
            <rect class="cls-45" x="223.6" y="710.7" width="2" height="8.2"/>
            <rect class="cls-45" x="217.1" y="710.7" width="2" height="8.2"/>
            <rect class="cls-45" x="210.7" y="710.7" width="2" height="8.2"/>
            <rect class="cls-45" x="204.2" y="710.7" width="2" height="8.2"/>
          </g>
          <g>
            <rect class="cls-45" x="242.9" y="725.2" width="2" height="8.2"/>
            <rect class="cls-45" x="236.5" y="725.2" width="2" height="8.2"/>
            <rect class="cls-45" x="230" y="725.2" width="2" height="8.2"/>
            <rect class="cls-45" x="223.6" y="725.2" width="2" height="8.2"/>
            <rect class="cls-45" x="217.1" y="725.2" width="2" height="8.2"/>
            <rect class="cls-45" x="210.7" y="725.2" width="2" height="8.2"/>
            <rect class="cls-45" x="204.2" y="725.2" width="2" height="8.2"/>
          </g>
          <g>
            <rect class="cls-45" x="242.9" y="739.6" width="2" height="8.2"/>
            <rect class="cls-45" x="236.5" y="739.6" width="2" height="8.2"/>
            <rect class="cls-45" x="230" y="739.6" width="2" height="8.2"/>
            <rect class="cls-45" x="223.6" y="739.6" width="2" height="8.2"/>
            <rect class="cls-45" x="217.1" y="739.6" width="2" height="8.2"/>
            <rect class="cls-45" x="210.7" y="739.6" width="2" height="8.2"/>
            <rect class="cls-45" x="204.2" y="739.6" width="2" height="8.2"/>
          </g>
          <rect class="cls-27" x="225.2" y="673.3" width="20.4" height="13.8"/>
        </g>
        <g>
          <rect class="cls-27" x="283.7" y="743" width="53.1" height="73.1"/>
          <g>
            <rect class="cls-45" x="326.7" y="753.2" width="4.4" height="7.3"/>
            <rect class="cls-45" x="317.4" y="753.2" width="4.4" height="7.3"/>
            <rect class="cls-45" x="308" y="753.2" width="4.4" height="7.3"/>
            <rect class="cls-45" x="298.7" y="753.2" width="4.4" height="7.3"/>
            <rect class="cls-45" x="289.3" y="753.2" width="4.4" height="7.3"/>
          </g>
          <g>
            <rect class="cls-45" x="326.7" y="778.4" width="4.4" height="7.3"/>
            <rect class="cls-45" x="317.4" y="778.4" width="4.4" height="7.3"/>
            <rect class="cls-45" x="308" y="778.4" width="4.4" height="7.3"/>
          </g>
          <g>
            <rect class="cls-45" x="326.7" y="791" width="4.4" height="7.3"/>
            <rect class="cls-45" x="317.4" y="791" width="4.4" height="7.3"/>
            <rect class="cls-45" x="308" y="791" width="4.4" height="7.3"/>
          </g>
        </g>
        <g>
          <rect class="cls-27" x="411.5" y="743" width="53.1" height="73.1"/>
          <g>
            <rect class="cls-45" x="454.5" y="753.2" width="4.4" height="7.3"/>
            <rect class="cls-45" x="445.2" y="753.2" width="4.4" height="7.3"/>
            <rect class="cls-45" x="435.8" y="753.2" width="4.4" height="7.3"/>
            <rect class="cls-45" x="426.5" y="753.2" width="4.4" height="7.3"/>
            <rect class="cls-45" x="417.1" y="753.2" width="4.4" height="7.3"/>
          </g>
          <g>
            <rect class="cls-45" x="454.5" y="765.8" width="4.4" height="7.3"/>
            <rect class="cls-45" x="445.2" y="765.8" width="4.4" height="7.3"/>
            <rect class="cls-45" x="435.8" y="765.8" width="4.4" height="7.3"/>
            <rect class="cls-45" x="426.5" y="765.8" width="4.4" height="7.3"/>
            <rect class="cls-45" x="417.1" y="765.8" width="4.4" height="7.3"/>
          </g>
          <g>
            <rect class="cls-45" x="454.5" y="778.4" width="4.4" height="7.3"/>
            <rect class="cls-45" x="445.2" y="778.4" width="4.4" height="7.3"/>
            <rect class="cls-45" x="435.8" y="778.4" width="4.4" height="7.3"/>
            <rect class="cls-45" x="426.5" y="778.4" width="4.4" height="7.3"/>
            <rect class="cls-45" x="417.1" y="778.4" width="4.4" height="7.3"/>
          </g>
          <g>
            <rect class="cls-45" x="454.5" y="791" width="4.4" height="7.3"/>
            <rect class="cls-45" x="445.2" y="791" width="4.4" height="7.3"/>
            <rect class="cls-45" x="435.8" y="791" width="4.4" height="7.3"/>
            <rect class="cls-45" x="426.5" y="791" width="4.4" height="7.3"/>
            <rect class="cls-45" x="417.1" y="791" width="4.4" height="7.3"/>
          </g>
          <g>
            <rect class="cls-45" x="454.5" y="803.5" width="4.4" height="7.3"/>
            <rect class="cls-45" x="445.2" y="803.5" width="4.4" height="7.3"/>
            <rect class="cls-45" x="435.8" y="803.5" width="4.4" height="7.3"/>
            <rect class="cls-45" x="426.5" y="803.5" width="4.4" height="7.3"/>
            <rect class="cls-45" x="417.1" y="803.5" width="4.4" height="7.3"/>
          </g>
        </g>
        <g>
          <rect class="cls-8" x="349.2" y="761" width="53.1" height="55.1"/>
          <g>
            <rect class="cls-49" x="382.2" y="771.2" width="4.4" height="7.3"/>
            <rect class="cls-49" x="375.4" y="771.2" width="4.4" height="7.3"/>
            <rect class="cls-49" x="368.5" y="771.2" width="4.4" height="7.3"/>
            <rect class="cls-49" x="361.7" y="771.2" width="4.4" height="7.3"/>
            <rect class="cls-49" x="354.8" y="771.2" width="4.4" height="7.3"/>
          </g>
          <g>
            <rect class="cls-49" x="382.2" y="783.8" width="4.4" height="7.3"/>
            <rect class="cls-49" x="375.4" y="783.8" width="4.4" height="7.3"/>
            <rect class="cls-49" x="368.5" y="783.8" width="4.4" height="7.3"/>
            <rect class="cls-49" x="361.7" y="783.8" width="4.4" height="7.3"/>
            <rect class="cls-49" x="354.8" y="783.8" width="4.4" height="7.3"/>
          </g>
          <g>
            <rect class="cls-49" x="382.2" y="796.4" width="4.4" height="7.3"/>
            <rect class="cls-49" x="375.4" y="796.4" width="4.4" height="7.3"/>
            <rect class="cls-49" x="368.5" y="796.4" width="4.4" height="7.3"/>
            <rect class="cls-49" x="361.7" y="796.4" width="4.4" height="7.3"/>
            <rect class="cls-49" x="354.8" y="796.4" width="4.4" height="7.3"/>
          </g>
        </g>
        <g>
          <rect class="cls-8" x="238.3" y="761" width="53.1" height="55.1"/>
          <g>
            <rect class="cls-49" x="271.3" y="783.8" width="4.4" height="7.3"/>
            <rect class="cls-49" x="264.5" y="783.8" width="4.4" height="7.3"/>
            <rect class="cls-49" x="257.6" y="783.8" width="4.4" height="7.3"/>
          </g>
          <g>
            <rect class="cls-49" x="271.3" y="796.4" width="4.4" height="7.3"/>
            <rect class="cls-49" x="264.5" y="796.4" width="4.4" height="7.3"/>
            <rect class="cls-49" x="250.7" y="796.4" width="4.4" height="7.3"/>
            <rect class="cls-49" x="243.9" y="796.4" width="4.4" height="7.3"/>
          </g>
        </g>
        <line class="cls-20" x1="120" y1="816.5" x2="1080" y2="816.5"/>
      </g>
      <g>
        <rect class="cls-10" x="120" y="100.5" width="180" height="180" transform="translate(420 381) rotate(180)"/>
        <polygon class="cls-48" points="276.1 190.5 210 246.6 143.9 190.5 210 134.4 276.1 190.5"/>
        <circle class="cls-49" cx="210" cy="190.5" r="32.5"/>
        <path class="cls-44" d="M183.2,172.2s40.4-2.3,57.5,29"/>
        <circle class="cls-45" cx="225.7" cy="190.2" r=".5"/>
        <circle class="cls-45" cx="232.7" cy="199.2" r=".5"/>
        <circle class="cls-45" cx="229.7" cy="203.2" r=".5"/>
        <circle class="cls-45" cx="221.7" cy="207.2" r=".5"/>
        <circle class="cls-45" cx="186.7" cy="179.2" r=".5"/>
        <circle class="cls-45" cx="184.7" cy="192.2" r=".5"/>
        <circle class="cls-45" cx="189.7" cy="199.2" r=".5"/>
        <circle class="cls-45" cx="211.7" cy="214.2" r=".5"/>
        <circle class="cls-45" cx="212.7" cy="194.2" r=".5"/>
        <circle class="cls-45" cx="223.7" cy="202.2" r=".5"/>
        <circle class="cls-45" cx="225.7" cy="212.2" r=".5"/>
        <circle class="cls-45" cx="215.7" cy="209.2" r=".5"/>
      </g>
      <g>
        <path class="cls-11" d="M656.4,734.4l-3.7-6.5h.2c0,0,.5-8,.5-8l5.5,2.2-.5,4.7-1.3.8-.5,1.4h.3c0,0,.4-.8.4-.8l.5-.5-.2,1.2-.8,1.3.5.3,1.1-1,.8-2.4h0s.9-2.3.9-2.3c.2-.7.4-1.3.5-2,0-.3.1-.5.2-.8,0,0,0,0,0,0,0-.1,0-.2,0-.3,0,0,0,0,0-.1,0-.2,0-.3,0-.5,0,0,0-.2,0-.3,0,0,0-.2,0-.3,0,0,0,0,0,0,0,0,0-.1,0-.2-.1-.2-.4-.4-.6-.4-.1-.1-.3-.2-.5-.3l-6-2.4c-.1,0-.3,0-.4-.1h0c0,0-.2,0-.2,0-.3,0-.6,0-.9,0l-1.4.2c-.3,0-.6.1-.9.2-.1,0-.2,0-.4,0,0-.4-.1-.7-.4-1-.6-.7-1.6-.8-2.3-.2-.5.5-.7,1.2-.6,1.8-.5,0-1,.2-1.5.2h0c-.2,0-.4,0-.5.1l-2.2,4.9-4.6-1.6c.2-.3.4-.6.5-1-.2,0-.7,0-.7.2v-1.1h-1.7c0,0,0,2.7,0,2.7h1.5s0,0,0,0c0,0,.1,0,.2,0,2.2,1.2,4.4,2.3,6.5,3.6,0,0,0,0,0,0,0,0,.1-.2.2-.3,0,0,0,0,0,0,0,0,.1-.2.2-.3l1.7-3.9,2.4,7-4.1,5.9-4.9,10.8c-.4-.5-2.6-2.6-2.6-2.6l2,4c3.2-3.6,7-10.7,7-10.7l6-3.6,4,3.4,10.3-.7c.1.8.6,3.5.6,3.7,0,.2.5-3.7.5-3.7,0-.3-10.8-.9-10.8-.9Z"/>
        <ellipse class="cls-11" cx="647.4" cy="713.6" rx="2.6" ry="3.9"/>
        <path class="cls-1" d="M644.5,711.5v2.9c0,1.5,1.3,2.7,2.5,2.7s2.5-1.2,2.5-2.7v-2.9h-5Z"/>
        <circle class="cls-35" cx="647.4" cy="709.6" r=".8"/>
      </g>
      <g>
        <path class="cls-17" d="M217.6,734.4l3.7-6.5h-.2c0,0-.5-8-.5-8l-5.5,2.2.5,4.7,1.3.8.5,1.4h-.3c0,0-.4-.8-.4-.8l-.5-.5.2,1.2.8,1.3-.5.3-1.1-1-.8-2.4h0s-.9-2.3-.9-2.3c-.2-.7-.4-1.3-.5-2,0-.3-.1-.5-.2-.8,0,0,0,0,0,0,0-.1,0-.2,0-.3,0,0,0,0,0-.1,0-.2,0-.3,0-.5,0,0,0-.2,0-.3,0,0,0-.2,0-.3,0,0,0,0,0,0,0,0,0-.1,0-.2.1-.2.4-.4.6-.4.1-.1.3-.2.5-.3l6-2.4c.1,0,.3,0,.4-.1h0c0,0,.2,0,.2,0,.3,0,.6,0,.9,0l1.4.2c.3,0,.6.1.9.2.1,0,.2,0,.4,0,0-.4.1-.7.4-1,.6-.7,1.6-.8,2.3-.2.5.5.7,1.2.6,1.8.5,0,1,.2,1.5.2h0c.2,0,.4,0,.5.1l2.2,4.9,4.6-1.6c-.2-.3-.4-.6-.4-1,.2,0,.7,0,.7.2v-1.1h1.7c0,0,0,2.7,0,2.7h-1.5s0,0,0,0c0,0-.1,0-.2,0-2.2,1.2-4.4,2.3-6.5,3.6,0,0,0,0,0,0,0,0-.1-.2-.2-.3,0,0,0,0,0,0,0,0-.1-.2-.2-.3l-1.7-3.9-2.4,7,4.1,5.9,4.9,10.8c.4-.5,2.6-2.6,2.6-2.6l-2,4c-3.2-3.6-7-10.7-7-10.7l-6-3.6-4,3.4-10.3-.7c-.1.8-.6,3.5-.6,3.7,0,.2-.5-3.7-.5-3.7,0-.3,10.8-.9,10.8-.9Z"/>
        <ellipse class="cls-17" cx="226.6" cy="713.6" rx="2.6" ry="3.9"/>
        <path class="cls-1" d="M229.5,711.5v2.9c0,1.5-1.3,2.7-2.5,2.7s-2.5-1.2-2.5-2.7v-2.9h5Z"/>
        <circle class="cls-35" cx="226.6" cy="709.6" r=".8"/>
      </g>
      <g>
        <path class="cls-17" d="M236.6,734.4l3.7-6.5h-.2c0,0-.5-8-.5-8l-5.5,2.2.5,4.7,1.3.8.5,1.4h-.3c0,0-.4-.8-.4-.8l-.5-.5.2,1.2.8,1.3-.5.3-1.1-1-.8-2.4h0s-.9-2.3-.9-2.3c-.2-.7-.4-1.3-.5-2,0-.3-.1-.5-.2-.8,0,0,0,0,0,0,0-.1,0-.2,0-.3,0,0,0,0,0-.1,0-.2,0-.3,0-.5,0,0,0-.2,0-.3,0,0,0-.2,0-.3,0,0,0,0,0,0,0,0,0-.1,0-.2.1-.2.4-.4.6-.4.1-.1.3-.2.5-.3l6-2.4c.1,0,.3,0,.4-.1h0c0,0,.2,0,.2,0,.3,0,.6,0,.9,0l1.4.2c.3,0,.6.1.9.2.1,0,.2,0,.4,0,0-.4.1-.7.4-1,.6-.7,1.6-.8,2.3-.2.5.5.7,1.2.6,1.8.5,0,1,.2,1.5.2h0c.2,0,.4,0,.5.1l2.2,4.9,4.6-1.6c-.2-.3-.4-.6-.4-1,.2,0,.7,0,.7.2v-1.1h1.7c0,0,0,2.7,0,2.7h-1.5s0,0,0,0c0,0-.1,0-.2,0-2.2,1.2-4.4,2.3-6.5,3.6,0,0,0,0,0,0,0,0-.1-.2-.2-.3,0,0,0,0,0,0,0,0-.1-.2-.2-.3l-1.7-3.9-2.4,7,4.1,5.9,4.9,10.8c.4-.5,2.6-2.6,2.6-2.6l-2,4c-3.2-3.6-7-10.7-7-10.7l-6-3.6-4,3.4-10.3-.7c-.1.8-.6,3.5-.6,3.7,0,.2-.5-3.7-.5-3.7,0-.3,10.8-.9,10.8-.9Z"/>
        <ellipse class="cls-17" cx="245.6" cy="713.6" rx="2.6" ry="3.9"/>
        <path class="cls-1" d="M248.5,711.5v2.9c0,1.5-1.3,2.7-2.5,2.7s-2.5-1.2-2.5-2.7v-2.9h5Z"/>
        <circle class="cls-35" cx="245.6" cy="709.6" r=".8"/>
      </g>
      <g>
        <path class="cls-17" d="M255.6,734.4l3.7-6.5h-.2c0,0-.5-8-.5-8l-5.5,2.2.5,4.7,1.3.8.5,1.4h-.3c0,0-.4-.8-.4-.8l-.5-.5.2,1.2.8,1.3-.5.3-1.1-1-.8-2.4h0s-.9-2.3-.9-2.3c-.2-.7-.4-1.3-.5-2,0-.3-.1-.5-.2-.8,0,0,0,0,0,0,0-.1,0-.2,0-.3,0,0,0,0,0-.1,0-.2,0-.3,0-.5,0,0,0-.2,0-.3,0,0,0-.2,0-.3,0,0,0,0,0,0,0,0,0-.1,0-.2.1-.2.4-.4.6-.4.1-.1.3-.2.5-.3l6-2.4c.1,0,.3,0,.4-.1h0c0,0,.2,0,.2,0,.3,0,.6,0,.9,0l1.4.2c.3,0,.6.1.9.2.1,0,.2,0,.4,0,0-.4.1-.7.4-1,.6-.7,1.6-.8,2.3-.2.5.5.7,1.2.6,1.8.5,0,1,.2,1.5.2h0c.2,0,.4,0,.5.1l2.2,4.9,4.6-1.6c-.2-.3-.4-.6-.4-1,.2,0,.7,0,.7.2v-1.1h1.7c0,0,0,2.7,0,2.7h-1.5s0,0,0,0c0,0-.1,0-.2,0-2.2,1.2-4.4,2.3-6.5,3.6,0,0,0,0,0,0,0,0-.1-.2-.2-.3,0,0,0,0,0,0,0,0-.1-.2-.2-.3l-1.7-3.9-2.4,7,4.1,5.9,4.9,10.8c.4-.5,2.6-2.6,2.6-2.6l-2,4c-3.2-3.6-7-10.7-7-10.7l-6-3.6-4,3.4-10.3-.7c-.1.8-.6,3.5-.6,3.7,0,.2-.5-3.7-.5-3.7,0-.3,10.8-.9,10.8-.9Z"/>
        <ellipse class="cls-17" cx="264.6" cy="713.6" rx="2.6" ry="3.9"/>
        <path class="cls-1" d="M267.5,711.5v2.9c0,1.5-1.3,2.7-2.5,2.7s-2.5-1.2-2.5-2.7v-2.9h5Z"/>
        <circle class="cls-35" cx="264.6" cy="709.6" r=".8"/>
      </g>
      <g>
        <path class="cls-17" d="M274.6,734.4l3.7-6.5h-.2c0,0-.5-8-.5-8l-5.5,2.2.5,4.7,1.3.8.5,1.4h-.3c0,0-.4-.8-.4-.8l-.5-.5.2,1.2.8,1.3-.5.3-1.1-1-.8-2.4h0s-.9-2.3-.9-2.3c-.2-.7-.4-1.3-.5-2,0-.3-.1-.5-.2-.8,0,0,0,0,0,0,0-.1,0-.2,0-.3,0,0,0,0,0-.1,0-.2,0-.3,0-.5,0,0,0-.2,0-.3,0,0,0-.2,0-.3,0,0,0,0,0,0,0,0,0-.1,0-.2.1-.2.4-.4.6-.4.1-.1.3-.2.5-.3l6-2.4c.1,0,.3,0,.4-.1h0c0,0,.2,0,.2,0,.3,0,.6,0,.9,0l1.4.2c.3,0,.6.1.9.2.1,0,.2,0,.4,0,0-.4.1-.7.4-1,.6-.7,1.6-.8,2.3-.2.5.5.7,1.2.6,1.8.5,0,1,.2,1.5.2h0c.2,0,.4,0,.5.1l2.2,4.9,4.6-1.6c-.2-.3-.4-.6-.4-1,.2,0,.7,0,.7.2v-1.1h1.7c0,0,0,2.7,0,2.7h-1.5s0,0,0,0c0,0-.1,0-.2,0-2.2,1.2-4.4,2.3-6.5,3.6,0,0,0,0,0,0,0,0-.1-.2-.2-.3,0,0,0,0,0,0,0,0-.1-.2-.2-.3l-1.7-3.9-2.4,7,4.1,5.9,4.9,10.8c.4-.5,2.6-2.6,2.6-2.6l-2,4c-3.2-3.6-7-10.7-7-10.7l-6-3.6-4,3.4-10.3-.7c-.1.8-.6,3.5-.6,3.7,0,.2-.5-3.7-.5-3.7,0-.3,10.8-.9,10.8-.9Z"/>
        <ellipse class="cls-17" cx="283.6" cy="713.6" rx="2.6" ry="3.9"/>
        <path class="cls-1" d="M286.5,711.5v2.9c0,1.5-1.3,2.7-2.5,2.7s-2.5-1.2-2.5-2.7v-2.9h5Z"/>
        <circle class="cls-35" cx="283.6" cy="709.6" r=".8"/>
      </g>
      <g>
        <path class="cls-17" d="M326.6,734.4l3.7-6.5h-.2c0,0-.5-8-.5-8l-5.5,2.2.5,4.7,1.3.8.5,1.4h-.3c0,0-.4-.8-.4-.8l-.5-.5.2,1.2.8,1.3-.5.3-1.1-1-.8-2.4h0s-.9-2.3-.9-2.3c-.2-.7-.4-1.3-.5-2,0-.3-.1-.5-.2-.8,0,0,0,0,0,0,0-.1,0-.2,0-.3,0,0,0,0,0-.1,0-.2,0-.3,0-.5,0,0,0-.2,0-.3,0,0,0-.2,0-.3,0,0,0,0,0,0,0,0,0-.1,0-.2.1-.2.4-.4.6-.4.1-.1.3-.2.5-.3l6-2.4c.1,0,.3,0,.4-.1h0c0,0,.2,0,.2,0,.3,0,.6,0,.9,0l1.4.2c.3,0,.6.1.9.2.1,0,.2,0,.4,0,0-.4.1-.7.4-1,.6-.7,1.6-.8,2.3-.2.5.5.7,1.2.6,1.8.5,0,1,.2,1.5.2h0c.2,0,.4,0,.5.1l2.2,4.9,4.6-1.6c-.2-.3-.4-.6-.4-1,.2,0,.7,0,.7.2v-1.1h1.7c0,0,0,2.7,0,2.7h-1.5s0,0,0,0c0,0-.1,0-.2,0-2.2,1.2-4.4,2.3-6.5,3.6,0,0,0,0,0,0,0,0-.1-.2-.2-.3,0,0,0,0,0,0,0,0-.1-.2-.2-.3l-1.7-3.9-2.4,7,4.1,5.9,4.9,10.8c.4-.5,2.6-2.6,2.6-2.6l-2,4c-3.2-3.6-7-10.7-7-10.7l-6-3.6-4,3.4-10.3-.7c-.1.8-.6,3.5-.6,3.7,0,.2-.5-3.7-.5-3.7,0-.3,10.8-.9,10.8-.9Z"/>
        <ellipse class="cls-17" cx="335.6" cy="713.6" rx="2.6" ry="3.9"/>
        <path class="cls-1" d="M338.5,711.5v2.9c0,1.5-1.3,2.7-2.5,2.7s-2.5-1.2-2.5-2.7v-2.9h5Z"/>
        <circle class="cls-35" cx="335.6" cy="709.6" r=".8"/>
      </g>
      <g>
        <path class="cls-17" d="M404.6,734.4l3.7-6.5h-.2c0,0-.5-8-.5-8l-5.5,2.2.5,4.7,1.3.8.5,1.4h-.3c0,0-.4-.8-.4-.8l-.5-.5.2,1.2.8,1.3-.5.3-1.1-1-.8-2.4h0s-.9-2.3-.9-2.3c-.2-.7-.4-1.3-.5-2,0-.3-.1-.5-.2-.8,0,0,0,0,0,0,0-.1,0-.2,0-.3,0,0,0,0,0-.1,0-.2,0-.3,0-.5,0,0,0-.2,0-.3,0,0,0-.2,0-.3,0,0,0,0,0,0,0,0,0-.1,0-.2.1-.2.4-.4.6-.4.1-.1.3-.2.5-.3l6-2.4c.1,0,.3,0,.4-.1h0c0,0,.2,0,.2,0,.3,0,.6,0,.9,0l1.4.2c.3,0,.6.1.9.2.1,0,.2,0,.4,0,0-.4.1-.7.4-1,.6-.7,1.6-.8,2.3-.2.5.5.7,1.2.6,1.8.5,0,1,.2,1.5.2h0c.2,0,.4,0,.5.1l2.2,4.9,4.6-1.6c-.2-.3-.4-.6-.4-1,.2,0,.7,0,.7.2v-1.1h1.7c0,0,0,2.7,0,2.7h-1.5s0,0,0,0c0,0-.1,0-.2,0-2.2,1.2-4.4,2.3-6.5,3.6,0,0,0,0,0,0,0,0-.1-.2-.2-.3,0,0,0,0,0,0,0,0-.1-.2-.2-.3l-1.7-3.9-2.4,7,4.1,5.9,4.9,10.8c.4-.5,2.6-2.6,2.6-2.6l-2,4c-3.2-3.6-7-10.7-7-10.7l-6-3.6-4,3.4-10.3-.7c-.1.8-.6,3.5-.6,3.7,0,.2-.5-3.7-.5-3.7,0-.3,10.8-.9,10.8-.9Z"/>
        <ellipse class="cls-17" cx="413.6" cy="713.6" rx="2.6" ry="3.9"/>
        <path class="cls-1" d="M416.5,711.5v2.9c0,1.5-1.3,2.7-2.5,2.7s-2.5-1.2-2.5-2.7v-2.9h5Z"/>
        <circle class="cls-35" cx="413.6" cy="709.6" r=".8"/>
      </g>
      <g>
        <path class="cls-17" d="M423.6,734.4l3.7-6.5h-.2c0,0-.5-8-.5-8l-5.5,2.2.5,4.7,1.3.8.5,1.4h-.3c0,0-.4-.8-.4-.8l-.5-.5.2,1.2.8,1.3-.5.3-1.1-1-.8-2.4h0s-.9-2.3-.9-2.3c-.2-.7-.4-1.3-.5-2,0-.3-.1-.5-.2-.8,0,0,0,0,0,0,0-.1,0-.2,0-.3,0,0,0,0,0-.1,0-.2,0-.3,0-.5,0,0,0-.2,0-.3,0,0,0-.2,0-.3,0,0,0,0,0,0,0,0,0-.1,0-.2.1-.2.4-.4.6-.4.1-.1.3-.2.5-.3l6-2.4c.1,0,.3,0,.4-.1h0c0,0,.2,0,.2,0,.3,0,.6,0,.9,0l1.4.2c.3,0,.6.1.9.2.1,0,.2,0,.4,0,0-.4.1-.7.4-1,.6-.7,1.6-.8,2.3-.2.5.5.7,1.2.6,1.8.5,0,1,.2,1.5.2h0c.2,0,.4,0,.5.1l2.2,4.9,4.6-1.6c-.2-.3-.4-.6-.4-1,.2,0,.7,0,.7.2v-1.1h1.7c0,0,0,2.7,0,2.7h-1.5s0,0,0,0c0,0-.1,0-.2,0-2.2,1.2-4.4,2.3-6.5,3.6,0,0,0,0,0,0,0,0-.1-.2-.2-.3,0,0,0,0,0,0,0,0-.1-.2-.2-.3l-1.7-3.9-2.4,7,4.1,5.9,4.9,10.8c.4-.5,2.6-2.6,2.6-2.6l-2,4c-3.2-3.6-7-10.7-7-10.7l-6-3.6-4,3.4-10.3-.7c-.1.8-.6,3.5-.6,3.7,0,.2-.5-3.7-.5-3.7,0-.3,10.8-.9,10.8-.9Z"/>
        <ellipse class="cls-17" cx="432.6" cy="713.6" rx="2.6" ry="3.9"/>
        <path class="cls-1" d="M435.5,711.5v2.9c0,1.5-1.3,2.7-2.5,2.7s-2.5-1.2-2.5-2.7v-2.9h5Z"/>
        <circle class="cls-35" cx="432.6" cy="709.6" r=".8"/>
      </g>
      <g>
        <path class="cls-46" d="M470.6,657.8s0,0,0,0"/>
        <path class="cls-46" d="M481.4,641.1s0,0,0,0"/>
        <path class="cls-11" d="M481.5,659.3l-1.4-6.6-4.6-10.3h-.1s4.2-10,4.2-10l-4.6,1c0,0,0-.2,0-.2-.2-.7-.9-1.2-1.7-1-.8.2-1.3.9-1.1,1.7,0,0,0,.1,0,.2l-1,.2-4-6.6.7-1.5-2.9-4.2h.3c0-.1.1-.1.2-.1h0c-.1-.6,0-1.2,0-1.8-.1,0-.3.2-.5.3l-.4-1-1.2.4.9,2.4h0s5.8,14.9,5.8,14.9l.9,5.9-8-.6,3.6,7.6h-3.4s3.9.6,3.9.6l-1.7-6.1,4.6,1,5,1.1,3.2,6.8,2.8,6v1s4.3,2.3,4.3,2.3l-3.7-3.4Z"/>
        <g>
          <ellipse class="cls-11" cx="473.1" cy="629" rx="2.7" ry="3.6" transform="translate(-86.4 75.4) rotate(-8.4)"/>
          <path class="cls-19" d="M471.1,626.8l2.2-.5c.4.2.8.7.9,1.2l.8,3.5c.2.9-.4,1.9-1.3,2.1-.9.2-1.9-.4-2.1-1.3l-.8-3.5c-.1-.5,0-1,.3-1.4Z"/>
          <path class="cls-39" d="M474,630.9c0,.4-.3.8-.7.9-.5.1-.9-.1-1.1-.5l1.8-.4Z"/>
        </g>
        <path class="cls-11" d="M487.1,637.8l-7.6-5.4-1.1,2.6,4.2,2.4-6.2,1.5-.3.6-.4-1.9-1.4.3.2,1c-.3,0-.5,0-.7,0,.2.5.8.9.9,1.4h0c0,0,.1,0,.2,0l.8-.2h0c0,.1,11.4-2.4,11.4-2.4Z"/>
      </g>
      <g>
        <g>
          <rect class="cls-19" x="261.8" y="663.7" width="1.6" height="2.7" transform="translate(-188.3 110.1) rotate(-17.5)"/>
          <path class="cls-19" d="M262.2,666.6c.2-.1.5-.2.7-.3-.1-.3-.3-.9-.5-1-.2-.2-1.1-.3-1.4-.1.3.5.9.9,1.2,1.4"/>
        </g>
        <path class="cls-46" d="M246.9,666.4h0"/>
        <g>
          <polygon class="cls-14" points="261.2 653.6 261.2 653.5 261.2 653.6 261.2 653.6 261.2 653.6 261.2 653.6"/>
          <path class="cls-33" d="M252.5,682.3l3.1-15.9h.3s0-.6,0-.6l-4.5-7.9-3.2,3.5,6,4.5v.9c0,0-9.6-4.7-9.6-4.7l4.4-8.3h0c0,0,4.4-.1,4.4-.1,0-.1,0-.2,0-.3,0-1.1.9-2,2.1-2s2.1.9,2.1,2,0,.2,0,.3h3.7s0,0,0,0l8,6.7-5.9,5.6-.2-.7,3.3-4.6-4.9-2.5.6,7.6h0s0,.2,0,.2v.4s2.9,15.2,2.9,15.2v9.7c0,0,3.8,6,3.8,6l-5-4.6.3-1.4-2-9.3-2.1-10.5-.6-.4-1.6,1-2.3,10.5-2.1,9.3.3,1.4-5.3,4.6,4-6v-9.7Z"/>
        </g>
        <path class="cls-1" d="M253.8,664.5h1.7v.5c1-.1,1.2-.2,1.4-.2-.1.8-.4,1.4-.4,2.2h0c-1,0-.6.4-.7.4h-1.9v-3Z"/>
        <g>
          <ellipse class="cls-33" cx="254.1" cy="646.4" rx="4.4" ry="5.2" transform="translate(-195.6 117) rotate(-18.9)"/>
          <path class="cls-19" d="M255.4,642.6l-3.4.7c-.5.6-.7,1.4-.5,2.3l1.2,5.5c.3,1.5,1.8,2.4,3.2,2.1,1.5-.3,2.4-1.8,2.1-3.2l-1.2-5.5c-.2-.8-.7-1.4-1.4-1.8Z"/>
          <path class="cls-38" d="M257,649.6c0,.7-.7,1.2-1.5,1.2-.8,0-1.4-.5-1.5-1.2h2.9Z"/>
          <path class="cls-4" d="M256.3,649.9c.2,0,.3-.2.4-.3h.3c0,.7-.7,1.2-1.5,1.2-.6,0-1.1-.3-1.4-.8.7.3,1.4.2,2.1,0Z"/>
          <path class="cls-18" d="M255.8,650c.2.1.4.3.5.5-.2.1-.5.2-.8.2-.6,0-1.1-.3-1.4-.8.5.2,1.1.2,1.7,0Z"/>
        </g>
      </g>
    </g>
  </g>
</svg>