<?xml version="1.0" encoding="UTF-8"?>
<svg xmlns="http://www.w3.org/2000/svg" version="1.1" viewBox="0 0 850.4 708.7">
  <defs>
    <style>
      .cls-1 {
        fill: #ddd9d3;
      }

      .cls-2 {
        fill: #9d9d9c;
      }

      .cls-3, .cls-4 {
        fill: none;
      }

      .cls-5 {
        fill: #575756;
      }

      .cls-6 {
        fill: #b2b2b2;
      }

      .cls-7 {
        fill: #706f6f;
      }

      .cls-8 {
        fill: #b7605e;
      }

      .cls-9 {
        fill: #878787;
      }

      .cls-10 {
        fill: #1d1d1b;
      }

      .cls-11 {
        fill: #2d2d2c;
      }

      .cls-12 {
        fill: #969695;
      }

      .cls-13 {
        fill: #e5cdbd;
      }

      .cls-14 {
        fill: #c6c6c6;
      }

      .cls-15 {
        fill: #3c3c3b;
      }

      .cls-16 {
        fill: #a57574;
      }

      .cls-17 {
        fill: #7a4040;
      }

      .cls-4 {
        stroke: #2d2d2c;
        stroke-linecap: round;
        stroke-miterlimit: 10;
      }
    </style>
  </defs>
  <!-- Generator: Adobe Illustrator 28.7.4, SVG Export Plug-In . SVG Version: 1.2.0 Build 166)  -->
  <g>
    <g id="Layer_1">
      <rect class="cls-1" width="3461.6" height="708.7"/>
      <g>
        <g>
          <rect class="cls-8" x="156.2" y="310.2" width="209.5" height="133"/>
          <rect class="cls-12" x="156.2" y="380.9" width="209.5" height="62.4"/>
          <g>
            <circle class="cls-3" cx="260.9" cy="351.8" r="8.8"/>
            <circle class="cls-10" cx="259.9" cy="352.8" r="10.3"/>
            <circle class="cls-16" cx="260.9" cy="351.8" r="10.3"/>
            <path class="cls-11" d="M260.9,343.7v16.3c4.5,0,8.1-3.6,8.1-8.1s-3.6-8.1-8.1-8.1v-.2Z"/>
            <path class="cls-5" d="M260.9,343.7v16.3c-4.5,0-8.1-3.6-8.1-8.1s3.6-8.1,8.1-8.1v-.2Z"/>
          </g>
          <g>
            <rect class="cls-16" x="304.3" y="342.9" width="17.1" height="20.4"/>
            <rect class="cls-11" x="306.8" y="342.9" width="12.2" height="17.8"/>
            <rect class="cls-5" x="306.8" y="342.9" width="5.6" height="17.8"/>
            <rect class="cls-9" x="304.3" y="360.6" width="17.1" height="2.5"/>
            <rect class="cls-9" x="306.8" y="342.9" width="12.2" height="2.5"/>
          </g>
          <path class="cls-5" d="M224.5,443.3v-21c0-19.3,15.8-35,34.9-35s34.9,15.7,34.9,35v21h-69.9,0Z"/>
          <path class="cls-7" d="M260.9,388.8c-17.8,0-32.4,14.5-32.4,32.4v22h64.8v-22c0-17.8-14.6-32.4-32.4-32.4Z"/>
          <path class="cls-11" d="M260.9,395.1c-14.4,0-26.1,11.7-26.1,26.1v22h52.2v-22c0-14.4-11.7-26.1-26.1-26.1Z"/>
          <g>
            <rect class="cls-16" x="200.5" y="342.9" width="17.1" height="20.4"/>
            <rect class="cls-11" x="202.9" y="342.8" width="12.2" height="17.8"/>
            <rect class="cls-5" x="202.9" y="342.8" width="6.3" height="17.8"/>
            <rect class="cls-9" x="200.5" y="360.8" width="17.1" height="2.5"/>
            <rect class="cls-9" x="202.9" y="342.9" width="12.2" height="2.5"/>
          </g>
          <g>
            <path class="cls-10" d="M365.8,310.2h-.3c-1.3.5-2.8,1-4.8,1.7-1.5.5-3.2.9-4.8,1.3-1.8.3-3.8.9-5.7,1.2-2.1.5-4.2.9-6.6,1.2-1.2.2-2.4.5-3.6.6-1.2.2-2.4.3-3.8.5-2.6.3-5.2.6-7.9.9-2.7.3-5.6.5-8.6.8s-6,.3-9,.5c-1.5,0-3.2,0-4.7.2h-4.8c-6.3.3-13.1,0-19.8,0h-65.4c-1.5,0-3.2,0-4.7-.2-3.2,0-6.2-.3-9-.5-3-.2-5.8-.5-8.5-.8s-5.4-.5-8-.9c-1.3-.2-2.5-.3-3.8-.5s-2.4-.5-3.6-.6c-2.4-.3-4.5-.8-6.6-1.2-2.1-.3-4-.9-5.7-1.2-1.8-.5-3.5-.9-4.8-1.3-2-.6-3.5-1-4.8-1.7h-.3v.6c1.3.8,2.8,1.5,4.8,2.2,1.5.6,3,1.2,4.8,2,1.8.6,3.8,1.3,5.7,1.8,2.1.6,27.5,4.5,30.5,5s6,.8,9.2,1c1.5,0,3.2.3,4.7.5,1.7,0,3.2.2,4.8.3,3.2.2,6.5.5,9.8.5s6.7.3,10,.2h40.8c3.4,0,6.8,0,10.1-.2,3.3,0,6.6-.3,9.8-.5,3.3-.2,6.4-.3,9.4-.8,3.2-.3,6.2-.6,9.2-1s28.3-4.3,30.4-5c2.1-.6,3.9-1.3,5.7-1.8,1.8-.8,3.3-1.2,4.8-2,1.9-.8,3.6-1.7,4.8-2.2v-.6h.3Z"/>
            <path class="cls-13" d="M152.2,308.6s.8.3,2.4.9c1.5.5,3.9,1,6.8,1.8,1.5.3,3.2.6,4.8,1,1.8.3,3.8.8,5.7.9,2.1.3,4.2.6,6.6.9,1.2,0,2.4.3,3.6.5,1.2,0,2.4.3,3.8.3,2.5.3,5.2.5,8,.6,2.7.2,5.5.5,8.5.6,3,.2,6,.3,9,.3s3.2,0,4.7.2h4.8c6.5.2,13.1,0,19.8,0h65.4c1.5,0,3.2,0,4.7-.2,3.2,0,6.2-.2,9-.3,3-.2,5.8-.3,8.6-.6,2.7-.2,5.4-.5,7.9-.6,1.3,0,2.6-.3,3.8-.3s2.4-.3,3.6-.5c2.4-.3,4.5-.6,6.6-.9,2.1-.3,4.1-.8,5.7-.9,1.8-.3,3.4-.6,4.8-1,3-.6,5.2-1.3,6.8-1.8s2.4-.9,2.4-.9c0,0-.8.5-2.2,1s-3.8,1.7-6.6,2.5c-1.5.5-3,.9-4.8,1.5-1.8.5-3.8,1-5.7,1.5-2.1.5-4.2.9-6.6,1.3-1.2.2-2.4.5-3.6.6-1.2.2-2.4.5-3.8.6-2.6.5-5.2.8-7.9,1.2s-5.7.6-8.6.9c-3,.3-6,.6-9.2.8-3.2.3-6.3.5-9.4.6-3.3.2-6.4.3-9.8.3s-6.6.2-10.1.2h-40.8c-3.3,0-6.8,0-10-.2-3.3,0-6.6-.2-9.8-.3-1.7,0-3.2,0-4.8-.2-1.7,0-3.2-.2-4.7-.3-3.2-.3-6.2-.5-9.2-.8s-5.8-.6-8.5-.9c-2.7-.3-5.4-.8-8-1.2-1.3-.2-2.5-.5-3.8-.6-1.2-.3-2.4-.5-3.6-.6-2.2-.5-4.5-.9-6.6-1.3-2.1-.5-3.9-.9-5.7-1.5-1.8-.5-3.3-.9-4.8-1.5-2.8-.9-5.1-1.8-6.6-2.5s-2.2-1-2.2-1h-.3Z"/>
            <path class="cls-17" d="M324.4,302.9l-3.2-13-28.2,7.8-1.7-11s-9.2,3.2-30.6,3.2-30.6-3.2-30.6-3.2l-1.7,11-28.2-7.8-3.2,13s-18.9,8-45.5,5.5c0,0,16.5,10.2,76.3,10.2h65.1c59.8,0,76.3-10.2,76.3-10.2-26.6,2.4-45.4-5.5-45.4-5.5h.3Z"/>
            <path class="cls-10" d="M291.5,286.7s-9.2,3.2-30.6,3.2-30.6-3.2-30.6-3.2l-.5,3.5c4.4,2.5,13.4,5.8,31,5.8s26.7-3.3,31.1-5.8l-.4-3.5h0Z"/>
            <path class="cls-10" d="M321.2,289.8l-9.6,2.7c-4.7,2-9.6,3.5-14.6,4l-4.1,1.2v-.8h-1.8v4.5c16.8,0,26.2-4.3,30.9-7.3l-1.1-4.2.2-.2Z"/>
            <path class="cls-14" d="M291.4,298.4c25.9,0,34.7-10.3,34.7-10.3v-3c4.1-5.5,5.1-12.8,5.1-12.8-4.8,12.3-22.9,21.8-39.8,21.8v4.5-.2Z"/>
            <path class="cls-14" d="M260.9,293.9c-28.3,0-34.7-8.5-34.7-8.5v-3.9c-4-5.5-5.1-12.8-5.1-12.8,4.8,12.3,14.7,18.1,39.8,18.1s34.8-5.9,39.8-18.1c0,0-1.1,7.4-5.1,12.8v3.9s-6.3,8.5-34.7,8.5Z"/>
            <path class="cls-10" d="M228.8,297.6l-4-1.2c-5-.6-10-2.1-14.5-4l-9.6-2.7-1,4.2c4.7,3,14.1,7.3,30.9,7.3v-4.5h-1.7v.9Z"/>
            <path class="cls-14" d="M230.6,298.4c-26,0-34.7-10.3-34.7-10.3v-3c-4-5.5-5.1-12.8-5.1-12.8,4.8,12.3,23,21.8,39.8,21.8v4.5-.2Z"/>
            <path class="cls-10" d="M326.6,303.6h0v.8c6.3,2.1,16.1,7,37.9,6.2,1.5-.6,2.7-1,3.6-1.3.3-.3.4-.5.8-.8-20.7,1.7-36.4-2.8-42.2-4.8h-.1Z"/>
            <path class="cls-14" d="M326.6,303.6c23.6,5.4,34.9,2.5,39.9.6s6.8-7.2,6.8-7.2c0,0-1.9,9.2-6.8,12-23.1,1.2-33.4-2.4-39.9-4.5v-.8h0Z"/>
            <path class="cls-10" d="M195.2,304.4v-.8h0c-5.7,2-21.5,6.5-42.2,4.8.3.3.5.6.8.8.9.3,2,.9,3.6,1.3,21.8.9,31.7-4,38-6.2h-.1Z"/>
            <path class="cls-14" d="M195.2,303.6c-23.5,5.4-35,2.5-39.9.6s-6.8-7.2-6.8-7.2c0,0,2,9.2,6.8,12,23.1,1.2,33.5-2.4,39.9-4.5v-.8h0Z"/>
            <g>
              <polygon class="cls-14" points="328.1 302.6 328.7 309.6 324.5 309.6 320.5 291.5 320.5 287.1 321.7 287.1 328.1 302.6"/>
              <polygon class="cls-6" points="328.1 302.6 328.7 309.6 324.5 309.6 325.6 302.6 328.1 302.6"/>
              <polygon class="cls-2" points="320.5 287.1 325.6 302.6 324.5 309.6 320.5 291.5 320.5 287.1"/>
            </g>
            <g>
              <polygon class="cls-14" points="296.3 305.1 296.9 313.2 291.8 313.2 290.8 288.8 290.8 283.7 292.3 283.7 296.3 305.1"/>
              <polygon class="cls-6" points="296.3 305.1 296.9 313.2 291.8 313.2 293.9 305.1 296.3 305.1"/>
              <polygon class="cls-2" points="290.8 283.7 293.9 305.1 291.8 313.2 290.8 288.8 290.8 283.7"/>
            </g>
            <g>
              <polygon class="cls-14" points="193.7 302.6 193.3 309.6 197.3 309.6 201.5 291.5 201.5 287.1 200.2 287.1 193.7 302.6"/>
              <polygon class="cls-6" points="193.7 302.6 193.3 309.6 197.3 309.6 196.4 302.6 193.7 302.6"/>
              <polygon class="cls-2" points="201.5 287.1 196.4 302.6 197.3 309.6 201.5 291.5 201.5 287.1"/>
            </g>
            <g>
              <polygon class="cls-14" points="225.5 305.1 224.9 313.2 230 313.2 231.1 288.8 231.1 283.7 229.6 283.7 225.5 305.1"/>
              <polygon class="cls-6" points="225.5 305.1 224.9 313.2 230 313.2 227.9 305.1 225.5 305.1"/>
              <polygon class="cls-2" points="231.1 283.7 227.9 305.1 230 313.2 231.1 288.8 231.1 283.7"/>
            </g>
          </g>
          <g>
            <polygon class="cls-10" points="279.8 379.8 240.7 381.3 242.2 365.1 279.8 365.1 279.8 379.8"/>
            <rect class="cls-7" x="242.2" y="365.1" width="37.7" height="14.7"/>
            <rect class="cls-15" x="245.9" y="368.1" width="30" height="8.8"/>
          </g>
        </g>
        <line class="cls-4" x1="156.1" y1="465.2" x2="365.8" y2="465.2"/>
      </g>
      <g>
        <path class="cls-10" d="M450.9,281.9c-2.1,12.9-5.6,21.4-13.3,27.7l-1.6-1.7c4.7-6.1,7.4-13.5,8.5-24h-7.6v-2.8h7l1.3-1.2,5.7,2ZM461.1,298.4h7.3v2.8h-7.3v5.8c0,5.1-4.7,8.1-13.9,3.1l.6-2.3c6.6,1.1,7.2.7,7.2-2.2v-4.4h-8v-2.8h8v-3.9h-5.7v-2.8h5.7v-3.7h-4.3v-2.8h4.3v-7.1l3.5.6c1.8-1.7,3.5-3.6,4.8-5.5h-21v-3h20.8l2.1-1.1,6.1,4.1c-2.4,2.5-6.5,5.3-10.3,7.2v4.7h4.3v2.8h-4.3v3.7h5.5v2.8h-5.5v3.9ZM480.2,304.5l-5.2,5.1c-5.7-6-8.6-17.1-9.1-30.4h2.3c.3,2.1.7,4.1,1.2,6,1.5-1.8,3.2-4.3,4.7-7l5,3.9c-2.7,2.5-6.1,4.7-8.8,6,2.4,7.3,6,12.3,10.1,16.3Z"/>
        <path class="cls-10" d="M495.3,297.6l2.4.5c-.3,4.9-1.8,9.7-4.3,13.1l-4.7-3.7c3.4-3.1,5.1-5.7,6.6-9.9ZM494.2,293.8v-23.7h33v23.7h-33ZM522.1,299.8c2.5,8,1.4,11.4-3.3,11.8-3.4.2-7.9.2-11.3,0-5.8-.3-7.8-.8-7.8-6v-9.6h6v7.1c0,2.4.7,2.9,3.2,3,2.6.2,5.9.1,8.1,0,2.3-.2,2.8-1.2,2.6-6.3h2.4ZM500,291h21.3v-18h-7.9c0,1.5,0,3-.1,4.3h7.2v2.8h-7.7c0,.3-.1.6-.2,1,2.7,1.3,5.8,3.1,8.3,5.3l-3.6,3.8c-1.7-2.3-3.8-4.7-5.7-6.5-1.7,3.2-4.7,5.5-9.6,6.9l-1-2.2c4.2-2.4,5.7-4.9,6.3-8.4h-6v-2.8h6.3c0-1.3,0-2.7,0-4.3h-7.6v18ZM507.2,295.7l1.3-1.8c2.6,1,6,2.7,9.2,5.4l-4.1,4.2c-2.2-3-4.4-5.8-6.4-7.8ZM532.6,307.1l-5.1,2.6c-1.3-4.3-2.7-7.9-4.5-11.7l1.9-1.2c2.8,2.6,6,6.9,7.7,10.3Z"/>
        <path class="cls-10" d="M544.5,270.2h17.3v17.8h-11.3v24.6h-6v-42.4ZM556.1,277.5v-4.4h-5.6v4.4h5.6ZM556.1,285.1v-4.7h-5.6v4.7h5.6ZM568.8,307.6c6.6,1.2,7.6.6,7.6-2.4v-17.2h-11.3v-17.8h17.2v36.5c0,6.9-5.7,8.1-14.2,3.4l.6-2.4ZM576.5,277.5v-4.4h-5.5v4.4h5.5ZM576.5,285.1v-4.7h-5.5v4.7h5.5Z"/>
      </g>
      <g>
        <path class="cls-9" d="M448.2,239.9l.3,1c-3.4,2-10.1,3.8-12.8,4.3l-.8-2.6c1.9-.2,4.9-.8,7.8-1.4v-10.2h-7.5v-1.4h7.5v-9.9h2.6v20.9c1.1-.3,2-.5,2.9-.8ZM457.2,244.4c-1.1,0-2.8,0-4.5,0-3,0-3.4-1-3.4-4.3v-20.3h2.6v11c1.8-1.3,4-2.9,6.1-4.9l2,2.2c-2.5,1.8-5.8,3.3-8.1,4.1v7.8c0,1.4.1,1.9,1.7,2,1.1,0,2.5,0,3.5,0,1.4-.2,1.5-.9,1.5-6.2h1c1.3,7.1,1.3,8.5-2.4,8.7Z"/>
        <path class="cls-9" d="M465,220.7h9.7v10.2h-7.1v14.5h-2.5v-24.7ZM472.2,225.1v-3.1h-4.7v3.1h4.7ZM472.2,229.7v-3.4h-4.7v3.4h4.7ZM479.2,242.8c4.2,1,5.1.6,5.1-1.3v-10.6h-7.1v-10.2h9.6v21.5c0,3.4-2.5,4.8-8,1.6l.3-1ZM484.3,225.1v-3.1h-4.6v3.1h4.6ZM484.3,229.7v-3.4h-4.6v3.4h4.6Z"/>
      </g>
      <g>
        <path class="cls-9" d="M450.2,363.4l-1.2.8c-.4-.7-.8-1.5-1.4-2.4-3,.6-8,1.3-11.8,1.5l-.4-1.5c.7,0,1.5,0,2.3,0,1.4-1.7,2.9-4.3,3.9-6.3l1.4.7c-1.2,1.9-2.8,4.1-4.4,5.6,3.1,0,6.4-.3,8.6-.6-.7-1-1.4-2-2.1-3l.5-.4c1.6,1.5,3.7,4,4.6,5.4ZM437.5,365h10.6v7.4h-1.3v-1.4h-8v1.4h-1.3v-7.4ZM438.8,370.3h8v-4.6h-8v4.6Z"/>
        <path class="cls-9" d="M461.3,368.9l.2.5c-2.1,1.2-6.4,2.4-8.3,2.7l-.4-1.3c1.3-.2,3.3-.6,5.2-1.1v-6.8h-5v-.8h5v-6.4h1.2v13.7c.8-.2,1.5-.4,2-.6ZM467.2,371.6c-.8,0-2,0-2.9,0-1.8,0-2.2-.4-2.2-2.4v-13.5h1.2v7.3c1.3-.8,3-2,4.3-3.2l.9,1c-1.5,1.1-3.8,2.3-5.2,2.9v5.4c0,.9,0,1.2,1.2,1.2.8,0,1.7,0,2.5,0,.9-.1.9-.5.9-4.2h.6c.6,4.5.6,5.2-1.4,5.3Z"/>
        <path class="cls-9" d="M487.3,358v.7h-13.4v3.8c0,4.7-.6,8-2.4,9.9l-.5-.3c1.4-2.1,1.6-4.9,1.6-9.7v-4.4h7.8c-.9-.7-1.9-1.4-2.8-1.9l.2-.5c1.1.4,2.5,1,3.5,1.6l-.5.8h6.5ZM477.4,362.9v9.5h-1.2v-7.3c-.5.8-1.1,1.6-1.8,2.2l-.4-.4c1.5-1.9,2.7-5.1,3.3-7.8l1.2.3c-.3,1.1-.7,2.3-1.2,3.5ZM484.6,362.4h2.6v.7h-2.6v7.7c0,1.5-1.3,2-4.6.8v-.5c3,.4,3.3.3,3.3-.6v-7.3h-5v-.7h5v-3h1.2v3ZM480.8,368.3c-.4-1.1-1.2-2.8-1.8-3.8l.4-.3c.8.9,1.9,2.4,2.4,3.5l-1.1.6Z"/>
        <path class="cls-9" d="M495,366.1c-1.6,1.1-3.9,2.3-5.2,2.8l-.5-1.2c.6-.2,1.5-.5,2.4-.8v-5.5h-2.1v-.7h2.1v-4.7h1.2v4.6h2.1v.7h-2.1v5c.7-.3,1.4-.6,2-.9l.3.5ZM504.4,372.2c-1.2-.4-2.1-1.5-2.6-3.2-1.2,1.5-2.7,2.6-4.5,3.4l-.3-.5c1.9-1,3.3-2.4,4.4-4.1-.6-2.3-.8-5.2-.9-8.2h-4.1v2.9h3.3c0,1.7,0,3.8-.1,5.1-.1,1.6-1.5,1.8-3.2.8l.2-.5c1.5.3,1.8.2,1.9-.5,0-.9.1-2.4.2-4.3h-2.2v.7c0,3.9-.8,6.4-3.2,8.5l-.4-.4c1.9-2,2.4-4.7,2.4-8.1v-5h5.3c0-1,0-2.1,0-3.1h1.1c0,1,0,2.1,0,3.1h3.7v.7h-3.7c0,2.4.3,4.7.6,6.6.7-1.5,1.2-3.2,1.6-5.1l1.2.3c-.5,2.4-1.3,4.6-2.4,6.4.4,1.6,1,2.7,1.8,3.1.5.2.6,0,.5-3.1h.5c.8,4,.1,4.8-1,4.4ZM504,358.8c-.4-.7-1.3-1.8-1.9-2.6l.4-.4c.8.5,1.8,1.5,2.4,2.2l-.9.8Z"/>
        <path class="cls-9" d="M511.3,359.2h3.3v12.6h-1.2v-1.7h-3.7v2h-1.2v-13h2.1c.3-1.1.5-2.5.6-3.6l1.4.3c-.4,1.1-.9,2.4-1.4,3.3ZM513.3,359.9h-3.7v4.1h3.7v-4.1ZM513.3,369.4v-4.7h-3.7v4.7h3.7ZM523.1,359.2c0,5.4-.2,9-.4,11.2-.2,1.9-1.7,2.7-5.6,1v-.5c3.8.7,4.2.4,4.4-1,.2-1.6.4-4.8.4-9.9h-4.4c-.5,1.4-1.2,2.9-2.2,4.2l-.5-.3c1.3-2.5,2-5.6,2.4-8.2l1.4.3c-.2,1-.4,2.2-.8,3.3h5.4ZM518.9,367.3c-.6-1.6-1.5-3.2-2.3-4.6l.4-.3c1.1,1.2,2.4,2.9,3,4.3l-1.2.7Z"/>
        <path class="cls-9" d="M541.8,370.7v.8h-15.8v-.8h2.8v-9.3h1.2v9.3h3.8v-12.9h-7.1v-.8h14.2v.8h-5.9v5.6h5.2v.7h-5.2v6.6h6.6Z"/>
        <path class="cls-9" d="M545.2,356.5h6v6.4h-4.8v9.4h-1.2v-15.8ZM549.9,359.3v-2.1h-3.5v2.1h3.5ZM549.9,362.2v-2.2h-3.5v2.2h3.5ZM554.2,370.9c3.2.6,3.7.3,3.7-.8v-7.1h-4.8v-6.4h6v13.9c0,2-1.4,2.6-5.1,1v-.5ZM557.9,359.3v-2.1h-3.5v2.1h3.5ZM557.9,362.2v-2.2h-3.5v2.2h3.5Z"/>
        <path class="cls-9" d="M568.9,367.2c1.4-.7,2.2-1.9,2.2-3.2-.2.2-.6.3-.8.3-.7,0-1.2-.5-1.2-1.3,0-.8.5-1.3,1.3-1.3.9,0,1.6.5,1.7,1.6.1,1.8-.8,3.7-2.8,4.3l-.3-.4Z"/>
        <path class="cls-9" d="M588.8,368.9l.2.5c-2.1,1.2-6.4,2.4-8.3,2.7l-.4-1.3c1.3-.2,3.3-.6,5.2-1.1v-6.8h-5v-.8h5v-6.4h1.2v13.7c.8-.2,1.5-.4,2-.6ZM594.7,371.6c-.8,0-2,0-2.9,0-1.8,0-2.2-.4-2.2-2.4v-13.5h1.2v7.3c1.3-.8,3-2,4.3-3.2l.9,1c-1.5,1.1-3.8,2.3-5.2,2.9v5.4c0,.9,0,1.2,1.2,1.2.8,0,1.7,0,2.5,0,.9-.1.9-.5.9-4.2h.6c.6,4.5.6,5.2-1.4,5.3Z"/>
        <path class="cls-9" d="M599.8,356.5h6v6.4h-4.8v9.4h-1.2v-15.8ZM604.6,359.3v-2.1h-3.5v2.1h3.5ZM604.6,362.2v-2.2h-3.5v2.2h3.5ZM608.8,370.9c3.2.6,3.7.3,3.7-.8v-7.1h-4.8v-6.4h6v13.9c0,2-1.4,2.6-5.1,1v-.5ZM612.5,359.3v-2.1h-3.5v2.1h3.5ZM612.5,362.2v-2.2h-3.5v2.2h3.5Z"/>
        <path class="cls-9" d="M633.1,370.4l-.5,1.4c-1.6.1-3.8.2-5.5,0-3.5-.2-5.7-1-7.2-2.4-.7,1.2-1.7,2.2-2.9,3l-.3-.5c1-.8,1.9-1.9,2.7-3.3-.8-1-1.2-2.4-1.6-4h.5c.4,1.2.8,2.3,1.4,3.2.6-1.4,1-3.1,1.2-5.1h-1.9c-.3.5-.5.9-.7,1.2l-1-.4c.9-1.6,2.2-4,2.9-5.9h-3.2v-.7h4.7c-.5,1.4-1.5,3.5-2.4,5.1h1.4l.3-.3,1.1.4c-.2,2.3-.7,4.6-1.8,6.5,1.4,1.4,3.5,1.9,6.5,2,1.8,0,4.1,0,6.1-.3ZM626.4,360.3h-4.2v-.7h4.2v-1.6h-3.3v-.7h3.3v-1.7h1.2v1.7h3.6v2.3h1.7v.7h-1.7v2.4h-3.6v1.5h3.9v.7h-3.9v1.7h4.7v.7h-4.7v2.5h-1.2v-2.5h-4.1v-.7h4.1v-1.7h-3.5v-.7h3.5v-1.5h-3.4v-.7h3.4v-1.7ZM627.6,359.6h2.5v-1.6h-2.5v1.6ZM627.6,362h2.5v-1.7h-2.5v1.7Z"/>
        <path class="cls-9" d="M651.5,363l-1,1.2c-1.5-1.7-2.9-4-3.7-6.4-1,2.6-2.7,5.2-4.3,6.5l-.2-.2c0,2.4-.2,4.9-.3,6.2-.2,1.8-1.7,2.1-4.5,1l.2-.6c2.7.5,3.1.4,3.2-.9.1-1.5.3-4.6.3-6.6h-2.6c-.2,4.8-.9,7.1-3,9.1l-.4-.4c1.9-2.7,2.2-4.9,2.2-11.9h-2.2v-.7h4.4c-.6-1.1-1.5-2.5-2.1-3.3l.4-.4c1,.8,2.3,2.2,2.9,3.1l-.7.6h3.4v.7h-4.8c0,.9,0,1.7,0,2.5h3.8c0,.4,0,.7,0,1.1,1.6-1.9,3.3-5.3,3.8-8.1l1.3.4c0,.3-.2.6-.3,1,1,2.4,2.6,4.6,4.4,6.1ZM643.9,367c1.6.8,4.4,2.6,6.1,4.1l-.9,1.1c-1.6-1.6-4-3.5-5.5-4.6l.3-.5ZM648.5,366.5c-.9-1-2.6-2.6-3.6-3.4l.3-.5c1.2.6,3,1.8,4.2,2.8l-.9,1Z"/>
        <path class="cls-9" d="M656.9,359.1l-3,1.3v-1.1l3.4-1.3h1v12.9h-1.3v-11.8h0Z"/>
        <path class="cls-9" d="M665.5,364.2h0c-1.5-.7-2.3-1.7-2.4-2.8,0-2.1,1.8-3.5,4-3.5s3.7,1.6,3.7,3.2c0,1.3-.9,2.4-2.4,3h0c1.7.7,2.8,1.8,2.8,3.4,0,2.3-1.7,3.7-4.3,3.7s-4.3-1.5-4.3-3.5,1.1-2.7,2.8-3.5ZM667,370.2c1.6,0,2.9-1.1,2.9-2.6s-1.3-2.6-3.1-3c-1.6.4-2.8,1.4-2.8,2.8,0,1.6,1.3,2.7,2.9,2.7ZM669.5,361.3c0-1.4-1-2.4-2.5-2.4s-2.5,1-2.5,2.4c0,1.3,1.1,2.1,2.7,2.5,1.3-.4,2.3-1.3,2.3-2.5Z"/>
        <path class="cls-9" d="M676.4,364.2h0c-1.5-.7-2.3-1.7-2.4-2.8,0-2.1,1.8-3.5,4-3.5s3.7,1.6,3.7,3.2c0,1.3-.9,2.4-2.4,3h0c1.7.7,2.8,1.8,2.8,3.4,0,2.3-1.7,3.7-4.3,3.7s-4.3-1.5-4.3-3.5,1.1-2.7,2.8-3.5ZM677.9,370.2c1.6,0,2.9-1.1,2.9-2.6s-1.3-2.6-3.1-3c-1.6.4-2.8,1.4-2.8,2.8,0,1.6,1.3,2.7,2.9,2.7ZM680.4,361.3c0-1.4-1-2.4-2.5-2.4s-2.5,1-2.5,2.4c0,1.3,1.1,2.1,2.7,2.5,1.3-.4,2.3-1.3,2.3-2.5Z"/>
        <path class="cls-9" d="M693.4,367.4h-1.9v3.5h-1.3v-3.5h-6.3v-.9l6-8.3h1.6v8.3h1.9v.9ZM690.2,366.5v-5c0-.7,0-1.4,0-2h0c-.4.7-.8,1.4-1.2,1.9l-3.7,5h0c0,.1,4.9.1,4.9.1Z"/>
        <path class="cls-9" d="M711.2,366.5v.8h-6.5v5.1h-1.3v-5.1h-8.4v-.8h3.2v-4.8h5.1v-2.9h-4.3c-.9,1.5-1.9,2.9-3,4l-.4-.4c1.5-1.8,2.6-4.4,3.3-7l1.4.5c-.2.7-.6,1.5-.9,2.2h11.2v.8h-6v2.9h5.1v.7h-5.1v4h6.5ZM703.5,362.5h-3.9v4h3.9v-4Z"/>
        <path class="cls-9" d="M719.9,367.2c1.4-.7,2.2-1.9,2.2-3.2-.2.2-.6.3-.8.3-.7,0-1.2-.5-1.2-1.3,0-.8.5-1.3,1.3-1.3.9,0,1.6.5,1.7,1.6.1,1.8-.8,3.7-2.8,4.3l-.3-.4Z"/>
        <path class="cls-9" d="M438.6,381.5v12.5h-1.2v-10.3c-.8,1.3-1.6,2.4-2.4,3.1l-.4-.4c1.5-1.9,3.3-5.7,4.1-9.3l1.3.4c-.4,1.4-.9,2.8-1.4,4ZM450.8,392.3v.8h-11.5v-.8h6.4c.5-2.1,1.3-5.9,1.6-9.1l1.5.3c-.6,3.4-1.5,6.5-2.5,8.8h4.4ZM450.3,382.2h-10.6v-.8h10.6v.8ZM441,383.6l.6-.2c1.1,2.4,2,5.7,2.2,7.6l-1.4.3c-.2-2.2-.7-5.2-1.4-7.6ZM444.9,381.3c-.5-1.1-1.3-2.7-1.9-3.8l.5-.3c1,.9,2,2.3,2.6,3.4l-1.2.8Z"/>
        <path class="cls-9" d="M469.7,384.6l-1,1.2c-1.5-1.7-2.9-4-3.7-6.4-1,2.6-2.7,5.2-4.3,6.5l-.2-.2c0,2.4-.2,4.9-.3,6.2-.2,1.8-1.7,2.1-4.5,1l.2-.6c2.7.4,3.1.4,3.2-.9.1-1.5.3-4.6.3-6.6h-2.6c-.2,4.8-.9,7.1-3,9.1l-.4-.4c1.9-2.7,2.2-4.9,2.2-11.9h-2.2v-.7h4.4c-.6-1.1-1.5-2.5-2.1-3.3l.4-.4c1,.8,2.3,2.2,2.9,3.1l-.7.6h3.4v.7h-4.8c0,.9,0,1.7,0,2.5h3.8c0,.4,0,.7,0,1.1,1.6-1.9,3.3-5.3,3.8-8.1l1.3.4c0,.3-.2.6-.3,1,1,2.4,2.6,4.6,4.4,6.1ZM462.1,388.6c1.6.8,4.4,2.6,6.1,4.1l-.9,1.1c-1.6-1.6-4-3.5-5.5-4.6l.3-.5ZM466.7,388.1c-.9-1-2.6-2.6-3.6-3.4l.3-.5c1.2.6,3,1.8,4.2,2.8l-.9,1Z"/>
        <path class="cls-9" d="M471.8,391.9c1.2-1,2.1-2.3,2.6-4.2h.5c-.2,2-1,4-2.1,5.1l-1.1-.9ZM479.3,384.4h-4.4v1.1h-1.2v-5.7h5.6v-2.4h1.2v2.4h5.6v5.7h-1.2v-1h-4.5v2.4h-1.2v-2.4ZM479.3,383.7v-3.2h-4.4v3.2h4.4ZM476.3,391.7v-4.6h1.2v4.2c0,.9.2,1,1.4,1.1,1.2,0,2.6,0,3.6,0,1-.1,1.1-.3,1-3.1h.5c.9,3.4.3,4-1.3,4.2-1.3,0-2.9,0-4.1,0-1.8-.1-2.4-.3-2.4-1.7ZM478.9,387.6l.3-.5c1,.5,2.3,1.4,3.3,2.3l-.9,1c-.8-1-1.9-2-2.7-2.8ZM485,383.7v-3.2h-4.5v3.2h4.5ZM484.7,388l.4-.3c1,1,2.2,2.3,2.9,3.6l-1.2.7c-.6-1.4-1.4-2.6-2.2-4Z"/>
        <path class="cls-9" d="M500.5,383.2c-.7.6-1.5,1.3-2.2,1.8h3.1l.6-.2,1.1.9c-.9.8-2.4,1.7-3.6,2.2v1.1h6.8v.7h-6.8v2.7c0,1.5-1.1,2-4.7.9v-.6c3,.4,3.5.3,3.5-.7v-2.3h-7.1v-.7h7.1v-1.7l1,.2c.8-.5,1.7-1.3,2.1-1.7h-4.1c-2,1.3-4.3,2.4-6.7,3.1l-.2-.5c1.8-.6,3.6-1.5,5.3-2.6h-2.9v-.7h3.9c.8-.6,1.6-1.2,2.3-1.8h-8.4v-.7h6.3v-2.2h-4.2v-.7h4.2v-2.3h1.2v2.3h3.7v.7c.7-.8,1.2-1.7,1.7-2.5l1.2.6c-.9,1.4-2,2.8-3.4,4.2h5.2v.7h-5.9ZM499.7,382.5c.8-.7,1.4-1.5,2.1-2.2h-3.7v2.2h1.6Z"/>
        <path class="cls-9" d="M519.2,379.5v3.2h4.4v11.2h-1.2v-1.5h-10.5v1.6h-1.2v-11.2h4.1v-3.2h-5.4v-.8h15.6v.8h-5.6ZM522.4,391.6v-2.9h-2.2c-1.8,0-2.1-.5-2.1-2v-3.3h-2.2c0,2.6-.4,5.2-3.2,7.1l-.3-.5c2.2-2.1,2.3-4.6,2.3-6.6h-2.8v8.2h10.5ZM518,379.5h-2.2v3.2h2.2v-3.2ZM519.2,383.4v2.9c0,1.1.2,1.3,1.3,1.3h1.8v-4.2h-3.1Z"/>
        <path class="cls-9" d="M534.6,390.1l.2.5c-1.6.9-4.9,2.1-7,2.7l-.4-1.4c.4,0,.8-.1,1.2-.2v-6.4h1.1v6.2c.4,0,.9-.2,1.3-.3v-7.7h-2.3v-5.4h5.4v5.4h-2v2.5h2.5v.7h-2.5v4.2c.9-.3,1.7-.5,2.4-.8ZM529.8,382.9h3.2v-4h-3.2v4ZM544.1,386.5l-.6,1.4c-1.8-.7-3.3-1.6-4.5-2.6-1.4,1.3-3.2,2.3-5.4,3l-.2-.5c2-.8,3.7-1.8,4.9-3.1-.9-1-1.6-2-2.1-3.1-.5.7-1,1.4-1.5,2l-.4-.4c1.2-1.5,1.9-3.7,2.4-5.9l1.3.4c-.2.6-.4,1.2-.6,1.7h3.4l.3-.3,1.3.6c-.6,1.8-1.4,3.4-2.6,4.8,1.3.9,2.7,1.5,4.4,2ZM535.5,387.7h6.8v6.1h-1.2v-1.2h-4.5v1.2h-1.2v-6.2ZM538.9,383.8c.9-1.1,1.5-2.4,1.9-3.8h-3.8c-.1.3-.3.6-.4.8.6,1.2,1.4,2.2,2.3,3ZM536.7,392h4.5v-3.6h-4.5v3.6Z"/>
        <path class="cls-9" d="M551.3,383.8l.5-.5c1.7,1.3,3.6,2.8,5,4.2l-1,1.1c-1.4-1.7-2.8-3.2-4.4-4.7Z"/>
        <path class="cls-9" d="M581,391.7l-.5,1.5c-1.6.1-3.8.1-5.3,0-3.3-.1-5.6-.9-7-2.4-.8,1.2-1.9,2.2-3.2,3l-.3-.5c1.2-.9,2.2-2,3-3.3-.8-1.1-1.3-2.5-1.7-4.1h.5c.4,1.3.9,2.4,1.5,3.3.7-1.5,1.2-3.2,1.3-5h-2.1c-.2.4-.4.7-.5.9l-1.1-.3c.9-1.6,2-3.9,2.8-5.8h-3.2v-.7h4.8c-.6,1.4-1.6,3.6-2.4,5.1h1.6l.3-.3,1.1.4c-.2,2.3-.8,4.5-1.9,6.4,1.4,1.3,3.4,1.9,6.2,1.9,1.8,0,4.1,0,6.1-.3ZM571,380v-.5c2.8-.3,6.5-1.4,8-2.1l.9,1.1c-.8.3-2.1.6-3.5.9v4.2h3.5v.7h-3.5v5.1h4.1v.7h-10.1v-.7h1.5v-6.8h1v6.8h2.4v-9.8c-1.5.2-3,.4-4.2.5Z"/>
        <path class="cls-9" d="M590.7,387.3h-7.3v-.8h7.3v-7.3h-6.4v-.8h14.1v.8h-6.4v7.3h7.4v.8h-7.4v6.8h-1.3v-6.8ZM585.4,380.3l.5-.3c1.2,1.4,2.3,3.3,3.1,5l-1.4.6c-.6-2-1.4-3.7-2.2-5.3ZM593.4,385.4c.8-1.4,1.6-3.3,2.3-5.5l1.5.6c-1.1,2.2-2.1,3.9-3.3,5.2l-.5-.3Z"/>
        <path class="cls-9" d="M610.5,380.4v2.1h6.2v9.8c0,1.8-2,1.9-4.3.8v-.5c2.5.4,3.2.4,3.1-.7v-8.8h-11v10.8h-1.2v-11.5h6v-2.1h-7.3v-.7h7.3v-2.4h1.2v2.4h7.4v.7h-7.4ZM614.8,389.7h-4.2v3.7h-1.2v-3.7h-4.1v-.7h4.1v-1.9h-3.9v-.7h2.6c-.4-.9-1.1-1.9-1.6-2.7l.4-.3c.8.6,1.7,1.6,2.3,2.5l-.8.5h2.2c.5-.7,1.1-2,1.4-3l1.2.6c-.7,1-1.4,1.9-1.9,2.4h3.2v.7h-4v1.9h4.2v.7Z"/>
        <path class="cls-9" d="M627.4,390.1l.2.5c-1.6.9-4.9,2.1-7,2.7l-.4-1.4c.4,0,.8-.1,1.2-.2v-6.4h1.1v6.2c.4,0,.9-.2,1.3-.3v-7.7h-2.3v-5.4h5.4v5.4h-2v2.5h2.5v.7h-2.5v4.2c.9-.3,1.7-.5,2.4-.8ZM622.6,382.9h3.2v-4h-3.2v4ZM636.9,386.5l-.6,1.4c-1.8-.7-3.3-1.6-4.5-2.6-1.4,1.3-3.2,2.3-5.4,3l-.2-.5c2-.8,3.7-1.8,4.9-3.1-.9-1-1.6-2-2.1-3.1-.5.7-1,1.4-1.5,2l-.4-.4c1.2-1.5,1.9-3.7,2.4-5.9l1.3.4c-.2.6-.4,1.2-.6,1.7h3.4l.3-.3,1.3.6c-.6,1.8-1.4,3.4-2.6,4.8,1.3.9,2.7,1.5,4.4,2ZM628.4,387.7h6.8v6.1h-1.2v-1.2h-4.5v1.2h-1.2v-6.2ZM631.7,383.8c.9-1.1,1.5-2.4,1.9-3.8h-3.8c-.1.3-.3.6-.4.8.6,1.2,1.4,2.2,2.3,3ZM629.5,392h4.5v-3.6h-4.5v3.6Z"/>
        <path class="cls-9" d="M644.7,389.7l1.3.7c-1.7,1.6-4.6,3-6.9,3.6l-.2-.5c2.3-1,4.4-2.3,5.7-3.9ZM655,389.4h-15.9v-.7h1.7c0-3.4-.2-6.3-.4-9.8l1.1.2c.8-.5,1.6-1.2,2.3-1.8l1,.9c-.9.6-2.2,1.2-3.2,1.5,0,.7,0,1.4,0,2.1h2.5v.7h-2.5c0,.8,0,1.7,0,2.5h2.4v.7h-2.4c0,1,0,2.1,0,3.1h2.6c.2-1.5.4-2.8.5-4.4l1.1.2c-.1,1.5-.3,2.8-.5,4.3h2c.1-1.6.3-4,.4-5.7h-2.1c0,.3,0,.5-.1.7l-1.1-.2c.3-2,.6-4.3.8-6.2h1.1c0,.8-.1,1.5-.3,2.3h3.2v.7h-3.3l-.3,2h3.2c-.1,2-.3,4.7-.5,6.4h3.1l.2-2.9h-2.2v-.7h2.2l.2-2.5h-2.3v-.7h2.3l.2-2.8h-2.6v-.7h3.8l-.6,10.3h2v.7ZM655.3,392.8l-.9,1.3c-1.5-1.2-3.9-2.6-5.9-3.7l.2-.5c2.2.7,4.7,1.7,6.6,2.9Z"/>
        <path class="cls-9" d="M663.1,382.6h-2.2v11.4h-1.2v-11.4h-2.3v-.7h2.3v-4.7h1.2v4.7h2.2v.7ZM673.6,389.2h-2.7v3.3c0,1.4-1.3,2.1-4.1.7l.2-.5c2.4.5,2.8.4,2.8-.5v-2.9h-7.8v-.7h7.8v-1.2h1.2v1.2h2.7v.7ZM667.5,380.2h-4.9v-.7h4.9v-2.2h1.2v2.2h4.9v.7h-4.9v1.2h3.8v5.8h-1.2v-1.5h-2.6v1.6h-1.2v-1.6h-2.7v2h-1.2v-6.4h3.8v-1.2ZM666.9,391.4l-.8.8c-.7-.8-1.4-1.5-2.1-2.2l.3-.5c.8.4,1.8,1.1,2.6,1.8ZM667.5,382.1h-2.7v1.1h2.7v-1.1ZM667.5,383.9h-2.7v1.2h2.7v-1.2ZM668.7,383.2h2.6v-1.1h-2.6v1.1ZM668.7,385h2.6v-1.2h-2.6v1.2ZM669.3,377.6l.3-.5c.7.3,1.7.8,2.5,1.4l-.7.9c-.6-.6-1.5-1.4-2.1-1.8Z"/>
        <path class="cls-9" d="M691.3,393.9c-2.5-.3-4.8-.8-6.9-1.8-2,1-4.5,1.6-7.7,2v-.5c2.8-.5,5-1.2,6.7-2-1-.6-2-1.4-2.8-2.3-1.2,1.1-2.6,2-3.8,2.5l-.3-.5c2.1-1.1,3.9-3.1,4.8-4.8l1.2.5c-.2.3-.4.6-.6.9h5.3l.5-.3,1.3.8c-.9,1.2-2,2.2-3.4,3,1.7.6,3.7.9,6.3,1.1l-.6,1.4ZM678,384.8h-1.2v-3.3h3.6c-.2-.6-.5-1.6-.8-2.3-.6,0-1.3,0-1.8,0v-.6c4-.2,8.7-.8,11.3-1.6l1.2,1c-1.7.4-4,.7-6.4.9.5.6,1,1.5,1.2,2.1l-1,.4h3c.4-.8.9-2.1,1.1-2.9l1.3.5c-.4.8-1.1,1.7-1.7,2.4h3.7v3.1h-1.2v-2.4h-12.4v2.6ZM679.7,383l.5.2c-.2,1.4-.8,2.7-1.5,3.6l-1-.7c.9-.8,1.7-1.8,2.1-3ZM681.5,381.2l-.8.3h3.4c-.2-.6-.5-1.7-.8-2.5-1,0-2,.1-3,.2.5.6.9,1.4,1.2,2ZM684.4,391c1.2-.7,2.1-1.6,2.8-2.4h-5.9l-.3.3c1,.9,2.1,1.6,3.4,2.1ZM682.1,382.8v1.6c0,.8.1,1,1,1.1,1,0,1.9,0,2.9,0,.8,0,.9-.3.9-2.2h.5c.5,2.5.3,3-1.3,3.2-1.2,0-2.3.1-3.4,0-1.6-.1-1.7-.6-1.7-1.7v-2h1.1ZM685.3,384.8c-.6-.6-1.6-1.4-2.2-1.9l.3-.4c.7.3,1.9.9,2.6,1.5l-.6.9ZM691,385.8l-1,.7c-.5-.9-1.2-2.2-1.8-3l.4-.3c.8.7,1.8,1.8,2.4,2.6Z"/>
        <path class="cls-9" d="M701.7,390.1l.2.5c-1.6.9-4.9,2.1-7,2.7l-.4-1.4c.4,0,.8-.1,1.2-.2v-6.4h1.1v6.2c.4,0,.9-.2,1.3-.3v-7.7h-2.3v-5.4h5.4v5.4h-2v2.5h2.5v.7h-2.5v4.2c.9-.3,1.7-.5,2.4-.8ZM696.9,382.9h3.2v-4h-3.2v4ZM711.2,386.5l-.6,1.4c-1.8-.7-3.3-1.6-4.5-2.6-1.4,1.3-3.2,2.3-5.4,3l-.2-.5c2-.8,3.7-1.8,4.9-3.1-.9-1-1.6-2-2.1-3.1-.5.7-1,1.4-1.5,2l-.4-.4c1.2-1.5,1.9-3.7,2.4-5.9l1.3.4c-.2.6-.4,1.2-.6,1.7h3.4l.3-.3,1.3.6c-.6,1.8-1.4,3.4-2.6,4.8,1.3.9,2.7,1.5,4.4,2ZM702.6,387.7h6.8v6.1h-1.2v-1.2h-4.5v1.2h-1.2v-6.2ZM706,383.8c.9-1.1,1.5-2.4,1.9-3.8h-3.8c-.1.3-.3.6-.4.8.6,1.2,1.4,2.2,2.3,3ZM703.8,392h4.5v-3.6h-4.5v3.6Z"/>
        <path class="cls-9" d="M728.6,393.9c-2.8-.8-5.1-1.8-7-3.5-2.2,2-4.9,2.9-8,3.5l-.2-.5c3-.8,5.4-1.9,7.3-3.7-1.2-1.2-2.2-2.8-3.1-4.7l.5-.3c1.1,1.8,2.2,3.1,3.3,4.2,1-1.2,1.9-2.6,2.6-4.4l1.3.6c-.9,1.9-1.9,3.4-3,4.5,1.9,1.4,4.2,2.1,6.9,2.7l-.7,1.5ZM713.8,387l-.3-.5c1.7-1.2,3.6-3.1,4.7-5.1l1.2.8c-1.7,2.2-3.7,3.7-5.7,4.8ZM728.8,381h-15.2v-.8h7.7c-.8-.8-2.1-2.1-2.8-2.7l.3-.5c1,.5,2.8,1.6,3.7,2.3l-.7.8h7v.8ZM723.4,381.5c1.8.8,3.9,2.3,5.6,3.8l-1,1.1c-1.6-1.7-3.4-3.3-4.8-4.4l.3-.5Z"/>
        <path class="cls-9" d="M450,415.6c-2.5-1-4.9-2.4-6.9-4.4-2.6,2.4-5.5,3.7-8.1,4.5l-.2-.6c2.4-.9,5.2-2.4,7.5-4.8-2-2.3-3.6-5.3-4.3-9.3h-2.1v-.8h11l.5-.4,1.4.6c-.8,4.2-2.6,7.4-4.7,9.7,2.1,1.7,4.4,2.9,6.8,3.7l-.9,1.6ZM443.2,409.4c1.8-2.1,3.2-4.8,3.9-8.3h-8.4c.9,3.6,2.5,6.3,4.6,8.3ZM444.6,405.7l-1.2.8c-.6-1.2-1.6-3-2.5-4.2l.5-.4c1.1,1,2.6,2.8,3.3,3.8Z"/>
        <path class="cls-9" d="M467.7,401.2v13.2h-1.3v-1.9h-10v2.1h-1.3v-13.4h12.6ZM466.4,402h-10v9.7h10v-9.7Z"/>
        <path class="cls-9" d="M477.7,407.2c0-1.2,1-2.2,2.2-2.2s2.2,1,2.2,2.2-1,2.2-2.2,2.2-2.2-1-2.2-2.2ZM481.4,407.2c0-.8-.6-1.5-1.5-1.5s-1.5.6-1.5,1.5.6,1.5,1.5,1.5,1.5-.6,1.5-1.5Z"/>
        <path class="cls-9" d="M505.8,401.6v3.7h-1.2v-3h-12.2v3.1h-1.2v-3.8h7.9c-.8-.8-2-1.7-2.9-2.4l.3-.5c1,.4,2.8,1.3,3.6,1.9l-.7,1h6.4ZM505.1,410.1c.6,3.7.5,4.6-1.7,4.7-2.3.1-4.5.1-6.9,0-1.5,0-2.4-.3-2.4-2.3v-8.5h1.3v5.1c3.1-1.2,5.3-2.5,6.8-3.6l1.2,1c-1.9,1.1-4.7,2.4-7.9,3.2v2.4c0,1.3.5,1.5,1.8,1.5,2,0,3.9,0,5.9,0,1.4,0,1.4-.4,1.4-3.6h.5Z"/>
        <path class="cls-9" d="M525.3,413.5l-.5,1.5c-1.2.1-3.7.1-5,0-3.2-.2-5.6-1.4-6.7-4-.7,2.1-2.1,3.8-3.8,4.7l-.3-.5c2-1.5,3-3.8,3.3-6.8h1.4c0,.7-.2,1.3-.3,1.8.8,1.6,1.9,2.5,3.3,3v-5.7h-7.3v-.8h15.5v.8h-6.9v2.3h5.4v.7h-5.4v3c.6,0,1.3.1,2,.1,1.9,0,3.7,0,5.3-.3ZM522.2,405.4h-9.8v-5.7h9.8v5.7ZM521,400.5h-7.4v1.7h7.4v-1.7ZM521,402.9h-7.4v1.8h7.4v-1.8Z"/>
        <path class="cls-9" d="M543.8,414.1h-8.1v1.4h-1.2v-9.8c-.4.8-.9,1.5-1.4,2.2l-.3-.2v5.2h-1.1v-1.2h-2.1v1.7h-1.2v-12.7h4.4v6.6c1.3-2.4,2.1-5.1,2.6-8.4l1.3.3c-.2,1.1-.5,2.3-1,3.5h7.7v.7h-3.6v2.5h3.1v.7h-3.1v2.9h3.1v.7h-3.1v3.2h3.9v.7ZM531.7,411v-9.5h-2.1v9.5h2.1ZM538.7,403.4h-3v2.5h3v-2.5ZM538.7,406.6h-3v2.9h3v-2.9ZM535.7,413.4h3v-3.2h-3v3.2ZM539.4,402.6c-.3-1-1-2.5-1.6-3.4l.5-.3c.8.8,1.7,2.1,2.3,3.1l-1.2.6Z"/>
        <path class="cls-9" d="M546.7,405.9h15.1v.9h-15.1v-.9Z"/>
        <path class="cls-9" d="M568.2,403.5v12.1h-1.2v-9.6c-.6,1-1.3,2-2,2.8l-.4-.4c1.7-2.4,2.9-5.6,3.6-9.5l1.3.3c-.3,1.5-.7,3-1.3,4.3ZM580.9,412.9l-.9,1.3c-1.3-.8-3.5-2.8-4.6-5v6.3h-1.2v-6.2c-1,1.7-3.1,3.8-5.3,5l-.3-.5c2-1.4,4.1-3.6,5.1-5.9h-4.6v-.7h5.1v-2h-3.3v-5.3h8v5.3h-3.5v2h5.2v.7h-5.1c1.2,2.1,3.8,4.1,5.4,4.9ZM572.1,404.6h5.7v-3.9h-5.7v3.9Z"/>
        <path class="cls-9" d="M587.3,408v6c0,1.6-1.5,1.8-3.9.8v-.5c2.3.3,2.7.2,2.7-.7v-5.1c-.9.4-1.7.7-2.4.9l-.5-1.3c.8-.2,1.8-.4,2.8-.7v-3.8h-2.7v-.7h2.7v-4h1.2v4h2.3v.7h-2.3v3.4c.8-.3,1.6-.5,2.2-.8l.2.5c-.7.4-1.6.8-2.5,1.3ZM599.4,408.1v.7h-2.8v5.1c0,1.6-1.2,2.3-4.4.9v-.6c2.7.5,3.2.3,3.2-.7v-4.7h-6.6v-.7h6.6v-2.1h1.2v2.1h2.8ZM593.1,402.3h-3.6v-.7h3.6v-2.7h1.2v2.7h3.8v.7h-3.8v2.6h4.7v.7h-10.2v-.7h4.2v-2.6ZM592.9,412l-1,.7c-.5-1-1.3-2.1-1.9-3.1l.4-.4c.9.7,1.9,1.8,2.6,2.7Z"/>
        <path class="cls-9" d="M612.1,408.9v5.1c0,1.5-1.3,2.1-4.3.8v-.5c2.6.5,3,.4,3-.6v-4.7h-4.1v-6h3.3c.3-.7.6-1.6.8-2.5h-6.1v4.3c0,6-.8,8.9-2.6,10.8l-.4-.3c1.3-1.9,1.7-4,1.7-10.6v-5h14.3v.7h-5.6c-.5,1-1,1.8-1.5,2.5h5.2v6h-3.9ZM609,410.7c-1.2,1.8-2.9,3.4-4.8,4.4l-.3-.5c1.4-1,2.8-2.6,3.9-4.6l1.2.6ZM607.9,405.5h6.8v-1.8h-6.8v1.8ZM607.9,408.2h6.8v-2h-6.8v2ZM618.2,413.9l-1,1c-.8-1.2-2.6-3.1-4-4.4l.3-.5c1.6,1,3.7,2.8,4.7,3.9Z"/>
        <path class="cls-9" d="M620.6,402.2l-.2-.6c2.1-.9,3.3-1.6,4.6-2.8l1,.8c-1.3,1-3.3,2.1-5.5,2.6ZM626.8,411.9c-.1,3.7-2,4.3-4.6,2.4l.2-.5c2.4.9,3.1.6,3.2-1.7,0-.7,0-1.5,0-2.2-1.2,1.6-3.2,3.1-4.9,3.8l-.3-.5c1.7-.9,3.6-2.7,4.9-4.8,0-.5-.2-.9-.3-1.3-1.2,1.4-3,2.7-4.4,3.3l-.2-.5c1.6-1,3.1-2.4,4.2-4l-.3-.7c-1.1.8-2.4,1.5-3.6,1.8l-.2-.5c.8-.4,1.6-.8,2.3-1.3-.3-.7-1-1.7-1.3-2.3l.4-.3c.5.5,1.3,1.4,1.8,2.1.4-.3.7-.6,1-.9-.4-.6-.8-1.3-1.2-1.8l.4-.4c.5.4,1.1,1,1.5,1.5.4-.4.8-.8,1.1-1.2l.9.7c-.5.6-1.4,1.5-2.6,2.3,1.6,2.1,2.1,4.9,2,7.2ZM634.6,415c-2.3,0-2.8-.1-2.8-1.9v-5.1h-1.1c0,3.7-1.2,6.5-4.4,7.7l-.3-.5c2.5-1.3,3.4-3.5,3.5-7.2h-1.9v-6.5h2.4c.3-.9.6-1.9.8-2.8l1.5.4c-.4.8-1.1,1.8-1.6,2.4h4.4v6.5h-2.1v4.9c0,1,.1,1.1,1.5,1.1s1.2-.4,1.1-3.2h.5c1.1,4.3.2,4.3-1.5,4.3ZM628.8,404.3h5.1v-2.1h-5.1v2.1ZM628.8,407.3h5.1v-2.3h-5.1v2.3Z"/>
        <path class="cls-9" d="M642.7,402.4h3.3v12.6h-1.2v-1.7h-3.7v2h-1.2v-13h2.1c.3-1.1.5-2.5.6-3.6l1.4.3c-.4,1.1-.9,2.4-1.4,3.3ZM644.7,403.1h-3.7v4.1h3.7v-4.1ZM644.7,412.6v-4.7h-3.7v4.7h3.7ZM654.5,402.4c0,5.4-.2,9-.4,11.2-.2,1.9-1.7,2.7-5.6,1v-.5c3.8.7,4.2.4,4.4-1,.2-1.6.4-4.8.4-9.9h-4.4c-.5,1.4-1.2,2.9-2.2,4.2l-.5-.3c1.3-2.5,2-5.6,2.4-8.2l1.4.3c-.2,1-.4,2.2-.8,3.3h5.4ZM650.3,410.5c-.6-1.6-1.5-3.2-2.3-4.6l.4-.3c1.1,1.2,2.4,2.9,3,4.3l-1.2.7Z"/>
        <path class="cls-9" d="M663.2,409.3c-1.6,1.1-3.9,2.3-5.2,2.8l-.5-1.2c.6-.2,1.5-.5,2.4-.8v-5.5h-2.1v-.7h2.1v-4.7h1.2v4.6h2.1v.7h-2.1v5c.7-.3,1.4-.6,2-.9l.3.5ZM672.6,415.4c-1.2-.4-2.1-1.5-2.6-3.2-1.2,1.5-2.7,2.6-4.5,3.4l-.3-.5c1.9-1,3.3-2.4,4.4-4.1-.6-2.3-.8-5.2-.9-8.2h-4.1v2.9h3.3c0,1.7,0,3.8-.1,5.1-.1,1.6-1.5,1.8-3.2.8l.2-.5c1.5.3,1.8.2,1.9-.5,0-.9.1-2.4.2-4.3h-2.2v.7c0,3.9-.8,6.4-3.2,8.5l-.4-.4c1.9-2,2.4-4.7,2.4-8.1v-5h5.3c0-1,0-2.1,0-3.1h1.1c0,1,0,2.1,0,3.1h3.7v.7h-3.7c0,2.4.3,4.7.6,6.6.7-1.5,1.2-3.2,1.6-5.1l1.2.3c-.5,2.4-1.3,4.6-2.4,6.4.4,1.6,1,2.7,1.8,3.1.5.2.6,0,.5-3.1h.5c.8,4,.1,4.8-1,4.4ZM672.2,402c-.4-.7-1.3-1.8-1.9-2.6l.4-.4c.8.5,1.8,1.5,2.4,2.2l-.9.8Z"/>
        <path class="cls-9" d="M677.3,399.7h6v6.4h-4.8v9.4h-1.2v-15.8ZM682,402.5v-2.1h-3.5v2.1h3.5ZM682,405.4v-2.2h-3.5v2.2h3.5ZM686.3,414.1c3.2.6,3.7.3,3.7-.8v-7.1h-4.8v-6.4h6v13.9c0,2-1.4,2.6-5.1,1v-.5ZM690,402.5v-2.1h-3.5v2.1h3.5ZM690,405.4v-2.2h-3.5v2.2h3.5Z"/>
        <path class="cls-9" d="M701.3,410.4c1.4-.7,2.2-1.9,2.2-3.2-.2.2-.6.3-.8.3-.7,0-1.2-.5-1.2-1.3,0-.8.5-1.3,1.3-1.3.9,0,1.6.5,1.7,1.6.1,1.8-.8,3.7-2.8,4.3l-.3-.4Z"/>
        <path class="cls-9" d="M727.4,415c-1.3,0-2.1,0-3.2,0-1.8,0-2.2-.4-2.2-1.9v-3.6h-1.6c-.3,2.6-1.9,5.3-6.9,6.3l-.2-.5c3.9-1.1,5.6-3.4,5.9-5.8h-3v-9.8h10.3v9.8h-3.1v3.3c0,.9.1,1,1.2,1.1.9,0,1.5,0,2.6,0,.9,0,1.1-.3,1.1-3.7h.5c.5,3.6.6,4.7-1.3,4.8ZM717.4,402.7h7.8v-2.3h-7.8v2.3ZM717.4,405.7h7.8v-2.3h-7.8v2.3ZM717.4,408.8h7.8v-2.4h-7.8v2.4Z"/>
        <path class="cls-9" d="M440.7,424.4h-6v-.7h2.9c-.5-1-1.2-2.3-1.6-3l.4-.3c.7.8,1.6,1.9,2.1,2.9l-.8.5h2.9v.7ZM435.4,426.1h4.8v.7h-4.8v-.7ZM440.1,429.1h-4.7v-.7h4.7v.7ZM435.4,430.9h4.7v5.9h-1.1v-1h-2.5v1.3h-1.1v-6.1ZM436.5,435.1h2.5v-3.5h-2.5v3.5ZM442.8,427c-.6.6-1.3,1.1-2.2,1.7l-.3-.5c1.3-.9,2.2-1.9,2.8-3-.7-.6-1.5-1.4-2-1.7l.3-.5c.6.3,1.5.7,2.2,1.2.3-.6.5-1.3.6-2h-3.4v-.7h3.2l.4-.3,1.1.4c-.3,1.5-.8,3-2,4.5h4.2c-1.1-1.3-2-3.2-2.3-5.8h.5c.2,1,.5,1.8.8,2.6.5-.5,1.1-1.2,1.6-2l.8.7c-.6.6-1.4,1.3-2.2,1.8.3.5.5.9.8,1.2.6-.5,1.3-1.2,1.9-1.9l.8.7c-.7.6-1.5,1.2-2.3,1.6.9,1,2,1.7,3.1,2.2l-.8,1.2c-.6-.4-1.4-.9-2.2-1.7h-5.5ZM447.1,435.9h3.5v.7h-10v-.7h3.1c-.4-1-1-2.1-1.4-3l.4-.3c.8.8,1.6,1.9,2.2,2.9l-.8.5h2.3c.6-1,1.1-2.4,1.4-3.3l1.2.6c-.5.9-1.2,1.9-1.9,2.8ZM442.1,432.2v-3.6h7.1v3.6h-7.1ZM443.2,431.5h4.9v-2.3h-4.9v2.3Z"/>
        <path class="cls-9" d="M461.8,426.3v9c0,1.9-1.4,2.6-5.8,1v-.6c3.8.6,4.5.5,4.5-.8v-9.4l1.1.2c1.6-1,2.7-1.9,3.8-3.1h-11.3v-.8h11.3l.6-.3,1.3,1c-1.4,1.5-3.6,2.9-5.6,3.7Z"/>
        <path class="cls-9" d="M486.2,428.2l-1.2.8c-.4-.7-.8-1.5-1.4-2.4-3,.6-8,1.3-11.8,1.5l-.4-1.5c.7,0,1.5,0,2.3,0,1.4-1.7,2.9-4.3,3.9-6.3l1.4.7c-1.2,1.9-2.8,4.1-4.4,5.6,3.1,0,6.4-.3,8.6-.6-.7-1-1.4-2-2.1-3l.5-.4c1.6,1.5,3.7,4,4.6,5.4ZM473.5,429.8h10.6v7.4h-1.3v-1.4h-8v1.4h-1.3v-7.4ZM474.8,435.1h8v-4.6h-8v4.6Z"/>
        <path class="cls-9" d="M497.1,433.7l.2.5c-2.1,1.2-6.4,2.4-8.3,2.7l-.4-1.3c1.3-.2,3.3-.6,5.2-1.1v-6.8h-5v-.8h5v-6.4h1.2v13.7c.8-.2,1.5-.4,2-.6ZM503,436.4c-.8,0-2,0-2.9,0-1.8,0-2.2-.4-2.2-2.4v-13.5h1.2v7.3c1.3-.8,3-2,4.3-3.2l.9,1c-1.5,1.1-3.8,2.3-5.2,2.9v5.4c0,.9,0,1.2,1.2,1.2.8,0,1.7,0,2.5,0,.9-.1.9-.5.9-4.2h.6c.6,4.5.6,5.2-1.4,5.3Z"/>
        <path class="cls-9" d="M510.4,424h3.3v12.6h-1.2v-1.7h-3.7v2h-1.2v-13h2.1c.3-1.1.5-2.5.6-3.6l1.4.3c-.4,1.1-.9,2.4-1.4,3.3ZM512.5,424.7h-3.7v4.1h3.7v-4.1ZM512.5,434.2v-4.7h-3.7v4.7h3.7ZM522.3,424c0,5.4-.2,9-.4,11.2-.2,1.9-1.7,2.7-5.6,1v-.5c3.8.7,4.2.4,4.4-1,.2-1.6.4-4.8.4-9.9h-4.4c-.5,1.4-1.2,2.9-2.2,4.2l-.5-.3c1.3-2.5,2-5.6,2.4-8.2l1.4.3c-.2,1-.4,2.2-.8,3.3h5.4ZM518,432.1c-.6-1.6-1.5-3.2-2.3-4.6l.4-.3c1.1,1.2,2.4,2.9,3,4.3l-1.2.7Z"/>
        <path class="cls-9" d="M527.3,426.9c0,5.7-.4,8.4-1.9,10.3l-.5-.3c1.1-2.2,1.2-4.1,1.2-9.7v-6h14.2v.7h-13v5ZM534.9,435.8h5.6v.7h-13.3v-.7h2.7v-4.2h1.1v4.2h2.7v-5.3h1.2v2.3h4.2v.7h-4.2v2.3ZM530.7,431.1v-3.2c-.7,1.2-1.6,2.2-2.6,3.1l-.3-.4c.9-1,2-2.5,2.7-4.2h-2.3v-.7h2.6v-1.4c-.8.2-1.6.3-2.4.3v-.5c1.7-.3,3.6-.9,4.7-1.5l.9.9c-.7.2-1.4.4-2.1.6v1.7h2.2v.7h-2.2v.3c.7.5,1.4,1,2.1,1.7l-.7.7c-.4-.6-.9-1.2-1.4-1.7v3.7h-1.1ZM536.3,431.1v-3.7c-.7,1.2-1.8,2.3-3.2,3.2l-.3-.4c1.3-1,2.5-2.4,3.1-3.8h-1.7v-.7h2.1v-1.4c-.7.2-1.5.3-2.3.4v-.5c1.7-.4,3.5-1,4.7-1.7l.8.9c-.6.2-1.3.5-2.1.7v1.7h2.6v.7h-2.4c.7,1.4,2,2.5,3.1,3.2l-.7,1c-.9-.7-1.9-1.9-2.6-3.4v4h-1.1Z"/>
        <path class="cls-9" d="M558.5,436.7c-3,0-6.2-.6-9-2.5-1.4,1.5-3.5,2.4-6.5,3l-.2-.5c2.7-.7,4.6-1.6,5.8-3.1-1.1-.9-2.1-2-2.9-3.3l.4-.3c.9,1.2,1.9,2.2,3,2.9.6-1,1-2.3,1.1-4h-5.5v-5.3h5.6v-3.1h1.3v3.1h5.5v5.3h-5.6c-.2,1.9-.6,3.4-1.4,4.6,2.6,1.4,5.5,1.8,8.8,1.9l-.5,1.5ZM550.4,428.1c0-.3,0-.7,0-1.1v-2.8h-4.3v3.9h4.3ZM551.7,424.2v3.1c0,.3,0,.6,0,.8h4.4v-3.9h-4.3Z"/>
        <path class="cls-9" d="M576.3,437.1c-2.8,0-5.3-.6-7.2-1.5-1.9.9-4.5,1.4-8.3,1.6v-.6c3-.3,5.5-.8,7.2-1.6-1.1-.7-2-1.6-2.7-2.6-1,.9-2.3,1.7-3.6,2.2l-.3-.5c2-1,3.5-2.6,4.5-4.3l1.2.6c-.2.3-.5.6-.7,1h9.2v.7h-2.8c-.6,1.1-1.3,2.1-2.6,3,1.8.5,3.9.8,6.6.9l-.5,1.3ZM562,430.9l-1-.3c.4-.8.8-1.8,1.1-3h.5c0,1.3-.3,2.5-.6,3.3ZM561.5,424.5l-.3-1h.8c.5-.9.9-1.9,1.3-3.1l1,.4c-.6,1.1-1.1,2-1.7,2.7.6,0,1.2,0,1.7-.2.2-.4.5-.8.7-1.2l.9.5c-.7,1.2-1.9,2.6-3.1,3.6.8,0,1.6-.2,2.3-.3-.1-.3-.3-.7-.4-1l.4-.3c.6.7,1.1,1.6,1.4,2.3l-.8.4c0-.3-.2-.6-.3-1-1.3.5-2.8.8-3.9,1l-.2-1.1c.3,0,.5,0,.8,0,.7-.7,1.3-1.5,1.9-2.4-.8.2-1.8.5-2.4.6ZM563.6,427.5c.3.9.7,2,.8,2.8l-1,.2c0-.8-.2-1.9-.3-2.9h.5ZM565.3,429.8c-.3-.8-.6-1.7-.9-2.4l.4-.2c.5.7,1,1.5,1.4,2.3l-.8.4ZM569,434.4c1.1-.7,1.9-1.5,2.4-2.5h-5.6s0,0,0,0c.9,1.1,1.9,1.9,3.2,2.4ZM571.7,422.7h-5.7v-.7h2.6c-.4-.5-.9-1-1.3-1.4l.3-.4c.7.4,1.6.9,2.2,1.4l-.4.4h2.3v.7ZM571,424.3h-4.3v-.6h4.3v.6ZM571,425.7h-4.3v-.6h4.3v.6ZM566.7,429.8v-3.3h4.2v3.3h-4.2ZM567.7,429.2h2.3v-2h-2.3v2ZM571.3,430.4c.4-.8.7-1.6,1-2.8h.5c-.1,1.3-.3,2.3-.6,3.1l-1-.3ZM572.1,423.6c.4-.8.8-1.9,1.2-3.2l1,.4c-.5,1.1-1.1,2-1.7,2.8.6,0,1.2-.1,1.8-.2.3-.4.5-.9.7-1.3l1,.5c-.7,1.2-1.9,2.6-3.1,3.7.8,0,1.6-.1,2.3-.3-.1-.3-.3-.6-.4-.9l.4-.3c.6.7,1.2,1.5,1.5,2.3l-.8.4c-.1-.3-.2-.6-.4-1-1.2.4-2.9.8-3.9.9l-.2-1.1h.8c.7-.7,1.3-1.5,1.8-2.3-.8.3-1.7.5-2.3.6l-.2-1h.6ZM573.9,427.5c.4,1,.7,2,.8,2.8l-1,.2c0-.8-.2-1.9-.3-2.9h.5ZM575.6,429.9c-.3-.8-.6-1.8-1-2.6l.4-.2c.5.6,1.1,1.6,1.4,2.4l-.9.4Z"/>
        <path class="cls-9" d="M595.2,435l-.5,1.4c-2,.1-5.4.2-7.3.1-3.7-.2-4.6-1-5.5-2.5-.8,1.3-1.5,2.3-2.4,3.2l-.8-.9c1-.8,1.8-1.6,2.6-2.6v-4.2h-2.4v-.7h3.6v4.8c.8,1.4,2.6,1.8,5.1,1.8,2.2,0,5.5-.2,7.7-.5ZM579,424.6l.3-.5c1,.5,2.2,1.3,3.1,2.2l-.9,1c-.7-.9-1.7-2-2.6-2.7ZM579.8,421.4l.3-.5c1,.5,2.2,1.3,3.1,2.1l-.9,1c-.8-.9-1.7-1.8-2.5-2.6ZM586.9,422.1h-3.6v-.7h11v.7h-3.9v1.2h2.7v3.1h-4.6c-.1.3-.3.7-.5,1h6.8v.7h-3.9c1.2,1,2.7,1.7,4.1,2l-.6,1.2c-1-.4-2-1-2.8-1.7v2.2h-4.9v.4c0,1,.1,1.1,1.5,1.2.9,0,2.2,0,3.4,0,1.1,0,1-.3,1-2.1h.5c.5,2.4.4,2.9-1.2,3-1.6.1-2.4.1-3.8,0-2.3,0-2.6-.5-2.6-1.9v-2.3c-.8.6-1.6,1.2-2.4,1.5l-.3-.5c1.4-.9,2.6-1.9,3.5-3.2h-3.5v-.7h4c.2-.3.4-.7.5-1h-3v-3.1h2.7v-1.2ZM586.9,424h-1.6v1.7h1.6v-1.7ZM587.6,428.1c-.3.4-.6.8-1,1.2h4.7c-.4-.4-.7-.8-1-1.2h-2.6ZM590.5,429.9h-3.8v1.3h3.8v-1.3ZM588,423.3h1.5v-1.2h-1.5v1.2ZM588,425.7h1.5v-1.7h-1.5v1.7ZM590.5,425.7h1.6v-1.7h-1.6v1.7Z"/>
        <path class="cls-9" d="M602.6,428.8c0-1.2,1-2.2,2.2-2.2s2.2,1,2.2,2.2-1,2.2-2.2,2.2-2.2-1-2.2-2.2ZM606.3,428.8c0-.8-.6-1.5-1.5-1.5s-1.5.6-1.5,1.5.6,1.5,1.5,1.5,1.5-.6,1.5-1.5Z"/>
      </g>
      <line class="cls-4" x1="423.8" y1="332.9" x2="720.3" y2="332.9"/>
    </g>
  </g>
</svg>