<?xml version="1.0" encoding="UTF-8"?>
<svg xmlns="http://www.w3.org/2000/svg" version="1.1" viewBox="0 0 850.4 708.7">
  <defs>
    <style>
      .cls-1 {
        fill: #ddd9d3;
      }

      .cls-2 {
        fill: #54b2a0;
      }

      .cls-3 {
        fill: #8e6b3d;
      }

      .cls-4 {
        fill: #e5bf55;
      }

      .cls-5 {
        fill: #fce47e;
      }

      .cls-6 {
        fill: #fff;
      }

      .cls-7 {
        fill: #9d9d9c;
      }

      .cls-8 {
        stroke: #256045;
      }

      .cls-8, .cls-9 {
        fill: none;
        stroke-miterlimit: 10;
      }

      .cls-10 {
        fill: #b2b2a8;
      }

      .cls-11 {
        fill: #575756;
      }

      .cls-12 {
        fill: #3d7a4c;
      }

      .cls-13 {
        fill: #706f6f;
      }

      .cls-14 {
        fill: #f9f9f9;
      }

      .cls-15 {
        fill: #333f39;
      }

      .cls-16 {
        fill: #ba9d9b;
      }

      .cls-17 {
        fill: #b7605e;
      }

      .cls-18 {
        fill: #7a7a6d;
      }

      .cls-19 {
        fill: #878787;
      }

      .cls-20 {
        fill: #84776b;
      }

      .cls-21 {
        fill: #1d1d1b;
      }

      .cls-22 {
        fill: #2d2d2c;
      }

      .cls-23 {
        fill: #eace5c;
      }

      .cls-24 {
        fill: #c6c6c6;
      }

      .cls-25 {
        fill: #dadada;
      }

      .cls-26 {
        fill: #a57574;
      }

      .cls-27 {
        fill: #ededed;
      }

      .cls-9 {
        stroke: #2d2d2c;
        stroke-linecap: round;
      }

      .cls-28 {
        fill: #f2d85a;
      }
    </style>
  </defs>
  <!-- Generator: Adobe Illustrator 28.7.4, SVG Export Plug-In . SVG Version: 1.2.0 Build 166)  -->
  <g>
    <g id="Layer_1">
      <rect class="cls-1" x="-2611.2" width="3461.6" height="708.7"/>
      <g>
        <g>
          <g>
            <circle class="cls-23" cx="338.3" cy="304.5" r="2.6"/>
            <circle class="cls-23" cx="361.1" cy="298.5" r="1.9"/>
            <circle class="cls-23" cx="345.5" cy="304.5" r="1.4"/>
            <circle class="cls-23" cx="350.8" cy="303.2" r="1.4"/>
            <circle class="cls-23" cx="355.7" cy="301.8" r="1.4"/>
            <circle class="cls-23" cx="183.5" cy="304.5" r="2.7"/>
            <circle class="cls-23" cx="160.6" cy="298.5" r="1.9"/>
            <circle class="cls-23" cx="176.2" cy="304.5" r="1.4"/>
            <circle class="cls-23" cx="171.1" cy="303.2" r="1.4"/>
            <path class="cls-23" d="M166.1,300.5c.7,0,1.4.6,1.4,1.3s-.6,1.3-1.4,1.3-1.3-.6-1.3-1.3.6-1.3,1.3-1.3Z"/>
            <path class="cls-11" d="M260.9,321.2c-60.9,0-98.1-10.8-98.1-10.8,0,0,21,22.5,38,29.1h120.3c16.9-6.6,37.9-29.1,37.9-29.1,0,0-37.4,10.8-98.1,10.8h0Z"/>
            <path class="cls-24" d="M161.8,311s.8.4,2.1,1.1c1.3.6,3.4,1.5,6.1,2.2,1.4.4,2.9.9,4.5,1.3,1.6.3,3.3.9,5.2,1.2,1.9.4,3.9.9,6,1.2,1.1.2,2.1.3,3.3.6,1.1.2,2.2.3,3.4.4,2.2.3,4.8.6,7.2.9,2.6.3,5.1.4,7.8.8s5.4.3,8.2.4c1.4,0,2.9,0,4.2.2h4.4c5.9.3,11.9,0,18,0h59.6c1.5,0,2.9,0,4.2-.2,2.9,0,5.6-.3,8.2-.4,2.7-.2,5.2-.4,7.8-.8s4.9-.4,7.2-.9c1.2-.2,2.2-.3,3.4-.4,1.1-.2,2.2-.4,3.3-.6,2.1-.3,4.1-.8,6-1.2,1.9-.3,3.6-.9,5.2-1.2,1.6-.4,3.1-.9,4.5-1.3,2.7-.9,4.8-1.7,6.1-2.2,1.4-.6,2.1-1.1,2.1-1.1,0,0-.8.6-2.1,1.5s-3.4,2.1-6,3.3c-1.4.6-2.9,1.2-4.4,1.9-1.6.6-3.3,1.3-5.2,1.8-1.8.6-3.9,1.2-6,1.8s-2.1.6-3.3.9c-1.1.3-2.2.4-3.4.8-2.4.6-4.8,1.1-7.4,1.5s-5.1.9-7.8,1.2c-2.7.4-5.4.8-8.2,1.1s-5.7.4-8.7.8c-3,.2-6,.4-9,.4s-6,.2-9.1.2h-37.2c-3,0-6.1,0-9.1-.2-3,0-6-.3-9-.4-1.5,0-2.9-.2-4.4-.3-1.5,0-2.9-.3-4.4-.4-2.9-.3-5.6-.6-8.2-1.1-2.7-.4-5.2-.8-7.8-1.2s-4.9-.9-7.4-1.5c-1.2-.3-2.2-.4-3.4-.8-1.1-.3-2.2-.6-3.3-.9-2.1-.6-4.1-1.2-6-1.8-1.9-.6-3.6-1.2-5.2-1.8-1.6-.8-3-1.2-4.4-1.9-2.7-1.2-4.7-2.4-6-3.3s-2.1-1.5-2.1-1.5h.3Z"/>
            <path class="cls-2" d="M260.9,302.6h-42c-15,8.6-28.8,11.6-64.8-1.9,0,0,6.9,24.3,66.8,24.3h80.1c59.9,0,66.8-24.3,66.8-24.3-36,13.7-49.6,10.5-64.8,1.9h-42"/>
            <polygon class="cls-2" points="300.4 287.6 260.9 287.6 221.5 287.6 213.8 321.5 260.9 321.5 308 321.5 300.4 287.6"/>
            <path class="cls-28" d="M364.7,301.4c-15,11.1-52.6,11.8-65.1,2.7v-2.2c9.4,5.8,46.1,11.2,65.6-3.6l-.4,3.3v-.2Z"/>
            <path class="cls-28" d="M157.1,301.4c15,11.1,52.6,11.8,65.1,2.7v-2.2c-9.4,5.8-46.1,11.2-65.6-3.6l.4,3.3v-.2Z"/>
            <g>
              <polygon class="cls-5" points="302.2 306 302.8 314.1 298.6 314.1 295.4 288.9 295.4 283.8 296.8 283.8 302.2 306"/>
              <polygon class="cls-28" points="302.2 306 302.8 314.1 298.6 314.1 300.1 306 302.2 306"/>
              <polygon class="cls-4" points="295.4 283.8 300.1 306 298.6 314.1 295.4 288.9 295.4 283.8"/>
            </g>
            <g>
              <polygon class="cls-5" points="219.7 306 219.1 314.1 223.1 314.1 226.4 288.9 226.4 283.8 224.9 283.8 219.7 306"/>
              <polygon class="cls-28" points="219.7 306 219.1 314.1 223.1 314.1 221.8 306 219.7 306"/>
              <polygon class="cls-4" points="226.4 283.8 221.8 306 223.1 314.1 226.4 288.9 226.4 283.8"/>
            </g>
            <polygon class="cls-28" points="260.9 283.2 226.1 283.2 226.1 288 260.9 288 295.6 288 295.6 283.2 260.9 283.2"/>
            <polygon class="cls-4" points="260.9 285.2 226.1 285.2 226.1 286.2 260.9 286.2 295.6 286.2 295.6 285.2 260.9 285.2"/>
            <path class="cls-23" d="M291.2,279.8h-3s-3-2.2-3-7.5,1.1-3.6,3-3.6,3.1,1.5,3.1,3-.8,2.2-1.5,2.6c0,0,1.1,2.7,3.3,2.7s0-6.2,2.6-6.2,1.5,2.4,1.5,3.6,1.2,3.4,1.2,5.6-2.2,4.7-2.2,6.8c0,0-1.5-2.2-4.5-2.2s-3-1.8-3-1.8c0,0,2.4.3,2.4-2.7l.2-.2Z"/>
            <path class="cls-23" d="M230.5,279.8h3s3-2.2,3-7.5-1.1-3.6-3-3.6-3.1,1.5-3.1,3,.8,2.2,1.5,2.6c0,0-1.1,2.7-3.3,2.7s0-6.2-2.6-6.2-1.5,2.4-1.5,3.6-1.2,3.4-1.2,5.6,2.2,4.7,2.2,6.8c0,0,1.5-2.2,4.5-2.2s3-1.8,3-1.8c0,0-2.4.3-2.4-2.7l-.2-.2Z"/>
          </g>
          <g>
            <rect class="cls-20" x="197.9" y="333.5" width="126" height="47.1"/>
            <rect class="cls-22" x="250.6" y="346.2" width="20.7" height="34.3"/>
            <rect class="cls-17" x="281.5" y="337.7" width="4.5" height="37.5"/>
            <rect class="cls-15" x="281.5" y="329.9" width="4.5" height="7.8"/>
            <g>
              <rect class="cls-17" x="301.7" y="337.7" width="4.5" height="37.5"/>
              <rect class="cls-15" x="301.7" y="329.9" width="4.5" height="7.8"/>
            </g>
            <g>
              <rect class="cls-17" x="321.8" y="337.7" width="4.5" height="37.5"/>
              <rect class="cls-15" x="321.8" y="329.9" width="4.5" height="7.8"/>
            </g>
            <g>
              <rect class="cls-25" x="306.2" y="329.9" width="15.6" height="7.8"/>
              <g>
                <polygon class="cls-8" points="311.2 337.7 316.6 337.7 319.6 333.8 316.6 330 311.2 330 308.2 333.8 311.2 337.7"/>
                <polygon class="cls-3" points="315.5 335.6 316.9 333.8 315.5 332.1 312.2 332.1 310.9 333.8 312.2 335.6 315.5 335.6"/>
              </g>
            </g>
            <polygon class="cls-16" points="315.1 337.7 319 337.7 321.8 337.7 321.8 340.7 321.8 343.2 319 343.2 319 340.7 315.1 340.7 315.1 337.7"/>
            <polygon class="cls-16" points="312.7 337.7 308.8 337.7 306.4 337.7 306.4 343.2 308.8 343.2 308.8 340.7 312.7 340.7 312.7 337.7"/>
            <g>
              <rect class="cls-25" x="286.3" y="329.9" width="15.6" height="7.8"/>
              <g>
                <polygon class="cls-8" points="291.2 337.7 296.5 337.7 299.5 333.8 296.5 330 291.2 330 288.2 333.8 291.2 337.7"/>
                <polygon class="cls-3" points="295.6 335.6 296.9 333.8 295.6 332.1 292.3 332.1 290.9 333.8 292.3 335.6 295.6 335.6"/>
              </g>
            </g>
            <polygon class="cls-16" points="295.1 337.7 298.9 337.7 301.9 337.7 301.9 340.7 301.9 343.2 298.9 343.2 298.9 340.7 295.1 340.7 295.1 337.7"/>
            <polygon class="cls-16" points="292.6 337.7 288.8 337.7 286.1 337.7 286.1 343.2 288.8 343.2 288.8 340.7 292.6 340.7 292.6 337.7"/>
            <rect class="cls-17" x="235.9" y="337.7" width="4.5" height="37.5"/>
            <rect class="cls-15" x="235.9" y="330" width="4.5" height="7.8"/>
            <g>
              <rect class="cls-17" x="215.5" y="337.7" width="4.5" height="37.5"/>
              <rect class="cls-15" x="215.5" y="330" width="4.5" height="7.8"/>
            </g>
            <g>
              <rect class="cls-17" x="195.4" y="337.7" width="4.5" height="37.5"/>
              <rect class="cls-15" x="195.4" y="330" width="4.5" height="7.8"/>
            </g>
            <g>
              <rect class="cls-25" x="199.9" y="330" width="15.6" height="7.8"/>
              <g>
                <polygon class="cls-8" points="210.5 337.7 205.3 337.7 202.3 333.8 205.3 330 210.5 330 213.5 333.8 210.5 337.7"/>
                <polygon class="cls-3" points="206.2 335.6 204.8 333.8 206.2 332.1 209.5 332.1 210.8 333.8 209.5 335.6 206.2 335.6"/>
              </g>
            </g>
            <polygon class="cls-16" points="206.6 337.7 202.9 337.7 199.9 337.7 199.9 340.7 199.9 343.2 202.9 343.2 202.9 340.7 206.6 340.7 206.6 337.7"/>
            <polygon class="cls-16" points="209.2 337.7 212.9 337.7 215.5 337.7 215.5 343.2 212.9 343.2 212.9 340.7 209.2 340.7 209.2 337.7"/>
            <g>
              <rect class="cls-25" x="220" y="330" width="15.6" height="7.8"/>
              <g>
                <polygon class="cls-8" points="230.6 337.7 225.2 337.7 222.2 333.8 225.2 330 230.6 330 233.6 333.8 230.6 337.7"/>
                <polygon class="cls-3" points="226.3 335.6 224.9 333.8 226.3 332.1 229.6 332.1 230.9 333.8 229.6 335.6 226.3 335.6"/>
              </g>
            </g>
            <polygon class="cls-16" points="226.7 337.7 222.8 337.7 220 337.7 220 340.7 220 343.2 222.8 343.2 222.8 340.7 226.7 340.7 226.7 337.7"/>
            <polygon class="cls-16" points="229.1 337.7 233 337.7 235.6 337.7 235.6 343.2 233 343.2 233 340.7 229.1 340.7 229.1 337.7"/>
            <g>
              <rect class="cls-25" x="240.4" y="330" width="41.1" height="7.8"/>
              <polygon class="cls-8" points="274.1 337.7 247.7 337.7 244.7 333.8 247.7 330 274.1 330 277.1 333.8 274.1 337.7"/>
              <polygon class="cls-8" points="268.1 337.7 253.7 337.7 250.7 333.8 253.7 330 268.1 330 271.1 333.8 268.1 337.7"/>
              <polygon class="cls-3" points="254.8 335.6 253.4 333.8 254.8 332.1 267.1 332.1 268.4 333.8 267.1 335.6 254.8 335.6"/>
            </g>
            <polygon class="cls-16" points="247.1 337.7 243.2 337.7 240.4 337.7 240.4 340.7 240.4 343.2 243.2 343.2 243.2 340.7 247.1 340.7 247.1 337.7"/>
            <polygon class="cls-16" points="274.7 337.7 278.5 337.7 281.5 337.7 281.5 340.7 281.5 343.2 278.5 343.2 278.5 340.7 274.7 340.7 274.7 337.7"/>
          </g>
          <g>
            <rect class="cls-6" x="262.7" y="369.5" width="60.8" height="5.8"/>
            <path class="cls-6" d="M326.3,363.8h-2.9v11.4h17.9v-17.1h-12.1v2.8h-2.9v2.8ZM331.9,363.8h5.7v2.8h-5.7v-2.8Z"/>
            <path class="cls-6" d="M300.2,363.8v11.4h19.8v-11.4h-2.9v-2.8h-2.9v-2.8h-8.4v2.8h-2.9v2.8h-2.9,0ZM307.3,363.8h5.6v2.8h-5.6v-2.8Z"/>
            <path class="cls-6" d="M275.8,363.8v11.4h19.8v-11.4h-2.9v-2.8h-2.9v-2.8h-8.4v2.8h-2.9v2.8h-2.9,0ZM282.8,363.8h5.6v2.8h-5.6v-2.8Z"/>
          </g>
          <g>
            <rect class="cls-6" x="198.4" y="369.3" width="60.8" height="5.8"/>
            <path class="cls-6" d="M195.5,360.9h-2.9v-2.8h-12.1v17.1h17.9v-11.4h-2.9v-2.8ZM189.8,366.6h-5.7v-2.8h5.7v2.8Z"/>
            <path class="cls-6" d="M218.8,363.8v-2.8h-2.9v-2.8h-8.4v2.8h-2.9v2.8h-2.9v11.4h19.8v-11.4h-2.9,0ZM214.4,366.6h-5.6v-2.8h5.6v2.8Z"/>
            <path class="cls-6" d="M243.2,363.8v-2.8h-2.9v-2.8h-8.4v2.8h-2.9v2.8h-2.9v11.4h19.8v-11.4h-2.9,0ZM239,366.6h-5.6v-2.8h5.6v2.8Z"/>
          </g>
          <g>
            <rect class="cls-10" x="180.1" y="381" width="161.6" height="62.4"/>
            <rect class="cls-18" x="180.1" y="381" width="161.6" height="4.7"/>
            <rect class="cls-14" x="176.9" y="375.2" width="167.9" height="5.8"/>
            <path class="cls-13" d="M260.9,389c-14.6,0-26.4,11.8-26.4,26.4v28.1h52.6v-28.1c0-14.6-11.9-26.4-26.4-26.4h.1Z"/>
            <path class="cls-22" d="M260.9,394.1c-11.7,0-21.3,9.4-21.3,21.3v28.1h42.4v-28.1c0-11.7-9.4-21.3-21.3-21.3h.2Z"/>
            <path class="cls-12" d="M291.1,443.4h13.1c2.9-2.1,4.8-3.9,4.8-7.8,0-6.3-3.8-10.7-11.4-10.7s-11.4,4.3-11.4,10.7,1.9,5.7,4.8,7.8h.1Z"/>
            <path class="cls-12" d="M230.6,443.4h-13.1c-2.9-2.1-4.8-3.9-4.8-7.8,0-6.3,3.8-10.7,11.4-10.7s11.4,4.3,11.4,10.7-1.9,5.7-4.8,7.8h-.1Z"/>
          </g>
          <g>
            <rect class="cls-6" x="240.8" y="356.9" width="40.2" height="18.6"/>
            <rect class="cls-26" x="242" y="358.1" width="37.6" height="14.7"/>
            <rect class="cls-27" x="245.9" y="361.1" width="30" height="8.8"/>
          </g>
          <g>
            <rect class="cls-7" x="225.1" y="430.2" width="71.2" height="3.3"/>
            <rect class="cls-19" x="234.4" y="426.8" width="52.8" height="3.3"/>
            <rect class="cls-13" x="226.7" y="433.5" width="67.9" height="3.3"/>
            <rect class="cls-19" x="224.9" y="437" width="71.7" height="6.4"/>
            <g>
              <path class="cls-12" d="M252.7,424.1c0,2.8-4.4,3.4-9.6,3.4s-9.6-.8-9.6-3.4,2.7-9.3,9.6-9.3,9.6,6.4,9.6,9.3Z"/>
              <path class="cls-12" d="M259.7,424.1c0,2.8-4.4,3.4-9.6,3.4s-9.6-.8-9.6-3.4,2.7-9.3,9.6-9.3,9.6,6.4,9.6,9.3Z"/>
              <path class="cls-12" d="M266.8,424.1c0,2.8-4.4,3.4-9.6,3.4s-9.6-.8-9.6-3.4,2.7-9.3,9.6-9.3,9.6,6.4,9.6,9.3Z"/>
              <path class="cls-12" d="M274,424.1c0,2.8-4.4,3.4-9.6,3.4s-9.6-.8-9.6-3.4,2.7-9.3,9.6-9.3,9.6,6.4,9.6,9.3Z"/>
              <path class="cls-12" d="M281,424.1c0,2.8-4.4,3.4-9.6,3.4s-9.6-.8-9.6-3.4,2.7-9.3,9.6-9.3,9.6,6.4,9.6,9.3Z"/>
              <path class="cls-12" d="M288.1,424.1c0,2.8-4.4,3.4-9.6,3.4s-9.6-.8-9.6-3.4,2.7-9.3,9.6-9.3,9.6,6.4,9.6,9.3Z"/>
            </g>
          </g>
        </g>
        <line class="cls-9" x1="180.2" y1="465.5" x2="341.6" y2="465.5"/>
      </g>
      <g>
        <path class="cls-21" d="M478.9,308.2v3.1h-42.2v-3.1h18v-3.4h-14.5v-3h14.5v-3.1h-12.8v-15.6h12.8v-2.9h-17v-3h17v-2.7c-5.1.2-9.9.2-13.6.1l-.3-2.6c9.5-.4,20.7-1.9,29.2-4.3l4.7,4.8c-3.7.8-8.6,1.3-13.7,1.6v3.1h17.5v3h-17.5v2.9h12.9v15.6h-12.9v3.1h14.6v3h-14.6v3.4h18ZM454.6,286.1h-6.8v3.3h6.8v-3.3ZM454.6,292.3h-6.8v3.5h6.8v-3.5ZM460.8,286.1v3.3h6.9v-3.3h-6.9ZM467.7,292.3h-6.9v3.5h6.9v-3.5Z"/>
        <path class="cls-21" d="M496.5,300.6l2.4,1c-.8,4.6-2.9,9.2-5.2,12l-4.9-4.4c2.8-2.2,6-5,7.7-8.5ZM497,300.4h-5.5v-30.4h20.6v2.8h-4.9v5.5h3.7v11.2h-3.6v5.6h5.9v2.8h-16.2v2.4ZM497,272.8v22.4h5.2v-5.6h-3.7v-11.2h3.6v-5.5h-5.1ZM504.6,300.4c1.9,3,4.3,8.4,5,11.4l-6.1,1.4c-.2-3.4-.9-8.7-1.4-12l2.4-.7ZM502.7,287h3.6v-6.2h-3.6v6.2ZM514,299.9c2.5,2.6,5.9,7.5,7.2,10.5l-5.9,2.3c-.7-3.4-2.3-8.4-3.5-11.7l2.2-1.2ZM513.4,291.8v-21.7h15.9v14.5h-10.3v5.4c0,2.4.3,2.8,2.4,2.9,1.8,0,3.1,0,5.1,0,2-.1,2.3-.7,2.2-6.2h2.4c2.4,8.9.8,10.9-3.5,11.3-3.1.3-5.3.2-8.2,0-4.8-.3-5.9-1.1-5.9-6.1ZM519,281.7h4.9v-8.8h-4.9v8.8ZM532.4,309.3l-5.5,3.5c-1.1-3.2-3.2-8.1-4.9-11.5l2-1.4c3,2.4,6.7,6.6,8.4,9.4Z"/>
        <path class="cls-21" d="M544.5,270.2h17.3v17.8h-11.3v24.6h-6v-42.4ZM556.1,277.5v-4.4h-5.6v4.4h5.6ZM556.1,285.1v-4.7h-5.6v4.7h5.6ZM568.8,307.6c6.6,1.2,7.6.6,7.6-2.4v-17.2h-11.3v-17.8h17.2v36.5c0,6.9-5.7,8.1-14.2,3.4l.6-2.4ZM576.5,277.5v-4.4h-5.5v4.4h5.5ZM576.5,285.1v-4.7h-5.5v4.7h5.5Z"/>
      </g>
      <g>
        <path class="cls-19" d="M435.2,239.7c2.5-3.8,4.3-8.7,5.2-13.6l3.2.9c-1.6,4.9-4.1,9.9-7.5,13.3l-.8-.7ZM441.1,243.2c5,.6,5.7.4,5.7-1.5v-22h2.7v22.7c0,3.2-2.3,4.6-8.6,1.8l.2-1ZM452.1,226.6l.9-.6c2.8,3.3,6.1,8.4,7.7,12l-3.2,1.5c-1.3-3.7-3.4-9.1-5.4-12.8Z"/>
        <path class="cls-19" d="M477.1,224.5v3.1h9.5v15.2c0,2.8-3,3.4-6.9,1.3l.3-1c3.7.7,4.1.5,4.1-1.1v-13.2h-16.3v16.7h-2.5v-17.9h9.2v-3.1h-10.9v-1.3h10.9v-3.6h2.6v3.6h11.1v1.3h-11.1ZM483.3,239h-6.2v5.6h-2.5v-5.6h-6v-1.3h6v-2.7h-5.7v-1.3h3.8c-.7-1.4-1.5-2.9-2.3-4l.8-.7c1.3,1,2.7,2.3,3.8,3.7l-1.3,1h3.2c.7-1.2,1.5-3.2,2-4.8l2.5,1.3c-1.1,1.5-2.3,2.7-3.2,3.5h4.8v1.3h-5.8v2.7h6.2v1.3Z"/>
        <path class="cls-19" d="M493,220.7h9.7v10.2h-7.1v14.5h-2.5v-24.7ZM500.2,225.1v-3.1h-4.7v3.1h4.7ZM500.2,229.7v-3.4h-4.7v3.4h4.7ZM507.2,242.8c4.2,1,5.1.6,5.1-1.3v-10.6h-7.1v-10.2h9.6v21.5c0,3.4-2.5,4.8-8,1.6l.3-1ZM512.3,225.1v-3.1h-4.6v3.1h4.6ZM512.3,229.7v-3.4h-4.6v3.4h4.6Z"/>
      </g>
      <g>
        <path class="cls-19" d="M451,370.4l-.5,1.4c-1.6.1-3.8.2-5.5,0-3.5-.2-5.7-1-7.2-2.4-.7,1.2-1.7,2.2-2.9,3l-.3-.5c1-.8,1.9-1.9,2.7-3.3-.8-1-1.2-2.4-1.6-4h.5c.4,1.2.8,2.3,1.4,3.2.6-1.4,1-3.1,1.2-5.1h-1.9c-.3.5-.5.9-.7,1.2l-1-.4c.9-1.6,2.2-4,2.9-5.9h-3.2v-.7h4.7c-.5,1.4-1.5,3.5-2.4,5.1h1.4l.3-.3,1.1.4c-.2,2.3-.7,4.6-1.8,6.5,1.4,1.4,3.5,1.9,6.5,2,1.8,0,4.1,0,6.1-.3ZM444.3,360.3h-4.2v-.7h4.2v-1.6h-3.3v-.7h3.3v-1.7h1.2v1.7h3.6v2.3h1.7v.7h-1.7v2.4h-3.6v1.5h3.9v.7h-3.9v1.7h4.7v.7h-4.7v2.5h-1.2v-2.5h-4.1v-.7h4.1v-1.7h-3.5v-.7h3.5v-1.5h-3.4v-.7h3.4v-1.7ZM445.4,359.6h2.5v-1.6h-2.5v1.6ZM445.4,362h2.5v-1.7h-2.5v1.7Z"/>
        <path class="cls-19" d="M469.4,363l-1,1.2c-1.5-1.7-2.9-4-3.7-6.4-1,2.6-2.7,5.2-4.3,6.5l-.2-.2c0,2.4-.2,4.9-.3,6.2-.2,1.8-1.7,2.1-4.5,1l.2-.6c2.7.5,3.1.4,3.2-.9.1-1.5.3-4.6.3-6.6h-2.6c-.2,4.8-.9,7.1-3,9.1l-.4-.4c1.9-2.7,2.2-4.9,2.2-11.9h-2.2v-.7h4.4c-.6-1.1-1.5-2.5-2.1-3.3l.4-.4c1,.8,2.3,2.2,2.9,3.1l-.7.6h3.4v.7h-4.8c0,.9,0,1.7,0,2.5h3.8c0,.4,0,.7,0,1.1,1.6-1.9,3.3-5.3,3.8-8.1l1.3.4c0,.3-.2.6-.3,1,1,2.4,2.6,4.6,4.4,6.1ZM461.8,367c1.6.8,4.4,2.6,6.1,4.1l-.9,1.1c-1.6-1.6-4-3.5-5.5-4.6l.3-.5ZM466.3,366.5c-.9-1-2.6-2.6-3.6-3.4l.3-.5c1.2.6,3,1.8,4.2,2.8l-.9,1Z"/>
        <path class="cls-19" d="M474.8,359.1l-3,1.3v-1.1l3.4-1.3h1v12.9h-1.3v-11.8h0Z"/>
        <path class="cls-19" d="M483.4,364.2h0c-1.5-.7-2.3-1.7-2.4-2.8,0-2.1,1.8-3.5,4-3.5s3.7,1.6,3.7,3.2c0,1.3-.9,2.4-2.4,3h0c1.7.7,2.8,1.8,2.8,3.4,0,2.3-1.7,3.7-4.3,3.7s-4.3-1.5-4.3-3.5,1.1-2.7,2.8-3.5ZM484.9,370.2c1.6,0,2.9-1.1,2.9-2.6s-1.3-2.6-3.1-3c-1.6.4-2.8,1.4-2.8,2.8,0,1.6,1.3,2.7,2.9,2.7ZM487.4,361.3c0-1.4-1-2.4-2.5-2.4s-2.5,1-2.5,2.4c0,1.3,1.1,2.1,2.7,2.5,1.3-.4,2.3-1.3,2.3-2.5Z"/>
        <path class="cls-19" d="M494.3,364.2h0c-1.5-.7-2.3-1.7-2.4-2.8,0-2.1,1.8-3.5,4-3.5s3.7,1.6,3.7,3.2c0,1.3-.9,2.4-2.4,3h0c1.7.7,2.8,1.8,2.8,3.4,0,2.3-1.7,3.7-4.3,3.7s-4.3-1.5-4.3-3.5,1.1-2.7,2.8-3.5ZM495.8,370.2c1.6,0,2.9-1.1,2.9-2.6s-1.3-2.6-3.1-3c-1.6.4-2.8,1.4-2.8,2.8,0,1.6,1.3,2.7,2.9,2.7ZM498.3,361.3c0-1.4-1-2.4-2.5-2.4s-2.5,1-2.5,2.4c0,1.3,1.1,2.1,2.7,2.5,1.3-.4,2.3-1.3,2.3-2.5Z"/>
        <path class="cls-19" d="M511.2,367.4h-1.9v3.5h-1.3v-3.5h-6.3v-.9l6-8.3h1.6v8.3h1.9v.9ZM508,366.5v-5c0-.7,0-1.4,0-2h0c-.4.7-.8,1.4-1.2,1.9l-3.7,5h0c0,.1,4.9.1,4.9.1Z"/>
        <path class="cls-19" d="M529.1,366.5v.8h-6.5v5.1h-1.3v-5.1h-8.4v-.8h3.2v-4.8h5.1v-2.9h-4.3c-.9,1.5-1.9,2.9-3,4l-.4-.4c1.5-1.8,2.6-4.4,3.3-7l1.4.5c-.2.7-.6,1.5-.9,2.2h11.2v.8h-6v2.9h5.1v.7h-5.1v4h6.5ZM521.3,362.5h-3.9v4h3.9v-4Z"/>
        <path class="cls-19" d="M531.1,368.7c1.7-2.3,2.9-5.5,3.6-8.8l1.5.4c-1,3.3-2.6,6.5-4.6,8.7l-.5-.4ZM534.7,371c3.6.4,4,.3,4-.9v-14.5h1.3v14.9c0,1.7-1,2.5-5.4,1v-.6ZM542.1,360.1l.5-.3c1.7,2.1,3.9,5.8,4.9,7.9l-1.5.7c-.8-2.2-2.5-6-3.9-8.3Z"/>
        <path class="cls-19" d="M558,358.8v2.1h6.2v9.8c0,1.8-2,1.9-4.3.8v-.5c2.5.4,3.2.4,3.1-.7v-8.8h-11v10.8h-1.2v-11.5h6v-2.1h-7.3v-.7h7.3v-2.4h1.2v2.4h7.4v.7h-7.4ZM562.2,368.1h-4.2v3.7h-1.2v-3.7h-4.1v-.7h4.1v-1.9h-3.9v-.7h2.6c-.4-.9-1.1-1.9-1.6-2.7l.4-.3c.8.6,1.7,1.6,2.3,2.5l-.8.5h2.2c.5-.7,1.1-2,1.4-3l1.2.6c-.7,1-1.4,1.9-1.9,2.4h3.2v.7h-4v1.9h4.2v.7Z"/>
        <path class="cls-19" d="M568.7,356.5h6v6.4h-4.8v9.4h-1.2v-15.8ZM573.5,359.3v-2.1h-3.5v2.1h3.5ZM573.5,362.2v-2.2h-3.5v2.2h3.5ZM577.7,370.9c3.2.6,3.7.3,3.7-.8v-7.1h-4.8v-6.4h6v13.9c0,2-1.4,2.6-5.1,1v-.5ZM581.4,359.3v-2.1h-3.5v2.1h3.5ZM581.4,362.2v-2.2h-3.5v2.2h3.5Z"/>
        <path class="cls-19" d="M592.4,367.2c1.4-.7,2.2-1.9,2.2-3.2-.2.2-.6.3-.8.3-.7,0-1.2-.5-1.2-1.3,0-.8.5-1.3,1.3-1.3.9,0,1.6.5,1.7,1.6.1,1.8-.8,3.7-2.8,4.3l-.3-.4Z"/>
        <path class="cls-19" d="M611.7,363.1v9.3h-1.2v-3.1c-1.5.6-3.9,1.3-5.7,1.6l-.4-1.3c.5,0,1,0,1.6-.2v-6.4h-1.9v-.7h15.8v.7h-8.3ZM617.2,361.1h-10.2v-4.6h10.2v4.6ZM610.5,363.1h-3.3v1.4h3.3v-1.4ZM610.5,365.2h-3.3v1.5h3.3v-1.5ZM610.5,368.7v-1.3h-3.3v1.9c1.2-.2,2.5-.4,3.3-.6ZM608.1,357.2v1.2h7.9v-1.2h-7.9ZM616,360.4v-1.2h-7.9v1.2h7.9ZM619.4,372.2c-1.3-.5-2.6-1.2-3.7-2.3-1,1-2.2,1.8-3.6,2.4l-.3-.5c1.3-.8,2.4-1.6,3.2-2.6-.9-1.1-1.6-2.5-2.1-4.3h-.9v-.7h5l.4-.3,1.2.5c-.4,1.7-1.2,3.2-2.3,4.6,1,.8,2.2,1.3,3.7,1.8l-.7,1.3ZM615.7,368.5c.8-1.1,1.3-2.3,1.5-3.5h-3.6c.5,1.5,1.2,2.6,2.1,3.5Z"/>
        <path class="cls-19" d="M626.4,364.5v7.9h-1.2v-7.4c-.9.9-1.8,1.7-2.9,2.4l-.3-.5c2.7-2.1,4.2-4.4,4.9-6.8h-4.3v-.7h4.2l.5-.3,1.2.6c-.5,1.4-1.2,2.7-2,3.9v.3c.3.2.7.4,1,.7.5-.7,1.1-1.7,1.5-2.5l1.1.6c-.5.7-1.4,1.6-2.1,2.2.7.5,1.4,1.1,1.9,1.6l-.9.9c-.6-.8-1.6-1.9-2.5-2.8ZM625.5,359c-.5-1.1-1.1-2.3-1.7-3.2l.4-.3c.8.7,1.8,2,2.4,2.9l-1.1.6ZM637.6,357.5c-.1,6.2-.3,10.7-.7,12.8-.3,1.9-1.8,2.8-5.6.8l.2-.6c3.5.9,3.9.8,4.2-.9.2-1.4.5-6.4.6-11.5h-3.5c0,7.1-.7,11.1-5,14.3l-.4-.5c3.5-3.1,4.2-6.5,4.2-13.8h-2.8v-.7h8.9Z"/>
        <path class="cls-19" d="M656.7,370.3l-.5,1.5c-1.2.1-3.7.1-5,0-3.2-.2-5.6-1.4-6.7-4-.7,2.1-2.1,3.8-3.8,4.7l-.3-.5c2-1.5,3-3.8,3.3-6.8h1.4c0,.7-.2,1.3-.3,1.8.8,1.6,1.9,2.5,3.3,3v-5.7h-7.3v-.8h15.5v.8h-6.9v2.3h5.4v.7h-5.4v3c.6,0,1.3.1,2,.1,1.9,0,3.7,0,5.3-.3ZM653.6,362.2h-9.8v-5.7h9.8v5.7ZM652.4,357.3h-7.4v1.7h7.4v-1.7ZM652.4,359.7h-7.4v1.8h7.4v-1.8Z"/>
        <path class="cls-19" d="M674.3,365.2c-.1,2-.4,4.9-.8,6-.5,1.5-2.2,1.5-4.9,0l.2-.5c2.8.7,3.4.6,3.6-.4.2-.7.4-2.4.6-4.4h-10.1c-1.2,1.7-2.6,3.1-4.2,4.1l-.3-.5c2.8-2.2,5-5.8,6.3-9.6h-5.2v-.7h5.4c.4-1.2.7-2.5.9-3.8l1.3.3c-.2,1.2-.6,2.3-1,3.5h4.4c-.2,1-.3,2-.6,3h2.3c-.1,1-.3,2-.5,3h2.4ZM662.6,367.4h.5c-.2,1.6-.8,3.4-1.6,4.6l-1.2-.8c1-1,1.7-2.3,2.2-3.7ZM662.6,359c-.6-1-1.2-2-2-3l.4-.4c1,.7,2,1.6,2.6,2.5l-1.1.8ZM663.4,365.2h7.3c.1-.7.3-1.5.4-2.3h-6.4c-.4.8-.8,1.5-1.3,2.3ZM665,367.4c.4,1.1.7,2.8.9,3.9h-1.3c0-.9,0-2.5,0-3.8h.5ZM666,360c-.3.8-.6,1.5-1,2.3h3.9c.1-.7.3-1.5.4-2.3h-3.3ZM668.9,370.2l-1.2.4c-.1-1-.5-2.3-.8-3.4l.5-.2c.6.9,1.1,2.2,1.5,3.2ZM671.6,369.1l-1.1.6c-.4-1.1-.8-2.2-1.3-3l.5-.3c.7.7,1.5,1.8,2,2.8Z"/>
        <path class="cls-19" d="M685.9,361.5v9c0,1.9-1.4,2.6-5.8,1v-.6c3.8.6,4.5.5,4.5-.8v-9.4l1.1.2c1.6-1,2.7-1.9,3.8-3.1h-11.3v-.8h11.3l.6-.3,1.3,1c-1.4,1.5-3.6,2.9-5.6,3.7Z"/>
        <path class="cls-19" d="M702.1,360.3c0,1,0,1.9-.1,2.9h6.9c-.1,3.9-.3,5.9-.6,7.3-.4,2.1-2.2,2.5-5.9.8l.2-.6c3.3.7,4.1.6,4.4-.7.1-1,.4-3,.5-6h-5.6c-.5,3.6-1.9,6.8-6.4,8.6l-.3-.5c4.7-2.5,5.5-6.3,5.5-11.7h-5.1v-.8h8.1c-.6-1-1.6-2.6-2.4-3.6l.4-.4c1,.8,2.4,2.2,3.2,3.2l-1,.9h7.1v.8h-8.9Z"/>
        <path class="cls-19" d="M716.9,359.9v12.4h-1.2v-9.8c-.6,1.2-1.4,2.2-2.2,3l-.4-.4c1.7-2.5,2.9-5.7,3.5-9.6l1.3.3c-.3,1.4-.6,2.8-1.1,4ZM729,372.2c-1.9-.2-4.4-.7-6.7-2.1-1,1.1-2.4,1.9-4.4,2.5l-.2-.5c1.8-.7,3-1.5,3.8-2.6-.9-.7-1.8-1.6-2.5-2.6l.4-.4c.7.9,1.6,1.6,2.6,2.2.4-.8.6-1.6.8-2.6h-3.9v-6.4h4v-1.9h-4.5v-.7h10.6v.7h-4.8v1.9h4v6.4h-4.2c-.2,1.3-.5,2.3-1,3.2,1.9.9,4.1,1.4,6.6,1.5l-.6,1.4ZM720,362.3h2.9v-2.1h-2.9v2.1ZM722.8,365.3c0-.6,0-1.2,0-1.9v-.3h-2.9v2.3h2.8ZM727,363h-2.9v.4c0,.7,0,1.3,0,1.9h2.9v-2.3ZM724.1,360.3v2.1h2.9v-2.1h-2.9Z"/>
        <path class="cls-19" d="M438.9,383.8v10.2h-1.2v-9.3c-.6,1.8-1.7,3.9-2.8,5.2l-.4-.4c1-1.6,2.4-4.7,3-7.6h-2.6v-.7h2.8v-3.9h1.2v3.9h2.3v.7h-2.3v.9c.9,1.1,1.9,2.5,2.3,3.5l-1.1.5c-.3-1-.8-2.1-1.3-3ZM450.9,392.6l-.8,1.3c-1.6-.7-3-1.7-4-3.1-1.2,1.4-2.8,2.5-4.9,3.3l-.3-.5c1.9-.9,3.4-2.1,4.6-3.7-1-1.7-1.6-3.9-1.9-6.6h-.8v1.2c0,3.6-.4,6.9-3.1,9.5l-.4-.4c1.5-1.9,2.2-4.9,2.2-8.8v-6l1.1.3c2-.3,4.2-1,5.8-1.8l1.2,1.1c-1.9.7-4.6,1.1-6.9,1.3v3h5l.4-.3,1.3.5c-.5,2.8-1.3,5.2-2.6,7,1,1.2,2.4,2,4,2.7ZM446.2,388.9c.9-1.5,1.5-3.4,1.9-5.7h-3.8c.4,2.4,1,4.2,2,5.7Z"/>
        <path class="cls-19" d="M457,383.3c.7.8,1.5,1.6,2.2,2.7l-.9.6c-.4-.8-.9-1.6-1.3-2.3v9.6h-1.1v-8.8c-.6,1.8-1.5,3.6-2.3,4.8l-.4-.3c.9-1.7,2-4.4,2.6-7.7h-2.3v-.7h2.4v-3.8h1.1v3.8h1.9v.7h-1.9v1.5ZM469.7,383.7l-.6,1.2c-.9-.4-1.7-.9-2.5-1.6v2.3h-5.3v-2.2c-.7.5-1.5,1-2.5,1.4l-.3-.5c1.7-.9,2.8-1.9,3.7-3.2h-3.1v-.7h3.5c.2-.4.4-.8.5-1.3-1.3.2-2.6.3-3.7.4v-.5c2.5-.3,5.7-1,7.6-1.8l1,.9c-1,.3-2.2.6-3.5.8-.1.5-.4,1-.6,1.5h5.2v.7h-3.6c1.3,1.5,2.8,2.1,4.2,2.6ZM459.4,386.4h9.3v6.1c0,1.8-1.5,1.9-4.1,1v-.5c2.5.3,3,.2,3-.8v-5.1h-7v6.9h-1.2v-7.6ZM465.2,391.1h-2.6v1h-1v-4.1h4.6v3.9h-1v-.8ZM462.2,382.6h3.7c-.4-.4-.7-.9-1-1.4h-1.5c-.3.5-.7,1-1.2,1.4ZM465.5,383.2h-3.3v1.6h3.3v-1.6ZM465.2,390.4v-1.7h-2.6v1.7h2.6Z"/>
        <path class="cls-19" d="M478.1,387.8l.2.5c-1.6,1.2-4.3,2.5-6.1,3.3l-.5-1.3c.7-.2,1.7-.5,2.8-1v-6.3h-2.6v-.7h2.6v-4.5h1.2v4.5h2.4v.7h-2.4v5.8c.8-.4,1.7-.7,2.4-1.1ZM486.1,393.4c-1.6.1-3.2.1-4.7,0-2.1-.2-2.4-.7-2.4-2.4v-6.6c-.7.3-1.3.5-2,.7l-.2-.7c.7-.3,1.5-.5,2.2-.8v-4.5h1.2v4.1c.7-.3,1.4-.6,2.2-.8v-5h1.1v4.6c.7-.3,1.4-.6,2-.8l.3-.4,1.3.4c-.3,2.4-1,5.6-1.5,7.3h-.5c.3-1.8.6-4.9.7-6.6-.7.3-1.5.6-2.2.9v6.9h-1.1v-6.4c-.7.3-1.4.6-2.2.8v6.9c0,1.1.4,1.3,1.6,1.4,1.5.1,2.6.1,4.2,0,1,0,1.2-.5,1.2-4.5h.6c.6,4.8.4,5.5-1.6,5.7Z"/>
        <path class="cls-19" d="M506.3,392.6c-.8.5-1.7.7-3.3.8-2.2,0-5.4,0-7.8,0-2.8-.1-3.4-.3-3.4-3v-11.2h-1.2v-.8h15.2v.8h-12.7v11.2c0,1.5.1,1.8,2.1,1.9,2.4.1,5.6.1,7.9,0,1.3,0,2-.2,2.7-.6l.5,1ZM494.4,385.7h4.6v4.9h-4.6v-4.9ZM495.6,389.8h2.3v-3.5h-2.3v3.5ZM502.8,384.2h-6.6v-3.8h6.6v3.8ZM501.7,381.1h-4.2v2.4h4.2v-2.4ZM505,390.5h-4.7v-4.9h4.7v4.9ZM503.8,386.4h-2.4v3.5h2.4v-3.5Z"/>
        <path class="cls-19" d="M512.7,380.8h3.3v12.6h-1.2v-1.7h-3.7v2h-1.2v-13h2.1c.3-1.1.5-2.5.6-3.6l1.4.3c-.4,1.1-.9,2.4-1.4,3.3ZM514.8,381.5h-3.7v4.1h3.7v-4.1ZM514.8,391v-4.7h-3.7v4.7h3.7ZM524.5,380.8c0,5.4-.2,9-.4,11.2-.2,1.9-1.7,2.7-5.6,1v-.5c3.8.7,4.2.4,4.4-1,.2-1.6.4-4.8.4-9.9h-4.4c-.5,1.4-1.2,2.9-2.2,4.2l-.5-.3c1.3-2.5,2-5.6,2.4-8.2l1.4.3c-.2,1-.4,2.2-.8,3.3h5.4ZM520.3,388.9c-.6-1.6-1.5-3.2-2.3-4.6l.5-.3c1.1,1.2,2.4,2.9,3,4.3l-1.2.7Z"/>
        <path class="cls-19" d="M537.8,385.3v2.6h4.2v5.9h-1.2v-1.2h-7.3v1.3h-1.2v-6h4.2v-2.6h-5.1v-.7h5.1v-2.5h-5.7v1.7c0,4.6-.3,7.8-2.7,10.3l-.4-.4c2-2.6,1.9-6.2,1.9-10.4v-5.1h12.6v3.9h-4.5v2.5h5.6v.7h-5.6ZM530.8,381.4h10.2v-2.5h-10.2v2.5ZM533.5,388.6v3.3h7.3v-3.3h-7.3Z"/>
        <path class="cls-19" d="M560.1,393.8c-2.5-.5-4.5-3.5-5.6-7.4h-5v5.3c1.8-.3,3.7-.8,5.1-1.2l.2.5c-2.1,1-6.1,2.3-8.1,2.7l-.4-1.5c.6,0,1.3-.2,2-.3v-13.8h11.9v4.6h-5.2c.1,1,.3,2,.6,2.9h6.1v.7h-5.9c1,3.2,2.7,5.6,4.4,6,.7.2.8-.2.8-3.7h.5c.7,3.4.7,5.5-1.4,5ZM549.5,382.1h9.4v-3.2h-9.4v3.2ZM554.3,385.7c-.2-.9-.4-1.9-.5-2.9h-4.3v2.9h4.8Z"/>
        <path class="cls-19" d="M579.4,386.4v7.5h-1.2v-1.7h-10.7v1.7h-1.2v-7.6h1.2v5.1h4.7v-6.7h-5.1v-6h1.2v5.3h3.9v-6.8h1.3v6.8h4v-5.3h1.2v6h-5.2v6.7h4.8v-5.1h1.2Z"/>
        <path class="cls-19" d="M591.1,379.3h-5v-.8h6c0,6.4,2.7,11.3,7.5,14l-1.1,1.5c-3.2-2-5.9-5.6-6.7-10.9-.8,4.1-3.8,8.7-8.4,10.9l-.3-.5c4.3-2.6,7.4-7.4,7.9-14.1Z"/>
        <path class="cls-19" d="M610.4,379.2c-.4,1-1,2.3-1.5,3.2h7.9v9.9c0,1.7-1.4,1.8-3.9.8v-.5c2.5.3,2.7,0,2.7-.7v-8.8h-3.1v10.1h-1.2v-10.1h-2.8v10.2h-1.2v-10.2h-2.9v10.7h-1.2v-11.4h5.1c.3-.9.5-2.2.7-3.2h-6.9v-.8h15.8v.8h-7.4Z"/>
        <path class="cls-19" d="M627.5,381.2h-7.1v-.7h3.4c-.5-1-1.2-2.3-1.6-3l.4-.3c.7.6,1.8,1.9,2.3,2.9l-.7.5h3.3v.7ZM621.2,383.7v-.6h5.5v.6h-5.5ZM626.6,386.2h-5.5v-.6h5.5v.6ZM626.7,392.6h-4.2v1.2h-1.2v-5.7h5.4v4.5ZM625.6,388.8h-3.1v3.1h3.1v-3.1ZM636.1,393.9c-1.9-.6-3.4-1.5-4.5-2.6-1.3,1.2-2.9,2.2-5.1,2.8l-.2-.5c2-.8,3.5-1.8,4.6-3-1.1-1.3-1.9-2.8-2.3-4.4h-1.1v-.7h5.7l.4-.3,1.3.6c-.5,1.6-1.3,3.3-2.6,4.8,1.4,1,3,1.6,4.5,2l-.7,1.4ZM626.9,384.6c1.7-1.2,2-1.9,2-4.7v-1.5h4.7v3.8c0,.7.1.9.9.9s1.1,0,1.5-.5l.6.9c-.4.5-1,.7-2.2.7s-1.9-.4-1.9-1.9v-3.2h-2.3v.8c0,2.8-.6,4.1-2.9,5.2l-.3-.5ZM631.6,389.8c.9-1.2,1.5-2.5,1.8-3.7h-4.1c.5,1.6,1.3,2.8,2.3,3.7Z"/>
        <path class="cls-19" d="M654.8,392.2v.8h-15.6v-.8h9.4c.7-2.2,1.5-5.9,1.9-9.1l1.5.3c-.6,2.9-1.8,6.6-2.7,8.8h5.6ZM654.1,382h-14.2v-.8h6.9c-.4-1.1-1.2-2.8-1.7-3.8l.5-.3c1,1,2,2.5,2.6,3.7l-.9.5h6.8v.8ZM642,383.4l.6-.2c1.2,2.2,2.2,5.5,2.7,7.8l-1.5.3c-.3-2.5-1-5.6-1.8-8Z"/>
        <path class="cls-19" d="M663.4,385.6c0-1.2,1-2.2,2.2-2.2s2.2,1,2.2,2.2-1,2.2-2.2,2.2-2.2-1-2.2-2.2ZM667.1,385.6c0-.8-.6-1.5-1.5-1.5s-1.5.6-1.5,1.5.6,1.5,1.5,1.5,1.5-.6,1.5-1.5Z"/>
        <path class="cls-19" d="M692.3,391.9v.7h-6.3v1.4h-1.2v-10.6c-.3.6-.7,1.1-1.1,1.6l-.3-.3v4.4h-1.1v-.6h-1.6v3.1c.6,0,1.2-.2,1.7-.3-.2-.6-.5-1.3-.7-1.7l.5-.3c.9,1.1,1.6,2.6,2.1,3.8l-1.1.5c-.1-.5-.3-1.1-.5-1.7-1.9.6-4.8,1.2-6.3,1.3l-.3-1.3c1,0,2.2-.1,3.5-.2v-3.2h-1.6v1h-1.1v-5.7h2.8v-1.7h-2.3v-4h5.8v4h-2.3v1.7h2.7v.6c1-1.8,1.6-3.9,2.1-7.1l1.2.3c-.3,1.3-.6,2.4-.9,3.5h6.3v.7h-2.9v2.6h2.5v.7h-2.5v2.9h2.5v.7h-2.5v3.2h3ZM679.5,387.8v-3.3h-1.6v3.3h1.6ZM681.9,381.4v-2.7h-3.5v2.7h3.5ZM682.3,387.8v-3.3h-1.6v3.3h1.6ZM688.1,381.8h-2.1v2.6h2.1v-2.6ZM688.1,385.1h-2.1v2.9h2.1v-2.9ZM688.1,388.7h-2.1v3.2h2.1v-3.2ZM688.6,380.7c-.2-.8-.7-2.3-1.1-3.3l.5-.3c.6.8,1.4,2.3,1.7,3.1l-1.1.5Z"/>
        <path class="cls-19" d="M705.7,382.6c-.6,3.4-2.3,5.5-5.7,6.9l-.2-.5c2.9-1.5,4.2-3.2,4.8-6.4h-2.5c-1.1,3.3-3.2,5.7-6.7,7.3l-.3-.5c3.4-1.8,5.7-4.8,6.2-9.1h-2.7c-.1.3-.3.7-.5,1,.7.4,1.5,1,2.1,1.6l-.8.8c-.4-.6-1.1-1.3-1.6-1.9-.3.6-.6,1.1-1,1.6.7.5,1.5,1.1,2.1,1.7l-.9.8c-.4-.7-1.1-1.5-1.6-2.1-.4.5-.9,1-1.4,1.5l-.4-.4c1.8-2.1,2.9-4.9,3.3-7.7l1.3.3c-.1.7-.3,1.4-.5,2h2.3l.4-.3,1.2.5c-.1.8-.2,1.5-.4,2.1h2.4c.2-1.3.2-2.8.3-4.6h1.2c0,1.7,0,3.2-.3,4.6h4.3v.7h-3.8c.6,2.4,2.4,4.4,4.7,5.7l-.9,1.3c-2.6-1.6-3.9-4.4-4.3-7h-.2ZM697.6,389.6l.5.2c-.3,1.6-1.3,3.4-2.2,4.3l-1.1-.9c1-.8,2.2-2.3,2.8-3.6ZM700.5,389.8c.7,1.1,1.3,2.6,1.7,3.8l-1.3.4c-.2-1.2-.5-2.7-.9-4l.5-.2ZM704.1,389.5c.9,1.1,1.8,2.6,2.4,3.7l-1.3.6c-.4-1.2-1-2.8-1.6-4.1l.5-.3ZM708.1,381.2c-.3-.9-.9-2.4-1.3-3.2l.5-.3c.6.7,1.5,2.1,2,3l-1.1.6ZM707.9,389.4c1,1,2.2,2.5,2.8,3.7l-1.2.7c-.5-1.2-1.3-2.8-2-4.1l.4-.3Z"/>
        <path class="cls-19" d="M729.3,380.5v.8h-9.7c-.6,1.3-1.4,2.6-2.2,3.6v9.1h-1.3v-7.5c-.9,1-1.9,1.9-2.8,2.5l-.3-.5c1.5-1.2,3.6-3.8,5.2-7.2h-4.6v-.8h5c.4-1,.8-2.1,1.1-3.3l1.4.4c-.3,1-.6,2-1,2.9h9.3ZM724.1,392.3h4.9v.8h-10.7v-.8h4.6v-5.3h-3.9v-.7h3.9v-3.9h1.3v3.9h3.9v.7h-3.9v5.3Z"/>
        <path class="cls-19" d="M438.4,402.3l-3,1.3v-1.1l3.4-1.3h1v12.9h-1.3v-11.8h0Z"/>
        <path class="cls-19" d="M450.9,407.7h0c-.4.9-1.5,1.9-3,1.9-2.2,0-3.8-1.7-3.8-3.9,0-2.5,1.8-4.5,4.3-4.5s4.1,1.8,4.1,5.1-2.1,7.3-7.4,7.9v-.7c4.2-.7,5.7-3.2,5.9-5.8ZM450.8,406.5c0-.2.1-.7.1-1,0-2.1-1.1-3.6-2.8-3.5-1.5,0-2.7,1.5-2.7,3.5,0,1.7,1.1,3,2.8,3,1.1,0,2-.7,2.6-2Z"/>
        <path class="cls-19" d="M459.4,414.2c-2.9,0-4.4-2.3-4.4-5.7,0-4.2,2.6-7,7.3-7.5v.7c-3.9.5-6,3-6,6.3h0c.4-1,1.4-2.4,3.3-2.4,2.4,0,3.8,2.1,3.8,4.2s-1.4,4.2-4.2,4.2ZM459.4,406.7c-1.5,0-2.9,1.6-2.8,3.5,0,2.1,1.3,3.2,2.9,3.2s2.6-1.2,2.6-3.2-1-3.5-2.7-3.5Z"/>
        <path class="cls-19" d="M470.4,414.2c-2.9,0-4.4-2.3-4.4-5.7,0-4.2,2.6-7,7.3-7.5v.7c-3.9.5-6,3-6,6.3h0c.4-1,1.4-2.4,3.3-2.4,2.4,0,3.8,2.1,3.8,4.2s-1.4,4.2-4.2,4.2ZM470.4,406.7c-1.5,0-2.9,1.6-2.8,3.5,0,2.1,1.3,3.2,2.9,3.2s2.6-1.2,2.6-3.2-1-3.5-2.7-3.5Z"/>
        <path class="cls-19" d="M493,409.7v.8h-6.5v5.1h-1.3v-5.1h-8.4v-.8h3.2v-4.8h5.1v-2.9h-4.3c-.9,1.5-1.9,2.9-3,4l-.4-.4c1.5-1.8,2.6-4.4,3.3-7l1.4.5c-.2.7-.6,1.5-.9,2.2h11.2v.8h-6v2.9h5.1v.7h-5.1v4h6.5ZM485.2,405.7h-3.9v4h3.9v-4Z"/>
        <path class="cls-19" d="M511.3,413.4l-.5,1.4c-1.9.1-5.3.2-7.2,0-3.7-.2-4.7-.9-5.6-2.4-.8,1.4-1.5,2.3-2.3,3.2l-.8-.8c.8-.7,1.7-1.5,2.5-2.6v-4.1h-2.3v-.7h3.5v4.8c1.1,1.5,2,1.7,5.1,1.8,2.3,0,5.5-.2,7.6-.5ZM495.4,402.9l.3-.5c1,.5,2.3,1.4,3.2,2.3l-.9,1c-.7-.8-1.7-2-2.6-2.8ZM496.3,399.4l.3-.5c.9.5,2.2,1.3,3.2,2.1l-.9,1c-.8-.9-1.7-1.8-2.6-2.6ZM499.2,406.1c1.3-1.9,2.6-4.9,3-7.3l1.3.4c-.2.9-.6,1.9-1,2.9h3.6c-.4-1-.9-2-1.4-2.9l.5-.3c.7.7,1.5,1.7,2.1,2.7l-.8.5h3.9v.7h-3.5v2.2h3.1v.7h-3.1v2.2h3.1v.7h-3.1v2.5h3.8v.7h-8.3v1.1h-1.2v-8.4c-.5.8-1.1,1.6-1.6,2.1l-.4-.4ZM505.7,402.7h-3.3v2.2h3.3v-2.2ZM505.7,405.6h-3.3v2.2h3.3v-2.2ZM505.7,408.5h-3.3v2.5h3.3v-2.5Z"/>
        <path class="cls-19" d="M519.4,403c-.4.9-1.2,2-2,3.1v9.6h-1.2v-8.3c-1,1-2,1.9-3,2.5l-.3-.5c2.2-1.7,4.2-4.5,5.4-7.1l1.2.6ZM513.7,404.7l-.3-.5c1.7-1.4,3.3-3.5,4.2-5.5l1.2.6c-1.2,2.1-3.3,4.2-5,5.3ZM529.3,405.4h-3.4v8.4c0,1.8-1,2.4-5,1.1v-.6c3.2.5,3.8.3,3.8-.8v-8.2h-4.7v-.7h9.4v.7ZM528.5,401h-7.5v-.7h7.5v.7Z"/>
        <path class="cls-19" d="M540.4,404.7v9c0,1.9-1.4,2.6-5.8,1v-.6c3.8.6,4.5.5,4.5-.8v-9.4l1.1.2c1.6-1,2.7-1.9,3.8-3.1h-11.3v-.8h11.3l.6-.3,1.3,1c-1.4,1.5-3.6,2.9-5.6,3.7Z"/>
        <path class="cls-19" d="M557.7,410.9c-2,1.4-5.5,3.1-7.5,3.8l-.5-1.4c.4-.1.9-.3,1.5-.4v-7.5h4.3v-4.2h-5.4v-.7h6.6v6.8h-1.2v-1.1h-3.1v6.3c1.8-.6,3.8-1.5,5.1-2.1l.3.5ZM565.9,414l-.8,1.4c-1.8-.9-3.1-2.1-4.2-3.5-1.2,1.5-2.9,2.8-5.3,3.7l-.3-.5c2.1-1.1,3.8-2.5,5-4.3-.8-1.5-1.3-3.2-1.6-5.2-.5,1.1-1,2.1-1.7,2.8l-.4-.4c1.5-2.3,2.2-6,2.5-9.2l1.3.3c-.1,1.1-.4,2.4-.8,3.7h5.8v.7h-1.8c0,2.6-.6,5.1-2,7.3,1,1.3,2.5,2.2,4.3,3ZM560.8,409.9c.9-1.8,1.4-3.9,1.5-6.3h-2.9c0,.3-.2.6-.3.9.3,2.1.8,3.9,1.7,5.4Z"/>
        <path class="cls-19" d="M584,413.6l-.5,1.4c-1.6.1-3.8.2-5.5,0-3.5-.2-5.7-1-7.2-2.4-.7,1.2-1.7,2.2-2.9,3l-.3-.5c1-.8,1.9-1.9,2.7-3.3-.8-1-1.2-2.4-1.6-4h.5c.4,1.2.8,2.3,1.4,3.2.6-1.4,1-3.1,1.2-5.1h-1.9c-.3.5-.5.9-.7,1.2l-1-.4c.9-1.6,2.2-4,2.9-5.9h-3.2v-.7h4.7c-.5,1.4-1.5,3.5-2.4,5.1h1.4l.3-.3,1.1.4c-.2,2.3-.7,4.6-1.8,6.5,1.4,1.4,3.5,1.9,6.5,2,1.8,0,4.1,0,6.1-.3ZM577.3,403.5h-4.2v-.7h4.2v-1.6h-3.3v-.7h3.3v-1.7h1.2v1.7h3.6v2.3h1.7v.7h-1.7v2.4h-3.6v1.5h3.9v.7h-3.9v1.7h4.7v.7h-4.7v2.5h-1.2v-2.5h-4.1v-.7h4.1v-1.7h-3.5v-.7h3.5v-1.5h-3.4v-.7h3.4v-1.7ZM578.4,402.8h2.5v-1.6h-2.5v1.6ZM578.4,405.2h2.5v-1.7h-2.5v1.7Z"/>
        <path class="cls-19" d="M592.6,410.4c1.4-.7,2.2-1.9,2.2-3.2-.2.2-.6.3-.8.3-.7,0-1.2-.5-1.2-1.3,0-.8.5-1.3,1.3-1.3.9,0,1.6.5,1.7,1.6.1,1.8-.8,3.7-2.8,4.3l-.3-.4Z"/>
        <path class="cls-19" d="M607.7,403.2v12.4h-1.2v-9.9c-.7,1.2-1.4,2.1-2.2,2.9l-.4-.4c1.6-2,2.9-5.1,3.8-9.3l1.3.3c-.3,1.5-.8,2.9-1.3,4.1ZM620.2,413.9v.8h-11.7v-.8h11.7ZM611.3,412h-1.2v-11.5h8.4v11.5h-1.2v-1.4h-6v1.4ZM611.3,405.1h6v-3.9h-6v3.9ZM611.3,409.9h6v-4.2h-6v4.2Z"/>
        <path class="cls-19" d="M637.6,401.6v3.7h-1.2v-3h-12.2v3.1h-1.2v-3.8h7.9c-.8-.8-2-1.7-2.9-2.4l.3-.5c1,.4,2.8,1.3,3.6,1.9l-.7,1h6.4ZM636.9,410.1c.6,3.7.5,4.6-1.7,4.7-2.3.1-4.5.1-6.9,0-1.5,0-2.4-.3-2.4-2.3v-8.5h1.3v5.1c3.1-1.2,5.3-2.5,6.8-3.6l1.2,1c-1.9,1.1-4.7,2.4-7.9,3.2v2.4c0,1.3.5,1.5,1.8,1.5,2,0,3.9,0,5.9,0,1.4,0,1.4-.4,1.4-3.6h.5Z"/>
        <path class="cls-19" d="M644.2,403v12.5h-1.2v-10.2c-.7,1.2-1.5,2.2-2.2,3l-.4-.4c1.5-2,2.9-4.9,3.8-9.1l1.3.4c-.3,1.4-.8,2.7-1.3,3.9ZM656.2,405.2c-.3,3.8-.6,6.7-1,8.1-.6,2.3-2.8,2.3-5.5.5l.2-.5c3.1,1,3.8.8,4.2-.6.3-1.1.6-3.6.8-6.8h-2.2l-.3,1.4h-1.2c.4-1.8.8-4.3,1.2-6.3h-3c0,6.8-.4,11.8-3.9,14.7l-.4-.4c2.5-2.8,3.1-6.8,3.1-14.3h-2.2v-.7h7.8c-.2,1.4-.5,3.2-.8,4.9h3.3Z"/>
        <path class="cls-19" d="M666.2,405.7h-7.5v-.7h3.2v-1.5h-2.4v-.7h2.4v-1.4h-2.9v-.7h2.9v-1.9h1.2v1.9h2.8v.7h-2.8v1.4h2.4v.7h-2.4v1.5h3.1v.7ZM659.6,406.9h5.7v7.4c0,1.4-1.4,1.7-3.4.7v-.5c1.9.3,2.3.2,2.3-.6v-1.9h-3.4v3.6h-1.2v-8.6ZM660.7,407.6v1.5h3.4v-1.5h-3.4ZM664.2,411.3v-1.5h-3.4v1.5h3.4ZM675.1,407.1v.7h-1.3v3.7h-1.1v-1.1h-2v3.8c0,1.3-1.1,1.8-3.8.6v-.5c2.2.4,2.6.4,2.6-.6v-3.3h-2.8v-.7h2.8v-1.9h-3.3v-.7h3.3v-1.7h-2.7v-.7h7v2.4h1.3ZM666.3,400.8v-.6c2.4-.2,5-.7,6.7-1.5l1.1,1c-2.3.6-5.3,1-7.8,1.1ZM666.7,401.4l.4-.2c.5.7,1.2,1.9,1.5,2.8l-1,.4c-.2-.9-.6-2.2-1-3ZM668.9,401.1l.4-.2c.5.7,1.1,2,1.4,2.9l-1,.3c-.2-.9-.6-2.3-.8-3.1ZM670.6,407.1h2v-1.7h-2v1.7ZM672.6,409.7v-1.9h-2v1.9h2ZM671.4,404.1c.4-.9.9-2.3,1.2-3.5l1.2.4c-.6,1.2-1.3,2.5-1.9,3.3l-.5-.2Z"/>
        <path class="cls-19" d="M684.4,405.7h-7.5v-.7h3.2v-1.5h-2.4v-.7h2.4v-1.4h-2.9v-.7h2.9v-1.9h1.2v1.9h2.8v.7h-2.8v1.4h2.4v.7h-2.4v1.5h3.1v.7ZM677.8,406.9h5.7v7.4c0,1.4-1.4,1.7-3.4.7v-.5c1.9.3,2.3.2,2.3-.6v-1.9h-3.4v3.6h-1.2v-8.6ZM678.9,407.6v1.5h3.4v-1.5h-3.4ZM682.4,411.3v-1.5h-3.4v1.5h3.4ZM693.3,407.1v.7h-1.3v3.7h-1.1v-1.1h-2v3.8c0,1.3-1.1,1.8-3.8.6v-.5c2.2.4,2.6.4,2.6-.6v-3.3h-2.8v-.7h2.8v-1.9h-3.3v-.7h3.3v-1.7h-2.7v-.7h7v2.4h1.3ZM684.5,400.8v-.6c2.4-.2,5-.7,6.7-1.5l1.1,1c-2.3.6-5.3,1-7.8,1.1ZM684.9,401.4l.4-.2c.5.7,1.2,1.9,1.5,2.8l-1,.4c-.2-.9-.6-2.2-1-3ZM687.1,401.1l.4-.2c.5.7,1.1,2,1.4,2.9l-1,.3c-.2-.9-.6-2.3-.8-3.1ZM688.8,407.1h2v-1.7h-2v1.7ZM690.8,409.7v-1.9h-2v1.9h2ZM689.6,404.1c.4-.9.9-2.3,1.2-3.5l1.2.4c-.6,1.2-1.3,2.5-1.9,3.3l-.5-.2Z"/>
        <path class="cls-19" d="M701.3,409.4l.2.5c-1.6,1.2-4.3,2.5-6.1,3.3l-.5-1.3c.7-.2,1.7-.5,2.8-1v-6.3h-2.6v-.7h2.6v-4.5h1.2v4.5h2.4v.7h-2.4v5.8c.8-.4,1.7-.7,2.4-1.1ZM709.3,415c-1.6.1-3.2.1-4.7,0-2.1-.2-2.4-.7-2.4-2.4v-6.6c-.7.3-1.3.5-2,.7l-.2-.7c.7-.3,1.5-.5,2.2-.8v-4.5h1.2v4.1c.7-.3,1.4-.6,2.2-.8v-5h1.1v4.6c.7-.3,1.4-.6,2-.8l.3-.4,1.3.4c-.3,2.4-1,5.6-1.5,7.3h-.5c.3-1.8.6-4.9.7-6.6-.7.3-1.5.6-2.2.9v6.9h-1.1v-6.4c-.7.3-1.4.6-2.2.8v6.9c0,1.1.4,1.3,1.6,1.4,1.5.1,2.6.1,4.2,0,1,0,1.2-.5,1.2-4.5h.6c.6,4.8.4,5.5-1.6,5.7Z"/>
        <path class="cls-19" d="M718.3,407.7h2.9v.6h-3v.8c-.1,0,2.3,0,2.3,0v5.1h.6v.6h-7.9v-.6h1.5v-5.1h2.3c0-.3,0-.6,0-.8h-3.3v-.6h3.3c0-.4,0-.7,0-1h1.1c0,0-.1,1-.1,1ZM729,406.5h-15.2v-.6h2.7v-4.6h4.1v-.9c.1,0-6.1,0-6.1,0v-.6h6.3v-1c.1,0,1.2,0,1.2,0,0,.3,0,.6-.1.9h6.3v.6h-6.4c0,.3,0,.6-.1.9h4.5v4.6h2.8v.6ZM719.4,409.8h-3.6v.7h3.6v-.7ZM719.4,411h-3.6v.7h3.6v-.7ZM719.4,412.3h-3.6v.7h3.6v-.7ZM719.4,413.5h-3.6v.8h3.6v-.8ZM725.1,401.9h-7.4v.6h7.4v-.6ZM725.1,403h-7.4v.6h7.4v-.6ZM725.1,404.1h-7.4v.6h7.4v-.6ZM725.1,405.2h-7.4v.6h7.4v-.6ZM729.5,414.3v.6h-8v-.6h.7v-5.1h2.3c0-.3,0-.6,0-.8h-3v-.6h3c0-.4,0-.7,0-1h1.1c0,0-.1,1-.1,1h3.2v.6h-3.3c0,.3,0,.6-.1.8h2.5v5.1h1.5ZM726.9,409.8h-3.7v.7h3.7v-.7ZM726.9,411h-3.7v.7h3.7v-.7ZM726.9,412.3h-3.7v.7h3.7v-.7ZM726.9,413.5h-3.7v.8h3.7v-.8Z"/>
        <path class="cls-19" d="M450.6,435.4v.8h-15.6v-.8h9.4c.7-2.2,1.5-5.9,1.9-9.1l1.5.3c-.6,2.9-1.8,6.6-2.7,8.8h5.6ZM449.9,425.2h-14.2v-.8h6.9c-.4-1.1-1.2-2.8-1.7-3.8l.5-.3c1,1,2,2.5,2.6,3.7l-.9.5h6.8v.8ZM437.7,426.6l.6-.2c1.2,2.2,2.2,5.5,2.7,7.8l-1.5.3c-.3-2.5-1-5.6-1.8-8Z"/>
        <path class="cls-19" d="M468.8,423.7v.8h-9.7c-.6,1.3-1.4,2.6-2.2,3.6v9.1h-1.3v-7.5c-.9,1-1.9,1.9-2.8,2.5l-.3-.5c1.5-1.2,3.6-3.8,5.2-7.2h-4.6v-.8h5c.4-1,.8-2.1,1.1-3.3l1.4.4c-.3,1-.6,2-1,2.9h9.3ZM463.6,435.5h4.9v.8h-10.7v-.8h4.6v-5.3h-3.9v-.7h3.9v-3.9h1.3v3.9h3.9v.7h-3.9v5.3Z"/>
        <path class="cls-19" d="M471.4,421.5h7.7v13.5c0,2-1.8,2.2-4.6.8l.2-.5c2.7.6,3.2.5,3.2-.7v-4.2h-2.8c-.4,2.6-1.5,5-4,6.9l-.4-.4c1.7-1.8,2.8-3.6,3.2-6.5h-2.3v-.7h2.4c0-1,.1-2,.1-3.2v-.3h-2.5v-.7h2.5v-3.3h-2.8v-.7ZM477.9,429.7v-3.5h-2.5c0,1.2,0,2.4-.2,3.5h2.7ZM477.9,422.2h-2.5v3.3h2.5v-3.3ZM482.8,433.6l.2-.5c2.1.5,2.7.2,2.4-1.7-.2-1.5-1-2.9-1.9-4.3.6-1.4,1.2-3.4,1.5-4.9h-3v15h-1.2v-16.1l1.2.4h2.9l.4-.3,1.2.5c-.7,2.2-1.5,3.9-2.2,5.3,1.3,1.6,2.3,2.9,2.5,4.5.4,2.9-1.7,3.2-3.8,2Z"/>
        <path class="cls-19" d="M492.8,429.6v7.6h-1.2v-7.3c-.8.9-1.7,1.6-2.7,2.2l-.3-.5c2.4-1.9,3.9-4.4,4.6-6.6h-4.1v-.7h4l.5-.3,1.1.6c-.5,1.4-1.2,2.6-1.9,3.7v.4c.2.1.3.3.5.4.5-.6,1-1.3,1.3-2l.9.7c-.6.6-1.2,1.3-1.8,1.7.6.6,1.3,1.2,1.8,1.9l-.9.7c-.5-.8-1.1-1.7-1.8-2.5ZM491.9,424c-.4-1.1-1-2.3-1.5-3.4l.5-.3c.7.8,1.6,2.1,2.1,3.1l-1.1.6ZM504.8,435.8v.7h-10.8v-.7h4.9v-2.8h-3.6v-.7h3.6v-2.7h-2.1v1.1h-1.2v-9h7.8v8.9h-1.2v-1h-2.2v2.7h3.8v.7h-3.8v2.8h4.7ZM498.9,422.4h-2.1v2.9h2.1v-2.9ZM498.9,425.9h-2.1v3h2.1v-3ZM500.1,425.3h2.2v-2.9h-2.2v2.9ZM500.1,428.9h2.2v-3h-2.2v3Z"/>
        <path class="cls-19" d="M513.4,432c1.4-.7,2.2-1.9,2.2-3.2-.2.2-.6.3-.8.3-.7,0-1.2-.5-1.2-1.3,0-.8.5-1.3,1.3-1.3.9,0,1.6.5,1.7,1.6.1,1.8-.8,3.7-2.8,4.3l-.3-.4Z"/>
        <path class="cls-19" d="M525,436.4c.9-.7,2.1-1.7,2.8-2.7v-4.1h-2.7v-.7h3.9v4.7c1,1.6,2.1,1.8,4.8,1.8,2.3,0,5.1-.1,7.2-.4l-.4,1.4c-1.9.2-5.3.2-6.9.1-3.1-.1-4-.6-5.3-2.5-.8,1.3-1.8,2.4-2.7,3.3l-.8-.8ZM525.2,424.5l.3-.5c.9.5,2.2,1.4,3.2,2.3l-.9.9c-.7-.9-1.8-2-2.6-2.8ZM526.3,420.8l.3-.5c.9.5,2.2,1.3,3.2,2.2l-.9.9c-.8-.9-1.7-1.9-2.6-2.7ZM534.2,425h-4.3v-.7h4.3v-3.8h1.2v3.8h5v.7h-5v9.6h-1.2v-9.6ZM530.2,433.5c1.3-1.6,1.4-3.3,1.4-7.4h1.2c0,4.1-.3,6-2.1,7.7l-.4-.4ZM536.3,421.2l.3-.4c.9.6,2.1,1.5,2.8,2.2l-.9.9c-.6-.8-1.6-1.9-2.3-2.7ZM537,431v-4.9h1.2v4.8c0,.8.1,1,1,1,.5,0,.8-.1,1.2-.5l.6.9c-.4.5-.9.7-1.9.7-1.7,0-2-.6-2-2Z"/>
        <path class="cls-19" d="M549.4,424.4h-6.8v-.7h3.3c-.5-1-1.3-2.3-1.8-3l.4-.4c.8.6,1.9,1.8,2.6,2.7l-.8.7h3.1v.7ZM543.3,426.9v-.7h5.4v.7h-5.4ZM548.7,429.3h-5.4v-.7h5.4v.7ZM548.7,435.7h-4.1v1.3h-1.1v-5.9h5.3v4.6ZM547.6,431.8h-3v3.3h3v-3.3ZM557.9,436.6c-.6,0-1.7,0-2.3,0-1.1-.1-1.4-.6-1.4-1.8v-5.1h-1.5c0,4.4-1.9,6.7-4.5,7.7l-.3-.5c2.3-1.2,3.5-3,3.6-7.2h-1.7v-5h4.5c.4-1.1,1-3,1.4-4.3l1.3.4c-.5,1.3-1.3,2.9-2,3.9h2.4v5h-2v5c0,.6.2.8.6.8.4,0,1,0,1.4,0,.7,0,.7-.3.7-3.2h.5c.5,2.9.5,4.2-.8,4.3ZM551.7,424.5c-.4-1.3-1.1-2.8-1.5-3.8l.5-.3c.7.8,1.7,2.4,2.2,3.6l-1.1.5ZM551,429h5.3v-3.5h-5.3v3.5Z"/>
        <path class="cls-19" d="M571.6,428.3h5v.7h-6.1c-1.1.6-2.3,1.2-3.5,1.7h7.3v6.5h-1.2v-1h-6.9v1h-1.2v-5.8c-1.5.5-3,.9-4.3,1.1v-.6c2.4-.6,5.2-1.6,7.8-3h-7.4v-.7h6.4v-2h-4.4v-.7h4.4v-1.8h1.2v1.8h3.8v.5c.5-.5,1-1,1.4-1.6l1.1.7c-1,1.2-2.2,2.3-3.5,3.2ZM576.7,422.2v.7h-4.5v1.5h-1.2v-1.5h-4.8v1.6h-1.2v-1.6h-4.2v-.7h4.2v-1.7h1.2v1.7h4.8v-1.7h1.2v1.7h4.5ZM573.1,431.4h-6.9v1.6h6.9v-1.6ZM573.1,433.7h-6.9v1.8h6.9v-1.8ZM569.7,428.3c.9-.6,1.8-1.3,2.6-2h-3.5v2h.9Z"/>
        <path class="cls-19" d="M595.1,435.1l-.5,1.4c-2,.1-5.1.2-7.1.1-3.6-.2-4.7-.8-5.5-2.4-.8,1.3-1.5,2.2-2.3,3.1l-.8-.8c.8-.7,1.8-1.5,2.5-2.5v-4.3h-2.4v-.7h3.6v4.9c1.1,1.4,2.1,1.6,5.1,1.7,2.3,0,5.3,0,7.4-.4ZM579.1,424.5l.3-.5c1,.5,2.3,1.4,3.2,2.3l-.9,1c-.7-.9-1.8-2.1-2.6-2.8ZM580,420.9l.3-.5c1,.5,2.2,1.3,3.2,2.2l-.9,1c-.8-.9-1.8-1.9-2.6-2.7ZM585.3,434.4h-1.1v-8.1h1.5v-4.8h6.8v4.8h1.5v6.7c0,1.2-.9,2-3.6.8v-.5c2.2.4,2.4.2,2.4-.6v-5.7h-7.5v7.3ZM590.3,432.4v-.8h-2.6v1.1h-1v-4.4h4.7v4.1h-1ZM586.7,426.3h1.6v-2.7h3v-1.4h-4.6v4.1ZM590.3,430.8v-1.9h-2.6v1.9h2.6ZM591.4,426.3v-2h-2v2h2Z"/>
        <path class="cls-19" d="M600.6,428.4v8.7h-1.2v-7.3c-.8.8-1.5,1.4-2.4,1.9l-.3-.5c1.6-1.4,3.5-3.9,4.6-6.4l1.2.6c-.5,1-1.1,2-1.9,2.9ZM597.2,426.4l-.3-.4c1.4-1.2,2.9-3.4,3.9-5.4l1.2.7c-1.1,1.8-3.3,4.2-4.8,5.2ZM612.8,435.8v.7h-11.3v-.7h5v-5.5h-3.9v-.7h3.9v-4.6h-4.4v-.7h4.9c-.6-1.1-1.4-2.5-2.1-3.5l.4-.4c.9.8,2.1,2,2.8,3.1l-1,.8h5v.7h-4.4v4.6h3.9v.7h-3.9v5.5h5.1Z"/>
        <path class="cls-19" d="M618.4,424h3.3v12.6h-1.2v-1.7h-3.7v2h-1.2v-13h2.1c.3-1.1.5-2.5.6-3.6l1.4.3c-.4,1.1-.9,2.4-1.4,3.3ZM620.5,424.7h-3.7v4.1h3.7v-4.1ZM620.5,434.2v-4.7h-3.7v4.7h3.7ZM630.3,424c0,5.4-.2,9-.4,11.2-.2,1.9-1.7,2.7-5.6,1v-.5c3.8.7,4.2.4,4.4-1,.2-1.6.4-4.8.4-9.9h-4.4c-.5,1.4-1.2,2.9-2.2,4.2l-.5-.3c1.3-2.5,2-5.6,2.4-8.2l1.4.3c-.2,1-.4,2.2-.8,3.3h5.4ZM626,432.1c-.6-1.6-1.5-3.2-2.3-4.6l.4-.3c1.1,1.2,2.4,2.9,3,4.3l-1.2.7Z"/>
        <path class="cls-19" d="M640.2,434.7h-5.2v1.8h-1.2v-7.6h2.6v-3.8h-3.6v-.7h3.6v-3.9h1.2v3.9h3.5v.7h-3.5v3.8h2.6v5.8ZM639,429.7h-4.1v4.4h4.1v-4.4ZM649,436l-.8,1.3c-1.5-.9-2.8-2.1-3.9-3.7-1.3,1.6-3.1,2.9-5.3,3.7l-.3-.5c2-.9,3.7-2.2,5-4.2-.8-1.6-1.4-3.6-1.6-5.9-.4.9-.9,1.7-1.5,2.3l-.4-.3c1.2-2,2.2-5.4,2.5-8.3l1.3.3c-.2,1.2-.6,2.5-1,3.8h5.5v.7h-1.4c-.1,2.9-.8,5.4-2.1,7.4,1,1.4,2.4,2.6,4,3.5ZM644.4,431.4c.9-1.7,1.4-3.8,1.5-6.3h-3.1l-.2.4c.2,2.4.8,4.3,1.7,5.9Z"/>
        <path class="cls-19" d="M666.8,431.3h-2v3.3h-1.2v-1.1h-4.1v2.1c0,1.9-1.7,2.2-4.7.8v-.5c3.1.5,3.5.4,3.5-.7v-1.7h-5.8v-.7h5.8v-1.5h-7.4v-.7h7.4v-1.4h-5.5v-.7h5.5v-1.3h-5.1v-3h5.1v-1.2h-7.3v-.7h7.3v-1.9h1.2v1.9h7.2v.7h-7.2v1.2h5.1v3h-5.1v1.3h5.3v2.1h2v.7ZM658.2,426.6v-1.7h-3.9v1.7h3.9ZM659.4,424.9v1.7h3.9v-1.7h-3.9ZM659.4,430.6h4.1v-1.4h-4.1v1.4ZM663.6,431.3h-4.1v1.5h4.1v-1.5Z"/>
        <path class="cls-19" d="M674.6,428.8c0-1.2,1-2.2,2.2-2.2s2.2,1,2.2,2.2-1,2.2-2.2,2.2-2.2-1-2.2-2.2ZM678.3,428.8c0-.8-.6-1.5-1.5-1.5s-1.5.6-1.5,1.5.6,1.5,1.5,1.5,1.5-.6,1.5-1.5Z"/>
      </g>
      <line class="cls-9" x1="423.8" y1="332.9" x2="720.3" y2="332.9"/>
    </g>
  </g>
</svg>