<?xml version="1.0" encoding="UTF-8"?>
<svg xmlns="http://www.w3.org/2000/svg" version="1.1" viewBox="0 0 850.4 708.7">
  <defs>
    <style>
      .cls-1 {
        fill: #ddd9d3;
      }

      .cls-2 {
        fill: #54b2a0;
      }

      .cls-3 {
        fill: #8e6b3d;
      }

      .cls-4 {
        fill: #e5bf55;
      }

      .cls-5 {
        fill: #fce47e;
      }

      .cls-6 {
        fill: #fff;
      }

      .cls-7 {
        stroke: #256045;
      }

      .cls-7, .cls-8 {
        fill: none;
        stroke-miterlimit: 10;
      }

      .cls-9 {
        fill: #b2b2a8;
      }

      .cls-10 {
        fill: #575756;
      }

      .cls-11 {
        fill: #3d7a4c;
      }

      .cls-12 {
        fill: #706f6f;
      }

      .cls-13 {
        fill: #f9f9f9;
      }

      .cls-14 {
        fill: #333f39;
      }

      .cls-15 {
        fill: #ba9d9b;
      }

      .cls-16 {
        fill: #b7605e;
      }

      .cls-17 {
        fill: #7a7a6d;
      }

      .cls-18 {
        fill: #878787;
      }

      .cls-19 {
        fill: #84776b;
      }

      .cls-20 {
        fill: #1d1d1b;
      }

      .cls-21 {
        fill: #2d2d2c;
      }

      .cls-22 {
        fill: #eace5c;
      }

      .cls-23 {
        fill: #c6c6c6;
      }

      .cls-24 {
        fill: #dadada;
      }

      .cls-25 {
        fill: #a57574;
      }

      .cls-8 {
        stroke: #2d2d2c;
        stroke-linecap: round;
      }

      .cls-26 {
        fill: #f2d85a;
      }
    </style>
  </defs>
  <!-- Generator: Adobe Illustrator 28.7.4, SVG Export Plug-In . SVG Version: 1.2.0 Build 166)  -->
  <g>
    <g id="Layer_1">
      <rect class="cls-1" x="-1740.8" width="3461.6" height="708.7"/>
      <g>
        <g>
          <g>
            <path class="cls-10" d="M261.1,321.8c-60.9,0-113.1-10.1-113.1-10.1,0,0,21,21.2,38,27.2h150.3c16.9-6.2,37.9-27.2,37.9-27.2,0,0-52.3,10.1-113.1,10.1Z"/>
            <path class="cls-23" d="M139.7,310.4s.9.4,2.5,1.1c1.7.6,4.2,1.5,7.5,2.2,1.7.4,3.5.9,5.4,1.3,2,.3,4,.9,6.5,1.2,2.2.4,4.8.9,7.3,1.2,1.3.2,2.5.3,4,.6,1.3.2,2.7.3,4.2.4,2.8.3,5.8.6,8.8.9s6.3.4,9.5.8c3.3.3,6.6.3,10,.4,1.7,0,3.5,0,5.2.2h5.2c7.2.3,14.5,0,22,0h72.9c1.8,0,3.4,0,5.2-.2,3.4,0,6.8-.3,10.1-.4,3.3-.2,6.4-.4,9.4-.8s6-.4,8.8-.9c1.3-.2,2.8-.3,4.2-.4,1.3-.2,2.7-.4,4.1-.6,2.6-.3,5.1-.8,7.3-1.2,2.2-.3,4.5-.9,6.4-1.2,1.9-.4,3.8-.9,5.4-1.3,3.3-.9,5.8-1.7,7.5-2.2s2.6-1.1,2.6-1.1c0,0-.9.6-2.6,1.5s-4.2,2.1-7.3,3.3c-1.7.6-3.4,1.2-5.4,1.9-1.9.6-4.1,1.3-6.4,1.8-2.2.6-4.8,1.2-7.3,1.8-1.3.3-2.6.6-4.1.9-1.3.3-2.7.4-4.2.8-2.8.6-5.8,1.1-8.8,1.5-3.2.4-6.3.9-9.6,1.2-3.3.4-6.6.8-10.1,1.1-3.4.3-7.1.4-10.7.8-3.6.2-7.2.4-10.9.4s-7.3.2-11.2.2h-45.6c-3.8,0-7.5,0-11.2-.2-3.8,0-7.3-.3-11-.4-1.8,0-3.6-.2-5.4-.3-1.8,0-3.5-.3-5.2-.4-3.5-.3-6.9-.6-10-1.1-3.3-.4-6.5-.8-9.6-1.2-3.2-.4-6-.9-8.8-1.5-1.5-.3-2.8-.4-4.2-.8-1.3-.3-2.7-.6-4-.9-2.5-.6-5.1-1.2-7.3-1.8-2.2-.6-4.5-1.2-6.5-1.8-2-.8-3.8-1.2-5.4-1.9-3.3-1.2-5.7-2.4-7.3-3.3-1.7-.9-2.5-1.5-2.5-1.5h.6Z"/>
            <polygon class="cls-2" points="317 287 261.1 287 205.1 287 197.5 320.9 261.1 320.9 324.7 320.9 317 287"/>
            <path class="cls-2" d="M261.1,324.4h-40c-59.9,0-84.1-15.9-84.1-15.9,33.5,7.9,52,2.2,67-6.3h114c15,8.6,33.8,14.2,67.1,6.3,0,0-24.3,15.9-84.2,15.9h-40.1"/>
            <path class="cls-26" d="M382.4,308.8c-26.7,9.2-52.2,5.6-64.7-3.8v-3.8c12.4,9.3,38.6,13.3,65.1,4.2l-.4,3.3Z"/>
            <path class="cls-26" d="M139.7,308.8c26.7,9.2,52.2,5.6,64.6-3.8v-3.8c-12.5,9.3-38.5,13.3-65.1,4.2l.5,3.3Z"/>
            <g>
              <polygon class="cls-5" points="318.8 305.5 319.4 313.6 315.4 313.6 312.1 288.4 312.1 283.4 313.6 283.4 318.8 305.5"/>
              <polygon class="cls-26" points="318.8 305.5 319.4 313.6 315.4 313.6 316.7 305.5 318.8 305.5"/>
              <polygon class="cls-4" points="312.1 283.4 316.7 305.5 315.4 313.6 312.1 288.4 312.1 283.4"/>
            </g>
            <circle class="cls-22" cx="357.4" cy="308.5" r="2.6"/>
            <circle class="cls-22" cx="380.3" cy="304.9" r="1.9"/>
            <circle class="cls-22" cx="364.7" cy="308.5" r="1.3"/>
            <circle class="cls-22" cx="369.8" cy="307.7" r="1.3"/>
            <circle class="cls-22" cx="374.8" cy="306.5" r="1.3"/>
            <g>
              <polygon class="cls-5" points="203.3 305.5 202.7 313.6 206.9 313.6 210.1 288.4 210.1 283.4 208.7 283.4 203.3 305.5"/>
              <polygon class="cls-26" points="203.3 305.5 202.7 313.6 206.9 313.6 205.4 305.5 203.3 305.5"/>
              <polygon class="cls-4" points="210.1 283.4 205.4 305.5 206.9 313.6 210.1 288.4 210.1 283.4"/>
            </g>
            <polygon class="cls-26" points="261.1 282.8 209.9 282.8 209.9 287.6 261.1 287.6 312.4 287.6 312.4 282.8 261.1 282.8"/>
            <polygon class="cls-4" points="261.1 284.6 209.9 284.6 209.9 285.8 261.1 285.8 312.4 285.8 312.4 284.6 261.1 284.6"/>
            <circle class="cls-22" cx="164.8" cy="308.5" r="2.7"/>
            <circle class="cls-22" cx="142" cy="304.9" r="1.9"/>
            <circle class="cls-22" cx="157.6" cy="308.5" r="1.3"/>
            <circle class="cls-22" cx="152.3" cy="307.7" r="1.3"/>
            <circle class="cls-22" cx="147.4" cy="306.5" r="1.3"/>
            <path class="cls-22" d="M308,279.4h-3s-3-2.2-3-7.5,1.1-3.6,3-3.6,3.2,1.5,3.2,3-.8,2.2-1.5,2.6c0,0,1.1,2.7,3.3,2.7s0-6.2,2.6-6.2,1.5,2.4,1.5,3.6,1.2,3.4,1.2,5.6-2.2,4.7-2.2,6.8c0,0-1.5-2.2-4.5-2.2s-3-1.8-3-1.8c0,0,2.4.3,2.4-2.7v-.2Z"/>
            <path class="cls-22" d="M214.3,279.4h3s3-2.2,3-7.5-1-3.6-3-3.6-3.2,1.5-3.2,3,.8,2.2,1.5,2.6c0,0-1,2.7-3.3,2.7s0-6.2-2.5-6.2-1.5,2.4-1.5,3.6-1.2,3.4-1.2,5.6,2.2,4.7,2.2,6.8c0,0,1.5-2.2,4.5-2.2s3-1.8,3-1.8c0,0-2.4.3-2.4-2.7v-.2Z"/>
          </g>
          <rect class="cls-19" x="189.2" y="333.7" width="143.9" height="47.1"/>
          <rect class="cls-21" x="250.7" y="346.4" width="20.7" height="34.3"/>
          <g>
            <rect class="cls-9" x="156.4" y="381.2" width="209.5" height="62.4"/>
            <rect class="cls-17" x="156.4" y="381.2" width="209.5" height="4.2"/>
            <rect class="cls-13" x="153.2" y="375.4" width="215.9" height="5.8"/>
            <path class="cls-12" d="M261.1,389.2c-17.8,0-32.4,14.6-32.4,32.4v22.1h64.8v-22.1c0-17.8-14.6-32.4-32.4-32.4Z"/>
            <path class="cls-21" d="M261.1,395.5c-14.4,0-26.1,11.7-26.1,26.1v22.1h52.2v-22.1c0-14.4-11.7-26.1-26.1-26.1Z"/>
          </g>
          <g>
            <rect class="cls-6" x="241" y="357.1" width="40.2" height="18.6"/>
            <rect class="cls-25" x="242.3" y="358.4" width="37.7" height="14.7"/>
            <rect class="cls-24" x="246.1" y="361.3" width="30" height="8.8"/>
          </g>
          <g>
            <rect class="cls-16" x="236" y="337.9" width="4.5" height="37.5"/>
            <rect class="cls-14" x="236" y="330.2" width="4.5" height="7.8"/>
          </g>
          <rect class="cls-16" x="281.6" y="338" width="4.5" height="37.5"/>
          <rect class="cls-14" x="281.6" y="330.1" width="4.5" height="7.8"/>
          <g>
            <rect class="cls-16" x="195.2" y="337.9" width="4.5" height="37.5"/>
            <rect class="cls-14" x="195.2" y="330.2" width="4.5" height="7.8"/>
          </g>
          <g>
            <rect class="cls-16" x="175.3" y="337.9" width="4.5" height="37.5"/>
            <rect class="cls-14" x="175.3" y="330.2" width="4.5" height="7.8"/>
          </g>
          <g>
            <rect class="cls-24" x="199.7" y="330.2" width="36.3" height="7.8"/>
            <polygon class="cls-7" points="231.1 337.9 204.7 337.9 201.7 334.1 204.7 330.2 231.1 330.2 234.1 334.1 231.1 337.9"/>
            <polygon class="cls-7" points="225.1 337.9 210.7 337.9 207.7 334.1 210.7 330.2 225.1 330.2 228.1 334.1 225.1 337.9"/>
            <polygon class="cls-3" points="211.7 335.8 210.4 334.1 211.7 332.3 224 332.3 225.4 334.1 224 335.8 211.7 335.8"/>
          </g>
          <g>
            <rect class="cls-24" x="179.8" y="330.2" width="15.6" height="7.8"/>
            <g>
              <polygon class="cls-7" points="190.4 337.9 185 337.9 182 334.1 185 330.2 190.4 330.2 193.4 334.1 190.4 337.9"/>
              <polygon class="cls-3" points="186.1 335.8 184.7 334.1 186.1 332.3 189.4 332.3 190.7 334.1 189.4 335.8 186.1 335.8"/>
            </g>
          </g>
          <polygon class="cls-15" points="206.5 337.9 202.7 337.9 199.7 337.9 199.7 340.9 199.7 343.4 202.7 343.4 202.7 340.9 206.5 340.9 206.5 337.9"/>
          <polygon class="cls-15" points="186.5 337.9 182.6 337.9 179.8 337.9 179.8 340.9 179.8 343.4 182.6 343.4 182.6 340.9 186.5 340.9 186.5 337.9"/>
          <polygon class="cls-15" points="188.9 337.9 192.8 337.9 195.7 337.9 195.7 340.9 195.7 343.4 192.8 343.4 192.8 340.9 188.9 340.9 188.9 337.9"/>
          <polygon class="cls-15" points="229.4 337.9 233.2 337.9 236 337.9 236 340.9 236 343.4 233.2 343.4 233.2 340.9 229.4 340.9 229.4 337.9"/>
          <g>
            <rect class="cls-16" x="322.4" y="338" width="4.5" height="37.5"/>
            <rect class="cls-14" x="322.4" y="330.1" width="4.5" height="7.8"/>
          </g>
          <g>
            <rect class="cls-16" x="342.5" y="338" width="4.5" height="37.5"/>
            <rect class="cls-14" x="342.5" y="330.1" width="4.5" height="7.8"/>
          </g>
          <g>
            <rect class="cls-24" x="286.1" y="330.1" width="36.3" height="7.8"/>
            <polygon class="cls-7" points="291.1 337.9 317.5 337.9 320.5 334.1 317.5 330.2 291.1 330.2 288.1 334.1 291.1 337.9"/>
            <polygon class="cls-7" points="297.1 337.9 311.5 337.9 314.5 334.1 311.5 330.2 297.1 330.2 294.1 334.1 297.1 337.9"/>
            <polygon class="cls-3" points="310.4 335.8 311.8 334.1 310.4 332.3 298.1 332.3 296.8 334.1 298.1 335.8 310.4 335.8"/>
          </g>
          <g>
            <rect class="cls-24" x="326.9" y="330.1" width="15.6" height="7.8"/>
            <g>
              <polygon class="cls-7" points="331.7 337.9 337.1 337.9 340.1 334.1 337.1 330.2 331.7 330.2 328.7 334.1 331.7 337.9"/>
              <polygon class="cls-3" points="336.1 335.8 337.4 334.1 336.1 332.3 332.8 332.3 331.4 334.1 332.8 335.8 336.1 335.8"/>
            </g>
          </g>
          <polygon class="cls-15" points="315.7 337.9 319.6 337.9 322.4 337.9 322.4 340.9 322.4 343.4 319.6 343.4 319.6 340.9 315.7 340.9 315.7 337.9"/>
          <polygon class="cls-15" points="335.8 337.9 339.5 337.9 342.4 337.9 342.4 340.9 342.4 343.4 339.5 343.4 339.5 340.9 335.8 340.9 335.8 337.9"/>
          <polygon class="cls-15" points="333.2 337.9 329.5 337.9 326.5 337.9 326.5 340.9 326.5 343.4 329.5 343.4 329.5 340.9 333.2 340.9 333.2 337.9"/>
          <polygon class="cls-15" points="292.9 337.9 289 337.9 286.1 337.9 286.1 340.9 286.1 343.4 289 343.4 289 340.9 292.9 340.9 292.9 337.9"/>
          <g>
            <rect class="cls-24" x="240.5" y="330.2" width="41.1" height="7.8"/>
            <polygon class="cls-7" points="274.3 337.9 247.9 337.9 244.9 334.1 247.9 330.2 274.3 330.2 277.3 334.1 274.3 337.9"/>
            <polygon class="cls-7" points="268.3 337.9 253.9 337.9 250.9 334.1 253.9 330.2 268.3 330.2 271.3 334.1 268.3 337.9"/>
            <polygon class="cls-3" points="254.9 335.8 253.6 334.1 254.9 332.3 267.2 332.3 268.6 334.1 267.2 335.8 254.9 335.8"/>
          </g>
          <polygon class="cls-15" points="247.3 337.9 243.5 337.9 240.5 337.9 240.5 340.9 240.5 343.4 243.5 343.4 243.5 340.9 247.3 340.9 247.3 337.9"/>
          <polygon class="cls-15" points="274.9 337.9 278.8 337.9 281.6 337.9 281.6 340.9 281.6 343.4 278.8 343.4 278.8 340.9 274.9 340.9 274.9 337.9"/>
          <path class="cls-11" d="M274.7,406.3c-.3-.9-1.3-1.5-2.6-1.5h-22.1c-1.2,0-2.4.6-2.6,1.5-1.1,3.3-1.3,11.2-1.3,19.5s1.9,18.2,1.9,18.2h26.2s1.9-7.3,1.9-18.2-.4-16.2-1.3-19.5h-.3Z"/>
          <path class="cls-11" d="M314.5,406.3c-.3-.9-1.3-1.5-2.6-1.5h-22.1c-1.2,0-2.4.6-2.6,1.5-1.1,3.3-1.3,11.2-1.3,19.5s1.9,18.2,1.9,18.2h26.2s1.9-7.3,1.9-18.2-.4-16.2-1.3-19.5h-.3Z"/>
          <path class="cls-11" d="M207.8,406.3c.3-.9,1.3-1.5,2.5-1.5h21.9c1.2,0,2.4.6,2.6,1.5,1.1,3.3,1.3,11.2,1.3,19.5s-1.9,18.2-1.9,18.2h-26.4s-2-7.3-2-18.2.5-16.2,1.3-19.5h.6Z"/>
          <g>
            <rect class="cls-6" x="177.5" y="369.7" width="60.8" height="5.8"/>
            <path class="cls-6" d="M174.7,361.1h-2.8v-2.8h-12.2v17.1h17.8v-11.4h-2.8v-2.8ZM169.1,366.8h-5.5v-2.8h5.5v2.8Z"/>
            <path class="cls-6" d="M200.9,364v-2.8h-2.8v-2.8h-8.4v2.8h-2.8v2.8h-2.8v11.4h19.7v-11.4h-2.8.1ZM196.7,366.8h-5.5v-2.8h5.5v2.8Z"/>
            <path class="cls-6" d="M228.5,364v-2.8h-2.8v-2.8h-8.4v2.8h-2.8v2.8h-2.8v11.4h19.7v-11.4h-2.8.1ZM224.2,366.8h-5.5v-2.8h5.5v2.8Z"/>
          </g>
          <g>
            <rect class="cls-6" x="284" y="369.5" width="60.8" height="5.8"/>
            <path class="cls-6" d="M347.5,364h-2.8v11.4h17.8v-17.1h-12.2v2.8h-2.8v2.8ZM353.2,364h5.7v2.8h-5.7v-2.8Z"/>
            <path class="cls-6" d="M318.4,364v11.4h19.8v-11.4h-2.8v-2.8h-2.8v-2.8h-8.4v2.8h-2.8v2.8h-2.9ZM325.4,364h5.6v2.8h-5.6v-2.8Z"/>
            <path class="cls-6" d="M290.9,364v11.4h19.8v-11.4h-2.8v-2.8h-2.8v-2.8h-8.4v2.8h-2.8v2.8h-2.9ZM298,364h5.6v2.8h-5.6v-2.8Z"/>
          </g>
        </g>
        <line class="cls-8" x1="156.1" y1="465.8" x2="366.1" y2="465.8"/>
      </g>
      <g>
        <path class="cls-20" d="M444.6,298c-.6,6.3-2.4,11.3-6,14.9l-1.9-1.4c2.1-4.2,2.5-8.4,2.5-18.8v-7.4h18c-.3-.9-.7-1.8-1.1-2.6v1.2h-4.7v-7.1h-6.9v7.2h-4.9v-9.7h16.5v5.5l.7-.5c.9.7,1.9,1.7,2.7,2.8v-7.8h16.6v9.7h-4.9v-7.2h-7v7.1h-3.6c.1.2.3.4.4.6l-1.7.9h18.5v2.7h-12v2.2h10.1v7.8h-31.3ZM457.1,272.7h-18.4v-2.7h18.4v2.7ZM459.2,306.4l.5,2.2c-4.8,1.9-10.5,3.2-15.6,3.8l-1.2-4.8h3.3v-8.8h5.7v2.5h7.5v2.6h-7.5v3.2c2.5-.2,5-.4,7.3-.8ZM450,292.7h-5.2c0,1,0,1.9,0,2.7h5.2v-2.7ZM444.8,288v2.2h5.2v-2.2h-5.2ZM450.7,282.9l-3.6,1.4c-.4-2.1-1-4.1-1.7-6l1.7-.9c1.5,1.5,2.7,3.6,3.6,5.6ZM455.6,290.3h4.7v-2.3h-4.7v2.3ZM455.6,295.5h4.7v-2.7h-4.7v2.7ZM477.2,272.7h-18.5v-2.7h18.5v2.7ZM474.9,311.5c-2.7.3-6.6.3-9.6,0-4-.3-5-1.8-5-5v-7.6h5.5v3.7c2.1-1.1,4.4-2.5,6.3-4.2l3.4,3.5c-2.5,1.4-6.5,2.7-9.7,3.4,0,1.3.3,1.7,2.5,1.9,1.4,0,4.2,0,5.5,0,1.7-.2,2-.7,1.7-4.7h2.3c2.2,7.2.5,8.7-2.9,9.1ZM466.6,277.3c1.6,1.6,2.8,3.3,3.8,5.5l-3.6,1.5c-.5-2.1-1.2-4.1-1.9-6l1.6-1ZM465.9,295.5h4.5v-2.7h-4.5v2.7Z"/>
        <path class="cls-20" d="M531.5,307.7v3.4h-42.1v-3.4h6.4v-24.2h6.2v24.2h7.2v-33.2h-17.7v-3.3h38.5v3.3h-14.4v13.8h12.2v3.2h-12.2v16.2h15.8Z"/>
        <path class="cls-20" d="M544.5,270.2h17.3v17.8h-11.3v24.6h-6v-42.4ZM556.1,277.5v-4.4h-5.6v4.4h5.6ZM556.1,285.1v-4.7h-5.6v4.7h5.6ZM568.8,307.6c6.6,1.2,7.6.6,7.6-2.4v-17.2h-11.3v-17.8h17.2v36.5c0,6.9-5.7,8.1-14.2,3.4l.6-2.4ZM576.5,277.5v-4.4h-5.5v4.4h5.5ZM576.5,285.1v-4.7h-5.5v4.7h5.5Z"/>
      </g>
      <g>
        <path class="cls-18" d="M449.1,224.5v3.1h9.5v15.2c0,2.8-3,3.4-6.9,1.3l.3-1c3.7.7,4.1.5,4.1-1.1v-13.2h-16.3v16.7h-2.5v-17.9h9.2v-3.1h-10.9v-1.3h10.9v-3.6h2.6v3.6h11.1v1.3h-11.1ZM455.3,239h-6.2v5.6h-2.5v-5.6h-6v-1.3h6v-2.7h-5.7v-1.3h3.8c-.7-1.4-1.5-2.9-2.3-4l.8-.7c1.3,1,2.7,2.3,3.8,3.7l-1.3,1h3.2c.7-1.2,1.5-3.2,2-4.8l2.5,1.3c-1.1,1.5-2.3,2.7-3.2,3.5h4.8v1.3h-5.8v2.7h6.2v1.3Z"/>
        <path class="cls-18" d="M465,220.7h9.7v10.2h-7.1v14.5h-2.5v-24.7ZM472.2,225.1v-3.1h-4.7v3.1h4.7ZM472.2,229.7v-3.4h-4.7v3.4h4.7ZM479.2,242.8c4.2,1,5.1.6,5.1-1.3v-10.6h-7.1v-10.2h9.6v21.5c0,3.4-2.5,4.8-8,1.6l.3-1ZM484.3,225.1v-3.1h-4.6v3.1h4.6ZM484.3,229.7v-3.4h-4.6v3.4h4.6Z"/>
      </g>
      <g>
        <path class="cls-18" d="M438.6,359.9v12.5h-1.2v-10.3c-.8,1.3-1.6,2.4-2.4,3.1l-.4-.4c1.5-1.9,3.3-5.7,4.1-9.3l1.3.4c-.4,1.4-.9,2.8-1.4,4ZM450.8,370.7v.8h-11.5v-.8h6.4c.5-2.1,1.3-5.9,1.6-9.1l1.5.3c-.6,3.4-1.5,6.5-2.5,8.8h4.4ZM450.3,360.6h-10.6v-.8h10.6v.8ZM441,362l.6-.2c1.1,2.4,2,5.7,2.2,7.6l-1.4.3c-.2-2.2-.7-5.2-1.4-7.6ZM444.9,359.7c-.5-1.1-1.3-2.7-1.9-3.8l.5-.3c1,.9,2,2.3,2.6,3.4l-1.2.8Z"/>
        <path class="cls-18" d="M469.7,363l-1,1.2c-1.5-1.7-2.9-4-3.7-6.4-1,2.6-2.7,5.2-4.3,6.5l-.2-.2c0,2.4-.2,4.9-.3,6.2-.2,1.8-1.7,2.1-4.5,1l.2-.6c2.7.5,3.1.4,3.2-.9.1-1.5.3-4.6.3-6.6h-2.6c-.2,4.8-.9,7.1-3,9.1l-.4-.4c1.9-2.7,2.2-4.9,2.2-11.9h-2.2v-.7h4.4c-.6-1.1-1.5-2.5-2.1-3.3l.4-.4c1,.8,2.3,2.2,2.9,3.1l-.7.6h3.4v.7h-4.8c0,.9,0,1.7,0,2.5h3.8c0,.4,0,.7,0,1.1,1.6-1.9,3.3-5.3,3.8-8.1l1.3.4c0,.3-.2.6-.3,1,1,2.4,2.6,4.6,4.4,6.1ZM462.1,367c1.6.8,4.4,2.6,6.1,4.1l-.9,1.1c-1.6-1.6-4-3.5-5.5-4.6l.3-.5ZM466.7,366.5c-.9-1-2.6-2.6-3.6-3.4l.3-.5c1.2.6,3,1.8,4.2,2.8l-.9,1Z"/>
        <path class="cls-18" d="M487.1,372.3c-2.5-.3-4.8-.8-6.9-1.8-2,1-4.5,1.6-7.7,2v-.5c2.8-.5,5-1.2,6.7-2-1-.6-2-1.4-2.8-2.3-1.2,1.1-2.6,2-3.8,2.5l-.3-.5c2.1-1.1,3.9-3.1,4.8-4.8l1.2.5c-.2.3-.4.6-.6.9h5.3l.5-.3,1.3.8c-.9,1.2-2,2.2-3.4,3,1.7.6,3.7.9,6.3,1.1l-.6,1.3ZM473.8,363.2h-1.2v-3.3h3.6c-.2-.6-.5-1.6-.8-2.3-.6,0-1.3,0-1.8,0v-.6c4-.2,8.7-.8,11.3-1.6l1.2,1c-1.7.4-4,.7-6.4.9.5.6,1,1.5,1.2,2.1l-1,.4h3c.4-.8.9-2.1,1.1-2.9l1.3.5c-.4.8-1.1,1.7-1.7,2.4h3.7v3.1h-1.2v-2.4h-12.4v2.6ZM475.4,361.4l.5.2c-.2,1.4-.8,2.7-1.5,3.6l-1-.7c.9-.8,1.7-1.8,2.1-3ZM477.3,359.6l-.8.3h3.4c-.2-.6-.5-1.7-.8-2.5-1,0-2,.1-3,.2.5.6.9,1.3,1.2,2ZM480.1,369.4c1.2-.7,2.1-1.6,2.8-2.4h-5.9l-.3.3c1,.9,2.1,1.6,3.4,2.1ZM477.9,361.2v1.6c0,.8.1,1,1,1.1,1,0,1.9,0,2.9,0,.8,0,.9-.3.9-2.2h.5c.5,2.5.3,3-1.3,3.2-1.2,0-2.3.1-3.4,0-1.6-.1-1.7-.6-1.7-1.7v-2h1.1ZM481,363.2c-.6-.6-1.6-1.4-2.2-1.9l.3-.4c.7.3,1.9.9,2.6,1.5l-.6.9ZM486.8,364.2l-1,.7c-.5-.9-1.2-2.2-1.8-3l.4-.3c.8.7,1.8,1.8,2.4,2.6Z"/>
        <path class="cls-18" d="M505.7,356.4v15.9h-1.2v-1h-11.9v1h-1.2v-15.9h14.3ZM504.5,357.1h-11.9v13.5h11.9v-13.5ZM493.5,368.9l-.4-1.1c1.8-.3,4.2-1.1,5.6-1.6l.2.5c-1.4.8-3.7,1.8-5.4,2.2ZM498.9,360.6h-5.7v-.7h5.7c0-.8,0-1.5,0-2.3h1.1c0,.8,0,1.6,0,2.3h2c-.4-.7-.9-1.7-1.2-2.3l.4-.3c.6.5,1.4,1.5,1.8,2.1l-.7.5h1.7v.7h-3.9c0,1.7.3,3.3.6,4.6.6-1.1,1-2.3,1.3-3.7l1.1.4c-.5,1.8-1.2,3.3-2.1,4.6.4,1,.9,1.7,1.5,2,.4.2.5-.5.5-3h.5c.6,3.7,0,4.6-1,4.3-1-.2-1.8-1.1-2.3-2.3-1,1.1-2.2,1.9-3.7,2.6l-.3-.5c1.5-.9,2.7-1.9,3.6-3.1-.5-1.6-.8-3.7-.9-5.9ZM493.8,365.8v-3.9h4.2v3.9h-4.2ZM494.8,365.2h2.2v-2.6h-2.2v2.6Z"/>
        <path class="cls-18" d="M519.2,357.9v3.2h4.4v11.2h-1.2v-1.5h-10.5v1.6h-1.2v-11.2h4.1v-3.2h-5.4v-.8h15.6v.8h-5.6ZM522.4,370v-2.9h-2.2c-1.8,0-2.1-.5-2.1-2v-3.3h-2.2c0,2.6-.4,5.2-3.2,7.1l-.3-.5c2.2-2.1,2.3-4.6,2.3-6.6h-2.8v8.2h10.5ZM518,357.9h-2.2v3.2h2.2v-3.2ZM519.2,361.8v2.9c0,1.1.2,1.3,1.3,1.3h1.8v-4.2h-3.1Z"/>
        <path class="cls-18" d="M534.6,368.5l.2.5c-1.6.9-4.9,2.1-7,2.7l-.4-1.3c.4,0,.8-.1,1.2-.2v-6.4h1.1v6.2c.4,0,.9-.2,1.3-.3v-7.7h-2.3v-5.4h5.4v5.4h-2v2.5h2.5v.7h-2.5v4.2c.9-.3,1.7-.5,2.4-.8ZM529.8,361.3h3.2v-4h-3.2v4ZM544.1,364.9l-.6,1.4c-1.8-.7-3.3-1.6-4.5-2.6-1.4,1.3-3.2,2.3-5.4,3l-.2-.5c2-.8,3.7-1.8,4.9-3.1-.9-1-1.6-2-2.1-3.1-.5.7-1,1.4-1.5,2l-.4-.4c1.2-1.5,1.9-3.7,2.4-5.9l1.3.4c-.2.6-.4,1.2-.6,1.7h3.4l.3-.3,1.3.6c-.6,1.8-1.4,3.4-2.6,4.8,1.3.9,2.7,1.5,4.4,2ZM535.5,366.1h6.8v6.1h-1.2v-1.2h-4.5v1.2h-1.2v-6.2ZM538.9,362.2c.9-1.1,1.5-2.4,1.9-3.8h-3.8c-.1.3-.3.6-.4.8.6,1.2,1.4,2.2,2.3,3ZM536.7,370.4h4.5v-3.6h-4.5v3.6Z"/>
        <path class="cls-18" d="M551.8,368.1l1.3.7c-1.7,1.6-4.6,3-6.9,3.6l-.2-.5c2.3-1,4.4-2.3,5.7-3.9ZM562.2,367.8h-15.9v-.7h1.7c0-3.4-.2-6.3-.4-9.8l1.1.2c.8-.5,1.6-1.2,2.3-1.8l1,.9c-.9.6-2.2,1.2-3.2,1.5,0,.7,0,1.4,0,2.1h2.5v.7h-2.5c0,.8,0,1.7,0,2.5h2.4v.7h-2.4c0,1,0,2.1,0,3.1h2.6c.2-1.5.4-2.8.5-4.4l1.1.2c-.1,1.5-.3,2.8-.5,4.3h2c.1-1.6.3-4,.4-5.7h-2.1c0,.3,0,.5-.1.7l-1.1-.2c.3-2,.6-4.3.8-6.2h1.1c0,.8-.1,1.5-.3,2.3h3.2v.7h-3.3l-.3,2h3.2c-.1,2-.3,4.7-.5,6.4h3.1l.2-2.9h-2.2v-.7h2.2l.2-2.5h-2.3v-.7h2.3l.2-2.8h-2.6v-.7h3.8l-.6,10.3h2v.7ZM562.4,371.2l-.9,1.3c-1.5-1.2-3.9-2.6-5.9-3.7l.2-.5c2.2.7,4.7,1.7,6.6,2.9Z"/>
        <path class="cls-18" d="M572.1,365.6h-4.9v1.4h-1.3v-7.8h6.1v-3.5h1.3v3.5h6.1v7.7h-1.2v-1.3h-4.9v6.9h-1.3v-6.9ZM572.1,364.8v-4.9h-4.9v4.9h4.9ZM578.3,364.8v-4.9h-4.9v4.9h4.9Z"/>
        <path class="cls-18" d="M598.2,359.5v12.7h-1.2v-1.9h-11.2v2h-1.2v-12.8h1.2v10.1h4.9v-13.9h1.3v13.9h5v-10.2h1.2Z"/>
        <path class="cls-18" d="M610.5,358.8v2.1h6.2v9.8c0,1.8-2,1.9-4.3.8v-.5c2.5.4,3.2.4,3.1-.7v-8.8h-11v10.8h-1.2v-11.5h6v-2.1h-7.3v-.7h7.3v-2.4h1.2v2.4h7.4v.7h-7.4ZM614.8,368.1h-4.2v3.7h-1.2v-3.7h-4.1v-.7h4.1v-1.9h-3.9v-.7h2.6c-.4-.9-1.1-1.9-1.6-2.7l.4-.3c.8.6,1.7,1.6,2.3,2.5l-.8.5h2.2c.5-.7,1.1-2,1.4-3l1.2.6c-.7,1-1.4,1.9-1.9,2.4h3.2v.7h-4v1.9h4.2v.7Z"/>
        <path class="cls-18" d="M627.4,368.5l.2.5c-1.6.9-4.9,2.1-7,2.7l-.4-1.3c.4,0,.8-.1,1.2-.2v-6.4h1.1v6.2c.4,0,.9-.2,1.3-.3v-7.7h-2.3v-5.4h5.4v5.4h-2v2.5h2.5v.7h-2.5v4.2c.9-.3,1.7-.5,2.4-.8ZM622.6,361.3h3.2v-4h-3.2v4ZM636.9,364.9l-.6,1.4c-1.8-.7-3.3-1.6-4.5-2.6-1.4,1.3-3.2,2.3-5.4,3l-.2-.5c2-.8,3.7-1.8,4.9-3.1-.9-1-1.6-2-2.1-3.1-.5.7-1,1.4-1.5,2l-.4-.4c1.2-1.5,1.9-3.7,2.4-5.9l1.3.4c-.2.6-.4,1.2-.6,1.7h3.4l.3-.3,1.3.6c-.6,1.8-1.4,3.4-2.6,4.8,1.3.9,2.7,1.5,4.4,2ZM628.4,366.1h6.8v6.1h-1.2v-1.2h-4.5v1.2h-1.2v-6.2ZM631.7,362.2c.9-1.1,1.5-2.4,1.9-3.8h-3.8c-.1.3-.3.6-.4.8.6,1.2,1.4,2.2,2.3,3ZM629.5,370.4h4.5v-3.6h-4.5v3.6Z"/>
        <path class="cls-18" d="M654.3,372.3c-2.8-.8-5.1-1.8-7-3.5-2.2,2-4.9,2.9-8,3.5l-.2-.5c3-.8,5.4-1.9,7.3-3.7-1.2-1.2-2.2-2.8-3.1-4.7l.5-.3c1.1,1.8,2.2,3.1,3.3,4.2,1-1.2,1.9-2.6,2.6-4.4l1.3.6c-.9,1.9-1.9,3.4-3,4.5,1.9,1.4,4.2,2.1,6.9,2.7l-.7,1.5ZM639.6,365.4l-.3-.5c1.7-1.2,3.6-3.1,4.7-5.1l1.2.8c-1.7,2.2-3.7,3.7-5.7,4.8ZM654.6,359.4h-15.2v-.8h7.7c-.8-.8-2.1-2.1-2.8-2.7l.3-.5c1,.5,2.8,1.6,3.7,2.3l-.7.8h7v.8ZM649.1,359.9c1.8.8,3.9,2.3,5.6,3.8l-1,1.1c-1.6-1.7-3.4-3.3-4.8-4.4l.3-.5Z"/>
        <path class="cls-18" d="M672.8,372.4c-2.5-1-4.9-2.4-6.9-4.4-2.6,2.4-5.5,3.7-8.1,4.5l-.2-.6c2.4-.9,5.2-2.4,7.5-4.8-2-2.3-3.6-5.3-4.3-9.3h-2.1v-.8h11l.5-.4,1.4.6c-.8,4.2-2.6,7.4-4.7,9.7,2.1,1.7,4.4,2.9,6.8,3.7l-.9,1.6ZM666,366.2c1.8-2.1,3.2-4.8,3.9-8.3h-8.4c.9,3.6,2.5,6.3,4.6,8.3ZM667.4,362.5l-1.2.8c-.6-1.2-1.6-3-2.5-4.2l.5-.4c1.1,1,2.6,2.8,3.3,3.8Z"/>
        <path class="cls-18" d="M690.5,358v13.2h-1.3v-1.9h-10v2.1h-1.3v-13.4h12.6ZM689.2,358.8h-10v9.7h10v-9.7Z"/>
        <path class="cls-18" d="M698.4,359.2h3.3v12.6h-1.2v-1.7h-3.7v2h-1.2v-13h2.1c.3-1.1.5-2.5.6-3.6l1.4.3c-.4,1.1-.9,2.4-1.4,3.3ZM700.4,359.9h-3.7v4.1h3.7v-4.1ZM700.4,369.4v-4.7h-3.7v4.7h3.7ZM710.2,359.2c0,5.4-.2,9-.4,11.2-.2,1.9-1.7,2.7-5.6,1v-.5c3.8.7,4.2.4,4.4-1,.2-1.6.4-4.8.4-9.9h-4.4c-.5,1.4-1.2,2.9-2.2,4.2l-.5-.3c1.3-2.5,2-5.6,2.4-8.2l1.4.3c-.2,1-.4,2.2-.8,3.3h5.4ZM706,367.3c-.6-1.6-1.5-3.2-2.3-4.6l.4-.3c1.1,1.2,2.4,2.9,3,4.3l-1.2.7Z"/>
        <path class="cls-18" d="M721.9,358.8v2.1h6.2v9.8c0,1.8-2,1.9-4.3.8v-.5c2.5.4,3.2.4,3.1-.7v-8.8h-11v10.8h-1.2v-11.5h6v-2.1h-7.3v-.7h7.3v-2.4h1.2v2.4h7.4v.7h-7.4ZM726.2,368.1h-4.2v3.7h-1.2v-3.7h-4.1v-.7h4.1v-1.9h-3.9v-.7h2.6c-.4-.9-1.1-1.9-1.6-2.7l.4-.3c.8.6,1.7,1.6,2.3,2.5l-.8.5h2.2c.5-.7,1.1-2,1.4-3l1.2.6c-.7,1-1.4,1.9-1.9,2.4h3.2v.7h-4v1.9h4.2v.7Z"/>
        <path class="cls-18" d="M435.9,378.1h6v6.4h-4.8v9.4h-1.2v-15.8ZM440.7,380.9v-2.1h-3.5v2.1h3.5ZM440.7,383.8v-2.2h-3.5v2.2h3.5ZM444.9,392.5c3.2.6,3.7.3,3.7-.8v-7.1h-4.8v-6.4h6v13.9c0,2-1.4,2.6-5.1,1v-.5ZM448.6,380.9v-2.1h-3.5v2.1h3.5ZM448.6,383.8v-2.2h-3.5v2.2h3.5Z"/>
        <path class="cls-18" d="M460,388.8c1.4-.7,2.2-1.9,2.2-3.2-.2.2-.6.3-.8.3-.7,0-1.2-.5-1.2-1.3,0-.8.5-1.3,1.3-1.3.9,0,1.6.5,1.7,1.6.1,1.8-.8,3.7-2.8,4.3l-.3-.4Z"/>
        <path class="cls-18" d="M486.7,380.7v5.2h-13.7v-5.2h4.4c-.7-1.1-1.6-2.3-2.3-3.2l.4-.4c.9.6,2.3,1.8,3.2,2.8l-.9.7h3.5c.5-.9,1.3-2.5,1.7-3.6l1.4.7c-.6.9-1.5,2.1-2.3,2.9h4.7ZM479.3,381.4h-5v3.8h5v-3.8ZM474.7,387.3h10.5v6.6h-1.2v-1h-8v1h-1.2v-6.7ZM477,384.9c-.4-1-.9-2-1.4-3l.4-.3c.8.7,1.6,1.7,2.1,2.6l-1.1.6ZM475.9,389.7h8v-1.7h-8v1.7ZM475.9,392.2h8v-1.8h-8v1.8ZM485.5,381.4h-5v3.8h5v-3.8ZM482.1,384.9l-.5-.3c.5-.8.9-1.8,1.3-2.9l1.2.6c-.8,1.2-1.4,2.1-2.1,2.7Z"/>
        <path class="cls-18" d="M506.7,391.9l-.5,1.5c-1.2.1-3.7.1-5,0-3.2-.2-5.6-1.4-6.7-4-.7,2.1-2.1,3.8-3.8,4.7l-.3-.5c2-1.5,3-3.8,3.3-6.8h1.4c0,.7-.2,1.3-.3,1.8.8,1.6,1.9,2.5,3.3,3v-5.7h-7.3v-.8h15.5v.8h-6.9v2.3h5.4v.7h-5.4v3c.6,0,1.3.1,2,.1,1.9,0,3.7,0,5.3-.3ZM503.7,383.8h-9.8v-5.7h9.8v5.7ZM502.5,378.9h-7.4v1.7h7.4v-1.7ZM502.5,381.3h-7.4v1.8h7.4v-1.8Z"/>
        <path class="cls-18" d="M525.4,391.8l-.3,1.4c-2,.2-5.7.2-7.2.1-3-.2-4.1-.5-5.3-2.6-.8,1.2-1.7,2.4-2.6,3.3l-.8-.9c.9-.7,2-1.7,2.7-2.7v-4.1h-2.6v-.7h3.9v4.7c1,1.6,2.1,1.8,4.8,1.9,2.3,0,5.4-.2,7.5-.4ZM512,384.1c-.7-.9-1.9-2.1-2.7-2.8l.3-.5c.9.5,2.2,1.4,3.2,2.3l-.9,1ZM510.1,377.7l.3-.5c.9.5,2.3,1.4,3.3,2.2l-.9,1c-.8-.9-1.9-2-2.7-2.8ZM521.7,378.9h-6.9v-.7h7l.5-.2,1.3.9c-1.1.9-2,1.4-2.9,1.9.2.1.5.2.6.3l-.5.7h3.4v7.6c0,1.4-1.2,1.9-3.5.8v-.5c2.1.4,2.4.2,2.4-.6v-1.6h-2.9v3.3h-1.2v-3.3h-2.9v3.5h-1.2v-9.2h5.2c-.9-.6-2.1-1.3-3.1-1.9l.2-.5c.9.3,1.9.6,2.8,1,.7-.5,1.3-1,1.7-1.5ZM516,382.5v1.7h2.9v-1.7h-2.9ZM518.9,386.7v-1.8h-2.9v1.8h2.9ZM522.9,382.5h-2.9v1.7h2.9v-1.7ZM522.9,386.7v-1.8h-2.9v1.8h2.9Z"/>
        <path class="cls-18" d="M531.4,385.2v8.7h-1.2v-7.3c-.8.8-1.5,1.4-2.4,1.9l-.3-.5c1.6-1.4,3.5-3.9,4.6-6.4l1.2.6c-.5,1-1.1,2-1.9,2.9ZM528,383.2l-.3-.4c1.4-1.2,2.9-3.4,3.9-5.4l1.2.7c-1.1,1.8-3.3,4.2-4.8,5.2ZM543.7,392.6v.7h-11.3v-.7h5v-5.5h-3.9v-.7h3.9v-4.6h-4.4v-.7h4.9c-.6-1.1-1.4-2.5-2.1-3.5l.4-.4c.9.8,2.1,2,2.8,3.1l-1,.8h5v.7h-4.4v4.6h3.9v.7h-3.9v5.5h5.1Z"/>
        <path class="cls-18" d="M552.2,390.2c-1.4,1.2-4,2.6-5.8,3.1l-.2-.5c1.7-.8,3.6-2,4.9-3.3l1.2.7ZM562.1,384.3v.7h-15.8v-.7h8.6c-.9-.4-2.4-1-3.2-1.4v-.5c1.1.2,2.8.5,3.8.9l-.4.9h6.9ZM559.6,382.4h-10.6v-4.4h10.6v4.4ZM555.1,389v3.4c0,1.5-1.2,2.1-4.4.8v-.5c2.8.4,3.2.3,3.2-.6v-3.1h-4.4v-3.1h9.7v3.1h-4.1ZM558.4,378.7h-8.3v1.1h8.3v-1.1ZM558.4,380.5h-8.3v1.2h8.3v-1.2ZM550.6,388.3h7.3v-1.6h-7.3v1.6ZM556.5,389.5c1.7.6,4.1,1.7,5.5,2.6l-.8,1.2c-1.2-1-3.4-2.4-5-3.3l.2-.5Z"/>
        <path class="cls-18" d="M581,392.5l-.7,1.4c-2.4-.4-5.8-1.7-7.2-5.1h-.2c-1,2.9-3.6,4.6-8.1,5.3l-.2-.5c4-.9,6-2.5,6.8-4.8h-6.1v-.7h6.3c.2-.6.3-1.2.3-1.9h1.4c0,.7-.1,1.3-.3,1.9h7v.7h-6.4c1.7,2.6,4.8,3.3,7.3,3.7ZM580.5,385.8h-15.4v-.7h7v-1.9h-5.2v-.7h5.2v-1.8h-6.3v-.7h4.7c-.6-.8-1.7-1.9-2.4-2.5l.3-.5c1,.5,2.5,1.5,3.3,2.2l-.7.7h2.9c.6-.9,1.3-2.1,1.7-3l1.3.7c-.6.8-1.4,1.7-2.2,2.3h5.1v.7h-6.5v1.8h5.3v.7h-5.3v1.9h7.1v.7Z"/>
        <path class="cls-18" d="M588.5,383.8l.5-.5c1.7,1.3,3.6,2.8,5,4.2l-1,1.1c-1.4-1.7-2.8-3.2-4.4-4.7Z"/>
        <path class="cls-18" d="M601.9,381.6l.3-.5c1,.6,2.3,1.4,3.2,2.3l-.9,1c-.8-1-1.9-2.1-2.7-2.9ZM605.2,385.9c-.4,2.3-1.2,5.7-1.8,7.5l-1.3-.6c.9-1.8,1.9-4.8,2.6-7h.5ZM605,380.5c-.7-1-1.5-2-2.3-2.8l.3-.4c.9.6,2,1.4,2.9,2.3l-1,.9ZM618.3,391.4l-.8,1.3c-1.2-.6-3.7-2.5-5.1-5v6.2h-1.2v-5.9c-1.2,2-4,4.3-5.9,5.1l-.3-.5c1.7-1,4.3-3.2,5.6-5.7h-4.6v-.7h5.1v-2.1h1.2v2.1h5.3v.7h-5.1c1.5,2.3,4.2,3.9,5.8,4.5ZM610,379.2h-1.9v3h-1.2v-3.7h10.2v3.6h-1.2v-2.9h-1.9v3.1c0,.9,0,1.3,1.3,1.3s1.5-.1,2-.5l.5.9c-.5.5-1.3.6-2.6.6-2.2,0-2.4-.6-2.4-2.2v-3.2h-1.6c0,3.9-1,5.5-4.6,6.4l-.2-.5c3.3-1,3.6-2.9,3.7-5.9Z"/>
        <path class="cls-18" d="M627.1,387.9c-1.6,1.3-4.3,2.8-6.3,3.7l-.6-1.3c.7-.2,1.7-.6,2.9-1.1v-6h-2.6v-.7h2.6v-5.1h1.2v5.1h2.4v.7h-2.4v5.5c.9-.4,1.7-.8,2.5-1.3l.3.5ZM634.4,393.5c-2,0-2.3-.3-2.3-2.1v-7.3h-3v2.2c0,3.7-.8,6-5,7.7l-.3-.5c3-1.6,4-3.4,4.1-7.3v-2.9h5.4v8c0,.8.2.9,1.4.9s1-.2,1-3.4h.5c.7,4.3.3,4.5-1.9,4.5ZM635.9,381.5h-10.2v-.7h4.8c-.6-1-1.5-2.5-2.2-3.3l.4-.4c.8.6,2.2,2,3,3l-.9.7h5v.7Z"/>
        <path class="cls-18" d="M639.4,383.1l-.4-.4c1.4-1.6,2.3-3.3,3-5.5l1.3.4c-.2.5-.4,1-.7,1.5h4.6v.7h-3c.4.6,1,1.4,1.3,2.1l-1.1.5c-.3-.8-.6-1.8-.9-2.6h-1.3c-.8,1.3-1.8,2.5-2.8,3.3ZM650.9,386.3v1.8h3.7v.7h-3.7v3.4c0,1.8-1.3,2.4-4.8.9v-.5c3,.6,3.5.5,3.5-.6v-3.2h-10v-.7h10v-1.8h-10.6v-.7h7.3v-1.6h-5.5v-.7h5.5v-1.6h.5l-.3-.3c.9-1.1,1.6-2.6,2.1-4.2l1.3.4c-.2.5-.5,1-.8,1.5h5.6v.7h-3.8c.5.5,1,1.3,1.4,2l-1.1.4c-.3-.8-.6-1.7-.9-2.4h-1.5c-.5.7-1,1.4-1.6,1.9h.5v1.6h5.5v.7h-5.5v1.6h7.4v.7h-4.2ZM642.1,389.2c.9.3,2.5,1.1,3.6,1.9l-.8,1.1c-.8-.8-2.3-1.9-3-2.5l.2-.5Z"/>
        <path class="cls-18" d="M663.8,387.8l.2.5c-1.6,1.2-4.3,2.5-6.1,3.3l-.5-1.3c.7-.2,1.7-.5,2.8-1v-6.3h-2.6v-.7h2.6v-4.5h1.2v4.5h2.4v.7h-2.4v5.8c.8-.4,1.7-.7,2.4-1.1ZM671.8,393.4c-1.6.1-3.2.1-4.7,0-2.1-.2-2.4-.7-2.4-2.4v-6.6c-.7.3-1.3.5-2,.7l-.2-.7c.7-.3,1.5-.5,2.2-.8v-4.5h1.2v4.1c.7-.3,1.4-.6,2.2-.8v-5h1.1v4.6c.7-.3,1.4-.6,2-.8l.3-.4,1.3.4c-.3,2.4-1,5.6-1.5,7.3h-.5c.3-1.8.6-4.9.7-6.6-.7.3-1.5.6-2.2.9v6.9h-1.1v-6.4c-.7.3-1.4.6-2.2.8v6.9c0,1.1.4,1.3,1.6,1.4,1.5.1,2.6.1,4.2,0,1,0,1.2-.5,1.2-4.5h.6c.6,4.8.4,5.5-1.6,5.7Z"/>
        <path class="cls-18" d="M679.8,380.8h3.3v12.6h-1.2v-1.7h-3.7v2h-1.2v-13h2.1c.3-1.1.5-2.5.6-3.6l1.4.3c-.4,1.1-.9,2.4-1.4,3.3ZM681.9,381.5h-3.7v4.1h3.7v-4.1ZM681.9,391v-4.7h-3.7v4.7h3.7ZM691.7,380.8c0,5.4-.2,9-.4,11.2-.2,1.9-1.7,2.7-5.6,1v-.5c3.8.7,4.2.4,4.4-1,.2-1.6.4-4.8.4-9.9h-4.4c-.5,1.4-1.2,2.9-2.2,4.2l-.5-.3c1.3-2.5,2-5.6,2.4-8.2l1.4.3c-.2,1-.4,2.2-.8,3.3h5.4ZM687.4,388.9c-.6-1.6-1.5-3.2-2.3-4.6l.4-.3c1.1,1.2,2.4,2.9,3,4.3l-1.2.7Z"/>
        <path class="cls-18" d="M706.7,387.9c-.4,1.2-.9,2.2-1.6,3.1,1.6.5,3.2,1,4.6,1.7l-.8,1.3c-1.6-.9-3.2-1.6-4.7-2.2-1.8,1.4-4.6,2.1-9.1,2.3v-.6c3.6-.3,6.2-1,7.9-2.2-1-.3-2.1-.6-3.3-.9-.4.5-.7.9-1,1.3l-1-.6c.7-.9,1.5-2,2.3-3.2h-4.7v-.7h5.2c.4-.7.8-1.3,1.1-1.9h-4.7v-4.3h3.7v-1.9h-4.8v-.7h14.4v.7h-4.8v1.9h3.8v4.3h-7.1l.9.3c-.3.5-.5,1-.9,1.6h8.7v.7h-3.8ZM700.4,381.7h-2.5v2.9h2.5v-2.9ZM705.4,387.9h-4c-.4.7-.9,1.3-1.3,2,1.2.2,2.5.4,3.8.7.7-.7,1.2-1.6,1.6-2.7ZM701.5,381h2.5v-1.9h-2.5v1.9ZM701.5,384.6h2.5v-2.9h-2.5v2.9ZM705.2,384.6h2.6v-2.9h-2.6v2.9Z"/>
        <path class="cls-18" d="M729.6,391.9l-.4,1.4c-2,.1-5.3.2-7.2.1-3.6-.2-4.7-1.2-5.6-2.7-.7,1.3-1.4,2.4-2.2,3.2l-.9-.8c.9-.7,1.7-1.7,2.4-2.6v-4.1h-2.4v-.7h3.6v4.7c1,1.6,3,1.9,5.1,1.9,2.3,0,5.4,0,7.5-.4ZM713.5,381.4l.3-.5c1,.5,2.2,1.4,3.2,2.3l-.9,1c-.7-.9-1.8-2-2.6-2.8ZM714.1,377.8l.3-.5c1,.5,2.2,1.3,3.2,2.2l-.9,1c-.8-.9-1.7-1.9-2.6-2.7ZM722.7,380.8h-4.9v-.7h3.5c-.5-.9-1.2-2-1.7-2.7l.4-.4c.9.6,2,1.8,2.5,2.5l-.7.5h2.8c.4-.8.8-2,1-3l1.3.4c-.5.9-1.2,1.9-1.7,2.6h3.8v.7h-5.1c-.3.7-.7,1.4-1.1,1.9h4.7v8.5h-1.2v-1.1h-5.8v1.1h-1.2v-8.5h2.8c.2-.6.3-1.3.4-1.9ZM726.5,383.4h-5.8v1.5h5.8v-1.5ZM726.5,385.5h-5.8v1.6h5.8v-1.6ZM726.5,387.8h-5.8v1.6h5.8v-1.6Z"/>
        <path class="cls-18" d="M440.6,407.2c0-1.2,1-2.2,2.2-2.2s2.2,1,2.2,2.2-1,2.2-2.2,2.2-2.2-1-2.2-2.2ZM444.3,407.2c0-.8-.6-1.5-1.5-1.5s-1.5.6-1.5,1.5.6,1.5,1.5,1.5,1.5-.6,1.5-1.5Z"/>
        <path class="cls-18" d="M456.6,402.3l-3,1.3v-1.1l3.4-1.3h1v12.9h-1.3v-11.8h0Z"/>
        <path class="cls-18" d="M469.1,407.7h0c-.4.9-1.5,1.9-3,1.9-2.2,0-3.8-1.7-3.8-3.9,0-2.5,1.8-4.5,4.3-4.5s4.1,1.8,4.1,5.1-2.1,7.3-7.4,7.9v-.7c4.2-.7,5.7-3.2,5.9-5.8ZM469,406.5c0-.2.1-.7.1-1,0-2.1-1.1-3.6-2.8-3.5-1.5,0-2.7,1.5-2.7,3.5,0,1.7,1.1,3,2.8,3,1.1,0,2-.7,2.6-2Z"/>
        <path class="cls-18" d="M477.6,414.2c-2.9,0-4.4-2.3-4.4-5.7,0-4.2,2.6-7,7.3-7.5v.7c-3.9.5-6,3-6,6.3h0c.4-1,1.4-2.4,3.3-2.4,2.4,0,3.8,2.1,3.8,4.2s-1.4,4.2-4.2,4.2ZM477.6,406.7c-1.5,0-2.9,1.6-2.8,3.5,0,2.1,1.3,3.2,2.9,3.2s2.6-1.2,2.6-3.2-1-3.5-2.7-3.5Z"/>
        <path class="cls-18" d="M488.6,414.2c-2.9,0-4.4-2.3-4.4-5.7,0-4.2,2.6-7,7.3-7.5v.7c-3.9.5-6.1,3-6,6.3h0c.4-1,1.4-2.4,3.3-2.4,2.4,0,3.8,2.1,3.8,4.2s-1.4,4.2-4.2,4.2ZM488.6,406.7c-1.5,0-2.9,1.6-2.8,3.5,0,2.1,1.3,3.2,2.9,3.2s2.6-1.2,2.6-3.2-1-3.5-2.7-3.5Z"/>
        <path class="cls-18" d="M511.2,409.7v.8h-6.5v5.1h-1.3v-5.1h-8.4v-.8h3.2v-4.8h5.2v-2.9h-4.3c-.9,1.5-1.9,2.9-3,4l-.4-.4c1.5-1.8,2.6-4.4,3.3-7l1.4.5c-.2.7-.6,1.5-.9,2.2h11.2v.8h-6v2.9h5.1v.7h-5.1v4h6.5ZM503.4,405.7h-3.9v4h3.9v-4Z"/>
        <path class="cls-18" d="M516.8,402.4h3.3v12.6h-1.2v-1.7h-3.7v2h-1.2v-13h2.1c.3-1.1.5-2.5.6-3.6l1.4.3c-.4,1.1-.9,2.4-1.4,3.3ZM518.9,403.1h-3.7v4.1h3.7v-4.1ZM518.9,412.6v-4.7h-3.7v4.7h3.7ZM528.7,402.4c0,5.4-.2,9-.4,11.2-.2,1.9-1.7,2.7-5.6,1v-.5c3.8.7,4.2.4,4.4-1,.2-1.6.4-4.8.4-9.9h-4.4c-.5,1.4-1.2,2.9-2.2,4.2l-.5-.3c1.3-2.5,2-5.6,2.4-8.2l1.4.3c-.2,1-.4,2.2-.8,3.3h5.4ZM524.4,410.5c-.6-1.6-1.5-3.2-2.3-4.6l.5-.3c1.1,1.2,2.4,2.9,3,4.3l-1.2.7Z"/>
        <path class="cls-18" d="M539.5,410.9c-2,1.4-5.5,3.1-7.5,3.8l-.5-1.4c.4-.1.9-.3,1.5-.4v-7.5h4.3v-4.2h-5.4v-.7h6.6v6.8h-1.2v-1.1h-3.1v6.3c1.8-.6,3.8-1.5,5.1-2.1l.3.5ZM547.7,414l-.8,1.4c-1.8-.9-3.1-2.1-4.2-3.5-1.2,1.5-2.9,2.8-5.3,3.7l-.3-.5c2.1-1.1,3.8-2.5,5-4.3-.8-1.5-1.3-3.2-1.6-5.2-.5,1.1-1,2.1-1.7,2.8l-.4-.4c1.5-2.3,2.2-6,2.5-9.2l1.3.3c-.1,1.1-.4,2.4-.8,3.7h5.8v.7h-1.8c0,2.6-.6,5.1-2,7.3,1,1.3,2.5,2.2,4.3,3ZM542.6,409.9c.9-1.8,1.4-3.9,1.5-6.3h-2.9c0,.3-.2.6-.3.9.3,2.1.8,3.9,1.7,5.4Z"/>
        <path class="cls-18" d="M565.8,413.6l-.5,1.4c-1.6.1-3.8.2-5.5,0-3.5-.2-5.7-1-7.2-2.4-.7,1.2-1.7,2.2-2.9,3l-.3-.5c1-.8,1.9-1.9,2.7-3.3-.8-1-1.2-2.4-1.6-4h.5c.4,1.2.8,2.3,1.4,3.2.6-1.4,1-3.1,1.2-5.1h-1.9c-.3.5-.5.9-.7,1.2l-1-.4c.9-1.6,2.2-4,2.9-5.9h-3.2v-.7h4.7c-.5,1.4-1.5,3.5-2.4,5.1h1.4l.3-.3,1.1.4c-.2,2.3-.7,4.6-1.8,6.5,1.4,1.4,3.5,1.9,6.5,2,1.8,0,4.1,0,6.1-.3ZM559.1,403.5h-4.2v-.7h4.2v-1.6h-3.3v-.7h3.3v-1.7h1.2v1.7h3.6v2.3h1.7v.7h-1.7v2.4h-3.6v1.5h3.9v.7h-3.9v1.7h4.7v.7h-4.7v2.5h-1.2v-2.5h-4.1v-.7h4.1v-1.7h-3.5v-.7h3.5v-1.5h-3.4v-.7h3.4v-1.7ZM560.2,402.8h2.5v-1.6h-2.5v1.6ZM560.2,405.2h2.5v-1.7h-2.5v1.7Z"/>
        <path class="cls-18" d="M569.3,410.7l1.2.4c-.5,1.4-1.5,3.3-2.5,4.4l-.4-.3c.6-1,1.3-2.9,1.7-4.6ZM572.9,410.1h-4.5v-10.4h4.5v10.4ZM571.8,400.5h-2.3v2.4h2.3v-2.4ZM571.8,403.6h-2.3v2.5h2.3v-2.5ZM571.8,406.7h-2.3v2.7h2.3v-2.7ZM571.7,410.8c.6,1,1.5,2.9,1.8,3.9l-1.2.4c-.2-1.1-.8-3.1-1.1-4.1l.5-.2ZM579.7,411.2l.2.5c-1.6,1-4,2-6.1,2.5l-.5-1.2.8-.2v-6.4h1v6.2c.4,0,.8-.2,1.1-.3v-7.4h1.1v2.8h2v.7h-2v3.6c.8-.3,1.5-.5,2.3-.8ZM582.9,415.2c-2.6-.3-3.2-6.5-3.3-10.9h-6.1v-.7h6.1v-4.8c0,0,1.2,0,1.2,0,0,1.5,0,3.1,0,4.7h3v.7h-3c0,4.2.9,9.1,2.1,9.4.5.1.5-.4.5-3.2h.5c.5,3,.5,4.8-.9,4.7ZM578.9,401.6h-4.7v-.7h4.7v.7ZM582.4,402.8c-.3-.9-.8-2.1-1.2-3l.5-.3c.6.8,1.3,1.7,1.7,2.7l-1.1.5Z"/>
        <path class="cls-18" d="M601.9,406c-1.1,1.5-3,3.1-4,3.7l-.4-.5c.8-.8,2-2.2,2.5-3.1h-5.1v7.8c0,1.8-1.6,2.3-5.2.9v-.5c3.3.4,3.9.4,3.9-.8v-7.3h-7.7v-.8h8.6c-.9-.9-2.4-2.3-3.3-3l.3-.5c.8.4,1.8,1,2.7,1.6,1.1-.7,2.6-1.8,3.3-2.6h-9.7v-.8h9.8l.6-.2,1.3,1c-1.2,1.1-3.3,2.4-4.8,3.1.4.3.7.5,1,.8l-.6.7h4.7l.6-.3,1.3,1Z"/>
        <path class="cls-18" d="M619.4,401.6v3.7h-1.2v-3h-12.2v3.1h-1.2v-3.8h7.9c-.8-.8-2-1.7-2.9-2.4l.3-.5c1,.4,2.8,1.3,3.6,1.9l-.7,1h6.4ZM618.7,410.1c.6,3.7.5,4.6-1.7,4.7-2.3.1-4.5.1-6.9,0-1.5,0-2.4-.3-2.4-2.3v-8.5h1.3v5.1c3.1-1.2,5.3-2.5,6.8-3.6l1.2,1c-1.9,1.1-4.7,2.4-7.9,3.2v2.4c0,1.3.5,1.5,1.8,1.5,2,0,3.9,0,5.9,0,1.4,0,1.4-.4,1.4-3.6h.5Z"/>
        <path class="cls-18" d="M627.3,410.2v5.3h-1.2v-5c-.8,1.2-2,2.8-3.6,3.8l-.3-.4c1.5-1.2,3-3.3,3.7-5.1h-3.2v-.7h3.4v-1.8h1.2v1.8h3.2v.7h-3.2v.6c.9.6,2.1,1.6,2.9,2.4l-.9.9c-.6-.8-1.4-1.8-2.1-2.6ZM630.9,406h-8.5v-.7h2.6c-.3-.9-.9-2.1-1.3-2.9l.4-.3c.6.6,1.5,1.8,1.9,2.7l-1,.5h2.3c.3-1,.7-2.2.8-3.2l1.2.4c-.4,1-1,2.1-1.5,2.8h2.9v.7ZM630.4,401.9h-7.7v-.7h3.8c-.6-.7-1.3-1.4-2-2.1l.3-.4c.9.5,1.9,1.1,2.7,1.8l-.6.7h3.4v.7ZM638.4,405.5h-2v10h-1.2v-10h-2.7v.5c0,4.2-.5,7.6-2.8,9.7l-.4-.4c1.7-2.1,2-4.8,2-8.9v-6.1l1.2.4c1.5-.4,2.9-1,4.2-1.8l1,1c-1.7.8-3.4,1.2-5.2,1.4v3.6h5.9v.7Z"/>
        <path class="cls-18" d="M644.2,402.4h3.3v12.6h-1.2v-1.7h-3.7v2h-1.2v-13h2.1c.3-1.1.5-2.5.6-3.6l1.4.3c-.4,1.1-.9,2.4-1.4,3.3ZM646.3,403.1h-3.7v4.1h3.7v-4.1ZM646.3,412.6v-4.7h-3.7v4.7h3.7ZM656,402.4c0,5.4-.2,9-.4,11.2-.2,1.9-1.7,2.7-5.6,1v-.5c3.8.7,4.2.4,4.4-1,.2-1.6.4-4.8.4-9.9h-4.4c-.5,1.4-1.2,2.9-2.2,4.2l-.5-.3c1.3-2.5,2-5.6,2.4-8.2l1.4.3c-.2,1-.4,2.2-.8,3.3h5.4ZM651.8,410.5c-.6-1.6-1.5-3.2-2.3-4.6l.4-.3c1.1,1.2,2.4,2.9,3,4.3l-1.2.7Z"/>
        <path class="cls-18" d="M673.4,415.4c-2.1-1.1-2.2-6.1-2.2-10.4v-4.5h-9.7v4.3c0,6.2-.7,8.9-2.6,11l-.4-.4c1.6-2.4,1.8-5,1.8-10.6v-5h12.1v5c0,4.2,0,7.5,1,8.8.5.9.6,0,.6-3.2h.5c.6,4,0,5.7-1.2,5ZM669.1,410.4c.8,1.1,1.7,2.6,2.3,4l-1.1.5c-.2-.6-.4-1.2-.7-1.8-2.3.6-5.7,1.3-7.7,1.5l-.3-1.3c1.3,0,2.7-.2,4.2-.3v-3.3h-3.1v-4.6h3.1v-2.1h-3.6v-.7h8.2v.7h-3.5v2.1h3v4.6h-3v3.1c.8-.1,1.7-.2,2.4-.3-.3-.6-.6-1.3-.8-1.8l.5-.3ZM665.8,409v-3.2h-1.9v3.2h1.9ZM667,409h1.9v-3.2h-1.9v3.2Z"/>
        <path class="cls-18" d="M677.1,402.2l-.2-.6c2.1-.9,3.3-1.6,4.6-2.8l1,.8c-1.3,1-3.3,2.1-5.5,2.6ZM683.3,411.9c-.1,3.7-2,4.3-4.6,2.4l.2-.5c2.4.9,3.1.6,3.2-1.7,0-.7,0-1.5,0-2.2-1.2,1.6-3.2,3.1-4.9,3.8l-.3-.5c1.7-.9,3.6-2.7,4.9-4.8,0-.5-.2-.9-.3-1.3-1.2,1.4-3,2.7-4.4,3.3l-.2-.5c1.6-1,3.1-2.4,4.2-4l-.3-.7c-1.1.8-2.4,1.5-3.6,1.8l-.2-.5c.8-.4,1.6-.8,2.3-1.3-.3-.7-1-1.7-1.3-2.3l.4-.3c.5.5,1.3,1.4,1.8,2.1.4-.3.7-.6,1-.9-.4-.6-.8-1.3-1.2-1.8l.4-.4c.5.4,1.1,1,1.5,1.5.4-.4.8-.8,1.1-1.2l.9.7c-.5.6-1.4,1.5-2.6,2.3,1.6,2.1,2.1,4.9,2,7.2ZM691,415c-2.3,0-2.8-.1-2.8-1.9v-5.1h-1.1c0,3.7-1.2,6.5-4.4,7.7l-.3-.5c2.5-1.3,3.4-3.5,3.5-7.2h-1.9v-6.5h2.4c.3-.9.6-1.9.8-2.8l1.5.4c-.4.8-1.1,1.8-1.6,2.4h4.4v6.5h-2.1v4.9c0,1,.1,1.1,1.5,1.1s1.2-.4,1.1-3.2h.5c1.1,4.3.2,4.3-1.5,4.3ZM685.3,404.3h5.1v-2.1h-5.1v2.1ZM685.3,407.3h5.1v-2.3h-5.1v2.3Z"/>
        <path class="cls-18" d="M701.7,410.4c1.4-.7,2.2-1.9,2.2-3.2-.2.2-.6.3-.8.3-.7,0-1.2-.5-1.2-1.3,0-.8.5-1.3,1.3-1.3.9,0,1.6.5,1.7,1.6.1,1.8-.8,3.7-2.8,4.3l-.3-.4Z"/>
        <path class="cls-18" d="M716.8,403.2v12.4h-1.2v-9.9c-.7,1.2-1.4,2.1-2.2,2.9l-.4-.4c1.6-2,2.9-5.1,3.8-9.3l1.3.3c-.3,1.5-.8,2.9-1.3,4.1ZM729.4,413.9v.8h-11.7v-.8h11.7ZM720.5,412h-1.2v-11.5h8.4v11.5h-1.2v-1.4h-6v1.4ZM720.5,405.1h6v-3.9h-6v3.9ZM720.5,409.9h6v-4.2h-6v4.2Z"/>
        <path class="cls-18" d="M450.1,423.2v3.7h-1.2v-3h-12.2v3.1h-1.2v-3.8h7.9c-.8-.8-2-1.7-2.9-2.4l.3-.5c1,.4,2.8,1.3,3.6,1.9l-.7,1h6.4ZM449.4,431.7c.6,3.7.5,4.6-1.7,4.7-2.3.1-4.5.1-6.9,0-1.5,0-2.4-.3-2.4-2.3v-8.5h1.3v5.1c3.1-1.2,5.3-2.5,6.8-3.6l1.2,1c-1.9,1.1-4.7,2.4-7.9,3.2v2.4c0,1.3.5,1.5,1.8,1.5,2,0,3.9,0,5.9,0,1.4,0,1.4-.4,1.4-3.6h.5Z"/>
        <path class="cls-18" d="M456.4,424.9v12.3h-1.2v-10c-.7,1.2-1.5,2.2-2.4,3l-.4-.4c1.9-2.4,3.2-5.5,3.9-9.3l1.3.3c-.3,1.5-.8,2.8-1.3,4.1ZM469,435.8l-.9,1.2c-2.1-1.5-4.5-5.5-4.8-12.5h-.9c-.3,1-.7,2-1.2,3v7.5c1.2-.3,2.4-.7,3.2-1l.2.5c-1.4.8-4.4,2-6.3,2.5l-.5-1.2c.6-.1,1.3-.3,2.1-.5v-5.9c-.8,1.1-1.7,2.1-2.8,2.9l-.3-.4c2.3-2.3,3.6-5.1,4.2-7.3h-3.6v-.7h5.5c-.6-1.1-1.4-2.4-2-3.1l.4-.4c.8.6,1.8,1.7,2.7,2.8l-.9.7h5.3v.7h-4.6c.2,1.9.5,3.5.9,4.9.8-.8,1.6-1.7,2.3-2.8l1,.9c-.9.9-2.1,1.9-3.1,2.5.9,2.7,2.3,4.5,4.1,5.8Z"/>
        <path class="cls-18" d="M481.8,425.8c-.6,3.4-2.3,5.5-5.7,6.9l-.2-.5c2.9-1.5,4.2-3.2,4.8-6.4h-2.5c-1.1,3.3-3.2,5.7-6.7,7.3l-.3-.5c3.4-1.8,5.7-4.8,6.2-9.1h-2.7c-.1.3-.3.7-.5,1,.7.4,1.5,1,2.1,1.6l-.8.8c-.4-.6-1.1-1.3-1.6-1.9-.3.6-.6,1.1-1,1.6.7.5,1.5,1.1,2.1,1.7l-.9.8c-.4-.7-1.1-1.5-1.6-2.1-.4.5-.9,1-1.4,1.5l-.4-.4c1.8-2.1,2.9-4.9,3.3-7.7l1.3.3c-.1.7-.3,1.4-.5,2h2.3l.4-.3,1.2.5c-.1.8-.2,1.5-.4,2.1h2.4c.2-1.3.2-2.8.3-4.6h1.2c0,1.7,0,3.2-.3,4.6h4.3v.7h-3.8c.6,2.4,2.4,4.4,4.7,5.7l-.9,1.3c-2.6-1.6-3.9-4.4-4.3-7h-.2ZM473.6,432.8l.5.2c-.3,1.6-1.3,3.4-2.2,4.3l-1.1-.9c1-.8,2.2-2.3,2.8-3.6ZM476.6,433c.7,1.1,1.3,2.6,1.7,3.8l-1.3.4c-.2-1.2-.5-2.7-.9-4l.5-.2ZM480.2,432.7c.9,1.1,1.8,2.6,2.4,3.7l-1.3.6c-.4-1.2-1-2.8-1.6-4.1l.5-.3ZM484.1,424.4c-.3-.9-.9-2.4-1.3-3.2l.5-.3c.6.7,1.5,2.1,2,3l-1.1.6ZM484,432.6c1,1,2.2,2.5,2.8,3.7l-1.2.7c-.5-1.2-1.3-2.8-2-4.1l.4-.3Z"/>
        <path class="cls-18" d="M505,435.1l-.5,1.5c-1.2.1-3.7.1-5,0-3.2-.2-5.6-1.4-6.7-4-.7,2.1-2.1,3.8-3.8,4.7l-.3-.5c2-1.5,3-3.8,3.3-6.8h1.4c0,.7-.2,1.3-.3,1.8.8,1.6,1.9,2.5,3.3,3v-5.7h-7.3v-.8h15.5v.8h-6.9v2.3h5.4v.7h-5.4v3c.6,0,1.3.1,2,.1,1.9,0,3.7,0,5.3-.3ZM502,427h-9.8v-5.7h9.8v5.7ZM500.8,422.1h-7.4v1.7h7.4v-1.7ZM500.8,424.5h-7.4v1.8h7.4v-1.8Z"/>
        <path class="cls-18" d="M522.2,428.2l-1.2.8c-.4-.7-.8-1.5-1.4-2.4-3,.6-8,1.3-11.8,1.5l-.4-1.5c.7,0,1.5,0,2.3,0,1.4-1.7,2.9-4.3,3.9-6.3l1.4.7c-1.2,1.9-2.8,4.1-4.4,5.6,3.1,0,6.4-.3,8.6-.6-.7-1-1.4-2-2.1-3l.5-.4c1.6,1.5,3.7,4,4.6,5.4ZM509.5,429.8h10.6v7.4h-1.3v-1.4h-8v1.4h-1.3v-7.4ZM510.8,435.1h8v-4.6h-8v4.6Z"/>
        <path class="cls-18" d="M533.1,433.7l.2.5c-2.1,1.2-6.4,2.4-8.3,2.7l-.4-1.3c1.3-.2,3.3-.6,5.2-1.1v-6.8h-5v-.8h5v-6.4h1.2v13.7c.8-.2,1.5-.4,2-.6ZM539,436.4c-.8,0-2,0-2.9,0-1.8,0-2.2-.4-2.2-2.4v-13.5h1.2v7.3c1.3-.8,3-2,4.3-3.2l.9,1c-1.5,1.1-3.8,2.3-5.2,2.9v5.4c0,.9,0,1.2,1.2,1.2.8,0,1.7,0,2.5,0,.9-.1.9-.5.9-4.2h.6c.6,4.5.6,5.2-1.4,5.3Z"/>
        <path class="cls-18" d="M545.3,426.9c0,5.7-.4,8.4-1.9,10.3l-.5-.3c1.1-2.2,1.2-4.1,1.2-9.7v-6h14.2v.7h-13v5ZM552.9,435.8h5.6v.7h-13.3v-.7h2.7v-4.2h1.1v4.2h2.7v-5.3h1.2v2.3h4.2v.7h-4.2v2.3ZM548.7,431.1v-3.2c-.7,1.2-1.6,2.2-2.6,3.1l-.3-.4c.9-1,2-2.5,2.7-4.2h-2.3v-.7h2.6v-1.4c-.8.2-1.6.3-2.4.3v-.5c1.7-.3,3.6-.9,4.7-1.5l.9.9c-.7.2-1.4.4-2.1.6v1.7h2.2v.7h-2.2v.3c.7.5,1.4,1,2.1,1.7l-.7.7c-.4-.6-.9-1.2-1.4-1.7v3.7h-1.1ZM554.3,431.1v-3.7c-.7,1.2-1.8,2.3-3.2,3.2l-.3-.4c1.3-1,2.5-2.4,3.1-3.8h-1.7v-.7h2.1v-1.4c-.7.2-1.5.3-2.3.4v-.5c1.7-.4,3.5-1,4.7-1.7l.8.9c-.6.2-1.3.5-2.1.7v1.7h2.6v.7h-2.4c.7,1.4,2,2.5,3.1,3.2l-.7,1c-.9-.7-1.9-1.9-2.6-3.4v4h-1.1Z"/>
        <path class="cls-18" d="M576.5,436.7c-3,0-6.2-.6-9-2.5-1.4,1.5-3.5,2.4-6.5,3l-.2-.5c2.7-.7,4.6-1.6,5.8-3.1-1.1-.9-2.1-2-2.9-3.3l.4-.3c.9,1.2,1.9,2.2,3,2.9.6-1,1-2.3,1.1-4h-5.5v-5.3h5.6v-3.1h1.3v3.1h5.5v5.3h-5.6c-.2,1.9-.6,3.4-1.4,4.6,2.6,1.4,5.5,1.8,8.8,1.9l-.5,1.5ZM568.4,428.1c0-.3,0-.7,0-1.1v-2.8h-4.3v3.9h4.3ZM569.7,424.2v3.1c0,.3,0,.6,0,.8h4.4v-3.9h-4.3Z"/>
        <path class="cls-18" d="M582.4,424h3.3v12.6h-1.2v-1.7h-3.7v2h-1.2v-13h2.1c.3-1.1.5-2.5.6-3.6l1.4.3c-.4,1.1-.9,2.4-1.4,3.3ZM584.5,424.7h-3.7v4.1h3.7v-4.1ZM584.5,434.2v-4.7h-3.7v4.7h3.7ZM594.3,424c0,5.4-.2,9-.4,11.2-.2,1.9-1.7,2.7-5.6,1v-.5c3.8.7,4.2.4,4.4-1,.2-1.6.4-4.8.4-9.9h-4.4c-.5,1.4-1.2,2.9-2.2,4.2l-.5-.3c1.3-2.5,2-5.6,2.4-8.2l1.4.3c-.2,1-.4,2.2-.8,3.3h5.4ZM590,432.1c-.6-1.6-1.5-3.2-2.3-4.6l.4-.3c1.1,1.2,2.4,2.9,3,4.3l-1.2.7Z"/>
        <path class="cls-18" d="M612.8,435.8v.7h-15.9v-.7h7.3v-1.8h-5.9v-.7h5.9v-1.6h-5v-5.5h5v-1.5h-6.9v-.7h6.9v-1.7c-2.1.2-4.2.3-5.6.3v-.6c3.4-.2,7.7-.7,10.9-1.7l1.1,1c-1.3.3-3.2.6-5.1.8v1.8h7.1v.7h-7.1v1.5h5v5.5h-5v1.6h5.9v.7h-5.9v1.8h7.4ZM604.1,426.9h-3.8v1.6h3.8v-1.6ZM604.1,429.2h-3.8v1.7h3.8v-1.7ZM605.4,426.9v1.6h3.8v-1.6h-3.8ZM609.2,429.2h-3.8v1.7h3.8v-1.7Z"/>
        <path class="cls-18" d="M626.7,431.1c-.4,1.2-.9,2.2-1.6,3.1,1.6.5,3.2,1,4.6,1.7l-.8,1.3c-1.6-.9-3.2-1.6-4.7-2.2-1.8,1.4-4.6,2.1-9.1,2.3v-.6c3.6-.3,6.2-1,7.9-2.2-1-.3-2.1-.6-3.3-.9-.4.5-.7.9-1,1.3l-1-.6c.7-.9,1.5-2,2.3-3.2h-4.7v-.7h5.2c.4-.7.8-1.3,1.1-1.9h-4.7v-4.3h3.7v-1.9h-4.8v-.7h14.4v.7h-4.8v1.9h3.8v4.3h-7.1l.9.3c-.3.5-.5,1-.9,1.6h8.7v.7h-3.8ZM620.5,424.9h-2.5v2.9h2.5v-2.9ZM625.4,431.1h-4c-.4.7-.9,1.3-1.3,2,1.2.2,2.5.4,3.8.7.7-.7,1.2-1.6,1.6-2.7ZM621.6,424.2h2.5v-1.9h-2.5v1.9ZM621.6,427.8h2.5v-2.9h-2.5v2.9ZM625.2,427.8h2.6v-2.9h-2.6v2.9Z"/>
        <path class="cls-18" d="M649,434.6l-.6,1.3c-1.5-.5-3.6-2.1-4.7-4.7-.4.2-.7.4-1,.5.2.8.3,1.5.3,2.3,0,3.5-2,4.1-5.1,2.4l.2-.5c2.8.9,3.5.6,3.7-1.9,0-.5,0-1,0-1.5-2.1,1.6-5.6,2.8-8.6,3.2v-.5c3.2-.7,6.5-2.2,8.4-3.9,0-.4-.2-.7-.4-1.1-1.9,1.3-5.3,2.6-7.9,3v-.5c2.6-.5,5.8-1.9,7.4-3.4-.1-.2-.3-.5-.5-.7-2.1,1.2-5.1,1.9-7.1,2.2v-.5c2.1-.5,5.1-1.4,6.7-2.6h-4.5v-2.7c-.6.4-1.2.7-1.9,1l-.2-.5c2.4-1.3,4.2-3.5,5-4.9l1.4.5c-.3.4-.5.8-.8,1.1h3.4l.5-.2,1.1.7c-.5.6-1.1,1.2-1.7,1.7h5v3.4h-5.3c-.3.2-.5.4-.8.6.8,1,1.4,1.9,1.7,2.8,1.1-.7,2.3-1.7,3.1-2.8l1,.8c-.8.6-1.6,1.2-2.5,1.7,1.2,2.1,3.2,3.2,4.8,3.7ZM636.4,424.2h4.7c.4-.5.8-1.2,1-1.5h-4c-.5.5-1.1,1-1.7,1.5ZM636.5,427h4.1v-2.1h-4.1v2.1ZM645.7,424.9h-4v2.1h4v-2.1Z"/>
        <path class="cls-18" d="M653.9,427.1v10.1h-1.1v-8.8c-.6.6-1.3,1.2-2,1.7l-.3-.5c1.6-1.4,3-3.6,3.8-5.6l1.1.6c-.4.8-.9,1.6-1.4,2.4ZM651.1,425.7l-.4-.4c1.2-1.3,2.4-3.2,3.1-4.9l1.1.5c-.9,1.8-2.2,3.5-3.8,4.8ZM661.7,434.1c-1.6.9-4.6,1.9-6.6,2.4l-.4-1.2c.8-.1,1.8-.3,2.8-.5v-2.6h-2.3v-.7h2.3v-2h-2.6v-.7h6.2v.7h-2.5v2h2.3v.7h-2.3v2.3c1.1-.3,2.1-.6,2.8-.8l.2.5ZM655.2,426.7h5.6v.7h-5.6v-.7ZM661,425.5h-5.6v-3.7h1v3h1.2v-4.2h1v4.2h1.3v-3h1v3.7ZM667,436l-1,1.1c-1-1-1.8-2.1-2.4-3.3-.9,1.4-2.2,2.6-3.9,3.5l-.3-.5c1.5-1,2.8-2.3,3.7-4.1-.6-1.7-.9-3.7-1-6-.3.6-.6,1.2-1,1.7l-.4-.3c1-2,1.5-4.6,1.8-7.6h1.1c-.1,1.5-.3,2.8-.7,4h3.8v.7h-.9c0,2.6-.4,5.2-1.5,7.5.7,1.3,1.6,2.4,2.8,3.3ZM663.7,431.5c.6-1.7,1-3.8,1-6.3h-2c0,.1-.1.3-.1.4.1,2.4.5,4.3,1.1,5.9Z"/>
        <path class="cls-18" d="M674.6,428.8c0-1.2,1-2.2,2.2-2.2s2.2,1,2.2,2.2-1,2.2-2.2,2.2-2.2-1-2.2-2.2ZM678.3,428.8c0-.8-.6-1.5-1.5-1.5s-1.5.6-1.5,1.5.6,1.5,1.5,1.5,1.5-.6,1.5-1.5Z"/>
      </g>
      <line class="cls-8" x1="423.8" y1="332.9" x2="720.3" y2="332.9"/>
    </g>
  </g>
</svg>