<?xml version="1.0" encoding="UTF-8"?>
<svg xmlns="http://www.w3.org/2000/svg" version="1.1" viewBox="0 0 800 600">
  <defs>
    <style>
      .cls-1, .cls-2, .cls-3, .cls-4, .cls-5, .cls-6, .cls-7, .cls-8, .cls-9, .cls-10, .cls-11, .cls-12, .cls-13, .cls-14, .cls-15, .cls-16, .cls-17, .cls-18, .cls-19, .cls-20, .cls-21, .cls-22, .cls-23 {
        stroke-miterlimit: 10;
      }

      .cls-1, .cls-2, .cls-3, .cls-4, .cls-5, .cls-6, .cls-7, .cls-8, .cls-9, .cls-10, .cls-12, .cls-13, .cls-14, .cls-15, .cls-16, .cls-17, .cls-18, .cls-19, .cls-20, .cls-21, .cls-22, .cls-23 {
        stroke: #000;
      }

      .cls-1, .cls-3, .cls-7, .cls-11, .cls-15, .cls-22 {
        fill: none;
      }

      .cls-2, .cls-3, .cls-4, .cls-10, .cls-14, .cls-18, .cls-22 {
        stroke-width: 3px;
      }

      .cls-2, .cls-8 {
        fill: #333;
      }

      .cls-3, .cls-7, .cls-11, .cls-15 {
        stroke-linecap: round;
      }

      .cls-4, .cls-21 {
        fill: #1b1464;
      }

      .cls-5 {
        fill: #dfb25b;
      }

      .cls-6, .cls-12 {
        fill: #f9bb3d;
      }

      .cls-7, .cls-12, .cls-19, .cls-23 {
        stroke-width: 2px;
      }

      .cls-24, .cls-9 {
        fill: #fff;
      }

      .cls-10 {
        fill: #434848;
      }

      .cls-11 {
        stroke: #fff;
      }

      .cls-13 {
        fill: #c69c6d;
      }

      .cls-14 {
        fill: #006837;
      }

      .cls-16 {
        fill: #e6e6e6;
      }

      .cls-17 {
        fill: #b3b3b3;
      }

      .cls-18, .cls-19 {
        fill: #ccc;
      }

      .cls-20 {
        fill: #f9f5cf;
      }

      .cls-25 {
        fill: #53b2a7;
      }

      .cls-23 {
        fill: #8c6239;
      }
    </style>
  </defs>
  <!-- Generator: Adobe Illustrator 28.7.4, SVG Export Plug-In . SVG Version: 1.2.0 Build 166)  -->
  <g>
    <g id="Layer_1">
      <g>
        <rect class="cls-25" x="100" y="-100" width="600" height="800" transform="translate(100 700) rotate(-90)"/>
        <g>
          <path class="cls-24" d="M45.8,102.8c1.9-4.6,6.5-15.4,9.5-22.2,2.6,1.5,5.5,3.2,8.2,3.9-2.7,7.2-6,15.6-9.1,22.6l-8.6-4.3ZM50,60.1c3.9,1.4,7.6,3.6,11.2,5.8l-4.3,8.3c-3.7-2.4-7.1-4.5-11.1-6l4.2-8.1ZM53,42.8c4.2,1.7,8.4,4.1,12.3,6.8l-5.1,8.4c-3.6-2.4-7.8-5.3-12-7.3l4.8-7.8ZM110.7,43.5v21.1h-34.1c-.2,16.2-.4,29.2-10.2,41.5-2.7-2.6-5.3-4.5-8.3-6,3.2-4.4,8.1-11.2,8.8-26.4,0-2.7.1-6.5.1-30.1h43.6ZM76.6,56.4h24.1v-4.7h-24.1v4.7ZM88.9,66.5v9c7.3-2,12.3-3.7,17.5-5.8l5.5,8.9c-7.1,2.4-14.8,4.5-23,6.3v9.6c0,2.2.5,2.6,3.4,2.6h6.2c2.7,0,4,0,4.4-.7.5-.9.8-3.1,1.8-7.3,2.9,1.7,6,3.2,9.4,4.2-1.8,10-4.5,12.8-12.5,12.8-14.5,0-15.6,0-18.4-1.3-3.9-1.7-4.2-5.3-4.2-8.6v-29.7h10Z"/>
          <path class="cls-24" d="M126.8,57.2c-.2,8.5-.6,11.4-2,18.1l-8.1-1.4c1.4-5.5,1.5-7.6,2.3-17.8l7.8,1.2ZM137,42.2v13.7c1.3-1.2,2.6-2.4,3.9-3.8l.6.6v-5.2h6v-5.3h9.7v5.3h9.9v-5.3h10.1v5.3h6v8.4h-6v20.7h-9.9v2.4h16v8.1h-10.7c4,4.3,8.7,7.9,14,10.7-2.4,2.5-4.5,5-6.1,7.8-5.9-3.5-9.4-6.5-13.1-10.9v12.2h-10.1v-12.5c-5.7,6.1-9.1,9-14.4,11.7-1-2.2-2.2-4.2-3.7-6.2l-1.4,1.2c-2.1-2.2-3.9-5-5.5-7.8-2.8,7.3-5.3,11.4-8.3,15.3-1.8-3.1-4-6-6.6-8.5,5-6.5,8.5-13.4,9.7-27.9.1-2.1.4-4.7.4-30h9.6ZM144.5,56l2.5,3c-3.5,3-6.8,5.8-10.3,8.8-.3,4.6-.4,9.1-1.3,13.7,1.4,2.9,3.6,7,8.6,12.2,2.7-1.7,5.3-4,7.4-6.3h-9.9v-8.1h15.8v-2.4h-9.7v-20.7h-3.1ZM157.3,58.8h9.9v-2.9h-9.9v2.9ZM157.3,66.2v3.1h9.9v-3.1h-9.9Z"/>
          <path class="cls-24" d="M203.2,58.6c0,22,0,34.8-7.4,48.5-1.9-3-4.5-5.8-7.3-7.9,5.4-11.4,5.4-16.3,5.4-49.3h35.9v-8.1h10.2v2.6l3.5-3.9c3.2,2,7,4.8,9.9,7.3l-1.9,2h3.4v8.7h-14.7c0,1.7,0,10.2,1.5,18.9,1.7-4.2,2.7-8.7,3.7-13.1l9.5,3.2c-2.3,8.9-4.4,14.9-9.6,22.8,1.1,1.7,2.2,3.8,3,3.8,1.2,0,1.7-3.1,2.3-6.1,2.5,1.9,5.4,3.5,8.6,4.5-3.7,13-6.8,14.8-9.9,14.8-4.9,0-9.1-6-10.7-8.4-3.5,3.7-7.7,6.7-12.1,9.4-1.4-3-3.5-5.7-6-7.9l2.3-1.4-2.7-1.7c-3.2,4-6.4,7.2-12.8,10.7-1.2-3-3-5.5-5.1-8.1,4.3-1.9,7.1-3.7,10.2-6.8l-1.9-1.2-.4,1.2-7.6-2.7c1.4-4.4,2.6-8.3,3.5-11.7h-1.7v-7.5h3.7l.8-3.4h-4.5v-7.1h24.6v7.1h-11.4l-.8,3.4h11.4c-.8,9-1.7,13.1-3.3,17.6l3.7,2.3-4.6,7.1c3.7-2.2,7.3-5.4,10.6-8.6-2-6.6-4.2-14.6-4.2-31.2h-26.9ZM214.5,78.8c-.3,1.5-.9,3.5-1.2,5,1.2.4,2.5.9,3.6,1.4.5-1.9.9-4.5,1.2-6.3h-3.6ZM240,49.8h3.9c-1.1-1-2.5-1.9-3.9-2.8v2.8Z"/>
          <path class="cls-24" d="M300.7,42.7v18.5h26.4v11.1h-26.4v21.3h22v10.6h-54.5v-10.6h20.5v-21.3h-25.3v-11.1h25.3v-18.5h12Z"/>
          <path class="cls-24" d="M349.8,89.5c-2.4,5.8-3.6,8-7.3,14.3l-8.3-4.5c2.9-4.6,4.2-7.1,7.3-13.9l8.4,4ZM391.6,43.8v23.4h-10.7v-1.8h-28.5v5c0,3,1.7,3.1,7.4,3.1s20.6,0,24,0,3.5-.4,4.5-5.1c3,1.3,6.4,2.5,9.6,3.4-3,8.4-5.1,9.7-10.9,10-1.8,0-4.5,0-17.1,0,2.1,1.9,4.6,4.4,6.6,7.1l-7.1,6c-2.8-3.6-5.8-7.1-8.9-10.2l3.5-2.9c-11.1,0-12.9,0-15.8-.8-5-1.3-6.5-4.8-6.5-8.1v-15.8h39v-4.2h-39.4v-9h50ZM360.4,84.7v10.8c0,2.7,1.2,3,4.1,3,11.5,0,11.7-.2,12.1-1,.4-.6,1-3.2,1.3-5.3,3.2,1.7,6.7,3.1,9.9,4.2-3.2,9.4-5.5,10.2-12.8,10.2h-10.2c-10.5,0-14.4-1-14.3-9.6v-12.4h9.9ZM391.6,84.3c4.4,4.8,7.7,9,10.3,13.2l-8,5.6c-3.7-5.8-6.2-8.9-9.8-13.2l7.5-5.6Z"/>
          <path class="cls-24" d="M62.7,116.9v12.2h4.7v10h-4.7v6.3c1.7-.4,3.2-.8,4.8-1.2v9.1c-1.5.6-3.2,1.1-4.8,1.5v17.2c0,3.9,0,10-13.5,10-.3-3.3-1.4-6.3-2.2-9.4h4.4c1.2,0,1.7-.3,1.7-1.1v-14.2c-1.7.5-3.5,1-5.1,1.5l-2.2-9.6c2.4-.4,4.8-1,7.3-1.5v-8.8h-5.3v-10h5.3v-12.2h9.6ZM87.6,117.1c0,27.4-.4,31.9-.6,36.1-.9,19.4-11.2,25.4-17.6,29.2-1.7-3-3.3-5.6-5.7-8.1,5.8-3.2,8.5-5.7,11.9-10.9-3,.9-5.8,1.5-8.9,2.2l-1.7-9.1c4.1-.5,8.1-.9,12.5-1.6.1-1.2.4-2.5.4-4h-8.1v-8.4h8.3v-3.9h-8.9v-8.9h8.9v-12.6h9.5ZM100.3,117.1v12.6h10.9v8.8h-10.9v4.3h10.5v8.6h-10.5v6.1h12v9.1h-12v15.1h-9.6v-64.7h9.6Z"/>
          <path class="cls-24" d="M127.6,157.8c-1.3,1.2-2.4,2.2-3.8,3.1-1.6-3-3.9-6.6-6.9-9.1,6.8-4.8,14.6-13.4,19.8-21l8.8,6-1.2,1.4h39.9v10.2h-8.4v24.6c0,6.6-1.8,10-15.8,10-.4-3.3-1.6-6.6-3.3-9.7h6.5c1,0,1.4-.4,1.4-1.6v-23.3h-21.4v-8.2c-1.7,2.3-3.2,4.3-4.9,6.3v35.6h-10.6v-24.3ZM143.5,122.7c-5.8,5.9-12.2,11-19.3,15.3-1.6-3.5-3.9-6.6-6.8-9,6.6-3.5,12.5-8.1,17.9-13.4l8.3,7.1ZM180,118.7v10.1h-33.6v-10.1h33.6Z"/>
          <path class="cls-24" d="M239.6,116.8v4.3h14.5v8.5h-5.5c-.6,1.7-1.3,3.5-2,5.3h9.7v13.3h-9.3v-5.6h-24.8v5.7h-6.8c0,0,.9.6.9.6l-.5.6h13v-5.7h10.8v5.7h15.9v8h-20.4c-.1.7-.2,1.4-.4,2.2h17.8c-1.1,19.8-2.2,22.5-15.5,22.8-.6-3-1.5-5.9-3.2-8.4h5.3c1.6,0,1.9,0,2.6-6.7h-9.2c-4,9.6-12,13-17.8,15-1.2-3.2-3-6.3-5.5-8.7,10.6-3.5,13.7-6.6,15.8-16.2h-10.7v-5.3c-.9,1.5-2,3.3-3,5.3-.9-.9-1.9-1.5-3-2.5v27.4h-10.2v-21.2c-1.7,3.4-2.5,4.8-4.6,7.5-1-4-2.4-7.8-4.7-11.5,4.7-6.3,6.8-12.2,8.9-18.1h-6v-10.1h6.4v-12h10.2v12h5.5v6h8.4c-.6-1.9-1.4-3.7-2-5.3h-5.2v-8.5h13.1v-4.3h11.4ZM208.3,139v3.2c1.3,1.6,2.9,3,4.7,4.4v-7.6h-4.7ZM230.4,129.6c.8,1.8,1.4,3.6,2.2,5.3h4c.6-1.7,1.3-3.5,1.7-5.3h-8Z"/>
        </g>
        <g>
          <g>
            <g>
              <rect class="cls-18" x="123.4" y="208.9" width="17.3" height="13.8"/>
              <rect class="cls-19" x="123.4" y="214.6" width="17.3" height="3.1"/>
              <rect class="cls-18" x="124.5" y="222.7" width="15.1" height="27.2"/>
              <path class="cls-10" d="M149.6,267.3c-.2-1.5-1.4-2.7-2.9-2.9l-3.5-.4c-2.2-.3-3.8-2.1-3.8-4.3v-9.5h-15v9.5c0,2.2-1.6,4-3.8,4.3l-3.4.4c-1.5.2-2.7,1.4-2.9,2.9-.8,7-3.1,27.8-3.1,53.9s3.4,76.2,3.4,76.2h34.5s3.4-43.9,3.4-76.2-2.2-46.8-3.1-53.8Z"/>
              <rect class="cls-9" x="122.5" y="276.5" width="7.8" height="57.9"/>
              <rect class="cls-6" x="117.8" y="276.5" width="3.1" height="30.6"/>
            </g>
            <line class="cls-3" x1="82" y1="397.4" x2="182" y2="397.4"/>
          </g>
          <g>
            <g>
              <polygon class="cls-2" points="266.3 232.4 258.5 232.4 258.5 256.4 266.3 256.4 274.5 256.4 274.5 232.4 266.3 232.4"/>
              <path class="cls-14" d="M283.8,291.7l-4.9-4c-2.6-2.1-3.7-5.5-2.8-8.7.7-2.5,1.3-4.6,1.3-7.3,0-5.7-3.9-14.2-3.9-14.2h-14.4s-3.9,8.4-3.9,14.2.7,5.3,1.3,7.8c.9,3.2-.2,6.4-2.8,8.5l-4.9,3.9c-4.5,3.7-7,9.1-6.8,14.9l2,75.8-.8,8.3c-.4,3.3,2.2,6.6,5.6,6.6h35.1c3.3,0,5.9-3.3,5.6-6.6l-.8-8.1,2-75.9c.2-5.8-2.4-11.4-6.8-15.1Z"/>
              <g>
                <rect class="cls-12" x="250.1" y="323.2" width="33.7" height="33.7"/>
                <rect class="cls-8" x="255" y="328.2" width="23.7" height="23.7"/>
              </g>
            </g>
            <line class="cls-3" x1="216" y1="397.4" x2="316" y2="397.4"/>
            <line class="cls-7" x1="261" y1="281.9" x2="272" y2="281.9"/>
            <line class="cls-7" x1="259" y1="286.9" x2="274" y2="286.9"/>
            <line class="cls-7" x1="249" y1="390.9" x2="284" y2="390.9"/>
          </g>
          <g>
            <g>
              <polygon class="cls-2" points="534.4 232.4 526.5 232.4 526.5 256.4 534.4 256.4 542.5 256.4 542.5 232.4 534.4 232.4"/>
              <path class="cls-14" d="M551.9,291.7l-4.9-4c-2.6-2.1-3.7-5.5-2.8-8.7.7-2.5,1.3-4.6,1.3-7.3,0-5.7-3.9-14.2-3.9-14.2h-14.4s-3.9,8.4-3.9,14.2.7,5.3,1.3,7.8c.9,3.2-.2,6.4-2.8,8.5l-4.9,3.9c-4.5,3.7-7,9.1-6.8,14.9l2,75.8-.8,8.3c-.4,3.3,2.2,6.6,5.6,6.6h35.1c3.3,0,5.9-3.3,5.6-6.6l-.8-8.1,2-75.9c.2-5.8-2.4-11.4-6.8-15.1Z"/>
              <polygon class="cls-2" points="510.5 317.4 512.2 382.6 556.7 383 558.4 317.4 510.5 317.4"/>
              <rect class="cls-17" x="518.4" y="324.3" width="32.3" height="7.3"/>
              <rect class="cls-6" x="518.4" y="337.3" width="32.3" height="2.7"/>
              <rect class="cls-6" x="518.4" y="361.2" width="32.3" height="2.7"/>
            </g>
            <line class="cls-3" x1="484" y1="397.4" x2="584" y2="397.4"/>
            <line class="cls-7" x1="530" y1="279.9" x2="540" y2="279.9"/>
            <line class="cls-7" x1="529" y1="285.9" x2="541" y2="285.9"/>
            <line class="cls-7" x1="518" y1="391.9" x2="552" y2="391.9"/>
          </g>
          <g>
            <g>
              <rect class="cls-2" x="391.5" y="234.3" width="17.4" height="15.7"/>
              <path class="cls-20" d="M423.8,382l1.7-72.5c0-3.8-1.4-7.5-4.1-10.1l-6.8-6.7c-1.6-1.6-2.4-3.9-2.2-6.2.4-4.2,1-10.9,1-14.5l-26.4.2c0,3.6.6,10.3,1,14.4.2,2.3-.6,4.5-2.2,6.1l-6.8,6.7c-2.7,2.7-4.2,6.3-4.1,10.1l1.7,72.5-2.8,10.6,2.4,4.9h48l2.4-4.9-2.8-10.6Z"/>
              <polygon class="cls-8" points="392.9 255.8 408.3 255.8 409.1 250 392.1 250 392.9 255.8"/>
              <polygon class="cls-23" points="374.9 309.9 376.6 379.9 423.9 379.9 425.5 309.9 374.9 309.9"/>
              <rect class="cls-8" x="380.5" y="309.4" width="38" height="71"/>
              <rect class="cls-13" x="384.5" y="309.4" width="30" height="71"/>
              <path class="cls-22" d="M423.8,382l1.7-72.5c0-3.8-1.4-7.5-4.1-10.1l-6.8-6.7c-1.6-1.6-2.4-3.9-2.2-6.2.4-4.2,1-10.9,1-14.5,0-5.4-5.9-15.2-5.9-15.2l.8-5.3h-16.3l.8,5.3s-5.9,10.2-5.9,15.6.6,10.1,1,14.3c.2,2.3-.6,4.4-2.2,6l-6.8,6.7c-2.7,2.7-4.2,6.3-4.1,10.1l1.7,72.5-2.8,10.1,2.4,4.4h48l2.4-4.4-2.8-10.1Z"/>
            </g>
            <line class="cls-3" x1="350" y1="397.4" x2="450" y2="397.4"/>
            <line class="cls-15" x1="392" y1="296.4" x2="409" y2="296.4"/>
            <line class="cls-15" x1="381" y1="391.4" x2="420" y2="391.4"/>
          </g>
          <g>
            <line class="cls-3" x1="618" y1="397.4" x2="718" y2="397.4"/>
            <g>
              <polygon class="cls-4" points="668.7 259.4 657.5 259.4 657.5 271.4 668.7 271.4 679.5 271.4 679.5 259.4 668.7 259.4"/>
              <path class="cls-5" d="M696.5,379.1v-53.4c0-8.6-3.8-16.8-10.6-22.1l-8.4-6v-2.2h-18v2.2l-8.4,6c-6.8,5.3-10.6,13.5-10.6,22.1v53.4l-4,3.3v15h64v-15l-4-3.3Z"/>
              <polygon class="cls-4" points="668.7 271.4 659.5 271.4 659.5 286.4 668.7 286.4 677.5 286.4 677.5 271.4 668.7 271.4"/>
              <polygon class="cls-6" points="668.7 286.4 659.5 286.4 659.5 289.4 668.7 289.4 677.5 289.4 677.5 286.4 668.7 286.4"/>
              <polygon class="cls-21" points="668.7 329.4 640.5 329.4 640.5 358.4 668.7 358.4 696.5 358.4 696.5 329.4 668.7 329.4"/>
              <polygon class="cls-6" points="668.7 329.4 640.5 329.4 640.5 332.4 696.5 332.4 696.5 329.4 668.7 329.4"/>
              <polygon class="cls-6" points="640.5 355.4 640.5 358.4 668.7 358.4 696.5 358.4 696.5 355.4 640.5 355.4"/>
              <rect class="cls-16" x="647.5" y="365.4" width="43" height="11"/>
              <line class="cls-15" x1="640" y1="384.4" x2="697" y2="384.4"/>
              <line class="cls-15" x1="645" y1="380.4" x2="692" y2="380.4"/>
              <circle class="cls-6" cx="668.5" cy="310" r="8.6"/>
              <circle class="cls-1" cx="668.5" cy="310" r="5.9"/>
              <path class="cls-22" d="M696.5,379.1v-53.4c0-8.6-3.8-16.8-10.6-22.1l-8.4-6v-26.2h-18v26.2l-8.4,6c-6.8,5.3-10.6,13.5-10.6,22.1v53.4l-4,3.3v15h64v-15l-4-3.3Z"/>
              <path class="cls-11" d="M682.4,305.3s7.7,4.5,10.7,17.7"/>
              <line class="cls-11" x1="696.5" y1="386.9" x2="696.5" y2="394.9"/>
            </g>
          </g>
        </g>
        <g>
          <path class="cls-24" d="M93.9,447.6c-.6,1.2-1.2,2.5-1.9,3.6h3.9v-2.8h2.9v2.8h6.9v7.4c0,1.3-.3,2-1.2,2.5-.9.4-2.2.4-4,.4-.1-.8-.5-1.9-.9-2.6,1.1,0,2.4,0,2.7,0s.5,0,.5-.4v-4.7h-4v9.9h-2.9v-9.9h-3.8v7.8h-2.9v-6.9c-.9,1-1.9,1.8-3,2.6-.4-.7-1.1-1.9-1.6-2.5,2.7-1.7,4.7-4.4,6.2-7.3h-5.4v-2.7h6.6c.5-1.2.8-2.3,1.1-3.5l3,.7c-.3.9-.6,1.9-.9,2.8h11.7v2.7h-12.8Z"/>
          <path class="cls-24" d="M128.3,452.2c1.2.8,2.5,1.7,3.1,2.5l-2,2.1c-.8-1-2.4-2.4-3.8-3.3l1.2-1.1h-4c.5.7.9,1.7,1.1,2.4l-1.9.7h5.4v8.3h-3v-.7h-9v.7h-2.8v-8.4h3.5c0-.7-.3-1.7-.7-2.5l2.1-.6h-5.2l1.4.5c-.5,1.6-1.3,3-2.8,4l-2.3-1.5c1.3-.7,2.2-2,2.6-3.4l.5.2v-3.7c-.5.3-.9.6-1.4.9-.4-.6-1.1-1.6-1.7-2,3.2-1.7,5.4-4,6.7-6l2.8.6c-.2.3-.4.6-.6.9h5.2c0-.1,1.9.9,1.9.9-.3.6-.7,1.3-1.2,1.8h4.9v6.6ZM114.4,447.3v.8h4.3v-.8h-4.3ZM114.4,450.6h4.3v-.8h-4.3v.8ZM116.1,444.6c-.3.3-.6.6-.9,1h5c.3-.3.5-.6.8-1h-4.9ZM124.4,457.4h-9v.9h9v-.9ZM124.4,461.1v-1h-9v1h9ZM121.4,455.4c-.2-.7-.6-1.8-1-2.4l1.8-.6h-4.4c.4.8.8,1.8.8,2.5l-1.8.6h4.6ZM125.5,447.3h-4.3v.8h4.3v-.8ZM125.5,449.8h-4.3v.8h4.3v-.8Z"/>
          <path class="cls-24" d="M152.5,457.4c-.6-.7-1.5-1.6-2.5-2.5-.4.7-.8,1.3-1.3,1.8-.5-.3-1.6-.7-2.3-1,2.1,2.4,5.2,4.4,8.9,5.3-.6.6-1.5,1.7-1.9,2.5-3.3-1.1-6-3-8.1-5.4v5.8h-2.8v-5.9c-2.1,2.5-4.8,4.5-8,5.6-.4-.7-1.3-1.8-1.9-2.4,4.3-1.3,8-4.1,9.9-7.4v-3.3h-9.1v-2.5h9.1v-1.7h2.8v1.7h9.1v2.5h-9.1v3.7c.3.5.6.9,1,1.4,1.2-1.2,2.1-3,2.5-4.9l2.6.4c0,.6-.2,1.1-.4,1.6,1.2,1,2.7,2.3,3.5,3.2l-2,1.7ZM137.5,445.4h-4.2v-2.5h4.2v-1.5h2.8v1.5h3.3v2.5h-3.3v1.5h-2.8v-1.5ZM139.4,451.1c-.1.6-.3,1.1-.5,1.6.9.8,2,1.9,2.5,2.6l-2.1,1.4c-.3-.5-.9-1.2-1.5-1.8-.7,1.1-1.5,2.1-2.4,2.8-.5-.4-1.6-1.2-2.2-1.6,1.8-1.2,3-3.2,3.5-5.5l2.6.5ZM147.7,445.4h-3.3v-2.5h3.3v-1.5h2.8v1.5h4.1v2.5h-4.1v1.5h-2.8v-1.5Z"/>
          <path class="cls-24" d="M164.1,452.6c-.5,2.3-1.3,4.7-2.3,6.5.3.2.7.5,1.1.7,1.6,1,3.9,1.1,6.7,1.1s7.1-.2,9.7-.6c-.3.8-.8,2.2-.8,2.9-2,.1-6.2.3-9,.3s-5.2-.3-6.9-1.3c-1-.6-1.8-1.3-2.3-1.3s-1.4,1.6-1.9,3l-1.9-2.7c1-1.2,2.1-2.1,3-2.5.6-1.2,1.1-2.6,1.5-4.1h-3.2c.6-1.3,1.2-3.2,1.8-5h-2.5v-2.5h5.9c-.5,1.6-1.1,3.5-1.7,5.1h1.8c0-.1,1.2.4,1.2.4ZM159.6,446.4c-.3-1.1-.9-2.8-1.3-4l2.6-.7c.4,1.2,1,2.8,1.4,3.8l-2.7.9ZM177.6,459.2h-12.9v-13.8h5v-3.6h2.8v3.6h5.1v13.8ZM167.3,451.1h2.4v-3.3h-2.4v3.3ZM167.3,456.7h2.4v-3.4h-2.4v3.4ZM174.9,447.8h-2.4v3.3h2.4v-3.3ZM174.9,453.4h-2.4v3.4h2.4v-3.4Z"/>
          <path class="cls-24" d="M96.6,479.2c0,.5,0,1,0,1.5.8,4.6,2.1,7.4,4.7,9.8-.7.6-1.4,1.4-1.8,2.2-1.8-1.8-3-3.8-3.9-6.2-.7,2.2-1.8,4.4-3.8,6.2-.2-.4-.7-1-1.1-1.5-.6.1-1.6.1-2.5.1h-4.6c-3.1,0-4.2-1.2-4.2-4.5v-13.2h-.7v-2.4h12v2.4h-8.7v13.3c0,1.5.4,2,1.5,2h4.8c.8,0,1.8,0,2.4-.2v.9c3-3.4,3.3-7.6,3.3-10.4v-1.8h2.6v1.9ZM82.6,481.6h3.7v6.1h-3.7v-6.1ZM89.4,480.3h-6v-5.5h6v5.5ZM83.9,486h1v-2.7h-1v2.7ZM87.3,476.5h-1.8v2.2h1.8v-2.2ZM90.7,487.7h-3.8v-6h3.8v6ZM89.3,483.3h-1.1v2.7h1.1v-2.7ZM94.1,476.3c-.6,1.8-1.2,3.3-2,4.5-.5-.4-1.6-1.2-2.2-1.5,1.6-2.1,2.5-5.5,3-9.1l2.6.4c-.1,1.1-.3,2.1-.6,3.1h4.9c0,0,1.8.5,1.8.5-.5,2.4-1.3,5.1-1.9,6.8l-2.1-.7c.4-1,.7-2.5,1.1-4h-4.4Z"/>
          <path class="cls-24" d="M111.8,484.5l-2.3.6v7.6h-2.7v-6.9l-3.2.8-.7-2.9c1.1-.2,2.4-.5,3.9-.8v-5.3h-1.4c-.2,1.2-.5,2.3-.9,3.2-.5-.2-1.5-.6-2-.8.8-1.9,1.2-5,1.4-8l2.2.3c0,.8-.2,1.7-.3,2.5h1v-4.7h2.7v4.7h2.1v2.7h-2.1v4.7l2-.5.3,2.6ZM124.9,484.4h-2.3v5c0,1.4-.3,2.2-1.2,2.6-.9.4-2.3.5-4,.5-.1-.8-.5-2-.9-2.8,1.1,0,2.4,0,2.8,0s.5,0,.5-.4v-4.9h-7.6v-2.6h7.6v-1.7h2.8v1.7h2.3v2.6ZM116.8,475h-4.5v-2.6h4.5v-2.1h2.8v2.1h4.8v2.6h-4.8v2h4v2.6h-10.4v-2.6h3.6v-2ZM115.4,484.5c1,1.1,2.3,2.6,2.9,3.6l-2.3,1.5c-.5-1-1.7-2.6-2.7-3.8l2.1-1.3Z"/>
          <path class="cls-24" d="M131,479.6c0,3.8-.4,9.6-2.4,13.1-.5-.5-1.6-1.4-2.2-1.7,1.8-3.2,1.9-7.9,1.9-11.4v-7.6h9c-.2-.5-.4-1-.5-1.3l2.9-.7c.3.6.6,1.3.8,2h8.3v2.4h-17.8v5.3ZM148.9,489.3h-7.5v.9c0,1.3-.3,1.8-1.4,2.2-1,.3-2.5.3-4.5.3-.2-.6-.5-1.5-.9-2.1,1.3,0,2.9,0,3.3,0,.4,0,.6-.1.6-.5v-.8h-7.6v-1.8h7.6v-1h-6.4v-1.8h6.4v-.9c-1.9,0-3.8.1-5.6.1,0-.5-.3-1.2-.5-1.7,4.5,0,9.9-.4,12.9-.9l1.6,1.5c-1.6.3-3.5.5-5.6.7v1.1h6.5v1.8h-6.5v1h7.5v1.8ZM133.7,478.9c0,1-.2,2.3-1.2,3.1-.3-.4-1-.9-1.4-1.2.9-.5,1.1-1.4,1.1-2.1v-.9h1.6v.9ZM134.4,481.8v-4.2h-2.6v-2h2.6v-.9h2.1v.9h2.6v2h-2.6v4.2h-2.1ZM138.4,481.3c-1.1,0-1.3-.6-1.3-1.6v-1.6h1.5v1.7c0,.3,0,.5.2.5s.6,0,.8,0c0,.3,0,.7,0,1.1-.2,0-.6,0-.9,0h-.5ZM141.9,478.8c0,1-.1,2.2-.8,3-.3-.3-1-.9-1.3-1.1.6-.5.7-1.4.7-2v-.8h1.5v.9ZM142.6,481.2v-3.7h-2.9v-2h2.9v-.9h2.1v.9h3.4v2h-3.4v3.7h-2.1ZM146.8,481.4c-1.2,0-1.4-.6-1.4-1.7v-1.8h1.6v1.8c0,.4,0,.5.3.5h.4c.2,0,.7,0,.9,0v1.2c-.1,0-.5,0-.9,0h-.9Z"/>
          <path class="cls-24" d="M163.4,486h-2.1v4.6h-3.3v-4.6h-7.6v-2.4l6.6-10.8h4.2v10.5h2.1v2.7ZM158,483.3v-3.6c0-1,0-2.6.1-3.7h0c-.4.9-.9,1.9-1.4,2.9l-2.8,4.4h4.1Z"/>
          <path class="cls-24" d="M165.8,488.6c0-1.3.9-2.3,2.2-2.3s2.2,1,2.2,2.3-.9,2.3-2.2,2.3-2.2-1-2.2-2.3Z"/>
          <path class="cls-24" d="M173.8,487.7h3.8v-11.2h-3.2v-2.2c1.8-.3,3-.8,4.1-1.5h2.6v14.9h3.3v2.9h-10.7v-2.9Z"/>
        </g>
        <g>
          <path class="cls-24" d="M266,462.7h-9v1.1h-2.6v-12.9c-.2.4-.5.7-.7,1-.2-.3-.5-.7-.8-1.2v2.3h-1.3v7.7c0,1.4-.2,2.1-1.1,2.5-.8.4-2,.5-3.7.5,0-.7-.5-1.9-.8-2.6,1.1,0,2.2,0,2.5,0,.3,0,.5,0,.5-.5v-6.2c-1.1,2.7-2.5,5.3-4,6.9-.4-.6-1.2-1.4-1.8-1.9,1.5-1.4,3-3.9,4-6.4h-3.5c.5-2,1-5.3,1.4-7.9h-1.2v-2.6h9v2.6h-1.4v5.3h1.1c-.2-.3-.5-.6-.7-.8,1.7-2,3.1-5.2,3.9-8.3l2.5.6c-.4,1.2-.8,2.5-1.3,3.7h3.4c-.2-1-.7-2.3-1.1-3.3l2.5-.7c.6,1.1,1.1,2.6,1.3,3.6l-1.5.5h4.1v2.5h-3.3v2.3h2.8v2.4h-2.8v2.3h2.8v2.4h-2.8v2.4h3.4v2.6ZM247.5,445.1c-.2,1.7-.5,3.6-.8,5.3h2.4v-5.3h-1.6ZM260,448.3h-2.9v2.3h2.9v-2.3ZM260,453h-2.9v2.3h2.9v-2.3ZM257,460.1h2.9v-2.4h-2.9v2.4Z"/>
          <path class="cls-24" d="M273.7,448.6c.8,1.2,2.6,4.3,3,5.1l-1.9,2.3c-.3-.9-.8-2.1-1.3-3.3v11.2h-2.6v-8.5c-.6,1.7-1.2,3.2-1.9,4.3-.3-.9-1-2-1.5-2.7,1.3-2.1,2.4-5.5,3-8.4h-2.5v-2.6h2.9v-4.5h2.6v4.5h2.5v2.6h-2.3ZM289,445.7v17.9h-3v-1.1h-6.1v1.2h-2.9v-18h3.5c.4-1.3.7-3,.8-4.2l3.4.4c-.4,1.3-.9,2.7-1.3,3.8h5.5ZM279.9,448.4v4.3h6.1v-4.3h-6.1ZM286,459.8v-4.4h-6.1v4.4h6.1Z"/>
          <path class="cls-24" d="M239.1,488.8c1.3.4,2.9.6,4.9.6,1.8,0,8.2,0,10.4,0-.4.7-.9,2-1.1,2.8h-9.3c-4.5,0-7.3-.6-9.2-3.3-.3,1.5-.6,2.8-1.1,3.9-.5-.3-1.7-1-2.3-1.2,1.2-2.4,1.4-6.2,1.4-10.3l2.5.2c0,1.1,0,2.2,0,3.3.4,1.1.8,1.9,1.3,2.5v-7.2h-4.5v-2.5h4.1v-2.2h-3.5v-2.5h3.5v-2.4h2.6v2.4h3.4v2.5h-3.4v2.2h3.8v.6c1.6-1,2.4-2.5,2.9-4.5h-2.6v-2.4h10.6s0,.6,0,1c-.2,4-.4,5.7-1,6.4-.4.5-1,.7-1.6.8-.6,0-1.6,0-2.7,0,0-.7-.3-1.8-.7-2.4.8,0,1.6,0,1.9,0s.5,0,.7-.2c.2-.3.4-1.2.5-3.3h-2.5c-.6,3-1.8,5.1-4,6.5-.3-.3-.9-.8-1.5-1.2v1.1h-3.5v2.6h3.2v2.5h-3.2v3.8ZM243.4,480.3h9.4v7.6h-9.4v-7.6ZM246.1,485.6h3.9v-3h-3.9v3Z"/>
          <path class="cls-24" d="M259.9,485.9c-.6,1.7-1.6,3.7-2.4,4.9-.4-.4-1.3-1-1.9-1.3.8-1.1,1.6-2.8,2.1-4.2l2.2.6ZM263.3,484.5v8h-2.8v-8h-4.5v-2.4h4.5v-1.8h-4.6v-2.4h2.3c-.1-.7-.4-1.8-.7-2.5l2-.5h-3.2v-2.3h4.1c-.2-.6-.5-1.3-.7-1.9l2.9-.7c.4.8.8,1.8,1.1,2.6h3.4v2.3h-3l1.9.4c-.4.9-.7,1.8-1.1,2.6h2.5v2.4h-4.1v1.8h3.7v2.4h-3.7ZM259.8,474.9c.4.8.7,1.8.8,2.5l-1.7.5h3.5c.4-.9.8-2.1,1-3h-3.6ZM278.1,480.8h-2.2v11.8h-2.8v-11.8h-2.2v.3c0,3.5-.3,8.5-2.4,11.5-.5-.5-1.6-1.4-2.2-1.7.5-.7.8-1.5,1.1-2.3l-1.7,1.1c-.4-1-1.2-2.5-1.9-3.6l1.9-1c.6,1,1.4,2.2,1.8,3.1.7-2.3.7-4.9.7-7.1v-8.5c2.6-.5,5.5-1.2,7.3-2l2.2,2.1c-2,.8-4.5,1.4-6.8,1.8v3.8h7.2v2.6Z"/>
          <path class="cls-24" d="M301.5,489.6v2.5h-21.1v-2.5h9.1v-1.6h-6.2v-2.2h6.2v-1.5h-5.1c-.7.9-1.5,1.8-2.2,2.4-.6-.5-1.7-1.4-2.4-1.8,1.6-1.2,3.1-3,4-4.9h-1.1v-8.9h16.4v8.9h-14.4l2,.6c-.2.4-.4.9-.7,1.3h3.5v-1.5h3v1.5h7.5v2.4h-7.5v1.5h6.4v2.2h-6.4v1.6h9ZM285.5,474.5h10.6v-1.3h-10.6v1.3ZM285.5,477.8h10.6v-1.3h-10.6v1.3Z"/>
        </g>
        <g>
          <path class="cls-24" d="M400.7,459.1h-5.1c1.5,1.2,3.3,2.6,4.2,3.6l-2.6,1.2c-.3-.3-.6-.7-1-1.1-11.8.5-13.2.5-14.2.8-.2-.6-.6-1.9-.9-2.6.5,0,.9-.3,1.4-.7.3-.2.9-.6,1.6-1.2h-5.2v-2.2h21.7v2.2ZM381.9,450h-2.5v-5.1h9.1v-.8h-7.5v-2h17.7v2h-7.5v.8h9.2v5.1h-2.6v-3.3h-6.6v6.3h-2.8v-6.3h-6.6v3.3ZM381.2,451.6c1.4-.3,3.5-1,5.5-1.6-1-.5-3.1-1.3-4.5-1.7l1-1.6c1.4.4,3.5,1.1,4.6,1.6l-1,1.7.8-.2.3,1.9c-2,.8-4.1,1.6-5.8,2.2l-.9-2.3ZM398,456h-16.2v-2.1h16.2v2.1ZM393.9,460.8c-.5-.4-1.1-.9-1.6-1.2l1-.4h-5.3c-.7.6-1.5,1.3-2.3,1.9l8.2-.2ZM397.6,448.5c-1.3.6-3.1,1.1-4.5,1.4,1.8.5,4,1.3,5.2,1.8l-.9,1.9c-1.3-.6-4-1.6-5.9-2.2l.8-1.6-.9-1.4c1.4-.3,3.5-1.2,4.8-1.7l1.2,1.7Z"/>
          <path class="cls-24" d="M408.8,445.4v14.5c0,1.4-.3,2.2-1.1,2.7-.9.5-2.2.5-4,.5,0-.7-.5-2-.8-2.8,1.1,0,2.4,0,2.7,0,.4,0,.5-.1.5-.5v-14.5h-3.3v-2.7h8.7v2.7h-2.6ZM415.2,459.1l2.2,1.5c-1.6,1.2-4.1,2.5-6.1,3.2-.4-.6-1.2-1.4-1.8-2,1.9-.6,4.2-1.7,5.4-2.7h-2.4v-12.6h3.7c.1-.6.2-1.1.3-1.7h-4.8v-2.4h13.2v2.4h-5.2c-.2.6-.4,1.2-.6,1.7h5v12.6h-9ZM415.1,450h6.3v-1.5h-6.3v1.5ZM415.1,453.5h6.3v-1.5h-6.3v1.5ZM415.1,457h6.3v-1.5h-6.3v1.5ZM420.7,459.1c1.5.8,3.6,2.1,4.8,3l-2.3,1.7c-1-.9-3-2.3-4.6-3.2l2.1-1.5Z"/>
          <path class="cls-24" d="M388.1,489.2c0,1.4-.3,2.2-1.1,2.7-.8.5-2.1.5-3.9.5,0-.8-.5-2.1-.9-2.8,1.1,0,2.2,0,2.6,0,.4,0,.5-.1.5-.5v-4.1h-3.8c-.4,2.7-1.1,5.5-2.5,7.5-.5-.5-1.7-1.2-2.4-1.5.3-.4.6-.9.8-1.4l-2.2,1.1c-.1-.4-.3-1-.5-1.5-5.1,2.2-6,2.7-6.6,3.2-.2-.6-1-1.7-1.5-2.1.5-.4,1.2-1.3,1.2-2.5v-15.1h3.9c-.2-.6-.5-1.3-.8-1.9l2.8-.6c.4.8.9,1.7,1.1,2.4h3v10.6h-7.2v4.7l3-1.2c-.4-.7-.8-1.5-1.2-2.2l2.4-1c1,1.7,2.2,4,2.9,5.5,1.3-3,1.4-6.7,1.4-9.6v-8.3h9v17.9ZM370.6,475.3v1.5h4.4v-1.5h-4.4ZM375,480.8v-1.6h-4.4v1.6h4.4ZM385.3,482.5v-3.2h-3.5v.2c0,.9,0,1.9,0,2.9h3.6ZM381.8,473.9v2.9h3.5v-2.9h-3.5Z"/>
          <path class="cls-24" d="M412.3,473.3c-1,2.3-2.4,4.2-4.2,5.8,1.6.8,3.3,1.4,5.2,1.7-.4.7-.8,1.9-.9,2.7-2.4-.6-4.6-1.5-6.5-2.8-1.7,1.2-3.6,2-5.6,2.7h11v9h-2.9v-1.2h-5.9v1.3h-2.7v-9c-.2,0-.5.1-.7.2-.2-.4-.5-1.1-.8-1.6l-.6.7c-.3-.6-.8-1.5-1.3-2.4v12.1h-2.7v-9.5c-.6,2-1.3,3.8-2.1,5.1-.2-.8-.9-2.1-1.3-2.9,1.3-1.8,2.5-5.1,3.1-7.9h-2.6v-2.6h2.9v-4.5h2.7v4.5h2.2v1.3c1.7-1.4,3.2-3.7,4-6l2.5.7c-.2.5-.5,1.1-.7,1.7h6.1c0,0,1.8,1,1.8,1ZM403.6,479.1c-.7-.7-1.4-1.4-2-2.2-.4.6-.9,1.1-1.4,1.5-.3-.5-1.1-1.7-1.6-2.3v1.2h-2.1c.6.6,2.5,2.9,2.9,3.5,1.5-.5,2.9-1,4.2-1.7ZM402.6,485.9v2.8h5.9v-2.8h-5.9ZM403.2,474.9c.6,1,1.5,1.9,2.5,2.8,1-.8,1.9-1.7,2.6-2.8h-5.2Z"/>
          <path class="cls-24" d="M418.4,487.9c-.2,1.6-.7,3.2-1.2,4.3-.5-.2-1.6-.4-2.2-.5.6-1,.9-2.6,1.1-4.1l2.2.3ZM436.9,491.9h-8.4v.8h-2.6v-9.3l-.2.2c-.5-.5-1.5-1.2-2.1-1.6,1.5-1.3,2.9-3.3,3.6-5.3h-6.8l1.3.5c-.7,1.1-1.7,2.3-2.7,3.4h1.7c.6-.8,1.2-1.5,1.6-2.3l2.1,1.2c-1.3,1.7-2.9,3.4-4.7,4.9l2.7-.3c-.2-.4-.4-.8-.5-1.2l1.9-.7c.7,1.2,1.4,2.9,1.6,3.9l-2,.8c0-.3-.1-.7-.3-1.1-5.4.6-6.3.8-6.9,1-.1-.4-.6-1.3-.9-1.8.6,0,1.2-.5,2-1.2.3-.3.9-.8,1.6-1.5-2,.2-2.5.3-3,.4-.1-.4-.6-1.3-.9-1.8.5,0,.9-.4,1.4-.9.4-.4,1.7-1.9,2.5-3.5h-2.8v-5.7h19.5v5.7h-8.1l2.2.5c-.3.7-.6,1.4-1,2.1h2.3c-.2-.6-.5-1.3-.8-1.8l2.2-.6c.4.8.9,1.7,1.1,2.5h3v2.3h-3.1v1.3h2.5v2h-2.5v1.3h2.5v2h-2.5v1.3h3.5v2.3ZM420.9,487.5c.4,1.2.7,2.9.7,3.9l-2.2.4c0-1.1-.3-2.7-.6-3.9l2.1-.4ZM421.7,473.1h-2.8v1.6h2.8v-1.6ZM423.7,487.1c.6,1.1,1.2,2.6,1.5,3.6l-2.1.5c-.2-1-.8-2.5-1.4-3.7l2-.4ZM424.3,474.7h2.9v-1.6h-2.9v1.6ZM431,481.6h-2.4v1.3h2.4v-1.3ZM431,484.9h-2.4v1.3h2.4v-1.3ZM428.5,489.6h2.4v-1.3h-2.4v1.3ZM429.8,474.7h3v-1.6h-3v1.6Z"/>
        </g>
        <g>
          <path class="cls-24" d="M535.9,462.7h-9v1.1h-2.6v-12.9c-.2.4-.5.7-.7,1-.2-.3-.5-.7-.8-1.2v2.3h-1.3v7.7c0,1.4-.2,2.1-1.1,2.5-.8.4-2,.5-3.7.5,0-.7-.5-1.9-.8-2.6,1.1,0,2.2,0,2.5,0,.3,0,.5,0,.5-.5v-6.2c-1.1,2.7-2.5,5.3-4,6.9-.4-.6-1.2-1.4-1.8-1.9,1.5-1.4,3-3.9,4-6.4h-3.5c.5-2,1-5.3,1.4-7.9h-1.2v-2.6h9v2.6h-1.4v5.3h1.1c-.2-.3-.5-.6-.7-.8,1.7-2,3.1-5.2,3.9-8.3l2.5.6c-.4,1.2-.8,2.5-1.3,3.7h3.4c-.2-1-.7-2.3-1.1-3.3l2.5-.7c.6,1.1,1.1,2.6,1.3,3.6l-1.5.5h4.1v2.5h-3.3v2.3h2.8v2.4h-2.8v2.3h2.8v2.4h-2.8v2.4h3.4v2.6ZM517.4,445.1c-.2,1.7-.5,3.6-.8,5.3h2.4v-5.3h-1.6ZM529.9,448.3h-2.9v2.3h2.9v-2.3ZM529.9,453h-2.9v2.3h2.9v-2.3ZM526.9,460.1h2.9v-2.4h-2.9v2.4Z"/>
          <path class="cls-24" d="M543.6,448.6c.8,1.2,2.6,4.3,3,5.1l-1.9,2.3c-.3-.9-.8-2.1-1.3-3.3v11.2h-2.6v-8.5c-.6,1.7-1.2,3.2-1.9,4.3-.3-.9-1-2-1.5-2.7,1.3-2.1,2.4-5.5,3-8.4h-2.5v-2.6h2.9v-4.5h2.6v4.5h2.5v2.6h-2.3ZM558.8,445.7v17.9h-3v-1.1h-6.1v1.2h-2.9v-18h3.5c.4-1.3.7-3,.8-4.2l3.4.4c-.4,1.3-.9,2.7-1.3,3.8h5.5ZM549.8,448.4v4.3h6.1v-4.3h-6.1ZM555.9,459.8v-4.4h-6.1v4.4h6.1Z"/>
          <path class="cls-24" d="M512.6,487.7h3.8v-11.2h-3.2v-2.2c1.8-.3,3-.8,4.1-1.5h2.6v14.9h3.3v2.9h-10.7v-2.9Z"/>
          <path class="cls-24" d="M525.9,481.6c0-6.1,2.4-9.1,6-9.1s6,3,6,9.1-2.4,9.3-6,9.3-6-3.2-6-9.3ZM534.6,481.6c0-5-1.2-6.4-2.7-6.4s-2.7,1.4-2.7,6.4,1.2,6.5,2.7,6.5,2.7-1.5,2.7-6.5Z"/>
          <path class="cls-24" d="M561.9,487.5h-8.2v5.1h-3v-5.1h-10.8v-2.7h3.8v-6.3h7v-2.9h-5.1c-1,1.7-2.1,3.2-3.3,4.4-.6-.5-1.8-1.4-2.5-1.8,2.2-1.8,4-4.9,5-8l2.9.7c-.2.7-.5,1.3-.8,2h13.6v2.8h-6.9v2.9h6.3v2.6h-6.3v3.6h8.2v2.7ZM550.8,484.8v-3.6h-4.2v3.6h4.2Z"/>
        </g>
        <g>
          <path class="cls-24" d="M645.6,448.3c-.1-.4-.4-.9-.7-1.4,0,.2,0,.4,0,.5-.2,3.2-.3,4.6-.8,5.1-.3.4-.7.6-1.3.7-.4,0-1.2,0-1.9,0,0-.6-.2-1.4-.5-1.9-.6,1-1.3,1.9-2.6,2.5-.3-.6-.9-1.3-1.3-1.7,1.7-.8,2.3-2.1,2.6-3.7h-1.6v-1.9h7.3c-.1-.2-.3-.4-.4-.6l1.4-.6h-8.7v-2.2h9.3c-.1-.5-.3-1-.5-1.4l2.9-.5c.3.6.6,1.3.7,1.9h8.9v2.2h-9l1.8.7c-.7,1-1.4,2-2.2,2.8v4.4h-2.5v-4.4c.9-.9,1.9-2.4,2.6-3.5h-2.8c.5.6,1,1.5,1.2,2l-1.9.8ZM652.8,453.6h2.9v10.4h-2.9v-3.6h-10.2c-.6,1.4-1.6,2.8-3.5,3.8-.4-.7-1.3-1.8-1.9-2.3,2.9-1.6,3.3-3.9,3.3-5.8v-2.4h2.9v1.2h9.5v-1.2ZM641.3,448.5c-.2,1-.4,1.9-.8,2.7.6,0,1,0,1.3,0s.4,0,.6-.2c.2-.2.3-.9.4-2.6h-1.4ZM652.8,458.1v-1.2h-9.5c0,.4,0,.8-.1,1.2h9.6ZM657.9,447.4c-.6.2-1.2.4-1.9.6.6,1.7,1.7,3.2,3.2,3.9-.5.4-1.2,1.2-1.5,1.8-1.1-.6-1.8-1.5-2.5-2.6,0,.5.1,1.2.2,1.6-3.3.4-4,.6-4.4.8h0c-.2-.6-.8-1.7-1.2-2.2.5-.3,1-1,1-2v-2c1.9-.3,4.1-.9,5.4-1.5l1.7,1.6ZM655.1,450.8c-.4-.7-.7-1.5-.9-2.4-.3,0-.7.1-1,.2v2.4l2-.2Z"/>
          <path class="cls-24" d="M667.7,442.3c-.5,1.5-1.1,3.1-1.8,4.7v16.9h-2.8v-11.9c-.5.7-1,1.3-1.5,1.9-.2-.7-.9-2.4-1.4-3.1,2-2.3,3.8-5.8,4.8-9.3l2.6.8ZM678,458.2c1.6,1.2,3.9,2.9,5,3.9l-2,1.9c-1.1-1.2-3.6-3.1-5.2-4.5l1.6-1.4h-1.8c-.9,2.1-2.9,4.2-7.4,5.8-.4-.6-1.2-1.6-1.8-2.1,3.6-1,5.4-2.3,6.2-3.6h-5.7v-2.5h6.5v-2.4h-2.9c-.5.8-1.1,1.4-1.6,2-.5-.4-1.6-1.1-2.2-1.4,1.2-1.2,2.4-3,3.1-4.7h-2.8v-2.4h9.2c.1-.7.2-1.4.3-2h-7.5v-2.4h8.5c0-.1,2.1.1,2.1.1-.1,1.5-.4,3-.6,4.3h3.9v2.4h-12.5l2,.6c-.2.4-.3.8-.6,1.2h9.8v2.4h-5.5v2.4h6.6v2.5h-4.8Z"/>
          <path class="cls-24" d="M694.9,451.6h-6.3v12.2h-2.8v-21.5h9.1v9.2ZM688.6,444.7v1.2h3.6v-1.2h-3.6ZM692.2,449.4v-1.4h-3.6v1.4h3.6ZM705.9,460.4c0,1.6-.3,2.5-1.4,2.9-1,.5-2.6.5-4.9.5-.1-.8-.6-2.2-1-2.9,1.5,0,3.3,0,3.8,0s.7-.2.7-.6v-8.6h-6.5v-9.3h9.4v18ZM699.3,444.7v1.2h3.8v-1.2h-3.8ZM703.1,449.4v-1.4h-3.8v1.4h3.8Z"/>
          <path class="cls-24" d="M610.4,472.8h3.6v7.7h0l5.9-7.7h3.9l-5.4,7,6.4,10.8h-3.9l-4.6-8-2.3,3v5h-3.6v-17.8Z"/>
          <path class="cls-24" d="M626.3,473c0-1.2.9-1.9,2.1-1.9s2.1.8,2.1,1.9-.9,1.9-2.1,1.9-2.1-.8-2.1-1.9ZM626.6,477.1h3.5v13.4h-3.5v-13.4Z"/>
          <path class="cls-24" d="M633.9,486.8v-15.4h3.5v15.6c0,.8.4,1.1.7,1.1s.2,0,.5,0l.4,2.6c-.4.2-1,.3-1.8.3-2.4,0-3.3-1.6-3.3-4.1Z"/>
          <path class="cls-24" d="M640.6,483.9c0-4.5,3.2-7.1,6.9-7.1s2.9.6,3.9,1.5l-1.7,2.3c-.7-.6-1.3-.9-2.1-.9-2,0-3.4,1.7-3.4,4.2s1.4,4.2,3.3,4.2,1.9-.5,2.6-1.1l1.4,2.3c-1.3,1.1-2.9,1.6-4.4,1.6-3.7,0-6.6-2.6-6.6-7Z"/>
          <path class="cls-24" d="M654.1,471.4h3.5v7.3c.9-1,2.3-2,4.1-2,2.9,0,4.2,2,4.2,5.4v8.4h-3.5v-7.9c0-2.1-.6-2.8-1.9-2.8s-1.8.5-2.8,1.5v9.2h-3.5v-19.2Z"/>
          <path class="cls-24" d="M668.6,483.9c0-4.5,3.1-7.1,6.5-7.1s6.5,2.6,6.5,7.1-3.1,7-6.5,7-6.5-2.6-6.5-7ZM677.9,483.9c0-2.5-1-4.2-2.9-4.2s-2.9,1.7-2.9,4.2,1,4.2,2.9,4.2,2.9-1.6,2.9-4.2Z"/>
          <path class="cls-24" d="M684.5,477.1h2.9l.2,1.8h0c1.1-1.2,2.4-2.1,4.1-2.1s3,.9,3.7,2.4c1.2-1.3,2.5-2.4,4.3-2.4,2.9,0,4.2,2,4.2,5.4v8.4h-3.5v-7.9c0-2.1-.6-2.8-1.9-2.8s-1.6.5-2.6,1.5v9.2h-3.5v-7.9c0-2.1-.6-2.8-1.9-2.8s-1.6.5-2.6,1.5v9.2h-3.5v-13.4Z"/>
          <path class="cls-24" d="M706.9,486.9c0-2.9,2.3-4.4,7.7-5,0-1.3-.6-2.3-2.3-2.3s-2.4.6-3.7,1.3l-1.3-2.3c1.6-1,3.5-1.8,5.6-1.8,3.4,0,5.2,2,5.2,5.9v7.8h-2.9l-.3-1.4h0c-1.2,1-2.5,1.8-4.1,1.8-2.4,0-4-1.7-4-4ZM714.7,486.8v-2.7c-3.3.4-4.4,1.3-4.4,2.5s.7,1.5,1.8,1.5,1.8-.5,2.6-1.3Z"/>
          <path class="cls-24" d="M721.8,477.1h2.9l.2,1.8h0c1.2-1.2,2.5-2.1,4.4-2.1,2.9,0,4.2,2,4.2,5.4v8.4h-3.5v-7.9c0-2.1-.6-2.8-1.9-2.8s-1.8.5-2.8,1.5v9.2h-3.5v-13.4Z"/>
        </g>
        <g>
          <path d="M124,428.4h-3.4v-10.9h-4.2v-2.6c.6,0,1.2,0,1.7-.1.6-.1,1.1-.3,1.5-.6.4-.3.8-.6,1.1-1,.3-.4.5-1,.6-1.6h2.7v16.8Z"/>
          <path d="M131.9,424.4c0,.4,0,.7.2.9s.3.5.6.6c.2.2.5.3.8.4.3,0,.6.1,1,.1s.5,0,.8,0c.3,0,.5-.1.7-.3s.4-.3.5-.5c.1-.2.2-.5.2-.8s0-.5-.3-.7c-.2-.2-.4-.3-.8-.5-.3-.1-.7-.3-1.2-.4-.5-.1-1-.2-1.6-.4-.5-.1-1-.2-1.5-.4-.5-.2-.9-.4-1.3-.6-.4-.2-.7-.6-.9-.9-.2-.4-.3-.8-.3-1.4,0-.8.2-1.4.5-2,.3-.5.7-.9,1.2-1.2.5-.3,1.1-.5,1.7-.6.6-.1,1.3-.2,2-.2s1.3,0,2,.2,1.2.3,1.7.6c.5.3.9.7,1.2,1.2.3.5.5,1.1.6,1.9h-3.2c0-.7-.3-1.1-.7-1.3-.4-.2-1-.3-1.6-.3s-.4,0-.6,0c-.2,0-.4,0-.6.2-.2,0-.3.2-.5.3s-.2.4-.2.6.1.6.3.7c.2.2.5.3.9.5.4.1.8.2,1.2.3.5,0,.9.2,1.4.3.5.1,1,.2,1.5.4s.9.4,1.3.6.7.6.9,1c.2.4.3.9.3,1.5,0,.8-.2,1.5-.5,2.1-.3.6-.8,1-1.3,1.3-.5.3-1.1.6-1.8.7-.7.1-1.4.2-2.1.2s-1.4,0-2.1-.2c-.7-.1-1.3-.4-1.8-.7-.5-.3-1-.8-1.3-1.4-.3-.6-.5-1.2-.6-2.1h3.2Z"/>
          <path d="M146.5,416h2.5v2.3h-2.5v6.1c0,.6,0,1,.3,1.2s.6.3,1.2.3.7,0,1.1,0v2.7c-.3,0-.6,0-1,0-.4,0-.7,0-1,0-.5,0-1,0-1.5-.1s-.9-.2-1.2-.4c-.4-.2-.6-.5-.9-.9-.2-.4-.3-.9-.3-1.5v-7.3h-2.1v-2.3h2.1v-3.7h3.4v3.7Z"/>
        </g>
        <g>
          <path d="M246.7,418.1c0-1,0-1.9.3-2.7s.6-1.5,1.2-2.2c.5-.6,1.2-1.1,1.9-1.4.8-.3,1.7-.5,2.7-.5s1.5.1,2.2.4c.7.2,1.3.6,1.8,1,.5.4.9,1,1.3,1.7.3.7.5,1.4.5,2.2s0,1.2-.2,1.7c-.2.5-.4,1-.6,1.4-.3.4-.6.8-.9,1.1-.4.3-.7.6-1.2.9-.4.3-.8.6-1.3.9-.4.3-.9.6-1.3.9-.4.3-.8.6-1.2,1-.4.3-.7.7-1,1.2h7.9v2.9h-12.3c0-1,.1-1.8.4-2.5.3-.7.7-1.4,1.1-1.9.5-.6,1-1.1,1.7-1.6.6-.5,1.3-1,2.1-1.5.4-.3.8-.5,1.2-.8s.8-.6,1.1-.9c.3-.3.6-.7.9-1.1.2-.4.3-.9.3-1.4,0-.8-.2-1.4-.7-1.9-.5-.5-1.1-.7-1.8-.7s-.9.1-1.3.4c-.3.2-.6.5-.8.9s-.4.8-.4,1.2c0,.5-.1.9-.1,1.4h-3.3Z"/>
          <path d="M260.4,416h3.2v1.7h0c.4-.7,1-1.2,1.7-1.6s1.4-.5,2.1-.5,1.7.1,2.2.4c.6.2,1,.6,1.4,1s.6,1,.7,1.6c.1.6.2,1.3.2,2.1v7.6h-3.4v-7c0-1-.2-1.8-.5-2.3s-.9-.8-1.7-.8-1.6.3-2,.8c-.4.6-.6,1.5-.6,2.7v6.5h-3.4v-12.4Z"/>
          <path d="M283.5,426.8h0c-.4.7-.9,1.2-1.6,1.5-.7.3-1.4.5-2.2.5s-1.8-.2-2.5-.6c-.7-.4-1.3-.9-1.7-1.5-.5-.6-.8-1.3-1-2.1-.2-.8-.3-1.6-.3-2.5s.1-1.6.3-2.4c.2-.8.6-1.5,1-2.1.5-.6,1-1.1,1.7-1.4.7-.4,1.5-.5,2.4-.5s1.4.2,2.1.5c.7.3,1.2.8,1.6,1.4h0v-6.2h3.4v17.1h-3.2v-1.6ZM283.3,420.7c0-.5-.3-.9-.5-1.3-.2-.4-.5-.7-.9-.9-.4-.2-.8-.3-1.4-.3s-1,.1-1.4.3c-.4.2-.7.5-.9.9-.2.4-.4.8-.5,1.3-.1.5-.2,1-.2,1.5s0,1,.2,1.4c.1.5.3.9.5,1.3s.6.7.9.9c.4.2.8.3,1.4.3s1-.1,1.4-.3c.4-.2.7-.5.9-.9.2-.4.4-.8.5-1.3,0-.5.1-1,.1-1.5s0-1-.1-1.5Z"/>
        </g>
        <g>
          <path d="M389.3,418.4c.4,0,.8,0,1.2,0s.8-.1,1.2-.3c.4-.2.7-.4.9-.7.2-.3.3-.7.3-1.2,0-.7-.2-1.3-.7-1.7-.5-.4-1-.6-1.7-.6s-1.5.3-2,.9c-.4.6-.7,1.3-.6,2.1h-3.2c0-.9.2-1.7.5-2.4.3-.7.7-1.3,1.2-1.8.5-.5,1.1-.9,1.8-1.2s1.5-.4,2.4-.4,1.3,0,2,.3,1.3.5,1.8.9c.5.4,1,.9,1.3,1.5.3.6.5,1.2.5,2s-.2,1.5-.6,2.1c-.4.6-1,1.1-1.8,1.3h0c.9.3,1.7.7,2.2,1.4.5.7.8,1.5.8,2.5s-.2,1.7-.5,2.4c-.3.7-.8,1.3-1.4,1.7-.6.5-1.2.8-2,1.1s-1.5.4-2.4.4-1.8-.1-2.6-.4c-.8-.3-1.4-.7-2-1.2-.5-.5-1-1.2-1.3-1.9-.3-.8-.4-1.6-.4-2.6h3.2c0,.5,0,.9.2,1.3.1.4.3.7.6,1,.2.3.5.5.9.7.4.2.8.3,1.3.3.8,0,1.4-.2,1.9-.7.5-.5.8-1.1.8-1.9s-.1-1.1-.4-1.5-.6-.6-.9-.7-.8-.2-1.3-.3c-.5,0-.9,0-1.3,0v-2.4Z"/>
          <path d="M402.8,416h2.5v2.3h-2.5v6.1c0,.6,0,1,.3,1.2s.6.3,1.2.3.7,0,1.1,0v2.7c-.3,0-.6,0-1,0-.4,0-.7,0-1,0-.5,0-1,0-1.5-.1s-.9-.2-1.2-.4c-.4-.2-.6-.5-.9-.9-.2-.4-.3-.9-.3-1.5v-7.3h-2.1v-2.3h2.1v-3.7h3.4v3.7Z"/>
          <path d="M406.9,411.3h3.4v6.5h0c.4-.7,1-1.2,1.7-1.6s1.3-.5,2-.5c.9,0,1.7.1,2.2.4s1,.6,1.4,1,.6,1,.7,1.6c.1.6.2,1.3.2,2.1v7.6h-3.4v-7c0-1-.2-1.8-.5-2.3-.3-.5-.9-.8-1.7-.8s-1.6.3-2,.8c-.4.6-.6,1.5-.6,2.7v6.5h-3.4v-17.1Z"/>
        </g>
        <g>
          <path d="M526.3,424.5h-7.1v-3.1l7.3-9.8h3v10.1h2.2v2.8h-2.2v3.9h-3.2v-3.9ZM526.3,415.9h0l-4.3,5.8h4.4v-5.8Z"/>
          <path d="M537.8,416h2.5v2.3h-2.5v6.1c0,.6,0,1,.3,1.2.2.2.6.3,1.2.3s.7,0,1.1,0v2.7c-.3,0-.6,0-1,0-.4,0-.7,0-1,0-.5,0-1,0-1.5-.1s-.9-.2-1.2-.4c-.4-.2-.6-.5-.9-.9-.2-.4-.3-.9-.3-1.5v-7.3h-2.1v-2.3h2.1v-3.7h3.4v3.7Z"/>
          <path d="M541.9,411.3h3.4v6.5h0c.4-.7,1-1.2,1.7-1.6.7-.3,1.3-.5,2-.5.9,0,1.7.1,2.2.4s1,.6,1.4,1,.6,1,.7,1.6c.1.6.2,1.3.2,2.1v7.6h-3.4v-7c0-1-.2-1.8-.5-2.3-.3-.5-.9-.8-1.7-.8s-1.6.3-2,.8c-.4.6-.6,1.5-.6,2.7v6.5h-3.4v-17.1Z"/>
        </g>
        <g>
          <path d="M665.7,414.4h-6.9l-.7,3.8h0c.5-.4,1-.7,1.5-.9s1.1-.3,1.8-.3,1.6.2,2.2.5,1.2.7,1.6,1.2c.4.5.8,1.1,1,1.8.2.7.3,1.4.3,2.2s-.2,1.7-.5,2.4-.8,1.4-1.4,1.9c-.6.5-1.2,1-2,1.3s-1.6.4-2.4.4c-.8,0-1.6-.1-2.3-.3s-1.4-.6-2-1-1-1-1.4-1.7-.5-1.4-.5-2.3h3.4c0,.8.4,1.4.9,1.8s1.1.7,1.9.7.8,0,1.2-.3c.4-.2.7-.4.9-.7s.5-.7.6-1c.1-.4.2-.8.2-1.2s0-.8-.2-1.2c-.1-.4-.3-.7-.6-1s-.6-.5-.9-.7c-.4-.2-.8-.2-1.2-.2s-1.1.1-1.5.3-.7.6-1.1,1h-3.1l1.7-9.3h9.4v2.8Z"/>
          <path d="M672.7,416h2.5v2.3h-2.5v6.1c0,.6,0,1,.3,1.2.2.2.6.3,1.2.3s.7,0,1.1,0v2.7c-.3,0-.6,0-1,0-.4,0-.7,0-1,0-.5,0-1,0-1.5-.1-.5,0-.9-.2-1.2-.4-.4-.2-.6-.5-.9-.9s-.3-.9-.3-1.5v-7.3h-2.1v-2.3h2.1v-3.7h3.4v3.7Z"/>
          <path d="M676.8,411.3h3.4v6.5h0c.4-.7,1-1.2,1.7-1.6.7-.3,1.3-.5,2-.5.9,0,1.7.1,2.2.4s1,.6,1.4,1,.6,1,.7,1.6c.1.6.2,1.3.2,2.1v7.6h-3.4v-7c0-1-.2-1.8-.5-2.3s-.9-.8-1.7-.8-1.6.3-2,.8c-.4.6-.6,1.5-.6,2.7v6.5h-3.4v-17.1Z"/>
        </g>
        <g>
          <path d="M98.6,531.1h-3.4v-10.9h-4.2v-2.6c.6,0,1.2,0,1.7-.1.6-.1,1.1-.3,1.5-.6.4-.3.8-.6,1.1-1,.3-.4.5-1,.6-1.6h2.7v16.8Z"/>
          <path d="M111.5,518.6c-.1-.6-.4-1-.8-1.5-.4-.4-.9-.6-1.5-.6s-1.1.2-1.5.5c-.4.4-.7.8-1,1.3-.2.5-.4,1.1-.5,1.7-.1.6-.2,1.1-.2,1.6h0c.5-.6,1-1.1,1.6-1.4s1.3-.4,2.2-.4,1.4.2,2.1.5c.7.3,1.3.7,1.8,1.3.4.5.8,1.1,1,1.8s.3,1.3.3,2-.1,1.7-.4,2.4c-.3.7-.7,1.4-1.2,1.9-.5.6-1.1,1-1.8,1.3-.7.3-1.5.5-2.4.5-1.3,0-2.3-.3-3.2-.8s-1.5-1.2-2-2c-.5-.8-.8-1.8-1-2.8-.2-1-.3-2.1-.3-3.1s.1-2.1.4-3.1c.2-1,.6-2,1.2-2.8s1.2-1.5,2-2.1c.8-.5,1.8-.8,3-.8s2.7.4,3.7,1.2,1.6,2,1.8,3.4h-3.2ZM107.9,522.6c-.3.2-.6.4-.8.7-.2.3-.4.6-.5,1-.1.4-.2.8-.2,1.2s0,.8.2,1.1.3.7.5,1c.2.3.5.5.9.7.3.2.7.3,1.2.3s.8,0,1.1-.3c.3-.2.6-.4.8-.7.2-.3.4-.6.5-1s.2-.7.2-1.1,0-.8-.2-1.2c-.1-.4-.3-.7-.5-1s-.5-.5-.8-.7c-.3-.2-.7-.3-1.1-.3s-.9,0-1.2.3Z"/>
          <path d="M128,517.2c-.9.8-1.7,1.7-2.3,2.8-.7,1.1-1.3,2.3-1.7,3.6s-.8,2.5-1.1,3.8-.4,2.5-.4,3.6h-3.6c.2-2.5.8-4.9,1.8-7.2,1-2.3,2.3-4.5,3.9-6.4h-8v-3.2h11.5v2.9Z"/>
          <path d="M131.4,521.6h0c0-.3.3-.6.5-1,.2-.4.5-.7.9-1,.4-.3.8-.6,1.3-.8.5-.2,1.1-.3,1.8-.3s1.8.2,2.5.5,1.3.8,1.7,1.4c.5.6.8,1.3,1,2.1.2.8.3,1.6.3,2.5s-.1,1.8-.3,2.6c-.2.8-.6,1.5-1,2-.5.6-1,1-1.7,1.3-.7.3-1.5.5-2.5.5s-1.9-.2-2.7-.7c-.8-.4-1.4-1.2-1.8-2.2h0v7h-.9v-16.8h.9v2.8ZM138,530.1c.6-.3,1.1-.7,1.4-1.2.4-.5.7-1.1.8-1.8.2-.7.3-1.4.3-2.2s0-1.4-.3-2.1c-.2-.7-.4-1.3-.8-1.8s-.8-1-1.4-1.3-1.3-.5-2.1-.5-1.5.2-2.1.5c-.6.3-1,.7-1.4,1.3s-.6,1.1-.8,1.8c-.2.7-.2,1.4-.2,2.1s0,1.4.2,2.1c.1.7.4,1.3.7,1.8.3.5.8.9,1.4,1.2.6.3,1.3.5,2.2.5s1.5-.2,2.1-.5Z"/>
          <path d="M144.7,521.6h0c0-.3.3-.6.5-1s.5-.7.9-1c.4-.3.8-.6,1.3-.8.5-.2,1.1-.3,1.8-.3s1.8.2,2.5.5c.7.4,1.3.8,1.7,1.4s.8,1.3,1,2.1c.2.8.3,1.6.3,2.5s-.1,1.8-.3,2.6c-.2.8-.6,1.5-1,2-.5.6-1,1-1.7,1.3-.7.3-1.5.5-2.5.5s-1.9-.2-2.7-.7c-.8-.4-1.4-1.2-1.8-2.2h0v7h-.9v-16.8h.9v2.8ZM151.3,530.1c.6-.3,1.1-.7,1.4-1.2.4-.5.7-1.1.8-1.8.2-.7.3-1.4.3-2.2s0-1.4-.3-2.1-.4-1.3-.8-1.8c-.4-.5-.8-1-1.4-1.3s-1.3-.5-2.1-.5-1.5.2-2.1.5c-.6.3-1,.7-1.4,1.3-.4.5-.6,1.1-.8,1.8-.2.7-.2,1.4-.2,2.1s0,1.4.2,2.1c.1.7.4,1.3.7,1.8.3.5.8.9,1.4,1.2.6.3,1.3.5,2.2.5s1.5-.2,2.1-.5Z"/>
          <path d="M157,518.8h.9v2.5h0c0-.4.3-.7.5-1.1.2-.3.5-.6.9-.9s.7-.5,1.2-.6c.4-.1.9-.2,1.3-.2s1.1,0,1.5.2c.4.2.8.4,1.1.6s.5.5.7.8c.2.3.3.6.4.9h0c.4-.8.9-1.5,1.5-1.9.6-.4,1.4-.7,2.4-.7s1.1,0,1.5.3.9.4,1.2.8.6.8.8,1.3.3,1.2.3,1.9v8.4h-.9v-8.4c0-.8-.1-1.4-.4-1.8-.2-.4-.5-.8-.9-1-.3-.2-.7-.4-1-.4-.3,0-.6,0-.8,0-.6,0-1.1,0-1.5.3s-.9.5-1.2.9c-.3.4-.6.9-.8,1.4-.2.6-.3,1.2-.3,2v7.3h-.9v-8.4c0-.8-.1-1.4-.3-1.8-.2-.5-.5-.8-.8-1-.3-.2-.6-.4-1-.4-.3,0-.6,0-.8,0-.4,0-.9,0-1.3.3-.5.2-.9.4-1.3.8s-.7.8-.9,1.4c-.2.6-.4,1.3-.4,2v7.3h-.9v-12.3Z"/>
        </g>
        <g>
          <path d="M233.2,531.1h-3.4v-10.9h-4.2v-2.6c.6,0,1.2,0,1.7-.1.6-.1,1.1-.3,1.5-.6.4-.3.8-.6,1.1-1,.3-.4.5-1,.6-1.6h2.7v16.8Z"/>
          <path d="M237.6,518.5c.3-1.1.8-2,1.3-2.7.6-.7,1.2-1.2,2-1.4s1.5-.4,2.4-.4,1.6.1,2.4.4,1.4.8,2,1.4c.6.7,1,1.6,1.3,2.7.3,1.1.5,2.5.5,4.1s-.2,3.1-.5,4.2c-.3,1.1-.8,2-1.3,2.7-.6.7-1.2,1.2-2,1.5s-1.5.4-2.4.4-1.6-.1-2.4-.4-1.4-.8-2-1.5c-.6-.7-1-1.6-1.3-2.7-.3-1.1-.5-2.5-.5-4.2s.2-3,.5-4.1ZM240.6,524.4c0,.7.1,1.3.3,2,.2.6.4,1.2.8,1.6.4.4.9.7,1.6.7s1.2-.2,1.6-.7c.4-.4.7-1,.8-1.6s.3-1.3.3-2c0-.7,0-1.3,0-1.7s0-.6,0-1c0-.4,0-.8,0-1.3,0-.4-.1-.9-.2-1.3-.1-.4-.3-.8-.5-1.1s-.5-.6-.8-.8-.7-.3-1.2-.3-.8.1-1.2.3-.6.5-.8.8-.4.7-.5,1.1-.2.9-.2,1.3c0,.4,0,.9,0,1.3,0,.4,0,.8,0,1,0,.5,0,1.1,0,1.7Z"/>
          <path d="M251.9,518.5c.3-1.1.8-2,1.3-2.7.6-.7,1.2-1.2,2-1.4.7-.3,1.5-.4,2.4-.4s1.6.1,2.4.4,1.4.8,2,1.4c.6.7,1,1.6,1.3,2.7s.5,2.5.5,4.1-.2,3.1-.5,4.2c-.3,1.1-.8,2-1.3,2.7-.6.7-1.2,1.2-2,1.5s-1.5.4-2.4.4-1.6-.1-2.4-.4c-.7-.3-1.4-.8-2-1.5-.6-.7-1-1.6-1.3-2.7-.3-1.1-.5-2.5-.5-4.2s.2-3,.5-4.1ZM254.9,524.4c0,.7.1,1.3.3,2s.4,1.2.8,1.6c.4.4.9.7,1.6.7s1.2-.2,1.6-.7c.4-.4.7-1,.8-1.6s.3-1.3.3-2c0-.7,0-1.3,0-1.7s0-.6,0-1c0-.4,0-.8,0-1.3,0-.4-.1-.9-.2-1.3-.1-.4-.3-.8-.5-1.1-.2-.3-.5-.6-.8-.8-.3-.2-.7-.3-1.2-.3s-.8.1-1.2.3c-.3.2-.6.5-.8.8s-.4.7-.5,1.1c-.1.4-.2.9-.2,1.3,0,.4,0,.9,0,1.3,0,.4,0,.8,0,1,0,.5,0,1.1,0,1.7Z"/>
          <path d="M266.8,521.6h0c0-.3.3-.6.5-1s.5-.7.9-1c.4-.3.8-.6,1.3-.8.5-.2,1.1-.3,1.8-.3s1.8.2,2.5.5c.7.4,1.3.8,1.7,1.4s.8,1.3,1,2.1c.2.8.3,1.6.3,2.5s-.1,1.8-.3,2.6c-.2.8-.6,1.5-1,2-.5.6-1,1-1.7,1.3-.7.3-1.5.5-2.5.5s-1.9-.2-2.7-.7c-.8-.4-1.4-1.2-1.8-2.2h0v7h-.9v-16.8h.9v2.8ZM273.4,530.1c.6-.3,1.1-.7,1.4-1.2.4-.5.7-1.1.8-1.8.2-.7.3-1.4.3-2.2s0-1.4-.3-2.1-.4-1.3-.8-1.8c-.4-.5-.8-1-1.4-1.3s-1.3-.5-2.1-.5-1.5.2-2.1.5c-.6.3-1,.7-1.4,1.3-.4.5-.6,1.1-.8,1.8-.2.7-.2,1.4-.2,2.1s0,1.4.2,2.1c.1.7.4,1.3.7,1.8.3.5.8.9,1.4,1.2.6.3,1.3.5,2.2.5s1.5-.2,2.1-.5Z"/>
          <path d="M280.1,521.6h0c0-.3.3-.6.5-1s.5-.7.9-1c.4-.3.8-.6,1.3-.8.5-.2,1.1-.3,1.8-.3s1.8.2,2.5.5c.7.4,1.3.8,1.7,1.4s.8,1.3,1,2.1c.2.8.3,1.6.3,2.5s-.1,1.8-.3,2.6c-.2.8-.6,1.5-1,2-.5.6-1,1-1.7,1.3-.7.3-1.5.5-2.5.5s-1.9-.2-2.7-.7c-.8-.4-1.4-1.2-1.8-2.2h0v7h-.9v-16.8h.9v2.8ZM286.7,530.1c.6-.3,1.1-.7,1.4-1.2.4-.5.7-1.1.8-1.8.2-.7.3-1.4.3-2.2s0-1.4-.3-2.1-.4-1.3-.8-1.8c-.4-.5-.8-1-1.4-1.3s-1.3-.5-2.1-.5-1.5.2-2.1.5c-.6.3-1,.7-1.4,1.3-.4.5-.6,1.1-.8,1.8-.2.7-.2,1.4-.2,2.1s0,1.4.2,2.1c.1.7.4,1.3.7,1.8.3.5.8.9,1.4,1.2.6.3,1.3.5,2.2.5s1.5-.2,2.1-.5Z"/>
          <path d="M292.3,518.8h.9v2.5h0c0-.4.3-.7.5-1.1.2-.3.5-.6.9-.9s.7-.5,1.2-.6c.4-.1.9-.2,1.3-.2s1.1,0,1.5.2c.4.2.8.4,1.1.6s.5.5.7.8c.2.3.3.6.4.9h0c.4-.8.9-1.5,1.5-1.9.6-.4,1.4-.7,2.4-.7s1.1,0,1.5.3.9.4,1.2.8.6.8.8,1.3.3,1.2.3,1.9v8.4h-.9v-8.4c0-.8-.1-1.4-.4-1.8-.2-.4-.5-.8-.9-1-.3-.2-.7-.4-1-.4-.3,0-.6,0-.8,0-.6,0-1.1,0-1.5.3s-.9.5-1.2.9c-.3.4-.6.9-.8,1.4-.2.6-.3,1.2-.3,2v7.3h-.9v-8.4c0-.8-.1-1.4-.3-1.8-.2-.5-.5-.8-.8-1-.3-.2-.6-.4-1-.4-.3,0-.6,0-.8,0-.4,0-.9,0-1.3.3-.5.2-.9.4-1.3.8s-.7.8-.9,1.4c-.2.6-.4,1.3-.4,2v7.3h-.9v-12.3Z"/>
        </g>
        <g>
          <path d="M377.6,517.1h-6.9l-.7,3.8h0c.5-.4,1-.7,1.5-.9s1.1-.3,1.8-.3,1.6.2,2.2.5,1.2.7,1.6,1.2c.4.5.8,1.1,1,1.8.2.7.3,1.4.3,2.2s-.2,1.7-.5,2.4c-.3.7-.8,1.4-1.4,1.9-.6.5-1.2,1-2,1.3s-1.6.4-2.4.4c-.8,0-1.6-.1-2.3-.3s-1.4-.6-2-1-1-1-1.4-1.7-.5-1.4-.5-2.3h3.4c0,.8.4,1.4.9,1.8s1.1.7,1.9.7.8,0,1.2-.3c.4-.2.7-.4.9-.7s.5-.7.6-1c.1-.4.2-.8.2-1.2s0-.8-.2-1.2c-.1-.4-.3-.7-.6-1s-.6-.5-.9-.7c-.4-.2-.8-.2-1.2-.2s-1.1.1-1.5.3c-.4.2-.7.6-1.1,1h-3.1l1.7-9.3h9.4v2.8Z"/>
          <path d="M391,517.1h-6.9l-.7,3.8h0c.5-.4,1-.7,1.5-.9.5-.2,1.1-.3,1.8-.3s1.6.2,2.2.5c.6.3,1.2.7,1.6,1.2.4.5.8,1.1,1,1.8.2.7.3,1.4.3,2.2s-.2,1.7-.5,2.4-.8,1.4-1.4,1.9c-.6.5-1.2,1-2,1.3s-1.6.4-2.4.4c-.8,0-1.6-.1-2.3-.3s-1.4-.6-2-1-1-1-1.4-1.7c-.3-.7-.5-1.4-.5-2.3h3.4c0,.8.4,1.4.9,1.8.5.5,1.1.7,1.9.7s.8,0,1.2-.3c.4-.2.7-.4.9-.7s.5-.7.6-1c.1-.4.2-.8.2-1.2s0-.8-.2-1.2c-.1-.4-.3-.7-.6-1s-.6-.5-.9-.7c-.4-.2-.8-.2-1.2-.2s-1.1.1-1.5.3-.7.6-1.1,1h-3.1l1.7-9.3h9.4v2.8Z"/>
          <path d="M394.8,521.6h0c0-.3.3-.6.5-1s.5-.7.9-1c.4-.3.8-.6,1.3-.8.5-.2,1.1-.3,1.8-.3s1.8.2,2.5.5c.7.4,1.3.8,1.7,1.4s.8,1.3,1,2.1c.2.8.3,1.6.3,2.5s-.1,1.8-.3,2.6c-.2.8-.6,1.5-1,2-.5.6-1,1-1.7,1.3-.7.3-1.5.5-2.5.5s-1.9-.2-2.7-.7c-.8-.4-1.4-1.2-1.8-2.2h0v7h-.9v-16.8h.9v2.8ZM401.4,530.1c.6-.3,1.1-.7,1.4-1.2.4-.5.7-1.1.8-1.8.2-.7.3-1.4.3-2.2s0-1.4-.3-2.1-.4-1.3-.8-1.8c-.4-.5-.8-1-1.4-1.3s-1.3-.5-2.1-.5-1.5.2-2.1.5c-.6.3-1,.7-1.4,1.3-.4.5-.6,1.1-.8,1.8-.2.7-.2,1.4-.2,2.1s0,1.4.2,2.1c.1.7.4,1.3.7,1.8.3.5.8.9,1.4,1.2.6.3,1.3.5,2.2.5s1.5-.2,2.1-.5Z"/>
          <path d="M408.1,521.6h0c0-.3.3-.6.5-1s.5-.7.9-1c.4-.3.8-.6,1.3-.8.5-.2,1.1-.3,1.8-.3s1.8.2,2.5.5c.7.4,1.3.8,1.7,1.4s.8,1.3,1,2.1c.2.8.3,1.6.3,2.5s-.1,1.8-.3,2.6c-.2.8-.6,1.5-1,2-.5.6-1,1-1.7,1.3-.7.3-1.5.5-2.5.5s-1.9-.2-2.7-.7c-.8-.4-1.4-1.2-1.8-2.2h0v7h-.9v-16.8h.9v2.8ZM414.7,530.1c.6-.3,1.1-.7,1.4-1.2.4-.5.7-1.1.8-1.8.2-.7.3-1.4.3-2.2s0-1.4-.3-2.1-.4-1.3-.8-1.8c-.4-.5-.8-1-1.4-1.3s-1.3-.5-2.1-.5-1.5.2-2.1.5c-.6.3-1,.7-1.4,1.3-.4.5-.6,1.1-.8,1.8-.2.7-.2,1.4-.2,2.1s0,1.4.2,2.1c.1.7.4,1.3.7,1.8.3.5.8.9,1.4,1.2.6.3,1.3.5,2.2.5s1.5-.2,2.1-.5Z"/>
          <path d="M420.4,518.8h.9v2.5h0c0-.4.3-.7.5-1.1.2-.3.5-.6.9-.9s.7-.5,1.2-.6c.4-.1.9-.2,1.3-.2s1.1,0,1.5.2c.4.2.8.4,1.1.6s.5.5.7.8c.2.3.3.6.4.9h0c.4-.8.9-1.5,1.5-1.9.6-.4,1.4-.7,2.4-.7s1.1,0,1.5.3.9.4,1.2.8.6.8.8,1.3.3,1.2.3,1.9v8.4h-.9v-8.4c0-.8-.1-1.4-.4-1.8-.2-.4-.5-.8-.9-1-.3-.2-.7-.4-1-.4-.3,0-.6,0-.8,0-.6,0-1.1,0-1.5.3s-.9.5-1.2.9c-.3.4-.6.9-.8,1.4-.2.6-.3,1.2-.3,2v7.3h-.9v-8.4c0-.8-.1-1.4-.3-1.8-.2-.5-.5-.8-.8-1-.3-.2-.6-.4-1-.4-.3,0-.6,0-.8,0-.4,0-.9,0-1.3.3-.5.2-.9.4-1.3.8s-.7.8-.9,1.4c-.2.6-.4,1.3-.4,2v7.3h-.9v-12.3Z"/>
        </g>
        <g>
          <path d="M512.6,517.1h-6.9l-.7,3.8h0c.5-.4,1-.7,1.5-.9s1.1-.3,1.8-.3,1.6.2,2.2.5,1.2.7,1.6,1.2c.4.5.8,1.1,1,1.8.2.7.3,1.4.3,2.2s-.2,1.7-.5,2.4-.8,1.4-1.4,1.9c-.6.5-1.2,1-2,1.3s-1.6.4-2.4.4c-.8,0-1.6-.1-2.3-.3s-1.4-.6-2-1-1-1-1.4-1.7-.5-1.4-.5-2.3h3.4c0,.8.4,1.4.9,1.8s1.1.7,1.9.7.8,0,1.2-.3c.4-.2.7-.4.9-.7s.5-.7.6-1c.1-.4.2-.8.2-1.2s0-.8-.2-1.2c-.1-.4-.3-.7-.6-1s-.6-.5-.9-.7c-.4-.2-.8-.2-1.2-.2s-1.1.1-1.5.3-.7.6-1.1,1h-3.1l1.7-9.3h9.4v2.8Z"/>
          <path d="M514.9,518.5c.3-1.1.8-2,1.3-2.7.6-.7,1.2-1.2,2-1.4s1.5-.4,2.4-.4,1.6.1,2.4.4,1.4.8,2,1.4,1,1.6,1.3,2.7c.3,1.1.5,2.5.5,4.1s-.2,3.1-.5,4.2c-.3,1.1-.8,2-1.3,2.7-.6.7-1.2,1.2-2,1.5s-1.5.4-2.4.4-1.6-.1-2.4-.4-1.4-.8-2-1.5c-.6-.7-1-1.6-1.3-2.7-.3-1.1-.5-2.5-.5-4.2s.2-3,.5-4.1ZM517.9,524.4c0,.7.1,1.3.3,2,.2.6.4,1.2.8,1.6.4.4.9.7,1.6.7s1.2-.2,1.6-.7c.4-.4.7-1,.8-1.6s.3-1.3.3-2c0-.7,0-1.3,0-1.7s0-.6,0-1c0-.4,0-.8,0-1.3,0-.4-.1-.9-.2-1.3s-.3-.8-.5-1.1c-.2-.3-.5-.6-.8-.8-.3-.2-.7-.3-1.2-.3s-.8.1-1.2.3c-.3.2-.6.5-.8.8s-.4.7-.5,1.1-.2.9-.2,1.3c0,.4,0,.9,0,1.3,0,.4,0,.8,0,1,0,.5,0,1.1,0,1.7Z"/>
          <path d="M529.7,521.6h0c0-.3.3-.6.5-1s.5-.7.9-1c.4-.3.8-.6,1.3-.8s1.1-.3,1.8-.3,1.8.2,2.5.5c.7.4,1.3.8,1.7,1.4.5.6.8,1.3,1,2.1.2.8.3,1.6.3,2.5s-.1,1.8-.3,2.6-.6,1.5-1,2c-.5.6-1,1-1.7,1.3-.7.3-1.5.5-2.5.5s-1.9-.2-2.7-.7c-.8-.4-1.4-1.2-1.8-2.2h0v7h-.9v-16.8h.9v2.8ZM536.3,530.1c.6-.3,1.1-.7,1.4-1.2.4-.5.7-1.1.8-1.8.2-.7.3-1.4.3-2.2s0-1.4-.3-2.1-.4-1.3-.8-1.8c-.4-.5-.8-1-1.4-1.3s-1.3-.5-2.1-.5-1.5.2-2.1.5c-.6.3-1,.7-1.4,1.3-.4.5-.6,1.1-.8,1.8-.2.7-.2,1.4-.2,2.1s0,1.4.2,2.1c.1.7.4,1.3.7,1.8.3.5.8.9,1.4,1.2.6.3,1.3.5,2.2.5s1.5-.2,2.1-.5Z"/>
          <path d="M543.1,521.6h0c0-.3.3-.6.5-1s.5-.7.9-1c.4-.3.8-.6,1.3-.8s1.1-.3,1.8-.3,1.8.2,2.5.5c.7.4,1.3.8,1.7,1.4.5.6.8,1.3,1,2.1.2.8.3,1.6.3,2.5s-.1,1.8-.3,2.6-.6,1.5-1,2c-.5.6-1,1-1.7,1.3-.7.3-1.5.5-2.5.5s-1.9-.2-2.7-.7c-.8-.4-1.4-1.2-1.8-2.2h0v7h-.9v-16.8h.9v2.8ZM549.7,530.1c.6-.3,1.1-.7,1.4-1.2.4-.5.7-1.1.8-1.8.2-.7.3-1.4.3-2.2s0-1.4-.3-2.1-.4-1.3-.8-1.8c-.4-.5-.8-1-1.4-1.3s-1.3-.5-2.1-.5-1.5.2-2.1.5c-.6.3-1,.7-1.4,1.3-.4.5-.6,1.1-.8,1.8-.2.7-.2,1.4-.2,2.1s0,1.4.2,2.1c.1.7.4,1.3.7,1.8.3.5.8.9,1.4,1.2.6.3,1.3.5,2.2.5s1.5-.2,2.1-.5Z"/>
          <path d="M555.3,518.8h.9v2.5h0c0-.4.3-.7.5-1.1.2-.3.5-.6.9-.9s.7-.5,1.2-.6c.4-.1.9-.2,1.3-.2s1.1,0,1.5.2c.4.2.8.4,1.1.6s.5.5.7.8c.2.3.3.6.4.9h0c.4-.8.9-1.5,1.5-1.9.6-.4,1.4-.7,2.4-.7s1.1,0,1.5.3.9.4,1.2.8c.3.3.6.8.8,1.3.2.5.3,1.2.3,1.9v8.4h-.9v-8.4c0-.8-.1-1.4-.4-1.8s-.5-.8-.9-1c-.3-.2-.7-.4-1-.4-.3,0-.6,0-.8,0-.6,0-1.1,0-1.5.3s-.9.5-1.2.9c-.3.4-.6.9-.8,1.4-.2.6-.3,1.2-.3,2v7.3h-.9v-8.4c0-.8-.1-1.4-.3-1.8s-.5-.8-.8-1c-.3-.2-.6-.4-1-.4-.3,0-.6,0-.8,0-.4,0-.9,0-1.3.3-.5.2-.9.4-1.3.8s-.7.8-.9,1.4-.4,1.3-.4,2v7.3h-.9v-12.3Z"/>
        </g>
        <g>
          <path d="M624.8,527.2h-7.1v-3.1l7.3-9.8h3v10.1h2.2v2.8h-2.2v3.9h-3.2v-3.9ZM624.8,518.6h0l-4.3,5.8h4.4v-5.8Z"/>
          <path d="M642.6,517.1h-6.9l-.7,3.8h0c.5-.4,1-.7,1.5-.9.5-.2,1.1-.3,1.8-.3s1.6.2,2.2.5c.6.3,1.2.7,1.6,1.2.4.5.8,1.1,1,1.8.2.7.3,1.4.3,2.2s-.2,1.7-.5,2.4c-.3.7-.8,1.4-1.4,1.9-.6.5-1.2,1-2,1.3s-1.6.4-2.4.4c-.8,0-1.6-.1-2.3-.3s-1.4-.6-2-1-1-1-1.4-1.7c-.3-.7-.5-1.4-.5-2.3h3.4c0,.8.4,1.4.9,1.8.5.5,1.1.7,1.9.7s.8,0,1.2-.3c.4-.2.7-.4.9-.7s.5-.7.6-1c.1-.4.2-.8.2-1.2s0-.8-.2-1.2c-.1-.4-.3-.7-.6-1s-.6-.5-.9-.7c-.4-.2-.8-.2-1.2-.2s-1.1.1-1.5.3c-.4.2-.7.6-1.1,1h-3.1l1.7-9.3h9.4v2.8Z"/>
          <path d="M645.2,523.1h7.2v2.9h-7.2v-2.9Z"/>
          <path d="M665.7,517.1h-6.9l-.7,3.8h0c.5-.4,1-.7,1.5-.9.5-.2,1.1-.3,1.8-.3s1.6.2,2.2.5c.6.3,1.2.7,1.6,1.2.4.5.8,1.1,1,1.8.2.7.3,1.4.3,2.2s-.2,1.7-.5,2.4-.8,1.4-1.4,1.9-1.2,1-2,1.3-1.6.4-2.4.4c-.8,0-1.6-.1-2.3-.3s-1.4-.6-2-1-1-1-1.4-1.7c-.3-.7-.5-1.4-.5-2.3h3.4c0,.8.4,1.4.9,1.8.5.5,1.1.7,1.9.7s.8,0,1.2-.3c.4-.2.7-.4.9-.7s.5-.7.6-1c.1-.4.2-.8.2-1.2s0-.8-.2-1.2c-.1-.4-.3-.7-.6-1s-.6-.5-.9-.7c-.4-.2-.8-.2-1.2-.2s-1.1.1-1.5.3c-.4.2-.7.6-1.1,1h-3.1l1.7-9.3h9.4v2.8Z"/>
          <path d="M668.1,518.5c.3-1.1.8-2,1.3-2.7s1.2-1.2,2-1.4c.7-.3,1.5-.4,2.4-.4s1.6.1,2.4.4,1.4.8,2,1.4c.6.7,1,1.6,1.3,2.7.3,1.1.5,2.5.5,4.1s-.2,3.1-.5,4.2c-.3,1.1-.8,2-1.3,2.7-.6.7-1.2,1.2-2,1.5s-1.5.4-2.4.4-1.6-.1-2.4-.4c-.7-.3-1.4-.8-2-1.5-.6-.7-1-1.6-1.3-2.7-.3-1.1-.5-2.5-.5-4.2s.2-3,.5-4.1ZM671,524.4c0,.7.1,1.3.3,2,.2.6.4,1.2.8,1.6.4.4.9.7,1.6.7s1.2-.2,1.6-.7c.4-.4.7-1,.8-1.6s.3-1.3.3-2c0-.7,0-1.3,0-1.7s0-.6,0-1c0-.4,0-.8,0-1.3,0-.4-.1-.9-.2-1.3-.1-.4-.3-.8-.5-1.1-.2-.3-.5-.6-.8-.8s-.7-.3-1.2-.3-.8.1-1.2.3-.6.5-.8.8c-.2.3-.4.7-.5,1.1-.1.4-.2.9-.2,1.3,0,.4,0,.9,0,1.3,0,.4,0,.8,0,1,0,.5,0,1.1,0,1.7Z"/>
          <path d="M682.9,521.6h0c0-.3.3-.6.5-1s.5-.7.9-1c.4-.3.8-.6,1.3-.8s1.1-.3,1.8-.3,1.8.2,2.5.5c.7.4,1.3.8,1.7,1.4.5.6.8,1.3,1,2.1.2.8.3,1.6.3,2.5s-.1,1.8-.3,2.6-.6,1.5-1,2c-.5.6-1,1-1.7,1.3-.7.3-1.5.5-2.5.5s-1.9-.2-2.7-.7c-.8-.4-1.4-1.2-1.8-2.2h0v7h-.9v-16.8h.9v2.8ZM689.5,530.1c.6-.3,1.1-.7,1.4-1.2.4-.5.7-1.1.8-1.8.2-.7.3-1.4.3-2.2s0-1.4-.3-2.1-.4-1.3-.8-1.8c-.4-.5-.8-1-1.4-1.3s-1.3-.5-2.1-.5-1.5.2-2.1.5c-.6.3-1,.7-1.4,1.3-.4.5-.6,1.1-.8,1.8-.2.7-.2,1.4-.2,2.1s0,1.4.2,2.1c.1.7.4,1.3.7,1.8.3.5.8.9,1.4,1.2.6.3,1.3.5,2.2.5s1.5-.2,2.1-.5Z"/>
          <path d="M696.2,521.6h0c0-.3.3-.6.5-1,.2-.4.5-.7.9-1,.4-.3.8-.6,1.3-.8.5-.2,1.1-.3,1.8-.3s1.8.2,2.5.5c.7.4,1.3.8,1.7,1.4.5.6.8,1.3,1,2.1.2.8.3,1.6.3,2.5s-.1,1.8-.3,2.6c-.2.8-.6,1.5-1,2-.5.6-1,1-1.7,1.3-.7.3-1.5.5-2.5.5s-1.9-.2-2.7-.7c-.8-.4-1.4-1.2-1.8-2.2h0v7h-.9v-16.8h.9v2.8ZM702.9,530.1c.6-.3,1.1-.7,1.4-1.2.4-.5.7-1.1.8-1.8.2-.7.3-1.4.3-2.2s0-1.4-.3-2.1-.4-1.3-.8-1.8-.8-1-1.4-1.3-1.3-.5-2.1-.5-1.5.2-2.1.5c-.6.3-1,.7-1.4,1.3-.4.5-.6,1.1-.8,1.8-.2.7-.2,1.4-.2,2.1s0,1.4.2,2.1c.1.7.4,1.3.7,1.8.3.5.8.9,1.4,1.2.6.3,1.3.5,2.2.5s1.5-.2,2.1-.5Z"/>
          <path d="M708.5,518.8h.9v2.5h0c0-.4.3-.7.5-1.1.2-.3.5-.6.9-.9s.7-.5,1.2-.6c.4-.1.9-.2,1.3-.2s1.1,0,1.5.2c.4.2.8.4,1.1.6.3.2.5.5.7.8.2.3.3.6.4.9h0c.4-.8.9-1.5,1.5-1.9.6-.4,1.4-.7,2.4-.7s1.1,0,1.5.3c.5.2.9.4,1.2.8s.6.8.8,1.3c.2.5.3,1.2.3,1.9v8.4h-.9v-8.4c0-.8-.1-1.4-.4-1.8-.2-.4-.5-.8-.9-1-.3-.2-.7-.4-1-.4-.3,0-.6,0-.8,0-.6,0-1.1,0-1.5.3-.5.2-.9.5-1.2.9-.3.4-.6.9-.8,1.4-.2.6-.3,1.2-.3,2v7.3h-.9v-8.4c0-.8-.1-1.4-.3-1.8-.2-.5-.5-.8-.8-1-.3-.2-.6-.4-1-.4-.3,0-.6,0-.8,0-.4,0-.9,0-1.3.3-.5.2-.9.4-1.3.8-.4.4-.7.8-.9,1.4-.2.6-.4,1.3-.4,2v7.3h-.9v-12.3Z"/>
        </g>
      </g>
    </g>
  </g>
</svg>