<?xml version="1.0" encoding="UTF-8"?>
<svg xmlns="http://www.w3.org/2000/svg" version="1.1" xmlns:xlink="http://www.w3.org/1999/xlink" viewBox="0 0 800 600">
  <defs>
    <style>
      .cls-1, .cls-2, .cls-3, .cls-4, .cls-5, .cls-6, .cls-7, .cls-8, .cls-9, .cls-10, .cls-11, .cls-12, .cls-13, .cls-14, .cls-15, .cls-16, .cls-17, .cls-18, .cls-19, .cls-20 {
        stroke: #000;
      }

      .cls-1, .cls-2, .cls-3, .cls-6, .cls-7, .cls-9, .cls-12, .cls-13, .cls-14, .cls-15, .cls-16, .cls-18, .cls-19, .cls-20 {
        stroke-miterlimit: 10;
      }

      .cls-1, .cls-2, .cls-21, .cls-10, .cls-12 {
        fill: none;
      }

      .cls-2, .cls-5, .cls-7, .cls-8, .cls-10, .cls-11, .cls-12, .cls-13, .cls-14, .cls-16, .cls-19 {
        stroke-linecap: round;
      }

      .cls-2, .cls-13 {
        stroke-width: 3px;
      }

      .cls-3 {
        fill: #f9bb3d;
      }

      .cls-22, .cls-4, .cls-8, .cls-9, .cls-11, .cls-14, .cls-16 {
        fill: #fff;
      }

      .cls-4, .cls-5, .cls-8, .cls-10, .cls-11, .cls-17 {
        stroke-linejoin: round;
      }

      .cls-5, .cls-7, .cls-15 {
        fill: #434848;
      }

      .cls-9, .cls-11, .cls-16 {
        stroke-width: 2px;
      }

      .cls-23 {
        isolation: isolate;
      }

      .cls-24 {
        fill: #999;
        mix-blend-mode: multiply;
      }

      .cls-25 {
        fill: #333;
      }

      .cls-13 {
        fill: gray;
      }

      .cls-26 {
        fill: #ccc;
      }

      .cls-18 {
        fill: #438e83;
      }

      .cls-19 {
        fill: #e6e6e6;
      }

      .cls-27, .cls-20 {
        fill: #53b2a7;
      }

      .cls-28 {
        clip-path: url(#clippath);
      }
    </style>
    <clipPath id="clippath">
      <rect class="cls-21" x="604.5" y="20.5" width="101" height="174" transform="translate(762.5 -547.5) rotate(90)"/>
    </clipPath>
  </defs>
  <!-- Generator: Adobe Illustrator 28.7.4, SVG Export Plug-In . SVG Version: 1.2.0 Build 166)  -->
  <g class="cls-23">
    <g id="Layer_1">
      <g>
        <rect class="cls-27" x="0" y="1" width="800" height="600"/>
        <g>
          <g>
            <path class="cls-22" d="M69.9,46.6c-4.5,4.9-11.4,10.3-18.6,14.5-1.7-3-3.7-5.8-6.5-7.8,7.6-4,13.3-8.9,17.4-12.6l7.8,5.8ZM53.5,83.6c-1.1,1.1-2.2,2.2-3.4,3.1-.9-3.5-2.7-7.3-5-10.1,6.9-5.5,13.3-14.5,16.7-19.6l7.9,6c-1.9,2.8-4.2,6.1-6.3,9v35.3h-9.9v-23.7ZM110.3,71.4v7.1h-6v2.3h8.3v7.7h-8.3v10.6c0,7.8-6,8.4-13.3,8.5-.6-3.3-1.7-6.6-3.2-9h5.8c.5,0,.9-.4.9-.9v-9.2h-15.9c2.3,1.5,5.2,3.7,7.7,6l-5.6,6.9c-2.3-2-7.1-6.2-9.6-7.8l4.2-5h-9.6v-7.7h28.8v-2.3h-27v-7.1h42.8ZM106.9,43.4v25.9h-36v-25.9h36ZM80.2,50.7v2.7h16.6v-2.7h-16.6ZM80.2,59.4v2.7h16.6v-2.7h-16.6Z"/>
            <path class="cls-22" d="M181.5,45v9.4h-25.3l-.6,10h23.3v9.5h-20.5c7.5,14.8,21.3,21.3,27.4,24.1-2.3,2.9-4.6,5.8-6.2,9.5-18.3-8.4-25.1-20.7-27.7-25.5-2.7,5.6-5.2,9.6-10.1,14.1-7.1,6.6-12.3,9-18.1,11.4-1.7-3.2-3.2-6.8-6-9.2,7.1-3,16.7-7.3,23-17.4.9-1.3,1.7-2.8,2.8-7h-19.2v-9.5h20.5l.4-10h-23.9v-9.4h60.1Z"/>
            <path class="cls-22" d="M197.2,42.7c1.8,2,3.1,3.9,4.4,5.9,1.6-1.9,3.2-4.1,4.5-6.1l4.4,3.5v-3.1h43.8v19h-30.2l2.4,1.4c-.4.4-.6.9-1,1.3h30.9c0,13.5-.5,26.8-1.6,34.1-1,7.5-3.8,9.1-13.6,9.7-.3-2.5-.7-5.1-1.6-7.6l-.6.6-1.2-1.9c-7.8,1.2-22.5,2.9-26.1,3.3l-1.4-8.4c4,0,8.6-.2,13-.5v-3.7h-10.9v-11.9l-1.3,1.2c-.4-1-.9-1.9-1.5-2.9.2,11.3-.6,19.4-1.9,24.3-.5,1.9-1.4,4.6-6.7,5.8-1.5.3-3.4.6-6.6.5-.3-3-1.1-5.9-2.5-8.6h4.8c1.7,0,1.9-.5,2.1-2.3.9-4.7,1.2-9,1.2-11.9-1.7,1.9-3.9,4.1-5.8,5.8-1.4-3.3-2.7-6.3-4.8-9.3,4.5-3.7,6.6-5.8,10-9.9-.1-1.9-.5-3.7-.9-5.5-1.2,1.2-2.8,2.4-4.6,3.7-1.1-3.2-2.5-6.3-4.5-9.3,1.9-1.2,3.8-2.9,5.6-4.5-1.4-2.5-2.8-5.3-4.8-7.9l7.2-5ZM210.5,52.2c-1.4,1.9-3,4-4.6,5.8.9,2.8,1.4,4.7,2.8,11.5,2.4-2.2,3.6-3.4,7.3-7.6h-5.5v-9.8ZM218.9,72.4c-.9.9-1.8,1.8-2.9,2.8h7.1v-2.8h-4.2ZM219.6,50.9v3.7h3.1v-3.7h-3.1ZM220.5,84.5h2.7v-2.7h-2.7v2.7ZM230.1,50.9v3.7h3.3v-3.7h-3.3ZM232.1,72.4v2.8h11.6v15.3h-2.4c1.6,2.1,3,4.2,4.2,6.3.6-8.4.9-16.8.9-24.4h-14.2ZM232.1,84.5h2.7v-2.7h-2.7v2.7ZM232.1,93.3h1.5l-.8-1.4,2.2-1.4h-3v2.8ZM240.6,100.3h2.9c1.6,0,1.7-.4,1.9-3l-4.8,3ZM241.2,54.6h3.8v-3.7h-3.8v3.7Z"/>
            <path class="cls-22" d="M327,43.3v8.6h-51.1c0,29.2,0,42.1-7.9,55.5-2-2.8-4.6-5.5-7.5-7.8,5.8-10.7,5.8-18.1,5.8-56.2h60.7ZM316.9,77.1l5.8,5.8c-3.3,1.8-9.8,5.5-10.6,6h15.8v8.4h-21.9v4.5c0,5.8-3.6,6.8-13.9,6.8-.4-2.3-1.2-5.4-2.7-7.9h5.9c.9,0,1-.3,1-3.3h-21.2v-8.4h21.2v-3.2l5.5.4,2-1.4h-24.7v-6.8h36.4l1.4-.7ZM319.9,54.1v21.8h-39.9v-21.8h39.9ZM289.9,60.7v2h19.5v-2h-19.5ZM289.9,68.1v2.2h19.5v-2.2h-19.5Z"/>
            <path class="cls-22" d="M344.5,52.2c.5-3.5,1.1-7.1,1.5-10.3l9.9,1.1c-.7,3.1-1.3,6.3-2,9.2h8.7v12.5c3-5.5,3.4-7.1,4.5-11.1,1.8-6,2-6.6,2.8-11.7l10.9,1.7c-1.3,5-1.6,6.1-2.3,8.8h20c-.5,27.1-.6,35.9-1.7,45.3-1.1,8.9-5.7,9.2-16.8,9.9-.4-3.3-1.1-6.5-2.6-9.4h6.4c1.6.1,1.9.1,2.2-.1,1.4-2,1.9-31.2,1.9-36.5h-12.5c-2.4,6.7-5,11.4-8.1,16.2-1.2-2.4-2.9-4.6-4.8-6.7v32.2h-9.5v-3h-8.1v4h-8.9v-52h8.4ZM345,60.8v10.7h8.1v-10.7h-8.1ZM345,80.5v10.7h8.1v-10.7h-8.1ZM377,69.8c3.3,3.5,6.6,7.1,9.1,11l-7.5,6c-2.7-3.8-5.5-7.6-8.6-11.1l7.1-5.9Z"/>
            <path class="cls-22" d="M67.6,136.7c2.6,6.2,5.8,12.5,11.6,19.4,6-6.6,10.2-14.3,12.7-19.6l10.1,4.8c-5.5,11.4-11.4,17.9-14.6,21.6,4.3,2.8,11,7.3,26.7,10.9-2.3,2.7-4.5,6.1-5.5,9.4-17.3-4.7-25.3-10.5-28.9-13.2-5,3.7-7.8,5.3-12.5,7.4-4,1.9-8.4,3.6-14.7,5.7-1.4-3.7-3.5-6.9-5.9-9.6,7.6-2.1,15.8-4.5,24.8-10.6-3.7-4.3-8.3-9.7-13.9-22l10.1-4ZM74,116.9v4.2h11.4v-4.2h11v4.2h14.6v9.8h-14.6v4.5h-11v-4.5h-11.4v4.5h-10.7v-4.5h-14.7v-9.8h14.7v-4.2h10.7Z"/>
            <path class="cls-22" d="M178.8,118.3v7.2h-22.5v1.9h26.9v14.8h-9.3v-8.1h-17.6v14.6h-10v-14.6h-17.3v8.4h-8.7v-15h26v-1.9h-20.8v-7.2h53.3ZM178.8,151.2v30.9h-10.4v-2h-33.3v2.6h-10.1v-31.5h53.8ZM144.4,143.6v5.3h-14.2v-5.3h14.2ZM144.4,136.2v5.3h-13.5v-5.3h13.5ZM135.1,162.3h11.7v-3.2h-11.7v3.2ZM135.1,169.1v3.5h11.7v-3.5h-11.7ZM156.3,162.3h12.2v-3.2h-12.2v3.2ZM156.3,169.1v3.5h12.2v-3.5h-12.2ZM172.3,136.1v5.4h-13.5v-5.4h13.5ZM174,143.6v5.2h-15.2v-5.2h15.2Z"/>
            <path class="cls-22" d="M228.3,116.7c-.6,1.4-1.4,3-1.9,4.2h19.7v24.4h-37.4v1.9h46.9v7.1h-46.9v1.9h45.1c-.9,14.8-1,15.9-1.9,20.6-.6,3.5-1,5.6-12.3,6.1-.5-2.3-.9-4.6-2.1-6.8v3.3h-9.6v-1.9h-26.1v3.1h-9.5v-16.3h9.5v5.1h8.7v-6.3h-11.3v-42.3h16.5c.6-1.9,1.1-3.8,1.7-5.8l10.9,1.5ZM208.8,128v2.2h27.1v-2.2h-27.1ZM208.8,138.6h27.1v-2.3h-27.1v2.3ZM220.2,163.2v6.3h7.8v-5h9.6v10.2h3.2c.4,0,.6,0,.9,0,.4,0,.6,0,.7-.2.8-.6,1-7.6,1.1-11.3h-23.3Z"/>
            <path class="cls-22" d="M275.2,133.6c0,22,0,34.8-7.4,48.5-1.9-3-4.5-5.8-7.3-7.9,5.4-11.4,5.4-16.3,5.4-49.3h35.9v-8.1h10.2v2.6l3.5-3.9c3.2,2,7,4.8,9.9,7.3l-1.9,2h3.4v8.7h-14.7c0,1.7,0,10.2,1.5,18.9,1.7-4.2,2.7-8.7,3.7-13.1l9.5,3.2c-2.3,8.9-4.4,14.9-9.6,22.8,1.1,1.7,2.2,3.8,3,3.8,1.2,0,1.7-3.1,2.3-6.1,2.5,1.9,5.4,3.5,8.6,4.5-3.7,13-6.8,14.8-9.9,14.8-4.9,0-9.1-6-10.7-8.4-3.5,3.7-7.7,6.7-12.1,9.4-1.4-3-3.5-5.7-6-7.9l2.3-1.4-2.7-1.7c-3.2,4-6.4,7.2-12.8,10.7-1.2-3-3-5.5-5.1-8.1,4.3-1.9,7.1-3.7,10.2-6.8l-1.9-1.2-.4,1.2-7.6-2.7c1.4-4.4,2.6-8.3,3.5-11.7h-1.7v-7.5h3.7l.8-3.4h-4.5v-7.1h24.6v7.1h-11.4l-.8,3.4h11.4c-.8,9-1.7,13.1-3.3,17.6l3.7,2.3-4.6,7.1c3.7-2.2,7.3-5.4,10.6-8.6-2-6.6-4.2-14.6-4.2-31.2h-26.9ZM286.5,153.8c-.3,1.5-.9,3.5-1.2,5,1.2.4,2.5.9,3.6,1.4.5-1.9.9-4.5,1.2-6.3h-3.6ZM312,124.8h3.9c-1.1-1-2.5-1.9-3.9-2.8v2.8Z"/>
            <path class="cls-22" d="M372.7,117.7v18.5h26.4v11.1h-26.4v21.3h22v10.6h-54.5v-10.6h20.5v-21.3h-25.3v-11.1h25.3v-18.5h12Z"/>
            <path class="cls-22" d="M421.8,164.5c-2.4,5.8-3.6,8-7.3,14.3l-8.3-4.5c2.9-4.6,4.2-7.1,7.3-13.9l8.4,4ZM463.6,118.8v23.4h-10.7v-1.8h-28.5v5c0,3,1.7,3.1,7.4,3.1s20.6,0,24,0,3.5-.4,4.5-5.1c3,1.3,6.4,2.5,9.6,3.4-3,8.4-5.1,9.7-10.9,10-1.8,0-4.5,0-17.1,0,2.1,1.9,4.6,4.4,6.6,7.1l-7.1,6c-2.8-3.6-5.8-7.1-8.9-10.2l3.5-2.9c-11.1,0-12.9,0-15.8-.8-5-1.3-6.5-4.8-6.5-8.1v-15.8h39v-4.2h-39.4v-9h50ZM432.4,159.7v10.8c0,2.7,1.2,3,4.1,3,11.5,0,11.7-.2,12.1-1,.4-.6,1-3.2,1.3-5.3,3.2,1.7,6.7,3.1,9.9,4.2-3.2,9.4-5.5,10.2-12.8,10.2h-10.2c-10.5,0-14.4-1-14.3-9.6v-12.4h9.9ZM463.6,159.3c4.4,4.8,7.7,9,10.3,13.2l-8,5.6c-3.7-5.8-6.2-8.9-9.8-13.2l7.5-5.6Z"/>
          </g>
          <g>
            <rect class="cls-9" x="562.4" y="49.9" width="187.3" height="114.1"/>
            <rect class="cls-20" x="605" y="20" width="101" height="174" transform="translate(762.5 -548.5) rotate(90)"/>
            <g class="cls-28">
              <g>
                <polygon class="cls-18" points="655.5 102 655.5 97 668.9 83.5 674.5 83.5 674.5 89.5 672 89.5 666.5 95 666.5 104 656.7 113.5 650.5 113.5 650.5 107 655.5 102"/>
                <polygon class="cls-18" points="645.5 19.5 645.5 26 639.5 31.8 639.5 39.5 646 39.5 654.8 48.3 647.6 55.5 656.5 55.5 656.5 61.5 632 61.5 637.8 67.5 662 67.5 669.2 60.5 674 60.5 682.4 52.1 671.7 41.5 661.5 41.5 661.5 32 653.5 24.2 653.5 19.5 645.5 19.5"/>
                <polygon class="cls-18" points="710.2 194.8 729.5 176 729.5 157.5 737.5 157.5 737.5 143.4 726.5 132 726.5 116 726.5 106.3 718.5 114 718.5 131 710.5 123 710.5 118.2 704 111.5 696.5 111.5 696.5 99.2 704.1 91.8 699 86.5 689.5 96 689.5 112.6 699.2 122.1 683.5 138 683.5 165.2 675 173.5 665.5 173.5 665.5 158.5 671.5 158.5 671.5 135.2 682.6 123.9 675.5 117 675.5 98.4 685.5 88 685.5 77.5 679.5 77.5 679.5 69 688.5 60 688.5 55 694.2 49.5 763.5 49.5 763.5 195 710.2 194.8"/>
                <polygon class="cls-18" points="701.3 128.6 694.5 135.6 694.5 155 701.1 161.5 713.5 161.5 713.5 148 708.5 143.4 708.5 135 701.3 128.6"/>
                <polygon class="cls-18" points="648 78.8 639.5 87.6 639.5 93.5 644.5 93.5 644.5 89 648.1 85.4 648 78.8"/>
              </g>
              <polygon class="cls-15" points="644.5 101.5 646.5 101.5 646.5 106 645.5 107.3 645.5 110.6 646.5 112.3 646.5 120.7 649.5 123.8 649.5 128.5 650.5 128.5 650.5 133.6 649.5 137.5 646.5 137.5 646.5 137.4 644.6 139.5 637.9 139.5 635.5 142.1 635.5 144.4 634.6 147.5 630.5 147.5 630.5 139.9 632.6 137.5 634.5 137.5 634.5 131.9 632.2 129.5 630.5 129.5 630.5 126.8 633.6 124.5 635.5 124.5 635.5 121.5 629.5 121.5 629.5 122.6 626.5 125 626.5 126.8 620.4 132.5 615.5 132.5 615.5 130.8 618.5 129 618.5 126.3 622.5 122.7 622.5 119.5 619.5 119.5 619.5 118.1 623.5 116.2 623.5 114.1 623.5 113.2 623.5 112.5 626.8 112.5 628.8 109.5 629.8 109.5 632.5 106.7 632.5 108.6 630.5 109.8 630.5 114.5 632.5 114.5 632.5 112.1 633.5 111 633.5 109.5 634.5 109.5 634.5 107.8 639.4 103.5 641.9 103.5 644.5 101.5"/>
            </g>
            <rect class="cls-1" x="605" y="20" width="101" height="174" transform="translate(762.5 -548.5) rotate(90)"/>
            <g>
              <path d="M578.7,65h1.1l4,6.1h0v-6.1h1v7.5h-1.1l-3.9-6.1h0v6.1h-1v-7.5Z"/>
              <g>
                <polygon class="cls-17" points="581.7 103.2 584.8 90.5 581.7 90.5 578.6 90.5 581.7 103.2"/>
                <polygon class="cls-4" points="581.7 90.5 584.8 90.5 581.7 77.8 578.6 90.5 581.7 90.5"/>
              </g>
            </g>
            <g>
              <path d="M595.2,135.9h1.1v8.6h-1.1v-8.6Z"/>
              <path d="M598.7,142.5c0,.2,0,.4.2.6s.2.3.4.4.3.2.5.2c.2,0,.4,0,.6,0s.3,0,.5,0c.2,0,.3,0,.5-.1.1,0,.3-.2.4-.3s.1-.3.1-.5,0-.4-.2-.5-.3-.2-.5-.3c-.2,0-.4-.1-.6-.2s-.5-.1-.8-.2c-.3,0-.5-.1-.7-.2s-.5-.2-.6-.3c-.2-.1-.3-.3-.5-.5s-.2-.4-.2-.7,0-.6.2-.8c.1-.2.3-.4.5-.5.2-.1.5-.2.7-.3.3,0,.5-.1.8-.1s.7,0,1,0c.3,0,.6.2.8.3.2.1.4.3.5.6s.2.6.2.9h-1c0-.2,0-.4-.2-.5,0-.1-.2-.2-.3-.3s-.3-.1-.4-.2c-.2,0-.3,0-.5,0s-.3,0-.5,0c-.2,0-.3,0-.4.1-.1,0-.2.1-.3.2,0,.1-.1.2-.1.4s0,.3.2.4.3.2.5.3c.2,0,.4.1.6.2.2,0,.5.1.7.2.3,0,.5.1.8.2.2,0,.5.2.6.3.2.1.3.3.5.5s.2.4.2.7,0,.7-.2.9c-.2.3-.4.5-.6.6-.3.2-.5.3-.9.3-.3,0-.6,0-.9,0s-.7,0-1-.1c-.3,0-.6-.2-.8-.4-.2-.2-.4-.4-.6-.6-.1-.3-.2-.6-.2-1h1Z"/>
              <path d="M604.1,135.9h1v8.6h-1v-8.6Z"/>
              <path d="M612.2,144.5c0,0-.2,0-.3.1-.1,0-.3,0-.4,0-.3,0-.5,0-.6-.2-.2-.2-.2-.4-.2-.7-.3.3-.6.6-1,.7-.4.2-.8.2-1.2.2s-.5,0-.8,0c-.3,0-.5-.2-.7-.3-.2-.1-.3-.3-.4-.5-.1-.2-.2-.5-.2-.8s0-.6.2-.9.3-.4.5-.5.4-.2.7-.3c.3,0,.5-.1.8-.2.3,0,.5,0,.8-.1s.5,0,.7-.1c.2,0,.3-.1.5-.2.1-.1.2-.2.2-.4s0-.4-.1-.5-.2-.2-.3-.3c-.1,0-.3-.1-.4-.1-.2,0-.3,0-.5,0-.4,0-.8,0-1.1.2s-.4.5-.5.9h-1c0-.4,0-.7.2-1,.1-.3.3-.5.6-.6.2-.2.5-.3.8-.4.3,0,.6-.1,1-.1s.6,0,.8,0c.3,0,.5.1.8.2s.4.3.5.5c.1.2.2.5.2.9v3.2c0,.2,0,.4,0,.5s.1.2.3.2.2,0,.3,0v.8ZM610.6,141.3c0,0-.2.1-.4.2-.1,0-.3,0-.5.1-.2,0-.3,0-.5,0-.2,0-.4,0-.5,0-.2,0-.3,0-.5.1-.2,0-.3.1-.4.2s-.2.2-.3.3c0,.1-.1.3-.1.5s0,.3.1.4c0,.1.2.2.3.3s.2.1.4.2c.1,0,.3,0,.5,0,.3,0,.6,0,.9-.1.2,0,.4-.2.6-.3.2-.1.3-.3.3-.5s.1-.3.1-.5v-1Z"/>
              <path d="M615.4,145.3c-.1.3-.2.6-.4.8-.1.2-.2.4-.4.5-.1.1-.3.2-.5.3-.2,0-.4,0-.6,0s-.2,0-.4,0-.2,0-.3,0v-.9c0,0,.2,0,.3,0,0,0,.2,0,.3,0,.2,0,.4,0,.5-.1.1,0,.2-.2.3-.4l.4-1.1-2.5-6.2h1.2l1.8,5.1h0l1.7-5.1h1.1l-2.7,7Z"/>
            </g>
            <g>
              <path d="M701.1,70.1c0-.5-.2-.9-.6-1.1-.3-.2-.7-.3-1.2-.3s-.4,0-.6,0-.4.1-.5.2c-.2,0-.3.2-.4.4s-.1.4-.1.6,0,.4.2.5.3.2.5.3.5.2.7.2.6.1.8.2c.3,0,.6.1.8.2s.5.2.7.4c.2.2.4.3.5.6s.2.5.2.9,0,.7-.3,1c-.2.3-.4.5-.7.7s-.6.3-.9.4-.7.1-1,.1-.8,0-1.1-.2c-.4,0-.7-.3-.9-.5-.3-.2-.5-.5-.6-.8-.2-.3-.2-.7-.2-1.1h.9c0,.3,0,.6.2.8.1.2.3.4.5.5.2.1.4.2.7.3.2,0,.5.1.8.1s.4,0,.6,0,.4-.1.6-.2c.2,0,.3-.2.4-.4s.2-.4.2-.6,0-.4-.2-.6-.3-.3-.5-.4c-.2,0-.5-.2-.7-.2-.3,0-.6-.1-.8-.2-.3,0-.6-.1-.8-.2s-.5-.2-.7-.3-.4-.3-.5-.5c-.1-.2-.2-.5-.2-.8s0-.7.2-.9c.1-.3.3-.5.6-.6.2-.2.5-.3.8-.4.3,0,.6-.1,1-.1s.7,0,1,.1c.3,0,.6.2.8.4.2.2.4.4.6.7.1.3.2.6.2,1h-.9Z"/>
              <path d="M706.7,71.7c0-.3-.2-.6-.4-.8-.2-.2-.5-.3-.9-.3s-.6,0-.8.2c-.2.1-.4.3-.5.5-.1.2-.2.4-.3.6,0,.2,0,.5,0,.8s0,.5,0,.7.1.4.3.6.3.3.5.4c.2.1.4.2.7.2.4,0,.7-.1,1-.3s.4-.5.4-.9h.9c0,.6-.3,1.1-.7,1.5s-.9.5-1.6.5-.7,0-1-.2c-.3-.1-.6-.3-.8-.5-.2-.2-.4-.5-.5-.8s-.2-.7-.2-1.1,0-.7.1-1.1c.1-.3.3-.6.5-.9s.5-.4.8-.6c.3-.1.7-.2,1.1-.2s.6,0,.8.1c.3,0,.5.2.7.3.2.1.4.3.5.6.1.2.2.5.2.8h-.9Z"/>
              <path d="M708.3,71.5c.1-.3.3-.6.5-.9.2-.2.5-.4.8-.6.3-.1.7-.2,1.1-.2s.8,0,1.1.2.6.3.8.6c.2.2.4.5.5.9.1.3.2.7.2,1.1s0,.7-.2,1.1c-.1.3-.3.6-.5.9-.2.2-.5.4-.8.6-.3.1-.7.2-1.1.2s-.8,0-1.1-.2c-.3-.1-.6-.3-.8-.6-.2-.2-.4-.5-.5-.9-.1-.3-.2-.7-.2-1.1s0-.7.2-1.1ZM709.2,73.4c0,.2.2.4.3.6.1.2.3.3.5.4.2,0,.4.1.6.1s.4,0,.6-.1c.2,0,.4-.2.5-.4s.3-.4.3-.6c0-.2.1-.5.1-.8s0-.6-.1-.8c0-.2-.2-.4-.3-.6-.1-.2-.3-.3-.5-.4-.2,0-.4-.1-.6-.1s-.4,0-.6.1c-.2,0-.4.2-.5.4-.1.2-.3.4-.3.6,0,.2-.1.5-.1.8s0,.6.1.8Z"/>
              <path d="M715.3,70h1v.8h-1v3.2c0,0,0,.2,0,.2,0,0,0,.1,0,.1,0,0,.1,0,.2,0,0,0,.2,0,.3,0h.4v.8h-.6c-.2,0-.4,0-.6,0-.2,0-.3,0-.4-.2s-.2-.2-.2-.3,0-.3,0-.6v-3.3h-.9v-.8h.9v-1.5h.9v1.5Z"/>
              <path d="M717.2,68h.8v7.1h-.8v-7.1Z"/>
              <path d="M723.8,75.2c0,0-.2,0-.3,0s-.2,0-.3,0c-.2,0-.4,0-.5-.2-.1-.1-.2-.3-.2-.6-.2.3-.5.5-.8.6-.3.1-.6.2-1,.2s-.5,0-.7,0-.4-.1-.5-.3c-.2-.1-.3-.3-.4-.5s-.1-.4-.1-.7,0-.5.1-.7c.1-.2.2-.3.4-.5.2-.1.3-.2.6-.3s.4-.1.6-.2c.2,0,.5,0,.7-.1.2,0,.4,0,.5,0,.2,0,.3-.1.4-.2,0,0,.1-.2.1-.4s0-.3,0-.5c0-.1-.2-.2-.3-.3-.1,0-.2-.1-.4-.1-.1,0-.3,0-.4,0-.4,0-.7,0-.9.2s-.4.4-.4.8h-.9c0-.3,0-.6.2-.8s.3-.4.5-.5.4-.2.7-.3c.3,0,.5,0,.8,0s.5,0,.7,0c.2,0,.4.1.6.2.2.1.3.2.4.4s.2.4.2.7v2.7c0,.2,0,.3,0,.4,0,0,.1.1.2.1s.2,0,.3,0v.7ZM722.4,72.5c0,0-.2,0-.3.1-.1,0-.2,0-.4,0-.1,0-.3,0-.4,0-.2,0-.3,0-.4,0-.1,0-.3,0-.4.1-.1,0-.2,0-.3.2,0,0-.2.2-.2.3s0,.2,0,.4,0,.3,0,.4.1.2.2.2c0,0,.2.1.3.1s.2,0,.4,0c.3,0,.5,0,.7-.1.2,0,.4-.2.5-.3.1-.1.2-.2.3-.4s0-.3,0-.4v-.9Z"/>
              <path d="M724.5,70h.8v.8h0c.2-.3.4-.6.7-.7.3-.2.6-.2,1-.2s.6,0,.9.1c.2,0,.4.2.5.4.1.2.2.4.3.6,0,.2,0,.5,0,.8v3.4h-.8v-3.5c0-.3,0-.6-.3-.8s-.4-.3-.8-.3-.5,0-.7.1c-.2,0-.3.2-.5.3-.1.1-.2.3-.3.5,0,.2,0,.4,0,.6v2.9h-.9v-5.2Z"/>
              <path d="M734.6,75.2h-.8v-.7h0c-.1.3-.4.5-.7.6-.3.1-.6.2-1,.2s-.7,0-1-.2c-.3-.1-.5-.3-.7-.6-.2-.2-.3-.5-.4-.9,0-.3-.1-.7-.1-1s0-.7.1-1,.2-.6.4-.9c.2-.2.4-.4.7-.6.3-.1.6-.2,1-.2s.3,0,.4,0c.2,0,.3,0,.5.1s.3.1.4.2.3.2.3.4h0v-2.7h.8v7.1ZM730.7,73.3c0,.2.2.4.3.6.1.2.3.3.5.4.2.1.4.2.7.2s.5,0,.7-.2.4-.3.5-.4.2-.4.3-.6c0-.2,0-.5,0-.7s0-.5,0-.7c0-.2-.2-.4-.3-.6-.1-.2-.3-.3-.5-.4-.2-.1-.5-.2-.8-.2s-.5,0-.7.2c-.2.1-.4.3-.5.5-.1.2-.2.4-.3.6,0,.2,0,.5,0,.7s0,.5,0,.7Z"/>
            </g>
          </g>
          <g>
            <g>
              <g>
                <path class="cls-16" d="M483.1,231.5c0-2.9-1.3-4.5-3.5-4.5s-1.7.1-2.4.7c-.6-2.7-2.9-4.8-5.8-4.8s-1.3,0-1.9.3c0-.1,0-.2,0-.4,0-4.8-3.9-8.7-8.7-8.7s-7.9,3.2-8.6,7.3c-.8-.3-1.7-.5-2.6-.5-3.6,0-6.6,3.7-6.6,7.4s.3,2.8.8,3.8h-31.8"/>
                <path class="cls-16" d="M443,227.4c0-3.6,3-6.6,6.6-6.6s3.9.9,5.1,2.4"/>
              </g>
              <line class="cls-12" x1="437" y1="237.5" x2="475" y2="237.5"/>
            </g>
            <g>
              <path class="cls-11" d="M664.6,266.5c3-4.2.1-13-6.9-13.2-2.6,0-5,.6-7.1,1.9-1.7-3.9-5.5-6.7-10-6.8-.5,0-1,0-1.5,0-1.2-5.5-5.9-9.7-11.8-9.9-5.7-.2-10.6,3.5-12.3,8.6-1.1-.7-2.3-1.1-3.7-1.2-1.5,0-3,.4-4.2,1.2-2.3-3.3-6-5.5-10.3-5.6-6.9-.2-12.8,4.9-13.5,11.7-5.1.6-9.1,4.8-9.3,10,0,1.2.1,2.3.4,3.3"/>
              <path class="cls-8" d="M605.1,251.7c.1-3.2,2.8-5.8,6.1-5.7,3.2.1,5.8,2.8,5.7,6.1"/>
              <path class="cls-11" d="M643,253.8c1.1-2.3,3.3-4,6-4.3,4.1-.5,7.8,2.5,8.2,6.6.2,1.7-.2,3.2-1,4.6"/>
              <path class="cls-8" d="M637.4,254.9c.7-1.6,2.2-2.7,4-2.9,2.8-.3,5.2,1.7,5.5,4.4"/>
              <line class="cls-10" x1="677" y1="269.5" x2="637" y2="269.5"/>
              <line class="cls-10" x1="621" y1="273.5" x2="652" y2="273.5"/>
              <line class="cls-10" x1="566" y1="268.5" x2="602" y2="268.5"/>
              <line class="cls-10" x1="662" y1="278.5" x2="692" y2="278.5"/>
            </g>
            <g>
              <polygon class="cls-13" points="744.4 360.2 698 320.9 653.7 285.6 617.6 278.8 598.8 268.1 588.5 268.4 566.3 255.1 553.5 258 536.3 252.9 524 239.1 488 226.8 470.5 233.8 464.5 240.9 452.8 244.4 447.6 251.1 407.4 261.7 395.6 269.7 395.6 360.2 744.4 360.2"/>
              <polygon class="cls-7" points="744.4 359.5 698 320.5 653.7 285.4 617.6 278.7 598.8 268 588.5 268.4 566.3 255.1 566.2 255.1 566 255.4 584.3 277.5 581.1 281.6 584.5 294.4 570 309.7 586 304.4 575.8 326.6 559 339.5 579 339.5 527.5 359.5 744.4 359.5"/>
              <polygon class="cls-24" points="580.9 343.1 538 310.3 442.8 281.3 437.8 275.6 421.4 269.8 403.7 266.3 386.9 277.3 400.4 285.6 406.9 309.6 421.4 312.2 405.8 332.3 431.7 320.8 440 325.9 440 337.9 455.7 362 633.4 362 580.9 343.1"/>
              <polyline class="cls-12" points="455.4 256.1 464.8 261.5 475.8 278.8 492.5 291.5"/>
              <polyline class="cls-12" points="495 269.5 499.2 279.4 499.2 292.5 505.6 307.8"/>
              <polyline class="cls-12" points="496.8 242.2 500.1 255.1 508.3 259.7 509.3 266.3"/>
              <polyline class="cls-12" points="504.2 277.6 505.6 269.5 502.1 263.6"/>
              <polyline class="cls-12" points="475.8 239.6 477 246.9 486 255.1"/>
              <line class="cls-12" x1="510.5" y1="250.7" x2="506.6" y2="258.7"/>
              <polyline class="cls-12" points="520.1 259.5 520.1 265.2 524 271.2 520.1 278.8"/>
              <line class="cls-12" x1="529" y1="288.2" x2="535.1" y2="298"/>
              <line class="cls-12" x1="511.6" y1="283.7" x2="516.6" y2="294.3"/>
              <polyline class="cls-12" points="545.4 283.7 533.4 300.3 532.6 318.6"/>
              <polyline class="cls-12" points="544.5 263 545.4 273.8 537 283.7"/>
              <polyline class="cls-12" points="516.6 272.2 511.6 283.7 506.1 285.8 500.3 295.1"/>
              <polyline class="cls-12" points="482.2 270.3 485.8 277.6 484.9 285.7"/>
              <polyline class="cls-12" points="588.5 268.4 614.2 285.1 634.3 291.5"/>
              <polyline class="cls-12" points="429.8 261 442.3 263.6 448.1 272.2"/>
              <polyline class="cls-12" points="461.9 275 467.9 281.1 471 290.7 486 301.9"/>
              <polyline class="cls-12" points="464.4 285.7 454 282.8 447.5 277.3"/>
              <polyline class="cls-12" points="420.5 267.3 431.5 272.9 436.5 281.4"/>
              <polyline class="cls-12" points="464.5 240.9 467.4 247.8 464.4 256.1"/>
              <polyline class="cls-12" points="586 304.4 597.3 317.1 613.6 324.8 643.7 328.9"/>
              <polyline class="cls-12" points="537 258.7 535.5 269.2 528.1 278.8"/>
              <line class="cls-12" x1="528.1" y1="265" x2="522.9" y2="269.5"/>
              <polyline class="cls-12" points="524 239.1 524 248.3 518.7 255.1"/>
              <polyline class="cls-12" points="567 288.7 563.5 298 553.1 307.3"/>
              <line class="cls-12" x1="584.3" y1="277.5" x2="598.9" y2="290.1"/>
            </g>
            <g>
              <path class="cls-11" d="M347.8,290.9c.5-.5.9-1.1,1.2-1.7.9,1,2.3,1.6,3.7,1.6s3.5-1,4.4-2.5c.8,1,2,1.6,3.3,1.6s3.5-1.2,4-3c.2,0,.3,0,.5,0,1.1,0,2-.6,2.5-1.5.2,0,.5,0,.8,0,1.9,0,3.4-1.5,3.4-3.4s-1.5-3.4-3.4-3.4-1.1.1-1.5.4c-.3-1.5-1.5-2.7-3-2.8.1-.4.2-.9.2-1.3,0-2.5-2-4.5-4.5-4.5s-2.7.7-3.5,1.7c-.4-.2-.9-.3-1.4-.4,0-.2,0-.3,0-.5,0-1.6-1-2.9-2.4-3.4,1.1-.8,1.8-2,1.8-3.5,0-2.2-1.6-3.9-3.7-4.2,1.1-1,1.8-2.4,1.8-4,0-3-2.4-5.4-5.4-5.4s-.4,0-.6,0c-.4-2.9-3-5.2-6-5.2s-4.2,1.2-5.2,3c-.7-.4-1.6-.6-2.5-.6-3.1,0-5.6,2.5-5.6,5.6s0,.9.2,1.3c-.9.4-1.6,1.4-1.6,2.5s0,.2,0,.3c-1.8.4-3.2,2-3.2,3.9s0,.2,0,.2c-1.5.6-2.6,2-2.6,3.8s.5,2.3,1.3,3c-.1.3-.2,1.3-.2,1.6s0,.8,0,.8h0c-1.6,0-3,.3-3.7,1.6-.6-.3-1.2-.7-1.8-.7-2.4,0-4.3,1.8-4.3,4.1s0,.6.1.9c-.4.2-.8.4-1.1.7-.5-.2-1.1-.3-1.6-.3-1.8,0-3.4,1-4.3,2.4-.1,0-.2,0-.4,0-.7,0-1.3.2-1.9.5-.9-.8-2.1-1.2-3.4-1.2-2.9,0-5.3,2.4-5.3,5.3s0,0,0,0c-2.5.1-4.4,2.2-4.4,4.7s.2,1.4.5,2"/>
              <line class="cls-8" x1="283.4" y1="296.5" x2="333.7" y2="296.5"/>
              <line class="cls-8" x1="253.7" y1="301.3" x2="289.9" y2="301.3"/>
              <path class="cls-8" d="M352.7,267.4c1.7-1.7,1.7-4.3,0-6-1.7-1.7-4.3-1.7-6,0"/>
              <path class="cls-8" d="M334.7,268c-.6-1.6-2.5-2.3-4.3-1.7-1.8.6-2.9,2.4-2.3,4"/>
              <path class="cls-8" d="M330.9,270.2c-1.6-1.6-4.3-1.6-5.9,0-1.6,1.6-1.6,4.3,0,5.9"/>
              <path class="cls-8" d="M352.8,270.8c1.2-.9,1.5-2.7.5-3.9s-2.7-1.5-3.9-.5"/>
              <path class="cls-8" d="M328.1,277.7c-1.1-1.7-3.1-2.9-5.2-2.7-3.1.2-5.5,2.9-5.2,6.1"/>
            </g>
            <g>
              <g>
                <path class="cls-11" d="M591.3,316.2s.2,0,.2,0c0-4-3.1-7.2-7.1-7.2s-3.3.6-4.6,1.7c-.8-.4-1.6-.6-2.5-.6s-.3,0-.5,0c-1.2-2-3.4-3.3-5.9-3.3s-1.5.1-2.2.4c-.4-.4-.9-.8-1.5-1.1,0-.4.1-.8.1-1.3,0-3.2-2.6-5.8-5.8-5.8s-1.7,0-2.5.3c-1-1.8-2.9-3.2-5.1-3.2h0s0,.1,0,0c0-.5-.1-.8-.3-1.3,1.1-1,1.8-2.4,1.8-4,0-2.4-1.5-4.3-3.6-5.1,0-.1,0-.2,0-.3,0-2.6-1.9-4.8-4.3-5.3,0-.1,0-.3,0-.4,0-1.5-.9-2.8-2.1-3.4.1-.6.2-1.2.2-1.8,0-4.2-3.4-7.7-7.7-7.7s-2.4.3-3.4.8c-1.5-2.4-4.1-4.1-7.2-4.1s-7.6,3.1-8.3,7.1c-.2,0-.5,0-.8,0-4.1,0-7.3,3.3-7.3,7.3s1,4.2,2.5,5.5c-2.9.4-5.1,2.8-5.1,5.7s1,3.7,2.5,4.8c-1.9.7-3.3,2.5-3.3,4.7s0,.5,0,.7c-.7,0-1.3.3-1.9.5-1.1-1.4-2.9-2.4-4.8-2.4-3.4,0-6.1,2.7-6.1,6.1s0,1.3.3,1.8c-2.1.2-3.7,1.8-4.1,3.8-.6-.3-1.3-.9-2.1-.9-2.4,0-4.3.7-4.6,3.7h-17.6v36h130v-25.4c0-3.4-2.3-6.2-5.6-6.4Z"/>
                <path class="cls-8" d="M510.3,293.3c-2.3-2.3-2.3-5.9,0-8.2s5.9-2.3,8.2,0"/>
                <path class="cls-8" d="M554,296.5c3.2,0,5.8,2.6,5.8,5.8"/>
                <path class="cls-8" d="M538.4,295.4c.8-2.4,3.7-3.5,6.4-2.5,2.7,1,4.3,3.6,3.5,6"/>
                <path class="cls-8" d="M544.6,296.2c2.2-2.2,5.8-2.2,8.1,0,2.2,2.2,2.2,5.8,0,8.1"/>
                <path class="cls-8" d="M565.8,326.5c.4-3.4,3.6-5.9,7-5.5,2.3.3,4.2,1.8,5,3.9"/>
                <path class="cls-8" d="M510.1,298c-1.7-1.3-2-3.6-.7-5.3s3.6-2,5.3-.7"/>
                <path class="cls-8" d="M548.5,306.4c1.5-2.4,4.2-3.9,7.2-3.7,4.3.3,7.5,4,7.2,8.3"/>
                <path class="cls-8" d="M559.7,327.4c.6-1.6,2.1-2.8,3.9-3,2.6-.3,4.9,1.6,5.2,4.2"/>
              </g>
              <g>
                <path class="cls-11" d="M664.6,361c-.9-5-5.6-9.8-11.3-9.8s-2,0-3,.3c-.9-2.2-2.4-4.2-4.4-5.4.1-.7.2-1.5.2-2.2-.2-4.7-3.8-8.5-8.3-9-.7-6-5.9-10.6-12.1-10.4-3.8.1-7.2,2.1-9.2,5-1.1-.7-2.4-1.1-3.7-1-1.2,0-2.3.4-3.3,1.1-1.5-4.6-5.9-7.9-11-7.7-5.2.2-9.5,3.9-10.5,8.8-.4,0-.9-.1-1.3,0-4,.1-7.4,2.6-8.9,6.1-1.8-1.1-4-1.8-6.3-1.7-6.3.2-11.2,5.5-11,11.8.2,5.7,4.6,10.6,10.1,11.2.2,1,.6,1.1,1.1,3.1h93.1Z"/>
                <path class="cls-8" d="M619,334.1c-.1-3.3-2.9-5.8-6.1-5.7-3.3.1-5.8,2.9-5.7,6.1,0,.4,0,.7.1,1.1"/>
                <path class="cls-8" d="M596.3,342.6c-.7-2.2-2.4-3.9-4.8-4.5-3.6-.9-7.2,1.3-8,4.9"/>
                <path class="cls-8" d="M600.8,342.9c-.5-1.1-1.5-1.9-2.8-2-1.9-.2-3.7,1.2-3.9,3.1"/>
                <path class="cls-8" d="M626.4,340.1c.4-1.9,0-4-1.6-5.5-2.3-2.2-5.9-2.2-8.2.1-.9.9-1.6,2.7-1.5,4.1"/>
              </g>
            </g>
            <g>
              <polygon class="cls-13" points="253.2 360.2 306.8 310.8 344.3 286.9 371.3 264.2 395.6 269.7 412 275.5 417 281 512.2 309.9 555.1 342.2 607.8 360.2 253.2 360.2"/>
              <polygon class="cls-7" points="555.1 342.9 512.2 310.2 417 281.2 412 275.6 395.6 269.8 371.3 264.3 371.1 264.3 362.9 281.5 374.6 285.6 381.1 309.6 395.6 312.2 380 332.3 406.1 320.8 414.5 325.9 414.5 337.9 429.8 361.5 607.6 361.5 555.1 342.9"/>
              <polyline class="cls-12" points="399.7 296.3 386.9 294.3 374.6 285.6"/>
              <polyline class="cls-12" points="420.5 313.4 411 312 404.3 305.9"/>
              <polyline class="cls-12" points="381.1 309.6 349.2 331.6 304.2 342.2"/>
              <polyline class="cls-12" points="365.8 294.9 347.7 311.3 324.8 316.6 304.2 328.9"/>
              <line class="cls-12" x1="341.3" y1="300.3" x2="341.3" y2="312.8"/>
              <polyline class="cls-12" points="415.3 325.9 431.3 335.7 450.5 338.7 465.9 344.4"/>
              <line class="cls-12" x1="395.6" y1="312.2" x2="403.7" y2="322.1"/>
            </g>
            <g>
              <g>
                <path class="cls-16" d="M662.7,188.8c0-4.7-2.8-7-6.4-7s-3,.4-4.1,1.3c-1-4.4-4.9-7.8-9.6-7.8s-2.2.1-3.2.5c0-.2,0-.4,0-.6,0-7.8-6.3-14.2-14.2-14.2s-12.9,5.1-14,11.9c-1.3-.6-2.7-.9-4.2-.9-5.9,0-10.7,5.4-10.7,11.3s.5,3.6,1.2,5.6h-47.7"/>
                <path class="cls-16" d="M596.4,182.8c0-5.9,4.8-10.7,10.7-10.7s6.3,1.5,8.3,3.9"/>
              </g>
              <line class="cls-12" x1="573" y1="203.5" x2="614" y2="203.5"/>
              <line class="cls-12" x1="528" y1="203.5" x2="554" y2="203.5"/>
            </g>
            <g>
              <rect class="cls-7" x="685.5" y="333" width="2.4" height="19.7"/>
              <rect class="cls-14" x="675.7" y="355" width="32.7" height="5.6"/>
              <polygon class="cls-7" points="709.4 355 675.7 355 675.7 350.4 707.4 350.4 709.4 355"/>
            </g>
            <g>
              <rect class="cls-14" x="266.7" y="352.6" width="15.4" height="7.6"/>
              <polygon class="cls-7" points="276.9 348.5 276.5 348.5 276.4 345 274.6 343.4 272.9 345.2 272.8 348.5 272.4 348.5 266.2 353.5 274.6 353.5 283.1 353.5 276.9 348.5"/>
              <rect x="269.2" y="354.5" width="1.6" height="1.6"/>
              <rect x="277.9" y="354.5" width="1.6" height="1.6"/>
            </g>
            <g>
              <rect class="cls-14" x="386.7" y="352.6" width="15.4" height="7.6"/>
              <polygon class="cls-7" points="396.9 348.5 396.5 348.5 396.4 345 394.6 343.4 392.9 345.2 392.8 348.5 392.4 348.5 386.2 353.5 394.6 353.5 403.1 353.5 396.9 348.5"/>
              <rect x="389.2" y="354.5" width="1.6" height="1.6"/>
              <rect x="398" y="354.5" width="1.6" height="1.6"/>
            </g>
            <g>
              <rect class="cls-14" x="279.8" y="347.4" width="27.9" height="13.2"/>
              <polygon class="cls-7" points="284.4 342.4 304 342.4 304 347.4 279.8 347.4 284.4 342.4"/>
              <rect class="cls-7" x="284.5" y="339.5" width="1.5" height="2.9"/>
              <polygon class="cls-19" points="305.5 341.5 305.5 339.5 303.5 339.5 303.5 341.5 299.5 347.2 299.5 360.2 312.4 360.2 311.5 347.2 305.5 341.5"/>
              <rect x="282.7" y="348.2" width="1.5" height="3.7"/>
              <rect x="287.8" y="348.2" width="1.5" height="3.7"/>
              <rect x="292.8" y="348.2" width="1.5" height="3.7"/>
              <rect x="282.7" y="354" width="1.5" height="3.7"/>
              <rect x="287.8" y="354" width="1.5" height="3.7"/>
              <rect x="292.8" y="354" width="1.5" height="3.7"/>
              <rect x="301.9" y="348.2" width="1.5" height="3.7"/>
              <rect x="309.2" y="348.2" width="1.5" height="3.7"/>
              <rect x="301.9" y="354" width="1.5" height="3.7"/>
              <rect x="309.2" y="354" width="1.5" height="3.7"/>
            </g>
            <g>
              <rect class="cls-14" x="309" y="347.4" width="27.9" height="13.2"/>
              <polygon class="cls-7" points="313.6 342.4 333.2 342.4 333.2 347.4 309 347.4 313.6 342.4"/>
              <rect class="cls-7" x="313.7" y="339.5" width="1.5" height="2.9"/>
              <polygon class="cls-19" points="337.5 341.5 337.5 339.5 333.5 339.5 333.5 341.5 327.5 347.2 327.5 360.2 341 360.2 341.8 347.2 337.5 341.5"/>
              <rect x="312" y="348.2" width="1.5" height="3.7"/>
              <rect x="317" y="348.2" width="1.5" height="3.7"/>
              <rect x="322.1" y="348.2" width="1.5" height="3.7"/>
              <rect x="312" y="354" width="1.5" height="3.7"/>
              <rect x="317" y="354" width="1.5" height="3.7"/>
              <rect x="322.1" y="354" width="1.5" height="3.7"/>
              <rect x="331.1" y="348.2" width="1.5" height="3.7"/>
              <rect x="338.5" y="348.2" width="1.5" height="3.7"/>
              <rect x="331.1" y="354" width="1.5" height="3.7"/>
              <rect x="338.5" y="354" width="1.5" height="3.7"/>
            </g>
            <g>
              <rect class="cls-14" x="337.9" y="347.4" width="27.9" height="13.2"/>
              <polygon class="cls-7" points="342.5 342.4 362.1 342.4 362.1 347.4 337.9 347.4 342.5 342.4"/>
              <rect class="cls-7" x="342.6" y="339.5" width="1.5" height="2.9"/>
              <polygon class="cls-19" points="365.5 341.5 365.5 339.5 361.5 339.5 361.5 341.5 357.5 347.2 357.5 360.2 370.5 360.2 370.5 347.2 365.5 341.5"/>
              <rect x="340.8" y="348.2" width="1.5" height="3.7"/>
              <rect x="345.9" y="348.2" width="1.5" height="3.7"/>
              <rect x="351" y="348.2" width="1.5" height="3.7"/>
              <rect x="340.8" y="354" width="1.5" height="3.7"/>
              <rect x="345.9" y="354" width="1.5" height="3.7"/>
              <rect x="351" y="354" width="1.5" height="3.7"/>
              <rect x="360" y="348.2" width="1.5" height="3.7"/>
              <rect x="367.4" y="348.2" width="1.5" height="3.7"/>
              <rect x="360" y="354" width="1.5" height="3.7"/>
              <rect x="367.4" y="354" width="1.5" height="3.7"/>
            </g>
            <g>
              <rect class="cls-14" x="619.9" y="347.4" width="27.9" height="13.2"/>
              <polygon class="cls-7" points="624.5 342.4 644.2 342.4 644.2 347.4 619.9 347.4 624.5 342.4"/>
              <rect class="cls-7" x="624.6" y="339.5" width="1.5" height="2.9"/>
              <polygon class="cls-19" points="645.5 341.5 645.5 339.5 643.5 339.5 643.5 341.5 639.5 347.2 639.5 360.2 652.5 360.2 651.5 347.2 645.5 341.5"/>
              <rect x="622.9" y="348.2" width="1.5" height="3.7"/>
              <rect x="627.9" y="348.2" width="1.5" height="3.7"/>
              <rect x="633" y="348.2" width="1.5" height="3.7"/>
              <rect x="622.9" y="354" width="1.5" height="3.7"/>
              <rect x="627.9" y="354" width="1.5" height="3.7"/>
              <rect x="633" y="354" width="1.5" height="3.7"/>
              <rect x="642" y="348.2" width="1.5" height="3.7"/>
              <rect x="649.4" y="348.2" width="1.5" height="3.7"/>
              <rect x="642" y="354" width="1.5" height="3.7"/>
              <rect x="649.4" y="354" width="1.5" height="3.7"/>
            </g>
            <g>
              <rect class="cls-14" x="647.2" y="347.4" width="27.9" height="13.2"/>
              <polygon class="cls-7" points="651.8 342.4 671.4 342.4 671.4 347.4 647.2 347.4 651.8 342.4"/>
              <rect class="cls-7" x="651.9" y="339.5" width="1.5" height="2.9"/>
              <polygon class="cls-19" points="675.5 341.5 675.5 339.5 672.5 339.5 672.5 341.5 667.5 347.2 667.5 360.2 680.1 360.2 680.3 347.2 675.5 341.5"/>
              <rect x="650.1" y="348.2" width="1.5" height="3.7"/>
              <rect x="655.1" y="348.2" width="1.5" height="3.7"/>
              <rect x="660.2" y="348.2" width="1.5" height="3.7"/>
              <rect x="650.1" y="354" width="1.5" height="3.7"/>
              <rect x="655.1" y="354" width="1.5" height="3.7"/>
              <rect x="660.2" y="354" width="1.5" height="3.7"/>
              <rect x="669.2" y="348.2" width="1.5" height="3.7"/>
              <rect x="676.6" y="348.2" width="1.5" height="3.7"/>
              <rect x="669.2" y="354" width="1.5" height="3.7"/>
              <rect x="676.6" y="354" width="1.5" height="3.7"/>
            </g>
            <g>
              <g>
                <polygon class="cls-7" points="232.4 321.3 228.5 326 228.5 335.5 236.5 335.5 236.5 326 232.4 321.3"/>
                <rect class="cls-14" x="231.2" y="327.5" width="3.1" height="2.9"/>
              </g>
              <polygon class="cls-14" points="240.8 360.5 223.5 360.5 224.9 338.8 239.4 338.8 240.8 360.5"/>
              <polygon class="cls-26" points="240.8 360.5 227.3 360.5 235.4 338.9 239.4 338.8 240.8 360.5"/>
              <polygon class="cls-12" points="240.8 360.5 223.5 360.5 224.9 338.8 239.4 338.8 240.8 360.5"/>
              <rect class="cls-14" x="223.5" y="331.6" width="17.4" height="7.2"/>
              <rect x="233.4" y="353.5" width="2.9" height="7"/>
            </g>
          </g>
          <g>
            <polygon class="cls-7" points="178.7 360.5 102 360.5 102.8 358 99.4 354.7 180.5 354.7 178.7 360.5"/>
            <rect class="cls-14" x="99.4" y="352.7" width="81.2" height="1.9"/>
            <polygon class="cls-14" points="106.9 349.8 162.2 349.8 162.2 352.7 104.9 352.7 106.9 349.8"/>
            <g>
              <rect class="cls-3" x="113.8" y="344" width="3.8" height="5.8"/>
              <rect class="cls-6" x="113.8" y="341.9" width="3.8" height="2"/>
            </g>
            <g>
              <rect class="cls-3" x="126.5" y="344" width="3.8" height="5.8"/>
              <rect class="cls-6" x="126.5" y="341.9" width="3.8" height="2"/>
            </g>
            <g>
              <rect class="cls-3" x="139.1" y="344" width="3.8" height="5.8"/>
              <rect class="cls-6" x="139.1" y="341.9" width="3.8" height="2"/>
            </g>
            <g>
              <rect class="cls-3" x="151.8" y="344" width="3.8" height="5.8"/>
              <rect class="cls-6" x="151.8" y="341.9" width="3.8" height="2"/>
            </g>
          </g>
          <g>
            <line class="cls-2" x1="97" y1="360.5" x2="750" y2="360.5"/>
            <line class="cls-2" x1="81" y1="360.5" x2="49" y2="360.5"/>
          </g>
          <g>
            <path class="cls-22" d="M104.6,449.4c0-.4-.1-.9-.3-1.4-5,.8-5.9,1.1-6.5,1.3-.2-.6-.7-2.1-1.1-2.9.7-.2,1.3-.8,2.2-1.9.3-.4,1-1.2,1.7-2.2-2.1.3-2.7.4-3.1.6-.2-.6-.6-2-1-2.8.6-.1,1.1-.7,1.6-1.5.6-.8,2.4-3.9,3.4-6.9l2.9,1.2c-1.1,2.4-2.5,4.8-3.9,6.9h1.8c.7-1.3,1.5-2.7,2-3.9l2.8,1.7c-1.1,1.9-2.4,3.9-3.8,5.8l2-.6c.6,1.9,1.3,4.4,1.6,5.9l-2.5.8ZM100.4,450.6c-.2,2.5-.6,5.1-1.2,6.9-.6-.3-1.8-.7-2.5-.9.7-1.7,1-4.1,1.1-6.4l2.6.4ZM103.4,450.1c.4,1.9.7,4.4.8,6l-2.4.5c0-1.7-.3-4.2-.6-6.1l2.3-.4ZM103.8,445.6c-.2-.7-.4-1.3-.6-1.9-.6.8-1.2,1.5-1.8,2.2l2.4-.3ZM106.2,449.3c.6,1.6,1.3,3.7,1.7,5l-2.3.9c-.3-1.4-1-3.5-1.6-5.2l2.2-.8ZM121.7,435.5c-1.1,2.7-2.6,5-4.5,7,1.8,1.4,3.9,2.5,6.1,3.2-.7.7-1.7,1.9-2.1,2.7-2.3-.9-4.4-2.2-6.2-3.9-1.9,1.6-4.1,2.9-6.3,3.8-.4-.8-1.3-2.1-2-2.6,2.2-.8,4.3-1.9,6.1-3.3-.7-.8-1.4-1.7-2-2.6-.6.8-1.3,1.5-2.1,2.2-.4-.7-1.5-1.7-2.3-2.1,2.8-2.3,4.6-5.4,5.5-8l3.2.5c-.3.7-.6,1.4-1,2.1h5.4c0-.1,2.1,1.1,2.1,1.1ZM110.4,451.4c3.6,1,8,2.8,10.6,4.2l-1.9,2.6c-2.5-1.5-6.9-3.4-10.6-4.5l1.9-2.3ZM113.4,446.7c2,.8,4.4,2.1,5.8,3.1l-1.9,2.3c-1.3-1.1-3.7-2.5-5.7-3.2l1.9-2.1ZM112.6,437.4c.6,1,1.4,2.1,2.4,3.1,1-1,1.8-2,2.4-3.2h-4.8Z"/>
            <path class="cls-22" d="M150.7,452h-9.6v6h-3.4v-6h-12.6v-3.2h4.4v-7.3h8.2v-3.4h-6c-1.1,2-2.5,3.8-3.8,5.1-.6-.6-2.1-1.7-2.9-2.2,2.5-2.1,4.7-5.7,5.9-9.3l3.4.9c-.3.8-.6,1.5-.9,2.3h15.8v3.2h-8v3.4h7.4v3.1h-7.4v4.3h9.6v3.2ZM137.7,448.8v-4.3h-4.8v4.3h4.8Z"/>
            <path class="cls-22" d="M157.5,445.5c-1-1-3-2.2-4.5-3.1l1.8-2.3c1.6.7,3.6,1.9,4.6,2.8l-1.9,2.5ZM153.6,455.7c1.1-2.2,2.7-5.7,3.9-9l2.5,1.8c-1,3-2.3,6.2-3.5,9l-2.9-1.8ZM159.3,437.7c-1-1-3.2-2.3-4.8-3.2l1.8-2.2c1.6.8,3.8,2,5,2.9l-2,2.5ZM176.9,448c0,1.1-.2,2.1-.3,3h1.7v2.8h-2.1c-.2,1.3-.5,2.1-.8,2.6-.6.9-1.3,1.1-2.3,1.3-.8.1-2.2.1-3.5,0,0-.8-.4-2-.9-2.7,1.2.1,2.3.1,2.9.1s.7,0,1-.4c.1-.2.3-.4.4-.9h-11.6c.3-1.6.6-3.6,1-5.8h-2.5v-3h2.9c.2-1.5.4-3,.5-4.5-.3.5-.7,1-1,1.4-.6-.5-2.1-1.4-2.9-1.8,1.9-2,3.5-5.2,4.5-8.3l3.2.8c-.2.6-.5,1.3-.8,2h11.9v3h-13.3c-.3.6-.6,1.3-1,1.8h13.2s0,1,0,1.4c0,1.5-.1,2.8-.2,4.1h2v3h-2.2ZM165.5,448c-.1,1-.3,2-.4,3h4.2c-.7-.8-1.6-1.6-2.4-2.3l1.1-.7h-2.4ZM166.2,442.3c-.1.9-.2,1.8-.3,2.7h3.8c-.6-.7-1.3-1.4-2-2l1-.6h-2.4ZM173.5,450.9c.1-.8.2-1.8.3-3h-4.5c.9.8,1.9,1.7,2.5,2.4l-.9.6h2.6ZM169.9,442.3c.8.7,1.7,1.5,2.1,2.1l-.8.5h2.7c0-.8,0-1.7.1-2.7h-4.1Z"/>
            <path class="cls-22" d="M203.9,432.9c-.1,11-.2,21.4,1.1,21.4s.4-1.7.5-3.9c.5.9,1.2,2,1.8,2.7-.3,3.3-.9,4.9-2.7,4.9-4,0-4-10-4-21.9h-13.7v6.6c0,4.6-.4,11.3-3.6,15.4-.6-.6-1.9-1.5-2.7-1.8,2.8-3.8,3.1-9.4,3.1-13.6v-9.7h20.2ZM198.8,450c1.1,1.9,2.2,4.5,2.6,6.2l-2.7.9c-.1-.5-.3-1.2-.5-1.9-4.1.4-8.3.7-11.4,1l-.2-3c1.5,0,3.5-.2,5.6-.3v-2.9h-4.3v-8.1h4.3v-1.9h-4.5v-2.6h11.9v2.6h-4.6v1.9h4.5v8.1h-4.5v2.7h2.1c-.3-.8-.6-1.3-.9-1.9l2.5-.8ZM192.1,447.4v-3.1h-1.8v3.1h1.8ZM195,444.3v3.1h1.8v-3.1h-1.8Z"/>
          </g>
          <g>
            <path class="cls-22" d="M350.4,442c-.4,2.4-1.2,4.9-2.7,6.7-.6-.6-2-1.7-2.8-2,2.2-2.7,2.5-6.4,2.5-9v-3.1h10.4c-.1-.9-.2-1.8-.3-2.8h3.3c0,1,.1,1.9.3,2.8h3.2c-.6-.6-1.4-1.3-2.1-1.7l2.2-1.3c1.1.6,2.4,1.7,3.1,2.4l-.9.6h3.6v2.9h-8.5c.4,1.3.9,2.5,1.4,3.6,1-1,1.8-2.1,2.4-3.2l3,.9c-1,1.8-2.2,3.4-3.7,4.8.8.8,1.5,1.2,2.3,1.2.7,0,1-.8,1.1-2.9.7.6,1.8,1.2,2.6,1.5-.5,3.8-1.5,4.6-3.9,4.6-1.7,0-3.3-.9-4.7-2.3-1.2.8-2.5,1.6-3.8,2.2-.4-.6-1.3-1.7-1.9-2.3,0,.2-.2.3-.3.4-.4.5-1,.8-1.7.8-.6,0-1.7.1-2.9,0,0-.8-.3-1.8-.7-2.5.9.1,1.6.1,2,.1s.5,0,.7-.3c.2-.3.3-.9.4-2.3h-3.6ZM367.6,454.5h3.1v3h-25.5v-3h3.3v-6.2h19v6.2ZM350.7,437.5v.2c0,.5,0,1.1,0,1.7h6.6s0,.6,0,1c0,2.5-.2,4-.5,4.9,1.4-.6,2.7-1.3,3.9-2-1-1.6-1.7-3.6-2.2-5.7h-7.6ZM351.7,454.5h2.2v-3.7h-2.2v3.7ZM356.9,450.8v3.7h2.2v-3.7h-2.2ZM362.2,450.8v3.7h2.2v-3.7h-2.2Z"/>
            <path class="cls-22" d="M399.1,454.6v2.7h-20.6v-2.7h8.5v-1.6h-5.9v-2c-.5.6-1.1,1.2-1.6,1.7-.2-.6-.8-2-1.3-2.8-.3,2.9-1.1,6.1-3,8.4-.5-.6-1.9-1.8-2.6-2.2,2.3-2.8,2.5-6.8,2.5-9.7v-5h3.8c-.4-.5-1-1-1.4-1.3,2-.3,4.2-.7,6.4-1.2-1.8-.4-3.6-.8-5.2-1.1l1.6-1.2h-4.8v-2.6h9.7c-.3-.5-.7-1-1.1-1.5l2.2-1.1c.6.7,1.4,1.7,1.9,2.5h9.7v2.6h-4.1l1.3.8c-1,.5-2.2,1-3.4,1.4,1.7.4,3.2.9,4.4,1.3l-1.6,1.3h4.1v2.7h-20.3v2.4c0,.9,0,1.9-.1,2.9,1.3-1.3,2.5-3.1,3.2-5l2.8.8c-.1.4-.3.7-.4,1.1h3.2v-1.7h3.3v1.7h6.9v2.6h-6.9v1.5h6.1v2.5h-6.1v1.6h8.8ZM387,450.4v-1.5h-4.6c-.3.5-.6,1-1,1.5h5.5ZM392.7,441.5c-1.4-.5-3.1-1-4.8-1.4-2,.5-4.1,1-6,1.4h10.8ZM382.6,436.7c1.8.4,3.6.8,5.5,1.3,1.3-.4,2.6-.8,3.7-1.3h-9.1Z"/>
            <path class="cls-22" d="M406.3,444.8c-1.1-.8-3.5-2.1-5.2-3l1.8-2.5c1.5.7,4,1.9,5.2,2.7l-1.8,2.8ZM409.3,448.5c-1.3,2.9-2.8,6.1-4.3,8.9l-3-2c1.3-2.2,3.2-5.6,4.6-8.9l2.7,2ZM407.8,437.6c-1.1-.8-3.5-2.2-5.1-3.1l1.9-2.4c1.6.8,4,2,5.2,2.7l-1.9,2.7ZM413.9,442.1c0,4.9-.7,11.5-3.7,15.8-.6-.5-2-1.3-2.9-1.6,3.1-4.4,3.4-10.9,3.4-15.5v-7.6h15v8.8h-11.8ZM413.9,436.3v2.7h8.5v-2.7h-8.5ZM422.9,454.8c1.1,0,1.3-.6,1.4-4.1.7.5,2,1.1,2.8,1.2-.3,4.5-1.2,5.7-3.9,5.7h-4.1c-3.2,0-4-1-4-4.1v-10.5h3.1v3.1h7.6v2.8h-7.6v4.6c0,1.1.2,1.2,1.3,1.2h3.4Z"/>
            <path class="cls-22" d="M429.7,445.3c-.1-2-.5-5.5-1-8.2l2.3-.4c.5,2.7,1,6.1,1.1,8l-2.5.6ZM448.3,450.1v7.9h-3.2v-7.9h-6.4v-2.8h6.4v-1.7h-4.3v-8.1h-1.2c-.8,2-1.6,4.3-2.3,5.8l-1.6-.7c0,1.5,0,3-.3,4.5.8,1,3.1,4.3,3.6,5.1l-2.2,2.2c-.5-1-1.3-2.4-2-3.7-.6,2.6-1.8,5.1-3.7,7.2-.5-.8-1.6-1.9-2.3-2.4,3.4-3.9,3.8-9.1,3.8-13.9v-9.5h3.1v9.5h0c.5-1.6,1-3.6,1.2-5.2l1.9.7v-2.5h2v-2.9h3v2.9h5.6v-2.9h3.2v2.9h2.3v2.8h-2.3v8.1h-4.2v1.7h6.4v2.8h-6.4ZM444.3,451.6c-1,2.4-2.8,4.8-4.5,6.2-.5-.7-1.5-1.7-2.1-2.3,1.7-1,3.4-3,4.3-4.8l2.4.8ZM443.7,437.5v1.5h5.6v-1.5h-5.6ZM443.7,442.9h5.6v-1.5h-5.6v1.5ZM451,450.8c1.4,1.7,3.2,4.2,4.1,5.7l-2.5,1.3c-.8-1.5-2.5-4.1-3.8-5.9l2.3-1.1Z"/>
          </g>
          <g>
            <path class="cls-22" d="M601.1,432.8c-.5,1.7-1.1,3.4-1.9,5.1v20.1h-3.2v-14.1c-.6.9-1.2,1.7-1.8,2.4-.3-.8-1.1-2.7-1.6-3.6,2.2-2.6,4.2-6.7,5.4-10.8l3.1.9ZM619.2,447.2h-2.5c.5.5.9,1.1,1.2,1.5l-1.8,1.1c-.3-.5-.9-1.3-1.5-2-.3,1.2-1,1.5-2.4,1.5h-2.4c-.3.3-.5.6-.7.8h6.2c0-.1,2,1,2,1-.9,1.3-2.2,2.5-3.9,3.5,1.8.4,3.8.6,6,.8-.6.6-1.2,1.7-1.6,2.4-2.9-.3-5.6-.8-8-1.7-2.4.8-5.1,1.4-8.1,1.8-.3-.7-1-1.7-1.6-2.4,2.3-.2,4.4-.6,6.2-1-.6-.3-1.1-.7-1.6-1-.7.4-1.5.8-2.4,1.2-.4-.6-1.2-1.5-1.8-1.9.8-.3,1.6-.7,2.3-1-.4-.4-.7-.8-1-1.2l2.4-.8c.2.3.4.5.6.8.8-.6,1.4-1.1,1.9-1.7-.5-.3-.8-.8-.8-1.5-.6.8-1.3,1.7-2.2,2.2l-1.8-1.4c.4-.3.9-.7,1.3-1.1h-2.6v-4h2.5v-6.9h4.6c0-.3.1-.6.2-1h-6.5v-2.4h17.3v2.4h-7.4l-.4,1h6v6.9h2.4v4ZM614.9,445.5c.4.4.9.8,1.3,1.3v-1.7h-5.4c.6.5,1.2,1,1.5,1.4l-1.8,1.1c-.5-.6-1.4-1.5-2.1-2l.8-.4h-5.9v1.9c.4-.5.8-1,1.1-1.4l1.3.7v-.6h2.6v1.3c0,.6.2.6.9.6h2.5c.6,0,.7-.1.8-1,.3.2.8.3,1.3.5-.2-.2-.4-.4-.6-.6l1.7-1ZM606,437.9v.8h7.8v-.8h-7.8ZM613.7,440.1h-7.8v.9h7.8v-.9ZM606,443.2h7.8v-.9h-7.8v.9ZM609.6,453.6c1.1-.4,2.1-.9,2.8-1.4h-5.8c.8.6,1.8,1.1,2.9,1.4Z"/>
            <path class="cls-22" d="M645.5,449.4c-1.4,1.1-3.1,2.2-4.6,3.1,1.8,1,3.9,1.7,6.2,2.1-.7.7-1.7,2.1-2.1,3-6.6-1.5-10.8-5-13.5-10.4h-3.3v6.7l6.2-1.4c0,1,.2,2.4.3,3.1-7.9,1.8-9.2,2.1-10,2.5-.3-.7-1.2-2-1.8-2.5.7-.5,1.7-1.6,1.7-3.1v-18.2h7.9c-.2-.7-.4-1.5-.7-2.1l3.4-.7c.4.9.8,1.9,1,2.8h7.1v12.8h-8.4c.8,1.3,1.8,2.5,3.1,3.5,1.6-1,3.4-2.3,4.6-3.4l2.8,2.1ZM628.2,437.3v2.1h11.9v-2.1h-11.9ZM628.2,444.2h11.9v-2.2h-11.9v2.2Z"/>
            <path class="cls-22" d="M653.5,444.9c-1-.7-3.2-1.9-4.6-2.7l1.8-2.5c1.5.7,3.6,1.7,4.8,2.4l-2,2.8ZM649.4,455.7c1.2-2.2,2.9-5.7,4.2-9l2.7,1.9c-1.1,3-2.6,6.3-3.9,9l-3-1.9ZM669.3,436.2v2.7h4.9v19h-3.3v-1.2h-10.6v1.2h-3.2v-19h4.6v-2.7h-5.3v-1.3l-2,2.7c-1-.7-3.1-2-4.6-2.9l1.9-2.4c1.4.8,3.6,1.8,4.6,2.5v-1.8h18.6v3.2h-5.6ZM670.9,453.9v-6.6h-1.9c-2.2,0-2.7-.8-2.7-3.2v-2.3h-1.5v.8c0,2-.6,4.2-3.1,5.7-.3-.3-.8-.9-1.3-1.3v6.9h10.6ZM660.3,441.8v4.2c1.6-1.1,1.8-2.4,1.8-3.5v-.7h-1.8ZM669.9,449.1v2.8h-8.6v-2.8h8.6ZM666.3,436.2h-1.8v2.7h1.8v-2.7ZM670.9,441.8h-2v2.2c0,.6,0,.6.6.6h1.5v-2.8Z"/>
            <path class="cls-22" d="M683.7,439.2h3.2v18.8h-3.2v-7h-1.8c0,2.2-.4,5-2.6,7.1-.5-.6-1.7-1.5-2.4-1.9,1.7-1.6,2.2-3.6,2.2-5.2h-1.7v-2.9h6.3v-1.7h-5.3v-6.5h2.9v3.7h2.4v-4.3ZM682.6,436.6h-4.9v-2.9h4.9v-1.9h3.3v1.9h3.8v2.9h-3.8v1.9h-3.3v-1.9ZM696.8,447.4v6.6h5.6v3.1h-14.1v-3.1h5.2v-6.6h-5.7v-3.1h5.7v-5.1h3.3v5.1h6v3.1h-6ZM694.6,436.6h-3.9v-2.9h3.9v-1.9h3.3v1.9h4.7v2.9h-4.7v2h-3.3v-2Z"/>
          </g>
          <g>
            <polygon class="cls-14" points="670.8 418.5 618.3 418.5 618.2 394 670.7 394 670.8 418.5"/>
            <polygon class="cls-7" points="626.9 384.6 663.8 384.6 663.8 394 618.2 394 626.9 384.6"/>
            <rect class="cls-7" x="627.1" y="379.2" width="2.9" height="5.4"/>
            <polygon class="cls-14" points="669.5 384.4 669.5 378.5 663.5 378.5 663.5 384.4 654.6 395.2 654.7 418.5 678.4 418.5 678.4 395.2 669.5 384.4"/>
            <rect class="cls-7" x="663.1" y="378" width="6.9" height="1.2"/>
            <rect class="cls-7" x="626.9" y="378" width="3.2" height="1.2"/>
            <rect x="623.7" y="396" width="2.9" height="6.9"/>
            <rect x="633.3" y="396" width="2.9" height="6.9"/>
            <rect x="642.8" y="396" width="2.9" height="6.9"/>
            <rect x="623.7" y="407" width="2.9" height="6.9"/>
            <rect x="633.3" y="407" width="2.9" height="6.9"/>
            <rect x="642.8" y="407" width="2.9" height="6.9"/>
            <rect x="659.1" y="396" width="2.9" height="6.9"/>
            <rect x="672.2" y="396" width="2.9" height="6.9"/>
            <rect x="659.1" y="407" width="2.9" height="6.9"/>
            <rect x="672.2" y="407" width="2.9" height="6.9"/>
          </g>
          <g>
            <path class="cls-8" d="M168.2,404.1c.3-.3.6-.9.8-1.3.6.6,1.4.9,2.3.9s2.2-.7,2.7-1.6c.5.6,1.2,1,2,1s2.2-.8,2.5-1.8c.1,0,.2,0,.3,0,.7,0,1.2-.4,1.5-.9.2,0,.3,0,.5,0,1.2,0,2.1-.9,2.1-2.1s-.9-2.1-2.1-2.1-.7,0-.9.2c-.2-.9-.9-1.6-1.8-1.7,0-.3.1-.5.1-.8,0-1.5-1.2-2.8-2.8-2.8s-1.7.4-2.2,1.1c-.3-.1-.5-.2-.8-.2,0-.1,0-.2,0-.3,0-1-.6-1.8-1.5-2.1.7-.5,1.1-1.3,1.1-2.2,0-1.3-1-2.4-2.3-2.6.7-.6,1.1-1.5,1.1-2.5,0-1.8-1.5-3.3-3.3-3.3s-.2,0-.3,0c-.3-1.8-1.8-3.2-3.7-3.2s-2.6.7-3.2,1.8c-.5-.2-1-.4-1.5-.4-1.9,0-3.5,1.5-3.5,3.5s0,.6,0,.8c-.6.3-1,.9-1,1.5s0,.1,0,.2c-1.1.2-2,1.2-2,2.4s0,.1,0,.2c-.9.3-1.6,1.3-1.6,2.3s.3,1.4.8,1.8c0,.2-.1.9-.1,1.1s0,.6,0,.6h0c-1,0-1.8,0-2.3.9-.3-.2-.7-.5-1.1-.5-1.5,0-2.6,1.1-2.6,2.5s0,.3,0,.5c-.2.1-.5.3-.7.4-.3-.1-.7-.2-1-.2-1.1,0-2.1.6-2.7,1.5,0,0-.2,0-.2,0-.4,0-.8.1-1.2.3-.6-.5-1.3-.8-2.1-.8-1.8,0-3.3,1.5-3.3,3.2h0c-1,.1-2.7,1.8-2.7,3.4s.2.7.4,1.7h-10.2"/>
            <line class="cls-8" x1="106" y1="409.5" x2="142" y2="409.5"/>
            <path class="cls-8" d="M171.4,389.1c1-1,1-2.7,0-3.7-1-1-2.7-1-3.7,0"/>
            <path class="cls-8" d="M151.6,390.6c-1.5,0-2.6,1.2-2.6,2.6"/>
            <path class="cls-8" d="M160.3,389.5c-.3-1-1.5-1.4-2.7-1s-1.8,1.5-1.4,2.5"/>
            <path class="cls-8" d="M158,390.9c-1-1-2.6-1-3.6,0s-1,2.6,0,3.6"/>
            <path class="cls-8" d="M171.4,391.2c.8-.6.9-1.6.3-2.4s-1.6-.9-2.4-.3"/>
            <path class="cls-8" d="M156.2,395.5c-.7-1.1-1.9-1.8-3.2-1.7-1.9.1-3.4,1.8-3.2,3.7"/>
            <g>
              <g>
                <path class="cls-14" d="M188.2,407.4c0-1.6-.9-2.4-2.1-2.4s-1,.1-1.4.4c-.3-1.5-1.7-2.7-3.3-2.7s-.7,0-1.1.2c0,0,0-.1,0-.2,0-2.7-2.2-4.9-4.9-4.9s-4.5,1.8-4.8,4.1c-.5-.2-.9-.3-1.5-.3-2.1,0-3.7,1.9-3.7,4s.2,2,.4,2h-10.8"/>
                <path class="cls-14" d="M165.3,405.3c0-2.1,1.7-3.7,3.7-3.7s2.2.5,2.9,1.4"/>
              </g>
              <line class="cls-8" x1="177" y1="411.5" x2="198" y2="411.5"/>
            </g>
          </g>
          <g>
            <polygon class="cls-5" points="425.9 418.5 420.7 412.9 419.2 410.6 412.5 406.7 408.9 406 407 402.8 405.5 401.9 405.3 401 402.5 398.6 400.6 399 399.3 398.1 397.6 397.8 391.2 402.6 381.1 408.8 374.1 418.5 425.9 418.5"/>
            <polyline class="cls-12" points="418.3 416 416.4 414.4 413.9 410 410.8 407 408.9 406"/>
            <polyline class="cls-12" points="416.6 411.3 418.6 413 419.9 415"/>
            <polyline class="cls-12" points="404.2 404.9 407.4 407.2 408.1 409.2 411 410.6"/>
            <polyline class="cls-12" points="413.6 417.5 411.9 414.8 407.8 413.4 406.6 411 403.1 408.5"/>
            <polyline class="cls-12" points="396.3 404.9 397.5 403.6 399.3 403.2 400.4 402.2"/>
            <polyline class="cls-12" points="395.4 409 392.2 409.4 390.4 412.6 387 414 384.9 417.5"/>
            <polyline class="cls-12" points="399.3 410.6 401.9 411.7 402.6 412.9"/>
            <polyline class="cls-12" points="402.7 413.7 407 414.4 408.8 416.7"/>
            <polyline class="cls-12" points="402.4 399.6 403.2 401 405.5 401.9"/>
            <polyline class="cls-12" points="398 406.8 399.9 406.1 402.9 407.3 403.2 409.9"/>
            <polyline class="cls-12" points="388.7 409.9 386.2 411.9 382.9 412.9"/>
          </g>
          <g>
            <path class="cls-25" d="M69.1,487.7c-.8,2.5-2.1,4.4-3.8,5.8,1.8,1.3,4,2.2,6.7,2.7,0,.1-.2.3-.3.4-2.7-.5-5-1.4-6.8-2.8-1.8,1.3-4,2.2-6.8,2.9,0-.1-.2-.3-.3-.4,2.7-.6,4.9-1.4,6.7-2.7-1.7-1.5-3-3.3-3.8-5.7h.4c.8,2.1,2,4,3.7,5.4,1.7-1.4,2.9-3.2,3.7-5.7h.5ZM61.9,484.6h-3.9v-.5h3.9v-1.9h.5v1.9h2.3v.5h-2.3v2.3h-.5v-2.3ZM67.5,484.6h-2.3v-.5h2.3v-1.9h.5v1.9h3.9v.5h-3.9v2.3h-.5v-2.3Z"/>
            <path class="cls-25" d="M87.4,485v3.3h-.5v-2.8h-5.9v4.2h-.5v-4.2h-5.7v2.8h-.5v-3.3h6.2v-1.6h-5.5v-.5h11.6v.5h-5.7v1.6h6.3ZM75.5,488.8c1-.1,2.4-.3,3.8-.5v.4c-1.3.2-2.5.5-3.6.6l-.2-.5ZM75.7,490.4h10.5v6.2h-.5v-.6h-9.6v.7h-.5v-6.3ZM76,486.1c1.2.2,2.6.6,3.4,1l-.2.4c-.8-.4-2.3-.8-3.4-1.1l.2-.4ZM76.1,490.9v2.1h4.5v-2.1h-4.5ZM80.6,495.5v-2.1h-4.5v2.1h4.5ZM85.7,490.9h-4.6v2.1h4.6v-2.1ZM85.7,495.5v-2.1h-4.6v2.1h4.6ZM85.9,489.5c-.9-.3-2.5-.7-3.8-.8l.2-.4c1.3.1,2.9.5,3.8.8l-.2.4ZM85.9,486.5c-.9.4-2.4.8-3.4,1l-.3-.3c1-.3,2.5-.8,3.4-1.1l.3.4Z"/>
            <path class="cls-25" d="M98.7,493h.5v3h-.5v-.6h-8.1v-2.3h.5v1.8h3.6v-2.6h.5v2.6h3.6v-1.9ZM92.4,490.2v1.4h10.9s0,.2,0,.3c-.3,3-.5,4.1-.9,4.5-.2.2-.4.3-.8.3-.4,0-1.1,0-1.9,0,0-.1,0-.3-.1-.4.9,0,1.7,0,2,0s.5,0,.6-.1c.3-.3.6-1.3.8-4h-10.8v-8.5h3.7c.3-.4.6-1.1.8-1.4l.5.2c-.2.4-.5.8-.7,1.2h5.3v4.6h-9.1v1.6h11.5v.5h-11.5ZM92.4,484.1v1.6h8.6v-1.6h-8.6ZM101,487.7v-1.6h-8.6v1.6h8.6Z"/>
            <path class="cls-25" d="M119.2,483.7v12.3h-.5v-1.2h-11.8v1.3h-.5v-12.4h12.8ZM118.8,494.3v-10.1h-4.1v5.8c0,.5,0,.7.5.7h2.1c.2,0,.6,0,.8,0v.4c0,0-.5,0-.8,0h-2.1c-.7,0-.9-.2-.9-1.1v-5.8h-2.9c-.1,4.8-.5,7.2-3.6,8.5,0-.1-.2-.3-.3-.4,3-1.2,3.3-3.5,3.4-8.1h-3.9v10.1h11.8Z"/>
            <path class="cls-25" d="M129,483.9c-.2.8-.5,1.9-.8,2.6h6.8v10.2h-.5v-.9h-11.3v.9h-.5v-10.2h5c.3-.7.6-1.8.8-2.6h-6.5v-.5h13.9v.5h-6.8ZM123.2,495.3h3v-8.3h-3v8.3ZM131,487h-4.3v2.4h4.3v-2.4ZM131,489.9h-4.3v2.4h4.3v-2.4ZM126.7,495.3h4.3v-2.5h-4.3v2.5ZM134.6,487h-3.1v8.3h3.1v-8.3Z"/>
            <path class="cls-25" d="M141.9,493.3c-1.5.5-3.1,1.1-4.3,1.5v-.5c.4-.2,1.2-.4,2-.7v-5.1h-1.8v-.5h1.8v-4.2h-2v-.5h4.3v.5h-1.8v4.2h1.6v.5h-1.6v4.9l1.8-.6v.4ZM151.6,492.5c-.7.5-1.7,1.2-2.5,1.6.8.9,1.9,1.6,3.2,2,0,0-.3.3-.3.4-2.2-.7-3.9-2.5-4.7-4.7h-.2c-.6.6-1.4,1.1-2.2,1.6v2.4l3.1-.8c0,.1,0,.3,0,.4-3.2.9-3.6,1.1-3.8,1.2h0c0-.2-.2-.4-.3-.5.1,0,.4-.3.4-.9v-1.5c-.7.4-1.5.7-2.1.9,0-.1-.2-.3-.3-.4,1.5-.4,3.4-1.4,4.5-2.4h-2.8v-3.1h7.2v3.1h-3.2c.3.7.7,1.4,1.2,2,.8-.4,1.8-1.1,2.4-1.6l.4.3ZM151.9,487.5h-9.5v-.5h9.5v.5ZM151.4,486h-8.2v-3.2h8.2v3.2ZM145.7,483.3h-2v2.2h2v-2.2ZM144.1,491.3h6.2v-2.1h-6.2v2.1ZM148.3,483.3h-2.1v2.2h2.1v-2.2ZM150.9,483.3h-2.2v2.2h2.2v-2.2Z"/>
            <path class="cls-25" d="M156.3,489.1c-.6-.5-1.7-1.2-2.6-1.6l.3-.4c.9.4,2,1.1,2.6,1.5l-.3.4ZM154.2,496.1c.7-1.3,1.6-3.5,2.2-5.3l.4.3c-.6,1.7-1.5,3.8-2.1,5.3l-.4-.3ZM154.8,482.4c1,.4,2.2,1.1,2.8,1.6l-.3.4c-.6-.5-1.8-1.2-2.8-1.6l.3-.3ZM159.6,484.7c-.6,1.1-1.2,2.1-1.9,2.9,0,0-.3-.2-.4-.3,1.2-1.3,2.2-3.2,2.8-5.1h.5c-.2.8-.5,1.4-.8,2h7.9v.5h-8.1ZM166.7,490.6c0,1.4-.2,2.4-.3,3.2h1.2v.5h-1.3c-.1,1-.3,1.5-.5,1.7-.3.3-.5.4-1,.4-.4,0-1.2,0-2,0,0-.1,0-.4-.2-.5.9,0,1.8,0,2.1,0s.5,0,.6-.2c.2-.2.3-.6.5-1.5h-7.6c.2-.9.4-2.3.6-3.7h-1.6v-.5h1.6c.2-1.2.3-2.4.4-3.4h7.5v.3c0,1.2-.1,2.2-.2,3.1h1.4v.5h-1.4ZM165.9,493.9c.1-.8.2-1.9.3-3.2h-6.8c-.2,1.2-.4,2.4-.5,3.2h7ZM159.9,487.2c-.1.9-.2,2-.4,3h6.8c0-.9,0-1.9.1-3h-6.6ZM163.4,493.5c-.4-.7-1.3-1.6-2.1-2.3l.4-.2c.8.6,1.7,1.6,2.1,2.2l-.4.3ZM162.1,487.5c.8.6,1.7,1.4,2.1,2.1l-.4.3c-.4-.6-1.3-1.5-2.1-2.1l.4-.2Z"/>
            <path class="cls-25" d="M174.9,491.6c1.2-.6,1.9-1.4,2-2.8-.1,0-.3,0-.4,0-.5,0-.9-.3-.9-.8s.4-.9.8-.9c.7,0,1,.6,1,1.5,0,1.6-1,2.8-2.4,3.4l-.2-.4Z"/>
            <path class="cls-25" d="M186,492.3c-.2,1.3-.6,2.8-.9,3.9,0,0-.3-.1-.4-.2.4-1,.7-2.5.9-3.8h.5ZM189,488.2c.5,1.1.9,2.5,1.1,3.3h-.5c0-.2-.2-.5-.3-.9-3.7.6-4.1.7-4.4.8,0-.1-.1-.4-.2-.5.3,0,.7-.5,1.1-1.1.3-.3,1-1.2,1.7-2.4-2.2.3-2.6.4-2.8.4,0-.1-.1-.4-.2-.5.2,0,.5-.4.8-.9.4-.5,1.6-2.4,2.3-4.2l.5.2c-.8,1.7-1.8,3.5-2.8,4.8l2.4-.3c.4-.7.9-1.4,1.2-2.1l.5.2c-1.2,2.1-2.5,4.1-3.9,5.6l3.5-.5c-.2-.6-.4-1.3-.7-1.9h.5ZM187.5,492.2c.2,1.1.4,2.5.4,3.5h-.5c0-.9-.2-2.3-.4-3.4h.4ZM189,491.9c.4.9.8,2.2.9,3h-.4c-.2-.7-.5-1.9-.9-2.9h.4ZM197.8,484.2c-.6,1.5-1.6,2.8-2.7,3.9,1.2,1.2,2.6,2.2,4,2.7-.1,0-.3.3-.4.4-1.4-.6-2.7-1.6-3.9-2.8-1.2,1.1-2.6,2-4,2.7,0-.1-.2-.3-.3-.4,1.4-.6,2.8-1.5,4-2.6-.8-.9-1.6-1.9-2.2-2.9-.5.7-1.1,1.4-1.8,2,0-.1-.3-.2-.4-.3,1.6-1.4,2.8-3.2,3.4-4.7h.5c-.2.6-.5,1.2-.9,1.8h4.5s.3.2.3.2ZM191.7,493.7c2.2.6,4.9,1.7,6.4,2.5l-.3.4c-1.4-.8-4.1-2-6.4-2.5l.3-.4ZM192.6,484.8c.5,1.1,1.3,2.1,2.2,3,1-1,1.8-2.1,2.4-3.3h-4.4l-.2.3ZM193.5,490.6c1.1.5,2.5,1.3,3.2,1.8l-.4.3c-.7-.6-2.1-1.4-3.2-1.9l.4-.3Z"/>
            <path class="cls-25" d="M215.1,492.7h-6.2v4h-.5v-4h-7.7v-.5h2.8v-4.4h4.9v-3h-4.4c-.8,1.3-1.7,2.5-2.7,3.4,0,0-.3-.2-.4-.3,1.6-1.4,3-3.5,3.9-5.8h.5c-.3.8-.6,1.5-1,2.2h10.1v.5h-5.5v3h5.2v.5h-5.2v4h6.2v.5ZM208.5,492.2v-4h-4.4v4h4.4Z"/>
            <path class="cls-25" d="M219.3,489.1c-.6-.5-1.7-1.2-2.6-1.6l.3-.4c.9.4,2,1.1,2.6,1.5l-.3.4ZM217.2,496.1c.7-1.3,1.6-3.5,2.2-5.3l.4.3c-.6,1.7-1.5,3.8-2.1,5.3l-.4-.3ZM217.8,482.4c1,.4,2.2,1.1,2.8,1.6l-.3.4c-.6-.5-1.8-1.2-2.8-1.6l.3-.3ZM222.7,484.7c-.6,1.1-1.2,2.1-1.9,2.9,0,0-.3-.2-.4-.3,1.2-1.3,2.2-3.2,2.8-5.1h.5c-.2.8-.5,1.4-.8,2h7.9v.5h-8.1ZM229.8,490.6c0,1.4-.2,2.4-.3,3.2h1.2v.5h-1.3c-.1,1-.3,1.5-.5,1.7-.3.3-.5.4-1,.4-.4,0-1.2,0-2,0,0-.1,0-.4-.2-.5.9,0,1.8,0,2.1,0s.5,0,.6-.2c.2-.2.3-.6.5-1.5h-7.6c.2-.9.4-2.3.6-3.7h-1.6v-.5h1.6c.2-1.2.3-2.4.4-3.4h7.5v.3c0,1.2-.1,2.2-.2,3.1h1.4v.5h-1.4ZM229,493.9c.1-.8.2-1.9.3-3.2h-6.8c-.2,1.2-.4,2.4-.5,3.2h7ZM222.9,487.2c-.1.9-.2,2-.4,3h6.8c0-.9,0-1.9.1-3h-6.6ZM226.4,493.5c-.4-.7-1.3-1.6-2.1-2.3l.4-.2c.8.6,1.7,1.6,2.1,2.2l-.4.3ZM225.1,487.5c.8.6,1.7,1.4,2.1,2.1l-.4.3c-.4-.6-1.3-1.5-2.1-2.1l.4-.2Z"/>
            <path class="cls-25" d="M245.1,483.3c0,5.7.1,12.9,1.3,12.9s.4-1.2.4-2.7c0,0,.3.2.4.2,0,2.2-.2,2.9-.8,2.9-1.6,0-1.5-5.7-1.7-12.9h-9.5v4.3c0,2.6-.2,6.1-2.1,8.6,0-.1-.3-.2-.4-.3,1.8-2.4,2-5.8,2-8.3v-4.7h10.4ZM242.2,492.5c1,1.1,2,2.5,2.3,3.5l-.4.2c-.1-.4-.4-.9-.7-1.4-3,.2-6.1.4-8.1.5v-.5c1.1,0,2.6-.1,4.3-.3v-2.8h-3.1v-4.1h3.1v-2h-3.5v-.5h7.6v.5h-3.6v2h3.1v4.1h-3.1v2.8l3.1-.2c-.4-.6-.9-1.2-1.3-1.7l.4-.2ZM239.6,491.3v-3.2h-2.6v3.2h2.6ZM240,488.2v3.2h2.6v-3.2h-2.6Z"/>
            <path class="cls-25" d="M61.9,512.8h-3.3v1.2h-.5v-10.2h3.8v9ZM58.6,504.2v8.1h2.9v-8.1h-2.9ZM67.5,508.4c0,.2,0,.4,0,.6.6,3.5,2,6.2,4.6,7.2-.1,0-.3.2-.3.4-2.3-.9-3.7-3.2-4.4-6.1-.3,2.1-1.4,4.3-5,6.1,0-.1-.2-.3-.3-.3,4.7-2.3,5-5.4,5-7.8v-1.5h.5v1.5ZM64.9,505.7c-.5,1.4-1.2,2.7-1.9,3.7,0,0-.3-.2-.4-.3,1.3-1.7,2.3-4.2,2.8-6.9h.5c-.2,1.1-.5,2-.8,3h6.7s.3.1.3.1c-.4,1.3-.9,2.8-1.4,3.7h-.4c.4-1,.9-2.3,1.2-3.4h-6.6Z"/>
            <path class="cls-25" d="M76.4,510.4v5.3c0,.4-.1.5-.4.6-.3,0-.8,0-1.6,0,0-.1-.1-.3-.2-.5.7,0,1.3,0,1.5,0,.2,0,.3,0,.3-.3v-5.1c-.7.3-1.4.6-2,.8l-.2-.5c.6-.2,1.3-.6,2.2-.9v-4h-2.1v-.5h2.1v-3.4h.5v3.4h1.7v.5h-1.7v3.8l1.7-.7v.5c0,0-1.7.8-1.7.8ZM87.8,510.8s0,.2,0,.3c-.1,2.4-.3,3.3-.5,3.6-.2.2-.3.2-.7.2-.2,0-.7,0-1.1,0,0-.1,0-.3-.1-.5.5,0,.9,0,1.1,0s.3,0,.4-.1c.2-.2.3-1,.4-3.1h-2.7v5.4h-.5v-5.4h-2.4c-.3,2.2-1.2,4-3.6,5.4,0-.1-.2-.3-.3-.4,2.3-1.3,3.2-3,3.5-5h-2.9c.2-.9.5-2.4.6-3.6h2.4v-2.8h-2.6v-.5h2.6v-2.3h.5v2.3h2.3v-2.3h.5v2.3h2.7v3.7h-2.7v2.6h3.2ZM81.3,510.8c0-.6,0-1.3,0-2v-.6h-2c-.1.9-.3,1.9-.4,2.6h2.4ZM84.1,510.8v-2.6h-2.3v.6c0,.7,0,1.4,0,2h2.4ZM81.9,507.7h2.3v-2.8h-2.3v2.8ZM84.6,505v2.8h2.2v-2.8h-2.2Z"/>
            <path class="cls-25" d="M96.8,503.9v3.2h.1c2.1.9,4.6,2.4,6,3.3l-.3.4c-1.3-.9-3.8-2.4-5.8-3.5v9.3h-.5v-12.7h-6.5v-.5h14.1v.5h-7.1Z"/>
            <path class="cls-25" d="M110.9,511.6c1.2-.6,1.9-1.4,2-2.8-.1,0-.3,0-.4,0-.5,0-.9-.3-.9-.8s.4-.9.8-.9c.7,0,1,.6,1,1.5,0,1.6-1,2.8-2.4,3.4l-.2-.4Z"/>
            <path class="cls-25" d="M129.8,513h.5v3h-.5v-.6h-8.1v-2.3h.5v1.8h3.6v-2.6h.5v2.6h3.6v-1.9ZM123.4,510.2v1.4h10.9s0,.2,0,.3c-.3,3-.5,4.1-.9,4.5-.2.2-.4.3-.8.3-.4,0-1.1,0-1.9,0,0-.1,0-.3-.1-.4.9,0,1.7,0,2,0s.5,0,.6-.1c.3-.3.6-1.3.8-4h-10.8v-8.5h3.7c.3-.4.6-1.1.8-1.4l.5.2c-.2.4-.5.8-.7,1.2h5.3v4.6h-9.1v1.6h11.5v.5h-11.5ZM123.4,504.1v1.6h8.6v-1.6h-8.6ZM132.1,507.7v-1.6h-8.6v1.6h8.6Z"/>
            <path class="cls-25" d="M151,515.4v.5h-14.1v-.5h6.3v-12.9h.5v5.3h6.3v.5h-6.3v7.2h7.4Z"/>
            <path class="cls-25" d="M156.6,502.3c-.3.8-.6,1.8-.9,2.4h2.9v10.1h-4.6v1.4h-.5v-11.5h1.8c.3-.7.7-1.9.8-2.6l.5.2ZM158.2,505.2h-4.2v4.2h4.2v-4.2ZM158.2,514.4v-4.6h-4.2v4.6h4.2ZM166.5,505.1c-.3,7.5-.5,9.9-1.2,10.6-.3.3-.6.4-1,.4-.5,0-1.4,0-2.3,0,0-.2,0-.4-.2-.5,1.1,0,2,0,2.4,0s.5,0,.7-.2c.5-.6.8-3.1,1.1-10.3h-4.8c-.4,1.2-1,2.3-1.6,3.1,0,0-.3-.2-.4-.2,1.1-1.5,2-3.7,2.5-6.1h.5c-.2,1-.5,1.9-.8,2.7h5.1v.4ZM163.7,512.2c-.5-1-1.7-2.6-2.7-3.7l.4-.2c1,1.2,2.2,2.7,2.7,3.7l-.4.3Z"/>
            <path class="cls-25" d="M183.2,509v.5h-14.5v-.5h14.5Z"/>
            <path class="cls-25" d="M190.9,511.4c0,.1,0,.3.1.4-3.9,1.7-4.2,1.9-4.5,2.1,0-.1-.2-.3-.3-.5.2,0,.5-.4.5-1v-5.2l-2.2.5v-.4c-.1,0,2.2-.5,2.2-.5v-4.1h.5v4l3.4-.8v.4c.1,0-3.4.8-3.4.8v5.8l3.6-1.6ZM198.8,504.2c-.3,8.4-.5,11-1.1,11.8-.3.3-.6.4-1,.4-.5,0-1.4,0-2.2,0,0-.1,0-.4-.1-.5,1,0,2,0,2.3,0s.5,0,.6-.3c.6-.6.8-3.4,1.1-11.4h-4.1c-.1,4.9-.4,9.9-4.8,12.2,0,0-.3-.3-.4-.3,4.4-2.2,4.7-7.2,4.8-11.9h-2.9v-.5h8v.4Z"/>
            <path class="cls-25" d="M209,502.8c-.8,1.7-1.8,3.2-3,4.5h3.1v.5h-3.5c-.7.7-1.4,1.4-2.1,1.9h4.7v6.6h-.5v-.8h-4.6v1.1h-.5v-6.2c-.6.4-1.2.8-1.8,1.1,0,0-.3-.3-.4-.4,1.7-.9,3.2-2,4.5-3.3h-4.2v-.5h3.6v-2.5h-2.8v-.5h2.8v-1.9h.5v1.9h2.4v.5h-2.4v2.5h.6c1.3-1.4,2.4-2.9,3.2-4.6h.4ZM207.7,510.1h-4.6v2.1h4.6v-2.1ZM207.7,515v-2.3h-4.6v2.3h4.6ZM215.1,503.4c-.8,1.5-1.8,3.4-2.7,4.9,2,1.6,2.6,2.8,2.6,4.1,0,.8-.2,1.5-.7,1.8-.3.2-.6.3-1,.3-.5,0-1.1,0-1.6,0,0-.1,0-.4-.2-.5.6,0,1.3,0,1.7,0,.3,0,.6,0,.8-.2.4-.2.6-.8.5-1.4,0-1.2-.6-2.4-2.7-4,1-1.6,2-3.4,2.6-4.7h-4.1v13h-.5v-13.5h4.9s.3.2.3.2Z"/>
            <path class="cls-25" d="M218.5,509c-.4-.5-1.2-1.2-1.8-1.6l.3-.3c.7.4,1.5,1.1,1.8,1.6l-.3.4ZM219.2,511.6c-.5,1.5-1.3,3.5-2,4.8l-.4-.3c.6-1.2,1.4-3.2,2-4.8l.4.3ZM219.2,504.8c-.4-.5-1.2-1.3-2-1.8l.3-.3c.8.5,1.6,1.2,2,1.8l-.3.4ZM222.1,510s0,.2,0,.3c-.2,4.2-.4,5.5-.8,6-.2.2-.4.3-.8.3-.3,0-.8,0-1.3,0,0-.1,0-.3-.1-.5.6,0,1.1,0,1.3,0s.3,0,.4-.2c.3-.3.5-1.7.7-5.5h-2.1c.2-1,.3-2.8.4-4.1h1.7v-3h-2v-.5h2.4v4h-1.7c0,1.1-.2,2.3-.3,3.2h2.1ZM225.3,504.3c-.7.6-1.7,1.3-2.6,1.8-.1,0-.2-.2-.4-.2.9-.5,1.9-1.3,2.5-1.8l.4.2ZM230.5,515.8c0,.4,0,.5-.4.6-.3,0-.8,0-1.6,0,0-.1-.1-.3-.2-.4.7,0,1.3,0,1.5,0,.2,0,.3,0,.3-.2v-9.2h-3.2v9.9h-.5v-9.9h-2.9v10h-.5v-10.4h3.4v-2.9h-3.5v-.5h8v.5h-4v2.9h3.6v9.7ZM225.9,507.5c-.2.5-.4,1-.6,1.5.3.4.5.8.7,1.1l-.4.2c-.1-.3-.3-.6-.5-.9-.2.4-.4.8-.7,1.2,0,0-.3-.2-.4-.3.3-.4.6-.9.8-1.4-.3-.4-.6-.8-.9-1.1l.4-.2c.3.3.5.5.7.8.2-.5.4-.9.5-1.3l.4.2ZM226,511.6c-.2.5-.4,1-.6,1.5.3.4.5.8.6,1.2l-.4.3c0-.3-.3-.6-.4-.9-.2.4-.5.9-.8,1.3,0,0-.3-.2-.4-.2.3-.4.6-.9.8-1.5-.3-.4-.6-.8-.9-1.2l.4-.2c.2.3.5.6.7.9.2-.4.4-.9.5-1.3l.4.2ZM228.9,514.3c-.1-.3-.3-.6-.5-.9-.2.4-.5.9-.8,1.3,0,0-.3-.2-.4-.2.3-.4.6-.9.8-1.5-.3-.4-.6-.8-.9-1.1l.4-.2c.2.3.5.6.7.9.2-.5.3-.9.5-1.3l.4.2c-.2.5-.4,1-.6,1.5.3.4.5.8.6,1.1l-.4.3ZM228.9,510.3c-.1-.2-.3-.6-.5-.9-.2.4-.5.9-.7,1.3-.1,0-.3-.2-.4-.3.3-.4.6-.9.8-1.5-.3-.4-.5-.8-.8-1.1l.4-.2c.2.3.4.5.7.8.2-.4.3-.9.4-1.3l.4.2c-.2.5-.4,1-.6,1.5.3.4.5.8.6,1.1l-.4.2ZM228.4,504.1c1,.4,2.1,1.2,2.7,1.7l-.3.3c-.6-.5-1.7-1.3-2.7-1.7l.3-.3Z"/>
            <path class="cls-25" d="M235.4,508.9c-.6-.4-1.8-1.2-2.7-1.7l.3-.3c.9.5,2.1,1.2,2.7,1.7l-.3.4ZM236.3,511.1c-.8,1.7-1.9,3.8-2.8,5.3l-.4-.3c.8-1.2,2-3.5,2.8-5.3l.3.3ZM236.3,504.5c-.7-.5-1.9-1.3-2.8-1.8l.3-.3c1,.5,2.2,1.2,2.8,1.7l-.2.4ZM245.9,511.8c-.8,1.2-2,2.2-3.4,3,1.4.6,3,1.1,4.6,1.4,0,.1-.2.3-.3.4-1.7-.3-3.4-.8-4.9-1.6-1.7.8-3.7,1.3-5.6,1.6,0-.1-.2-.3-.2-.4,1.8-.2,3.7-.7,5.3-1.4-1.3-.7-2.4-1.6-3.2-2.7h-1.4v-.5h8.7s.3.2.3.2ZM246.6,510.6h-9.2v-2.9h9.2v2.9ZM240.2,508.2h-2.4v2h2.4v-2ZM238.6,507.1h-.5v-4.2h7.6v4.2h-.5v-3.8h-6.7v3.8ZM238.8,512.1c.8,1,1.8,1.8,3.1,2.4,1.3-.6,2.4-1.4,3.2-2.4h-6.3ZM244.7,505h-5.3v-.5h5.3v.5ZM239.4,506.2h5.3v.5h-5.3v-.5ZM243.1,508.2h-2.5v2h2.5v-2ZM246.1,508.2h-2.5v2h2.5v-2Z"/>
            <path class="cls-25" d="M71.2,526c-1.2,1.1-2.6,2-4.1,2.9h4.8v.5h-5.8c-1.2.6-2.6,1.2-3.9,1.6h8.1v5.6h-.5v-.6h-8.2v.6h-.5v-5.3c-1,.4-2.1.7-3.1.9,0-.1-.2-.4-.3-.4,2.5-.6,5-1.4,7.3-2.5h-7.2v-.5h5.7v-2h-4.3v-.5h4.3v-1.5h.5v1.5h4.3v.5h-4.3v2h2c1.8-.9,3.4-2,4.7-3.1l.4.3ZM61.5,524h-3.5v-.5h3.5v-1.3h.5v1.3h2.4v.5h-2.4v1.5h-.5v-1.5ZM69.8,531.5h-8.2v1.8h8.2v-1.8ZM69.8,535.6v-1.9h-8.2v1.9h8.2ZM72,523.6v.5h-3.7v1.5h-.5v-1.5h-2.5v-.5h2.5v-1.3h.5v1.3h3.7Z"/>
            <path class="cls-25" d="M76.3,529.1c-.6-.5-1.7-1.2-2.6-1.6l.3-.4c.9.4,2,1.1,2.6,1.5l-.3.4ZM74.2,536.1c.7-1.3,1.6-3.5,2.2-5.3l.4.3c-.6,1.7-1.5,3.8-2.1,5.3l-.4-.3ZM74.8,522.4c1,.4,2.2,1.1,2.8,1.6l-.3.4c-.6-.5-1.8-1.2-2.8-1.6l.3-.3ZM79.6,524.7c-.6,1.1-1.2,2.1-1.9,2.9,0,0-.3-.2-.4-.3,1.2-1.3,2.2-3.2,2.8-5.1h.5c-.2.8-.5,1.4-.8,2h7.9v.5h-8.1ZM86.7,530.6c0,1.4-.2,2.4-.3,3.2h1.2v.5h-1.3c-.1,1-.3,1.5-.5,1.7-.3.3-.5.4-1,.4-.4,0-1.2,0-2,0,0-.1,0-.4-.2-.5.9,0,1.8,0,2.1,0s.5,0,.6-.2c.2-.2.3-.6.5-1.5h-7.6c.2-.9.4-2.3.6-3.7h-1.6v-.5h1.6c.2-1.2.3-2.4.4-3.4h7.5v.3c0,1.2-.1,2.2-.2,3.1h1.4v.5h-1.4ZM85.9,533.9c.1-.8.2-1.9.3-3.2h-6.8c-.2,1.2-.4,2.4-.5,3.2h7ZM79.9,527.2c-.1.9-.2,2-.4,3h6.8c0-.9,0-1.9.1-3h-6.6ZM83.4,533.5c-.4-.7-1.3-1.6-2.1-2.3l.4-.2c.8.6,1.7,1.6,2.1,2.2l-.4.3ZM82.1,527.5c.8.6,1.7,1.4,2.1,2.1l-.4.3c-.4-.6-1.3-1.5-2.1-2.1l.4-.2Z"/>
            <path class="cls-25" d="M92.8,529.1c-.7-.5-1.9-1.2-3-1.7l.3-.4c1,.5,2.3,1.2,2.9,1.7l-.3.4ZM90.1,535.9c.8-1.2,2-3.4,2.8-5.1l.4.3c-.8,1.7-1.9,3.7-2.8,5.2l-.4-.3ZM90.8,522.6c1,.6,2.2,1.4,2.8,2l-.3.4c-.6-.6-1.8-1.4-2.8-2l.3-.3ZM104.1,532.6h-4.9v4h-.5v-4h-4.8v-.5h4.8v-3h-3.9v-.5h3.9v-2.9h-4.3v-.5h5.8c.6-.8,1.3-2.2,1.7-3.1l.5.3c-.5.9-1.2,2.1-1.7,2.9h2.9v.5h-4.4v2.9h4v.5h-4v3h4.9v.5ZM97.4,525.1c-.3-.7-.9-1.9-1.6-2.7l.4-.2c.6.8,1.3,1.9,1.6,2.6l-.4.2Z"/>
            <path class="cls-25" d="M109.6,522.3c-.3.8-.6,1.8-.9,2.4h2.9v10.1h-4.6v1.4h-.5v-11.5h1.8c.3-.7.7-1.9.8-2.6l.5.2ZM111.1,525.2h-4.2v4.2h4.2v-4.2ZM111.1,534.4v-4.6h-4.2v4.6h4.2ZM119.5,525.1c-.3,7.5-.5,9.9-1.2,10.6-.3.3-.6.4-1,.4-.5,0-1.4,0-2.3,0,0-.2,0-.4-.2-.5,1.1,0,2,0,2.4,0s.5,0,.7-.2c.5-.6.8-3.1,1.1-10.3h-4.8c-.4,1.2-1,2.3-1.6,3.1,0,0-.3-.2-.4-.2,1.1-1.5,2-3.7,2.5-6.1h.5c-.2,1-.5,1.9-.8,2.7h5.1v.4ZM116.6,532.2c-.5-1-1.7-2.6-2.7-3.7l.4-.2c1,1.2,2.2,2.7,2.7,3.7l-.4.3Z"/>
            <path class="cls-25" d="M122.7,532.8v1.2h-.5v-10.2h3.6v9h-3.1ZM122.7,524.2v8.1h2.7v-8.1h-2.7ZM131.8,529.5c.9,2.4,2.6,4.7,4.2,5.8-.1,0-.3.2-.4.4-1.6-1.2-3.4-3.7-4.3-6.2h0v7.2h-.5v-7.2c-1.1,2.6-3,5-4.8,6.2,0-.1-.2-.3-.4-.4,1.8-1.1,3.7-3.5,4.8-5.9h-3.9v-.5h4.3v-3.4h-3.6v-.5h3.6v-2.8h.5v2.8h3.7v.5h-3.7v3.4h4.5v.5h-4Z"/>
            <path class="cls-25" d="M141.1,530.1c-.3,1.4-.8,3.1-1.4,4.2.4.1.8.5,1.6,1,1.2.7,2.6.8,4.5.8s4.6-.1,6.5-.2c0,.1-.1.4-.2.5-1.1,0-4.3.2-6.3.2s-3.6-.2-4.8-.9c-.6-.4-1.2-1-1.6-1s-.9.9-1.4,2l-.4-.3c.6-1,1.1-1.9,1.6-2.1.6-1,1.1-2.6,1.3-3.8h-2.2c.5-1,1.1-2.5,1.6-3.7h-2.2v-.5h2.8c-.5,1.2-1.1,2.7-1.6,3.7h1.7s.3.1.3.1ZM139.4,525c-.2-.7-.5-1.7-.8-2.5h.4c.3.7.6,1.7.8,2.4h-.4ZM145.9,526.7c.2-.5.4-1.2.6-1.7h-4.7v-.5h6.1c.5-.7,1.1-1.6,1.4-2.3l.5.2c-.4.7-.9,1.5-1.4,2.1h3.4v.5h-4.9c-.2.6-.4,1.2-.6,1.7h4.1v7.3h-7.2v-7.3h2.7ZM150,527.2h-6.3v1.8h6.3v-1.8ZM150,529.5h-6.3v1.8h6.3v-1.8ZM150,531.8h-6.3v1.8h6.3v-1.8ZM145,524.4c-.2-.6-.7-1.4-1.2-2l.4-.2c.5.6,1.1,1.4,1.2,1.9l-.4.2Z"/>
            <path class="cls-25" d="M160.5,527.1c1.3,0,2.3,1,2.3,2.3s-1,2.3-2.3,2.3-2.3-1-2.3-2.3,1-2.3,2.3-2.3ZM160.5,531.2c1,0,1.8-.8,1.8-1.8s-.8-1.8-1.8-1.8-1.8.8-1.8,1.8.8,1.8,1.8,1.8Z"/>
          </g>
          <g>
            <path class="cls-25" d="M316.6,487.7c-.8,2.5-2.1,4.4-3.8,5.8,1.8,1.3,4,2.2,6.7,2.7,0,.1-.2.3-.3.4-2.7-.5-5-1.4-6.8-2.8-1.8,1.3-4,2.2-6.8,2.9,0-.1-.2-.3-.3-.4,2.7-.6,4.9-1.4,6.7-2.7-1.7-1.5-3-3.3-3.8-5.7h.4c.8,2.1,2,4,3.7,5.4,1.7-1.4,2.9-3.2,3.7-5.7h.5ZM309.4,484.6h-3.9v-.5h3.9v-1.9h.5v1.9h2.3v.5h-2.3v2.3h-.5v-2.3ZM315,484.6h-2.3v-.5h2.3v-1.9h.5v1.9h3.9v.5h-3.9v2.3h-.5v-2.3Z"/>
            <path class="cls-25" d="M334.9,485v3.3h-.5v-2.8h-5.9v4.2h-.5v-4.2h-5.7v2.8h-.5v-3.3h6.2v-1.6h-5.5v-.5h11.6v.5h-5.7v1.6h6.3ZM323,488.8c1-.1,2.4-.3,3.8-.5v.4c-1.3.2-2.5.5-3.6.6l-.2-.5ZM323.2,490.4h10.5v6.2h-.5v-.6h-9.6v.7h-.5v-6.3ZM323.5,486.1c1.2.2,2.6.6,3.4,1l-.2.4c-.8-.4-2.3-.8-3.4-1.1l.2-.4ZM323.6,490.9v2.1h4.5v-2.1h-4.5ZM328.1,495.5v-2.1h-4.5v2.1h4.5ZM333.2,490.9h-4.6v2.1h4.6v-2.1ZM333.2,495.5v-2.1h-4.6v2.1h4.6ZM333.4,489.5c-.9-.3-2.5-.7-3.8-.8l.2-.4c1.3.1,2.9.5,3.8.8l-.2.4ZM333.5,486.5c-.9.4-2.4.8-3.4,1l-.3-.3c1-.3,2.5-.8,3.4-1.1l.3.4Z"/>
            <path class="cls-25" d="M346.2,493h.5v3h-.5v-.6h-8.1v-2.3h.5v1.8h3.6v-2.6h.5v2.6h3.6v-1.9ZM339.9,490.2v1.4h10.9s0,.2,0,.3c-.3,3-.5,4.1-.9,4.5-.2.2-.4.3-.8.3-.4,0-1.1,0-1.9,0,0-.1,0-.3-.1-.4.9,0,1.7,0,2,0s.5,0,.6-.1c.3-.3.6-1.3.8-4h-10.8v-8.5h3.7c.3-.4.6-1.1.8-1.4l.5.2c-.2.4-.5.8-.7,1.2h5.3v4.6h-9.1v1.6h11.5v.5h-11.5ZM339.9,484.1v1.6h8.6v-1.6h-8.6ZM348.5,487.7v-1.6h-8.6v1.6h8.6Z"/>
            <path class="cls-25" d="M367.5,495.8v.5h-14.3v-.5h2v-4.2h10.3v4.2h2ZM355.3,486.8c0,1.5-.4,3.4-1.6,4.8,0-.1-.2-.3-.4-.4,1.3-1.6,1.5-3.6,1.5-5.1v-2.1h6c-.1-.6-.2-1.2-.2-1.9h.5c0,.7.1,1.3.2,1.9h5.8v.5h-5.7c.3,1.5.9,2.8,1.5,3.8,1-.9,1.9-2,2.6-3.1l.4.2c-.7,1.3-1.7,2.4-2.8,3.3.9,1.3,2,2,3,2,.5,0,.7-.6.7-2.1.1,0,.3.2.4.2-.1,1.8-.4,2.4-1.2,2.4s-2.3-.8-3.3-2.2c-.8.7-1.8,1.3-2.7,1.8,0,0-.3-.2-.4-.3,1-.5,1.9-1.1,2.8-1.8-.7-1.1-1.3-2.5-1.7-4h-5.7v1.8h4.1s0,.2,0,.3c-.1,2.2-.2,3-.5,3.3-.2.1-.4.2-.8.2-.3,0-1,0-1.7,0,0-.1,0-.3-.1-.4.8,0,1.5,0,1.7,0s.4,0,.5-.1c.2-.2.3-.9.4-2.8h-3.7ZM355.8,495.8h2.8v-3.7h-2.8v3.7ZM359,492.1v3.7h2.8v-3.7h-2.8ZM362.3,492.1v3.7h2.8v-3.7h-2.8ZM364.5,484c-.4-.4-1.2-1.1-1.8-1.5l.4-.2c.7.4,1.4,1,1.8,1.4l-.4.3Z"/>
            <path class="cls-25" d="M371.1,488.2v3.4c0,1.6-.2,3.7-1.6,5.2,0-.1-.2-.3-.3-.3,1.3-1.4,1.5-3.3,1.5-4.9v-3.9h12.8v.5h-12.3ZM382.8,484.3h-12.2v-.5h6.3c-.3-.5-.8-1.1-1.2-1.5l.4-.2c.5.5,1.1,1.3,1.4,1.8h5.2v.5ZM383.6,495.5v.5h-12.1v-.5h5.7v-2.4h-4.1v-.5h4.1v-2h-4.1c-.4.7-.9,1.4-1.4,1.9,0,0-.3-.2-.4-.3.9-.9,1.8-2.3,2.3-3.7h.4c-.2.6-.4,1.1-.7,1.6h3.8v-1.7h.5v1.7h4.7v.5h-4.7v2h4.5v.5h-4.5v2.4h5.9ZM381.1,487.7c-1-.4-2.4-.9-3.9-1.4-1.6.6-3.3,1.1-4.8,1.4,0-.1-.2-.3-.3-.4,1.4-.3,2.9-.7,4.4-1.2-1.4-.4-2.8-.8-4-1.2l.4-.4c1.3.4,2.9.8,4.4,1.3,1.2-.4,2.3-.9,3.1-1.4l.4.3c-.8.5-1.8.9-2.9,1.3,1.4.5,2.7.9,3.6,1.3l-.3.4Z"/>
            <path class="cls-25" d="M388.1,488.9c-.7-.5-1.9-1.2-2.9-1.8l.3-.3c1,.5,2.2,1.2,2.9,1.7l-.3.4ZM389.1,491.1c-.8,1.7-2.1,3.9-3,5.3l-.4-.3c.9-1.3,2.2-3.5,3.1-5.3l.4.3ZM389,484.5c-.7-.5-2-1.3-3.1-1.8l.3-.3c1,.5,2.4,1.2,3.1,1.7l-.3.4ZM391,487.1v1.8c0,2.4-.2,5.6-2.1,7.8,0,0-.3-.2-.4-.3,1.8-2.1,2-5.2,2-7.5v-5.8h8.1v4h-7.6ZM391,483.5v3.1h7.2v-3.1h-7.2ZM397.9,496.1c.9,0,1-.4,1.1-2.7.1,0,.3.2.5.2-.1,2.3-.3,2.9-1.6,2.9h-3.6c-1.3,0-1.7-.2-1.7-1.2v-7.2h.5v2.6h5.8v.5h-5.8v4.1c0,.6.2.7,1.2.7h3.7Z"/>
            <path class="cls-25" d="M401.8,489.6c0-1.1-.3-3-.6-4.5h.4c.3,1.5.5,3.4.6,4.4h-.5ZM404.2,487.8c0,1.3,0,2.6-.2,3.8.5.5,1.7,2.2,2,2.6l-.4.4c-.3-.5-1.2-1.7-1.7-2.4-.3,1.6-1,3.1-2.1,4.5,0-.1-.3-.2-.4-.3,2.1-2.5,2.3-5.5,2.3-8.6v-5.4h.5v5.4ZM404.4,488.3c.4-.9,1-2.5,1.3-3.5h.5c-.4,1.2-.9,2.7-1.4,3.6h-.4ZM409.7,492.8c-.6,1.6-1.8,3.2-3,3.9,0-.1-.2-.3-.4-.4,1.2-.7,2.4-2.2,3-3.7l.4.2ZM411.2,491.9v4.8h-.5v-4.8h-4.1v-.5h4.1v-1.9h-2.6v-5h-1.7v-.5h1.7v-1.9h.5v1.9h4.8v-1.9h.5v1.9h1.6v.5h-1.6v5h-2.6v1.9h4.2v.5h-4.2ZM408.6,484.5v2h4.8v-2h-4.8ZM408.6,489.1h4.8v-2.1h-4.8v2.1ZM412.7,492.6c1.1,1.2,2.4,2.8,3,3.7l-.4.3c-.6-1-1.9-2.6-2.9-3.8l.4-.2Z"/>
            <path class="cls-25" d="M422.4,491.6c1.2-.6,1.9-1.4,2-2.8-.1,0-.3,0-.4,0-.5,0-.9-.3-.9-.8s.4-.9.8-.9c.7,0,1,.6,1,1.5,0,1.6-1,2.8-2.4,3.4l-.2-.4Z"/>
            <path class="cls-25" d="M433.7,486.2h4.5v4.1h-4.5c0,2-.3,4.5-1.2,6.3,0,0-.3-.3-.4-.3,1-2.1,1.1-4.9,1.1-7v-5.4c1.9-.2,4.4-.7,5.5-1.3l.4.4c-1.2.7-3.5,1.1-5.4,1.4v1.9ZM433.7,486.7v3.2h4v-3.2h-4ZM446.6,488.2h-2.3v8.5h-.5v-8.5h-3.3v1.5c0,2.2-.2,5-1.9,7,0,0-.3-.3-.4-.3,1.6-1.9,1.8-4.6,1.8-6.7v-5.7c2-.3,4.6-.9,5.8-1.6l.4.4c-1.3.7-3.7,1.2-5.7,1.5v3.4h6.1v.5Z"/>
            <path class="cls-25" d="M454.9,492c-2.3,1.1-4.8,2.2-6.6,3l-.2-.4c.6-.3,1.4-.6,2.3-1l-.2-10.5h.4s.2,10.3.2,10.3c1.2-.6,2.6-1.2,3.9-1.8v.4ZM460.7,483c-.4,3.6-1.1,6.4-2.3,8.6,1.6,1.5,3.4,3.5,4.4,4.7l-.4.3c-.9-1.2-2.7-3.1-4.2-4.6-1.3,2.1-3.2,3.6-6.1,4.7,0,0-.3-.3-.4-.4,6-2.1,7.7-6,8.5-13.4h.5ZM456,488.3c-.4-1.1-1.5-2.7-2.5-3.9l.4-.2c1.1,1.2,2.1,2.8,2.6,3.8l-.4.2Z"/>
            <path class="cls-25" d="M471.9,494.4v.5c-2.7.5-5.6,1-7.5,1.4v-.5c-.1,0,1.3-.2,1.3-.2v-10.1h.5v10l2.5-.4v-12.8h.5v5.1h2.7v.5h-2.7v7.1l2.8-.5ZM477.3,495.5c.8,0,.9-.6,1-3.1.2.1.3.2.5.3,0,2.5-.2,3.3-1.5,3.3h-2.9c-1.2,0-1.5-.3-1.5-1.5v-12.2h.5v5.1h4.2v.5h-4.2v6.7c0,.8.2,1,1,1h2.9Z"/>
            <path class="cls-25" d="M492,495.2c.7,0,1.9,0,2.4-.1,0,.2,0,.4.1.5-.3,0-1.3,0-2.5,0h-7.9c-2.1,0-3.1-.7-3.1-2.4v-9.7h-.7v-.5h13.3v.5h-12.2v9.7c0,1.3.8,2,2.6,2h7.9ZM483.4,489.7h4v3.9h-4v-3.9ZM483.8,493.2h3v-3h-3v3ZM490.9,488.2h-5.7v-3.3h5.7v3.3ZM490.4,485.4h-4.7v2.4h4.7v-2.4ZM492.9,493.6h-4.1v-3.9h4.1v3.9ZM492.5,490.2h-3.2v3h3.2v-3Z"/>
            <path class="cls-25" d="M309.1,502.3c-.3.8-.6,1.8-.9,2.4h2.9v10.1h-4.6v1.4h-.5v-11.5h1.8c.3-.7.7-1.9.8-2.6l.5.2ZM310.6,505.2h-4.2v4.2h4.2v-4.2ZM310.6,514.4v-4.6h-4.2v4.6h4.2ZM319,505.1c-.3,7.5-.5,9.9-1.2,10.6-.3.3-.6.4-1,.4-.5,0-1.4,0-2.3,0,0-.2,0-.4-.2-.5,1.1,0,2,0,2.4,0s.5,0,.7-.2c.5-.6.8-3.1,1.1-10.3h-4.8c-.4,1.2-1,2.3-1.6,3.1,0,0-.3-.2-.4-.2,1.1-1.5,2-3.7,2.5-6.1h.5c-.2,1-.5,1.9-.8,2.7h5.1v.4ZM316.2,512.2c-.5-1-1.7-2.6-2.7-3.7l.4-.2c1,1.2,2.2,2.7,2.7,3.7l-.4.3Z"/>
            <path class="cls-25" d="M334.7,507.1c-.6,2.5-1.4,4.5-2.6,6.2.6,1.9,1.4,2.9,2.4,2.9s.7-.8.8-3.1c.1,0,.3.2.4.2-.1,2.5-.3,3.3-1.2,3.3s-2-1.1-2.7-2.9c-.9,1.2-2,2.1-3.3,2.9,0-.1-.3-.3-.4-.4,1.4-.8,2.6-1.8,3.5-3.1-.6-2-.9-4.8-1-8.1h-7.7v4c0,2.2-.2,5.3-1.5,7.5,0,0-.3-.2-.4-.3,1.2-2.2,1.4-5.1,1.4-7.2v-4.5h8.1c0-.8,0-1.6,0-2.4h.5c0,.8,0,1.7,0,2.4h4.4v.5h-4.4c.1,3.1.4,5.7.9,7.6,1-1.6,1.8-3.5,2.3-5.7h.5ZM329,514.9c-.4-.4-1-.8-1.7-1.3-.8,1.1-2,2-3.6,2.5,0-.1-.2-.3-.3-.4,1.6-.5,2.7-1.3,3.5-2.4-.8-.5-1.7-.9-2.5-1.3.3-.6.6-1.3.9-2h-1.6v-.5h1.8c.3-.8.5-1.6.7-2.3h-2.3v-.5h6v.5h-3.3c-.2.7-.4,1.5-.7,2.3h2.4c0-.4.1-.7.2-1.1h.5c0,.5,0,.8-.2,1.1h1.1v.5h-1.2c-.3,1.2-.6,2.3-1.2,3.2.7.5,1.4.9,1.9,1.3l-.4.3ZM325.8,510.1c-.2.7-.5,1.3-.8,1.8.7.3,1.4.7,2.1,1.1.5-.8.9-1.8,1.1-2.9h-2.5ZM334.5,504.3c-.5-.5-1.6-1.2-2.4-1.7l.3-.3c.9.4,1.9,1.2,2.5,1.7l-.3.3Z"/>
            <path class="cls-25" d="M344.6,508.1v7h6v.5h-12.3v-.5h5.9v-7h-6.8v-.5h6.8v-5.3h.5v5.3h6.9v.5h-6.9Z"/>
            <path class="cls-25" d="M353.5,515.7c.8-1,1.4-2.7,1.7-3.9h.4c-.4,1.3-1,3-1.7,4.1l-.4-.2ZM358.1,510.1c-2,0-2.6-.1-2.6-1.2v-2.9h9.5v-2.5h-9.9v-.5h10.4v3.5h-9.5v2.5c0,.5.3.7,2,.7h6.6c1.4,0,1.6-.3,1.7-2,.2,0,.3.2.5.2-.1,1.9-.4,2.3-2.2,2.3h-6.5ZM363,515.8c.9,0,1.1-.3,1.1-1.9.1,0,.3.2.5.2,0,1.8-.3,2.2-1.6,2.2h-4.4c-1.5,0-1.9-.1-1.9-1v-3.5h.5v3.5c0,.4.2.5,1.3.5h4.4ZM359.3,510.6c1.1.9,2.2,2.2,2.7,3.1l-.4.3c-.5-.9-1.6-2.2-2.7-3.1l.4-.2ZM365,511.4c.9,1.3,1.7,3.1,2,4.2l-.5.2c-.3-1.1-1.2-2.9-2-4.2h.5Z"/>
            <path class="cls-25" d="M376.9,507.6c1.2,4,3.4,7.2,6.6,8.6-.1.1-.3.3-.4.4-3.2-1.6-5.6-4.9-6.7-9h-.2c-.7,3.4-2.3,7.1-6.8,9.1,0,0-.3-.3-.4-.4,4.3-1.8,6-5.4,6.7-8.7h-6.4v-.5h6.4c.3-1.9.4-3.7.4-4.9h.5c0,1.2,0,3-.3,4.9h7v.5h-6.4Z"/>
            <path class="cls-25" d="M392.4,505.1c-.4,1.1-.9,2.5-1.4,3.4h2.6v.5h-8.3v-.5h5.1c.5-1,1.1-2.5,1.4-3.6h.5ZM393.2,504.7h-7.3v-.5h3.7c-.2-.6-.5-1.3-.8-1.9h.4c.4.5.7,1.4.9,1.9h3.2v.5ZM386.5,510.8h6.3v5.5h-.5v-.7h-5.3v.8h-.5v-5.6ZM386.9,511.3v3.9h5.3v-3.9h-5.3ZM388.1,508.3c-.2-.8-.6-2.1-1.1-3.1h.4c.5.8,1,2.1,1.2,2.9h-.5ZM399.2,503.4c-.6,1.4-1.4,3.2-2.2,4.8,1.6,1.6,2,2.8,2,4s-.2,1.5-.6,1.8c-.2.1-.6.2-.9.3-.4,0-1,0-1.5,0,0-.1,0-.3-.2-.5.6,0,1.2,0,1.6,0,.3,0,.5,0,.7-.2.4-.2.5-.8.5-1.4,0-1.1-.5-2.3-2.1-3.9.8-1.6,1.6-3.3,2.1-4.6h-3.4v13h-.5v-13.5h4.2s.3.2.3.2Z"/>
            <path class="cls-25" d="M406,502.8c-.9,2.7-2.4,4.9-4.4,6.3,0,0-.3-.3-.4-.3,2-1.4,3.5-3.5,4.3-6.1h.5ZM413.2,508.4s0,.2,0,.3c-.3,5.1-.5,6.9-1.1,7.4-.3.3-.5.4-1,.4s-1.6,0-2.6,0c0-.2,0-.3-.2-.5,1.2.1,2.4.1,2.7.1s.6,0,.7-.2c.5-.4.8-2.2,1.1-7h-5.1c-.5,3.3-1.5,6.4-5.5,7.8,0,0-.2-.3-.3-.4,3.9-1.3,4.9-4.4,5.3-7.4h-3.8v-.5h10ZM411.2,502.5c.9,2.7,2.7,5.1,4.5,6.2-.1,0-.3.3-.4.4-1.8-1.2-3.6-3.5-4.5-6.1h-3.2v-.5h3.5Z"/>
            <path class="cls-25" d="M421.3,509.9c-.5.2-1.1.4-1.6.7v5.2c0,.4-.1.5-.4.6-.3,0-.8,0-1.6,0,0-.1-.1-.3-.2-.5.7,0,1.3,0,1.5,0,.2,0,.3,0,.3-.3v-5l-1.7.7-.2-.5c.5-.2,1.2-.5,2-.8v-4.1h-1.8v-.5h1.8v-3.4h.5v3.4h1.5v.5h-1.5v3.9l1.5-.6v.5ZM424.4,511.6c.1-.4.2-.7.3-1.1h.5c-.5,2.6-1.7,4.7-3.7,6,0,0-.3-.2-.4-.3,1.5-1,2.6-2.4,3.2-4.1-2.2.6-2.6.7-2.7.8,0-.1-.1-.4-.2-.5.2,0,.5-.4.8-.9.2-.3.8-1.3,1.4-2.4-1.7.3-2,.3-2.2.4,0-.1-.1-.4-.2-.5.2,0,.4-.3.5-.6.2-.4,1-1.7,1.3-3l.5.2c-.4,1.2-1,2.4-1.5,3.3l1.8-.2c.2-.4.4-.9.6-1.3l.5.2c-.8,1.7-1.7,3.3-2.6,4.6l2.1-.5ZM431.5,504.7h-10.1v-.5h4.8c-.2-.6-.5-1.2-.8-1.8l.4-.2c.4.6.8,1.4,1,2h4.8v.5ZM431.6,515.6h-5.2v.9h-.5v-8.1c-.3.6-.7,1.1-1,1.5,0,0-.3-.2-.4-.3,1-1.1,1.8-2.7,2.3-4.3h.4c-.2.7-.4,1.3-.7,1.9h2.5c-.2-.5-.4-1.2-.7-1.7l.4-.2c.3.6.6,1.3.8,1.9h1.9v.5h-2.4v2.1h2.1v.5h-2.1v2h2v.5h-2v2.4h2.6v.5ZM428.5,507.7h-2.2v2.1h2.2v-2.1ZM428.5,510.2h-2.2v2h2.2v-2ZM426.4,515.1h2.2v-2.4h-2.2v2.4Z"/>
            <path class="cls-25" d="M438.6,504.9c-.4.8-.8,1.7-1.3,2.4h8.1v8.4c0,.5-.1.7-.5.8s-1.3,0-2.7,0c0-.1-.1-.3-.2-.5,1.3,0,2.3,0,2.6,0,.3,0,.4-.1.4-.4v-2.4h-7.8c-.2,1.2-.6,2.4-1.5,3.3,0-.1-.2-.3-.3-.4,1.3-1.4,1.5-3.2,1.5-4.8v-3.5c-.9,1.2-2,2.4-3.2,3.2,0-.1-.2-.3-.3-.4,2.1-1.5,3.7-3.7,4.8-6h-4.5v-.5h4.7c.3-.7.6-1.5.8-2.2h.4c-.2.8-.5,1.5-.8,2.2h8.5v.5h-8.7ZM444.9,512.9v-2.3h-7.6v1c0,.4,0,.9,0,1.3h7.7ZM444.9,507.8h-7.6v2.3h7.6v-2.3Z"/>
            <path class="cls-25" d="M454.5,502.3h.5v7.5c0,1.9-.5,5.3-4.3,7,0-.1-.2-.3-.4-.4,2.4-1,3.4-2.7,3.9-4.3-1.6.4-3.2.7-4.5.9v-.5c1.1-.2,2.8-.6,4.6-1,.2-.7.2-1.4.2-1.9v-.8h-4.4v-.5h4.4v-3h-4.7v-.5h4.7v-2.7ZM463.6,512.5h-5.2v4.1h-.5v-14.3h.5v2.7h4.9v.5h-4.9v3h4.6v.5h-4.6v3.2h5.2v.5Z"/>
            <path class="cls-25" d="M478.9,505v3h-.5v-2.5h-12v2.5h-.5v-3h6.4v-2.8h.5v2.8h6.1ZM477.9,515.2c0,.4,0,.5-.4.6-.4,0-1.1,0-2.5,0,0-.1-.1-.3-.2-.4,1.2,0,2,0,2.3,0,.3,0,.3,0,.3-.3v-3h-4.6v4.5h-.5v-4.5h-4.9v3.7h-.5v-4.2h5.3v-1.7h-4v-3.1h8.3v3.1h-3.8v1.7h5.1v3.4ZM468.9,504.7c-.3-.6-.9-1.5-1.5-2.1l.4-.2c.6.6,1.2,1.5,1.5,2l-.4.2ZM468.8,509.6h7.4v-2.1h-7.4v2.1ZM477.5,502.6c-.5.7-1.1,1.6-1.6,2.1l-.3-.2c.5-.6,1.2-1.5,1.6-2.2l.4.3Z"/>
            <path class="cls-25" d="M319.5,535.6v.5h-14.1v-.5h6.8v-1.9h-5.6v-.5h5.6v-1.5h-5.1v-4.8h5.1v-1.3h-6.7v-.5h6.7v-1.6c-1.8.1-3.7.2-5.4.3,0-.1,0-.3-.1-.4,3.7-.1,8.4-.4,10.7-.9l.4.4c-1.3.3-3.2.5-5.2.6v1.6h6.8v.5h-6.8v1.3h5.3v4.8h-5.3v1.5h5.9v.5h-5.9v1.9h6.9ZM307.5,529h4.6v-1.7h-4.6v1.7ZM312.1,531.2v-1.7h-4.6v1.7h4.6ZM312.6,527.3v1.7h4.8v-1.7h-4.8ZM317.4,529.5h-4.8v1.7h4.8v-1.7Z"/>
            <path class="cls-25" d="M325.1,522.3c-.3.8-.6,1.8-.9,2.4h2.9v10.1h-4.6v1.4h-.5v-11.5h1.8c.3-.7.7-1.9.8-2.6l.5.2ZM326.6,525.2h-4.2v4.2h4.2v-4.2ZM326.6,534.4v-4.6h-4.2v4.6h4.2ZM335,525.1c-.3,7.5-.5,9.9-1.2,10.6-.3.3-.6.4-1,.4-.5,0-1.4,0-2.3,0,0-.2,0-.4-.2-.5,1.1,0,2,0,2.4,0s.5,0,.7-.2c.5-.6.8-3.1,1.1-10.3h-4.8c-.4,1.2-1,2.3-1.6,3.1,0,0-.3-.2-.4-.2,1.1-1.5,2-3.7,2.5-6.1h.5c-.2,1-.5,1.9-.8,2.7h5.1v.4ZM332.2,532.2c-.5-1-1.7-2.6-2.7-3.7l.4-.2c1,1.2,2.2,2.7,2.7,3.7l-.4.3Z"/>
            <path class="cls-25" d="M341.3,534.6c-.3-.5-1.2-1.7-1.7-2.4-.3,1.6-1,3.1-2.1,4.5,0-.1-.2-.2-.4-.3,2.1-2.5,2.4-5.5,2.4-8.6v-5.4h.5v5.4c0,1.3,0,2.6-.2,3.8.5.5,1.7,2.2,2,2.6l-.4.4ZM337.8,529.6c0-1.1-.3-3.1-.6-4.5h.4c.3,1.5.5,3.4.6,4.4h-.5ZM341.9,525c-.4,1.1-.9,2.6-1.4,3.5h-.4c.4-1,1-2.6,1.2-3.6h.5ZM351.6,535.6v.5h-10.3v-.5h4.9v-2.9h-4v-.5h4v-1.7h.5v1.7h4.3v.5h-4.3v2.9h4.9ZM345,523.4h-3.1v-.5h9.7v.5h-3.7v2.1h3v4.5h-8.5v-4.5h2.6v-2.1ZM350.4,529.6v-1.2h-2.2c-.6,0-.8-.2-.8-1v-1.4h-2v.5c0,.8-.4,1.8-2.1,2.5-.1-.1-.3-.2-.4-.3,1.7-.6,2-1.5,2-2.2v-.5h-2.1v3.6h7.6ZM345.4,523.4v2.1h2v-2.1h-2ZM350.4,526h-2.6v1.4c0,.4,0,.5.3.5h1.8c.1,0,.3,0,.5,0v-1.9Z"/>
            <path class="cls-25" d="M356.2,527.7c0,1.3,0,2.5-.2,3.7.4.6,1.5,2.2,1.8,2.7l-.4.4c-.3-.5-1.1-1.7-1.6-2.4-.4,1.7-1.1,3.2-2.5,4.6,0,0-.2-.2-.4-.3,2.5-2.4,2.8-5.5,2.8-8.6v-5.4h.5v5.4ZM354.1,529.3c-.1-1-.5-2.9-.9-4.3h.4c.4,1.3.7,3.1.9,4.1l-.4.2ZM358.2,525.2c-.4,1-.8,2.3-1.1,3.1h-.4c.4-.9.8-2.3,1-3.2h.5ZM363.1,525.1v1.1h3.7v3.8h-3.7v1.1h4v.5h-4v1.3h4.5v.5h-9.5v-.5h4.5v-1.3h-4v-.5h4v-1.1h-3.7v-3.8h3.7v-1.1h-4.4v-.5h4.4v-1.3c-1.3.1-2.7.2-3.9.3,0-.1,0-.3-.1-.4,2.8-.2,6.3-.5,8.1-.9l.4.4c-1,.2-2.4.4-4,.6v1.3h4.5v.5h-4.5ZM358.2,536.3c.5-.6.9-1.7,1.1-2.5l.4.2c-.3.8-.7,1.9-1.2,2.6l-.4-.3ZM359.4,529.6h3.2v-2.8h-3.2v2.8ZM360.7,527.2c.3.6.7,1.3.9,1.7l-.4.2c-.2-.5-.5-1.2-.9-1.8l.4-.2ZM361.4,533.9c.3.8.5,1.8.6,2.4h-.5c0-.5-.3-1.6-.5-2.4h.4ZM363.4,533.9c.5.8,1.2,1.8,1.4,2.4l-.4.2c-.2-.6-.8-1.7-1.4-2.5l.4-.2ZM366.3,526.7h-3.2v2.8h3.2v-2.8ZM363.9,528.9c.3-.5.7-1.3.9-1.8l.4.2c-.3.6-.7,1.3-1,1.7l-.4-.2ZM365.9,533.8c.6.8,1.2,1.8,1.5,2.4l-.4.2c-.3-.7-.9-1.7-1.5-2.5l.4-.2Z"/>
            <path class="cls-25" d="M372.5,527.9c.4.6,1.6,2.2,1.9,2.6l-.4.4c-.2-.5-1-1.6-1.5-2.4v8.1h-.5v-8.3c-.7,2-1.7,4.1-2.7,5.2,0-.1-.2-.3-.3-.4,1-1.2,2.3-3.7,2.9-5.8h-2.6v-.5h2.7v-3.3c-.8.2-1.6.4-2.3.5,0-.1-.1-.3-.2-.4,1.6-.3,3.4-.8,4.4-1.2l.4.4c-.5.2-1.1.5-1.8.6v3.4h2.3v.5h-2.3v.6ZM383.6,535.7v.5h-9.2v-.5h4.4v-2.8h-3.4v-.5h3.4v-2.5c-1,.1-2,.2-3,.3,0-.1,0-.3-.1-.4,2.2-.2,4.9-.5,6.2-1l.4.4c-.8.3-1.9.5-3.1.7v2.6h3.6v.5h-3.6v2.8h4.4ZM382.6,527.8h-7v-4.7h7v4.7ZM382.1,523.6h-6v3.7h6v-3.7Z"/>
            <path class="cls-25" d="M387.1,524.5v4c0,2.4-.2,5.8-1.6,8.2,0,0-.3-.2-.4-.3,1.3-2.4,1.5-5.6,1.5-8v-4.4h6.4c-.2-.5-.6-1.2-.9-1.7h.4c.4.4.8,1.2,1.1,1.7h5.8v.5h-12.3ZM397.8,531.5c-.8,1.4-2.1,2.5-3.7,3.2,1.6.7,3.5,1.2,5.6,1.4-.1.1-.2.3-.3.4-2.1-.3-4.1-.8-5.8-1.6-1.9.8-4.1,1.3-6.2,1.5,0-.1-.1-.3-.2-.4,2-.2,4.1-.6,5.9-1.4-1.3-.7-2.4-1.6-3.1-2.7l.4-.2c.7,1.1,1.9,2,3.2,2.7,1.5-.7,2.7-1.6,3.5-2.7h-9.2v-.5h9.6s.3.2.3.2ZM390.6,529.9v-2.8h-3v-.5h3v-1.7h.5v1.7h4.9v-1.7h.5v1.7h2.9v.5h-2.9v2.8h-5.8ZM391,527.2v2.3h4.9v-2.3h-4.9Z"/>
            <path class="cls-25" d="M408,527.1c1.3,0,2.3,1,2.3,2.3s-1,2.3-2.3,2.3-2.3-1-2.3-2.3,1-2.3,2.3-2.3ZM408,531.2c1,0,1.8-.8,1.8-1.8s-.8-1.8-1.8-1.8-1.8.8-1.8,1.8.8,1.8,1.8,1.8Z"/>
          </g>
          <g>
            <path class="cls-25" d="M571.2,491.3v.5h-7.3c-.5,1.9-2.1,3.6-6.9,4.9,0-.1-.2-.3-.3-.4,4.5-1.2,6.1-2.8,6.6-4.5h-6.6v-.5h2v-4.2h4.9v-1.7h.5v1.7h5.1v4.2h1.9ZM560.7,484.5h-3.3v-.5h3.3v-1.8h.5v1.8h2.3v.5h-2.3v1.8h-.5v-1.8ZM563.6,491.3c.1-.6.1-1.2.1-1.8v-2h-4.4v3.7h4.3ZM564.2,489.6c0,.6,0,1.2-.1,1.8h4.8v-3.7h-4.7v2ZM564.5,492.5c2.3,1,5.1,2.6,6.5,3.6l-.3.5c-1.4-1.1-4.2-2.7-6.5-3.7l.3-.4ZM567.1,484.5h-2.7v-.5h2.7v-1.8h.5v1.8h3.3v.5h-3.3v1.8h-.5v-1.8Z"/>
            <path class="cls-25" d="M586.5,483v13.7h-.5v-.8h-12.1v.8h-.5v-13.7h13ZM586.1,495.4v-11.9h-12.1v11.9h12.1ZM580.2,492.3c-1.8.4-3.6.9-5,1.2l-.2-.4c1.3-.3,3.2-.7,5.1-1.1v.4ZM584,487.7c-.4,1.6-1.1,3.1-1.9,4.2.5,1.2,1.1,2,1.9,2.1.3,0,.5-.7.6-1.8.1,0,.3.2.4.2-.2,1.5-.4,2.2-1.1,2.1-.9-.1-1.6-.9-2.1-2.1-.7.9-1.6,1.7-2.6,2.4,0,0-.3-.3-.4-.4,1.1-.6,2-1.5,2.8-2.5-.5-1.4-.8-3.2-1.1-5.3h-5.4v-.5h5.3c0-.7-.1-1.4-.2-2.1h.5c0,.7,0,1.4.2,2.1h4v.5h-4c.2,1.8.5,3.5.9,4.8.7-1.1,1.2-2.4,1.6-3.8h.5ZM579.4,487.9v3.2h-3.6v-3.2h3.6ZM578.9,488.4h-2.6v2.2h2.6v-2.2ZM584,485.5c-.4-.4-1.3-.9-2-1.2l.3-.3c.7.3,1.5.8,2,1.1l-.3.4Z"/>
            <path class="cls-25" d="M602.3,487.1c-.6,2.5-1.4,4.5-2.6,6.2.6,1.9,1.4,2.9,2.4,2.9s.7-.8.8-3.1c.1,0,.3.2.4.2-.1,2.5-.3,3.3-1.2,3.3s-2-1.1-2.7-2.9c-.9,1.2-2,2.1-3.3,2.9,0-.1-.3-.3-.4-.4,1.4-.8,2.6-1.8,3.5-3.1-.6-2-.9-4.8-1-8.1h-7.7v4c0,2.2-.2,5.3-1.5,7.5,0,0-.3-.2-.4-.3,1.2-2.2,1.4-5.1,1.4-7.2v-4.5h8.1c0-.8,0-1.6,0-2.4h.5c0,.8,0,1.7,0,2.4h4.4v.5h-4.4c.1,3.1.4,5.7.9,7.6,1-1.6,1.8-3.5,2.3-5.7h.5ZM596.7,494.9c-.4-.4-1-.8-1.7-1.3-.8,1.1-2,2-3.6,2.5,0-.1-.2-.3-.3-.4,1.6-.5,2.7-1.3,3.5-2.4-.8-.5-1.7-.9-2.5-1.3.3-.6.6-1.3.9-2h-1.6v-.5h1.8c.3-.8.5-1.6.7-2.3h-2.3v-.5h6v.5h-3.3c-.2.7-.4,1.5-.7,2.3h2.4c0-.4.1-.7.2-1.1h.5c0,.5,0,.8-.2,1.1h1.1v.5h-1.2c-.3,1.2-.6,2.3-1.2,3.2.7.5,1.4.9,1.9,1.3l-.4.3ZM593.4,490.1c-.2.7-.5,1.3-.8,1.8.7.3,1.4.7,2.1,1.1.5-.8.9-1.8,1.1-2.9h-2.5ZM602.2,484.3c-.5-.5-1.6-1.2-2.4-1.7l.3-.3c.9.4,1.9,1.2,2.5,1.7l-.3.3Z"/>
            <path class="cls-25" d="M612.2,488.1v7h6v.5h-12.3v-.5h5.9v-7h-6.8v-.5h6.8v-5.3h.5v5.3h6.9v.5h-6.9Z"/>
            <path class="cls-25" d="M621.1,495.7c.8-1,1.4-2.7,1.7-3.9h.4c-.4,1.3-1,3-1.7,4.1l-.4-.2ZM625.7,490.1c-2,0-2.6-.1-2.6-1.2v-2.9h9.5v-2.5h-9.9v-.5h10.4v3.5h-9.5v2.5c0,.5.3.7,2,.7h6.6c1.4,0,1.6-.3,1.7-2,.2,0,.3.2.5.2-.1,1.9-.4,2.3-2.2,2.3h-6.5ZM630.6,495.8c.9,0,1.1-.3,1.1-1.9.1,0,.3.2.5.2,0,1.8-.3,2.2-1.6,2.2h-4.4c-1.5,0-1.9-.1-1.9-1v-3.5h.5v3.5c0,.4.2.5,1.3.5h4.4ZM626.9,490.6c1.1.9,2.2,2.2,2.7,3.1l-.4.3c-.5-.9-1.6-2.2-2.7-3.1l.4-.2ZM632.6,491.4c.9,1.3,1.7,3.1,2,4.2l-.5.2c-.3-1.1-1.2-2.9-2-4.2h.5Z"/>
            <path class="cls-25" d="M641.6,490.1c-.3-.5-1-1.8-1.6-2.6v9.1h-.5v-9.4c-.6,2.2-1.6,4.5-2.5,5.8,0-.1-.2-.3-.4-.4,1.1-1.4,2.2-4.3,2.8-6.7h-2.4v-.5h2.5v-3.2h.5v3.2h2v.5h-2v1c.4.6,1.6,2.4,1.9,2.9l-.4.4ZM646.9,495.5h4.2v.5h-7.6v.7h-.5v-5.4c-.4.6-.9,1.1-1.4,1.5,0,0-.3-.2-.4-.3,1.2-.9,2.2-2.3,2.9-3.8h.5c-.3.6-.5,1.2-.9,1.6h2.9c-.1-.4-.4-.9-.6-1.3h.4c.2.3.5.8.6,1.3h3.8v.5h-4v1.3h3.2v.5h-3.2v1.3h3.2v.5h-3.2v1.3ZM644.9,484.2h-3.1v-.5h3.1v-1.5h.5v3h-.5v-1ZM642.6,485.5h3.3v3h-3.3v-3ZM643.1,488.1h2.4v-2.1h-2.4v2.1ZM646.5,490.7h-3v1.3h3v-1.3ZM646.5,492.5h-3v1.3h3v-1.3ZM643.5,495.5h3v-1.3h-3v1.3ZM650.5,488.6h-3.4v-3h3.4v3ZM650,486h-2.5v2.1h2.5v-2.1ZM651.2,483.7v.5h-3.2v.9h-.5v-2.9h.5v1.5h3.2Z"/>
            <path class="cls-25" d="M666.3,487.1c-.6,2.5-1.4,4.5-2.6,6.2.6,1.9,1.4,2.9,2.4,2.9s.7-.8.8-3.1c.1,0,.3.2.4.2-.1,2.5-.3,3.3-1.2,3.3s-2-1.1-2.7-2.9c-.9,1.2-2,2.1-3.3,2.9,0-.1-.3-.3-.4-.4,1.4-.8,2.6-1.8,3.5-3.1-.6-2-.9-4.8-1-8.1h-7.7v4c0,2.2-.2,5.3-1.5,7.5,0,0-.3-.2-.4-.3,1.2-2.2,1.4-5.1,1.4-7.2v-4.5h8.1c0-.8,0-1.6,0-2.4h.5c0,.8,0,1.7,0,2.4h4.4v.5h-4.4c.1,3.1.4,5.7.9,7.6,1-1.6,1.8-3.5,2.3-5.7h.5ZM660.7,494.9c-.4-.4-1-.8-1.7-1.3-.8,1.1-2,2-3.6,2.5,0-.1-.2-.3-.3-.4,1.6-.5,2.7-1.3,3.5-2.4-.8-.5-1.7-.9-2.5-1.3.3-.6.6-1.3.9-2h-1.6v-.5h1.8c.3-.8.5-1.6.7-2.3h-2.3v-.5h6v.5h-3.3c-.2.7-.4,1.5-.7,2.3h2.4c0-.4.1-.7.2-1.1h.5c0,.5,0,.8-.2,1.1h1.1v.5h-1.2c-.3,1.2-.6,2.3-1.2,3.2.7.5,1.4.9,1.9,1.3l-.4.3ZM657.4,490.1c-.2.7-.5,1.3-.8,1.8.7.3,1.4.7,2.1,1.1.5-.8.9-1.8,1.1-2.9h-2.5ZM666.2,484.3c-.5-.5-1.6-1.2-2.4-1.7l.3-.3c.9.4,1.9,1.2,2.5,1.7l-.3.3Z"/>
            <path class="cls-25" d="M671.7,488.6c-.3-.4-.7-.9-1.1-1.4-.4,1-.9,1.8-1.4,2.4,0,0-.3-.2-.4-.3,1-1,1.6-2.6,2-4.3h.5c0,.6-.3,1.2-.4,1.7.5.5,1,1.1,1.3,1.5l-.3.3ZM672.8,490.8h3.1v.5h-3.1v5.2h-.5v-5.2h-3.4v-.5h3.4v-1.3h.5v1.3ZM675.8,484.7h-6.8v-.5h6.8v.5ZM671.3,492.7c-.4,1.1-1.1,2.2-1.7,2.9,0,0-.3-.2-.4-.3.7-.8,1.3-1.8,1.7-2.8h.4ZM674.3,485.2c-.1.5-.3,1.1-.5,1.6.6.7,1.4,1.7,1.7,2.2l-.4.3c-.3-.5-.9-1.4-1.5-2.1-.4.9-.9,1.6-1.5,2.2,0,0-.3-.2-.4-.3,1-1,1.7-2.4,2.1-4h.5ZM672.8,484.2c-.2-.4-.6-1.2-1-1.7l.4-.2c.4.5.8,1.2,1,1.6l-.4.3ZM674.2,492.5c.6.9,1.3,2,1.6,2.7l-.4.3c-.3-.7-1-1.9-1.6-2.8l.4-.2ZM683.2,495.7h-5.9v.9h-.5v-10c-.4.7-.7,1.3-1.1,1.8,0,0-.3-.2-.4-.3,1.1-1.5,2-3.7,2.6-5.9h.5c-.3,1.1-.6,2.1-1,3h5.7v.5h-2.7v2.8h2.5v.5h-2.5v2.8h2.5v.5h-2.5v2.9h2.8v.5ZM680,485.8h-2.7v2.8h2.7v-2.8ZM680,489.1h-2.7v2.8h2.7v-2.8ZM677.2,495.2h2.7v-2.9h-2.7v2.9ZM680.3,485.1c-.2-.7-.8-1.7-1.2-2.5l.4-.2c.5.8,1.1,1.8,1.3,2.5l-.4.2Z"/>
            <path class="cls-25" d="M684.8,485h5.1v.5h-5.1v-.5ZM689.5,487.5h-4.1v-.5h4.1v.5ZM685.4,489.1h4.1v.5h-4.1v-.5ZM689.5,495.6h-3.6v.8h-.5v-5.3h4v4.5ZM685.9,491.6v3.5h3.1v-3.5h-3.1ZM688,484.5c-.3-.6-.9-1.4-1.5-2l.4-.3c.6.6,1.2,1.4,1.5,2l-.4.3ZM690.2,494.9c.5-.9.8-2.4,1-3.6h.4c-.2,1.3-.4,2.9-1,3.9l-.4-.3ZM694.2,485.2h-3.8v-.5h3.8v-2.5h.5v2.5h4.3v.5h-4.3v3.1h4.1v.5h-8.1v-.5h3.6v-3.1ZM695.8,495.6c.5,0,.6-.3.7-2.4.1.1.3.2.5.2,0,2.2-.2,2.7-1.1,2.7h-2c-.9,0-1.1-.2-1.1-.9v-4.5h.5v4.5c0,.4,0,.4.7.4h2ZM693.8,489.3c.9.6,1.9,1.5,2.4,2.1l-.3.3c-.5-.6-1.5-1.5-2.4-2.1l.3-.3ZM697.5,491.4c.7,1.1,1.4,2.6,1.6,3.6l-.4.2c-.2-1-.9-2.5-1.6-3.6l.4-.2Z"/>
            <path class="cls-25" d="M703.9,484.5c-.8,1.4-1.7,2.6-2.7,3.5,0,0-.3-.2-.4-.3,1.5-1.3,2.8-3.4,3.7-5.5h.5c-.3.7-.5,1.3-.9,1.9h10.6v.5h-10.9ZM713,490.7c0,1.5-.2,2.6-.3,3.4h2.1v.5h-2.1c-.1.9-.3,1.4-.5,1.7-.2.3-.5.4-.9.4-.4,0-1.2,0-2,0,0-.1,0-.3-.1-.4.9,0,1.8,0,2,0s.5,0,.6-.2c.2-.2.3-.6.4-1.4h-9.7c.2-1,.4-2.4.7-3.9h-2.3v-.5h2.4c.2-1.3.4-2.7.5-3.8h9.4s0,.2,0,.3c0,1.3,0,2.4-.1,3.4h2.2v.5h-2.2ZM712.3,494.1c0-.8.2-1.9.3-3.4h-8.9c-.2,1.3-.4,2.4-.5,3.4h9.2ZM704.2,486.9c-.1,1-.3,2.2-.5,3.3h8.9c0-1,0-2.1.1-3.3h-8.5ZM706,491.1c1.3.6,2.8,1.6,3.5,2.3l-.3.4c-.7-.7-2.2-1.7-3.5-2.4l.3-.3ZM709.5,489.7c-.7-.7-2-1.5-3.2-2l.3-.3c1.2.5,2.5,1.3,3.2,2l-.3.4Z"/>
            <path class="cls-25" d="M724.6,492.7h-7.8v-.5h1.7v-7.1h-1.5v-.5h1.5v-2.2h.5v2.2h3.8v-2.2h.5v2.2h1.3v.5h-1.3v7.1h1.4v.5ZM719.7,493.3c-.6,1.3-1.5,2.5-2.4,3.3,0,0-.3-.2-.4-.3.9-.8,1.8-1.9,2.3-3.1h.5ZM718.9,485.1v1.9h3.8v-1.9h-3.8ZM718.9,489.5h3.8v-2.1h-3.8v2.1ZM718.9,492.2h3.8v-2.2h-3.8v2.2ZM721.9,493.3c.6.8,1.3,1.8,1.6,2.4l-.4.3c-.3-.7-.9-1.7-1.6-2.5l.4-.2ZM730.7,495.7c0,.5-.1.7-.5.8-.4,0-1,0-2.2,0,0-.1-.1-.4-.2-.5,1,0,1.8,0,2.1,0s.3,0,.3-.4v-4.6h-4.3c-.1,2-.5,4-1.6,5.6,0,0-.3-.3-.4-.3,1.5-2.2,1.6-5.3,1.6-7.6v-5.8h5.2v12.6ZM730.2,490.6v-3.3h-4.2v1.6c0,.6,0,1.2,0,1.8h4.3ZM726,483.5v3.3h4.2v-3.3h-4.2Z"/>
            <path class="cls-25" d="M560.7,502.3c-.3.8-.6,1.8-.9,2.4h2.9v10.1h-4.6v1.4h-.5v-11.5h1.8c.3-.7.7-1.9.8-2.6l.5.2ZM562.3,505.2h-4.2v4.2h4.2v-4.2ZM562.3,514.4v-4.6h-4.2v4.6h4.2ZM570.6,505.1c-.3,7.5-.5,9.9-1.2,10.6-.3.3-.6.4-1,.4-.5,0-1.4,0-2.3,0,0-.2,0-.4-.2-.5,1.1,0,2,0,2.4,0s.5,0,.7-.2c.5-.6.8-3.1,1.1-10.3h-4.8c-.4,1.2-1,2.3-1.6,3.1,0,0-.3-.2-.4-.2,1.1-1.5,2-3.7,2.5-6.1h.5c-.2,1-.5,1.9-.8,2.7h5.1v.4ZM567.8,512.2c-.5-1-1.7-2.6-2.7-3.7l.4-.2c1,1.2,2.2,2.7,2.7,3.7l-.4.3Z"/>
            <path class="cls-25" d="M577.4,502.5h.5v14.2h-.5v-4.8c-3.4,1.3-3.7,1.5-4,1.6,0-.1-.2-.3-.3-.4.2-.1.5-.4.5-1v-8h.5v8.5l3.2-1.2v-8.9ZM585.6,505.9c-.5,2.7-1.2,4.8-2.3,6.6,1,1.6,2.3,2.9,3.9,3.7-.1,0-.3.3-.4.4-1.5-.8-2.8-2-3.8-3.6-1,1.5-2.4,2.7-4.1,3.7,0,0-.2-.3-.3-.4,1.8-.9,3.2-2.1,4.2-3.7-1-1.7-1.8-3.7-2.3-5.9-.5,1.2-1,2.3-1.7,3.2,0,0-.3-.3-.4-.3,1.4-1.7,2.3-4.4,2.8-7.3h.5c-.2,1.2-.5,2.3-.8,3.2h6.1v.5h-1.5ZM580.8,505.9c.5,2.3,1.3,4.4,2.3,6.1,1-1.7,1.6-3.7,2-6.1h-4.4Z"/>
            <path class="cls-25" d="M602.1,508c-.4,1.9-.9,3.5-1.7,4.9.5,2.3,1.2,3.3,1.8,3.3.3,0,.5-.4.6-2,.1,0,.3.2.4.2-.1,1.9-.4,2.2-1,2.2s-1.6-1-2.1-3.2c-.7,1.3-1.6,2.3-2.7,3.2,0,0-.3-.2-.4-.3,1.2-.9,2.2-2.1,2.9-3.5-.3-1.6-.5-3.7-.7-6.3h-6.9v3.6c0,2-.2,4.7-1.2,6.6,0,0-.3-.2-.4-.3.8-1.4,1.1-3.1,1.1-4.7h-1.5v1.1c0,1.2-.2,2.7-1.2,3.9-.1,0-.3-.2-.4-.3.9-1.1,1.1-2.5,1.1-3.6v-1.1h-1v-.5h3c0-.4,0-.8,0-1.1v-.5h-2.3v-3.5h.5v3h1.8v-3h7.3c0-.4,0-.8,0-1.2h.5c0,.4,0,.8,0,1.2h3.5v.5h-3.5c0,2.4.3,4.2.5,5.7.6-1.3,1-2.7,1.3-4.2h.5ZM592.9,504h-3.8v-.5h3.8v-1.3h.5v1.3h2v.5h-2v1.5h-.5v-1.5ZM593.7,514.6h0s-.2,0-.2,0v-6.7h4.9v.5h-2.2v1.5h2.1v2.8h-2.1v1.5h2.3v.5h-4.8ZM593.9,508.4v1.5h1.8v-1.5h-1.8ZM597.9,510.3h-3.9v1.9h3.9v-1.9ZM595.7,512.7h-1.8v1.5h1.8v-1.5ZM598.4,504h-2v-.5h2v-1.3h.5v1.3h4.3v.5h-4.3v1.5h-.5v-1.5ZM600.5,504.4c.6.3,1.4.9,1.8,1.3l-.3.3c-.4-.4-1.1-1-1.8-1.3l.3-.3Z"/>
            <path class="cls-25" d="M607.6,510.2v5.6c0,.4-.1.6-.4.7-.3,0-.8,0-1.8,0,0,0-.1-.3-.2-.4.8,0,1.5,0,1.7,0,.2,0,.3,0,.3-.3v-5.5c-.8.3-1.6.6-2.3.8l-.2-.5c.7-.2,1.6-.5,2.5-.9v-3.8h-2.3v-.5h2.3v-3.4h.5v3.4h2v.5h-2v3.6l1.9-.7v.5c0,0-1.9.7-1.9.7ZM612.7,502.2h.5v6.7c0,3.2-.4,5.8-3.4,7.7,0,0-.2-.2-.3-.3,1.9-1.2,2.7-2.7,3-4.4-1.1.4-2.2.8-3.2,1.1l-.2-.4c.9-.3,2.2-.7,3.5-1.1.1-.8.2-1.7.2-2.6h0c0,0-2.8,0-2.8,0v-.5h2.8v-2.9h-2.9v-.5h2.9v-2.8ZM619.2,512.4h-3.4v4.2h-.5v-14.4h.5v2.8h3.1v.5h-3.1v2.9h3v.5h-3v3.1h3.4v.5Z"/>
            <path class="cls-25" d="M625.6,505.7c-.5.8-1.2,1.7-1.9,2.5v8.5h-.5v-8c-.8.8-1.6,1.6-2.3,2.2,0,0-.3-.3-.4-.4,1.7-1.2,3.5-3.1,4.6-4.9h.4ZM624.9,502.4c-1,1.3-2.5,2.7-3.9,3.7,0,0-.2-.3-.3-.4,1.3-.9,2.9-2.4,3.8-3.6l.5.2ZM635.2,508.1h-2.6v7.7c0,.5-.2.7-.5.8-.4,0-1.2,0-2.9,0,0-.1-.1-.3-.2-.4,1.4,0,2.5,0,2.8,0,.3,0,.4,0,.4-.4v-7.7h-6v-.5h9.1v.5ZM634.7,503.7h-7.9v-.5h7.9v.5Z"/>
            <path class="cls-25" d="M639.7,506.5c.3.5,1.5,2.6,1.7,3.1l-.4.4c-.2-.5-.9-1.9-1.3-2.8v9.3h-.5v-9.4c-.5,2.2-1.4,4.6-2.2,5.8,0-.1-.3-.3-.4-.4.9-1.4,2-4.3,2.4-6.7h-2.1v-.5h2.3v-3.2h.5v3.2h1.9v.5h-1.9v.7ZM646.3,507.9c.3.6.5,1.4.6,2h3.9v.5h-5.5c0,.7-.1,1.3-.2,1.9h4.7s0,.2,0,.3c-.2,2.5-.4,3.5-.8,3.9-.2.2-.4.2-.8.2-.3,0-1.1,0-1.8,0,0-.1,0-.3-.1-.4.8,0,1.6,0,1.9,0s.4,0,.5-.1c.3-.3.5-1.2.7-3.4h-4.3c-.4,1.8-1.3,3.1-3.2,3.9,0,0-.2-.2-.3-.3,2.5-1,3.1-3.1,3.3-6h-2.7v-.5h4.3c-.1-.6-.4-1.3-.6-1.9h.4ZM651,506.9v2.3h-.5v-1.9h-8.2v1.9h-.5v-2.3h5.7c.4-.7.8-1.8,1.1-2.5l.5.2c-.3.8-.7,1.6-1.1,2.3h2.8ZM650.7,504.3h-8.7v-.5h4.4c-.1-.5-.3-1.1-.5-1.6h.4c.2.5.4,1.2.5,1.6h3.8v.5ZM644.6,506.7c-.1-.5-.4-1.4-.7-2h.4c.3.5.6,1.4.7,1.9l-.4.2Z"/>
            <path class="cls-25" d="M667.1,515.4v.5h-14.1v-.5h6.3v-12.9h.5v5.3h6.3v.5h-6.3v7.2h7.4Z"/>
            <path class="cls-25" d="M674.1,511.6c1.2-.6,1.9-1.4,2-2.8-.1,0-.3,0-.4,0-.5,0-.9-.3-.9-.8s.4-.9.8-.9c.7,0,1,.6,1,1.5,0,1.6-1,2.8-2.4,3.4l-.2-.4Z"/>
            <path class="cls-25" d="M695.3,507.7c-.8,2.5-2.1,4.4-3.8,5.8,1.8,1.3,4,2.2,6.7,2.7,0,.1-.2.3-.3.4-2.7-.5-5-1.4-6.8-2.8-1.8,1.3-4,2.2-6.8,2.9,0-.1-.2-.3-.3-.4,2.7-.6,4.9-1.4,6.7-2.7-1.7-1.5-3-3.3-3.8-5.7h.4c.8,2.1,2,4,3.7,5.4,1.7-1.4,2.9-3.2,3.7-5.7h.5ZM688.1,504.6h-3.9v-.5h3.9v-1.9h.5v1.9h2.3v.5h-2.3v2.3h-.5v-2.3ZM693.7,504.6h-2.3v-.5h2.3v-1.9h.5v1.9h3.9v.5h-3.9v2.3h-.5v-2.3Z"/>
            <path class="cls-25" d="M713.6,505v3.3h-.5v-2.8h-5.9v4.2h-.5v-4.2h-5.7v2.8h-.5v-3.3h6.2v-1.6h-5.5v-.5h11.6v.5h-5.7v1.6h6.3ZM701.7,508.8c1-.1,2.4-.3,3.8-.5v.4c-1.3.2-2.5.5-3.6.6l-.2-.5ZM701.8,510.4h10.5v6.2h-.5v-.6h-9.6v.7h-.5v-6.3ZM702.2,506.1c1.2.2,2.6.6,3.4,1l-.2.4c-.8-.4-2.3-.8-3.4-1.1l.2-.4ZM702.3,510.9v2.1h4.5v-2.1h-4.5ZM706.8,515.5v-2.1h-4.5v2.1h4.5ZM711.9,510.9h-4.6v2.1h4.6v-2.1ZM711.9,515.5v-2.1h-4.6v2.1h4.6ZM712.1,509.5c-.9-.3-2.5-.7-3.8-.8l.2-.4c1.3.1,2.9.5,3.8.8l-.2.4ZM712.1,506.5c-.9.4-2.4.8-3.4,1l-.3-.3c1-.3,2.5-.8,3.4-1.1l.3.4Z"/>
            <path class="cls-25" d="M724.9,513h.5v3h-.5v-.6h-8.1v-2.3h.5v1.8h3.6v-2.6h.5v2.6h3.6v-1.9ZM718.6,510.2v1.4h10.9s0,.2,0,.3c-.3,3-.5,4.1-.9,4.5-.2.2-.4.3-.8.3-.4,0-1.1,0-1.9,0,0-.1,0-.3-.1-.4.9,0,1.7,0,2,0s.5,0,.6-.1c.3-.3.6-1.3.8-4h-10.8v-8.5h3.7c.3-.4.6-1.1.8-1.4l.5.2c-.2.4-.5.8-.7,1.2h5.3v4.6h-9.1v1.6h11.5v.5h-11.5ZM718.6,504.1v1.6h8.6v-1.6h-8.6ZM727.2,507.7v-1.6h-8.6v1.6h8.6Z"/>
            <path class="cls-25" d="M746.1,515.4v.5h-14.1v-.5h6.3v-12.9h.5v5.3h6.3v.5h-6.3v7.2h7.4Z"/>
            <path class="cls-25" d="M560.7,522.3c-.3.8-.6,1.8-.9,2.4h2.9v10.1h-4.6v1.4h-.5v-11.5h1.8c.3-.7.7-1.9.8-2.6l.5.2ZM562.3,525.2h-4.2v4.2h4.2v-4.2ZM562.3,534.4v-4.6h-4.2v4.6h4.2ZM570.6,525.1c-.3,7.5-.5,9.9-1.2,10.6-.3.3-.6.4-1,.4-.5,0-1.4,0-2.3,0,0-.2,0-.4-.2-.5,1.1,0,2,0,2.4,0s.5,0,.7-.2c.5-.6.8-3.1,1.1-10.3h-4.8c-.4,1.2-1,2.3-1.6,3.1,0,0-.3-.2-.4-.2,1.1-1.5,2-3.7,2.5-6.1h.5c-.2,1-.5,1.9-.8,2.7h5.1v.4ZM567.8,532.2c-.5-1-1.7-2.6-2.7-3.7l.4-.2c1,1.2,2.2,2.7,2.7,3.7l-.4.3Z"/>
            <path class="cls-25" d="M577.8,523.8c-.4,4.7-1.3,9.9-4.7,12.9,0,0-.3-.3-.4-.3,3.4-3,4.1-8.1,4.5-12.6h.5ZM581.8,523.5c.7,6,2.2,10.8,5.5,12.9-.1,0-.3.2-.4.3-3.2-2.2-4.7-6.8-5.5-12.7h-1.8v-.5h2.2Z"/>
            <path class="cls-25" d="M601.3,528.2c-.8.7-1.9,1.5-2.9,2.1.8,2.4,2.6,4.4,4.8,5.2-.1,0-.3.3-.3.4-2.2-.9-4-2.9-4.9-5.4-.4.2-.7.4-1,.6.6,2.2.2,4.4-.7,5-.4.3-.8.4-1.4.4s-.9,0-1.4,0c0-.1,0-.3-.1-.4.6,0,1.2,0,1.5,0,.5,0,.8,0,1.2-.3.7-.4,1.1-2.1.7-3.9-1.8,1.5-4.7,3.1-7.2,3.8,0-.1-.2-.3-.3-.4,2.6-.6,5.8-2.3,7.4-3.8-.1-.6-.3-1.1-.6-1.7-1.5,1.2-4.1,2.4-6.1,3,0-.1-.2-.3-.3-.4,2-.5,4.8-1.8,6.2-3-.3-.5-.7-1-1.1-1.4-1.5.9-3.3,1.6-4.8,2.1,0,0-.2-.3-.3-.4,2.1-.6,4.6-1.6,6.2-2.9h-4.4v-.5h9.5v.5h-4.5c-.4.3-.8.7-1.3,1,.9.9,1.5,1.9,1.9,3,1.3-.8,3-2,4-2.9l.4.3ZM590,526.8h-.5v-3h6.3c-.2-.5-.5-1.1-.8-1.5h.4c.3.4.7,1,.9,1.5h6.2v3h-.5v-2.5h-12.1v2.5Z"/>
            <path class="cls-25" d="M607.5,528.8c-.6-.4-1.8-1.2-2.7-1.7l.3-.3c.9.5,2.1,1.2,2.7,1.6l-.3.4ZM605.1,536.1c.8-1.3,2-3.5,2.8-5.3l.3.3c-.8,1.7-1.9,3.9-2.8,5.3l-.4-.3ZM607.9,524.6c-.6-.5-1.7-1.2-2.6-1.7l.3-.3c.9.5,2,1.2,2.6,1.6l-.3.4ZM615.2,523.6v2.8h3.3v10.1h-.5v-.8h-8.2v.9h-.5v-10.2h2.9v-2.8h-3.6v-.5h10.6v.5h-4ZM618,535.3v-5c0,0-.2,0-.3,0h-2c-.8,0-1,0-1-.8v-2.7h-2v.7c0,1.1-.5,2.5-2.4,3.6,0-.1-.2-.3-.3-.4,1.8-.9,2.2-2.2,2.2-3.2v-.7h-2.4v8.4h8.2ZM611.2,532.3h5.7v.5h-5.7v-.5ZM614.8,523.6h-2v2.8h2v-2.8ZM618,526.9h-2.8v2.7c0,.2,0,.3.5.3h1.9c.3,0,.4,0,.4,0v-2.9Z"/>
            <path class="cls-25" d="M622.4,524.2v4.6c0,2.4-.2,5.6-1.3,8,0,0-.3-.2-.4-.3,1.1-2.3,1.2-5.4,1.2-7.7v-5h6.7c-.2-.5-.6-1.1-1-1.6l.4-.2c.4.5.9,1.2,1.1,1.6h-.2c0,.1,6.3.1,6.3.1v.5h-12.8ZM624.8,527.6c-.2-.6-.8-1.5-1.4-2.2l.4-.2c.6.7,1.2,1.6,1.4,2.2l-.4.2ZM634.3,527.8c-.3,2-.8,4-1.7,5.7.7,1.3,1.6,2.3,2.8,2.8-.1,0-.3.2-.3.4-1.1-.6-2-1.6-2.7-2.8-.7,1.1-1.6,2.1-2.9,2.8,0,0-.2-.3-.3-.4,1.3-.8,2.2-1.8,2.9-2.9-.7-1.4-1.2-3-1.5-4.9-.3.7-.6,1.4-1,2,0,0-.3-.2-.4-.2v5.5c0,.4,0,.5-.4.6-.3,0-.9,0-1.9,0,0-.1-.1-.3-.2-.5.8,0,1.5,0,1.7,0,.2,0,.3,0,.3-.3v-6.9h-4.9v7.8h-.5v-8.2h2.6v-3.7h.5v3.7h2.8v1.7c.9-1.4,1.6-3.4,2-5.4h.5c-.2.9-.4,1.8-.7,2.6h4.1v.5h-.8ZM625.4,534v.7h-.5v-4.3h2.8v3.6h-2.3ZM625.4,530.9v2.7h1.8v-2.7h-1.8ZM627.2,527.5c.4-.6,1-1.7,1.3-2.3l.5.2c-.4.8-.9,1.7-1.4,2.3l-.4-.2ZM632.4,532.9c.8-1.6,1.2-3.4,1.5-5.2h-2.9c.3,1.9.8,3.7,1.5,5.2Z"/>
            <path class="cls-25" d="M643.9,527.2c0,.1,0,.3,0,.4-4.8,1.2-5.2,1.3-5.5,1.4,0-.1-.2-.4-.3-.5.3,0,.7-.4.7-1v-5.4h.5v2.2h4.3v.5h-4.3v3.3l4.5-1ZM644.2,528.7c-.3.5-.6,1.1-.8,1.5h5.7v6.5h-.5v-.6h-8.8v.6h-.5v-6.5h3.5c.3-.5.7-1.2.8-1.7l.5.2ZM648.5,530.6h-8.8v2.2h8.8v-2.2ZM648.5,535.6v-2.3h-8.8v2.3h8.8ZM649.7,528.2c.7,0,.8-.2.8-1.7.1,0,.3.2.4.2,0,1.5-.2,1.9-1.2,1.9h-3.4c-1.2,0-1.6-.2-1.6-1v-5.4h.5v2.3h5.2v.5h-5.2v2.7c0,.4.2.6,1.1.6h3.4Z"/>
            <path class="cls-25" d="M665.5,536.6h-.5v-1h-8.3v1h-.5v-5.7c-1,.4-2,.7-2.9.9,0-.1-.2-.3-.3-.4,2.1-.4,4.4-1.3,6.6-2.5-.9-.8-2.4-2-3.7-2.9-.6.5-1.4,1-2.1,1.4,0,0-.2-.2-.3-.3,2.6-1.3,4.5-3.3,5.4-4.8h.6c-.3.6-.7,1.1-1.2,1.6h6.8s.3.2.3.2c-1.5,2.8-4.5,5-7.7,6.4h7.8v6.2ZM657.9,524.3c-.4.5-1,.9-1.5,1.4,1.3.9,2.9,2.1,3.7,2.9,1.9-1.2,3.5-2.6,4.5-4.3h-6.8ZM665,535.2v-4.3h-8.3v4.3h8.3Z"/>
            <path class="cls-25" d="M669.2,523.2h7.9v.5h-4.4c-.3,1.1-.6,2.1-.9,3.1h4.4s.3,0,.3,0c-.8,5.5-3.5,8.5-6.6,9.8,0-.1-.2-.3-.3-.4,1.7-.7,3.3-2,4.5-3.9-.8-.8-2.3-1.9-3.6-2.7-.3.4-.5.8-.8,1.2,0,0-.3-.2-.4-.3,1.4-1.7,2.4-4.2,3-7h-3.1v-.5ZM671.6,527.3c-.3.8-.6,1.4-1,2.1,1.3.8,2.8,1.9,3.7,2.7.7-1.3,1.3-2.9,1.6-4.8h-4.3ZM678.7,524.2h.5v8.7h-.5v-8.7ZM682.5,522.2v13.5c0,.5-.2.7-.5.8-.3,0-1,0-2.1,0,0-.1-.1-.3-.2-.5,1,0,1.8,0,2,0,.2,0,.3,0,.3-.4v-13.6h.5Z"/>
            <path class="cls-25" d="M690.5,534.1c-1.4,1-3.6,1.9-5.3,2.5,0-.1-.2-.3-.3-.4,1.8-.6,4-1.5,5.1-2.4l.5.3ZM699.1,532.8v.5h-14.1v-.5h3.2v-7.9h-2.8v-.5h2.8v-2.1h.5v2.1h6.9v-2.1h.5v2.1h2.8v.5h-2.8v7.9h3.2ZM688.6,524.8v2.2h6.9v-2.2h-6.9ZM688.6,529.9h6.9v-2.4h-6.9v2.4ZM688.6,532.8h6.9v-2.4h-6.9v2.4ZM693.8,533.8c2,.7,4,1.6,5.3,2.3l-.3.4c-1.2-.7-3.2-1.6-5.2-2.4l.3-.3Z"/>
            <path class="cls-25" d="M714.3,525.2v7h-.5v-1h-5.6v5.4h-.5v-5.4h-5.6v1.1h-.5v-7.1h6.1v-2.9h.5v2.9h6.1ZM707.7,530.7v-5.1h-5.6v5.1h5.6ZM713.8,530.7v-5.1h-5.6v5.1h5.6Z"/>
            <path class="cls-25" d="M720.1,527.1c1.3,0,2.3,1,2.3,2.3s-1,2.3-2.3,2.3-2.3-1-2.3-2.3,1-2.3,2.3-2.3ZM720.1,531.2c1,0,1.8-.8,1.8-1.8s-.8-1.8-1.8-1.8-1.8.8-1.8,1.8.8,1.8,1.8,1.8Z"/>
          </g>
          <line class="cls-2" x1="56" y1="418.5" x2="248" y2="418.5"/>
          <line class="cls-2" x1="304" y1="418.5" x2="496" y2="418.5"/>
          <line class="cls-2" x1="552" y1="418.5" x2="744" y2="418.5"/>
        </g>
      </g>
    </g>
  </g>
</svg>