<?xml version="1.0" encoding="UTF-8"?>
<svg xmlns="http://www.w3.org/2000/svg" version="1.1" viewBox="0 0 800 600">
  <defs>
    <style>
      .cls-1, .cls-2, .cls-3, .cls-4, .cls-5, .cls-6, .cls-7, .cls-8, .cls-9, .cls-10, .cls-11, .cls-12, .cls-13 {
        fill: none;
      }

      .cls-1, .cls-2, .cls-3, .cls-4, .cls-5, .cls-6, .cls-8, .cls-10 {
        stroke-linecap: round;
      }

      .cls-1, .cls-2, .cls-3, .cls-5, .cls-6, .cls-7, .cls-14, .cls-8, .cls-9, .cls-10, .cls-11, .cls-12 {
        stroke-miterlimit: 10;
      }

      .cls-1, .cls-2, .cls-3, .cls-7, .cls-14, .cls-10, .cls-13 {
        stroke: #000;
      }

      .cls-1, .cls-4, .cls-8 {
        stroke-width: 3px;
      }

      .cls-2 {
        stroke-width: .5px;
      }

      .cls-3, .cls-5, .cls-7, .cls-14, .cls-13 {
        stroke-width: 2px;
      }

      .cls-15 {
        fill: #fff;
      }

      .cls-4, .cls-5, .cls-6, .cls-8 {
        stroke: #fff;
      }

      .cls-4, .cls-13 {
        stroke-linejoin: round;
      }

      .cls-14 {
        fill: #f9bb3d;
      }

      .cls-9 {
        stroke-width: 4px;
      }

      .cls-9, .cls-11, .cls-12 {
        stroke: #333;
      }

      .cls-16 {
        fill: #333;
      }

      .cls-11 {
        stroke-width: 5px;
      }

      .cls-12 {
        stroke-width: 6px;
      }

      .cls-17 {
        fill: #ccc;
      }
    </style>
  </defs>
  <!-- Generator: Adobe Illustrator 28.7.4, SVG Export Plug-In . SVG Version: 1.2.0 Build 166)  -->
  <g>
    <g id="Layer_1">
      <g>
        <rect class="cls-17" x="100" y="-100" width="600" height="800" transform="translate(100 700) rotate(-90)"/>
        <g>
          <path class="cls-15" d="M70.3,60.5c-.2,6.2-1.2,13.9-4.9,21.2,2.8,2.6,5.3,5,7.1,7l-6.1,6.2c-1.4-1.8-3.4-3.9-5.7-6.2-2.6,3.1-5.9,5.9-10,8.4-1.2-1.8-4-4.8-5.8-6.2,4.1-2.4,7.3-5.1,9.8-8.1-3.1-2.9-6.2-5.7-8.7-8.2,1-3.5,2.1-7.9,2.9-12.6l-3.1.2-.8-8.1,5.3-.2c.4-3.2.8-6.4,1-9.5l8.7.5c-.3,2.7-.7,5.7-1.1,8.5l3.6-.2v-2.6h8v2.2h1.7c0-.1,0,7.5,0,7.5h-1.7ZM58.9,76c2.3-5.2,3.1-10.5,3.4-14.8l-4.9.3c-.7,3.9-1.5,7.7-2.4,11.2l3.9,3.4ZM95.8,49.7v45.1h-8.1v-3.2h-7.1v4.1h-7.7v-46h22.8ZM87.8,83.9v-26.5h-7.1v26.5h7.1Z"/>
          <path class="cls-15" d="M154.4,56.4h-3v31.8c0,4.4-.8,6.5-3.5,7.8-2.6,1.2-6.5,1.5-11.5,1.5-.3-2.3-1.6-5.9-2.7-8.2,3.2.2,6.9.2,8.1.2s1.5-.3,1.5-1.3v-31.7h-23.4v-7.7c-1,2.5-2.2,5.1-3.5,7.6v40.9h-8.1v-28.3c-1.1,1.3-2.1,2.6-3.2,3.7-.7-2-2.9-6.5-4.2-8.6,4.9-4.8,9.6-12.4,12.4-20l7.6,2.5c-.3.7-.6,1.5-.8,2.2h34.5v7.8ZM127.6,82.3v3.5h-7.6v-24.5h19.4v20.9h-11.8ZM127.6,68.3v7.1h4.3v-7.1h-4.3Z"/>
          <path class="cls-15" d="M159.3,71.5h22.2v25.6h-8.1v-2.5h-6.4v2.7h-7.7v-25.8ZM201.2,67.5h-34.4v-21.3h34.4v21.3ZM167,79.3v7.6h6.4v-7.6h-6.4ZM192.8,54h-18.2v5.8h18.2v-5.8ZM208.3,71.5v25.6h-8.2v-2.5h-6.8v2.7h-7.8v-25.8h22.8ZM200.2,86.8v-7.6h-6.8v7.6h6.8Z"/>
          <path class="cls-15" d="M228.8,85.8h-7.6v1.6h-6.2v-35.1h13.8v33.4ZM221.2,59.2v19.9h1.7v-19.9h-1.7ZM265.7,51v10.6h-7v-4.9h-22.4v4.9h-6.7v-10.6h5.2c-.6-1.5-1.5-3.2-2.2-4.5l6.6-2.2c1.2,1.7,2.5,4.1,3.1,5.8l-2.5,1h4.1v-6.9h8v6.9h4.3l-2-.7c.8-1.7,1.8-4.1,2.3-5.8l7.8,2.1c-1.3,1.6-2.4,3.1-3.4,4.4h4.9ZM254.9,72.7c2.6,0,6.9-.2,8.6-.6.2,1.8.3,3.5.6,4.9-1.6.4-5.3.5-8.3.5h-14.8c-6.9,0-8.7-2.1-8.7-6.9v-4.6h5.2v-8.7h20.3v9.2h-18.9v1h23v4.1h-22.8c.2.7.8,1,2.6,1h13.4ZM234,78.6h28.4v18.5h-7.2v-1.5h-14.4v1.6h-6.8v-18.7ZM240.8,83.5v1.7h14.4v-1.7h-14.4ZM255.2,91.1v-1.8h-14.4v1.8h14.4ZM243.3,62.6h8.1v-1.4h-8.1v1.4Z"/>
          <path class="cls-15" d="M89.3,125.7c-2.5,7.3-5.9,13.1-10.5,17.8,5.1,2.7,11.4,4.6,19.1,5.7-1.8,1.9-4.2,5.7-5.3,8.1-8.8-1.5-15.6-4-21.1-7.8-5.9,3.8-13,6.4-21.5,8.1-.8-2.1-3.2-6.2-4.7-8.2,7.7-1.2,14.2-3.1,19.5-6-4-4.6-7.1-10.4-9.5-17.5l8-2c1.8,5.8,4.6,10.6,8.5,14.4,3.9-3.8,6.7-8.6,8.4-14.7l9.1,2.2ZM58.1,117.2h-11.2v-7.8h11.2v-5.3h8.1v5.3h4.5v7.8h-4.5v5.8h-8.1v-5.8ZM77.8,117.1h-4.6v-7.8h4.6v-5.2h8.1v5.2h11v7.8h-11v5.9h-8.1v-5.9Z"/>
          <path class="cls-15" d="M145.1,126.8v-7.1h-3.1l2.8,3.8c-2.4.9-5.2,1.6-7.7,2.1,3.4.6,6.9,1.4,9.1,2.1l-1.4,4.9h3.2v24.1h-8.2v-1.8h-24.2v2.4h-7.8v-24.6h3l-1.8-5.1c2.8-.3,6.4-.8,10.4-1.4-2.2-.7-5.7-1.7-8.3-2.2l2.1-3.9c2.9.4,6.9,1.3,9.1,2.1l-1.8,3.8,2.1-.3.3,4.4c-3.5.9-7,1.8-10.1,2.5h32c-3-1.1-8.7-2.5-12.8-3.1l1.5-4.4c.5,0,1,.1,1.5.2l-2-3c2.4-.4,5.8-1.7,8.2-2.5h-9.3v11.1h-8v-11.1h-13.4v7.1h-7.7v-13h21.1v-1.7h-18.6v-5.7h45.1v5.7h-18.6v1.7h21.6v13h-8.1ZM115.6,138.7v2.1h8.1v-2.1h-8.1ZM115.6,148.9h8.1v-2.2h-8.1v2.2ZM139.8,138.7h-8.2v2.1h8.2v-2.1ZM139.8,148.9v-2.2h-8.2v2.2h8.2Z"/>
          <path class="cls-15" d="M184.5,143.8h7.3v12.1h-7.3v-1.5h-24.5v-10.6h7.3v4.6h5v-5.4h7.4v5.4h4.7v-4.6ZM173.2,135v1.6h34.7s0,1.8-.2,2.8c-.7,9.4-1.6,13.7-3,15.4-1.2,1.5-2.5,2-4,2.2-1.3.3-3.4.3-5.8.3-.1-2.1-.8-5.1-1.9-6.9,1.5.2,2.7.2,3.5.2s1.1-.2,1.6-.7c.6-.7,1.1-2.8,1.6-7.5h-34.4v-34.2h12.5c.3-1.5.6-3,.7-4.2l9.9.6c-.5,1.3-1.1,2.5-1.7,3.6h15v19h-28.2v2h36.6v5.9h-36.6ZM173.2,113.6v1.7h20v-1.7h-20ZM193.2,121.7v-1.6h-20v1.6h20Z"/>
          <path class="cls-15" d="M264.8,123.2c-1.6,8.8-4.1,16.5-7.8,22.7.7,2.3,1.5,3.6,2.2,3.6s1.3-2.9,1.4-9.2c1.7,1.8,4.2,3.6,6.2,4.5-1.1,10.1-3.3,12.5-8.5,12.5s-4.6-1.7-6.3-4.5c-1.7,1.8-3.5,3.4-5.5,4.9-1.1-1.5-4-4.4-5.6-5.7,3.2-2,5.8-4.4,8.1-7.3-1.8-7-2.7-16.2-3.1-25.8h-21v9.1c0,8.6-.9,21.4-6,29.1-1.2-1.4-4.4-4-6.1-4.9,4.3-6.8,4.6-16.9,4.6-24.2v-16.4h28.2c0-2.5,0-4.9,0-7.3h8c0,2.4-.1,4.9,0,7.3h5.2c-1.5-1.2-3.4-2.4-4.9-3.3l4.5-4.6c2.4,1.2,5.5,3.1,7.1,4.5l-3.2,3.4h3.6v7.3h-12.2c.2,5.2.7,10.1,1.2,14.5,1.2-3.4,2-7.2,2.6-11.2l7.4,1.1ZM240,151.4c-.9-.7-2-1.3-3.1-2.1-2.7,2.8-6.4,4.9-11.1,6.7-.7-1.7-2.2-4-3.5-5.3,3.8-1.1,6.7-2.7,9-4.8-2.3-1.3-4.7-2.5-6.8-3.5.8-1.7,1.6-3.8,2.4-5.9h-1.2v-5.3h3c.4-1.4.7-2.7,1.1-4.1h-3.5v-6.2h18.7v6.2h-8.7c-.3,1.3-.7,2.7-1.1,4.1h3c.1-.8.2-1.7.3-2.6l6.7.7c0,.6-.2,1.2-.3,1.8h.7v5.3h-1.7c-.7,2.9-1.7,5.4-2.9,7.6,1.7,1,3.2,1.9,4.5,2.7l-5.3,4.6ZM233.3,136.5c-.3,1.1-.7,2.1-1.1,3.1.9.4,1.8.9,2.7,1.3.7-1.3,1.3-2.8,1.8-4.4h-3.5Z"/>
          <path class="cls-15" d="M300.1,128.4v18.5h18.6v8.1h-45.4v-8.1h18v-18.5h-21.1v-8.1h21.1v-16.2h8.8v16.2h21.6v8.1h-21.6Z"/>
          <path class="cls-15" d="M324.9,151.8c2.2-3.8,4.1-9.2,5.1-14.5l7.4,2.4c-1.1,5.3-2.7,11.7-5,15.9l-7.4-3.8ZM362.9,112.8h-33.5v-7.2h41.5v17.9h-1.6c2,1,5.1,1.9,7.2,2.2-1.2,7.3-3.8,9-12.9,9h-10.8c2.9,3,6.2,7,7.6,9.9l-7.1,4c-1.3-3-4.8-7.6-7.7-10.9l5.5-3h-5.2c-11.9,0-15.2-2-15.2-9.2v-9.1h32v-3.6ZM371.1,154.4c-.5-2.1-1.5-4.8-2.7-7.6-1.1,7.6-3.4,9.5-10.1,9.5h-9.5c-8.8,0-11-2.3-11-9.4v-8.5h8.3v8.3c0,1.8.5,2.1,3.6,2.1h7.9c2.6,0,3.1-.8,3.4-6.5,1.5,1.1,4.4,2.2,6.6,2.7-1-2.2-2.1-4.4-3.1-6.3l6.9-2.7c2.7,4.7,5.9,10.9,7.2,15.1l-7.5,3.1ZM363.1,127.8c4.4,0,5.2-.6,5.8-4.2h-30v1.7c0,2.1,1.1,2.5,7.2,2.5h17Z"/>
          <path class="cls-15" d="M97.2,172.7s0,2.6,0,3.5c-.7,24.9-1.2,34-3.6,37.1-1.7,2.5-3.5,3.1-5.9,3.6-2.2.4-5.7.3-9.1.2-.1-2.2-1.2-5.7-2.7-7.9,3.6.3,6.9.3,8.5.3s1.7-.2,2.5-1c1.6-1.7,2.3-10,2.7-28.4h-10.6c-1.5,3.2-3.1,6-4.8,8.3-1-.9-2.9-2.4-4.6-3.5v26.7h-14.7v4h-7.3v-42.3h6.4c.6-2.9,1.1-6.4,1.2-9.1l8.9,1.2c-1,2.7-1.9,5.5-2.8,7.9h8.3v7.4c2.8-4.5,5.2-10.6,6.7-16.4l7.8,1.8c-.6,2.2-1.3,4.4-2.1,6.6h15.3ZM62.2,180.3h-7.3v7.6h7.3v-7.6ZM62.2,204.5v-9.6h-7.3v9.6h7.3ZM80.7,202.8c-1.5-3.4-4.8-8.9-7.3-13l6.4-3.6c2.5,3.8,6.2,9.1,7.8,12.4l-6.9,4.2Z"/>
          <path class="cls-15" d="M118,199.3c-.1-.8-.3-1.7-.4-2.7-10.6,2.2-12.7,2.9-13.9,3.6-.3-1.2-1.3-4.3-2.1-5.9,1.4-.3,2.6-1.6,4.3-3.8.7-.8,2-2.5,3.5-4.8-4,.4-5.3.8-6.2,1.2-.3-1.3-1.4-4.5-2.2-6.2,1.1-.3,2.1-1.3,3.2-3,1.1-1.5,4.5-7.6,6.3-13.4l6.5,2.7c-1.8,4.3-4.4,8.9-7.1,12.7l3.3-.2c1.2-2.3,2.5-4.6,3.5-7l5.7,3.2c-2.9,5.6-6.7,11.3-10.7,16.1l4.6-.8c-.3-1.1-.6-2.2-.9-3.2l4.6-1.3c1.2,3.6,2.4,8.2,2.9,11l-4.9,1.6ZM108.8,202.5c-.4,5-1.3,10.2-2.5,13.5-1.1-.6-3.6-1.3-4.9-1.6,1.5-3.2,2.1-8.1,2.4-12.7l5,.8ZM114.4,201.2c.7,3.8,1.2,8.5,1.4,11.6l-5,1.2c0-3.2-.6-8-1.1-11.7l4.8-1.2ZM120.1,199.9c1.2,3.4,2.5,7.6,3.1,10.5l-4.8,1.7c-.5-2.9-1.8-7.3-2.9-10.7l4.5-1.5ZM144.4,210c2.6,0,3-1,3.4-6.3,1.6,1.1,4.7,2.4,6.8,2.8-1,8-3.1,10.4-9.5,10.4h-9.9c-7.6,0-9.9-2.1-9.9-9.8v-19.7c-1-1.6-3-4.1-4.3-5.3,4.3-1.8,7.3-4.9,9.1-8.5h-6.8v-6.9h29.3s-.1,1.7-.2,2.6c-.6,6.6-1.3,10-2.7,11.5-.4.5-1,.9-1.5,1.2h4.6v20h-7.3v-1.6h-12.8v6.6c0,2.6.4,3,3.5,3h8.3ZM132.6,193.5h3v-4.5h-3v4.5ZM138.2,173.6c-1.2,3.1-2.9,5.9-5.1,8.4h6.3c-.2-1.8-.9-4.1-1.7-5.6,1.7.2,3.2.2,4,.2s1.1,0,1.6-.5c.3-.4.7-1.1.9-2.5h-6ZM145.4,193.5v-4.5h-3.1v4.5h3.1Z"/>
          <path class="cls-15" d="M176.2,166.7c-1.4,3.6-3.1,7.4-5,11.1v39.4h-8.1v-26.9c-.8,1-1.6,1.9-2.5,2.8-.7-2-2.9-6.5-4.2-8.5,4.8-4.9,9.5-12.6,12.2-20.3l7.6,2.4ZM210.4,207.8v7.8h-37.6v-7.8h14.8v-5.2h-11.8v-7.7h11.8v-4.1h8.3v4.1h12.2v7.7h-12.2v5.2h14.5ZM187.6,177.3h-10.7v-7.6h10.7v-5.6h8.3v5.6h11v7.6h-11v4.6h13.6v7.7h-35.1v-7.7h13.2v-4.6Z"/>
          <path class="cls-15" d="M260.5,165.9c-.4,22.7-.6,42.4,1.6,42.4s.7-3.2.8-7.5c1.3,2.4,3,5.1,4.4,6.7-.7,6.4-2.2,9.8-6,9.8-8.8,0-8.9-20.2-8.8-43.9h-26v12.9c0,9.5-1,23.1-7.1,31.2-1.4-1.3-4.8-3.5-6.7-4.4,5.5-7.3,6-18.4,6-26.8v-20.4h41.8ZM250.5,201.3c1.8,3.9,3.6,8.7,4.1,12l-6.6,2.1c-.1-1-.4-2.2-.7-3.5-7.5.7-15.3,1.3-21.2,1.8l-.5-7.2c2.9-.1,6.3-.3,10.1-.6v-4.7h-8.1v-16.9h8.1v-2.8h-8v-6.4h23.2v6.4h-8.2v2.8h8.6v16.9h-.8ZM235.7,195.2v-4.8h-2v4.8h2ZM242.7,190.5v4.8h2.1v-4.8h-2.1ZM245.2,205.4c-.4-1-.8-1.9-1.2-2.8l4.3-1.3h-5.7v4.3l2.5-.2Z"/>
          <path class="cls-15" d="M278.3,203v4.6h-7.4v-38.8h18.1v34.2h-10.8ZM278.3,176.6v18.5h3.4v-18.5h-3.4ZM311.4,193.1c2.8,5.5,7.1,10.9,11.6,14.2-2,1.6-4.6,4.6-6,6.8-2.7-2.5-5.2-5.8-7.3-9.5v12.6h-8.2v-13.4c-2.9,4.1-6.3,7.7-10.2,10.1-1.2-1.9-3.7-4.9-5.5-6.4,5.9-3,10.8-8.3,13.9-14.3h-9.4v-7.7h11.2v-5.5h-9.6v-7.7h9.6v-7.4h8.2v7.4h11.1v7.7h-11.1v5.5h12.6v7.7h-10.9Z"/>
        </g>
        <g>
          <line class="cls-1" x1="96" y1="410.5" x2="246" y2="410.5"/>
          <g>
            <path class="cls-3" d="M207.9,323h-71.9c-2.2,0-4.5.4-4.5,2.6l.4,65.3v11.8c0,3.5,3.1,6.6,6.5,7.3,6.5,1.3,58.9,1.3,65.4,0,3.5-.7,5.1-3.7,5.1-7.3v-11.8l1.9-65.3c0-2.2-.8-2.6-3-2.6Z"/>
            <path class="cls-10" d="M134.3,394.2s10.9,3.9,36.7,3.9c25.9,0,35-3.9,35-3.9"/>
            <path class="cls-2" d="M134.9,326.7s1.6,43.9,2.6,52.3,4.2,13.7,9.5,15.3c4.2,1.3,19.5,2,24,2,4.6,0,19.9-.8,24-2,5.3-1.6,8.5-6.9,9.5-15.3,1.1-8.5,2.6-52.3,2.6-52.3"/>
            <path class="cls-14" d="M139.7,373.1c1,7.9,3.9,15.6,8.9,17.1,3.9,1.2,18.2,1.7,22.5,1.7,4.3,0,18.6-.8,22.5-2s7.9-8.9,8.9-16.8h-62.7Z"/>
            <path class="cls-10" d="M205.1,397.3c-.7,3.3-3.2,6.6-11.9,9.4"/>
            <path class="cls-10" d="M135.4,397.3c.7,3.3,3.2,6.6,11.9,9.4"/>
            <line class="cls-8" x1="204.5" y1="327.6" x2="202.4" y2="365.4"/>
            <path class="cls-6" d="M140,398.2s9.2,2.3,30.9,2.3c21.8,0,29.5-2.3,29.5-2.3"/>
          </g>
          <g>
            <path d="M142.2,427.2v2h11.1v2.8h-23.7c0,8.7,0,9.7-.1,11.6-.2,4.3-.7,8.7-2.5,12.6-1-.9-2-1.5-3.1-2,2.1-4.2,2.3-9,2.3-14.3,0-1.2,0-2.6,0-10.7h11.8v-2h4.1ZM153.6,440.5v2.2h-10.2v1h8.2v8.7h-3.2c2.1.8,2.8,1,5.7,1.6-.7.8-1.3,1.8-1.8,2.9-4.6-1.3-5.6-1.7-8.2-3l1.1-1.5h-7.1l1.3,1.5c-3.3,1.5-5.5,2.3-8.3,3.1-.4-1-1.1-2-1.8-2.8,2-.4,3.8-1,5.7-1.8h-3v-8.7h7.7v-1h-9.5v-2.2h23.3ZM139,432.7v1.3h4.9v-1.3h3.6v1.3h5.1v2.3h-5.1v3.3h-12v-3.3h-4.7v-2.3h4.7v-1.3h3.6ZM135.6,445.7v1.2h4.1v-1.2h-4.1ZM135.6,448.9v1.4h4.1v-1.4h-4.1ZM139,436.3v1.2h4.9v-1.2h-4.9ZM143.3,445.7v1.2h4.4v-1.2h-4.4ZM143.3,448.9v1.4h4.4v-1.4h-4.4Z"/>
            <path d="M182.4,430.5v23.8h-4.2v-1.9h-14.7v1.9h-4.1v-23.9h23ZM163.4,434.3v14.5h14.7v-14.5h-14.7Z"/>
            <path d="M211.6,437.6c2.4,3.4,4.1,5.3,6.5,7.2-1,.6-2.1,1.7-3,2.7-3-2.8-4.2-4.4-6.2-7.6v16.2h-3.8v-14.3c-1.7,2.7-3.4,4.7-5.7,7.1-.8-1.2-1.5-2.3-2.4-3.2l.6-.6c-.6-.6-1.2-1.2-1.8-1.7v12.8h-3.6v-11.2c-.8,1.7-1.6,3.3-3.1,5.3-.4-1.4-1-2.8-1.8-4.1,1.9-2.5,2.9-4.4,4.9-9.8h-4v-3.6h4v-5.3h3.6v5.3h2.7v3.6h-2.7v1.6c1.1,1.5,2.4,2.7,3.7,3.9-.4.7-.8,1.6-1.2,2.4,1.6-1.6,4.6-4.7,7.9-12.2h-8.1v-3.5h18.5v3.5h-6.3c-.4.9-.8,1.9-1.4,3v4.4l2.8-2.1Z"/>
          </g>
          <g>
            <g>
              <path class="cls-12" d="M135.5,312.3c-2.7-10.1-5.9-15.7-9.1-19.3"/>
              <polygon class="cls-16" points="132.7 288.9 118 286.3 123.1 300.3 132.7 288.9"/>
            </g>
            <g>
              <path class="cls-12" d="M159.5,312.3c-1.3-10.4-3.4-17.1-5.7-21.7"/>
              <polygon class="cls-16" points="160.8 288 147 282.3 148.9 297.1 160.8 288"/>
            </g>
            <g>
              <path class="cls-12" d="M181.9,312.3c1.3-10.4,3.4-17.1,5.7-21.7"/>
              <polygon class="cls-16" points="192.5 297.1 194.4 282.3 180.6 288 192.5 297.1"/>
            </g>
            <g>
              <path class="cls-12" d="M206.5,312.3c2.7-10.1,5.9-15.7,9.1-19.3"/>
              <polygon class="cls-16" points="218.9 300.3 224 286.3 209.3 288.9 218.9 300.3"/>
            </g>
          </g>
          <g>
            <path class="cls-16" d="M90.7,479.8v7.2h-.4v-1.7c-2,.3-3.9.6-5.4.8v-.5c.4,0,.9-.1,1.5-.2v-5.6h-1.4v-.4h13v.4h-7.3ZM87.2,478.3h-.4v-4.4h9.6v4.4h-.4v-4h-8.7v4ZM90.3,479.8h-3.5v1.5h3.5v-1.5ZM90.3,481.7h-3.5v1.5h3.5v-1.5ZM86.8,485.3c1.1-.1,2.3-.3,3.5-.5v-1.3h-3.5v1.7ZM94.9,476h-6.8v-.4h6.8v.4ZM94.9,477.6h-6.8v-.4h6.8v.4ZM97.5,481.2c-.5,1.4-1.4,2.6-2.5,3.5.9.8,2,1.4,3.3,1.7,0,0-.2.3-.3.4-1.3-.4-2.4-1-3.3-1.8-1.1.8-2.3,1.4-3.5,1.8,0-.1-.2-.3-.3-.4,1.2-.3,2.4-.9,3.5-1.7-.9-.9-1.6-2-2.1-3.2h-.9v-.4h5.8s.3.1.3.1ZM92.7,481.6c.5,1.1,1.1,2.1,2,2.9.9-.8,1.7-1.8,2.2-2.9h-4.2Z"/>
            <path class="cls-16" d="M113.1,479.3v.4h-13.2v-.4h4.9v-3.4h-4v-.4h7.8c.4-.5.9-1.4,1.2-1.9l.4.2c-.3.6-.7,1.2-1.1,1.7h3.3v.4h-4.2v3.4h4.9ZM102,476.3c.6.7,1.2,1.7,1.4,2.4l-.4.2c-.2-.7-.8-1.7-1.4-2.4l.4-.2ZM102.1,480.9h8.9v6h-.4v-.5h-8v.6h-.4v-6ZM102.6,481.4v2h8v-2h-8ZM110.6,485.9v-2.1h-8v2.1h8ZM103.8,475.3c-.2-.5-.6-1.2-1.1-1.7l.4-.2c.5.5,1,1.1,1.2,1.6l-.4.2ZM105.2,479.3h2.6v-3.4h-2.6v3.4ZM109.4,478.7c.5-.7,1.2-1.8,1.6-2.5l.4.2c-.5.8-1.1,1.8-1.7,2.5l-.3-.2Z"/>
            <path class="cls-16" d="M117.9,480.8c-.3,1.3-.8,2.9-1.3,3.9.4.1.8.5,1.5.9,1.1.7,2.4.8,4.2.8s4.4-.1,6-.2c0,.1-.1.3-.1.5-1,0-4.1.1-5.9.1s-3.3-.2-4.5-.9c-.6-.4-1.2-.9-1.5-.9s-.8.9-1.3,1.9l-.3-.3c.5-.9,1-1.8,1.5-2,.5-.9,1-2.4,1.2-3.6h-2c.5-.9,1.1-2.3,1.5-3.5h-2v-.4h2.7c-.5,1.1-1,2.5-1.5,3.5h1.6s.3.1.3.1ZM116.3,476.1c-.2-.6-.5-1.6-.7-2.4h.4c.2.7.6,1.6.7,2.2h-.4ZM119.9,478.3c0,1.8-.3,4.1-1.3,5.8,0-.1-.2-.2-.3-.3,1.1-1.9,1.3-4.5,1.3-6.3v-2.5c2.7-.1,5.9-.5,7.6-.8l.5.3c-1.9.4-4.9.7-7.6.9v.7h7.4v2.2h-7.4ZM119.9,476.5v1.3h7v-1.3h-7ZM127.6,484.5c0,.3,0,.4-.3.5-.2,0-.6,0-1.2,0,0-.1-.1-.3-.2-.4.5,0,.9,0,1,0,.1,0,.2,0,.2-.2v-2.2h-1.9v2.3h-.4v-2.3h-1.9v2.3h-.4v-2.3h-1.8v2.9h-.4v-5.8h7.3v5.2ZM122.6,481.8v-2.1h-1.8v2.1h1.8ZM124.9,481.8v-2.1h-1.9v2.1h1.9ZM127.2,481.8v-2.1h-1.9v2.1h1.9Z"/>
            <path class="cls-16" d="M133.9,473.6c-.5,1.2-1,2.3-1.7,3.3v10.2h-.4v-9.5c-.6.9-1.3,1.8-2.1,2.5,0,0-.2-.3-.3-.4,1.6-1.5,3.2-3.9,4.1-6.3h.4ZM138.6,481.5c-.1,1.1-.4,2.2-1.1,3.2,1.6,1,3.7,1.6,5.9,1.9-.1.1-.2.3-.3.4-2.2-.3-4.3-1-5.9-2-.8.8-2,1.5-3.7,2.1,0,0-.2-.3-.2-.4,1.7-.5,2.9-1.2,3.6-1.9-1.1-.7-1.9-1.6-2.5-2.6l.4-.2c.6,1,1.4,1.8,2.4,2.5.7-.9,1-1.9,1.1-2.9h-3.9v-3.9h4v-1.9h-4.5v-.4h4.5v-1.8h.4v1.8h4.7v.4h-4.7v1.9h4.1v3.9h-4.2ZM138.2,481.1c0-.4,0-.8,0-1.2v-1.8h-3.6v3h3.5ZM138.6,478.1v1.8c0,.4,0,.8,0,1.2h3.7v-3h-3.7Z"/>
            <path class="cls-16" d="M157.1,486c0,.5-.2.7-.6.8s-1.2,0-2.7,0c0-.1-.1-.3-.2-.5,1.3,0,2.3,0,2.6,0s.4-.1.4-.4v-3.9h-4.9v4.7h-.4v-4.7h-4.5c-.2,1.7-.7,3.5-1.9,4.9,0-.1-.2-.3-.3-.3,1.7-1.9,1.8-4.6,1.8-6.7v-5.5h10.6v11.4ZM151.3,481.7v-3.2h-4.4v1.5c0,.5,0,1.1,0,1.7h4.4ZM146.9,475v3.1h4.4v-3.1h-4.4ZM151.7,475v3.1h4.9v-3.1h-4.9ZM156.6,481.7v-3.2h-4.9v3.2h4.9Z"/>
            <path class="cls-16" d="M163.4,473.6c-.3.8-.6,1.6-.8,2.3h2.7v9.5h-4.4v1.3h-.4v-10.8h1.6c.3-.7.6-1.7.8-2.4l.5.2ZM164.8,476.3h-3.9v3.9h3.9v-3.9ZM164.8,484.9v-4.3h-3.9v4.3h3.9ZM172.7,476.2c-.3,7-.5,9.3-1.1,10-.3.3-.5.4-1,.4-.5,0-1.3,0-2.1,0,0-.1,0-.3-.1-.4,1,0,1.9,0,2.2,0s.5,0,.6-.2c.5-.5.8-2.9,1-9.6h-4.5c-.4,1.1-.9,2.1-1.5,2.9,0,0-.3-.2-.4-.2,1.1-1.4,1.8-3.5,2.3-5.7h.5c-.2.9-.4,1.8-.7,2.6h4.8v.3ZM170,482.8c-.5-.9-1.6-2.4-2.5-3.5l.4-.2c.9,1.1,2,2.6,2.5,3.5l-.4.3Z"/>
            <path class="cls-16" d="M178.5,483.4h-2.8v1.1h-.4v-9.6h3.3v8.5ZM175.6,475.3v7.6h2.4v-7.6h-2.4ZM187.7,480.4s0,.2,0,.3c-.2,4.1-.4,5.5-.9,6-.2.2-.4.3-.8.3-.4,0-1.1,0-1.9,0,0-.1,0-.3-.1-.4.8,0,1.6,0,1.9,0s.4,0,.5-.2c.4-.4.6-1.8.8-5.6h-6.5c-.2.4-.5.7-.7,1.1v2.8c0,.5.1.6.6.6h4c.3,0,1,0,1.2,0,0,.1,0,.3,0,.4-.2,0-.7,0-1.3,0h-4c-.9,0-1.1-.3-1.1-1v-2.2c-.2.3-.4.5-.7.7,0,0-.3-.2-.4-.3,1-1,2-2.4,2.6-3.9h-1.3v-4.8h7.1v4.8h-5.2c-.2.5-.4.9-.7,1.3h6.7ZM180.3,476.4h6.2v-1.8h-6.2v1.8ZM180.3,478.6h6.2v-1.8h-6.2v1.8ZM183.9,481.2c-.1.5-.3.9-.6,1.3.9.6,1.9,1.4,2.4,1.9l-.3.3c-.5-.5-1.5-1.3-2.3-1.9-.5.8-1.2,1.5-2.1,1.9,0-.1-.2-.3-.3-.3,1.3-.8,2.3-2.1,2.6-3.3h.5Z"/>
            <path class="cls-16" d="M192.5,479.7c-.6-.5-1.8-1.2-2.7-1.7l.3-.3c1,.4,2.1,1.1,2.7,1.6l-.3.4ZM190.2,486.4c.8-1.2,2-3.3,2.9-4.9l.3.3c-.8,1.6-2,3.6-2.8,5l-.4-.3ZM190.7,473.6c1,.4,2.2,1.1,2.9,1.6l-.2.4c-.6-.5-1.9-1.2-2.9-1.7l.2-.3ZM198.5,480.6c-1,1.9-2.1,3.7-3.3,5.1l6.1-.7c-.5-.8-1.1-1.6-1.6-2.3l.3-.2c1.1,1.3,2.3,3.2,2.8,4.3l-.4.2c-.2-.5-.5-1-.9-1.6-6.2.8-6.7.8-7,1,0-.1,0-.3-.2-.5.2,0,.6-.5,1-1,.4-.5,1.7-2.4,2.7-4.3h-4v-.4h4.2v-3.3h-3.5v-.4h3.5v-2.9h.4v2.9h3.6v.4h-3.6v3.3h4.3v.4h-4.4Z"/>
            <path class="cls-16" d="M206.4,482.3c1.2-.6,1.8-1.3,1.8-2.6-.1,0-.2,0-.4,0-.5,0-.8-.2-.8-.8s.4-.8.8-.8c.6,0,.9.6.9,1.4,0,1.5-.9,2.6-2.2,3.2l-.2-.4Z"/>
            <path class="cls-16" d="M216.5,473.6c-.5,1.2-1,2.3-1.7,3.3v10h-.4v-9.3c-.6.9-1.3,1.8-2,2.5,0,0-.2-.3-.3-.4,1.6-1.5,3.1-3.9,4-6.3h.4ZM225.9,485.8v.4h-9.9v-.4h9.9ZM224.4,483.4h-7v-8.8h7v8.8ZM224,475.1h-6.1v3.7h6.1v-3.7ZM224,479.2h-6.1v3.8h6.1v-3.8Z"/>
            <path class="cls-16" d="M234.7,477.4c2.2,1.1,4.7,2.7,6,3.7l-.2.4c-1.3-1.1-4-2.8-6.2-3.9v3.1h-.4v-3.2c-1.5,1.6-4.1,3.2-6.1,3.9,0-.1-.2-.3-.3-.4,2-.7,4.5-2.1,6-3.7h-5.8v-.4h6.3v-2.1c-1.7.2-3.4.3-5,.4,0-.1,0-.3-.1-.4,3.5-.2,7.8-.6,9.9-1.2l.4.3c-1.2.3-2.9.6-4.7.8v2.2h6.4v.4h-5.9ZM229.7,481.2h8.8v5.8h-.4v-.6h-7.9v.6h-.4v-5.8ZM230.1,481.6v1.9h7.9v-1.9h-7.9ZM238.1,485.9v-2h-7.9v2h7.9Z"/>
            <path class="cls-16" d="M243.2,483.4v1.1h-.4v-9.6h3.4v8.5h-2.9ZM243.2,475.3v7.6h2.5v-7.6h-2.5ZM251.8,480.3c.9,2.2,2.5,4.4,4,5.4-.1,0-.3.2-.3.3-1.5-1.2-3.1-3.5-4-5.8h0v6.7h-.4v-6.7c-1,2.4-2.8,4.7-4.5,5.8,0-.1-.2-.2-.3-.3,1.7-1,3.5-3.3,4.5-5.5h-3.6v-.4h4.1v-3.2h-3.4v-.4h3.4v-2.7h.4v2.7h3.5v.4h-3.5v3.2h4.2v.4h-3.8Z"/>
            <path class="cls-16" d="M88,504.2v2.8h-.4v-2.8h-2.7v-.4h2.7v-1.4h-2.2v-5.2h2.2v-1.4h-2.6v-.4h2.6v-1.8h.4v1.8h2.6v.4h-2.6v1.4h2.3v5.2h-2.3v1.4h2.7v.4h-2.7ZM85.8,499.5h1.8v-1.9h-1.8v1.9ZM87.5,501.9v-2h-1.8v2h1.8ZM89.8,497.5h-1.8v1.9h1.8v-1.9ZM89.8,499.9h-1.8v2h1.8v-2ZM96.3,499.6c-.4,1.4-.9,2.6-1.6,3.7,1.1,1.4,2.4,2.6,3.8,3.2-.1,0-.3.2-.3.4-1.4-.7-2.7-1.8-3.7-3.2-1,1.3-2.2,2.4-3.8,3.3,0,0-.2-.2-.3-.3,1.6-.9,2.9-2,3.9-3.3-.8-1.1-1.4-2.3-1.8-3.6h.4c.4,1.1.9,2.2,1.6,3.3.6-1,1.1-2.2,1.4-3.4h.5ZM93.3,497.1c-.6,1.1-1.4,2.4-2.2,3.3,0,0-.3-.2-.4-.3.8-.8,1.6-2,2.1-3.1h.5ZM98.1,496.2h-7.2v-.4h7.2v.4ZM94.5,495.4c-.2-.5-.7-1.2-1-1.8l.3-.2c.4.6.9,1.3,1.1,1.8l-.4.2ZM95.9,496.9c.8,1,1.8,2.3,2.3,3l-.3.3c-.5-.8-1.5-2.1-2.3-3.1l.3-.2Z"/>
            <path class="cls-16" d="M112.2,501.3s0,.2,0,.3c-.3,3.5-.5,4.7-.9,5.2-.2.2-.4.3-.8.3-.4,0-1.1,0-1.8,0,0-.1,0-.3-.1-.4.8,0,1.6,0,1.9,0s.4,0,.5-.1c.3-.3.6-1.5.8-4.7h-2.4c-.8,2.2-2.1,4.1-3.6,5.3,0,0-.3-.2-.4-.3,1.5-1.2,2.7-3,3.5-5h-2.7c-1.1,2-2.8,3.8-4.6,5,0,0-.3-.3-.4-.3,1.7-1.1,3.4-2.8,4.5-4.7h-2.9c-.8.8-1.7,1.6-2.5,2.1,0,0-.3-.2-.4-.3,1.6-1,3.1-2.4,4.1-3.9h-2v-5.4h9.4v5.4h-6.9c-.4.6-.8,1.1-1.3,1.7h9ZM102.4,496.7h8.5v-2h-8.5v2ZM102.4,499.2h8.5v-2.1h-8.5v2.1Z"/>
            <path class="cls-16" d="M120.1,503.1s0,.2,0,.3c-.2,2.1-.4,3-.8,3.3-.2.2-.4.2-.8.2-.4,0-1.2,0-2,0,0-.1,0-.3-.2-.4.9,0,1.8,0,2.1,0s.4,0,.5-.1c.3-.2.5-1,.6-2.8h-3.8c.2-.8.3-2,.5-3h3.3v-2.1h-2.8v-.2c-.7.4-1.3.7-2,.9,0-.1-.2-.3-.3-.4,1.1-.3,2.3-.9,3.4-1.7-.5-.5-1.3-1.2-2-1.7l.3-.3c.7.5,1.6,1.2,2,1.7.8-.6,1.5-1.4,2-2.2h-4v-.4h4.3s.3.1.3.1c-.7,1.5-2,2.8-3.5,3.7h2.7v3h-3.4c0,.7-.2,1.5-.3,2.1h3.7ZM127.2,500.9c.2,0,.5,0,.7,0,0,.1,0,.3,0,.4-.1,0-.4,0-.7,0h-1.6c-.6,0-.7-.2-.7-.8v-2.1h-2.7v.9c0,.8-.3,1.8-1.6,2.5,0-.1-.2-.2-.3-.3,1.3-.6,1.5-1.5,1.5-2.2v-1.3h3.3s.3,0,.3,0v2.5c0,.3,0,.4.3.4h1.5ZM126.6,502.4c-.5,1.1-1.3,2-2.2,2.7.9.6,1.7,1.2,2.3,1.6l-.2.3c-.6-.4-1.5-1-2.4-1.7-1.1.8-2.3,1.3-3.5,1.6,0-.1-.1-.3-.3-.4,1.2-.3,2.4-.8,3.4-1.5-.9-.6-1.8-1.1-2.6-1.6l.2-.2c.8.5,1.8,1.1,2.7,1.6.8-.6,1.5-1.3,2-2.2h-5.1v-.4h5.5s.3.1.3.1ZM127.8,495.3c-.7.7-1.7,1.4-2.5,1.9.9.6,1.9,1,3,1.3-.1.1-.2.3-.3.4-2.8-.8-5.3-2.8-6.5-5.3l.4-.2c.4.8.9,1.5,1.5,2.2.8-.6,1.8-1.4,2.4-2l.4.3c-.7.7-1.7,1.5-2.5,2.1.4.4.9.8,1.4,1.1.8-.5,1.8-1.4,2.4-2l.4.3Z"/>
            <path class="cls-16" d="M132.3,501v5.3c0,.4-.1.6-.4.6-.3,0-.8,0-1.7,0,0,0-.1-.3-.2-.4.8,0,1.4,0,1.6,0,.2,0,.3,0,.3-.3v-5.1c-.8.3-1.5.6-2.2.8l-.2-.4c.6-.2,1.5-.5,2.4-.8v-3.5h-2.2v-.5h2.2v-3.2h.5v3.2h1.9v.5h-1.9v3.4l1.8-.6v.5c0,0-1.8.7-1.8.7ZM143.2,504.7h-4.3v2.3h-.5v-2.3h-4.4v-.5h4.4v-1.4h-3.2v-4.4h3.2v-1.4h-3.4v-.4h3.4v-1.3h.5v1.3h3.7v.4h-3.7v1.4h3.3v4.4h-3.3v1.4h4.3v.5ZM135.1,496.2h-.4v-2h8.3v2h-.4v-1.6h-7.4v1.6ZM135.7,500.4h2.8v-1.5h-2.8v1.5ZM138.4,502.4v-1.6h-2.8v1.6h2.8ZM138.9,498.8v1.5h2.9v-1.5h-2.9ZM141.8,500.8h-2.9v1.6h2.9v-1.6Z"/>
            <path class="cls-16" d="M147.8,498.1c1.2,0,2.1,1,2.1,2.1s-1,2.1-2.1,2.1-2.1-1-2.1-2.1,1-2.1,2.1-2.1ZM147.8,501.9c.9,0,1.7-.8,1.7-1.7s-.8-1.7-1.7-1.7-1.7.8-1.7,1.7.8,1.7,1.7,1.7Z"/>
          </g>
        </g>
        <g>
          <line class="cls-1" x1="554" y1="410.5" x2="704" y2="410.5"/>
          <g>
            <path class="cls-7" d="M638.1,402.1c-6.4-3-7.1-7.8-7.1-13.8v-26.5c0-7.3,6.7-8.9,11.6-11.3,4.9-2.4,16.2-11.1,16.2-28.1s-8-63.5-8-63.5h-42.1s-8.3,46.4-8.3,63.5,10.4,25.9,15.2,28.3c4.9,2.4,10.3,3.8,10.3,11.1v26.5c0,6,.6,10.8-5.9,13.8-6.4,3-20.9,5.3-20.9,7.8h59.1c0-2.5-13.8-4.9-20.2-7.8Z"/>
            <path class="cls-2" d="M613.6,346.2s6.5,4.1,15.4,4.1c8.9,0,15.4-4.1,15.4-4.1"/>
            <path class="cls-14" d="M604.8,327s2.4,20.1,24.2,20.1,24.2-20.1,24.2-20.1h-48.5Z"/>
            <path class="cls-2" d="M622.6,403.3s2.7.9,6.4.9,6.4-.9,6.4-.9"/>
            <path class="cls-5" d="M618.4,405.1s4.4,1.3,10.7,1.3,10.7-1.3,10.7-1.3"/>
            <path class="cls-8" d="M646.6,263.7s5.7,41.4,6,50.2"/>
          </g>
          <g>
            <path d="M587.1,454v-23.6h5v23.6h-5Z"/>
            <path d="M608.9,435.5c-.5-1.2-1.6-2.4-3.9-2.4s-2.2.3-2.9.8c-.6.4-.9,1.1-.9,1.8s.6,2,1.7,2.6c1.1.6,2,1,4.5,1.9,2.3.9,3.7,1.5,4.8,2.4,1.2,1,2.2,2.5,2.2,4.6s-.7,3.6-2.3,4.9c-1.5,1.2-3.9,2.3-7.3,2.3-5.7,0-8.4-2.4-9.2-5.6l4.9-.4c.6,1.5,2,2.8,4.4,2.8s2.7-.6,3.5-1.2c.7-.5,1-1.3,1-2.2,0-1.2-.5-2-1.4-2.5-.8-.5-1.9-1-4.3-2-2.5-1-3.9-1.7-5.1-2.6-1.2-.9-2.4-2.4-2.4-4.7s.7-3.2,2.1-4.4c1.5-1.1,3.7-1.9,6.8-1.9,4.9,0,7.7,2.3,8.4,5.4l-4.8.2Z"/>
            <path d="M617.2,442.2c0-8.4,4.6-12.2,11.2-12.2s11.3,3.8,11.3,12.3-4.6,12.3-11.3,12.3-11.2-3.8-11.2-12.3h0ZM628.4,433.1c-3.2,0-6.2,2.3-6.2,9.1s3,9,6.2,9,6.2-2.3,6.2-9-3-9.1-6.2-9.1h0Z"/>
            <path d="M665.9,437.6c2.4,3.4,4.1,5.3,6.5,7.2-1,.6-2.1,1.7-3,2.7-3-2.8-4.2-4.4-6.2-7.6v16.2h-3.8v-14.3c-1.7,2.7-3.4,4.7-5.7,7.1-.8-1.2-1.5-2.3-2.4-3.2l.6-.6c-.6-.6-1.2-1.2-1.8-1.7v12.8h-3.6v-11.2c-.8,1.7-1.6,3.3-3.1,5.3-.4-1.4-1-2.8-1.8-4.1,1.9-2.5,2.9-4.4,4.9-9.8h-4v-3.6h4v-5.3h3.6v5.3h2.7v3.6h-2.7v1.6c1.1,1.5,2.4,2.7,3.7,3.9-.4.7-.8,1.6-1.2,2.4,1.6-1.6,4.6-4.7,7.9-12.2h-8.1v-3.5h18.5v3.5h-6.3c-.4.9-.8,1.9-1.4,3v4.4l2.8-2.1Z"/>
          </g>
          <g>
            <g>
              <line class="cls-9" x1="607.9" y1="249.4" x2="611.6" y2="235.4"/>
              <polygon class="cls-16" points="616.1 238.1 613.5 228.4 606.5 235.5 616.1 238.1"/>
            </g>
            <g>
              <line class="cls-9" x1="650.1" y1="249.4" x2="646.4" y2="235.4"/>
              <polygon class="cls-16" points="651.5 235.5 644.5 228.4 641.9 238.1 651.5 235.5"/>
            </g>
            <g>
              <line class="cls-9" x1="629" y1="252" x2="629" y2="238"/>
              <polygon class="cls-16" points="633.9 240 628.9 231.4 623.9 240 633.9 240"/>
            </g>
          </g>
          <g>
            <path class="cls-16" d="M546.5,477.9h3.1v.4h-3.1v.5c.5.5,2.3,2.7,2.7,3.3l-.3.4c-.4-.6-1.7-2.2-2.4-3v7.5h-.4v-7.8c-.8,2-2.2,4.1-3.3,5.3,0-.1-.2-.3-.3-.4,1.2-1.2,2.7-3.6,3.5-5.8h-3.1v-.4h3.2v-3.1c-.9.2-1.9.3-2.8.4,0-.1,0-.3-.1-.4,2-.3,4.6-.7,5.8-1.2l.3.3c-.7.3-1.7.5-2.8.8v3.1ZM555.3,474.9v11.4h-.4v-1.2h-4.3v1.3h-.4v-11.5h5.2ZM554.9,484.6v-9.3h-4.3v9.3h4.3Z"/>
            <path class="cls-16" d="M560,475.6c-.5.9-1.3,1.9-2,2.4,0-.1-.2-.3-.3-.4.7-.5,1.5-1.4,2-2.4h-1.7v-.4h2v-1.3h.4v1.3h1.7v.4h-1.7v.4c.4.3,1.4,1.1,1.7,1.3l-.3.3c-.2-.3-.9-.8-1.3-1.2v2.4h-.4v-2.8ZM570.3,479.2h-11.6v1.7h-.4v-2.2h12.5v2.2h-.4v-1.7ZM559.8,486.3l5.2-.7c0,.1,0,.3,0,.4-5.2.7-5.6.8-5.9.9,0-.1-.1-.3-.2-.5.2,0,.5,0,.5-.6v-2.2h.4v.7h5v.4h-5v1.5ZM559.7,480.3v2.7h3c-.2-.2-.5-.5-.8-.8l.3-.2c.3.2.6.5.8.8l-.2.2h2.2v-2.7h.4v3.2h-6.1v-3.2h.4ZM560.2,480.8c.3.2.7.5.9.6l-.3.3c-.2-.2-.6-.5-.9-.7l.3-.2ZM560.8,480.1c.5.3,1,.6,1.6.9.5-.4,1-.8,1.3-1.2h.4c-.4.6-.9,1-1.4,1.5.6.4,1.2.9,1.6,1.2l-.3.3c-.4-.4-1-.8-1.7-1.3-.6.5-1.3.9-1.9,1.3,0,0-.2-.2-.3-.3.6-.3,1.3-.7,1.9-1.2-.5-.3-1-.6-1.5-.9l.3-.3ZM562.4,480.4c-.2-.2-.6-.5-.9-.7l.3-.2c.3.2.7.5.9.7l-.3.3ZM563.1,474.7c-.2.3-.4.6-.6.9,0,0-.3-.2-.4-.3.5-.6.8-1.2,1-1.8h.5c0,.3-.2.5-.3.8h2.9v.4h-1.6v1.1h2.1v.4h-2.1v1.6h1.3v-1.2h.4v1.7h-3.9v-1.7h.4v1.2h1.3v-1.6h-2.3v-.4h2.3v-1.1h-1.1ZM564.5,481.8c-.2-.2-.6-.6-.9-.8l.3-.2c.3.2.7.5.9.7l-.2.3ZM571,483.5c-.9,1.6-2.9,2.9-5.2,3.5,0-.1-.2-.3-.3-.4,2.3-.6,4.3-1.7,5.1-3.3l.4.2ZM569.5,479.8c-.8.9-2.2,1.6-3.5,2.1,0-.1-.2-.2-.3-.3,1.2-.4,2.6-1.1,3.4-1.9l.4.2ZM570,481.7c-.9,1.1-2.4,2-3.9,2.6,0-.1-.2-.3-.3-.3,1.5-.5,3-1.4,3.8-2.4l.4.2ZM569,475.2v.3c.5.3,1.7,1.4,2,1.7l-.3.3c-.3-.3-1.1-1.1-1.7-1.6v2.5h-.4v-2.9c-.4.9-1.1,1.9-1.7,2.4,0-.1-.2-.3-.3-.3.7-.5,1.4-1.4,1.8-2.3h-1.6v-.4h1.9v-1.3h.4v1.3h2.2v.4h-2.2Z"/>
            <path class="cls-16" d="M580.1,473.5c0,.2-.2.3-.3.5,1.5,1.8,4.3,3.8,6.6,4.6-.1.1-.3.3-.3.4-2.2-.9-5-2.7-6.6-4.6-1.6,2-4,3.7-6.5,4.6,0-.1-.2-.3-.3-.4,2.8-1,5.6-3,7.1-5.2l.4.2ZM579.7,486h6.3v.4h-12.9v-.4h6.2v-4.5h-5.5v-.4h5.5v-2.5h-3.5v-.4h7.5v.4h-3.6v2.5h5.7v.4h-5.7v4.5ZM575.6,482.3c.6.9,1.2,2.1,1.5,2.9l-.4.2c-.2-.8-.9-2-1.5-2.9h.4ZM581.5,485.2c.6-.8,1.4-2.1,1.8-3l.4.2c-.5,1-1.3,2.2-1.9,3l-.3-.2Z"/>
            <path class="cls-16" d="M595.2,477.4c2.2,1.1,4.7,2.7,6,3.7l-.2.4c-1.3-1.1-4-2.8-6.2-3.9v3.1h-.4v-3.2c-1.5,1.6-4.1,3.2-6.1,3.9,0-.1-.2-.3-.3-.4,2-.7,4.5-2.1,6-3.7h-5.8v-.4h6.3v-2.1c-1.7.2-3.4.3-5,.4,0-.1,0-.3-.1-.4,3.5-.2,7.8-.6,9.9-1.2l.4.3c-1.2.3-2.9.6-4.7.8v2.2h6.4v.4h-5.9ZM590.2,481.2h8.8v5.8h-.4v-.6h-7.9v.6h-.4v-5.8ZM590.6,481.6v1.9h7.9v-1.9h-7.9ZM598.6,485.9v-2h-7.9v2h7.9Z"/>
            <path class="cls-16" d="M607.6,480.8c-.3-.5-1.3-1.8-1.9-2.6v8.7h-.4v-8.6c-.6,2-1.5,4.2-2.4,5.3,0-.1-.2-.3-.3-.4,1-1.4,2.2-4.1,2.7-6.5h-2.4v-.4h2.5v-3h.4v3h2.1v.4h-2.1v.7c.5.5,2,2.4,2.3,2.8l-.4.4ZM612.7,475c-.3.7-.5,1.4-.9,2.1v9.8h-.4v-9c-1,1.7-2.2,3.2-3.6,4.3,0,0-.2-.2-.3-.3,2.1-1.6,3.8-4,4.8-6.9h-4.4v-.4h8v.4h-3.2ZM612.6,477.9c1.2,1.2,2.6,2.9,3.3,3.9l-.3.3c-.7-1-2.1-2.8-3.3-4l.3-.2Z"/>
            <path class="cls-16" d="M624.2,475.8h.3c-.9,5.9-3.4,9.3-6.4,11.1,0-.1-.2-.3-.3-.3,1.8-1,3.3-2.5,4.5-4.8-.6-.8-1.8-2-3-2.8-.3.6-.7,1.1-1.1,1.6,0,0-.3-.2-.4-.3,1.5-1.6,2.5-4.1,3.1-6.8h.4c-.2.9-.4,1.7-.7,2.4h3.5ZM620.5,476.3c-.3.8-.6,1.6-1,2.3,1.1.8,2.3,1.9,3,2.7.7-1.4,1.2-3.1,1.5-5h-3.5ZM627.1,478c1.5,1,3.3,2.4,4.2,3.3l-.3.3c-.8-.9-2.6-2.3-4-3.3v8.5h-.4v-13.5h.4v4.7l.2-.2Z"/>
            <path class="cls-16" d="M646.3,486v.4h-13.6v-.4h6.7v-2.6h-5.1v-.4h5.1v-2.2h.4v2.2h4.8v.4h-4.8v2.6h6.4ZM635.7,477.6c-.1,1.3-.6,2.8-2.1,3.9,0-.1-.2-.3-.3-.3,1.5-1,1.9-2.4,2-3.6h-2.1v-.4h2.1v-2.5h-1.6v-.4h6.7v.4h-1.7v2.5h2v.4h-2v3.5h-.4v-3.5h-2.5ZM635.7,476.8v.3h2.5v-2.5h-2.5v2.2ZM642.3,479.3h-.4v-5h.4v5ZM645.2,480.5c0,.4-.1.6-.4.7-.3,0-1,0-2.1,0,0-.1-.1-.3-.2-.5,1,0,1.8,0,2,0,.3,0,.3,0,.3-.3v-7h.4v7Z"/>
            <path class="cls-16" d="M650.1,478.1c-.4,1-1.3,2.2-2.1,2.7,0-.1-.2-.3-.3-.3.8-.5,1.7-1.6,2.1-2.5h.4ZM651.2,482.7c0,.3,0,.6-.1.9,1,.7,2.1,1.6,2.7,2.2l-.3.3c-.6-.5-1.7-1.4-2.6-2.1-.3,1-1.2,2-3,2.8,0-.1-.2-.3-.3-.4,2.5-1.1,3-2.5,3-3.8h-3v-.4h3v-1.5h.4v1.5h0c0,0,3.1,0,3.1,0v.4h-3.1ZM650.8,477.4h-3v-.4h3v-3.4h.4v3.4h2.8v.4h-2.8v3h-.4v-3ZM649.3,476c-.2-.5-.6-1.2-1-1.8l.4-.2c.4.5.8,1.3,1,1.7l-.4.2ZM653.9,480.3c-.3-.4-1.6-1.7-2-2l.3-.2c.4.3,1.7,1.6,2,1.9l-.3.4ZM652.5,480.7c.4.4.8.9,1,1.3l-.3.2c-.2-.4-.6-.9-1-1.3h.3ZM653.8,474.2c-.3.6-.7,1.3-1.1,1.8l-.4-.2c.3-.5.8-1.3,1-1.8l.5.2ZM657.3,485c-.7.8-1.9,1.5-2.9,1.9,0-.1-.2-.3-.3-.3,1.1-.4,2.2-1.2,2.7-1.8l.5.2ZM656.9,476.6c.2-.5.3-1.3.5-1.9h-3v-.4h6.9v.4h-3.4c-.2.6-.3,1.3-.5,1.9h3.2v7.7h-5.4v-7.7h1.7ZM660.1,477h-4.6v2h4.6v-2ZM660.1,479.4h-4.6v2h4.6v-2ZM660.1,481.8h-4.6v2h4.6v-2ZM658.7,484.8c.9.5,2.1,1.3,2.6,1.9l-.4.3c-.6-.5-1.7-1.3-2.6-1.9l.4-.3Z"/>
            <path class="cls-16" d="M666.8,473.6c-.5,1.2-1,2.3-1.7,3.3v10h-.4v-9.3c-.6,1-1.3,1.8-2,2.5,0,0-.2-.3-.3-.4,1.6-1.5,3.1-3.9,4-6.3h.4ZM671.7,482.6c-1.9.7-3.9,1.5-5.4,2l-.2-.5c.5-.1,1-.3,1.6-.6v-9.3c0,0,.3,0,.3,0v9.2c1.2-.4,2.4-.8,3.6-1.2v.4ZM676.3,487c-.6-.9-1.8-2.5-2.8-3.7-1.1,1.7-2.8,2.9-5.4,3.8,0-.1-.2-.3-.3-.4,5.8-1.8,6.9-5.2,7.3-12.6h.5c-.2,4-.6,6.8-1.8,8.8,1.1,1.2,2.3,2.8,2.9,3.8l-.3.3ZM672.1,479.2c-.4-1-1.4-2.5-2.3-3.6l.4-.2c.9,1.1,1.9,2.6,2.3,3.5l-.4.3Z"/>
            <path class="cls-16" d="M682.7,482.3c1.2-.6,1.8-1.3,1.8-2.6-.1,0-.2,0-.4,0-.5,0-.8-.2-.8-.8s.4-.8.8-.8c.6,0,.9.6.9,1.4,0,1.5-.9,2.6-2.2,3.2l-.2-.4Z"/>
            <path class="cls-16" d="M696.1,473.6c-.5,1.2-1,2.3-1.7,3.3v10h-.4v-9.3c-.6.9-1.3,1.8-2,2.5,0,0-.2-.3-.3-.4,1.6-1.5,3.1-3.9,4-6.3h.4ZM705.5,485.8v.4h-9.9v-.4h9.9ZM704,483.4h-7v-8.8h7v8.8ZM703.6,475.1h-6.1v3.7h6.1v-3.7ZM703.6,479.2h-6.1v3.8h6.1v-3.8Z"/>
            <path class="cls-16" d="M543.7,495h.6v10.9h-.6v-10.9Z"/>
            <path class="cls-16" d="M546.6,504.5l.4-.4c.8.9,2,1.5,3.3,1.5s2.8-.9,2.8-2.3-.9-1.9-2-2.4l-1.7-.8c-.9-.4-2.2-1.1-2.2-2.7s1.3-2.6,3.1-2.6,2.3.6,3,1.3l-.3.4c-.6-.7-1.5-1.1-2.6-1.1s-2.5.8-2.5,2,1.1,1.9,1.9,2.2l1.7.8c1.2.6,2.3,1.2,2.3,2.9s-1.4,2.9-3.4,2.9-2.8-.7-3.6-1.7Z"/>
            <path class="cls-16" d="M555.3,500.4c0-3.4,1.8-5.6,4.4-5.6s4.4,2.2,4.4,5.6-1.8,5.7-4.4,5.7-4.4-2.2-4.4-5.7ZM563.6,500.4c0-3.1-1.5-5.1-3.8-5.1s-3.8,2-3.8,5.1,1.5,5.1,3.8,5.1,3.8-2,3.8-5.1Z"/>
            <path class="cls-16" d="M570.7,500.8c-.3-.5-1.3-1.8-1.9-2.6v8.7h-.4v-8.6c-.6,2-1.5,4.2-2.4,5.3,0-.1-.2-.3-.3-.4,1-1.4,2.2-4.1,2.7-6.5h-2.4v-.4h2.5v-3h.4v3h2.1v.4h-2.1v.7c.5.5,2,2.4,2.3,2.8l-.4.4ZM575.8,495c-.3.7-.5,1.4-.9,2.1v9.8h-.4v-9c-1,1.7-2.2,3.2-3.6,4.3,0,0-.2-.2-.3-.3,2.1-1.6,3.8-4,4.8-6.9h-4.4v-.4h8v.4h-3.2ZM575.7,497.9c1.2,1.2,2.6,2.9,3.3,3.9l-.3.3c-.7-1-2.1-2.8-3.3-4l.3-.2Z"/>
            <path class="cls-16" d="M594.4,506.2c0,.1-.2.3-.2.4h-3.9c-3.3,0-5.3-.6-6.5-3-.6,1.4-1.4,2.6-2.6,3.4,0,0-.2-.3-.3-.3,1.6-1.1,2.6-2.9,3.1-5.3h.5c-.1.6-.2,1.2-.4,1.7.7,1.8,1.8,2.6,3.5,2.9v-5.2h-6.5v-.4h13.2v.4h-6.3v2.2h5.3v.4h-5.3v2.7c.7.1,1.5.1,2.3.1h4.2ZM592.4,498.9h-9.6v-4.7h9.6v4.7ZM591.9,494.6h-8.7v1.7h8.7v-1.7ZM591.9,496.7h-8.7v1.7h8.7v-1.7Z"/>
            <path class="cls-16" d="M608.7,494.2v12.8h-.4v-.8h-11.3v.8h-.5v-12.8h12.2ZM608.3,505.8v-11.2h-11.3v11.2h11.3ZM602.7,502.9c-1.7.4-3.4.8-4.7,1.1l-.2-.4c1.2-.3,3-.6,4.8-1.1v.4ZM606.3,498.6c-.4,1.5-1,2.9-1.8,4,.5,1.1,1,1.9,1.8,2,.3,0,.4-.6.6-1.7.1,0,.3.2.4.2-.2,1.4-.4,2.1-1,1.9-.9-.1-1.5-.8-2-2-.7.9-1.5,1.6-2.4,2.2,0,0-.2-.3-.4-.3,1-.6,1.9-1.4,2.6-2.3-.5-1.3-.8-3-1-5h-5.1v-.4h5c0-.6-.1-1.3-.1-1.9h.4c0,.7,0,1.3.2,1.9h3.8v.4h-3.7c.2,1.7.5,3.3.9,4.5.7-1,1.2-2.2,1.5-3.6h.4ZM602,498.8v3h-3.3v-3h3.3ZM601.6,499.2h-2.4v2.1h2.4v-2.1ZM606.4,496.6c-.4-.4-1.2-.8-1.8-1.1l.3-.3c.7.3,1.4.7,1.8,1.1l-.3.3Z"/>
            <path class="cls-16" d="M615.3,494.3c-.5,1.2-1.1,2.6-1.7,3.9,1.3,1.3,1.6,2.4,1.6,3.4s-.2,1.3-.5,1.5c-.2.1-.4.2-.7.2-.3,0-.7,0-1,0,0-.1,0-.3-.2-.4.4,0,.8,0,1.1,0,.2,0,.4,0,.5-.1.3-.2.4-.7.4-1.2,0-.9-.4-2-1.7-3.3.6-1.3,1.2-2.6,1.6-3.7h-2.8v12.4h-.4v-12.9h3.6s.3.2.3.2ZM619.9,494.8c-.7,2.9-2.4,5-4.1,6.1,0-.1-.2-.3-.3-.3,1-.6,2-1.6,2.8-2.9-.4-.5-1-1-1.7-1.5-.4.6-.8,1.1-1.2,1.5,0,0-.3-.2-.4-.3,1.1-1,1.9-2.4,2.4-3.9h.5c-.1.5-.3.9-.5,1.2h2.2s.3,0,.3,0ZM617.6,498.3c-.9.1-1.7.2-2.4.3v-.5c.6,0,1.4-.2,2.4-.3v.4ZM618,503.4c-.6,1-1.5,2.1-2.2,2.8,0,0-.3-.2-.4-.3.8-.7,1.6-1.8,2.1-2.7l.4.2ZM620.2,502.3v4.7h-.4v-4.7h-3.8v-.4h8v.4h-3.8ZM617.2,495.1c-.1.2-.2.4-.3.6.6.5,1.3,1,1.7,1.5.3-.6.6-1.3.8-2.1h-2.1ZM617.5,499.7h4.9v.4h-4.9v-.4ZM620.6,494.9c.3.9.7,1.8,1.1,2.6.7-.8,1.4-1.8,1.8-2.8h-3v-.4h3.4s.3.2.3.2c-.5,1.2-1.4,2.5-2.2,3.4.7,1.2,1.5,2.2,2.4,2.8-.1,0-.2.2-.3.3-1.6-1.2-3-3.5-3.8-5.9h.4ZM622.1,503.3c.8.8,1.8,2,2.3,2.6l-.3.3c-.5-.7-1.5-1.8-2.3-2.7l.3-.2Z"/>
            <path class="cls-16" d="M627,503c-.2,1.3-.5,2.7-.9,3.6,0,0-.3-.1-.4-.2.4-1,.6-2.3.8-3.5h.5ZM630.5,502.1c0-.2-.1-.5-.2-.8-3.6.6-4,.6-4.3.8,0-.1,0-.4-.2-.5.2,0,.6-.5,1-1,.3-.3.9-1.2,1.6-2.2-2.1.2-2.4.3-2.6.4,0-.1-.1-.4-.2-.5.2,0,.5-.4.8-.8.3-.5,1.6-2.2,2.3-3.9l.5.2c-.8,1.6-1.8,3.2-2.7,4.4l2.2-.2c.4-.7.9-1.4,1.2-2.1l.5.2c-1.2,1.9-2.4,3.9-3.8,5.3l3.4-.5c-.2-.6-.4-1.2-.7-1.8h.4c.4.9.9,2.1,1.1,2.8h-.5ZM628.6,502.8c.2,1,.4,2.4.4,3.2h-.4c0-.8-.2-2.2-.4-3.2h.4ZM630.7,505.6c-.2-.8-.6-2-.9-3h.4c.4.8.8,2.1.9,2.9h-.4ZM638.4,506.3c.4,0,.5-.3.5-1.9.1,0,.3.2.4.2,0,1.7-.2,2.2-.9,2.2h-1.5c-.7,0-.9-.1-.9-.8v-6.1l-2,.2c-.1,3.9-.6,5.9-3.4,7,0-.1-.2-.3-.3-.3,2.7-1,3.2-2.8,3.3-6.6-1.5.2-1.8.3-2,.3,0-.1-.1-.4-.2-.5.2,0,.6-.5,1-1.2.3-.4,1-1.5,1.7-2.8h-2.7v-.4h3c.3-.6.7-1.3,1-2l.5.2c-.3.6-.6,1.2-.9,1.8h4.2v.4h-4.5c-.8,1.4-1.6,2.8-2.4,3.9l5.7-.6c-.4-.7-.9-1.5-1.3-2.1h.4c.8,1,1.7,2.5,2.2,3.4l-.4.2c-.2-.3-.4-.7-.6-1.1l-1.8.2v6.1c0,.3,0,.4.5.4h1.5Z"/>
            <path class="cls-16" d="M654.4,499.8v.5h-13.6v-.5h13.6Z"/>
            <path class="cls-16" d="M660.4,500.9c-.3-.5-1-1.7-1.5-2.4v8.5h-.4v-8.8c-.6,2.1-1.5,4.2-2.4,5.4,0-.1-.2-.3-.3-.3,1-1.3,2.1-4,2.6-6.3h-2.3v-.4h2.4v-3h.4v3h1.8v.4h-1.8v.9c.4.5,1.5,2.3,1.8,2.7l-.3.4ZM663,503.7c-.6,1-1.5,2-2.3,2.7,0,0-.3-.2-.4-.2.9-.7,1.7-1.6,2.3-2.5h.4ZM663.5,494.7h-2.7v-.4h8.3v.4h-2.8v1.4h2.5v3.4h-7.6v-3.4h2.3v-1.4ZM665,502.9v4.1h-.4v-4.1h-3.8v-.4h8.3v.4h-4.1ZM661.6,499h1.9v-2.5h-1.9v2.5ZM661.8,501v-.4h6.2v.4h-6.2ZM665.8,494.7h-1.9v1.4h1.9v-1.4ZM663.9,499h1.9v-2.5h-1.9v2.5ZM666.2,496.5v2.5h2.1v-2.5h-2.1ZM666.9,503.6c.9.8,1.8,1.9,2.2,2.6l-.4.3c-.4-.7-1.3-1.8-2.2-2.6l.3-.2Z"/>
            <path class="cls-16" d="M673.4,497.5c-.6-.3-1.7-.7-2.6-1l.2-.4c.9.2,2,.6,2.6.9l-.2.4ZM684.2,503.7h-6.4v3.3h-.4v-3.3h-6.4v-.4h6.4v-1.3h.4v1.3h6.4v.4ZM671.3,501.8c.8-.8,2-2,2.9-3.1l.3.3c-.9,1-1.9,2.3-2.8,3.2l-.3-.4ZM674.5,495.2c-.6-.4-1.6-.9-2.5-1.2l.2-.3c.9.3,1.9.8,2.5,1.1l-.2.4ZM675.6,496c-.4.6-.9,1-1.4,1.4,0,0-.3-.2-.4-.3,1.2-.9,2.3-2.3,3-3.8h.4c-.3.7-.6,1.3-1,1.8h3.3c-.2-.4-.5-1-.8-1.4h.4c.3.3.7.9.9,1.4h3.3v.4h-3.6v1.5h3.3v.4h-3.3v1.5h3.3v.4h-3.3v1.6h3.9v.4h-7.7v.7h-.4v-6.2ZM679.4,495.6h-3.4v1.5h3.4v-1.5ZM679.4,497.5h-3.4v1.5h3.4v-1.5ZM679.4,499.5h-3.4v1.6h3.4v-1.6Z"/>
            <path class="cls-16" d="M691.2,505c-.4-.6-1.7-2.3-2.4-3.1-.3,1.8-1,3.6-2.7,4.9,0-.1-.2-.3-.3-.3,2.2-1.7,2.6-4.2,2.7-6.4h-2.7v-.4h2.7c0-.4,0-.7,0-1v-2h-2.4v-.4h2.4v-2.5h.4v2.5h2.3v.4h-2.3v2c0,.3,0,.7,0,1h2.7v.4h-2.7c0,.4,0,.9-.1,1.4.6.7,2.2,2.7,2.6,3.2l-.3.4ZM698.5,506.3c.3,0,.4-.2.4-1.4.1,0,.3.2.4.2,0,1.3-.2,1.7-.8,1.7h-1.5c-.7,0-.9-.1-.9-.8v-3.8h-1.6c-.3,2.3-1.2,3.9-3.6,4.8,0-.1-.2-.3-.3-.3,2.4-.8,3.2-2.3,3.5-4.4h-1.7v-8h6.2v8h-2v3.8c0,.3,0,.3.5.3h1.5ZM692.8,496.6h5.3v-2.1h-5.3v2.1ZM692.8,499.2h5.3v-2.1h-5.3v2.1ZM692.8,501.7h5.3v-2.1h-5.3v2.1Z"/>
            <path class="cls-16" d="M705.3,500.7c-.3-.5-.9-1.7-1.4-2.4v8.7h-.4v-8.8c-.6,2.1-1.5,4.2-2.4,5.4,0-.1-.2-.3-.3-.3,1-1.3,2.1-4,2.6-6.3h-2.3v-.4h2.4v-3h.4v3h1.9v.4h-1.9v.8c.4.6,1.5,2.2,1.8,2.7l-.3.4ZM713.3,495.3c-.7,1.5-1.7,2.7-3,3.7,1.2,1,2.6,1.7,4.2,2.2-.1,0-.2.2-.3.4-1.5-.5-3-1.3-4.2-2.3-1.4,1.1-3.1,1.9-4.7,2.5,0-.1-.2-.3-.3-.4,1.6-.5,3.2-1.3,4.6-2.4-.9-.8-1.6-1.7-2.1-2.7-.5.8-1,1.5-1.5,2.1,0,0-.3-.2-.4-.3,1.2-1.1,2.2-2.8,2.8-4.6h.4c-.2.6-.4,1.2-.7,1.7h4.8s.3.2.3.2ZM706.9,501.7h6v5.3h-.4v-.7h-5.2v.7h-.4v-5.3ZM707.3,502.1v3.7h5.2v-3.7h-5.2ZM707.8,496c.5,1.1,1.2,2,2.2,2.8,1.1-.9,2.1-2,2.7-3.2h-4.7l-.2.3Z"/>
            <path class="cls-16" d="M717.5,502.3c1.2-.6,1.8-1.3,1.8-2.6-.1,0-.2,0-.4,0-.5,0-.8-.2-.8-.8s.4-.8.8-.8c.6,0,.9.6.9,1.4,0,1.5-.9,2.6-2.2,3.2l-.2-.4Z"/>
            <path class="cls-16" d="M547.9,519s0,.2,0,.3c-.2,5-.5,6.5-.9,7-.2.2-.4.3-.7.3-.3,0-.8,0-1.2,0,0-.1,0-.3-.1-.4.6,0,1.1,0,1.3,0,.2,0,.3,0,.4-.2.4-.4.6-2.1.9-6.6h-2.6c-.1,3.2-.6,5.8-1.9,7.4,0,0-.3-.2-.4-.3,1.7-2,1.9-5.7,2-10.1h-1.8v-.4h5.9v.4h-3.6c0,.9,0,1.7,0,2.5h3ZM546.1,515.8c-.3-.6-.9-1.5-1.4-2.2l.4-.2c.6.7,1.2,1.6,1.4,2.1l-.4.2ZM552.6,513.5c0,.2-.1.4-.2.6.9,1.8,2.5,3.7,4,4.5-.1.1-.3.3-.4.4-1.4-.8-2.9-2.7-3.8-4.4-.8,1.9-1.9,3.5-3.5,4.5,0-.1-.2-.3-.4-.4,1.8-1.1,3.1-3.2,3.8-5.4h.4ZM550.3,523.6c1.4.6,3.1,1.7,3.9,2.4l-.3.4c-.9-.8-2.5-1.8-4-2.5l.3-.3ZM551.1,519.2c.9.6,2.1,1.4,2.6,1.9l-.3.4c-.6-.5-1.7-1.4-2.6-2l.3-.3Z"/>
            <path class="cls-16" d="M571.3,523.4h-3.8v2.8c0,.4,0,.5-.4.6-.3,0-1,0-2.3,0,0-.1-.1-.3-.2-.4,1.1,0,1.9,0,2.2,0,.3,0,.3,0,.3-.3v-2.8h-9.3v-.4h9.3v-1.1h.4v1.1h3.8v.4ZM564.2,515.2h-6v-.4h6v-1.3h.4v1.3h5.9v.4h-5.9v1.2h5v3.9h-5v1.1c1.3,0,2.6,0,3.9,0-.6-.2-1.2-.5-1.7-.6l.2-.3c1.3.3,2.8,1.1,3.6,1.6l-.3.4c-.3-.2-.6-.4-1.1-.7-4,.1-8.2.2-11,.3v-.5c1.5,0,3.6,0,5.9,0v-1.1h-4.9v-3.9h4.9v-1.2ZM559.8,518.1h4.5v-1.3h-4.5v1.3ZM564.2,519.9v-1.3h-4.5v1.3h4.5ZM560.5,523.9c1,.5,2.1,1.3,2.7,1.9l-.3.4c-.6-.6-1.7-1.4-2.7-1.9l.3-.3ZM564.7,516.9v1.3h4.5v-1.3h-4.5ZM569.2,518.6h-4.5v1.3h4.5v-1.3Z"/>
            <path class="cls-16" d="M578.1,524.5c-1.1.8-3.3,1.5-4.9,1.9,0-.1-.2-.3-.3-.4,1.6-.3,3.7-1,4.8-1.7l.4.2ZM586,522.8v.4h-6.3v3.8h-.4v-3.8h-6.2v-.4h6.2v-1.6h-4.8v-.4h4.8v-1.5h-5.5v-.4h3.7c-.1-.5-.5-1.3-1-1.8h.4c.4.4.8,1.2,1,1.7h-.4c0,.1,7.9.1,7.9.1v.4h-5.7v1.5h4.9v.4h-4.9v1.6h6.3ZM585.9,516.8h-12.8v-.4h4.7v-2.9h.4v2.9h2.5v-2.9h.4v2.9h4.8v.4ZM575.9,516.2c-.2-.6-.8-1.6-1.4-2.4h.4c.6.6,1.2,1.5,1.4,2.2l-.4.2ZM581.2,524.2c1.6.5,3.7,1.2,4.8,1.7v.4c-1.2-.5-3.3-1.2-4.9-1.7l.2-.4ZM581.2,518.7c.3-.5.8-1.3,1-1.8l.4.2c-.3.6-.7,1.3-1.1,1.8h-.4ZM584.6,513.9c-.4.8-.9,1.8-1.4,2.4l-.4-.2c.5-.6,1-1.7,1.4-2.4l.4.2Z"/>
            <path class="cls-16" d="M587.8,516.1h5.2v.4h-5.2v-.4ZM592.5,526h-3.6v.8h-.4v-5h4v4.2ZM588.5,517.9h4v.4h-4v-.4ZM588.5,519.9h4v.4h-4v-.4ZM588.8,522.2v3.3h3.2v-3.3h-3.2ZM590.6,515.5c-.2-.5-.7-1.3-1.1-1.9l.3-.2c.5.6.9,1.4,1.2,1.9l-.4.3ZM601.4,521.3h-3.8v5.7h-.4v-5.7h-4v-.4h4v-6h-3.4v-.4h7.2v.4h-3.4v6h3.8v.4ZM594.7,515.9c.5,1.3.9,2.9,1,3.9l-.4.2c-.1-1.1-.5-2.7-1-3.9h.4ZM598.9,519.8c.4-1,.9-2.9,1.2-4l.4.2c-.4,1.3-.8,3-1.2,4h-.4Z"/>
            <path class="cls-16" d="M607.8,516.8c-.6-.6-1.5-1.5-2.3-2.1-.7,1.2-1.7,2.3-2.6,3.1,0,0-.2-.3-.3-.4,1.2-1,2.3-2.4,3-3.9h.4c-.1.3-.2.6-.3.8.9.7,1.8,1.5,2.4,2.2l-.3.4ZM608,525.2c-1.8.4-3.8.8-5.2,1.1v-.5c.6-.1,1.5-.3,2.4-.5v-5.3h-2.4v-.4h2.4v-2.1h-1.7v-.4h3.8v.4h-1.7v2.1h2v.4h-2v5.2l2.2-.5v.4ZM603.7,521.2c.3,1,.5,2.2.6,3.1h-.4c0-.7-.3-2-.6-3h.4ZM606.4,523.9c.2-.8.5-2.1.7-3h.5c-.2,1.1-.5,2.3-.7,3.1l-.4-.2ZM615.6,525.8h.6v.4h-8.7v-.4h1.1v-3.7h6.9v3.7ZM608.4,514h3.9v.4h-1.6v1.6h1.5v2.6h-1.5v1.5h1.8v.4h-4.1v-6.5ZM608.8,514.4v1.6h1.4v-1.6h-1.4ZM611.7,516.4h-2.9v1.7h2.9v-1.7ZM610.2,518.6h-1.4v1.5h1.4v-1.5ZM609.1,525.8h1.7v-3.3h-1.7v3.3ZM611.2,522.5v3.3h1.7v-3.3h-1.7ZM616.3,515.9v.4h-2.7c-.2.7-.4,1.4-.7,2,0,0-.3-.2-.5-.2.6-1.2,1-2.8,1.3-4.5h.5c-.1.9-.3,1.6-.4,2.3h2.6ZM616.2,519.9h-3.4v-.4h3.4v.4ZM613.4,522.5v3.3h1.8v-3.3h-1.8Z"/>
            <path class="cls-16" d="M622.2,524h-3.4v1.1h-.4v-10.6h3.9v9.5ZM618.8,514.9v4h3v-4h-3ZM621.8,523.5v-4.1h-3v4.1h3ZM627,515.9v2.5h3.6v.4h-1.5v2.1h2.1v.4h-2.1v4.8c0,.4-.1.6-.5.7-.4,0-1.1,0-2.4,0,0-.1,0-.3-.2-.4,1.1,0,2,0,2.2,0,.3,0,.3,0,.3-.3v-4.8h-6.1v-.4h6.1v-2.1h-5.4v-.4h3.3v-2.5h-4.2v-.4h4.2v-2h.4v2h4.2v.4h-4.2ZM624.2,522.2c.8.8,1.7,2,2.1,2.7l-.4.3c-.4-.8-1.2-1.9-2.1-2.8l.4-.2Z"/>
            <path class="cls-16" d="M636.9,513.6c-.5,1.2-1,2.3-1.7,3.3v10.2h-.4v-9.5c-.6.9-1.3,1.8-2.1,2.5,0,0-.2-.3-.3-.4,1.6-1.5,3.2-3.9,4.1-6.3h.4ZM641.6,521.5c-.1,1.1-.4,2.2-1.1,3.2,1.6,1,3.7,1.6,5.9,1.9-.1.1-.2.3-.3.4-2.2-.3-4.3-1-5.9-2-.8.8-2,1.5-3.7,2.1,0,0-.2-.3-.2-.4,1.7-.5,2.9-1.2,3.6-1.9-1.1-.7-1.9-1.6-2.5-2.6l.4-.2c.6,1,1.4,1.8,2.4,2.5.7-.9,1-1.9,1.1-2.9h-3.9v-3.9h4v-1.9h-4.5v-.4h4.5v-1.8h.4v1.8h4.7v.4h-4.7v1.9h4.1v3.9h-4.2ZM641.2,521.1c0-.4,0-.8,0-1.2v-1.8h-3.6v3h3.5ZM641.6,518.1v1.8c0,.4,0,.8,0,1.2h3.7v-3h-3.7Z"/>
            <path class="cls-16" d="M660.1,526c0,.5-.2.7-.6.8s-1.2,0-2.7,0c0-.1-.1-.3-.2-.5,1.3,0,2.3,0,2.6,0s.4-.1.4-.4v-3.9h-4.9v4.7h-.4v-4.7h-4.5c-.2,1.7-.7,3.5-1.9,4.9,0-.1-.2-.3-.3-.3,1.7-1.9,1.8-4.6,1.8-6.7v-5.5h10.6v11.4ZM654.3,521.7v-3.2h-4.4v1.5c0,.5,0,1.1,0,1.7h4.4ZM649.9,515v3.1h4.4v-3.1h-4.4ZM654.7,515v3.1h4.9v-3.1h-4.9ZM659.6,521.7v-3.2h-4.9v3.2h4.9Z"/>
            <path class="cls-16" d="M669.1,518.1c1.2,0,2.1,1,2.1,2.1s-1,2.1-2.1,2.1-2.1-1-2.1-2.1,1-2.1,2.1-2.1ZM669.1,521.9c.9,0,1.7-.8,1.7-1.7s-.8-1.7-1.7-1.7-1.7.8-1.7,1.7.8,1.7,1.7,1.7Z"/>
          </g>
        </g>
        <g>
          <line class="cls-1" x1="325" y1="410.5" x2="475" y2="410.5"/>
          <g>
            <path class="cls-13" d="M415,289.4c0-3,2.5-8.2,3.9-10.6h-19.2c0,0-19.2,0-19.2,0,1.4,2.4,3.9,7.6,3.9,10.6,0,7.3-7.2,22.4-7.2,35.5s12.2,24,22.5,24,22.5-11,22.5-24-7.2-28.1-7.2-35.5Z"/>
            <path class="cls-13" d="M407.2,405.1c-2.9-1.1-5.2-2.9-5.2-5.5v-36.1c0-8,1.3-12.7,4.5-15.9,0,0-2.2,1.3-5.9,1.3s-6.9-1.3-6.9-1.3c3.2,3.1,3.3,7.8,3.3,15.9v36.1c0,2.6-1,4.5-3.9,5.5-5.3,2-17.7,3.9-17.7,4.9h50.2c0-1-13.2-2.9-18.4-4.9Z"/>
            <path class="cls-14" d="M383.1,331s2.9,11.9,16.8,11.9,16.8-11.9,16.8-11.9h-33.6Z"/>
            <path class="cls-4" d="M417.2,323.5c0-11.7-6.5-25.4-6.5-32s1.2-7.4,2.5-9.6"/>
            <path class="cls-5" d="M394.9,406.8s2.3.7,5.6.7,5.6-.7,5.6-.7"/>
          </g>
          <g>
            <path d="M344.1,427.2v2.2h1.7v2.6h-1.7v.4c.5.5,1.1.9,2,1.4-.5.8-.9,1.6-1.3,2.3l-.7-.5v2.6h-3.3v-2.9c-.6.9-1.4,1.7-2.2,2.5-.4-1-1-2-1.8-2.8,1.2-.9,2.2-1.8,3-2.9h-2.3v-2.6h3.3v-2.2h3.3ZM366.4,438.9v4.9h-3.3v-2.8h-16.3l.7.7-1.3.9c-.6-.6-1.2-1.2-1.7-1.7h-3.5v1.6h.7v.6l1.7,1-.8,1.2-.8-.5v2.6h4.3l-.8-.5,1.2-1.1c.6.4,1.4,1,2.2,1.6h3.2v-2c-.5-.4-1.2-.7-2-1.2l.8-1.2,1.2.6v-1.3h3v7h-16.1v-5.7h-.9v-5h28.7ZM338.5,450.2h3.3v.8c5.1-.4,6.2-.5,9.8-1l1.3,2.1c-3.4.5-5.6.7-11.1.9,0,.8,0,1.2.8,1.2h5c2.7,0,2.8,0,3.1-.3s.3-.4.5-1.3c1.1.7,2,1,3.1,1.2-.5,1.9-1.3,2.7-3.4,2.7h-6.8c-3.6,0-5.7,0-5.7-2.6v-3.6ZM351,442.4c-.9.7-1.8,1.4-2.8,2,1,.5,1.9,1,2.7,1.5l-1.1,1.5c-1.1-.8-2.1-1.3-3.2-2-1.3.8-2.4,1.4-3.7,2-.3-.5-.6-.9-1.3-1.5,1.6-.5,2.6-1,3.3-1.5-.8-.4-1.8-.9-2.8-1.2l.9-1.4c1.2.5,2.5,1.1,3.5,1.6.9-.6,2-1.4,3.2-2.3l1.4,1.2ZM348.1,431.7c-.9-.5-1.5-.8-2.2-1.1.9-1.5,1.5-2.6,2-3.9l2.8.8-.5,1h5.7v2.3h-2.8v1h3.5v2h-3.5v2.4h1.1v-1.6h2.8c.6-.6,1.4-1.6,2-2.6h-2v-2.5h2.8v-2.2h3.3v2.2h3.1v2.5h-2.4c1,1.2,2.1,2.1,3.5,3.1-.8.7-1.5,1.5-1.9,2.3-.8-.6-1.5-1.3-2.2-2.2v3.1h-3.3v-2.6c-.5.7-1,1.3-1.6,2-.3-.6-.6-1.3-1.1-1.9v2.4h-10.7v-3.6h2.8v1.6h1.1v-2.4h-4.1v-2h1.9ZM348.4,431.7h1.8v-1h-1.2l-.6,1ZM366.6,451.6c-3.6,2.4-6.4,3.6-10.4,4.9-.3-.8-.8-1.7-1.6-2.6,1.2-.4,5.7-1.9,9.8-4.6l2.2,2.3ZM363,443.4c-1.9,1.3-3.4,2.2-6.8,3.6-.4-.7-.8-1.3-1.6-2.5,3.7-1.4,5-2.2,6.5-3.3l1.8,2.2ZM364.7,447.1c-2.6,1.8-5,3-8.3,4.2-.4-.7-.8-1.5-1.5-2.5,4.3-1.7,5.3-2.1,8-3.9l1.9,2.1Z"/>
            <path d="M391.1,446l3.2,1.9c-.5.7-2.3,3.8-2.7,4.4h6.2v3.3h-27.6v-3.3h6.4c-.7-1.4-1.4-2.4-2.8-4.4l2.9-1.8c1.4,1.8,1.8,2.3,2.9,4.4l-3,1.8h5.2v-6.2h-10v-3.3h10v-2.4h-6v-1.6c-1.5,1.3-3.1,2.4-4.8,3.5-.6-1.4-1.3-2.4-2.2-3.4,2.1-1.3,7.2-4.3,13.6-12.3l3.8,1.6-.4.5c1.2,1.5,2.5,2.8,6,5.3,2.2,1.6,5.1,3.3,7.4,4.4-1.1,1.1-1.8,2.1-2.4,3.4-1.3-.7-2.7-1.5-4.6-2.8v1.3h-6.5v2.4h10.7v3.3h-5.4ZM389.5,437c-2.7-2-4.5-4-5.9-5.6-1,1.1-1.5,1.6-1.9,2.1-.6.7-2.6,2.5-3.6,3.5h11.4ZM389.9,452.2c-.6-.5-1.2-.9-1.7-1.2,1.2-2,2-3.4,2.7-5h-5v6.2h4Z"/>
            <path d="M417.9,433.4h12.1v3.5h-8.9c1.9,1.7,5,3.8,10.3,5.4-.9,1-1.7,2.2-2.3,3.5-1.1-.4-2.3-.9-3.5-1.5v11.9h-4.1v-1.2h-11.5v1.2h-3.8v-12c-1.1.5-2.3,1.2-3.5,1.6-.4-1.3-1.1-2.6-2-3.6,3.7-1.2,6.7-2.9,10-5.4h-8.8v-3.5h12v-1.8c-2.8.2-5.7.4-8.4.4-.3-1-.7-2.2-1.2-3.2,5.2-.1,12.4-.4,19.7-1.8l2.2,3.1c-2.9.5-5.9.9-8.6,1.1v2.2ZM417.9,442.3h-3.8v-3.3c-1.6,1.4-3.3,2.7-5.2,3.8h14.3c-1.9-1.2-3.7-2.6-5.2-4.1v3.6ZM410.2,445.6v1.8h11.5v-1.8h-11.5ZM410.2,450v2h11.5v-2h-11.5Z"/>
            <path d="M456.9,437.6c2.4,3.4,4.1,5.3,6.5,7.2-1,.6-2.1,1.7-3,2.7-3-2.8-4.2-4.4-6.2-7.6v16.2h-3.8v-14.3c-1.7,2.7-3.4,4.7-5.7,7.1-.8-1.2-1.5-2.3-2.4-3.2l.6-.6c-.6-.6-1.2-1.2-1.8-1.7v12.8h-3.6v-11.2c-.8,1.7-1.6,3.3-3.1,5.3-.4-1.4-1-2.8-1.8-4.1,1.9-2.5,2.9-4.4,4.9-9.8h-4v-3.6h4v-5.3h3.6v5.3h2.7v3.6h-2.7v1.6c1.1,1.5,2.4,2.7,3.7,3.9-.4.7-.8,1.6-1.2,2.4,1.6-1.6,4.6-4.7,7.9-12.2h-8.1v-3.5h18.5v3.5h-6.3c-.4.9-.8,1.9-1.4,3v4.4l2.8-2.1Z"/>
          </g>
          <g>
            <g>
              <line class="cls-11" x1="378" y1="268.4" x2="381.3" y2="256.1"/>
              <polygon class="cls-16" points="386.8 259.5 383.6 247.4 374.8 256.3 386.8 259.5"/>
            </g>
            <g>
              <line class="cls-11" x1="422.2" y1="268.4" x2="418.9" y2="256.1"/>
              <polygon class="cls-16" points="425.4 256.3 416.6 247.4 413.4 259.5 425.4 256.3"/>
            </g>
            <g>
              <line class="cls-11" x1="400.5" y1="271" x2="400.5" y2="259"/>
              <polygon class="cls-16" points="406.2 261 400 250.2 393.8 261 406.2 261"/>
            </g>
          </g>
          <g>
            <path class="cls-16" d="M318.1,473.7h.4v13.3h-.4v-4.5c-3.2,1.2-3.5,1.4-3.7,1.5,0-.1-.2-.3-.3-.4.2-.1.5-.4.5-1v-7.5h.4v8l3-1.1v-8.4ZM325.8,476.9c-.4,2.5-1.1,4.5-2.1,6.2,1,1.5,2.2,2.7,3.6,3.4-.1,0-.3.2-.3.3-1.4-.8-2.6-1.9-3.5-3.4-1,1.4-2.2,2.6-3.9,3.5,0,0-.2-.3-.3-.4,1.7-.8,3-2,4-3.5-.9-1.6-1.7-3.5-2.2-5.5-.5,1.1-1,2.1-1.6,3,0,0-.3-.2-.4-.3,1.3-1.6,2.2-4.1,2.7-6.8h.4c-.2,1.1-.4,2.1-.7,3h5.8v.4h-1.4ZM321.2,476.9c.5,2.1,1.2,4.1,2.2,5.8.9-1.6,1.5-3.5,1.9-5.8h-4.1Z"/>
            <path class="cls-16" d="M332.3,480.7l-1.4.6v4.9c0,.4-.1.5-.4.6-.3,0-.7,0-1.5,0,0-.1-.1-.3-.2-.4.7,0,1.2,0,1.4,0,.2,0,.3,0,.3-.2v-4.7c-.6.2-1.1.5-1.6.6l-.2-.4c.5-.2,1.1-.5,1.8-.7v-3.9h-1.7v-.4h1.7v-3.2h.4v3.2h1.4v.4h-1.4v3.7l1.3-.5v.4ZM336.8,486.2c0,.3,0,.5-.3.5-.3,0-.7,0-1.6,0,0-.1-.1-.3-.2-.4.7,0,1.2,0,1.4,0,.2,0,.2,0,.2-.2v-2.6c-.9.4-1.7.7-2.5,1l-.3-.4c.7-.2,1.7-.6,2.7-1v-3.3h-2.8v2.5c0,1.3-.1,3.1-.9,4.5,0-.1-.2-.3-.3-.3.7-1.2.8-2.9.8-4.2v-2.9h3.7v6.6ZM336.6,475.9c-.2.7-.5,1.5-.7,2.2h1.6v.4h-5v-.4h2.9c.3-.7.6-1.7.7-2.4l.5.2ZM337.3,475.5h-4.6v-.4h2.3c-.1-.5-.4-1.1-.6-1.5h.4c.2.4.5,1.1.6,1.5h1.8v.4ZM333.9,477.8c0-.5-.3-1.4-.5-2h.4c.2.5.5,1.3.5,1.8h-.4ZM334.2,481.1c.6.2,1.4.6,1.8.8l-.2.4c-.4-.2-1.2-.6-1.8-.9l.2-.3ZM341.4,486.4c.4,0,.5-.2.5-1.1.1,0,.3.1.4.2,0,1.1-.2,1.4-.9,1.4h-2.2c-.9,0-1.1-.1-1.1-.9v-6.8h3.2v-1.9h-3.2v-3.8h.4v1.5h3.7v.4h-3.7v1.5h3.2v2.8h-3.2v1.2h3.2v.4h-3.2v1.3h3v.4h-3v1.3h3.3v.4h-3.3v1.3c0,.4,0,.4.7.4h2.2Z"/>
            <path class="cls-16" d="M347.4,473.6c-.3.8-.6,1.6-.8,2.3h2.7v9.5h-4.4v1.3h-.4v-10.8h1.6c.3-.7.6-1.7.8-2.4l.5.2ZM348.8,476.3h-3.9v3.9h3.9v-3.9ZM348.8,484.9v-4.3h-3.9v4.3h3.9ZM356.7,476.2c-.3,7-.5,9.3-1.1,10-.3.3-.5.4-1,.4-.5,0-1.3,0-2.1,0,0-.1,0-.3-.1-.4,1,0,1.9,0,2.2,0s.5,0,.6-.2c.5-.5.8-2.9,1-9.6h-4.5c-.4,1.1-.9,2.1-1.5,2.9,0,0-.3-.2-.4-.2,1.1-1.4,1.8-3.5,2.3-5.7h.5c-.2.9-.4,1.8-.7,2.6h4.8v.3ZM354,482.8c-.5-.9-1.6-2.4-2.5-3.5l.4-.2c.9,1.1,2,2.6,2.5,3.5l-.4.3Z"/>
            <path class="cls-16" d="M363.6,480.8c-.3-.5-1.3-1.8-1.9-2.6v8.7h-.4v-8.6c-.6,2-1.5,4.2-2.4,5.3,0-.1-.2-.3-.3-.4,1-1.4,2.2-4.1,2.7-6.5h-2.4v-.4h2.5v-3h.4v3h2.1v.4h-2.1v.7c.5.5,2,2.4,2.3,2.8l-.4.4ZM368.7,475c-.3.7-.5,1.4-.9,2.1v9.8h-.4v-9c-1,1.7-2.2,3.2-3.6,4.3,0,0-.2-.2-.3-.3,2.1-1.6,3.8-4,4.8-6.9h-4.4v-.4h8v.4h-3.2ZM368.6,477.9c1.2,1.2,2.6,2.9,3.3,3.9l-.3.3c-.7-1-2.1-2.8-3.3-4l.3-.2Z"/>
            <path class="cls-16" d="M385.9,475.1v11.3h-.4v-1.2h-9.8v1.4h-.4v-11.4h10.6ZM385.4,484.7v-9.2h-9.8v9.2h9.8Z"/>
            <path class="cls-16" d="M388.7,476.1h4.5v.4h-4.5v-.4ZM392.8,486.1h-3.1v.8h-.4v-5h3.5v4.2ZM389.3,477.9h3.5v.4h-3.5v-.4ZM389.3,479.9h3.5v.4h-3.5v-.4ZM389.7,482.3v3.3h2.7v-3.3h-2.7ZM391.1,475.7c-.1-.5-.5-1.3-.9-2h.4c.4.5.8,1.3.9,1.9h-.4ZM401.9,483.6c-.6.5-1.5.9-2.2,1.3.7.7,1.6,1.3,2.6,1.6,0,.1-.2.3-.3.4-1.9-.6-3.3-2.1-4-3.9h-.2c-.5.4-1.1.9-1.7,1.2v2l2.7-.6c0,.1,0,.3,0,.4-2.8.7-3.2.8-3.4.9,0-.1-.2-.3-.3-.5.2,0,.5-.3.5-.9v-1.1c-.6.3-1.3.6-1.9.8,0,0-.2-.3-.3-.4,1.4-.4,2.9-1.1,3.9-1.9h-3.7v-.4h2.5v-1.1h-1.7v-.4h1.7v-1.1h-2v-.4h2v-1h-1.6v-2.4h3.1v2.4h-1v1h2.9v-1h-.9v-2.4h3.1v2.4h-1.8v1h2.2v.4h-2.2v1.1h1.8v.4h-1.8v1.1h2.5v.4h-3.9c.3.6.6,1.1,1,1.6.7-.4,1.6-.9,2.1-1.3l.3.3ZM402.1,475.2h-8.5v-.4h4.2c-.1-.4-.4-.8-.6-1.2l.4-.2c.3.4.6.9.7,1.3h3.8v.4ZM394.8,478h2.2v-1.6h-2.2v1.6ZM396.4,481h2.9v-1.1h-2.9v1.1ZM396.4,482.6h2.9v-1.1h-2.9v1.1ZM398.9,478h2.3v-1.6h-2.3v1.6Z"/>
            <path class="cls-16" d="M406.2,479.6c-.6-.4-1.7-1.1-2.6-1.5l.3-.3c.9.5,2,1.1,2.6,1.5l-.3.4ZM404,486.5c.8-1.2,1.9-3.3,2.7-5l.3.3c-.7,1.6-1.8,3.6-2.6,5l-.4-.3ZM406.7,475.7c-.5-.4-1.6-1.1-2.4-1.6l.3-.3c.8.5,1.8,1.1,2.4,1.5l-.3.4ZM413.5,474.7v2.7h3.1v9.5h-.4v-.7h-7.6v.8h-.4v-9.6h2.7v-2.7h-3.4v-.4h9.9v.4h-3.8ZM416.1,485.7v-4.7c0,0-.2,0-.3,0h-1.8c-.7,0-1,0-1-.7v-2.5h-1.9v.7c0,1.1-.5,2.4-2.2,3.3,0-.1-.2-.3-.3-.3,1.7-.9,2.1-2.1,2.1-3v-.7h-2.2v7.9h7.6ZM409.8,482.9h5.4v.4h-5.4v-.4ZM413.1,474.7h-1.9v2.7h1.9v-2.7ZM416.1,477.8h-2.6v2.5c0,.2,0,.3.5.3h1.8c.3,0,.3,0,.4,0v-2.7Z"/>
            <path class="cls-16" d="M426.2,477.4c2.2,1.1,4.7,2.7,6,3.7l-.2.4c-1.3-1.1-4-2.8-6.2-3.9v3.1h-.4v-3.2c-1.5,1.6-4.1,3.2-6.1,3.9,0-.1-.2-.3-.3-.4,2-.7,4.5-2.1,6-3.7h-5.8v-.4h6.3v-2.1c-1.7.2-3.4.3-5,.4,0-.1,0-.3-.1-.4,3.5-.2,7.8-.6,9.9-1.2l.4.3c-1.2.3-2.9.6-4.7.8v2.2h6.4v.4h-5.9ZM421.2,481.2h8.8v5.8h-.4v-.6h-7.9v.6h-.4v-5.8ZM421.6,481.6v1.9h7.9v-1.9h-7.9ZM429.6,485.9v-2h-7.9v2h7.9Z"/>
            <path class="cls-16" d="M435.8,476.3c-.5.7-1.1,1.3-1.8,1.9,0,0-.2-.2-.4-.3,1.6-1.3,2.8-3.1,3.5-4.5h.5c-.3.6-.6,1.2-1,1.8h4.4c-.2-.5-.6-1.1-.9-1.7h.4c.4.4.8,1.2,1,1.7h4.6v.4h-5.1v1.4h4.6v.4h-4.6v1.4h4.7v.4h-4.7v1.4h5.7v.4h-10.4v.5h-.4v-5.4ZM438.7,484.4c-1,.8-3.1,1.6-4.6,2,0-.1-.2-.3-.3-.4,1.5-.3,3.5-1,4.5-1.8l.4.2ZM447.1,482.6v.4h-6.4v3.9h-.4v-3.9h-6.4v-.4h6.4v-1.2h.4v1.2h6.4ZM436.3,475.7h0v1.4h4.3v-1.4h-4.2ZM440.5,477.5h-4.3v1.4h4.3v-1.4ZM440.5,479.3h-4.3v1.4h4.3v-1.4ZM442.1,484.2c1.6.4,3.7,1.1,4.8,1.5v.5c-1.2-.4-3.3-1.1-4.9-1.6v-.4Z"/>
            <path class="cls-16" d="M461.3,476.2v6.6h-.4v-1h-5.2v5.1h-.4v-5.1h-5.2v1h-.4v-6.7h5.7v-2.8h.4v2.8h5.7ZM455.2,481.4v-4.8h-5.2v4.8h5.2ZM460.9,481.4v-4.8h-5.2v4.8h5.2Z"/>
            <path class="cls-16" d="M468.5,476.5c-.5,1.1-1.1,2.2-1.9,3.2v7.3h-.4v-6.7c-.6.8-1.4,1.5-2.1,2.1,0,0-.2-.2-.3-.3,1.9-1.4,3.3-3.4,4.3-5.5h-4v-.4h4.2c.4-.8.7-1.7.9-2.6h.5c-.2.9-.5,1.8-.9,2.6h8.2v.4h-8.4ZM477,486.2v.4h-9.1v-.4h4.3v-5.1h-3.7v-.4h3.7v-3.3h.4v3.3h3.8v.4h-3.8v5.1h4.4Z"/>
            <path class="cls-16" d="M318.6,500.8c-.3-.5-1.3-1.8-1.9-2.6v8.7h-.4v-8.6c-.6,2-1.5,4.2-2.4,5.3,0-.1-.2-.3-.3-.4,1-1.4,2.2-4.1,2.7-6.5h-2.4v-.4h2.5v-3h.4v3h2.1v.4h-2.1v.7c.5.5,2,2.4,2.3,2.8l-.4.4ZM323.7,495c-.3.7-.5,1.4-.9,2.1v9.8h-.4v-9c-1,1.7-2.2,3.2-3.6,4.3,0,0-.2-.2-.3-.3,2.1-1.6,3.8-4,4.8-6.9h-4.4v-.4h8v.4h-3.2ZM323.6,497.9c1.2,1.2,2.6,2.9,3.3,3.9l-.3.3c-.7-1-2.1-2.8-3.3-4l.3-.2Z"/>
            <path class="cls-16" d="M341.3,506.1c0,.5-.1.7-.5.8-.4,0-1.2,0-2.4,0,0-.1-.1-.3-.2-.5,1.1,0,2,0,2.3,0,.3,0,.3,0,.3-.3v-8.9h-4.8c.6,3,1.9,4.9,4.2,5.7-.1.1-.2.3-.3.4-2.4-1-3.7-3-4.3-6-.5,2.9-2,4.9-4.3,6.1,0,0-.2-.2-.3-.3,2.4-1.2,3.8-3,4.2-5.9h-4.9v9.7h-.4v-10.1h5.7c-.1-.7-.2-1.4-.2-2.2h-2.9v-.4h3.3c0,1,.1,1.8.3,2.6h5.4v9.3Z"/>
            <path class="cls-16" d="M348.7,502.3c1.2-.6,1.8-1.3,1.8-2.6-.1,0-.2,0-.4,0-.5,0-.8-.2-.8-.8s.4-.8.8-.8c.6,0,.9.6.9,1.4,0,1.5-.9,2.6-2.2,3.2l-.2-.4Z"/>
            <path class="cls-16" d="M362.7,502.9c-1,1.5-2.9,3.1-4.6,4.1,0,0-.2-.3-.3-.3,1.7-1,3.5-2.5,4.4-3.9l.4.2ZM369.6,494.6v6.4h-9.9v-6.4h9.9ZM360.1,500.6h9.1v-5.5h-9.1v5.5ZM366.6,502.7c1.6,1.2,3.6,2.9,4.5,4l-.4.3c-.9-1.1-2.8-2.9-4.5-4.1l.3-.2Z"/>
            <path class="cls-16" d="M382.9,502.5c-.6,1.1-1.5,1.9-2.6,2.6,2.1.4,4.1,1,5.5,1.5l-.5.4c-1.4-.6-3.4-1.1-5.6-1.6-1.6.8-3.8,1.3-6.6,1.5,0-.1-.1-.3-.2-.4,2.5-.2,4.5-.6,6-1.3-1.2-.2-2.6-.5-3.9-.7.5-.6,1.1-1.3,1.6-2.1h-3.7v-.4h4c.4-.6.7-1.2,1-1.8h.4c-.3.6-.6,1.2-1,1.8h5.2c.1-.3.3-.6.4-.9l.4.2c0,.2-.2.5-.3.7h3v.4h-3.2ZM377.5,494.7h-4.2v-.4h12.7v.4h-4.4v1.7h3.6v3.5h-11.1v-3.5h3.4v-1.7ZM374.5,499.5h3v-2.7h-3v2.7ZM377.2,502.5c-.5.7-.9,1.3-1.3,1.8,1.3.2,2.6.4,3.8.6,1.2-.6,2.1-1.4,2.7-2.4h-5.2ZM381.1,494.7h-3.2v1.7h3.2v-1.7ZM377.9,499.5h3.2v-2.7h-3.2v2.7ZM381.5,496.8v2.7h3.2v-2.7h-3.2Z"/>
            <path class="cls-16" d="M390.6,499.7c-.6-.5-1.8-1.2-2.7-1.6l.3-.3c.9.4,2.1,1.1,2.7,1.6l-.2.4ZM391.5,501.8c-.8,1.6-1.9,3.6-2.8,5l-.4-.3c.8-1.2,2-3.3,2.9-4.9l.3.3ZM391.4,495.6c-.6-.5-1.9-1.2-2.9-1.7l.3-.3c1,.4,2.2,1.1,2.9,1.6l-.3.4ZM401.4,506v.4h-10v-.4h4.8v-4.7h-3.7v-.4h3.7v-4.1h-4.3v-.4h9.2v.4h-4.5v4.1h3.9v.4h-3.9v4.7h4.8ZM396.8,496.2c-.3-.7-.9-1.8-1.4-2.6l.4-.2c.6.8,1.2,1.9,1.4,2.5l-.4.2Z"/>
            <path class="cls-16" d="M409.9,494.4c0,2.5.3,8.4,6.6,12.1-.1,0-.3.2-.4.3-4.5-2.7-5.9-6.6-6.4-9.6-1.1,4.6-3.1,7.6-6.5,9.6,0,0-.3-.3-.4-.3,3.5-1.9,5.5-5,6.5-9.6h.4c-.1-.8-.2-1.5-.2-2.1h-4v-.5h4.4Z"/>
            <path class="cls-16" d="M429.3,501.4c-2,2.9-6.1,4.8-11.3,5.5,0-.1-.1-.3-.2-.4,5.2-.7,9.2-2.5,11.2-5.3l.4.2ZM421.1,496.1c-.7,1.7-1.7,3.5-2.7,4.7,0,0-.3-.2-.4-.2,1-1.2,2-2.9,2.6-4.6h.4ZM424.6,493.4v9.1h-.4v-9.1h.4ZM428.4,496c1,1.4,2.3,3.2,2.9,4.4l-.4.2c-.6-1.2-1.8-3-2.8-4.4l.4-.2Z"/>
            <path class="cls-16" d="M438.6,496.4h-5.7v-.4h5.7v.4ZM433.5,497.9h4.5v.4h-4.5v-.4ZM433.5,499.9h4.5v.4h-4.5v-.4ZM438,506.1h-4v.8h-.4v-5h4.5v4.2ZM433.9,502.3v3.3h3.6v-3.3h-3.6ZM435.7,495.8c0-.5-.4-1.4-.7-2l.3-.2c.4.6.7,1.4.8,2l-.4.2ZM446.4,500.7h-3.7v6.2h-.4v-6.2h-3.9v-.4h3.9v-4h-2.2c-.4,1-.9,1.9-1.5,2.6,0,0-.3-.2-.4-.3,1.1-1.3,1.9-3.2,2.4-5.2h.5c-.2.9-.5,1.7-.7,2.4h5.8v.4h-3.3v4h3.7v.4Z"/>
            <path class="cls-16" d="M452.8,502.3c1.2-.6,1.8-1.3,1.8-2.6-.1,0-.2,0-.4,0-.5,0-.8-.2-.8-.8s.4-.8.8-.8c.6,0,.9.6.9,1.4,0,1.5-.9,2.6-2.2,3.2l-.2-.4Z"/>
            <path class="cls-16" d="M468.9,495.9h-6.8v-.4h3.6c-.2-.6-.5-1.3-.9-1.9h.4c.4.5.8,1.4.9,1.9h2.7v.4ZM464.2,502c-.3,1.2-.9,2.5-1.5,3.3,0,0-.3-.2-.4-.2.7-.8,1.2-2,1.5-3.2h.4ZM465.9,500.8v5.5c0,.3,0,.4-.3.5-.2,0-.6,0-1.4,0,0-.1-.1-.3-.2-.4.6,0,1.1,0,1.2,0,.2,0,.2,0,.2-.2v-5.5h-2.4v-3.2h5.1v3.2h-2.3ZM463.5,500.3h4.2v-2.4h-4.2v2.4ZM468,504.5c-.2-.7-.6-1.8-1.1-2.6l.4-.2c.5.8,1,1.9,1.1,2.6l-.4.2ZM471.6,497.9c-.3,3.5-1.1,7.1-3.4,9.1,0,0-.3-.2-.4-.2,2.3-1.9,3.1-5.5,3.4-8.9h-2.1v-.4h2.1c0-1.4.1-2.7.1-3.9h.5c0,1.2,0,2.6-.1,3.9h3.7v.4h-3.8ZM474.2,506.2c.2,0,.5,0,.6,0s.2-.2.3-.4c0-.3,0-.8,0-1.6.1,0,.2.2.4.2,0,.7,0,1.4-.1,1.7,0,.3-.2.4-.4.5-.2,0-.5.1-.8.1h-1c-.3,0-.6,0-.8-.1-.2-.1-.3-.3-.3-1.1v-5.8h.4v5.9c0,.4,0,.6.2.7s.3,0,.5,0h.9ZM474.3,496.7c-.3-.6-.9-1.5-1.5-2.1l.3-.2c.6.6,1.2,1.5,1.5,2.1l-.4.3Z"/>
            <path class="cls-16" d="M319.7,526.2c0,.4,0,.6-.4.6-.3,0-.9,0-1.9,0,0-.1,0-.3-.2-.5.9,0,1.6,0,1.8,0,.2,0,.3,0,.3-.3v-3.1c-1.3.6-2.6,1.3-3.6,1.8l-.3-.4c1-.4,2.4-1.1,3.9-1.8v-3.5h-3.9v3.6c0,1.3-.2,3-1.2,4.2,0-.1-.2-.3-.3-.3.9-1.1,1-2.6,1-3.9v-4h4.8v7.5ZM318.6,514.5c.9,1,1.8,2.3,2.2,3.2l-.4.2c-.1-.3-.3-.7-.6-1.1-4.4.3-4.8.4-5.1.5,0-.1-.1-.4-.2-.5.2,0,.5-.2.8-.6.3-.3,1.4-1.6,2.1-2.8l.5.2c-.8,1.1-1.6,2.3-2.4,3.1l4.1-.3c-.4-.6-.8-1.2-1.3-1.8l.4-.2ZM316,520.5c1,.5,2.3,1.2,3,1.6l-.2.4c-.7-.5-2-1.2-3-1.7l.2-.3ZM322.4,519.8c-.9,0-1.1-.3-1.1-1.1v-5.2h.4v2.4h4.4v.5h-4.4v2.4c0,.5.1.7.7.7h3.3c.3,0,.8,0,1.1,0,0,.1,0,.3,0,.4-.2,0-.6,0-1.2,0h-3.3ZM326,526.4c.8,0,.9-.3.9-2.2.1,0,.3.1.4.2,0,1.9-.3,2.4-1.3,2.4h-3.2c-1.2,0-1.5-.2-1.5-1v-5.4h.4v2.1h4.6v.5h-4.6v2.9c0,.5.2.6,1,.6h3.2Z"/>
            <path class="cls-16" d="M340.9,526.2c.7,0,.8-.4.9-2.4.1.1.3.2.4.2,0,2.1-.2,2.6-1.3,2.6h-2.7c-1,0-1.3-.2-1.3-1v-5.5l-2.8.2c-.3,3.5-1.1,5.6-4.7,6.6,0-.1-.2-.3-.3-.3,3.5-.9,4.2-2.9,4.5-6.2-2.7.2-3.1.2-3.3.3,0-.1-.1-.4-.2-.5.3,0,.7-.5,1.2-1.2.4-.4,1.3-1.6,2.2-3h-4.4v-.4h4.7c.4-.7.9-1.4,1.2-2.1l.5.2c-.4.6-.8,1.2-1.2,1.8h7.6v.4h-7.9c-1,1.5-2.1,2.9-3.1,4l8.7-.5c-.8-.8-1.8-1.6-2.8-2.2l.3-.2c1.5,1,3.3,2.5,4.1,3.6l-.3.3c-.2-.3-.5-.6-.9-1h-2.8v5.7c0,.4.2.5.9.5h2.7Z"/>
            <path class="cls-16" d="M348.3,514c-.8,2.6-2.3,4.6-4.1,5.9,0,0-.3-.2-.4-.3,1.9-1.3,3.3-3.3,4-5.7h.4ZM355,519.3s0,.2,0,.3c-.3,4.8-.5,6.4-1,7-.2.3-.5.3-1,.3-.5,0-1.5,0-2.5,0,0-.2,0-.3-.2-.5,1.1.1,2.2.1,2.5.1s.5,0,.7-.2c.5-.4.7-2.1,1-6.6h-4.8c-.4,3.1-1.4,6-5.2,7.3,0,0-.2-.2-.3-.3,3.7-1.2,4.6-4.1,5-7h-3.6v-.4h9.3ZM353.1,513.7c.8,2.5,2.5,4.8,4.2,5.8-.1,0-.3.2-.3.4-1.7-1.1-3.3-3.3-4.2-5.8h-3v-.4h3.3Z"/>
            <path class="cls-16" d="M372.1,523.9h-6.4v2.4c0,.4-.1.5-.4.6-.4,0-1.1,0-2.5,0,0-.1-.1-.3-.2-.4,1.2,0,2.1,0,2.3,0,.3,0,.3,0,.3-.3v-2.4h-6.4v-.4h6.4v-1.2c1.4-.3,3-.7,4.2-1.2h-9.2v-.4h10.1s.4.2.4.2c-1.3.8-3.3,1.4-5,1.8v.8h6.4v.4ZM372,515.4h-13v-.4h6.6c-.2-.5-.5-1-.8-1.5h.4c.3.4.7,1,.9,1.5h5.9v.4ZM361,519.4v-2.7h9v2.7h-9ZM361.5,519h8.1v-1.9h-8.1v1.9Z"/>
            <path class="cls-16" d="M384.9,520.7c-.9,1.7-2.3,3-4,4,1.7,1,3.8,1.6,6.1,2,0,.1-.2.3-.3.4-2.3-.4-4.5-1.1-6.3-2.1-1.9,1-4.1,1.7-6.3,2.1,0-.1-.2-.3-.3-.4,2.2-.4,4.3-1,6.2-2-1.5-1-2.8-2.2-3.6-3.7h-.8v-.4h8.9s.3.2.3.2ZM374.7,520.7h-.4v-2.8h9c.6-.8,1.4-2,1.8-2.9l.4.2c-.5.9-1.1,1.9-1.7,2.7h3v2.8h-.4v-2.4h-11.7v2.4ZM385.6,513.8c-2.6.6-7.3,1-11.1,1.2,0-.1,0-.3-.1-.4,3.8-.2,8.5-.6,10.9-1.2l.4.4ZM376.8,517.6c-.2-.6-.8-1.6-1.2-2.3h.4c.5.6,1,1.5,1.3,2.1l-.4.2ZM377,520.9c.8,1.4,2,2.6,3.5,3.5,1.6-.9,2.9-2,3.7-3.5h-7.2ZM380.5,517.5c-.1-.6-.5-1.7-.9-2.5h.4c.4.7.8,1.7.9,2.4h-.4Z"/>
            <path class="cls-16" d="M396.2,517.4c2.2,1.1,4.7,2.7,6,3.7l-.2.4c-1.3-1.1-4-2.8-6.2-3.9v3.1h-.4v-3.2c-1.5,1.6-4.1,3.2-6.1,3.9,0-.1-.2-.3-.3-.4,2-.7,4.5-2.1,6-3.7h-5.8v-.4h6.3v-2.1c-1.7.2-3.4.3-5,.4,0-.1,0-.3-.1-.4,3.5-.2,7.8-.6,9.9-1.2l.4.3c-1.2.3-2.9.6-4.7.8v2.2h6.4v.4h-5.9ZM391.2,521.2h8.8v5.8h-.4v-.6h-7.9v.6h-.4v-5.8ZM391.6,521.6v1.9h7.9v-1.9h-7.9ZM399.6,525.9v-2h-7.9v2h7.9Z"/>
            <path class="cls-16" d="M406.7,515.4c-.7,1.1-1.6,2.1-2.4,2.8,0,0-.3-.2-.4-.3,1.4-1.1,2.6-2.7,3.4-4.5h.4c-.2.6-.4,1.1-.7,1.5h9.7v.4h-10ZM409,522.3h4.4v.4h-4.4v4.2h-.4v-4.2h-4.4v-.4h4.4v-3h.4v3ZM407.8,523.6c-.7,1.2-2.1,2.5-3.2,3.2,0-.1-.2-.2-.3-.3,1.1-.6,2.4-1.9,3.1-3.1l.3.2ZM414.7,518.5c0,5.2.1,8.1,1.7,8.1s.5-.9.5-2.3c.1,0,.3.2.4.2,0,2-.2,2.5-.9,2.5-1.9,0-2-2.6-2.1-8h-9.1v-.4h9.5ZM405.8,519.6c.6.6,1.2,1.5,1.4,2l-.4.2c-.2-.6-.8-1.4-1.4-2.1l.4-.2ZM406.6,517.2v-.4h9.1v.4h-9.1ZM410.4,523.6c1.1.8,2.3,1.9,2.9,2.7l-.3.3c-.6-.8-1.8-1.9-2.8-2.8l.3-.2ZM412.3,519.8c-.5.8-1.2,1.6-1.8,2.2l-.3-.2c.6-.6,1.3-1.6,1.7-2.2l.4.2Z"/>
            <path class="cls-16" d="M422.4,513.6c-.3.8-.6,1.6-.8,2.3h2.7v9.5h-4.4v1.3h-.4v-10.8h1.6c.3-.7.6-1.7.8-2.4l.5.2ZM423.8,516.3h-3.9v3.9h3.9v-3.9ZM423.8,524.9v-4.3h-3.9v4.3h3.9ZM431.7,516.2c-.3,7-.5,9.3-1.1,10-.3.3-.5.4-1,.4-.5,0-1.3,0-2.1,0,0-.1,0-.3-.1-.4,1,0,1.9,0,2.2,0s.5,0,.6-.2c.5-.5.8-2.9,1-9.6h-4.5c-.4,1.1-.9,2.1-1.5,2.9,0,0-.3-.2-.4-.2,1.1-1.4,1.8-3.5,2.3-5.7h.5c-.2.9-.4,1.8-.7,2.6h4.8v.3ZM429,522.8c-.5-.9-1.6-2.4-2.5-3.5l.4-.2c.9,1.1,2,2.6,2.5,3.5l-.4.3Z"/>
            <path class="cls-16" d="M435,522.9c-.2,1.3-.5,2.7-.9,3.6,0,0-.3-.1-.4-.2.4-1,.6-2.3.8-3.5h.5ZM438,519c.5,1,.9,2.2,1.1,2.9h-.5c0,0-.1-.4-.2-.7-3.8.6-4.2.7-4.5.8,0-.1,0-.4-.2-.5.2,0,.6-.5,1-1,.3-.3.9-1.1,1.6-2.2-2,.3-2.3.3-2.5.4,0-.1-.1-.4-.2-.5.2,0,.5-.4.8-.9.3-.5,1.5-2.2,2.2-3.9l.4.2c-.8,1.6-1.7,3.2-2.6,4.5l2.1-.2c.4-.7.8-1.4,1.2-2.1l.5.2c-1.1,2-2.3,3.9-3.6,5.3l3.6-.5c-.2-.6-.4-1.2-.7-1.7h.4ZM436.5,522.8c.2,1,.4,2.4.4,3.3h-.4c0-.8-.2-2.2-.4-3.2h.4ZM438.1,522.5c.4.9.8,2.2.9,3h-.4c-.2-.7-.6-1.9-.9-2.9h.4ZM446.8,514.3v12.4h-.4v-1h-6v1.1h-.4v-12.5h6.9ZM440.4,514.7v5.1h2.7v-5.1h-2.7ZM440.4,525.3h2.7v-5h-2.7v5ZM446.4,514.7h-2.9v5.1h2.9v-5.1ZM446.4,525.3v-5h-2.9v5h2.9Z"/>
            <path class="cls-16" d="M450.8,515.2c-.5.8-1,1.6-1.6,2.2,0,0-.2-.3-.3-.4,1-.9,1.8-2.2,2.3-3.6h.4c-.2.5-.3,1-.5,1.4h4.5v.4h-4.7ZM453.3,523.1c.9,1,1.9,2.4,2.4,3.2l-.4.3c-.2-.4-.5-.9-.9-1.3-4.2,1-4.5,1.1-4.8,1.3,0-.1-.2-.3-.3-.4.2,0,.5-.3.5-.9v-7.3h5.2v4.7h-4.8v3.2l3.9-.8c-.4-.5-.9-1.1-1.3-1.6l.4-.2ZM450.3,518.3v1.7h4.3v-1.7h-4.3ZM454.6,522.1v-1.7h-4.3v1.7h4.3ZM452.8,517.4c-.2-.4-.7-1.1-1-1.6l.3-.2c.4.5.8,1.1,1,1.5l-.3.3ZM462.3,514.8v.4h-5.5c-.4.9-.8,1.7-1.3,2.3,0,0-.3-.2-.4-.3.8-.9,1.5-2.3,1.8-3.8h.5c-.1.5-.2.9-.4,1.3h5.4ZM461.5,524.4c0,.4-.1.6-.5.7-.4,0-1.1,0-2.4,0,0-.1-.1-.3-.2-.4,1.1,0,2,0,2.2,0,.3,0,.3,0,.3-.3v-6.1h-4v8.7h-.4v-9.1h4.9v6.5ZM458.3,515.7c.5.5,1,1.1,1.2,1.5l-.4.2c-.2-.4-.8-1.1-1.2-1.6l.3-.2Z"/>
            <path class="cls-16" d="M470.1,518.1c1.2,0,2.1,1,2.1,2.1s-1,2.1-2.1,2.1-2.1-1-2.1-2.1,1-2.1,2.1-2.1ZM470.1,521.9c.9,0,1.7-.8,1.7-1.7s-.8-1.7-1.7-1.7-1.7.8-1.7,1.7.8,1.7,1.7,1.7Z"/>
          </g>
        </g>
      </g>
    </g>
  </g>
</svg>