<?xml version="1.0" encoding="UTF-8"?>
<svg xmlns="http://www.w3.org/2000/svg" version="1.1" viewBox="0 0 800 600">
  <defs>
    <style>
      .cls-1, .cls-2, .cls-3, .cls-4, .cls-5, .cls-6, .cls-7, .cls-8, .cls-9, .cls-10, .cls-11, .cls-12, .cls-13, .cls-14, .cls-15, .cls-16, .cls-17, .cls-18, .cls-19, .cls-20, .cls-21, .cls-22, .cls-23, .cls-24 {
        stroke: #000;
      }

      .cls-1, .cls-2, .cls-3, .cls-4, .cls-5, .cls-6, .cls-8, .cls-9, .cls-10, .cls-25, .cls-11, .cls-12, .cls-13, .cls-14, .cls-15, .cls-16, .cls-17, .cls-18, .cls-19, .cls-20, .cls-21, .cls-22, .cls-24 {
        stroke-miterlimit: 10;
      }

      .cls-1, .cls-2, .cls-5, .cls-6, .cls-25, .cls-13, .cls-14, .cls-21 {
        fill: none;
      }

      .cls-2, .cls-4, .cls-11, .cls-21, .cls-23 {
        stroke-width: 3px;
      }

      .cls-2, .cls-5, .cls-6, .cls-7, .cls-9, .cls-25, .cls-13, .cls-14, .cls-15, .cls-20 {
        stroke-linecap: round;
      }

      .cls-3, .cls-26, .cls-12, .cls-16, .cls-20, .cls-22 {
        fill: #f9bb3d;
      }

      .cls-4, .cls-10, .cls-24 {
        fill: #f7d394;
      }

      .cls-5, .cls-10, .cls-12, .cls-19 {
        stroke-width: 2px;
      }

      .cls-6 {
        stroke-width: 4px;
      }

      .cls-27, .cls-28, .cls-15 {
        fill: #fff;
      }

      .cls-7, .cls-23 {
        fill: #53b2a7;
        stroke-linejoin: round;
      }

      .cls-9, .cls-17, .cls-19 {
        fill: #434848;
      }

      .cls-25 {
        stroke: #fff;
      }

      .cls-29 {
        isolation: isolate;
      }

      .cls-11 {
        fill: #e6e6e6;
      }

      .cls-13, .cls-16 {
        stroke-width: .8px;
      }

      .cls-28 {
        opacity: .4;
      }

      .cls-30 {
        fill: #333;
      }

      .cls-31 {
        fill: #b3b3b3;
      }

      .cls-18 {
        fill: #f2f2f2;
      }

      .cls-22 {
        mix-blend-mode: multiply;
      }
    </style>
  </defs>
  <!-- Generator: Adobe Illustrator 28.7.4, SVG Export Plug-In . SVG Version: 1.2.0 Build 166)  -->
  <g class="cls-29">
    <g id="Layer_1">
      <g>
        <rect class="cls-26" width="800" height="600"/>
        <g>
          <path class="cls-27" d="M81.3,44.3c-2.4,5-6,12.7-9.1,18.4,4.2-.2,18.3-1.1,21.2-1.4-1.9-2.2-4.2-4.4-6.4-6.6l7.6-6.5c8.6,8.4,12,12.5,19.8,22.5l-8.6,6.5c-1.6-2.5-3.5-5-5.5-7.4-14,1.2-21.7,1.8-34.6,2.8-3.6.3-8.1.6-17.1,1.3l-1.5-10.3c4.2-.1,8.6-.2,13-.4,2.6-5.3,8.5-18.4,10.4-22.5l10.9,3.7ZM103.7,74.7v32.5h-11.3v-2.2h-26.1v3.1h-10.9v-33.3h48.3ZM66.3,95.9h26.1v-12h-26.1v12Z"/>
          <path class="cls-27" d="M117.4,103.6c1.6-5.5,5.9-19.7,7-22.8,2.4,1.3,5,2.4,7.8,3.2-1,4.1-4.8,18.3-6,22.5l-8.8-2.9ZM121.6,59.9c3.2,1.2,6.3,2.9,9.3,4.8l-3.9,7.4c-2.9-1.7-5.9-3.5-9-4.8l3.6-7.4ZM124.2,41.8c3.1,1.4,6,3,8.9,5l-4.5,7.8c-2.8-2-5.5-3.7-8.9-5.3l4.5-7.5ZM177,43.6c-1.7,3.1-3.2,6-5,9.2l1.1.7c1.5-2.4,3.1-5,4.8-7.5l5.6,2.7c-1.2,1.6-3.7,5.2-6,8.5l5.1-1.9c1.6,2.6,2.7,5.2,3.8,7.8l-6,2.5-.4-1c-.6,0-1.1.2-1.7.4v3l4.2-1.5c.9,2.5,1.9,4.8,3.2,7.2-1.7.8-3.3,1.5-5.2,2.2-.6-1.3-1.4-2.9-2.2-4.3v5.8h-7.1v-5c-.5,1.5-1,2.6-1.7,3.8-1.3-.6-2.9-1.2-4.5-1.6v2.5h-16.5v-3.8c-1.2.4-2.2.9-3.5,1.4-.5-1.4-1.1-2.7-1.9-4v6.6h-7.1v-6.6c-.7,2.1-1.3,3.7-2,5.5-1.9-.8-3.8-1.5-5.7-2.2.9-2.3,1.9-4.8,2.6-7.3l5.1,1.6v-2.7c-1.6,0-3,.2-4.5.4l-1.2-6.1h3.5l1.3-1.9c-1.4-1-3.2-2.2-5.3-3.2l2.7-5.4.6.5c1.4-3,2.7-5.9,4-8.9l5.5,2.5c-1.7,2.9-3.3,5.5-5.1,8.7l1.1.6c1.2-1.9,2.6-4,3.8-6.1l5.2,2.9c-2.6,3.9-2.9,4.3-4.7,6.9l3.8-1.8c1.2,1.8,2,3.5,2.8,4.9h13.9v4.2h-13.6v-.9l-4.5,2.2-.5-.7h-1.6v3.2l3.9-1.6c.4,1.2.9,2.3,1.4,3.5v-4.4h16.5v7.6c.9-2,1.7-4.4,2.4-6.4l3.7,1.4v-2.3c-1.7.3-3.4.6-5.3.6l-1.3-6h4.1l.8-1.2c-1.9-1.5-3.7-2.9-6.1-4.2v3.4h-13.6v-4.2h12.8l.9-1.3h-15.9v-4.6h18v1.6l.5-.7,1.3.7c1.4-2.9,2.7-5.8,3.9-8.7l5.8,2.7ZM180.1,91h-37.6l-.4,1.9h40.3c-1.6,14.3-2.8,15-16,15.7-.5-2.4-1.1-4.8-2.4-6.7h5.6c1.3,0,1.4-.5,1.9-3.5h-30.9l-.9,2.2-9-2c1.3-4.2,2.5-8.4,3.8-12.7h35.5v-1.7h-37.1v-5.3h47.2v12.2ZM140.4,60.1c1.1,0,1.8-.2,2.4-.2l-1.1-1.9-1.4,2.2ZM164.1,46.5h-14.8v-4.7h14.8v4.7ZM155,72.4h3.6v-2.2h-3.6v2.2ZM175.5,60.1c.8-.1,1.4-.2,2.3-.3l-.9-1.7-1.4,2Z"/>
          <path class="cls-27" d="M200.5,52.2c.5-3.5,1.1-7.1,1.5-10.3l9.9,1.1c-.7,3.1-1.3,6.3-2,9.2h8.7v12.5c3-5.5,3.4-7.1,4.5-11.1,1.8-6,2-6.6,2.8-11.7l10.9,1.7c-1.3,5-1.6,6.1-2.3,8.8h20c-.5,27.1-.6,35.9-1.7,45.3-1.1,8.9-5.7,9.2-16.8,9.9-.4-3.3-1.1-6.5-2.6-9.4h6.4c1.6.1,1.9.1,2.2-.1,1.4-2,1.9-31.2,1.9-36.5h-12.5c-2.4,6.7-5,11.4-8.1,16.2-1.2-2.4-2.9-4.6-4.8-6.7v32.2h-9.5v-3h-8.1v4h-8.9v-52h8.4ZM201,60.8v10.7h8.1v-10.7h-8.1ZM201,80.5v10.7h8.1v-10.7h-8.1ZM233,69.8c3.3,3.5,6.6,7.1,9.1,11l-7.5,6c-2.7-3.8-5.5-7.6-8.6-11.1l7.1-5.9Z"/>
          <path class="cls-27" d="M59.2,133.6c0,22,0,34.8-7.4,48.5-1.9-3-4.5-5.8-7.3-7.9,5.4-11.4,5.4-16.3,5.4-49.3h35.9v-8.1h10.2v2.6l3.5-3.9c3.2,2,7,4.8,9.9,7.3l-1.9,2h3.4v8.7h-14.7c0,1.7,0,10.2,1.5,18.9,1.7-4.2,2.7-8.7,3.7-13.1l9.5,3.2c-2.3,8.9-4.4,14.9-9.6,22.8,1.1,1.7,2.2,3.8,3,3.8,1.2,0,1.7-3.1,2.3-6.1,2.5,1.9,5.4,3.5,8.6,4.5-3.7,13-6.8,14.8-9.9,14.8-4.9,0-9.1-6-10.7-8.4-3.5,3.7-7.7,6.7-12.1,9.4-1.4-3-3.5-5.7-6-7.9l2.3-1.4-2.7-1.7c-3.2,4-6.4,7.2-12.8,10.7-1.2-3-3-5.5-5.1-8.1,4.3-1.9,7.1-3.7,10.2-6.8l-1.9-1.2-.4,1.2-7.6-2.7c1.4-4.4,2.6-8.3,3.5-11.7h-1.7v-7.5h3.7l.8-3.4h-4.5v-7.1h24.6v7.1h-11.4l-.8,3.4h11.4c-.8,9-1.7,13.1-3.3,17.6l3.7,2.3-4.6,7.1c3.7-2.2,7.3-5.4,10.6-8.6-2-6.6-4.2-14.6-4.2-31.2h-26.9ZM70.5,153.8c-.3,1.5-.9,3.5-1.2,5,1.2.4,2.5.9,3.6,1.4.5-1.9.9-4.5,1.2-6.3h-3.6ZM96,124.8h3.9c-1.1-1-2.5-1.9-3.9-2.8v2.8Z"/>
          <path class="cls-27" d="M156.7,117.7v18.5h26.4v11.1h-26.4v21.3h22v10.6h-54.5v-10.6h20.5v-21.3h-25.3v-11.1h25.3v-18.5h12Z"/>
          <path class="cls-27" d="M205.8,164.5c-2.4,5.8-3.6,8-7.3,14.3l-8.3-4.5c2.9-4.6,4.2-7.1,7.3-13.9l8.4,4ZM247.6,118.8v23.4h-10.7v-1.8h-28.5v5c0,3,1.7,3.1,7.4,3.1s20.6,0,24,0,3.5-.4,4.5-5.1c3,1.3,6.4,2.5,9.6,3.4-3,8.4-5.1,9.7-10.9,10-1.8,0-4.5,0-17.1,0,2.1,1.9,4.6,4.4,6.6,7.1l-7.1,6c-2.8-3.6-5.8-7.1-8.9-10.2l3.5-2.9c-11.1,0-12.9,0-15.8-.8-5-1.3-6.5-4.8-6.5-8.1v-15.8h39v-4.2h-39.4v-9h50ZM216.4,159.7v10.8c0,2.7,1.2,3,4.1,3,11.5,0,11.7-.2,12.1-1,.4-.6,1-3.2,1.3-5.3,3.2,1.7,6.7,3.1,9.9,4.2-3.2,9.4-5.5,10.2-12.8,10.2h-10.2c-10.5,0-14.4-1-14.3-9.6v-12.4h9.9ZM247.6,159.3c4.4,4.8,7.7,9,10.3,13.2l-8,5.6c-3.7-5.8-6.2-8.9-9.8-13.2l7.5-5.6Z"/>
          <path class="cls-27" d="M271.4,117.1c1.7,2,3.3,4.6,4.6,6.7,1.6-2,3.4-3.9,4.7-5.8l8.5,6.1c-2.4,2.8-5,6-8.1,9.1,3.2,9.4,4.3,16.9,4.3,28.4s0,11-2,15.3c-1.7,3.5-4.5,5.4-14,6-.6-3.5-1.4-6.7-2.8-9.9h5.9c1.9,0,2.3-.8,2.6-3.4.2-2.4.2-3.8.3-10.6-2.7,3-5.6,5.5-8.1,7.5-1.5-3.7-3.3-6.9-5.5-9.5,4-2.9,8.6-6.7,12.5-11-.3-1.8-.6-3.4-1.2-5.1-1.7,1.4-3.5,2.7-5.5,4-1.8-3.2-3.4-6.1-5.7-8.6,2.3-1.4,4.8-3.5,7.1-5.3-1.6-2.7-3.5-5.6-5.8-8.4l8.4-5.5ZM325.3,120.5v10.6h-11.8v13.7h10.6v10.6h-10.6v15.4h14.6v10.2h-41.9v-10.2h15.8v-15.4h-10.6v-10.6h10.6v-13.7h-12.2v-10.6h35.6Z"/>
          <path class="cls-27" d="M357.2,116.9v4.5h9.4v7.6h-9.4v1.9h11.3v7.1h-1.9c1.6.8,3,1.2,5.3,1.7l-.5,3.2,1.8-2.6,1.4,1.1c.4-1.7.4-3,.6-4.6h-4.8v-8.6h5.3v-11.2h9.4l-.3,11.2h9.9c-.7,9.3-.9,15.4-.9,17.4s.2,10.2,1.1,10.2.4-1.3.8-3.9c2.3,1.7,4.7,3.2,7.3,4.2-1.9,7.2-4.6,11.1-9.1,11.1s-7.1-2.2-8.3-15.2l-3.6,5-2.2-1.9c-3.1,6.6-4.1,8.1-8.7,13.8-1.6-1.7-3-3.8-4.8-5.2v1.1c-4.8.5-25.8,2.7-30.1,3l-1.7-8.1c4.3-.2,8.9-.5,12.8-.8v-2.8h-9.8v-6.9h9.8v-5h7.2v-6.3h-5.3c-2.4,6.3-5.3,9-13.5,10.8-.8-2.4-1.8-4.6-3.4-6.8,5.5-.9,6.8-1.9,8.1-4h-5.5v-7.1h12.5v-1.9h-10.2v-7.6h10.2v-4.5h9.6ZM348.8,173.5c-2.2,3.5-4.7,6.8-7.6,9.9l-7.5-6.4c2.7-2.9,5.2-5.9,7.3-9.3l7.8,5.8ZM360.5,169.2c1.7,3.2,3.5,6.1,4.8,9.6l-8.5,4c-1.2-3.1-2.9-6.3-4.5-9.6l8.2-4ZM369.5,145.6c-1.8,1.4-2.8,1.4-5.4,1.4-4,0-5.2,0-7.2-.2v2.4h9.6v6.9h-9.6v2.3c3.4-.2,6.4-.4,9.5-.8v1.9c2.1-2.4,4.1-5.1,6-9.6-1.4-1-2.7-1.9-4.2-2.8l1.2-1.6ZM362.5,138c0,2.4,0,2.6.7,2.6,1.3,0,1.3-.2,1.7-2.6h-2.4ZM376.8,168.8c2.3,3,3.9,5.6,5.7,9l-8.1,4.8c-1.7-3.1-3.4-6.1-5.5-9.2l7.9-4.6ZM384.4,136.7c-.4,3.2-.9,6.5-1.7,9.3,1.1.9,1.8,1.4,2.8,2.2,0-.8-.1-1.6-.1-2.4,0-3,.4-5.9.4-9h-1.4ZM392.4,168.3c2.9,3,5.5,6.5,7.8,10.2l-7.7,5.6c-2.1-3.5-4.8-7.1-7.6-10.6l7.4-5.2Z"/>
        </g>
        <g>
          <g>
            <g>
              <g>
                <rect class="cls-10" x="488.3" y="396.8" width="31.6" height="5.3"/>
                <g>
                  <line class="cls-24" x1="517.2" y1="396.8" x2="517.2" y2="402"/>
                  <line class="cls-24" x1="513.4" y1="396.8" x2="513.4" y2="402"/>
                  <line class="cls-24" x1="509.7" y1="396.8" x2="509.7" y2="402"/>
                  <line class="cls-24" x1="505.9" y1="396.8" x2="505.9" y2="402"/>
                  <line class="cls-24" x1="502.2" y1="396.8" x2="502.2" y2="402"/>
                  <line class="cls-24" x1="498.4" y1="396.8" x2="498.4" y2="402"/>
                  <line class="cls-24" x1="494.7" y1="396.8" x2="494.7" y2="402"/>
                  <line class="cls-24" x1="490.9" y1="396.8" x2="490.9" y2="402"/>
                </g>
              </g>
              <g>
                <rect class="cls-10" x="485.5" y="391.5" width="31.6" height="5.3"/>
                <g>
                  <line class="cls-24" x1="514.5" y1="391.5" x2="514.5" y2="396.8"/>
                  <line class="cls-24" x1="510.7" y1="391.5" x2="510.7" y2="396.8"/>
                  <line class="cls-24" x1="507" y1="391.5" x2="507" y2="396.8"/>
                  <line class="cls-24" x1="503.2" y1="391.5" x2="503.2" y2="396.8"/>
                  <line class="cls-24" x1="499.4" y1="391.5" x2="499.4" y2="396.8"/>
                  <line class="cls-24" x1="495.7" y1="391.5" x2="495.7" y2="396.8"/>
                  <line class="cls-24" x1="491.9" y1="391.5" x2="491.9" y2="396.8"/>
                  <line class="cls-24" x1="488.2" y1="391.5" x2="488.2" y2="396.8"/>
                </g>
              </g>
              <g>
                <rect class="cls-10" x="486.9" y="386.2" width="31.6" height="5.3"/>
                <g>
                  <line class="cls-24" x1="515.9" y1="386.2" x2="515.9" y2="391.5"/>
                  <line class="cls-24" x1="512.1" y1="386.2" x2="512.1" y2="391.5"/>
                  <line class="cls-24" x1="508.4" y1="386.2" x2="508.4" y2="391.5"/>
                  <line class="cls-24" x1="504.6" y1="386.2" x2="504.6" y2="391.5"/>
                  <line class="cls-24" x1="500.9" y1="386.2" x2="500.9" y2="391.5"/>
                  <line class="cls-24" x1="497.1" y1="386.2" x2="497.1" y2="391.5"/>
                  <line class="cls-24" x1="493.3" y1="386.2" x2="493.3" y2="391.5"/>
                  <line class="cls-24" x1="489.6" y1="386.2" x2="489.6" y2="391.5"/>
                </g>
              </g>
              <g>
                <rect class="cls-10" x="488.3" y="380.9" width="31.6" height="5.3"/>
                <g>
                  <line class="cls-24" x1="517.2" y1="380.9" x2="517.2" y2="386.2"/>
                  <line class="cls-24" x1="513.4" y1="380.9" x2="513.4" y2="386.2"/>
                  <line class="cls-24" x1="509.7" y1="380.9" x2="509.7" y2="386.2"/>
                  <line class="cls-24" x1="505.9" y1="380.9" x2="505.9" y2="386.2"/>
                  <line class="cls-24" x1="502.2" y1="380.9" x2="502.2" y2="386.2"/>
                  <line class="cls-24" x1="498.4" y1="380.9" x2="498.4" y2="386.2"/>
                  <line class="cls-24" x1="494.7" y1="380.9" x2="494.7" y2="386.2"/>
                  <line class="cls-24" x1="490.9" y1="380.9" x2="490.9" y2="386.2"/>
                </g>
              </g>
              <g>
                <rect class="cls-10" x="486.8" y="375.7" width="31.6" height="5.3"/>
                <g>
                  <line class="cls-24" x1="515.7" y1="375.7" x2="515.7" y2="380.9"/>
                  <line class="cls-24" x1="512" y1="375.7" x2="512" y2="380.9"/>
                  <line class="cls-24" x1="508.2" y1="375.7" x2="508.2" y2="380.9"/>
                  <line class="cls-24" x1="504.5" y1="375.7" x2="504.5" y2="380.9"/>
                  <line class="cls-24" x1="500.7" y1="375.7" x2="500.7" y2="380.9"/>
                  <line class="cls-24" x1="497" y1="375.7" x2="497" y2="380.9"/>
                  <line class="cls-24" x1="493.2" y1="375.7" x2="493.2" y2="380.9"/>
                  <line class="cls-24" x1="489.5" y1="375.7" x2="489.5" y2="380.9"/>
                </g>
              </g>
              <g>
                <rect class="cls-10" x="489.6" y="370.4" width="31.6" height="5.3"/>
                <g>
                  <line class="cls-24" x1="518.5" y1="370.4" x2="518.5" y2="375.7"/>
                  <line class="cls-24" x1="514.8" y1="370.4" x2="514.8" y2="375.7"/>
                  <line class="cls-24" x1="511" y1="370.4" x2="511" y2="375.7"/>
                  <line class="cls-24" x1="507.3" y1="370.4" x2="507.3" y2="375.7"/>
                  <line class="cls-24" x1="503.5" y1="370.4" x2="503.5" y2="375.7"/>
                  <line class="cls-24" x1="499.8" y1="370.4" x2="499.8" y2="375.7"/>
                  <line class="cls-24" x1="496" y1="370.4" x2="496" y2="375.7"/>
                  <line class="cls-24" x1="492.3" y1="370.4" x2="492.3" y2="375.7"/>
                </g>
              </g>
              <g>
                <rect class="cls-10" x="486.5" y="365.1" width="31.6" height="5.3"/>
                <g>
                  <line class="cls-24" x1="515.4" y1="365.1" x2="515.4" y2="370.4"/>
                  <line class="cls-24" x1="511.7" y1="365.1" x2="511.7" y2="370.4"/>
                  <line class="cls-24" x1="507.9" y1="365.1" x2="507.9" y2="370.4"/>
                  <line class="cls-24" x1="504.2" y1="365.1" x2="504.2" y2="370.4"/>
                  <line class="cls-24" x1="500.4" y1="365.1" x2="500.4" y2="370.4"/>
                  <line class="cls-24" x1="496.6" y1="365.1" x2="496.6" y2="370.4"/>
                  <line class="cls-24" x1="492.9" y1="365.1" x2="492.9" y2="370.4"/>
                  <line class="cls-24" x1="489.1" y1="365.1" x2="489.1" y2="370.4"/>
                </g>
              </g>
              <g>
                <rect class="cls-10" x="488.3" y="359.8" width="31.6" height="5.3"/>
                <g>
                  <line class="cls-24" x1="517.2" y1="359.8" x2="517.2" y2="365.1"/>
                  <line class="cls-24" x1="513.4" y1="359.8" x2="513.4" y2="365.1"/>
                  <line class="cls-24" x1="509.7" y1="359.8" x2="509.7" y2="365.1"/>
                  <line class="cls-24" x1="505.9" y1="359.8" x2="505.9" y2="365.1"/>
                  <line class="cls-24" x1="502.2" y1="359.8" x2="502.2" y2="365.1"/>
                  <line class="cls-24" x1="498.4" y1="359.8" x2="498.4" y2="365.1"/>
                  <line class="cls-24" x1="494.7" y1="359.8" x2="494.7" y2="365.1"/>
                  <line class="cls-24" x1="490.9" y1="359.8" x2="490.9" y2="365.1"/>
                </g>
              </g>
              <g>
                <rect class="cls-10" x="489.1" y="354.6" width="31.6" height="5.3"/>
                <g>
                  <line class="cls-24" x1="518" y1="354.6" x2="518" y2="359.8"/>
                  <line class="cls-24" x1="514.3" y1="354.6" x2="514.3" y2="359.8"/>
                  <line class="cls-24" x1="510.5" y1="354.6" x2="510.5" y2="359.8"/>
                  <line class="cls-24" x1="506.8" y1="354.6" x2="506.8" y2="359.8"/>
                  <line class="cls-24" x1="503" y1="354.6" x2="503" y2="359.8"/>
                  <line class="cls-24" x1="499.2" y1="354.6" x2="499.2" y2="359.8"/>
                  <line class="cls-24" x1="495.5" y1="354.6" x2="495.5" y2="359.8"/>
                  <line class="cls-24" x1="491.7" y1="354.6" x2="491.7" y2="359.8"/>
                </g>
              </g>
              <g>
                <rect class="cls-10" x="485.5" y="349.3" width="31.6" height="5.3"/>
                <g>
                  <line class="cls-24" x1="514.5" y1="349.3" x2="514.5" y2="354.6"/>
                  <line class="cls-24" x1="510.7" y1="349.3" x2="510.7" y2="354.6"/>
                  <line class="cls-24" x1="507" y1="349.3" x2="507" y2="354.6"/>
                  <line class="cls-24" x1="503.2" y1="349.3" x2="503.2" y2="354.6"/>
                  <line class="cls-24" x1="499.4" y1="349.3" x2="499.4" y2="354.6"/>
                  <line class="cls-24" x1="495.7" y1="349.3" x2="495.7" y2="354.6"/>
                  <line class="cls-24" x1="491.9" y1="349.3" x2="491.9" y2="354.6"/>
                  <line class="cls-24" x1="488.2" y1="349.3" x2="488.2" y2="354.6"/>
                </g>
              </g>
            </g>
            <g>
              <g>
                <rect class="cls-10" x="460.7" y="396.8" width="31.6" height="5.3" transform="translate(953.1 798.8) rotate(180)"/>
                <g>
                  <line class="cls-24" x1="463.4" y1="396.8" x2="463.4" y2="402"/>
                  <line class="cls-24" x1="467.2" y1="396.8" x2="467.2" y2="402"/>
                  <line class="cls-24" x1="470.9" y1="396.8" x2="470.9" y2="402"/>
                  <line class="cls-24" x1="474.7" y1="396.8" x2="474.7" y2="402"/>
                  <line class="cls-24" x1="478.4" y1="396.8" x2="478.4" y2="402"/>
                  <line class="cls-24" x1="482.2" y1="396.8" x2="482.2" y2="402"/>
                  <line class="cls-24" x1="486" y1="396.8" x2="486" y2="402"/>
                  <line class="cls-24" x1="489.7" y1="396.8" x2="489.7" y2="402"/>
                </g>
              </g>
              <g>
                <rect class="cls-10" x="461.6" y="391.5" width="31.6" height="5.3" transform="translate(954.8 788.2) rotate(180)"/>
                <g>
                  <line class="cls-24" x1="464.3" y1="391.5" x2="464.3" y2="396.8"/>
                  <line class="cls-24" x1="468.1" y1="391.5" x2="468.1" y2="396.8"/>
                  <line class="cls-24" x1="471.8" y1="391.5" x2="471.8" y2="396.8"/>
                  <line class="cls-24" x1="475.6" y1="391.5" x2="475.6" y2="396.8"/>
                  <line class="cls-24" x1="479.3" y1="391.5" x2="479.3" y2="396.8"/>
                  <line class="cls-24" x1="483.1" y1="391.5" x2="483.1" y2="396.8"/>
                  <line class="cls-24" x1="486.8" y1="391.5" x2="486.8" y2="396.8"/>
                  <line class="cls-24" x1="490.6" y1="391.5" x2="490.6" y2="396.8"/>
                </g>
              </g>
              <g>
                <rect class="cls-10" x="460.2" y="386.2" width="31.6" height="5.3" transform="translate(952 777.7) rotate(180)"/>
                <g>
                  <line class="cls-24" x1="462.9" y1="386.2" x2="462.9" y2="391.5"/>
                  <line class="cls-24" x1="466.7" y1="386.2" x2="466.7" y2="391.5"/>
                  <line class="cls-24" x1="470.4" y1="386.2" x2="470.4" y2="391.5"/>
                  <line class="cls-24" x1="474.2" y1="386.2" x2="474.2" y2="391.5"/>
                  <line class="cls-24" x1="477.9" y1="386.2" x2="477.9" y2="391.5"/>
                  <line class="cls-24" x1="481.7" y1="386.2" x2="481.7" y2="391.5"/>
                  <line class="cls-24" x1="485.4" y1="386.2" x2="485.4" y2="391.5"/>
                  <line class="cls-24" x1="489.2" y1="386.2" x2="489.2" y2="391.5"/>
                </g>
              </g>
              <g>
                <rect class="cls-10" x="460.7" y="380.9" width="31.6" height="5.3" transform="translate(953.1 767.1) rotate(180)"/>
                <g>
                  <line class="cls-24" x1="463.4" y1="380.9" x2="463.4" y2="386.2"/>
                  <line class="cls-24" x1="467.2" y1="380.9" x2="467.2" y2="386.2"/>
                  <line class="cls-24" x1="470.9" y1="380.9" x2="470.9" y2="386.2"/>
                  <line class="cls-24" x1="474.7" y1="380.9" x2="474.7" y2="386.2"/>
                  <line class="cls-24" x1="478.4" y1="380.9" x2="478.4" y2="386.2"/>
                  <line class="cls-24" x1="482.2" y1="380.9" x2="482.2" y2="386.2"/>
                  <line class="cls-24" x1="486" y1="380.9" x2="486" y2="386.2"/>
                  <line class="cls-24" x1="489.7" y1="380.9" x2="489.7" y2="386.2"/>
                </g>
              </g>
              <g>
                <rect class="cls-10" x="461.2" y="375.7" width="31.6" height="5.3" transform="translate(954.1 756.6) rotate(180)"/>
                <g>
                  <line class="cls-24" x1="464" y1="375.7" x2="464" y2="380.9"/>
                  <line class="cls-24" x1="467.7" y1="375.7" x2="467.7" y2="380.9"/>
                  <line class="cls-24" x1="471.5" y1="375.7" x2="471.5" y2="380.9"/>
                  <line class="cls-24" x1="475.2" y1="375.7" x2="475.2" y2="380.9"/>
                  <line class="cls-24" x1="479" y1="375.7" x2="479" y2="380.9"/>
                  <line class="cls-24" x1="482.7" y1="375.7" x2="482.7" y2="380.9"/>
                  <line class="cls-24" x1="486.5" y1="375.7" x2="486.5" y2="380.9"/>
                  <line class="cls-24" x1="490.2" y1="375.7" x2="490.2" y2="380.9"/>
                </g>
              </g>
              <g>
                <rect class="cls-10" x="459.3" y="370.4" width="31.6" height="5.3" transform="translate(950.2 746) rotate(180)"/>
                <g>
                  <line class="cls-24" x1="462" y1="370.4" x2="462" y2="375.7"/>
                  <line class="cls-24" x1="465.8" y1="370.4" x2="465.8" y2="375.7"/>
                  <line class="cls-24" x1="469.5" y1="370.4" x2="469.5" y2="375.7"/>
                  <line class="cls-24" x1="473.3" y1="370.4" x2="473.3" y2="375.7"/>
                  <line class="cls-24" x1="477" y1="370.4" x2="477" y2="375.7"/>
                  <line class="cls-24" x1="480.8" y1="370.4" x2="480.8" y2="375.7"/>
                  <line class="cls-24" x1="484.6" y1="370.4" x2="484.6" y2="375.7"/>
                  <line class="cls-24" x1="488.3" y1="370.4" x2="488.3" y2="375.7"/>
                </g>
              </g>
              <g>
                <rect class="cls-10" x="462.5" y="365.1" width="31.6" height="5.3" transform="translate(956.6 735.5) rotate(180)"/>
                <g>
                  <line class="cls-24" x1="465.2" y1="365.1" x2="465.2" y2="370.4"/>
                  <line class="cls-24" x1="468.9" y1="365.1" x2="468.9" y2="370.4"/>
                  <line class="cls-24" x1="472.7" y1="365.1" x2="472.7" y2="370.4"/>
                  <line class="cls-24" x1="476.5" y1="365.1" x2="476.5" y2="370.4"/>
                  <line class="cls-24" x1="480.2" y1="365.1" x2="480.2" y2="370.4"/>
                  <line class="cls-24" x1="484" y1="365.1" x2="484" y2="370.4"/>
                  <line class="cls-24" x1="487.7" y1="365.1" x2="487.7" y2="370.4"/>
                  <line class="cls-24" x1="491.5" y1="365.1" x2="491.5" y2="370.4"/>
                </g>
              </g>
              <g>
                <rect class="cls-10" x="460.7" y="359.8" width="31.6" height="5.3" transform="translate(953.1 724.9) rotate(180)"/>
                <g>
                  <line class="cls-24" x1="463.4" y1="359.8" x2="463.4" y2="365.1"/>
                  <line class="cls-24" x1="467.2" y1="359.8" x2="467.2" y2="365.1"/>
                  <line class="cls-24" x1="470.9" y1="359.8" x2="470.9" y2="365.1"/>
                  <line class="cls-24" x1="474.7" y1="359.8" x2="474.7" y2="365.1"/>
                  <line class="cls-24" x1="478.4" y1="359.8" x2="478.4" y2="365.1"/>
                  <line class="cls-24" x1="482.2" y1="359.8" x2="482.2" y2="365.1"/>
                  <line class="cls-24" x1="486" y1="359.8" x2="486" y2="365.1"/>
                  <line class="cls-24" x1="489.7" y1="359.8" x2="489.7" y2="365.1"/>
                </g>
              </g>
              <g>
                <rect class="cls-10" x="459.8" y="354.6" width="31.6" height="5.3" transform="translate(951.3 714.4) rotate(180)"/>
                <g>
                  <line class="cls-24" x1="462.6" y1="354.6" x2="462.6" y2="359.8"/>
                  <line class="cls-24" x1="466.3" y1="354.6" x2="466.3" y2="359.8"/>
                  <line class="cls-24" x1="470.1" y1="354.6" x2="470.1" y2="359.8"/>
                  <line class="cls-24" x1="473.8" y1="354.6" x2="473.8" y2="359.8"/>
                  <line class="cls-24" x1="477.6" y1="354.6" x2="477.6" y2="359.8"/>
                  <line class="cls-24" x1="481.3" y1="354.6" x2="481.3" y2="359.8"/>
                  <line class="cls-24" x1="485.1" y1="354.6" x2="485.1" y2="359.8"/>
                  <line class="cls-24" x1="488.8" y1="354.6" x2="488.8" y2="359.8"/>
                </g>
              </g>
              <g>
                <rect class="cls-10" x="462.5" y="349.3" width="31.6" height="5.3" transform="translate(956.6 703.9) rotate(180)"/>
                <g>
                  <line class="cls-24" x1="465.2" y1="349.3" x2="465.2" y2="354.6"/>
                  <line class="cls-24" x1="468.9" y1="349.3" x2="468.9" y2="354.6"/>
                  <line class="cls-24" x1="472.7" y1="349.3" x2="472.7" y2="354.6"/>
                  <line class="cls-24" x1="476.5" y1="349.3" x2="476.5" y2="354.6"/>
                  <line class="cls-24" x1="480.2" y1="349.3" x2="480.2" y2="354.6"/>
                  <line class="cls-24" x1="484" y1="349.3" x2="484" y2="354.6"/>
                  <line class="cls-24" x1="487.7" y1="349.3" x2="487.7" y2="354.6"/>
                  <line class="cls-24" x1="491.5" y1="349.3" x2="491.5" y2="354.6"/>
                </g>
              </g>
              <g>
                <rect class="cls-10" x="460.7" y="344" width="31.6" height="5.3" transform="translate(953.1 693.3) rotate(180)"/>
                <g>
                  <line class="cls-24" x1="463.4" y1="344" x2="463.4" y2="349.3"/>
                  <line class="cls-24" x1="467.2" y1="344" x2="467.2" y2="349.3"/>
                  <line class="cls-24" x1="470.9" y1="344" x2="470.9" y2="349.3"/>
                  <line class="cls-24" x1="474.7" y1="344" x2="474.7" y2="349.3"/>
                  <line class="cls-24" x1="478.4" y1="344" x2="478.4" y2="349.3"/>
                  <line class="cls-24" x1="482.2" y1="344" x2="482.2" y2="349.3"/>
                  <line class="cls-24" x1="486" y1="344" x2="486" y2="349.3"/>
                  <line class="cls-24" x1="489.7" y1="344" x2="489.7" y2="349.3"/>
                </g>
              </g>
              <g>
                <rect class="cls-10" x="462.5" y="338.7" width="31.6" height="5.3" transform="translate(956.6 682.8) rotate(180)"/>
                <g>
                  <line class="cls-24" x1="465.2" y1="338.7" x2="465.2" y2="344"/>
                  <line class="cls-24" x1="468.9" y1="338.7" x2="468.9" y2="344"/>
                  <line class="cls-24" x1="472.7" y1="338.7" x2="472.7" y2="344"/>
                  <line class="cls-24" x1="476.5" y1="338.7" x2="476.5" y2="344"/>
                  <line class="cls-24" x1="480.2" y1="338.7" x2="480.2" y2="344"/>
                  <line class="cls-24" x1="484" y1="338.7" x2="484" y2="344"/>
                  <line class="cls-24" x1="487.7" y1="338.7" x2="487.7" y2="344"/>
                  <line class="cls-24" x1="491.5" y1="338.7" x2="491.5" y2="344"/>
                </g>
              </g>
            </g>
            <g>
              <g>
                <rect class="cls-10" x="433.2" y="396.8" width="31.6" height="5.3" transform="translate(898 798.8) rotate(180)"/>
                <g>
                  <line class="cls-24" x1="435.9" y1="396.8" x2="435.9" y2="402"/>
                  <line class="cls-24" x1="439.6" y1="396.8" x2="439.6" y2="402"/>
                  <line class="cls-24" x1="443.4" y1="396.8" x2="443.4" y2="402"/>
                  <line class="cls-24" x1="447.1" y1="396.8" x2="447.1" y2="402"/>
                  <line class="cls-24" x1="450.9" y1="396.8" x2="450.9" y2="402"/>
                  <line class="cls-24" x1="454.7" y1="396.8" x2="454.7" y2="402"/>
                  <line class="cls-24" x1="458.4" y1="396.8" x2="458.4" y2="402"/>
                  <line class="cls-24" x1="462.2" y1="396.8" x2="462.2" y2="402"/>
                </g>
              </g>
              <g>
                <rect class="cls-10" x="434" y="391.5" width="31.6" height="5.3" transform="translate(899.7 788.2) rotate(180)"/>
                <g>
                  <line class="cls-24" x1="436.8" y1="391.5" x2="436.8" y2="396.8"/>
                  <line class="cls-24" x1="440.5" y1="391.5" x2="440.5" y2="396.8"/>
                  <line class="cls-24" x1="444.3" y1="391.5" x2="444.3" y2="396.8"/>
                  <line class="cls-24" x1="448" y1="391.5" x2="448" y2="396.8"/>
                  <line class="cls-24" x1="451.8" y1="391.5" x2="451.8" y2="396.8"/>
                  <line class="cls-24" x1="455.5" y1="391.5" x2="455.5" y2="396.8"/>
                  <line class="cls-24" x1="459.3" y1="391.5" x2="459.3" y2="396.8"/>
                  <line class="cls-24" x1="463" y1="391.5" x2="463" y2="396.8"/>
                </g>
              </g>
              <g>
                <rect class="cls-10" x="432.6" y="386.2" width="31.6" height="5.3" transform="translate(896.9 777.7) rotate(180)"/>
                <g>
                  <line class="cls-24" x1="435.4" y1="386.2" x2="435.4" y2="391.5"/>
                  <line class="cls-24" x1="439.1" y1="386.2" x2="439.1" y2="391.5"/>
                  <line class="cls-24" x1="442.9" y1="386.2" x2="442.9" y2="391.5"/>
                  <line class="cls-24" x1="446.6" y1="386.2" x2="446.6" y2="391.5"/>
                  <line class="cls-24" x1="450.4" y1="386.2" x2="450.4" y2="391.5"/>
                  <line class="cls-24" x1="454.1" y1="386.2" x2="454.1" y2="391.5"/>
                  <line class="cls-24" x1="457.9" y1="386.2" x2="457.9" y2="391.5"/>
                  <line class="cls-24" x1="461.6" y1="386.2" x2="461.6" y2="391.5"/>
                </g>
              </g>
              <g>
                <rect class="cls-10" x="433.2" y="380.9" width="31.6" height="5.3" transform="translate(898 767.1) rotate(180)"/>
                <g>
                  <line class="cls-24" x1="435.9" y1="380.9" x2="435.9" y2="386.2"/>
                  <line class="cls-24" x1="439.6" y1="380.9" x2="439.6" y2="386.2"/>
                  <line class="cls-24" x1="443.4" y1="380.9" x2="443.4" y2="386.2"/>
                  <line class="cls-24" x1="447.1" y1="380.9" x2="447.1" y2="386.2"/>
                  <line class="cls-24" x1="450.9" y1="380.9" x2="450.9" y2="386.2"/>
                  <line class="cls-24" x1="454.7" y1="380.9" x2="454.7" y2="386.2"/>
                  <line class="cls-24" x1="458.4" y1="380.9" x2="458.4" y2="386.2"/>
                  <line class="cls-24" x1="462.2" y1="380.9" x2="462.2" y2="386.2"/>
                </g>
              </g>
              <g>
                <rect class="cls-10" x="433.7" y="375.7" width="31.6" height="5.3" transform="translate(899 756.6) rotate(180)"/>
                <g>
                  <line class="cls-24" x1="436.4" y1="375.7" x2="436.4" y2="380.9"/>
                  <line class="cls-24" x1="440.2" y1="375.7" x2="440.2" y2="380.9"/>
                  <line class="cls-24" x1="443.9" y1="375.7" x2="443.9" y2="380.9"/>
                  <line class="cls-24" x1="447.7" y1="375.7" x2="447.7" y2="380.9"/>
                  <line class="cls-24" x1="451.4" y1="375.7" x2="451.4" y2="380.9"/>
                  <line class="cls-24" x1="455.2" y1="375.7" x2="455.2" y2="380.9"/>
                  <line class="cls-24" x1="458.9" y1="375.7" x2="458.9" y2="380.9"/>
                  <line class="cls-24" x1="462.7" y1="375.7" x2="462.7" y2="380.9"/>
                </g>
              </g>
              <g>
                <rect class="cls-10" x="431.7" y="370.4" width="31.6" height="5.3" transform="translate(895.1 746) rotate(180)"/>
                <g>
                  <line class="cls-24" x1="434.5" y1="370.4" x2="434.5" y2="375.7"/>
                  <line class="cls-24" x1="438.2" y1="370.4" x2="438.2" y2="375.7"/>
                  <line class="cls-24" x1="442" y1="370.4" x2="442" y2="375.7"/>
                  <line class="cls-24" x1="445.7" y1="370.4" x2="445.7" y2="375.7"/>
                  <line class="cls-24" x1="449.5" y1="370.4" x2="449.5" y2="375.7"/>
                  <line class="cls-24" x1="453.2" y1="370.4" x2="453.2" y2="375.7"/>
                  <line class="cls-24" x1="457" y1="370.4" x2="457" y2="375.7"/>
                  <line class="cls-24" x1="460.8" y1="370.4" x2="460.8" y2="375.7"/>
                </g>
              </g>
              <g>
                <rect class="cls-10" x="434.9" y="365.1" width="31.6" height="5.3" transform="translate(901.5 735.5) rotate(180)"/>
                <g>
                  <line class="cls-24" x1="437.6" y1="365.1" x2="437.6" y2="370.4"/>
                  <line class="cls-24" x1="441.4" y1="365.1" x2="441.4" y2="370.4"/>
                  <line class="cls-24" x1="445.1" y1="365.1" x2="445.1" y2="370.4"/>
                  <line class="cls-24" x1="448.9" y1="365.1" x2="448.9" y2="370.4"/>
                  <line class="cls-24" x1="452.7" y1="365.1" x2="452.7" y2="370.4"/>
                  <line class="cls-24" x1="456.4" y1="365.1" x2="456.4" y2="370.4"/>
                  <line class="cls-24" x1="460.2" y1="365.1" x2="460.2" y2="370.4"/>
                  <line class="cls-24" x1="463.9" y1="365.1" x2="463.9" y2="370.4"/>
                </g>
              </g>
            </g>
          </g>
          <g>
            <path class="cls-27" d="M432.8,434.9c-.5,2.5-1.3,5.2-2.2,7.3.4.3,1,.7,1.7,1.1,1.9,1.1,4.5,1.3,7.8,1.3s8.2-.3,11.3-.7c-.4.9-.9,2.5-1,3.4-2.3.1-7.3.3-10.5.3s-6.1-.3-8.1-1.5c-1.2-.6-2.2-1.6-2.7-1.6s-1.6,1.9-2.3,3.5l-2.2-3.2c1-1.2,2-2.1,2.9-2.7.6-1.4,1.2-3.2,1.6-4.9h-3.5c.6-1.7,1.4-3.9,2-6.1h-2.5v-3h6.6c-.6,2-1.3,4.2-1.9,6.2h1.6c0-.1,1.4.4,1.4.4ZM428.1,427.5c-.3-1.3-1-3.3-1.5-4.8l2.9-.9c.5,1.5,1.2,3.4,1.6,4.6l-3.1,1.1ZM434.5,431.9c-.5.6-1,1-1.4,1.5-.3-.7-1.2-2.3-1.8-3.1,2.2-2,4.3-5.2,5.4-8.5l3,.8c-.4,1.2-1,2.4-1.5,3.6h4.2c-.4-1-.8-2.1-1.3-3l3.1-.9c.7,1.2,1.4,2.7,1.8,3.9h4.4v2.8h-5.7v1.6h4.5v2.7h-4.5v1.7h4.4v2.7h-4.4v1.8h6v2.8h-13v1.2h-3.2v-11.6ZM441.6,429.1h-3.8v1.6h3.8v-1.6ZM441.6,433.4h-3.8v1.7h3.8v-1.7ZM441.6,437.8h-3.8v1.8h3.8v-1.8Z"/>
            <path class="cls-27" d="M477,424.6v22.8h-3.7v-2.2h-14.8v2.3h-3.5v-22.8h22ZM473.4,441.7v-13.7h-14.8v13.7h14.8Z"/>
            <path class="cls-27" d="M489.1,439.1c0-.4-.2-.9-.3-1.4-5.4,1.1-6.3,1.4-6.9,1.7-.2-.5-.6-2-1-2.7.7-.2,1.3-.8,2.2-1.9.3-.4,1-1.3,1.8-2.5-2.2.3-2.8.4-3.2.6-.2-.6-.6-2-1-2.7.5-.2,1-.7,1.5-1.5.6-.8,2.2-3.9,3.2-6.9l2.9,1.2c-1,2.4-2.4,4.9-3.8,6.9h2c.7-1.4,1.4-2.7,1.9-3.9l2.6,1.4c-1.6,3-3.6,6-5.7,8.5l2.8-.5c-.2-.6-.4-1.3-.6-1.8l2.2-.6c.6,1.7,1.3,4,1.6,5.4l-2.4.8ZM484.6,440.6c-.3,2.5-.8,5.1-1.4,6.7-.5-.3-1.7-.6-2.3-.8.7-1.7,1.1-4.1,1.3-6.4l2.3.4ZM487.2,440c.3,1.9.6,4.3.7,5.9l-2.3.6c0-1.6-.3-4-.6-5.9l2.2-.5ZM489.8,439.4c.4,1.4.9,3.1,1,4.4.5-1.3.8-2.7,1.1-4l2.3.8c-.4,2-1.1,4.7-1.9,6.4l-2.4-1.1c.3-.6.6-1.2.9-2l-2.1.6c-.1-1.2-.6-3.1-1-4.6l2.1-.6ZM504.9,446.5c-.3-.8-.6-1.9-1-3-.3,3.1-1,3.9-3,3.9h-3.2c-2.7,0-3.3-.8-3.3-3.1v-4.5h2.7v4.5c0,.7.1.8,1,.8h2.5c.7,0,.9-.3,1-2.5l-1.6.8c-.5-1.1-1.6-3-2.5-4.4l1.9-.9h-7.4v-13.7h4.3c.3-.9.7-2,.8-2.8l3.4.5c-.4.8-.8,1.6-1.2,2.3h6.6v13.7h-6.2c.8,1.3,2,3.1,2.5,4.1l-.6.3c.6.4,1.6.8,2.3.9-.4-1.1-.8-2.1-1.2-3.1l2.2-.9c.8,1.9,1.8,4.3,2.3,5.9l-2.3,1ZM494.8,427v3.9c.7-.4,1.3-.8,1.8-1.2-.4-.4-.9-.9-1.3-1.3l1.7-1c.4.3.7.6,1.1,1,.3-.4.6-.8.8-1.2l2,.4c-.4.7-.9,1.4-1.5,2.1.2.3.4.5.7.7.4-.5.8-1,1.1-1.5l1.8.3v-2.2h-8ZM494.8,435.5h8v-5.9c-.5.8-1,1.5-1.6,2.2.6.8,1.2,1.6,1.6,2.2l-1.7,1.3c-.3-.6-.8-1.3-1.4-2-.9.8-1.9,1.5-3.1,2.1-.3-.5-.8-1.1-1.2-1.4,1.2-.6,2.3-1.4,3.2-2.2-.2-.3-.4-.5-.7-.7-.6.5-1.3,1-2,1.4-.2-.4-.6-.9-1-1.2v4.2Z"/>
            <path class="cls-27" d="M517.7,422.9c-.7,2-1.7,4.1-2.7,6.1v18.9h-3.1v-14c-.5.6-1,1.3-1.5,1.9-.3-.8-1.2-2.6-1.7-3.5,2.4-2.5,4.7-6.5,6-10.5l3,1ZM535,444.6v2.8h-18.8v-2.8h2.4v-15.5h4.8c.1-.6.2-1.2.3-1.9h-6.4v-2.9h6.7c0-.9.2-1.7.2-2.5h3.5c-.1.9-.3,1.7-.4,2.5h6.9v2.9h-7.5c-.2.7-.3,1.3-.5,1.9h6.5v15.5h2.1ZM521.5,431.6v1.5h8.3v-1.5h-8.3ZM529.8,435.4h-8.3v1.5h8.3v-1.5ZM521.5,439.2v1.6h8.3v-1.6h-8.3ZM521.5,444.6h8.3v-1.6h-8.3v1.6Z"/>
          </g>
          <line class="cls-2" x1="405" y1="402.5" x2="555" y2="402.5"/>
          <g>
            <path d="M469.7,472.9c-1.5,1.3-2.8,2.9-3.9,4.7-1.1,1.9-2.1,3.9-2.9,6-.8,2.1-1.4,4.2-1.8,6.4-.4,2.2-.6,4.2-.6,6h-6.1c.3-4.2,1.3-8.2,2.9-12.1,1.6-3.9,3.8-7.4,6.5-10.7h-13.3v-5.3h19.1v4.9Z"/>
            <path d="M482.6,475.3h4.2v3.8h-4.2v10.2c0,1,.2,1.6.5,1.9.3.3,1,.5,1.9.5s1.2,0,1.8-.2v4.4c-.5,0-1,.1-1.6.2-.6,0-1.2,0-1.7,0-.9,0-1.7,0-2.5-.2-.8-.1-1.5-.4-2.1-.7-.6-.4-1.1-.9-1.4-1.5-.3-.6-.5-1.5-.5-2.5v-12.2h-3.4v-3.8h3.4v-6.2h5.7v6.2Z"/>
            <path d="M489.5,467.4h5.7v10.8h.1c.7-1.2,1.6-2,2.8-2.6,1.1-.6,2.2-.8,3.3-.8,1.5,0,2.8.2,3.7.6,1,.4,1.7,1,2.3,1.7.6.7,1,1.6,1.2,2.7.2,1.1.3,2.2.3,3.5v12.7h-5.7v-11.7c0-1.7-.3-3-.8-3.8s-1.5-1.3-2.8-1.3-2.7.5-3.4,1.4-1,2.4-1,4.5v10.8h-5.7v-28.6Z"/>
          </g>
          <g>
            <path class="cls-30" d="M416.7,521.5c3.5-3,4.8-5.1,4.8-6.9s-.6-2.3-2.1-2.3-1.7.5-2.3,1.3l-.5-.5c.8-.9,1.6-1.5,2.9-1.5,1.8,0,2.8,1.2,2.8,2.9s-1.7,4.3-4.4,6.8c.6,0,1.1,0,1.7,0h3.2v.7h-6.1v-.5Z"/>
            <path class="cls-30" d="M424.3,516.9c0-3.5,1.1-5.3,3-5.3s3,1.7,3,5.3-1.1,5.3-3,5.3-3-1.7-3-5.3ZM429.4,516.9c0-3-.9-4.6-2.2-4.6s-2.2,1.5-2.2,4.6.9,4.6,2.2,4.6,2.2-1.5,2.2-4.6Z"/>
            <path class="cls-30" d="M432.3,521.3h2.3v-8.3h-1.8v-.5c.8-.1,1.5-.4,1.9-.6h.7v9.5h2.1v.7h-5.3v-.7Z"/>
            <path class="cls-30" d="M438.9,520.8l.5-.5c.6.6,1.4,1.2,2.7,1.2s2.3-.9,2.3-2.2-1-2.3-3.4-2.3v-.7c2.2,0,3-1,3-2.2s-.8-1.8-1.9-1.8c-.9,0-1.7.5-2.2,1.1l-.5-.6c.7-.7,1.6-1.2,2.7-1.2,1.6,0,2.8.9,2.8,2.5s-.8,2.2-1.9,2.5h0c1.2.3,2.2,1.3,2.2,2.7s-1.3,2.9-3.1,2.9-2.5-.7-3.2-1.4Z"/>
            <path class="cls-30" d="M459.3,519.7h-5.3v3.4h-.7v-3.4h-6.6v-.7h2.4v-3.8h4.2v-2.4h-3.7c-.7,1.1-1.4,2.1-2.3,2.9-.1-.1-.4-.3-.6-.4,1.4-1.2,2.6-3,3.3-5l.7.2c-.2.6-.5,1.1-.8,1.7h8.6v.6h-4.7v2.4h4.4v.6h-4.4v3.2h5.3v.7ZM453.3,519v-3.2h-3.6v3.2h3.6Z"/>
            <path class="cls-30" d="M463.8,517.1c-.3,1.2-.7,2.6-1.2,3.6.3.1.6.5,1.3.8,1,.6,2.3.7,3.9.7s4.1-.1,5.6-.3c0,.2-.2.5-.2.7-1,0-3.8.1-5.5.1s-3.1-.2-4.1-.8c-.6-.3-1.1-.8-1.4-.8s-.8.8-1.2,1.8l-.5-.5c.5-.8,1-1.5,1.4-1.7.4-.9.9-2.1,1.1-3.2h-1.9c.4-.8.9-2.1,1.3-3.2h-1.7v-.6h2.6c-.4,1-.9,2.3-1.3,3.2h1.4s.4.1.4.1ZM462.1,512.9c-.2-.6-.5-1.5-.7-2.2l.6-.2c.2.7.5,1.6.7,2.2l-.6.2ZM465.4,514.1c-.4.5-.8,1-1.2,1.4,0-.1-.3-.4-.5-.5,1.3-1.1,2.4-2.8,3-4.7l.6.2c-.3.8-.6,1.5-1,2.2h3.2c-.2-.6-.6-1.3-1-1.8l.6-.2c.4.6.9,1.5,1.1,2h2.6v.6h-3.1v1.7h2.7v.6h-2.7v1.7h2.7v.6h-2.7v1.8h3.4v.6h-7.1v1h-.7v-7.2ZM469.1,513.3h-3v1.7h3v-1.7ZM469.1,515.6h-3v1.7h3v-1.7ZM469.1,518h-3v1.8h3v-1.8Z"/>
            <path class="cls-30" d="M486.1,511.8v10.7h-.7v-1.1h-8.8v1.2h-.7v-10.8h10.1ZM485.4,520.7v-8.2h-8.8v8.2h8.8Z"/>
            <path class="cls-30" d="M492.9,518.6c0-.2-.1-.5-.2-.9-3.1.6-3.5.7-3.7.8,0-.1-.1-.5-.2-.6.3,0,.6-.4,1-.9.2-.3.8-1,1.3-1.9-1.7.2-2,.3-2.2.4,0-.2-.1-.5-.2-.7.2,0,.4-.4.7-.8.3-.4,1.2-2.1,1.7-3.6l.6.3c-.6,1.4-1.3,2.9-2,4l1.8-.2c.4-.6.7-1.3,1-1.9l.6.3c-.9,1.8-2.1,3.5-3.2,4.9l2.6-.4c-.2-.5-.4-1-.5-1.4h.5c.4.7.8,1.9.9,2.5l-.6.2ZM490.1,519.3c-.2,1.2-.5,2.5-.9,3.4-.1,0-.4-.2-.5-.2.4-.9.7-2.1.8-3.3h.6ZM491.3,519.2c.2,1,.3,2.2.4,3h-.5c0-.7-.2-1.9-.4-2.9h.5ZM492.5,518.9c.3.8.6,1.8.7,2.5l-.5.2c0-.7-.4-1.7-.7-2.5h.5ZM493.3,521.9c.4-.7.7-1.9.9-2.8l.5.2c-.2.9-.5,2.1-.9,2.9l-.5-.3ZM500.6,518h-6.3v-6.3h1.7c.2-.4.5-1,.6-1.4l.7.2c-.2.4-.4.9-.6,1.3h4v6.3ZM500,512.3h-5.1v5.1h5.1v-5.1ZM498.6,522.1c.5,0,.6-.2.6-1.6.1.1.4.2.6.3,0,1.5-.3,1.9-1.1,1.9h-2.3c-1,0-1.3-.2-1.3-.9v-2.6h.6v2.6c0,.3,0,.4.7.4h2.2ZM499.1,516.7c-.2-.4-.6-.8-1-1.2-.5.6-1.1,1.2-1.8,1.7,0-.1-.3-.3-.4-.4.7-.5,1.3-1.1,1.9-1.7-.3-.3-.5-.5-.8-.8-.4.4-.8.9-1.3,1.2,0-.1-.3-.3-.4-.3.5-.4,1-.8,1.3-1.2-.3-.3-.7-.6-1-.9l.4-.3c.3.2.6.5.9.7.3-.4.5-.7.7-1.1h.6c-.2.5-.5,1-.8,1.4.3.2.5.5.8.8.4-.5.7-1,.9-1.5h.6c-.3.6-.7,1.2-1.1,1.8.4.5.8.9,1.1,1.3l-.5.3ZM498.2,520.9c-.3-.6-.9-1.5-1.4-2.3l.5-.2c.5.7,1.1,1.7,1.4,2.2l-.5.3ZM500.1,519.1c.5.8,1,1.9,1.3,2.6l-.5.2c-.3-.7-.8-1.8-1.3-2.6l.5-.2Z"/>
            <path class="cls-30" d="M506.5,510.5c-.4,1.1-.9,2.3-1.5,3.3v9.2h-.6v-8.2c-.4.7-.9,1.3-1.4,1.9,0-.2-.3-.5-.4-.6,1.3-1.4,2.6-3.6,3.4-5.8l.6.2ZM515.3,521.9v.6h-9.3v-.6h1.4v-7.9h2.4c.1-.4.2-1,.3-1.5h-3.6v-.6h3.7c0-.5.2-1.1.2-1.5h.7c0,.5-.2,1-.3,1.5h3.9v.6h-4c-.1.6-.2,1.1-.4,1.5h3.5v7.9h1.4ZM508,514.6v1.4h5.3v-1.4h-5.3ZM513.3,516.6h-5.3v1.4h5.3v-1.4ZM508,520h5.3v-1.4h-5.3v1.4ZM508,521.9h5.3v-1.4h-5.3v1.4Z"/>
            <path class="cls-30" d="M529,511.9v.6h-12.2v-.6h5.9c-.1-.4-.3-1-.5-1.4h.6c.2.4.4,1,.5,1.4h5.6ZM528.5,522.2c0,.4,0,.5-.4.6-.3,0-.8,0-1.7,0,0-.2-.1-.4-.2-.5.6,0,1.2,0,1.4,0,.2,0,.2,0,.2-.2v-4.5h-9.7v5.4h-.7v-6h11.1v5.1ZM526.9,513.4v2.7h-7.8v-2.7h7.8ZM526.2,514h-6.4v1.6h6.4v-1.6ZM525.8,521.4h-5.2v.8h-.6v-3.5h5.8v2.7ZM520.6,519.2v1.6h4.6v-1.6h-4.6Z"/>
            <path class="cls-30" d="M533.8,517.1c-.3,1.2-.7,2.6-1.2,3.6.3.1.6.4,1.3.8,1,.6,2.3.7,3.9.7s4.1-.1,5.6-.3c0,.2-.2.5-.2.7-1,0-3.8.1-5.4.1s-3.1-.2-4.1-.8c-.6-.3-1.1-.8-1.4-.8s-.8.8-1.2,1.8l-.5-.5c.5-.8,1-1.5,1.4-1.7.5-.9.9-2.1,1.1-3.2h-1.9c.4-.8.9-2.1,1.3-3.2h-1.7v-.6h2.6c-.4,1-.9,2.3-1.3,3.2h1.4s.4.1.4.1ZM532.1,512.9c-.2-.6-.4-1.5-.7-2.2l.6-.2c.2.7.5,1.6.7,2.2l-.6.2ZM534.1,513.9v-.6h4.1v-1.3h-3.3v-.6h3.3v-1.2h.7v1.2h3.3v.6h-3.3v1.3h4.3v.6h-9ZM539.8,515.5c.3-.4.6-1.1.8-1.6l.6.2c-.3.5-.6,1.1-.9,1.5h2.6v.6h-4v1.1h3.5v.6h-3.5v1.3h4.2v.6h-4.2v1.6h-.7v-1.6h-4v-.6h4v-1.3h-3.3v-.6h3.3v-1.1h-3.8v-.6h2.2c0-.4-.4-1.1-.7-1.5l.6-.2c.3.4.7,1.1.8,1.5l-.6.2h3.5l-.4-.2Z"/>
            <path class="cls-30" d="M430.1,541.3h2.3v-8.3h-1.8v-.5c.8-.1,1.5-.4,1.9-.6h.7v9.5h2.1v.7h-5.3v-.7Z"/>
            <path class="cls-30" d="M443.3,539.1h-1.4v2.9h-.8v-2.9h-4.5v-.5l4.5-6.8h.8v6.6h1.4v.7ZM441.1,538.4v-3.8c0-.5,0-1.2,0-1.7h0c-.2.5-.5,1-.8,1.4l-2.8,4h3.6Z"/>
            <path class="cls-30" d="M450.8,539.1h-1.4v2.9h-.8v-2.9h-4.5v-.5l4.5-6.8h.8v6.6h1.4v.7ZM448.6,538.4v-3.8c0-.5,0-1.2,0-1.7h0c-.2.5-.5,1-.8,1.4l-2.8,4h3.6Z"/>
            <path class="cls-30" d="M452,543.9c.7-.4,1.2-1,1.2-1.9,0,0-.1,0-.2,0-.4,0-.7-.3-.7-.7s.4-.7.7-.7.8.5.8,1.2c0,1.2-.7,2.1-1.7,2.6l-.2-.5Z"/>
            <path class="cls-30" d="M460.9,533.1c-.4-.5-1-.8-1.7-.8-1.5,0-2.8,1.2-2.9,4.7.7-.8,1.6-1.3,2.5-1.3,1.7,0,2.8,1.1,2.8,3.2s-1.3,3.3-2.8,3.3-3.3-1.8-3.3-5,1.8-5.6,3.7-5.6,1.6.4,2.2,1l-.5.5ZM460.8,538.9c0-1.5-.6-2.5-2.1-2.5s-1.6.4-2.3,1.5c.1,2.2.9,3.7,2.5,3.7s1.9-1.1,1.9-2.6Z"/>
            <path class="cls-30" d="M463,536.9c0-3.5,1.1-5.3,3-5.3s3,1.7,3,5.3-1.1,5.3-3,5.3-3-1.7-3-5.3ZM468.2,536.9c0-3-.9-4.6-2.2-4.6s-2.2,1.5-2.2,4.6.9,4.6,2.2,4.6,2.2-1.5,2.2-4.6Z"/>
            <path class="cls-30" d="M470.4,539.5c0-1.4,1-2.4,1.9-2.9h0c-.7-.5-1.4-1.3-1.4-2.4s1.1-2.5,2.6-2.5,2.7,1.1,2.7,2.7-.8,2.1-1.4,2.5h0c.9.6,1.7,1.3,1.7,2.7s-1.2,2.6-3.1,2.6-3.2-1.2-3.2-2.7ZM475.8,539.6c0-1.6-1.4-2.1-3-2.7-1,.6-1.7,1.5-1.7,2.6s1,2.1,2.4,2.1,2.2-.9,2.2-1.9ZM475.5,534.4c0-1.1-.7-2-2-2s-1.8.8-1.8,1.9,1.3,2,2.5,2.5c.8-.7,1.2-1.4,1.2-2.3Z"/>
            <path class="cls-30" d="M478,543.9c.7-.4,1.2-1,1.2-1.9,0,0-.1,0-.2,0-.4,0-.7-.3-.7-.7s.4-.7.7-.7.8.5.8,1.2c0,1.2-.7,2.1-1.7,2.6l-.2-.5Z"/>
            <path class="cls-30" d="M481.5,536.9c0-3.5,1.1-5.3,3-5.3s3,1.7,3,5.3-1.1,5.3-3,5.3-3-1.7-3-5.3ZM486.7,536.9c0-3-.9-4.6-2.2-4.6s-2.2,1.5-2.2,4.6.9,4.6,2.2,4.6,2.2-1.5,2.2-4.6Z"/>
            <path class="cls-30" d="M494.1,532.5h-5.2v-.7h6.2v.5c-2.4,3.2-2.9,5.7-3.1,9.7h-.9c.2-4.1.9-6.7,3-9.5Z"/>
            <path class="cls-30" d="M496.3,539.5c0-1.4,1-2.4,1.9-2.9h0c-.7-.5-1.4-1.3-1.4-2.4s1.1-2.5,2.6-2.5,2.7,1.1,2.7,2.7-.8,2.1-1.4,2.5h0c.9.6,1.7,1.3,1.7,2.7s-1.2,2.6-3.1,2.6-3.2-1.2-3.2-2.7ZM501.8,539.6c0-1.6-1.4-2.1-3-2.7-1,.6-1.7,1.5-1.7,2.6s1,2.1,2.4,2.1,2.2-.9,2.2-1.9ZM501.5,534.4c0-1.1-.7-2-2-2s-1.8.8-1.8,1.9,1.3,2,2.5,2.5c.8-.7,1.2-1.4,1.2-2.3Z"/>
            <path class="cls-30" d="M516.5,538.2v.6h-6.3c-.5,1.6-1.9,3.2-6,4.2,0-.2-.3-.4-.4-.6,3.8-.9,5.2-2.2,5.7-3.6h-5.6v-.6h1.7v-3.6h4.2v-1.4h.7v1.4h4.4v3.6h1.6ZM507.1,532.5h-2.8v-.6h2.8v-1.5h.7v1.5h2v.6h-2v1.5h-.7v-1.5ZM509.7,538.2c0-.4,0-.9,0-1.3v-1.7h-3.6v3h3.5ZM510.5,536.9c0,.4,0,.9,0,1.3h3.9v-3h-3.8v1.7ZM510.8,539.4c1.9.8,4.4,2.1,5.7,3.1l-.3.6c-1.2-.9-3.7-2.3-5.7-3.1l.3-.5ZM512.8,532.5h-2.2v-.6h2.2v-1.5h.7v1.5h2.7v.6h-2.7v1.5h-.7v-1.5Z"/>
            <path class="cls-30" d="M522.4,533.7c-.5-.6-1.3-1.4-2.1-2.1-.6,1.1-1.5,2.2-2.3,2.9,0-.2-.2-.5-.3-.6,1-.9,2-2.2,2.6-3.6l.5.2c0,.2-.2.4-.3.6.8.6,1.6,1.4,2.1,2l-.3.6ZM522.4,540.8v.6c-1.5.4-3.2.9-4.4,1.2l-.2-.6c.6-.1,1.3-.3,2.2-.5v-4.4h-2.1v-.6h2.1v-1.8h-1.4v-.6h3.4v.6h-1.5v1.8h1.8v.6h-1.8v4.2l1.8-.5ZM518.8,537.9c.3.8.5,2,.5,2.7l-.5.2c0-.7-.3-1.9-.5-2.7h.5ZM521.1,540.4c.2-.7.5-1.9.7-2.7l.5.2c-.2.9-.5,2-.8,2.7l-.4-.2ZM526.8,535.4c.2.5.4,1.2.5,1.7h3.2v.6h-4.2c0,.5-.1,1.1-.2,1.5h3.4s0,.2,0,.3c-.2,2.2-.3,3-.6,3.3-.2.2-.4.3-.7.3-.3,0-.9,0-1.5,0,0-.2,0-.4-.2-.6.6,0,1.2,0,1.4,0s.4,0,.4-.1c.2-.2.3-.9.5-2.6h-2.9c-.4,1.5-1.3,2.6-3,3.3,0-.2-.2-.4-.4-.5,2.3-.9,2.9-2.5,3.1-4.9h-2.5v-.6h3.5c0-.5-.2-1.1-.4-1.6h.6ZM530.5,534.4v2.1h-.6v-1.5h-6.1v1.5h-.6v-2.1h4.6c.3-.6.7-1.4.9-2l.7.2c-.3.6-.6,1.3-.9,1.8h2ZM530.3,532.3h-6.9v-.6h3.2c0-.4-.2-1-.4-1.4h.6c.2.4.3,1,.4,1.4h3v.6ZM525.1,534.2c0-.4-.4-1.1-.6-1.6l.6-.2c.3.5.6,1.1.7,1.6l-.6.2Z"/>
          </g>
        </g>
        <g>
          <g>
            <path class="cls-27" d="M83.8,434.9c-.5,2.5-1.3,5.2-2.2,7.3.4.3,1,.7,1.7,1.1,1.9,1.1,4.5,1.3,7.8,1.3s8.2-.3,11.3-.7c-.4.9-.9,2.5-1,3.4-2.3.1-7.3.3-10.5.3s-6.1-.3-8.1-1.5c-1.2-.6-2.2-1.6-2.7-1.6s-1.6,1.9-2.3,3.5l-2.2-3.2c1-1.2,2-2.1,2.9-2.7.6-1.4,1.2-3.2,1.6-4.9h-3.5c.6-1.7,1.4-3.9,2-6.1h-2.5v-3h6.6c-.6,2-1.3,4.2-1.9,6.2h1.6c0-.1,1.4.4,1.4.4ZM79.1,427.5c-.3-1.3-1-3.3-1.5-4.8l2.9-.9c.5,1.5,1.2,3.4,1.6,4.6l-3.1,1.1ZM85.5,431.9c-.5.6-1,1-1.4,1.5-.3-.7-1.2-2.3-1.8-3.1,2.2-2,4.3-5.2,5.4-8.5l3,.8c-.4,1.2-1,2.4-1.5,3.6h4.2c-.4-1-.8-2.1-1.3-3l3.1-.9c.7,1.2,1.4,2.7,1.8,3.9h4.4v2.8h-5.7v1.6h4.5v2.7h-4.5v1.7h4.4v2.7h-4.4v1.8h6v2.8h-13v1.2h-3.2v-11.6ZM92.6,429.1h-3.8v1.6h3.8v-1.6ZM92.6,433.4h-3.8v1.7h3.8v-1.7ZM92.6,437.8h-3.8v1.8h3.8v-1.8Z"/>
            <path class="cls-27" d="M128,424.6v22.8h-3.7v-2.2h-14.8v2.3h-3.5v-22.8h22ZM124.4,441.7v-13.7h-14.8v13.7h14.8Z"/>
            <path class="cls-27" d="M157.8,444.9v2.4h-25.5v-2.4h11.1v-1h-8.6v-2.2h8.6v-.9h-8v-7.2h19.3v7.2h-8.1v.9h8.7v2.2h-8.7v1h11.2ZM157.7,432.8h-25.3v-2.4h25.3v2.4ZM154.1,429.6h-18.2v-6.9h18.2v6.9ZM138.5,436.4h4.9v-1h-4.9v1ZM143.4,439v-1h-4.9v1h4.9ZM150.7,424.4h-11.6v.9h11.6v-.9ZM150.7,426.9h-11.6v.9h11.6v-.9ZM151.5,435.4h-4.9v1h4.9v-1ZM151.5,438h-4.9v1h4.9v-1Z"/>
          </g>
          <g>
            <polygon class="cls-9" points="168 402.5 66.9 402.5 68 399.2 63.5 394.8 170.4 394.8 168 402.5"/>
            <rect class="cls-15" x="63.5" y="392.2" width="106.9" height="2.6"/>
            <polygon class="cls-15" points="73.5 388.3 146.2 388.3 146.2 392.2 70.8 392.2 73.5 388.3"/>
            <g>
              <rect class="cls-3" x="82.6" y="380.7" width="4.9" height="7.6"/>
              <rect class="cls-8" x="82.6" y="378" width="4.9" height="2.7"/>
            </g>
            <g>
              <rect class="cls-3" x="99.2" y="380.7" width="4.9" height="7.6"/>
              <rect class="cls-8" x="99.2" y="378" width="4.9" height="2.7"/>
            </g>
            <g>
              <rect class="cls-3" x="115.9" y="380.7" width="4.9" height="7.6"/>
              <rect class="cls-8" x="115.9" y="378" width="4.9" height="2.7"/>
            </g>
            <g>
              <rect class="cls-3" x="132.5" y="380.7" width="4.9" height="7.6"/>
              <rect class="cls-8" x="132.5" y="378" width="4.9" height="2.7"/>
            </g>
          </g>
          <line class="cls-2" x1="42" y1="402.5" x2="192" y2="402.5"/>
          <g>
            <path d="M91.3,496h-5.7v-18.2h-7v-4.3c1,0,1.9,0,2.9-.2.9-.2,1.8-.5,2.5-.9s1.4-1,1.9-1.7c.5-.7.8-1.6,1-2.7h4.5v28Z"/>
            <path d="M111.8,475.2c-.2-.9-.6-1.7-1.3-2.4-.7-.7-1.5-1-2.5-1s-1.9.3-2.6.9c-.7.6-1.2,1.3-1.6,2.2-.4.9-.7,1.8-.9,2.8-.2,1-.3,1.9-.3,2.6h0c.8-1,1.7-1.8,2.7-2.3s2.2-.7,3.6-.7,2.4.3,3.5.8c1.1.5,2.1,1.2,2.9,2.1.7.9,1.3,1.8,1.6,2.9s.5,2.2.5,3.3-.2,2.8-.7,4c-.5,1.2-1.1,2.3-2,3.2s-1.9,1.6-3.1,2.2c-1.2.5-2.5.8-4,.8-2.1,0-3.9-.4-5.3-1.3s-2.5-1.9-3.3-3.3c-.8-1.4-1.4-2.9-1.7-4.7s-.5-3.5-.5-5.2.2-3.4.6-5.2c.4-1.7,1-3.3,1.9-4.7.9-1.4,2-2.5,3.4-3.4,1.4-.9,3.1-1.3,5.1-1.3s4.5.7,6.1,2,2.6,3.3,3,5.7h-5.4ZM105.7,481.9c-.6.3-1,.7-1.4,1.1-.4.5-.7,1-.8,1.7s-.3,1.3-.3,2,0,1.3.3,1.9c.2.6.5,1.2.9,1.7.4.5.9.9,1.4,1.2.6.3,1.2.4,1.9.4s1.3-.1,1.8-.4c.5-.3,1-.7,1.4-1.2.4-.5.7-1,.8-1.6.2-.6.3-1.2.3-1.9s0-1.3-.3-1.9c-.2-.6-.4-1.2-.8-1.7-.3-.5-.8-.9-1.3-1.2-.5-.3-1.2-.5-1.9-.5s-1.4.1-2,.4Z"/>
            <path d="M129.9,475.3h4.2v3.8h-4.2v10.2c0,1,.2,1.6.5,1.9.3.3,1,.5,1.9.5s1.2,0,1.8-.2v4.4c-.5,0-1,.1-1.6.2-.6,0-1.2,0-1.7,0-.9,0-1.7,0-2.5-.2-.8-.1-1.5-.4-2.1-.7-.6-.4-1.1-.9-1.4-1.5-.3-.6-.5-1.5-.5-2.5v-12.2h-3.4v-3.8h3.4v-6.2h5.7v6.2Z"/>
            <path d="M136.8,467.4h5.7v10.8h.1c.7-1.2,1.6-2,2.8-2.6,1.1-.6,2.2-.8,3.3-.8,1.5,0,2.8.2,3.7.6,1,.4,1.7,1,2.3,1.7.6.7,1,1.6,1.2,2.7.2,1.1.3,2.2.3,3.5v12.7h-5.7v-11.7c0-1.7-.3-3-.8-3.8s-1.5-1.3-2.8-1.3-2.7.5-3.4,1.4-1,2.4-1,4.5v10.8h-5.7v-28.6Z"/>
          </g>
          <g>
            <path class="cls-30" d="M46.7,521.5c3.5-3,4.8-5.1,4.8-6.9s-.6-2.3-2.1-2.3-1.7.5-2.3,1.3l-.5-.5c.8-.9,1.6-1.5,2.9-1.5,1.8,0,2.8,1.2,2.8,2.9s-1.7,4.3-4.4,6.8c.6,0,1.1,0,1.7,0h3.2v.7h-6.2v-.5Z"/>
            <path class="cls-30" d="M54.3,516.9c0-3.5,1.1-5.3,3-5.3s3,1.7,3,5.3-1.1,5.3-3,5.3-3-1.7-3-5.3ZM59.4,516.9c0-3-.9-4.6-2.2-4.6s-2.2,1.5-2.2,4.6.9,4.6,2.2,4.6,2.2-1.5,2.2-4.6Z"/>
            <path class="cls-30" d="M62.3,521.3h2.3v-8.3h-1.8v-.5c.8-.1,1.5-.4,1.9-.6h.7v9.5h2.1v.7h-5.3v-.7Z"/>
            <path class="cls-30" d="M68.9,520.8l.5-.5c.6.6,1.4,1.2,2.7,1.2s2.3-.9,2.3-2.2-1-2.3-3.4-2.3v-.7c2.2,0,3-1,3-2.2s-.8-1.8-1.9-1.8c-.9,0-1.7.5-2.2,1.1l-.5-.6c.7-.7,1.6-1.2,2.7-1.2,1.6,0,2.8.9,2.8,2.5s-.8,2.2-1.9,2.5h0c1.2.3,2.2,1.3,2.2,2.7s-1.3,2.9-3.1,2.9-2.5-.7-3.2-1.4Z"/>
            <path class="cls-30" d="M89.3,519.7h-5.3v3.4h-.7v-3.4h-6.6v-.7h2.4v-3.8h4.2v-2.4h-3.7c-.7,1.1-1.4,2.1-2.3,2.9-.1-.1-.4-.3-.6-.4,1.4-1.2,2.6-3,3.3-5l.7.2c-.2.6-.5,1.1-.8,1.7h8.6v.6h-4.7v2.4h4.4v.6h-4.4v3.2h5.3v.7ZM83.3,519v-3.2h-3.6v3.2h3.6Z"/>
            <path class="cls-30" d="M99,512.1c1.4,1.2,3,2.9,3.8,4.1l-.6.4c-.2-.4-.6-.8-1-1.3-8.4.5-9.1.5-9.6.7,0-.2-.1-.5-.2-.7.3,0,.7-.4,1.1-.9.5-.5,2.2-2.3,3.4-4.1l.7.3c-1.2,1.7-2.6,3.2-3.9,4.4l8-.4c-.7-.8-1.5-1.6-2.3-2.3l.5-.4ZM92.7,517.3h8.7v5.7h-.7v-.8h-7.3v.8h-.7v-5.7ZM93.3,518v3.6h7.3v-3.6h-7.3Z"/>
            <path class="cls-30" d="M106.6,516.2c-.4-.5-1.3-1.1-2-1.5l.4-.4c.7.4,1.6,1,2,1.5l-.4.5ZM104.8,522.5c.5-1.1,1.3-2.9,1.8-4.5l.5.4c-.5,1.4-1.1,3.2-1.7,4.5l-.6-.4ZM106.9,512.5c-.4-.5-1.2-1.1-1.9-1.6l.4-.4c.7.4,1.6,1.1,2,1.5l-.4.5ZM108.3,515.4c-.1.7-.3,1.5-.6,2,0,0-.3-.2-.4-.3.3-.5.5-1.2.6-1.8h.5ZM110.3,514.8c0-.1,0-.3-.2-.4-2,.3-2.3.3-2.5.4,0-.1-.1-.4-.2-.5.2,0,.4-.2.6-.5.2-.2.6-.6,1-1.2-1.1,0-1.3.2-1.4.2,0,0-.1-.3-.2-.4.2,0,.3-.2.4-.3.1-.2.7-1,.9-1.7l.5.2c-.3.6-.6,1.3-1,1.7h1.1c.1-.3.3-.5.4-.7l.5.2c-.6.9-1.2,1.7-1.8,2.4l1.5-.2c0-.2-.2-.4-.3-.5l.4-.2c.3.4.6,1,.7,1.3l-.4.2ZM116.6,520.3s0,.2,0,.3c-.3,1.2-.6,1.9-1,2.1-.3.2-.5.2-.9.2s-1.2,0-2.1,0c0-.2,0-.4-.2-.6.9,0,1.9.1,2.2.1s.5,0,.6,0c.3-.2.5-.6.7-1.5h-7.6c.2-.5.4-1.3.6-1.9h6.5v-.9h-7.1v-.5h7.7v1.9h-6.7c0,.3-.2.6-.3.9h7.5ZM109,517.1c0-.5-.2-1.2-.3-1.8h.4c.2.5.4,1.2.4,1.6l-.5.2ZM110.1,515c.3.5.5,1.2.6,1.6l-.4.2c0-.4-.3-1.1-.6-1.6h.4ZM113.9,512.3h-3.4v-.5h3.4v.5ZM110.9,514.9h2.6v2.1h-2.6v-2.1ZM113.5,513.3h-2.6v-.5h2.6v.5ZM110.9,513.8h2.6v.5h-2.6v-.5ZM111.4,516.5h1.6v-1.1h-1.6v1.1ZM112.1,511.7c-.1-.3-.4-.8-.6-1.2l.5-.2c.3.3.5.8.6,1.1l-.5.2ZM114.7,515.3c-.1.7-.4,1.4-.6,2,0,0-.3-.2-.4-.3.3-.5.4-1.2.6-1.8h.5ZM116.8,514.9c0-.2-.1-.4-.3-.6-2,.3-2.3.3-2.5.4,0-.1-.1-.4-.2-.5.2,0,.4-.2.6-.5.2-.2.6-.6,1-1.2-1,0-1.3.1-1.4.2,0-.1-.1-.4-.2-.5.2,0,.3-.1.4-.3.1-.2.7-1,.9-1.7l.5.2c-.3.6-.6,1.2-1,1.7h1.1c.2-.3.3-.5.4-.7l.5.2c-.6.9-1.2,1.7-1.8,2.3l1.5-.2c0-.2-.2-.4-.3-.5l.4-.2c.3.4.7,1.1.8,1.5l-.4.2ZM115.5,517.2c0-.5-.2-1.3-.4-1.9h.4c.2.5.4,1.3.4,1.8l-.5.2ZM116.5,515c.3.6.6,1.4.7,1.8l-.4.2c0-.5-.4-1.3-.6-1.9l.4-.2Z"/>
            <path class="cls-30" d="M130.6,514.7c-.5,2.2-1.2,4-2.2,5.4.4,1.5,1.1,2.3,1.8,2.3s.6-.7.6-2.6c.2.1.4.3.6.3-.1,2.2-.4,2.9-1.3,2.9s-1.7-.9-2.2-2.4c-.7.9-1.6,1.7-2.6,2.3,0-.1-.3-.4-.5-.5,1.1-.7,2.1-1.5,2.9-2.6-.5-1.8-.8-4.2-.9-6.9h-6.5v3.3c0,2-.2,4.7-1.3,6.7-.1-.1-.4-.3-.5-.4,1.1-1.9,1.2-4.4,1.2-6.3v-4h7.1c0-.7,0-1.4,0-2.1h.7c0,.7,0,1.4,0,2.1h3.7v.6h-3.7c0,2.5.4,4.6.7,6.2.8-1.3,1.4-2.9,1.8-4.7h.6ZM125.5,521.5c-.4-.3-.8-.6-1.4-1-.7.9-1.7,1.6-3.1,2.1,0-.2-.3-.4-.4-.5,1.3-.4,2.3-1.1,2.9-1.9-.7-.4-1.4-.8-2.1-1.1.2-.5.5-1.1.7-1.7h-1.2v-.5h1.4c.2-.6.4-1.3.6-1.8h-1.8v-.6h5.1v.6h-2.8c-.2.6-.3,1.2-.6,1.8h1.9c0-.3,0-.6.1-.9h.6c0,.4,0,.7-.1.9h.8v.5h-.9c-.2,1-.5,1.9-1,2.6.6.4,1.2.7,1.6,1.1l-.5.4ZM122.8,517.4c-.2.5-.4,1-.6,1.5.5.3,1.1.6,1.7.9.4-.7.7-1.5.9-2.3h-2ZM130.3,512.2c-.4-.4-1.3-1.1-2.1-1.5l.4-.4c.7.4,1.6,1,2.1,1.4l-.4.4Z"/>
            <path class="cls-30" d="M139.3,515.6v5.9h5.1v.7h-10.9v-.7h5v-5.9h-5.8v-.7h5.8v-4.5h.7v4.5h5.9v.7h-5.9Z"/>
            <path class="cls-30" d="M146.9,522.1c.7-.9,1.2-2.4,1.5-3.4l.6.2c-.3,1.1-.8,2.6-1.5,3.5l-.6-.3ZM156.8,511.6h-8.6v-.6h9.3v3.2h-8.2v1.9c0,.5.3.6,1.8.6h5.6c1.2,0,1.3-.3,1.4-1.7.2.1.5.2.7.2-.1,1.7-.5,2-2.1,2h-5.5c-2,0-2.5-.2-2.5-1.2v-2.5h8.2v-2ZM155.1,522.1c.8,0,.9-.2,1-1.7.2.1.4.2.6.3-.1,1.6-.4,2-1.6,2h-3.6c-1.4,0-1.8-.2-1.8-1.1v-2.9h.7v2.9c0,.4.2.5,1.1.5h3.6ZM152.2,517.7c.9.8,1.9,1.9,2.3,2.7l-.6.4c-.4-.8-1.4-1.9-2.3-2.7l.5-.3ZM157.1,518.3c.7,1.2,1.5,2.7,1.8,3.7l-.7.3c-.3-1-1-2.6-1.8-3.7l.6-.2Z"/>
            <path class="cls-30" d="M164.9,518.6c0-.2-.1-.5-.2-.9-3.1.6-3.5.7-3.7.8,0-.1-.1-.5-.2-.6.3,0,.6-.4,1-.9.2-.3.8-1,1.3-1.9-1.7.2-2,.3-2.2.4,0-.2-.1-.5-.2-.7.2,0,.4-.4.7-.8.3-.4,1.2-2.1,1.7-3.6l.6.3c-.6,1.4-1.3,2.9-2,4l1.8-.2c.4-.6.7-1.3,1-1.9l.6.3c-.9,1.8-2.1,3.5-3.2,4.9l2.6-.4c-.2-.5-.4-1-.5-1.4h.5c.4.7.8,1.9.9,2.5l-.6.2ZM162.1,519.3c-.2,1.2-.5,2.5-.9,3.4-.1,0-.4-.2-.5-.2.4-.9.7-2.1.8-3.3h.6ZM163.3,519.2c.2,1,.3,2.2.4,3h-.5c0-.7-.2-1.9-.4-2.9h.5ZM164.5,518.9c.3.8.6,1.8.7,2.5l-.5.2c0-.7-.4-1.7-.7-2.5h.5ZM165.3,521.9c.4-.7.7-1.9.9-2.8l.5.2c-.2.9-.5,2.1-.9,2.9l-.5-.3ZM172.6,518h-6.3v-6.3h1.7c.2-.4.5-1,.6-1.4l.7.2c-.2.4-.4.9-.6,1.3h4v6.3ZM172,512.3h-5.1v5.1h5.1v-5.1ZM170.6,522.1c.5,0,.6-.2.6-1.6.1.1.4.2.6.3,0,1.5-.3,1.9-1.1,1.9h-2.3c-1,0-1.3-.2-1.3-.9v-2.6h.6v2.6c0,.3,0,.4.7.4h2.2ZM171.1,516.7c-.2-.4-.6-.8-1-1.2-.5.6-1.1,1.2-1.8,1.7,0-.1-.3-.3-.4-.4.7-.5,1.3-1.1,1.9-1.7-.3-.3-.5-.5-.8-.8-.4.4-.8.9-1.3,1.2,0-.1-.3-.3-.4-.3.5-.4,1-.8,1.3-1.2-.3-.3-.7-.6-1-.9l.4-.3c.3.2.6.5.9.7.3-.4.5-.7.7-1.1h.6c-.2.5-.5,1-.8,1.4.3.2.5.5.8.8.4-.5.7-1,.9-1.5h.6c-.3.6-.7,1.2-1.1,1.8.4.5.8.9,1.1,1.3l-.5.3ZM170.2,520.9c-.3-.6-.9-1.5-1.4-2.3l.5-.2c.5.7,1.1,1.7,1.4,2.2l-.5.3ZM172.1,519.1c.5.8,1,1.9,1.3,2.6l-.5.2c-.3-.7-.8-1.8-1.3-2.6l.5-.2Z"/>
            <path class="cls-30" d="M177.8,517.1c-.3,1.2-.7,2.6-1.2,3.6.3.1.6.5,1.3.8,1,.6,2.3.7,3.9.7s4.1-.1,5.6-.3c0,.2-.2.5-.2.7-1,0-3.8.1-5.5.1s-3.1-.2-4.1-.8c-.6-.3-1.1-.8-1.4-.8s-.8.8-1.2,1.8l-.5-.5c.5-.8,1-1.5,1.4-1.7.4-.9.9-2.1,1.1-3.2h-1.9c.4-.8.9-2.1,1.3-3.2h-1.7v-.6h2.6c-.4,1-.9,2.3-1.3,3.2h1.4s.4.1.4.1ZM176.1,512.9c-.2-.6-.5-1.5-.7-2.2l.6-.2c.2.7.5,1.6.7,2.2l-.6.2ZM179.4,514.1c-.4.5-.8,1-1.2,1.4,0-.1-.3-.4-.5-.5,1.3-1.1,2.4-2.8,3-4.7l.6.2c-.3.8-.6,1.5-1,2.2h3.2c-.2-.6-.6-1.3-1-1.8l.6-.2c.4.6.9,1.5,1.1,2h2.6v.6h-3.1v1.7h2.7v.6h-2.7v1.7h2.7v.6h-2.7v1.8h3.4v.6h-7.1v1h-.7v-7.2ZM183.1,513.3h-3v1.7h3v-1.7ZM183.1,515.6h-3v1.7h3v-1.7ZM183.1,518h-3v1.8h3v-1.8Z"/>
            <path class="cls-30" d="M57.4,531.8v10.7h-.7v-1.1h-8.8v1.2h-.7v-10.8h10.1ZM56.7,540.7v-8.2h-8.8v8.2h8.8Z"/>
            <path class="cls-30" d="M72.6,542.1v.6h-12.6v-.6h6v-1h-4.8v-.5h4.8v-.9h-4.4v-3.5h9.6v3.5h-4.6v.9h4.9v.5h-4.9v1h6ZM72.5,535.4h-12.4v-.6h12.4v.6ZM70.8,534.2h-8.9v-3.4h8.9v3.4ZM62.2,537.6h3.7v-1h-3.7v1ZM65.9,539.1v-1h-3.7v1h3.7ZM70.1,531.3h-7.6v.9h7.6v-.9ZM70.1,532.7h-7.6v1h7.6v-1ZM70.5,536.7h-4v1h4v-1ZM70.5,538.1h-4v1h4v-1Z"/>
            <path class="cls-30" d="M77.1,537.1c-.3,1.2-.7,2.6-1.2,3.6.3.1.6.4,1.3.8,1,.6,2.3.7,3.9.7s4.1-.1,5.6-.3c0,.2-.2.5-.2.7-1,0-3.8.1-5.4.1s-3.1-.2-4.1-.8c-.6-.3-1.1-.8-1.4-.8s-.8.8-1.2,1.8l-.5-.5c.5-.8,1-1.5,1.4-1.7.5-.9.9-2.1,1.1-3.2h-1.9c.4-.8.9-2.1,1.3-3.2h-1.7v-.6h2.6c-.4,1-.9,2.3-1.3,3.2h1.4s.4.1.4.1ZM75.4,532.9c-.2-.6-.4-1.5-.7-2.2l.6-.2c.2.7.5,1.6.7,2.2l-.6.2ZM77.4,533.9v-.6h4.1v-1.3h-3.3v-.6h3.3v-1.2h.7v1.2h3.3v.6h-3.3v1.3h4.3v.6h-9ZM83.1,535.5c.3-.4.6-1.1.8-1.6l.6.2c-.3.5-.6,1.1-.9,1.5h2.6v.6h-4v1.1h3.5v.6h-3.5v1.3h4.2v.6h-4.2v1.6h-.7v-1.6h-4v-.6h4v-1.3h-3.3v-.6h3.3v-1.1h-3.8v-.6h2.2c0-.4-.4-1-.7-1.5l.6-.2c.3.4.7,1.1.8,1.5l-.6.2h3.5l-.4-.2Z"/>
            <path class="cls-30" d="M87.7,540.9l.4-.6c.6.6,1.3,1.2,2.7,1.2s2.4-1.1,2.4-2.7-.9-2.6-2.3-2.6-1.2.3-1.8.6l-.5-.3.4-4.7h4.7v.7h-3.9l-.3,3.4c.5-.3,1-.5,1.7-.5,1.7,0,3,1,3,3.3s-1.6,3.5-3.2,3.5-2.5-.7-3.2-1.3Z"/>
            <path class="cls-30" d="M95.5,543.9c.7-.4,1.2-1,1.2-1.9,0,0-.1,0-.2,0-.4,0-.7-.3-.7-.7s.4-.7.7-.7.8.5.8,1.2c0,1.2-.7,2.1-1.7,2.6l-.2-.5Z"/>
            <path class="cls-30" d="M105.3,539.1h-1.4v2.9h-.8v-2.9h-4.5v-.5l4.5-6.8h.8v6.6h1.4v.7ZM103.1,538.4v-3.8c0-.5,0-1.2,0-1.7h0c-.2.5-.5,1-.8,1.4l-2.8,4h3.6Z"/>
            <path class="cls-30" d="M111.6,532.5h-5.2v-.7h6.2v.5c-2.4,3.2-2.9,5.7-3.1,9.7h-.9c.2-4.1.9-6.7,3-9.5Z"/>
            <path class="cls-30" d="M114.5,541.3h2.3v-8.3h-1.8v-.5c.8-.1,1.5-.4,1.9-.6h.7v9.5h2.1v.7h-5.3v-.7Z"/>
            <path class="cls-30" d="M121.5,543.9c.7-.4,1.2-1,1.2-1.9,0,0-.1,0-.2,0-.4,0-.7-.3-.7-.7s.4-.7.7-.7.8.5.8,1.2c0,1.2-.7,2.1-1.7,2.6l-.2-.5Z"/>
            <path class="cls-30" d="M124.9,541.5c3.5-3,4.8-5.1,4.8-6.9s-.6-2.3-2.1-2.3-1.7.5-2.3,1.3l-.5-.5c.8-.9,1.6-1.5,2.9-1.5,1.8,0,2.8,1.2,2.8,2.9s-1.7,4.3-4.4,6.8c.6,0,1.1,0,1.7,0h3.2v.7h-6.1v-.5Z"/>
            <path class="cls-30" d="M132.4,541.5c3.5-3,4.8-5.1,4.8-6.9s-.6-2.3-2.1-2.3-1.7.5-2.3,1.3l-.5-.5c.8-.9,1.6-1.5,2.9-1.5,1.8,0,2.8,1.2,2.8,2.9s-1.7,4.3-4.4,6.8c.6,0,1.1,0,1.7,0h3.2v.7h-6.1v-.5Z"/>
            <path class="cls-30" d="M140,536.9c0-3.5,1.1-5.3,3-5.3s3,1.7,3,5.3-1.1,5.3-3,5.3-3-1.7-3-5.3ZM145.2,536.9c0-3-.9-4.6-2.2-4.6s-2.2,1.5-2.2,4.6.9,4.6,2.2,4.6,2.2-1.5,2.2-4.6Z"/>
            <path class="cls-30" d="M147.4,542.8c.7-.7,1.4-1.7,1.9-2.6l.6.2c-.5.9-1.2,2-1.9,2.7l-.6-.3ZM147.8,531h6.6v.6h-3.1c-.2.5-.5,1.1-.7,1.5h3.2s.4.1.4.1c-.8,3.8-3.1,5.6-5.9,6.5,0-.2-.2-.4-.4-.6,1.4-.4,2.7-1,3.7-2.1-.6-.6-1.6-1.3-2.5-1.9-.4.4-.8.8-1.1,1.1,0-.1-.3-.4-.5-.5,1.3-1,2.4-2.5,3.1-4.2h-2.8v-.6ZM150.2,533.8c-.2.4-.5.7-.7,1,.9.6,1.9,1.3,2.5,1.9.6-.8,1.1-1.7,1.4-2.9h-3.2ZM152.3,540.4c.2.8.3,1.8.3,2.5h-.6c0-.5-.1-1.6-.3-2.4h.6ZM155.2,540.3c.4.8.8,1.8.9,2.5l-.6.2c-.1-.7-.5-1.7-.9-2.5h.6ZM156.3,537.4h-.7v-5.5h.7v5.5ZM159,538.6c0,.5-.1.7-.5.8-.4.1-1.1.1-2.2.1,0-.2-.2-.5-.3-.7.9,0,1.8,0,2,0,.2,0,.3,0,.3-.3v-8.1h.7v8.1ZM158.1,540c.7.8,1.6,2,2,2.7l-.6.3c-.4-.7-1.2-1.9-1.9-2.8l.6-.3Z"/>
            <path class="cls-30" d="M163.7,536.3c-.5-.4-1.6-1-2.4-1.4l.4-.5c.8.4,1.8,1,2.4,1.4l-.4.6ZM161.6,542.4c.7-1.1,1.7-3,2.4-4.6l.5.4c-.7,1.5-1.6,3.3-2.3,4.6l-.6-.4ZM164.1,532.5c-.5-.4-1.5-1.1-2.2-1.5l.4-.5c.8.4,1.7,1,2.2,1.4l-.4.5ZM170.7,531.7v2.2h2.8v9h-.7v-.6h-6.8v.7h-.6v-9h2.5v-2.2h-3.1v-.7h9.3v.7h-3.4ZM172.8,541.7v-4.2c0,0-.1,0-.2,0h-1.6c-.8,0-1-.2-1-.9v-2.1h-1.6v.6c0,1-.4,2.2-2,3.1,0-.1-.3-.4-.4-.4,1.5-.8,1.8-1.8,1.8-2.6v-.6h-1.9v7.1h6.8ZM167.1,539.1h4.9v.6h-4.9v-.6ZM170.1,531.7h-1.6v2.2h1.6v-2.2ZM172.8,534.6h-2.2v2.1c0,.2,0,.3.4.3h1.4c.2,0,.3,0,.3,0v-2.3Z"/>
            <path class="cls-30" d="M187.9,536.7h-3.1v6.3h-.7v-6.3h-4.7c0,2.4-.6,4.7-3.6,6.4,0-.2-.3-.4-.5-.5,2.8-1.6,3.3-3.7,3.4-5.9h-3.2v-.7h3.2v-3.5c-1,.3-1.9.5-2.9.7,0-.2-.2-.4-.2-.5,2.2-.5,4.8-1.3,6.1-2.1l.6.5c-.8.4-1.8.8-2.9,1.2v3.7h4.7v-5.4h.7v5.4h3.1v.7Z"/>
          </g>
        </g>
        <g>
          <g>
            <path class="cls-27" d="M251.7,421.8c0,1.2,0,2.7-.2,4.4.4,3.8,2.1,14.3,11.9,18.6-1,.8-2,1.9-2.4,2.9-6.2-3-9.3-8.4-10.9-13.2-1.5,4.9-4.5,10-10.3,13.4-.6-.9-1.7-2-2.8-2.7,11.4-6.1,10.8-18.6,10.9-23.4h3.8Z"/>
            <path class="cls-27" d="M273.8,436.5l.8,2.9c-2.9,1.5-6,2.9-8.5,4.1l-1.3-3.4c1-.3,2.2-.8,3.5-1.3v-7.5h-2.9v-3.2h2.9v-6.1h3.1v6.1h2.7v3.2h-2.7v6.2l2.5-1ZM290.7,427.6c-.3,12.7-.6,17.1-1.7,18.6-.8,1.1-1.7,1.5-2.8,1.6-1.1.1-2.9.1-4.6,0,0-.9-.5-2.3-1.1-3.2,2,.2,3.7.2,4.5.2s.9,0,1.2-.4c.9-.9,1.1-5.4,1.4-15.4h-8.1c-.8,1.7-1.7,3.1-2.5,4.3-.6-.5-2-1.4-2.8-1.8,2-2.3,3.7-6.1,4.7-9.7l3.1.8c-.3,1.2-.7,2.3-1.2,3.4h10v1.6ZM277.2,438h8.5v2.9h-8.5v-2.9ZM285.1,432.6v2.9h-6.6v-2.9h6.6Z"/>
            <path class="cls-27" d="M298,435.3c-1.1-.8-3.6-2.1-5.2-3l1.8-2.5c1.5.8,4,2,5.3,2.7l-1.8,2.8ZM301.5,438.8c-1.5,2.9-3.2,6.1-4.9,8.8l-2.8-2.2c1.5-2.1,3.6-5.6,5.3-8.8l2.5,2.2ZM299.4,427.9c-1.1-.9-3.4-2.3-5-3.3l2-2.4c1.5.8,3.9,2.2,5.1,3l-2,2.7ZM317.7,444.4c0,1.6-.3,2.5-1.3,3-1,.5-2.5.6-4.6.6-.1-.9-.6-2.3-1-3.1,1.3,0,2.7,0,3.2,0,.4,0,.6-.1.6-.5v-3.8c-2.8.8-5.7,1.5-8,2.1l-1-2.7c2.3-.4,5.7-1.2,9-2v-5.2h-9v5.6c0,3.1-.2,7.3-1.8,9.9-.6-.5-1.9-1.5-2.7-1.8,1.3-2.3,1.4-5.5,1.4-8.1v-8.6h6v-7.8h3.4v7.8h5.9v14.7ZM304.2,429.1c-.3-1.4-1.4-3.6-2.5-5.2l2.8-1.2c1.1,1.5,2.3,3.6,2.7,5l-3,1.4ZM307.2,433.6c2.1.5,4.8,1.4,6.3,2.2l-1.4,2.3c-1.4-.8-4.1-1.9-6.2-2.5l1.3-2ZM318.7,423.6c-.9,2-2,3.9-2.8,5.3l-2.9-1.1c.8-1.4,1.9-3.7,2.4-5.3l3.2,1.1Z"/>
            <path class="cls-27" d="M340.5,443.7c2.3.8,4.6,1.6,6,2.3l-2.4,2c-1.8-.9-4.9-2.2-8-3.2l1.1-1.1h-6.8l2,1c-2.3,1.4-5.9,2.7-8.8,3.4-.5-.6-1.7-1.8-2.4-2.4,2.5-.4,5.3-1.1,7.3-1.9h-3.7v-8.3c-.6.1-1.3.3-2.1.4-.3-.7-1.1-2-1.6-2.6,3.3-.4,5.3-1.1,6.5-2h-4.5c.3-1.4.6-3.4.8-5.1h5.3v-1.1h-6.4v-2h6.4v-1.2h3v1.2h3.1v-1.2h3.2v1.2h5.9v5h-5.9v1.2h7.7s0,.5,0,.9c-.1,1.7-.3,2.7-.8,3.2-.4.4-1,.6-1.6.7-.1,0-.3,0-.4,0v9.6h-3.1ZM326.5,429.3h2.7c.1-.4.2-.8.2-1.2h-2.7l-.2,1.2ZM328.1,434.9v1.1h12v-1.1h-12ZM328.1,437.7v1.1h12v-1.1h-12ZM328.1,441.8h12v-1.2h-12v1.2ZM331.7,431.2c-.3.6-.8,1.2-1.3,1.8h5.1v-1.8h-3.8ZM335.5,428.1h-3.1c0,.4,0,.8-.1,1.2h3.2v-1.2ZM332.4,426.1h3.1v-1.1h-3.1v1.1ZM338.7,425v1.1h2.9v-1.1h-2.9ZM338.7,431.2v1.8h2.5c-.1-.3-.2-.7-.4-.9.7,0,1.3.1,1.6,0,.3,0,.4,0,.6-.2,0-.1.2-.4.2-.8h-4.5Z"/>
            <path class="cls-27" d="M374.8,444.9v2.4h-25.5v-2.4h11.1v-1h-8.6v-2.2h8.6v-.9h-8v-7.2h19.3v7.2h-8.1v.9h8.7v2.2h-8.7v1h11.2ZM374.7,432.8h-25.3v-2.4h25.3v2.4ZM371.1,429.6h-18.2v-6.9h18.2v6.9ZM355.5,436.4h4.9v-1h-4.9v1ZM360.4,439v-1h-4.9v1h4.9ZM367.7,424.4h-11.6v.9h11.6v-.9ZM367.7,426.9h-11.6v.9h11.6v-.9ZM368.5,435.4h-4.9v1h4.9v-1ZM368.5,438h-4.9v1h4.9v-1Z"/>
          </g>
          <g>
            <polygon class="cls-9" points="316.9 376.6 321.6 382.5 327.4 402.5 317.8 402.5 314.1 395.2 310.1 402.5 274.9 402.5 280.6 374.9 290.7 367.4 305.7 364.3 316.9 376.6"/>
            <g>
              <polygon class="cls-20" points="305.7 364.3 302.9 367.8 302.4 373 304.5 375.8 304.5 379.5 308.5 375.9 312.5 378.5 315.3 378.5 317.9 375.7 320.5 376.3 320.5 371.5 321.9 371.5 322.5 366.5 322.5 361.4 313.9 359 305.7 364.3"/>
              <polyline class="cls-14" points="316.6 370.9 318.5 372 319.8 371.6"/>
              <polygon class="cls-15" points="323.2 366.5 324.6 363.2 321 356.6 313.5 354.3 307.6 358.1 305.6 364.4 307.4 366.8 309.5 364.4 311.4 365.6 312.2 367.6 313.8 368.8 316.4 367.6 315.3 365.5 318 364.9 317.8 362.1 320.2 362.9 323.2 366.5"/>
            </g>
            <g>
              <g>
                <path class="cls-20" d="M328.9,393s.3-1.2-.2-2.1-.5-3.6-.3-4.4c.2-.8.6-1.6.9-2.4s1.6-2.4,2.2-2.6,1.6,0,1.7,1.2c0,0,.8,0,1,.7,0,0,1.2-.9,1.5.4.3,1.2-.3,1.7-.3,1.7,0,0,.6,0,.8.4s.2,1.6-.5,1.8,0,3-1.5,4.5c-1.4,1.5-1.2,2.3-1.2,2.3,0,0-2.3,1.4-4.2-1.4Z"/>
                <g>
                  <path class="cls-18" d="M334,386.2c.2-.8-.2-1.2-.7-1.6s-1.7-1.4-2.4-1.9-1.3,0-1.9.3-2.1.7-3.6-.5-5.1-5.2-5.1-5.2l1.5-1.9,1.5-1.9s4.7,2.5,6.2,3.8c1.5,1.2,1.6,2.8,1.4,3.4-.1.6-.4,1.2.2,1.7s1.8,1.5,2.4,1.9.9.8,1.6.5c.7-.4,1.8-1.6,2-1.4s-1.1,1.7-1.9,2.6h.2c0,.1-.1.3-.2.3s0,0,0,0h-.2c-.8.9-2.1,2.4-2.2,2.3-.2-.2.7-1.4.9-2.2Z"/>
                  <path class="cls-13" d="M330.7,380.1s0,.9-.7,1.7c-.6.8-1.5,1.1-1.5,1.1"/>
                  <path class="cls-16" d="M329.5,377.9s1.6,1.6,0,3.6-3.5.7-3.5.7l3.5-4.3Z"/>
                  <path class="cls-13" d="M335.2,385s-.1.3-.4.6-.5.5-.5.5"/>
                </g>
                <path class="cls-20" d="M332.3,390.2c0-2.1-1-3.5-1-3.5,0,0,0-.6.4-1.4s.3-2.1,0-2.7c-.2-.6-.9-.7-1-.5-.2.3,0,1-.5,1.8s-.7,1.5-1.3,2"/>
              </g>
              <path class="cls-9" d="M333.5,393.5l-.3,2.1,2.1,2.4v4.5h-10.2l2-4.1.3-3,1-1s.5-2.1.6-2.7l4.6,1.6Z"/>
            </g>
          </g>
          <line class="cls-2" x1="231" y1="402.5" x2="381" y2="402.5"/>
          <g>
            <path d="M292.8,496h-5.7v-18.2h-7v-4.3c1,0,1.9,0,2.9-.2.9-.2,1.8-.5,2.5-.9.7-.4,1.4-1,1.9-1.7.5-.7.8-1.6,1-2.7h4.5v28Z"/>
            <path d="M305.9,489.3c0,.6.1,1.1.4,1.6.3.4.6.8,1,1.1.4.3.9.5,1.4.6.5.1,1.1.2,1.6.2s.8,0,1.3-.1c.4,0,.8-.2,1.2-.4.4-.2.7-.5.9-.8.2-.3.4-.8.4-1.3s-.1-.8-.4-1.1c-.3-.3-.7-.6-1.3-.8-.5-.2-1.2-.5-2-.7s-1.7-.4-2.7-.6c-.8-.2-1.6-.4-2.4-.7-.8-.3-1.5-.6-2.1-1-.6-.4-1.1-.9-1.5-1.6-.4-.6-.6-1.4-.6-2.3,0-1.3.3-2.4.8-3.3.5-.9,1.2-1.5,2.1-2,.9-.5,1.8-.8,2.9-1,1.1-.2,2.2-.3,3.3-.3s2.2.1,3.3.3c1.1.2,2,.6,2.8,1.1.8.5,1.5,1.2,2.1,2,.5.8.9,1.9,1,3.2h-5.4c0-1.1-.5-1.8-1.2-2.2-.7-.4-1.6-.6-2.6-.6s-.7,0-1,0c-.4,0-.7.1-1,.3-.3.1-.6.3-.8.6-.2.3-.3.6-.3,1s.2.9.6,1.2c.4.3.9.6,1.5.8.6.2,1.3.4,2.1.5.8.2,1.6.3,2.4.5.8.2,1.6.4,2.4.7s1.5.6,2.1,1.1c.6.4,1.1,1,1.5,1.6.4.7.6,1.5.6,2.4,0,1.4-.3,2.5-.8,3.4-.5.9-1.3,1.7-2.1,2.2s-1.9,1-3,1.2c-1.1.2-2.3.4-3.5.4s-2.4-.1-3.5-.4c-1.1-.2-2.2-.6-3.1-1.2-.9-.6-1.6-1.3-2.2-2.3-.6-.9-.9-2.1-.9-3.4h5.4Z"/>
            <path d="M330.2,475.3h4.2v3.8h-4.2v10.2c0,1,.2,1.6.5,1.9.3.3,1,.5,1.9.5s1.2,0,1.8-.2v4.4c-.5,0-1,.1-1.6.2-.6,0-1.2,0-1.7,0-.9,0-1.7,0-2.5-.2-.8-.1-1.5-.4-2.1-.7-.6-.4-1.1-.9-1.4-1.5-.3-.6-.5-1.5-.5-2.5v-12.2h-3.4v-3.8h3.4v-6.2h5.7v6.2Z"/>
          </g>
          <g>
            <path class="cls-30" d="M239.1,517.7v4.4c0,.5-.1.7-.4.8-.3.1-.8.1-1.6.1,0-.2-.1-.5-.2-.7.6,0,1.2,0,1.3,0,.2,0,.2,0,.2-.3v-4.2l-1.7.7-.2-.7c.5-.2,1.2-.4,1.9-.7v-3.3h-1.8v-.6h1.8v-2.9h.7v2.9h1.5v.6h-1.5v3.1l1.4-.5v.6c.1,0-1.4.6-1.4.6ZM245,519.6c-.6,1.8-1.8,2.9-4.5,3.5,0-.2-.2-.4-.3-.5,2.5-.5,3.6-1.5,4.1-3h-3.8v-.6h1.3v-4.7c-.2.2-.4.4-.6.6,0-.1-.3-.3-.4-.4,1.3-1.2,2.3-2.9,2.7-4.1h.7c-.1.4-.3.7-.4,1.1h2.5s.4.3.4.3c-.3.7-.7,1.4-1.1,2h2.8v5.3h.9v.6h-4.3ZM243.5,512c-.3.5-.7,1.1-1.1,1.7h2.5c.3-.4.7-1.1.9-1.7h-2.4ZM244.5,519c.1-.5.2-1,.3-1.5h.7c0,.5-.1,1.1-.3,1.5h2.6v-4.7h-5.3v4.7h2ZM247.2,517.4c-.4-.5-1.3-1.2-2.1-1.7-.5.7-1,1.3-1.7,1.7,0,0-.4-.3-.5-.4,1-.6,1.8-1.6,2.2-2.7h.6c0,.4-.2.7-.4.9.8.5,1.7,1.2,2.2,1.7l-.4.4ZM245.9,519.9c1.2.8,2.7,2,3.5,2.7l-.5.4c-.7-.7-2.2-1.9-3.4-2.7l.4-.4Z"/>
            <path class="cls-30" d="M252.7,512c-.5.8-1.1,1.5-1.6,2,0-.2-.3-.4-.4-.6.8-.8,1.7-1.9,2.2-3.1l.6.2c-.1.3-.3.6-.4.9h4.1v.6h-4.4ZM259.9,520h3.3v.6h-3.3v2.4h-.7v-2.4h-4.1c-.3.9-1.1,1.8-3.1,2.5,0-.1-.3-.4-.4-.5,1.7-.6,2.5-1.3,2.8-2h-3.5v-.6h3.7c0-.2,0-.4,0-.6v-.9h-2v-5.1h9.1v5.1h-1.8v1.4ZM253.3,515h7.7v-1h-7.7v1ZM253.3,516.5h7.7v-1h-7.7v1ZM253.3,518h7.7v-1h-7.7v1ZM254.7,513.4c-.1-.3-.4-.8-.6-1.1l.6-.2c.2.3.5.8.6,1.1l-.6.2ZM259.2,520v-1.4h-3.9v.9c0,.2,0,.4,0,.6h4ZM263.3,511.4v.6h-4.7c-.4.6-.8,1.1-1.2,1.5-.1-.1-.4-.3-.6-.4.8-.7,1.5-1.7,1.9-2.8h.7c-.1.5-.3.8-.4,1.1h4.4ZM261.1,513.4c-.2-.3-.5-.8-.9-1.1l.5-.3c.3.3.7.8.9,1.1l-.5.3Z"/>
            <path class="cls-30" d="M268.6,513.3c-.4.7-.8,1.4-1.3,2v7.8h-.6v-7c-.5.6-1.1,1.1-1.6,1.6,0-.1-.3-.4-.4-.6,1.3-1,2.6-2.5,3.4-4.1l.6.2ZM268.2,510.6c-.7,1.1-1.9,2.4-3.1,3.3,0-.1-.3-.4-.4-.5,1.1-.8,2.2-2,2.9-3l.6.2ZM276.1,517.7c-.6,1.4-1.6,2.4-2.9,3.3,1.2.7,2.5,1.2,3.9,1.5-.1.1-.3.4-.4.6-1.5-.3-2.9-.9-4.1-1.7-1.3.8-2.8,1.3-4.2,1.7,0-.2-.2-.5-.3-.6,1.4-.3,2.8-.8,4-1.5-.7-.5-1.4-1.1-1.9-1.8-.4.4-.8.7-1.2,1-.1-.1-.4-.4-.5-.5.5-.3.9-.6,1.3-1-.2-.3-.4-.6-.6-1l.6-.2c.1.3.3.5.5.8.6-.6,1.1-1.3,1.5-2-2.3.2-2.7.2-2.9.3,0-.1-.1-.5-.2-.7.4,0,.9-.3,1.6-.7.3-.2,1.1-.7,2-1.3-2.5.1-2.8.2-3,.3,0-.2-.1-.5-.2-.7.2,0,.5-.2.9-.5.4-.3,1.7-1.4,2.6-2.5l.6.3c-.9,1-1.9,1.9-2.9,2.6h2.9c.7-.6,1.4-1.2,2.1-1.7l.6.4c-1.8,1.5-3.7,2.7-5.5,3.7l5.3-.3c-.4-.5-.8-1-1.2-1.4l.5-.3c.9.9,1.9,2.2,2.4,3l-.6.3c-.2-.3-.5-.7-.8-1.2l-3.4.2c-.2.4-.5.8-.8,1.2h4s.4.2.4.2ZM271.2,518.1c-.2.3-.4.5-.6.7.6.7,1.3,1.3,2.1,1.8,1.1-.7,1.9-1.5,2.5-2.5h-4Z"/>
            <path class="cls-30" d="M281.5,512.5c-.7,1.2-1.5,2.2-2.3,3-.1-.1-.4-.3-.6-.4,1.3-1.1,2.5-2.9,3.2-4.8l.7.2c-.2.5-.4.9-.7,1.4h9v.6h-9.4ZM289.4,517.9c0,1.1-.1,2-.2,2.7h1.8v.6h-1.8c-.1.8-.3,1.2-.4,1.4-.2.3-.5.4-.9.4-.4,0-1.1,0-1.8,0,0-.2,0-.4-.2-.6.8,0,1.5,0,1.7,0s.4,0,.5-.2c.1-.2.2-.5.3-1.1h-8.3c.2-.9.4-2,.6-3.3h-2v-.6h2.1c.2-1.1.3-2.3.4-3.2h8.3s0,.3,0,.4c0,1.1,0,2-.1,2.8h2v.6h-2ZM288.5,520.6c0-.7.2-1.5.2-2.7h-7.4c-.2,1-.3,1.9-.4,2.7h7.6ZM281.8,514.7c0,.8-.2,1.7-.4,2.6h7.3c0-.8,0-1.6.1-2.6h-7ZM283.4,518.1c1,.5,2.3,1.3,2.9,1.9l-.4.5c-.6-.6-1.8-1.4-2.9-2l.4-.4ZM286.2,517.1c-.6-.5-1.7-1.3-2.7-1.7l.4-.4c1,.4,2.1,1.1,2.7,1.6l-.4.5Z"/>
            <path class="cls-30" d="M299.4,510.4c0,.4,0,1.1,0,1.9.2,1.4,1,7.8,6.1,10-.2.1-.4.4-.5.5-3.9-1.8-5.3-5.9-5.9-8.5-.5,3-2,6.6-5.8,8.5-.1-.2-.3-.4-.5-.5,5.9-2.9,5.9-10.1,6-12.1h.7Z"/>
            <path class="cls-30" d="M319.3,519.7h-5.3v3.4h-.7v-3.4h-6.6v-.7h2.4v-3.8h4.2v-2.4h-3.7c-.7,1.1-1.4,2.1-2.3,2.9-.1-.1-.4-.3-.6-.4,1.4-1.2,2.6-3,3.3-5l.7.2c-.2.6-.5,1.1-.8,1.7h8.6v.6h-4.7v2.4h4.4v.6h-4.4v3.2h5.3v.7ZM313.4,519v-3.2h-3.6v3.2h3.6Z"/>
            <path class="cls-30" d="M325,518.1v.6c-1.4.7-2.9,1.4-4.1,1.9l-.3-.7c.5-.2,1.2-.5,2-.8v-4.7h-1.8v-.6h1.8v-3.3h.6v3.3h1.7v.6h-1.7v4.5l1.7-.7ZM333,513.1c-.2,6.7-.4,8.9-.9,9.5-.2.3-.5.4-1,.5-.4,0-1.2,0-1.9,0,0-.2,0-.5-.2-.7.8,0,1.6,0,1.9,0,.3,0,.4,0,.5-.2.4-.5.7-2.8.8-8.9h-5.1c-.4.9-.9,1.8-1.4,2.4-.1,0-.4-.3-.6-.4,1-1.2,1.9-3.1,2.4-5h.6c-.2.9-.5,1.6-.8,2.3h5.5v.4ZM326.9,518.8h4.6v.6h-4.6v-.6ZM331.1,515.7v.6h-3.6v-.6h3.6Z"/>
            <path class="cls-30" d="M337.2,516.3c-.6-.4-1.7-1.1-2.6-1.5l.4-.5c.8.4,2,1.1,2.6,1.5l-.4.5ZM335.1,522.4c.8-1.1,1.9-3,2.7-4.6l.5.4c-.7,1.5-1.8,3.3-2.6,4.6l-.6-.4ZM335.7,510.5c.9.5,2,1.1,2.6,1.6l-.4.6c-.6-.4-1.7-1.1-2.6-1.7l.4-.5ZM346.4,522c0,.5-.1.7-.5.8-.4.1-1,.1-2.1.1,0-.2-.2-.5-.3-.7.9,0,1.6,0,1.9,0,.2,0,.3,0,.3-.3v-3.1c-1.8.5-3.7.9-5.2,1.2l-.3-.6c1.4-.3,3.4-.7,5.4-1.2v-3.3h-5.7v3c0,1.5-.1,3.6-1,5.1,0-.1-.4-.4-.5-.4.8-1.4.9-3.2.9-4.7v-3.6h3.2v-4h.7v4h3.1v7.6ZM340.5,513.7c-.2-.7-.9-1.8-1.5-2.6l.6-.3c.6.8,1.3,1.9,1.5,2.6l-.6.3ZM340.8,516.2c1.3.2,3.1.8,4,1.2l-.3.5c-.9-.4-2.6-1-4-1.3l.3-.5ZM346.9,511.1c-.5.9-1.1,1.9-1.7,2.6l-.6-.3c.5-.7,1.2-1.8,1.6-2.7l.6.3Z"/>
            <path class="cls-30" d="M353.7,521.4c-1.1.6-2.9,1.2-4.3,1.6,0-.1-.3-.4-.5-.5,1.4-.3,3.1-.8,4.2-1.3l.6.3ZM350.6,516.4c-.4.1-.9.3-1.4.4,0-.1-.2-.4-.3-.5,1.8-.4,2.9-.9,3.5-1.5h-2.5c.1-.6.3-1.4.3-2h2.9v-.9h-3.6v-.5h3.6v-.9h.6v.9h2.5v-.9h.7v.9h3.2v2h-3.2v1h4.1s0,.2,0,.3c0,.7-.2,1.1-.4,1.2-.2.1-.3.2-.6.2h-.4v5.1h-8.9v-4.6ZM352.8,514.2c.2-.3.3-.6.3-1h-2.3c0,.3,0,.7-.2,1h2.1ZM358.9,516.3h-7.6v1h7.6v-1ZM358.9,517.8h-7.6v1.1h7.6v-1.1ZM358.9,519.4h-7.6v1.1h7.6v-1.1ZM353.3,514.7c-.3.4-.7.8-1.3,1.1h6.9c0-.1,0-.3-.1-.5.5,0,.9,0,1.1,0s.3,0,.3,0c0,0,.1-.3.2-.6h-3.4v1h-.7v-1h-3ZM356.3,513.2h-2.5c0,.3,0,.7-.2,1h2.7v-1ZM356.3,512.7v-.9h-2.5v.9h2.5ZM356.8,521.1c1.6.4,3.3,1,4.3,1.4l-.6.4c-1-.4-2.6-1-4.2-1.4l.4-.4ZM356.9,511.7v.9h2.6v-.9h-2.6Z"/>
            <path class="cls-30" d="M375.3,522.1v.6h-12.6v-.6h6v-1h-4.8v-.5h4.8v-.9h-4.4v-3.5h9.6v3.5h-4.6v.9h4.9v.5h-4.9v1h6ZM375.2,515.4h-12.4v-.6h12.4v.6ZM373.5,514.2h-8.9v-3.4h8.9v3.4ZM364.9,517.6h3.7v-1h-3.7v1ZM368.7,519.1v-1h-3.7v1h3.7ZM372.8,511.3h-7.6v.9h7.6v-.9ZM372.8,512.7h-7.6v1h7.6v-1ZM373.3,516.7h-4v1h4v-1ZM373.3,518.1h-4v1h4v-1Z"/>
            <path class="cls-30" d="M237.5,539.3c-.3,1.2-.6,2.5-1,3.4-.1,0-.4-.2-.6-.2.4-.9.7-2.1.9-3.3h.6ZM241,538.4c0-.2-.1-.5-.2-.8-3.9.6-4.3.7-4.6.8,0-.2-.1-.5-.2-.7.3,0,.6-.4,1.1-.9.3-.3.9-1,1.7-1.9-2.1.3-2.4.3-2.6.4,0-.2-.2-.5-.2-.7.2,0,.5-.4.9-.8.4-.4,1.6-2,2.4-3.6l.6.3c-.8,1.4-1.8,2.9-2.7,4l2.2-.2c.4-.5.8-1.1,1.1-1.7l.6.4c-1.1,1.7-2.4,3.3-3.7,4.5l3.3-.5c-.2-.5-.4-1-.6-1.5h.6c.4.8.9,1.9,1,2.6l-.6.2ZM239.1,539.1c.2,1,.4,2.2.5,3.1h-.6c0-.7-.3-2-.4-2.9h.6ZM240.8,538.8c.4.9.8,2,.9,2.7l-.6.2c-.2-.7-.6-1.9-.9-2.7l.5-.2ZM248.1,533.4c-.2,6.4-.4,8.5-.9,9.1-.2.3-.5.4-1,.4-.4,0-1.2,0-2,0,0-.2,0-.5-.2-.7.9,0,1.7,0,2,0,.3,0,.4,0,.6-.2.4-.5.6-2.6.8-8.5h-4.4c-.4.8-.8,1.5-1.2,2.1-.1,0-.4-.3-.6-.4,1-1.3,1.8-3.1,2.2-5h.7c-.2,1-.5,1.8-.9,2.6h4.9v.4ZM245.3,539.2c-.4-.9-1.5-2.2-2.4-3.1l.5-.4c1,.9,2,2.2,2.5,3.1l-.5.4Z"/>
            <path class="cls-30" d="M262.2,538.2c-.3,3-.5,4.1-1,4.6-.2.2-.4.3-.8.3-.3,0-1,0-1.7,0,0-.2,0-.4-.2-.6.8,0,1.5,0,1.7,0s.4,0,.5-.1c.3-.3.6-1.3.8-3.9h-8.5c-.8.7-1.7,1.4-2.7,2,0-.2-.3-.4-.4-.6,2.8-1.5,4.8-3.8,6.2-6.4h-5.3v-.6h5.6c.4-.8.7-1.7,1-2.5l.7.2c-.3.8-.6,1.5-.9,2.3h3c-.1.8-.3,1.8-.4,2.5h1.6c-.1.8-.3,1.8-.4,2.5h1.4v.3ZM250.7,542.5c.9-.7,1.4-1.9,1.7-3l.6.2c-.3,1.2-.8,2.4-1.7,3.2l-.5-.4ZM253.8,532.7c-.2-.6-.7-1.5-1.2-2.1l.6-.2c.5.6,1,1.5,1.2,2.1l-.6.3ZM260.2,537.8c.1-.5.2-1.2.3-1.9h-5.3c-.5.7-1,1.3-1.6,1.9h6.6ZM254.7,539.7c.3.8.4,1.9.4,2.5h-.6c0-.6-.1-1.7-.4-2.5h.6ZM256.8,533.4c-.3.6-.7,1.3-1.1,1.9h3.3c.1-.5.3-1.2.3-1.9h-2.5ZM256.8,539.5c.4.7.7,1.6.8,2.2l-.6.2c-.1-.6-.4-1.6-.8-2.3h.5ZM259.5,541.3c-.2-.5-.7-1.3-1.1-1.9l.5-.2c.5.6,1,1.3,1.2,1.8l-.5.3Z"/>
            <path class="cls-30" d="M263.9,541.5c3.5-3,4.8-5.1,4.8-6.9s-.6-2.3-2.1-2.3-1.7.5-2.3,1.3l-.5-.5c.8-.9,1.6-1.5,2.9-1.5,1.8,0,2.8,1.2,2.8,2.9s-1.7,4.3-4.4,6.8c.6,0,1.1,0,1.7,0h3.2v.7h-6.1v-.5Z"/>
            <path class="cls-30" d="M271.2,540.8l.5-.5c.6.6,1.4,1.2,2.7,1.2s2.3-.9,2.3-2.2-1-2.3-3.4-2.3v-.7c2.2,0,3-1,3-2.2s-.8-1.8-1.9-1.8c-.9,0-1.7.5-2.2,1.1l-.5-.6c.7-.7,1.6-1.2,2.7-1.2,1.6,0,2.8.9,2.8,2.5s-.8,2.2-1.9,2.5h0c1.2.3,2.2,1.3,2.2,2.7s-1.3,2.9-3.1,2.9-2.5-.7-3.2-1.4Z"/>
            <path class="cls-30" d="M278.6,540.9l.4-.6c.6.6,1.3,1.2,2.7,1.2s2.4-1.1,2.4-2.7-.9-2.6-2.3-2.6-1.2.3-1.8.6l-.5-.3.3-4.7h4.7v.7h-3.9l-.3,3.4c.5-.3,1-.5,1.7-.5,1.7,0,3,1,3,3.3s-1.6,3.5-3.2,3.5-2.5-.7-3.2-1.3Z"/>
            <path class="cls-30" d="M298.9,532.1h-12.3v-.6h6c-.2-.4-.4-.7-.7-1.1l.6-.3c.3.4.6.9.8,1.3h5.6v.6ZM287.5,538.4h-.6v-2.2h11.8v2.1h-.6v-1.6h-10.6v1.6ZM297.5,542.3c.7,0,.8-.2.9-1.3.2.1.4.2.6.2,0,1.3-.3,1.6-1.5,1.6h-3.7c-1.5,0-1.8-.2-1.8-1.1v-.6l-4.9.3v-.5c0,0,4.9-.3,4.9-.3v-1l-4.3.3v-.5s4.3-.3,4.3-.3v-.9c-1.1,0-2.3.2-3.4.2,0-.1,0-.3-.2-.5,2.6-.1,5.9-.4,7.6-.8l.3.5c-1,.2-2.3.4-3.7.6v1l4.8-.3v.5c0,0-4.8.3-4.8.3v1l5.6-.4v.5s-5.6.4-5.6.4v.7c0,.4.2.5,1.2.5h3.7ZM288.5,535.4v-2.4h8.6v2.4h-8.6ZM289.2,534.8h7.2v-1.3h-7.2v1.3Z"/>
            <path class="cls-30" d="M312.9,536.7h-3.1v6.3h-.7v-6.3h-4.7c0,2.4-.6,4.7-3.6,6.4,0-.2-.3-.4-.5-.5,2.8-1.6,3.3-3.7,3.4-5.9h-3.2v-.7h3.2v-3.5c-1,.3-1.9.5-2.9.7,0-.2-.2-.4-.2-.5,2.2-.5,4.8-1.3,6.1-2.1l.6.5c-.8.4-1.8.8-2.9,1.2v3.7h4.7v-5.4h.7v5.4h3.1v.7Z"/>
            <path class="cls-30" d="M315.9,538.6c1.1-.5,1.7-1.2,1.7-2.3,0,0-.2,0-.3,0-.5,0-.9-.3-.9-.9s.4-.9.9-.9c.7,0,1,.6,1,1.4,0,1.5-.9,2.5-2.2,3l-.2-.5Z"/>
            <path class="cls-30" d="M327.3,539.1v-4.6h-2.9v6.8h9.2v.7h-9.9v-7.5h-2.1v-.6h2.1v-3.2h.7v3.2h2.9v-3.5h.7v3.5h3.1v-3.4h.7v3.4h2.2v.6h-2.2v4.6h-4.5ZM327.9,534.6v3.9h3.1v-3.9h-3.1Z"/>
            <path class="cls-30" d="M343.4,536.2c1.1,1.2,2.9,2.3,4.7,2.7-.2.2-.4.4-.5.6-1.9-.6-3.9-1.8-5-3.3h-1.6c-1.1,1.5-3.2,2.7-5,3.4,0-.2-.3-.4-.5-.6,1.7-.5,3.6-1.6,4.7-2.8h-3.1v-5.4h9.4v5.4h-3ZM339.2,538.2h.7v.8c0,1.3-.3,3-3,4.1,0-.2-.3-.4-.5-.5,2.5-1,2.7-2.5,2.7-3.6v-.8ZM337.7,533.2h3.7v-1.8h-3.7v1.8ZM337.7,535.6h3.7v-1.8h-3.7v1.8ZM345.7,531.4h-3.7v1.8h3.7v-1.8ZM345.7,533.8h-3.7v1.8h3.7v-1.8ZM343.8,538.2h.7v4.8h-.7v-4.8Z"/>
            <path class="cls-30" d="M351.4,532c-.4.7-.9,1.3-1.4,1.8-.1-.1-.4-.3-.5-.4.9-.8,1.7-1.9,2.2-3.2l.6.2c-.1.3-.3.7-.5,1h4v.6h-4.3ZM361.2,538.7s0,.2,0,.3c-.2,2-.4,2.8-.8,3.2-.2.2-.4.3-.8.3-.3,0-1,0-1.7,0,0-.2,0-.5-.2-.6.7,0,1.5,0,1.7,0s.4,0,.5-.1c.3-.2.4-.9.6-2.5h-4.5v3.7h-.7v-3.6c-1.2,1.6-3.2,3-5,3.7-.1-.2-.3-.4-.4-.5,1.7-.6,3.6-1.9,4.8-3.3h-4.1c.2-.7.4-1.9.5-2.8h4.2v-1.6h-4.7v-.6h10.2v2.8h-4.8v1.6h5.2ZM351.7,537.1c0,.5-.2,1.1-.3,1.6h4v-1.6h-3.7ZM352.8,532.1c.4.4,1.1,1,1.3,1.4l-.5.4c-.3-.4-.9-1-1.3-1.5l.5-.3ZM362,531.5v.6h-4.9c-.3.5-.7.9-1,1.2-.1,0-.4-.3-.5-.4.8-.6,1.4-1.6,1.8-2.6h.6c-.1.5-.3.8-.5,1.2h4.5ZM356,536.5h4.2v-1.6h-4.2v1.6ZM359.8,533.9c-.3-.4-.9-1-1.4-1.4l.4-.3c.5.4,1.1,1,1.4,1.3l-.4.4Z"/>
            <path class="cls-30" d="M376.1,536.2v.7h-12.7v-.7h12.7Z"/>
          </g>
        </g>
        <g>
          <g>
            <path class="cls-27" d="M613.5,429.7h-8.2v2.7h-2.6v-2.7h-8v-2.1h8v-1.1h-6v-7.9h14.9v7.9h-6.3v1.1h8.2v2.1ZM603.5,417.8h-7.5v-4.2h7.5v4.2ZM601.2,415.1h-2.9v1.2h2.9v-1.2ZM599.2,421.6h3.5v-1.1h-3.5v1.1ZM602.8,424.5v-1.1h-3.5v1.1h3.5ZM612.4,417.8h-7.5v-4.2h7.5v4.2ZM609.1,420.5h-3.8v1.1h3.8v-1.1ZM609.1,423.4h-3.8v1.1h3.8v-1.1ZM610,415.1h-3v1.2h3v-1.2Z"/>
            <path class="cls-27" d="M634.8,421v2.7h-19.3v-2.7h19.3Z"/>
            <path class="cls-27" d="M642.9,425.7c0-.3-.1-.6-.2-1-4.3.7-5.1.9-5.6,1.1-.1-.4-.5-1.6-.8-2.2.5-.1,1-.6,1.7-1.3.3-.3.8-.9,1.4-1.8-1.7.2-2.1.3-2.5.5-.1-.5-.5-1.5-.8-2.1.4-.1.8-.5,1.2-1.1.5-.6,1.8-3,2.6-5.2l2.2.9c-.8,1.7-1.9,3.5-3,5.1h1.5c.5-.9,1-1.8,1.4-2.6l2,1.3c-1.2,2.1-2.7,4.2-4.2,5.9l2.1-.3c-.2-.5-.4-1-.5-1.5l1.8-.7c.6,1.4,1.2,3.2,1.5,4.3l-2,.8ZM639.2,426.9c-.1,1.9-.5,3.9-.9,5.2-.4-.3-1.5-.6-2-.7.5-1.2.7-3.1.9-4.8l2.1.3ZM641.6,426.4c.3,1.5.5,3.5.6,4.7l-2,.4c0-1.3-.3-3.3-.5-4.8l1.9-.4ZM643.9,425.7c.5,1.3.9,2.9,1.2,4l-1.9.7c-.2-1.1-.6-2.8-1.1-4.1l1.8-.6ZM653,429.8c.2,0,.4,0,.6,0,.1,0,.3-.2.3-.4s.1-.9.1-1.6c.5.4,1.3.8,2,1,0,.8-.2,1.7-.4,2.1-.2.4-.5.7-1,.8-.4.1-1,.2-1.5.2h-1.8c-.6,0-1.3-.1-1.8-.5-.5-.4-.8-.8-.8-2.7v-2h-3.8v-7.7h2.2v5.5h1.6v-6.9h-4.2v-2.3h4.2v-2.5h2.3v2.5h4.7v2.3h-4.7v6.9h1.7v-5.5h2.2v8.5h-2.2v-.7h-1.7v2c0,.5,0,.8.2.9.1,0,.3.1.6.1h1Z"/>
            <path class="cls-27" d="M668.3,419.5c1.9,1.6,5.4,3,8.9,3.6-.5.4-1.2,1.4-1.5,2-3.2-.7-6.4-2.2-8.6-4.1h0c-2.2,1.9-5.3,3.2-8.5,3.9-.3-.5-.9-1.4-1.4-1.9,3.4-.5,6.9-1.8,8.7-3.4v-2.8h-4.3l1.8.4c-.2.5-.4.9-.6,1.3.6.4,1.3.8,1.7,1.1l-1.3,1.6c-.3-.3-.9-.7-1.5-1.2-.7.8-1.5,1.5-2.3,2.1-.4-.4-1.2-1.1-1.6-1.4,1.6-.9,2.9-2.3,3.5-3.9h-3.3v-2.2h7.9v-1.8h2.4v1.8h8.1v2.2h-4.5l1.8.5c-.1.4-.3.7-.5,1,1.2.6,2.6,1.4,3.3,1.9l-1.2,1.7c-.7-.6-2-1.4-3.2-2.1-.4.5-.8.9-1.3,1.2-.3-.4-1.1-1.1-1.6-1.4,1-.7,2-1.7,2.4-2.8h-3.3v2.8ZM672.7,424.8c-.7,1.4-1.6,2.6-2.8,3.6,1.7.8,3.2,1.5,4.4,2.2l-1.4,1.7c-1.2-.7-2.9-1.6-4.8-2.5-2.4,1.4-5.4,2.2-8.7,2.6-.2-.6-.6-1.5-1-2,2.7-.3,5.2-.8,7.3-1.7-1-.5-2.1-.9-3.1-1.4-.8.5-1.7.9-2.6,1.4-.3-.5-1-1.2-1.4-1.5.7-.3,1.3-.5,1.9-.8l-1.1-.5,1.3-1.3c.5.2,1.2.5,1.8.7,1.3-.8,2.3-1.7,3-2.5l2.2.5c-.3.3-.6.7-1,1h4.5c0,0,1.4.7,1.4.7ZM664.5,426c1.1.5,2.2.9,3.3,1.4.7-.5,1.3-1,1.8-1.6h-4.8l-.3.2Z"/>
            <path class="cls-27" d="M697.2,419.7c-.6,3.2-1.6,6-3,8.3.4,1.2.8,2,1.3,2s.6-1.1.6-3.5c.5.5,1.3,1.1,1.9,1.3-.3,3.7-1,4.6-2.8,4.6s-2-.8-2.6-2.2c-.8.9-1.6,1.6-2.5,2.2-.3-.5-1.2-1.3-1.7-1.7,1.3-.8,2.4-1.8,3.3-3-.7-2.6-1-6.1-1.2-9.8h-8.3v3.8c0,3.1-.3,7.7-2.2,10.6-.4-.4-1.3-1.2-1.9-1.5,1.6-2.6,1.7-6.4,1.7-9.1v-6.1h10.5c0-.9,0-1.9,0-2.8h2.5c0,1,0,1.9,0,2.8h2.7c-.6-.5-1.6-1.1-2.3-1.6l1.4-1.4c.9.5,2.1,1.3,2.8,1.8l-1.1,1.2h1.4v2.3h-4.8c.1,2.4.3,4.7.6,6.6.6-1.5,1.1-3.2,1.4-5.1l2.3.3ZM688.4,430.1c-.4-.3-.9-.6-1.4-1-1,1.1-2.4,2-4.3,2.6-.2-.5-.7-1.2-1.1-1.6,1.6-.5,2.8-1.2,3.6-2.1-.9-.5-1.8-1-2.7-1.4.3-.7.6-1.4.9-2.3h-.8v-1.7h1.3c.2-.6.4-1.2.5-1.8h-1.7v-1.9h7.1v1.9h-3.4c-.2.6-.3,1.2-.5,1.8h1.6c0-.4.1-.7.1-1.1l2.1.2c0,.3,0,.6-.1.8h.5v1.7h-.9c-.3,1.2-.7,2.2-1.2,3.1.7.4,1.4.8,1.9,1.2l-1.7,1.4ZM685.5,424.4c-.2.5-.3,1-.5,1.4.4.2.9.4,1.4.7.4-.6.7-1.3.9-2.1h-1.7Z"/>
            <path class="cls-27" d="M710.5,421.5v7.4h7.1v2.5h-16.8v-2.5h6.9v-7.4h-8.1v-2.5h8.1v-6.2h2.7v6.2h8.3v2.5h-8.3Z"/>
            <path class="cls-27" d="M720.4,430.5c.9-1.4,1.6-3.5,2-5.4l2.3.7c-.4,1.9-1.1,4.3-2,5.8l-2.3-1.2ZM734.7,415.6h-12.6v-2.2h15.1v6.2h-12v1.2c0,.8.4.9,2.7.9h6.8c1.7,0,2-.3,2.2-1.9.6.4,1.6.7,2.3.8-.4,2.6-1.2,3.3-4.4,3.3h-6.9c-4,0-5.2-.6-5.2-3v-3.5h12v-1.8ZM732.6,429.7c1,0,1.2-.3,1.3-2.4.5.4,1.7.8,2.3.9-.3,3-1,3.8-3.4,3.8h-4c-3,0-3.7-.7-3.7-3v-3.5h2.6v3.5c0,.7.2.8,1.4.8h3.6ZM731,429.1c-.5-1.1-1.9-2.9-3-4.1l2-1.1c1.2,1.2,2.6,2.8,3.2,3.9l-2.2,1.2ZM737.2,424.7c1,1.8,2.2,4.1,2.7,5.6l-2.3.9c-.4-1.5-1.5-3.9-2.5-5.7l2.1-.8Z"/>
            <path class="cls-27" d="M640.1,448.1c-.9-.6-2.7-1.6-3.9-2.3l1.4-1.8c1.2.6,3,1.5,3.9,2l-1.4,2.1ZM642.7,450.7c-1.1,2.2-2.4,4.6-3.7,6.6l-2.1-1.7c1.1-1.6,2.7-4.2,4-6.6l1.8,1.7ZM641.2,442.5c-.8-.7-2.6-1.7-3.8-2.5l1.5-1.8c1.2.6,2.9,1.6,3.8,2.2l-1.5,2ZM654.9,454.9c0,1.2-.2,1.8-1,2.2-.8.4-1.9.4-3.5.4,0-.7-.4-1.7-.8-2.4,1,0,2.1,0,2.4,0,.3,0,.4-.1.4-.4v-2.9c-2.1.6-4.3,1.1-6,1.6l-.7-2.1c1.7-.3,4.3-.9,6.8-1.5v-3.9h-6.8v4.2c0,2.4-.2,5.5-1.3,7.4-.4-.4-1.4-1.1-2-1.4,1-1.7,1-4.1,1-6.1v-6.5h4.5v-5.9h2.5v5.9h4.4v11ZM644.8,443.4c-.3-1-1.1-2.7-1.9-3.9l2.1-.9c.8,1.2,1.7,2.7,2.1,3.8l-2.3,1ZM647,446.8c1.6.4,3.6,1.1,4.7,1.7l-1.1,1.7c-1-.6-3.1-1.4-4.6-1.9l1-1.5ZM655.7,439.3c-.7,1.5-1.5,3-2.1,3.9l-2.2-.8c.6-1.1,1.4-2.8,1.8-4l2.4.9Z"/>
            <path class="cls-27" d="M672,454.4c1.7.6,3.4,1.2,4.5,1.7l-1.8,1.5c-1.3-.7-3.7-1.7-6-2.4l.8-.8h-5.1l1.5.7c-1.7,1-4.4,2-6.6,2.5-.4-.5-1.3-1.4-1.8-1.8,1.9-.3,4-.8,5.5-1.4h-2.8v-6.2c-.5.1-1,.2-1.6.3-.2-.5-.8-1.5-1.2-2,2.5-.3,4-.8,4.9-1.5h-3.4c.2-1,.5-2.6.6-3.8h4v-.8h-4.8v-1.5h4.8v-.9h2.3v.9h2.3v-.9h2.4v.9h4.5v3.8h-4.5v.9h5.8s0,.4,0,.7c-.1,1.3-.2,2-.6,2.4-.3.3-.7.5-1.2.5,0,0-.2,0-.3,0v7.2h-2.3ZM661.5,443.6h2c0-.3.1-.6.1-.9h-2v.9ZM662.7,447.7v.8h9v-.8h-9ZM662.7,449.9v.9h9v-.9h-9ZM662.7,453h9v-.9h-9v.9ZM665.4,445c-.2.5-.6.9-1,1.3h3.8v-1.3h-2.8ZM668.3,442.6h-2.3c0,.3,0,.6,0,.9h2.4v-.9ZM665.9,441.2h2.3v-.8h-2.3v.8ZM670.6,440.3v.8h2.2v-.8h-2.2ZM670.6,445v1.3h1.9c0-.3-.2-.5-.3-.7.5,0,.9,0,1.2,0,.2,0,.3,0,.4-.1,0-.1.1-.3.1-.6h-3.3Z"/>
            <path class="cls-27" d="M697.7,455.2v1.8h-19.1v-1.8h8.3v-.8h-6.4v-1.6h6.4v-.7h-6v-5.4h14.5v5.4h-6.1v.7h6.5v1.6h-6.5v.8h8.4ZM697.7,446.2h-19v-1.8h19v1.8ZM694.9,443.8h-13.6v-5.2h13.6v5.2ZM683.3,448.9h3.7v-.7h-3.7v.7ZM686.9,450.8v-.7h-3.7v.7h3.7ZM692.4,439.9h-8.7v.7h8.7v-.7ZM692.4,441.8h-8.7v.7h8.7v-.7ZM693,448.1h-3.7v.7h3.7v-.7ZM693,450.1h-3.7v.7h3.7v-.7Z"/>
          </g>
          <line class="cls-2" x1="592" y1="402.5" x2="742" y2="402.5"/>
          <g>
            <path d="M632.4,478.8c0-1.6.1-3.1.6-4.5.4-1.4,1.1-2.6,1.9-3.6s1.9-1.8,3.2-2.4c1.3-.6,2.8-.9,4.5-.9s2.5.2,3.7.6c1.2.4,2.2,1,3.1,1.7.9.7,1.6,1.7,2.1,2.8.5,1.1.8,2.3.8,3.7s-.1,2-.4,2.8-.6,1.6-1.1,2.3c-.5.7-1,1.3-1.6,1.8-.6.6-1.2,1.1-1.9,1.6-.7.5-1.4,1-2.1,1.4-.7.5-1.5,1-2.2,1.5-.7.5-1.4,1-2,1.6-.7.6-1.2,1.2-1.7,1.9h13.2v4.9h-20.6c0-1.6.2-3,.7-4.2.5-1.2,1.1-2.3,1.9-3.2s1.7-1.8,2.8-2.6c1.1-.8,2.2-1.6,3.4-2.4.6-.4,1.3-.9,2-1.3.7-.4,1.3-.9,1.9-1.5s1.1-1.1,1.4-1.8c.4-.7.6-1.4.6-2.3,0-1.3-.4-2.4-1.2-3.2s-1.8-1.2-3-1.2-1.6.2-2.1.6-1,.9-1.4,1.5c-.3.6-.6,1.3-.7,2.1-.1.8-.2,1.5-.2,2.3h-5.4Z"/>
            <path d="M657.3,475.3h5.4v2.9h.1c.7-1.2,1.7-2,2.8-2.6,1.1-.6,2.3-.8,3.5-.8s2.8.2,3.7.6c1,.4,1.7,1,2.3,1.7.6.7,1,1.6,1.2,2.7.2,1.1.3,2.2.3,3.5v12.7h-5.7v-11.7c0-1.7-.3-3-.8-3.8s-1.5-1.3-2.8-1.3-2.7.5-3.4,1.4c-.7.9-1,2.4-1,4.5v10.8h-5.7v-20.7Z"/>
            <path d="M695.8,493.4h0c-.7,1.1-1.5,1.9-2.6,2.4-1.1.5-2.3.8-3.6.8s-2.9-.3-4.1-.9c-1.2-.6-2.1-1.4-2.9-2.5-.8-1-1.3-2.2-1.7-3.5-.4-1.3-.6-2.7-.6-4.2s.2-2.7.6-4c.4-1.3,1-2.4,1.7-3.4.8-1,1.7-1.8,2.9-2.4,1.1-.6,2.5-.9,4-.9s2.4.3,3.5.8c1.1.5,2,1.3,2.6,2.3h0v-10.4h5.7v28.6h-5.4v-2.6ZM695.5,483.2c-.2-.8-.4-1.5-.8-2.1-.4-.6-.9-1.1-1.5-1.5-.6-.4-1.4-.6-2.3-.6s-1.7.2-2.4.6c-.6.4-1.2.9-1.5,1.5s-.7,1.3-.8,2.1c-.2.8-.3,1.6-.3,2.5s0,1.6.3,2.4c.2.8.5,1.5.9,2.1.4.6.9,1.1,1.6,1.5.6.4,1.4.6,2.3.6s1.7-.2,2.3-.6c.6-.4,1.1-.9,1.5-1.5.4-.6.6-1.3.8-2.1.2-.8.2-1.6.2-2.5s0-1.6-.2-2.4Z"/>
          </g>
          <g>
            <path class="cls-30" d="M610.3,520.9h-5.9v2.1h-.7v-2.1h-5.8v-.6h5.8v-1.3h-4.3v-4.7h9.5v4.7h-4.5v1.3h5.9v.6ZM603.5,513.6h-4.4v-2.7h4.4v2.7ZM602.9,511.4h-3.1v1.6h3.1v-1.6ZM600.1,516.4h3.7v-1.5h-3.7v1.5ZM603.8,518.4v-1.5h-3.7v1.5h3.7ZM608.3,514.9h-3.9v1.5h3.9v-1.5ZM608.3,517h-3.9v1.5h3.9v-1.5ZM609.2,513.6h-4.4v-2.7h4.4v2.7ZM608.6,511.4h-3.1v1.6h3.1v-1.6Z"/>
            <path class="cls-30" d="M624.5,516.2v.7h-12.7v-.7h12.7Z"/>
            <path class="cls-30" d="M627.1,519.3c-.2,1.2-.5,2.5-.8,3.4-.1,0-.4-.2-.6-.2.3-.9.6-2.1.7-3.3h.6ZM629.8,515.5c.4.9.9,2.1,1,2.9l-.6.2c0-.3-.1-.6-.2-.9-3.3.5-3.7.6-3.9.7,0-.2-.2-.5-.2-.7.3,0,.6-.4,1-.9.3-.3.8-1,1.4-1.9-1.8.2-2.1.3-2.3.4,0-.2-.1-.5-.2-.7.2,0,.5-.4.8-.8.3-.4,1.4-2.1,2-3.6l.7.3c-.7,1.4-1.6,2.9-2.4,4l1.9-.2c.4-.6.8-1.2,1.1-1.8l.6.3c-1,1.7-2.2,3.4-3.4,4.7l2.8-.4c-.2-.5-.4-1-.6-1.5l.6-.2ZM628.5,519.2c.2,1,.4,2.2.4,3h-.6c0-.7-.2-2-.4-2.9h.6ZM630,518.8c.3.8.7,1.9.8,2.5l-.6.2c-.1-.7-.5-1.8-.8-2.6l.5-.2ZM636.8,522.3c.3,0,.5,0,.7,0s.3-.1.3-.4c0-.2,0-.7,0-1.3.2.1.4.2.6.3,0,.5,0,1.2-.2,1.5,0,.3-.3.4-.5.5-.3,0-.6,0-1,0h-1.1c-.3,0-.7,0-1-.2-.3-.1-.4-.4-.4-1.5v-2.2h-2.7v-4.5h.6v3.9h2.1v-5.4h-3v-.6h3v-2h.6v2h3.5v.6h-3.5v5.4h2.2v-3.9h.6v5.4h-.6v-.9h-2.2v2.3c0,.5,0,.8.2.9.2,0,.3,0,.5,0h1Z"/>
            <path class="cls-30" d="M646.5,514.8c1.3,1.1,3.9,2,6.1,2.4-.2.1-.3.4-.4.5-2-.4-4.6-1.4-6-2.5-1.4,1.2-3.9,2.1-6,2.6,0-.2-.3-.4-.4-.5,2.2-.4,4.7-1.3,6.1-2.5v-2.4h-5.6v-.6h5.6v-1.4h.6v1.4h5.7v.6h-5.7v2.5ZM643.6,512.8c-.2.4-.4.8-.6,1.2.5.3,1.1.8,1.5,1.1l-.4.4c-.3-.3-.9-.8-1.4-1.2-.6.7-1.3,1.3-2,1.8,0,0-.3-.3-.5-.4,1.2-.7,2.3-1.8,2.8-3.1h.6ZM649.4,518c-.5,1-1.2,1.8-2,2.5,1.4.7,2.6,1.3,3.5,1.9l-.4.5c-.9-.5-2.2-1.2-3.6-2-1.7,1.2-3.9,1.8-6,2.1,0-.2-.2-.4-.3-.6,2-.3,4-.9,5.7-1.8-.9-.5-1.9-.9-2.9-1.4-.6.4-1.3.8-2,1.1-.1-.2-.3-.3-.4-.4.7-.3,1.3-.6,1.8-1-.4-.2-.8-.3-1.1-.5l.4-.4c.4.2.8.3,1.3.5.9-.6,1.6-1.2,2-1.8h.7c-.3.4-.5.7-.8,1h3.9s.4.2.4.2ZM644.5,518.4c-.2.2-.4.3-.6.5,1,.4,2,.9,2.9,1.4.7-.5,1.3-1.1,1.7-1.8h-4ZM650.1,512.8c-.1.4-.3.8-.5,1.1.8.5,1.8,1.3,2.3,1.7l-.4.5c-.5-.5-1.4-1.2-2.2-1.7-.3.5-.7.9-1.2,1.2,0,0-.3-.3-.5-.4.9-.6,1.5-1.5,1.9-2.5h.6Z"/>
            <path class="cls-30" d="M665.8,514.7c-.5,2.2-1.2,4-2.2,5.4.4,1.5,1.1,2.3,1.8,2.3s.6-.7.6-2.6c.2.1.4.3.6.3-.1,2.2-.4,2.9-1.3,2.9s-1.7-.9-2.2-2.4c-.7.9-1.6,1.7-2.6,2.3,0-.1-.3-.4-.5-.5,1.1-.7,2.1-1.5,2.9-2.6-.5-1.8-.8-4.2-.9-6.9h-6.5v3.3c0,2-.2,4.7-1.3,6.7-.1-.1-.4-.3-.5-.4,1.1-1.9,1.2-4.4,1.2-6.3v-4h7.1c0-.7,0-1.4,0-2.1h.7c0,.7,0,1.4,0,2.1h3.7v.6h-3.7c0,2.5.3,4.6.7,6.2.8-1.3,1.4-2.9,1.8-4.7h.6ZM660.6,521.5c-.3-.3-.8-.6-1.4-1-.7.9-1.7,1.6-3.1,2.1,0-.2-.3-.4-.4-.5,1.3-.4,2.3-1.1,2.9-1.9-.7-.4-1.4-.8-2.1-1.1.2-.5.5-1.1.7-1.7h-1.2v-.5h1.4c.2-.6.4-1.3.6-1.8h-1.8v-.6h5.1v.6h-2.8c-.2.6-.3,1.2-.6,1.8h1.9c0-.3,0-.6.1-.9h.6c0,.4,0,.7-.1.9h.8v.5h-.9c-.2,1-.5,1.9-1,2.6.6.4,1.2.7,1.6,1.1l-.5.4ZM657.9,517.4c-.2.5-.4,1-.6,1.5.5.3,1.1.6,1.7.9.4-.7.7-1.5.9-2.3h-2ZM665.5,512.2c-.4-.4-1.3-1.1-2.1-1.5l.4-.4c.7.4,1.6,1,2.1,1.4l-.4.4Z"/>
            <path class="cls-30" d="M674.5,515.6v5.9h5.1v.7h-10.9v-.7h5v-5.9h-5.8v-.7h5.8v-4.5h.7v4.5h5.9v.7h-5.9Z"/>
            <path class="cls-30" d="M682,522.1c.7-.9,1.2-2.4,1.5-3.4l.6.2c-.3,1.1-.8,2.6-1.5,3.5l-.6-.3ZM691.9,511.6h-8.6v-.6h9.3v3.2h-8.2v1.9c0,.5.3.6,1.8.6h5.6c1.2,0,1.3-.3,1.4-1.7.2.1.5.2.7.2-.1,1.7-.5,2-2.1,2h-5.5c-2,0-2.5-.2-2.5-1.2v-2.5h8.2v-2ZM690.3,522.1c.8,0,.9-.2,1-1.7.2.1.4.2.6.3-.1,1.6-.4,2-1.6,2h-3.6c-1.4,0-1.8-.2-1.8-1.1v-2.9h.7v2.9c0,.4.2.5,1.1.5h3.6ZM687.3,517.7c.9.8,1.9,1.9,2.3,2.7l-.6.4c-.4-.8-1.4-1.9-2.3-2.7l.5-.3ZM692.3,518.3c.7,1.2,1.5,2.7,1.8,3.7l-.7.3c-.3-1-1-2.6-1.8-3.7l.6-.2Z"/>
            <path class="cls-30" d="M698.3,516.3c-.6-.4-1.7-1.1-2.6-1.5l.4-.5c.8.4,2,1.1,2.6,1.5l-.4.5ZM696.2,522.4c.8-1.1,1.9-3,2.7-4.6l.5.4c-.7,1.5-1.8,3.3-2.6,4.6l-.6-.4ZM696.9,510.5c.9.5,2,1.1,2.6,1.6l-.4.6c-.6-.4-1.7-1.1-2.6-1.7l.4-.5ZM707.5,522c0,.5-.1.7-.5.8-.4.1-1,.1-2.1.1,0-.2-.2-.5-.3-.7.9,0,1.6,0,1.9,0,.2,0,.3,0,.3-.3v-3.1c-1.8.5-3.7.9-5.2,1.2l-.3-.6c1.4-.3,3.4-.7,5.4-1.2v-3.3h-5.7v3c0,1.5-.1,3.6-1,5.1,0-.1-.4-.4-.5-.4.8-1.4.9-3.2.9-4.7v-3.6h3.2v-4h.7v4h3.1v7.6ZM701.6,513.7c-.2-.7-.9-1.8-1.5-2.6l.6-.3c.6.8,1.3,1.9,1.5,2.6l-.6.3ZM702,516.2c1.3.2,3.1.8,4,1.2l-.3.5c-.9-.4-2.6-1-4-1.3l.3-.5ZM708,511.1c-.5.9-1.1,1.9-1.7,2.6l-.6-.3c.5-.7,1.2-1.8,1.6-2.7l.6.3Z"/>
            <path class="cls-30" d="M714.8,521.4c-1.1.6-2.9,1.2-4.3,1.6,0-.1-.3-.4-.5-.5,1.4-.3,3.1-.8,4.2-1.3l.6.3ZM711.8,516.4c-.4.1-.9.3-1.4.4,0-.1-.2-.4-.3-.5,1.8-.4,2.9-.9,3.5-1.5h-2.5c.1-.6.3-1.4.3-2h2.9v-.9h-3.6v-.5h3.6v-.9h.6v.9h2.5v-.9h.7v.9h3.2v2h-3.2v1h4.1s0,.2,0,.3c0,.7-.2,1.1-.4,1.2-.2.1-.3.2-.6.2h-.4v5.1h-8.9v-4.6ZM713.9,514.2c.2-.3.3-.6.3-1h-2.3c0,.3,0,.7-.2,1h2.1ZM720,516.3h-7.6v1h7.6v-1ZM720,517.8h-7.6v1.1h7.6v-1.1ZM720,519.4h-7.6v1.1h7.6v-1.1ZM714.4,514.7c-.3.4-.7.8-1.3,1.1h6.9c0-.1,0-.3-.1-.5.5,0,.9,0,1.1,0s.3,0,.3,0c0,0,.1-.3.2-.6h-3.4v1h-.7v-1h-3ZM717.4,513.2h-2.5c0,.3,0,.7-.2,1h2.7v-1ZM717.4,512.7v-.9h-2.5v.9h2.5ZM718,521.1c1.6.4,3.3,1,4.3,1.4l-.6.4c-1-.4-2.6-1-4.2-1.4l.4-.4ZM718.1,511.7v.9h2.6v-.9h-2.6Z"/>
            <path class="cls-30" d="M736.5,522.1v.6h-12.6v-.6h6v-1h-4.8v-.5h4.8v-.9h-4.4v-3.5h9.6v3.5h-4.6v.9h4.9v.5h-4.9v1h6ZM736.4,515.4h-12.4v-.6h12.4v.6ZM734.6,514.2h-8.9v-3.4h8.9v3.4ZM726.1,517.6h3.7v-1h-3.7v1ZM729.8,519.1v-1h-3.7v1h3.7ZM733.9,511.3h-7.6v.9h7.6v-.9ZM733.9,512.7h-7.6v1h7.6v-1ZM734.4,516.7h-4v1h4v-1ZM734.4,518.1h-4v1h4v-1Z"/>
            <path class="cls-30" d="M612.2,530.6c-.4,1.1-.9,2.1-1.5,3.1v9.3h-.6v-8.3c-.5.8-1.1,1.5-1.7,2.1,0-.1-.3-.5-.4-.6,1.4-1.4,2.8-3.6,3.6-5.8l.6.2ZM621,542.2v.6h-9.1v-.6h4.2v-1.3h-3.3v-.6h3.3v-1.2h-3.6v-.6h3.6v-1h-3.3v-2.7h3.3v-.8h-2v-1.7h-2.1v-.6h2.1v-1.4h.6v1.4h3.4v-1.4h.7v1.4h2.1v.6h-2.1v1.7h-2.1v.8h3.4v2.7h-3.4v1h3.7v.6h-3.7v1.2h3.4v.6h-3.4v1.3h4.2ZM616.2,536.9v-1.6h-2.7v1.6h2.7ZM614.8,533.5h3.4v-1.2h-3.4v1.2ZM616.8,535.4v1.6h2.8v-1.6h-2.8Z"/>
            <path class="cls-30" d="M626.8,539.1h-4.4v-.7h4.4v.7ZM626.3,533.3h-3.6v-.6h3.6v.6ZM630.2,535.2c0,.3,0,.5,0,.8.7,3.1,2.2,5.5,4.8,6.3-.2.1-.4.4-.4.6-2.3-.9-3.8-2.8-4.6-5.4-.4,1.9-1.5,3.9-4.5,5.5-.1-.2-.3-.4-.5-.5,4.2-2.2,4.5-5.2,4.5-7.4v-.9h.7v1ZM628,533.5c-.4,1.1-.9,2.2-1.4,3-.1-.1-.5-.3-.7-.4,1-1.4,1.8-3.6,2.2-5.7h.7c-.2.9-.4,1.8-.6,2.5h5.7s.5.2.5.2c-.3,1.3-1,2.7-1.5,3.6-.2,0-.4-.2-.6-.3.4-.7.9-1.9,1.2-2.9h-5.6Z"/>
            <path class="cls-30" d="M648.9,536.5v.6h-5.9c0,.5-.1.9-.2,1.3h6v.6h-6.2c-.7,2.1-2.2,3.3-5.9,3.9,0-.2-.2-.4-.4-.6,3.4-.5,4.8-1.6,5.5-3.3h-5v-.6h5.2c0-.4.2-.8.2-1.3h-5.7v-.6h5.8v-1.5h-4.5v-.6h4.5v-1.4h-5.2v-.6h3.1c-.3-.5-.8-1.3-1.3-1.8l.6-.3c.5.6,1.1,1.3,1.3,1.9l-.5.3h4c.4-.6,1-1.5,1.3-2.1l.7.3c-.4.6-.8,1.3-1.2,1.8h3.2v.6h-5.3v1.4h4.6v.6h-4.6v1.5h5.9ZM643,539.4c2,.8,4.5,2.2,5.8,3.1l-.3.6c-1.2-1-3.7-2.3-5.8-3.2l.3-.5Z"/>
            <path class="cls-30" d="M662.4,531v12.1h-.7v-.7h-10.2v.7h-.6v-12.1h11.5ZM661.7,541.7v-10.1h-10.2v10.1h10.2ZM656.7,539.3c-1.5.3-3.1.7-4.3.9v-.6c1-.2,2.6-.5,4.2-.9v.5ZM660.2,535.2c-.4,1.4-.9,2.6-1.6,3.6.4.9.9,1.5,1.5,1.6.2,0,.4-.6.5-1.5.1.1.4.3.5.3-.2,1.4-.5,2-1.1,1.8-.7-.1-1.3-.7-1.7-1.6-.6.7-1.3,1.3-2.1,1.9,0-.1-.3-.4-.4-.5.9-.5,1.7-1.2,2.3-2-.4-1.2-.7-2.7-.8-4.4h-4.6v-.6h4.5c0-.5,0-1.1-.1-1.7h.6c0,.6,0,1.1.1,1.7h3.3v.6h-3.3c.2,1.4.4,2.8.7,3.8.5-.9,1-1.9,1.3-3h.6ZM656.2,535.4v2.7h-3.1v-2.7h3.1ZM655.6,535.9h-2v1.7h2v-1.7ZM660.1,533.4c-.3-.3-1-.8-1.6-1l.4-.4c.6.3,1.3.6,1.6,1l-.4.4Z"/>
            <path class="cls-30" d="M665.8,538.6c1.1-.5,1.7-1.2,1.7-2.3,0,0-.2,0-.3,0-.5,0-.9-.3-.9-.9s.4-.9.9-.9c.7,0,1,.6,1,1.4,0,1.5-.9,2.5-2.2,3l-.2-.5Z"/>
            <path class="cls-30" d="M677.2,539.1v-4.6h-2.9v6.8h9.2v.7h-9.9v-7.5h-2.1v-.6h2.1v-3.2h.7v3.2h2.9v-3.5h.7v3.5h3.1v-3.4h.7v3.4h2.2v.6h-2.2v4.6h-4.5ZM677.9,534.6v3.9h3.1v-3.9h-3.1Z"/>
            <path class="cls-30" d="M693.3,536.2c1.1,1.2,2.9,2.3,4.7,2.7-.2.2-.4.4-.5.6-1.9-.6-3.9-1.8-5-3.3h-1.6c-1.1,1.5-3.2,2.7-5,3.4,0-.2-.3-.4-.5-.6,1.7-.5,3.6-1.6,4.7-2.8h-3.1v-5.4h9.4v5.4h-3ZM689.2,538.2h.7v.8c0,1.3-.3,3-3,4.1,0-.2-.3-.4-.5-.5,2.5-1,2.7-2.5,2.7-3.6v-.8ZM687.6,533.2h3.7v-1.8h-3.7v1.8ZM687.6,535.6h3.7v-1.8h-3.7v1.8ZM695.6,531.4h-3.7v1.8h3.7v-1.8ZM695.6,533.8h-3.7v1.8h3.7v-1.8ZM693.7,538.2h.7v4.8h-.7v-4.8Z"/>
            <path class="cls-30" d="M701.3,532c-.4.7-.9,1.3-1.4,1.8-.1-.1-.4-.3-.5-.4.9-.8,1.7-1.9,2.2-3.2l.6.2c-.1.3-.3.7-.5,1h4v.6h-4.3ZM711.1,538.7s0,.2,0,.3c-.2,2-.4,2.8-.8,3.2-.2.2-.4.3-.8.3-.3,0-1,0-1.7,0,0-.2,0-.5-.2-.6.7,0,1.5,0,1.7,0s.4,0,.5-.1c.3-.2.4-.9.6-2.5h-4.5v3.7h-.7v-3.6c-1.2,1.6-3.2,3-5,3.7-.1-.2-.3-.4-.4-.5,1.7-.6,3.6-1.9,4.8-3.3h-4.1c.2-.7.4-1.9.5-2.8h4.2v-1.6h-4.7v-.6h10.2v2.8h-4.8v1.6h5.2ZM701.6,537.1c0,.5-.2,1.1-.3,1.6h4v-1.6h-3.7ZM702.7,532.1c.4.4,1.1,1,1.3,1.4l-.5.4c-.3-.4-.9-1-1.3-1.5l.5-.3ZM712,531.5v.6h-4.9c-.3.5-.7.9-1,1.2-.1,0-.4-.3-.5-.4.8-.6,1.4-1.6,1.8-2.6h.6c-.1.5-.3.8-.5,1.2h4.5ZM706,536.5h4.2v-1.6h-4.2v1.6ZM709.8,533.9c-.3-.4-.9-1-1.4-1.4l.4-.3c.5.4,1.1,1,1.4,1.3l-.4.4Z"/>
            <path class="cls-30" d="M725.8,540.8v.7h-12.4v-.7h12.4ZM724.6,532.4v.7h-10v-.7h10Z"/>
          </g>
          <g>
            <polygon class="cls-19" points="667.4 340 661 340 661 347 667.4 347 669 347 669 340 667.4 340"/>
            <polygon class="cls-12" points="667.4 347 661 347 661 358 667.4 358 669 358 669 347 667.4 347"/>
            <path class="cls-12" d="M673,359.6l-3.1-1.9h-8.9l-3.2,1.9c-2.9,1.8-4.7,4.9-4.7,8.3v31.3c0,1.7,1.4,3,3,3h18.5c1.7,0,3-1.4,3-3v-31.3c0-3.4-1.7-6.5-4.6-8.3Z"/>
            <rect class="cls-17" x="653" y="371.7" width="24.7" height="19.3"/>
            <line class="cls-1" x1="656" y1="398.5" x2="675" y2="398.5"/>
          </g>
        </g>
        <g>
          <g>
            <path class="cls-4" d="M705.5,282.9v-106.6c0-17.2-7.4-33.3-20.9-43.9l-16.6-11.8h-35.8l-16.7,11.8c-13.5,10.6-21,26.7-21,43.9v146.2h111v-39.6Z"/>
            <polygon class="cls-11" points="650.4 44.5 628.5 44.5 628.5 68.5 650.4 68.5 671.5 68.5 671.5 44.5 650.4 44.5"/>
            <polygon class="cls-1" points="651.4 53.5 628.5 53.5 628.5 58.5 651.4 58.5 671.5 58.5 671.5 53.5 651.4 53.5"/>
            <polygon class="cls-11" points="650.4 68.5 631.5 68.5 631.5 111.5 668.5 111.5 668.5 68.5 650.4 68.5"/>
            <polygon class="cls-31" points="650.4 69 631 69 631 72.8 668 79.8 668 69 650.4 69"/>
            <line class="cls-5" x1="603" y1="311" x2="697" y2="311"/>
            <path class="cls-21" d="M705.5,282.9v-106.6c0-17.2-7.1-33.5-20.7-44.1l-16.3-12v-51.7h-37v51.7l-16.3,12c-13.5,10.6-20.7,26.9-20.7,44.1v146.2h111v-39.6Z"/>
            <rect class="cls-27" x="605.3" y="184.3" width="57.4" height="4.5"/>
            <rect class="cls-27" x="605.3" y="192.8" width="28.7" height="4.5"/>
            <rect class="cls-27" x="605.3" y="202.7" width="86.5" height="11.4"/>
            <rect class="cls-27" x="648.4" y="225.6" width="32" height="14.4"/>
            <rect class="cls-27" x="648.4" y="246" width="42.4" height="14.4"/>
            <circle class="cls-27" cx="619.7" cy="244" r="9.5"/>
          </g>
          <g>
            <path class="cls-28" d="M605.6,186h-111.8c-3.4,0-7.8.3-7.7,3.7v101.2c0,0,0,18.4,0,18.4,0,5.5,5.5,10.2,10.9,11.3,10.1,2,91.8,2,102,0,5.4-1.1,8.2-5.8,8.2-11.3v-18.4l3.2-101.2c0-3.4-1.1-3.7-4.5-3.7Z"/>
            <path class="cls-23" d="M508.3,229.4c.4,3.1.7,5.6,1,7.1.3,1.5.4,1.9.6,2.4.1.5.3,1.1.3,1.5,0,.4-.3.8-.5.8-.2,0-.7,0-.9.3-.2.3-.2.7,0,1.5.2.8.6,1.9.9,2.7.3.8.5,1.2.7,1.5.2.4.4.8.5,1.1.2.3,1.1,2.3,1.3,2.6.2.3.6.7,1,1.2.4.5.9,1,1.2,1.3.4.4.6.6.8.7s.4,0,.6-.2c.2-.2,1.1.6,1.2.9,0,.3,1.7,2.1,2,2.7,1.4,2.9,2.6,5.1,3.3,6.3.7,1.2,1,1.4,1.1,1.6,0,.2,0,.3.2,1.1.1.7.4,2.1,1.2,5.3.1,1,0,1.2-.1,1.5-.2.3-.5.7-.8,1.1-.3.5-.7,1-.9,1.3-.2.3-.3.5-.2.8,0,.3.2.9.4,1.6.3.7.7,1.7.8,2.5.2.8,0,1.5.2,1.9.1.4.4.5.6.4.2-.1.3-.5.5-.9.2-.4.4-.8.6-1,.2-.2.3-.1.5,0,.1.2.3.5.8,1.6,1.2.9,1,1.3.9,1.7,0,.4-.1.7,0,.9,0,.2.3.3.4.2.1,0,.2-.2.4-.6.2-.4.6-1.1.8-1.7s.2-1.1.5-1.8c.3-.7.9-1.8,1.2-2.6s1-.9,1.5-1.1c.5-.3.5-.4.4-.6s-.3-.4-.4-.8c-.1-.4-.1-.9.3-1.9.4-1.1,1.3-2.7,1.6-5.1,0-1.5.6-2.3,1-3.1.4-.8.7-1.7,1.2-2.3.4-.6,1-.9,1.6-1.4.6-.5,1.2-1.3,1.5-1.9.3-.6.3-1.1.7-1.8.4-.7,1.2-1.5,1.7-2.3.5-.7.7-1.3,1.4-2,.6-.7,1.7-1.4,3.8-2.7,2.1-1.2,5.1-2.9,6.8-3.9,1.6-1,1.9-1.2,2-1.5s.3-1.8.7-2c.4-.1,2.1.5,2.4.4.3,0,.5-.3,1.6-1.2,1.1-.9,2.9-2.6,4.5-3.8,1.6-1.2,2.9-2.1,3.4-2.8.6-.7.6-2.6.7-3.2.1-.5.2-1.2.4-1.6.2-.4.6-.6,1.6-1.7,1-1.1,2.5-3.2,3.4-4.4.9-1.2,1-1.7,1.1-2.1,0-.5,0-.9.2-1.2s1-1,1.2-1.2c.2-.3,0-2.5.1-2.9.3-.9.8-.9,1.2-1.2.3-.2.5-.7,1.2-2,.7-1.3,2-3.5,2.9-5.3,1-1.9,1.7-3.4,2.2-4.5.6-1.1,1-1.8,1.4-2.5.4-.7.9-1.6,1.5-2.3.6-.7,1.3-1.3,1.6-1.6.4-.4.4-.5.5-.8,0-.3,0-.8.1-1.3,0-.5.2-.9.5-1.3.2-.4.5-.8.9-1.3.4-.5,1-1.1,1.3-1.5.3-.4.4-.5.3-.9,0-.4-.1-1.1,0-1.4,0-.3.2-.3,1.1-.5.9-.3,2.6-.8,3.4-1.2.9-.3.9-.5,1-.9,0-.4.1-1,.3-1.5s.4-.7.8-1.1c.4-.4.9-1.1,1.6-1.6.7-.6,1.5-1.1,2.1-1.6.5-.6.7-1.1,1-1.5.3-.4.7-.6,1-1,.3-.5.6-1.2,1-1.8.4-.6,1.1-1,1.4-1.3.3-.3.4-.4.4-.5,0,0-.2-.1-.5-.7-.3-.6-.7-1.7-1-2.4-.3-.7-.3-.9-.4-1,0-.2,0-.3.1-.8,0-.5.2-1.2.4-2,.2-.8.4-1.5.5-1.9,0-.5,0-.7.2-1,.2-.3.7-.8,1.1-1.2s.7-.8,1.1-1.3c.4-.5,1-1.1,1.8-1.7.8-.6,1.8-1.2,2.5-1.6.7-.4,1.1-.6,1.4-.6s.6,0,.9,0c.3,0,.7,0,.9-.1.2,0,.2-.2.3-.5,0-.2,0-.6-.3-.9-.2-.3-.6-.6-.9-.8-.3-.2-.6-.3-.7-.7-.1-.4,0-1-.2-1.6s-.4-1.2-.8-1.6c-.4-.4-1-.6-1.5-.9-.5-.3-.9-.6-1.2-.9-.4-.3-.8-.6-1.1-.9s-.5-.5-1-.7c-.4-.2-1-.4-1.5-.7-.5-.3-.9-.6-1.1-.9-.2-.3-.3-.7-.5-1.2-.3-.5-.8-1.2-.9-2.2-2-1.2-1.9-1.4-1.9-1.9,0-.5,0-1.4-.2-2-.2-.6-.5-1.1-1.1-1.4-.6-.3-1.3-.4-2.3-.2-1,.2-2.1.6-3.1.9-1,.3-1.9.5-2.5.8-.6.4-1,.9-1.3,1.3-.3.4-.5.6-.8.8-.2.2-.4.3-1,.4-.6.1-1.6.2-2.5.3-.8,0-1.5,0-2.6-.2-1.1-.1-2.6-.4-3.5-.4-.9,0-1.1.2-2.1.6-.9.3-2.5.7-3.5,1-1,.2-1.3.3-1.9.4-.5.1-1.3.4-2.1.7-.8.4-1.6.9-2.5,1.5-.9.6-1.8,1.3-2.7,1.8-.9.5-1.8.8-2.5,1.5-.6.7-1,1.7-1.4,2.5-.4.8-.7,1.3-1,1.8-.3.5-.4.9-.7,1.2-.2.2-.6.3-1.1.7-.5.4-1.3,1.1-1.9,1.4-.6.4-1.1.3-1.6.3-.5,0-.9-.2-1.3-.1-.4,0-.9.4-1.7.9-.8.4-2,1-2.7,1.7-2.2,2.1-3.6,3.4-5,4.5-1.4,1.2-2.8,2.3-3.6,3.2-.9.8-1.2,1.4-1.8,2.1-.6.7-1.4,1.6-2.2,2.2-.8.6-1.6,1-2.5,1.8-.9.8-2,2.1-2.8,2.8-.8.8-1.2,1.1-1.8,1.5-.5.4-1.2.8-1.8,1.2-.6.4-1.3.9-2.1,1.5-.8.6-1.7,1.4-2.5,2.4-.8,1-1.5,2.2-3.3,3.1-2.5,1.6-3.5,2.4-4.6,3.4-1,1-2.1,2.1-2.9,3.1-.8,1-1.3,2-1.7,2.9-.4.9-.7,1.8-.9,2.5-.2.8-.2,1.4-.4,2-.1.6-.3,1.2-.6,2s-.6,1.8-1,2.7c-.4.8-.8,1.5-1.3,2.4-.5.9-1,2-1.7,3.2-.7,1.2-1.4,2.4-1.9,3.1-.5.7-.7,1-.8,1.2s.3,1,.1,1.7c-.2.7-.6,1.8-.7,2.6-.1.8,0,1.2.7,2.4.6,1.2,1.6,3.3,2.5,6.1Z"/>
            <path class="cls-22" d="M498.7,239.8c1.5,33.1,6.1,47.7,13.8,50,6.1,1.8,29.2,2.7,35.8,2.7,6.6,0,29.8-1.2,35.8-3.1,7.7-2.3,12.3-16.5,13.8-49.5h-99.3Z"/>
            <path class="cls-5" d="M491.2,296s16.9,6,57.2,6c40.2,0,54.5-6,54.5-6"/>
            <path class="cls-5" d="M492,190.9s2.5,68.2,4.1,81.4c1.6,13.2,6.6,20.5,14.8,23,6.5,1.9,30.3,3.2,37.4,3.2,7.1,0,30.9-1.2,37.4-3.2,8.2-2.5,13.2-9.8,14.8-23,1.6-13.2,4.1-81.4,4.1-81.4"/>
            <path class="cls-1" d="M498.7,239.8c1.5,33.1,6.1,47.7,13.8,50,6.1,1.8,29.2,2.7,35.8,2.7,6.6,0,29.8-1.2,35.8-3.1,7.7-2.3,12.3-16.5,13.8-49.5h-99.3Z"/>
            <path class="cls-14" d="M601.2,300.9c-1.1,5.1-5,10.2-18.5,14.6"/>
            <path class="cls-14" d="M492.8,300.9c1.1,5.1,5,10.2,18.5,14.6"/>
            <path class="cls-25" d="M500,302.1s14.2,3.6,48.1,3.6c33.9,0,45.9-3.6,45.9-3.6"/>
            <path class="cls-2" d="M605.6,185.5h-111.8c-3.4,0-7.5.5-7.5,3.9l.2,101.4v18.4c0,5.5,5.3,10.2,10.6,11.3,10.1,2,92,2,102.1,0,5.4-1.1,8.3-5.8,8.3-11.3v-18.4l2.9-101.4c0-3.4-1.3-3.9-4.7-3.9Z"/>
            <polyline class="cls-7" points="577.7 160.9 585.7 158.5 589.6 162"/>
            <polyline class="cls-7" points="571.2 171 567.3 169.5 564.1 172.7 557 174.2"/>
            <polyline class="cls-7" points="541.3 233.9 534.3 230.5 531.1 233.7 524 235.2"/>
            <polyline class="cls-7" points="543.6 196.5 539.7 192 532.8 195"/>
            <polyline class="cls-7" points="558.5 208.4 552.8 202.7 549.7 198.4 541.1 203.7 533.8 206.7"/>
            <polyline class="cls-7" points="528 226.8 536.8 220.4 539.2 223.6"/>
            <polyline class="cls-7" points="554 193.5 560.7 192 565.6 197"/>
            <polyline class="cls-7" points="544 215.5 550.7 214 555.6 219"/>
          </g>
          <line class="cls-6" x1="742" y1="323" x2="446" y2="323"/>
        </g>
      </g>
    </g>
  </g>
</svg>