<?xml version="1.0" encoding="UTF-8"?>
<svg xmlns="http://www.w3.org/2000/svg" version="1.1" viewBox="0 0 2551.2 2126">
  <defs>
    <style>
      .cls-1, .cls-2, .cls-3, .cls-4, .cls-5, .cls-6, .cls-7, .cls-8, .cls-9, .cls-10, .cls-11, .cls-12, .cls-13, .cls-14, .cls-15, .cls-16, .cls-17, .cls-18, .cls-19, .cls-20, .cls-21, .cls-22, .cls-23, .cls-24, .cls-25, .cls-26, .cls-27, .cls-28, .cls-29 {
        stroke: #101010;
      }

      .cls-1, .cls-2, .cls-3, .cls-4, .cls-5, .cls-6, .cls-7, .cls-8, .cls-9, .cls-11, .cls-12, .cls-13, .cls-14, .cls-15, .cls-16, .cls-17, .cls-18, .cls-19, .cls-20, .cls-21, .cls-24, .cls-25, .cls-27, .cls-28, .cls-29 {
        stroke-linecap: round;
      }

      .cls-1, .cls-2, .cls-3, .cls-4, .cls-5, .cls-6, .cls-7, .cls-8, .cls-9, .cls-11, .cls-12, .cls-13, .cls-14, .cls-15, .cls-16, .cls-18, .cls-19, .cls-20, .cls-21, .cls-22, .cls-25, .cls-27, .cls-28, .cls-29 {
        stroke-linejoin: round;
      }

      .cls-1, .cls-18, .cls-25 {
        fill: #be1e2d;
      }

      .cls-2, .cls-4, .cls-11, .cls-12, .cls-18, .cls-19, .cls-27 {
        stroke-width: 5px;
      }

      .cls-2, .cls-6, .cls-28 {
        fill: #ffdd15;
      }

      .cls-3 {
        fill: #8a5d3b;
      }

      .cls-3, .cls-5, .cls-14 {
        stroke-width: 3px;
      }

      .cls-4, .cls-5, .cls-8, .cls-17, .cls-20 {
        fill: none;
      }

      .cls-6 {
        stroke-width: 1px;
      }

      .cls-30 {
        fill: #f0f0f0;
      }

      .cls-7 {
        stroke-width: 5px;
      }

      .cls-7, .cls-19 {
        fill: #26a9e0;
      }

      .cls-8 {
        stroke-width: 2.5px;
      }

      .cls-9, .cls-12, .cls-14 {
        fill: #ee4036;
      }

      .cls-9, .cls-16, .cls-17, .cls-24, .cls-25, .cls-29 {
        stroke-width: 2px;
      }

      .cls-10, .cls-13, .cls-15, .cls-26 {
        stroke-width: 6px;
      }

      .cls-10, .cls-17, .cls-23, .cls-24, .cls-26 {
        stroke-miterlimit: 10;
      }

      .cls-10, .cls-21, .cls-22, .cls-23, .cls-24 {
        fill: #fff;
      }

      .cls-11, .cls-26, .cls-31 {
        fill: #101010;
      }

      .cls-13, .cls-29 {
        fill: #f48c8a;
      }

      .cls-15, .cls-16, .cls-27 {
        fill: #facdd0;
      }

      .cls-32 {
        isolation: isolate;
      }

      .cls-33 {
        mix-blend-mode: multiply;
      }

      .cls-20, .cls-21, .cls-23 {
        stroke-width: 4px;
      }

      .cls-22 {
        stroke-width: 7px;
      }

      .cls-28 {
        stroke-width: 1px;
      }
    </style>
  </defs>
  <!-- Generator: Adobe Illustrator 28.7.4, SVG Export Plug-In . SVG Version: 1.2.0 Build 166)  -->
  <g>
    <g id="Layer_1">
      <rect class="cls-30" width="2551.2" height="2126"/>
      <g id="Layer_1-2" data-name="Layer_1">
        <g class="cls-32">
          <g id="Layer_2">
            <polygon class="cls-12" points="1325.3 256.6 1292.4 256.6 1292.4 223.7 1258.8 223.7 1258.8 256.6 1225.9 256.6 1225.9 290.3 1258.8 290.3 1258.8 323.2 1292.4 323.2 1292.4 290.3 1325.3 290.3 1325.3 256.6"/>
            <g class="cls-32">
              <g class="cls-32">
                <path class="cls-31" d="M505.4,379.9c-5.9,12.6-15.1,31.7-22.9,46.1,10.4-.5,45.7-2.7,52.9-3.4-4.9-5.6-10.4-11-16-16.6l19.1-16.2c21.4,20.9,30.1,31.1,49.5,56.2l-21.4,16.2c-4-6.3-8.8-12.6-13.7-18.5-35.1,3.1-54.2,4.5-86.4,7-9,.7-20.2,1.4-42.8,3.2l-3.8-25.7c10.6-.4,21.4-.5,32.4-1.1,6.5-13.3,21.2-46.1,25.9-56.3l27.2,9.2h0ZM561.4,455.9v81.2h-28.3v-5.6h-65.3v7.7h-27.2v-83.3h120.8ZM467.8,508.8h65.3v-30.1h-65.3v30.1Z"/>
                <path class="cls-31" d="M609.1,528.1c4-13.9,14.8-49.1,17.5-57.1,5.9,3.2,12.4,6.1,19.4,8.1-2.5,10.3-11.9,45.7-14.9,56.2l-22-7.2ZM619.7,418.8c7.9,2.9,15.7,7.2,23.2,11.9l-9.7,18.5c-7.2-4.1-14.8-8.6-22.5-11.9l9-18.5ZM626,373.6c7.7,3.4,15.1,7.6,22.3,12.4l-11.3,19.4c-7-5-13.7-9.4-22.3-13.1l11.3-18.7h0ZM758.1,378.1c-4.1,7.7-8.1,15.1-12.4,23l2.7,1.8c3.8-6.1,7.7-12.4,11.9-18.7l14,6.7c-2.9,4-9.2,13-14.9,21.2l12.8-4.7c4,6.5,6.7,13,9.5,19.6l-15.1,6.3-1.1-2.5c-1.4.2-2.7.5-4.3.9v7.6l10.4-3.8c2.3,6.3,4.9,12.1,7.9,18-4.1,2-8.3,3.8-13,5.6-1.6-3.2-3.4-7.2-5.4-10.8v14.4h-17.6v-12.4c-1.3,3.8-2.5,6.5-4.1,9.5-3.2-1.4-7.2-3.1-11.2-4v6.3h-41.2v-9.5c-3.1.9-5.6,2.2-8.6,3.6-1.3-3.4-2.7-6.7-4.7-10.1v16.6h-17.8v-16.4c-1.8,5.2-3.2,9.4-5,13.9-4.9-2-9.5-3.8-14.2-5.4,2.3-5.8,4.9-12.1,6.5-18.2l12.8,4v-6.8c-4,.2-7.6.5-11.3,1.1l-3.1-15.3h8.8l3.2-4.9c-3.4-2.5-8.1-5.4-13.3-8.1l6.8-13.5,1.4,1.3c3.4-7.6,6.7-14.8,9.9-22.1l13.7,6.3c-4.1,7.2-8.3,13.9-12.8,21.8l2.7,1.4c2.9-4.7,6.5-10.1,9.5-15.3l13,7.2c-6.5,9.7-7.2,10.8-11.7,17.3l9.5-4.5c3.1,4.5,5,8.6,7,12.2h34.7v10.6h-34v-2.2l-11.2,5.4-1.3-1.8-4,.4v7.7l9.7-4c1.1,3.1,2.2,5.8,3.6,8.8v-11h41.2v18.9c2.3-5,4.1-11,6.1-16l9.2,3.4v-5.8c-4.1.7-8.5,1.4-13.1,1.6l-3.2-14.9h10.3l2-3.1c-4.9-3.8-9.2-7.2-15.3-10.6v8.5h-34v-10.6h32l2.2-3.2h-39.8v-11.5h45v4l1.3-1.8,3.2,1.8c3.6-7.2,6.7-14.6,9.7-21.8l14.4,6.7h0ZM765.8,496.7h-94l-1.1,4.7h100.6c-4,35.6-7,37.6-40,39.2-1.3-5.9-2.7-11.9-5.9-16.7h14c3.2,0,3.4-1.3,4.7-8.8h-77.2l-2.2,5.4-22.5-5c3.2-10.4,6.3-21.1,9.5-31.9h88.7v-4.3h-92.7v-13.1h117.9v30.6h.2ZM666.7,419.5c2.7-.2,4.5-.5,6.1-.5l-2.7-4.9-3.4,5.4h0ZM725.7,385.5h-37.1v-11.7h37.1v11.7ZM703,450.1h9v-5.6h-9v5.6ZM754.3,419.3c2-.4,3.6-.5,5.8-.7l-2.3-4.3-3.4,5h0Z"/>
                <path class="cls-31" d="M902.8,376.5v49.5h64.6v25.7h-64.6v82.3h-28.8v-82.3h-64.6v-25.7h64.6v-49.5h28.8Z"/>
                <path class="cls-31" d="M1095.6,376c-.2,12.4-.5,25.2-.9,38h66.1v26.5h-61.9c7.9,18.4,23.9,53.3,68.4,76.5-8.3,6.8-15.5,15.1-20.9,24.1-20.3-12.6-27.4-19.6-38.9-33.7-9.7-12.1-15.8-20.9-24.7-41-13.3,34.2-34.4,56.3-72.4,76.1-4.1-9-9.2-17.8-16.6-24.7,54-23.6,64.1-62.5,67.9-77.4h-58.7v-26.5h62.3c.4-14.6.5-25.7.5-38h29.8Z"/>
                <path class="cls-31" d="M1297.4,373.1v9.5h56.7v21.1h-114.3c0,36,0,42.3-.4,47.5h51.5v36.7h-52.2v-18.4c-5.4,34.7-12.1,48.8-27.4,69.1-5.8-6.8-12.8-13.7-20-19.1,8.6-8.6,16.7-19.4,21.1-40.5-4.9,2.2-9.2,4-14,6.1l-8.1-25c8.1-2.7,16.7-5.6,25-9.2l.5-12.4-16.4,6.7c-2.3-9-5.8-18.5-10.4-27.5l18.9-8.5c2.9,5.2,5.6,11.2,7.9,16.6v-43.2h52v-9.5h29.6ZM1310.2,491.2v17.3h15.7v-12.6h26.3v39.1h-26.3v-5.9h-59.4v7h-25.7v-40h25.7v12.4h16.9v-17.3h26.8ZM1335.2,409.8v35.3h-78.5v-35.3h78.5ZM1258.7,471.7h11.9v-5.8h-11.9v5.8ZM1282.3,430.5h27.2v-5.4h-27.2v5.4ZM1354.8,451v36.2h-55.6v-36.2h55.6ZM1320.1,472.1h11.5v-6.1h-11.5v6.1Z"/>
                <path class="cls-31" d="M1492.5,374v14.2h55.4v23h-114.7c-1.4,55.8-1.8,71.3-13.7,97.6h18.9v-49.9h25.9v49.9h13.5v-66.1h-40.9v-22.9h107.3v22.9h-39.8v19.6h33.5v24.1h-33.5v22.3h46.3v24.1h-133v-19.4c-4.3,9-10.3,17.8-17.1,25-4.9-7-10.8-14.2-18-18.7,13.7-14.8,19.6-32,23-44.1-5,2.7-11.2,6.3-16.4,9.2l-7-24.5c9-3.1,18.7-6.8,26.6-9.5.5-3.8.7-7,.7-11l-15.1,5.9c-3.2-9.5-7.4-19.6-12.2-28.6l18.7-7.9c2.9,5,6.1,11.7,8.5,16.2v-37.3h52.6v-14.2h30.5Z"/>
                <path class="cls-31" d="M1636,372.2v16.6h22.7v19.8h-22.7v9.5h27.4v20.5l-7.2.4c-2.2,5.4-4.5,11.3-6.3,17.3h11.9v20.3h-25.6v11.2h23v20.7h-23v29.5h-25.7v-29.5h-25.4v-20.7h25.4v-11.2h-29.2v-20.3h14.9c-2.5-4-5-8.6-8.5-13l7.6-4.3h-15.3v-20.9h30.2v-9.5h-24.8v-19.8h24.8v-16.6h25.8ZM1610.9,439c2.9,4.5,5.6,9.7,8.5,14.9l-4.9,2.3h13.3c1.8-5.9,3.4-11.7,5-17.3h-22,0ZM1741.4,377c0,7.9-.2,41.4-2.5,48.8-3.6,11.9-16.6,12.8-30.6,13-.9-7.2-2.7-13.9-5.4-20.2h9.9c3.4,0,4,0,4-18.7h-28.6v42.5h40l1.3-1.1,17.5,13c-5.2,17.3-9.5,29.5-19.3,47.3,6.8,6.8,8.5,7.7,22.7,16.6-6.5,6.1-11.3,14-13.7,22-13.1-9-18.4-13.9-23.4-19.1-6.3,7.6-11.3,12.6-19.8,19.1-1.8-4.7-3.2-8.6-5.2-12.8v10.3h-23.4v-160.6h76.7-.2ZM1688.2,462.7v48.8c4.1-3.1,7.4-6.3,10.6-10.6-6.5-15.1-7.4-24.3-9-38.2h-1.6ZM1709.8,462.7c.4,5.2,1.4,10.8,3.4,16.2,2.3-5.2,4.7-10.6,6.3-16.2h-9.7Z"/>
                <path class="cls-31" d="M1870.5,374.5v24.7h49.3v23.2h-49.3v14.2h65.9v24.1h-162.2v-24.1h20c-5-4.5-10.6-9.2-16.9-13.7,15.3-16.7,24.1-32.4,31.3-47.2l26.5,9.7c-2.2,3.6-4.9,8.8-7.2,13.7h14.8v-24.7h27.9-.1ZM1916.6,468.5v68.9h-28.8v-6.1h-63.9v5.6h-28.1v-68.4h120.8ZM1813.4,422.4c-3.4,4.5-7,9.4-11.2,14.2h40.3v-14.2h-29.2,0ZM1823.9,507.9h63.9v-17.5h-63.9v17.5Z"/>
                <path class="cls-31" d="M2062.2,371.5v8.1h45.9v19.8h22.3v15.3h-22.3v18.7h-45.9v4.5h53.1v14.2h-53.1v4.7h68.2v16.4h-163.1v-16.4h64.4v-4.7h-49.5v-14.2h49.5v-4.5h-39.6v-14h39.6v-4.7h-64.3v-15.3h64.3v-4.1h-39.6v-15.7h39.6v-8.1h30.5ZM2109,477.5v61h-30.8v-4.7h-60.3v4.9h-28.1v-61.2h119.2ZM2017.9,493v5.2h60.3v-5.2h-60.3,0ZM2017.9,517.6h60.3v-5.6h-60.3v5.6h0ZM2062.2,399.4h19.4v-4.1h-19.4v4.1ZM2062.2,414.7v4.7h19.4v-4.7h-19.4Z"/>
              </g>
            </g>
            <g>
              <path class="cls-31" d="M1190.3,697.4v6h-73.2c.3-5.1,1.5-9.7,3.5-13.8s4.6-7.8,7.7-11.1,6.6-6.4,10.5-9.3c3.9-2.9,7.8-5.6,11.9-8.3,3.9-2.7,7.8-5.3,11.6-8,3.8-2.7,7.2-5.6,10.3-8.7,3-3.1,5.4-6.4,7.2-10.1,1.8-3.7,2.7-7.8,2.7-12.5s-.7-7.1-2.2-10.1-3.5-5.6-6-7.8-5.4-3.8-8.6-5-6.7-1.8-10.3-1.8-9.3.9-13.1,2.6c-3.7,1.8-6.8,4.1-9.2,7.2-2.4,3-4.3,6.6-5.5,10.7-1.2,4.1-1.8,8.5-1.8,13.3h-6c.6-13.3,3.9-23.1,9.7-29.5,5.8-6.4,14.2-9.6,25-9.6s9.1.6,13.2,1.8,7.7,3.1,10.8,5.6c3.1,2.5,5.5,5.6,7.3,9.4,1.8,3.8,2.7,8.2,2.7,13.3s-.9,9.2-2.6,13.1c-1.8,4-4.1,7.7-6.9,11.1-2.9,3.4-6.2,6.5-9.9,9.4-3.7,2.9-7.5,5.6-11.5,8.3-3.9,2.7-7.8,5.3-11.6,7.8-3.8,2.5-7.3,5.2-10.3,7.9-3.1,2.7-5.6,5.5-7.6,8.5s-3.1,6.2-3.4,9.6h65.6Z"/>
              <path class="cls-31" d="M1222.9,700.1c-5.1-3.4-9.2-7.9-12.2-13.4s-5.1-11.6-6.3-18.3c-1.2-6.7-1.8-13.4-1.8-20s.6-13.2,1.8-20c1.2-6.7,3.3-12.8,6.3-18.3s7.1-9.9,12.2-13.4c5.1-3.4,11.6-5.2,19.6-5.2s14.5,1.7,19.6,5.2,9.2,7.9,12.2,13.4,5.1,11.6,6.3,18.3c1.2,6.7,1.8,13.4,1.8,20s-.6,13.2-1.8,20c-1.2,6.7-3.3,12.8-6.3,18.3s-7.1,9.9-12.2,13.4c-5.1,3.4-11.6,5.2-19.6,5.2s-14.5-1.7-19.6-5.2ZM1259.4,695.1c4.4-3.3,7.8-7.5,10.3-12.6s4.2-10.7,5.2-16.7,1.4-11.8,1.4-17.4-.5-11.3-1.4-17.4c-1-6-2.7-11.6-5.2-16.7-2.5-5.1-5.9-9.3-10.3-12.6s-10-4.9-16.9-4.9-12.5,1.6-16.9,4.9c-4.4,3.3-7.8,7.5-10.3,12.6s-4.2,10.7-5.2,16.7-1.4,11.8-1.4,17.4.5,11.3,1.4,17.4c1,6,2.7,11.6,5.2,16.7,2.5,5.1,5.9,9.3,10.3,12.6s10,4.9,16.9,4.9,12.5-1.6,16.9-4.9Z"/>
              <path class="cls-31" d="M1331.9,703.4h-6v-98.1c-3.9,4.1-8.4,7.4-13.5,9.7s-10.4,3.8-15.9,4.3v-5.3c6.4-1,12.2-3.2,17.4-6.8,5.2-3.6,9.4-8.1,12.7-13.8h5.4v110h0Z"/>
              <path class="cls-31" d="M1434.1,697.4v6h-73.2c.3-5.1,1.5-9.7,3.5-13.8s4.6-7.8,7.7-11.1,6.6-6.4,10.5-9.3c3.9-2.9,7.8-5.6,11.9-8.3,3.9-2.7,7.8-5.3,11.6-8,3.8-2.7,7.2-5.6,10.3-8.7,3-3.1,5.4-6.4,7.2-10.1,1.8-3.7,2.7-7.8,2.7-12.5s-.7-7.1-2.2-10.1-3.5-5.6-6-7.8-5.4-3.8-8.6-5-6.7-1.8-10.3-1.8-9.3.9-13.1,2.6c-3.7,1.8-6.8,4.1-9.2,7.2-2.4,3-4.3,6.6-5.5,10.7-1.2,4.1-1.8,8.5-1.8,13.3h-6c.6-13.3,3.9-23.1,9.7-29.5,5.8-6.4,14.2-9.6,25-9.6s9.1.6,13.2,1.8,7.7,3.1,10.8,5.6c3.1,2.5,5.5,5.6,7.3,9.4,1.8,3.8,2.7,8.2,2.7,13.3s-.9,9.2-2.6,13.1c-1.8,4-4.1,7.7-6.9,11.1-2.9,3.4-6.2,6.5-9.9,9.4-3.7,2.9-7.5,5.6-11.5,8.3-3.9,2.7-7.8,5.3-11.6,7.8-3.8,2.5-7.3,5.2-10.3,7.9-3.1,2.7-5.6,5.5-7.6,8.5s-3.1,6.2-3.4,9.6h65.6Z"/>
            </g>
            <g>
              <g>
                <g>
                  <path class="cls-22" d="M1933.4,1245c-.8-13.4-2.4-31.9-10.1-59.7-2.4-8.7-6.1-19-6.1-19-.5-4.2-1.2-19.4-2-23.5-4.2-21.8-4.2-73.8-7.9-115.9-3.6-42.1-15.1-65.6-18.4-74.7s-3.9-30.6-4.1-62-10.1-41.3-9.6-51.4c.5-10.1,2-14.5,5.1-33.7s-.8-51.1-11.2-69.8c-10.4-18.7-24.3-20.5-32.1-29.3-7.8-8.8-17.7-7.8-17.7-7.8-15.8-10.6-61.1-32.1-82.4-43.7-9.7-5.3-48.7-55.2-48.7-55.2,0,0-39,49.8-48.7,55.2-21.3,11.7-66.5,33.1-82.4,43.7,0,0-9.9-1-17.7,7.8-7.8,8.8-21.7,10.6-32.1,29.3s-14.3,50.6-11.2,69.8c3.1,19.2,4.6,23.6,5.1,33.7.5,10.1-9.4,20-9.6,51.4s-.8,53-4.1,62-14.8,32.7-18.4,74.7c-3.6,42.1-3.7,94-7.9,115.9-.8,4.1-1.5,19.3-2,23.5,0,0-3.8,10.3-6.1,19-7.6,27.8-9.2,46.4-10.1,59.7-2.1,17.2,10.9,17.4,10.9,17.4,0,0,2.3,6,6.4,6.2s7.3-.4,7.3-.4c0,0,3.8,6.5,10.3,6.9,6.5.3,9.1-2.3,9.1-2.3,0,0,3.6,2.6,9.4,2.9s7.5-6,7.5-6c0,0,2.1,1.9,4.8,2,6.8.3,6.7-8.4,9.5-16.6,1.9-5.5-.3-16,.5-31.5s-12.6-28.5-18.2-34.4c-3.8-4-2-17.1-2-17.1,1.9-15.7,5.9-34.9,15.5-51.8,12.5-22.1,26.1-74,30.4-107.8,4.4-34.5-1.1-42.8,1.2-56.9s15.6-40.7,17.5-93.5c0,0,7.4,35.1,19.4,53.2,6.8,10.3,7.1,64.3,4.8,74.7-2.3,10.4-2.1,50.1-2.1,50.1,0,0-22.2,56.8-18.1,99.3-13.6,92.6-17.3,125.5-12.7,190.6,4.6,65.9,5.4,87.3,2.9,102-2.4,14.7-11.8,54.4-13.4,84.7-1.6,30.3,6,145.1,5.3,172.5-.3,14.1-.9,32.7-.9,46.9s1.4,14.4,1.4,20.3-5.9,18-5.7,29.5c.2,11.5-29.7,32.4-30.7,40.3,0,0-14.4,16.9-.5,24,0,0,3.4,10.5,13.5,6.8,0,0,4.7,9.5,16.2,4.1,0,0,5.1,8.4,20.3,1.7,0,0,3.4,5.4,16.6,5.4s15.9-6.8,19.9-16.2c4.1-9.5,8.4-7.4,8.4-17.8s-2-24.3,0-30.2c2-5.9,7.2-5.4,9-11.5s.5-18.5-7.4-26.1c-7.9-7.7.9-19.2.9-33.3s-7.8-25.3-7.8-36.8.9-29.6,9.5-72.5c8.7-43.4,20.4-64.2,23.7-107.8,3-40.6-3.7-65.2-1.2-96.1,2.4-29.4,47.5-142.8,53.6-223.1,6.1,80.4,51.2,193.8,53.6,223.1,2.6,30.9-4.2,55.5-1.2,96.1,3.3,43.5,15,64.4,23.7,107.8,8.6,42.9,9.5,58.6,9.5,72.5s-7.8,22.6-7.8,36.8,8.8,25.7.9,33.3c-7.9,7.7-9.2,20.1-7.4,26.1,1.8,6.1,7,5.6,9,11.5s0,19.8,0,30.2,4.4,8.3,8.4,17.8c4.1,9.5,6.8,16.2,19.9,16.2s16.6-5.4,16.6-5.4c15.2,6.7,20.3-1.7,20.3-1.7,11.5,5.4,16.2-4.1,16.2-4.1,10.1,3.7,13.5-6.8,13.5-6.8,13.9-7.1-.5-24-.5-24-1-7.9-30.9-28.8-30.7-40.3.2-11.5-5.7-23.6-5.7-29.5s1.4-5,1.4-20.3-.5-32.7-.9-46.9c-.7-27.3,6.9-142.1,5.3-172.5-1.6-30.3-11-70-13.4-84.7s-1.7-36.1,2.9-102c4.6-65.1.9-98-12.7-190.6,4.2-42.5-18.1-99.3-18.1-99.3,0,0,.2-39.7-2.1-50.1-2.3-10.4-2-64.4,4.8-74.7,12-18.1,19.4-53.2,19.4-53.2,1.9,52.8,15.2,79.5,17.5,93.5s-3.2,22.3,1.2,56.9c4.3,33.8,17.9,85.7,30.4,107.8,9.5,16.9,13.6,36.1,15.5,51.8,0,0,1.8,13.2-2,17.1-5.6,5.9-19,18.9-18.2,34.4s-1.4,26,.5,31.5c2.8,8.2,2.7,16.9,9.5,16.6,2.8,0,4.8-2,4.8-2,0,0,1.7,6.3,7.5,6s9.4-2.9,9.4-2.9c0,0,2.6,2.6,9.1,2.3,6.5-.3,10.3-6.9,10.3-6.9,0,0,3.2.6,7.3.4,4.1-.2,6.4-6.2,6.4-6.2,0,0,13-.2,10.9-17.4h.4,0Z"/>
                  <g>
                    <path class="cls-20" d="M1813.4,1862.5s2.6-7.4,1.5-11.6-9.7-9.6-10.9-15.1"/>
                    <path class="cls-20" d="M1833.7,1860.9s3.1-5.5,2-9.2-7.8-9.1-8.3-14"/>
                    <path class="cls-20" d="M1849.9,1856.8s1-5,0-8-6.6-9.2-7.1-11.5"/>
                    <path class="cls-20" d="M1863.4,1850.1s-.2-5.4-1.8-7.5-5.8-5.7-6.8-9.2"/>
                  </g>
                  <g>
                    <path class="cls-20" d="M1561.3,1862.5s-2.6-7.4-1.5-11.6,9.7-9.6,10.9-15.1"/>
                    <path class="cls-20" d="M1541,1860.9s-3.1-5.5-2-9.2,7.8-9.1,8.3-14"/>
                    <path class="cls-20" d="M1524.8,1856.8s-1-5,0-8,6.6-9.2,7.1-11.5"/>
                    <path class="cls-20" d="M1511.3,1850.1s.2-5.4,1.8-7.5,5.8-5.7,6.8-9.2"/>
                  </g>
                  <path class="cls-20" d="M1618.3,1405.9c-4.2,13.3-5.3,37.1-22.7,45.2"/>
                  <path class="cls-20" d="M1756.7,1405.9c4.2,13.3,5.3,37.1,22.7,45.2"/>
                  <path class="cls-20" d="M1636.3,720.9s-5.8,2.4-15.2,2.4-30.1-18.2-37.8-18.2"/>
                  <path class="cls-20" d="M1740.1,720.9s5.8,2.4,15.2,2.4,30.1-18.2,37.8-18.2"/>
                  <path class="cls-21" d="M1633.7,688.1c-1-17.7,7.9-46.2,6.4-62.7h94.5c-1.5,16.4,7.4,45,6.4,62.7"/>
                  <path class="cls-20" d="M1867.7,955.7c2.3,14.1-16.8,28.5-16.8,28.5"/>
                  <path class="cls-20" d="M1508.7,955.7c-2.3,14.1,16.8,28.5,16.8,28.5"/>
                  <path class="cls-20" d="M1679,726.7s3.9,9.8,9.2,9.8,9.2-9.8,9.2-9.8"/>
                  <path class="cls-20" d="M1867.7,955.7c2.3,14.1-16.8,28.5-16.8,28.5"/>
                  <g>
                    <path class="cls-3" d="M1872.4,1269.6c-3.2-8.9,2.2-18.2-2.1-38.7"/>
                    <path class="cls-3" d="M1889.3,1272.7c3.9-8.4,2.3-14.7,4.7-20.6"/>
                    <path class="cls-3" d="M1908.7,1268.2c1.9-3.3-.7-7.7,3.2-17.5"/>
                    <path class="cls-3" d="M1922.4,1262.4c-.3-5,2.8-9,2.6-14.9"/>
                  </g>
                  <g>
                    <path class="cls-3" d="M1503.9,1269.6c3.2-8.9-2.2-18.2,2.1-38.7"/>
                    <path class="cls-3" d="M1487.1,1272.7c-3.9-8.4-2.3-14.7-4.7-20.6"/>
                    <path class="cls-3" d="M1467.7,1268.2c-1.9-3.3.7-7.7-3.2-17.5"/>
                    <path class="cls-3" d="M1453.9,1262.4c.3-5-2.8-9-2.6-14.9"/>
                  </g>
                </g>
                <g class="cls-33">
                  <path class="cls-19" d="M1652.5,711.4c-36.4,0-88.9,95.5-70.3,152.8,7.8,24,81.7,19.9,84.5-15.1,2-24.9,14-137.7-14.2-137.7Z"/>
                  <path class="cls-19" d="M1723.8,711.4c36.4,0,88.9,95.5,70.3,152.8-7.8,24-81.7,19.9-84.5-15.1-2-24.9-14-137.7,14.2-137.7Z"/>
                  <path class="cls-12" d="M1741.1,933.9c-2.2,0-4.4-1.3-5.4-3.4-5.4-11.3-13.5-17.7-22-24.5-15.5-12.4-31.5-25.2-31.5-65.1v-184.1h12v184.1c0,34.2,12.5,44.1,27,55.7,9.2,7.3,18.7,14.9,25.3,28.7,1.4,3,.2,6.6-2.8,8-.8.4-1.7.6-2.6.6Z"/>
                  <g>
                    <path class="cls-15" d="M1758.6,1076c0-6.1-3.9-11.3-9.3-13.3,3.3-3.4,5.3-8,5.3-13,0-7.4-4.4-13.9-10.7-16.9,2.4-2.5,3.9-5.9,3.9-9.7,0-5.4-3-10-7.4-12.4,5.1-2.9,8.6-8.4,8.6-14.7,0-9.4-7.6-17-17-17s-11,3-14.1,7.5c-2.5-2.4-5.9-3.8-9.7-3.8s-9.3,2.6-11.8,6.4c-2.5-3.9-6.9-6.4-11.8-6.4s-9.1,2.5-11.7,6.2c-2.8-2.3-6.4-3.6-10.3-3.6s-10.1,2.5-13.1,6.5c-2.8-3.3-7-5.3-11.6-5.3-8.5,0-15.4,6.9-15.4,15.4s1.4,7.2,3.6,9.9c-3.5,2.6-5.9,6.7-5.9,11.5s2.2,8.7,5.6,11.3c-5.1,2.1-8.7,7.2-8.7,13.1s1.8,7.9,4.6,10.4c-2.4,2.8-3.8,6.5-3.8,10.5,0,5.7,2.9,10.6,7.2,13.6-4.3,2.9-7.1,7.8-7.1,13.4,0,9,7.3,16.3,16.3,16.3s6.1-.9,8.6-2.5c2.2,7.9,9.4,13.8,18,13.8s14.4-4.7,17.2-11.4c2.4,1.9,5.5,3.1,8.8,3.1s8.2-2,10.8-5c3.2,4.1,8.1,6.8,13.7,6.8,8.3,0,15.3-5.9,16.9-13.8,2,1,4.2,1.6,6.5,1.6,7.8,0,14.1-6.3,14.1-14.1s0-.5,0-.7c5.6-1.9,9.7-7.2,9.7-13.4v-.3h0Z"/>
                    <path class="cls-4" d="M1647.2,1010.3s9.8,6.2,21.3,1c11.4-5.3,21.8,1.1,21.8,1.1"/>
                    <path class="cls-4" d="M1680.8,1000.8s-5.9,7.9-10.4,9.7"/>
                    <path class="cls-4" d="M1740.4,1010.7s-12.6,2.6-20.5-.9-15.1-2.3-18.4-.6"/>
                    <path class="cls-4" d="M1719.9,1009.8s2.1,19.9-9.5,16.2"/>
                    <path class="cls-4" d="M1646.5,1090s-3.2,3.2-1,8.3"/>
                    <path class="cls-4" d="M1695.8,1084.1s-10.8,4.9-26.7,0-22.6,5.9-22.6,5.9c0,0-3-7.8-8-8.6"/>
                    <path class="cls-4" d="M1672,1029.7c-6.6,3-16.9,1.9-22.6,4s-4.2,12.9-7.3,17.4c-3.1,4.5,3.3,9.6.5,16.6"/>
                    <path class="cls-4" d="M1649.4,1033.7s-6.6-3.4-9-10.9"/>
                    <path class="cls-4" d="M1657,1013.3s-2.4,6.5-1.8,8.6"/>
                    <path class="cls-4" d="M1696.3,1029.7c-17.9,0-14.7,13.7-13.4,18.7,0,0-5.4,3.4-3.8,12.3,1.8,10.4,23.1,14.3,53.1,1.6"/>
                    <path class="cls-4" d="M1694,1051.9s24.1,0,32.2-6.6c8.2-6.7,9.4-16.2,9.4-16.2"/>
                    <path class="cls-4" d="M1729.3,1042.3s5.8,1.7,8.5,5.5"/>
                    <path class="cls-4" d="M1682.9,1048.9s-21.1.2-23.9,2.2c-2.2,1.6-3.5,4.9-3.5,4.9"/>
                    <path class="cls-4" d="M1655.5,1045.1s3.2,2.6,3.5,6"/>
                    <path class="cls-4" d="M1705.5,1069.9s7.1,14.2,2.6,28.4"/>
                    <path class="cls-4" d="M1745.2,1073.8s-11.2,6.6-17.4,8.6c0,0,.5,4.5-1.8,7.6"/>
                    <path class="cls-4" d="M1722.6,1077.4s3,4,5.2,4.9"/>
                    <path class="cls-4" d="M1682,1065.8s-9,6.2-26,4.5"/>
                    <path class="cls-4" d="M1678,1111.6s1.5-6.2.5-13.3"/>
                    <path class="cls-4" d="M1717.3,1024.5s5.3,1,7.9,3.8"/>
                  </g>
                  <g>
                    <path class="cls-13" d="M1777.4,1071.8c2.7-2.7,4.4-6.4,4.4-10.5s-3.2-10.6-7.9-13.1c2.6-3.1,4.2-7.1,4.2-11.4s-2.5-10.3-6.3-13.5c2.3-2.7,3.8-6.2,3.8-10s-1.9-8.3-4.9-11.1c3.4-2.7,5.6-6.9,5.6-11.6s-2.6-9.6-6.5-12.3c2-2.9,3.2-6.3,3.2-10.1,0-9.8-7.9-17.7-17.7-17.7s-14.8,5.4-17,12.7c-2.2-1.2-4.7-1.8-7.4-1.8-4.5,0-8.5,1.9-11.4,4.8-3.3-3.7-8.1-6-13.5-6s-7.8,1.3-10.8,3.6c-3-5.1-8.6-8.6-15-8.6s-15.6,6.1-17.1,14.1c-2-1.1-4.3-1.8-6.7-1.8s-4.3.5-6.1,1.5c-2.8-3.5-7.1-5.8-12-5.8s-9.8,2.6-12.6,6.6c-2.7-1.9-6-3-9.5-3-9.2,0-16.7,7.5-16.7,16.7s2.1,9.1,5.3,12.2c-1.9,2.2-3,5-3,8.1s.6,4.4,1.7,6.2c-2.5,2.7-4,6.3-4,10.2s.5,4.4,1.4,6.3c-3.7,3.3-6,8.1-6,13.5,0,10,8.1,18.2,18.2,18.2s18.2-8.1,18.2-18.2-1.5-8.3-4.1-11.4c1.6-2.4,2.5-5.3,2.5-8.4s-1.7-8-4.5-10.7c.9-1.7,1.4-3.6,1.4-5.7s-.6-4.3-1.6-6.1c2.4-1.5,4.4-3.5,5.7-6,2.2,1.3,4.8,2,7.6,2s6.3-1,8.8-2.8c2.4,2.3,5.7,3.7,9.3,3.7,5.7,0,10.6-3.6,12.6-8.6,3,2.6,7,4.1,11.2,4.1s7-1.1,9.8-3c3.1,5.7,9.1,9.6,16,9.6s11.2-2.9,14.6-7.3c2.8,2.4,6.4,3.8,10.3,3.8,6.7,0,12.5-4.2,14.8-10.1.7.5,1.5.9,2.2,1.2-.9,1.9-1.4,4-1.4,6.3,0,4.2,1.8,8,4.6,10.7-3.6,2.8-5.9,7.1-5.9,12s1.4,7.3,3.8,10c-3.9,3.2-6.3,8.1-6.3,13.5s4.9,14.2,11.8,16.7c-1.4,2.3-2.3,5-2.3,7.9,0,6.2,3.8,11.5,9.2,13.7-3.2,2.9-5.2,7-5.2,11.7s0,1.7.2,2.5c-4.4,0-8.3,2.2-10.9,5.4-2.5-2.1-5.6-3.3-9.1-3.3-6.5,0-11.9,4.3-13.6,10.3-1.1-.2-2.3-.4-3.5-.4-5.5,0-10.3,2.7-13.3,6.8-3-2.7-6.9-4.4-11.3-4.4-9.2,0-16.6,7.4-16.6,16.6s1.6,8.1,4.2,11c-1.3,1.5-2.2,3.4-2.2,5.6,0,4.6,3.7,8.3,8.3,8.3s8.3-3.7,8.3-8.3,0,0,0,0c4.6-.6,8.7-3,11.3-6.6,3,2.7,6.9,4.4,11.3,4.4,8.5,0,15.6-6.4,16.5-14.7h.6c4.5,0,8.5-2.1,11.1-5.3,2.5,2.1,5.7,3.4,9.2,3.4,7.9,0,14.3-6.4,14.3-14.3s0-.7,0-1h1.1c8.7,0,15.8-7.1,15.8-15.8s-4.3-12.6-10.4-14.8v-.3h0Z"/>
                    <path class="cls-13" d="M1668.8,985.9s-1.8-3-1.8-5.8"/>
                    <path class="cls-13" d="M1747.9,984.1s7.2.6,11.5-4"/>
                    <path class="cls-13" d="M1624.9,997.5s-6.8,2.5-12.2-1.5"/>
                    <path class="cls-13" d="M1630.6,991.6s-4.1-3.4-5-8.6"/>
                    <path class="cls-13" d="M1646.1,979s-.4-4.8,4-10.2"/>
                    <path class="cls-13" d="M1689.9,987s-.8-6.1,1.4-11.1"/>
                    <path class="cls-13" d="M1720.5,989.2s2.3-4.9,1.8-10.2"/>
                    <path class="cls-13" d="M1745.5,1094.5s-1.1,5.6,0,7.5"/>
                    <path class="cls-13" d="M1627.1,1028.5s-6.3-2.7-10.1-3"/>
                    <path class="cls-13" d="M1771.7,1023.1s-5.1,6.1-13.2,4"/>
                    <path class="cls-13" d="M1754.4,1053.3s4.7,1.7,9.4.7"/>
                    <path class="cls-13" d="M1770.9,1102.4s-7.4-.3-10.6-5.3"/>
                    <path class="cls-13" d="M1735.7,1119.6s-.9-6-3.5-9.2"/>
                    <path class="cls-13" d="M1708,1129.9s-3.5-4.6-3.5-10.3"/>
                  </g>
                  <path class="cls-12" d="M1727.2,911.1c-3.9,17.8-16.2,28.9-25.8,31.5-9.7,2.5-18.7,7.6-18.7,14.5,0,10.8,29.7,16.7,58.1,6.2,27.3-10.1,33.6-28.3,33.6-44.6s-7-28.9-21-28.9-23.3,8.3-26.1,21.3h0Z"/>
                  <path class="cls-18" d="M1607.8,964.6c-6.1-8.4-14.8-54.2,4.9-70.7,22.6-19,130.6-14.2,130.6,4.3s-34,18.3-66.2,41.1c-43.8,31-59.5,38.9-69.3,25.3h0Z"/>
                  <path class="cls-27" d="M1705.1,658.5c-7.7,0-4.7,17.1-16.9,17.1s-9.2-17.1-16.9-17.1c-13,0-7.9,39.6,6.3,39.6s6.3-7.7,10.6-7.7,4.4,7.7,10.6,7.7c14.2,0,19.3-39.6,6.3-39.6Z"/>
                  <g>
                    <path class="cls-2" d="M1712,1145.4c0,10.9-10.6,24.7-23.8,24.7s-23.8-13.8-23.8-24.7,8.3-14.7,23.8-14.7,23.8,3.8,23.8,14.7Z"/>
                    <ellipse class="cls-7" cx="1699.1" cy="1172.6" rx="8.8" ry="7.1" transform="translate(-331.5 1544.9) rotate(-45)"/>
                    <ellipse class="cls-7" cx="1677.2" cy="1172.6" rx="7.1" ry="8.8" transform="translate(-337.9 1529.4) rotate(-45)"/>
                  </g>
                </g>
                <g>
                  <g>
                    <path class="cls-23" d="M1754.1,560.7s1.5-7.1,6.7-7.1,6.6,5.1,5.5,10.4c-1,5.1,1.4,9.2-.8,15.7-2.1,6.5-4.5,6.6-6.5,11s-3.7,12.6-9.6,12.6-7.4-7.2-7.4-9.9,5.9-32.7,12.1-32.7h0Z"/>
                    <path class="cls-17" d="M1763.2,561.4c-3.1,0-5.3,4.4-5.3,7.1s1.2,4.3,1.2,7.2-.5,3.7-1.9,6.5c-1.5,2.8-2.3,6.2-1.6,7.3"/>
                    <path class="cls-24" d="M1758.4,571.9s3.1,1.1,4.3-.5"/>
                  </g>
                  <g>
                    <path class="cls-23" d="M1622.2,560.7s-1.5-7.1-6.7-7.1-6.6,5.1-5.5,10.4c1,5.1-1.3,9.2.8,15.7,2.1,6.5,4.5,6.6,6.5,11s3.7,12.6,9.6,12.6,7.4-7.2,7.4-9.9-5.9-32.7-12.1-32.7h0Z"/>
                    <path class="cls-17" d="M1613.2,561.4c3.2,0,5.3,4.4,5.3,7.1s-1.2,4.3-1.2,7.2.5,3.7,1.9,6.5c1.5,2.8,2.3,6.2,1.6,7.3"/>
                    <path class="cls-24" d="M1617.9,571.9s-3.1,1.1-4.4-.5"/>
                  </g>
                  <path class="cls-26" d="M1749.7,494.4c-14.6-39.3-61.5-36.3-61.5-36.3,0,0-46.9-3-61.6,36.3-14.6,39.3,0,74.7,0,74.7h123.1s14.6-35.4,0-74.7h0Z"/>
                  <path class="cls-10" d="M1739.9,503.1c-11.6-10.7-51.7-11.6-51.7-11.6,0,0-40.2.9-51.8,11.6,0,0-11.6,31-9.3,44,2.3,13-3.9,30.4,1.9,43.7,5.9,13.3,4.9,33.4,10.1,42.3,5.3,8.9,13.3,13,16.3,15.4,3.6,2.8,15.7,16.5,32.7,16.5s29.1-13.7,32.7-16.5c3-2.4,11-6.5,16.3-15.4s4.2-29,10.1-42.3-.3-30.7,1.9-43.7c2.3-13-9.3-44-9.3-44h.1Z"/>
                  <path class="cls-31" d="M1717.8,560c0,2.3,1.9,4.2,4.2,4.2s4.2-1.9,4.2-4.2-1.9-4.2-4.2-4.2-4.2,1.9-4.2,4.2Z"/>
                  <path class="cls-31" d="M1658.5,560c0,2.3-1.9,4.2-4.2,4.2s-4.2-1.9-4.2-4.2,1.9-4.2,4.2-4.2,4.2,1.9,4.2,4.2Z"/>
                  <path class="cls-5" d="M1676.9,545.1s-17-9.6-32.5-4"/>
                  <path class="cls-5" d="M1699.4,545.1s17-9.6,32.5-4"/>
                  <line class="cls-8" x1="1673.3" y1="620.4" x2="1703" y2="620.4"/>
                  <polygon class="cls-31" points="1699.5 592.2 1689.6 598.1 1689.6 572.8 1699.5 592.2"/>
                </g>
              </g>
              <g>
                <polygon class="cls-11" points="936.3 734.9 875 734.9 875 662.4 916.3 662.4 936.3 734.9"/>
                <path class="cls-22" d="M1128.1,1226.4c-.7-11-1.9-26.2-8.1-49.1-1.9-7.2-5.5-18-5.5-18h0c-1.8-7.8-4.9-18.4-9.6-32.7-8.7-26.3-21.3-97-28.3-115.7s-16.7-37.3-21.3-51.7c-4.7-14.3-16-104.3-16.3-126.7-.3-22.3-8.7-55.3-22.7-72.7-14-17.3-53-15.7-61.3-16.3-8.3-.7-36.7-16-42-26.3s0-51.7,0-51.7l-40-8.2-40,8.2s5.3,41.4,0,51.7-33.7,25.7-42,26.3c-8.3.7-47.3-1-61.3,16.3s-22.3,50.3-22.7,72.7c-.3,22.3-11.7,112.3-16.3,126.7-4.7,14.3-14.3,33-21.3,51.7s-19.7,89.3-28.3,115.7c-4.7,14.2-7.7,24.9-9.6,32.7h0s-3.6,10.8-5.5,18c-6.2,22.9-7.4,38.1-8.1,49.1-1.7,14.1,9.1,14.3,9.1,14.3,0,0,1.9,4.9,5.3,5,3.4.2,6-.4,6-.4,0,0,3.2,5.4,8.5,5.6,5.3.3,7.4-1.9,7.4-1.9,0,0,2.9,2.1,7.7,2.4,4.8.2,6.1-5,6.1-5,0,0,1.7,1.5,4,1.6,5.6.3,5.5-7,7.8-13.7,1.5-4.5-.3-13.2.3-25.9.6-12.7-10.4-23.4-15-28.2-2-2.1-4.1-8.7-5.2-13,8-21.9,22.5-51.5,31.5-69.9,12-24.5,27.5-44.5,38-70,8.8-21.3,4.7-37.3,7.2-48.2,5.7-24.5,25.8-79.8,29.2-94.8,0,0,1.5,48.2,4.2,72s9.5,32.5,9.5,50.2-20.9,42.1-26,72.9c-5.5,33.2-18.4,69.9-18.4,129.1s30.5,174.2,31,196.6c.9,37.3,2.7,76,2.3,89-.3,13-7.7,39.7-7.7,93.2s21.7,85.8,26.3,124.2c4.7,38.3-.3,47.3-.3,58.7s1.8,11.8,1.8,16.2-5.2,12.2-5,20.7-22,24-22.7,29.8c0,0-10.6,12.5-.4,17.8,0,0,2.5,7.8,10,5,0,0,3.5,7,12,3,0,0,3.8,6.2,15,1.2,0,0,2.5,4,12.2,4s11.8-5,14.8-12,6.2-5.5,6.2-13.2-1.5-18,0-22.3,5.3-4,6.7-8.5c1.3-4.5.3-13.7-5.5-19.3-5.8-5.7.7-14.2.7-24.7s-5.2-15.3-5.2-23.8c0-76.5,10.5-98.2,10.5-138.7s-3.2-62-3.2-85.5,8.5-28.5,13.5-53-1-103.5,4-124,19-87.4,7.5-126c0,0,10.3,9.3,13.3,4,3,5.3,13.3-4,13.3-4-11.5,38.6,2.5,105.5,7.5,126s-1,99.5,4,124,13.5,29.5,13.5,53-3.2,45-3.2,85.5,10.5,62.2,10.5,138.7-5.2,13.3-5.2,23.8,6.5,19,.7,24.7-6.8,14.8-5.5,19.3,5.2,4.2,6.7,8.5,0,14.7,0,22.3,3.2,6.2,6.2,13.2,5,12,14.8,12,12.2-4,12.2-4c11.2,5,15-1.2,15-1.2,8.5,4,12-3,12-3,7.5,2.8,10-5,10-5,10.2-5.2-.4-17.8-.4-17.8-.8-5.9-22.9-21.3-22.7-29.8s-5-16.3-5-20.7,1.8-4.8,1.8-16.2-5-20.3-.3-58.7c4.7-38.3,26.3-70.7,26.3-124.2s-7.3-80.2-7.7-93.2c-.3-13,1.5-51.7,2.3-89,.5-22.3,31-137.3,31-196.6s-12.9-95.9-18.4-129.1c-5.1-30.8-26-55.2-26-72.9s6.8-26.5,9.5-50.2,4.2-72,4.2-72c3.5,15,23.6,70.2,29.2,94.8,2.5,11-1.5,26.9,7.2,48.2,10.5,25.5,26,45.5,38,70,9,18.3,23.5,48,31.5,69.9-1.2,4.3-3.2,10.8-5.2,13-4.6,4.8-15.6,15.5-15,28.2s-1.3,21.4.3,25.9c2.3,6.7,2.2,13.9,7.8,13.7,2.3,0,4-1.6,4-1.6,0,0,1.4,5.2,6.1,5,4.8-.2,7.7-2.4,7.7-2.4,0,0,2.1,2.2,7.4,1.9,5.4-.3,8.5-5.6,8.5-5.6,0,0,2.6.5,6,.4,3.4-.2,5.3-5,5.3-5,0,0,10.7,0,9.1-14.3h.2Z"/>
                <path class="cls-20" d="M935.6,750.4c-10,4.7-39.3,0-44.7,1.3-5.3,1.3-12.9,8.1-12.9,8.1"/>
                <path class="cls-20" d="M903.8,688.2s-7.8,46.8-13.5,55.2"/>
                <g>
                  <path class="cls-3" d="M1078,1246.4c-2.6-7.3,1.9-15-1.6-31.8"/>
                  <path class="cls-3" d="M1091.8,1249.1c3.2-6.9,1.9-12,3.9-16.9"/>
                  <path class="cls-3" d="M1107.8,1245.4c1.6-2.7-.5-6.3,2.7-14.3"/>
                  <path class="cls-3" d="M1119.1,1240.7c-.2-4.1,2.3-7.4,2.2-12.2"/>
                </g>
                <g>
                  <path class="cls-3" d="M667.9,1246.4c2.6-7.3-1.9-15,1.6-31.8"/>
                  <path class="cls-3" d="M654.1,1249.1c-3.2-6.9-1.9-12-3.9-16.9"/>
                  <path class="cls-3" d="M638.1,1245.4c-1.6-2.7.5-6.3-2.7-14.3"/>
                  <path class="cls-3" d="M626.8,1240.7c.2-4.1-2.3-7.4-2.2-12.2"/>
                </g>
                <path class="cls-20" d="M1045.1,963c-9.2,10.9-4.7,24.5-4.7,24.5"/>
                <path class="cls-20" d="M913.6,1447.1c3.5,11.1,4.4,31,19,37.8"/>
                <path class="cls-20" d="M700.8,963c9.2,10.9,4.7,24.5,4.7,24.5"/>
                <path class="cls-20" d="M832.3,1447.1c-3.5,11.1-4.4,31-19,37.8"/>
                <path class="cls-20" d="M810.3,750.4c10,4.7,39.3,0,44.7,1.3s12.9,8.1,12.9,8.1"/>
                <path class="cls-20" d="M842.1,688.2s7.7,46.8,13.5,55.3"/>
                <g>
                  <path class="cls-20" d="M948.5,1864s1.9-5.5,1.1-8.6c-.8-3.1-7.2-7.1-8.1-11.2"/>
                  <path class="cls-20" d="M963.5,1862.7s2.3-4.1,1.4-6.8c-.8-2.8-5.8-6.8-6.2-10.3"/>
                  <path class="cls-20" d="M975.5,1859.7s.7-3.7,0-5.9-4.8-6.8-5.2-8.5"/>
                  <path class="cls-20" d="M985.5,1854.7s-.2-4-1.3-5.5c-.9-1.1-4.3-4.2-5-6.8"/>
                </g>
                <g>
                  <path class="cls-20" d="M797.4,1864s-1.9-5.5-1.1-8.6,7.2-7.1,8.1-11.2"/>
                  <path class="cls-20" d="M782.4,1862.7s-2.3-4.1-1.4-6.8c.8-2.7,5.8-6.7,6.2-10.3"/>
                  <path class="cls-20" d="M770.4,1859.7s-.7-3.7,0-5.9c.7-2.2,4.8-6.8,5.2-8.5"/>
                  <path class="cls-20" d="M760.4,1854.7s.2-4,1.3-5.5c.9-1.1,4.3-4.2,5-6.8"/>
                </g>
                <g class="cls-33">
                  <path class="cls-19" d="M842.4,756.6c-33.1,0-80.8,86.7-63.8,138.8,7.1,21.8,74.2,18,76.7-13.7,1.8-22.6,12.7-125.1-12.9-125.1Z"/>
                  <path class="cls-19" d="M903.6,756.6c33.1,0,80.8,86.7,63.8,138.8-7.1,21.8-74.2,18-76.7-13.7-1.8-22.6-12.7-125.1,12.9-125.1Z"/>
                  <path class="cls-12" d="M922.7,959.5c-2.1,0-4.1-1.2-5.1-3.2-5.1-10.6-12.7-16.6-20.6-23-14.5-11.6-29.6-23.6-29.6-61.2v-173h11.3v173c0,32.1,11.7,41.5,25.3,52.4,8.6,6.9,17.5,14,23.8,27,1.3,2.8.2,6.2-2.6,7.5-.8.4-1.6.6-2.4.6h-.1Z"/>
                  <g>
                    <path class="cls-15" d="M939.5,1097.2c0-5.8-3.7-10.7-8.8-12.5,3.1-3.2,5-7.5,5-12.3,0-7-4.1-13.1-10.1-15.9,2.3-2.4,3.7-5.6,3.7-9.2,0-5.1-2.8-9.5-7-11.7,4.8-2.8,8.1-8,8.1-13.9,0-8.9-7.2-16-16-16s-10.4,2.8-13.3,7.1c-2.4-2.2-5.6-3.6-9.1-3.6s-8.8,2.4-11.2,6.1c-2.4-3.7-6.5-6.1-11.2-6.1s-8.6,2.3-11.1,5.9c-2.7-2.2-6.1-3.4-9.8-3.4s-9.5,2.4-12.4,6.1c-2.7-3.1-6.6-5-11-5-8,0-14.6,6.5-14.6,14.6s1.3,6.8,3.4,9.4c-3.4,2.4-5.5,6.4-5.5,10.8s2.1,8.2,5.3,10.6c-4.8,2-8.2,6.8-8.2,12.3s1.7,7.4,4.4,9.9c-2.2,2.7-3.6,6.1-3.6,9.9s2.7,10.1,6.8,12.9c-4,2.8-6.7,7.4-6.7,12.7,0,8.5,6.9,15.4,15.4,15.4s5.7-.9,8.1-2.3c2,7.5,8.9,13,17.1,13s13.6-4.4,16.3-10.8c2.3,1.8,5.2,2.9,8.4,2.9s7.8-1.8,10.2-4.8c3,3.9,7.7,6.4,12.9,6.4,7.9,0,14.5-5.6,16-13,1.8,1,3.9,1.5,6.2,1.5,7.4,0,13.4-6,13.4-13.4s0-.5,0-.7c5.3-1.8,9.1-6.8,9.1-12.7l-.2-.2h0Z"/>
                    <path class="cls-4" d="M834.1,1035.1s9.3,5.9,20.1.9,20.6,1,20.6,1"/>
                    <path class="cls-4" d="M865.9,1026.1s-5.6,7.5-9.9,9.2"/>
                    <path class="cls-4" d="M922.3,1035.5s-11.9,2.5-19.4-.9c-7.5-3.3-14.3-2.2-17.4-.6"/>
                    <path class="cls-4" d="M903,1034.6s2,18.8-9,15.3"/>
                    <path class="cls-4" d="M833.5,1110.5s-3.1,3-1,7.9"/>
                    <path class="cls-4" d="M880.1,1104.9s-10.2,4.6-25.3,0c-15-4.6-21.4,5.6-21.4,5.6,0,0-2.9-7.4-7.6-8.1"/>
                    <path class="cls-4" d="M857.6,1053.4c-6.2,2.8-15.9,1.8-21.4,3.8-5.4,2-4,12.2-6.9,16.4-2.9,4.2,3.1,9,.5,15.7"/>
                    <path class="cls-4" d="M836.2,1057.2s-6.2-3.2-8.5-10.3"/>
                    <path class="cls-4" d="M843.5,1037.9s-2.3,6.2-1.7,8.2"/>
                    <path class="cls-4" d="M880.6,1053.4c-16.9,0-13.9,13-12.6,17.7,0,0-5.1,3.2-3.6,11.6,1.7,9.8,21.9,13.5,50.2,1.5"/>
                    <path class="cls-4" d="M878.5,1074.4s22.8,0,30.5-6.2c7.7-6.3,8.9-15.3,8.9-15.3"/>
                    <path class="cls-4" d="M911.8,1065.4s5.5,1.6,8,5.2"/>
                    <path class="cls-4" d="M867.9,1071.6s-20,.2-22.6,2.1c-2,1.5-3.3,4.6-3.3,4.6"/>
                    <path class="cls-4" d="M842.1,1068s3,2.4,3.3,5.7"/>
                    <path class="cls-4" d="M889.3,1091.4s6.7,13.4,2.4,26.9"/>
                    <path class="cls-4" d="M926.9,1095.1s-10.6,6.3-16.4,8.2c0,0,.5,4.2-1.7,7.2"/>
                    <path class="cls-4" d="M905.5,1098.6s2.8,3.7,4.9,4.7"/>
                    <path class="cls-4" d="M867.1,1087.5s-8.5,5.8-24.6,4.3"/>
                    <path class="cls-4" d="M863.3,1130.9s1.4-5.8.5-12.5"/>
                    <path class="cls-4" d="M900.5,1048.5s5,.9,7.5,3.6"/>
                  </g>
                  <g>
                    <path class="cls-13" d="M958.6,1094.6c2.6-2.6,4.2-6.2,4.2-10.1s-3.1-10.2-7.6-12.6c2.5-3,4-6.8,4-11s-2.4-9.9-6.1-13c2.3-2.6,3.6-5.9,3.6-9.6s-1.8-8-4.7-10.7c3.3-2.6,5.4-6.6,5.4-11.2s-2.5-9.3-6.3-11.8c1.9-2.7,3-6.1,3-9.7,0-9.4-7.6-17-17-17s-14.2,5.2-16.3,12.2c-2.1-1.1-4.5-1.7-7.1-1.7-4.3,0-8.2,1.8-11,4.7-3.2-3.5-7.8-5.8-12.9-5.8s-7.5,1.3-10.4,3.5c-2.9-4.9-8.3-8.3-14.4-8.3s-14.9,5.8-16.5,13.5c-1.9-1.1-4.1-1.7-6.5-1.7s-4.1.5-5.9,1.4c-2.7-3.4-6.8-5.6-11.5-5.6s-9.4,2.5-12.1,6.4c-2.6-1.8-5.7-2.8-9.1-2.8-8.8,0-16,7.2-16,16s2,8.8,5.1,11.7c-1.8,2.1-2.9,4.8-2.9,7.8s.6,4.2,1.6,6c-2.4,2.6-3.8,6-3.8,9.8s.5,4.2,1.4,6.1c-3.5,3.2-5.8,7.8-5.8,12.9,0,9.6,7.8,17.4,17.4,17.4s17.4-7.8,17.4-17.4-1.5-8-3.9-11c1.5-2.3,2.4-5.1,2.4-8s-1.7-7.7-4.3-10.3c.9-1.6,1.3-3.5,1.3-5.5s-.6-4.1-1.6-5.9c2.3-1.4,4.2-3.4,5.5-5.7,2.1,1.2,4.6,1.9,7.3,1.9s6-1,8.4-2.7c2.3,2.2,5.5,3.6,8.9,3.6,5.5,0,10.2-3.4,12.1-8.3,2.9,2.5,6.7,4,10.8,4s6.8-1.1,9.4-2.9c3,5.5,8.7,9.2,15.4,9.2s10.8-2.8,14-7c2.7,2.3,6.1,3.7,9.9,3.7,6.5,0,12-4,14.2-9.7.7.4,1.4.8,2.2,1.2-.9,1.8-1.3,3.9-1.3,6,0,4,1.7,7.7,4.4,10.3-3.5,2.7-5.7,6.8-5.7,11.5s1.4,7,3.6,9.6c-3.7,3.1-6.1,7.8-6.1,13s4.7,13.7,11.3,16c-1.4,2.2-2.2,4.8-2.2,7.6,0,6,3.6,11,8.8,13.2-3,2.8-5,6.8-5,11.2s0,1.6.2,2.4c-4.2,0-8,2.1-10.4,5.2-2.4-2-5.4-3.2-8.8-3.2-6.2,0-11.5,4.2-13.1,9.9-1.1-.2-2.2-.4-3.4-.4-5.3,0-9.9,2.6-12.8,6.5-2.8-2.6-6.6-4.3-10.8-4.3-8.8,0-16,7.1-16,16s1.5,7.8,4,10.6c-1.3,1.4-2.1,3.3-2.1,5.4,0,4.4,3.6,8,8,8s8-3.6,8-8,0,0,0,0c4.5-.5,8.3-2.9,10.9-6.4,2.8,2.6,6.6,4.3,10.8,4.3,8.2,0,14.9-6.2,15.8-14.1h.6c4.3,0,8.1-2,10.6-5.1,2.4,2,5.5,3.3,8.9,3.3,7.6,0,13.7-6.1,13.7-13.7s0-.7,0-1h1c8.4,0,15.2-6.8,15.2-15.2s-4.2-12.1-10-14.3l.7-.2h0Z"/>
                    <path class="cls-13" d="M854.4,1012.1s-1.7-2.9-1.7-5.5"/>
                    <path class="cls-13" d="M930.3,1010.4s6.9.6,11.1-3.9"/>
                    <path class="cls-13" d="M812.1,1023.3s-6.5,2.4-11.8-1.4"/>
                    <path class="cls-13" d="M817.6,1017.6s-3.9-3.3-4.8-8.2"/>
                    <path class="cls-13" d="M832.6,1005.5s-.4-4.6,3.8-9.8"/>
                    <path class="cls-13" d="M874.6,1013.1s-.8-5.9,1.4-10.7"/>
                    <path class="cls-13" d="M904,1015.3s2.2-4.7,1.7-9.8"/>
                    <path class="cls-13" d="M928,1116.4s-1.1,5.4,0,7.2"/>
                    <path class="cls-13" d="M814.2,1053s-6-2.6-9.7-2.9"/>
                    <path class="cls-13" d="M953.2,1047.9s-4.9,5.8-12.7,3.9"/>
                    <path class="cls-13" d="M936.5,1076.9s4.5,1.6,9.1.7"/>
                    <path class="cls-13" d="M952.4,1124s-7.1-.3-10.2-5.1"/>
                    <path class="cls-13" d="M918.6,1140.5s-.8-5.7-3.4-8.8"/>
                    <path class="cls-13" d="M891.9,1150.4s-3.4-4.4-3.4-9.9"/>
                  </g>
                  <path class="cls-12" d="M910.8,939.9c-3.7,17.2-15.7,28.1-25.1,30.5s-18.2,7.4-18.2,14.1c0,10.5,28.8,16.2,56.4,6,26.5-9.8,32.6-27.5,32.6-43.3s-6.8-28-20.4-28-22.6,8.1-25.4,20.7h.1Z"/>
                  <path class="cls-18" d="M794.9,991.8c-5.9-8.1-14.3-52.6,4.8-68.6,22-18.4,126.7-13.8,126.7,4.1s-33,17.8-64.2,39.9c-42.5,30.1-57.8,37.7-67.3,24.6Z"/>
                  <path class="cls-27" d="M888.9,700.6c-7.3,0-4.4,16-15.9,16s-8.6-16-15.9-16c-12.2,0-7.4,37.2,5.9,37.2s5.9-7.2,10-7.2,4.2,7.2,10,7.2c13.4,0,18.2-37.2,5.9-37.2Z"/>
                  <g>
                    <path class="cls-29" d="M899.2,1149.1c-8.3.6-26.2-5.4-26.2-5.4,0,0-17.9,6-26.2,5.4s-42.6-5.5-27.7,6.3c3.6,2.9,15.4,9,19.7,13.6s8.4,9.4,14.9,11.9,19.3,12.3,19.3,19.2c0-6.9,12.8-16.7,19.3-19.2s10.6-7.3,14.9-11.9c4.3-4.6,16.1-10.7,19.7-13.6,14.8-11.8-19.4-6.9-27.7-6.3Z"/>
                    <polygon class="cls-1" points="876.8 1219.1 869.3 1219.1 862.7 1188.4 873 1177.4 883.3 1188.4 876.8 1219.1"/>
                    <g>
                      <path class="cls-16" d="M890.1,1153.8c2.1,1.7,12.1,4.4,14.2,4.4s5.2-3.8,13.4-2.2c8.2,1.6,3.9,10.8-3.7,11.5-6.1.6-9.1-1.2-10.2-3.2-1.5-2.5.3-4.5-5.2-5.2s-8.5-2.8-10-1.6c-1.5,1.2-1.9-6.4,1.5-3.8h0Z"/>
                      <ellipse class="cls-6" cx="913.1" cy="1160.9" rx="7.1" ry="4" transform="translate(-168.6 155.2) rotate(-8.9)"/>
                    </g>
                    <path class="cls-29" d="M880.7,1180.4s3,3,3.6,7.3-6.2,30.1-6.1,33.8c0,3.7-3.6.5-3.4-2.4.2-3,6.6-18.1,5.5-26.9-1.1-8.7-2.5-8.4-2.5-8.4l2.8-3.4h.1Z"/>
                    <g>
                      <path class="cls-16" d="M855.9,1153.8c-2.1,1.7-12.1,4.4-14.2,4.4s-5.2-3.8-13.4-2.2c-8.2,1.6-3.9,10.8,3.7,11.5,6.1.6,9.1-1.2,10.2-3.2,1.5-2.5-.3-4.5,5.2-5.2s8.5-2.8,10-1.6,1.9-6.4-1.5-3.8h0Z"/>
                      <ellipse class="cls-28" cx="833.9" cy="1162.5" rx="4" ry="7.1" transform="translate(-443.6 1806.5) rotate(-81.1)"/>
                    </g>
                    <path class="cls-29" d="M865.4,1180.4s-3,3-3.6,7.3c-.7,4.3,6.2,30.1,6.1,33.8,0,3.7,3.6.5,3.4-2.4s-6.6-18.1-5.5-26.9c1.1-8.7,2.5-8.4,2.5-8.4l-2.8-3.4h-.1Z"/>
                    <path class="cls-9" d="M891.1,1147.5c3.1,1,12.9.6,21.6-3.2,7.3-3.2,14.8-1.7,18.7,4.8s-3.7,15.3-3.7,17.4-2.2,3.7-2.2-2.3c0,0-1.5,2.4-2.4,1.7s.3-2.7.9-3.4c0,0-3.2,1.7-1.5-1.1,0,0-3.4.2-.2-2.2,0,0-5,0-.5-1.9,0,0-4.3-.9-2.9-3.1,1.5-2.3.7,1.6,2.5,1.1s2.7-3.8-.9-5.5-7.9.6-12.6,1-12-1-16.9,1.9.2-5,.2-5v-.2h0Z"/>
                    <path class="cls-9" d="M854.9,1147.5c-3.1,1-12.9.6-21.6-3.2-7.3-3.2-14.8-1.7-18.7,4.8-3.8,6.5,3.7,15.3,3.7,17.4s2.2,3.7,2.2-2.3c0,0,1.5,2.4,2.4,1.7s-.3-2.7-.9-3.4c0,0,3.2,1.7,1.5-1.1,0,0,3.4.2.2-2.2,0,0,5,0,.5-1.9,0,0,4.3-.9,2.9-3.1s-.7,1.6-2.5,1.1-2.7-3.8.9-5.5,7.9.6,12.6,1,12-1,16.9,1.9-.2-5-.2-5v-.2h0Z"/>
                    <g>
                      <path class="cls-14" d="M889.3,1146.5c-6.3-2.1-10.9-7.5-16.3-7.5s-9.9,5.4-16.3,7.5.5,7.4.7,11c.2,3.9,2.3,8,5.2,13.6,2.9,5.7,2.7,15.5,6.5,15.5s3.9-2.8,3.9-2.8c0,0,.2,2.8,3.9,2.8s3.6-9.9,6.5-15.5c2.9-5.7,5-9.7,5.2-13.6.2-3.7,7-8.9.7-11h0Z"/>
                      <path class="cls-25" d="M885.9,1148.2c-3.7-.3-5-1.8-12.9-1.8s-9.2,1.5-12.9,1.8-5,1.4-2.2,2.5c2.8,1,4.5-2.4,8.5-.3s2.3,6.7,2.3,8.9,2.3,9.9,4.3,10.7c2.1-.8,4.3-8.5,4.3-10.7s-1.7-6.9,2.3-8.9,5.7,1.4,8.5.3,1.4-2.2-2.2-2.5h0Z"/>
                    </g>
                  </g>
                </g>
                <g>
                  <g>
                    <path class="cls-23" d="M934.1,611.9s1.4-6.7,6.3-6.7,6.2,4.8,5.2,9.8c-1,4.8,1.3,8.7-.7,14.8-2,6.2-4.2,6.3-6.1,10.4-1.9,4.1-3.5,11.9-9,11.9s-7-6.8-7-9.3,5.6-30.9,11.4-30.9h-.1Z"/>
                    <path class="cls-17" d="M942.6,612.6c-3,0-5,4.1-5,6.7s1.1,4,1.1,6.8-.5,3.5-1.8,6.1c-1.4,2.6-2.1,5.9-1.5,6.9"/>
                    <path class="cls-24" d="M938.1,622.5s2.9,1.1,4.1-.4"/>
                  </g>
                  <g>
                    <path class="cls-23" d="M811.9,611.9s-1.4-6.7-6.3-6.7-6.2,4.8-5.2,9.8c1,4.8-1.3,8.7.7,14.8,2,6.2,4.2,6.3,6.1,10.4,1.9,4.1,3.5,11.9,9,11.9s7-6.8,7-9.3-5.6-30.9-11.4-30.9h.1Z"/>
                    <path class="cls-17" d="M803.3,612.6c3,0,5,4.1,5,6.7s-1.1,4-1.1,6.8.5,3.5,1.8,6.1c1.4,2.6,2.1,5.9,1.5,6.9"/>
                    <path class="cls-24" d="M807.8,622.5s-2.9,1.1-4.1-.4"/>
                  </g>
                  <path class="cls-26" d="M932.3,551.5c-14.1-37-59.3-38.3-59.3-38.3,0,0-45.3,1.3-59.3,38.3-14.1,37,2.1,70.4,2.1,70.4h114.6s16.1-33.4,2.1-70.4h-.2,0Z"/>
                  <path class="cls-10" d="M919.6,560.7c-10.9-10-27-27.2-46.7-15.5-19.7-11.6-35.8,5.5-46.7,15.5,0,0-11.9,28.2-9.8,40.4,2.1,12.3-1.4,24.6.8,38.1,2,11.9,9.1,29,14.7,36.9,6.6,9.3,25.1,28,41,28s34.5-18.7,41-28c5.6-7.9,12.7-25,14.7-36.9,2.2-13.5-1.3-25.8.8-38.1s-9.8-40.4-9.8-40.4Z"/>
                  <path class="cls-31" d="M897.8,613.4c0,2.2,1.8,3.9,3.9,3.9s3.9-1.8,3.9-3.9-1.8-3.9-3.9-3.9-3.9,1.8-3.9,3.9Z"/>
                  <path class="cls-31" d="M848.1,613.4c0,2.2-1.8,3.9-3.9,3.9s-3.9-1.8-3.9-3.9,1.8-3.9,3.9-3.9,3.9,1.8,3.9,3.9Z"/>
                  <path class="cls-5" d="M884.5,600.3s6.2-10.4,28.6-2.8"/>
                  <path class="cls-5" d="M861.3,600.3s-6.2-10.4-28.6-2.8"/>
                  <line class="cls-8" x1="858.9" y1="668.1" x2="887" y2="668.1"/>
                  <path class="cls-31" d="M880.1,643.7c0,5.1-5.9,5.5-5.9,5.5v-31.9s5.9,21.2,5.9,26.4Z"/>
                </g>
              </g>
            </g>
          </g>
        </g>
      </g>
    </g>
  </g>
</svg>