<?xml version="1.0" encoding="UTF-8"?>
<svg xmlns="http://www.w3.org/2000/svg" version="1.1" xmlns:xlink="http://www.w3.org/1999/xlink" viewBox="0 0 1200 1000">
  <defs>
    <style>
      .cls-1 {
        stroke: #58595b;
      }

      .cls-1, .cls-2, .cls-3 {
        stroke-linejoin: round;
      }

      .cls-1, .cls-3 {
        stroke-width: .8px;
      }

      .cls-1, .cls-3, .cls-4, .cls-5, .cls-6, .cls-7, .cls-8, .cls-9, .cls-10 {
        fill: none;
      }

      .cls-1, .cls-3, .cls-5, .cls-6, .cls-9, .cls-10 {
        stroke-linecap: round;
      }

      .cls-11 {
        fill: #d3d3c2;
      }

      .cls-12 {
        fill: aqua;
      }

      .cls-13 {
        fill: #ffadae;
      }

      .cls-2 {
        stroke-width: .2px;
      }

      .cls-2, .cls-14 {
        fill: #fff;
      }

      .cls-2, .cls-5 {
        stroke: #231f20;
      }

      .cls-2, .cls-15 {
        display: none;
      }

      .cls-16 {
        fill: #f2f1f4;
      }

      .cls-17, .cls-18 {
        fill: #8990b0;
      }

      .cls-19 {
        fill: #46467f;
      }

      .cls-3 {
        stroke: #4e3473;
      }

      .cls-20 {
        clip-path: url(#clippath-4);
      }

      .cls-21 {
        fill: #52f2f2;
      }

      .cls-22, .cls-23 {
        fill: #41464f;
      }

      .cls-24, .cls-25, .cls-26 {
        opacity: .3;
      }

      .cls-27 {
        fill: #534741;
      }

      .cls-28 {
        fill: #f1f1f2;
      }

      .cls-29 {
        fill: #8d8bc2;
      }

      .cls-18, .cls-23 {
        opacity: .5;
      }

      .cls-30 {
        clip-path: url(#clippath-1);
      }

      .cls-31 {
        filter: url(#drop-shadow-1);
      }

      .cls-32, .cls-26 {
        fill: #c5d1df;
      }

      .cls-33 {
        fill: #b8bccf;
      }

      .cls-5, .cls-6, .cls-7, .cls-8, .cls-9, .cls-10 {
        stroke-miterlimit: 10;
      }

      .cls-5, .cls-9 {
        stroke-width: .5px;
      }

      .cls-34 {
        fill: #231f20;
      }

      .cls-6, .cls-7, .cls-8 {
        stroke: #fff;
      }

      .cls-35 {
        isolation: isolate;
      }

      .cls-36 {
        clip-path: url(#clippath-5);
      }

      .cls-7 {
        stroke-width: 4px;
      }

      .cls-37 {
        clip-path: url(#clippath-3);
      }

      .cls-38 {
        fill: #5550ad;
      }

      .cls-39 {
        fill: #989af4;
      }

      .cls-40 {
        fill: #716558;
      }

      .cls-41 {
        fill: #6363ad;
      }

      .cls-42 {
        fill: #26a9e0;
      }

      .cls-43, .cls-44 {
        fill: #dadae6;
      }

      .cls-43, .cls-45 {
        opacity: .7;
      }

      .cls-25, .cls-46 {
        fill: #011126;
      }

      .cls-47 {
        fill: #a6a8ab;
      }

      .cls-48 {
        fill: #58595b;
      }

      .cls-8 {
        stroke-width: 2px;
      }

      .cls-49 {
        fill: #a0a6c0;
      }

      .cls-46 {
        opacity: .4;
      }

      .cls-50 {
        clip-path: url(#clippath-2);
      }

      .cls-51 {
        fill: #fff100;
      }

      .cls-9 {
        stroke: #6d6e70;
      }

      .cls-52 {
        fill: #403a6d;
      }

      .cls-53 {
        fill: #6d6e70;
      }

      .cls-54 {
        fill: url(#linear-gradient);
      }

      .cls-55 {
        fill: #808184;
      }

      .cls-56 {
        clip-path: url(#clippath);
      }

      .cls-57 {
        fill: #4e3473;
      }

      .cls-10 {
        stroke: aqua;
        stroke-width: 5px;
      }

      .cls-58 {
        fill: #3b3362;
      }
    </style>
    <linearGradient id="linear-gradient" x1="966.5" y1="1134.8" x2="233.5" y2="-134.8" gradientUnits="userSpaceOnUse">
      <stop offset="0" stop-color="#8990b0"/>
      <stop offset="1" stop-color="#babacc"/>
    </linearGradient>
    <clipPath id="clippath">
      <polygon class="cls-4" points="825.4 492.7 825.7 396 977.3 483.5 977 580.2 825.4 492.7"/>
    </clipPath>
    <clipPath id="clippath-1">
      <polygon class="cls-4" points="224.4 591.4 224.1 484.5 391.6 387.8 391.9 494.7 224.4 591.4"/>
    </clipPath>
    <clipPath id="clippath-2">
      <polygon class="cls-4" points="851.8 582.8 952.6 524.2 956.1 526.3 855.4 584.9 851.8 582.8"/>
    </clipPath>
    <clipPath id="clippath-3">
      <polygon class="cls-4" points="706 514.6 706.7 285 858.2 372.5 857.6 602.1 706 514.6"/>
    </clipPath>
    <clipPath id="clippath-4">
      <polygon class="cls-4" points="366.8 578.2 366.6 505 481.2 438.9 481.4 512.1 366.8 578.2"/>
    </clipPath>
    <clipPath id="clippath-5">
      <polygon class="cls-4" points="376.9 747.1 630.4 599.8 885.6 747.1 632.1 894.5 376.9 747.1"/>
    </clipPath>
    <filter id="drop-shadow-1" x="294.5" y="156.8" width="611" height="142" filterUnits="userSpaceOnUse">
      <feOffset dx="0" dy="5"/>
      <feGaussianBlur result="blur" stdDeviation="5"/>
      <feFlood flood-color="#000" flood-opacity=".3"/>
      <feComposite in2="blur" operator="in"/>
      <feComposite in="SourceGraphic"/>
    </filter>
  </defs>
  <!-- Generator: Adobe Illustrator 28.7.4, SVG Export Plug-In . SVG Version: 1.2.0 Build 166)  -->
  <g>
    <g id="Layer_2">
      <rect class="cls-54" width="1200" height="1000"/>
    </g>
    <g id="Layer_1">
      <image width="474" height="270" transform="translate(-7610.5 -4327.2)" xlink:href="database-1.png"/>
    </g>
    <g id="Layer_4">
      <g>
        <g>
          <g>
            <g>
              <path class="cls-26" d="M823.7,359.1c-5.4-3.1-9.8-.6-9.9,5.6l-.3,122.1c0,6.2,4.4,13.9,9.8,17l155.6,89.9c5.4,3.1,9.9.6,9.9-5.6l.3-122.1c0-6.2-4.4-13.9-9.8-17l-155.6-89.9Z"/>
              <polygon class="cls-32" points="953 445.8 953 453.5 979.3 468.7 979.4 461 953 445.8"/>
              <path class="cls-14" d="M824.2,367.8c-1.6-.9-2.9-.2-3,1.7,0,1.9,1.3,4.1,2.9,5.1,1.6.9,2.9.2,3-1.7,0-1.9-1.3-4.1-2.9-5.1Z"/>
              <path class="cls-14" d="M832.8,373.1c-1.6-.9-2.9-.2-3,1.7,0,1.9,1.3,4.1,2.9,5.1,1.6.9,2.9.2,3-1.7,0-1.9-1.3-4.1-2.9-5.1Z"/>
            </g>
            <g class="cls-35">
              <g class="cls-56">
                <g>
                  <path class="cls-33" d="M863.2,482.5l-37-21.4v31.2c0,0,36.9,21.4,36.9,21.4v-31.2M863.3,450.5l-37-21.4v31.2c0,0,36.9,21.4,36.9,21.4v-31.2M863.4,418.5l-37-21.4v31.2c0,0,36.9,21.4,36.9,21.4v-31.2"/>
                  <polyline class="cls-14" points="826.1 396.6 825.7 396.4 825.4 492.3 825.8 492.5 825.8 492.1 826.1 492.3 826.2 461.1 825.9 460.9 825.9 460.1 826.2 460.3 826.3 429.2 826 429 826 428.1 826.3 428.3 826.4 397.2 826.1 397 826.1 396.6"/>
                  <path class="cls-14" d="M863.9,482.9l-.7-.4v31.2c0,0,.6.4.6.4v-31.2M864,450.9l-.7-.4v31.2c0,0,.6.4.6.4v-31.2M864.1,419l-.7-.4v31.2c0,0,.6.4.6.4v-31.2"/>
                  <path class="cls-14" d="M901.7,504.7l-.7-.4v31.2c0,0,.6.4.6.4v-31.2M901.7,472.7l-.7-.4v31.2c0,0,.6.4.6.4v-31.2M901.8,440.7l-.7-.4v31.2c0,0,.6.4.6.4v-31.2"/>
                  <path class="cls-14" d="M939.4,526.5l-.7-.4v31.2c0,0,.6.4.6.4v-31.2M939.5,494.5l-.7-.4v31.2c0,0,.6.4.6.4v-31.2M939.5,462.5l-.7-.4v31.2c0,0,.6.4.6.4v-31.2"/>
                  <polyline class="cls-14" points="977.3 483.9 976.9 483.7 976.9 484.1 976.5 483.9 976.5 515 976.8 515.2 976.8 516 976.5 515.8 976.4 547 976.7 547.2 976.7 548 976.4 547.8 976.3 579 976.6 579.2 976.6 579.6 977 579.8 977.3 483.9"/>
                  <polyline class="cls-14" points="976.6 579.2 976.3 579 939.3 557.6 938.6 557.2 901.6 535.8 900.9 535.4 863.9 514.1 863.1 513.7 826.1 492.3 825.8 492.1 825.8 492.5 825.8 492.9 976.6 580 976.6 579.6 976.6 579.2"/>
                  <polyline class="cls-14" points="976.7 547.2 976.4 547 939.4 525.6 938.7 525.2 901.7 503.9 900.9 503.5 863.9 482.1 863.2 481.7 826.2 460.3 825.9 460.1 825.9 460.9 826.2 461.1 863.2 482.5 863.9 482.9 900.9 504.3 901.7 504.7 938.7 526 939.4 526.5 976.4 547.8 976.7 548 976.7 547.2"/>
                  <polyline class="cls-14" points="976.8 515.2 976.5 515 939.5 493.7 938.7 493.3 901.8 471.9 901 471.5 864 450.1 863.3 449.7 826.3 428.3 826 428.1 826 429 826.3 429.2 863.3 450.5 864 450.9 901 472.3 901.7 472.7 938.7 494.1 939.5 494.5 976.5 515.8 976.8 516 976.8 515.2"/>
                  <polyline class="cls-14" points="976.9 483.3 826.1 396.2 826.1 396.6 826.1 397 826.4 397.2 863.4 418.5 864.1 419 901.1 440.3 901.8 440.7 938.8 462.1 939.5 462.5 976.5 483.9 976.9 484.1 976.9 483.7 976.9 483.3"/>
                </g>
              </g>
            </g>
          </g>
          <g>
            <g>
              <path class="cls-18" d="M393.9,347c6-3.5,10.9-.7,10.9,6.2l.4,135c0,6.9-4.8,15.3-10.8,18.8l-172.2,99.4c-6,3.5-10.9.7-10.9-6.2l-.4-135c0-6.9,4.9-15.3,10.9-18.8l172.2-99.4Z"/>
              <polygon class="cls-32" points="250.8 442.9 250.9 451.3 221.8 468.1 221.7 459.7 250.8 442.9"/>
              <path class="cls-14" d="M393.3,356.5c1.8-1,3.3-.2,3.3,1.9,0,2.1-1.5,4.6-3.2,5.6-1.8,1-3.3.2-3.3-1.9,0-2.1,1.5-4.6,3.2-5.6Z"/>
              <path class="cls-14" d="M383.8,362.4c1.8-1,3.3-.2,3.3,1.9,0,2.1-1.5,4.6-3.2,5.6-1.8,1-3.3.2-3.3-1.9,0-2.1,1.5-4.6,3.2-5.6Z"/>
            </g>
            <g class="cls-35">
              <g class="cls-30">
                <g>
                  <path class="cls-33" d="M245.7,555.8l-2.9,1.6c.3-2.1,1.2-4.8,4.1-6.5s3.9-.5,3.9,1.4c0,4.3-4,7.1-4.7,10.2l4.8-2.8v2.6s-7.9,4.6-7.9,4.6h-.3c.8-6.6,5.2-10.3,5.2-12.8s-.2-1.3-1-.8-1,1.2-1.1,2.4M266,532l-41,23.7v34.5c0,0,41.1-23.7,41.1-23.7v-34.5M244,524.5l-1.1-1.8,4.4-5.2,1.8-1.1v13.6s-2.9,1.7-2.9,1.7v-9.9s-2.3,2.7-2.3,2.7M265.9,496.6l-41,23.7v34.6c0,0,41.1-23.7,41.1-23.7v-34.6"/>
                  <path class="cls-32" d="M249.1,485.1l-1.5.9v9.2s1.6-.9,1.6-.9c1.9-1.1,3-2.8,3-6.3s-.7-4.2-3-2.9M238.6,502.7v-13.8s3-1.8,3-1.8v13.8s-3,1.8-3,1.8M244.5,499.3v-13.8s4.6-2.7,4.6-2.7c4.2-2.4,6.1-1.3,6.1,3.3s-1.5,7.9-6,10.4l-4.8,2.7M265.8,461.2l-41,23.7v34.6c0,0,41.1-23.7,41.1-23.7v-34.6M307.5,437.2l-41,23.7v34.6c0,0,41.1-23.7,41.1-23.7v-34.6M349.2,413.1l-41,23.7v34.6c0,0,41.1-23.7,41.1-23.7v-34.6M390.9,389l-41,23.7v34.6c0,0,41.1-23.7,41.1-23.7v-34.6"/>
                  <polyline class="cls-14" points="391.6 388.2 391.3 388.4 391.3 388.8 390.9 389 391 423.6 391.4 423.3 391.4 424.2 391 424.4 391.1 458.9 391.5 458.7 391.5 459.5 391.1 459.7 391.2 494.3 391.6 494.1 391.6 494.5 391.9 494.3 391.6 388.2"/>
                  <path class="cls-14" d="M350.1,483.4l-.7.4v34.5c0,0,.8-.4.8-.4v-34.5M350,448l-.7.4v34.6c0,0,.8-.4.8-.4v-34.6M349.9,412.7l-.7.4v34.6c0,0,.8-.4.8-.4v-34.6"/>
                  <path class="cls-14" d="M308.4,507.5l-.7.4v34.5c0,0,.8-.4.8-.4v-34.5M308.3,472.1l-.7.4v34.6c0,0,.8-.4.8-.4v-34.6M308.2,436.8l-.7.4v34.6c0,0,.8-.4.8-.4v-34.6"/>
                  <path class="cls-14" d="M266.7,531.6l-.7.4v34.5c0,0,.8-.4.8-.4v-34.5M266.6,496.2l-.7.4v34.6c0,0,.8-.4.8-.4v-34.6M266.5,460.8l-.7.4v34.6c0,0,.8-.4.8-.4v-34.6"/>
                  <polyline class="cls-14" points="224.4 484.7 224.1 484.9 224.4 591 224.7 590.8 224.7 590.4 225.1 590.2 225 555.6 224.6 555.9 224.6 555 225 554.8 224.9 520.3 224.5 520.5 224.5 519.7 224.9 519.5 224.8 484.9 224.4 485.1 224.4 484.7"/>
                  <polyline class="cls-14" points="391.6 494.1 391.2 494.3 350.2 518 349.5 518.4 308.5 542 307.8 542.4 266.8 566.1 266.1 566.5 225.1 590.2 224.7 590.4 224.7 590.8 224.7 591.2 391.6 494.9 391.6 494.5 391.6 494.1"/>
                  <polyline class="cls-14" points="391.5 458.7 391.1 458.9 350.1 482.6 349.4 483 308.4 506.7 307.7 507.1 266.7 530.8 266 531.2 225 554.8 224.6 555 224.6 555.9 225 555.6 266 532 266.7 531.6 307.7 507.9 308.4 507.5 349.4 483.8 350.1 483.4 391.1 459.7 391.5 459.5 391.5 458.7"/>
                  <polyline class="cls-14" points="391.4 423.3 391 423.6 350 447.2 349.3 447.6 308.3 471.3 307.6 471.7 266.6 495.4 265.9 495.8 224.9 519.5 224.5 519.7 224.5 520.5 224.9 520.3 265.9 496.6 266.6 496.2 307.6 472.5 308.3 472.1 349.3 448.4 350 448 391 424.4 391.4 424.2 391.4 423.3"/>
                  <polyline class="cls-14" points="391.3 388 224.4 484.3 224.4 484.7 224.4 485.1 224.8 484.9 265.8 461.2 266.5 460.8 307.5 437.2 308.2 436.8 349.2 413.1 349.9 412.7 390.9 389 391.3 388.8 391.3 388.4 391.3 388"/>
                  <polyline class="cls-14" points="241.7 487.1 238.6 488.8 238.6 502.7 241.7 500.9 241.7 487.1"/>
                  <path class="cls-14" d="M247.6,495.2v-9.2s1.5-.9,1.5-.9c2.3-1.3,3,.1,3,2.9s-1.1,5.2-3,6.3l-1.6.9M249.2,482.7l-4.7,2.7v13.8s4.8-2.7,4.8-2.7c4.4-2.6,6-6,6-10.4s-1.9-5.7-6.1-3.3"/>
                  <polyline class="cls-14" points="249.2 516.4 247.3 517.4 243 522.7 244 524.5 246.3 521.8 246.3 531.7 249.2 530 249.2 516.4"/>
                  <path class="cls-14" d="M246.9,551c-2.9,1.7-3.8,4.3-4.1,6.5l2.9-1.6c.1-1.2.4-2,1.1-2.4s1,.1,1,.8c0,2.6-4.3,6.2-5.2,12.8h.3s7.9-4.6,7.9-4.6v-2.6s-4.8,2.8-4.8,2.8c.7-3,4.7-5.9,4.7-10.2s-1.2-3-3.9-1.4"/>
                </g>
              </g>
            </g>
          </g>
          <g class="cls-35">
            <g class="cls-50">
              <path class="cls-21" d="M933.2,537.5c-1-.6-2.6-.6-3.5,0l-12.7,7.4c-1,.6-1,1.5,0,2s2.6.6,3.5,0l12.7-7.4c1-.6,1-1.5,0-2M912.1,549.8c-1-.6-2.6-.6-3.5,0l-12.7,7.4c-1,.6-1,1.5,0,2s2.6.6,3.5,0l12.7-7.4c1-.6,1-1.5,0-2M890.9,562.1c-1-.6-2.6-.6-3.5,0l-12.7,7.4c-1,.6-1,1.5,0,2s2.6.6,3.5,0l12.7-7.4c1-.6,1-1.5,0-2M869.8,574.4c-1-.6-2.6-.6-3.5,0l-12.7,7.4c-1,.6-1,1.5,0,2s2.6.6,3.5,0l12.7-7.4c1-.6,1-1.5,0-2M954.4,525.3c-1-.6-2.6-.6-3.5,0l-12.7,7.4c-1,.6-1,1.5,0,2s2.6.6,3.5,0l12.7-7.4c1-.6,1-1.5,0-2"/>
            </g>
          </g>
          <g>
            <g>
              <path class="cls-18" d="M704.5,232.3c-5.4-3.1-9.8-.6-9.9,5.6l-.3,285.1c0,6.2,4.4,13.9,9.8,17l155.6,89.9c5.4,3.1,9.9.6,9.9-5.6l.3-285.1c0-6.2-4.4-13.9-9.8-17l-155.6-89.9Z"/>
              <polygon class="cls-32" points="833.8 319 833.8 326.7 860.1 341.9 860.2 334.2 833.8 319"/>
              <path class="cls-14" d="M705,241c-1.6-.9-2.9-.2-3,1.7,0,1.9,1.3,4.1,2.9,5.1,1.6.9,2.9.2,3-1.7,0-1.9-1.3-4.1-2.9-5.1Z"/>
              <path class="cls-14" d="M713.6,246.3c-1.6-.9-2.9-.2-3,1.7,0,1.9,1.3,4.1,2.9,5.1,1.6.9,2.9.2,3-1.7,0-1.9-1.3-4.1-2.9-5.1Z"/>
            </g>
            <g class="cls-35">
              <g class="cls-37">
                <g>
                  <path class="cls-33" d="M857,569l-37-21.4v31.9c0,0,36.9,21.4,36.9,21.4v-31.9M857.1,536.3l-37-21.4v31.9c0,0,36.9,21.4,36.9,21.4v-31.9M857.1,503.6l-37-21.4v31.9c0,0,36.9,21.4,36.9,21.4v-31.9M857.2,470.9l-37-21.4v31.9c0,0,36.9,21.4,36.9,21.4v-31.9M857.3,438.2l-37-21.4v31.9c0,0,36.9,21.4,36.9,21.4v-31.9M857.4,405.6l-37-21.4v31.9c0,0,36.9,21.4,36.9,21.4v-31.9M857.5,372.9l-37-21.4v31.9c0,0,36.9,21.4,36.9,21.4v-31.9"/>
                  <polyline class="cls-14" points="707 285.6 706.7 285.4 706 514.2 706.4 514.4 706.4 514 706.7 514.2 706.8 482.3 706.5 482.1 706.5 481.3 706.8 481.5 706.9 449.6 706.6 449.4 706.6 448.6 706.9 448.8 707 416.9 706.7 416.7 706.7 415.9 707 416.1 707.1 384.3 706.8 384.1 706.8 383.2 707.1 383.4 707.2 351.6 706.9 351.4 706.9 350.6 707.2 350.8 707.3 318.9 706.9 318.7 706.9 317.9 707.3 318.1 707.4 286.2 707 286 707 285.6"/>
                  <path class="cls-14" d="M744.5,504.1l-.7-.4v31.9c0,0,.6.4.6.4v-31.9M744.6,471.4l-.7-.4v31.9c0,0,.6.4.6.4v-31.9M744.7,438.7l-.7-.4v31.9c0,0,.6.4.6.4v-31.9M744.8,406l-.7-.4v31.9c0,0,.6.4.6.4v-31.9M744.9,373.3l-.7-.4v31.9c0,0,.6.4.6.4v-31.9M745,340.7l-.7-.4v31.9c0,0,.6.4.6.4v-31.9M745.1,308l-.7-.4v31.9c0,0,.6.4.6.4v-31.9"/>
                  <path class="cls-14" d="M782.3,525.9l-.7-.4v31.9c0,0,.6.4.6.4v-31.9M782.3,493.2l-.7-.4v31.9c0,0,.6.4.6.4v-31.9M782.4,460.5l-.7-.4v31.9c0,0,.6.4.6.4v-31.9M782.5,427.8l-.7-.4v31.9c0,0,.6.4.6.4v-31.9M782.6,395.1l-.7-.4v31.9c0,0,.6.4.6.4v-31.9M782.7,362.4l-.7-.4v31.9c0,0,.6.4.6.4v-31.9M782.8,329.7l-.7-.4v31.9c0,0,.6.4.6.4v-31.9"/>
                  <path class="cls-14" d="M820,547.6l-.7-.4v31.9c0,0,.6.4.6.4v-31.9M820.1,514.9l-.7-.4v31.9c0,0,.6.4.6.4v-31.9M820.2,482.3l-.7-.4v31.9c0,0,.6.4.6.4v-31.9M820.2,449.6l-.7-.4v31.9c0,0,.6.4.6.4v-31.9M820.3,416.9l-.7-.4v31.9c0,0,.6.4.6.4v-31.9M820.4,384.2l-.7-.4v31.9c0,0,.6.4.6.4v-31.9M820.5,351.5l-.7-.4v31.9c0,0,.6.4.6.4v-31.9"/>
                  <polyline class="cls-14" points="858.2 372.9 857.9 372.7 857.9 373.1 857.5 372.9 857.4 404.7 857.8 404.9 857.8 405.8 857.4 405.6 857.3 437.4 857.7 437.6 857.7 438.5 857.3 438.2 857.2 470.1 857.6 470.3 857.6 471.1 857.2 470.9 857.2 502.8 857.5 503 857.5 503.8 857.1 503.6 857.1 535.5 857.4 535.7 857.4 536.5 857.1 536.3 857 568.2 857.3 568.4 857.3 569.2 857 569 856.9 600.9 857.2 601.1 857.2 601.5 857.6 601.7 858.2 372.9"/>
                  <polyline class="cls-14" points="857.2 601.1 856.9 600.9 819.9 579.5 819.2 579.1 782.2 557.7 781.5 557.3 744.5 536 743.7 535.6 706.7 514.2 706.4 514 706.4 514.4 706.4 514.8 857.2 601.9 857.2 601.5 857.2 601.1"/>
                  <polyline class="cls-14" points="857.3 568.4 857 568.2 820 546.8 819.3 546.4 782.3 525.1 781.5 524.6 744.5 503.3 743.8 502.9 706.8 481.5 706.5 481.3 706.5 482.1 706.8 482.3 743.8 503.7 744.5 504.1 781.5 525.5 782.3 525.9 819.3 547.2 820 547.6 857 569 857.3 569.2 857.3 568.4"/>
                  <polyline class="cls-14" points="857.4 535.7 857.1 535.5 820.1 514.1 819.4 513.7 782.4 492.4 781.6 491.9 744.6 470.6 743.9 470.2 706.9 448.8 706.6 448.6 706.6 449.4 706.9 449.6 743.9 471 744.6 471.4 781.6 492.8 782.3 493.2 819.3 514.5 820.1 514.9 857.1 536.3 857.4 536.5 857.4 535.7"/>
                  <polyline class="cls-14" points="857.5 503 857.2 502.8 820.2 481.4 819.4 481 782.4 459.7 781.7 459.3 744.7 437.9 744 437.5 707 416.1 706.7 415.9 706.7 416.7 707 416.9 744 438.3 744.7 438.7 781.7 460.1 782.4 460.5 819.4 481.9 820.2 482.3 857.1 503.6 857.5 503.8 857.5 503"/>
                  <polyline class="cls-14" points="857.6 470.3 857.2 470.1 820.2 448.8 819.5 448.3 782.5 427 781.8 426.6 744.8 405.2 744.1 404.8 707.1 383.4 706.8 383.2 706.8 384.1 707.1 384.3 744.1 405.6 744.8 406 781.8 427.4 782.5 427.8 819.5 449.2 820.2 449.6 857.2 470.9 857.6 471.1 857.6 470.3"/>
                  <polyline class="cls-14" points="857.7 437.6 857.3 437.4 820.3 416.1 819.6 415.7 782.6 394.3 781.9 393.9 744.9 372.5 744.2 372.1 707.2 350.8 706.9 350.6 706.9 351.4 707.2 351.6 744.2 372.9 744.9 373.3 781.9 394.7 782.6 395.1 819.6 416.5 820.3 416.9 857.3 438.2 857.7 438.5 857.7 437.6"/>
                  <polyline class="cls-14" points="857.8 404.9 857.4 404.7 820.4 383.4 819.7 383 782.7 361.6 782 361.2 745 339.8 744.3 339.4 707.3 318.1 706.9 317.9 706.9 318.7 707.3 318.9 744.3 340.2 745 340.7 782 362 782.7 362.4 819.7 383.8 820.4 384.2 857.4 405.6 857.8 405.8 857.8 404.9"/>
                  <polyline class="cls-14" points="857.9 372.3 707 285.2 707 285.6 707 286 707.4 286.2 744.4 307.6 745.1 308 782.1 329.3 782.8 329.7 819.8 351.1 820.5 351.5 857.5 372.9 857.9 373.1 857.9 372.7 857.9 372.3"/>
                </g>
              </g>
            </g>
          </g>
          <g>
            <g>
              <path class="cls-26" d="M482.6,411.2c4.1-2.4,7.4-.5,7.4,4.3l.3,92.1c0,4.7-3.3,10.5-7.4,12.8l-117.5,67.8c-4.1,2.4-7.4.5-7.5-4.3l-.3-92.1c0-4.7,3.3-10.5,7.4-12.8l117.5-67.8Z"/>
              <polygon class="cls-32" points="385 476.7 385 482.4 365.1 493.9 365.1 488.1 385 476.7"/>
              <path class="cls-14" d="M482.2,417.8c1.2-.7,2.2-.2,2.2,1.3,0,1.4-1,3.1-2.2,3.8-1.2.7-2.2.1-2.2-1.3,0-1.4,1-3.1,2.2-3.8Z"/>
              <path class="cls-14" d="M475.7,421.8c1.2-.7,2.2-.2,2.2,1.3,0,1.4-1,3.1-2.2,3.8-1.2.7-2.2.1-2.2-1.3,0-1.4,1-3.1,2.2-3.8Z"/>
            </g>
            <g class="cls-35">
              <g class="cls-20">
                <g>
                  <path class="cls-33" d="M386.5,551.3h0c-.3.9-.5,1.8-.9,2.7l-.9,2.6,1.9-1.1v-2c0-.7,0-1.5,0-2.2M382.5,559.8v-1.9s3.6-9.4,3.6-9.4l2.8-1.6v7.3s.8-.4.8-.4v2s-.8.4-.8.4v2.7s-2.5,1.5-2.5,1.5v-2.7s-4,2.3-4,2.3M404.7,532.2l-37.2,21.5v23.3c0,0,37.3-21.5,37.3-21.5v-23.3M385.1,528.6l-2.4,1.3c.1-1.7.9-3.9,3.3-5.3s3.3-.9,3.3,1-.7,2.9-2,3.9h0c1.3-.5,2.4,0,2.4,1.7s-1.3,4.2-3.5,5.5-3.4.2-3.6-1.5l2.6-1.6c0,.8.3,1.4.9,1.1s1-1.2,1-1.9c0-1.3-.8-1.4-2.1-.7v-2.2c1.2-.8,1.8-1.8,1.8-2.7,0-.6-.2-1-.8-.6s-.8,1-.9,1.9M404.6,508.1l-37.2,21.5v23.3c0,0,37.3-21.5,37.3-21.5v-23.3M388.1,501.7l-1.3.8v8.1s1.4-.8,1.4-.8c1.7-1,2.6-2.5,2.6-5.5s-.6-3.7-2.7-2.5M379,517.1v-12.1s2.7-1.6,2.7-1.6v12.1s-2.7,1.6-2.7,1.6M384.2,514.1v-12.1s4.1-2.4,4.1-2.4c3.6-2.1,5.3-1.2,5.3,2.9s-1.3,6.9-5.2,9.1l-4.2,2.4M404.6,483.9l-37.2,21.5v23.3c0,0,37.3-21.5,37.3-21.5v-23.3"/>
                  <polyline class="cls-14" points="481.2 439.3 480.8 439.5 480.8 439.9 480.4 440.1 480.5 463.4 480.9 463.2 480.9 464 480.5 464.2 480.6 487.6 480.9 487.4 480.9 488.2 480.6 488.4 480.6 511.7 481 511.5 481 511.9 481.4 511.7 481.2 439.3"/>
                  <path class="cls-14" d="M443.3,509.9l-.7.4v23.3c0,0,.8-.4.8-.4v-23.3M443.3,485.7l-.7.4v23.3c0,0,.8-.4.8-.4v-23.3M443.2,461.6l-.7.4v23.3c0,0,.8-.4.8-.4v-23.3"/>
                  <path class="cls-14" d="M405.4,531.8l-.7.4v23.3c0,0,.8-.4.8-.4v-23.3M405.3,507.6l-.7.4v23.3c0,0,.8-.4.8-.4v-23.3M405.3,483.5l-.7.4v23.3c0,0,.8-.4.8-.4v-23.3"/>
                  <polyline class="cls-14" points="367 505.2 366.6 505.4 366.8 577.8 367.2 577.6 367.2 577.2 367.5 577 367.5 553.7 367.1 553.9 367.1 553.1 367.5 552.9 367.4 529.6 367 529.8 367 528.9 367.4 528.7 367.3 505.4 367 505.6 367 505.2"/>
                  <polyline class="cls-14" points="481 511.5 480.6 511.7 443.4 533.2 442.7 533.6 405.5 555.1 404.8 555.5 367.5 577 367.2 577.2 367.2 577.6 367.2 578 481 512.3 481 511.9 481 511.5"/>
                  <polyline class="cls-14" points="480.9 487.4 480.6 487.6 443.3 509.1 442.6 509.5 405.4 531 404.7 531.4 367.5 552.9 367.1 553.1 367.1 553.9 367.5 553.7 404.7 532.2 405.4 531.8 442.6 510.3 443.3 509.9 480.6 488.4 480.9 488.2 480.9 487.4"/>
                  <polyline class="cls-14" points="480.9 463.2 480.5 463.4 443.3 484.9 442.6 485.3 405.3 506.8 404.6 507.2 367.4 528.7 367 528.9 367 529.8 367.4 529.6 404.6 508.1 405.3 507.6 442.6 486.1 443.3 485.7 480.5 464.2 480.9 464 480.9 463.2"/>
                  <polyline class="cls-14" points="480.8 439.1 367 504.8 367 505.2 367 505.6 367.3 505.4 404.6 483.9 405.3 483.5 442.5 462 443.2 461.6 480.4 440.1 480.8 439.9 480.8 439.5 480.8 439.1"/>
                  <polyline class="cls-14" points="381.7 503.4 379 505 379 517.1 381.7 515.5 381.7 503.4"/>
                  <path class="cls-14" d="M386.8,510.5v-8.1s1.3-.8,1.3-.8c2-1.2,2.7.1,2.7,2.5s-.9,4.6-2.6,5.5l-1.4.8M388.2,499.6l-4.1,2.4v12.1s4.2-2.4,4.2-2.4c3.9-2.2,5.2-5.2,5.2-9.1s-1.7-5-5.3-2.9"/>
                  <path class="cls-14" d="M386,524.7c-2.4,1.4-3.2,3.6-3.3,5.3l2.4-1.3c0-.9.3-1.5.9-1.9s.8,0,.8.6c0,.9-.6,1.9-1.8,2.7v2.2c1.3-.7,2.1-.7,2.1.7s-.3,1.5-1,1.9-.9-.2-.9-1.1l-2.6,1.6c.1,1.7.9,3,3.6,1.5s3.5-3.2,3.5-5.5-1.1-2.2-2.4-1.7h0c1.3-1.1,2-2.5,2-3.9s-1.4-2.1-3.3-1"/>
                  <path class="cls-14" d="M384.6,556.6l.9-2.6c.3-.9.6-1.7.9-2.6h0c0,.6,0,1.4,0,2.1v2s-1.9,1.1-1.9,1.1M389,546.8l-2.8,1.6-3.7,9.4v1.9s4-2.3,4-2.3v2.7s2.5-1.5,2.5-1.5v-2.7s.8-.4.8-.4v-2s-.8.4-.8.4v-7.3"/>
                </g>
              </g>
            </g>
          </g>
        </g>
        <g>
          <path class="cls-6" d="M446.9,449.6s165.4-328.4,273.9-125.7"/>
          <path class="cls-6" d="M501.5,381.5s14.8-156.1,109.1-126.2c98.6,31.3,137.7,177.3,137.7,177.3"/>
          <path class="cls-6" d="M522.9,409.9s74.6-213.8,235.7-7"/>
          <circle class="cls-14" cx="522.9" cy="430.1" r="1.8"/>
          <circle class="cls-14" cx="491" cy="346.2" r="1.8"/>
          <circle class="cls-14" cx="567.8" cy="319.1" r="2.4"/>
          <circle class="cls-14" cx="731.9" cy="323.8" r="2.4"/>
          <circle class="cls-14" cx="723.6" cy="349.8" r="1.8"/>
          <circle class="cls-14" cx="668.1" cy="242.3" r="1.8"/>
        </g>
        <g>
          <g class="cls-35">
            <g class="cls-36">
              <g>
                <path class="cls-44" d="M406.3,763.3c-15.5-8.9-15.5-23.4-.2-32.4l196.4-114.2c15.4-8.9,40.4-8.9,55.9,0l197.7,114.2c15.5,8.9,15.5,23.4.2,32.4l-196.4,114.2c-15.4,8.9-40.4,8.9-55.9,0l-197.7-114.2M856.9,730.6l-197.7-114.2c-15.8-9.1-41.5-9.1-57.3,0l-196.4,114.2c-15.7,9.1-15.7,24,.2,33.2l197.7,114.2c15.8,9.1,41.5,9.1,57.3,0l196.4-114.2c15.7-9.1,15.7-24-.2-33.2"/>
                <path class="cls-44" d="M413.7,759c-11.3-6.6-11.4-17.2-.1-23.8l196.5-114.2c11.3-6.6,29.7-6.6,41,0l197.8,114.2c11.3,6.5,11.4,17.2.1,23.8l-196.5,114.2c-11.3,6.5-29.7,6.5-41,0l-197.8-114.2M850.2,734.4l-197.8-114.2c-12.1-7-31.8-7-43.8,0l-196.5,114.2c-12,7-12,18.4.1,25.4l197.8,114.2c12.1,7,31.8,7,43.8,0l196.5-114.2c12-7,12-18.4-.1-25.4"/>
                <polyline class="cls-14" points="639.6 713.1 622 702.9 535.4 753.2 553 763.4 639.6 713.1"/>
                <path class="cls-44" d="M535.4,753.2l86.6-50.3,17.6,10.2-86.6,50.3-17.6-10.2M641,713.1l-19.1-11-88,51.2,19.1,11,88-51.2"/>
                <polyline class="cls-14" points="673.6 732.7 656 722.5 569.4 772.9 587 783.1 673.6 732.7"/>
                <path class="cls-44" d="M569.4,772.9l86.6-50.3,17.6,10.2-86.6,50.3-17.6-10.2M675.1,732.7l-19.1-11-88,51.2,19.1,11,88-51.2"/>
                <polyline class="cls-14" points="707.7 752.4 690 742.2 603.4 792.5 621 802.7 707.7 752.4"/>
                <path class="cls-44" d="M603.4,792.5l86.6-50.3,17.6,10.2-86.6,50.3-17.6-10.2M709.1,752.4l-19.1-11-88,51.2,19.1,11,88-51.2"/>
                <path class="cls-14" d="M484.7,768.8c0,.2.1.3.1.4,0,.3,0,.6-.3.9-.2.3-.5.5-.8.8-.3.2-.7.5-1.1.7-.4.2-.7.4-1.1.6-.3.2-.6.4-.9.6-.2.1-.3.3-.4.4h.2c0,0,.1,0,.2-.1.2-.2.6-.4.9-.6.3-.2.7-.4,1.1-.6s.7-.4,1-.7c.3-.2.6-.5.8-.7.2-.2.4-.5.4-.7,0-.2,0-.5-.1-.8,0,0,0-.1-.1-.2M490,762.9l-5.7-3.3-13.8,8h.2c0,.1,6.6-3.7,6.6-3.7l5.5,3.2c.4.2.8.5,1,.7h.3c-.4-.3-.8-.5-1.2-.7l-5.5-3.2,7.1-4.1,5.5,3.2c.5.3,1,.6,1.3,1,.4.4.6.7.7,1.1.1.4,0,.8-.1,1.2-.2.4-.6.8-1.2,1.1s-1.3.6-2,.8c-.5.1-1,.2-1.5.2.2,0,.5,0,.7,0,1.1,0,2.1-.3,3-.9s1.1-.7,1.3-1.1c.2-.4.3-.7.1-1.1-.1-.4-.4-.7-.8-1.1-.4-.4-.9-.7-1.5-1.1"/>
                <path class="cls-44" d="M480.2,773.2c.1-.1.2-.3.4-.4.3-.2.6-.4.9-.6.3-.2.7-.4,1.1-.6.4-.2.8-.5,1.1-.7.3-.3.6-.5.8-.8.2-.3.3-.6.3-.9,0-.1,0-.3-.1-.4,0,0,.1.1.1.2.1.3.2.5.1.8,0,.2-.2.5-.4.7-.2.2-.5.5-.8.7-.3.2-.7.5-1,.7s-.7.4-1.1.6c-.3.2-.6.4-.9.6,0,0-.2.1-.2.2h-.2M478.7,763.8l5.6-3.3,4.8,2.8c.5.3.8.5,1.2.9.3.3.5.6.6.9,0,.3,0,.6-.1.9-.2.3-.5.6-1,.9s-1.1.5-1.6.6c-.5.1-1.1.2-1.6.1-.5,0-1.1-.1-1.6-.3-.5-.2-1.1-.4-1.6-.7l-4.8-2.8M470.5,767.6l13.8-8,5.7,3.3c.6.4,1.1.7,1.5,1.1.4.4.7.7.8,1.1.1.4,0,.7-.1,1.1-.2.4-.6.7-1.3,1.1s-1.9.8-3,.9c-.2,0-.5,0-.7,0,.5,0,1,0,1.5-.2.7-.1,1.3-.4,2-.8s1-.7,1.2-1.1c.2-.4.3-.8.1-1.2-.1-.4-.4-.7-.7-1.1-.4-.3-.8-.7-1.3-1l-5.5-3.2-7.1,4.1,5.5,3.2c.4.2.8.4,1.2.6h-.3c-.3,0-.6-.3-1-.6l-5.5-3.2-6.6,3.8h-.2M490.7,762.5l-6.4-3.7-15.2,8.8,1.6.9,6.6-3.8,4.8,2.8c.6.3,1,.7,1.3,1,.2.3.4.5.4.8,0,.2,0,.5-.2.7-.1.2-.4.4-.7.6-.3.2-.6.4-1,.6-.4.2-.8.4-1.1.6-.4.2-.7.4-1,.7-.3.2-.6.5-.7.7v.2c0,0,1.9,1.1,1.9,1.1v-.6c.2-.2.3-.3.5-.5.2-.2.5-.4.8-.6.3-.2.7-.4,1-.6s.8-.5,1.1-.7c.4-.3.7-.5.9-.8.3-.3.5-.6.5-.9,0-.3,0-.7-.2-1,0,0,0-.1-.1-.2.8.2,1.5.2,2.3.2,1.3,0,2.5-.4,3.6-1s1.3-.9,1.5-1.3c.3-.5.3-.9.2-1.4-.1-.4-.5-.9-.9-1.3-.4-.4-1-.8-1.7-1.2"/>
                <polyline class="cls-14" points="508.2 773.5 499.1 768.2 485.4 776.2 494.5 781.5 494.6 781.5 485.6 776.3 492.7 772.2 501.1 777 501.1 777 492.7 772.1 499.3 768.3 508.2 773.5 508.2 773.5"/>
                <path class="cls-44" d="M485.4,776.2l13.8-8,9.1,5.2h0s-8.9-5.1-8.9-5.1l-6.5,3.8,8.4,4.8h0s-8.4-4.8-8.4-4.8l-7.1,4.1,9,5.2h0s-9.2-5.3-9.2-5.3M509.6,773.5l-10.5-6.1-15.2,8.8,10.6,6.1,1.5-.9-9-5.2,5.7-3.3,8.4,4.8,1.5-.9-8.4-4.8,5.1-3,8.9,5.1,1.5-.9"/>
                <polyline class="cls-14" points="512.8 776.1 512.6 776 498.8 784 507.3 788.9 507.4 788.8 499.1 784.1 512.8 776.1"/>
                <path class="cls-44" d="M498.8,784l13.8-8h.2c0,.1-13.7,8.1-13.7,8.1l8.3,4.8h0s-8.5-4.8-8.5-4.8M514.2,776.1l-1.6-.9-15.2,8.8,9.9,5.7,1.5-.9-8.3-4.8,13.7-8"/>
                <path class="cls-14" d="M516.5,788.7l12.4-3.1.5.3v.2c-.1,0-5.5,6.9-5.5,6.9l-7.4-4.3M529.6,785.8l-.5-.3-19.3,4.8h.2c0,.1,6.5-1.5,6.5-1.5l7.5,4.3-2.8,3.8h.2c0,.1,8.3-11.1,8.3-11.1"/>
                <path class="cls-44" d="M518.2,788.9l9.6-2.4-4.3,5.5-5.4-3.1M529.4,785.9l-.5-.3-12.4,3.1,7.4,4.3,5.4-6.9v-.2M509.7,790.3l19.3-4.8.5.3-8.3,11.2h-.2c0-.1,2.8-3.9,2.8-3.9l-7.5-4.3-6.5,1.6h-.2M530.7,785.6l-1.5-.8-21.3,5.3,1.7,1,6.5-1.6,6.5,3.8-2.8,3.8,1.7,1,9.1-12.3"/>
                <polyline class="cls-14" points="546.8 795.8 536.4 789.7 536.3 789.8 541.5 792.7 527.7 800.7 527.9 800.8 541.6 792.8 546.8 795.8 546.8 795.8"/>
                <path class="cls-44" d="M536.3,789.8h0s10.5,6,10.5,6h0s-5.1-2.9-5.1-2.9l-13.7,8h-.2c0-.1,13.7-8.1,13.7-8.1l-5.1-3M548.3,795.8l-11.9-6.9-1.5.9,5.1,3-13.7,8,1.6.9,13.7-8,5.1,3,1.5-.9"/>
                <polyline class="cls-14" points="550.8 798 550.6 797.9 536.8 805.9 537 806 550.8 798"/>
                <path class="cls-44" d="M536.8,805.9l13.8-8h.2c0,.1-13.8,8.1-13.8,8.1h-.2M552.2,798l-1.6-.9-15.2,8.8,1.6.9,15.2-8.8"/>
                <path class="cls-14" d="M548,812.7c-1-.6-1.7-1.2-2.1-1.9-.4-.7-.5-1.4-.5-2.1.1-.7.5-1.4,1-2,.6-.7,1.4-1.3,2.3-1.8s2-1,3.2-1.4c1.1-.3,2.3-.5,3.5-.6,1.2,0,2.4,0,3.6.3,1.2.2,2.3.6,3.3,1.2s1.7,1.2,2.1,1.9c.4.7.5,1.4.4,2.1,0,.7-.5,1.4-1,2-.6.7-1.4,1.3-2.3,1.8s-2,1-3.2,1.3c-1.1.3-2.3.5-3.5.6-1.2,0-2.4,0-3.6-.3-1.2-.2-2.3-.6-3.3-1.2M562.4,804.3c-1-.6-2.2-1-3.3-1.3-1.2-.3-2.4-.4-3.6-.3-1.2,0-2.4.2-3.6.6-1.2.3-2.3.8-3.3,1.4s-1.8,1.2-2.4,1.9c-.6.7-.9,1.4-1,2.1,0,.7,0,1.4.5,2.1.4.7,1.2,1.3,2.2,1.9s2.2,1,3.3,1.3c1.2.3,2.4.4,3.6.3,1.2,0,2.4-.3,3.6-.6,1.2-.3,2.3-.8,3.3-1.4s1.8-1.2,2.4-1.9c.6-.7.9-1.4,1-2.1,0-.7,0-1.4-.5-2.1-.4-.7-1.2-1.3-2.2-1.9"/>
                <path class="cls-44" d="M548.7,812.3c-.9-.5-1.5-1.1-1.9-1.7-.4-.6-.5-1.2-.4-1.8,0-.6.4-1.2.9-1.8.5-.6,1.2-1.2,2.1-1.7s1.9-.9,2.9-1.2c1-.3,2.1-.5,3.2-.5,1.1,0,2.1,0,3.2.2,1,.2,2,.6,2.9,1.1s1.5,1.1,1.9,1.7c.3.6.5,1.2.4,1.8,0,.6-.4,1.2-.9,1.8-.5.6-1.2,1.2-2.1,1.7s-1.9.9-2.9,1.2c-1,.3-2.1.5-3.2.5-1,0-2.1,0-3.1-.2-1-.2-2-.6-2.9-1.1M562.3,804.4c-1-.6-2.1-1-3.3-1.2-1.2-.2-2.4-.3-3.6-.3-1.2,0-2.4.3-3.5.6-1.1.3-2.2.8-3.2,1.4s-1.7,1.2-2.3,1.8c-.6.7-.9,1.4-1,2,0,.7,0,1.4.5,2.1.4.7,1.1,1.3,2.1,1.9s2.1,1,3.3,1.2c1.2.2,2.4.3,3.6.3,1.2,0,2.4-.3,3.5-.6,1.1-.3,2.2-.8,3.2-1.3s1.7-1.2,2.3-1.8c.6-.7.9-1.4,1-2,.1-.7,0-1.4-.4-2.1-.4-.7-1.1-1.3-2.1-1.9M547.9,812.7c-1-.6-1.8-1.2-2.2-1.9-.4-.7-.6-1.4-.5-2.1,0-.7.4-1.4,1-2.1.6-.7,1.4-1.3,2.4-1.9s2.1-1.1,3.3-1.4c1.2-.3,2.4-.5,3.6-.6,1.2,0,2.4,0,3.6.3,1.2.3,2.3.7,3.3,1.3s1.8,1.2,2.2,1.9c.4.7.6,1.4.5,2.1,0,.7-.4,1.4-1,2.1-.6.7-1.4,1.3-2.4,1.9s-2.1,1.1-3.3,1.4c-1.2.3-2.4.5-3.6.6-1.2,0-2.4,0-3.6-.3-1.2-.3-2.3-.7-3.3-1.3M563.1,803.9c-1.1-.7-2.4-1.1-3.7-1.4-1.3-.3-2.7-.4-4-.3s-2.7.3-4,.6c-1.3.4-2.5.9-3.6,1.5s-2,1.3-2.6,2.1c-.6.8-1,1.5-1.1,2.3,0,.8.1,1.6.6,2.3.5.8,1.3,1.5,2.5,2.1s2.4,1.1,3.7,1.4c1.3.3,2.7.4,4,.3,1.3,0,2.7-.3,4-.6,1.3-.4,2.5-.9,3.6-1.5s2-1.3,2.6-2.1c.6-.7,1-1.5,1.1-2.3s-.1-1.6-.6-2.3c-.5-.8-1.3-1.5-2.4-2.1"/>
                <polyline class="cls-14" points="583.8 817.1 583.6 817 570.4 824.7 569.8 824.4 569.8 824.2 573.9 811.3 573.3 811 559.5 819 559.7 819.1 573.1 811.3 573.6 811.7 573.6 811.8 569.5 824.8 570.1 825.1 583.8 817.1"/>
                <path class="cls-44" d="M569.8,824.4l.5.3,13.3-7.7h.2c0,.1-13.8,8.1-13.8,8.1l-.5-.3,4.1-13v-.2s-.5-.3-.5-.3l-13.4,7.8h-.2c0-.1,13.8-8.1,13.8-8.1l.6.3-4,12.9v.2M585.2,817.1l-1.6-.9-12.6,7.3,3.9-12.3-1.7-1-15.2,8.8,1.6.9,12.7-7.4-3.9,12.4,1.6.9,15.2-8.8"/>
                <path class="cls-14" d="M580.8,825.8l12.4-3.1.5.3v.2c-.1,0-5.5,6.9-5.5,6.9l-7.4-4.3M593.9,822.9l-.5-.3-19.3,4.8h.2c0,.1,6.5-1.5,6.5-1.5l7.5,4.3-2.8,3.8h.2c0,.1,8.3-11.1,8.3-11.1"/>
                <path class="cls-44" d="M582.5,826l9.6-2.4-4.3,5.5-5.4-3.1M593.7,823l-.5-.3-12.4,3.1,7.4,4.3,5.4-6.9v-.2M574,827.4l19.3-4.8.5.3-8.3,11.2h-.2c0-.1,2.8-3.9,2.8-3.9l-7.5-4.3-6.5,1.6h-.2M595,822.8l-1.5-.8-21.3,5.3,1.7,1,6.5-1.6,6.5,3.8-2.8,3.8,1.7,1,9.1-12.3"/>
                <polyline class="cls-14" points="603.5 828.5 603.3 828.3 589.5 836.3 598 841.2 598 841.2 589.8 836.4 603.5 828.5"/>
                <path class="cls-44" d="M589.5,836.3l13.8-8h.2c0,.1-13.7,8.1-13.7,8.1l8.3,4.8h0s-8.5-4.8-8.5-4.8M604.9,828.5l-1.6-.9-15.2,8.8,9.9,5.7,1.5-.9-8.3-4.8,13.7-8"/>
                <path class="cls-14" d="M654.2,672.2l13.6-7.9,4.1,2.4c.4.2.8.5,1.2.8.4.3.8.6,1.1,1,.3.4.5.8.7,1.2.1.4.1.9,0,1.4-.2.5-.5,1-1,1.6s-1.3,1.1-2.3,1.7-2.6,1.3-3.8,1.6c-1.2.3-2.4.4-3.6.4-1.1,0-2.2-.2-3.1-.5-.9-.3-1.8-.6-2.5-1.1l-4.3-2.5M672.2,666.7l-4.4-2.6-13.8,8,4.4,2.5c1.1.6,2.3,1.1,3.4,1.4,1.1.3,2.3.4,3.4.3,1.1,0,2.3-.3,3.3-.6,1.1-.3,2.2-.8,3.1-1.4s1.7-1.1,2.3-1.7c.6-.6,1-1.2,1.2-1.9.1-.6,0-1.3-.4-2-.4-.7-1.3-1.4-2.5-2.1"/>
                <path class="cls-44" d="M655.6,672.2l12.2-7.1,3.4,2c.3.2.7.4,1.1.7.4.3.7.6,1,.9.3.3.5.7.6,1,.1.4.1.8,0,1.2-.2.4-.5.9-.9,1.4-.5.5-1.2,1-2.2,1.6s-2.4,1.2-3.5,1.5-2.1.4-3.1.4c-1,0-1.9-.2-2.7-.4-.8-.3-1.6-.6-2.2-1l-3.6-2.1M672,666.7l-4.1-2.4-13.6,7.9,4.3,2.5c.7.4,1.5.8,2.5,1.1,1,.3,2,.5,3.1.5,1.1,0,2.3,0,3.6-.4,1.2-.3,2.5-.8,3.8-1.6s1.8-1.2,2.3-1.7.9-1.1,1-1.6c.2-.5.2-1,0-1.4-.1-.4-.4-.8-.7-1.2-.3-.4-.7-.7-1.1-1-.4-.3-.8-.5-1.2-.8M654,672.2l13.8-8,4.4,2.6c1.2.7,2.1,1.4,2.5,2.1.4.7.6,1.4.4,2-.1.6-.5,1.3-1.2,1.9-.6.6-1.4,1.2-2.3,1.7s-2,1-3.1,1.4c-1.1.3-2.2.5-3.3.6-1.1,0-2.3,0-3.4-.3-1.2-.3-2.3-.7-3.4-1.4l-4.4-2.5M672.9,666.3l-5.1-3-15.2,8.8,5.1,2.9c1.2.7,2.5,1.2,3.8,1.5,1.3.3,2.6.4,3.9.4s2.5-.3,3.7-.7c1.2-.4,2.3-.9,3.4-1.5s1.8-1.2,2.4-1.8c.7-.7,1.1-1.4,1.3-2.1.2-.7,0-1.5-.5-2.3-.5-.8-1.4-1.6-2.8-2.3"/>
                <path class="cls-14" d="M675,678.9l12.4-3.1.5.3v.2c-.1,0-5.5,6.9-5.5,6.9l-7.4-4.3M688.1,675.9l-.5-.3-19.4,4.8h.2c0,.1,6.5-1.5,6.5-1.5l7.5,4.3-2.8,3.8h.2c0,.1,8.3-11.1,8.3-11.1"/>
                <path class="cls-44" d="M676.8,679.1l9.7-2.4-4.3,5.5-5.4-3.1M687.9,676l-.5-.3-12.4,3.1,7.4,4.3,5.4-6.9v-.2M668.3,680.4l19.4-4.8.5.3-8.3,11.2h-.2c0-.1,2.8-3.9,2.8-3.9l-7.5-4.3-6.5,1.6h-.2M689.3,675.8l-1.5-.8-21.3,5.3,1.7,1,6.5-1.6,6.5,3.7-2.8,3.8,1.7,1,9.1-12.3"/>
                <polyline class="cls-14" points="705.4 685.9 695 679.9 694.9 679.9 700 682.9 686.3 690.8 686.5 691 700.2 683 705.3 686 705.4 685.9"/>
                <path class="cls-44" d="M694.9,679.9h0s10.5,6,10.5,6h0s-5.1-2.9-5.1-2.9l-13.7,8h-.2c0-.1,13.7-8.1,13.7-8.1l-5.1-3M706.8,685.9l-11.9-6.9-1.5.9,5.1,3-13.7,8,1.6.9,13.7-8,5.1,3,1.5-.9"/>
                <path class="cls-14" d="M699.8,693.2l12.4-3.1.5.3v.2c-.1,0-5.5,6.9-5.5,6.9l-7.4-4.3M712.8,690.2l-.5-.3-19.4,4.8h.2c0,.1,6.5-1.5,6.5-1.5l7.5,4.3-2.8,3.8h.2c0,.1,8.3-11.1,8.3-11.1"/>
                <path class="cls-44" d="M701.5,693.4l9.7-2.4-4.3,5.5-5.4-3.1M712.7,690.3l-.5-.3-12.4,3.1,7.4,4.3,5.4-6.9v-.2M693,694.7l19.4-4.8.5.3-8.3,11.2h-.2c0-.1,2.8-3.9,2.8-3.9l-7.5-4.3-6.5,1.6h-.2M714,690.1l-1.5-.8-21.3,5.3,1.7,1,6.5-1.6,6.5,3.7-2.8,3.8,1.7,1,9.1-12.3"/>
                <path class="cls-14" d="M727.8,698.8l-5.5-3.2-13.8,8,5.5,3.2c.7.4,1.5.8,2.2,1,.7.2,1.5.4,2.2.4.7,0,1.4,0,2.1-.1.7-.1,1.3-.4,1.9-.7s1.1-.8,1.2-1.2c.2-.4.2-.8,0-1.1-.1-.3-.3-.6-.5-.9,0,0-.1-.1-.2-.2.2.2.4.5.5.7.2.4.2.8,0,1.3-.2.4-.6.9-1.3,1.3-1.2.7-2.5,1-4,.9-1.4-.1-2.8-.6-4.2-1.4l-5.3-3.1,7.1-4.1,5.3,3.1c.5.3,1,.6,1.4,1h0s0-.3,0-.3c-.4-.2-.9-.4-1.3-.6l-5.3-3.1,6.5-3.8,5.3,3.1c.5.3,1,.6,1.3.9.4.3.6.7.8,1.1.1.4.1.7,0,1.1-.2.4-.6.7-1.2,1.1-1,.6-2.2.8-3.5.8h0c.4,0,.7,0,1,0,.5,0,.9,0,1.3-.2.4-.1.8-.3,1.2-.5s.8-.5,1-.9c.3-.3.4-.7.4-1,0-.4-.2-.8-.5-1.2-.3-.4-.9-.9-1.8-1.4"/>
                <path class="cls-44" d="M710.2,703.7l5.7-3.3,4.6,2.6c.5.3.9.6,1.3.9.4.3.6.6.8,1,.1.3.2.6,0,1-.1.3-.5.7-1,1-1,.6-2,.8-3.2.7-1.2,0-2.4-.5-3.6-1.2l-4.6-2.6M717.3,699.6l5.1-3,4.6,2.6c.5.3.9.5,1.2.8.3.3.5.6.6.9.1.3,0,.6,0,.8-.1.3-.4.6-.9.8-.8.5-1.7.7-2.7.6-1,0-2.1-.4-3.3-1l-4.6-2.6M708.5,703.7l13.8-8,5.5,3.2c.8.5,1.4.9,1.8,1.4.3.4.5.8.5,1.2,0,.4-.1.7-.4,1-.3.3-.6.6-1,.9s-.7.4-1.2.5c-.4.1-.9.2-1.3.2-.3,0-.7,0-1,0h0c1.3,0,2.5-.2,3.5-.8s1-.7,1.2-1.1c.2-.4.2-.7,0-1.1-.1-.4-.4-.7-.8-1.1-.4-.3-.8-.6-1.3-.9l-5.3-3.1-6.5,3.8,5.3,3.1c.4.3.9.5,1.3.6v.4s0,0,0,0c-.4-.4-.9-.7-1.4-1l-5.3-3.1-7.1,4.1,5.3,3.1c1.4.8,2.8,1.2,4.2,1.4,1.5.1,2.8-.2,4-.9s1.1-.8,1.3-1.3c.2-.4.1-.8,0-1.3-.1-.2-.3-.5-.5-.7,0,0,.1.1.2.2.2.2.4.5.5.9.1.3,0,.7,0,1.1-.1.4-.5.8-1.2,1.2s-1.3.6-1.9.7c-.7.1-1.4.2-2.1.1-.7,0-1.5-.2-2.2-.4-.8-.2-1.5-.6-2.2-1l-5.5-3.2M728.5,698.4l-6.2-3.6-15.2,8.8,6.2,3.6c.8.5,1.6.8,2.5,1.1.9.3,1.7.4,2.6.5.9,0,1.7,0,2.5-.2s1.6-.5,2.3-.9,1.3-1,1.5-1.5c.2-.5.2-.9,0-1.3,0-.2-.2-.5-.3-.7h0c.6.1,1.2.2,1.7.2.6,0,1.2,0,1.7-.2.5-.1,1-.3,1.5-.6s.9-.6,1.2-1c.3-.4.5-.8.5-1.3,0-.4-.2-.9-.6-1.4-.4-.5-1-1-2-1.5"/>
                <path class="cls-14" d="M728.8,709.9l12.4-3.1.5.3v.2c-.1,0-5.5,6.9-5.5,6.9l-7.4-4.3M741.9,707l-.5-.3-19.3,4.8h.2c0,.1,6.5-1.5,6.5-1.5l7.5,4.3-2.8,3.8h.2c0,.1,8.3-11.1,8.3-11.1"/>
                <path class="cls-44" d="M730.6,710.1l9.7-2.4-4.3,5.5-5.4-3.1M741.7,707.1l-.5-.3-12.4,3.1,7.4,4.3,5.4-6.9v-.2M722,711.5l19.3-4.8.5.3-8.3,11.2h-.2c0-.1,2.8-3.9,2.8-3.9l-7.5-4.3-6.5,1.6h-.2M743.1,706.8l-1.5-.8-21.3,5.3,1.7,1,6.5-1.6,6.5,3.8-2.8,3.8,1.7,1,9.2-12.3"/>
                <path class="cls-14" d="M756.2,714.9c-.6-.3-1.2-.6-2-.9-.7-.2-1.4-.4-2.1-.5-.7,0-1.4,0-2.1,0-.7.1-1.4.3-2,.7s-1,.7-1.1,1.1c-.1.4-.1.8,0,1.1.2.4.5.8.9,1.2.4.4.9.9,1.4,1.3.5.4,1,.9,1.4,1.3.5.4.8.9,1.1,1.3.3.5.3.9.2,1.3-.1.4-.5.9-1.2,1.3s-1.5.7-2.3.8c-.8,0-1.5,0-2.3,0-.7,0-1.4-.3-2.1-.5-.7-.3-1.3-.5-1.8-.8s-1.3-.8-1.7-1.3c-.5-.5-.9-1-1-1.5-.2-.5,0-1.1.2-1.6.3-.4.7-.9,1.4-1.3h-.2c-.7.3-1.2.8-1.4,1.2-.3.5-.4,1-.3,1.6.1.5.5,1,1,1.5.5.5,1.1,1,1.9,1.4s1.3.7,2,.9c.7.2,1.4.4,2.2.5.7,0,1.5,0,2.3,0,.7,0,1.5-.4,2.2-.7s1.1-.8,1.2-1.1c.2-.4.1-.8,0-1.2-.2-.4-.5-.8-.8-1.2-.4-.4-.9-.9-1.4-1.3-.5-.4-1-.9-1.4-1.3-.5-.4-.9-.9-1.1-1.3-.3-.4-.4-.9-.3-1.3,0-.4.5-.9,1.1-1.2s1.4-.6,2.1-.7c.7,0,1.5,0,2.2,0,.7,0,1.3.3,2,.5.6.2,1.2.5,1.6.8.7.4,1.2.8,1.6,1.2.4.4.7.9.8,1.4.1.5,0,.9-.2,1.4-.2.4-.5.7-1,1.1h.2c.5-.3.9-.7,1.1-1,.3-.5.3-.9.2-1.4-.1-.5-.4-.9-.9-1.4-.4-.4-1-.9-1.7-1.3"/>
                <path class="cls-44" d="M742.4,723.6c.5.3,1.1.6,1.8.8.7.2,1.4.4,2.1.5.7.1,1.5.1,2.3,0,.8,0,1.6-.3,2.3-.8s1.1-.8,1.2-1.3c.1-.4,0-.9-.2-1.3-.2-.4-.6-.9-1.1-1.3-.5-.4-.9-.9-1.4-1.3-.5-.4-.9-.8-1.4-1.3-.4-.4-.7-.8-.9-1.2-.2-.4-.2-.8,0-1.1.1-.4.5-.7,1.1-1.1s1.3-.6,2-.7c.7-.1,1.4-.1,2.1,0,.7,0,1.4.3,2.1.5.7.3,1.4.6,2,.9.7.4,1.3.8,1.7,1.3.5.4.7.9.9,1.4.1.4,0,.9-.2,1.4-.2.4-.6.8-1.1,1.1h-.2c.5-.4.8-.8,1-1.2.2-.4.3-.9.2-1.4-.1-.4-.4-.9-.8-1.4-.4-.4-.9-.8-1.6-1.2s-1-.5-1.6-.8c-.6-.2-1.3-.4-2-.5-.7-.1-1.4-.1-2.2,0-.7,0-1.5.3-2.1.7s-1,.8-1.1,1.2c0,.4,0,.9.3,1.3.3.4.6.8,1.1,1.3.5.4.9.9,1.4,1.3.5.4,1,.9,1.4,1.3.4.4.7.8.8,1.2.2.4.2.8,0,1.2-.2.4-.6.8-1.2,1.1s-1.4.6-2.2.7c-.8.1-1.5.1-2.3,0-.8,0-1.5-.3-2.2-.5-.8-.3-1.5-.6-2-.9s-1.4-.9-1.9-1.4c-.5-.5-.9-1-1-1.5-.1-.5,0-1,.3-1.6.3-.4.8-.9,1.4-1.3h.2c-.7.5-1.2.9-1.4,1.4-.3.5-.4,1-.2,1.6.1.5.5,1,1,1.5.5.5,1,.9,1.7,1.3M756.9,714.5c-.6-.4-1.3-.7-2.1-1-.8-.3-1.6-.5-2.4-.6-.8-.1-1.7,0-2.6,0-.9.1-1.7.4-2.4.9s-1.2.9-1.4,1.4c-.2.5-.2.9,0,1.4.2.4.5.9,1,1.4.4.4.9.9,1.4,1.3.5.4,1,.8,1.4,1.3.4.4.8.8,1,1.2.2.4.3.7.2,1.1,0,.3-.4.6-.9,1s-1.1.5-1.8.6c-.6,0-1.2,0-1.8,0-.6,0-1.2-.2-1.8-.4-.6-.2-1.2-.5-1.6-.8s-1.2-.8-1.6-1.2c-.5-.4-.8-.9-.9-1.3-.1-.4,0-.9.2-1.3.3-.4.8-.8,1.5-1.2l.4-.2-1.6-.9-.4.2c-1,.6-1.7,1.2-2,1.8-.4.6-.5,1.2-.3,1.8.2.6.5,1.2,1.1,1.8.6.6,1.3,1.1,2.2,1.6s1.3.6,2,.9c.8.3,1.6.5,2.5.6.9.1,1.8,0,2.7,0,.9-.1,1.8-.4,2.6-.9s1.3-.9,1.5-1.4c.2-.5.2-1,0-1.4-.2-.5-.5-.9-1-1.4-.4-.4-.9-.9-1.4-1.3-.5-.4-1-.8-1.4-1.3-.4-.4-.8-.8-1-1.2-.2-.4-.3-.7-.2-1,0-.3.4-.6.8-.9s1.1-.5,1.6-.6c.6,0,1.2,0,1.7,0,.6,0,1.1.2,1.7.4.6.2,1.1.5,1.5.7.6.3,1.1.7,1.4,1.1.4.4.6.8.7,1.1,0,.4,0,.7-.2,1.1-.2.4-.6.7-1.1,1.1l-.3.2,1.6.9.3-.2c.8-.5,1.3-1.1,1.6-1.6.3-.5.4-1.1.2-1.6-.1-.5-.5-1.1-1-1.6-.5-.5-1.1-1-1.9-1.4"/>
                <polyline class="cls-14" points="775.3 726.3 766.2 721 752.4 729 761.6 734.3 761.7 734.3 752.7 729.1 759.8 725 768.1 729.8 768.2 729.8 759.8 725 766.3 721.2 775.2 726.3 775.3 726.3"/>
                <path class="cls-44" d="M752.4,729l13.8-8,9.1,5.2h0s-8.9-5.1-8.9-5.1l-6.5,3.8,8.4,4.8h0s-8.4-4.8-8.4-4.8l-7.1,4.1,9,5.2h0s-9.2-5.3-9.2-5.3M776.7,726.3l-10.5-6.1-15.2,8.8,10.6,6.1,1.5-.9-9-5.2,5.7-3.3,8.4,4.8,1.5-.9-8.4-4.8,5.1-3,8.9,5.1,1.5-.9"/>
              </g>
            </g>
          </g>
          <g>
            <path class="cls-23" d="M443.6,715l153.5-88.6c19.6-11.3,51.6-11.4,71.2-.1l152.6,88.1c19.5,11.3,19.4,29.7-.2,41.1l-153.5,88.6c-19.6,11.3-51.6,11.4-71.2.1l-152.6-88.1c-19.5-11.3-19.4-29.7.2-41.1Z"/>
            <g>
              <path class="cls-58" d="M835.4,647.6l-1.7,28.3c0,3.7-1.4,7.3-3.8,10.8-2.5,3.5-6.1,6.6-10.9,9.4,0,0,0,0,0,0l-153.5,88.6v-136.6s170-.6,170-.6Z"/>
              <path class="cls-52" d="M648.5,648.2h16.9c0,0,0,136.5,0,136.5-5.4,3.1-11.8,5.4-18.6,6.8v-143.3s1.7,0,1.7,0Z"/>
              <path class="cls-29" d="M428.8,648.9l165.4-.6v136.5s-38.4-22.2-38.4-22.2l-114.2-65.9h0c-9.9-5.7-14.8-13.3-14.5-20.9l1.7-26.9Z"/>
              <path class="cls-19" d="M611.6,648.3h35.1c0-.1,0,143.2,0,143.2-11.9,2.5-25.2,2.3-36.9-.6v-142.6s1.7,0,1.7,0Z"/>
              <path class="cls-41" d="M609.9,648.3v142.6c-5.7-1.4-11-3.4-15.7-6.1v-136.5s15.7,0,15.7,0Z"/>
            </g>
            <path class="cls-33" d="M443.6,628.7l153.5-88.6c19.6-11.3,51.6-11.4,71.2-.1l152.6,88.1c19.5,11.3,19.4,29.7-.2,41.1l-153.5,88.6c-19.6,11.3-51.6,11.4-71.2.1l-152.6-88.1c-19.5-11.3-19.4-29.7.2-41.1Z"/>
            <path class="cls-7" d="M631.3,752.1c-10.8,0-21.1-2.4-28.2-6.5l-152.6-88.1c-5.5-3.2-7.4-6.3-7.4-8.1s2.4-5.3,7.7-8.3l153.5-88.6c7.3-4.2,17.7-6.6,28.7-6.6s21.1,2.4,28.2,6.5l152.6,88.1c5.5,3.2,7.4,6.3,7.4,8.1s-2.4,5.3-7.7,8.3l-153.5,88.6c-7.3,4.2-17.7,6.6-28.7,6.6Z"/>
          </g>
          <g>
            <g class="cls-35">
              <path class="cls-19" d="M753.6,636.7v11.1c-.1,18-11.9,36-35.6,49.8-47.6,27.7-125.1,27.7-173,0-24.1-13.9-36.2-32.2-36.1-50.5v-11.1c0,18.3,12.1,36.5,36.2,50.5,47.9,27.7,125.4,27.7,173,0,23.7-13.7,35.5-31.7,35.6-49.8Z"/>
              <path class="cls-29" d="M717.5,586.3c47.9,27.7,48.2,72.5.6,100.2-47.6,27.7-125.1,27.7-173,0-47.9-27.7-48.2-72.5-.6-100.2,47.6-27.7,125.1-27.7,173,0Z"/>
            </g>
            <g class="cls-35">
              <path class="cls-19" d="M730.8,600.6v27.2c0,14.7-9.7,29.3-29,40.5-38.7,22.5-101.7,22.5-140.7,0-19.6-11.3-29.4-26.2-29.4-41v-27.2c0,14.8,9.8,29.7,29.4,41,39,22.5,102,22.5,140.7,0,19.2-11.2,28.9-25.8,28.9-40.5Z"/>
              <path class="cls-12" d="M701.4,559.6c39,22.5,39.2,59,.5,81.5-38.7,22.5-101.7,22.5-140.7,0-39-22.5-39.2-59-.5-81.5,38.7-22.5,101.7-22.5,140.7,0Z"/>
              <image width="272" height="189" transform="translate(495.5 505.8)" xlink:href="database-2.png"/>
            </g>
            <ellipse class="cls-8" cx="631.2" cy="636" rx="112.7" ry="65.6"/>
            <g class="cls-35">
              <path class="cls-19" d="M730.8,600.6v27.2c0,14.7-9.7,29.3-29,40.5-38.7,22.5-101.7,22.5-140.7,0-19.6-11.3-29.4-26.2-29.4-41v-27.2c0,14.8,9.8,29.7,29.4,41,39,22.5,102,22.5,140.7,0,19.2-11.2,28.9-25.8,28.9-40.5Z"/>
              <path class="cls-12" d="M701.4,559.6c39,22.5,39.2,59,.5,81.5-38.7,22.5-101.7,22.5-140.7,0-39-22.5-39.2-59-.5-81.5,38.7-22.5,101.7-22.5,140.7,0Z"/>
              <image width="272" height="189" transform="translate(495.5 505.8)" xlink:href="database-3.png"/>
            </g>
            <g class="cls-35">
              <path class="cls-19" d="M730.8,560.8v27.2c0,14.7-9.7,29.3-29,40.5-38.7,22.5-101.7,22.5-140.7,0-19.6-11.3-29.4-26.2-29.4-41v-27.2c0,14.8,9.8,29.7,29.4,41,39,22.5,102,22.5,140.7,0,19.2-11.2,28.9-25.8,28.9-40.5Z"/>
              <path class="cls-12" d="M701.4,519.8c39,22.5,39.2,59,.5,81.5-38.7,22.5-101.7,22.5-140.7,0-39-22.5-39.2-59-.5-81.5,38.7-22.5,101.7-22.5,140.7,0Z"/>
              <image width="272" height="189" transform="translate(495.5 465.8)" xlink:href="database-4.png"/>
            </g>
            <g class="cls-35">
              <path class="cls-19" d="M730.8,519.3v27.2c0,14.7-9.7,29.3-29,40.5-38.7,22.5-101.7,22.5-140.7,0-19.6-11.3-29.4-26.2-29.4-41v-27.2c0,14.8,9.8,29.7,29.4,41,39,22.5,102,22.5,140.7,0,19.2-11.2,28.9-25.8,28.9-40.5Z"/>
              <path class="cls-12" d="M701.4,478.3c39,22.5,39.2,59,.5,81.5-38.7,22.5-101.7,22.5-140.7,0-39-22.5-39.2-59-.5-81.5s101.7-22.5,140.7,0Z"/>
              <image width="272" height="188" transform="translate(495.5 424.8)" xlink:href="database-5.png"/>
            </g>
            <g class="cls-35">
              <path class="cls-58" d="M701.4,464.1c39,22.5,39.2,59,.5,81.5-38.7,22.5-101.7,22.5-140.7,0-39-22.5-39.2-59-.5-81.5s101.7-22.5,140.7,0Z"/>
            </g>
            <g>
              <g class="cls-35">
                <path class="cls-19" d="M730.8,476.7v15.8c0,14.7-9.7,29.3-29,40.5-38.7,22.5-101.7,22.5-140.7,0-19.6-11.3-29.4-26.2-29.4-41v-15.8c0,14.8,9.8,29.7,29.4,41,39,22.5,102,22.5,140.7,0,19.2-11.2,28.9-25.8,28.9-40.5Z"/>
                <path class="cls-29" d="M701.4,435.7c39,22.5,39.2,59,.5,81.5-38.7,22.5-101.7,22.5-140.7,0-39-22.5-39.2-59-.5-81.5,38.7-22.5,101.7-22.5,140.7,0Z"/>
                <path class="cls-58" d="M687,446.3c31,16.7,31.1,43.7.4,60.3-30.8,16.7-80.8,16.7-111.8,0-31-16.7-31.1-43.7-.4-60.3,30.8-16.7,80.8-16.7,111.8,0Z"/>
                <path class="cls-19" d="M575.2,451.9c30.8-16.7,80.8-16.7,111.8,0,13.7,7.4,21.4,18.8,23,28.4,2-12.2-5.7-24.8-23-34.1-31-16.7-81-16.7-111.8,0-17.1,9.3-24.6,21.7-22.6,33.8,1.6-9.6,9.1-20.8,22.6-28.1Z"/>
                <ellipse class="cls-8" cx="631.2" cy="476.4" rx="95.9" ry="55.8"/>
              </g>
              <g class="cls-35">
                <path class="cls-19" d="M670.3,473.1v6.2c0,5.7-3.8,11.5-11.4,15.9-15.2,8.8-39.9,8.8-55.2,0-7.7-4.4-11.5-10.3-11.5-16.1v-6.2c0,5.8,3.8,11.6,11.5,16.1,15.3,8.8,40,8.8,55.2,0,7.5-4.4,11.3-10.1,11.3-15.9Z"/>
                <path class="cls-29" d="M658.7,457.1c15.3,8.8,15.4,23.1.2,31.9-15.2,8.8-39.9,8.8-55.2,0-15.3-8.8-15.4-23.1-.2-31.9,15.2-8.8,39.9-8.8,55.2,0Z"/>
                <path class="cls-19" d="M651.3,462.2c11.1,6,11.2,15.7.1,21.7-11.1,6-29.1,6-40.2,0-11.1-6-11.2-15.7-.1-21.7,11.1-6,29.1-6,40.2,0Z"/>
                <path class="cls-19" d="M611.1,464.9c11.1-6,29.1-6,40.2,0,4.9,2.7,7.7,6.1,8.3,9.5.7-4.4-2-8.9-8.3-12.3-11.1-6-29.2-6-40.2,0-6.2,3.3-8.9,7.8-8.2,12.2.6-3.4,3.3-6.8,8.2-9.4Z"/>
              </g>
            </g>
            <g class="cls-15">
              <image width="277" height="136" transform="translate(492.5 545.8)" xlink:href="database-6.png"/>
              <path class="cls-10" d="M730.8,584.7c0,31.8-44.6,57.6-99.5,57.6s-99.5-25.8-99.5-57.6"/>
            </g>
          </g>
        </g>
        <g>
          <path class="cls-46" d="M713.3,882.2c0,3.7-5.5,6.8-12.2,6.8-6.7,0-12.2-3-12.2-6.8,0-3.7,5.5-6.8,12.2-6.8,6.7,0,12.2,3,12.2,6.8Z"/>
          <g>
            <polygon class="cls-55" points="683.1 825 679.5 828.9 683.2 839.1 686.9 835.2 683.1 825"/>
            <polygon class="cls-28" points="683.2 826.3 680.2 829.5 683.2 837.8 686.2 834.6 683.2 826.3"/>
          </g>
          <path class="cls-13" d="M696.3,788s-.2-2.8.3-3.8c.4-1-.6-2.2-1.9-2.9-1.3-.7-1.5-3-1.8-3.6-.4-.6-1-.6-.9.7,0,1.3.6,3,.4,3.8-.2.7-1.5,1.3-.4,2.6,1.1,1.4,2.5,3.7,2.5,4.3,0,.7,1.8-1.2,1.8-1.2Z"/>
          <path class="cls-13" d="M685.7,835.9s-1.4-.5-1.6-1c-.4-.7-1.1-2.6-2.2-2.8-.9-.2.2,1.6-.1,1.7-.9.5-.9-.3-1.5,0-.6.4-1,1.1-.4,2.8.7,1.7,1,2.2,2.7,2.3,1.7,0,2.9,0,3.4,0,.5,0-.3-3-.3-3Z"/>
          <path class="cls-14" d="M693,883.6c3,2.2,6.2,3.2,8.7,2.5,2.3-.6.8-3.7.8-3.7,0,0-3.4-.9-5.9-1.4-3.3-.7-6.3.6-3.6,2.6Z"/>
          <path class="cls-14" d="M700.2,880.2c3,2.2,6.2,3.2,8.7,2.6,2.3-.6.8-3.7.8-3.7,0,0-3.4-.9-5.9-1.4-3.3-.7-6.3.6-3.6,2.6Z"/>
          <path class="cls-48" d="M695.8,857.7c.3,5.8,2.2,19.3,1.8,24.8,0,0,2.2,1.5,4.9,0,0,0-.3-10.3,0-13.4.3-3.2.6-12.1.6-12.1l-7.3.8Z"/>
          <path class="cls-48" d="M703.1,854.4c.3,5.8,2.5,19.3,2.1,24.8,0,0,1.8,1.5,4.6,0,0,0-.3-10.3,0-13.4.3-3.2.6-12.1.6-12.1l-7.3.8Z"/>
          <path class="cls-14" d="M710.5,842.2c-.4-16.6,1.1-26-3.9-32.5-3.8-5-9-18.4-9.7-22.1,0,0-1.7-1.2-2.8.6-1.1,1.8,3.8,14.8,4,17.1.1,1,1.1,6.4,1.1,6.4,0,0-4.1,2-5.4,4.7-1.3,2.7-1.1,9.3-.2,19,1.1,11.6-.9,13.4-.6,26.1,0,0,12,4.8,18.5-2.3,0,0-.9-10.9-1.1-17Z"/>
          <g>
            <path class="cls-13" d="M704.9,796.2c2.8,1.1,1.6,5.3-.4,7.8-2,2.5-.7,3.3.2,5.3l-6.4,2.7s.7-3.3-.4-5.2c0,0-1.9,0-2.4-.1-.5-.2-.9-.5-.2-2.8.8-2.4,2.7-10.4,9.5-7.6Z"/>
            <path class="cls-40" d="M699.5,796.4s1,.4,1.3,1.2c.4.8-1.7,2.5-1.8,4.1-.2,1.5.9-1.6,1.6-.4.7,1.1-.5,2.4-1.3,2.6-.8.2.5,1.2.6,2,0,0,3.4-.2,3.6.8,0,.4,6-6.4,2.5-10-3.1-3.3-6.3-1-6.6-.3Z"/>
          </g>
          <path class="cls-14" d="M696.6,813.3s1-3.3,5-4.8c4-1.5,4,1.2,4,1.2,0,0-6.6,2.2-8.9,3.6Z"/>
          <path class="cls-14" d="M692.9,820.1s-.2,4.7-.5,8.4c0,0-.6,2.7-2.2,4-1.5,1.2-4.5,2.4-4.5,2.4,0,0-2.4,2,0,4.1,0,0,8.4-1.8,10.8-3.5,2-1.4,2.6-3.9,2.6-3.9"/>
          <path class="cls-14" d="M699.3,796.6s1.9,6.9,6.6,7.1c0,0,2.4-3.1,1.5-5.3-1.1-2.9-5.2-5.3-8.1-1.8Z"/>
        </g>
        <g>
          <polygon class="cls-38" points="864.9 803.9 864.9 806.4 812 837 789.4 824 789.4 821.5 864.9 803.9"/>
          <polygon class="cls-17" points="842.2 791 789.4 821.5 812 834.6 864.9 803.9 842.2 791"/>
          <path class="cls-39" d="M789.4,821.5l22.5,13,23.6-97.4-22.6-13-23.6,97.4ZM827.2,752.4l-15.3-8.8c-.9-.5-1.2-1.6-.7-2.5.5-.9,1.6-1.2,2.5-.7l15.3,8.8c.9.5,1.2,1.6.7,2.5-.3.6-1,.9-1.6.9s-.6,0-.9-.2ZM823.2,768.9l-15.3-8.8c-.9-.5-1.2-1.6-.7-2.5.5-.9,1.6-1.2,2.5-.7l15.3,8.8c.9.5,1.2,1.6.7,2.5-.3.6-1,.9-1.6.9s-.6,0-.9-.2ZM819.2,785.3l-15.3-8.8c-.9-.5-1.2-1.6-.7-2.5.5-.9,1.6-1.2,2.5-.7l15.3,8.8c.9.5,1.2,1.6.7,2.5-.3.6-1,.9-1.6.9s-.6,0-.9-.2ZM815.2,801.8l-15.3-8.8c-.9-.5-1.2-1.6-.7-2.5.5-.9,1.6-1.2,2.5-.7l15.3,8.8c.9.5,1.2,1.6.7,2.5-.3.6-1,.9-1.6.9s-.6,0-.9-.2ZM795.3,807c.5-.9,1.6-1.2,2.5-.7l15.3,8.8c.9.5,1.2,1.6.7,2.5-.3.6-1,.9-1.6.9s-.6,0-.9-.2l-15.3-8.8c-.9-.5-1.2-1.6-.7-2.5Z"/>
          <path class="cls-49" d="M860,805.2c.7,0,1.2-.5,1.2-1.2v-83.7c0-.7-.5-1.2-1.2-1.2s-1.2.5-1.2,1.2v83.7c0,.7.5,1.2,1.2,1.2Z"/>
          <path class="cls-49" d="M842.3,794.6c.7,0,1.2-.5,1.2-1.2v-83.7c0-.7-.5-1.2-1.2-1.2s-1.2.5-1.2,1.2v83.7c0,.7.5,1.2,1.2,1.2Z"/>
          <polygon class="cls-39" points="842.2 707.2 813 724.1 835.6 737.2 864.9 720.2 842.2 707.2"/>
          <polygon class="cls-38" points="864.9 720.2 864.9 726.3 840.4 740.8 818.7 830.7 811.9 834.5 835.6 737.2 864.9 720.2"/>
          <path class="cls-49" d="M840.8,710.6c.7,0,1.2-.5,1.2-1.2v-22.4c0-.7-.5-1.2-1.2-1.2s-1.2.5-1.2,1.2v22.4c0,.7.5,1.2,1.2,1.2Z"/>
          <path class="cls-49" d="M818.3,723.8c.7,0,1.2-.5,1.2-1.2v-22.4c0-.7-.5-1.2-1.2-1.2s-1.2.5-1.2,1.2v22.4c0,.7.5,1.2,1.2,1.2Z"/>
          <path class="cls-16" d="M785.8,819.5c.5,0,1-.4,1.2-.9l28.3-116.5,28.9-16.7c.6-.3.8-1.1.4-1.7-.3-.6-1.1-.8-1.7-.4l-29.3,17c-.3.2-.5.4-.6.8l-28.4,117c-.2.7.2,1.3.9,1.5,0,0,.2,0,.3,0Z"/>
          <path class="cls-46" d="M854.7,719.6c0,3.7-5.5,6.8-12.2,6.8s-12.2-3-12.2-6.8,5.5-6.8,12.2-6.8c6.7,0,12.2,3,12.2,6.8Z"/>
          <g>
            <path class="cls-53" d="M824.3,680.6c-.1,0-.3,0-.3-.2l-.8-2.7c0-.2-.2-1,0-1.1.2,0,.5.7.6.9l.8,2.7c0,.2,0,.3-.2.4,0,0,0,0,0,0Z"/>
            <path class="cls-13" d="M828.2,681.9s-1.2-.4-1.4-.9c-.3-.6-.7-2.2-1.7-2.4-.8-.1,0,1.4-.3,1.5-.8.4-.8-.3-1.3,0-.5.3-.9,1-.3,2.4.6,1.5.9,1.9,2.3,1.9,1.4,0,2.5-.3,3-.3.4,0-.3-2.3-.3-2.3Z"/>
            <path class="cls-14" d="M834.3,720.7c1.9,2.5,4.3,4.2,6.5,4.3,2.1.1,1.6-2.8,1.6-2.8,0,0-2.5-1.6-4.5-2.7-2.5-1.4-5.3-1.1-3.6,1.2Z"/>
            <path class="cls-14" d="M840.6,717.7c1.9,2.5,4.3,4.2,6.5,4.3,2.1.1,1.6-2.8,1.6-2.8,0,0-2.5-1.6-4.5-2.7-2.5-1.4-5.3-1.1-3.6,1.2Z"/>
            <path class="cls-48" d="M836.9,700.6c.2,5,1.9,16.5,1.5,21.2,0,0,1.9,1.3,4.2,0,0,0-.3-8.8,0-11.5.3-2.7.5-10.4.5-10.4l-6.2.7Z"/>
            <path class="cls-48" d="M843.2,697.8c.2,5,2.1,16.5,1.8,21.2,0,0,1.6,1.3,3.9,0,0,0-.3-8.8,0-11.5.3-2.7.5-10.4.5-10.4l-6.2.7Z"/>
            <path class="cls-14" d="M849.5,687.3c-.4-14.3.9-22.3-3.4-27.9-3.3-4.3-6.3,1.7-6.3,1.7,0,0-3.5,1.7-4.7,4.1-1.2,2.4-1,8-.2,16.3,1,9.9-.7,11.5-.5,22.4,0,0,10.3,4.1,15.9-2,0,0-.8-9.3-.9-14.6Z"/>
            <path class="cls-44" d="M835.9,682.3c1.7-1.2,2.5-3.5,2.5-3.5,0,0-.5,6.7-3.1,10.3,0-1.8,0-3.8-.2-6.4.3-.1.6-.3.8-.4Z"/>
            <g>
              <path class="cls-13" d="M840.5,647c2.6,0,3.1,3.6,2.4,6.3-.7,2.7.5,4.2,1.9,5.5l-6.4,2.8s1.8-2.8.3-3.9c0,0-1.2.7-1.6.7-.5,0-1.2,0-1.4-2.2-.2-2.1-1.5-9.1,4.8-9.3Z"/>
              <path class="cls-40" d="M836.3,649.1s.9,0,1.5.5c.6.5-.4,2.6,0,3.8.4,1.3.1-1.6,1.2-.9.9.6.4,2,0,2.5-.5.5.2,1.2,1.1,1.3.9.1,2.3,0,3.3-.2,2.2-.5,3-3.1.5-3.4.2-2.2,0-4.9-2.2-5.8-3.5-1.5-5.3,1.4-5.3,2.1Z"/>
              <path class="cls-14" d="M836.1,649.3s3.9,4.7,7.7,3.3c0,0,.8-3.2-.7-4.7-1.9-1.9-5.9-2.3-7,1.4Z"/>
            </g>
            <path class="cls-14" d="M837.6,662.5s.9-2.8,4.3-4.1c3.4-1.3,3.4,1,3.4,1,0,0-5.7,1.9-7.7,3.1Z"/>
            <path class="cls-14" d="M834.4,668.4s-.1,4-.4,7.2c0,0-.5,2.4-1.9,3.4-1.3,1-3.5,1.9-3.5,1.9,0,0-2.5,1.4-.4,3.2,0,0,5.7-.5,7.7-1.9,1.7-1.2,2.5-3.5,2.5-3.5"/>
          </g>
          <g>
            <path class="cls-49" d="M859.1,721.3c.7,0,1.2-.5,1.2-1.2v-22.4c0-.7-.5-1.2-1.2-1.2s-1.2.5-1.2,1.2v22.4c0,.7.5,1.2,1.2,1.2Z"/>
            <path class="cls-49" d="M836.6,734.6c.7,0,1.2-.5,1.2-1.2v-22.4c0-.7-.5-1.2-1.2-1.2s-1.2.5-1.2,1.2v22.4c0,.7.5,1.2,1.2,1.2Z"/>
            <path class="cls-16" d="M804.7,829.8c.5,0,1-.4,1.2-.9l28.3-116.5,28.9-16.7c.6-.3.8-1.1.4-1.7-.3-.6-1.1-.8-1.7-.4l-29.3,17c-.3.2-.5.4-.6.8l-28.4,117c-.2.7.2,1.3.9,1.5,0,0,.2,0,.3,0Z"/>
          </g>
        </g>
        <g class="cls-35">
          <path class="cls-32" d="M415.4,563.9l-2.1,1.2c.8-.4,1.8-.4,3,.3l2.1-1.2c-1.2-.7-2.2-.7-3-.3Z"/>
          <path class="cls-32" d="M486.2,666.8l2.1-1.2c.8-.4,1.2-1.4,1.2-2.7l-2.1,1.2c0,1.3-.5,2.3-1.2,2.7Z"/>
          <polygon class="cls-32" points="487.5 664.1 489.6 662.9 489.7 610.3 487.6 611.5 487.5 664.1"/>
          <polygon class="cls-32" points="483.4 604.2 485.5 602.9 418.4 564.2 416.3 565.5 483.4 604.2"/>
          <path class="cls-32" d="M487.6,611.5l2.1-1.2c0-2.7-1.9-6-4.2-7.3l-2.1,1.2c2.3,1.4,4.2,4.6,4.2,7.3Z"/>
          <g class="cls-24">
            <path class="cls-17" d="M416.3,565.5c-2.3-1.4-4.2-.3-4.3,2.4v52.6c-.2,2.7,1.7,6,4.1,7.3l67.1,38.7c2.3,1.4,4.3.3,4.3-2.4v-52.6c.2-2.7-1.7-6-4.1-7.3l-67.1-38.7Z"/>
          </g>
          <g>
            <g class="cls-45">
              <polygon class="cls-44" points="438.1 600.1 438 602.7 478 626 478.1 623.4 438.1 600.1"/>
            </g>
            <g>
              <g class="cls-45">
                <polygon class="cls-16" points="454.4 596 454.3 604.2 478.1 618 478.1 609.7 454.4 596"/>
              </g>
              <g class="cls-45">
                <polygon class="cls-44" points="429.5 601.1 429.4 618.9 478 647 478.1 629.2 429.5 601.1"/>
              </g>
              <polygon class="cls-43" points="445.9 633.4 445.8 636 478 654.7 478.1 652.1 445.9 633.4"/>
            </g>
          </g>
        </g>
        <g>
          <path class="cls-25" d="M438.3,802.6l-35.3,20.4c-2.3,1.3-5.1,1.3-7.3,0l-51.3-29.5c-1.7-1-1.7-3.5,0-4.5l35.3-20.4c2.3-1.3,5.1-1.3,7.4,0l51.2,29.6c1.7,1,1.7,3.5,0,4.5Z"/>
          <g>
            <polygon class="cls-39" points="454.2 666.6 404.4 695.5 335.9 656 385.9 627.1 454.2 666.6"/>
            <polygon class="cls-38" points="454.2 666.6 454.2 668.8 404.4 697.6 404.4 695.5 454.2 666.6"/>
            <polygon class="cls-57" points="404.4 695.5 404.4 697.6 335.9 658.2 335.9 656 404.4 695.5"/>
          </g>
          <g>
            <g>
              <polygon class="cls-14" points="423.6 649.8 407.8 658.9 423 667.7 438.8 658.6 423.6 649.8"/>
              <polygon class="cls-14" points="407.8 658.9 423 667.7 423 669.1 407.8 660.3 407.8 658.9"/>
              <polygon class="cls-11" points="438.8 660 423 669.1 423 667.7 438.8 658.5 438.8 660"/>
            </g>
            <g>
              <polygon class="cls-34" points="424.1 627.6 412.7 634.2 423.7 640.6 435.2 634 424.1 627.6"/>
              <polygon class="cls-14" points="412.7 634.2 423.7 640.6 423.7 664.3 412.7 658 412.7 634.2"/>
              <g>
                <line class="cls-4" x1="412.7" y1="634.2" x2="423.7" y2="640.6"/>
                <line class="cls-4" x1="412.7" y1="642.2" x2="423.7" y2="648.5"/>
                <line class="cls-4" x1="412.7" y1="650.1" x2="423.7" y2="656.4"/>
                <line class="cls-4" x1="412.7" y1="658" x2="423.7" y2="664.3"/>
              </g>
              <polygon class="cls-11" points="435.2 657.7 423.7 664.3 423.7 640.6 435.2 634 435.2 657.7"/>
              <g>
                <line class="cls-4" x1="435.2" y1="634" x2="423.7" y2="640.6"/>
                <line class="cls-4" x1="435.2" y1="641.9" x2="423.7" y2="648.5"/>
                <line class="cls-4" x1="435.2" y1="649.8" x2="423.7" y2="656.4"/>
                <line class="cls-4" x1="435.2" y1="657.7" x2="423.7" y2="664.3"/>
              </g>
              <line class="cls-4" x1="412.7" y1="634.2" x2="423.7" y2="640.6"/>
              <line class="cls-4" x1="412.7" y1="657.8" x2="423.7" y2="664.2"/>
              <line class="cls-1" x1="418.8" y1="643.3" x2="416.7" y2="642.1"/>
              <line class="cls-1" x1="418.8" y1="651.2" x2="416.7" y2="650"/>
              <line class="cls-1" x1="418.8" y1="659.2" x2="416.7" y2="658"/>
            </g>
            <g>
              <polygon class="cls-39" points="423.6 623.6 407.8 632.8 423 641.5 438.8 632.4 423.6 623.6"/>
              <polygon class="cls-14" points="407.8 632.7 423 641.5 423 643 407.8 634.2 407.8 632.7"/>
              <polygon class="cls-11" points="438.8 633.8 423 643 423 641.5 438.8 632.4 438.8 633.8"/>
            </g>
            <g>
              <g>
                <g>
                  <polygon class="cls-14" points="417.2 625.7 423.5 622.1 434 628.1 434 628.1 434 632.2 427.7 635.9 417.2 629.8 417.2 625.7 417.2 625.7"/>
                  <polygon class="cls-14" points="423.5 622.1 417.2 625.7 427.7 631.8 434 628.1 423.5 622.1"/>
                  <polygon class="cls-14" points="417.2 625.7 427.7 631.8 427.7 635.9 417.2 629.8 417.2 625.7"/>
                  <polygon class="cls-11" points="434 632.2 427.7 635.9 427.7 631.8 434 628.1 434 632.2"/>
                </g>
                <path class="cls-42" d="M426.4,630c0,.2.3.4.7.4s.7-.2.7-.4c0-.2-.3-.4-.7-.4s-.7.2-.7.4Z"/>
                <path class="cls-11" d="M418.9,629c.3-.1.4-.5.2-.9-.2-.3-.6-.5-.9-.4-.3.1-.4.6-.2.9.2.3.6.5.9.4Z"/>
                <path class="cls-53" d="M425.4,629.2c0,.1.2.2.4.2s.3,0,.3-.2c0-.1-.2-.2-.3-.2s-.4,0-.4.2Z"/>
                <path class="cls-53" d="M424,628.4c0,.1.2.2.4.2s.4,0,.4-.2-.2-.2-.4-.2-.4,0-.4.2Z"/>
                <path class="cls-53" d="M422.6,627.5c0,.1.2.2.4.2s.4,0,.4-.2-.2-.2-.4-.2-.4,0-.4.2Z"/>
                <path class="cls-51" d="M420.5,625c0,.1.2.2.4.2s.4,0,.4-.2c0-.1-.2-.2-.4-.2s-.4,0-.4.2Z"/>
                <line class="cls-5" x1="426.4" y1="632.6" x2="420.2" y2="629"/>
                <line class="cls-9" x1="419.6" y1="625.5" x2="421.5" y2="626.6"/>
              </g>
              <g>
                <g>
                  <polygon class="cls-34" points="425.6 616.5 423.3 617.9 426.9 620 429.3 618.6 425.6 616.5"/>
                  <polygon class="cls-14" points="423.3 618.5 426.9 620.5 426.9 627.6 423.3 625.5 423.3 618.5"/>
                  <polygon class="cls-49" points="429.3 626.3 426.9 627.6 426.9 620.5 429.3 619.2 429.3 626.3"/>
                </g>
                <g>
                  <polygon class="cls-14" points="418.6 608.2 419.5 607.6 432 614.8 431 615.3 431 615.3 432 614.8 432 627.2 431 627.8 418.6 620.6 418.6 608.2 418.6 608.2"/>
                  <polygon class="cls-14" points="419.5 607.6 418.6 608.2 431 615.3 432 614.8 419.5 607.6"/>
                  <polygon class="cls-14" points="418.6 608.2 431 615.3 431 627.8 418.6 620.6 418.6 608.2"/>
                  <polygon class="cls-53" points="430 615.9 419.6 609.9 419.6 620.1 430 626.1 430 615.9"/>
                  <polygon class="cls-11" points="432 627.2 431 627.8 431 615.3 432 614.8 432 627.2"/>
                </g>
              </g>
            </g>
            <g>
              <path class="cls-14" d="M411.8,632.1c.2.5,1.1.7,2,.3.9-.3,1.5-1,1.3-1.5-.2-.5-1.1-.7-2-.3-.9.3-1.5,1-1.3,1.5Z"/>
              <path class="cls-47" d="M413.6,630.9c0,.1.2.2.4.2s.4,0,.4-.2-.2-.2-.4-.2-.4,0-.4.2Z"/>
            </g>
            <g>
              <polygon class="cls-14" points="413.2 633.5 418 629.7 426 634.3 426 634.3 426 636 421.2 638.8 413.2 634.1 413.2 633.5 413.2 633.5"/>
              <polygon class="cls-2" points="418 629.7 413.2 633.6 421.2 638.2 426 634.3 418 629.7"/>
              <polygon class="cls-11" points="417.9 631.1 415.5 633 421.6 636.6 424 634.7 417.9 631.1"/>
              <polygon class="cls-2" points="413.2 633.5 421.2 638.2 421.2 638.8 413.2 634.1 413.2 633.5"/>
              <polygon class="cls-2" points="426 636 421.2 638.8 421.2 638.2 426 634.3 426 636"/>
            </g>
          </g>
          <g>
            <g>
              <line class="cls-3" x1="406.1" y1="692.4" x2="406.1" y2="668.3"/>
              <path class="cls-49" d="M406.1,693.5c.6,0,1.1-.5,1.1-1.1v-16.7c0-.6-.5-1.1-1.1-1.1s-1.1.5-1.1,1.1v16.7c0,.6.5,1.1,1.1,1.1Z"/>
            </g>
            <g>
              <line class="cls-3" x1="385.9" y1="681.1" x2="385.9" y2="657"/>
              <path class="cls-49" d="M385.9,682.2c.6,0,1.1-.5,1.1-1.1v-16.7c0-.6-.5-1.1-1.1-1.1s-1.1.5-1.1,1.1v16.7c0,.6.5,1.1,1.1,1.1Z"/>
            </g>
            <g>
              <line class="cls-3" x1="365.7" y1="669.9" x2="365.7" y2="645.8"/>
              <path class="cls-49" d="M365.7,671c.6,0,1.1-.5,1.1-1.1v-16.7c0-.6-.5-1.1-1.1-1.1s-1.1.5-1.1,1.1v16.7c0,.6.5,1.1,1.1,1.1Z"/>
            </g>
          </g>
          <g>
            <g>
              <g>
                <line class="cls-3" x1="381.1" y1="631.8" x2="381.1" y2="607.6"/>
                <path class="cls-49" d="M381.1,632.8c.6,0,1.1-.5,1.1-1.1v-16.7c0-.6-.5-1.1-1.1-1.1s-1.1.5-1.1,1.1v16.7c0,.6.5,1.1,1.1,1.1Z"/>
              </g>
              <g>
                <line class="cls-3" x1="360.4" y1="643.7" x2="360.4" y2="619.5"/>
                <path class="cls-49" d="M360.4,644.7c.6,0,1.1-.5,1.1-1.1v-16.7c0-.6-.5-1.1-1.1-1.1s-1.1.5-1.1,1.1v16.7c0,.6.5,1.1,1.1,1.1Z"/>
              </g>
              <g>
                <line class="cls-3" x1="339.7" y1="655.6" x2="339.7" y2="631.4"/>
                <path class="cls-49" d="M339.7,656.6c.6,0,1.1-.5,1.1-1.1v-16.7c0-.6-.5-1.1-1.1-1.1s-1.1.5-1.1,1.1v16.7c0,.6.5,1.1,1.1,1.1Z"/>
              </g>
            </g>
            <path class="cls-16" d="M339.7,633.4c.3,0,.6,0,.8-.2l41.4-23.9c.8-.4,1-1.4.6-2.2-.4-.8-1.4-1-2.2-.6l-41.4,23.9c-.8.4-1,1.4-.6,2.2.3.5.8.8,1.4.8Z"/>
          </g>
          <g>
            <path class="cls-49" d="M341.1,796.3c.9,0,1.6-.7,1.6-1.6v-137.8c0-.9-.7-1.6-1.6-1.6s-1.6.7-1.6,1.6v137.8c0,.9.7,1.6,1.6,1.6Z"/>
            <g>
              <path class="cls-16" d="M356.1,677.3c.4,0,.7-.2.9-.5.3-.5.1-1.2-.4-1.5l-14.9-8.6c-.5-.3-1.2-.1-1.5.4-.3.5-.1,1.2.4,1.5l14.9,8.6c.2,0,.4.1.5.1Z"/>
              <path class="cls-16" d="M356.1,688.1c.4,0,.7-.2.9-.5.3-.5.1-1.2-.4-1.5l-14.9-8.6c-.5-.3-1.2-.1-1.5.4-.3.5-.1,1.2.4,1.5l14.9,8.6c.2,0,.4.1.5.1Z"/>
              <path class="cls-16" d="M356.1,698.8c.4,0,.7-.2.9-.5.3-.5.1-1.2-.4-1.5l-14.9-8.6c-.5-.3-1.2-.1-1.5.4-.3.5-.1,1.2.4,1.5l14.9,8.6c.2,0,.4.1.5.1Z"/>
              <path class="cls-16" d="M356.1,709.6c.4,0,.7-.2.9-.5.3-.5.1-1.2-.4-1.5l-14.9-8.6c-.5-.3-1.2-.1-1.5.4-.3.5-.1,1.2.4,1.5l14.9,8.6c.2,0,.4.1.5.1Z"/>
              <path class="cls-16" d="M356.1,720.4c.4,0,.7-.2.9-.5.3-.5.1-1.2-.4-1.5l-14.9-8.6c-.5-.3-1.2-.1-1.5.4-.3.5-.1,1.2.4,1.5l14.9,8.6c.2,0,.4.1.5.1Z"/>
              <path class="cls-16" d="M356.1,731.2c.4,0,.7-.2.9-.5.3-.5.1-1.2-.4-1.5l-14.9-8.6c-.5-.3-1.2-.1-1.5.4-.3.5-.1,1.2.4,1.5l14.9,8.6c.2,0,.4.1.5.1Z"/>
              <path class="cls-16" d="M356.1,741.9c.4,0,.7-.2.9-.5.3-.5.1-1.2-.4-1.5l-14.9-8.6c-.5-.3-1.2-.1-1.5.4-.3.5-.1,1.2.4,1.5l14.9,8.6c.2,0,.4.1.5.1Z"/>
              <path class="cls-16" d="M356.1,752.7c.4,0,.7-.2.9-.5.3-.5.1-1.2-.4-1.5l-14.9-8.6c-.5-.3-1.2-.1-1.5.4-.3.5-.1,1.2.4,1.5l14.9,8.6c.2,0,.4.1.5.1Z"/>
              <path class="cls-16" d="M356.1,763.5c.4,0,.7-.2.9-.5.3-.5.1-1.2-.4-1.5l-14.9-8.6c-.5-.3-1.2-.1-1.5.4-.3.5-.1,1.2.4,1.5l14.9,8.6c.2,0,.4.1.5.1Z"/>
              <path class="cls-16" d="M356.1,774.3c.4,0,.7-.2.9-.5.3-.5.1-1.2-.4-1.5l-14.9-8.6c-.5-.3-1.2-.1-1.5.4-.3.5-.1,1.2.4,1.5l14.9,8.6c.2,0,.4.1.5.1Z"/>
              <path class="cls-16" d="M356.1,785c.4,0,.7-.2.9-.5.3-.5.1-1.2-.4-1.5l-14.9-8.6c-.5-.3-1.2-.1-1.5.4-.3.5-.1,1.2.4,1.5l14.9,8.6c.2,0,.4.1.5.1Z"/>
              <path class="cls-16" d="M356.1,795.8c.4,0,.7-.2.9-.5.3-.5.1-1.2-.4-1.5l-14.9-8.6c-.5-.3-1.2-.1-1.5.4-.3.5-.1,1.2.4,1.5l14.9,8.6c.2,0,.4.1.5.1Z"/>
            </g>
            <path class="cls-49" d="M356.1,805c.9,0,1.6-.7,1.6-1.6v-137.8c0-.9-.7-1.6-1.6-1.6s-1.6.7-1.6,1.6v137.8c0,.9.7,1.6,1.6,1.6Z"/>
          </g>
          <g>
            <ellipse class="cls-46" cx="406.1" cy="674.3" rx="13.6" ry="6.1"/>
            <g>
              <path class="cls-13" d="M404.2,599.7c-2.6,0-3.1,3.6-2.4,6.3.7,2.7,1.2,3.9.1,5.5-1.1,1.5,4.8,2.3,4.8,2.3,0,0-.8-2-.1-3.3,0,0,.9.7,1.3.7s.9,0,1.1-2.2c.2-2.1,1.5-9.1-4.8-9.3Z"/>
              <path class="cls-27" d="M408.4,601.8s-.9,0-1.5.5c-.6.5.4,2.6,0,3.9-.4,1.3-.1-1.6-1.2-.9-.9.6-.5,2,0,2.5.5.5-.8.7-1.1,1.3,0,0-1.4-.8-2.2-.3-.7.5-3.2-7.8.6-9.1,3.6-1.3,5.3,1.4,5.3,2.1Z"/>
            </g>
            <path class="cls-13" d="M418.1,634.8s1.2-.4,1.4-.9c.5-1,1-1.4,1.7-1.1.8.4,1.1,0,1.6.2.5.3.9,1,.3,2.4-.6,1.5-.9,1.9-2.3,1.9-1.4,0-2.5,0-3,0-.4,0,.3-2.6.3-2.6Z"/>
            <path class="cls-16" d="M411.1,675.8c-2.5,1.9-5.4,2.7-7.5,2.2-2-.5-.7-3.2-.7-3.2,0,0,2.9-.8,5.1-1.2,2.8-.6,5.4.5,3.1,2.2Z"/>
            <path class="cls-16" d="M404.9,672.9c-2.5,1.9-5.4,2.7-7.5,2.2-2-.5-.7-3.2-.7-3.2,0,0,2.9-.8,5.1-1.2,2.8-.6,5.4.5,3.1,2.2Z"/>
            <path class="cls-22" d="M408.6,653.6c-.2,5-1.9,16.6-1.5,21.3,0,0-1.9,1.3-4.2,0,0,0,.3-8.8,0-11.5-.3-2.7-.5-10.4-.5-10.4l6.2.7Z"/>
            <path class="cls-22" d="M402.4,650.8c-.2,5-2.1,16.6-1.8,21.3,0,0-1.6,1.3-3.9,0,0,0,.3-8.8,0-11.5-.3-2.7-.5-10.4-.5-10.4l6.2.7Z"/>
            <path class="cls-14" d="M406.4,614s3.5,1.7,4.7,4.1c1.2,2.4,1,8,.2,16.4-1,10,.7,11.5.5,22.4,0,0-11.5,3.5-17-2.6,0,0,1.1-9,1.1-14.3,0-5.3-1.7-24.8,3.3-27.4,4.4-2.3,7.3,1.4,7.3,1.4Z"/>
            <path class="cls-16" d="M408.6,615.4s-.9-2.8-4.3-4.1c-3.4-1.3-3.4,1-3.4,1,0,0,5.7,1.9,7.7,3.1Z"/>
            <path class="cls-14" d="M411.8,621.3s.1,4,.4,7.2c0,0,.5,2.4,1.9,3.4,1.3,1,3.8,2.1,3.8,2.1,0,0,2,1.8,0,3.6,0,0-7.2-1.6-9.3-3-1.7-1.2-2.2-3.4-2.2-3.4"/>
            <path class="cls-44" d="M411,641.8c-5.1-4.1-4.5-10.5-4.5-10.5,0,0,.5,2.2,2.2,3.4.5.4,1.4.7,2.5,1.1-.2,2.4-.2,4.3-.2,6Z"/>
          </g>
          <g>
            <g>
              <g>
                <line class="cls-3" x1="447.5" y1="668.6" x2="447.5" y2="644.5"/>
                <path class="cls-49" d="M447.5,669.7c.6,0,1.1-.5,1.1-1.1v-16.7c0-.6-.5-1.1-1.1-1.1s-1.1.5-1.1,1.1v16.7c0,.6.5,1.1,1.1,1.1Z"/>
              </g>
              <g>
                <line class="cls-3" x1="426.8" y1="680.5" x2="426.8" y2="656.4"/>
                <path class="cls-49" d="M426.8,681.6c.6,0,1.1-.5,1.1-1.1v-16.7c0-.6-.5-1.1-1.1-1.1s-1.1.5-1.1,1.1v16.7c0,.6.5,1.1,1.1,1.1Z"/>
              </g>
              <g>
                <line class="cls-3" x1="406.1" y1="692.4" x2="406.1" y2="668.3"/>
                <path class="cls-49" d="M406.1,693.5c.6,0,1.1-.5,1.1-1.1v-16.7c0-.6-.5-1.1-1.1-1.1s-1.1.5-1.1,1.1v16.7c0,.6.5,1.1,1.1,1.1Z"/>
              </g>
            </g>
            <path class="cls-16" d="M364.3,645c.4-.8,1.4-1.1,2.2-.6l39.7,22.3,40.5-23.4c.8-.4,1.8-.2,2.2.6.4.8.2,1.8-.6,2.2l-41.4,23.9c-.3.1-.5.2-.8.2s-.6,0-.8-.2l-40.4-22.8c-.8-.4-1.1-1.4-.6-2.2Z"/>
          </g>
        </g>
      </g>
      <g class="cls-31">
        <g>
          <path class="cls-44" d="M332.6,167.7h8.9c3.9,0,6.8,1.2,8.8,3.3,2,2.1,3,5.3,3,9.5s-1,7.4-3,9.5c-2,2.1-4.9,3.2-8.8,3.3h-8.9v-25.7ZM335,191.3h5.2c1.8,0,3.4-.2,4.8-.6,1.3-.4,2.4-1,3.3-1.9s1.5-2,1.9-3.3.6-3,.6-4.9-.2-3.6-.6-4.9-1-2.5-1.9-3.3c-.9-.9-2-1.5-3.3-1.9-1.3-.4-2.9-.6-4.8-.6h-5.2v21.5Z"/>
          <path class="cls-44" d="M366.6,167.7h2.7l10.1,25.7h-2.6l-3.1-8h-11.7l-3.1,8h-2.6l10.4-25.7ZM362.7,183.3h10.1l-5-13.2-5.1,13.2Z"/>
          <path class="cls-44" d="M378.3,167.7h20.4v2.1h-9v23.6h-2.4v-23.6h-9v-2.1Z"/>
          <path class="cls-44" d="M408,167.7h2.7l10.1,25.7h-2.6l-3.1-8h-11.7l-3.1,8h-2.6l10.4-25.7ZM404.1,183.3h10.1l-5-13.2-5.1,13.2Z"/>
          <path class="cls-44" d="M424.9,167.7h10.9c1.1,0,2.1.1,3.1.3,1,.2,1.9.6,2.6,1,.8.5,1.4,1.1,1.8,1.9.5.8.7,1.8.7,3s-.1,1.3-.3,2c-.2.6-.5,1.2-.9,1.7-.4.5-.9,1-1.4,1.3-.5.4-1.1.6-1.8.8h0c1.7.3,3,1,4,2.1,1,1.1,1.5,2.5,1.5,4.2s0,1.4-.3,2.2c-.2.8-.6,1.6-1.2,2.4-.6.8-1.5,1.4-2.8,1.9-1.2.5-2.9.8-5,.8h-10.9v-25.7ZM427.4,178.9h8.4c1,0,1.8-.1,2.6-.3.7-.2,1.3-.5,1.8-.9.5-.4.8-.9,1.1-1.4.2-.5.4-1.1.4-1.7,0-3.2-1.9-4.8-5.8-4.8h-8.4v9.2ZM427.4,191.3h8.4c.9,0,1.8,0,2.6-.2.8-.2,1.5-.4,2.2-.8.6-.4,1.1-1,1.5-1.6.4-.7.5-1.5.5-2.6,0-1.7-.6-2.9-1.8-3.7-1.2-.8-2.8-1.2-5-1.2h-8.4v10.3Z"/>
          <path class="cls-44" d="M458.3,167.7h2.7l10.1,25.7h-2.6l-3.1-8h-11.7l-3.1,8h-2.6l10.4-25.7ZM454.4,183.3h10.1l-5-13.2-5.1,13.2Z"/>
          <path class="cls-44" d="M476.4,184.9c0,1.3.2,2.4.6,3.3.4.9,1,1.6,1.8,2.1.8.5,1.7.9,2.7,1.1,1,.2,2.1.3,3.3.3s1.4,0,2.2-.3,1.5-.5,2.2-.9,1.3-1,1.7-1.6c.5-.7.7-1.5.7-2.4s-.2-1.3-.5-1.9c-.3-.5-.7-1-1.3-1.3-.5-.4-1.1-.7-1.7-.9-.6-.2-1.2-.4-1.8-.6l-5.7-1.4c-.8-.2-1.5-.4-2.2-.7-.7-.3-1.3-.7-1.8-1.2-.5-.5-1-1.1-1.3-1.8-.3-.7-.5-1.5-.5-2.6s.1-1.4.4-2.2.7-1.6,1.4-2.4,1.6-1.4,2.7-1.9c1.2-.5,2.6-.8,4.4-.8s2.5.2,3.6.5c1.2.3,2.2.8,3,1.5.9.7,1.6,1.5,2.1,2.5.5,1,.8,2.2.8,3.5h-2.4c0-1-.3-1.8-.6-2.6-.4-.7-.9-1.3-1.5-1.8-.6-.5-1.4-.9-2.2-1.1s-1.7-.4-2.6-.4-1.7,0-2.4.3c-.8.2-1.5.5-2.1.9-.6.4-1.1.9-1.4,1.6-.4.6-.5,1.5-.5,2.4s.1,1.1.3,1.6c.2.4.5.8.8,1.1.4.3.8.6,1.2.8.5.2,1,.4,1.5.5l6.3,1.5c.9.2,1.8.5,2.6.9.8.3,1.5.8,2.1,1.3.6.5,1.1,1.1,1.4,1.9.3.7.5,1.6.5,2.7s0,.7,0,1.2c0,.5-.2,1-.4,1.5-.2.5-.6,1.1-1,1.6-.4.6-1,1.1-1.7,1.5-.7.5-1.6.8-2.7,1.1-1.1.3-2.4.4-3.9.4s-2.9-.2-4.2-.5-2.4-.9-3.3-1.6c-.9-.7-1.6-1.7-2.1-2.8s-.7-2.5-.6-4h2.4Z"/>
          <path class="cls-44" d="M499.7,167.7h17.7v2.1h-15.3v9.3h14.3v2.1h-14.3v10.2h15.5v2.1h-17.9v-25.7Z"/>
          <path class="cls-44" d="M533.3,180.5c0-1.8.3-3.4.8-5.1s1.3-3,2.3-4.3c1-1.2,2.3-2.2,3.8-3,1.5-.7,3.3-1.1,5.3-1.1s3.8.4,5.3,1.1c1.5.7,2.8,1.7,3.8,3,1,1.2,1.8,2.7,2.3,4.3s.8,3.3.8,5.1-.3,3.4-.8,5.1-1.3,3-2.3,4.3c-1,1.2-2.3,2.2-3.8,3-1.5.7-3.3,1.1-5.3,1.1s-3.8-.4-5.3-1.1c-1.5-.7-2.8-1.7-3.8-3s-1.8-2.7-2.3-4.3-.8-3.3-.8-5.1ZM535.7,180.5c0,1.4.2,2.8.6,4.1s.9,2.5,1.7,3.6c.8,1.1,1.8,1.9,3,2.6,1.2.6,2.7,1,4.4,1s3.1-.3,4.4-1c1.2-.6,2.2-1.5,3-2.6.8-1.1,1.4-2.3,1.7-3.6s.6-2.7.6-4.1-.2-2.8-.6-4.1c-.4-1.4-.9-2.6-1.7-3.6-.8-1.1-1.8-1.9-3-2.6-1.2-.6-2.7-1-4.4-1s-3.2.3-4.4,1c-1.2.6-2.2,1.5-3,2.6-.8,1.1-1.4,2.3-1.7,3.6-.4,1.4-.6,2.7-.6,4.1Z"/>
          <path class="cls-44" d="M563.1,167.7h16.3v2.1h-13.9v9.3h12.3v2.1h-12.3v12.2h-2.4v-25.7Z"/>
          <path class="cls-44" d="M596.2,167.7h2.4v25.7h-2.4v-25.7Z"/>
          <path class="cls-44" d="M605.8,167.7h2.7l15,21.7h0v-21.7h2.4v25.7h-2.7l-15-21.7h0v21.7h-2.4v-25.7Z"/>
          <path class="cls-44" d="M633,167.7h16.3v2.1h-13.9v9.3h12.3v2.1h-12.3v12.2h-2.4v-25.7Z"/>
          <path class="cls-44" d="M652.8,180.5c0-1.8.3-3.4.8-5.1s1.3-3,2.3-4.3c1-1.2,2.3-2.2,3.8-3,1.5-.7,3.3-1.1,5.3-1.1s3.8.4,5.3,1.1c1.5.7,2.8,1.7,3.8,3,1,1.2,1.8,2.7,2.3,4.3s.8,3.3.8,5.1-.3,3.4-.8,5.1-1.3,3-2.3,4.3-2.3,2.2-3.8,3c-1.5.7-3.3,1.1-5.3,1.1s-3.8-.4-5.3-1.1c-1.5-.7-2.8-1.7-3.8-3-1-1.2-1.8-2.7-2.3-4.3s-.8-3.3-.8-5.1ZM655.2,180.5c0,1.4.2,2.8.6,4.1.4,1.3.9,2.5,1.7,3.6.8,1.1,1.8,1.9,3,2.6,1.2.6,2.7,1,4.4,1s3.1-.3,4.4-1c1.2-.6,2.2-1.5,3-2.6.8-1.1,1.4-2.3,1.7-3.6s.6-2.7.6-4.1-.2-2.8-.6-4.1c-.4-1.4-.9-2.6-1.7-3.6-.8-1.1-1.8-1.9-3-2.6-1.2-.6-2.7-1-4.4-1s-3.2.3-4.4,1c-1.2.6-2.2,1.5-3,2.6-.8,1.1-1.4,2.3-1.7,3.6-.4,1.4-.6,2.7-.6,4.1Z"/>
          <path class="cls-44" d="M704.6,193.4h-1.8l-.3-4.7h0c-.4.9-1,1.7-1.6,2.4-.6.7-1.3,1.2-2.1,1.6-.8.4-1.6.7-2.5.9-.9.2-1.8.3-2.7.3-2,0-3.8-.4-5.3-1.1-1.5-.7-2.8-1.7-3.8-3s-1.8-2.7-2.3-4.3-.8-3.3-.8-5.1.3-3.4.8-5.1,1.3-3,2.3-4.3c1-1.2,2.3-2.2,3.8-3,1.5-.7,3.3-1.1,5.3-1.1s2.6.2,3.8.5c1.2.4,2.3.9,3.2,1.6.9.7,1.7,1.6,2.4,2.7.6,1.1,1.1,2.3,1.3,3.7h-2.4c0-.7-.3-1.5-.7-2.2-.4-.8-1-1.4-1.7-2.1-.7-.6-1.6-1.1-2.5-1.5-1-.4-2.1-.6-3.3-.6s-3.2.3-4.4,1c-1.2.6-2.2,1.5-3,2.6-.8,1.1-1.4,2.3-1.7,3.6-.4,1.4-.6,2.7-.6,4.1s.2,2.8.6,4.1c.4,1.3.9,2.5,1.7,3.6.8,1.1,1.8,1.9,3,2.6,1.2.6,2.7,1,4.4,1s2.7-.2,3.8-.7c1.1-.5,2.1-1.1,2.8-2s1.3-1.8,1.7-3c.4-1.2.6-2.4.5-3.8h-8.7v-2.1h10.9v13.1Z"/>
          <path class="cls-44" d="M711.1,167.7h11.8c1.1,0,2.1.1,3,.4.9.3,1.8.7,2.5,1.2.7.5,1.3,1.2,1.7,2.1.4.9.6,1.9.6,3,0,1.6-.4,3-1.3,4.2-.8,1.2-2.1,2-3.7,2.3h0c.8.2,1.5.4,2.1.7.6.3,1,.7,1.4,1.2.3.5.6,1.1.8,1.7.2.7.3,1.4.3,2.1,0,.4,0,1,0,1.6,0,.6,0,1.3.1,1.9,0,.6.2,1.2.3,1.8.2.6.4,1,.6,1.3h-2.7c-.1-.2-.3-.5-.3-.9,0-.3-.2-.7-.2-1.1,0-.4,0-.7,0-1.1,0-.4,0-.7,0-.9,0-.9-.1-1.8-.2-2.7-.1-.9-.3-1.7-.7-2.4-.3-.7-.9-1.3-1.5-1.7-.7-.4-1.6-.6-2.7-.6h-9.3v11.4h-2.4v-25.7ZM713.5,179.9h9.1c.7,0,1.5-.1,2.1-.3.7-.2,1.3-.6,1.8-1,.5-.4.9-1,1.2-1.6.3-.6.4-1.3.4-2.1,0-1.6-.5-2.8-1.4-3.7s-2.3-1.4-4.2-1.4h-9.1v10.1Z"/>
          <path class="cls-44" d="M744.4,167.7h2.7l10.1,25.7h-2.6l-3.1-8h-11.7l-3.1,8h-2.6l10.4-25.7ZM740.5,183.3h10.1l-5-13.2-5.1,13.2Z"/>
          <path class="cls-44" d="M761.4,167.7h11.4c1.2,0,2.2.2,3.1.5.9.3,1.7.8,2.4,1.4.7.6,1.2,1.4,1.5,2.3s.5,1.9.5,3.1-.2,2.2-.5,3.1c-.4.9-.9,1.7-1.5,2.3-.7.6-1.5,1.1-2.4,1.4-.9.3-2,.5-3.1.5h-9v11h-2.4v-25.7ZM763.8,180.3h8.4c1.7,0,3.1-.4,4.1-1.3,1.1-.9,1.6-2.2,1.6-4s-.5-3.1-1.6-4c-1.1-.9-2.4-1.3-4.1-1.3h-8.4v10.5Z"/>
          <path class="cls-44" d="M785.8,167.7h2.4v11.2h15.3v-11.2h2.4v25.7h-2.4v-12.5h-15.3v12.5h-2.4v-25.7Z"/>
          <path class="cls-44" d="M813.2,167.7h2.4v25.7h-2.4v-25.7Z"/>
          <path class="cls-44" d="M841.6,175.4c-.2-1-.6-1.9-1.1-2.6-.5-.8-1.1-1.4-1.8-2-.7-.5-1.5-.9-2.3-1.2-.9-.3-1.7-.4-2.7-.4-1.7,0-3.2.3-4.4,1-1.2.6-2.2,1.5-3,2.6-.8,1.1-1.4,2.3-1.7,3.6-.4,1.4-.6,2.7-.6,4.1s.2,2.8.6,4.1.9,2.5,1.7,3.6c.8,1.1,1.8,1.9,3,2.6,1.2.6,2.7,1,4.4,1s2.2-.2,3.2-.6c1-.4,1.8-1,2.5-1.8.7-.7,1.3-1.6,1.7-2.6.4-1,.7-2.1.8-3.2h2.4c-.2,1.6-.5,3-1.1,4.3-.6,1.3-1.3,2.4-2.2,3.3-.9.9-2,1.6-3.2,2.1-1.2.5-2.6.7-4.1.7s-3.8-.4-5.3-1.1c-1.5-.7-2.8-1.7-3.8-3-1-1.2-1.8-2.7-2.3-4.3s-.8-3.3-.8-5.1.3-3.4.8-5.1,1.3-3,2.3-4.3c1-1.2,2.3-2.2,3.8-3,1.5-.7,3.3-1.1,5.3-1.1s2.4.2,3.6.5c1.2.4,2.2.9,3.2,1.6.9.7,1.7,1.6,2.4,2.6.6,1,1,2.2,1.2,3.6h-2.4Z"/>
          <path class="cls-44" d="M851.1,184.9c0,1.3.2,2.4.6,3.3.4.9,1,1.6,1.8,2.1.8.5,1.6.9,2.7,1.1,1,.2,2.1.3,3.3.3s1.4,0,2.2-.3c.8-.2,1.5-.5,2.2-.9s1.3-1,1.7-1.6c.5-.7.7-1.5.7-2.4s-.2-1.3-.5-1.9c-.3-.5-.7-1-1.3-1.3-.5-.4-1.1-.7-1.7-.9-.6-.2-1.2-.4-1.8-.6l-5.7-1.4c-.8-.2-1.5-.4-2.2-.7-.7-.3-1.3-.7-1.8-1.2-.5-.5-1-1.1-1.3-1.8s-.5-1.5-.5-2.6.1-1.4.4-2.2c.2-.8.7-1.6,1.4-2.4.7-.7,1.6-1.4,2.7-1.9,1.2-.5,2.6-.8,4.4-.8s2.5.2,3.6.5c1.2.3,2.2.8,3,1.5.9.7,1.6,1.5,2.1,2.5.5,1,.8,2.2.8,3.5h-2.4c0-1-.3-1.8-.6-2.6-.4-.7-.9-1.3-1.5-1.8-.6-.5-1.4-.9-2.2-1.1-.8-.3-1.7-.4-2.6-.4s-1.7,0-2.4.3c-.8.2-1.5.5-2.1.9-.6.4-1.1.9-1.4,1.6-.4.6-.5,1.5-.5,2.4s.1,1.1.3,1.6c.2.4.5.8.8,1.1.4.3.8.6,1.2.8.5.2,1,.4,1.5.5l6.3,1.5c.9.2,1.8.5,2.6.9.8.3,1.5.8,2.1,1.3.6.5,1.1,1.1,1.4,1.9s.5,1.6.5,2.7,0,.7,0,1.2c0,.5-.2,1-.4,1.5-.2.5-.6,1.1-1,1.6-.4.6-1,1.1-1.7,1.5-.7.5-1.6.8-2.7,1.1s-2.4.4-3.9.4-2.9-.2-4.2-.5-2.4-.9-3.3-1.6c-.9-.7-1.6-1.7-2.1-2.8-.5-1.1-.7-2.5-.6-4h2.4Z"/>
        </g>
        <g>
          <path class="cls-14" d="M373.1,231.1v11.5h-24.4c-.4,20.9-8.4,29.2-28.4,35.4-.9-4.1-2.5-7.9-6.7-11.8,21.5-2.6,21.9-15.7,22-23.5h-25.6v-11.5h63ZM366,225.9c-1.4-1.9-2.9-3.7-4.4-5.4v5.8h-41.5v-11.6h40.5l2.1-1.8c3,2.5,5.7,5.5,8.2,8.7l-4.8,4.3ZM368.5,207.7c3,2.3,5.9,5.4,8.6,8.4l-5,4.5c-2.6-3-5.2-5.8-8.4-8.8l4.8-4.1Z"/>
          <path class="cls-14" d="M444.7,237.8v11.3h-56.8v-11.3h56.8Z"/>
          <path class="cls-14" d="M496.4,215.5c-.8,1.6-1.7,3.2-2.6,5h16l1-.5,7.7,8.6c-.9,1.2-1.4,2.4-1.7,3.5-10.3,27.7-26.8,39.1-48.9,44.6-1.2-4-2.6-7.2-6.3-11.1,7.6-1.9,17.1-4.3,26.1-11.5-2.7-2.7-2.8-2.7-10.4-8.7l7.1-7.5c5,2.8,5.5,3.2,11.2,7.6,3.6-4.5,5.7-8.9,7.5-13.5h-16.3c-9.4,12.6-17.5,17.4-22.2,20.2-1.5-3.2-3.5-7.1-7.1-10.1,13.9-7.3,21-18.9,26.7-30l12,3.6Z"/>
          <path class="cls-14" d="M531.2,246.9c6.3-6.5,9.6-10.3,12.4-13.5,9.6-11.4,10.4-12.2,14.5-12.2s5.8,2.3,9.5,6.5c6.8,7.7,23.7,25.9,29.5,32l-9.7,9.1c-6-6.8-8.8-10-11.1-12.8-2.2-2.6-12.6-15.6-15-18.5-1.8-2.2-2.4-2.8-3.6-2.8s-1.2.4-2.1,1.4c-1.1,1.4-2.2,3-3.8,5.2-2.8,3.6-6.8,8.9-11.3,14.3l-9.2-8.6ZM575.9,221.1c2.9,2.2,5.8,5,8.6,8l-4.5,4.5c-2.7-2.8-5.4-5.5-8.4-8.2l4.4-4.3ZM582.1,215c3,2.2,5.9,4.8,8.6,7.7l-4.8,5c-2.6-2.8-5.5-5.5-8.5-8.1l4.8-4.6Z"/>
          <path class="cls-14" d="M666.5,237.8v11.3h-56.8v-11.3h56.8Z"/>
          <path class="cls-14" d="M726.3,217l7.7,8.3c-1,1.4-1.5,2.5-2,3.5-4.6,9-7.2,12.8-9.3,15.8,12,9.7,17.3,17.6,20.8,22.7l-10.1,7.8c-3.3-5-5.7-8.1-8.5-11.6-1.9-2.6-3.8-4.9-9.4-10-11.6,11.9-19.9,16.3-29.2,20.2-1.1-3.1-2.7-6.9-7.2-10.5,21.6-8.3,31.5-21.1,38.3-33.7h-29v-11.8h36.6l1.3-.6Z"/>
          <path class="cls-14" d="M783.2,212.1c-.4,5.1-.4,8.5-.4,12.4s.3,7.1,1.1,10.8c4.5-1.6,7.3-2.3,10-2.9,3.1-.8,6.1-1.4,11.4-2.7l3.5,11.7c-12.9,2.1-20.6,3.3-31.1,8.1-3.2,1.4-9.3,4.3-9.3,8.4s10,6.3,17.5,6.3,14.9-.6,22-1.6l.4,12.2c-7.2.6-12,.9-17.2.9-12.7,0-21.9-.9-28.1-5.2-4.9-3.5-6.3-8.3-6.3-11.5,0-10.9,11.3-16.7,16.9-19.6-1.9-5-2.2-7.8-2.3-14.8,0-2.6,0-6.1,0-12.5h12Z"/>
          <path class="cls-14" d="M842.9,218.6c-4,12-5,23.8-5,32.6s1,15,2.7,22.3l-11.8,2.2c-1.2-6.6-2.4-13.6-2.4-25.2s2.6-26.8,4.5-35.9l12,4ZM876.5,214.1c-.5,4.1-.5,7.8-.5,10.9,2.9-.4,6.3-1.2,9.2-2v11.5c-2.6.5-5.8,1.1-9.1,1.6.2,4.8.3,7.2.4,9.6.2,2.2.4,4.5.6,8.6,5.2,2.7,8.4,4.6,13.1,7.9l-7.6,9.4c-1-.8-5.2-4.5-6-5.3-.6,3.6-2.3,6.3-7.4,7.6-2.5.8-5.2,1.1-7.8,1.1-6.6,0-17-3.4-17-12.2s3.7-12.4,16.9-12.4,2.3,0,4,.2c0-2.1-.7-11.7-.8-13.7-3.6.1-5.9.2-8,.2-3.2,0-6.5-.1-11.2-.4l.3-11.5c4.6.7,9.6,1.1,14.2,1.1s2.8,0,4.2-.1v-12.3h12.4ZM865.7,260.8c-2.2-.7-5.3-.7-6-.7-3,0-5,1-5,2.3,0,3,5.5,3,7,3s4.2-.5,4.1-4.5Z"/>
        </g>
      </g>
    </g>
  </g>
</svg>