<?xml version="1.0" encoding="UTF-8"?>
<svg xmlns="http://www.w3.org/2000/svg" version="1.1" xmlns:xlink="http://www.w3.org/1999/xlink" viewBox="0 0 900 750">
  <defs>
    <style>
      .cls-1, .cls-2, .cls-3, .cls-4, .cls-5, .cls-6, .cls-7, .cls-8, .cls-9, .cls-10, .cls-11, .cls-12, .cls-13, .cls-14, .cls-15, .cls-16, .cls-17, .cls-18 {
        stroke: #1d1d1b;
        stroke-miterlimit: 10;
      }

      .cls-1, .cls-19 {
        fill: #c6c6c5;
      }

      .cls-20 {
        opacity: .2;
      }

      .cls-20, .cls-21, .cls-22, .cls-13 {
        fill: #fff;
      }

      .cls-2, .cls-23 {
        fill: #1d1d1b;
      }

      .cls-24 {
        fill: #29abe2;
      }

      .cls-3 {
        fill: #f5f5f5;
      }

      .cls-4 {
        fill: #d9d9d9;
      }

      .cls-5, .cls-8, .cls-9, .cls-14 {
        stroke-width: 2px;
      }

      .cls-5, .cls-10 {
        fill: #3c3c3b;
      }

      .cls-25, .cls-6, .cls-7, .cls-8 {
        fill: none;
      }

      .cls-22 {
        font-family: AvenirLTStd-Book, 'Avenir LT Std';
        font-size: 36px;
      }

      .cls-26 {
        clip-path: url(#clippath-1);
      }

      .cls-7 {
        stroke-linecap: round;
      }

      .cls-9, .cls-17 {
        fill: #ececec;
      }

      .cls-27, .cls-11 {
        fill: #9c9b9b;
      }

      .cls-12 {
        fill: #6f6f6e;
      }

      .cls-28 {
        fill: #333;
      }

      .cls-29 {
        fill: #ffe58c;
      }

      .cls-30 {
        fill: #1d70b7;
      }

      .cls-31 {
        letter-spacing: 0em;
      }

      .cls-14, .cls-32 {
        fill: #252626;
      }

      .cls-15 {
        fill: #575756;
      }

      .cls-16 {
        fill: #868686;
      }

      .cls-33 {
        clip-path: url(#clippath);
      }

      .cls-34 {
        fill: #fff4c3;
      }

      .cls-35 {
        letter-spacing: 0em;
      }

      .cls-18 {
        fill: #b1b1b1;
      }
    </style>
    <clipPath id="clippath">
      <path class="cls-6" d="M245.8,478.5c3.2,2.8,5.9,4.1,7.3,7,1.4,2.9,3.7,10.6,3.3,12.7-.4,2-2.4,3.6-4.9,3.6s-8.1-7.6-9.5-12.2-2.7-15.2-1.4-15.7,2.1,1.8,5.2,4.6Z"/>
    </clipPath>
    <clipPath id="clippath-1">
      <path class="cls-25" d="M626,320.4c12-1.8,31.4,6.2,32.8,10.5s.9,9-3.9,11.8-16.3,5.7-21.1,5.1-6.4.8-8,2.2-6.7,10.5-10.2,10.5-7.9-4.4-8.7-6,.5-3,1.5-3.7,8.1-5.6,8.1-7.2-2.5-3.4-2.5-8.4,6.3-14,12.1-14.8Z"/>
    </clipPath>
  </defs>
  <!-- Generator: Adobe Illustrator 28.7.4, SVG Export Plug-In . SVG Version: 1.2.0 Build 166)  -->
  <g>
    <g id="Layer_1">
      <rect class="cls-24" width="900" height="750"/>
      <text class="cls-22" transform="translate(159.5 187.3)"><tspan class="cls-31"><tspan x="0" y="0">Ford</tspan></tspan><tspan class="cls-35"><tspan x="0" y="48">New Focus</tspan></tspan></text>
      <g>
        <path class="cls-23" d="M250.5,515.3s-15.4,26.7,8,33.1c23.4,6.4,30.9,0,75.2,7.8,44.4,7.8,46.9,17.3,93.5,21,46.6,3.7,95.5,5.1,154.5-14.3,58.3-19.2,48.9-55.9,109.7-99.7,60.7-43.8,64.6-55.7,42.3-61.4-22.3-5.8-182.4-64.1-301.7-32-119.3,32-171.8,125.2-181.5,145.7Z"/>
        <g>
          <path class="cls-32" d="M730.8,358.7l-31.4,57.4-10.7-29.6,12.2-48.4,24.1-17.9s9.1,6.7,5.8,38.5Z"/>
          <polygon class="cls-32" points="605.4 491.9 539.9 534.9 545.2 430.7 597 409.6 612.4 450.3 605.4 491.9"/>
          <g>
            <path class="cls-14" d="M711.2,430.7c-14.3,4.6-32.8,1.5-37.6-31.4-4.8-32.9,13-68.2,40.7-63.6,27.6,4.6-3,95-3,95Z"/>
            <ellipse class="cls-5" cx="716.3" cy="384.4" rx="46.6" ry="11.9" transform="translate(254.8 1053.6) rotate(-83.6)"/>
            <ellipse class="cls-13" cx="717.1" cy="386.4" rx="31.7" ry="8.1" transform="translate(253.5 1056.3) rotate(-83.6)"/>
            <ellipse class="cls-18" cx="717.1" cy="387.3" rx="29.5" ry="6.8" transform="translate(252.6 1057) rotate(-83.6)"/>
            <path class="cls-4" d="M720.4,357.9c-.8,0-1.7.5-2.6,1.6.2,0,.5-.1.7,0,3.6.4,5,13.2,3.3,28.6-1.7,15.4-6,27.6-9.5,27.2-.1,0-.2,0-.3,0,.5.9,1.2,1.4,1.8,1.5,3.7.4,8.2-12.4,10.1-28.6,1.8-16.2.2-29.7-3.5-30.1Z"/>
            <ellipse class="cls-4" cx="717.1" cy="387.3" rx="21.8" ry="5" transform="translate(252.6 1057) rotate(-83.6)"/>
            <ellipse class="cls-11" cx="717.1" cy="386.4" rx="7.4" ry="1.9" transform="translate(253.5 1056.3) rotate(-83.6)"/>
            <ellipse class="cls-13" cx="716.5" cy="386.4" rx="4.8" ry="1.2" transform="translate(253 1055.5) rotate(-83.6)"/>
          </g>
          <g>
            <path class="cls-9" d="M355,306.7c0-5.1-1.5-6.7-3.4-7.6s-13.3.2-16.3,2.2-3.8,9.7-2.1,14.4c1.8,4.7,5.1,7.6,7.9,7.6s13.8-12.8,13.8-16.6Z"/>
            <path class="cls-13" d="M332.3,308.2c0,2.7,8,5.9,8.7,8.3s-.3,3.2-1.9,2.9-8.5-5.6-6.7-11.2Z"/>
            <path class="cls-19" d="M355,306.7c0-1.3-.1-2.4-.3-3.3,0,0-2.9-.8-4.6,0-3.2,1.3-8.3,9.5-6.9,18.9,4.2-3.1,11.8-12.5,11.8-15.6Z"/>
            <path class="cls-8" d="M355,306.7c0-5.1-1.5-6.7-3.4-7.6s-13.3.2-16.3,2.2-3.8,9.7-2.1,14.4c1.8,4.7,5.1,7.6,7.9,7.6s13.8-12.8,13.8-16.6Z"/>
          </g>
          <g>
            <path class="cls-14" d="M601,506.4c-9.4,30.5-30.3,44.3-46.6,45.2-36.5,2-58.6-18.5-51.8-49.7,11.2-51.2,59.9-67.8,79.7-61.7,19.8,6.1,28.1,35.8,18.7,66.2Z"/>
            <ellipse class="cls-5" cx="565.2" cy="495.3" rx="57.7" ry="37.4" transform="translate(-75.1 888.8) rotate(-72.8)"/>
            <ellipse class="cls-4" cx="565.3" cy="495.7" rx="36.4" ry="23.6" transform="translate(-75.4 889.2) rotate(-72.8)"/>
            <ellipse class="cls-15" cx="564.5" cy="495.5" rx="33.7" ry="21.8" transform="translate(-75.7 888.3) rotate(-72.8)"/>
            <path class="cls-1" d="M574.3,459.4s-1.6,12.1-9.4,17.2c0,0-.7-10.4-3.6-13.4-2.9-3-4.4-1.9-2.4,1.5,2,3.4,2.1,14.6,1.4,16.2-.7,1.6-1.7,3.7-3.3,3.7-1.6,0-7-2.8-7-2.8,0,0-2.8.6-.8,2.6,2,2,5.7,4,5.4,7.1-.3,3.1-2.4,7.9-8.1,7.6-5.7-.3,4.4,1.7,5.2,2.6.8,1,1.3,4.2,1,5.2s-7.3,12.8-9.5,12.4c-2.3-.4,2.7,4.6,2.7,4.6,0,0,10.6-12.9,11.8-13.5s2.9,4.9,2.7,7.6c-.2,2.7-3.7,12.2-4.8,12.6s2.5,1.4,2.5,1.4l4.5-11.3s0-7.5,2-8,6.1,9.8,5.4,15c-.8,5.2,2.5-3.9,2.5-3.9l-1-9.3-2.6-6.9s-.8-1.3,1.6-1.5c2.3-.2,12,5.2,11.6,8.9-.4,3.7,2.9-4.4,2.9-4.4l-13.7-15,20.4-6.9s-.8-9-1.8-6.2c-.9,2.9-8,7.8-14.5,7.1-6.5-.7,2.4-6.8,2.4-6.8l8.4-11.4s.8-1.6-.8-3c0,0-8,11.2-12,10l2.7-18.8-1.9-.3Z"/>
            <path class="cls-13" d="M577.8,455.3c-14.5-4.5-31.8,10-38.7,32.3-6.9,22.3-.8,44.1,13.7,48.5,14.5,4.5,31.8-10,38.7-32.3,6.9-22.3.8-44.1-13.7-48.5ZM587.9,502.7c-5.9,19.2-20.8,31.6-33.3,27.8-12.4-3.9-17.7-22.5-11.8-41.7,5.9-19.2,20.8-31.6,33.3-27.8,12.4,3.9,17.7,22.5,11.8,41.7Z"/>
            <path class="cls-13" d="M561.9,462.9c3.4,4.1,3.7,14.4,3.7,16.7s1.8,2.6,3.9.7c2.1-1.9,4.8-9,5.5-19.5,0,0,.9-1.1,1.5.5.7,1.5-1.6,15.4-3.8,18.6-2.3,3.2,1.4,3.3,3.3,2.2s9.3-9,10.2-12.1c0,0,.9.4.8,1.6s-5.4,10.1-9.6,13.7c-4.2,3.7-2,5.5.6,5.7s8.6-.4,12.1-2.9c0,0,1.1,1.8-.1,2.4-10.4,5.3-14.5,4-15.3,6.8-.6,2.1,10.4,10.4,10.3,12.4s-.3,3.5-.9,1.9c-.6-1.6-10.7-7.8-13.7-5.2-3,2.6,5,7,2.6,19.3,0,0-2.8,4.2-2.4,1.7s.6-6.6-.5-11.2c-1.1-4.6-2.1-6.7-4.1-6.4-2,.3-1.6,6.2-1.7,8-.2,1.8-4,13.3-5.2,13.5s-1.5.6-1.8,0,3.9-7.5,4.3-12.3c.5-4.8.8-7.7-1.4-9.2-2.2-1.5-2.6,1.1-3.3,3.1s-10.6,10-11,11.8c-.3,1.7-1.8-.9-1.3-1.9s7.2-7.1,9.8-10.3c2.6-3.2,4.2-6.2,3.1-9.5s-2.2-2.3-4.1-1.4c-1.8.9-6.1,1.2-7.7.7-1.6-.5-1.3-2.7.5-2.1,1.8.6,4.8.7,7.8-2.3,3-3,4.5-6.6,3.7-8.2s-4-5.4-6.9-7c-2.9-1.6-1.5-2.3.5-1.7s7.3,4.6,8.4,5.9c1.1,1.2,4.1-1.1,4.2-3.4,0-2.3.5-9.3-.7-13.7-1.2-4.4-1.7-4.8-2.7-5.8-1-1,1.3-.8,1.3-.8Z"/>
            <ellipse class="cls-11" cx="565.3" cy="495.7" rx="4.9" ry="3.2" transform="translate(-75.4 889.2) rotate(-72.8)"/>
            <path class="cls-13" d="M567.5,495.8c.5-1.8.4-3.5-.3-4.6-.1,0-.3-.2-.4-.2-1.7-.5-3.7,1.2-4.5,3.8-.5,1.8-.4,3.5.3,4.6.1,0,.3.2.4.2,1.7.5,3.7-1.2,4.5-3.8Z"/>
          </g>
          <path class="cls-9" d="M471.5,231.6c-15.2,1.9-44.8,15.2-61,25.6-16.3,10.4-63,56.4-70.1,65s-22.8,16.4-28.4,22.7c-5.6,6.3-43.3,18.3-63.5,45.7l-8.1,26.7s-2.7,3.8-2.7,9.7v31.9c0,5.5,1.4,9.4,1.4,11.3s-.1,19.9,2.7,31.6c2.8,11.7,16.1,23.6,24.5,23.9,8.4.3,11.4-.7,22,2.9,10.6,3.6,63.2,13.1,84,15.2,20.8,2,48.2,5.1,50,6.3,1.9,1.2,4.2,2.6,12.1,2.7s37.6-1.2,61.3-6.3c23.7-5.1,31-4.7,32.9-4.7s4.4.3,6.8-2,4.5-2.8,5.7-8.2c1.2-5.4,9-52,23.5-84.3,14.6-32.3,34.2-34,37.4-3.4,3.2,30.6,1.1,49.4,3.3,48.1s47.6-37.6,58.9-48.9c11.3-11.3,33.9-23,35.2-26.9,1.3-3.9,3-33.4,13.5-61.8,10.4-28.4,20.7-27.8,17.9,4.4,0,0,3-20.2,1.5-35.2-1.5-15,.4-36.3-7.4-49.3s-7.1-6.7-19.8-8.5c0,0-13-12.1-25.6-18.3-12.6-6.2-50.3-16.1-112.7-18.1-62.5-2-80.2.4-95.4,2.4Z"/>
          <path class="cls-19" d="M671.2,430.1c-7.8,7.5-59.5,59.1-62.8,50.9,0,0-.3,4-2.1,8.6,7-5.2,47.4-37.6,58-48.2,6.2-6.2,15.7-12.5,23.3-17.6-2-2.6,6.4-11,8.7-13.5,0,0-17.3,12.3-25.1,19.8Z"/>
          <path class="cls-19" d="M673,409.1c-11.8,12.5-2.3,14.3,8.1,9.2,0,0-41.8,33.6-72,60,0,0,14.1-11.9,5.5-18,0,0,28-24.1,35.6-30.9,7.6-6.8,22.8-20.4,22.8-20.4Z"/>
          <path class="cls-21" d="M697.5,287.9c-8.4,8.5-17.4,16.4-26.7,23.8-9.4,7.2-19,14.8-30.2,19.3,0,0,1.9-1.1,1.9-1.1,7-4.1,13.6-9.3,20-14.2,11-8.5,24-19.3,35-27.8h0Z"/>
          <path class="cls-19" d="M695.3,381.4c-1.2,5.2-16.3,19.1-27.1,28.4-10.9,9.2-43.6,36.9-43.6,36.9,0,0,30.8-30.1,43.6-40.8,12.7-10.8,25.8-26.8,27.2-24.5Z"/>
          <path class="cls-21" d="M621.5,448.7c11.5-12.2,23.4-24,35.7-35.5,10.7-9.9,27-23.1,38.1-32.9-11.5,12.2-24.3,23-36.8,34.3-10.9,10-26.1,24.3-37.1,34h0Z"/>
          <path class="cls-21" d="M564.2,443.1c3.7-10.7,15.4-30.6,29.2-25.4,8.1,3.8,9.9,14.1,10.3,22-1.5-7.3-3.6-17-11-20.3-12.3-4.3-23.5,14.7-28.5,23.7h0Z"/>
          <path class="cls-19" d="M441.3,418.9c-14.4,9.3-38.6,27.1-33.2,30.3,5.4,3.2,5.4.8,7.3-3.6,1.9-4.4,25.9-26.6,25.9-26.6Z"/>
          <path class="cls-19" d="M429.3,445.5s54-13.2,67.2-17.1c0,0-41.8,8.2-51.3,10.6-9.5,2.4-16,6.5-16,6.5Z"/>
          <path class="cls-19" d="M262.8,442s2.9-3.7,12.4-5.7c9.5-2,107,9.4,130.7,15.5,0,0-18.3-6.1-76.5-13-26.1-3.1-54.6-6-55-8.9,0,0-2.7,4.6-4.8,6.1-2.2,1.4-6.8,6.1-6.8,6.1Z"/>
          <path class="cls-21" d="M557,374.8c-28,11.1-55.5,23.9-81,39.9-3.7,2.2-7.2,4.7-10.9,7.1,27-21.6,58.9-36.9,91.9-47h0Z"/>
          <path class="cls-19" d="M549.4,409.6s21.9-7.9,30.9-12.8c9-5,11,.3,7.9,5.7-3.1,5.4-3.1,9.1-1.3,9.7s7.7-2.3,9.6-10.3c1.9-7.9,8.3-13.5,14-15.8s49.5-33.2,59.2-41.1c9.7-8,36.8-27.1,40.6-22.5,3.8,4.6.7,15.4,3.7,14.7s9.8-13.6,14.2-9.7c0,0-2.7-9.1-1.8-16.2s3-11.1,2.7-16.9-1.9-14.5-5.1-14.5-6.4,7.9-10.7,11.2c-4.3,3.4-5.7,11.5-8.3,12.2l20-11.9s-23,20-57.8,44.3c-34.7,24.3-117.9,73.9-117.9,73.9Z"/>
          <path class="cls-19" d="M669.2,408.7c-.9-6.5-.6-13.1-.6-19.7,0-5.6.4-13.9.6-19.6.2-7.8,1.2-17.1.8-24.8,0-.2,0,0,.1,0,0,0,0,0,0,0,0,0,0,0,0,0-.6-.4-.9-1.1-1.1-1.5-1-3.3-.9-6.6-1.4-9.9-.1-.8-.2-1.7-.8-2.3.3.2.6.6.7,1,1.5,3.3,1.6,7.2,3,10.5.1.3.4.6.4.6.2,0,.4.4.5.6.7,2,.6,4.2.7,6.2.4,16.3-.9,32.9-2.4,49.1,0,0-.5,4.9-.5,4.9,0,1.3-.4,3.6-.4,4.9h0Z"/>
          <path class="cls-19" d="M613,457.7c-1.8-5.9-1.4-12.3-1.7-18.5-.6-17.3.5-37-.6-54.3,0-.2,0-.3,0-.4,0,0,0,0,0,0,.1.4.4.7.8.8,0,0,1.9-3.5,1.9-3.5.7.4,1.1,1.1,1.2,1.9.6,6.1-.2,12.3-.4,18.4,0,0-1,18.5-1,18.5-.3,6.2-.7,12.4-.8,18.5,0,6.1-.8,12.5.7,18.5h0Z"/>
          <path class="cls-21" d="M611,457.7c-2.2-5.6-2.1-11.8-2.5-17.7-.3-6-.3-11.9-.3-17.9,0-10.9.7-22.5.6-33.5,0-.7,0-1.5-.4-2.2.3.3.3.7.4,1,1,9.8.3,24.6.4,34.6,0,6,0,11.9,0,17.9.3,5.9,0,12,1.7,17.7h0Z"/>
          <path class="cls-21" d="M725,291.4c-26.2,23.7-54.8,44.9-84.6,63.9-29.8,19-60.1,37.2-91,54.3,7.4-4.8,14.9-9.5,22.3-14.3,51.9-32.9,105.4-65.3,153.3-103.9h0Z"/>
          <g>
            <path class="cls-19" d="M248.3,390.6c-2.4,14.1,10.4,26.4,15.2,31.4,1.4,1.4,1.6,4.1.6,5.7-1.9,3-5,7.1-8,7.2-3.9.1-10.1-7.3-15.9-17.6-3.5-11.9,8.1-26.7,8.1-26.7Z"/>
            <path class="cls-6" d="M248.3,390.6c-2.4,14.1,10.4,26.4,15.2,31.4,1.4,1.4,1.6,4.1.6,5.7-1.9,3-5,7.1-8,7.2-3.9.1-10.1-7.3-15.9-17.6-3.5-11.9,8.1-26.7,8.1-26.7Z"/>
            <path class="cls-27" d="M243.1,408.4s0-9.8,3-8.9.3,5.8,5.4,12.7c0,0-3.7-4.2-4.7-8.2-1-4-3.6,4.4-3.6,4.4Z"/>
            <path class="cls-27" d="M253.7,417.3c1.7,2.9,5.8,3.3,7.5,5.7,1.7,2.4-.5,8.6-4.1,8.8s-11.9-7.6-13.3-12.1c0,0,6.9,9.1,11.3,8.4s4.4-4.5,2.6-5.5-3.9-5.2-3.9-5.2Z"/>
            <path class="cls-21" d="M257.1,416.7c-1.1,4.2-7.4,4.4-9.8.9-1.4-1.8-1.8-4.3-1-6.4.8-2.4,2.6-4,5.2-2.6.1,1.5,0,2.4,0,2.9-.6,1.1-.7,2.3-.2,3.4,1,2,3.3,2.7,5.9,1.8h0Z"/>
            <path class="cls-29" d="M244.5,402.6c-.4,3.1-.8,6-.3,8.7,1.3,7.1,6.4,12.7,10.5,18.5,3.3,4.5,3.5,4.5-1.4,1.4-9.1-6.1-17-18.5-8.8-28.6h0Z"/>
            <path class="cls-21" d="M243.9,403.4c-2.2,10,3.4,19.7,9.9,26.8,1,1,2,2.1,3,3.1-1.1-.9-2.2-1.8-3.3-2.8-2.6-2.6-4.9-5.2-6.8-8.4-3.2-5.6-5.1-12.6-2.7-18.8h0Z"/>
            <path class="cls-21" d="M254.8,414.7c1.5,3.3,4.3,5.2,6.4,8.1.5.7.9,1.7,1,2.6.3,2.8-1.6,5.4-3.9,6.6,7.8-8-1.9-10.2-3.5-17.4h0Z"/>
            <path class="cls-21" d="M246.6,395.1c-1.7,1.2-2.7,4.6-1.5,9.8,0,0,0-5,1.5-9.8Z"/>
          </g>
          <g>
            <path class="cls-19" d="M430.7,447.1s65.3-15.8,82.2-21.4c16.9-5.6,23.3-11.7,27.8-11.3s8.6,3.6,8.7,6.2c.2,2.6-7.2,16.6-17.6,23.7-10.4,7.1-61.2,15.4-72,16.4-10.8,1-13.1-.3-15.8-2-2.7-1.7-13.2-11.6-13.2-11.6Z"/>
            <path class="cls-29" d="M542.7,416.3c4.9,5.1,1.2,26.2-30,33.5-31.2,7.3-56.8,10.3-63,8.8s-15.3-10.8-15.3-10.8c11.8,8.3,28,8.5,57.2,2.5,16.5-3.4,30.9-7.1,37-11.3,15.6-10.8,14.1-22.8,14.1-22.8Z"/>
            <path class="cls-34" d="M454.4,458c-2,0-3.5-.1-4.4-.3-2.6-.6-5.9-2.8-8.7-5,5.1,2,10.9,2.9,17.9,2.9h0c8.4,0,18.8-1.3,32.7-4.2,20.5-4.2,32.1-7.7,37.4-11.4,10.2-7,13.3-14.5,14.2-19.2.2,1.6,0,3.5-.6,5.7-1.1,3.9-6.7,16.9-30.3,22.5-27.1,6.3-48.7,9.2-58.1,9.2Z"/>
            <path class="cls-6" d="M430.7,447.1s65.3-15.8,82.2-21.4c16.9-5.6,23.3-11.7,27.8-11.3s8.6,3.6,8.7,6.2c.2,2.6-7.2,16.6-17.6,23.7-10.4,7.1-61.2,15.4-72,16.4-10.8,1-13.1-.3-15.8-2-2.7-1.7-13.2-11.6-13.2-11.6Z"/>
            <path class="cls-21" d="M437.1,448.4s6.5,8,14.3,9.3c7.8,1.4,36.7-3.6,36.7-3.6,0,0-28.6,1.6-35.6.3-7-1.3-15.4-6.1-15.4-6.1Z"/>
            <path class="cls-27" d="M493,433.1s4.4-1.7,8.7-2.3,8.7-1.9,8.7-1.9c0,0-5.7,2.5-6.2,6.7-.6,4.3-2.5,13.2-10.2,15.2,0,0,6.9-6,4.6-11.7s-5.6-6-5.6-6Z"/>
            <path class="cls-21" d="M540.4,416.8s-10.2,5.6-17.2,8.7c-7,3-32,8.9-32,8.9,0,0,27.9-2.6,38.9-7.2,10.9-4.6,10.3-10.4,10.3-10.4Z"/>
            <path class="cls-21" d="M537.2,424.1s-4.6,4.5-15.1,6.9c0,0,7.8-1.6,7,.7-.8,2.3-3.8,9.4-14.4,12.9,0,0,8.8-2.3,14.2-7.2,5.4-4.9,8.2-13.3,8.2-13.3Z"/>
            <path class="cls-27" d="M542.1,423.2c2.5,4.2-2.2,16-15.9,21.2,0,0,8-5,11.9-10.4,3.9-5.4,4.1-10.8,4.1-10.8Z"/>
            <path class="cls-21" d="M543.2,416.9s4.7,2,4.4,4.4-7.3,14.3-12.8,18.5c0,0,7-7.7,9.6-16,.8-2.6-1.2-6.9-1.2-6.9Z"/>
            <path class="cls-27" d="M479.8,444.9c-1.1-7.3,7.3-11.6,11.3-4.6,1.4,2.7,1.4,6,0,8.6-1.2,2.6-4.7,4.5-7.3,2.9,5.6,1,7.9-6.5,5.5-10.6-3.3-5.7-9-1.6-9.6,3.6h0Z"/>
            <path class="cls-27" d="M468.1,439.8s-14.9,7.1-11.6,10.5c3.4,3.4,24,3.3,24,3.3,0,0-14.9,1.9-25.4-.5-10.5-2.4-11-5.4-15.2-5.3,0,0,16.3-5.6,28.2-8Z"/>
            <path class="cls-27" d="M521.4,441.6s-22.3,8-33.3,9.6c0,0,31.3-3.4,33.3-9.6Z"/>
            <path class="cls-21" d="M488.8,444.9c1.4,3.3.3,7.5-3,9.6-7.6,4.3-14.4-4.9-12-12.1.9-4.3,6.7-8.7,10.5-5.2-5.4.2-6.4,7.1-4.4,10.8,2.8,5.1,7.5.7,8.9-3.1h0Z"/>
            <path class="cls-21" d="M501.8,434.8s8.9-.4,14.7-1.2c0,0-5.2.9-5.5,2.8s-1.7,9.4-5.1,10.8c0,0,2.2-6.5.6-9.6-1.6-3.1-4.8-2.9-4.8-2.9Z"/>
            <path class="cls-27" d="M460.8,445s2.7,3.3,11-.1c0,0-7.5,1.4-11,.1Z"/>
            <path class="cls-21" d="M453.4,449.8s4.5,5.4,18.2-.2c0,0-12.3,2.3-18.2.2Z"/>
            <path class="cls-21" d="M446.4,448.4s.3-6.6,19.9-6.2c0,0-13,2.1-19.9,6.2Z"/>
          </g>
          <path class="cls-19" d="M276.5,404.7c2.4-23.7,35.2-59.8,35.2-59.8,0,0-28.6,28.1-36.2,48.9-5.2,14.3-14.2,12.1-16.7,10.1-3.9-3.1-7.9-9.9-6.7-14.6,0,0-3.3,4.2-.7,11.3,3,8.2,22.2,25.1,22.2,25.1,0,0,2.2-14,3-21Z"/>
          <path class="cls-6" d="M444,443.8s-5.1-3.9-16.8-8.3c-11.7-4.4-48-10.4-90.4-15.2-42.4-4.8-61.3-5.2-65.6-3.3s-8.2,2.5-9.2,3.9"/>
          <path class="cls-21" d="M429,437c-6.4-2-13-3.1-19.6-4.3-19.8-3.3-39.7-5.9-59.6-8.2-13.3-1.7-26.6-3.1-39.9-4.5-11.6-1.1-23.3-2.6-35-2.4-1.7,0-3.4.1-4.9.7,3.1-1.2,6.6-1.1,9.9-1.2,10.1-.2,20.1.6,30.1,1.4,20,1.7,40,3.9,59.9,6.7,13.3,1.8,26.5,3.9,39.6,6.6,6.5,1.4,13.1,2.8,19.4,5.2h0Z"/>
          <path class="cls-10" d="M437.9,476.5c0,3.8-7.1,12.7-12,14.7-4.9,2-49.2,1.9-95.4-4.7-46.2-6.6-62.1-15.2-65.7-19-3.6-3.8-7.1-14.3-7.1-16.8s8-10.4,17.6-12.4c9.5-2,111.5,9.2,130.7,15.5,19.1,6.3,32,18.9,32,22.7Z"/>
          <path class="cls-21" d="M427.2,493.2c-5,1.6-10.4,1.7-15.6,2.2-8.7.6-17.6.7-26.3.6-33.9-.7-83.4-4.8-113.4-20.6-3-1.8-6.1-3.7-8.4-6.3,5.3,4.5,12.1,6.8,18.7,9,13.3,4.2,27,6.7,40.8,8.7,13.6,2,27.9,3.5,41.6,4.7,13.9,1.1,27.9,1.9,41.8,2.2,2.6,0,7.9.1,10.5.1,3.5,0,7,0,10.4-.7h0Z"/>
          <path class="cls-21" d="M667,404.9c-.7-4.9-.3-9.9-.3-14.8.2-9.8.8-19.7,1.5-29.5.2-3.7.5-7.4.6-11,0-1.2.2-2.6-.4-3.6.3.2.3.5.4.8.6,2.1.6,4.3.8,6.5.3,7.4,0,14.8-.3,22.2-.4,7.1-1,15-1.7,22.1-.1,2.1-.6,5.3-.6,7.4h0Z"/>
          <path class="cls-6" d="M311.8,344.9s-32.8,36.1-35.2,59.8"/>
          <path class="cls-19" d="M376.5,497.1c0,7.3,19.4,17.6,34.7,18,12.9.3-90.8,2.3-90.8,2.3l-44.2-21.9s5.7-3.7,5.9-10.3l94.4,11.9Z"/>
          <path class="cls-10" d="M328.5,506.3c50.1,7.2,93.1,9.4,93.1,9.4,0,0-6.8,16.1-14.4,18.2-10.4,3-57.7-3.7-75.8-6.9-17.1-3-41.8-6.5-50.5-11.7-8.7-5.2-14.3-22.2-14.3-22.2,0,0,37,9.6,61.8,13.2Z"/>
          <path class="cls-3" d="M589.9,359s45.3-22,78.9-49.2c33.5-27.2,31.3-25.4,31.8-28.2s1.1-9.5-3.3-16c-4.3-6.5-17.1-15-34-16.6-16.9-1.7-33.7.4-47,15.5-13.3,15.1-25.9,80.9-27.4,87.3s-.3,7.8,1,7.2Z"/>
          <path class="cls-10" d="M590.8,353.7s11.6-51,18.3-69.6c6.7-18.5,25.4-35.9,51.4-33.1,26,2.8,35.2,14.3,36.8,18.3s1.4,11.4,1,12.8c-.4,1.4-49.3,44.4-107.6,71.7Z"/>
          <path class="cls-6" d="M590.8,353.7s.1,3.8-.9,5.3-11.1,6.4-27,16.4c-15.9,10-51.2,33.5-59.2,53.1"/>
          <path class="cls-19" d="M587.9,359.1c-1.7,1.6-3.9,2.5-5.8,3.7,0,0-6,3.4-6,3.4-16,9.1-31.3,19.4-45.7,30.9-10.5,8.7-21.4,17.9-27.7,30.3,8.8-22.2,40.5-43.4,60.7-55.4,5.8-3.4,12.4-6.7,18.5-9.6,1.7-.9,4.6-2,6.1-3.3h0Z"/>
          <path class="cls-6" d="M599.7,270.7c3.8-14.2,18.4-23,25.8-25.1s25.5-5.2,49.6,0"/>
          <path class="cls-21" d="M676,246.5c-16.8-3-39.9-4.5-55.4,3.4-10,5.4-17.7,14.1-19.9,25.3-5.2,19.2-10.9,38.2-15.1,57.6-.9,4.7-2.6,9.5-5.9,13-3.9,4.3-9.7,6.3-15.4,6.9,5.5-1,11.1-3.1,14.8-7.4,3.7-4.3,5-10,5.8-15.5,2.2-11.2,5.1-22.2,8-33.2,1.9-7.3,3.9-14.7,5.9-22,1-3.7,2.1-7.5,4.1-10.8,5-8.3,13.2-14.6,22.2-17.8,16.6-4.7,34.3-3.5,50.9.5h0Z"/>
          <path class="cls-6" d="M594.8,351.8s1.8,1.8,3.3,2.4c1.5.6,7.2,16.4,9.2,18s1.3,12.2,3.1,13.8c1.9,1.6-3.1,76.4,3.6,74.6,10.5-8.1,55.5-48.6,55.5-48.6,0,0-.6-.2-1.4-2.4-.8-2.2,3.5-63.7,1.5-64.8s-2-11.7-3.7-12.9-6.6-15-6.6-15c0-1.4-1.8-2.6-1.8-2.6"/>
          <path class="cls-6" d="M695.3,285s1.2.2,1.7,1.6c0,0,8.4,5.9,10.3,9.7s5.2,6.6,5,9.3,3.7,23.7,1,37.8"/>
          <path class="cls-10" d="M411.5,545.7c-.4,0-.7-.1-1-.4-3.1-1.9-38-6.1-58.8-8.6-10.1-1.2-18.8-2.3-23.3-2.9-7.4-1.1-19.2-3.8-29.6-6.2-10.2-2.3-21.7-5-23.7-4.7-.8,0-1.6-.5-1.7-1.3,0-.8.5-1.6,1.3-1.7,2.4-.3,11,1.6,24.7,4.8,10.3,2.4,22.1,5.1,29.3,6.1,4.5.7,13.2,1.7,23.3,2.9,45.9,5.6,58.9,7.6,60.6,9.5.6.6.5,1.6-.1,2.2-.3.3-.7.4-1,.4Z"/>
          <path class="cls-10" d="M245.8,478.5c3.2,2.8,5.9,4.1,7.3,7,1.4,2.9,3.7,10.6,3.3,12.7-.4,2-2.4,3.6-4.9,3.6s-8.1-7.6-9.5-12.2-2.7-15.2-1.4-15.7,2.1,1.8,5.2,4.6Z"/>
          <g>
            <g class="cls-33">
              <g>
                <ellipse class="cls-13" cx="242.8" cy="482.5" rx="4.4" ry="6.4" transform="translate(-183 150.2) rotate(-25.3)"/>
                <ellipse class="cls-6" cx="242.8" cy="482.5" rx="3" ry="4.4" transform="translate(-183 150.2) rotate(-25.3)"/>
              </g>
            </g>
            <path class="cls-6" d="M245.8,478.5c3.2,2.8,5.9,4.1,7.3,7,1.4,2.9,3.7,10.6,3.3,12.7-.4,2-2.4,3.6-4.9,3.6s-8.1-7.6-9.5-12.2-2.7-15.2-1.4-15.7,2.1,1.8,5.2,4.6Z"/>
          </g>
          <g>
            <path class="cls-19" d="M617,360.1c-1.4,1.4-3.1,3.3-.7,4.1,2,.6,2.3,1.7,1,2.5s-4.6,3-6.2,3-9.8-13.5-4.6-16.3c5.2-2.8,10.5,6.7,10.5,6.7Z"/>
            <path class="cls-17" d="M626,320.4c12-1.8,31.4,6.2,32.8,10.5s.9,9-3.9,11.8-16.3,5.7-21.1,5.1-6.4.8-8,2.2-6.7,10.5-10.2,10.5-7.9-4.4-8.7-6,.5-3,1.5-3.7,8.1-5.6,8.1-7.2-2.5-3.4-2.5-8.4,6.3-14,12.1-14.8Z"/>
            <g class="cls-26">
              <path class="cls-19" d="M658.7,331c-4.7,5.5-44.2,9.8-43.4-.8.7-10.5-7.1,12.2-7.1,12.2,0,0,6.5.4,8.2,1.3s.6,4.7-7.4,6.8-4.1,6.4-4.1,6.4l8.1,3.2s6.2-9.9,12.7-9.9c6.5,0,32.8,6.4,35.7-3,2.9-9.4-2.6-16.1-2.6-16.1Z"/>
              <path class="cls-21" d="M633,320.3c7.4,2.5,21.8,7,21.4,10s-18.9,7.6-30.8,5.8c0,0,7.2,2,21.1-.1,13.9-2.2,14.3-5.3,14.4-.4l.3-6.5-20.5-8.9-5.9.2Z"/>
            </g>
            <path class="cls-6" d="M626,320.4c12-1.8,31.4,6.2,32.8,10.5s.9,9-3.9,11.8-16.3,5.7-21.1,5.1-6.4.8-8,2.2-6.7,10.5-10.2,10.5-7.9-4.4-8.7-6,.5-3,1.5-3.7,8.1-5.6,8.1-7.2-2.5-3.4-2.5-8.4,6.3-14,12.1-14.8Z"/>
            <path class="cls-13" d="M659.2,332.9s-1.2,3-8.4,4.4c-7.2,1.3-11,1.4-13.5,3.5-2.5,2.1.4,1.7,2.4,1.4s25.2.2,19.5-9.2Z"/>
          </g>
          <path class="cls-6" d="M608.5,344.8s-1.9-26.1-6.8-35.7"/>
          <path class="cls-6" d="M636.8,254.3s18.7,38.9,20.8,60.1"/>
          <path class="cls-6" d="M690.2,289.5s-1.2-7.8-2.8-12.7c-1.6-4.9-17.1-24.2-17.1-24.2"/>
          <path class="cls-6" d="M602,348.2c-4.1,1.5-8.3-6.9-7.4-10.6"/>
          <path class="cls-6" d="M608.5,478.9c10.3-9.4,40.4-33.5,54.8-46.2,14.3-12.7,21.1-15.5,30-25.5"/>
          <path class="cls-6" d="M615.9,459.3c.9,5.4,6.5,7.7,6.5,7.7"/>
          <g>
            <ellipse class="cls-13" cx="341.2" cy="430.7" rx="4.1" ry="10.5" transform="translate(-108.2 746.7) rotate(-86.7)"/>
            <ellipse class="cls-30" cx="341.2" cy="430.7" rx="3.2" ry="8.8" transform="translate(-108.2 746.7) rotate(-86.7)"/>
          </g>
          <path class="cls-6" d="M669.6,412.1s26.3-23,29.1-30.7"/>
          <path class="cls-19" d="M240.5,421.8c-.8,4.5,0,10.2,1.8,13.4,1.9,3.2,9.3,11.6,15.5,6.8,6.3-4.7,7-7.3,8.1-11.3,0,0-4,7.5-11.6,7-7.6-.5-13.8-16-13.8-16Z"/>
          <path class="cls-19" d="M338.3,329.4c-2.3,6.4-.7,17.6,40.6,13.5l2.9-2.2s101,1.6,96.6,10.6l5.1-2.3s60.3,14.7,88.1.2l-149.1-16.2-84.1-3.5Z"/>
          <path class="cls-10" d="M599.7,270.7s-15,50.3-16.8,61.5-7.2,17.7-20.8,19.7c-13.6,2-22.5,2.4-35.4,1.3-13-1.1-36.6-3.2-38.3-5.3s-2.8-1.8-5.6-2.1-28.8-4.1-57.6-6.4c-27.6-2.2-39.2-3.5-40.6-.6,0,0-32.5-.7-40.9-3-8.4-2.3-6-8-1.3-11.5,4.7-3.5,45.3-48.9,70.2-65.8,0,0,87.7-5.2,187.2,12.3Z"/>
          <path class="cls-20" d="M518.6,265.5s52.4,4,73,9.1c0,0-13.7,62-16,63.5s-17.5,8.3-28.4,9.7c0,0-2.9-50.1-28.6-82.3Z"/>
          <path class="cls-28" d="M413.1,263l-64,61.2c-2.7,2.6-1,7.2,2.7,7.4,0,0,21,2.3,31.5,1.5-2.4-15.3-2.4-25,29.8-70.1Z"/>
          <path class="cls-19" d="M481.6,349.6c-33.4,16-64.5,37-93.5,60,3.6-3,7.1-6,10.7-9,18-14.7,37-28.5,56.7-40.7,8-4.9,16-9.6,24.4-13.9,0,0,1.7,3.6,1.7,3.6h0Z"/>
          <path class="cls-7" d="M486,347.8s-47.2,19.6-97.9,61.8"/>
          <path class="cls-21" d="M487,348.8c-35,16.5-67.6,37.8-97.9,61.8,0,0,5.6-4.7,5.6-4.7,14.8-12.4,30.8-23.6,47.2-33.7,14.5-8.7,29.4-16.9,45.1-23.4h0Z"/>
          <path class="cls-6" d="M384.6,338.6s-38.8,26.8-56,64.2"/>
          <path class="cls-19" d="M378.5,343.3c-17.8,14-33.7,31.2-45.3,50.8-1.5,2.3-3.4,6.2-4.7,8.6.7-1.5,2.4-5.2,3.1-6.7,7.8-15.4,18.2-29.5,30.1-42.1,4.6-4.8,9.2-9.4,14.4-13.8l2.5,3.2h0Z"/>
          <path class="cls-6" d="M384.6,338.6s-38.8,26.8-56,64.2"/>
          <path class="cls-21" d="M387.6,338.6c-19.7,15.6-38.1,33.5-51.6,54.8-2,3-3.6,6.2-5.4,9.4,11.8-25.5,34.3-48,57.1-64.2h0Z"/>
          <path class="cls-19" d="M440.2,480.7c3.1,5.8,21.2,8.2,77.7-13.1,0,0-4.9,5.7-16.3,12.4-11.3,6.7-53.5,19.6-61.1,20.3-7.7.7-13.9-4.6-13.9-4.6,0,0,8.8-3.3,13.6-15Z"/>
          <path class="cls-19" d="M455.7,409.6s32-26.3,53.2-37.9c21.2-11.5,24.2-10.5,27.9-8.6s-52.4,24.9-81.1,46.5Z"/>
          <path class="cls-19" d="M242.2,494.3s5.3,9.3,8.6,9.3,4.9-1,4.9-1c0,0-5.5,6.3-3.7,10.8,0,0-9.6-8.7-9.8-19.1Z"/>
          <path class="cls-19" d="M552,450.1c-7.9,0-4.7-10.3-8.6-11.1s-8.8,9.6-11.7,12c-2.9,2.4-13.1,6.8-13.1,6.8,0,0,12.8-3,16.4-1.1,3.6,2,5.8,10.2,10.8,10.2s9.9-7.8,11.5-12.4c1.6-4.5,5.2-11.9,7.6-13.9,0,0-11,9.6-12.8,9.6Z"/>
          <path class="cls-19" d="M524.5,528.9s-15.8,10.9-41.2,16.2c-25.4,5.3-47.1,6.3-53.2,4.5-6.1-1.8-8.9-4.5-8.9-4.5,0,0,45.3.6,103.3-16.2Z"/>
          <path class="cls-19" d="M442.1,511s14.8-6.8,28.2-11.3c13.2-4.4,50.9-17.4,51.4-14.7.5,2.7-13.1,14.7-11,17.2,0,0-4.9-.6-.4-8.1,4.5-7.5-56.2,12.7-68.1,16.9Z"/>
          <path class="cls-19" d="M595,315.1s-8.8,33.6-13,40.4c-4.1,6.8-6.4,6.1-6.4,6.1,0,0,8.1.8,10-3.8s9.4-42.7,9.4-42.7Z"/>
          <path class="cls-16" d="M409.5,460.8c-24.7,0-127.9-13.9-135.1-17.3-.8-.4-1.1-1.3-.7-2,.4-.8,1.3-1.1,2-.7,6.6,3.2,122.6,18.8,137,16.9.8-.1,1.6.5,1.7,1.3s-.5,1.6-1.3,1.7c-.9.1-2.1.2-3.7.2Z"/>
          <path class="cls-16" d="M421.2,467.4c-35.8,0-146.3-14.8-154-20.7-.7-.5-.8-1.5-.3-2.1s1.5-.8,2.1-.3c6.6,5.1,119.7,20.8,154.5,20.1,0,0,0,0,0,0,.8,0,1.5.7,1.5,1.5,0,.8-.6,1.5-1.5,1.6-.7,0-1.5,0-2.3,0Z"/>
          <path class="cls-16" d="M428.5,475.5c-14.5,0-51.7-3.9-84.6-8.1-22.8-3-76.6-10.4-82-15.6-.6-.6-.6-1.5,0-2.2.6-.6,1.5-.6,2.2,0,2.6,2.5,28.4,8.1,80.2,14.8,42.1,5.5,79.9,8.9,88,7.9.8,0,1.6.5,1.7,1.3s-.5,1.6-1.3,1.7c-1,.1-2.5.2-4.2.2Z"/>
          <path class="cls-16" d="M419.5,481.7c-20.9,0-55.3-3.8-83.6-7.8-18.6-2.6-36-5.6-48.9-8.3-22.1-4.6-23.1-6.7-23.6-7.8-.4-.8,0-1.7.7-2,.7-.4,1.6,0,2,.6,5.1,5.8,128.6,25.5,163.5,21.7.8,0,1.6.5,1.7,1.4,0,.8-.5,1.6-1.4,1.7-2.9.3-6.4.4-10.5.4Z"/>
          <path class="cls-16" d="M417.3,487.9c-37.7,0-146-15.8-151.7-22.9-.5-.7-.4-1.6.2-2.1.7-.5,1.6-.4,2.1.2,5.3,6,129.1,24.6,156.9,21.4.8,0,1.6.5,1.7,1.3s-.5,1.6-1.3,1.7c-2.1.2-4.7.4-7.9.4Z"/>
          <path class="cls-19" d="M429.8,511s-13.3,20.7-12.8,22.4,22-1.3,24.1-3.6c0,0-4.6-3.3-1.1-9.4,3.4-6.1,6-7.7,6-7.7,0,0-8.3,1-16.1-1.7Z"/>
          <path class="cls-19" d="M503,460.8s-49.6,7.9-57.1,6.6c-7.5-1.3-19.3-6.6-19.3-6.6,10.5,6.3,8.1,6.7,14.3,9.5,6.2,2.8,42.3-3.4,62.7-9.2"/>
          <path class="cls-6" d="M573.2,348.2c3.4.8,6.2,2.4,5.6,6.4-.6,4-.4,8.6,2.8,9.5"/>
          <path class="cls-21" d="M255.9,385.4c5.9-7.1,13.3-12.9,20.8-18.3,7.6-5.2,15.7-9.8,24.2-13.4-1.9,1.3-3.9,2.5-5.8,3.7-13.6,8.6-26.9,17.6-39.2,27.9h0Z"/>
          <path class="cls-21" d="M239.7,439.5c-1.2,1.8,0,18.1.3,20.8.3,2.7.5,12.3,9.8,16.8,0,0-8.4-12.3-5.8-20,2.6-7.7,4.4-2.9,9-4.6,0,0-13.5-5.9-13.4-12.9Z"/>
          <path class="cls-19" d="M258.6,446.4s-2.7,2.2-3.1,3.8-.2,16.3,15.9,23c0,0-5.2-3-7.7-5.5s-7.4-14.1-6.9-17c.5-3.2,1.8-4.2,1.8-4.2Z"/>
          <path class="cls-21" d="M571.4,386.5s-9,1.7-14.5,4.6-19.7,21.1-19.7,21.1c0,0,22.4-20.9,34.2-25.7Z"/>
          <path class="cls-19" d="M596.1,367.5c-1.3,1.2-4.5,13.2-4.5,13.2,0,0,9.1-4.9,12.1-7.1,0,0-5.1-2.5-5.1-4.7s-1.2-2.7-2.5-1.5Z"/>
          <path class="cls-21" d="M597,357.9c-18.7,12-38.7,23.7-57,36.2,8.4-7.6,17.8-14,27.3-20,9.6-5.9,19.4-11.5,29.7-16.2h0Z"/>
          <path class="cls-21" d="M541.4,503s-8,6-14,6.5c-6,.5-13.8-6.1-13.8-6.1,0,0,10.7,2.2,15.1,1.5,4.3-.6,12.8-1.9,12.8-1.9Z"/>
          <path class="cls-21" d="M264.8,496s6.4,12.9,5.1,17.9c-1.4,5-8.4,3.1-8.4,3.1,0,0,4.9.2,6-4.4,1.1-4.6-2.6-16.5-2.6-16.5Z"/>
          <path class="cls-19" d="M257.7,468.2c1.5,5,8.4,7,8.4,7,0,0-3.2,4.7,0,12.9,0,0-7.7-4.2-8.4-19.9Z"/>
          <path class="cls-21" d="M536.9,461.6s-9.6-1.2-13.6,1c-3.9,2.3-8.1,12.1-8.1,12.1,0,0,6.5-6.3,9.5-8.9,3-2.7,6.7-4.4,12.1-4.2Z"/>
          <path class="cls-21" d="M536.9,474s-12.5,9.2-34.3,15.1c0,0,28.3-4.5,34.3-15.1Z"/>
          <g>
            <path class="cls-10" d="M450.7,514.9l-5.6,11.1c-.6,1.2-.3,2.7.7,3.5,2,1.6,5.7,3.8,11.4,3.9,9.1.3,63.7-12.3,66-13.8,2.4-1.4,1-3.3-.5-4.6-1.5-1.3-9.3-6.6-14.6-8.9-5.3-2.3-11.3-1.8-16.3-1.3-4.2.4-29.6,5.7-37.6,7.4-1.5.3-2.8,1.3-3.5,2.7Z"/>
            <g>
              <ellipse class="cls-13" cx="491.3" cy="516" rx="15.1" ry="9.3" transform="translate(-90.4 104.5) rotate(-11.1)"/>
              <ellipse class="cls-17" cx="491.3" cy="516" rx="12.5" ry="7.7" transform="translate(-90.4 104.5) rotate(-11.1)"/>
              <path class="cls-12" d="M489.8,508.4c-3.2.6-6,2-7.9,3.7-.5,1.3-.7,2.6-.4,3.9.9,4.3,6.1,7.1,12.6,7.3,6.1-1.6,10.3-5.8,9.5-9.7-.8-4.2-7-6.5-13.7-5.1Z"/>
              <path class="cls-13" d="M503.5,513.6c-.8-4.2-7-6.5-13.7-5.1-.5,0-1,.2-1.4.3-.2.7-.3,1.5-.3,2.3,0,4.7,3.8,8.5,8.5,8.5s5.3-1.4,6.8-3.5c.3-.8.3-1.7.2-2.5Z"/>
            </g>
            <path class="cls-2" d="M461.7,529.4c-4.8-.6-8.7-5.4-6.9-10.5,1.1-3.1,4.8-7.8,4.8-7.8-2.1.4-3.9.8-5.3,1.1-1.5.3-2.8,1.3-3.5,2.7l-5.6,11.1c-.6,1.2-.3,2.7.7,3.5,2,1.6,5.7,3.8,11.4,3.9,3,0,11-1.2,20.5-3.1,0,0-13.4-.5-16-.9Z"/>
            <path class="cls-23" d="M500.5,525.4c11.9-2.7,21.7-5.2,22.7-5.8,2.4-1.4,1-3.3-.5-4.6-1.5-1.3-9.3-6.6-14.6-8.9-1.7-.7-3.4-1.2-5.2-1.4,4.5,1.9,8.7,4.9,9.2,9.1.5,4.3-5.2,8.4-11.6,11.6Z"/>
          </g>
          <path class="cls-21" d="M534.1,521.8c-6.3,4.1-38.3,14.3-54.3,17.5,0,0,33.3-4.3,44.8-10.3,7.4-3.9,9.6-7.1,9.6-7.1Z"/>
          <path class="cls-19" d="M710.9,348.4s-4.2,3.6-6,7.3c-1.7,3.7-2.8,9.8-2.7,16,0,0,2.1-15.4,8.7-23.3Z"/>
          <path class="cls-21" d="M298.4,359.4c-5.8,7-11.3,14.6-16.5,22,2.9-8.8,8.8-16.9,16.5-22h0Z"/>
          <path class="cls-21" d="M267.2,422.3s4.2,2.7,4.2,5-3.8,5.3-3.8,5.3c0,0,2.9-6.3-.4-10.3Z"/>
          <path class="cls-21" d="M333.1,331.1s-25.8,15.4-41.9,42.8c0,0,31.8-36.3,38.2-36.1,6.4.2,8.2.9,8.2.9,0,0-6.6-3.3-4.5-7.5Z"/>
          <g>
            <path class="cls-2" d="M373.1,520.1l-88.2-15.3c-.9-.1-1.6-.9-1.6-1.8l-1.3-19.4c0-1.1,2.3-2.9,3.4-2.7l89.4,14.4c.9.1,1.6.9,1.6,1.8v20.3c0,1.1-2.3,2.9-3.4,2.7Z"/>
            <path class="cls-13" d="M373.1,520.1l-89.4-14.4c-.9-.1-1.6-.9-1.6-1.8v-20.3c0-1.1,1-2,2.1-1.8l89.4,14.4c.9.1,1.6.9,1.6,1.8v20.3c0,1.1-1,2-2.1,1.8Z"/>
          </g>
          <path class="cls-21" d="M427.2,505.5s-2,4.3-5.2,5.6-9,1.8-9,1.8c0,0,7.7,1.4,10.4-.4s3.8-7,3.8-7Z"/>
          <path class="cls-21" d="M567.3,357.9c-36.8,11-71.8,28.2-104.7,47.9-4.7,2.8-9.3,5.8-14.1,8.7,3.2-2.3,6.9-4.9,10.1-7.2,12.3-8.4,25.8-16.4,39.1-23.2,22.1-11.2,45.3-20.9,69.5-26.2h0Z"/>
          <path class="cls-21" d="M703,269.6s7.5,1.9,12.8-.8c0,0-9.4,6.9-12.3,11.7,0,0,2.6-6.2-.6-10.8Z"/>
        </g>
      </g>
    </g>
  </g>
</svg>