<?xml version="1.0" encoding="UTF-8"?>
<svg xmlns="http://www.w3.org/2000/svg" version="1.1" xmlns:xlink="http://www.w3.org/1999/xlink" viewBox="0 0 1920 1080">
  <defs>
    <style>
      .cls-1 {
        fill: #d9dbe6;
      }

      .cls-2 {
        fill: #ffadae;
      }

      .cls-3 {
        fill: #393842;
      }

      .cls-4 {
        fill: #ffec8b;
      }

      .cls-5, .cls-6, .cls-7 {
        fill: #41464f;
      }

      .cls-8 {
        fill: #5f3c84;
      }

      .cls-9 {
        fill: #534741;
      }

      .cls-10 {
        font-size: 14px;
        letter-spacing: 0em;
      }

      .cls-10, .cls-11 {
        font-family: HeiseiKakuGoStd-W3-90ms-RKSJ-H, 'Heisei Kaku Gothic Std';
      }

      .cls-12 {
        fill: url(#_Áåçûìÿííûé_ãðàäèåíò_1184);
      }

      .cls-13, .cls-14, .cls-15, .cls-16, .cls-17 {
        fill: #fff;
      }

      .cls-13, .cls-18, .cls-19, .cls-20, .cls-21, .cls-22 {
        stroke-miterlimit: 10;
      }

      .cls-13, .cls-19, .cls-22 {
        stroke: #fff;
      }

      .cls-23 {
        fill: #57565e;
      }

      .cls-24 {
        opacity: .4;
      }

      .cls-25, .cls-18, .cls-20, .cls-21, .cls-26, .cls-27 {
        fill: none;
      }

      .cls-28 {
        fill: #bf7f64;
      }

      .cls-29 {
        fill: #cc96a2;
      }

      .cls-30 {
        fill: #c4c8d8;
      }

      .cls-31 {
        fill: #ffe568;
      }

      .cls-32 {
        clip-path: url(#clippath-1);
      }

      .cls-33 {
        fill: #d15d5d;
      }

      .cls-33, .cls-6 {
        opacity: .5;
      }

      .cls-34, .cls-35, .cls-19, .cls-22 {
        fill: #babacc;
      }

      .cls-34, .cls-15, .cls-17, .cls-36 {
        font-size: 36px;
      }

      .cls-34, .cls-17 {
        font-family: ITCAvantGardeStd-BoldCn, 'ITC Avant Garde Gothic Std';
        font-weight: 700;
      }

      .cls-37 {
        isolation: isolate;
      }

      .cls-38 {
        fill: #beacbf;
      }

      .cls-18 {
        stroke: #ccc;
      }

      .cls-39 {
        clip-path: url(#clippath-3);
      }

      .cls-15, .cls-16 {
        font-family: HeiseiKakuGoStd-W9-90ms-RKSJ-H, 'Heisei Kaku Gothic Std';
      }

      .cls-40 {
        fill: url(#_Áåçûìÿííûé_ãðàäèåíò_1200);
      }

      .cls-16 {
        font-size: 66px;
      }

      .cls-41 {
        fill: #603813;
      }

      .cls-42 {
        fill: #eff0f5;
      }

      .cls-43 {
        fill: #e1e3eb;
      }

      .cls-44 {
        font-size: 28px;
        letter-spacing: 0em;
      }

      .cls-45 {
        fill: #c5c9d8;
      }

      .cls-46 {
        fill: #ed6d69;
      }

      .cls-47, .cls-48 {
        fill: #ffe48c;
      }

      .cls-19 {
        stroke-width: 2px;
      }

      .cls-20, .cls-21 {
        stroke: #ffe48c;
      }

      .cls-21 {
        stroke-width: .5px;
      }

      .cls-49 {
        fill: #7c78f0;
      }

      .cls-50 {
        clip-path: url(#clippath-2);
      }

      .cls-48 {
        opacity: .5;
      }

      .cls-51 {
        fill: #dadae6;
      }

      .cls-52 {
        fill: #494855;
      }

      .cls-53 {
        clip-path: url(#clippath);
      }

      .cls-26 {
        stroke: #534741;
        stroke-linecap: round;
        stroke-width: .8px;
      }

      .cls-26, .cls-27 {
        stroke-linejoin: round;
      }

      .cls-54 {
        font-family: HeiseiKakuGoStd-W7-90ms-RKSJ-H, 'Heisei Kaku Gothic Std';
      }

      .cls-36 {
        font-family: ITCAvantGardeStd-DemiCn, 'ITC Avant Garde Gothic Std';
        font-weight: 300;
      }

      .cls-55 {
        opacity: .7;
      }

      .cls-27 {
        stroke: #ffe863;
      }

      .cls-7 {
        opacity: .2;
      }
    </style>
    <linearGradient id="_Áåçûìÿííûé_ãðàäèåíò_1200" data-name="Áåçûìÿííûé ãðàäèåíò 1200" x1="381.8" y1="736.8" x2="484.1" y2="472.7" gradientUnits="userSpaceOnUse">
      <stop offset="0" stop-color="#a0a6c0"/>
      <stop offset=".4" stop-color="#a0a6c0"/>
      <stop offset=".4" stop-color="#acb1c8"/>
      <stop offset=".4" stop-color="#c6c9d9"/>
      <stop offset=".4" stop-color="#d8d9e6"/>
      <stop offset=".4" stop-color="#e3e3ed"/>
      <stop offset=".4" stop-color="#e7e7f0"/>
    </linearGradient>
    <linearGradient id="_Áåçûìÿííûé_ãðàäèåíò_1184" data-name="Áåçûìÿííûé ãðàäèåíò 1184" x1="355.7" y1="744" x2="697" y2="744" gradientUnits="userSpaceOnUse">
      <stop offset="0" stop-color="#a0a6c0"/>
      <stop offset=".4" stop-color="#a0a6c0"/>
      <stop offset=".4" stop-color="#a3a9c2"/>
      <stop offset=".4" stop-color="#b5bace"/>
      <stop offset=".4" stop-color="#c0c4d5"/>
      <stop offset=".4" stop-color="#c4c8d8"/>
      <stop offset=".9" stop-color="#c4c8d8"/>
      <stop offset="1" stop-color="#c4c8d8"/>
      <stop offset="1" stop-color="#c4c8d8"/>
    </linearGradient>
    <clipPath id="clippath">
      <path class="cls-47" d="M451.2,365.9c18.6-10.7,33.7-2.1,33.8,19.2,0,21.4-15,47.4-33.5,58.1-18.6,10.7-33.7,2.1-33.8-19.2,0-21.3,15-47.4,33.5-58.1Z"/>
    </clipPath>
    <clipPath id="clippath-1">
      <path class="cls-25" d="M587,509.9c3.8,2.5,1.1,35.3.8,42.8s-2.1,20.6-2.6,24.6c-.5,4-7.5,49.1-7.7,52.6,0,0-1.7,3.8-5.7,3.5s-5.2-4.2-5.2-4.2c0,0,2-14,2.7-23.3.6-7.6,2.6-16.3,2.5-20.5-.1-4.1-1-48.7-.3-56.4.8-7.7,15.4-19.2,15.4-19.2Z"/>
    </clipPath>
    <clipPath id="clippath-2">
      <polygon class="cls-25" points="545 430.8 545.6 631.5 445 689.5 444.5 488.8 545 430.8"/>
    </clipPath>
    <clipPath id="clippath-3">
      <path class="cls-25" d="M559.5,507.9c-3.5,2.1-14.1,9.8-15.3,19.7-1.3,9.9,3.7,14.4,4.4,19.8.7,5.4,34.9-8.8,38.9-19.8,4-11,3.8-22.7-4.8-24.3-8.5-1.6-20.1,2.7-23.2,4.5Z"/>
    </clipPath>
  </defs>
  <!-- Generator: Adobe Illustrator 28.7.4, SVG Export Plug-In . SVG Version: 1.2.0 Build 166)  -->
  <g>
    <g id="Layer_2">
      <rect class="cls-35" width="1920" height="1080"/>
    </g>
    <g id="Layer_1">
      <g>
        <g>
          <path class="cls-6" d="M693.1,721.8l-205.6-117.6c-4.1-2.3-10.6-2.3-14.7,0l-206.3,119.9c-4,2.3-4,6.1,0,8.5l205.6,117.6c5.6,3.2,14.6,3.2,20.1,0l200.9-116.8c5.5-3.2,5.5-8.4,0-11.6h0Z"/>
          <g>
            <g>
              <path class="cls-40" d="M556.8,633.6l-42.5-160.7c-.8-2.9-2.4-5-4.3-6l.2-.9-3.3-.3h0c-1.1,0-2.2.4-3.3,1l-195.7,113c-4.5,2.6-7,9.4-5.4,15.2l42.5,160.7c.9,3.3,3.2,5.2,5.7,5.1h0s0,0,0,0h0s3.1.3,3.1.3l-.2-.9,199.1-115c3.4-2,5.3-7.2,4.1-11.6Z"/>
              <path class="cls-52" d="M506.5,466.9l-195.7,113c-4.5,2.6-7,9.4-5.4,15.2l42.5,160.7c1.2,4.4,4.9,6.3,8.3,4.4l199.6-115.2c3.4-2,5.3-7.2,4.1-11.6l-42.5-160.7c-1.5-5.8-6.4-8.3-11-5.7h0Z"/>
              <polygon class="cls-49" points="511.9 471.2 308.9 588.4 350.4 745.4 553.3 628.2 511.9 471.2"/>
              <g>
                <path class="cls-31" d="M350.4,627.8l-6.9,4c-.5.3-1,.2-1.3-.3l-.2-.3c-.3-.4-.8-.5-1.3-.3l-6.2,3.6c-.5.3-.9.9-.9,1.6v1.2c0,.1,0,.3,0,.4l2.9,12c.1.5.6.7,1.1.5l16.3-9.4c.5-.3.8-.9.6-1.5l-2.6-10.9c-.2-.7-.8-1-1.5-.6Z"/>
                <path class="cls-4" d="M350.9,628.7l-16.3,9.4c-.5.3-.8.9-.6,1.5l2.4,10.1c.1.5.6.7,1.1.5l16.3-9.4c.5-.3.8-.9.6-1.5l-2.4-10.1c-.1-.5-.6-.7-1.1-.5Z"/>
              </g>
              <g>
                <path class="cls-31" d="M341.9,599.7l-6.9,4c-.5.3-1,.2-1.3-.3l-.2-.3c-.3-.4-.8-.5-1.3-.3l-6.2,3.6c-.5.3-.9.9-.9,1.6v1.2c0,.1,0,.3,0,.4l2.9,12c.1.5.6.7,1.1.5l16.3-9.4c.5-.3.8-.9.6-1.5l-2.6-10.9c-.2-.7-.8-1-1.5-.6Z"/>
                <path class="cls-4" d="M342.5,600.7l-16.3,9.4c-.5.3-.8.9-.6,1.5l2.4,10.1c.1.5.6.7,1.1.5l16.3-9.4c.5-.3.8-.9.6-1.5l-2.4-10.1c-.1-.5-.6-.7-1.1-.5Z"/>
              </g>
              <g>
                <path class="cls-31" d="M507.5,497.9l-6.9,4c-.5.3-1,.2-1.3-.3l-.2-.3c-.3-.4-.8-.5-1.3-.3l-6.2,3.6c-.5.3-.9.9-.9,1.6v1.2c0,.1,0,.3,0,.4l2.9,12c.1.5.6.7,1.1.5l16.3-9.4c.5-.3.8-.9.6-1.5l-2.6-10.9c-.2-.7-.8-1-1.5-.6Z"/>
                <path class="cls-4" d="M508.1,498.9l-16.3,9.4c-.5.3-.8.9-.6,1.5l2.4,10.1c.1.5.6.7,1.1.5l16.3-9.4c.5-.3.8-.9.6-1.5l-2.4-10.1c-.1-.5-.6-.7-1.1-.5Z"/>
              </g>
              <polygon class="cls-30" points="551.5 621.4 348.6 738.6 350.4 745.4 553.3 628.2 551.5 621.4"/>
            </g>
            <g>
              <g>
                <path class="cls-12" d="M697,723.7h0v-7.5l-6.1.7-121.6-70.2c-3.9-2.2-10.1-2.2-14,0l-186.8,108.6-12.8,1.5v8.1h0c0,1.5.9,3.1,2.9,4.3l123.8,71.4c5.3,3.1,13.9,3.1,19.2,0l191.6-111.3c2.6-1.5,3.9-3.4,3.9-5.4h0Z"/>
                <path class="cls-42" d="M693,710.7l-123.8-71.4c-3.9-2.2-10.1-2.2-14,0l-196.7,114.3c-3.9,2.2-3.8,5.9,0,8.1l123.8,71.4c5.3,3.1,13.9,3.1,19.2,0l191.6-111.3c5.3-3.1,5.2-8,0-11.1h0Z"/>
                <path class="cls-43" d="M641.7,686.4l-73-42.1c-2.6-1.5-6.7-1.5-9.2,0l-192.3,111.8c-2.5,1.5-2.5,3.9,0,5.4l73,42.1c2.6,1.5,6.7,1.5,9.2,0l192.3-111.8c2.5-1.5,2.5-3.9,0-5.4Z"/>
                <path class="cls-1" d="M632.4,747.2l-36.3-21c-2.1-1.2-5.6-1.2-7.7,0l-79.7,46.3c-2.1,1.2-2.1,3.2,0,4.4l36.3,21c2.1,1.2,5.6,1.2,7.7,0l79.7-46.3c2.1-1.2,2.1-3.2,0-4.4h0Z"/>
                <path class="cls-45" d="M508.7,773.7l79.7-46.3c2.1-1.2,5.5-1.2,7.7,0l36.3,21c.8.5,1.3,1.1,1.5,1.7.3-1-.2-2-1.5-2.8l-36.3-21c-2.1-1.2-5.6-1.2-7.7,0l-79.7,46.3c-1.3.8-1.8,1.8-1.5,2.8.2-.6.7-1.2,1.5-1.6Z"/>
              </g>
              <g>
                <path class="cls-3" d="M399.8,763v-1h-.9s-8.7-5-8.7-5c-.9-.5-2.3-.5-3.2,0l-8.8,5.1h-.8v1h0c0,0,0,0,0,0,0,.3.2.6.7.9l8.9,5.2c.9.5,2.3.5,3.2,0l8.9-5.2c.4-.3.7-.6.7-.9Z"/>
                <path class="cls-3" d="M456.2,795.5v-1h-.9s-8.7-5-8.7-5c-.9-.5-2.3-.5-3.2,0l-8.8,5.1h-.8v1h0c0,0,0,0,0,0,0,.3.2.6.7.9l8.9,5.2c.9.5,2.3.5,3.2,0l8.9-5.2c.4-.3.7-.6.7-.9Z"/>
                <path class="cls-3" d="M470.1,787.4v-1h-.9s-8.7-5-8.7-5c-.9-.5-2.3-.5-3.2,0l-8.8,5.1h-.8v1h0c0,0,0,0,0,0,0,.3.2.6.7.9l8.9,5.2c.9.5,2.4.5,3.2,0l8.9-5.2c.4-.3.7-.6.7-.9Z"/>
                <path class="cls-3" d="M484,779.4v-1h-.9s-8.7-5-8.7-5c-.9-.5-2.3-.5-3.2,0l-8.8,5.1h-.8v1h0c0,0,0,0,0,0,0,.3.2.6.7.9l8.9,5.2c.9.5,2.3.5,3.2,0l8.9-5.2c.4-.3.7-.6.7-.9Z"/>
                <path class="cls-3" d="M497.9,771.3v-1h-.9s-8.7-5-8.7-5c-.9-.5-2.3-.5-3.2,0l-8.8,5.1h-.8v1h0c0,0,0,0,0,0,0,.3.2.6.7.9l8.9,5.2c.9.5,2.3.5,3.2,0l8.9-5.2c.4-.3.7-.6.7-.9Z"/>
                <path class="cls-3" d="M413.7,754.9v-1h-.9s-8.7-5-8.7-5c-.9-.5-2.3-.5-3.2,0l-8.8,5.1h-.8v1h0c0,0,0,0,0,0,0,.3.2.6.7.9l8.9,5.2c.9.5,2.3.5,3.2,0l8.9-5.2c.4-.3.7-.6.7-.9Z"/>
                <path class="cls-3" d="M435.6,758.4v-1h-.9s-8.7-5-8.7-5c-.9-.5-2.3-.5-3.2,0l-8.8,5.1h-.8v1h0c0,0,0,0,0,0,0,.3.2.6.7.9l8.9,5.2c.9.5,2.3.5,3.2,0l8.9-5.2c.4-.3.7-.6.7-.9Z"/>
                <path class="cls-3" d="M449.5,750.3v-1h-.9s-8.7-5-8.7-5c-.9-.5-2.3-.5-3.2,0l-8.8,5.1h-.8v1h0c0,0,0,0,0,0,0,.3.2.6.7.9l8.9,5.2c.9.5,2.3.5,3.2,0l8.9-5.2c.4-.3.7-.6.7-.9Z"/>
                <path class="cls-3" d="M456.7,762.6v-1h-.9s-8.7-5-8.7-5c-.9-.5-2.3-.5-3.2,0l-8.8,5.1h-.8v1h0c0,0,0,0,0,0,0,.3.2.6.7.9l8.9,5.2c.9.5,2.3.5,3.2,0l8.9-5.2c.4-.3.7-.6.7-.9Z"/>
                <path class="cls-3" d="M470.9,770.7v-1h-.9s-8.7-5-8.7-5c-.9-.5-2.3-.5-3.2,0l-8.8,5.1h-.8v1h0c0,0,0,0,0,0,0,.3.2.6.7.9l8.9,5.2c.9.5,2.3.5,3.2,0l8.9-5.2c.4-.3.7-.6.7-.9Z"/>
                <path class="cls-3" d="M484.8,762.7v-1h-.9s-8.7-5-8.7-5c-.9-.5-2.3-.5-3.2,0l-8.8,5.1h-.8v1h0c0,0,0,0,0,0,0,.3.2.6.7.9l8.9,5.2c.9.5,2.3.5,3.2,0l8.9-5.2c.4-.3.7-.6.7-.9Z"/>
                <path class="cls-3" d="M498.7,754.6v-1h-.9s-8.7-5-8.7-5c-.9-.5-2.3-.5-3.2,0l-8.8,5.1h-.8v1h0c0,0,0,0,0,0,0,.3.2.6.7.9l8.9,5.2c.9.5,2.3.5,3.2,0l8.9-5.2c.4-.3.7-.6.7-.9Z"/>
                <path class="cls-3" d="M512.6,746.5v-1h-.9s-8.7-5-8.7-5c-.9-.5-2.3-.5-3.2,0l-8.8,5.1h-.8v1h0c0,0,0,0,0,0,0,.3.2.6.7.9l8.9,5.2c.9.5,2.3.5,3.2,0l8.9-5.2c.4-.3.7-.6.7-.9Z"/>
                <path class="cls-3" d="M526.5,738.4v-1h-.9s-8.7-5-8.7-5c-.9-.5-2.3-.5-3.2,0l-8.8,5.1h-.8v1h0c0,0,0,0,0,0,0,.3.2.6.7.9l8.9,5.2c.9.5,2.3.5,3.2,0l8.9-5.2c.4-.3.7-.6.7-.9Z"/>
                <path class="cls-3" d="M540.4,730.3v-1h-.9s-8.7-5-8.7-5c-.9-.5-2.3-.5-3.2,0l-8.8,5.1h-.8v1h0c0,0,0,0,0,0,0,.3.2.6.7.9l8.9,5.2c.9.5,2.4.5,3.2,0l8.9-5.2c.4-.3.7-.6.7-.9Z"/>
                <path class="cls-3" d="M554.3,722.3v-1h-.9s-8.7-5-8.7-5c-.9-.5-2.3-.5-3.2,0l-8.8,5.1h-.8v1h0c0,0,0,0,0,0,0,.3.2.6.7.9l8.9,5.2c.9.5,2.3.5,3.2,0l8.9-5.2c.4-.3.7-.6.7-.9Z"/>
                <path class="cls-3" d="M568.2,714.2v-1h-.9s-8.7-5-8.7-5c-.9-.5-2.3-.5-3.2,0l-8.8,5.1h-.8v1h0c0,0,0,0,0,0,0,.3.2.6.7.9l8.9,5.2c.9.5,2.3.5,3.2,0l8.9-5.2c.4-.3.7-.6.7-.9Z"/>
                <path class="cls-3" d="M582.1,706.1v-1h-.9s-8.7-5-8.7-5c-.9-.5-2.3-.5-3.2,0l-8.8,5.1h-.8v1h0c0,0,0,0,0,0,0,.3.2.6.7.9l8.9,5.2c.9.5,2.4.5,3.2,0l8.9-5.2c.4-.3.7-.6.7-.9Z"/>
                <path class="cls-3" d="M597,713.7v-1h-.9s-8.7-5-8.7-5c-.9-.5-2.3-.5-3.2,0l-8.8,5.1h-.8v1h0c0,0,0,0,0,0,0,.3.2.6.7.9l8.9,5.2c.9.5,2.4.5,3.2,0l8.9-5.2c.4-.3.7-.6.7-.9Z"/>
                <path class="cls-3" d="M610.9,705.6v-1h-.9s-8.7-5-8.7-5c-.9-.5-2.3-.5-3.2,0l-8.8,5.1h-.8v1h0c0,0,0,0,0,0,0,.3.2.6.7.9l8.9,5.2c.9.5,2.3.5,3.2,0l8.9-5.2c.4-.3.7-.6.7-.9Z"/>
                <path class="cls-3" d="M639.1,689.2v-1h-.9s-8.7-5-8.7-5c-.9-.5-2.3-.5-3.2,0l-8.8,5.1h-.8v1h0c0,0,0,0,0,0,0,.3.2.6.7.9l8.9,5.2c.9.5,2.3.5,3.2,0l8.9-5.2c.4-.3.7-.6.7-.9Z"/>
                <path class="cls-3" d="M624.2,680.1l-8.7-5.1c-.9-.5-2.3-.5-3.2,0l-1.2.7h0l-7.5,4.4h-.8v.4l-.5.3h-.8v1h0c0,0,0,0,0,0,0,.3.2.6.7.9l8.9,5.2c.9.5,2.4.5,3.2,0l10.1-5.9c.4-.3.7-.6.7-.9v-1h-.9Z"/>
                <path class="cls-3" d="M596,698v-1h-.9s-8.7-5-8.7-5c-.9-.5-2.3-.5-3.2,0l-8.8,5.1h-.8v1h0c0,0,0,0,0,0,0,.3.2.6.7.9l8.9,5.2c.9.5,2.3.5,3.2,0l8.9-5.2c.4-.3.7-.6.7-.9Z"/>
                <path class="cls-3" d="M609.9,689.9v-1h-.9s-8.7-5-8.7-5c-.9-.5-2.3-.5-3.2,0l-8.8,5.1h-.8v1h0c0,0,0,0,0,0,0,.3.2.6.7.9l8.9,5.2c.9.5,2.3.5,3.2,0l8.9-5.2c.4-.3.7-.6.7-.9Z"/>
                <path class="cls-3" d="M470.6,754.5v-1h-.9s-8.7-5-8.7-5c-.9-.5-2.3-.5-3.2,0l-8.8,5.1h-.8v1h0c0,0,0,0,0,0,0,.3.2.6.7.9l8.9,5.2c.9.5,2.4.5,3.2,0l8.9-5.2c.4-.3.7-.6.7-.9Z"/>
                <path class="cls-3" d="M484.5,746.4v-1h-.9s-8.7-5-8.7-5c-.9-.5-2.3-.5-3.2,0l-8.8,5.1h-.8v1h0c0,0,0,0,0,0,0,.3.2.6.7.9l8.9,5.2c.9.5,2.3.5,3.2,0l8.9-5.2c.4-.3.7-.6.7-.9Z"/>
                <path class="cls-3" d="M498.4,738.3v-1h-.9s-8.7-5-8.7-5c-.9-.5-2.3-.5-3.2,0l-8.8,5.1h-.8v1h0c0,0,0,0,0,0,0,.3.2.6.7.9l8.9,5.2c.9.5,2.3.5,3.2,0l8.9-5.2c.4-.3.7-.6.7-.9Z"/>
                <path class="cls-3" d="M512.3,730.2v-1h-.9s-8.7-5-8.7-5c-.9-.5-2.3-.5-3.2,0l-8.8,5.1h-.8v1h0c0,0,0,0,0,0,0,.3.2.6.7.9l8.9,5.2c.9.5,2.4.5,3.2,0l8.9-5.2c.4-.3.7-.6.7-.9Z"/>
                <path class="cls-3" d="M526.2,722.2v-1h-.9s-8.7-5-8.7-5c-.9-.5-2.3-.5-3.2,0l-8.8,5.1h-.8v1h0c0,0,0,0,0,0,0,.3.2.6.7.9l8.9,5.2c.9.5,2.3.5,3.2,0l8.9-5.2c.4-.3.7-.6.7-.9Z"/>
                <path class="cls-3" d="M540.1,714.1v-1h-.9s-8.7-5-8.7-5c-.9-.5-2.3-.5-3.2,0l-8.8,5.1h-.8v1h0c0,0,0,0,0,0,0,.3.2.6.7.9l8.9,5.2c.9.5,2.3.5,3.2,0l8.9-5.2c.4-.3.7-.6.7-.9Z"/>
                <path class="cls-3" d="M554,706v-1h-.9s-8.7-5-8.7-5c-.9-.5-2.3-.5-3.2,0l-8.8,5.1h-.8v1h0c0,0,0,0,0,0,0,.3.2.6.7.9l8.9,5.2c.9.5,2.3.5,3.2,0l8.9-5.2c.4-.3.7-.6.7-.9Z"/>
                <path class="cls-3" d="M568,697.9v-1h-.9s-8.7-5-8.7-5c-.9-.5-2.3-.5-3.2,0l-8.8,5.1h-.8v1h0c0,0,0,0,0,0,0,.3.2.6.7.9l8.9,5.2c.9.5,2.4.5,3.2,0l8.9-5.2c.4-.3.7-.6.7-.9Z"/>
                <path class="cls-3" d="M581.9,689.8v-1h-.9s-8.7-5-8.7-5c-.9-.5-2.3-.5-3.2,0l-8.8,5.1h-.8v1h0c0,0,0,0,0,0,0,.3.2.6.7.9l8.9,5.2c.9.5,2.3.5,3.2,0l8.9-5.2c.4-.3.7-.6.7-.9Z"/>
                <path class="cls-3" d="M463.4,742.2v-1h-.9s-8.7-5-8.7-5c-.9-.5-2.3-.5-3.2,0l-8.8,5.1h-.8v1h0c0,0,0,0,0,0,0,.3.2.6.7.9l8.9,5.2c.9.5,2.4.5,3.2,0l8.9-5.2c.4-.3.7-.6.7-.9Z"/>
                <path class="cls-3" d="M477.3,734.2v-1h-.9s-8.7-5-8.7-5c-.9-.5-2.3-.5-3.2,0l-8.8,5.1h-.8v1h0c0,0,0,0,0,0,0,.3.2.6.7.9l8.9,5.2c.9.5,2.3.5,3.2,0l8.9-5.2c.4-.3.7-.6.7-.9Z"/>
                <path class="cls-3" d="M491.2,726.1v-1h-.9s-8.7-5-8.7-5c-.9-.5-2.3-.5-3.2,0l-8.8,5.1h-.8v1h0c0,0,0,0,0,0,0,.3.2.6.7.9l8.9,5.2c.9.5,2.3.5,3.2,0l8.9-5.2c.4-.3.7-.6.7-.9Z"/>
                <path class="cls-3" d="M505.1,718v-1h-.9s-8.7-5-8.7-5c-.9-.5-2.3-.5-3.2,0l-8.8,5.1h-.8v1h0c0,0,0,0,0,0,0,.3.2.6.7.9l8.9,5.2c.9.5,2.3.5,3.2,0l8.9-5.2c.4-.3.7-.6.7-.9Z"/>
                <path class="cls-3" d="M519,709.9v-1h-.9s-8.7-5-8.7-5c-.9-.5-2.3-.5-3.2,0l-8.8,5.1h-.8v1h0c0,0,0,0,0,0,0,.3.2.6.7.9l8.9,5.2c.9.5,2.4.5,3.2,0l8.9-5.2c.4-.3.7-.6.7-.9Z"/>
                <path class="cls-3" d="M532.9,701.8v-1h-.9s-8.7-5-8.7-5c-.9-.5-2.3-.5-3.2,0l-8.8,5.1h-.8v1h0c0,0,0,0,0,0,0,.3.2.6.7.9l8.9,5.2c.9.5,2.3.5,3.2,0l8.9-5.2c.4-.3.7-.6.7-.9Z"/>
                <path class="cls-3" d="M546.8,693.8v-1h-.9s-8.7-5-8.7-5c-.9-.5-2.3-.5-3.2,0l-8.8,5.1h-.8v1h0c0,0,0,0,0,0,0,.3.2.6.7.9l8.9,5.2c.9.5,2.3.5,3.2,0l8.9-5.2c.4-.3.7-.6.7-.9Z"/>
                <path class="cls-3" d="M560.7,685.7v-1h-.9s-8.7-5-8.7-5c-.9-.5-2.3-.5-3.2,0l-8.8,5.1h-.8v1h0c0,0,0,0,0,0,0,.3.2.6.7.9l8.9,5.2c.9.5,2.4.5,3.2,0l8.9-5.2c.4-.3.7-.6.7-.9Z"/>
                <path class="cls-3" d="M574.6,677.6v-1h-.9s-8.7-5-8.7-5c-.9-.5-2.3-.5-3.2,0l-8.8,5.1h-.8v1h0c0,0,0,0,0,0,0,.3.2.6.7.9l8.9,5.2c.9.5,2.3.5,3.2,0l8.9-5.2c.4-.3.7-.6.7-.9Z"/>
                <path class="cls-3" d="M427.6,746.8v-1h-.9s-8.7-5-8.7-5c-.9-.5-2.3-.5-3.2,0l-8.8,5.1h-.8v1h0c0,0,0,0,0,0,0,.3.2.6.7.9l8.9,5.2c.9.5,2.4.5,3.2,0l8.9-5.2c.4-.3.7-.6.7-.9Z"/>
                <path class="cls-3" d="M441.5,738.7v-1h-.9s-8.7-5-8.7-5c-.9-.5-2.3-.5-3.2,0l-8.8,5.1h-.8v1h0c0,0,0,0,0,0,0,.3.2.6.7.9l8.9,5.2c.9.5,2.3.5,3.2,0l8.9-5.2c.4-.3.7-.6.7-.9Z"/>
                <path class="cls-3" d="M455.4,730.7v-1h-.9s-8.7-5-8.7-5c-.9-.5-2.3-.5-3.2,0l-8.8,5.1h-.8v1h0c0,0,0,0,0,0,0,.3.2.6.7.9l8.9,5.2c.9.5,2.4.5,3.2,0l8.9-5.2c.4-.3.7-.6.7-.9Z"/>
                <path class="cls-3" d="M469.4,722.6v-1h-.9s-8.7-5-8.7-5c-.9-.5-2.3-.5-3.2,0l-8.8,5.1h-.8v1h0c0,0,0,0,0,0,0,.3.2.6.7.9l8.9,5.2c.9.5,2.3.5,3.2,0l8.9-5.2c.4-.3.7-.6.7-.9Z"/>
                <path class="cls-3" d="M483.3,714.5v-1h-.9s-8.7-5-8.7-5c-.9-.5-2.3-.5-3.2,0l-8.8,5.1h-.8v1h0c0,0,0,0,0,0,0,.3.2.6.7.9l8.9,5.2c.9.5,2.4.5,3.2,0l8.9-5.2c.4-.3.7-.6.7-.9Z"/>
                <path class="cls-3" d="M497.2,706.4v-1h-.9s-8.7-5-8.7-5c-.9-.5-2.3-.5-3.2,0l-8.8,5.1h-.8v1h0c0,0,0,0,0,0,0,.3.2.6.7.9l8.9,5.2c.9.5,2.3.5,3.2,0l8.9-5.2c.4-.3.7-.6.7-.9Z"/>
                <path class="cls-3" d="M511.1,698.3v-1h-.9s-8.7-5-8.7-5c-.9-.5-2.3-.5-3.2,0l-8.8,5.1h-.8v1h0c0,0,0,0,0,0,0,.3.2.6.7.9l8.9,5.2c.9.5,2.3.5,3.2,0l8.9-5.2c.4-.3.7-.6.7-.9Z"/>
                <path class="cls-3" d="M525,690.3v-1h-.9s-8.7-5-8.7-5c-.9-.5-2.3-.5-3.2,0l-8.8,5.1h-.8v1h0c0,0,0,0,0,0,0,.3.2.6.7.9l8.9,5.2c.9.5,2.3.5,3.2,0l8.9-5.2c.4-.3.7-.6.7-.9Z"/>
                <path class="cls-3" d="M538.9,682.2v-1h-.9s-8.7-5-8.7-5c-.9-.5-2.3-.5-3.2,0l-8.8,5.1h-.8v1h0c0,0,0,0,0,0,0,.3.2.6.7.9l8.9,5.2c.9.5,2.3.5,3.2,0l8.9-5.2c.4-.3.7-.6.7-.9Z"/>
                <path class="cls-3" d="M552.8,674.1v-1h-.9s-8.7-5-8.7-5c-.9-.5-2.3-.5-3.2,0l-8.8,5.1h-.8v1h0c0,0,0,0,0,0,0,.3.2.6.7.9l8.9,5.2c.9.5,2.3.5,3.2,0l8.9-5.2c.4-.3.7-.6.7-.9Z"/>
                <path class="cls-3" d="M566.7,666v-1h-.9s-8.7-5-8.7-5c-.9-.5-2.3-.5-3.2,0l-8.8,5.1h-.8v1h0c0,0,0,0,0,0,0,.3.2.6.7.9l8.9,5.2c.9.5,2.3.5,3.2,0l8.9-5.2c.4-.3.7-.6.7-.9Z"/>
                <path class="cls-3" d="M582.7,655.6h-.9s-8.7-5-8.7-5c-.9-.5-2.3-.5-3.2,0l-10.8,6.3h-.9s0,1,0,1c0,0,0,0,0,.1h0c0,0,0,0,0,0,0,.3.3.6.7.8l8.9,5.2c.9.5,2.4.5,3.2,0l11-6.4c.5-.3.7-.6.7-1h0v-1.1Z"/>
                <path class="cls-3" d="M583.1,721.7v-1h-.8s-8.8-5.1-8.8-5.1c-.7-.4-1.7-.5-2.5-.3-.3,0-.5.2-.8.3l-8.8,5.1h-.8v.4l-61.8,35.9h0s-8.8,5.1-8.8,5.1h-.8v1h0c0,0,0,0,0,0,0,0,0,0,0,0,0,0,0,.1,0,.2,0,0,0,0,0,0,0,0,0,.1,0,.2,0,0,0,0,0,0,0,0,0,0,.1.1,0,0,.2.1.3.2h0s8.9,5.2,8.9,5.2c.2.1.5.2.8.3.3,0,.6,0,.9,0,.6,0,1.2-.1,1.6-.4l8.9-5.2h0l71.3-41.4c.5-.3.7-.6.7-1Z"/>
                <path class="cls-3" d="M401.9,745.6s0,0,0,0v-1h-.6c0,.1,0,0-.1,0l-2.4-1.4c-.9-.5-2.3-.5-3.2,0l-8.2,4.8-1.3.3v1.1c0,.3.3.6.7.9l2.4,1.4c.9.5,2.3.5,3.2,0l8.9-5.2c.4-.3.7-.6.7-.9h0Z"/>
                <path class="cls-3" d="M415.8,737.5s0,0,0,0v-1h-.6c0,.1,0,0-.1,0l-2.4-1.4c-.9-.5-2.3-.5-3.2,0l-8.2,4.8-1.3.3v1.1c0,.3.3.6.7.9l2.4,1.4c.9.5,2.3.5,3.2,0l8.9-5.2c.4-.3.7-.6.7-.9h0Z"/>
                <path class="cls-3" d="M429.7,729.4s0,0,0,0v-1h-.6c0,.1,0,0-.1,0l-2.4-1.4c-.9-.5-2.3-.5-3.2,0l-8.2,4.8-1.3.3v1.1c0,.3.3.6.7.9l2.4,1.4c.9.5,2.3.5,3.2,0l8.9-5.2c.4-.3.7-.6.7-.9h0Z"/>
                <path class="cls-3" d="M443.6,721.3s0,0,0,0v-1h-.6c0,.1,0,0-.1,0l-2.4-1.4c-.9-.5-2.3-.5-3.2,0l-8.2,4.8-1.3.3v1.1c0,.3.3.6.7.9l2.4,1.4c.9.5,2.3.5,3.2,0l8.9-5.2c.4-.3.7-.6.7-.9h0Z"/>
                <path class="cls-3" d="M457.5,713.3h0v-1h-.6c0,.1,0,0-.1,0l-2.4-1.4c-.9-.5-2.3-.5-3.2,0l-8.2,4.8-1.3.3v1.1c0,.3.3.6.7.9l2.4,1.4c.9.5,2.3.5,3.2,0l8.9-5.2c.4-.3.7-.6.7-.9h0Z"/>
                <path class="cls-3" d="M471.4,705.2s0,0,0,0v-1h-.6c0,.1,0,0-.1,0l-2.4-1.4c-.9-.5-2.3-.5-3.2,0l-8.2,4.8-1.3.3v1.1c0,.3.3.6.7.9l2.4,1.4c.9.5,2.3.5,3.2,0l8.9-5.2c.4-.3.7-.6.7-.9h0Z"/>
                <path class="cls-3" d="M485.3,697.1h0v-1h-.6c0,.1,0,0-.1,0l-2.4-1.4c-.9-.5-2.3-.5-3.2,0l-8.2,4.8-1.3.3v1.1c0,.3.3.6.7.9l2.4,1.4c.9.5,2.3.5,3.2,0l8.9-5.2c.4-.3.7-.6.7-.9h0Z"/>
                <path class="cls-3" d="M499.2,689s0,0,0,0v-1h-.6c0,.1,0,0-.1,0l-2.4-1.4c-.9-.5-2.3-.5-3.2,0l-8.2,4.8-1.3.3v1.1c0,.3.3.6.7.9l2.4,1.4c.9.5,2.3.5,3.2,0l8.9-5.2c.4-.3.7-.6.7-.9h0Z"/>
                <path class="cls-3" d="M513.1,680.9h0v-1h-.6c0,.1,0,0-.1,0l-2.4-1.4c-.9-.5-2.3-.5-3.2,0l-8.2,4.8-1.3.3v1.1c0,.3.3.6.7.9l2.4,1.4c.9.5,2.3.5,3.2,0l8.9-5.2c.4-.3.7-.6.7-.9h0Z"/>
                <path class="cls-3" d="M527,672.9s0,0,0,0v-1h-.6c0,.1,0,0-.1,0l-2.4-1.4c-.9-.5-2.3-.5-3.2,0l-8.2,4.8-1.3.3v1.1c0,.3.3.6.7.9l2.4,1.4c.9.5,2.3.5,3.2,0l8.9-5.2c.4-.3.7-.6.7-.9h0Z"/>
                <path class="cls-3" d="M540.9,664.8h0v-1h-.6c0,.1,0,0-.1,0l-2.4-1.4c-.9-.5-2.3-.5-3.2,0l-8.2,4.8-1.3.3v1.1c0,.3.3.6.7.9l2.4,1.4c.9.5,2.3.5,3.2,0l8.9-5.2c.4-.3.7-.6.7-.9h0Z"/>
                <path class="cls-3" d="M554.8,656.7s0,0,0,0v-1h-.6c0,.1,0,0-.1,0l-2.4-1.4c-.9-.5-2.3-.5-3.2,0l-8.2,4.8-1.3.3v1.1c0,.3.3.6.7.9l2.4,1.4c.9.5,2.3.5,3.2,0l8.9-5.2c.4-.3.7-.6.7-.9h0Z"/>
                <path class="cls-3" d="M568.7,648.6h0v-1h-.6c0,.1,0,0-.1,0l-2.4-1.4c-.9-.5-2.3-.5-3.2,0l-8.2,4.8-1.3.3v1.1c0,.3.3.6.7.9l2.4,1.4c.9.5,2.3.5,3.2,0l8.9-5.2c.4-.3.7-.6.7-.9h0Z"/>
                <path class="cls-3" d="M421.8,765.5h-.6c0,0,0,0,0,0l-8.9-5.2c-.9-.5-2.3-.5-3.2,0l-16.5,9.6h-.9v1.1h0c0,0,0,0,0,0,0,.3.2.6.7.9l8.9,5.2c.9.5,2.3.5,3.2,0l16.7-9.7c.4-.3.7-.6.7-.9h0v-1Z"/>
                <path class="cls-3" d="M442.8,769.6h-.6c0,.1,0,.1,0,0l-8.9-5.2c-.9-.5-2.3-.5-3.2,0l-23.2,13.5-1.2.3v1h0c0,.3.2.7.7.9l8.9,5.2c.9.5,2.3.5,3.2,0l23.7-13.8c.4-.3.7-.6.7-.9h0v-1Z"/>
                <path class="cls-3" d="M457,777.8h-.6c0,.1,0,.1,0,.1l-8.9-5.2c-.9-.5-2.3-.5-3.2,0l-23.2,13.5-1.2.3v1h0c0,.3.2.7.7.9l8.9,5.2c.9.5,2.3.5,3.2,0l23.7-13.8c.4-.3.7-.6.7-.9h0v-1Z"/>
                <path class="cls-3" d="M596.8,663.8h-.6c0,0,0,0,0,0l-8.9-5.2c-.9-.5-2.3-.5-3.2,0l-16.8,9.8h-.9v1.1h0c0,0,0,0,0,0,0,.3.2.6.7.9l8.9,5.2c.9.5,2.3.5,3.2,0l17.1-9.9c.4-.3.7-.6.7-.9h0v-1Z"/>
                <path class="cls-3" d="M610.2,672l-8.9-5.2c-.9-.5-2.4-.5-3.2,0l-24,14c-.9.5-.9,1.4,0,1.9l8.9,5.2c.9.5,2.3.5,3.2,0l24-14c.9-.5.9-1.4,0-1.9h0Z"/>
                <path class="cls-3" d="M618.3,693.7s0,0,0,0v-1h-.6c0,.1,0,0-.1,0l-2.4-1.4c-.9-.5-2.3-.5-3.2,0l-8.2,4.8-1.3.3v1.1c0,.3.3.6.7.9l2.4,1.4c.9.5,2.3.5,3.2,0l8.9-5.2c.4-.3.7-.6.7-.9h0Z"/>
                <path class="cls-3" d="M624.8,697.5s0,0,0,0v-1h-.6c0,.1,0,0-.1,0l-2.4-1.4c-.9-.5-2.3-.5-3.2,0l-8.2,4.8-1.3.3v1.1c0,.3.3.6.7.9l2.4,1.4c.9.5,2.3.5,3.2,0l8.9-5.2c.4-.3.7-.6.7-.9h0Z"/>
                <path class="cls-3" d="M470.2,769.8l-8.9-5.2c-.9-.5-2.3-.5-3.2,0l-8.9,5.2c-.9.5-.9,1.4,0,1.9l8.9,5.2c.9.5,2.3.5,3.2,0l8.9-5.2c.9-.5.9-1.4,0-1.9h0Z"/>
              </g>
              <path class="cls-3" d="M388,753.6h0v-1.1l-.6.2s0,0,0,0l-2.4-1.4c-.9-.5-2.3-.5-3.2,0l-10.2,5.9-1.5.4v1.1h0c0,.3.3.6.7.8l2.4,1.4c.9.5,2.4.5,3.2,0l11-6.4c.5-.3.7-.6.7-1Z"/>
              <g>
                <path class="cls-23" d="M399.2,761.1l-8.9-5.2c-.9-.5-2.3-.5-3.2,0l-8.9,5.2c-.9.5-.9,1.4,0,1.9l8.9,5.2c.9.5,2.4.5,3.2,0l8.9-5.2c.9-.5.9-1.4,0-1.9h0Z"/>
                <path class="cls-23" d="M413.1,753l-8.9-5.2c-.9-.5-2.3-.5-3.2,0l-8.9,5.2c-.9.5-.9,1.4,0,1.9l8.9,5.2c.9.5,2.4.5,3.2,0l8.9-5.2c.9-.5.9-1.4,0-1.9h0Z"/>
                <path class="cls-23" d="M427,744.9l-8.9-5.2c-.9-.5-2.3-.5-3.2,0l-8.9,5.2c-.9.5-.9,1.4,0,1.9l8.9,5.2c.9.5,2.4.5,3.2,0l8.9-5.2c.9-.5.9-1.4,0-1.9h0Z"/>
                <path class="cls-23" d="M440.9,736.8l-8.9-5.2c-.9-.5-2.3-.5-3.2,0l-8.9,5.2c-.9.5-.9,1.4,0,1.9l8.9,5.2c.9.5,2.4.5,3.2,0l8.9-5.2c.9-.5.9-1.4,0-1.9h0Z"/>
                <path class="cls-23" d="M454.8,728.7l-8.9-5.2c-.9-.5-2.3-.5-3.2,0l-8.9,5.2c-.9.5-.9,1.4,0,1.9l8.9,5.2c.9.5,2.4.5,3.2,0l8.9-5.2c.9-.5.9-1.4,0-1.9h0Z"/>
                <path class="cls-23" d="M468.7,720.6l-8.9-5.2c-.9-.5-2.3-.5-3.2,0l-8.9,5.2c-.9.5-.9,1.4,0,1.9l8.9,5.2c.9.5,2.3.5,3.2,0l8.9-5.2c.9-.5.9-1.4,0-1.9h0Z"/>
                <path class="cls-23" d="M482.6,712.6l-8.9-5.2c-.9-.5-2.3-.5-3.2,0l-8.9,5.2c-.9.5-.9,1.4,0,1.9l8.9,5.2c.9.5,2.3.5,3.2,0l8.9-5.2c.9-.5.9-1.4,0-1.9h0Z"/>
                <path class="cls-23" d="M496.5,704.5l-8.9-5.2c-.9-.5-2.3-.5-3.2,0l-8.9,5.2c-.9.5-.9,1.4,0,1.9l8.9,5.2c.9.5,2.3.5,3.2,0l8.9-5.2c.9-.5.9-1.4,0-1.9h0Z"/>
                <path class="cls-23" d="M510.4,696.4l-8.9-5.2c-.9-.5-2.3-.5-3.2,0l-8.9,5.2c-.9.5-.9,1.4,0,1.9l8.9,5.2c.9.5,2.3.5,3.2,0l8.9-5.2c.9-.5.9-1.4,0-1.9h0Z"/>
                <path class="cls-23" d="M524.3,688.3l-8.9-5.2c-.9-.5-2.3-.5-3.2,0l-8.9,5.2c-.9.5-.9,1.4,0,1.9l8.9,5.2c.9.5,2.3.5,3.2,0l8.9-5.2c.9-.5.9-1.4,0-1.9h0Z"/>
                <path class="cls-23" d="M538.2,680.2l-8.9-5.2c-.9-.5-2.3-.5-3.2,0l-8.9,5.2c-.9.5-.9,1.4,0,1.9l8.9,5.2c.9.5,2.3.5,3.2,0l8.9-5.2c.9-.5.9-1.4,0-1.9h0Z"/>
                <path class="cls-23" d="M448.8,748.4l-8.9-5.2c-.9-.5-2.3-.5-3.2,0l-8.9,5.2c-.9.5-.9,1.4,0,1.9l8.9,5.2c.9.5,2.3.5,3.2,0l8.9-5.2c.9-.5.9-1.4,0-1.9h0Z"/>
                <path class="cls-23" d="M462.7,740.3l-8.9-5.2c-.9-.5-2.3-.5-3.2,0l-8.9,5.2c-.9.5-.9,1.4,0,1.9l8.9,5.2c.9.5,2.4.5,3.2,0l8.9-5.2c.9-.5.9-1.4,0-1.9h0Z"/>
                <path class="cls-23" d="M476.6,732.2l-8.9-5.2c-.9-.5-2.3-.5-3.2,0l-8.9,5.2c-.9.5-.9,1.4,0,1.9l8.9,5.2c.9.5,2.4.5,3.2,0l8.9-5.2c.9-.5.9-1.4,0-1.9h0Z"/>
                <path class="cls-23" d="M490.5,724.2l-8.9-5.2c-.9-.5-2.3-.5-3.2,0l-8.9,5.2c-.9.5-.9,1.4,0,1.9l8.9,5.2c.9.5,2.3.5,3.2,0l8.9-5.2c.9-.5.9-1.4,0-1.9h0Z"/>
                <path class="cls-23" d="M504.4,716.1l-8.9-5.2c-.9-.5-2.3-.5-3.2,0l-8.9,5.2c-.9.5-.9,1.4,0,1.9l8.9,5.2c.9.5,2.3.5,3.2,0l8.9-5.2c.9-.5.9-1.4,0-1.9h0Z"/>
                <path class="cls-23" d="M518.3,708l-8.9-5.2c-.9-.5-2.3-.5-3.2,0l-8.9,5.2c-.9.5-.9,1.4,0,1.9l8.9,5.2c.9.5,2.3.5,3.2,0l8.9-5.2c.9-.5.9-1.4,0-1.9h0Z"/>
                <path class="cls-23" d="M532.2,699.9l-8.9-5.2c-.9-.5-2.3-.5-3.2,0l-8.9,5.2c-.9.5-.9,1.4,0,1.9l8.9,5.2c.9.5,2.3.5,3.2,0l8.9-5.2c.9-.5.9-1.4,0-1.9h0Z"/>
                <path class="cls-23" d="M546.1,691.8l-8.9-5.2c-.9-.5-2.3-.5-3.2,0l-8.9,5.2c-.9.5-.9,1.4,0,1.9l8.9,5.2c.9.5,2.3.5,3.2,0l8.9-5.2c.9-.5.9-1.4,0-1.9h0Z"/>
                <path class="cls-23" d="M560,683.8l-8.9-5.2c-.9-.5-2.3-.5-3.2,0l-8.9,5.2c-.9.5-.9,1.4,0,1.9l8.9,5.2c.9.5,2.3.5,3.2,0l8.9-5.2c.9-.5.9-1.4,0-1.9h0Z"/>
                <path class="cls-23" d="M573.9,675.7l-8.9-5.2c-.9-.5-2.3-.5-3.2,0l-8.9,5.2c-.9.5-.9,1.4,0,1.9l8.9,5.2c.9.5,2.3.5,3.2,0l8.9-5.2c.9-.5.9-1.4,0-1.9h0Z"/>
                <path class="cls-23" d="M552.1,672.2l-8.9-5.2c-.9-.5-2.3-.5-3.2,0l-8.9,5.2c-.9.5-.9,1.4,0,1.9l8.9,5.2c.9.5,2.4.5,3.2,0l8.9-5.2c.9-.5.9-1.4,0-1.9h0Z"/>
                <path class="cls-23" d="M566,664.1l-8.9-5.2c-.9-.5-2.3-.5-3.2,0l-8.9,5.2c-.9.5-.9,1.4,0,1.9l8.9,5.2c.9.5,2.3.5,3.2,0l8.9-5.2c.9-.5.9-1.4,0-1.9h0Z"/>
                <path class="cls-23" d="M455.5,793.6l-8.9-5.2c-.9-.5-2.3-.5-3.2,0l-8.9,5.2c-.9.5-.9,1.4,0,1.9l8.9,5.2c.9.5,2.4.5,3.2,0l8.9-5.2c.9-.5.9-1.4,0-1.9h0Z"/>
                <path class="cls-23" d="M469.4,785.5l-8.9-5.2c-.9-.5-2.3-.5-3.2,0l-8.9,5.2c-.9.5-.9,1.4,0,1.9l8.9,5.2c.9.5,2.4.5,3.2,0l8.9-5.2c.9-.5.9-1.4,0-1.9h0Z"/>
                <path class="cls-23" d="M483.3,777.4l-8.9-5.2c-.9-.5-2.3-.5-3.2,0l-8.9,5.2c-.9.5-.9,1.4,0,1.9l8.9,5.2c.9.5,2.4.5,3.2,0l8.9-5.2c.9-.5.9-1.4,0-1.9h0Z"/>
                <path class="cls-23" d="M497.2,769.3l-8.9-5.2c-.9-.5-2.3-.5-3.2,0l-8.9,5.2c-.9.5-.9,1.4,0,1.9l8.9,5.2c.9.5,2.3.5,3.2,0l8.9-5.2c.9-.5.9-1.4,0-1.9h0Z"/>
                <path class="cls-23" d="M434.9,756.5l-8.9-5.2c-.9-.5-2.3-.5-3.2,0l-8.9,5.2c-.9.5-.9,1.4,0,1.9l8.9,5.2c.9.5,2.4.5,3.2,0l8.9-5.2c.9-.5.9-1.4,0-1.9h0Z"/>
                <path class="cls-23" d="M582.1,654.8l-8.9-5.2c-.9-.5-2.3-.5-3.2,0l-11,6.4c-.9.5-.9,1.4,0,1.9l8.9,5.2c.9.5,2.4.5,3.2,0l11-6.4c.9-.5.9-1.4,0-1.9h0Z"/>
                <path class="cls-23" d="M582.5,719.8l-8.9-5.2c-.9-.5-2.3-.5-3.2,0l-80.2,46.6c-.9.5-.9,1.4,0,1.9l8.9,5.2c.9.5,2.4.5,3.2,0l80.2-46.6c.9-.5.9-1.4,0-1.9h0Z"/>
                <path class="cls-23" d="M401.2,743.6l-2.4-1.4c-.9-.5-2.3-.5-3.2,0l-8.9,5.2c-.9.5-.9,1.4,0,1.9l2.4,1.4c.9.5,2.3.5,3.2,0l8.9-5.2c.9-.5.9-1.4,0-1.9h0Z"/>
                <path class="cls-23" d="M415.1,735.6l-2.4-1.4c-.9-.5-2.3-.5-3.2,0l-8.9,5.2c-.9.5-.9,1.4,0,1.9l2.4,1.4c.9.5,2.3.5,3.2,0l8.9-5.2c.9-.5.9-1.4,0-1.9h0Z"/>
                <path class="cls-23" d="M429,727.5l-2.4-1.4c-.9-.5-2.3-.5-3.2,0l-8.9,5.2c-.9.5-.9,1.4,0,1.9l2.4,1.4c.9.5,2.3.5,3.2,0l8.9-5.2c.9-.5.9-1.4,0-1.9h0Z"/>
                <path class="cls-23" d="M442.9,719.4l-2.4-1.4c-.9-.5-2.3-.5-3.2,0l-8.9,5.2c-.9.5-.9,1.4,0,1.9l2.4,1.4c.9.5,2.4.5,3.2,0l8.9-5.2c.9-.5.9-1.4,0-1.9h0Z"/>
                <path class="cls-23" d="M456.8,711.3l-2.4-1.4c-.9-.5-2.4-.5-3.2,0l-8.9,5.2c-.9.5-.9,1.4,0,1.9l2.4,1.4c.9.5,2.3.5,3.2,0l8.9-5.2c.9-.5.9-1.4,0-1.9h0Z"/>
                <path class="cls-23" d="M470.7,703.2l-2.4-1.4c-.9-.5-2.4-.5-3.2,0l-8.9,5.2c-.9.5-.9,1.4,0,1.9l2.4,1.4c.9.5,2.3.5,3.2,0l8.9-5.2c.9-.5.9-1.4,0-1.9h0Z"/>
                <path class="cls-23" d="M484.6,695.2l-2.4-1.4c-.9-.5-2.3-.5-3.2,0l-8.9,5.2c-.9.5-.9,1.4,0,1.9l2.4,1.4c.9.5,2.4.5,3.2,0l8.9-5.2c.9-.5.9-1.4,0-1.9h0Z"/>
                <path class="cls-23" d="M498.5,687.1l-2.4-1.4c-.9-.5-2.4-.5-3.2,0l-8.9,5.2c-.9.5-.9,1.4,0,1.9l2.4,1.4c.9.5,2.3.5,3.2,0l8.9-5.2c.9-.5.9-1.4,0-1.9h0Z"/>
                <path class="cls-23" d="M512.4,679l-2.4-1.4c-.9-.5-2.4-.5-3.2,0l-8.9,5.2c-.9.5-.9,1.4,0,1.9l2.4,1.4c.9.5,2.3.5,3.2,0l8.9-5.2c.9-.5.9-1.4,0-1.9h0Z"/>
                <path class="cls-23" d="M526.3,670.9l-2.4-1.4c-.9-.5-2.4-.5-3.2,0l-8.9,5.2c-.9.5-.9,1.4,0,1.9l2.4,1.4c.9.5,2.4.5,3.2,0l8.9-5.2c.9-.5.9-1.4,0-1.9h0Z"/>
                <path class="cls-23" d="M540.3,662.8l-2.4-1.4c-.9-.5-2.4-.5-3.2,0l-8.9,5.2c-.9.5-.9,1.4,0,1.9l2.4,1.4c.9.5,2.3.5,3.2,0l8.9-5.2c.9-.5.9-1.4,0-1.9h0Z"/>
                <path class="cls-23" d="M554.2,654.8l-2.4-1.4c-.9-.5-2.3-.5-3.2,0l-8.9,5.2c-.9.5-.9,1.4,0,1.9l2.4,1.4c.9.5,2.3.5,3.2,0l8.9-5.2c.9-.5.9-1.4,0-1.9h0Z"/>
                <path class="cls-23" d="M568.1,646.7l-2.4-1.4c-.9-.5-2.4-.5-3.2,0l-8.9,5.2c-.9.5-.9,1.4,0,1.9l2.4,1.4c.9.5,2.4.5,3.2,0l8.9-5.2c.9-.5.9-1.4,0-1.9h0Z"/>
                <path class="cls-23" d="M387.3,751.7l-2.4-1.4c-.9-.5-2.3-.5-3.2,0l-11,6.4c-.9.5-.9,1.4,0,1.9l2.4,1.4c.9.5,2.4.5,3.2,0l11-6.4c.9-.5.9-1.4,0-1.9h0Z"/>
                <path class="cls-23" d="M421.1,764.6l-8.9-5.2c-.9-.5-2.3-.5-3.2,0l-16.7,9.7c-.9.5-.9,1.4,0,1.9l8.9,5.2c.9.5,2.3.5,3.2,0l16.7-9.7c.9-.5.9-1.4,0-1.9h0Z"/>
                <path class="cls-23" d="M442.1,768.7l-8.9-5.2c-.9-.5-2.3-.5-3.2,0l-23.7,13.8c-.9.5-.9,1.4,0,1.9l8.9,5.2c.9.5,2.3.5,3.2,0l23.7-13.8c.9-.5.9-1.4,0-1.9h0Z"/>
                <path class="cls-23" d="M456.3,776.9l-8.9-5.2c-.9-.5-2.3-.5-3.2,0l-23.7,13.8c-.9.5-.9,1.4,0,1.9l8.9,5.2c.9.5,2.3.5,3.2,0l23.7-13.8c.9-.5.9-1.4,0-1.9h0Z"/>
                <path class="cls-23" d="M596.2,662.9l-8.9-5.2c-.9-.5-2.3-.5-3.2,0l-17.1,9.9c-.9.5-.9,1.4,0,1.9l8.9,5.2c.9.5,2.3.5,3.2,0l17.1-9.9c.9-.5.9-1.4,0-1.9h0Z"/>
                <path class="cls-23" d="M610.2,671l-8.9-5.2c-.9-.5-2.4-.5-3.2,0l-24,14c-.9.5-.9,1.4,0,1.9l8.9,5.2c.9.5,2.3.5,3.2,0l24-14c.9-.5.9-1.4,0-1.9h0Z"/>
                <path class="cls-23" d="M617.6,691.8l-2.4-1.4c-.9-.5-2.3-.5-3.2,0l-8.9,5.2c-.9.5-.9,1.4,0,1.9l2.4,1.4c.9.5,2.3.5,3.2,0l8.9-5.2c.9-.5.9-1.4,0-1.9h0Z"/>
                <path class="cls-23" d="M624.2,695.6l-2.4-1.4c-.9-.5-2.3-.5-3.2,0l-8.9,5.2c-.9.5-.9,1.4,0,1.9l2.4,1.4c.9.5,2.3.5,3.2,0l8.9-5.2c.9-.5.9-1.4,0-1.9h0Z"/>
                <path class="cls-23" d="M567.3,696l-8.9-5.2c-.9-.5-2.3-.5-3.2,0l-8.9,5.2c-.9.5-.9,1.4,0,1.9l8.9,5.2c.9.5,2.3.5,3.2,0l8.9-5.2c.9-.5.9-1.4,0-1.9h0Z"/>
                <path class="cls-23" d="M581.2,687.9l-8.9-5.2c-.9-.5-2.3-.5-3.2,0l-8.9,5.2c-.9.5-.9,1.4,0,1.9l8.9,5.2c.9.5,2.3.5,3.2,0l8.9-5.2c.9-.5.9-1.4,0-1.9h0Z"/>
                <path class="cls-23" d="M581.5,704.2l-8.9-5.2c-.9-.5-2.3-.5-3.2,0l-8.9,5.2c-.9.5-.9,1.4,0,1.9l8.9,5.2c.9.5,2.3.5,3.2,0l8.9-5.2c.9-.5.9-1.4,0-1.9h0Z"/>
                <path class="cls-23" d="M595.4,696.1l-8.9-5.2c-.9-.5-2.3-.5-3.2,0l-8.9,5.2c-.9.5-.9,1.4,0,1.9l8.9,5.2c.9.5,2.3.5,3.2,0l8.9-5.2c.9-.5.9-1.4,0-1.9h0Z"/>
                <path class="cls-23" d="M609.3,688l-8.9-5.2c-.9-.5-2.3-.5-3.2,0l-8.9,5.2c-.9.5-.9,1.4,0,1.9l8.9,5.2c.9.5,2.3.5,3.2,0l8.9-5.2c.9-.5.9-1.4,0-1.9h0Z"/>
                <path class="cls-23" d="M624.4,679.2l-8.9-5.2c-.9-.5-2.3-.5-3.2,0l-10.1,5.9c-.9.5-.9,1.4,0,1.9l8.9,5.2c.9.5,2.3.5,3.2,0l10.1-5.9c.9-.5.9-1.4,0-1.9h0Z"/>
                <path class="cls-23" d="M539.5,712.2l-8.9-5.2c-.9-.5-2.3-.5-3.2,0l-8.9,5.2c-.9.5-.9,1.4,0,1.9l8.9,5.2c.9.5,2.3.5,3.2,0l8.9-5.2c.9-.5.9-1.4,0-1.9h0Z"/>
                <path class="cls-23" d="M553.4,704.1l-8.9-5.2c-.9-.5-2.3-.5-3.2,0l-8.9,5.2c-.9.5-.9,1.4,0,1.9l8.9,5.2c.9.5,2.3.5,3.2,0l8.9-5.2c.9-.5.9-1.4,0-1.9h0Z"/>
                <path class="cls-23" d="M553.7,720.3l-8.9-5.2c-.9-.5-2.3-.5-3.2,0l-8.9,5.2c-.9.5-.9,1.4,0,1.9l8.9,5.2c.9.5,2.3.5,3.2,0l8.9-5.2c.9-.5.9-1.4,0-1.9h0Z"/>
                <path class="cls-23" d="M567.6,712.3l-8.9-5.2c-.9-.5-2.3-.5-3.2,0l-8.9,5.2c-.9.5-.9,1.4,0,1.9l8.9,5.2c.9.5,2.3.5,3.2,0l8.9-5.2c.9-.5.9-1.4,0-1.9h0Z"/>
                <path class="cls-23" d="M511.7,728.3l-8.9-5.2c-.9-.5-2.4-.5-3.2,0l-8.9,5.2c-.9.5-.9,1.4,0,1.9l8.9,5.2c.9.5,2.3.5,3.2,0l8.9-5.2c.9-.5.9-1.4,0-1.9h0Z"/>
                <path class="cls-23" d="M525.6,720.2l-8.9-5.2c-.9-.5-2.3-.5-3.2,0l-8.9,5.2c-.9.5-.9,1.4,0,1.9l8.9,5.2c.9.5,2.3.5,3.2,0l8.9-5.2c.9-.5.9-1.4,0-1.9h0Z"/>
                <path class="cls-23" d="M525.8,736.5l-8.9-5.2c-.9-.5-2.3-.5-3.2,0l-8.9,5.2c-.9.5-.9,1.4,0,1.9l8.9,5.2c.9.5,2.3.5,3.2,0l8.9-5.2c.9-.5.9-1.4,0-1.9h0Z"/>
                <path class="cls-23" d="M539.8,728.4l-8.9-5.2c-.9-.5-2.3-.5-3.2,0l-8.9,5.2c-.9.5-.9,1.4,0,1.9l8.9,5.2c.9.5,2.3.5,3.2,0l8.9-5.2c.9-.5.9-1.4,0-1.9h0Z"/>
                <path class="cls-23" d="M483.9,744.5l-8.9-5.2c-.9-.5-2.3-.5-3.2,0l-8.9,5.2c-.9.5-.9,1.4,0,1.9l8.9,5.2c.9.5,2.3.5,3.2,0l8.9-5.2c.9-.5.9-1.4,0-1.9h0Z"/>
                <path class="cls-23" d="M497.8,736.4l-8.9-5.2c-.9-.5-2.4-.5-3.2,0l-8.9,5.2c-.9.5-.9,1.4,0,1.9l8.9,5.2c.9.5,2.3.5,3.2,0l8.9-5.2c.9-.5.9-1.4,0-1.9h0Z"/>
                <path class="cls-23" d="M498,752.7l-8.9-5.2c-.9-.5-2.3-.5-3.2,0l-8.9,5.2c-.9.5-.9,1.4,0,1.9l8.9,5.2c.9.5,2.3.5,3.2,0l8.9-5.2c.9-.5.9-1.4,0-1.9h0Z"/>
                <path class="cls-23" d="M511.9,744.6l-8.9-5.2c-.9-.5-2.3-.5-3.2,0l-8.9,5.2c-.9.5-.9,1.4,0,1.9l8.9,5.2c.9.5,2.3.5,3.2,0l8.9-5.2c.9-.5.9-1.4,0-1.9h0Z"/>
                <path class="cls-23" d="M456,760.6l-8.9-5.2c-.9-.5-2.4-.5-3.2,0l-8.9,5.2c-.9.5-.9,1.4,0,1.9l8.9,5.2c.9.5,2.3.5,3.2,0l8.9-5.2c.9-.5.9-1.4,0-1.9h0Z"/>
                <path class="cls-23" d="M470,752.6l-8.9-5.2c-.9-.5-2.4-.5-3.2,0l-8.9,5.2c-.9.5-.9,1.4,0,1.9l8.9,5.2c.9.5,2.3.5,3.2,0l8.9-5.2c.9-.5.9-1.4,0-1.9h0Z"/>
                <path class="cls-23" d="M470.2,768.8l-8.9-5.2c-.9-.5-2.3-.5-3.2,0l-8.9,5.2c-.9.5-.9,1.4,0,1.9l8.9,5.2c.9.5,2.3.5,3.2,0l8.9-5.2c.9-.5.9-1.4,0-1.9h0Z"/>
                <path class="cls-23" d="M484.1,760.7l-8.9-5.2c-.9-.5-2.3-.5-3.2,0l-8.9,5.2c-.9.5-.9,1.4,0,1.9l8.9,5.2c.9.5,2.3.5,3.2,0l8.9-5.2c.9-.5.9-1.4,0-1.9h0Z"/>
                <path class="cls-23" d="M596.4,711.7l-8.9-5.2c-.9-.5-2.3-.5-3.2,0l-8.9,5.2c-.9.5-.9,1.4,0,1.9l8.9,5.2c.9.5,2.3.5,3.2,0l8.9-5.2c.9-.5.9-1.4,0-1.9h0Z"/>
                <path class="cls-23" d="M610.3,703.7l-8.9-5.2c-.9-.5-2.3-.5-3.2,0l-8.9,5.2c-.9.5-.9,1.4,0,1.9l8.9,5.2c.9.5,2.3.5,3.2,0l8.9-5.2c.9-.5.9-1.4,0-1.9h0Z"/>
                <path class="cls-23" d="M638.4,687.3l-8.9-5.2c-.9-.5-2.3-.5-3.2,0l-8.9,5.2c-.9.5-.9,1.4,0,1.9l8.9,5.2c.9.5,2.4.5,3.2,0l8.9-5.2c.9-.5.9-1.4,0-1.9h0Z"/>
              </g>
            </g>
          </g>
        </g>
        <g class="cls-55">
          <polygon class="cls-51" points="557.2 270 557.2 564.4 401.8 654.7 401.8 360.3 557.2 270"/>
          <polygon class="cls-14" points="557.2 360 557.2 375.6 401.8 465.9 401.8 450.3 557.2 360"/>
          <polygon class="cls-14" points="470.6 460.3 470.6 498.6 416.1 530.3 416.1 491.9 470.6 460.3"/>
          <polygon class="cls-14" points="470.6 508.6 470.6 547 416.1 578.6 416.1 540.2 470.6 508.6"/>
          <polygon class="cls-14" points="470.6 556.9 470.6 595.3 416.1 626.9 416.1 588.5 470.6 556.9"/>
          <polygon class="cls-14" points="545 417.2 545 492.9 482.3 529.4 482.3 453.7 545 417.2"/>
          <polygon class="cls-14" points="545 508.1 545 563.9 482.3 600.3 482.3 544.6 545 508.1"/>
          <polygon class="cls-49" points="557.2 270 557.2 365.5 401.8 455.8 401.8 360.3 557.2 270"/>
          <g>
            <g>
              <polygon class="cls-14" points="503.9 367.2 503.9 369.5 497.7 373.1 497.7 378.7 502.2 376.1 502.2 378.5 497.7 381.1 497.7 386.7 503.9 383.1 503.9 385.4 495.7 390.1 495.7 372 503.9 367.2"/>
              <path class="cls-14" d="M507.1,370.9l1,.6h0c.6-.8,1.2-1.4,1.9-1.8h.1c.8-.5,1.6-.7,2.2-.5h.1c.2-.2.4-.5.5-.7.6-.7,1.2-1.3,1.8-1.6h.1c.8-.5,1.6-.6,2.2-.4.7.3,1.1,1.1,1.1,2.1v8.5s-1.9,1.1-1.9,1.1v-8.5c0-.9-.8-1-1.4-.7h-.1c-.5.3-.9,1-1.2,1.5,0,.3-.2.5-.2.7v8.5s-1.9,1.1-1.9,1.1v-8.5c0-.9-.8-1-1.4-.7h-.1c-.5.4-1.3,1.3-1.4,2.2v8.6s-1.9,1.1-1.9,1.1v-10c0,0-.3,0-.6-.2h-.4c0-.1,1.3-2.7,1.3-2.7Z"/>
              <path class="cls-14" d="M521.7,362.5l1,.6h0c.6-.8,1.2-1.4,1.9-1.8h.1c.8-.5,1.6-.7,2.2-.5h.1c.2-.2.4-.5.5-.7.6-.7,1.2-1.3,1.8-1.6h.1c.8-.5,1.6-.6,2.2-.4.7.3,1.1,1.1,1.1,2.1v8.5s-1.9,1.1-1.9,1.1v-8.5c0-.9-.8-1-1.4-.7h-.1c-.5.3-.9,1-1.2,1.5,0,.3-.2.5-.2.7v8.5s-1.9,1.1-1.9,1.1v-8.5c0-.9-.8-1-1.4-.7h-.1c-.5.4-1.3,1.3-1.4,2.2v8.6s-1.9,1.1-1.9,1.1v-10c0,0-.3,0-.6-.2h-.4c0-.1,1.3-2.7,1.3-2.7Z"/>
              <path class="cls-14" d="M543,360.7h.5c0,.1-1,2.5-1,2.5-.2,0-.3,0-.5,0,0,0,0,0-.2,0,0,0-.4-.1-.6-.2h0c-.6.9-1.7,1.7-2.6,2.3l-.6.3c-.9.5-1.6.6-2.2.2-.6-.4-.9-1-.9-2v-1c0-2.1,1.4-4.4,3.2-5.5l.7-.4c.5-.3,1.1-.5,1.6-.7h0c0-.7-.2-1.1-.6-1.2h0c-.2,0-.5,0-.8,0s-.1,0-.2.1l-3.1,2.3-.2-2.1,3.1-2.3c.2-.1.3-.2.5-.3.7-.4,1.4-.5,2-.3.7.3,1.2,1.2,1.2,2.4v5.5s.4.1.7.2ZM540.3,360.9v-1.6s0-.3,0-.3h0c0-.1,0-.3,0-.3-.2,0-.7,0-1.5.5l-.7.4c-.7.4-1.2,1.4-1.2,2.1v1c0,.4.1.6.3.8.2,0,.5,0,.9-.1l.6-.3c.5-.3,1-.7,1.4-1.2h0c0-.2,0-.3.1-.5,0-.1,0-.3.1-.5"/>
            </g>
            <g>
              <path class="cls-47" d="M451.2,365.9c18.6-10.7,33.7-2.1,33.8,19.2,0,21.4-15,47.4-33.5,58.1-18.6,10.7-33.7,2.1-33.8-19.2,0-21.3,15-47.4,33.5-58.1Z"/>
              <g class="cls-53">
                <g>
                  <path class="cls-14" d="M463.6,407.6c0-2,6.7-6.4,11.2-3.9s4.5,7.2,4.6,11.9c.1,4.6.4,7.9.4,7.9,0,0-5.1,7.7-13.7,5.6,0,0,.2-8.6-.7-12-.9-3.4-1.8-6.5-1.8-9.5Z"/>
                  <path class="cls-9" d="M434.8,373.1c-7.5,4.5-8.5,10.6-6.7,19.2,1.8,8.6,3.8,10.6,1.3,14.9-2.5,4.3-7,.5-15.4,6.5-8.3,6,.4,8.5-7.4,14.9-7.8,6.4-10.5,4.1-14,11.8-3.5,7.7,3.8,12.5,8.9,10.5,5.1-2-2.7,15.2,14.3,17.2,17,2,9.3-9.7,25-9.1,15.8.6,25.2-10.4,20-18.1-5.2-7.7,4.7-18.4,9-24.7,4.3-6.3,7-10.2,3.5-16.8-3.5-6.6.7-22.8-13.5-28.8-14.2-6-23.8-3-25,2.5Z"/>
                  <path class="cls-14" d="M446.6,411c-10.2,5.4-18.2,11.4-20.3,18.4-2.8,9.4,3,24.5,6.5,31.7s2.1,21.8.6,24.3c-1.5,2.6,13.9,8.3,28.4,1,14.5-7.3,10.4-11.9,9.2-15.7-1.2-3.8-1.9-19.4-.6-22.1,0,0,7.1-3.8,8.2-9.2,1-5.4-3.4-8.8-4.7-13-1.3-4.2-2.2-20.5-10.8-19.9s-11.7,2.1-16.5,4.6Z"/>
                  <path class="cls-14" d="M434.2,419c3.1-2-2,23.6-3.9,28.5,0,0-6.3.5-9.8-1-4.8-1.9-5.3-7.4-5.3-7.4,0,0,3.9-8,8.4-12.5,4.5-4.4,10-7.2,10.7-7.7Z"/>
                  <path class="cls-2" d="M466,409.4c2.9,1.2,3.8,13.5-4.8,18.8-8.6,5.3-24.2,5.2-29.6,1.2-5.4-4,6.3-12.5,16-17.5,9.7-5,16.2-3.5,18.4-2.5Z"/>
                  <path class="cls-29" d="M453.7,408.4v10.1s-.7,4.1-5.5,4.1-5.7-4.7-5.7-4.7v-10.7l11.2,1.2Z"/>
                  <g>
                    <path class="cls-2" d="M466.6,382.2c1.5,3.8,3.2,10.3,2.7,18.7-.5,8.4-3.7,16.3-7.9,18.1-4.2,1.8-15.3-1.3-21.4-11.5-6-10.3-7.3-19.5-4.2-26.2,3.1-6.6,8.4-9.4,15-8.7,7,.7,13.5,4,15.8,9.6Z"/>
                    <path class="cls-26" d="M453.7,398.2s1.8-2.4,4.4-1.3"/>
                    <path class="cls-26" d="M464,394.1s1.3-2.7,4.1-2.2"/>
                    <circle class="cls-2" cx="434.9" cy="402.1" r="3.4"/>
                    <path class="cls-9" d="M457.1,371.3c2.8.8,15.4,8.9,12.3,26.4,0,0-.9-5.6-6.8-8.1-5.9-2.5-9.7.3-15.6-1.7,0,0,.3,10.3-3.3,14.9-3.6,4.6-.9,8.3-.9,8.3,0,0-5.9,1.3-8.5-4.8-2.7-6.1-6.5-28.1,7.5-34.5,4.5-2,12.7-1.5,15.5-.7Z"/>
                    <path class="cls-46" d="M463,397.9c-1.6.2-1.8,6.6-1,7.1s3.3,1.9,3.6,0c.3-1.9-1.3-7.3-2.6-7.1Z"/>
                    <circle class="cls-9" cx="456.3" cy="401" r="1.3"/>
                    <circle class="cls-9" cx="466.4" cy="396.5" r="1.3"/>
                    <path class="cls-46" d="M455.1,410.5c9.7.1,11.3-4.2,11.3-4.2,0,0,0,4.8-4.4,6-4.7,1.2-6.9-1.8-6.9-1.8Z"/>
                  </g>
                </g>
              </g>
            </g>
          </g>
        </g>
        <g>
          <path class="cls-9" d="M555.1,410.8c-6.7,4-7.6,9.5-6,17.2,1.6,7.7.7,8.8-1.6,12.6s-3.6,1.1-11,6.5c-7.4,5.3.3,7.6-6.6,13.3-6.9,5.7-9.4,3.7-12.5,10.5-3.1,6.9,3.4,11.2,7.9,9.4s-2.4,13.6,12.8,15.3c15.2,1.8,8.3-8.7,22.3-8.2,14.1.5,22.5-9.3,17.8-16.2-4.6-6.9,4.2-16.4,8.1-22,3.9-5.6,6.2-9.1,3.1-15s.6-20.4-12-25.7c-12.7-5.3-21.2-2.7-22.3,2.3Z"/>
          <path class="cls-14" d="M575.1,654.7s2.2,6.4,1.8,9.8c-.4,3.4-2.3,10.4-6.9,2.8-3.7-6-1.2-12.6-2.9-16-1.6-3.3-4.1-3.8-4.1-7s2.4-5.7,2.4-5.7l9.7,16Z"/>
          <path class="cls-2" d="M576.6,628.3c-1,6.1-1.4,12.2-1.2,13.9.3,1.6,0,14.1.6,16.6s-.6,3.4-2.2,3.4c-5.1,0-2.4-6.8-4.6-12.7-1.1-3.1-2.9-4.1-4-5.7-2.2-3.1.8-5.3,1.3-7.6.5-2.5.7-9.7.7-9.7l9.4,1.7Z"/>
          <path class="cls-14" d="M510.8,631.4s1.4,6.6.6,10c-.8,3.4-3.5,10-7.2,2s.3-12.7-1-16.2c-1.2-3.5-3.6-4.3-3.2-7.4.4-3.6,3.1-5.4,3.1-5.4l7.7,17Z"/>
          <path class="cls-2" d="M525.7,613.7c-7.2,3.8-13.2,6-13.2,7.6,0,1.6-1.5,11.7-1.2,14.2s-1,3.3-2.6,3.1c-5.1-.6-1.6-7-3-13.1-.8-3.2-2.4-4.4-3.3-6.1-1.8-3.3.6-6.1,2.8-5.2,3.9,1.4,15.1-8.4,15.1-8.4l5.5,7.9Z"/>
          <path class="cls-33" d="M512.4,622.1c-1.7-.5-2.9-2.2-2.9-4.9,0-1.4.3-3,.9-4.5-2.1,1.2-4.1,1.9-5.4,1.4-.7-.3-1.4-.2-2,.2h0s-2.6,1.7-3.1,5.3c-.4,3.2,2,3.9,3.2,7.4,1.2,3.5-2,9.8,1,16.2,3.7,8.1,6.4,1.4,7.2-2,.5-2,.1-5.3-.2-7.5.2-3.4,1-9.4,1.2-11.7Z"/>
          <path class="cls-5" d="M587,509.9c3.8,2.5,1.1,35.3.8,42.8s-2.1,20.6-2.6,24.6c-.5,4-7.5,49.1-7.7,52.6,0,0-1.7,3.8-5.7,3.5s-5.2-4.2-5.2-4.2c0,0,2-14,2.7-23.3.6-7.6,2.6-16.3,2.5-20.5-.1-4.1-1-48.7-.3-56.4.8-7.7,15.4-19.2,15.4-19.2Z"/>
          <g class="cls-32">
            <polygon class="cls-5" points="582.2 530.5 571.7 583.5 566.6 533.3 582.2 530.5"/>
          </g>
          <g class="cls-50">
            <g>
              <path class="cls-20" d="M516.6,592.9c9.8-5.6,17.7-1.1,17.7,10.1,0,11.2-7.9,24.9-17.6,30.5-9.7,5.6-17.7,1.1-17.7-10.1,0-11.2,7.9-24.9,17.6-30.5Z"/>
              <path class="cls-21" d="M516.5,570.8c20.4-11.8,37-2.4,37.1,21,0,23.4-16.5,51.9-36.8,63.7-20.3,11.7-36.9,2.3-37-21.1,0-23.4,16.5-51.9,36.7-63.6Z"/>
              <path class="cls-21" d="M516.4,543.1c33.7-19.4,61.2-3.9,61.3,34.8.1,38.7-27.2,85.9-60.9,105.3-33.5,19.4-61,3.8-61.1-34.8-.1-38.7,27.2-85.9,60.7-105.2Z"/>
            </g>
          </g>
          <path class="cls-7" d="M523.6,610.7c-.2,1.6-.9,3.3-1.7,4.9,1.2-.6,2.5-1.2,3.8-1.9l-2.1-3Z"/>
          <path class="cls-5" d="M568.7,532.4c-1.2,7.5-3.4,36.7-4.1,46.4-.7,9.8-3.6,15.2-10.4,18.9s-30.2,17.8-32.5,19.9c0,0-1.6.3-4.5-3.7-2.9-4,.2-7.3.2-7.3,8.6-4.7,19.7-14,27.7-18.3,4.6-2.5,5.7-6.2,4.8-11.4-1-5.2-3.5-32.6-1.6-44.5,1.9-11.9,20.5-.1,20.5-.1Z"/>
          <path class="cls-5" d="M559.5,507.9c-3.5,2.1-14.1,9.8-15.3,19.7-1.3,9.9,3.7,14.4,4.4,19.8.7,5.4,34.9-8.8,38.9-19.8,4-11,3.8-22.7-4.8-24.3-8.5-1.6-20.1,2.7-23.2,4.5Z"/>
          <g class="cls-39">
            <path class="cls-41" d="M579,519.6c-7.2,3.1-18.2,2-23.3-1.3-5-3.3-5.8-9.7-5.8-9.7,0,0,38-10.1,39.5-2.9,1.4,6.9-1.2,9.9-10.5,13.9Z"/>
            <rect class="cls-5" x="565.3" y="515.8" width="4.3" height="6.2"/>
            <rect class="cls-5" x="554.9" y="513" width="2.5" height="6.2" transform="translate(355.7 -215.6) rotate(31.8)"/>
            <rect class="cls-5" x="585.3" y="509.5" width="2.5" height="6.2" transform="translate(-157.1 280.7) rotate(-23.8)"/>
          </g>
          <path class="cls-27" d="M581,514s-1.2,1.1-2.2,1.5c-1.4.6-2.8.9-2.8.9v3.8s1.4,0,3.3-.8,1.7-1.3,1.7-1.3v-4Z"/>
          <path class="cls-2" d="M586.2,499.9c.1,3.8,2.1,7.4,2.1,7.4,0,0-1.6,4.1-7,6.9-7.4,3.9-23.7,4.9-26.3-1.9s31.3-12.5,31.3-12.5Z"/>
          <path class="cls-14" d="M565.6,444.7c-9.1,4.8-16.2,10.2-18.1,16.4-2.5,8.4,2.6,21.9,5.8,28.3s1.9,19.4.5,21.7c-1.4,2.3,12.4,7.4,25.4.9,12.9-6.5,9.3-10.6,8.2-14-1.1-3.4-1.7-17.3-.5-19.7,0,0,6.4-3.3,7.3-8.2.9-4.9-3-7.9-4.2-11.6-1.2-3.8-1.9-18.3-9.6-17.8-7.7.5-10.5,1.8-14.7,4.1Z"/>
          <g>
            <path class="cls-2" d="M592.3,446.4c6.2.5,35.2,11.4,39.6,10.3,7.8-2.1,22.6-24.2,27.4-30,4.8-5.7,7.7-8.9,11-7s2.2,6.5-3.4,12.8c-5.6,6.3-22.1,32.4-34.9,33.4-10.7.8-36.2-8.6-36.2-8.6l-3.5-10.9Z"/>
            <path class="cls-14" d="M576.5,445.8c-3.2.5,15.4,14.4,19.6,16.5,0,0,4.4-3.4,5.9-6.5,2-4.1-.9-8.1-.9-8.1,0,0-7.4-3-13-3.2s-10.9,1.2-11.7,1.3Z"/>
          </g>
          <path class="cls-18" d="M586.9,478.2s-14.2,8.7-20.3,9.3"/>
          <path class="cls-2" d="M583,443.2c2.6,1.1,3.4,12-4.3,16.8-7.7,4.8-21.6,4.6-26.4,1.1-4.9-3.6,5.6-11.2,14.3-15.6s14.5-3.1,16.4-2.3Z"/>
          <path class="cls-29" d="M572.5,442.3v9s-.6,3.7-4.9,3.7-5.1-4.2-5.1-4.2v-9.5l10,1.1Z"/>
          <g>
            <path class="cls-2" d="M583.5,418.9c1.4,3.4,2.9,9.2,2.4,16.7s-3.3,14.6-7,16.2c-3.8,1.6-13.7-1.1-19.1-10.3-5.4-9.2-6.5-17.4-3.8-23.3,2.8-5.9,7.5-8.4,13.4-7.8,6.3.6,12,3.6,14.1,8.5Z"/>
            <path class="cls-26" d="M571.9,433.2s1.6-2.2,3.9-1.2"/>
            <path class="cls-26" d="M581.1,429.6s1.2-2.4,3.6-1.9"/>
            <circle class="cls-2" cx="555.2" cy="436.7" r="3"/>
            <path class="cls-9" d="M575,409.2c2.5.7,13.7,8,10.9,23.6,0,0-.8-5-6.1-7.2-5.2-2.3-8.6.3-14-1.5,0,0,.3,9.2-2.9,13.3-3.2,4.1-.8,7.4-.8,7.4,0,0-5.2,1.2-7.6-4.3s-5.8-25.1,6.7-30.7c4-1.8,11.3-1.4,13.8-.6Z"/>
            <path class="cls-46" d="M580.3,433c-1.4.2-1.6,5.9-.9,6.3s2.9,1.7,3.2,0-1.1-6.5-2.3-6.3Z"/>
            <circle class="cls-9" cx="574.2" cy="435.7" r="1.2"/>
            <circle class="cls-9" cx="583.3" cy="431.7" r="1.2"/>
            <path class="cls-46" d="M573.2,444.2c8.7.1,10.1-3.8,10.1-3.8,0,0,0,4.3-3.9,5.3-4.2,1.1-6.2-1.6-6.2-1.6Z"/>
          </g>
          <g>
            <path class="cls-2" d="M554.6,476.1c.4,6.2,2.1,30.1,2.3,34.6s23.2,23.5,29,28.2c5.8,4.7,8.9,7.6,7.1,10.9-1.5,2.8-6.5,2.3-12.9-3.3s-32.7-26.2-32.7-35.6c0-9.4-2.3-33.4-2.3-33.4l9.5-1.4Z"/>
            <path class="cls-14" d="M544,464.3c2.2-2.6,4.2-5,8.2-2.8,4,2.2,2.9,8.7,3,12.8.1,4.1.4,7.1.4,7.1,0,0-4.6,6.9-12.2,5,0,0,.2-7.7-.6-10.7-.8-3-.4-9.4,1.3-11.5Z"/>
          </g>
        </g>
        <g>
          <ellipse class="cls-24" cx="814.5" cy="873.4" rx="62.4" ry="27.9"/>
          <g>
            <path class="cls-2" d="M803.9,866.8s.2,9.4-2.3,11c0,0,1.7,3.6,7.9,2.7,6.2-.9,6.3-3.6,6.3-3.6,0,0-3.1-5.9-3-10.1,0-4.2-8.9,0-8.9,0Z"/>
            <g>
              <path class="cls-5" d="M817.8,882.5s1.8,5.5-3.1,6.9-10.8-1.4-12-3.5-2.7-3.6-4.2-3-2.6,3.3-7.8,2.5c-5.2-.8-12.6-6.4-10-9.3s37.1,6.2,37.1,6.2Z"/>
              <path class="cls-28" d="M814.3,876.6c2.8-.8,3.7,4.2,3.5,5.9s-1.9,4.4-5,4.7c-3,.3-8.3-3.4-11.9-3.3s-5.9,1.1-11.3-.5-10.9-6.4-8.3-8.3c2.6-1.9,15,.5,20.2-1s-.3,4.5,5,5.1,7.8-2.6,7.8-2.6Z"/>
            </g>
            <g>
              <path class="cls-5" d="M839.1,866.5s.9,3.1,0,5.1c-.9,1.9-5.3,2-7,.5s-2.8-7.6-3.8-8.4c-1-.8-4.1.4-8.2-2.7-4.2-3.1-5.6-8.4-3.3-9.9,2.3-1.4,22.4,15.4,22.4,15.4Z"/>
              <path class="cls-28" d="M829.3,853.6c-4.2,0-9.4-5-11.4-3.8-2,1.2-1.9,3.8,0,7.3,1.9,3.5,7.7,3.8,9.4,5.8,1.7,1.9,4.5,7.5,8.1,7,3.6-.5,6-2.7,4.2-6.1-1.9-3.4-4.8-7.8-4.8-7.8l-5.5-2.3Z"/>
              <path class="cls-2" d="M830.5,854.7s-1.1,2.8-1.2,4.4c0,1.6,3.5,6.7,6.9,5.8s3.3-7.5,2-9.5c-1.3-2-7.8-.7-7.8-.7Z"/>
            </g>
            <path class="cls-5" d="M791.3,753s1.6,55.1,1.6,58.9,9.4,51.8,9.3,56.2c0,0,1.5,5.2,7.2,4.8,5.7-.4,6-5.6,6-5.6,0,0-6-53.8-5.6-57.5s2.3-42.1,2.3-42.1l9-4.1s-1.8,35.9-1.6,38.2,8.6,50.9,8.6,53.8c0,0,2.5,3.5,6.2,3.5s5.4-3,5.4-3c0,0-2.4-49-4.5-53.5-2.1-4.5,4.3-43.2,4.9-53.6s-1.2-12.5-1.2-12.5h-23.2l-24.5,16.4Z"/>
            <path class="cls-8" d="M815.8,659.6c-10.6,5.7-25,15.9-26.9,18.4-1.9,2.5,3.7,44.6,2.4,54-1.2,9.4-1.8,21.6-1.8,21.6,0,0,4.3,8.5,12.7,7.2s28.3-10.4,36.2-17.8c7.9-7.5,1.8-18.4,0-25.6-1.8-7.2-.3-27.3,1.3-35.8,1.6-8.5,2.3-27.9-4.2-28.2-6.4-.3-14,3.2-19.7,6.3Z"/>
            <path class="cls-2" d="M801.5,621.9c-4,.2-10.3,4.4-12,10.6-1.7,6.2,0,16.8.8,19.4.8,2.6.6,7.7,6.2,7.2s15.3-4.1,21.2-10c5.8-5.9,5.7-17.5-.5-22.7-5.9-5-10.6-4.8-15.7-4.5Z"/>
            <path class="cls-2" d="M816.1,643.5c-.7,3.3,1.8,14.6,3.9,15.7,2.1,1.1-9.8,7.9-12.9,7,0,0-1.7-12.7-3.3-14.3-1.7-1.7,12.3-8.4,12.3-8.4Z"/>
            <path class="cls-9" d="M817,652.1c3.8-.7,13.3-18.6,4.9-28.7-8.3-10-19.6-4.6-23.9-4.2-4.4.4-8.8.2-9.2,4.9-.4,4.7,1.2,10.1,4,11.5,2.8,1.4-1.8,7.4,3.7,9.1,0,0,1.7-5,4.8-4.1s5.4,7.1.7,7.9c0,0,6.2,5.3,15,3.6Z"/>
            <g>
              <path class="cls-2" d="M850.1,648.5c-.3-7.5-3.3-22-6.2-30-2.9-7.9-4.4-11.2-1.7-13.2,2.7-2,8.2,7.5,10.3,12,2.1,4.5,10.3,28.8,8.3,32.1-2,3.4-10.4,6.4-10.7-1Z"/>
              <path class="cls-8" d="M808,673.4c9.2-12.8,17.1-12.3,21.9-14.9s23-15.4,25.4-16,5,.2,6.6,2.3c1.6,2,.7,6.3-1.8,8.2-2.5,1.8-14.7,15.7-26.3,21.1-11.7,5.5-26.3,0-25.8-.7Z"/>
            </g>
            <path class="cls-38" d="M796.5,671.8s12-17,22.6-18.4c10.5-1.5,15.5-.4,19.7,5,2.5,3.3,2.3,10.5-4.7,13-7,2.5-12.7-2.3-21.1-2.8-8.3-.4-16.4,3.3-16.4,3.3Z"/>
            <g>
              <path class="cls-2" d="M763.2,702.2c-6.9-3-19.4-11-25.7-16.6s-8.8-8.1-11.7-6.3c-2.9,1.8,4.1,10.4,7.5,13.9,3.4,3.6,23.1,20,27,19.3,3.9-.7,9.7-7.4,2.9-10.4Z"/>
              <path class="cls-8" d="M801.7,671.8c-15.2,4-17.6,11.5-21.8,15.1-4.2,3.6-22.7,16-24,18-1.4,2-1.6,4.7-.3,6.9s5.7,2.9,8.3,1.3c2.6-1.6,19.9-8,29.2-17,9.3-8.9,9.5-24.5,8.6-24.3Z"/>
            </g>
          </g>
        </g>
        <g>
          <g>
            <path class="cls-14" d="M830.3,527.1c6.4-3.6,11.5-.6,11.6,6.7l-3.2,1.8c0-2.6-.9-4.5-2.5-5.4-1.6-.9-3.7-.7-5.9.5v-3.6Z"/>
            <g class="cls-37">
              <path class="cls-14" d="M830.3,520c9.7-5.5,17.7-1,17.8,10.2l-3.1,1.8c-.1-9.2-6.6-12.9-14.6-8.4v-3.6Z"/>
              <path class="cls-48" d="M817.3,512.6l43.4-25.1v48.6c.1,0-23.4,13.6-23.4,13.6l-10.3,17.1,1.9-12.3-11.5,6.6v-48.6ZM844.9,532l3.1-1.8c-.1-11.2-8.1-15.7-17.8-10.2v3.6c8-4.5,14.5-.8,14.6,8.4M838.8,535.5l3.2-1.8c-.1-7.3-5.3-10.2-11.6-6.7v3.6c2.2-1.2,4.3-1.4,5.9-.5,1.6.9,2.5,2.8,2.5,5.4M832.6,539.3c1.3-.8,2.4-2.6,2.4-4.1s-1.1-2.1-2.4-1.4c-1.3.8-2.4,2.6-2.4,4.1s1.1,2.1,2.4,1.4"/>
              <path class="cls-14" d="M832.5,533.8c1.3-.8,2.4-.1,2.4,1.4s-1.1,3.4-2.4,4.1c-1.3.8-2.4.2-2.4-1.4s1.1-3.4,2.4-4.1Z"/>
            </g>
          </g>
          <g>
            <path class="cls-14" d="M664.4,490.9c3.9-2.3,7.1-.4,7.1,4s-.3,2.7-.8,4.1l-6.2,17.8c-.3-.5-6.4-10.6-6.4-10.7-.4-.8-.7-1.9-.7-3.1,0-4.5,3.1-9.9,7-12.2ZM664.4,503.9c2.3-1.3,4.2-4.6,4.2-7.3,0-2.7-1.9-3.8-4.2-2.4s-4.2,4.6-4.2,7.3c0,2.7,1.9,3.8,4.2,2.4"/>
            <path class="cls-48" d="M664.4,494.1c2.3-1.3,4.2-.3,4.2,2.4,0,2.7-1.9,6-4.2,7.3-2.3,1.4-4.2.3-4.2-2.4,0-2.7,1.9-6,4.2-7.3Z"/>
            <path class="cls-48" d="M641.2,490.4l46.4-26.8v52c.1,0-25.1,14.6-25.1,14.6l-11,18.3,2.1-13.2-12.3,7.1v-52ZM670.7,499c.5-1.4.8-2.8.8-4.1,0-4.5-3.2-6.3-7.1-4-3.9,2.3-7,7.7-7,12.2s.3,2.3.7,3.1c0,0,6.1,10.1,6.4,10.7l6.2-17.8"/>
          </g>
          <g>
            <path class="cls-48" d="M603.8,317.5l48.9-28.2.2,54.8-26.6,15.3-11.6,19.3,2.2-13.9-12.9,7.5-.2-54.8Z"/>
            <polygon class="cls-14" points="619.7 334.8 619.7 351.2 614.8 354 614.7 337.7 619.7 334.8"/>
            <path class="cls-14" d="M628.4,316.6c.6-.3,1.2-.6,1.8-.4.7.2,1.1,1.2,1.1,2.9v6.3c0,.5.4.7.8.4l7.3-4.2c1.5-.9,2.7-.2,2.7,1.5l-1.7,13.6c-.2,2.3-1.4,4.1-3.5,5.3l-12.9,7.4c-1.5.9-2.7.2-2.7-1.5v-13.4s0,0,.1,0,.1,0,.2-.1c.2-.2,6.1-5.6,6.1-11.6v-5.4c.2-.2.5-.4.8-.5Z"/>
          </g>
          <g>
            <path class="cls-48" d="M755.4,403.5l50.3-29.1.2,56.4-27.4,15.8-7.6,19-2.1-13.4-13.3,7.7-.2-56.4Z"/>
            <path class="cls-14" d="M780.7,424.8c1.2-.7,2.3-.2,2.3,1.2s-1,3.1-2.3,3.8c-1.2.7-2.3.2-2.3-1.2s1-3.1,2.3-3.8Z"/>
            <polygon class="cls-14" points="782.3 405.6 782.4 421.4 779 423.3 778.9 407.5 782.3 405.6"/>
          </g>
          <g>
            <path class="cls-48" d="M733.8,696.6l43.3-25v48.5c.1,0-23.4,13.6-23.4,13.6l3.8,8.7-12.1-3.9-11.4,6.6v-48.5Z"/>
            <path class="cls-14" d="M767,694c.3.4.5.9.5,1.6v13.7c0,.6-.1,1.2-.3,1.9l-7.5-5.3,7.4-11.8Z"/>
            <path class="cls-14" d="M765.9,693.4l-10.3,16.4-10.4-4.4c.4-.5.9-1,1.4-1.2l17.9-10.3c.5-.3,1-.4,1.4-.4Z"/>
            <path class="cls-14" d="M744.1,707.2l7.5,3.2-7.5,14c-.2-.4-.4-.8-.4-1.4v-13.7c0-.7.1-1.4.4-2.1Z"/>
            <path class="cls-14" d="M756.1,711.3l2.4-3.8,7.6,5.4c-.5.6-1,1.1-1.6,1.4l-17.9,10.3c-.6.3-1.1.4-1.6.4l7.6-14.2,2.4,1c.1,0,.3,0,.5,0s.4-.3.5-.5Z"/>
          </g>
          <g class="cls-37">
            <path class="cls-48" d="M597.3,656.2l83-47.9.3,92.9-45.1,26,2.1,24.5-18-15.3-21.9,12.7-.3-92.9Z"/>
            <path class="cls-14" d="M649.9,667.3c-9.6,5.5-13.2,10.8-18.2,23.1,0-1.1.5-21.8,18.2-32v-7.8s14.6,4.2,14.6,4.2l-14.5,20.9v-8.4Z"/>
            <path class="cls-14" d="M653.6,685.4v-7.7s4.3-6.6,4.3-6.6v14.3c0,1.4-.9,3.1-2.1,3.8l-32.8,18.9c-1.2.7-2.2.1-2.2-1.2v-28.5c0-1.4.9-3.1,2.1-3.8l13.6-7.9c-3.3,4.3-4.8,7.6-4.8,7.8l-6.5,3.8v23.5c0,0,28.5-16.4,28.5-16.4Z"/>
          </g>
          <path class="cls-48" d="M439.8,522.8l40.4-23.3v45.3c.1,0-21.8,12.7-21.8,12.7l3.2,11.4-11-6.9-10.7,6.2v-45.3Z"/>
        </g>
        <ellipse class="cls-24" cx="545.9" cy="744" rx="46.8" ry="20.9"/>
      </g>
    </g>
    <g id="Layer_3">
      <text class="cls-44" transform="translate(1194.4 557.1)"><tspan class="cls-11"><tspan x="0" y="0">2000年代以降は、送り手と受け手が流動</tspan></tspan><tspan class="cls-11"><tspan x="0" y="40">化し誰でもがウェブを通して情報を発信</tspan></tspan><tspan class="cls-11" x="0" y="80">できるように変化したウェブ「</tspan><tspan class="cls-54" x="401.8" y="80">Web 2.0</tspan><tspan class="cls-11"><tspan x="0" y="120">」が広まり、 SNSやスマートフォン、ク</tspan></tspan><tspan class="cls-11"><tspan x="0" y="160">ラウドなどのサービスが急速に普及し、</tspan></tspan><tspan class="cls-11"><tspan x="0" y="200">インターネットは人々の生活に不可欠な</tspan></tspan><tspan class="cls-11"><tspan x="0" y="240">ものとなった。</tspan></tspan></text>
      <text class="cls-16" transform="translate(1194.4 383)"><tspan x="0" y="0">WEB2.0 と</tspan><tspan x="0" y="79.2">ソーシャルメディア</tspan></text>
      <g>
        <line class="cls-19" x1="1228.8" y1="154.7" x2="1723.2" y2="154.7"/>
        <circle class="cls-22" cx="1340.8" cy="154.7" r="26.2"/>
        <circle class="cls-13" cx="1463" cy="154.7" r="26.2"/>
        <circle class="cls-22" cx="1585.3" cy="154.7" r="26.2"/>
        <circle class="cls-22" cx="1707.5" cy="154.7" r="26.2"/>
        <circle class="cls-22" cx="1218.5" cy="154.7" r="26.2"/>
        <text class="cls-17" transform="translate(1208.5 168.1)"><tspan x="0" y="0">1</tspan></text>
        <text class="cls-17" transform="translate(1330.7 168.1)"><tspan x="0" y="0">2</tspan></text>
        <text class="cls-34" transform="translate(1453 168.1)"><tspan x="0" y="0">3</tspan></text>
        <text class="cls-17" transform="translate(1575.3 168.1)"><tspan x="0" y="0">4</tspan></text>
        <text class="cls-17" transform="translate(1697.5 168.1)"><tspan x="0" y="0">5</tspan></text>
      </g>
      <text class="cls-15" transform="translate(146 168.1)"><tspan x="0" y="0">インターネット ・ クロニクル</tspan></text>
      <text transform="translate(155.3 362.9)"><tspan class="cls-36"><tspan x="0" y="0">2004</tspan></tspan><tspan class="cls-10"><tspan x="0" y="24">マーク・ザッカーバーグは</tspan></tspan><tspan class="cls-10"><tspan x="0" y="48">Facwebookを創立。</tspan></tspan></text>
      <text transform="translate(155.3 907.2)"><tspan class="cls-36"><tspan x="0" y="0">2011</tspan></tspan><tspan class="cls-10"><tspan x="0" y="24">Facwebook ユーザー数が8億人を突破し、</tspan></tspan><tspan class="cls-10"><tspan x="0" y="48">世界最大のSNSに。</tspan></tspan></text>
    </g>
  </g>
</svg>