<?xml version="1.0" encoding="UTF-8"?>
<svg xmlns="http://www.w3.org/2000/svg" version="1.1" xmlns:xlink="http://www.w3.org/1999/xlink" viewBox="0 0 1000 900">
  <defs>
    <style>
      .cls-1, .cls-2, .cls-3, .cls-4, .cls-5, .cls-6, .cls-7 {
        stroke: #000;
      }

      .cls-1, .cls-2, .cls-4, .cls-5, .cls-6, .cls-8, .cls-7 {
        stroke-miterlimit: 10;
      }

      .cls-1, .cls-8 {
        fill: none;
      }

      .cls-2 {
        stroke-width: 3px;
      }

      .cls-2, .cls-3, .cls-4, .cls-9 {
        fill: #333;
      }

      .cls-10 {
        fill: #fff;
      }

      .cls-3 {
        stroke-linecap: round;
        stroke-linejoin: round;
        stroke-width: 5px;
      }

      .cls-4, .cls-5 {
        stroke-width: 2px;
      }

      .cls-11, .cls-7 {
        fill: #f9db28;
      }

      .cls-5 {
        fill: #b3b3b3;
      }

      .cls-6 {
        fill: #f2f2f2;
      }

      .cls-8 {
        stroke: #f2f2f2;
        stroke-width: 4px;
      }

      .cls-12 {
        clip-path: url(#clippath);
      }

      .cls-13 {
        opacity: .7;
      }
    </style>
    <symbol id="New_Symbol" viewBox="0 0 12 12">
      <circle class="cls-10" cx="6" cy="6" r="6"/>
    </symbol>
    <clipPath id="clippath">
      <circle class="cls-8" cx="740" cy="358.5" r="68.5"/>
    </clipPath>
  </defs>
  <!-- Generator: Adobe Illustrator 28.7.4, SVG Export Plug-In . SVG Version: 1.2.0 Build 166)  -->
  <g>
    <g id="Layer_1">
      <rect x="50" y="-7" width="900" height="951"/>
      <g>
        <use width="12" height="12" transform="translate(282 178.3) scale(.5)" xlink:href="#New_Symbol"/>
        <use width="12" height="12" transform="translate(43.3 215.2) scale(.5)" xlink:href="#New_Symbol"/>
        <use width="12" height="12" transform="translate(204.9 157.7) scale(.5)" xlink:href="#New_Symbol"/>
        <use width="12" height="12" transform="translate(919.5 244) scale(.7)" xlink:href="#New_Symbol"/>
        <use width="12" height="12" transform="translate(774.6 282.1) scale(1)" xlink:href="#New_Symbol"/>
        <use width="12" height="12" transform="translate(246.1 423.2) scale(.9)" xlink:href="#New_Symbol"/>
        <use width="12" height="12" transform="translate(84.5 316.9) scale(1)" xlink:href="#New_Symbol"/>
        <use width="12" height="12" transform="translate(94 337.4) scale(.5)" xlink:href="#New_Symbol"/>
        <use width="12" height="12" transform="translate(185.1 254.6) scale(.5)" xlink:href="#New_Symbol"/>
        <use width="12" height="12" transform="translate(240.8 168.5) scale(.5)" xlink:href="#New_Symbol"/>
        <use width="12" height="12" transform="translate(1.7 226.4) scale(.5)" xlink:href="#New_Symbol"/>
        <use width="12" height="12" transform="translate(46.9 233.3) scale(.5)" xlink:href="#New_Symbol"/>
        <use width="12" height="12" transform="translate(208.3 243.6) scale(.5)" xlink:href="#New_Symbol"/>
        <use width="12" height="12" transform="translate(776.6 384.7)" xlink:href="#New_Symbol"/>
        <use width="12" height="12" transform="translate(601.7 432.3) scale(.5)" xlink:href="#New_Symbol"/>
        <use width="12" height="12" transform="translate(599.8 416.3) scale(.6)" xlink:href="#New_Symbol"/>
        <use width="12" height="12" transform="translate(240.3 386.2) scale(.6)" xlink:href="#New_Symbol"/>
        <use width="12" height="12" transform="translate(264.4 413.8) scale(.6)" xlink:href="#New_Symbol"/>
        <use width="12" height="12" transform="translate(251.8 237.3) scale(.5)" xlink:href="#New_Symbol"/>
        <use width="12" height="12" transform="translate(118.6 198.2) scale(.5)" xlink:href="#New_Symbol"/>
        <use width="12" height="12" transform="translate(992.1 395.3) scale(.5)" xlink:href="#New_Symbol"/>
        <use width="12" height="12" transform="translate(110 166.2) scale(.9)" xlink:href="#New_Symbol"/>
        <use width="12" height="12" transform="translate(999.6 313.2) scale(.5)" xlink:href="#New_Symbol"/>
        <use width="12" height="12" transform="translate(608.7 395.9) scale(.5)" xlink:href="#New_Symbol"/>
        <use width="12" height="12" transform="translate(588.1 396.7) scale(.5)" xlink:href="#New_Symbol"/>
        <use width="12" height="12" transform="translate(538 422.4) scale(.5)" xlink:href="#New_Symbol"/>
        <use width="12" height="12" transform="translate(485.7 470.6) scale(.5)" xlink:href="#New_Symbol"/>
        <use width="12" height="12" transform="translate(417 465.8) scale(.5)" xlink:href="#New_Symbol"/>
        <use width="12" height="12" transform="translate(286.3 461) scale(1.1)" xlink:href="#New_Symbol"/>
        <use width="12" height="12" transform="translate(234.1 481.9) scale(.5)" xlink:href="#New_Symbol"/>
        <use width="12" height="12" transform="translate(228.5 486.3) scale(.5)" xlink:href="#New_Symbol"/>
        <use width="12" height="12" transform="translate(818.7 266.2) scale(.6)" xlink:href="#New_Symbol"/>
        <use width="12" height="12" transform="translate(966.3 335.8) scale(.7)" xlink:href="#New_Symbol"/>
        <use width="12" height="12" transform="translate(685.8 205.5) scale(.5)" xlink:href="#New_Symbol"/>
        <use width="12" height="12" transform="translate(357.1 244) scale(.5)" xlink:href="#New_Symbol"/>
        <use width="12" height="12" transform="translate(668.4 218.1) scale(.5)" xlink:href="#New_Symbol"/>
        <use width="12" height="12" transform="translate(687.3 173.4) scale(.5)" xlink:href="#New_Symbol"/>
        <use width="12" height="12" transform="translate(604.1 204.3) scale(.5)" xlink:href="#New_Symbol"/>
        <use width="12" height="12" transform="translate(638.7 183.9) scale(.5)" xlink:href="#New_Symbol"/>
        <use width="12" height="12" transform="translate(664.2 175.3) scale(.5)" xlink:href="#New_Symbol"/>
        <use width="12" height="12" transform="translate(257.8 193.8) scale(.5)" xlink:href="#New_Symbol"/>
        <use width="12" height="12" transform="translate(224 169.1) scale(.5)" xlink:href="#New_Symbol"/>
        <use width="12" height="12" transform="translate(525.6 254.1) scale(.5)" xlink:href="#New_Symbol"/>
        <use width="12" height="12" transform="translate(586.2 153.6) scale(.5)" xlink:href="#New_Symbol"/>
        <use width="12" height="12" transform="translate(705.1 32.5) scale(.5)" xlink:href="#New_Symbol"/>
        <use width="12" height="12" transform="translate(861.7 107.3) scale(.5)" xlink:href="#New_Symbol"/>
        <use width="12" height="12" transform="translate(968.1 76.4) scale(.5)" xlink:href="#New_Symbol"/>
      </g>
      <g>
        <circle class="cls-6" cx="740" cy="358.5" r="68.5"/>
        <g>
          <g class="cls-12">
            <path d="M689.1,280.9s-12.1,150.7,116.4,127.8c126.5-22.5-48.3,43.3-48.3,43.3l-150.4-30.4,32.8-141.3,49.4.6Z"/>
            <g>
              <circle class="cls-5" cx="793.3" cy="352.7" r="8.5"/>
              <circle class="cls-5" cx="757.3" cy="392.4" r="8.5"/>
              <circle class="cls-5" cx="785.2" cy="376.1" r="4.5"/>
              <circle class="cls-5" cx="747.5" cy="351.6" r="7.8"/>
              <circle class="cls-5" cx="768.3" cy="333.1" r="3.7"/>
              <circle class="cls-5" cx="701.1" cy="339.4" r="14.3"/>
              <circle class="cls-5" cx="740.1" cy="314.6" r="8.5"/>
              <circle class="cls-5" cx="717.2" cy="387.1" r="10.8"/>
            </g>
          </g>
          <circle class="cls-8" cx="740" cy="358.5" r="68.5"/>
        </g>
      </g>
      <g>
        <path class="cls-4" d="M362.1,658.5c10.7,21.1,34,29.1,42.2,30.6,8.2,1.5,188,49.3,205.9,62.8,23.4,17.6,85.1,12.6,122.3,71,39.3,61.6,204.4,128.2,204.4,128.2v-11H2.8V426.7c50.6-27.4,372.5,61.2,372.5,61.2-16.1,23-18,168.2-10.3,192.9,7.7,24.7,7.9,39.9,7.9,39.9"/>
        <path d="M-30.8,531.9s24.9-34.8,40.7-5c15.8,29.8,61.3,85,66.9,147.1,5.4,59.4,9.7,190.9,9.7,190.9,0,0,6.4-227.9,54.6-239.5,48.2-11.6,113-15.8,113-15.8l-126.9-211L-6.4,372.9l-24.3,159Z"/>
        <path d="M354,575.8c-20.1,25.5-39.7,51.8-53.6,81.2-.5,1.1-1.7,3.9-2.2,4.9-.7,1.8-1.8,4.8-2.5,6.6-.5,1.7-1.3,4.5-1.8,6.1-2.8,12.2-8.8,23.3-15.9,33.2-18.8,25.7-43.7,45-63.1,69.8,14.8-27.1,36.3-50.4,50.3-77.6,4.7-9.4,7.9-18.7,8.6-28.1,0-.5.2-1.5.2-2,.4-2.5.7-6.2,1.2-8.6.3-1.4,1-4.9,1.3-6.3,1.2-4.6,2.5-9.6,3.9-14,10-30.8,24.8-59.5,40.4-87.6,5.4-9.7,17.7-13.1,27.3-7.7,10.7,5.9,13.6,20.5,5.9,30h0Z"/>
        <g>
          <path class="cls-2" d="M-43.8-382.8L30.6,31.6c-8.3,81.6-22.4,236.6-12.5,261.6,13.5,34.2,2.1,124.5,11.4,169.4,9.3,44.8,47,54.4,66.5,69.7,19.6,15.3,63.3,26.3,72.6,37.7,9.3,11.4,22.8,33.5,78.6,46.3,55.9,12.8,74-22.8,80.4-30.6,6.4-7.8,25.6-13.9,40.9-30.3,15.3-16.4,51.6-103.2,62.6-124.2,11-21,36.7-58.7,54.8-85.1,18.1-26.3,11.7-48.4,19.2-67.3,7.5-18.9,34.9-40.9,40.2-58.4,0,0,20.8-48,32.5-55.2,11.7-7.2,27.4-1.5,41.9-4.4,10-2,23.9-15.9,26.3-25.1,2.8-10.4.5-18.1,4.6-24.6,5.6-8.7,24.5-8.4,39.3-15.6,6.1-3,11-12.2,14.7-16,12.8-12.8.7-49.1,30.6-47s47-8.6,74-23.5c27-14.9,21.4-40.6,23.5-65.5,2.1-24.9,5-36.3,22.8-48.4,17.8-12.1,44.1-1.4,69.8-27.8,25.6-26.3-4.3-67.2,25.6-129.8,29.9-62.6,1.4-103.1,65.5-120.6H-43.8Z"/>
          <path d="M327.7,585.7c6.4-7.8,25.6-13.9,40.9-30.2,3.3-3.5,7.5-10.3,12.3-19-12.1,18.9-43.7,37.3-54,30.7-2.3-1.4,1-7.9,3.4-19.2,2.4-11.3,5.2-25.4,5.2-25.4-3.3,5.5-5.3,17.1-12.4,24.9-14.5,15.9-8.4,28.3-19,44.1-11.1,16.5-34.8,20.6-56.9,24.7,55.9,12.8,74-22.8,80.4-30.6Z"/>
          <path d="M147.1,509.5s-3.6,7.5-3.8,17.9-2,9.7-9.4,9.9-17.6-21.6-29.1-33.3c-11.5-11.7-26.3-17.1-42.9-15.1-16.2,1.9-27.9-12.5-28.6-13.7,13.1,34.2,45.3,43.4,62.9,57.1,19.6,15.3,63.3,26.3,72.6,37.7-18.7-28.2-20.9-47.2-21.6-60.5Z"/>
          <path d="M362.4,319s3.6-19.2,8.8-33.7c5.2-14.5,10-43.2,10.4-48.6.5-5.5,1.4-14,16.6-19.9,0,0-7.7-.7-12.3,2.7-4.6,3.4-7.6,4.6-11,1.8-3.4-2.8-4-10.1-13.2-6.6-9.3,3.6-12.8,3.2-12.8,3.2,0,0,12.5,9.1,21.1,10.5,8.5,1.4,8.8,13.8,3.7,33.9-5.1,20.2-10.1,32.5-10.8,42-.7,9.5-.5,14.7-.5,14.7Z"/>
          <path d="M289.5,291.8s16.4-3.3,20.1-11.4c0,0-2.1,10-7.6,11.6-5.5,1.7-12.6-.2-12.6-.2Z"/>
          <path d="M337.5,361.5c20.9,6.5,29.2-3.8,32.7-14.2,3.6-10.4-1.9-24.7,0-32.7,0,0-3.1,5.9-3.2,12.9,0,7-11.1,8.2-11.1,8.2,0,0,5.6,5.8,9.4,6.3,3.8.5.9,10.6-1.3,12.6s-4.4,10.4-26.6,7Z"/>
          <path d="M270.8,333.5c-2.5,0-8.1-3.3-12.3-3.3s-10.4-12.3-9-18.7c1.4-6.4,17.3-30.5,26.3-31.1,0,0-5.3,3.3-4.1,8.8,1.2,5.5,5.9,12.1-9.2,16.4-13.8,3.9-8.6,17.8-4.5,21.1,4.4,3.6,12.3,2.9,12.8,6.9Z"/>
          <path d="M267.5,324.7c9-5.5,14.5,5.7,23,15.9,8.5,10.2,22.8,16.4,36.1,17.6,13.3,1.2,16.8-5.7,24-6.2,0,0-.3-6.2-19-.1-18.8,6.1-44.4-19.7-47.4-24.6-3-4.9-7.6-8.2-11.7-5.8-4,2.4-5,3.2-5,3.2Z"/>
          <path d="M337.3,506.6c9.2-3,15.5-10,20.3-13.5,4.7-3.6,18.8-31.7,19.3-37.4.5-5.7,11.2-48.4,12.6-59.8,1.4-11.4-16.1-34.6-15.2-42.7,0,0,5.1,10.2,13.6,15.1,8.5,4.9,21.5,11.6,11.9,29.7-9.6,18.1-12.9,41.7-15,49.2s-15.3,35.8-21.4,43.1c-6.1,7.3-6.5,9.8-8.9,11.8-2.4,2-17.2,4.5-17.2,4.5Z"/>
          <path d="M167.4,442.9c-4.3-4.7-17.6-26.1-17.1-36.5.5-10.4,6.2-23,18.5-39.6,12.3-16.6,23.7-42.5,28.7-47.7,5-5.2,40.8-23.7,51.7-25.4,0,0-22.2,0-33.2,6.8-10.9,6.8-15.7,12.1-24.5,16.8s-6.8,20.1-13.3,27.5c-6.5,7.4-15.2,27.8-21.4,35.5-6.2,7.7-12.2,26.2-8.7,33.3,3.5,7.1,11.8,23.3,15.2,25.9s4,3.4,4,3.4Z"/>
          <path d="M295.7,219.3c5.5-1.1,20.8-12.5,22.8-18,2-5.5.4-10.9-3-16.7,0,0,14.9,11.7,15.4,16.5.5,4.7,18.8-1.4,23.6,3.8,0,0-12,2.5-15.8,9.9-3.8,7.4-15.3,19.1-29,21-13.7,1.9-26.1-1.7-36.7,7.3-10.7,9-29.4-3.1-34.2-11.9-4.7-8.8-42.3-43.8-42.3-43.8,3.6,2.8,32.4,15.5,49.2,28,16.9,12.5,44.5,4.9,50.1,3.9Z"/>
          <path d="M283.6,143.8c-.5-6.6-13.5-23.3-13.5-23.3,0,0,13.9,10.1,15.5,14.7,1.6,4.6-2,8.5-2,8.5Z"/>
          <path d="M422.9,215.8s5.3-1.6,21,0c0,0-10.9-6-14.6-5-3.7,1.1-6.4,5-6.4,5Z"/>
          <path d="M159.9,98.9c-4.1,3-11,17.1-3.6,18.5,10.1-1.1,18.5,30.8,30.1,41.7,4.3,4,14.3,7.5,22.5,11-14.8-8.9-23.8-17.9-21.4-19.8,7.7-6.2,28.6,19.2,42.3,25.8s36.2,12.2,38.3,11c13-7.1-39.5-55.5-48.3-64.1-8.5-8.3-27.6-.8-27.2-7.6.6-10.9,34.1-24.6,54.7-10.1,0,0-30.7-32.2-56.4-9.7-5.6,4.9-11.6,1.1-19.2,4.3-7.6,3.2-11.8-.9-11.8-.9Z"/>
          <path d="M490,291.2c2.1-5.2-2.1-13.6-4.2-8.9-2,4.7-9.5,4.2-9.5,1.7s-3.8-4.2-.5-9.3c3.4-5.2,1-17.9,1-17.9-3.3,13-88.1-16.1-80.4-9.4,10.8,9.5,19.9,19.3,27,25.4,15.9,13.7,34.2,13.3,40.1,17.1,3.9,2.5,10.1,4.3-.4,6.6-10.6,2.3-15.5-1.5-23.9-1.3s-18.5,3-31.8-7.7c3.1,12.6,30.7,19,41.4,21.4,10.7,2.3,8.5,12.5,20.1,13.5,11.6,1.1,20.1-11,21.6-17.1,1.5-6-2.7-8.9-.6-14.1ZM468.4,305.9c-3.1,4-12.7-4.5-12.7-4.5,0,0,13.6,0,16.5-4.7,0,0-.6,5.3-3.7,9.2Z"/>
          <path class="cls-7" d="M383,239.6s20.6-8.8,51-6.6c30.4,2.1,42.3,14.7,42.9,21,.6,6.3-5.6,23.3-10.1,25.5-4.5,2.3-38.6-8.9-53.5-20-14.9-11.2-21.5-16.3-28.1-15.2s-2.3-4.6-2.3-4.6Z"/>
          <path d="M477.7,276.2c3.7-6.2,6.6-15.6,6.2-22.7-.4-7.1-6.7-21.3-11.1-22.9,0,0,11.5,4.3,13,10.6,1.4,5.7,4.3.4,4.6-4,.4-4.4-4.4-9.9-9.9-11.1,0,0,11.2,2,12.5,7.7,1.2,5.7,1.3,11.2,2.5,16.5,1.2,5.2-1.5,12.7-8.2,17.4-5.4,3.9-9.6,8.5-9.6,8.5Z"/>
          <path d="M379.1,252.8s-.6,9,5.4,15.1c5.9,6,8.9,9.5,8.9,9.5,0,0-5.9-3.4-9.7-3.2s-9.2-1.4-9.5-5.4c-.3-4,4.9-16.1,4.9-16.1Z"/>
          <path class="cls-7" d="M168.7,121.6c14.8-.4,27.8-1.7,41.3-.4,13.5,1.2,44.1,12.1,55.2,26,11,13.9,10.7,44.8,13.3,47,0,0-6.3-2.9-10.3-7-4-4.1-20.5-1.8-47.2-22.1-26.7-20.3-30.4-26.3-38.1-31.4-7.7-5.1-6.6-10.7-14.2-12.1Z"/>
          <path d="M125.8,146.9s9.8-3.2,13.3-5.5c3.6-2.3,8.8-12.2,14.1-13.7,0,0-10,1.4-14.8,5.7-4.7,4.3-5.2,9.4-12.6,13.5Z"/>
          <path d="M373.6,179.1s.7-10,3-18.1c2.3-8.2,0-23.7,0-23.7,0,0,10,6.4,7.8,17.1-2.1,10.7-5,11.5-6.6,16.5s-4.2,8.2-4.2,8.2Z"/>
          <path d="M243.5,467.2s26.9-8.4,47.4-1.1c14.8,5.3,21.2,21,21.2,21,0,0-4.7-5.6-13-10.2-6.3-3.5-17.6-8-21.3-8.3-7.2-.6-34.3-1.5-34.3-1.5Z"/>
          <path d="M290.5,380.7c-21.4-9-104.2,6.4-104.2,6.4,0,0,55.4-14.9,78.5-14.3,23,.6,25.7,7.9,25.7,7.9Z"/>
          <path d="M333.3,399.6s-10.1-.2-18.6-4c-8.5-3.8-11.2-8.9-18.3-12.5,0,0,15.7,3.3,21.3,8.2,5.7,4.9,15.6,8.2,15.6,8.2Z"/>
          <path d="M367,451c-1.3-1.8-2.3-6.6-4.8-14.2s-16.7-30.4-23.1-33.8c0,0,19.4,13.4,23.7,28.5,4.3,15.1,4.2,19.6,4.2,19.6Z"/>
          <path d="M357.3,454.4c-5.8.3-9.8-7-13.6-14.1-3.7-7.1-15.1-18.5-27.9-20.5-12.8-2-19.6-7.3-25.3-11.6s-23.1-10.9-43.2-14.2c-20.1-3.4-38.3,2.3-51.6,2.3s-14.2-3.3-17.4-4.5c0,0,2,10.5,9.8,13.5,1.9.7-1.4-3.8,2.1-5,5.2-1.8,12.9-2.5,16.3-3.4,5.7-1.5,31.3-4.2,41.5-1.7,10.2,2.6,22.4,3.5,31.9,10.8s12.6,16.6,25.3,19.1c12.7,2.5,16.8-2.7,23,1.7,6.2,4.4,14.5,15.3,16.4,19.3s5.6,8.6,8.5,9.3c2.9.7,0,11.1,0,11.1,0,0,14.8-12.8,4.2-12.2Z"/>
          <path d="M335.6,462.9c-4.8,3.9-19.1-.4-23.5-4.7-4.4-4.4-26.5-14.5-41.5-17.1s-20.6-4.9-27.8-9.2c-7.2-4.3-40.7-20.4-42.9-24.2,0,0,8.7,8.3,21.9,16.4,13.3,8.1,30.1,18.6,37.7,20.4,7.5,1.8,12.6,8.6,28.9,13,16.4,4.4,44.4,15.7,47.3,5.3Z"/>
          <path d="M292.5,203c-5.8,2.9-32.2,1.9-32.2,1.9,0,0,13.1,6.4,18.6,5.6,5.4-.7,13.7-7.5,13.7-7.5Z"/>
          <path d="M524.1,251.7c5.5-12.8,7.2-40.3-9.2-45.8-16.4-5.5-73.5-7.1-82.7-22.6,0,0,17.5-5.3,20.2,0s21.9,3.4,27.9,3.7c6,.4,13.1.3,16.2,3.4,3.1,3.1,22.3-3.6,30.2-2.5,7.8,1.1,17.4,2.6,18.1,11.6.7,9-5,30.8.1,22.8,0,0-1.5,6.7-20.8,29.5Z"/>
          <path d="M168.2,65.7c26.7-10,71.9-17.3,99.5,15.7,9.1,10.8,21.9,16.4,30,26.9,18.9,24.4,45.4,41.1,54.6,29,0,0-12.3-1.1-17.4-7.5-5.2-6.4-6.4-18.4-9.3-24.7,0,0-3,8.7-6.3,3.9-3.2-4.7-5.6-24.4-14.8-29.4-9.3-5-7.9-27.1-18.1-21.9-10.1,5.2-13.8-20-23.2-23.5s-16.5,0-24-3c-7.5-3-13.3-3.4-23.3-1.4-10,2-21.2,16.4-32.6,26.2-11.4,9.8-15,9.7-15,9.7Z"/>
          <path d="M406.7,162.2c-4.3,7.5-14,13.9-14,13.9,0,0,2.7-20.6,10.1-29.9,0,0,.3,5.2-.7,8s-5.4,9.3-3.1,9.8c2.3.5,7.7-1.8,7.7-1.8Z"/>
          <path d="M433.9,168.5c-10.5-3.1-20.5,15-31.1,16.1,0,0,11.7,1.3,15.5-2.9,3.8-4.3,5.9-8.7,9.3-10.7s6.2-2.5,6.2-2.5Z"/>
          <path class="cls-1" d="M268.2,187.1s6.9-2.1,7.1-10.1"/>
          <path class="cls-1" d="M395.5,235.8c-5.4,7.3,1,11.6,1,11.6"/>
          <path d="M194.5,247.9c-10.3-1.8-31.2-7.4-47.4,9.5-16.2,16.8-33.8,2.1-37.9-11.1-4.1-13.2-4.4-39.1,7.7-43.9,12.1-4.7,22.2-13.2,22.2-13.2h0c6.6-4.7,12.2-12.1,20-10.1,18,4.4,25.1,1.8,25.1,1.8,0,0-14.5-12.1-15.9-21.7-1.6-10.7-8.5-19.8-6.9-26.9,0,0-18,11.7-21.9,19.6-3.9,7.8-9.3,13.7-17.1,19.8-7.8,6-23.2,10.3-29.8,22.4-6.6,12.1-17.9,23.5-18.7,42-.8,18.5-2.4,33.5,12.2,43.7,14.6,10.2,17.3,30.1,28.4,45,3.8,5.1,7.1,44.5,5,53-2.1,8.5-5,18.1-5,18.1,0,0,8.5-16.4,10.6-26.4,2.1-10,5.9-36,9.5-65.7,2.6-21.7,37.4-33,51.7-37.7,23.1-7.6,40.4-14.7,40.4-14.7,0,0-21.9-1.8-32.2-3.5Z"/>
          <path d="M385.7,527.6c16.8-32.5,37.7-81.3,45.6-96.4,11-21,36.7-58.7,54.8-85.1,3-4.3,5.3-8.6,7.1-12.7-23.5,29.5-37.4,10.7-53.9,24.8-16.5,14.1-5.5,34.9-16.4,56.6-6.1,12.2-16.4,52.3-38.9,73.3,0,0,8-2.9,14.1-10.2,6.1-7.4,21.1-41.6,22.8-35.1s-22.4,49.6-35.3,84.8h0Z"/>
          <path d="M372.9,510.6c-1.1,3.2-4.1,9.9-7.8,13.4s-19.3,2-21.9,2.1c0,0,10.5,2.9,13.6,4.8s10.9,3.7,13.4-3.4c2.5-7.1,2.7-17,2.7-17Z"/>
          <path d="M112.1,420.2c-1.2,5.5-1.9,37.5,2.4,41.6,7,6.7,15.3,10.5,15.3,10.5,0,0-18.6-2.2-25.1-7.1s1.2-32.2,2.1-36.3,5.3-8.7,5.3-8.7Z"/>
          <path d="M173.7,45.9c-29.3,22.1-25.3,36.3-34.3,44.4-15.5,14.1-23.8-4.3-30.8,25.4-7,29.5,7.2,52.4-21.2,71.6-18.9,12.7-37.8,39.8-37.8,52.6V-53.2h167.2s-12.8,7.4-24.6,37.2c-11.8,29.9,6.5,43-18.5,61.9Z"/>
          <path d="M84.8,286.3c2,11.7,3.1,33.2-.5,41.7-3.6,8.5,6.3,38.3,7.2,51.9,1,13.7,11.5,30.7,11.5,30.7-8.8-10.8-19.2-20-21.1-31-2-11-16.7-42.9-6.9-57.8,10.2-15.6,9.8-35.6,9.8-35.6Z"/>
        </g>
        <g>
          <path class="cls-2" d="M717.5,986c6.6,11.7,30.4,13,59.7,8.9,29.3-4.1,35-28.7,35-28.7,1.7-4.5,30-9.5,30-9.5,12.8,1.7,36.2,18.9,46.8,20s55.7-6.1,72-33.7c16.3-27.7-3.7-58.6,20-69,23.7-10.4,43.8-39.3,51.9-85.3,8.2-46-46.7-86-48.2-110.5-1.5-24.5-21.1-45.1-30.8-51.2-9.6-6.1-5-48-5.6-59.9-.6-11.9-7-17.2-13.5-21-6.5-3.7-22.6-1.7-42.1-1.1-19.5.6-26.1,20-30.6,30.6-4.5,10.6-2.2,73.5-10.9,89.2s-36.3,46.4-42.3,76c-5.9,29.7-5.2,52.7-5.2,52.7,0,0-23.4,9.6-31.2,25.8-7.8,16.1-45.1,15.6-67.9,46.2-22.8,30.6-24.7,74-19.6,89.6,5.1,15.6,24.2,16.9,32.2,31Z"/>
          <path class="cls-1" d="M843.7,694.7c10.8-11.1,18.6-15.6,28.4-15.9,9.7-.3,30.3-8.9,40.9-16.1"/>
          <path class="cls-1" d="M854,698c7-5,17.8-10.6,22.8-9.8s17.4,2.5,23.5,0,6.9-5.1,9.5-3.6"/>
          <path class="cls-1" d="M803.9,793.5c.6,6.7-6.3,12-7.4,15.1"/>
          <path class="cls-1" d="M801.1,818s36.3-21.9,55.9-26.3c19.7-4.5,52.2-15.9,55.9-23"/>
          <path class="cls-1" d="M946.6,631c3.1,3.1,8.9,10.8-6.7,21.4"/>
          <g>
            <path class="cls-9" d="M865.9,585.5c1.9,5.6,5,36.8,16.4,45.5,5.6,4.2,33.4,9.7,43.1,5.6,9.7-4.2,16.4-25.6,17.8-40.9,1-11.1,1.8-21.6,1.8-21.6"/>
            <path d="M865.9,585.5c1.9,6.3,2.9,13.2,4.7,19.6,2.5,8.5,4.9,17.9,11.4,24.3,3.1,2.6,7.3,3.3,11.1,4.4,6.4,1.5,13,2.5,19.6,2.8,4.7,0,9.8.3,13.8-2.3,3.9-2.8,6.3-7.1,8.4-11.5,2.8-6,4.7-12.4,6.1-18.9,1.4-5.7,2-14,2.8-19.9.4-3.3.8-6.7,1.3-10-.1,3.4-.3,6.7-.4,10.1,0,0-.5,10.1-.5,10.1-.5,10.2-2.7,20.3-6.7,29.7-5.7,12.5-10.8,16.3-24.7,15.5-6.8-.3-13.6-1.5-20.2-3.2-4.9-1.4-10.6-2.9-13.7-7.2-5.3-6.8-7.4-15.5-9.2-23.7-1.5-6.5-2.2-13.4-3.6-19.8h0Z"/>
          </g>
          <path d="M881.9,571.4s3.4,20,19.4,22.8c16,2.7,30.1-3,32.9-9.2s4.3-17.4,4.3-17.4c0,0-4.7,9.6-18.7,9.8s-20.2.9-25.6-.5c-7.7-2-12.3-5.6-12.3-5.6Z"/>
          <g>
            <path class="cls-9" d="M801.1,945c-.4-9.5-2.7-16.6-3.9-30.2-1.3-14.8-6.7-36.3-8.2-47.5-1.5-11.1-5.5-53.7-10.6-60.6-5.1-7-19.3-16.7-35.2-11.5-15.9,5.2-26,19.8-27.1,42.6-1.1,22.8.2,35.7,0,42.1-.4,15.4,1.7,62.5.9,68.1"/>
            <path d="M801.1,945c-.8-10.7-3.8-21.2-4.6-31.9-1.8-14.2-5.4-28.1-7.9-42.2-3.1-19.4-4.2-39.2-9.1-58.2-.7-2.1-1.2-4-2.5-5.6-6.2-7.5-16.2-12.3-25.9-11.8-14,.7-25.8,11.5-30.1,24.6-2.4,6.6-3.3,13.6-3.5,20.7-.3,7.1-.5,14.3-.5,21.4,0,7.1.4,14.4.2,21.5-.2,12.5.3,30.3.3,43,0,7.2.2,14.3-.3,21.5.3-6.1-.4-15.3-.5-21.5-.4-12.8-1.4-30.4-1.4-43,.1-7.1-.4-14.4-.6-21.5,0-14.4-1-29.2,3.6-43.1,4.6-14.2,17.4-25.8,32.6-26.6,11.1-.5,22,4.9,28.8,13.6,1.3,1.9,1.9,4,2.5,6,4.9,19.2,5.8,39.1,8.4,58.6,2.3,14.1,5.7,28.1,7,42.4.5,10.8,3.2,21.3,3.5,32h0Z"/>
          </g>
          <path d="M781.1,874.9c-1.2-8.7-4.3-42-8.3-47.4-4-5.4-15.1-13-27.5-9-12.5,4.1-20.3,15.5-21.2,33.3-.9,17.8.1,27.9,0,32.9,0,0,1.8-35.7,14.1-39.3,12.3-3.6,24-9.4,30.3-3.2,6.3,6.3,12.5,32.6,12.5,32.6Z"/>
          <g>
            <path class="cls-9" d="M855.7,933.7c.7-3,2-8.3,0-12.6s-15.8-25.2-19.7-36.3c-3.9-11.1-14.6-55.4-15.6-66s-11.5-28.2-10.2-39.6c1-9,13.4-21.8,24.5-25.4,11.1-3.6,35.9-4.7,40.9,2.6,5,7.4,14,28.7,16.1,37.4,2,8.7,20.6,33.9,26.7,42.4s32.1,32.6,36.3,50.8"/>
            <path d="M855.7,933.7c.9-3.9,1.6-8.3,0-12.1-1.5-3.1-4.5-7.6-6.3-10.6-6.4-10.6-13.3-21.3-16.4-33.4-3.5-11.9-6.5-24-9.3-36-1.8-8-3.8-16.3-4.7-24.4-2.1-12.4-13.8-30.2-9-42.4,4.1-9.6,13-17.7,22.6-21.8,9.8-3.8,35.7-6.2,43.5,1.9,3.7,5.1,6.2,11.1,8.8,16.8,3.3,7.6,6.3,15.4,8.5,23.4,1.4,3.7,3.5,7.3,5.5,10.8,6.4,10.5,13.6,20.7,20.7,30.7,7.8,9.6,16.5,18.5,23.7,28.6,4.8,6.7,9.4,13.8,11.4,21.9-2.3-8-7.1-14.9-12-21.5-7.5-9.9-16.5-18.5-24.4-28.1-7.4-10-14.7-20-21.4-30.5-2.2-3.6-4.4-7.2-5.9-11.1-2.2-7.9-5.2-15.6-8.5-23.2-2.4-5.3-4.9-10.7-8-15.6-6.3-7.4-32.3-4.9-40.8-1.4-7.3,3-13.7,8.5-18.3,14.9-2.2,3.2-3.9,6.7-3.9,10.7.6,12.4,7.7,23.3,10,35.5,1,8.3,2.7,16.2,4.4,24.3,2.6,12.1,5.5,24.2,8.7,36.1,2.9,12.1,9.3,22.7,15.4,33.5,1.7,3,4.6,7.7,6.1,10.8,1.6,4,.7,8.3-.4,12.3h0Z"/>
          </g>
          <path class="cls-1" d="M829.8,862.4c-3,3.6-9,.8-15.3,8.4-6.3,7.6-9.3,21.9-11.3,26.1-2,4.3-3.9,11.5,2.4,17.8"/>
          <g>
            <path class="cls-9" d="M978.2,836.5s-6.7-11.1-14.5-18.5c-7.8-7.4-21.1-30-23.8-37.5-2.7-7.4-25.5-36.7-30.1-40.1-4.6-3.3-14.3-21.9-12.8-37.1,1.5-15.2,19.7-27.4,25-31.7,5.4-4.3,15.8-3.9,21.7,0s26,24.3,43.8,38c17.8,13.7,36.2,42.6,38.9,47.8,6.6,12.5,8.3,15.6,7.5,23.4"/>
            <path d="M978.2,836.5c-4.2-6.4-8.8-12.6-14.3-17.9-2.8-2.6-5.2-5.7-7.6-8.8-5.7-7.8-10.8-15.9-15.2-24.5-1.7-3.5-2.9-6.9-5.2-10.1-5.2-8-11.1-15.5-17.1-22.9-3-3.6-6-7.4-9.4-10.5-2.4-1.9-4.2-4.5-5.7-7.1-5.7-10.2-9.7-22.2-7.7-34,1.7-7.9,6.9-14.4,12.5-19.9,4.2-4.1,8.9-7.6,13.6-11,7-4.2,16.9-3.3,23.4,1.4,13.3,11.1,25.3,23.5,38.8,34.4,15.4,11.7,27.3,27.3,37.7,43.5,2,3.2,4.1,6.5,5.8,10,3.4,6.8,7.6,13.9,6.2,21.8,1.1-7.9-3.3-14.8-6.9-21.4-1.8-3.4-3.9-6.6-6-9.7-10.8-15.6-22.7-31-38.2-42.3-12.1-9.5-23.2-20.3-34.6-30.4-2.8-2.4-5.5-4.9-9-6-5.9-1.9-13-1.5-17.7,2.9-3.7,2.9-7.6,5.8-10.9,9.1-5.6,5.4-10.9,11.9-12,19.7-1.2,10.6,2.3,21.5,7.4,30.7,1.4,2.4,2.9,4.7,5,6.4,3.7,3.3,6.6,7.2,9.7,11,6,7.6,11.7,15.3,16.9,23.4,3.1,4.8,4.8,10.5,7.7,15.5,3.6,6.7,7.6,13.3,11.9,19.6,2.2,3.1,4.5,6.2,7.2,8.9,5.4,5.5,9.9,11.9,13.8,18.4h0Z"/>
          </g>
          <path class="cls-1" d="M963.8,818c-.7,9.3-17.3,8.9-18.7,33.4"/>
          <path class="cls-1" d="M936.6,774.4c-7.3.2-21.4,15-26.8,36.1"/>
          <path d="M980.7,706.5c-11.9-4.8-29.9-27.9-40.9-25.6-11,2.3-28.3,14.8-27.4,26.9.9,12.1,32.4,51.8,32.4,51.8,0,0-21.2-44.3-16.2-50.2,5-5.9,9.4-15.8,20.3-13.2,11,2.5,31.7,10.3,31.7,10.3Z"/>
          <path d="M846.8,770.5c-15.7,6.9-20.4,17.8-17,34.5,3.3,16.8,9,36,8.1,43.2,0,0,3.4-26.1,4.5-39.6s5.5-20.7,17.9-21,20.5,17.2,27.7,21.8c0,0-11.1-24.7-13.9-30.3-2.7-5.7-10.6-15.8-27.2-8.5Z"/>
        </g>
        <g class="cls-13">
          <g>
            <path class="cls-11" d="M383.4,354.1l.4,1.4-.4.4v.4l6.8-1.8h3.5c0,2.8.3,5.6,1,8.3.7,2.7,1.5,5.3,2.5,7.7.4,5.5,0,10.8-1.2,16-1.2,5.1-1.9,10.3-2.2,15.5l-7-1c-4.3-.3-8,.8-11.1,3.3-3.2,2.5-6.7,3.8-10.6,4.1l-2,5.8-5.4,2.8c-.7,3-1.1,6-1.5,8.7-.3,2.8-1.1,5.6-2.4,8.3l-1-.4v-.4l-.5,1.8c.4.9.3,1.5-.2,2-.5.5-1.1.9-1.7,1.2l-1.5-.5-1-5-.4,1.3c-1,0-1.8.4-2.5,1.1s-1.2,1.5-1.5,2.1h-.3c-1-.9-1.4-2.1-1-3.4.3-1.3.2-2.5-.5-3.4,0-3.6.6-7,1.7-10.2,1.1-3.2,2-6.4,2.7-9.7,0-1.3,0-2.6,0-3.8-2.4-.5-6.4-1.6-11.9-3.3-5.5-1.7-12.6-3.5-21.1-5.7-2.3,0-4.5.2-6.5.7-2,.4-3.8,1.3-5.4,2.5h-.4c.3-6.4-.5-12.4-2.3-18.2-1.8-5.8-2.7-11.7-2.7-17.8l-6.8-10-.4-1v-.3l12.7-.4c4.3,0,8.5.3,12.6.9,4.1.6,8.1,1.6,12.1,3.2h11.2l-.3-13.6c-1.7-2.5-3.6-4.9-5.7-7.2-2.1-2.2-4.3-4.3-6.6-6.2,2.6-.6,5.3-.7,8.1-.4,2.8.3,5.3,0,7.7-1h10.1c3.5,0,6.5.7,9.1,2h.4l2.5.9c.4,8,1,16.3,1.8,25,1.1,0,2.9-.3,5.5-.7,2.6-.4,5.9-1.1,9.9-2h4ZM313.7,368.3v4c1,2.5,1.8,4.9,2.2,7.3.5,2.4.5,5,.2,7.8l-.4,2.2,2-1.7,6-2.3c2,.6,3.9,1,5.9,1.4s3.9.6,6,.9v-3.7c-.4-2.8-1.1-5.3-2.3-7.7-1.2-2.4-2.4-4.9-3.7-7.4l-15.8-.8v.4h.5l-.5-.4ZM382.4,367.4c-2.7.7-5.5.8-8.4.5s-5.6,0-7.9,1.2l-.5,1v24.6l1-1.7h1v-1.4c1.7-.6,3.3-.7,4.9-.4,1.6.3,3.1-.2,4.4-1.4.7-.9,1.3-1.5,2-2,.7-.5,1.5-.5,2.4-.2l2.5.4,1-10.4-2.4-10.1Z"/>
            <path class="cls-11" d="M438.7,336.2l-1.6.4h-.2c-.7,1.3-1.2,2.7-1.3,4.2-.1,1.5-.9,2.9-2.3,4l-.9.9c-2,1.3-4,2.4-6.2,3.2l2.1,1.6v.9l1.2.4c2.3,2.2,3.5,4.9,3.5,8h2.7c0,.1,3.5-1.5,3.5-1.5h4.2l5.4,13.9v3.5l-2.5-2.2-10.1-2.2c-.8,0-1.6-.1-2.5-.2.2.7.5,1.3.9,2v3.4l6.7,1.8c.5,3.2,1.1,6.2,1.8,9.1.7,2.9,1.9,5.7,3.6,8.3l-.9,2.6-2.5,1.3h-2.1l-.4-3-6.3-6.8v3.4c1.1,2,1.7,4.3,1.8,6.7.1,2.5.9,4.7,2.3,6.7l-.3,7c0,2,0,4,.2,5.9.1,1.9.5,3.7,1,5.4v10.4l-.9-.4h-7.1c-2.5,0-4.7.3-6.7.9h-2.9l.3-7.8-.3-7.8c-.6-2.9-.3-5.6.8-8,1.1-2.5,1.7-5,1.7-7.6-.3-2.1-.6-4.2-.9-6.3l-.4,1.1-.9,1.3-1.2.4c-1.7,2-2.7,4.3-3.2,7s-1.2,5.1-2.4,7.4c-2.2,2-4.6,3.3-7.1,3.9-2.5.6-5.2,1.2-8,1.7l-.4-.4,2.1-2.2h.9v-.9l1.3-.4c3.9-5.2,6.9-10.8,9-16.6,2.1-5.9,4.6-11.5,7.7-17-.7-3.2-1.3-6.4-1.8-9.6h-.1c-2.8,2.7-5.1,5.5-6.9,8.6-1.8,3-4,5.9-6.6,8.5l-.3,1.3-2.2.9c0-2.3,0-4.7.2-7.2.1-2.5-.3-4.6-1.4-6.3-1.5-1.4-2.9-2.7-4.5-3.7-1.5-1-3.3-1.7-5.2-2h5.5c1.9,0,3.6-.4,4.9-1.3v-.9h.9l3.4-4.8c3.4-2.3,7.1-4,11-5,0-2,.1-3.9.2-5.7,0-1.7.3-3.4.5-4.9-1.7.8-3.2,1.9-4.6,3.4l-.9,1.7-1.2.4-2.2,4.8-12.6,6.5v-1.3h.9c2.5-5.5,5.2-11.2,8-17.2,2.8-5.9,4.5-12.1,5.1-18.5l2.1-1.3c4.2,1.2,8.2,2.5,12.1,3.9,3.9,1.5,7.7,2.2,11.4,2.3h.1c0-.1.4-.1.4-.1h0c0,.1,1.6,0,1.6,0ZM431.6,389.6l.3-1.3-1.6-.9h-.4l.9,1.7.9.4ZM477.9,397.5c.8-3.5,1.3-7.2,1.4-11.1.1-3.9.2-7.8.2-11.5l-.4-10.4c.9-2.9,1.4-5.9,1.5-9.1.1-3.2.4-6.4.7-9.6l-2.9-2.2v-.9l-1.7-.9-2.5-5.2-2.2-2.2-1.2-3.5-3.4-1.7-.9,1.3-1.2,8.3c1.1,4.9,2.1,9.9,3.1,14.8,1,4.9,1.6,10,1.9,15.2-1.2,3.8-1.6,7.7-1.3,11.7.3,4.1-.3,7.8-1.6,11.3h-.9v.9h-.9c-3.9,6.1-7.4,12.5-10.5,19.3-3.1,6.8-6.2,13.5-9.3,20.2v-2.2c3.4,0,6.6-.7,9.7-2.2,3.1-1.5,6-2.9,8.9-4.3l.9-1.3h.8l1.7-3.9.8-.4,1.7-3,1.3,4.8,2.1,2.2v.9l1.3.4v.9l1.2.4,2.2,1.3,7.9,3.9v.9c2.2,1.2,4.6,2,7.2,2.4,2.5.4,5.2.7,8,.7l2.5-3.5,1.3-.4-1.3.4c-2.5-2-5.3-3.2-8.4-3.5-3.1-.3-5.9-1.5-8.4-3.5-1.2-2.3-2.4-4.6-3.6-7-1.2-2.3-1.7-4.9-1.5-7.8l.4-3.9c-1.4-1.2-2.5-2.5-3.3-4.1-.8-1.6-1.1-3.4-.8-5.4l-.4,2.6ZM464,362.7v-1.7l-4.2-7-1.2-.4c-.9-.9-1.5-1.9-1.7-3-.3-1.2-.7-2.3-1.3-3.5h-2.1l-3.4,1.7-.4.9-2.1,2.2v7.8c.6,1.7.8,3.7.7,5.9-.1,2.2.2,4.1,1,5.9l3.4.9,6-.4,2.9.9,2.5,3.9h.9l3.7,4.3v-1.7c-1.7-2.3-2.7-4.9-3.1-7.6-.4-2.8-.7-5.6-1-8.5l.4-.9h-.4l-.4.4ZM488,346.6l-4.2,2.6c-.6,1.7-.9,3.6-1.1,5.4-.1,1.9-.2,3.8-.2,5.9l.9,6.1c0,2.6-.3,5.1-1,7.6-.7,2.5-1.6,4.7-2.8,6.7h.9v.9h2.9l5.4-4.8c.3-.9.4-1.8.4-2.8s.3-2,.9-2.8l.9-.4c.3-.9.7-1.7,1.2-2.4.5-.7,1.2-1.2,2.1-1.5.6-1.2,1.3-2.2,2.1-3.3.8-1,1.1-2.2.8-3.7l-5.4-13-3.8-.4Z"/>
            <path class="cls-11" d="M588.9,405.1c-1.7.3-3.3.9-4.6,1.7s-2.7,1.7-4.1,2.6l4.8-.9.9-1.7,1.3-1.3c2.6,0,5-.2,7.2-.7s4.1-1.7,5.9-3.7h.9l-2.6,9.1.4,2.6,6.1,3.9,3,3-6.1-1.3-7.8.4c-.6,1.2-1.4,2.2-2.4,3-1,.9-2.1,1.6-3.3,2.2-2.6,0-5.3-.2-8-.7-2.8-.4-5.4-.7-8-.7-6.1.9-12,2.5-17.8,5-5.8,2.5-11.7,4.3-17.8,5.4l-13.5-1.3c-.9,0-1.9,0-3-.2-1.2-.1-2,.2-2.6,1.1h-1.3l-3.9-4.3-1.3-.9v-.9h-2.6c-.9,0-1.6.4-2.2,1.3h-3.5v-1.3l2.2-1.3v-.9l-2.6-.9c0-1.2.2-2.1.7-2.8.4-.7.9-1.5,1.5-2.4v-3.5l-3.5-2.6h-.4c5.2-.6,10.1-.4,14.8.7,4.6,1,9.3,2.1,13.9,3.3,9.9-1.4,19.6-3.3,29.1-5.7,9.6-2.3,19.4-3.8,29.6-4.3l6.5.4h.4l-6.1-1.7ZM583.7,353.3h-7.6c-2.5,0-4.9-.3-7.2-.9h-6.1c-2,0-3.8.6-5.2,1.7v.9l-6.5,2.2-4.8-.4c-2.6-.3-5-.2-7.2.2s-4.3.9-6.3,1.5c-1.7.9-3.4,1.8-5,2.8-1.6,1-3,2.2-4.1,3.7l-.4-7.8-3-.9-3-3h-1.3l-.9-1.3-1.7-.9-1.7-1.7v-.9l-1.7-.9-5.7-8.7h-.9v-.9l-.9-.4-.9-1.7v-.4c3.5-.3,6.8-.1,10,.4,3.2.6,6.2,1.5,9.1,2.6,2.6-.3,5.2-.6,7.8-.9,2.6-.3,5.1-.9,7.4-1.7h47.4l2.6-1.3,4.3-3-1.3,6.1h-.9l-1.3,2.6-1.3.4-.4,1.3-1.7.9-.9,1.3h-.9l-.4.9.9,2.2h.9l.4,1.3-.4,5.7v.9l.9-1.7ZM568.5,384.6h.9l.4.9v2.2h-4.3l-.9,4.3-1.3.9h-17.4l-7.4,2.6c0-1.4-.1-2.8-.4-3.9-.3-1.2-.9-2.2-1.7-3l-.4-1.3-14.8-7h-1.3l3,1.3c2,.3,3.9.1,5.7-.4,1.7-.6,3.5-1,5.2-1.3h19.6c2.6-.6,5.2-1.2,7.8-1.7,2.6-.6,5.2-1.3,7.8-2.2h7.4l-.4,1.7-3.9,3.9-1.3,2.2h-.9l-.9,1.7h-.4v-.9Z"/>
            <path class="cls-11" d="M704.9,368.1l-4.8,4.3,3.5-.9h1.3l-.4,1.3-3,1.3c-3.5-.6-7-1.3-10.4-2.2s-6.8-1.7-10-2.6h-6c-.3,1.5-.7,3.2-1.2,5.2h.2l.9,1.3h.9v.9l1.7,1.7,3.5,2.2v.9l6.1,2.2.9,1.3v.9h.9l1.3,3h.9l4.3,10.4,3,3,3.9,5.7v1.7l-2.6-.4h-2.2v3.9l-1.7,1.3,2.6,3,1.7,2.2c1.2,2.3,2.5,4.2,4,5.5,1.5,1.4,2.9,2.6,4.3,3.8v-.2h.4l.9,1.3h0c0,.1.4.4.4.4v.4l1.7,3.5v.9c-2,.3-3.9.2-5.7-.2s-3.5-.9-5.2-1.5v-.9l-12.2-3.5c-.3-.9-.7-1.7-1.1-2.6s-.7-1.9-.7-3l-3-3.9c-2.9-5.5-6-10.4-9.3-14.8-3.3-4.3-6.3-8.5-9-12.5l-12.5,9.5-3.9,7-3.5,4.3-.9,1.3-3.9,2.2-.4,1.3-1.3.9-2.2,1.3-.4.9-5.1,3.3,4.2-2.4h.4l-1.7,3.5c-2.9.9-5.7,1.9-8.5,3-2.8,1.2-5.4,2.6-8,4.3l-2.6-.9v-.9l-1.7-1.3-4.8,2.6h-.4v-1.3l1.7-1.3v-.9l.9-.4,3.9-6.5,1.3-.4c1.7-4.1,3.3-8.1,4.8-12.2,1.4-4.1,3.6-7.7,6.5-10.9h.9l.4-1.3,1.3-.9.9-.4c4.1-4.6,7.3-9.1,9.7-13.4,2.4-4.3,4.5-8.3,6.3-12.2-2.5.3-5,.8-7.3,1.6l-2.2-1.3c-.3-.6-.5-1.2-.7-1.7-.1-.6-.7-.9-1.5-.9v-1.3c-1.7-1.2-3.8-1.6-6.1-1.3-2.3.3-4.3,0-6.1-.9l-1.7-4.8-8.3-7v-.4l11.3,1.3,2.2,2.2c5.5-.6,10.4-.4,14.7.7,4.3,1,8.2,1.8,11.8,2.5l.4-1c.6-4.6,0-8.8-1.5-12.6-1.6-3.8-3.4-7.5-5.4-11.3v-1.3l.4.4c1.4.3,2.6,0,3.5-.7.9-.7,1.9-1.4,3-2,1.4-.3,2.7-.2,3.7.2,1,.4,2,.9,2.8,1.5l1.3,2.2c2.3-1.4,4.9-2.5,7.6-3.3,2.8-.7,5.4-1.5,8-2.4v7c0,2.3-.3,4.5-.9,6.5l.4,12.1c1.7-.1,5.2-.3,10.4-.5,5.2-.2,11.9-1.6,20-4.2h1.7c-1.5,2.9-2,6-1.7,9.3.3,3.3-.4,6.3-2.2,8.9Z"/>
            <path class="cls-11" d="M330.6,467.3l-.4-.4h-1.3l1.3,3.9c.3,1.5-.1,2.5-1.3,3.3-1.2.7-2.2,1.4-3,2l-.4,2.2-1.3,1.3-5.7,2.6,2.6,8.3,1.3.4c2.6.3,5.1,0,7.4-.7,2.3-.7,4.5-2,6.5-3.7l.9-1.3h1.3v.4h-.9l-.9,2.6h-.9l-6.1,5.7-1.7,3h-.9l-.4,1.7h-.9l-.9,2.2-1.3.9c-2.9,1.7-5.9,3.1-8.9,4.1-3,1-5.9,2.5-8.5,4.6l-4.3,11.3h-.9c-.6,1.5-1.5,2.5-2.6,3.3-1.2.7-2.3,1.5-3.5,2.4h-.9c0-2,.5-4,1.5-5.9,1-1.9,1.8-3.8,2.4-5.9.3-3.5,0-6.7-.9-9.6-.9-2.9-2.5-5.5-4.8-7.8l.9-2.2c1.7.3,3.4.7,5,1.1,1.6.4,3.3.9,5,1.5h2.6l2.2-2.2,1.7-3.5-.9-12.6c-2.6.9-5.2,1.6-7.8,2.2-2.6.6-5.2,1.3-7.8,2.2v.4l2.6-3c-.3-3.2-.9-6.4-2-9.6-1-3.2-2.2-6.2-3.7-9.1v-.9c2.9.9,5.7,2.1,8.3,3.7,2.6,1.6,5.5,2.7,8.7,3.3,4.3.3,8.5,0,12.4-.9s7.6-2.2,11.1-3.9h.4l-.4,2.6ZM307.5,530.4v.9l-2.2,1.3.4,1.7,1.3.4c1.2,2.6,2.4,5.2,3.7,7.8s2.4,5.4,3.3,8.3c0,1.5,0,2.8-.2,3.9-.1,1.2-.8,2.2-2,3l-5.2,10-1.3.4-.9-1.7-3-3.9-1.3-.9-.4-1.3-7.8-1.3v-.9h.9l2.2-2.2.9-.4c3.2-4.1,5.4-8.4,6.5-13,1.2-4.6,2.8-9,4.8-13l.4.9ZM316.2,522.5v-.9l-2.6.9,1.3,2.2,9.1,4.8,3,7.4c.9,1.7,1.9,3.3,3,4.8,1.2,1.5,2.5,2.8,3.9,3.9l3.9-1.7.9-.4c5.5.9,10.8,2.5,15.9,5,5.1,2.5,10.4,4.3,15.9,5.4l4.8-.9c1.4-2.6,2.8-5.4,3.9-8.3,1.2-2.9,2.6-5.7,4.3-8.3h.9c2,4.6,3,9.6,2.8,14.8-.1,5.2,1.1,10.1,3.7,14.8v1.3c-1.5-.3-2.8-.3-3.9,0-1.2.3-2.2,1-3,2.2-5.2-1.2-10.3-2.4-15.2-3.7-4.9-1.3-10-2.4-15.2-3.3l-8.7.4c-4.1-.3-8-.7-11.7-1.3-3.8-.6-7.4-1.7-10.9-3.5-.6-5.5-.9-11-1.1-16.5-.1-5.5-2.2-10.3-6.3-14.3v-1.7l1.3-3ZM376.6,465.1c1.2,0,2.3,0,3.5.2,1.2.1,2-.2,2.6-1.1l1.3-.9h.9l-.4,2.6h-.9l-2.6,4.8c-.3,1.5-.2,2.9.2,4.3.4,1.5.9,2.8,1.5,3.9l-.4,6.1c.3,3.5.3,7.1,0,10.9-.3,3.8.4,7.1,2.2,10l1.3-2.2,1.3-.4c1.7-2.3,3.3-4.7,4.6-7.2,1.3-2.5,2.4-5.1,3.3-8l-.4-.9.9,3.9c.3,4.3.3,8.5,0,12.6-.3,4.1-.9,8.1-1.7,12.2l-7.8.9-6.1-.4v-.9l-4.3-1.7v-.9h-.9l-1.3-3.5.4-3.9-.4-10.9c0-2.6,0-5.2.2-7.8.1-2.6.8-4.9,2-7l-7.4,3.9c-2,.3-4,.1-5.9-.4-1.9-.6-3.7-1.2-5.4-1.7h-2.2c-.3,1.7-.2,3.5.2,5.2s1.1,3.3,2,4.8c.3,3.2,0,6.3-.9,9.3s-2,5.9-3.5,8.5l-1.3,1.3-5.7,6.1v.9l-1.7.4c-2.6-.3-5.1-.7-7.4-1.1-2.3-.4-4.6-.9-7-1.5-1.7,0-3.3,0-4.8.2-1.5.1-2.8.8-3.9,2,2,.3,3.8,0,5.4-1.1,1.6-1,3.3-2,5-2.8l.9-2.2,1.3-.4,1.7-3.9h.9c2.3-3.8,4.3-7.8,6.1-12,1.7-4.2,3-8.5,3.9-12.8,0-2.6-.3-5.1-.9-7.4-.6-2.3-1.5-4.6-2.6-7l.4-3.5c2,.6,4,1.3,5.9,2.2,1.9.9,3.7,1.9,5.4,3,3.8-.9,7.6-1.6,11.5-2.2,3.9-.6,7.6-1.6,11.1-3v.4ZM351.9,529.5c1.7.9,3.5,1.9,5.4,3,1.9,1.2,3.3,2.8,4.1,4.8-.9,1.5-2,2.5-3.3,3-1.3.6-2.7,1.2-4.1,1.7h-2.6c0-1.4-.4-2.6-1.3-3.5s-1.6-1.9-2.2-3l-8.3-5.7-.9-2.2v-.4l13,2.2ZM361,498.6l-1.3,1.3c.9.6,1.8.9,2.8.9h2.8l3,6.5v3h-.9v.9l-4.3,1.7h-2.6l1.3-2.6v-5.4c0-1.9-.4-3.5-1.3-5v-1.3h.4ZM373.6,525.6l.9.4.4,1.7,2.6-.9c2.3.3,4.8.5,7.4.7,2.6.1,4.8,1.1,6.5,2.8v4.1c0,1.3-.6,2.4-1.7,3.3l-.4-2.2c-2.9-.6-5.8-1.3-8.7-2.2-2.9-.9-5.5-2.2-7.8-3.9l.4-2.2.4-1.7Z"/>
            <path class="cls-11" d="M406.5,500.8l1.7,4.3v9.8c0,3.3-.6,6.4-1.7,9.3l-5.7,2.2-5.2-.9c2.6-3.8,4.6-7.7,5.9-11.7,1.3-4.1,2.1-8.4,2.4-13l1.3.9,1.3-.4h.4l-.4-.4ZM423,466.9h2.6l-.4-1.3h-.4v.4l2.2,1.3c1.4,1.5,2.5,3,3,4.8.6,1.7.9,3.5.9,5.2-1.7,9.9-2.8,19.7-3.3,29.6-.4,9.9-2.2,19.4-5.4,28.7,2,4.1,3.1,8.4,3.3,13,.1,4.6,1.2,9,3.3,13v.4l-4.3-1.3-3.5.4h-10.9c0-1.5.2-2.8.7-3.9.4-1.2,1.1-2.2,2-3-.3-1.2-.4-2.5-.2-3.9.1-1.4-.2-2.8-1.1-3.9l.4-2.2-1.3-5.2c0-2.6,0-5.1.2-7.6.1-2.5.5-4.9,1.1-7.2l-.4-3.5v-19.6l.9-2.6c.6-6.1.4-11.9-.7-17.4-1-5.5-3.1-10.7-6.3-15.6v-1.3c2,.9,4.3,1.4,7,1.5,2.6.1,5.1.4,7.4.7l3.5.4ZM432.6,502.5h-.4v.4h1.7l.4.9,2.2.9c.9,1.5,1.7,2.9,2.4,4.3.7,1.5,1.2,3,1.5,4.8l-.9,3.5-4.8,2.6-2.6-.4-2.2-10.9v-3.9l2.6-2.2ZM481.7,467.3h-.9v3.3c0,1-.4,2-1.3,2.8l.9,1.3c.9.6,1.8,1.1,2.8,1.5,1,.4,2.1.8,3.3,1.1,2,0,3.9-.3,5.7-.9,1.7-.6,3.5-1.3,5.2-2.2h1.3c.3,2.9.7,5.7,1.3,8.5.6,2.8,1.2,5.4,1.7,8v2.2c-5.8.3-11.4-.3-17-1.7-5.5-1.4-11-2.9-16.5-4.3h-1.3c-.3,4.9-1.2,9.9-2.6,14.8-1.5,4.9-3.3,9.6-5.7,13.9h-.9c-2,3.8-4.1,7.5-6.3,11.3-2.2,3.8-4.3,7.5-6.3,11.3l-8.3,3.5h-.9v-1.3l1.3-.9v-.9h1.3l5.2-4.8c4.1-8.1,6.7-16.7,7.8-25.6,1.2-9,3.6-17.5,7.4-25.6v-1.3c-3.5,2-7.4,3-11.7,2.8-4.3-.1-8.4.5-12.2,2h-.4c1.4-2.6,2.7-5.3,3.7-8,1-2.8,1.7-5.6,2-8.5,2.3,1.5,4.9,2.2,7.8,2.4,2.9.1,5.7.8,8.3,2,1.4,0,2.9-.2,4.3-.7,1.4-.4,2.8-.9,3.9-1.5l1.7-9.1,14.8.9h.4v3.9ZM474.3,510.8l-.4.4h.4c.9-2.3,1.2-4.8,1.1-7.4-.1-2.6-.2-5.2-.2-7.8,2,1.2,4.3,1.7,7,1.7s5.1.3,7.4.9v5c0,1.6-.4,3-1.3,4.1,0,.9.1,1.7.4,2.4.3.7.7,1.4,1.3,2l1.7-.4,5.7.9,2.2,3v25.6c-.6,3.5-.9,7.2-.9,11.1s-.7,7.5-2.2,10.7h-.4l.9-3.9-.9-3.9-5.7-5.2v-1.3l3-1.3,1.3-2.6c-.6-2-1.1-4.1-1.5-6.3s-.5-4.6-.2-7.2l-3.5-.9v-.9l-2.2-.9h-.9l-.4,3v17.4c-1.2,2.9-2,5.9-2.4,9.1s-.7,6.4-.7,9.6c-1.7.6-3.6.7-5.4.4-1.9-.3-3.6.1-5,1.3l.9-6.5-.4-9.6v-26.5h.9c-1.2,2-2.8,3-5,3s-4.1.3-5.9.9c0,3.2.3,6.2.9,9.1.6,2.9,1.3,5.7,2.2,8.3v4.1c0,1.3-.3,2.5-.9,3.7l-4.3.4v.9l-7,2.2h-.4l3-13-.4-5.2v-20.9l-.4-.4v-4.8c2.3.3,4.5,0,6.5-.7,2-.7,4.1-1.4,6.1-2h7l-.9-1.7Z"/>
            <path class="cls-11" d="M597.2,518.4v.9c.9,0,1.7,0,2.4-.2.7-.1,1.4-.5,2-1.1.3-.9.7-1.6,1.3-2.2s.9-1.3.9-2.2h.9l.9-1.3h1.7l-.4,7.4c-.3,2.3-.2,4.6.2,7,.4,2.3.8,4.5,1.1,6.5v.4l-1.7-2.2-3.9-1.7-6.1,1.3-2.6,3c.3,2.3.9,4.4,2,6.3,1,1.9,1.7,3.8,2,5.9,0,4.3-.7,8.6-2,12.8s-2.5,8.2-3.7,12l-3.5-1.7v-2.6c-5.2-2.3-10.6-3.9-16.1-4.8-5.5-.9-11.2-1.2-17-.9v-.4c4.9.3,9.7.1,14.3-.4,4.6-.6,9-1.6,13-3-2-3.8-3.8-7.5-5.4-11.3-1.6-3.8-2.7-7.7-3.3-11.7l-3.9,2.6c-2.6,0-5-.5-7.2-1.5-2.2-1-4.4-1.7-6.7-2-4.1,0-7.9.7-11.5,2-3.6,1.3-7.5,2.1-11.5,2.4h-19.1l-.4-.4c-2.6-.3-5.1-.3-7.6,0-2.5.3-4.9,1-7.2,2.2v.4l2.6-7-.4-4.3v-4.8l9.6-1.3c4.9-.9,9.6-.3,13.9,1.7,4.3,2,8.8,3.2,13.5,3.5l7.4-.4h20.4c5.2-1.7,10.4-3,15.6-3.7,5.2-.7,10.3-1.8,15.2-3.3h1.3l-.9-1.7ZM566.8,471.9l-.9,1.3.4-1.3,3-1.3h4.1c1.3,0,2.4.4,3.3,1.3,4.9.6,9.6.5,13.9-.2,4.3-.7,8.4-2.7,12.2-5.9h.9c.3,2.9.7,5.7,1.3,8.3.6,2.6,1.4,5.1,2.6,7.4v.9c-2-.9-4.1-1.6-6.1-2.2-2-.6-4.1-1-6.1-1.3-2.6-.3-5-.1-7.2.4-2.2.6-4.3,1.2-6.3,1.7l-4.3-.4h-1.3l1.3.4,4.3,5.2,3,1.3.4.9c3.8,1.5,7.7,2.5,11.7,3.3,4.1.7,8.3.9,12.6.7v.9l-3,1.7-2.6,4.3h-.9l-3,4.3.4,8.7-.4,2.6c-1.7-.3-3.4-.5-5-.7-1.6-.1-3.1-.7-4.6-1.5l-5.2-8.7-1.3-.4-.4-.9-3-1.7v-.9c-.9-.6-1.7-1.2-2.4-1.7-.7-.6-1.2-1.3-1.5-2.2l-20.4-9.1h-.9l-5.2,9.6-3.5,1.7-3.9,3.5-1.7.9c-1.7,2-3.1,4.3-4.1,6.7-1,2.5-2.2,4.9-3.7,7.2l-5.2,3-7.8-1.3-11.7.4h-.9l3.5-3,.9-1.3,1.7-.4c1.7-2.3,3.2-4.8,4.3-7.4,1.2-2.6,2.8-5.1,4.8-7.4l1.7-1.7,10.4-12.2c-1.7,0-3.4.4-5,1.1-1.6.7-3.3,1.2-5,1.5l-12.2-1.3-.4-1.3,3-7.8c.3-2.3.1-4.5-.4-6.5-.6-2-1.7-3.9-3.5-5.7h-.4l.4,1.3,1.3.4v.9h.9l.4,1.3c5.2,1.2,10.7,2.2,16.3,3,5.7.9,11.1,2.2,16.3,3.9l1.3-.9c-.3-1.4-.4-3-.2-4.6.1-1.6-.5-3-2-4.1l-9.6-5.2.9-.4c3.5,0,6.8.2,10,.7,3.2.4,6.4.9,9.6,1.5l10.9-.4h1.3l-3.5,3.9v4.8l1.3.4ZM555.5,551c.3,3.8-.4,7.1-2.2,10v-1.3l-3-.9c-5.2.3-10.5.7-15.9,1.3-5.4.6-10.5,1.9-15.4,3.9h-.4l.9-1.3c-.3-3.2-.3-6.6,0-10.2.3-3.6-.4-6.7-2.2-9.3l-3-1.7v-.9l6.5,1.7c1.7.3,3.3.2,4.8-.2,1.4-.4,2.9-.9,4.3-1.5l8.7.9h7c2.3,0,4.5-.4,6.5-1.3h3.9c-.6,3.5-.7,7.1-.4,10.9ZM544.2,546.7l-2.2.9-2.2-.9h-6.1l-3.5,3.9v2.6l1.7-1.3v-.9l1.7-.4c1.2,0,2.4,0,3.7.2,1.3.1,2.4.7,3.3,1.5h1.7l1.3-2.2-.4-1.7h-.4l1.3-1.7Z"/>
            <path class="cls-11" d="M643.6,491v7c0,2.3-.4,4.5-1.3,6.5h-.9v.9l-5.7-1.7c-4.1.3-8,.6-12,.9-3.9.3-7.6,1.3-11.1,3h-.9c0-4.1-.1-8-.4-11.7-.3-3.8-1.3-7.4-3-10.9v-.9c2,.6,4,1.4,5.9,2.4,1.9,1,4,1.7,6.3,2h8.3c2.9,0,5.5-.4,7.8-1.3h1.7l5.2,3.9ZM640.1,542.3c-.3,4.1-.5,8.1-.7,12.2-.1,4.1-.2,8.1-.2,12.2h-21.7l-.4.4h-1.3l.4-.9v-24.3h20l3.9.4ZM623.6,465.4c1.4,0,2.8.5,3.9,1.5,1.2,1,2.3,1.8,3.5,2.4v.9l1.3.4,1.3,2.6-.9,5.7-6.5,3.5h-2.6c-.3-2.6-.9-5.1-2-7.4-1-2.3-2.2-4.5-3.7-6.5l5.7-3ZM629.2,534.9h-4.1c-1.3,0-2.5-.3-3.7-.9l-1.3-.9v-.9h-.9l.4-3.9,3.9-1.3c2-.3,4.1-.2,6.1.2,2,.4,3.8,1.2,5.2,2.4l-5.7,5.2ZM637.5,518.8v.4l-4.3,2.2h-5.4c-1.9,0-3.6-.4-5-1.3v-.9l-1.3-.4-1.7-3.5v-3h10.9l7,6.5ZM628.8,549.7c-1.5,0-2.8,0-3.9.2-1.2.1-2.3.5-3.5,1.1l.4,3,5.7,6.1c.6,0,1.1,0,1.5-.2.4-.1.8-.5,1.1-1.1l1.3-.4v-.4l-2.6-8.3ZM705.7,471.5l.4,2.2v10l-10.4.9.4,7c1.2,1.2,2.8,1.7,5,1.5,2.2-.1,4.1-.2,5.9-.2.3,2.6.4,5.3.4,8s.3,5.4.9,8v5.7h-54.8l-1.7.9h-.9c0-1.4,0-2.9.2-4.3.1-1.4.5-2.8,1.1-3.9v-9.1c0-2.9-1-5.5-3-7.8v-1.7l10.4-.4v-.9h1.3l.9-1.3v-6.5l-10.4-3v-12.6c4.1,1.7,8.4,2.8,13,3.3,4.6.4,9.1.9,13.5,1.5h22.2l5.7,3ZM701,521.4l-.4,18.3h-13v6.1h20.9c.6,1.7,1.1,3.4,1.5,5,.4,1.6,1.1,3.1,2,4.6v2.2l-19.1-.9h-5.7l.4.4v10l-10,1.3h-4.3v-2c0-.7-.3-1.2-.9-1.5v-10.9h-8.9c-3,0-5.9.3-8.5.9h-3.5v-13.5l7,2.6h9.1c0-1.4.1-2.8.4-3.9.3-1.2.9-2.3,1.7-3.5l-5.7,1.7h-3.9v-18.7h27l3.9-1.3h1.3l8.7,3ZM662.3,495.4c-.9-.3-1.6-.2-2.2.2-.6.4-1,1.1-1.3,2,0,1.5,0,2.9.2,4.3.1,1.5.7,2.8,1.5,3.9h1.7v-10.4ZM687.9,532.7c-1.2-.9-2.5-1.3-4.1-1.3s-3-.4-4.1-1.3l-13.5.4.4,1.7,13,3h10.4l-2.2-2.6ZM684.2,523.6c-1.6,0-3-.3-4.1-.9l-10.4.4,2.2,3.5h15.2v-.4c-.3-1.7-1.2-2.6-2.8-2.6ZM681.4,485.4l-1.3-2.2c-1.5-.3-2.8-.2-4.1.2s-2.5,1.1-3.7,2l.9,3.5,4.3,3.5h2.6l1.3-7ZM683.6,507.1h1.7l-.4-11.7c-2,0-4,0-5.9.2-1.9.1-3.6.7-5,1.5,0,1.7.2,3.3.7,4.8.4,1.5,1.1,2.9,2,4.3l7,.9ZM701.4,506.2c.3-1.4.1-2.8-.4-4.1-.6-1.3-1.2-2.5-1.7-3.7h-2.2l-2.6,3,.9,4.3,2.2,1.3.4.9h.4l3-1.7Z"/>
          </g>
        </g>
        <path d="M950,50v800H50V50h900M1000,0H0v900h1000V0h0Z"/>
      </g>
      <g>
        <path class="cls-3" d="M7.8,678.4s40.6-50.3,55.2-60.3c14.6-10,3-32.4,33.9-41.6,30.9-9.1,26.3,5.8,65.3-2.2,39-8.1,46.6-14.3,55.3-4.9,8.6,9.4,8.8,20.2,4.7,29.9-4.1,9.7-21.3,36.7-43.2,49.2-21.9,12.5-38.5,6.2-41,8.6-18.7,18.2-13.3,41-21.1,50.7,0,0,20.3,16.4,36.4,13.5,16.1-2.9,40-12.5,74.8-14.1,34.8-1.7,83.7-35.6,99.5-35.8,15.8-.2,56.8-35.2,74.6-41.9,17.8-6.7,48.7-23.5,65.3-24.4s26.8,19.4,29,26c2.2,6.6,3.6,20.4-9,28.6-12.6,8.2-34.4,29.3-47,35-12.6,5.7-38,24.9-50.7,40.8-12.7,15.9-13.3,24.1-41.5,30.1s-36.5.4-62.1,13.7c-25.6,13.3-55.8,31.9-55.8,31.9,0,0,131.6,1.5,138.8-1.2s12.5-8.5,17.6-8.2,26.5-34.6,52-43.7c0,0,22-31.2,48.5-48.9,26.5-17.7,54.7-21.8,64-11.7s19.8,23.1,5.5,34.9-41.8,59.4-43.1,60.7c0,0,31.6-7.3,36.2,8.5,4.6,15.8-3.9,23.9-10.8,30-6.9,6.1-21.1,27.4-21.1,27.4,0,0,16.8,3.7,12.3,14.6-4.4,10.9-14,28.4-27.3,36.7-13.3,8.3-23.4,37-42.9,41.8-19.5,4.8-58.5,46.2-86.8,50.1-28.3,3.9-254.2,66.6-316.8,45.7-62.6-20.9-80.3-337-80.3-337l31.8-32.8Z"/>
        <path d="M125.9,731.8c9.9,6.3,82.5.8,106.5-11.9,24-12.7,44.8-18.6,44.8-18.6,0,0-72.1,37.8-75.3,39.5-13.8,7.2-50,7.4-58.6,4.3-8.6-3.1-17.3-13.3-17.3-13.3Z"/>
        <path d="M510.9,805.1s24.3-5.6,27.9,6.6c3.6,12.2-3,18.4-8.4,23.1-5.3,4.7-16.2,21.1-16.2,21.1,0,0,12.4-18.6,13.7-27.9,2.1-15.3-17-22.9-17-22.9Z"/>
        <path d="M494.1,715.7c19.4-12.9,40.1-15.9,46.9-8.6,6.8,7.4,14.5,16.9,4.1,25.6-10.5,8.7-30.6,43.5-31.6,44.5,0,0,18.6-33.9,21.3-46.9s-5.4-18.4-18-17.2c-12.6,1.2-22.7,2.6-22.7,2.6Z"/>
        <path d="M439.1,687.2c10.1-4.5,27.6-21.5,37.7-28,10.1-6.5,8.9-17.6,7.2-22.9s-9.9-21.6-23.2-20.8c-13.3.7-38,14.2-52.3,19.5,0,0,42.4-9.1,48.8-4.2,6.4,4.9,16.7,15.7,13.3,23.5-3.4,7.7-31.5,32.9-31.5,32.9Z"/>
        <path d="M137.8,659.6c-4.3-1-9.5-3-11.3-7.4,2.9,3.1,7.6,3,11.5,2.4,0,0-.2,5-.2,5h0Z"/>
        <path d="M126.4,607.7c-2,3.7-5.2,6.7-8.2,9.6-8.7,8.3-19.7,15.5-21.6,28.2-2.2-8.7,3.7-17.2,9.8-22.9,6.1-5.9,13.4-9.8,20.1-15h0Z"/>
        <path d="M115.2,709.7c-2.4-2.5-3.6-4.5-6.2-6.5-5.9-4.4-13.5-6.8-20.6-8.8,0,0-4.5-1.2-4.5-1.2,2.3.2,6.9.9,9.2,1.2,6.2,1.1,12.3,2.5,18,5.6,2.6,1.3,5.3,4.1,7.4,5.8,0,0-3.2,3.8-3.2,3.8h0Z"/>
        <path d="M315.4,706.8c4.3,6.9,11.4,10.3,17.4,15.6,2,1.8,4.4,3.8,5,6.6-1.7-1.6-4.8-2.9-6.8-4.1-6.8-3.8-15.6-9.5-15.6-18.2h0Z"/>
        <path d="M232.1,812.8c-10.2,9.5-16.8,17.4-18.5,31.8,0-3.2.3-6.4.9-9.6,1.6-9.8,7.8-18.1,13.9-25.5,0,0,3.7,3.3,3.7,3.3h0Z"/>
        <path d="M204.7,903c5.4-3.2,9.6-7.3,14.5-11.3,10-8.6,24.7-6.6,36.6-4.8,6.1.9,12.1,1.5,18.3,2-6.1,1.2-12.4,1.4-18.5,1.1-11.9-.4-24.2-2.9-34.6,4.2-5,3.4-10.3,7.2-16.3,8.7h0Z"/>
        <path d="M515.6,794.7c-13,17.6-29.8,33.9-44,50.5-10.4,12-18.5,25.6-27.8,38.5-5.6,7.8-11.2,15.6-17.7,22.7-18.1,19.9-59.7,12.6-83,10.7-12.7-.1-25.4.7-37.9,2.7-12.4,2.1-25.1,5.1-35.9,12,2.6-1.8,5.5-3.3,8.3-4.6,20.5-8.8,43.3-10.9,65.4-11.3,5.8.1,11.7-.1,17.5,1.2,3.5.9,7.3,1,11,1.1,9.4.2,19-.3,28.3-1.8,10-1.7,17.7-3.8,24.4-11.8,14.7-16.7,25.4-36.3,38.5-54.3,6.7-9,17.3-20.6,24.8-29.2,8.2-9.5,16.9-18.9,24-29.1,0,0,4.1,2.8,4.1,2.8h0Z"/>
        <path d="M520,860.5c-10.9,16.9-24.5,32.3-32,51.1-1.8,4.7-2.6,9.9-4.8,14.5-4.4,9.5-11.9,17.3-20.6,23-2.5,1.6-5.3,3.1-8.2,4.1-14.9,8.5-28.6,19.1-43.3,28.1-4.3,2.7-8.6,5.4-13.2,7.7-1.7.8-3.6,1.7-5.6,1.7-1.7.1-7.8.5-9.5.6-15.1,1.3-30.5,2.2-44.8,7.5,14.2-5.6,29.7-6.8,44.7-8.4,1.6-.2,8.1-.7,9.5-.8,1.9,0,3.5-.9,5.2-1.7,19.4-10.7,36.5-25.3,55.5-36.8.2-.1.7-.4,1-.5,2.5-.9,4.9-2.3,7.2-3.9,10.1-6.8,18.6-16.9,21.2-28.9,4.2-17.7,15.3-32.5,25.2-47.4,2.8-4.2,5.7-8.4,8.3-12.6,0,0,4.2,2.6,4.2,2.6h0Z"/>
        <polygon points="439.4 755.7 443.9 759.6 438 760.5 439.4 755.7 439.4 755.7"/>
      </g>
    </g>
  </g>
</svg>