<?xml version="1.0" encoding="UTF-8"?>
<svg xmlns="http://www.w3.org/2000/svg" version="1.1" xmlns:xlink="http://www.w3.org/1999/xlink" viewBox="0 0 500 500">
  <defs>
    <style>
      .cls-1 {
        stroke: #fff;
        stroke-miterlimit: 10;
      }

      .cls-1, .cls-2 {
        fill: #000019;
      }

      .cls-3 {
        fill: #fff;
      }

      .cls-4 {
        fill: red;
      }

      .cls-5 {
        filter: url(#drop-shadow-1);
      }
    </style>
    <filter id="drop-shadow-1" x="100.2" y="116.2" width="300" height="284" filterUnits="userSpaceOnUse">
      <feOffset dx="0" dy="8"/>
      <feGaussianBlur result="blur" stdDeviation="5"/>
      <feFlood flood-color="#000" flood-opacity=".8"/>
      <feComposite in2="blur" operator="in"/>
      <feComposite in="SourceGraphic"/>
    </filter>
  </defs>
  <!-- Generator: Adobe Illustrator 28.7.4, SVG Export Plug-In . SVG Version: 1.2.0 Build 166)  -->
  <g>
    <g id="Layer_3">
      <rect class="cls-2" x="-33.2" y="-33.2" width="566.4" height="566.4"/>
      <g class="cls-5">
        <path class="cls-1" d="M250,375.8c-47.1,0-92.8-13.5-132.2-39.1l-1.6-1v-171.4l1.6-1c39.3-25.6,85-39.1,132.2-39.1s92.8,13.5,132.2,39.1l1.6,1v171.4l-1.6,1c-39.3,25.6-85,39.1-132.2,39.1Z"/>
        <g>
          <path class="cls-2" d="M250,364c-42.9,0-84.8-11.8-121.1-34.3l-.8-.5v-158.5l.8-.5c36.3-22.4,78.2-34.3,121.1-34.3s84.8,11.8,121.1,34.3l.8.5v158.5l-.8.5c-36.3,22.4-78.2,34.3-121.1,34.3Z"/>
          <path class="cls-3" d="M250,137.7c42.7,0,84.1,11.7,120.2,34v156.5c-36.1,22.3-77.5,34-120.2,34s-84.1-11.7-120.2-34v-156.5c36.1-22.3,77.5-34,120.2-34M250,134.2c-43.2,0-85.4,11.9-122,34.5l-1.7,1v160.5l1.7,1c36.6,22.6,78.8,34.5,122,34.5s85.4-11.9,122-34.5l1.7-1v-160.5l-1.7-1c-36.6-22.6-78.8-34.5-122-34.5h0Z"/>
        </g>
        <g>
          <path class="cls-3" d="M164.3,210.2c-.1,0-.2,0-.2-.2,0-11.8,0-23.6,0-35.4,0-.1,0-.2.2-.3,2.4-1.2,3.6-1.8,6-2.9.1,0,.2,0,.3,0,1.8,1.9,2.7,2.8,4.5,4.8,1.8-3.5,2.7-5.2,4.5-8.7,0-.2.2-.3.4-.3,2.5-1,3.7-1.4,6.2-2.3.1,0,.2,0,.2.1,0,11.8,0,23.5.1,35.3,0,.2,0,.3-.2.3-2.3.8-3.4,1.2-5.7,2.1-.1,0-.2,0-.2-.2,0-8.7,0-17.5,0-26.2-2.1,4-3.2,6-5.2,10-2.1-2.2-3.1-3.3-5.1-5.5,0,8.8,0,17.5,0,26.3,0,.2,0,.3-.2.3-2.2,1-3.3,1.6-5.5,2.7Z"/>
          <path class="cls-3" d="M200.2,196.9c-1.8.5-3.5.5-5,0-1.5-.5-2.8-1.4-3.7-2.6-.9-1.3-1.3-2.9-1.3-4.8,0-8.6,0-17.2.1-25.8,0-.1,0-.2.2-.3,2.3-.8,3.4-1.1,5.7-1.8.1,0,.2,0,.2.1v25.7c0,1.2.4,2,1.1,2.6.7.6,1.6.7,2.7.5,1.1-.3,2-.9,2.8-1.9.7-1,1.1-2.1,1.1-3.2,0-8.6,0-17.2,0-25.7,0-.1,0-.2.2-.3,2.3-.6,3.5-.8,5.8-1.3.1,0,.2,0,.2.2,0,8.6,0,17.1.1,25.7,0,1.9-.5,3.8-1.4,5.5-.9,1.8-2.1,3.3-3.7,4.6-1.5,1.3-3.3,2.2-5.1,2.7Z"/>
          <path class="cls-3" d="M211.9,193.3c2.2-12.2,4.3-24.4,6.5-36.6,0-.1.1-.2.3-.2,3-.5,4.6-.7,7.6-1.1.1,0,.2,0,.3.2,2.1,11.6,4.2,23.1,6.3,34.7,0,.2,0,.3-.2.3-2.3.2-3.5.3-5.9.6-.1,0-.2,0-.3-.2-.2-1.5-.3-2.2-.6-3.7-2.9.4-4.3.6-7.1,1.1-.2,1.5-.3,2.3-.6,3.9,0,.2-.1.3-.3.3-2.3.4-3.5.6-5.8,1.1-.1,0-.2,0-.2-.2ZM219.8,182.6c2-.3,3-.5,5-.7-.9-5.7-1.3-8.5-2.2-14.2-.1-.7-.2-1.1-.3-1.9,0,.8-.1,1.2-.2,1.9-.9,5.9-1.4,8.9-2.4,14.8Z"/>
          <path class="cls-3" d="M238.7,190c-.1,0-.2,0-.2-.2,0-5.8,0-8.8,0-14.6-2.3-6.7-4.7-13.5-7.1-20.2,0-.1,0-.2.2-.2,2.3-.2,3.5-.3,5.9-.5.2,0,.3,0,.3.2,1.6,5.4,2.3,8.2,3.9,13.6,1.6-5.6,2.4-8.4,4-14,0-.1.1-.2.3-.2,2.4,0,3.6,0,5.9,0,.1,0,.2,0,.2.2-2.4,6.9-4.8,13.8-7.1,20.6,0,5.9,0,8.9,0,14.8,0,.1,0,.2-.2.2-2.4,0-3.7.1-6.1.3Z"/>
          <path class="cls-3" d="M268.1,190.6c-.1,0-.2-.1-.2-.3,0-9.8,0-19.6,0-29.3-2.7-.3-4.1-.4-6.9-.5-.2,0-.3-.1-.3-.3,0-2.3,0-3.5,0-5.8,0-.1,0-.2.2-.2,6.7.4,13.4,1.1,20,2.2.2,0,.3.1.3.2,0,2.3,0,3.5,0,5.8,0,.2,0,.2-.2.2-2.7-.5-4.1-.7-6.9-1,0,9.8,0,19.6,0,29.3,0,.2,0,.2-.2.2-2.4-.3-3.6-.4-6-.7Z"/>
          <path class="cls-3" d="M284.1,192.8c-.1,0-.2-.1-.2-.3,0-11.8,0-23.6,0-35.3,0-.1,0-.2.3-.2,2.3.4,3.5.7,5.8,1.2.2,0,.3.1.3.3,0,5.6,0,8.4,0,14,3.1.7,4.7,1.1,7.8,1.9,0-5.6,0-8.4,0-14,0-.1,0-.2.2-.2,2.3.6,3.4.9,5.7,1.6.2,0,.3.1.3.3,0,11.8,0,23.6.1,35.4,0,.2,0,.2-.3.2-2.3-.7-3.4-1-5.8-1.6-.2,0-.3-.2-.3-.3,0-6.1,0-9.1,0-15.1-3.1-.8-4.7-1.2-7.8-1.9,0,6.1,0,9.1,0,15.1,0,.2,0,.2-.2.2-2.4-.5-3.5-.7-5.9-1.2Z"/>
          <path class="cls-3" d="M306.7,198.1c2.1-11.1,4.2-22.2,6.3-33.3,0-.1.1-.2.3-.1,2.9,1,4.4,1.6,7.3,2.8.1,0,.2.2.2.3,2,12.6,4,25.2,5.9,37.9,0,.2,0,.2-.2.2-2.2-1-3.3-1.4-5.5-2.3-.1,0-.2-.2-.2-.4-.2-1.6-.3-2.4-.6-4-2.7-1.1-4.1-1.6-6.8-2.6-.2,1.4-.3,2.1-.6,3.6,0,.2-.1.2-.3.2-2.2-.8-3.4-1.2-5.6-1.9-.1,0-.2-.1-.2-.3ZM314.4,191.5c1.9.7,2.9,1.1,4.8,1.8-.8-6.1-1.2-9.2-2.1-15.3-.1-.8-.2-1.2-.3-2,0,.7-.1,1.1-.2,1.8-.9,5.4-1.4,8.2-2.3,13.6Z"/>
          <path class="cls-3" d="M330.2,207.6c-.2,0-.2-.2-.2-.4,0-11.8,0-23.6,0-35.3,0-.1,0-.2.2-.1,2.2,1,3.3,1.6,5.5,2.7.1,0,.2.2.2.3,0,11.8,0,23.6,0,35.4,0,.2,0,.2-.2.2-2.2-1.1-3.3-1.7-5.5-2.7Z"/>
        </g>
        <g>
          <path class="cls-2" d="M329.2,248.7l-10-.7c-11.4-.8-19.8-4.7-24.9-7.9-2.2-1.4-4-2.7-5.3-3.9h10l.5-.9c2.4-4.3,3.7-9.2,3.6-14.8,0-4.4-.8-9.1-2.3-14-2.6-8.3-6.4-14.4-6.5-14.6l-2.8-4.5-.4,5.3c-1.4,16.9-18.6,26.5-22.3,28.3l-4.7-2c1.5-2.7,5.3-6.5,7.7-8.5l6.6-5.6-8.3,2.6c-7.9,2.5-17.3,7.2-20.1,8.7-2.8-1.5-12.2-6.2-20.1-8.7l-8.3-2.6,6.6,5.6c2.4,2,6.1,5.8,7.7,8.5l-4.7,2c-1.6-.8-6-3.2-10.4-7-7.3-6.3-11.3-13.5-11.9-21.4l-.4-5.3-2.8,4.5c-.2.3-3.9,6.3-6.5,14.6-1.5,4.9-2.3,9.6-2.3,14,0,5.5,1.2,10.5,3.6,14.8l.5.9h10c-1.3,1.1-3.1,2.5-5.3,3.9-5.1,3.2-13.5,7.1-24.9,7.9l-10,.7,9.6,2.8c.5.1,9.8,2.8,18.9,3.6-2.8,2.1-7.3,4.5-12.6,4.9l-3.9.3,2.8,2.8c.2.2,4.9,4.9,12.3,6.9-1.6,1.8-4.4,4.2-8.1,5.1l-5.4,1.3,5.2,2.1c.2,0,4.7,1.9,12.2,1.9s1.6,0,2.4,0l-1.9,2.2-3.5,4,5.2-1.1s2.4-.5,5.6-.5,6.8.4,10.1,2.2c2.9,1.6,5.2,4.6,5.7,7.5.4,2.1,0,4-1.5,5.8l-6,7.4,8.2-4.8,5.3-3.1c.8,3.5,1.9,11.1-.2,19.9v.4c-.1,0,0,.4,0,.4,0,.2,1.2,4.3,4,8.4,3.9,5.7,8.9,8.7,14.7,8.7s10.8-3,14.7-8.7c2.8-4.1,4-8.2,4-8.4v-.4c.1,0,0-.4,0-.4-2.1-8.8-1-16.4-.2-19.9l5.3,3.1,8.2,4.8-6-7.4c-1.4-1.7-1.9-3.7-1.5-5.8.6-2.9,2.8-5.8,5.7-7.5,3.3-1.8,7.3-2.2,10.1-2.2s5.6.5,5.6.5l5.2,1.1-3.5-4-1.9-2.2c.8,0,1.6,0,2.4,0,7.5,0,12-1.8,12.2-1.9l5.2-2.1-5.4-1.3c-3.7-.9-6.5-3.3-8.1-5.1,7.4-2.1,12.1-6.7,12.3-6.9l2.8-2.8-3.9-.3c-5.3-.3-9.8-2.8-12.6-4.9,9.1-.8,18.5-3.4,18.9-3.6l9.6-2.8Z"/>
          <path class="cls-4" d="M250,333.2c11.3,0,14.7-13.8,14.7-13.8l-2.6-2.2-1.5-7.6,3.2-17.5,6.2,3.2c1.4-8.7,8.4-17.1,8.4-17.1,7.5.3,13.1,2.8,13.1,2.8l-9.7-11.4c4.8,1.8,21.5,6.7,21.5,6.7-6-4.3-14.1-12.9-14.1-12.9,6.7.6,20.9-.8,20.9-.8-13.9-2.1-22.1-14.3-22.1-14.3,7,1.4,22.1,2.3,22.1,2.3-22.8-3.2-29.8-18-29.8-18l11.9-6.2-13.2,1.5c7-2.9,13.2-14.9,13.2-14.9,0,0,4.8,7.3,4.9,12.6,0,0,1.6-15.1-3.7-24.8,0,0-4.9,18.3-24.8,24.6l-9.8-4.1,2.4-6s-8.6,3.1-11.3,5.1c-2.6-2-11.3-5.1-11.3-5.1l2.4,6-9.8,4.1c-19.9-6.3-24.8-24.6-24.8-24.6-5.3,9.7-3.7,24.8-3.7,24.8.1-5.3,4.9-12.6,4.9-12.6,0,0,6.2,12,13.2,14.9l-13.2-1.5,11.9,6.2s-7,14.7-29.8,18c0,0,15.1-1,22.1-2.3,0,0-8.3,12.2-22.1,14.3,0,0,14.2,1.4,20.9.8,0,0-8.1,8.5-14.1,12.9,0,0,16.7-4.9,21.5-6.7l-9.7,11.4s5.6-2.5,13.1-2.8c0,0,7,8.4,8.4,17.1l6.2-3.2,3.2,17.5-1.5,7.6-2.6,2.2s3.5,13.8,14.7,13.8Z"/>
          <path class="cls-2" d="M264.6,236.9s-14.6,4.7-14.6,12.2v14.3l6.5,5.2s3.9,6.7-6.5,6.7v47.2s5.3,1.8,12.5-3.9c0,0-7.8,14.6-21.9,4.6l9.4,9.9c11.3,0,14.7-13.8,14.7-13.8l-2.6-2.2-1.5-7.6,3.2-17.5,6.2,3.2c1.4-8.7,8.4-17.1,8.4-17.1,7.5.3,13.1,2.8,13.1,2.8l-9.7-11.4c4.8,1.8,21.5,6.7,21.5,6.7-6-4.3-14.1-12.9-14.1-12.9,6.7.6,20.9-.8,20.9-.8-13.9-2.1-22.1-14.3-22.1-14.3,7,1.4,22.1,2.3,22.1,2.3-22.8-3.2-29.8-18-29.8-18l11.9-6.2-13.2,1.5c7-2.9,13.2-14.9,13.2-14.9,0,0,4.8,7.3,4.9,12.6,0,0,1.6-15.1-3.7-24.8,0,0-4.9,18.3-24.8,24.6l-9.8-4.1,2.4-6s-8.6,3.1-11.3,5.1v22.1s4.1-5.2,14.6-5.5Z"/>
          <path class="cls-2" d="M250,263.4c3.5,0,5.6-1.9,5.6-1.9,3.8,4,11.2,5.5,11.2,5.5-4.9-2.7-4.9-5.3-4.9-5.3,0,0,5.5,1.4,9.8-1.4l.9,2.6c1.6-4.3,5.4-11.7,10.2-14.9,0,0-4.2.5-6.1,1.6.6-3.3,3.5-8.4,3.5-8.4l-23.2,16-3.3-2.5,2,3.8c-3.6,2.4-5.7-2.3-5.7-2.3,0,0-2.1,4.7-5.7,2.3l2-3.8-3.3,2.5-23.2-16s2.9,5.1,3.5,8.4c-1.9-1.1-6.1-1.6-6.1-1.6,4.8,3.2,8.6,10.6,10.2,14.9l.9-2.6c4.3,2.8,9.8,1.4,9.8,1.4,0,0,0,2.7-4.9,5.3,0,0,7.4-1.5,11.2-5.5,0,0,2.1,1.9,5.6,1.9Z"/>
          <path class="cls-4" d="M266.9,267.1c-4.9-2.7-4.9-5.3-4.9-5.3,0,0,5.5,1.4,9.8-1.4l.9,2.6-5.9,4.1Z"/>
          <polygon class="cls-4" points="255.7 258.6 253.7 254.7 257 257.3 255.7 258.6"/>
          <path class="cls-3" d="M240.2,257.3l-13.7-9.5s-1.8,7.2,3.1,10,10.6-.5,10.6-.5Z"/>
          <path class="cls-3" d="M259.8,257.3l13.7-9.5s1.8,7.2-3.1,10c-4.9,2.8-10.6-.5-10.6-.5Z"/>
          <path class="cls-2" d="M250,322.6c6.8,0,12.2-5.4,12.2-5.4-1.4-12.8,4.3-35.5,13.6-42.9l-7.7,3.1v-7c-.1,0-9.5,12.1-18.1,12.1-8.5,0-17.9-12.1-17.9-12.1v7c-.1,0-7.8-3.1-7.8-3.1,9.3,7.4,14.9,30.1,13.6,42.9,0,0,5.3,5.4,12.2,5.4Z"/>
          <g>
            <g>
              <path class="cls-3" d="M241.8,318.3c-1.8,0-2.5-2.2-2.6-2.2h0c0,0,0-.2,0-.2.7-4.1,0-11.9,0-12v-1c0,0,.6.7.6.7,4.9,4.9,4.5,12.7,4.5,13.1h0c0,.1,0,.2,0,.2-.9.9-1.7,1.4-2.5,1.4h0Z"/>
              <path class="cls-2" d="M239.7,303.8c4.8,4.8,4.4,12.8,4.4,12.8-.9.9-1.7,1.3-2.3,1.3-1.5,0-2.2-2-2.2-2,.7-4.2,0-12.1,0-12.1M238.8,302l.2,1.9c0,0,.6,7.8,0,11.9v.2s0,.2,0,.2c0,.1.9,2.5,2.9,2.5s1.8-.5,2.8-1.5l.2-.2v-.3c0-.3.4-8.3-4.6-13.3l-1.4-1.4h0Z"/>
            </g>
            <g>
              <path class="cls-3" d="M258.2,318.3c-.8,0-1.7-.5-2.5-1.4h0c0,0,0-.2,0-.2,0-.3-.4-8.2,4.5-13.1l.7-.7v1c0,0-.7,7.8,0,12h0c0,0,0,.2,0,.2,0,0-.8,2.2-2.6,2.2Z"/>
              <path class="cls-2" d="M260.3,303.8s-.7,7.8,0,12.1c0,0-.7,2-2.2,2s-1.4-.3-2.3-1.3c0,0-.4-8,4.4-12.8M261.2,302l-1.4,1.4c-5,5-4.7,13-4.6,13.3v.3s.2.2.2.2c1,1,1.9,1.5,2.8,1.5,2,0,2.9-2.4,2.9-2.5v-.2c0,0,0-.2,0-.2-.7-4.1,0-11.8,0-11.9l.2-1.9h0Z"/>
            </g>
            <g>
              <path class="cls-3" d="M250,319.5c-4.4,0-6.6-2-6.7-2h0c0,0,0-.2,0-.2-.6-2.7.9-7,1-7.2l.3-.7,1.8,3.4c.5.2,2.4.8,3.7.8s3.2-.6,3.7-.8l1.8-3.4.3.7c0,.2,1.6,4.5,1,7.2h0c0,.1,0,.2,0,.2,0,0-2.4,2-6.7,2Z"/>
              <path class="cls-2" d="M255.5,310.2s1.6,4.4,1,7c0,0-2.2,1.9-6.5,1.9s-6.5-1.9-6.5-1.9c-.6-2.6,1-7,1-7l1.5,2.8s2.3.8,4,.8,4-.8,4-.8l1.5-2.8M255.6,308.5l-.8,1.4-1.4,2.6c-.6.2-2.3.7-3.5.7s-2.9-.5-3.5-.7l-1.4-2.6-.8-1.4-.5,1.5c0,.2-1.6,4.6-1,7.4v.2c0,0,.2.2.2.2,0,0,2.5,2.1,6.9,2.1s6.8-2,6.9-2.1l.2-.2v-.2c.7-2.8-.9-7.2-.9-7.4l-.5-1.5h0Z"/>
            </g>
            <g>
              <path class="cls-3" d="M235.9,295.7c-2.4-7.7-.9-16.9-.9-17v-.6c0,0,.6.4.6.4,0,0,6.6,5.3,14.4,5.3s14.4-5.3,14.4-5.3l.5-.4v.6c.1,0,1.6,9.2-.8,17l-.4,1.2-3.1-11.6-.4,1.9h-.1c-.2.2-4.3,2.8-10.2,2.8s-10-2.6-10.2-2.7h-.1c0,0-.4-2-.4-2l-3.1,11.6-.4-1.2Z"/>
              <path class="cls-2" d="M264.7,278.8s1.5,9.1-.9,16.8l-3.2-11.8-.7,3.2s-4.2,2.7-10,2.7-10-2.7-10-2.7l-.7-3.2-3.2,11.8c-2.4-7.7-.9-16.8-.9-16.8,0,0,6.6,5.4,14.7,5.4s14.7-5.4,14.7-5.4M265.2,277.4l-.9.8h0c0,0-6.5,5.3-14.2,5.3s-14.1-5.2-14.2-5.3l-.9-.8-.2,1.2c0,.4-1.5,9.3.9,17.1l.7,2.4.6-2.4,2.4-9v.3c0,0,.1.3.1.3l.2.2c.2.1,4.4,2.8,10.3,2.8s10.2-2.7,10.3-2.8l.2-.2v-.3c0,0,.1-.3.1-.3l2.4,9,.6,2.4.7-2.4c2.4-7.8.9-16.8.9-17.1l-.2-1.2h0Z"/>
            </g>
          </g>
          <path class="cls-2" d="M250,283.5c4.3,0,13.1-8.3,6.5-14.8,1.4,5.9-2.3,5.6-6.5,5.6-4.2,0-7.9.3-6.5-5.6-6.6,6.5,2.2,14.8,6.5,14.8Z"/>
        </g>
        <polygon class="cls-3" points="155 303.2 158.4 310 165.9 311.1 160.5 316.4 161.8 323.9 155 320.4 148.3 323.9 149.6 316.4 144.2 311.1 151.7 310 155 303.2"/>
        <polygon class="cls-3" points="345 303.2 341.6 310 334.1 311.1 339.5 316.4 338.2 323.9 345 320.4 351.7 323.9 350.4 316.4 355.8 311.1 348.3 310 345 303.2"/>
      </g>
    </g>
  </g>
</svg>