<?xml version="1.0" encoding="UTF-8"?>
<svg xmlns="http://www.w3.org/2000/svg" version="1.1" viewBox="0 0 900 750">
  <defs>
    <style>
      .cls-1 {
        fill: #fff200;
      }

      .cls-2 {
        fill: #fff;
      }

      .cls-3 {
        fill: none;
      }

      .cls-4 {
        fill: #491419;
      }

      .cls-5 {
        fill: #58595b;
      }

      .cls-6 {
        fill: #ed1c24;
      }

      .cls-7 {
        fill: #3e3e3f;
      }
    </style>
  </defs>
  <!-- Generator: Adobe Illustrator 28.7.4, SVG Export Plug-In . SVG Version: 1.2.0 Build 166)  -->
  <g>
    <g id="Layer_1">
      <g id="Layer_1-2" data-name="Layer_1">
        <rect width="900" height="750"/>
        <g>
          <path class="cls-5" d="M449.6,550.6l-182.7-41.3s-14.1-19.4-18.5-36.2c-4.3-16.8,10.5-26.5,10.5-26.5,0-27.5,5.7-34.3,8-39.3s4-14.8,10.7-26.5,16.9-19.9,17.3-30.7c.3-10.8,4.8-27.4,9.8-39.7,5-12.3,20-32,29.1-37.5,9-5.6,19.4-6.1,19.4-6.1,0,0,11.7-3.8,24.9-5.3,13.3-1.6,38.1-11.1,38.1-11.1"/>
          <path class="cls-2" d="M267.3,407c.9-2.1,1.8-5.6,2.5-7.9,2.3-8,5.3-15.8,9.9-22.8,3-4.7,6.5-9,9.5-13.5,2.6-3.9,4.8-8.1,5.1-12.8.4-9,2.5-17.9,5.2-26.5,2.5-7.9,5.4-15.8,9.9-22.8,3-4.7,6.2-9.1,9.8-13.3-3.2,4.5-6.3,9-9,13.8-2.8,4.7-4.9,9.8-6.6,15-2.3,6.8-2,11.6-2.8,18.6-.4,3.1-.5,6.1.3,8.8s6.3,7.1,4.6,9.4c-1.8,2.6-6.1,1-8.6,4.1-2.4,3-4.8,4.5-6.4,6.8-4.7,6.8-10.3,12.9-14,20.3-2.6,4.8-4.6,9.9-6.4,15.1s-1.8,5.2-3,7.7h0Z"/>
          <path class="cls-7" d="M348.6,384.8c-14.4,7.3-23.3,6.1-28.5,6.9-7.2,11.9-20.4,13.1-30.9,10.3-3.3,2.5-8.6,5.8-17.2,9.7l-5.6,8.9s1.6,6.5,8,9,.7,7.8-1,11.4,8.4,1-1.5,17.8c-9.8,16.8-6.6,23.2-14.8,22.3-8.1-.9,65.5,34.5,65.5,34.5l58.9-71.9-32.9-58.9Z"/>
          <path d="M606.2,428.7c12,1.1,25.1-1.4,27.4-8,2.3-6.6-14.8-9.1-24.9-6.7-10.1,2.5-3-14.1-21.5-22.8-10.5-5-7.9-14,6.2-7.2,14.1,6.8,24-9.5,10.8-22.1-4.3-4.1-21.1-.2-16.7-5,4.4-4.8,8.1,2.8,12.8-6.2,4-7.7.3-29.7-11.7-24.3-8.6,3.9,12.9-16.9-7.7-5.5,1.6-4.3,12.2-9.1,12.2-9.1,0,0-14.2,3.4-14.9-.9-.7-4.2,16.1-2.6,1.3-14.6-8.1-6.5-11.6,5.3-19.5,2.9s6.3-7,6.2-14.1-9-.9-13.6-11.6c0,0-10,28-9.1,47.6,0,0-2.3-37.1-.2-43.8s-10.5-9.1-14.3-4.5c-3.7,4.6-4.7,11.3-4.7,11.3,0,0-2.8-2.5-3.5-6.3-.6-3.9-2.5-4.7-8.2-3.6,0,0,2.3,7.7-1.3,9.6,0,0-.7-7.9-11-11.8l-50.1,40.9-50.1-40.9c-10.4,3.9-11,11.8-11,11.8-3.7-1.8-1.3-9.6-1.3-9.6-5.8-1.1-7.6-.3-8.2,3.6s-3.5,6.3-3.5,6.3c0,0-.9-6.7-4.7-11.3-3.7-4.6-16.3-2.3-14.3,4.5,2,6.7,0,39,0,39,.9-19.6-12.1-42.1-12.1-42.1-4.6,10.7-10.7,3.8-10.8,10.9-.1,7.1,14.1,11.8,6.2,14.1s-17-4.9-19.6,5.1,12.2,12.4,6.7,18.7c-2.6,3-12-2.7-12-2.7,0,0,26.3,19.6,9.6,17.8s-16.9,5-10.8,15.1c.7,1.2,1.5,2.1,2.2,2.9,3.6,3.1,23.1,4.4,23.1,4.4,0,0-13.6.9-20.4.2.1.5.2,1,.2,1.6.2,3.4,1.2,10.6-4.2,9.2-5.4-1.5-19.3-3.1-19.9-1.5-2.1,6.2,13.5,15.2,19.4,16.5,11.4,2.4,34.3-1.8,34.3-1.8-5.3,10.5-19.9,6.2-22.4,17.6-.9,4.1,1,11-4.8,12.1-10.1,1.8-23.3-2.5-32.8-5.4-10-3-24.5,5.1-22.2,11.6,2.3,6.6,15.4,9.1,27.4,8s13.6,2.3,13.6,2.3c0,0-19.8.7-28.4,4.8-8.6,4-7.5,11.7,3.1,7.9,10.6-3.8,24.4-8.2,34.5-1.6,10.1,6.5,13.8,5.8,21.1,7.4,7.3,1.6,6.6,8.5,6.6,8.5,0,0-8-2.7-14.8,0,0,0,9.4.1,17.8,7,5.6,4.7-1.5,2.6-12.1,9.9-10.5,7.4-28.9,50.4-28.9,50.4,0,0,81.7,52.7,143.7,52.7s88.2-103.8,88.2-103.8c0,0,6.1.5,13.1-7.8,2.9-3.5,13.4-9.5,29.4-7.8,8.6.9,36.8,7,34.1,15.5-7.1,22,17.1-1.6,17.1-1.6-10.3-16-31.4-23.3-28.5-26.5,4.3-4.6,10.3-4.9,16.9-1.7,10.1,4.9,9.2-4.6.6-8.6-8.6-4-28.4-4.8-28.4-4.8,0,0,1.6-3.5,13.6-2.3l-.3.2Z"/>
          <path d="M642.7,461.5c3.1,7.8.8,9.6-4.3,12.5-9.7,5.5-5-17.4-40.6-19.4,0,0,27.1,10.7,17.1,19.5-9.9,8.8-18-3.3-18-3.3,0,0,6.3,11.5-4.2,8.9-5.9-1.4-8.5-6.2-14.4-10.1s-11.9-3.3-11.9-3.3c0,0,16.4,12.1,9.4,16.9s.2,5.7-5.5,4.9c-6.1-.8-10.8-15.5-21.7-18s-9.2.7-9.2.7l-110.4,82.5s29.2,21.3,41.9,28.9c12.8,7.7,39.6-13.6,62.5-27.7,22.9-14,65.7-30.2,65.7-30.2,6.4-1.1,12.9-2.2,19.1-3.5l14.7-12s14.1-19.4,18.5-36.2l-8.5-11.3-.2.2Z"/>
          <g>
            <path class="cls-2" d="M496.2,495.8c2-4.7,3.3-1.9,9.2-6.2,5.9-4.3,17.4-6.1,22-10.8,4.6-4.7,9.2-1.6,16.8,7.5,7.5,9.1,7.5,12.7,7.5,12.7,0,0-9.5-15.3-16.9-17.7-7.4-2.5,1.4,9,.3,12.3-1.1,3.3-3.8-6.3-10.5-7.2,0,0,9,10.9,6.5,11.9s-5.2-4-7.8-4.3c0,0,3.5,4.5.9,4.5s-7.4-7-10.6-8.4c0,0,2.2,3,.4,3.4s-3-1.5-4.6-1.1-1.1,1.5-2.4,1.8c0,0,9.1,8.6,6.2,10-2.9,1.4-6-4.6-9.1-5.2,0,0,8,8.8,4.4,8.6-3.6-.2-6.5-2.5-8.6-5.1s-4.9-3.8-3.7-6.5v-.2Z"/>
            <path class="cls-6" d="M559.5,482.1s-9.4-13.1-12.7-14.1-3.9,1.9-6.9,2.1-8,3.8-7.6,5.5c5-2.8,5.8-1.1,7.7-2.3,1.9-1.2,3-2.9,5.3-2.9,3.4,0,14.2,11.6,14.2,11.6h0Z"/>
            <path class="cls-2" d="M519.6,507.2s7.8,3.9,9.1,8.9c1.3,5,1.6,9.8,1.6,9.8,0,0-6.8-15.8-10.8-18.7h.1Z"/>
          </g>
          <path class="cls-2" d="M563,271.4c-8.4-4.1-16.5-5-16.5-5,0,0-3.2-1.4-10.4-3.3,0,0,3.4,2.1,8.9,4.1-2.7,7.6-2.3,17-2.3,17,1.1-17.3,4.7-16,7.6-15.8s12.7,3,12.7,3h0Z"/>
          <path class="cls-2" d="M336.2,271.4c8.4-4.1,16.5-5,16.5-5,0,0,3.2-1.4,10.4-3.3,0,0-3.4,2.1-8.9,4.1,2.7,7.6,2.3,17,2.3,17-1.1-17.3-4.7-16-7.6-15.8-3.6.1-12.7,3-12.7,3h0Z"/>
          <path d="M324.8,504.4c-13.5-5.2-5.6-27.5-5.6-27.5,0,0-5,6.1-15.6,8.7s-4.2-8.9-4.2-8.9c0,0-11.2,11.9-21.2,3.1-9.9-8.8,24.1-25.2,24.1-25.2-35.6,2-35.4,32-45.1,26.5-5.1-2.9-3-11.8,0-19.6,0,0-5.4,6.5-5.9,14.9-.6,9,15.5,32.9,15.5,32.9l15.1,11.7c7.9,1.6,16.2,3,24.3,4.4,30.6,5.5,32-15.7,18.5-20.9h.1Z"/>
          <path d="M272,458.9s14.3-17.6,30.3-16.7,20.4,5.7,20.4,5.7c0,0-25.8.7-34.7,4.3s-16,6.7-16,6.7h0Z"/>
          <path d="M280.7,391.4s13.4,10.9,25.2,7.7,14.3-7.4,14.3-7.4c0,0-19.3,3.5-26.5,2.2s-13-2.5-13-2.5h0Z"/>
          <path class="cls-2" d="M341.5,465s-4.6-1.7-13.2.6c-6.6,1.7-12.5,9.3-14.3,16.9,0,0,8.1-9.2,14.5-13.3,5.5-3.5,13-4.2,13-4.2Z"/>
          <path class="cls-2" d="M315.7,444.3c-11.1-3.4-23.4-1.3-33.1,5-7.4,4.5-13.8,10.6-18.9,17.6-1.7,2.3-3.3,4.8-4.7,7.4.9-2.8,2.2-5.5,3.7-8.1,5.3-9,13.2-16.5,22.6-21.2,9.3-4.6,21-5.4,30.4-.7h0Z"/>
          <g>
            <g>
              <path class="cls-5" d="M381,256.8s1.5-12.1,7.4-20.5c6-8.5,6.1-22.4,11.5-29.4s4.7-10.6,6.7-16.7c2.9-9.1,11.8-29.2,42.9-29.2s40,20.1,42.9,29.2c2,6.2,1.3,9.7,6.7,16.7,5.4,7,5.5,20.9,11.5,29.4,6,8.5,7.4,20.5,7.4,20.5,0,0-50.1,78.2-68.6,78.2s-68.6-78.2-68.6-78.2h.2Z"/>
              <path class="cls-7" d="M518.1,256.8s-1.5-12.1-7.4-20.5c-6-8.5-6.1-22.4-11.5-29.4s-4.7-10.6-6.7-16.7c-2.9-9.1-11.8-28.4-42.9-28.4s-27.7,12.1-27.7,12.1c0,0-3.4,16-3.5,21.3,0,5.3-2.7,3.7-4.1,7.5-1.4,3.7-2.5,3.2-2.4,4.5,0,1.3,5,.7,6.8-1.8,0,0-1.5,3.3-4.9,4.8s-2.8,5-7.7,10.1l4.2-.9s5.8-5.7,8.7-10.4c0,0-1.8,7.2-8.8,14,0,0,3.4-2.5,6.3-4.1,0,0-4.5,6.8-11.5,12.1s-3.8,5.5-10.5,9.7c0,0,9-2.9,16.1-9l107.6,25h0Z"/>
              <path d="M449.5,341.5c12.4,0,51.8-45.7,60.4-56.3,8.6-10.6,8.1-28.5,8.1-28.5-20.1-9.1-40.4-45.5-68.6-45.5s-48.4,36.4-68.6,45.5c0,0-.5,17.9,8.1,28.5s48,56.3,60.4,56.3h.2Z"/>
              <path class="cls-2" d="M383.6,250.9c5.6-4.3,11-9,15.7-14.6-3.9,6.4-9.5,11.4-15.7,14.6h0Z"/>
              <path d="M402.5,233.4c2.2-4,4.9-7.2,7.8-10.5,3-3.2,5.8-6.1,9.5-8.9-.6,8.9-8.8,17.4-17.3,19.4h0Z"/>
              <path d="M415.2,208.7s-9.8,7.2-10.9,10.6c-1.1,3.4-.8,5.8-.8,5.8,0,0,7.1-7.7,11.7-16.5h0Z"/>
              <path d="M509.7,236.3c-3.4-3.2-3.4-10.2-8.5-23.9-2.3-6.3-5.4-8.2-6.7-12.6-1.4-4.6-2.8-9.6-3.9-12.6s-2.4-4.1-4.3-7.4c.1,2.2-.6,3.3-3.1,1.1-1.7-1.4-3-2.5-4.2-3.4.2,7,.1,17.9-2.1,20.2,0,0,1.7-13.7-.5-21.9-2-1.2-3.5-1.5-5.8-1.4-4.2.2-.6,6.3-5,7.1s-12.4-9.5-12.4-9.5c0,0,3.8,8.2,4.8,10s-4.1,1-7.1,2.4,1,3.9-1.1,4.3c-2.2.4-7.4-2.7-7.4-2.7,0,0,3.2,4.6,7,4.9,0,0-8.3.6-11.3-.2,2.8,1,13.2,4.6,19.4,3.8,7.3-.9.6,2.4-12.6,3.5s-12.5,8-11.3,8.6c1.2.5,10.3-8.5,15.1-6.5,2.2.9,1.2,4.6-4.4,7.6-6.5,3.5-18.7,9-22,11.8,0,0,3.1-13.5-.7-23.9-2.6-7.2-2-13.1-1.4-16-.8,3.3-1.8,10.5.4,18.3,3.1,10.9-2.7,27.6-24.4,51.1,15.5-14.1,32.1-34.4,53.2-34.4s48.4,36.4,68.6,45.5v-3.4s-5-17.3-8.4-20.5h.1Z"/>
              <path class="cls-2" d="M449.5,161c-31.1,0-40,20.1-42.9,29.2-2,6.2-1.3,9.7-6.7,16.7-5.4,7-5.5,20.9-11.5,29.4s-7.4,20.5-7.4,20.5c0,0,3.7-14.8,7.1-18s8-19.1,8-19.1c0,0,1.8,4-.8,14.7,0,0,2.2-5.5,4.9-18.2,2.2-10.9,8.4-5.3,10-13.7,1.4-7.4.6-8.7,1.4-15.1.8-6.4-.8-7.9,8.8-15.6,0,0-1.4,22.8,1.8,26.1,0,0-2.4-18.9,2-25.6,4.3-6.7,16.1-9.6,25.5-9.6s16.3,2.4,21.5,4.9c5.3,2.5,16.8,10.5,19.7,21.9s3.8,14,6.2,16.9,5.2,8.3,5.8,12.1c.6,3.8,1.7,13.8,6.8,19.6,5.1,5.8,8.5,19,8.5,19,0,0-1.5-12.1-7.4-20.5-6-8.5-6.1-22.4-11.5-29.4s-4.7-10.6-6.7-16.7c-2.9-9.1-11.8-29.2-42.9-29.2l-.2-.3Z"/>
              <g>
                <path class="cls-3" d="M478.8,168.1s.2,2.5.2,5.9c1.1.9,2.5,2,4.2,3.4,2.6,2.1,3.3,1,3.1-1.1-1.3-2.4-3.6-4.9-7.6-8.1h0Z"/>
                <path class="cls-1" d="M420.3,176c.3-1.3.5-2,.5-2,0,0-.3.7-.5,2Z"/>
              </g>
              <path class="cls-5" d="M518.1,253.1c-21-12.1-38.5-47.8-68.6-47.8s-48.4,38.7-68.6,47.8c20.1-9.1,40.4-45.5,68.6-45.5s48.4,36.4,68.6,45.5Z"/>
              <path class="cls-2" d="M431,213.2c-13.9,9-24.2,22.9-36.4,34.3-4.1,3.8-8.5,7.4-13.5,9.6l.3-.5c0,5,.5,10.1,1.7,15s3.1,9.6,6,13.5c-1.6-1.8-2.9-4-4-6.2-2.2-4.5-3.4-9.6-4.1-14.6-.3-2.5-.5-5.1-.6-7.7,0-.2.1-.4.3-.5,4.8-2.3,9.1-5.9,13.1-9.7,12.1-11.4,22.8-25.3,37.2-33.3h0Z"/>
            </g>
            <path class="cls-6" d="M419.7,238.6s9.7,4.6,14.5,5.8c0,0-.7,0-1.9.8s-2,2.6-6.2,1.7-3.8-5-4.5-5.8-1.8-2.5-1.8-2.5h-.1Z"/>
            <path class="cls-6" d="M479.4,238.6s-9.7,4.6-14.5,5.8c0,0,.7,0,1.9.8s2,2.6,6.2,1.7,3.8-5,4.5-5.8,1.8-2.5,1.8-2.5h.1Z"/>
            <path class="cls-5" d="M424.2,229.4s6.3-2.2,11.9-5.1c5.6-2.8,14.7-3.1,20,0s10.6,5.8,10.6,5.8c0,0-6,5.1-13.1,5.5,0,0,2.9,1,4.8.9,0,0-4.3,2.7-7.1,2.7,0,0,3.8,1.4,6.5,1,0,0-4.6,3-8.5,2.9-3.9,0-12.5-4.1-12.5-4.1,0,0,3.7,4.3,8.1,7.3,0,0-15.4-5.8-20.2-13.6,0,0,4.5,2.9,7.1,2.8,0,0-3.8-1-7.6-6.2h0Z"/>
            <path class="cls-5" d="M447,251.8c4,0,5.6,4.5,7.4,5.7s1.7,2.4-.8,4.1c-2.4,1.7-1.3,3.2-4.7,3.1s-3.6,4.5-6.2,4.6-10-3.5-14-8.4c0,0,4.2,1.5,8.3-1.9,4.1-3.4,4.8-7.1,10.1-7.2h0Z"/>
            <path class="cls-5" d="M427.2,263.3s8.7,5.1,12.1,6.8c3.3,1.7,6.9,3.6,5.8,4.3s-6.9-.7-10.9-4-7-7.1-7-7.1h0Z"/>
            <path class="cls-7" d="M444.9,288.6s-8.3-5.2-12.1-11.7c-3.8-6.6,3.9,4,12.4,5.4,0,0-13-8.9-19.8-18,0,0,.6,6.1,3.5,9.3,0,0-6.1-4.6-8.2-9.9,0,0,1.2,7.6,6.1,13.4,0,0-3.7-1.9-5.4-5.3,0,0,4.5,16.2,21.4,21.5,0,0-7.8-5-11.8-12.3,0,0,7,6.9,13.8,7.5h.1Z"/>
            <path class="cls-2" d="M425.2,264.1c5.1,6,10.8,11.6,17.2,16.2.9.7,1.9,1.3,2.8,2-8.2-4-15.2-10.5-20-18.1h0Z"/>
            <path class="cls-2" d="M431,274.3c2.8,5.2,7.3,9.2,11.9,12.8.7.5,1.4,1,2,1.5-.8-.4-1.5-.8-2.3-1.2-5-3-9.8-7.4-11.6-13.1h0Z"/>
            <path class="cls-2" d="M430.1,279.8c3.7,5.5,9,9.9,13.9,14.3-5.7-3.4-11.2-8.1-13.9-14.3h0Z"/>
            <path class="cls-5" d="M463.4,285.3c4-1.4,7.6-3.9,11-6.5.5-.4,1-.8,1.5-1.1-2.8,4-7.4,7.5-12.5,7.6h0Z"/>
          </g>
          <path class="cls-2" d="M247.8,468.6c-1.5-11,8.1-23.6,22.2-27.4,4.2-1.1.1,1.5-5.6,4.3-10.7,5.1-16.3,12.1-16.6,23.1h0Z"/>
          <path class="cls-6" d="M632.7,407c-.9-2.1-1.8-5.6-2.5-7.9-2.3-8-5.3-15.8-9.9-22.8-3-4.7-6.5-9-9.5-13.5-2.6-3.9-4.8-8.1-5.1-12.8-.4-9-2.5-17.9-5.2-26.5-2.5-7.9-5.4-15.8-9.9-22.8-3-4.7-6.2-9.1-9.8-13.3,3.2,4.5,6.3,9,9,13.8,2.8,4.7,4.9,9.8,6.6,15,2.3,6.8,2,11.6,2.8,18.6.4,3.1.5,6.1-.3,8.8s-.5,7.5-8.6,12.8c8.3-.4,10.1-2.4,12.5.7,2.4,3,4.8,4.5,6.4,6.8,4.7,6.8,10.3,12.9,14,20.3,2.6,4.8,4.6,9.9,6.4,15.1s1.8,5.2,3,7.7h0Z"/>
          <path class="cls-6" d="M637.6,444.3c0-5.1-1.8-15.2-1.8-15.2.7,6-.3,9.9-1.1,12.1-1.5.7-3.3.4-4.8,0-4.2-1.1-1.1,2.5,4.6,5.3,10.7,5.1,17.3,11.1,17.6,22.1,1.2-8.9-4.8-18.8-14.6-24.3h0Z"/>
          <g>
            <path class="cls-2" d="M403.8,496.8c-2-4.7-3.3-1.9-9.2-6.2-5.9-4.3-17.4-6.1-22-10.8-4.6-4.7-9.2-1.6-16.8,7.5-7.5,9.1-7.5,12.7-7.5,12.7,0,0,9.5-15.3,16.9-17.7,7.4-2.5-1.4,9-.3,12.3s3.8-6.3,10.5-7.2c0,0-9,10.9-6.5,11.9s5.2-4,7.8-4.3c0,0-3.5,4.5-.9,4.5s7.4-7,10.6-8.4c0,0-2.2,3-.4,3.4s3-1.5,4.6-1.1,1.1,1.5,2.4,1.8c0,0-9.1,8.6-6.2,10s6-4.6,9.1-5.2c0,0-8,8.8-4.4,8.6,3.6-.2,6.5-2.5,8.6-5.1s4.9-3.8,3.7-6.5v-.2Z"/>
            <path class="cls-6" d="M342.3,482.7s9.6-12.9,13-13.8,3.8,2,6.8,2.3,7.9,4,7.5,5.7c-4.9-2.9-7.2,2.1-9,.9s-3-2.9-5.2-3c-3.4-.1-13.1,7.9-13.1,7.9h0Z"/>
            <path class="cls-4" d="M398,502.4c3.5-7.2,8.5-10.3,14.6-13.1,6.1-2.8,34.6-14.1,49.7-11.6s37.2,10.4,33.4,20.4c0,0,29.2,16.5,13.8,49.3-15.4,32.7-25.1,45.1-39.7,45.2-14.6,0-73.5-23.1-83.1-36.4-7.5-10.3,11.4-53.8,11.4-53.8h0Z"/>
            <path class="cls-6" d="M494.6,498.5c-7.5-5.7-17.9-2.4-23.5.7s-13.8-4.5-23.5,3.8c7.4-3.8,10.8-2.1,11.8-1s0,2.6,1.3,3.4c1.1.7,5.8-2.7,5.8-2.7l-1.8,2.8,3.9-2.5v2l2-2.2v7c.4-5.7,3.3-10.1,3.4-9,0,1.2.9,2.2,1.7,2.6.6-.5,1.2-1,1.8-1.4,0-.7-.2-1.4-1-1.8,0,0,1.7,0,4,.5.5-.2,1-.3,1.6-.4-1.2-.8-2.2-1.5-2.2-1.5,0,0,4.8,0,8.9.9h.9c8.2-.3,13,7.3,13,7.3,0,0-.5-2.7-7.9-8.4h-.2Z"/>
            <path class="cls-2" d="M483.7,495.9c-3.7.6-7.1,1.8-10.3,3.9-.8.5-1.6,1-2.5,1.3-1.9.8-4,.3-5.8-.2-.9-.3-1.8-.6-2.7-1,2.7.2,5.5,1.1,8,0,2.5-1.2,4.9-2.9,7.7-3.5,1.9-.5,3.8-.7,5.6-.6h0Z"/>
            <path class="cls-6" d="M462.3,477.7c-15.1-2.5-43.6,8.8-49.7,11.6-3.3,1.5-6.2,3.1-8.8,5.4-4.4,7.8-.2,8.6,4.5,4.6,6.1-5.1,16.2-7,30-5.9,5.3.4,8.4,0,10.7-.9-1.1-1.2-3.8-2.5-10-2.3,0,0,7.7-1.5,15.8-.6-1.8-1.3-6.7-2.3-6.7-2.3,0,0,6.5.4,10.4.6-1.3-1.4-4.8-2-4.8-2,0,0,10-1,12.8-1,10.1-.1,24.8,3.9,29.4,11.3.9-9.2-19.6-16.3-33.8-18.7l.2.2Z"/>
            <path class="cls-2" d="M380.4,508.2s-7.8,3.9-9.1,8.9c-1.3,5-1.6,9.8-1.6,9.8,0,0,6.8-15.8,10.8-18.7h0Z"/>
            <path d="M505.4,506.6h0c6.2,15.7,4.7,17,0,12.8-4.6-4.3-8.8-11-20.6-7.2-11.8,3.8-12.2,7.7-11,10.9s-3.1,6.5-4.7,2.1c-1.2-3.3-1.1-7.5-.9-9.1-1.5,2.1-1.3,7.7-4.2,6.8-3.7-1.1-8.8-6.4-4.8-10.5,0,0-4.7,1.4-7.1,4.2-2.4,2.9-9.5,8.7-14.1,1.7s-24.7-6.2-29.6-2.9c-5,3.4-7.5,0-7.2-5.6s-3.5-3.2-3.3-7.3c0,0-18.9,43.4-11.4,53.8,9.6,13.3,68.5,36.6,83.1,36.4s24.3-12.5,39.7-45.2c9-19.2,2.7-32.8-4-40.8h.1Z"/>
            <path class="cls-4" d="M428.7,574.2c-14.8-6.8-24.1-6.4-33.7-12.1-9.6-5.7-9.7-16.3-9.7-16.3h-.2c-.4,4.4,0,8.1,1.6,10.3,9.6,13.3,68.5,36.6,83.1,36.4,4.9,0,9.2-1.5,13.4-4.6-17.3,10.2-39.7-7.1-54.4-13.8h0Z"/>
            <path class="cls-2" d="M451.7,478.4s-13.7,2.3-21.7,4.9c-15.1,4.9-19.8,7.8-24.2,11.3,0,0,9.5-6.3,15.9-4.6s6.3-.1,8.9-2,3.6-4.2,5.9-5.1c5.9-2.2,15.2-4.5,15.2-4.5h0Z"/>
          </g>
          <g>
            <path class="cls-6" d="M303.8,225c13.1,12.1,25.8,24.8,37.9,37.9-13.1-12.1-25.8-24.8-37.9-37.9h0Z"/>
            <path class="cls-6" d="M313.8,256.6c3.9,2.9,7.3,6.4,10.3,10.3-3.9-2.9-7.3-6.4-10.3-10.3h0Z"/>
            <path class="cls-6" d="M293.3,233.3c2.1-.6,3.7-2.1,5.2-3.5-1.1.8-2.2,1.3-3.4,1.6s-1.6-.6-1.2-1.4c.5-1.1,1.1-2,1.1-2,0,0-3.6,3.6-3,5.6.7,2,3.9,4.4,3.9,4.4,0,0-2.8-3.1-2.9-4.6h.3Z"/>
          </g>
          <g>
            <path class="cls-6" d="M595.3,225c-12.1,13.1-24.8,25.8-37.9,37.9,12.1-13.1,24.8-25.8,37.9-37.9h0Z"/>
            <path class="cls-6" d="M596.5,245.4c-2.9,3.9-6.4,7.3-10.3,10.3,2.9-3.9,6.4-7.3,10.3-10.3h0Z"/>
          </g>
        </g>
      </g>
    </g>
  </g>
</svg>