<?xml version="1.0" encoding="UTF-8"?>
<svg xmlns="http://www.w3.org/2000/svg" version="1.1" xmlns:xlink="http://www.w3.org/1999/xlink" viewBox="0 0 648 540">
  <defs>
    <style>
      .cls-1 {
        clip-path: url(#clippath-6);
      }

      .cls-2 {
        clip-path: url(#clippath-7);
      }

      .cls-3 {
        clip-path: url(#clippath-17);
      }

      .cls-4 {
        clip-path: url(#clippath-15);
      }

      .cls-5 {
        clip-path: url(#clippath-18);
      }

      .cls-6 {
        clip-path: url(#clippath-4);
      }

      .cls-7 {
        clip-path: url(#clippath-9);
      }

      .cls-8 {
        clip-path: url(#clippath-10);
      }

      .cls-9, .cls-10, .cls-11, .cls-12, .cls-13, .cls-14, .cls-15 {
        fill: #fff;
      }

      .cls-16 {
        fill: #f9f6df;
      }

      .cls-10, .cls-11, .cls-12, .cls-13, .cls-14, .cls-17, .cls-18, .cls-15 {
        stroke: #e20613;
      }

      .cls-10, .cls-11, .cls-17, .cls-18 {
        stroke-linecap: round;
      }

      .cls-10, .cls-12, .cls-19, .cls-14, .cls-17 {
        stroke-miterlimit: 10;
      }

      .cls-20 {
        clip-path: url(#clippath-11);
      }

      .cls-21, .cls-19, .cls-17, .cls-18 {
        fill: none;
      }

      .cls-11, .cls-13 {
        stroke-width: 2px;
      }

      .cls-11, .cls-13, .cls-18, .cls-15 {
        stroke-linejoin: round;
      }

      .cls-12 {
        stroke-width: 4px;
      }

      .cls-22 {
        clip-path: url(#clippath-1);
      }

      .cls-23 {
        isolation: isolate;
      }

      .cls-24 {
        clip-path: url(#clippath-5);
      }

      .cls-25 {
        clip-path: url(#clippath-8);
      }

      .cls-26 {
        clip-path: url(#clippath-3);
      }

      .cls-19 {
        stroke: #fff;
        stroke-width: 3px;
      }

      .cls-27 {
        clip-path: url(#clippath-12);
      }

      .cls-28 {
        clip-path: url(#clippath-14);
      }

      .cls-29 {
        mix-blend-mode: multiply;
      }

      .cls-30 {
        fill: #e20613;
      }

      .cls-31 {
        clip-path: url(#clippath-16);
      }

      .cls-32 {
        clip-path: url(#clippath-2);
      }

      .cls-33 {
        clip-path: url(#clippath-13);
      }

      .cls-34 {
        clip-path: url(#clippath);
      }
    </style>
    <symbol id="sweat" viewBox="0 0 2.3 5.9">
      <g>
        <path class="cls-9" d="M.7,3.6c-.2-.4-.5-1-.5-1.6C.2.9.5.3,1.2.3s1,.6,1,1.7-.7,1.9-.5,3.9"/>
        <path class="cls-30" d="M.7,3.6c-.3-.8-.4-1.6-.2-2.4.1-.4.3-.6.6-.7.4,0,.6,0,.7.4.1.3.2.7.2,1.1s-.1.8-.2,1.2c-.2.8-.3,1.7-.2,2.5,0-.8.1-1.7.4-2.4.3-.8.4-1.7.2-2.6,0-.2-.2-.5-.4-.6-.1,0-.2,0-.4,0h-.4c-.3,0-.5.2-.7.4-.2.2-.2.4-.3.7v1.3c.1.4.3.8.6,1.1h.1Z"/>
      </g>
    </symbol>
    <clipPath id="clippath">
      <rect class="cls-21" x="302.8" y="365.2" width="3.9" height="9.9"/>
    </clipPath>
    <clipPath id="clippath-1">
      <rect class="cls-21" x="284.5" y="400.8" width="3.9" height="9.9"/>
    </clipPath>
    <clipPath id="clippath-2">
      <rect class="cls-21" x="353.2" y="365.2" width="3.9" height="9.9"/>
    </clipPath>
    <clipPath id="clippath-3">
      <rect class="cls-21" x="363.8" y="385.9" width="3.9" height="9.9"/>
    </clipPath>
    <clipPath id="clippath-4">
      <rect class="cls-21" x="356.8" y="447.3" width="3.9" height="9.9"/>
    </clipPath>
    <clipPath id="clippath-5">
      <rect class="cls-21" x="348.5" y="459.6" width="3.9" height="9.9"/>
    </clipPath>
    <clipPath id="clippath-6">
      <rect class="cls-21" x="289.6" y="437.1" width="3.9" height="9.9"/>
    </clipPath>
    <clipPath id="clippath-7">
      <rect class="cls-21" x="362.4" y="421.8" width="3.9" height="9.9"/>
    </clipPath>
    <clipPath id="clippath-8">
      <rect class="cls-21" x="297.9" y="423.1" width="3.9" height="9.9"/>
    </clipPath>
    <clipPath id="clippath-9">
      <rect class="cls-21" x="303.3" y="472.3" width="3.9" height="9.9"/>
    </clipPath>
    <clipPath id="clippath-10">
      <rect class="cls-21" x="333" y="475.4" width="3.9" height="9.9"/>
    </clipPath>
    <clipPath id="clippath-11">
      <rect class="cls-21" x="328.6" y="361.9" width="3.9" height="9.9"/>
    </clipPath>
    <clipPath id="clippath-12">
      <rect class="cls-21" x="342.4" y="380.4" width="3.9" height="9.9"/>
    </clipPath>
    <clipPath id="clippath-13">
      <rect class="cls-21" x="311.5" y="389.2" width="3.9" height="9.9"/>
    </clipPath>
    <clipPath id="clippath-14">
      <rect class="cls-21" x="339.8" y="428.6" width="3.9" height="9.9"/>
    </clipPath>
    <clipPath id="clippath-15">
      <rect class="cls-21" x="353" y="435.6" width="3.9" height="9.9"/>
    </clipPath>
    <clipPath id="clippath-16">
      <rect class="cls-21" x="292.3" y="452.6" width="3.9" height="9.9"/>
    </clipPath>
    <clipPath id="clippath-17">
      <rect class="cls-21" x="291.3" y="381.6" width="3.9" height="9.9"/>
    </clipPath>
    <clipPath id="clippath-18">
      <rect class="cls-21" x="285" y="369.1" width="3.9" height="9.9"/>
    </clipPath>
  </defs>
  <!-- Generator: Adobe Illustrator 28.7.4, SVG Export Plug-In . SVG Version: 1.2.0 Build 166)  -->
  <g>
    <g id="Layer_1">
      <g class="cls-23">
        <g id="Layer_2">
          <rect class="cls-16" x="-36" y="-30" width="720" height="611.9"/>
          <g class="cls-29">
            <g>
              <g>
                <path class="cls-30" d="M505.8,5.7c-4.8,6.9.8,15.6-5,20.9-5.8,5.3,10.4,3.3,16.6-11.5,5.1-12.2-6.8-16.3-11.6-9.4Z"/>
                <g>
                  <path class="cls-9" d="M517.7,6.8s-1.3-1.3-2.5-1.3-1,.2-1.4.7l-.7.9-.2-1.1s-.5-2.2-3.1-2.2-1.1,0-1.7.2l-.9.2.3-.9s.7-1.8,2.4-2c1.6-.2,2.2-.7,2.7-1.3.6-.7,1.2-.8,1.7-.9.8-2.5.8-4.7.2-6.3-.6-1.7-2.1-2.9-4.2-3.7-.5-.2-.8-.7-.6-1.3,0-.4.5-.7.9-.7s.2,0,.3,0c2.8.9,4.6,2.6,5.4,4.9.8,2.2.7,4.9-.3,8.1,0,.3.2.7.2,1.1,0,.7.5,1.2,1.1,1.8.8.8,1.9,1.9,1.1,3.4l-.3.6-.5-.5v.3Z"/>
                  <path class="cls-30" d="M510.6-12.2h.2c2.6.9,4.3,2.4,5.1,4.6,1,2.6.4,5.6-.4,8,.2.3.2.6.2,1,0,2,3.4,2.8,2.3,5,0,0-1.4-1.4-2.9-1.4s-1.2.2-1.8.9c0,0-.5-2.6-3.6-2.6s-1.1,0-1.8.3c0,0,.5-1.5,2-1.7,1.8-.2,2.4-.8,3-1.4.5-.5,1-.7,1.5-.7h.2c.7-2.2,1.1-4.8.3-7-.7-1.9-2.2-3.2-4.5-4-.3,0-.4-.4-.3-.6,0-.2.3-.3.5-.3M510.6-13.2c-.6,0-1.2.4-1.4,1,0,.4,0,.8,0,1.1.2.4.5.6.9.8,2,.7,3.3,1.8,3.9,3.4.5,1.5.5,3.4,0,5.7-.5,0-1.1.4-1.6,1-.5.5-1,1-2.4,1.1-1.6.2-2.5,1.5-2.8,2.3l-.6,1.8,1.8-.5c.6,0,1.1-.2,1.6-.2,2.2,0,2.6,1.6,2.6,1.8l.4,2.1,1.3-1.7c.4-.5.8-.6,1-.6.9,0,1.9.8,2.2,1.1l1,1,.6-1.2c1-1.9-.3-3.2-1.2-4-.5-.5-1-1-1-1.4s0-.8-.2-1.1c1-3.2,1.1-6,.2-8.2-.9-2.5-2.9-4.2-5.8-5.2h-.5,0Z"/>
                </g>
              </g>
              <g>
                <polygon class="cls-30" points="40.1 12.9 31.9 9.5 38.8 -7 44.3 -4.7 44.8 1.4 40.1 12.9"/>
                <path class="cls-14" d="M38.8,4.5c-5.5-2.3-7.2-1.8-7.2-1.8l-11.8,28.4s1,2.5,6,4.5,7.5,1.1,7.5,1.1l11.8-28.4s-.9-1.5-6.4-3.8h0Z"/>
                <path class="cls-30" d="M37.4,7.8c-7.1-2.9-9.1-2.8-9.1-2.8l-12.9,31.3s1.3,3.2,7.8,5.9,9.7,1.4,9.7,1.4l12.9-31.3s-1.3-1.6-8.4-4.5h0Z"/>
                <g>
                  <path class="cls-9" d="M40.9,14.9c-1,0-1.9-.2-2.8-.6-3.8-1.6-5.6-5.9-4-9.7C35.3,1.8,37.9,0,41,0s1.9.2,2.8.6c1.8.8,3.3,2.2,4,4,.8,1.8.8,3.8,0,5.7-1.2,2.8-3.8,4.6-6.9,4.6ZM40.9,2.2c-2.2,0-4.1,1.3-4.9,3.3-1.1,2.7.2,5.8,2.9,6.9.6.3,1.3.4,2,.4,2.2,0,4.1-1.3,4.9-3.3.5-1.3.5-2.7,0-4.1-.5-1.3-1.6-2.3-2.9-2.9-.6-.3-1.3-.4-2-.4h0Z"/>
                  <path class="cls-30" d="M40.9.6c.9,0,1.8.2,2.6.5,3.5,1.5,5.2,5.5,3.7,9-1.1,2.7-3.7,4.3-6.4,4.3s-1.8-.2-2.6-.5c-3.5-1.5-5.2-5.5-3.7-9,1.1-2.7,3.7-4.3,6.4-4.3M40.9,13.3c2.3,0,4.4-1.3,5.4-3.6,1.2-3-.2-6.4-3.1-7.6-.7-.3-1.5-.4-2.2-.4-2.3,0-4.4,1.4-5.4,3.6-1.2,3,.2,6.4,3.1,7.6.7.3,1.5.4,2.2.4M40.9-.4h0c-3.2,0-6.1,1.9-7.3,4.9s-.8,4.1,0,6.1,2.3,3.5,4.3,4.3,2,.6,3,.6c3.2,0,6.1-1.9,7.3-4.9.8-2,.8-4.1,0-6.1s-2.3-3.5-4.3-4.3-2-.6-3-.6h0ZM40.9,12.3c-.6,0-1.2,0-1.8-.4-2.4-1-3.6-3.8-2.6-6.3.7-1.8,2.5-3,4.4-3s1.2,0,1.8.4c2.4,1,3.6,3.8,2.6,6.3-.7,1.8-2.5,3-4.4,3h0Z"/>
                </g>
                <path class="cls-14" d="M44.6,4.3s-.6.5-1.5,0-1-1.2-1-1.2l2.2-5.4,2.5,1-2.2,5.4h0Z"/>
                <g>
                  <line class="cls-19" x1="23.9" y1="30.4" x2="33.9" y2="26.2"/>
                  <line class="cls-19" x1="31" y1="33.3" x2="26.8" y2="23.3"/>
                </g>
              </g>
              <g>
                <path class="cls-30" d="M146.3,7.6c-5.2,7.1-3.3,30.3-17.6,40-2.8,1.9,1.2,4,7.6.6,10.7-5.7,21.9-22.6,24.6-33,3.4-13.4-7.1-17.6-14.5-7.6h-.1Z"/>
                <g>
                  <path class="cls-9" d="M152.3-12c.1-.4.5-.7,1-.7s.2,0,.3,0c2.8.9,4.6,2.6,5.4,4.9.8,2.2.7,4.9-.3,8.1.1.3.2.7.2,1.1,0,.7.5,1.2,1.1,1.8s1.9,1.9,1.1,3.4l-.3.6-.5-.5s-1.3-1.3-2.5-1.3-1,.2-1.4.7l-.7.9-.2-1.1s-.5-2.2-3.1-2.2-1.1,0-1.7.2l-.9.2.3-.9s.7-1.8,2.4-2c1.6-.2,2.2-.7,2.7-1.3.6-.7,1.2-.8,1.7-.9.8-2.5.8-4.7.2-6.3-.6-1.7-2.1-2.9-4.2-3.7-.3,0-.5-.3-.6-.5s-.1-.5,0-.8v.3Z"/>
                  <path class="cls-30" d="M153.3-12.2h.2c2.6.9,4.3,2.4,5.1,4.6,1,2.6.4,5.6-.4,8,.2.3.2.6.2,1,0,2,3.4,2.8,2.3,5,0,0-1.4-1.4-2.9-1.4s-1.2.2-1.8.9c0,0-.5-2.6-3.6-2.6s-1.1,0-1.8.3c0,0,.5-1.5,2-1.7,1.8-.2,2.4-.8,3-1.4.5-.5,1-.7,1.5-.7h.2c.7-2.2,1.1-4.8.3-7-.7-1.9-2.2-3.2-4.5-4-.3,0-.4-.4-.3-.6,0-.2.3-.3.5-.3M153.3-13.2c-.6,0-1.2.4-1.4,1-.1.4,0,.8,0,1.1.2.4.5.6.9.8,2,.7,3.3,1.8,3.9,3.4.5,1.5.5,3.4-.1,5.7-.5,0-1.1.4-1.6,1-.5.5-1,1-2.4,1.1-1.6.2-2.5,1.5-2.8,2.3l-.6,1.8,1.8-.5c.6,0,1.1-.2,1.6-.2,2.2,0,2.6,1.7,2.6,1.8l.4,2.1,1.3-1.7c.4-.5.8-.6,1-.6.9,0,1.9.8,2.2,1.1l1,1,.6-1.2c1-1.9-.3-3.2-1.2-4-.5-.5-1-1-1-1.4s0-.8-.2-1.1c1-3.2,1.1-6,.2-8.2-.9-2.5-2.9-4.2-5.8-5.2h-.5.1Z"/>
                </g>
              </g>
              <g>
                <path class="cls-30" d="M265.4,7.6c-5.2,7.1-3.3,30.3-17.6,40-2.8,1.9,1.2,4,7.6.6,10.7-5.7,21.9-22.6,24.6-33,3.4-13.4-7.1-17.6-14.5-7.6h-.1Z"/>
                <g>
                  <path class="cls-9" d="M271.4-12c.1-.4.5-.7,1-.7s.2,0,.3,0c2.8.9,4.6,2.6,5.4,4.9.8,2.2.7,4.9-.3,8.1.1.3.2.7.2,1.1,0,.7.5,1.2,1.1,1.8.8.8,1.9,1.9,1.1,3.4l-.3.6-.5-.5s-1.3-1.3-2.5-1.3-1,.2-1.4.7l-.7.9-.2-1.1s-.5-2.2-3.1-2.2-1.1,0-1.7.2l-.9.2.3-.9s.7-1.8,2.4-2c1.6-.2,2.2-.7,2.7-1.3.6-.7,1.2-.8,1.7-.9.8-2.5.8-4.7.2-6.3-.6-1.7-2.1-2.9-4.2-3.7-.3,0-.5-.3-.6-.5s-.1-.5,0-.8v.3Z"/>
                  <path class="cls-30" d="M272.3-12.2h.2c2.6.9,4.3,2.4,5.1,4.6,1,2.6.4,5.6-.4,8,.2.3.2.6.2,1,0,2,3.4,2.8,2.3,5,0,0-1.4-1.4-2.9-1.4s-1.2.2-1.8.9c0,0-.5-2.6-3.6-2.6s-1.1,0-1.8.3c0,0,.5-1.5,2-1.7,1.8-.2,2.4-.8,3-1.4.5-.5,1-.7,1.5-.7h.2c.7-2.2,1.1-4.8.3-7-.7-1.9-2.2-3.2-4.5-4-.3,0-.4-.4-.3-.6,0-.2.3-.3.5-.3M272.3-13.2c-.6,0-1.2.4-1.4,1-.1.4,0,.8,0,1.1.2.4.5.6.9.8,2,.7,3.3,1.8,3.9,3.4.5,1.5.5,3.4-.1,5.7-.5,0-1.1.4-1.6,1-.5.5-1,1-2.4,1.1-1.6.2-2.5,1.5-2.8,2.3l-.6,1.8,1.8-.5c.6,0,1.1-.2,1.6-.2,2.2,0,2.6,1.7,2.6,1.8l.4,2.1,1.3-1.7c.4-.5.8-.6,1-.6.9,0,1.9.8,2.2,1.1l1,1,.6-1.2c1-1.9-.3-3.2-1.2-4-.5-.5-1-1-1-1.4s0-.8-.2-1.1c1-3.2,1.1-6,.2-8.2-.9-2.5-2.9-4.2-5.8-5.2h-.5.1Z"/>
                </g>
              </g>
              <g>
                <path class="cls-30" d="M384.5,7.6c-5.2,7.1-3.3,30.3-17.6,40-2.8,1.9,1.2,4,7.6.6,10.7-5.7,21.9-22.6,24.6-33,3.4-13.4-7.1-17.6-14.5-7.6h-.1Z"/>
                <g>
                  <path class="cls-9" d="M390.5-12c.1-.4.5-.7,1-.7s.2,0,.3,0c2.8.9,4.6,2.6,5.4,4.9.8,2.2.7,4.9-.3,8.1.1.3.2.7.2,1.1,0,.7.5,1.2,1.1,1.8.8.8,1.9,1.9,1.1,3.4l-.3.6-.5-.5s-1.3-1.3-2.5-1.3-1,.2-1.4.7l-.7.9-.2-1.1s-.5-2.2-3.1-2.2-1.1,0-1.7.2l-.9.2.3-.9s.7-1.8,2.4-2c1.6-.2,2.2-.7,2.7-1.3.6-.7,1.2-.8,1.7-.9.8-2.5.8-4.7.2-6.3-.6-1.7-2.1-2.9-4.2-3.7-.3,0-.5-.3-.6-.5s-.1-.5,0-.8v.3Z"/>
                  <path class="cls-30" d="M391.4-12.2h.2c2.6.9,4.3,2.4,5.1,4.6,1,2.6.4,5.6-.4,8,.2.3.2.6.2,1,0,2,3.4,2.8,2.3,5,0,0-1.4-1.4-2.9-1.4s-1.2.2-1.8.9c0,0-.5-2.6-3.6-2.6s-1.1,0-1.8.3c0,0,.5-1.5,2-1.7,1.8-.2,2.4-.8,3-1.4.5-.5,1-.7,1.5-.7h.2c.7-2.2,1.1-4.8.3-7-.7-1.9-2.2-3.2-4.5-4-.3,0-.4-.4-.3-.6,0-.2.3-.3.5-.3M391.4-13.2c-.6,0-1.2.4-1.4,1-.1.4,0,.8,0,1.1.2.4.5.6.9.8,2,.7,3.3,1.8,3.9,3.4.5,1.5.5,3.4-.1,5.7-.5,0-1.1.4-1.6,1-.5.5-1,1-2.4,1.1-1.6.2-2.5,1.5-2.8,2.3l-.6,1.8,1.8-.5c.6,0,1.1-.2,1.6-.2,2.2,0,2.6,1.7,2.6,1.8l.4,2.1,1.3-1.7c.4-.5.8-.6,1-.6.9,0,1.9.8,2.2,1.1l1,1,.6-1.2c1-1.9-.3-3.2-1.2-4-.5-.5-1-1-1-1.4s0-.8-.2-1.1c1-3.2,1.1-6,.2-8.2-.9-2.5-2.9-4.2-5.8-5.2h-.5.1Z"/>
                </g>
              </g>
              <g>
                <path class="cls-30" d="M622.6,7.6c-5.2,7.1-3.3,30.3-17.6,40-2.8,1.9,1.2,4,7.6.6,10.7-5.7,21.9-22.6,24.6-33,3.4-13.4-7.1-17.6-14.5-7.6h0Z"/>
                <g>
                  <path class="cls-9" d="M628.6-12c0-.4.5-.7,1-.7s.2,0,.3,0c2.8.9,4.6,2.6,5.5,4.9.8,2.2.7,4.9-.3,8.1,0,.3.2.7.2,1.1,0,.7.5,1.2,1.1,1.8.8.8,1.9,1.9,1.1,3.4l-.3.6-.5-.5s-1.3-1.3-2.5-1.3-1,.2-1.4.7l-.7.9-.2-1.1s-.5-2.2-3.1-2.2-1.1,0-1.7.2l-.9.2.3-.9s.7-1.8,2.4-2c1.6-.2,2.2-.7,2.7-1.3.6-.7,1.2-.8,1.7-.9.8-2.5.8-4.7.2-6.3-.6-1.7-2-2.9-4.2-3.7-.3,0-.5-.3-.6-.5s0-.5,0-.8v.3Z"/>
                  <path class="cls-30" d="M629.5-12.2h.2c2.6.9,4.3,2.4,5.1,4.6,1,2.6.4,5.6-.4,8,.2.3.2.6.2,1,0,2,3.4,2.8,2.3,5,0,0-1.4-1.4-2.9-1.4s-1.2.2-1.8.9c0,0-.5-2.6-3.6-2.6s-1.1,0-1.8.3c0,0,.5-1.5,2-1.7,1.8-.2,2.4-.8,3-1.4.5-.5,1-.7,1.5-.7h.2c.7-2.2,1.1-4.8.3-7-.7-1.9-2.2-3.2-4.5-4-.3,0-.4-.4-.3-.6,0-.2.3-.3.5-.3M629.5-13.2c-.6,0-1.2.4-1.4,1,0,.4,0,.8,0,1.1.2.4.5.6.9.8,2,.7,3.3,1.8,3.9,3.4.5,1.5.5,3.4,0,5.7-.5,0-1.1.4-1.6,1-.5.5-1,1-2.4,1.1-1.6.2-2.5,1.5-2.8,2.3l-.6,1.8,1.8-.5c.6,0,1.1-.2,1.6-.2,2.2,0,2.6,1.6,2.6,1.8l.4,2.1,1.3-1.7c.4-.5.8-.6,1-.6.9,0,1.9.8,2.2,1.1l1,1,.6-1.2c1-1.9-.3-3.2-1.2-4-.5-.5-1-1-1-1.4s0-.8-.2-1.1c1-3.2,1.1-6,.2-8.2-.9-2.5-2.9-4.2-5.8-5.2h-.5,0Z"/>
                </g>
              </g>
            </g>
            <g>
              <g>
                <path class="cls-30" d="M148.6,137.4c-4.8,6.9.8,15.6-5,20.9s10.4,3.3,16.6-11.5c5.1-12.2-6.8-16.3-11.6-9.4Z"/>
                <g>
                  <path class="cls-9" d="M160.5,138.5s-1.3-1.3-2.5-1.3-1,.2-1.4.7l-.7.9-.2-1.1s-.5-2.2-3.1-2.2-1.1,0-1.7.2l-.9.2.3-.9s.7-1.8,2.4-2c1.6-.2,2.2-.7,2.7-1.3.6-.7,1.2-.8,1.7-.9.8-2.5.8-4.7.2-6.3-.6-1.7-2-2.9-4.2-3.7-.5-.2-.8-.7-.6-1.3.1-.4.5-.7.9-.7s.2,0,.3,0c2.8.9,4.6,2.6,5.4,4.9.8,2.2.7,4.9-.3,8.1.1.3.2.7.2,1.1,0,.7.5,1.2,1.1,1.8.8.8,1.9,1.9,1.1,3.4l-.3.6-.5-.5v.3Z"/>
                  <path class="cls-30" d="M153.4,119.5h.2c2.6.9,4.3,2.4,5.1,4.6,1,2.6.4,5.6-.4,8,.2.3.2.6.2,1,0,2,3.4,2.8,2.3,5,0,0-1.4-1.4-2.9-1.4s-1.2.2-1.8.9c0,0-.5-2.6-3.6-2.6s-1.1,0-1.8.3c0,0,.5-1.5,2-1.7,1.8-.2,2.4-.8,3-1.4.5-.5,1-.7,1.5-.7h.2c.7-2.2,1.1-4.8.3-7-.7-1.9-2.2-3.2-4.5-4-.3,0-.4-.4-.3-.6,0-.2.3-.3.5-.3M153.4,118.5c-.6,0-1.2.4-1.4,1-.3.8.2,1.6,1,1.9,2,.7,3.3,1.8,3.9,3.4.5,1.5.5,3.4-.1,5.7-.5.1-1.1.4-1.6,1-.5.5-1,1-2.4,1.1-1.6.2-2.5,1.5-2.8,2.3l-.6,1.8,1.8-.5c.6-.1,1.1-.2,1.6-.2,2.2,0,2.6,1.6,2.6,1.8l.4,2.1,1.3-1.7c.4-.5.8-.6,1-.6.9,0,1.9.8,2.2,1.1l1,1,.6-1.3c1-1.9-.3-3.2-1.2-4-.5-.5-1-1-1-1.4s0-.8-.2-1.1c1-3.2,1.1-6,.2-8.2-.9-2.5-2.9-4.2-5.8-5.2h-.5Z"/>
                </g>
              </g>
              <g>
                <path class="cls-30" d="M27.3,139.3c-5.2,7.1-3.3,30.3-17.6,40-2.8,1.9,1.2,4,7.6.6,10.7-5.7,21.9-22.6,24.6-33,3.4-13.4-7.1-17.6-14.5-7.6h0Z"/>
                <g>
                  <path class="cls-9" d="M33.3,119.7c0-.4.5-.7,1-.7s.2,0,.3,0c2.8.9,4.6,2.6,5.4,4.9.8,2.2.7,4.9-.3,8.1,0,.3.2.7.2,1.1,0,.7.5,1.2,1.1,1.8.8.8,1.9,1.9,1.1,3.4l-.3.6-.5-.5s-1.3-1.3-2.5-1.3-1,.2-1.4.7l-.7.9-.2-1.1s-.5-2.2-3.1-2.2-1.1,0-1.7.2l-.9.2.3-.9s.7-1.8,2.4-2c1.6-.2,2.2-.7,2.7-1.3.6-.7,1.2-.8,1.7-.9.8-2.5.8-4.7.2-6.3-.6-1.7-2.1-2.9-4.2-3.7-.3,0-.5-.3-.6-.5s0-.5,0-.8v.3Z"/>
                  <path class="cls-30" d="M34.2,119.5h.2c2.6.9,4.3,2.4,5.1,4.6,1,2.6.4,5.6-.4,8,.2.3.2.6.2,1,0,2,3.4,2.8,2.3,5,0,0-1.4-1.4-2.9-1.4s-1.2.2-1.8.9c0,0-.5-2.6-3.6-2.6s-1.1,0-1.8.3c0,0,.5-1.5,2-1.7,1.8-.2,2.4-.8,3-1.4.5-.5,1-.7,1.5-.7h.2c.7-2.2,1.1-4.8.3-7-.7-1.9-2.2-3.2-4.5-4-.3,0-.4-.4-.3-.6,0-.2.3-.3.5-.3M34.2,118.5c-.6,0-1.2.4-1.4,1,0,.4,0,.8,0,1.1.2.4.5.6.9.8,2,.7,3.3,1.8,3.9,3.4.5,1.5.5,3.4,0,5.7-.5.1-1.1.4-1.6,1-.5.5-1,1-2.4,1.1-1.6.2-2.5,1.5-2.8,2.3l-.6,1.8,1.8-.5c.6-.1,1.1-.2,1.6-.2,2.2,0,2.6,1.7,2.6,1.8l.4,2.1,1.4-1.7c.4-.5.8-.6,1-.6.9,0,1.9.8,2.2,1.1l1,1,.6-1.2c1-1.9-.3-3.2-1.2-4-.5-.5-1-1-1-1.4s0-.8-.2-1.1c1-3.2,1.1-6,.2-8.2-.9-2.5-2.9-4.2-5.8-5.2h-.5Z"/>
                </g>
              </g>
              <g>
                <path class="cls-30" d="M265.4,139.3c-5.2,7.1-3.3,30.3-17.6,40-2.8,1.9,1.2,4,7.6.6,10.7-5.7,21.9-22.6,24.6-33,3.4-13.4-7.1-17.6-14.5-7.6h-.1Z"/>
                <g>
                  <path class="cls-9" d="M271.4,119.7c.1-.4.5-.7,1-.7s.2,0,.3,0c2.8.9,4.6,2.6,5.4,4.9.8,2.2.7,4.9-.3,8.1.1.3.2.7.2,1.1,0,.7.5,1.2,1.1,1.8s1.9,1.9,1.1,3.4l-.3.6-.5-.5s-1.3-1.3-2.5-1.3-1,.2-1.4.7l-.7.9-.2-1.1s-.5-2.2-3.1-2.2-1.1,0-1.7.2l-.9.2.3-.9s.7-1.8,2.4-2c1.6-.2,2.2-.7,2.7-1.3.6-.7,1.2-.8,1.7-.9.8-2.5.8-4.7.2-6.3-.6-1.7-2.1-2.9-4.2-3.7-.3,0-.5-.3-.6-.5s-.1-.5,0-.8v.3Z"/>
                  <path class="cls-30" d="M272.3,119.5h.2c2.6.9,4.3,2.4,5.1,4.6,1,2.6.4,5.6-.4,8,.2.3.2.6.2,1,0,2,3.4,2.8,2.3,5,0,0-1.4-1.4-2.9-1.4s-1.2.2-1.8.9c0,0-.5-2.6-3.6-2.6s-1.1,0-1.8.3c0,0,.5-1.5,2-1.7,1.8-.2,2.4-.8,3-1.4.5-.5,1-.7,1.5-.7h.2c.7-2.2,1.1-4.8.3-7-.7-1.9-2.2-3.2-4.5-4-.3,0-.4-.4-.3-.6,0-.2.3-.3.5-.3M272.3,118.5c-.6,0-1.2.4-1.4,1-.1.4,0,.8,0,1.1.2.4.5.6.9.8,2,.7,3.3,1.8,3.9,3.4.5,1.5.5,3.4-.1,5.7-.5.1-1.1.4-1.6,1-.5.5-1,1-2.4,1.1-1.6.2-2.5,1.5-2.8,2.3l-.6,1.8,1.8-.5c.6-.1,1.1-.2,1.6-.2,2.2,0,2.6,1.7,2.6,1.8l.4,2.1,1.3-1.7c.4-.5.8-.6,1-.6.9,0,1.9.8,2.2,1.1l1,1,.6-1.2c1-1.9-.3-3.2-1.2-4-.5-.5-1-1-1-1.4s0-.8-.2-1.1c1-3.2,1.1-6,.2-8.2-.9-2.5-2.9-4.2-5.8-5.2h-.5.1Z"/>
                </g>
              </g>
              <g>
                <path class="cls-30" d="M384.5,139.3c-5.2,7.1-3.3,30.3-17.6,40-2.8,1.9,1.2,4,7.6.6,10.7-5.7,21.9-22.6,24.6-33,3.4-13.4-7.1-17.6-14.5-7.6h-.1Z"/>
                <g>
                  <path class="cls-9" d="M390.5,119.7c.1-.4.5-.7,1-.7s.2,0,.3,0c2.8.9,4.6,2.6,5.4,4.9.8,2.2.7,4.9-.3,8.1.1.3.2.7.2,1.1,0,.7.5,1.2,1.1,1.8s1.9,1.9,1.1,3.4l-.3.6-.5-.5s-1.3-1.3-2.5-1.3-1,.2-1.4.7l-.7.9-.2-1.1s-.5-2.2-3.1-2.2-1.1,0-1.7.2l-.9.2.3-.9s.7-1.8,2.4-2c1.6-.2,2.2-.7,2.7-1.3.6-.7,1.2-.8,1.7-.9.8-2.5.8-4.7.2-6.3-.6-1.7-2.1-2.9-4.2-3.7-.3,0-.5-.3-.6-.5s-.1-.5,0-.8v.3Z"/>
                  <path class="cls-30" d="M391.4,119.5h.2c2.6.9,4.3,2.4,5.1,4.6,1,2.6.4,5.6-.4,8,.2.3.2.6.2,1,0,2,3.4,2.8,2.3,5,0,0-1.4-1.4-2.9-1.4s-1.2.2-1.8.9c0,0-.5-2.6-3.6-2.6s-1.1,0-1.8.3c0,0,.5-1.5,2-1.7,1.8-.2,2.4-.8,3-1.4.5-.5,1-.7,1.5-.7h.2c.7-2.2,1.1-4.8.3-7-.7-1.9-2.2-3.2-4.5-4-.3,0-.4-.4-.3-.6,0-.2.3-.3.5-.3M391.4,118.5c-.6,0-1.2.4-1.4,1-.1.4,0,.8,0,1.1.2.4.5.6.9.8,2,.7,3.3,1.8,3.9,3.4.5,1.5.5,3.4-.1,5.7-.5.1-1.1.4-1.6,1-.5.5-1,1-2.4,1.1-1.6.2-2.5,1.5-2.8,2.3l-.6,1.8,1.8-.5c.6-.1,1.1-.2,1.6-.2,2.2,0,2.6,1.7,2.6,1.8l.4,2.1,1.3-1.7c.4-.5.8-.6,1-.6.9,0,1.9.8,2.2,1.1l1,1,.6-1.2c1-1.9-.3-3.2-1.2-4-.5-.5-1-1-1-1.4s0-.8-.2-1.1c1-3.2,1.1-6,.2-8.2-.9-2.5-2.9-4.2-5.8-5.2h-.5.1Z"/>
                </g>
              </g>
              <g>
                <path class="cls-30" d="M503.5,139.3c-5.2,7.1-3.3,30.3-17.6,40-2.8,1.9,1.2,4,7.6.6,10.7-5.7,21.9-22.6,24.6-33,3.4-13.4-7.1-17.6-14.5-7.6h0Z"/>
                <g>
                  <path class="cls-9" d="M509.5,119.7c0-.4.5-.7,1-.7s.2,0,.3,0c2.8.9,4.6,2.6,5.4,4.9.8,2.2.7,4.9-.3,8.1,0,.3.2.7.2,1.1,0,.7.5,1.2,1.1,1.8.8.8,1.9,1.9,1.1,3.4l-.3.6-.5-.5s-1.3-1.3-2.5-1.3-1,.2-1.4.7l-.7.9-.2-1.1s-.5-2.2-3.1-2.2-1.1,0-1.7.2l-.9.2.3-.9s.7-1.8,2.4-2c1.6-.2,2.2-.7,2.7-1.3.6-.7,1.2-.8,1.7-.9.8-2.5.8-4.7.2-6.3-.6-1.7-2.1-2.9-4.2-3.7-.3,0-.5-.3-.6-.5s0-.5,0-.8v.3Z"/>
                  <path class="cls-30" d="M510.5,119.5h.2c2.6.9,4.3,2.4,5.1,4.6,1,2.6.4,5.6-.4,8,.2.3.2.6.2,1,0,2,3.4,2.8,2.3,5,0,0-1.4-1.4-2.9-1.4s-1.2.2-1.8.9c0,0-.5-2.6-3.6-2.6s-1.1,0-1.8.3c0,0,.5-1.5,2-1.7,1.8-.2,2.4-.8,3-1.4.5-.5,1-.7,1.5-.7h.2c.7-2.2,1.1-4.8.3-7-.7-1.9-2.2-3.2-4.5-4-.3,0-.4-.4-.3-.6,0-.2.3-.3.5-.3M510.5,118.5c-.6,0-1.2.4-1.4,1,0,.4,0,.8,0,1.1.2.4.5.6.9.8,2,.7,3.3,1.8,3.9,3.4.5,1.5.5,3.4,0,5.7-.5.1-1.1.4-1.6,1-.5.5-1,1-2.4,1.1-1.6.2-2.5,1.5-2.8,2.3l-.6,1.8,1.8-.5c.6-.1,1.1-.2,1.6-.2,2.2,0,2.6,1.6,2.6,1.8l.4,2.1,1.3-1.7c.4-.5.8-.6,1-.6.9,0,1.9.8,2.2,1.1l1,1,.6-1.2c1-1.9-.3-3.2-1.2-4-.5-.5-1-1-1-1.4s0-.8-.2-1.1c1-3.2,1.1-6,.2-8.2-.9-2.5-2.9-4.2-5.8-5.2h-.5,0Z"/>
                </g>
              </g>
              <g>
                <path class="cls-30" d="M622.6,139.3c-5.2,7.1-3.3,30.3-17.6,40-2.8,1.9,1.2,4,7.6.6,10.7-5.7,21.9-22.6,24.6-33,3.4-13.4-7.1-17.6-14.5-7.6h0Z"/>
                <g>
                  <path class="cls-9" d="M628.6,119.7c0-.4.5-.7,1-.7s.2,0,.3,0c2.8.9,4.6,2.6,5.5,4.9.8,2.2.7,4.9-.3,8.1,0,.3.2.7.2,1.1,0,.7.5,1.2,1.1,1.8.8.8,1.9,1.9,1.1,3.4l-.3.6-.5-.5s-1.3-1.3-2.5-1.3-1,.2-1.4.7l-.7.9-.2-1.1s-.5-2.2-3.1-2.2-1.1,0-1.7.2l-.9.2.3-.9s.7-1.8,2.4-2c1.6-.2,2.2-.7,2.7-1.3.6-.7,1.2-.8,1.7-.9.8-2.5.8-4.7.2-6.3-.6-1.7-2-2.9-4.2-3.7-.3,0-.5-.3-.6-.5s0-.5,0-.8v.3Z"/>
                  <path class="cls-30" d="M629.5,119.5h.2c2.6.9,4.3,2.4,5.1,4.6,1,2.6.4,5.6-.4,8,.2.3.2.6.2,1,0,2,3.4,2.8,2.3,5,0,0-1.4-1.4-2.9-1.4s-1.2.2-1.8.9c0,0-.5-2.6-3.6-2.6s-1.1,0-1.8.3c0,0,.5-1.5,2-1.7,1.8-.2,2.4-.8,3-1.4.5-.5,1-.7,1.5-.7h.2c.7-2.2,1.1-4.8.3-7-.7-1.9-2.2-3.2-4.5-4-.3,0-.4-.4-.3-.6,0-.2.3-.3.5-.3M629.5,118.5c-.6,0-1.2.4-1.4,1,0,.4,0,.8,0,1.1.2.4.5.6.9.8,2,.7,3.3,1.8,3.9,3.4.5,1.5.5,3.4,0,5.7-.5.1-1.1.4-1.6,1-.5.5-1,1-2.4,1.1-1.6.2-2.5,1.5-2.8,2.3l-.6,1.8,1.8-.5c.6-.1,1.1-.2,1.6-.2,2.2,0,2.6,1.6,2.6,1.8l.4,2.1,1.3-1.7c.4-.5.8-.6,1-.6.9,0,1.9.8,2.2,1.1l1,1,.6-1.2c1-1.9-.3-3.2-1.2-4-.5-.5-1-1-1-1.4s0-.8-.2-1.1c1-3.2,1.1-6,.2-8.2-.9-2.5-2.9-4.2-5.8-5.2h-.5,0Z"/>
                </g>
              </g>
            </g>
            <g>
              <g>
                <path class="cls-30" d="M148.6,400.6c-4.8,6.9.8,15.6-5,20.9s10.4,3.3,16.6-11.5c5.1-12.2-6.8-16.3-11.6-9.4Z"/>
                <g>
                  <path class="cls-9" d="M160.5,401.7s-1.3-1.3-2.5-1.3-1,.2-1.4.7l-.7.9-.2-1.1s-.5-2.2-3.1-2.2-1.1,0-1.7.2l-.9.2.3-.9s.7-1.8,2.4-2c1.6-.2,2.2-.7,2.7-1.3.6-.7,1.2-.8,1.7-.9.8-2.5.8-4.7.2-6.3-.6-1.7-2-2.9-4.2-3.7-.5-.2-.8-.7-.6-1.3.1-.4.5-.7.9-.7s.2,0,.3,0c2.8.9,4.6,2.6,5.4,4.9.8,2.2.7,4.9-.3,8.1.1.3.2.7.2,1.1,0,.7.5,1.2,1.1,1.8.8.8,1.9,1.9,1.1,3.4l-.3.6-.5-.5v.3Z"/>
                  <path class="cls-30" d="M153.4,382.7h.2c2.6.9,4.3,2.4,5.1,4.6,1,2.6.4,5.6-.4,8,.2.3.2.6.2,1,0,2,3.4,2.8,2.3,5,0,0-1.4-1.4-2.9-1.4s-1.2.2-1.8.9c0,0-.5-2.6-3.6-2.6s-1.1,0-1.8.3c0,0,.5-1.5,2-1.7,1.8-.2,2.4-.8,3-1.4.5-.5,1-.7,1.5-.7h.2c.7-2.2,1.1-4.8.3-7-.7-1.9-2.2-3.2-4.5-4-.3,0-.4-.4-.3-.6,0-.2.3-.3.5-.3M153.4,381.7c-.6,0-1.2.4-1.4,1-.3.8.2,1.6,1,1.9,2,.7,3.3,1.8,3.9,3.4.5,1.5.5,3.4-.1,5.7-.5.1-1.1.4-1.6,1-.5.5-1,1-2.4,1.1-1.6.2-2.5,1.5-2.8,2.3l-.6,1.8,1.8-.5c.6-.1,1.1-.2,1.6-.2,2.2,0,2.6,1.6,2.6,1.8l.4,2.1,1.3-1.7c.4-.5.8-.6,1-.6.9,0,1.9.8,2.2,1.1l1,1,.6-1.3c1-1.9-.3-3.2-1.2-4-.5-.5-1-1-1-1.4s0-.8-.2-1.1c1-3.2,1.1-6,.2-8.2-.9-2.5-2.9-4.2-5.8-5.2h-.5Z"/>
                </g>
              </g>
              <g>
                <path class="cls-30" d="M27.3,402.5c-5.2,7.1-3.3,30.3-17.6,40-2.8,1.9,1.2,4,7.6.6,10.7-5.7,21.9-22.6,24.6-33,3.4-13.4-7.1-17.6-14.5-7.6h0Z"/>
                <g>
                  <path class="cls-9" d="M33.3,382.9c0-.4.5-.7,1-.7s.2,0,.3,0c2.8.9,4.6,2.6,5.4,4.9.8,2.2.7,4.9-.3,8.1,0,.3.2.7.2,1.1,0,.7.5,1.2,1.1,1.8.8.8,1.9,1.9,1.1,3.4l-.3.6-.5-.5s-1.3-1.3-2.5-1.3-1,.2-1.4.7l-.7.9-.2-1.1s-.5-2.2-3.1-2.2-1.1,0-1.7.2l-.9.2.3-.9s.7-1.8,2.4-2c1.6-.2,2.2-.7,2.7-1.3.6-.7,1.2-.8,1.7-.9.8-2.5.8-4.7.2-6.3-.6-1.7-2.1-2.9-4.2-3.7-.3,0-.5-.3-.6-.5s0-.5,0-.8v.3Z"/>
                  <path class="cls-30" d="M34.2,382.7h.2c2.6.9,4.3,2.4,5.1,4.6,1,2.6.4,5.6-.4,8,.2.3.2.6.2,1,0,2,3.4,2.8,2.3,5,0,0-1.4-1.4-2.9-1.4s-1.2.2-1.8.9c0,0-.5-2.6-3.6-2.6s-1.1,0-1.8.3c0,0,.5-1.5,2-1.7,1.8-.2,2.4-.8,3-1.4.5-.5,1-.7,1.5-.7h.2c.7-2.2,1.1-4.8.3-7-.7-1.9-2.2-3.2-4.5-4-.3,0-.4-.4-.3-.6,0-.2.3-.3.5-.3M34.2,381.7c-.6,0-1.2.4-1.4,1,0,.4,0,.8,0,1.1.2.4.5.6.9.8,2,.7,3.3,1.8,3.9,3.4.5,1.5.5,3.4,0,5.7-.5.1-1.1.4-1.6,1-.5.5-1,1-2.4,1.1-1.6.2-2.5,1.5-2.8,2.3l-.6,1.8,1.8-.5c.6-.1,1.1-.2,1.6-.2,2.2,0,2.6,1.7,2.6,1.8l.4,2.1,1.4-1.7c.4-.5.8-.6,1-.6.9,0,1.9.8,2.2,1.1l1,1,.6-1.2c1-1.9-.3-3.2-1.2-4-.5-.5-1-1-1-1.4s0-.8-.2-1.1c1-3.2,1.1-6,.2-8.2-.9-2.5-2.9-4.2-5.8-5.2h-.5Z"/>
                </g>
              </g>
              <g>
                <path class="cls-30" d="M265.4,402.5c-5.2,7.1-3.3,30.3-17.6,40-2.8,1.9,1.2,4,7.6.6,10.7-5.7,21.9-22.6,24.6-33,3.4-13.4-7.1-17.6-14.5-7.6h-.1Z"/>
                <g>
                  <path class="cls-9" d="M271.4,382.9c.1-.4.5-.7,1-.7s.2,0,.3,0c2.8.9,4.6,2.6,5.4,4.9.8,2.2.7,4.9-.3,8.1.1.3.2.7.2,1.1,0,.7.5,1.2,1.1,1.8s1.9,1.9,1.1,3.4l-.3.6-.5-.5s-1.3-1.3-2.5-1.3-1,.2-1.4.7l-.7.9-.2-1.1s-.5-2.2-3.1-2.2-1.1,0-1.7.2l-.9.2.3-.9s.7-1.8,2.4-2c1.6-.2,2.2-.7,2.7-1.3.6-.7,1.2-.8,1.7-.9.8-2.5.8-4.7.2-6.3-.6-1.7-2.1-2.9-4.2-3.7-.3,0-.5-.3-.6-.5s-.1-.5,0-.8v.3Z"/>
                  <path class="cls-30" d="M272.3,382.7h.2c2.6.9,4.3,2.4,5.1,4.6,1,2.6.4,5.6-.4,8,.2.3.2.6.2,1,0,2,3.4,2.8,2.3,5,0,0-1.4-1.4-2.9-1.4s-1.2.2-1.8.9c0,0-.5-2.6-3.6-2.6s-1.1,0-1.8.3c0,0,.5-1.5,2-1.7,1.8-.2,2.4-.8,3-1.4.5-.5,1-.7,1.5-.7h.2c.7-2.2,1.1-4.8.3-7-.7-1.9-2.2-3.2-4.5-4-.3,0-.4-.4-.3-.6,0-.2.3-.3.5-.3M272.3,381.7c-.6,0-1.2.4-1.4,1-.1.4,0,.8,0,1.1.2.4.5.6.9.8,2,.7,3.3,1.8,3.9,3.4.5,1.5.5,3.4-.1,5.7-.5.1-1.1.4-1.6,1-.5.5-1,1-2.4,1.1-1.6.2-2.5,1.5-2.8,2.3l-.6,1.8,1.8-.5c.6-.1,1.1-.2,1.6-.2,2.2,0,2.6,1.7,2.6,1.8l.4,2.1,1.3-1.7c.4-.5.8-.6,1-.6.9,0,1.9.8,2.2,1.1l1,1,.6-1.2c1-1.9-.3-3.2-1.2-4-.5-.5-1-1-1-1.4s0-.8-.2-1.1c1-3.2,1.1-6,.2-8.2-.9-2.5-2.9-4.2-5.8-5.2h-.5.1Z"/>
                </g>
              </g>
              <g>
                <path class="cls-30" d="M384.5,402.5c-5.2,7.1-3.3,30.3-17.6,40-2.8,1.9,1.2,4,7.6.6,10.7-5.7,21.9-22.6,24.6-33,3.4-13.4-7.1-17.6-14.5-7.6h-.1Z"/>
                <g>
                  <path class="cls-9" d="M390.5,382.9c.1-.4.5-.7,1-.7s.2,0,.3,0c2.8.9,4.6,2.6,5.4,4.9.8,2.2.7,4.9-.3,8.1.1.3.2.7.2,1.1,0,.7.5,1.2,1.1,1.8s1.9,1.9,1.1,3.4l-.3.6-.5-.5s-1.3-1.3-2.5-1.3-1,.2-1.4.7l-.7.9-.2-1.1s-.5-2.2-3.1-2.2-1.1,0-1.7.2l-.9.2.3-.9s.7-1.8,2.4-2c1.6-.2,2.2-.7,2.7-1.3.6-.7,1.2-.8,1.7-.9.8-2.5.8-4.7.2-6.3-.6-1.7-2.1-2.9-4.2-3.7-.3,0-.5-.3-.6-.5s-.1-.5,0-.8v.3Z"/>
                  <path class="cls-30" d="M391.4,382.7h.2c2.6.9,4.3,2.4,5.1,4.6,1,2.6.4,5.6-.4,8,.2.3.2.6.2,1,0,2,3.4,2.8,2.3,5,0,0-1.4-1.4-2.9-1.4s-1.2.2-1.8.9c0,0-.5-2.6-3.6-2.6s-1.1,0-1.8.3c0,0,.5-1.5,2-1.7,1.8-.2,2.4-.8,3-1.4.5-.5,1-.7,1.5-.7h.2c.7-2.2,1.1-4.8.3-7-.7-1.9-2.2-3.2-4.5-4-.3,0-.4-.4-.3-.6,0-.2.3-.3.5-.3M391.4,381.7c-.6,0-1.2.4-1.4,1-.1.4,0,.8,0,1.1.2.4.5.6.9.8,2,.7,3.3,1.8,3.9,3.4.5,1.5.5,3.4-.1,5.7-.5.1-1.1.4-1.6,1-.5.5-1,1-2.4,1.1-1.6.2-2.5,1.5-2.8,2.3l-.6,1.8,1.8-.5c.6-.1,1.1-.2,1.6-.2,2.2,0,2.6,1.7,2.6,1.8l.4,2.1,1.3-1.7c.4-.5.8-.6,1-.6.9,0,1.9.8,2.2,1.1l1,1,.6-1.2c1-1.9-.3-3.2-1.2-4-.5-.5-1-1-1-1.4s0-.8-.2-1.1c1-3.2,1.1-6,.2-8.2-.9-2.5-2.9-4.2-5.8-5.2h-.5.1Z"/>
                </g>
              </g>
              <g>
                <path class="cls-30" d="M503.5,402.5c-5.2,7.1-3.3,30.3-17.6,40-2.8,1.9,1.2,4,7.6.6,10.7-5.7,21.9-22.6,24.6-33,3.4-13.4-7.1-17.6-14.5-7.6h0Z"/>
                <g>
                  <path class="cls-9" d="M509.5,382.9c0-.4.5-.7,1-.7s.2,0,.3,0c2.8.9,4.6,2.6,5.4,4.9.8,2.2.7,4.9-.3,8.1,0,.3.2.7.2,1.1,0,.7.5,1.2,1.1,1.8.8.8,1.9,1.9,1.1,3.4l-.3.6-.5-.5s-1.3-1.3-2.5-1.3-1,.2-1.4.7l-.7.9-.2-1.1s-.5-2.2-3.1-2.2-1.1,0-1.7.2l-.9.2.3-.9s.7-1.8,2.4-2c1.6-.2,2.2-.7,2.7-1.3.6-.7,1.2-.8,1.7-.9.8-2.5.8-4.7.2-6.3-.6-1.7-2.1-2.9-4.2-3.7-.3,0-.5-.3-.6-.5s0-.5,0-.8v.3Z"/>
                  <path class="cls-30" d="M510.5,382.7h.2c2.6.9,4.3,2.4,5.1,4.6,1,2.6.4,5.6-.4,8,.2.3.2.6.2,1,0,2,3.4,2.8,2.3,5,0,0-1.4-1.4-2.9-1.4s-1.2.2-1.8.9c0,0-.5-2.6-3.6-2.6s-1.1,0-1.8.3c0,0,.5-1.5,2-1.7,1.8-.2,2.4-.8,3-1.4.5-.5,1-.7,1.5-.7h.2c.7-2.2,1.1-4.8.3-7-.7-1.9-2.2-3.2-4.5-4-.3,0-.4-.4-.3-.6,0-.2.3-.3.5-.3M510.5,381.7c-.6,0-1.2.4-1.4,1,0,.4,0,.8,0,1.1.2.4.5.6.9.8,2,.7,3.3,1.8,3.9,3.4.5,1.5.5,3.4,0,5.7-.5.1-1.1.4-1.6,1-.5.5-1,1-2.4,1.1-1.6.2-2.5,1.5-2.8,2.3l-.6,1.8,1.8-.5c.6-.1,1.1-.2,1.6-.2,2.2,0,2.6,1.6,2.6,1.8l.4,2.1,1.3-1.7c.4-.5.8-.6,1-.6.9,0,1.9.8,2.2,1.1l1,1,.6-1.2c1-1.9-.3-3.2-1.2-4-.5-.5-1-1-1-1.4s0-.8-.2-1.1c1-3.2,1.1-6,.2-8.2-.9-2.5-2.9-4.2-5.8-5.2h-.5,0Z"/>
                </g>
              </g>
              <g>
                <path class="cls-30" d="M622.6,402.5c-5.2,7.1-3.3,30.3-17.6,40-2.8,1.9,1.2,4,7.6.6,10.7-5.7,21.9-22.6,24.6-33,3.4-13.4-7.1-17.6-14.5-7.6h0Z"/>
                <g>
                  <path class="cls-9" d="M628.6,382.9c0-.4.5-.7,1-.7s.2,0,.3,0c2.8.9,4.6,2.6,5.5,4.9.8,2.2.7,4.9-.3,8.1,0,.3.2.7.2,1.1,0,.7.5,1.2,1.1,1.8.8.8,1.9,1.9,1.1,3.4l-.3.6-.5-.5s-1.3-1.3-2.5-1.3-1,.2-1.4.7l-.7.9-.2-1.1s-.5-2.2-3.1-2.2-1.1,0-1.7.2l-.9.2.3-.9s.7-1.8,2.4-2c1.6-.2,2.2-.7,2.7-1.3.6-.7,1.2-.8,1.7-.9.8-2.5.8-4.7.2-6.3-.6-1.7-2-2.9-4.2-3.7-.3,0-.5-.3-.6-.5s0-.5,0-.8v.3Z"/>
                  <path class="cls-30" d="M629.5,382.7h.2c2.6.9,4.3,2.4,5.1,4.6,1,2.6.4,5.6-.4,8,.2.3.2.6.2,1,0,2,3.4,2.8,2.3,5,0,0-1.4-1.4-2.9-1.4s-1.2.2-1.8.9c0,0-.5-2.6-3.6-2.6s-1.1,0-1.8.3c0,0,.5-1.5,2-1.7,1.8-.2,2.4-.8,3-1.4.5-.5,1-.7,1.5-.7h.2c.7-2.2,1.1-4.8.3-7-.7-1.9-2.2-3.2-4.5-4-.3,0-.4-.4-.3-.6,0-.2.3-.3.5-.3M629.5,381.7c-.6,0-1.2.4-1.4,1,0,.4,0,.8,0,1.1.2.4.5.6.9.8,2,.7,3.3,1.8,3.9,3.4.5,1.5.5,3.4,0,5.7-.5.1-1.1.4-1.6,1-.5.5-1,1-2.4,1.1-1.6.2-2.5,1.5-2.8,2.3l-.6,1.8,1.8-.5c.6-.1,1.1-.2,1.6-.2,2.2,0,2.6,1.6,2.6,1.8l.4,2.1,1.3-1.7c.4-.5.8-.6,1-.6.9,0,1.9.8,2.2,1.1l1,1,.6-1.2c1-1.9-.3-3.2-1.2-4-.5-.5-1-1-1-1.4s0-.8-.2-1.1c1-3.2,1.1-6,.2-8.2-.9-2.5-2.9-4.2-5.8-5.2h-.5,0Z"/>
                </g>
              </g>
            </g>
            <g>
              <g>
                <path class="cls-30" d="M27.3,270.9c-5.2,7.1-3.3,30.3-17.6,40-2.8,1.9,1.2,4,7.6.6,10.7-5.7,21.9-22.6,24.6-33,3.4-13.4-7.1-17.6-14.5-7.6h0Z"/>
                <g>
                  <path class="cls-9" d="M33.3,251.3c0-.4.5-.7,1-.7s.2,0,.3,0c2.8.9,4.6,2.6,5.4,4.9.8,2.2.7,4.9-.3,8.1,0,.3.2.7.2,1.1,0,.7.5,1.2,1.1,1.8.8.8,1.9,1.9,1.1,3.4l-.3.6-.5-.5s-1.3-1.3-2.5-1.3-1,.2-1.4.7l-.7.9-.2-1.1s-.5-2.2-3.1-2.2-1.1,0-1.7.2l-.9.2.3-.9s.7-1.8,2.4-2c1.6-.2,2.2-.7,2.7-1.3.6-.7,1.2-.8,1.7-.9.8-2.5.8-4.7.2-6.3-.6-1.7-2.1-2.9-4.2-3.7-.3,0-.5-.3-.6-.5s0-.5,0-.8v.3Z"/>
                  <path class="cls-30" d="M34.2,251.1h.2c2.6.9,4.3,2.4,5.1,4.6,1,2.6.4,5.6-.4,8,.2.3.2.6.2,1,0,2,3.4,2.8,2.3,5,0,0-1.4-1.4-2.9-1.4s-1.2.2-1.8.9c0,0-.5-2.6-3.6-2.6s-1.1,0-1.8.3c0,0,.5-1.5,2-1.7,1.8-.2,2.4-.8,3-1.4.5-.5,1-.7,1.5-.7h.2c.7-2.2,1.1-4.8.3-7-.7-1.9-2.2-3.2-4.5-4-.3,0-.4-.4-.3-.6,0-.2.3-.3.5-.3M34.2,250.1c-.6,0-1.2.4-1.4,1,0,.4,0,.8,0,1.1.2.4.5.6.9.8,2,.7,3.3,1.8,3.9,3.4.5,1.5.5,3.4,0,5.7-.5.1-1.1.4-1.6,1-.5.5-1,1-2.4,1.1-1.6.2-2.5,1.5-2.8,2.3l-.6,1.8,1.8-.5c.6-.1,1.1-.2,1.6-.2,2.2,0,2.6,1.7,2.6,1.8l.4,2.1,1.4-1.7c.4-.5.8-.6,1-.6.9,0,1.9.8,2.2,1.1l1,1,.6-1.2c1-1.9-.3-3.2-1.2-4-.5-.5-1-1-1-1.4s0-.8-.2-1.1c1-3.2,1.1-6,.2-8.2-.9-2.5-2.9-4.2-5.8-5.2h-.5Z"/>
                </g>
              </g>
              <g>
                <path class="cls-30" d="M146.3,270.9c-5.2,7.1-3.3,30.3-17.6,40-2.8,1.9,1.2,4,7.6.6,10.7-5.7,21.9-22.6,24.6-33,3.4-13.4-7.1-17.6-14.5-7.6h-.1Z"/>
                <g>
                  <path class="cls-9" d="M152.3,251.3c.1-.4.5-.7,1-.7s.2,0,.3,0c2.8.9,4.6,2.6,5.4,4.9.8,2.2.7,4.9-.3,8.1.1.3.2.7.2,1.1,0,.7.5,1.2,1.1,1.8.8.8,1.9,1.9,1.1,3.4l-.3.6-.5-.5s-1.3-1.3-2.5-1.3-1,.2-1.4.7l-.7.9-.2-1.1s-.5-2.2-3.1-2.2-1.1,0-1.7.2l-.9.2.3-.9s.7-1.8,2.4-2c1.6-.2,2.2-.7,2.7-1.3.6-.7,1.2-.8,1.7-.9.8-2.5.8-4.7.2-6.3-.6-1.7-2.1-2.9-4.2-3.7-.3,0-.5-.3-.6-.5s-.1-.5,0-.8v.3Z"/>
                  <path class="cls-30" d="M153.3,251.1h.2c2.6.9,4.3,2.4,5.1,4.6,1,2.6.4,5.6-.4,8,.2.3.2.6.2,1,0,2,3.4,2.8,2.3,5,0,0-1.4-1.4-2.9-1.4s-1.2.2-1.8.9c0,0-.5-2.6-3.6-2.6s-1.1,0-1.8.3c0,0,.5-1.5,2-1.7,1.8-.2,2.4-.8,3-1.4s1-.7,1.5-.7h.2c.7-2.2,1.1-4.8.3-7-.7-1.9-2.2-3.2-4.5-4-.3,0-.4-.4-.3-.6,0-.2.3-.3.5-.3M153.3,250.1c-.6,0-1.2.4-1.4,1-.1.4,0,.8,0,1.1.2.4.5.6.9.8,2,.7,3.3,1.8,3.9,3.4.5,1.5.5,3.4-.1,5.7-.5.1-1.1.4-1.6,1-.5.5-1,1-2.4,1.1-1.6.2-2.5,1.5-2.8,2.3l-.6,1.8,1.8-.5c.6-.1,1.1-.2,1.6-.2,2.2,0,2.6,1.7,2.6,1.8l.4,2.1,1.3-1.7c.4-.5.8-.6,1-.6.9,0,1.9.8,2.2,1.1l1,1,.6-1.2c1-1.9-.3-3.2-1.2-4-.5-.5-1-1-1-1.4s0-.8-.2-1.1c1-3.2,1.1-6,.2-8.2-.9-2.5-2.9-4.2-5.8-5.2h-.5.1Z"/>
                </g>
              </g>
              <g>
                <path class="cls-30" d="M265.4,270.9c-5.2,7.1-3.3,30.3-17.6,40-2.8,1.9,1.2,4,7.6.6,10.7-5.7,21.9-22.6,24.6-33,3.4-13.4-7.1-17.6-14.5-7.6h-.1Z"/>
                <g>
                  <path class="cls-9" d="M271.4,251.3c.1-.4.5-.7,1-.7s.2,0,.3,0c2.8.9,4.6,2.6,5.4,4.9.8,2.2.7,4.9-.3,8.1.1.3.2.7.2,1.1,0,.7.5,1.2,1.1,1.8.8.8,1.9,1.9,1.1,3.4l-.3.6-.5-.5s-1.3-1.3-2.5-1.3-1,.2-1.4.7l-.7.9-.2-1.1s-.5-2.2-3.1-2.2-1.1,0-1.7.2l-.9.2.3-.9s.7-1.8,2.4-2c1.6-.2,2.2-.7,2.7-1.3.6-.7,1.2-.8,1.7-.9.8-2.5.8-4.7.2-6.3-.6-1.7-2.1-2.9-4.2-3.7-.3,0-.5-.3-.6-.5s-.1-.5,0-.8v.3Z"/>
                  <path class="cls-30" d="M272.3,251.1h.2c2.6.9,4.3,2.4,5.1,4.6,1,2.6.4,5.6-.4,8,.2.3.2.6.2,1,0,2,3.4,2.8,2.3,5,0,0-1.4-1.4-2.9-1.4s-1.2.2-1.8.9c0,0-.5-2.6-3.6-2.6s-1.1,0-1.8.3c0,0,.5-1.5,2-1.7,1.8-.2,2.4-.8,3-1.4s1-.7,1.5-.7h.2c.7-2.2,1.1-4.8.3-7-.7-1.9-2.2-3.2-4.5-4-.3,0-.4-.4-.3-.6,0-.2.3-.3.5-.3M272.3,250.1c-.6,0-1.2.4-1.4,1-.1.4,0,.8,0,1.1.2.4.5.6.9.8,2,.7,3.3,1.8,3.9,3.4.5,1.5.5,3.4-.1,5.7-.5.1-1.1.4-1.6,1-.5.5-1,1-2.4,1.1-1.6.2-2.5,1.5-2.8,2.3l-.6,1.8,1.8-.5c.6-.1,1.1-.2,1.6-.2,2.2,0,2.6,1.7,2.6,1.8l.4,2.1,1.3-1.7c.4-.5.8-.6,1-.6.9,0,1.9.8,2.2,1.1l1,1,.6-1.2c1-1.9-.3-3.2-1.2-4-.5-.5-1-1-1-1.4s0-.8-.2-1.1c1-3.2,1.1-6,.2-8.2-.9-2.5-2.9-4.2-5.8-5.2h-.5.1Z"/>
                </g>
              </g>
              <g>
                <path class="cls-30" d="M384.5,270.9c-5.2,7.1-3.3,30.3-17.6,40-2.8,1.9,1.2,4,7.6.6,10.7-5.7,21.9-22.6,24.6-33,3.4-13.4-7.1-17.6-14.5-7.6h-.1Z"/>
                <g>
                  <path class="cls-9" d="M390.5,251.3c.1-.4.5-.7,1-.7s.2,0,.3,0c2.8.9,4.6,2.6,5.4,4.9.8,2.2.7,4.9-.3,8.1.1.3.2.7.2,1.1,0,.7.5,1.2,1.1,1.8.8.8,1.9,1.9,1.1,3.4l-.3.6-.5-.5s-1.3-1.3-2.5-1.3-1,.2-1.4.7l-.7.9-.2-1.1s-.5-2.2-3.1-2.2-1.1,0-1.7.2l-.9.2.3-.9s.7-1.8,2.4-2c1.6-.2,2.2-.7,2.7-1.3.6-.7,1.2-.8,1.7-.9.8-2.5.8-4.7.2-6.3-.6-1.7-2.1-2.9-4.2-3.7-.3,0-.5-.3-.6-.5s-.1-.5,0-.8v.3Z"/>
                  <path class="cls-30" d="M391.4,251.1h.2c2.6.9,4.3,2.4,5.1,4.6,1,2.6.4,5.6-.4,8,.2.3.2.6.2,1,0,2,3.4,2.8,2.3,5,0,0-1.4-1.4-2.9-1.4s-1.2.2-1.8.9c0,0-.5-2.6-3.6-2.6s-1.1,0-1.8.3c0,0,.5-1.5,2-1.7,1.8-.2,2.4-.8,3-1.4s1-.7,1.5-.7h.2c.7-2.2,1.1-4.8.3-7-.7-1.9-2.2-3.2-4.5-4-.3,0-.4-.4-.3-.6,0-.2.3-.3.5-.3M391.4,250.1c-.6,0-1.2.4-1.4,1-.1.4,0,.8,0,1.1.2.4.5.6.9.8,2,.7,3.3,1.8,3.9,3.4.5,1.5.5,3.4-.1,5.7-.5.1-1.1.4-1.6,1-.5.5-1,1-2.4,1.1-1.6.2-2.5,1.5-2.8,2.3l-.6,1.8,1.8-.5c.6-.1,1.1-.2,1.6-.2,2.2,0,2.6,1.7,2.6,1.8l.4,2.1,1.3-1.7c.4-.5.8-.6,1-.6.9,0,1.9.8,2.2,1.1l1,1,.6-1.2c1-1.9-.3-3.2-1.2-4-.5-.5-1-1-1-1.4s0-.8-.2-1.1c1-3.2,1.1-6,.2-8.2-.9-2.5-2.9-4.2-5.8-5.2h-.5.1Z"/>
                </g>
              </g>
              <g>
                <path class="cls-30" d="M503.5,270.9c-5.2,7.1-3.3,30.3-17.6,40-2.8,1.9,1.2,4,7.6.6,10.7-5.7,21.9-22.6,24.6-33,3.4-13.4-7.1-17.6-14.5-7.6h0Z"/>
                <g>
                  <path class="cls-9" d="M509.5,251.3c0-.4.5-.7,1-.7s.2,0,.3,0c2.8.9,4.6,2.6,5.4,4.9.8,2.2.7,4.9-.3,8.1,0,.3.2.7.2,1.1,0,.7.5,1.2,1.1,1.8s1.9,1.9,1.1,3.4l-.3.6-.5-.5s-1.3-1.3-2.5-1.3-1,.2-1.4.7l-.7.9-.2-1.1s-.5-2.2-3.1-2.2-1.1,0-1.7.2l-.9.2.3-.9s.7-1.8,2.4-2c1.6-.2,2.2-.7,2.7-1.3.6-.7,1.2-.8,1.7-.9.8-2.5.8-4.7.2-6.3-.6-1.7-2.1-2.9-4.2-3.7-.3,0-.5-.3-.6-.5s0-.5,0-.8v.3Z"/>
                  <path class="cls-30" d="M510.5,251.1h.2c2.6.9,4.3,2.4,5.1,4.6,1,2.6.4,5.6-.4,8,.2.3.2.6.2,1,0,2,3.4,2.8,2.3,5,0,0-1.4-1.4-2.9-1.4s-1.2.2-1.8.9c0,0-.5-2.6-3.6-2.6s-1.1,0-1.8.3c0,0,.5-1.5,2-1.7,1.8-.2,2.4-.8,3-1.4.5-.5,1-.7,1.5-.7h.2c.7-2.2,1.1-4.8.3-7-.7-1.9-2.2-3.2-4.5-4-.3,0-.4-.4-.3-.6,0-.2.3-.3.5-.3M510.5,250.1c-.6,0-1.2.4-1.4,1,0,.4,0,.8,0,1.1.2.4.5.6.9.8,2,.7,3.3,1.8,3.9,3.4.5,1.5.5,3.4,0,5.7-.5.1-1.1.4-1.6,1-.5.5-1,1-2.4,1.1-1.6.2-2.5,1.5-2.8,2.3l-.6,1.8,1.8-.5c.6-.1,1.1-.2,1.6-.2,2.2,0,2.6,1.6,2.6,1.8l.4,2.1,1.3-1.7c.4-.5.8-.6,1-.6.9,0,1.9.8,2.2,1.1l1,1,.6-1.2c1-1.9-.3-3.2-1.2-4-.5-.5-1-1-1-1.4s0-.8-.2-1.1c1-3.2,1.1-6,.2-8.2-.9-2.5-2.9-4.2-5.8-5.2h-.5,0Z"/>
                </g>
              </g>
              <g>
                <path class="cls-30" d="M622.6,270.9c-5.2,7.1-3.3,30.3-17.6,40-2.8,1.9,1.2,4,7.6.6,10.7-5.7,21.9-22.6,24.6-33,3.4-13.4-7.1-17.6-14.5-7.6h0Z"/>
                <g>
                  <path class="cls-9" d="M628.6,251.3c0-.4.5-.7,1-.7s.2,0,.3,0c2.8.9,4.6,2.6,5.5,4.9.8,2.2.7,4.9-.3,8.1,0,.3.2.7.2,1.1,0,.7.5,1.2,1.1,1.8s1.9,1.9,1.1,3.4l-.3.6-.5-.5s-1.3-1.3-2.5-1.3-1,.2-1.4.7l-.7.9-.2-1.1s-.5-2.2-3.1-2.2-1.1,0-1.7.2l-.9.2.3-.9s.7-1.8,2.4-2c1.6-.2,2.2-.7,2.7-1.3.6-.7,1.2-.8,1.7-.9.8-2.5.8-4.7.2-6.3-.6-1.7-2-2.9-4.2-3.7-.3,0-.5-.3-.6-.5s0-.5,0-.8v.3Z"/>
                  <path class="cls-30" d="M629.5,251.1h.2c2.6.9,4.3,2.4,5.1,4.6,1,2.6.4,5.6-.4,8,.2.3.2.6.2,1,0,2,3.4,2.8,2.3,5,0,0-1.4-1.4-2.9-1.4s-1.2.2-1.8.9c0,0-.5-2.6-3.6-2.6s-1.1,0-1.8.3c0,0,.5-1.5,2-1.7,1.8-.2,2.4-.8,3-1.4.5-.5,1-.7,1.5-.7h.2c.7-2.2,1.1-4.8.3-7-.7-1.9-2.2-3.2-4.5-4-.3,0-.4-.4-.3-.6,0-.2.3-.3.5-.3M629.5,250.1c-.6,0-1.2.4-1.4,1,0,.4,0,.8,0,1.1.2.4.5.6.9.8,2,.7,3.3,1.8,3.9,3.4.5,1.5.5,3.4,0,5.7-.5.1-1.1.4-1.6,1-.5.5-1,1-2.4,1.1-1.6.2-2.5,1.5-2.8,2.3l-.6,1.8,1.8-.5c.6-.1,1.1-.2,1.6-.2,2.2,0,2.6,1.6,2.6,1.8l.4,2.1,1.3-1.7c.4-.5.8-.6,1-.6.9,0,1.9.8,2.2,1.1l1,1,.6-1.2c1-1.9-.3-3.2-1.2-4-.5-.5-1-1-1-1.4s0-.8-.2-1.1c1-3.2,1.1-6,.2-8.2-.9-2.5-2.9-4.2-5.8-5.2h-.5,0Z"/>
                </g>
              </g>
            </g>
            <g>
              <g>
                <path class="cls-30" d="M45.2,534.9c-5.2-5.4-6.3-6.4-13.2-5.8-5.8.5-12.1,2.5-13.9,9.9s.6,11.7-1.2,17.7c-1.7,6-1.6,11.4,2.2,11,.2,0,1.3-.3,1.5-.3.6,1.5,1,2.4,2.3,2.8,1,.3,2.4-.2,3.5-.7.2.2.5.5.7.8,2.9,2.9,6-.5,8.7-4.4,2.7-4,3.7-7.1,7.4-11,4.1-4.3,8-13.7,2-19.9h0Z"/>
                <g>
                  <path class="cls-9" d="M41.7,533.5c0,0-.3,0-.4-.2,0,0-1.3-1.3-2.5-1.3s-1,.2-1.4.7c0,0-.2.2-.4.2s0,0,0,0c-.2,0-.3-.2-.4-.4,0,0-.5-2.2-3.1-2.2s-1.1,0-1.7.2h0c0,0-.3,0-.4-.2,0,0-.2-.3,0-.5,0,0,.7-1.8,2.4-2,1.6-.2,2.2-.7,2.7-1.3.6-.7,1.2-.8,1.7-.9.8-2.5.8-4.7.2-6.3-.6-1.7-2.1-2.9-4.2-3.7-.5-.2-.8-.7-.6-1.3,0-.4.5-.7,1-.7s.2,0,.3,0c2.8.9,4.6,2.6,5.4,4.9.8,2.2.7,4.9-.3,8.1,0,.3.2.7.2,1.1,0,.7.5,1.2,1.1,1.8.8.8,1.9,1.9,1.1,3.4,0,0-.2.2-.4.3h0v.3Z"/>
                  <path class="cls-30" d="M34.2,514.4h.2c2.6.9,4.3,2.4,5.1,4.6,1,2.6.4,5.6-.4,8,.2.3.2.6.2,1,0,2,3.4,2.8,2.3,5,0,0-1.4-1.4-2.9-1.4s-1.2.2-1.8.9c0,0-.5-2.6-3.6-2.6s-1.1,0-1.8.3c0,0,.5-1.5,2-1.7,1.8-.2,2.4-.8,3-1.4.5-.5,1-.7,1.5-.7s0,0,.2,0c.7-2.2,1.1-4.8.3-7-.7-1.9-2.2-3.2-4.5-4-.3,0-.4-.4-.3-.6,0-.2.3-.3.5-.3M34.2,513.4c-.6,0-1.2.4-1.4,1-.3.8.2,1.6,1,1.9,2,.7,3.3,1.8,3.9,3.4.5,1.5.5,3.4,0,5.7-.5,0-1.1.4-1.6,1-.5.5-1,1-2.4,1.1-1.6.2-2.5,1.5-2.8,2.3,0,.3,0,.7.2,1,.2.2.5.3.7.3h.2c.6,0,1.1-.2,1.6-.2,2.2,0,2.6,1.7,2.6,1.8,0,.4.4.7.7.8h.2c.3,0,.6,0,.8-.4.4-.5.8-.6,1-.6.9,0,1.9.8,2.2,1.1.2.2.4.3.7.3s0,0,.2,0c.3,0,.6-.2.7-.5,1-1.9-.3-3.2-1.2-4-.5-.5-1-1-1-1.4s0-.8-.2-1.1c1-3.2,1.1-6,.2-8.2-.9-2.5-2.9-4.2-5.8-5.2h-.5.1Z"/>
                </g>
                <path class="cls-9" d="M30.9,535.9c-2,1.7-2.9,3.8-3.8,6.1-.6-2.6,1-5.8,3.8-6.1h0Z"/>
              </g>
              <g>
                <path class="cls-14" d="M512.8,551.6c-.8-4.7-4.5-9.5-4.5-9.5h-10.9s-3.7,4.8-4.5,9.5-.8,11.7,1.3,11.7h17.4c2,0,2.1-7,1.3-11.7h0Z"/>
                <g>
                  <rect class="cls-30" x="497.9" y="549" width="9.9" height="9.9"/>
                  <path class="cls-9" d="M501.1,551.7h2.3c.5,0,.8,0,1.1.3.2.2.4.5.4.9s-.2.8-.6,1c.5.2.7.6.7,1.1s0,.4,0,.5c0,.2-.2.3-.3.5-.2,0-.3.2-.5.3s-.5,0-.9,0h-2v-4.7h-.1ZM502,553.5h1.2c.2,0,.4,0,.5,0,0,0,.2-.2.2-.4s0-.3-.2-.4c0,0-.3,0-.6,0h-1.1v1h0ZM502,555.6h1.2c.2,0,.4,0,.6-.2,0,0,.2-.3.2-.5s0-.3-.2-.4c0,0-.3-.2-.5-.2h-1.3v1.3h0Z"/>
                </g>
                <path class="cls-15" d="M509.1,541.4s-.6,3.2-2.1,4.3c-1.9,1.5-3.5-.9-5.3,1.6-1.4,2-.5,5.1-2.2,5.1s-.3-3.2-1.6-3.5-1.5.8-2.6,1.6-1.5.7-1.8,1.2c-.3.4,0,2.1-.9,2.1s.5-5.9,4.8-11.8c3.4-4.6,1.4-6.4,1.4-6.4h11.1s-1.7,4-.8,5.8h0Z"/>
                <path class="cls-30" d="M496.7,543.1s-2.9,3.1-3.3,5.1c-.4,2-.6,5.7-2.1,8-.8,1.3-.8,2.3.4,2.2,1.3,0,2.4-3.4,2.4-5.7s.6-4.1,1.3-3.6c.8.4.4,1.6,1.1,1.6s.3-2.3,1.1-2.9c.8-.6,1.5-4.6,3.8-5.1s-4.9.4-4.9.4h.2Z"/>
                <path class="cls-15" d="M509.9,538.3s-3.8.3-6.2.3-4.5-.3-4.5-.3c0,0,0,1.1-.8,2.4-.8,1.2-3.2,2.5-2.5,3.5,0,0,2.9-.8,7.2-.8s6.8.3,6.8.3c-.5-2.5,0-5.3,0-5.3h0Z"/>
                <path class="cls-30" d="M507.3,527.5s-3.9-1.2-6.3-.5-5.7,4.5-4.1,7.9c1.6,3.4.3,4.5,1.8,5.1,1.6.6,3.1-1.9,4.2-1.9s1.3,1.6,2.3,1.5,1.2-2.2,2.2-2.2.8.4,1.2.8c.5.4,0,3.1.7,3.1s1-1.2.6-2.7c-.4-1.4.4-1.2.6-1.8.3-.6,2.2-1.7.5-4.3-1-1.4-.6-3.6-3.8-5h0Z"/>
                <path class="cls-30" d="M499.8,543c2.1,0,4.3-1.4,6.4-1.2-2.3.2-4,1.8-6.3,2.2-.3,0-.5,0-.6-.4,0-.3.2-.6.5-.6h0Z"/>
                <path class="cls-9" d="M505.3,529.3c.4,2-2.6,2.1-3,3.8-.4-.9.4-1.9,1.2-2.3.6-.4,1.6-.7,1.8-1.5h0Z"/>
              </g>
              <g>
                <path class="cls-30" d="M146.3,534.3c-5.2,7.1-3.3,30.3-17.6,40-2.8,1.9,1.2,4,7.6.6,10.7-5.7,21.9-22.6,24.6-33,3.4-13.4-7.1-17.6-14.5-7.6h-.1Z"/>
                <g>
                  <path class="cls-9" d="M152.3,514.6c.1-.4.5-.7,1-.7s.2,0,.3,0c2.8.9,4.6,2.6,5.4,4.9.8,2.2.7,4.9-.3,8.1.1.3.2.7.2,1.1,0,.7.5,1.2,1.1,1.8.8.8,1.9,1.9,1.1,3.4l-.3.6-.5-.5s-1.3-1.3-2.5-1.3-1,.2-1.4.7l-.7.9-.2-1.1s-.5-2.2-3.1-2.2-1.1,0-1.7.2l-.9.2.3-.9s.7-1.8,2.4-2c1.6-.2,2.2-.7,2.7-1.3.6-.7,1.2-.8,1.7-.9.8-2.5.8-4.7.2-6.3-.6-1.7-2.1-2.9-4.2-3.7-.3,0-.5-.3-.6-.5s-.1-.5,0-.8v.3Z"/>
                  <path class="cls-30" d="M153.3,514.4h.2c2.6.9,4.3,2.4,5.1,4.6,1,2.6.4,5.6-.4,8,.2.3.2.6.2,1,0,2,3.4,2.8,2.3,5,0,0-1.4-1.4-2.9-1.4s-1.2.2-1.8.9c0,0-.5-2.6-3.6-2.6s-1.1,0-1.8.3c0,0,.5-1.5,2-1.7,1.8-.2,2.4-.8,3-1.4.5-.5,1-.7,1.5-.7h.2c.7-2.2,1.1-4.8.3-7-.7-1.9-2.2-3.2-4.5-4-.3,0-.4-.4-.3-.6,0-.2.3-.3.5-.3M153.3,513.4c-.6,0-1.2.4-1.4,1-.1.4,0,.8,0,1.1.2.4.5.6.9.8,2,.7,3.3,1.8,3.9,3.4.5,1.5.5,3.4-.1,5.7-.5,0-1.1.4-1.6,1-.5.5-1,1-2.4,1.1-1.6.2-2.5,1.5-2.8,2.3l-.6,1.8,1.8-.5c.6,0,1.1-.2,1.6-.2,2.2,0,2.6,1.7,2.6,1.8l.4,2.1,1.3-1.7c.4-.5.8-.6,1-.6.9,0,1.9.8,2.2,1.1l1,1,.6-1.2c1-1.9-.3-3.2-1.2-4-.5-.5-1-1-1-1.4s0-.8-.2-1.1c1-3.2,1.1-6,.2-8.2-.9-2.5-2.9-4.2-5.8-5.2h-.5.1Z"/>
                </g>
              </g>
              <g>
                <path class="cls-30" d="M265.4,534.3c-5.2,7.1-3.3,30.3-17.6,40-2.8,1.9,1.2,4,7.6.6,10.7-5.7,21.9-22.6,24.6-33,3.4-13.4-7.1-17.6-14.5-7.6h-.1Z"/>
                <g>
                  <path class="cls-9" d="M271.4,514.6c.1-.4.5-.7,1-.7s.2,0,.3,0c2.8.9,4.6,2.6,5.4,4.9.8,2.2.7,4.9-.3,8.1.1.3.2.7.2,1.1,0,.7.5,1.2,1.1,1.8.8.8,1.9,1.9,1.1,3.4l-.3.6-.5-.5s-1.3-1.3-2.5-1.3-1,.2-1.4.7l-.7.9-.2-1.1s-.5-2.2-3.1-2.2-1.1,0-1.7.2l-.9.2.3-.9s.7-1.8,2.4-2c1.6-.2,2.2-.7,2.7-1.3.6-.7,1.2-.8,1.7-.9.8-2.5.8-4.7.2-6.3-.6-1.7-2.1-2.9-4.2-3.7-.3,0-.5-.3-.6-.5s-.1-.5,0-.8v.3Z"/>
                  <path class="cls-30" d="M272.3,514.4h.2c2.6.9,4.3,2.4,5.1,4.6,1,2.6.4,5.6-.4,8,.2.3.2.6.2,1,0,2,3.4,2.8,2.3,5,0,0-1.4-1.4-2.9-1.4s-1.2.2-1.8.9c0,0-.5-2.6-3.6-2.6s-1.1,0-1.8.3c0,0,.5-1.5,2-1.7,1.8-.2,2.4-.8,3-1.4.5-.5,1-.7,1.5-.7h.2c.7-2.2,1.1-4.8.3-7-.7-1.9-2.2-3.2-4.5-4-.3,0-.4-.4-.3-.6,0-.2.3-.3.5-.3M272.3,513.4c-.6,0-1.2.4-1.4,1-.1.4,0,.8,0,1.1.2.4.5.6.9.8,2,.7,3.3,1.8,3.9,3.4.5,1.5.5,3.4-.1,5.7-.5,0-1.1.4-1.6,1-.5.5-1,1-2.4,1.1-1.6.2-2.5,1.5-2.8,2.3l-.6,1.8,1.8-.5c.6,0,1.1-.2,1.6-.2,2.2,0,2.6,1.7,2.6,1.8l.4,2.1,1.3-1.7c.4-.5.8-.6,1-.6.9,0,1.9.8,2.2,1.1l1,1,.6-1.2c1-1.9-.3-3.2-1.2-4-.5-.5-1-1-1-1.4s0-.8-.2-1.1c1-3.2,1.1-6,.2-8.2-.9-2.5-2.9-4.2-5.8-5.2h-.5.1Z"/>
                </g>
              </g>
              <g>
                <path class="cls-30" d="M384.5,534.3c-5.2,7.1-3.3,30.3-17.6,40-2.8,1.9,1.2,4,7.6.6,10.7-5.7,21.9-22.6,24.6-33,3.4-13.4-7.1-17.6-14.5-7.6h-.1Z"/>
                <g>
                  <path class="cls-9" d="M390.5,514.6c.1-.4.5-.7,1-.7s.2,0,.3,0c2.8.9,4.6,2.6,5.4,4.9.8,2.2.7,4.9-.3,8.1.1.3.2.7.2,1.1,0,.7.5,1.2,1.1,1.8.8.8,1.9,1.9,1.1,3.4l-.3.6-.5-.5s-1.3-1.3-2.5-1.3-1,.2-1.4.7l-.7.9-.2-1.1s-.5-2.2-3.1-2.2-1.1,0-1.7.2l-.9.2.3-.9s.7-1.8,2.4-2c1.6-.2,2.2-.7,2.7-1.3.6-.7,1.2-.8,1.7-.9.8-2.5.8-4.7.2-6.3-.6-1.7-2.1-2.9-4.2-3.7-.3,0-.5-.3-.6-.5s-.1-.5,0-.8v.3Z"/>
                  <path class="cls-30" d="M391.4,514.4h.2c2.6.9,4.3,2.4,5.1,4.6,1,2.6.4,5.6-.4,8,.2.3.2.6.2,1,0,2,3.4,2.8,2.3,5,0,0-1.4-1.4-2.9-1.4s-1.2.2-1.8.9c0,0-.5-2.6-3.6-2.6s-1.1,0-1.8.3c0,0,.5-1.5,2-1.7,1.8-.2,2.4-.8,3-1.4.5-.5,1-.7,1.5-.7h.2c.7-2.2,1.1-4.8.3-7-.7-1.9-2.2-3.2-4.5-4-.3,0-.4-.4-.3-.6,0-.2.3-.3.5-.3M391.4,513.4c-.6,0-1.2.4-1.4,1-.1.4,0,.8,0,1.1.2.4.5.6.9.8,2,.7,3.3,1.8,3.9,3.4.5,1.5.5,3.4-.1,5.7-.5,0-1.1.4-1.6,1-.5.5-1,1-2.4,1.1-1.6.2-2.5,1.5-2.8,2.3l-.6,1.8,1.8-.5c.6,0,1.1-.2,1.6-.2,2.2,0,2.6,1.7,2.6,1.8l.4,2.1,1.3-1.7c.4-.5.8-.6,1-.6.9,0,1.9.8,2.2,1.1l1,1,.6-1.2c1-1.9-.3-3.2-1.2-4-.5-.5-1-1-1-1.4s0-.8-.2-1.1c1-3.2,1.1-6,.2-8.2-.9-2.5-2.9-4.2-5.8-5.2h-.5.1Z"/>
                </g>
              </g>
              <g>
                <path class="cls-30" d="M622.6,534.3c-5.2,7.1-3.3,30.3-17.6,40-2.8,1.9,1.2,4,7.6.6,10.7-5.7,21.9-22.6,24.6-33,3.4-13.4-7.1-17.6-14.5-7.6h0Z"/>
                <g>
                  <path class="cls-9" d="M628.6,514.6c0-.4.5-.7,1-.7s.2,0,.3,0c2.8.9,4.6,2.6,5.5,4.9.8,2.2.7,4.9-.3,8.1,0,.3.2.7.2,1.1,0,.7.5,1.2,1.1,1.8s1.9,1.9,1.1,3.4l-.3.6-.5-.5s-1.3-1.3-2.5-1.3-1,.2-1.4.7l-.7.9-.2-1.1s-.5-2.2-3.1-2.2-1.1,0-1.7.2l-.9.2.3-.9s.7-1.8,2.4-2c1.6-.2,2.2-.7,2.7-1.3.6-.7,1.2-.8,1.7-.9.8-2.5.8-4.7.2-6.3-.6-1.7-2-2.9-4.2-3.7-.3,0-.5-.3-.6-.5s0-.5,0-.8v.3Z"/>
                  <path class="cls-30" d="M629.5,514.4h.2c2.6.9,4.3,2.4,5.1,4.6,1,2.6.4,5.6-.4,8,.2.3.2.6.2,1,0,2,3.4,2.8,2.3,5,0,0-1.4-1.4-2.9-1.4s-1.2.2-1.8.9c0,0-.5-2.6-3.6-2.6s-1.1,0-1.8.3c0,0,.5-1.5,2-1.7,1.8-.2,2.4-.8,3-1.4.5-.5,1-.7,1.5-.7h.2c.7-2.2,1.1-4.8.3-7-.7-1.9-2.2-3.2-4.5-4-.3,0-.4-.4-.3-.6,0-.2.3-.3.5-.3M629.5,513.4c-.6,0-1.2.4-1.4,1,0,.4,0,.8,0,1.1.2.4.5.6.9.8,2,.7,3.3,1.8,3.9,3.4.5,1.5.5,3.4,0,5.7-.5,0-1.1.4-1.6,1-.5.5-1,1-2.4,1.1-1.6.2-2.5,1.5-2.8,2.3l-.6,1.8,1.8-.5c.6,0,1.1-.2,1.6-.2,2.2,0,2.6,1.6,2.6,1.8l.4,2.1,1.3-1.7c.4-.5.8-.6,1-.6.9,0,1.9.8,2.2,1.1l1,1,.6-1.2c1-1.9-.3-3.2-1.2-4-.5-.5-1-1-1-1.4s0-.8-.2-1.1c1-3.2,1.1-6,.2-8.2-.9-2.5-2.9-4.2-5.8-5.2h-.5,0Z"/>
                </g>
              </g>
            </g>
          </g>
          <rect class="cls-12" x="75" y="75.2" width="501.7" height="145.2"/>
          <g>
            <path class="cls-30" d="M144.5,120.6v8.5h18.5v22.6h-7.2v-1.7h-11.6c-.4,6.2-1.4,8.8-2.9,11.7,10,4.4,20.9,5.5,27.4,5.9-1.3,2.5-2.3,5-2.7,7.1-17.3-1.8-25.1-5.8-28.9-7.6-2,1.6-7.6,6.1-20.6,8.1-.8-2.3-1.9-4.9-3.3-7.1,5.9-.5,11.5-1.5,17.2-4.9-4.5-3.5-6.2-5.5-8.5-8.4l5.8-3.8c2,3,4.5,5.1,7.3,6.9,1.1-3.1,1.5-5.2,1.6-7.9h-11.3v1.9h-6.8v-22.8h18.4v-8.5h7.7,0ZM125.2,135.2v9h11.6v-9h-11.6ZM144.5,144.2h11.3v-9h-11.3v9Z"/>
            <path class="cls-30" d="M204.7,119.7v4.6h21.7v5.3h-51.5v-5.3h21.3v-4.6h8.5ZM225,147.2v22.2c0,4.4-2.5,5.6-10,6.1-.2-2-.8-4.3-2-6.4h3.7c.7,0,1.1-.4,1.1-1.1v-15.3h-34.9v21.8h-7v-27.4h49.1,0ZM216.6,131.9v13h-32.9v-13h32.9ZM212.9,155.1v13.6h-19v1.7h-6.7v-15.2h25.7ZM190.9,136.6v3.4h18.2v-3.4h-18.2ZM193.9,160v3.5h12.2v-3.5h-12.2Z"/>
            <path class="cls-30" d="M241.1,156.6c-.8,4.4-1.9,10.4-3.4,14.8-1.9-.7-4-1.2-6-1.7,1.7-4.9,2.9-9.7,3.6-14.4l5.8,1.3h0ZM253.4,155.2c.8,3.8,1.9,7.6,3.2,11.3-1.9.5-4.1,1.2-5.8,1.6-.8-2.5-1.4-5-2.7-10v17.1h-6.7v-22.7c-2,.2-7.1.8-7.9.8l-.9-6.3,4.3-.2c1.1-2,2.3-4.1,3.5-6.2-2.4-2-5.3-4-8.5-5.7l2.9-5.5,1.9,1.2c1.5-3.7,3-7.3,4.4-11.2l5.9,2.7c-1.8,3.5-3.8,7.8-5.6,11.5l2,1.6c1.7-2.8,3.2-6,4.7-9.2l6,3c-1.2,1.9-9.8,16.4-10.3,17.2,2.9-.3,4-.4,5.1-.5-.3-.9-.9-2.2-1.4-3.2l5.5-1.9c1.5,3.4,2.9,6.9,4,10.2l-5.9,1.9-.5-1.5-2.7.4v4.6l5.3-1.1h.2ZM287.3,131.9v6.2h-9.5v5.1h7.6v6.1h-7.6v5.2h7.5v6.1h-7.5v6.1h10.6v6.2h-23v2.6h-6.5v-32.1l-1.9,2.2c-.9-1.3-2.1-3.1-4.6-5.5,4.1-4.9,6.5-9.2,10.8-20.1l7,1.7c-1.4,3.4-3,6.9-4.7,10.4h5.9c1.6-3.7,3.1-8,4.5-11.8l7,1.9c-1.6,3.4-3,6.7-4.5,10h8.9v-.3ZM265.3,138v5.1h6v-5.1h-6ZM265.3,149.2v5.2h6v-5.2h-6ZM265.3,166.5h6v-6.1h-6v6.1Z"/>
            <path class="cls-30" d="M317,165l-3.1,3.4c-1.1-1.2-2-2.3-3.1-3.5-1.4,1.4-2.6,2.8-4.3,4-.8-1.1-1.8-2.3-2.8-3.2v8.8h-6.5v-35.1l-2.3.8c-.8-1.9-1.9-3.8-3.4-5.5,6.1-1.9,9.6-3.9,13.1-6.5h-10.7v-6.2h53v6.2h-11.3c5.7,3.4,9.4,4.9,13.9,6.3-1.4,1.5-2.9,3.4-4,5.5l-1.9-.8v29.9c0,4.9-3.2,5.3-10.4,6-.2-2-.8-4.1-1.9-5.9h4.8c.7,0,1-.4,1-1.1v-29.2h-14v10.4c1.6-1.2,2.7-1.9,3.5-2.9-.8-.7-1.9-1.6-3.2-2.8l3.1-3.1c1.3.8,2.3,1.7,3.4,2.6,1.2-1.1,2-2.3,2.9-3.5l4,3.2c-1.3,1.6-2.3,2.5-3.2,3.6.8.8,1.8,1.7,3.1,2.9l-3.6,3.5c-.9-1-1.9-2-2.9-3-1.3,1-2.6,2.2-3.8,3.1-.8-1-1.8-2-3.4-3.3v24.5h-6.4v-9.3l.4.2ZM303.8,149.1c1-.8,2-1.6,3-2.6-1-1.1-2-2-2.9-3.1l3.4-3.1c1,1,2,1.9,3.2,2.8,1.1-1,2-2.1,3.4-3.6l3.2,2.8v-3.4h-13.2v10.1h-.1ZM313,153.2c-.9-1-1.9-2.2-2.9-3.4-1.1,1.1-2.5,2.3-4,3.2-.6-.9-1.6-2.3-2.2-2.8v8l2.7-3.2c1.3.8,2.5,1.9,3.8,2.8.8-1,1.9-2.4,2.6-3.7l4,2.7v-14.2c-1.5,1.7-2.3,2.6-3.2,3.7.8.8,1.7,1.9,3,3.4l-3.8,3.4h0ZM303.8,164.6c1.4-1,2.5-2.1,3.4-3.1-.8-.9-1.9-1.9-3.4-3v6.1ZM310.9,128.2l2.2,2.1c-1.4,1.1-3.1,2.3-4.7,3.4h8.7v-5.5h-6.2ZM317,157.2c-1,1.3-1.9,2.6-3.1,4,1,1,2.3,2,3.1,3.2v-7.2ZM323.5,128.2v5.5h9.5c-1.5-1-3.1-2-4.6-2.9l2.3-2.6h-7.3.1ZM336.8,156.6c-1.2,1.9-2.1,3.1-2.9,4.4.9.9,1.9,1.8,3.2,3.1l-3.4,3.8c-.8-1.1-1.8-2-2.7-3.1-1.2,1.3-2.2,2.5-3.4,3.7-1-1-2-2-3.7-3.4,1.6-1.6,2.6-2.6,3.5-3.7-.9-.8-2-1.6-3.8-3l3.2-3.5c1.1.8,2.3,1.7,3.4,2.8.8-1.2,1.7-2.4,2.4-3.8l4.3,2.7h-.1Z"/>
            <path class="cls-30" d="M365.9,143c1-2.9,1.9-6.5,2.9-10.2h-14.2v-5.9h7.4v-6.4h6.6v6.4h7.3v5.9h-5.8l5,1.9c-1,2.8-2.3,6.1-3.1,8.3h4.7v5.8h-8.3v4.3c2.6-.2,5.5-.5,8.4-.8v5.5l-8.9,1.3c-1,4.9-2.6,11.1-10,16.4-1.2-2-2.8-3.8-4.9-5.2,5.8-3.2,7-7.1,8-10.4-1.9.2-4.6.6-6.8.8l-.9-6.4c2.8-.2,6.1-.4,8.8-.6v-5h-8.7v-5.8h12.5ZM357.9,142.8c-.7-2.7-1.5-5.6-2.6-8.4l5.6-1.6c1.2,3.1,2.1,5.9,2.6,8.5l-5.6,1.5ZM395.2,120.5v6.4h11.8v5.9h-11.8v3.8h10.6v17.3h-8.8c3.1,4.4,7.3,8.7,12.5,11.8-1.7,1.7-3.2,3.8-4.3,6.1-2-1.3-5.3-4-10-10v12.8h-6.8v-13.7c-3.5,3.9-8.2,8.6-13.6,11.5-1.2-2-2.8-3.9-4.6-5.5,4.2-2.1,9.4-5.3,16.3-13h-8.3v-17.3h10.3v-3.8h-10.9v-5.9h10.9v-6.4h6.8-.1ZM384.1,141.9v6.7h4.3v-6.7h-4.3ZM395.2,141.9v6.7h4.2v-6.7h-4.2Z"/>
            <path class="cls-30" d="M446.2,119.8v5h20.5v5.9h-42.8c0,23.8,0,31.8-6.8,44.1-1.5-2-3.2-3.7-5.1-5.1,2.2-4.1,4.9-9.4,5.2-23.1v-21.8h20.9v-5h8.2-.1ZM457.6,151.9l3.6,3.8c-3.6,4.5-7.7,7.9-9.6,9.5,5,1.9,9.7,3,16.3,3.7-1.4,2-2.6,4.3-3.2,6.6-11.3-1.9-14.7-3.7-19.5-6.1-9,4.3-14.6,5.5-21.6,6.6-.7-2.2-1.4-4.3-2.8-6.4,10.1-1.1,13.2-2.1,18.2-4.2-2.8-2.3-4.2-4-6.7-7.7h-6.3v-5.6h31l.7-.2h0ZM439.7,131.7v4h9v-3.9h6.9v3.9h10.9v5.3h-10.9v8.7h-22.9v-8.7h-7.9v-5.3h7.9v-4h7ZM439.7,141v3.5h9v-3.5h-9ZM440.2,157.7c.8,1.3,3.1,3.3,5.1,4.4,2.5-1.7,2.9-2.2,5.2-4.4h-10.3Z"/>
            <path class="cls-30" d="M504,120.5v5.2h20.2v5.5h-20.2v3.2h16.4v5.2h-16.4v3.4h23.1v5.5h-21.1c1.8,3.8,2.2,4.6,4.9,7.9,2.9-2.1,6-4.6,8.6-7l5,4.7c-2.7,2.2-6.1,4.6-9.1,6.8,4,3.5,7.3,5.5,13.4,8-1.8,1.6-3.2,3.8-4.3,6.4-15.8-7-21.8-18.7-24.2-23.6-2.3,1.9-5.3,3.9-8,5.5v8.9c5.6-.9,10.2-1.7,14.6-2.8v6.2c-6.5,1.4-7.7,1.6-28.1,5.4l-1.5-6.8c2.8-.3,5.8-.7,8.6-1.1v-6.7c-3.4,1.5-7,2.8-10.4,3.7-.7-2.2-1.9-4.4-3.2-6.5,11.7-2.7,17.5-6.4,21.8-9.2h-20.1v-5.5h23v-3.4h-16.4v-5.2h16.4v-3.2h-19.8v-5.5h19.8v-5.2h7v.2Z"/>
          </g>
          <g>
            <g>
              <path class="cls-11" d="M384.7,282.5c0-3.6-1.9-6.7-4.8-8.4,0-.4.1-.8.1-1.2,0-4.4-3.6-7.9-7.9-7.9s-4.4,1-5.8,2.6c-1.2-2.2-3.3-3.7-5.8-4.1v-.8c0-3.8-3.1-6.9-6.9-6.9s-3.9.9-5.1,2.4c-.7-.2-1.4-.4-2.2-.4-1.6,0-3.1.5-4.3,1.3-1.1-3.1-4-5.3-7.5-5.3s-7.9,3.6-7.9,7.9,3.6,7.9,7.9,7.9,3.1-.5,4.3-1.3c1.1,3.1,4,5.3,7.5,5.3s3.7-.7,5.1-1.9c.3,4.2,3.7,7.4,7.9,7.4s4.4-1,5.8-2.6c.3.5.6.9.9,1.4-.6,1.3-1,2.7-1.1,4.2-1.3.4-2.4,1-3.4,1.9-2-1.5-4.5-2.3-7.2-2.3-4.9,0-9.2,2.9-11.1,7.1-1.7-5.6-6.9-9.6-13-9.6s-9.9,3-12.1,7.5c-1.6-2.4-4.3-4.1-7.4-4.1s-5.5,1.4-7.1,3.6c-.6-4.7-4.5-8.3-9.4-8.3s-7.4,2.4-8.8,5.9c-.9-.6-1.8-1-2.8-1.3v-.4c0-.6,0-1.1-.2-1.7,2.9-1.1,5-3.9,5-7.3s0-.8-.1-1.1c.5-.4.9-.8,1.3-1.3.8.3,1.7.5,2.7.5,2.7,0,5-1.3,6.5-3.4,2.3-.1,4.3-1.2,5.6-2.8.4.2.8.4,1.3.5v.2c0,3.8,3.1,6.9,6.9,6.9s6.9-3.1,6.9-6.9-2.8-6.5-6.3-6.8c-.3-3.1-2.9-5.6-6.1-5.6s-2.3.4-3.3,1c-1.4-1.3-3.3-2.2-5.4-2.2s-5,1.3-6.5,3.4c-2.3.1-4.3,1.2-5.6,2.8-.8-.3-1.7-.5-2.7-.5-4.4,0-7.9,3.6-7.9,7.9s0,1,.1,1.4c-1.7,1.4-2.8,3.4-2.9,5.7-4.6.6-8.1,4.5-8.1,9.3s2.9,7.9,6.9,9v.4c0,5.2,4.2,9.4,9.4,9.4s1.4-.1,2.1-.3c1.7,2.1,4.3,3.5,7.3,3.5s1.3,0,1.9-.2c1.5,3.2,4.8,5.4,8.6,5.4s5.3-1.3,7.1-3.2c1.2,4.2,5,7.2,9.5,7.2s8.6-3.2,9.6-7.6c1.3.4,2.7.6,4.1.6s1.4,0,2.1-.2c1.3,3.6,4.7,6.2,8.8,6.2s7.9-2.9,9-6.9c1.3.5,2.8.8,4.3.8,5.1,0,9.5-3.2,11.4-7.6.5.1,1.1.2,1.6.2,4.1,0,7.4-2.8,8.3-6.6,5-.5,8.9-4.7,8.9-9.8h0Z"/>
              <g>
                <path class="cls-9" d="M341.3,266.1c-1.4,2.2-3.9,3.6-6.6,3.6-4.4,0-7.9-3.6-7.9-7.9s3.6-7.9,7.9-7.9,7.9,3.6,7.9,7.9"/>
                <path class="cls-30" d="M341.3,266.1c-1.9,3.4-6.6,4.8-10.1,3.2-6-2.5-6.6-11.3-1-14.6,5.3-3.5,12.9.7,12.4,7.1-.2-5.9-7.1-9.6-12-6.3-3,1.9-4.3,6.1-2.8,9.4,2.3,5.4,10.1,6.1,13.5,1.3h0Z"/>
              </g>
              <path class="cls-30" d="M342.5,228h-36.4c16.4,0,9.2,108,9.2,108h18s-7.2-108,9.2-108h0Z"/>
              <g>
                <polygon class="cls-9" points="314.8 229.4 318 262.5 313.8 229.6 314.8 229.4 314.8 229.4"/>
                <polygon class="cls-9" points="321.5 229.5 322.2 262.5 320.5 229.5 321.5 229.5 321.5 229.5"/>
                <polygon class="cls-9" points="328.2 229.5 326.4 262.5 327.2 229.5 328.2 229.5 328.2 229.5"/>
                <polygon class="cls-9" points="334.8 229.6 330.6 262.5 333.8 229.4 334.8 229.6 334.8 229.6"/>
              </g>
              <g>
                <path class="cls-13" d="M376.2,213.1c0-7.3-5.9-13.3-13.3-13.3s-5.2.8-7.3,2.2c-1.9-4-5.9-6.7-10.6-6.7s-1,0-1.5.2c-1.4-5.7-6.5-9.9-12.6-9.9s-10.9,4-12.5,9.4c-1.1-.7-2.5-1.1-3.9-1.1s-3.1.5-4.3,1.3c-2.5-3.3-6.5-5.5-10.9-5.5-7.2,0-13.1,5.5-13.6,12.6-5.3.8-9.3,5.3-9.3,10.8s4.9,10.9,10.9,10.9.9,0,1.4-.1c-.1.7-.2,1.3-.2,2,0,7.1,5.7,12.8,12.8,12.8s10-3.4,11.9-8.1c2.2,1.8,5,2.9,8.1,2.9s6.9-1.5,9.2-3.9c1.8,1.9,4.3,3.2,7.2,3.2s3.6-.6,5.1-1.5c2.2,3.1,5.9,5.1,10,5.1,6.1,0,11.1-4.4,12.2-10.1,6.4-1,11.3-6.5,11.3-13.1h-.1Z"/>
                <g>
                  <path class="cls-9" d="M313.6,222.2c.3,1.1.4,2.2.4,3.3,0,6.9-5.6,12.5-12.5,12.5s-12.5-5.6-12.5-12.5,3-9.4,7.3-11.4"/>
                  <path class="cls-30" d="M313.6,222.2c4.1,14.3-14.9,22.7-23,10.3-4.2-6.3-1.3-15.6,5.7-18.4-6.5,3.2-8.9,11.9-4.9,17.9,7.9,11.5,25.2,3.7,22.3-9.8h-.1Z"/>
                </g>
                <g>
                  <path class="cls-9" d="M308.6,204.6c-.7-1.1-1.2-2.4-1.2-3.9,0-3.8,3.1-6.9,6.9-6.9s6.9,3.1,6.9,6.9,0,.9-.1,1.3"/>
                  <path class="cls-30" d="M308.6,204.6c-5.3-7.1,4.6-15.3,10.8-9,1.6,1.7,2.3,4.2,1.7,6.5.6-4.5-3.7-8.5-8.1-7.6-4.4.8-6.7,6.2-4.4,10.1h0Z"/>
                </g>
                <g>
                  <path class="cls-9" d="M337.2,195.4c.7-1.6,2.2-2.9,4.1-3.2,2.9-.4,5.5,1.6,5.9,4.4.2,1.2,0,2.3-.6,3.2"/>
                  <path class="cls-30" d="M337.2,195.4c1.4-5.1,8.8-4.8,10.2.3.4,1.5.1,3.1-.7,4.2.5-1.3.5-2.8,0-4-1.5-4.1-7.3-4.3-9.4-.5h-.1Z"/>
                </g>
                <g>
                  <path class="cls-9" d="M323.8,225.5c-.4.8-1.1,1.4-2,1.6-1.8.5-3.7-.5-4.3-2.3-.2-.7-.2-1.5,0-2.1"/>
                  <path class="cls-30" d="M323.8,225.5c-1,3-5.5,2.7-6.4-.2-.3-.9-.2-1.9.2-2.6-.7,3.7,3.9,5.8,6.2,2.8h0Z"/>
                </g>
                <g>
                  <path class="cls-9" d="M319.6,222.6c-.4,1.7-1.7,3.2-3.6,3.7-2.8.8-5.7-.7-6.5-3.5-.3-1.1-.3-2.3,0-3.3"/>
                  <path class="cls-30" d="M319.6,222.6c-.8,5.1-7.9,5.9-10,1.2-.6-1.4-.6-3,0-4.2-.3,1.4-.1,2.8.5,4,2.1,3.9,8.1,3.2,9.5-1h0Z"/>
                </g>
                <g>
                  <path class="cls-9" d="M362.7,210.6c1.6.2,3,1.2,3.7,2.8,1,2.4,0,5.2-2.5,6.2-1,.4-2,.5-2.9.3"/>
                  <path class="cls-30" d="M362.7,210.6c4.6,0,6.1,6.6,2.1,8.8-1.2.7-2.6.9-3.8.4,1.3.1,2.5-.2,3.5-.9,3.3-2.3,2.1-7.5-1.8-8.4h0Z"/>
                </g>
                <g>
                  <path class="cls-9" d="M302.3,205.8c-.4-1.5,0-3.3,1.2-4.5,1.8-1.9,4.8-1.9,6.7-.1.8.7,1.4,2.1,1.4,3.3"/>
                  <path class="cls-30" d="M302.3,205.8c-1.8-4.6,4.2-8.4,7.8-5,1,1,1.5,2.4,1.4,3.7,0-.7-.3-1.3-.6-1.9-2.5-4.7-9.5-2-8.6,3.1h0Z"/>
                </g>
                <g>
                  <path class="cls-9" d="M362.2,216.5c1.7,2.1,2.7,4.7,2.7,7.6,0,6.7-5.5,12.2-12.2,12.2s-11-4.3-12-10"/>
                  <path class="cls-30" d="M362.2,216.5c5.4,5.9,3,16-4.3,19.1-7.2,3.5-16.4-1.5-17.2-9.4,1.6,7.4,10,11.7,16.8,8.5,6.9-2.9,9.2-12.2,4.7-18.2h0Z"/>
                </g>
                <g>
                  <path class="cls-9" d="M345.9,221.1c-.3,1.7-1.5,3.3-3.3,4-2.7,1-5.7-.4-6.7-3.1-.4-1.1-.4-2.2-.1-3.3"/>
                  <path class="cls-30" d="M345.9,221.1c-.4,5.1-7.5,6.4-9.9,1.9-.7-1.3-.8-2.9-.3-4.2-.2,1.4,0,2.8.8,3.9,2.4,3.8,8.2,2.7,9.4-1.6h0Z"/>
                </g>
              </g>
              <g>
                <path class="cls-9" d="M367,273.5c-1,3.3-4,5.7-7.6,5.7s-7.9-3.6-7.9-7.9,3.6-7.9,7.9-7.9,7.9,3.6,7.9,7.9"/>
                <path class="cls-30" d="M367,273.5c-2.8,9.9-17.1,6.8-16-3.4,1.7-10.1,16.3-9.1,16.3,1.2-.6-9.3-13.8-10.3-15.3-1-1.1,9.3,11.8,12,15,3.2h0Z"/>
              </g>
              <g>
                <path class="cls-9" d="M353,270.1c-1.4,2.2-3.9,3.6-6.7,3.6-4.4,0-7.9-3.6-7.9-7.9s3.6-7.9,7.9-7.9,6.5,2.3,7.5,5.5"/>
                <path class="cls-30" d="M353,270.1c-1.8,3.3-6,4.8-9.5,3.5-5.8-1.8-7.5-9.8-3-13.9,4.2-4.2,12-2.2,13.4,3.6-2.9-7.5-13.8-6.4-14.9,1.5-.9,8,9.3,11.8,14,5.2h0Z"/>
              </g>
              <g>
                <path class="cls-9" d="M296.4,296c0-1.1,1-1.9,2-1.8,1.1,0,1.9,1,1.8,2"/>
                <path class="cls-30" d="M296.4,296c-.3-1.9,2.4-2.8,3.5-1.3.3.4.5,1,.4,1.5,0-.5-.3-1-.6-1.3-1.1-1-2.9-.4-3.2,1.1h0Z"/>
              </g>
              <g>
                <path class="cls-9" d="M291.7,298c-.4,1-1.5,1.5-2.5,1.1s-1.5-1.5-1.1-2.5"/>
                <path class="cls-30" d="M291.7,298c-.4,1.9-3.2,1.9-3.7,0-.2-.5-.1-1.1.2-1.6,0,.5,0,1,.2,1.4.7,1.3,2.6,1.4,3.4,0h0v.2Z"/>
              </g>
              <path class="cls-10" d="M372.1,280.9"/>
              <g>
                <path class="cls-9" d="M346.9,262.6c0-3.8,3.1-6.9,6.9-6.9s6.9,3.1,6.9,6.9-1.3,4.6-3.2,5.8"/>
                <path class="cls-30" d="M346.9,262.6c-.5-5.4,5.8-9.1,10.4-6.4,4.7,2.5,4.9,9.8,0,12.2,3.9-2.8,3.7-9.1-.6-11.4-4.1-2.4-9.7.7-9.9,5.6h.1Z"/>
              </g>
              <g>
                <path class="cls-9" d="M309.6,264.2c-.9.9-2.2,1.5-3.5,1.5-2.4,0-4.4-1.8-5.1-4.2"/>
                <path class="cls-30" d="M309.6,264.2c-1.8,2.4-5.7,2.2-7.4-.2-.6-.7-1-1.6-1.1-2.5,1.3,3.6,5.6,5.4,8.6,2.7h-.1Z"/>
              </g>
              <g>
                <path class="cls-9" d="M300.5,257.1c1-2.2,3.1-3.7,5.7-3.7s6.2,2.8,6.2,6.2-.1,1.5-.4,2.1"/>
                <path class="cls-30" d="M300.5,257.1c1.7-5.5,9.7-5.4,11.7-.2.6,1.6.5,3.4-.2,4.8.4-1.6.1-3.2-.5-4.5-2.1-4.4-8.6-4.4-11-.2h0Z"/>
              </g>
              <g>
                <path class="cls-9" d="M299.4,263.4c0,4.4-3.6,7.9-7.9,7.9s-7.9-3.6-7.9-7.9,3.6-7.9,7.9-7.9,2.3.3,3.3.7"/>
                <path class="cls-30" d="M299.4,263.4c.2,3.5-2.2,6.9-5.6,8-5.4,1.9-11.4-2.9-10.7-8.6.2-5.5,6.8-9.4,11.7-6.6-7-2.7-13.6,4.9-9.5,11.2,4.1,6.3,13.8,3.5,14.2-4h-.1Z"/>
              </g>
              <g>
                <path class="cls-9" d="M290.4,267.4c-.7,3.6-3.9,6.3-7.8,6.3s-7.9-3.6-7.9-7.9,3.6-7.9,7.9-7.9,4.2.9,5.6,2.3"/>
                <path class="cls-30" d="M290.4,267.4c-.5,3.6-3.8,6.5-7.4,6.7-5.9.6-10.5-5.9-8.2-11.3,2-5.4,9.7-7,13.4-2.6-5.8-5.2-14.9.2-12.7,7.7,2.3,7.4,12.9,7,14.9-.5h0Z"/>
              </g>
              <g>
                <path class="cls-9" d="M285.8,268.2c1.1,1.3,1.7,3,1.7,4.9,0,4.3-3.5,7.8-7.8,7.8"/>
                <path class="cls-30" d="M285.8,268.2c5,4.7.7,13.6-6.1,12.7,1.5-.2,2.8-.7,3.9-1.5,3.6-2.4,4.4-7.5,2.1-11.2h.1Z"/>
              </g>
              <rect class="cls-9" x="275" y="267.6" width="9.6" height="9.2"/>
              <g>
                <path class="cls-9" d="M274.5,279.4c-7.1-9.2,2.3-15.5,7.4-13.6"/>
                <path class="cls-30" d="M274.5,279.4c-2.5-2.6-4.1-6.7-2.1-10.1,1.8-3.2,6.1-5,9.5-3.5-3.4-.6-7,1.1-8.7,4-1.8,3.1-.5,6.7,1.2,9.6h.1Z"/>
              </g>
              <g>
                <path class="cls-9" d="M376.1,290.4c0,4.7-3.8,8.6-8.6,8.6s-8.6-3.8-8.6-8.6,3.8-8.6,8.6-8.6"/>
                <path class="cls-30" d="M376.1,290.4c.2,10.9-15.2,12.3-17.4,1.8-1.1-5.3,3.4-10.8,8.9-10.3-7.2.3-10.8,9.2-5.7,14.3s13.9,1.5,14.3-5.7h0Z"/>
              </g>
              <g>
                <path class="cls-9" d="M270.8,291.2c-4-1.1-6.9-4.7-6.9-9.1s4.2-9.4,9.4-9.4,1.9.1,2.8.4"/>
                <path class="cls-30" d="M270.8,291.2c-5.2-.9-8.6-6.8-7-11.9,1.4-5.1,7.4-8.2,12.3-6.2-4.7-1.2-10,1.7-11.3,6.5-1.5,4.7,1.4,9.9,6,11.6h0Z"/>
              </g>
              <g>
                <path class="cls-9" d="M282.2,300.8c-.7.2-1.4.2-2.1.2-5.2,0-9.4-4.2-9.4-9.4s.5-3.5,1.4-5"/>
                <path class="cls-30" d="M282.2,300.8c-8.2,2.8-15.4-7.3-10.1-14.1-.8,1.7-1.2,3.5-1,5.3.3,5.5,5.7,9.7,11.1,8.9h0Z"/>
              </g>
              <g>
                <path class="cls-9" d="M296.4,300.5c-1.1,2.5-3.5,3.8-6.9,3.8s-7.2-2.3-8.6-5.6"/>
                <path class="cls-30" d="M296.4,300.5c-1.2,3.3-5,4.2-8.2,4-3.3-.3-6.5-2.7-7.3-5.9.9,1.3,2,2.4,3.3,3.3,3.6,2.7,10,3.2,12.2-1.4h0Z"/>
              </g>
              <g>
                <path class="cls-9" d="M284.8,287.5c0-5.3,4.3-9.5,9.5-9.5s8.9,3.6,9.4,8.3"/>
                <path class="cls-30" d="M284.8,287.5c-.5-5.1,3.8-9.8,8.9-10,5-.4,9.9,3.7,10.1,8.8-.9-4.7-5.3-8.2-10-7.8-4.7.2-8.6,4.2-9,9h0Z"/>
              </g>
              <g>
                <path class="cls-9" d="M307.1,306.2c-1.7,2-4.3,3.2-7.1,3.2-5.3,0-9.5-4.3-9.5-9.5s.2-2.4.7-3.5"/>
                <path class="cls-30" d="M307.1,306.2c-5.7,7.4-17.6,2.6-16.9-6.6.1-1.1.4-2.2.9-3.2-.6,2.1-.5,4.4.2,6.4,2.3,6.5,10.9,8.3,15.8,3.5h0Z"/>
              </g>
              <g>
                <path class="cls-9" d="M303,295.6c-.7-1.2-1-2.7-1-4.2,0-4.9,4-8.8,8.8-8.8s5.7,1.5,7.3,3.9"/>
                <path class="cls-30" d="M303,295.6c-5.1-8.2,5.2-17.4,12.9-11.6.9.7,1.7,1.6,2.2,2.6-1.4-1.7-3.4-2.9-5.5-3.3-6.9-1.4-12.5,6-9.6,12.4h0Z"/>
              </g>
              <g>
                <path class="cls-9" d="M326.5,303.6c0,5.5-4.4,9.9-9.9,9.9s-9.9-4.4-9.9-9.9"/>
                <path class="cls-30" d="M326.5,303.6c.5,5.5-4.4,10.5-9.9,10.4-5.5.1-10.4-4.9-9.9-10.4.3,5.1,4.8,9.5,9.9,9.4,5.1,0,9.6-4.2,9.9-9.4h0Z"/>
              </g>
              <g>
                <path class="cls-9" d="M317,290.1c1.3-6.2,6.8-10.9,13.3-10.9s13.6,6.1,13.6,13.6-.1,2.3-.4,3.4"/>
                <path class="cls-30" d="M317,290.1c1-7.5,9.2-12.9,16.5-11,7.5,1.5,12.4,10,10,17.1,1.6-7-3.2-14.7-10.2-16.2-7-1.8-14.6,3-16.3,10h0Z"/>
              </g>
              <g>
                <path class="cls-9" d="M350.6,303.1c0,5.2-4.2,9.4-9.4,9.4s-9.4-4.2-9.4-9.4.6-3.8,1.6-5.3"/>
                <path class="cls-30" d="M350.6,303.1c.5,6.4-6.2,11.5-12.3,9.5-6.1-1.7-8.9-9.7-4.9-14.7-3.1,5-.5,12.2,5.2,13.8,5.6,1.8,11.7-2.6,12-8.5h0Z"/>
              </g>
              <rect class="cls-9" x="308.5" y="290.4" width="29.5" height="14.2"/>
              <rect class="cls-9" x="342" y="288.5" width="24.3" height="11.9" transform="translate(-72.1 120.1) rotate(-17.5)"/>
              <g>
                <path class="cls-9" d="M366.8,294.1c0,6.8-5.5,12.3-12.3,12.3s-5.5-1-7.6-2.6"/>
                <path class="cls-30" d="M366.8,294.1c.8,8.9-9,15.5-17,11.6-1-.5-2-1.2-2.9-2,1.9,1.3,4.1,2,6.3,2.2,6.9.6,13.1-5,13.6-11.8h0Z"/>
              </g>
              <g>
                <path class="cls-9" d="M342.2,294.1c0-6.8,5.5-12.3,12.3-12.3s7.5,1.9,9.7,4.8"/>
                <path class="cls-30" d="M342.2,294.1c-.7-10.2,11.4-16.5,19.4-10.3,1,.8,1.9,1.7,2.6,2.8-1.7-1.9-3.9-3.3-6.3-3.9-7.5-2.1-15.3,3.7-15.7,11.4h0Z"/>
              </g>
              <g>
                <path class="cls-9" d="M374.9,272.6c5.4,0,9.8,4.4,9.8,9.8s-4.4,9.8-9.8,9.8-3.5-.5-5-1.3"/>
                <path class="cls-30" d="M374.9,272.6c6.5-.6,11.9,6.3,10,12.5-1.5,6.3-9.6,9.6-14.9,5.8,5.4,2.8,12.5-.2,14-6.1,1.7-5.8-3-12.1-9-12.3h-.1Z"/>
              </g>
              <g>
                <path class="cls-9" d="M313.7,291.9c-.4-.8-.6-1.8-.6-2.7.2-2.7,2.6-4.8,5.4-4.6,2.8.2,4.8,2.6,4.6,5.4,0,1.2-.6,2.3-1.4,3.1"/>
                <path class="cls-30" d="M313.7,291.9c-2.5-3.6,1-8.5,5.2-7.8,4.2.5,6.2,6.2,2.8,8.9,2.4-2.8.7-7.5-2.9-7.9-3.6-.6-6.5,3.4-5,6.8h-.1Z"/>
              </g>
              <g>
                <path class="cls-9" d="M373.2,288.6c.9,1.4.4,3.2-.9,4-1.4.8-3.2.4-4-.9"/>
                <path class="cls-30" d="M373.2,288.6c1.8,2.1-.6,5.4-3.2,4.6-.8-.2-1.5-.8-1.8-1.5,2.3,2.7,6.4.2,5-3.1h0Z"/>
              </g>
              <g>
                <path class="cls-9" d="M354.8,269.4c0,1.6-1.3,2.9-2.9,3-1.6,0-2.9-1.3-3-2.9"/>
                <path class="cls-30" d="M354.8,269.4c.4,2.7-3.3,4.3-5.1,2.3-.6-.6-.9-1.4-.8-2.2.1.8.5,1.4,1,1.9,1.7,1.6,4.6.3,4.8-2h.1Z"/>
              </g>
              <g>
                <path class="cls-9" d="M277.9,279.4c1.4-.8,3.2-.3,4,1.1s.3,3.2-1.1,4"/>
                <path class="cls-30" d="M277.9,279.4c2.2-1.7,5.4.8,4.4,3.4-.3.8-.8,1.4-1.6,1.7,2.8-2.1.4-6.4-2.9-5.1h.1Z"/>
              </g>
              <g>
                <path class="cls-9" d="M335.8,292.1c-.3-4,2.6-7.4,6.6-7.7,4-.3,7.4,2.7,7.7,6.6.1,1.8-.4,3.4-1.3,4.7"/>
                <path class="cls-30" d="M335.8,292.1c-.9-5,4.4-9.5,9.2-8,4.9,1.2,7.2,7.8,3.8,11.6,2.5-3.9.4-9.5-4.1-10.6-4.4-1.3-9.1,2.4-9,7h.1Z"/>
              </g>
              <g>
                <path class="cls-9" d="M334.4,298.9c2,3.3,1.2,7.6-2,9.9-3.3,2.3-7.9,1.5-10.3-1.8-1-1.5-1.5-3.2-1.3-4.9"/>
                <path class="cls-30" d="M334.4,298.9c3.1,4.1.5,10.5-4.5,11.5-4.9,1.3-10.1-3.2-9.2-8.3-.1,4.7,4.5,8.5,8.9,7.3,4.5-1,6.9-6.4,4.7-10.5h.1Z"/>
              </g>
              <g>
                <path class="cls-9" d="M280.8,288.6c-.2-1.9,1.4-3.6,3.4-3.8,2-.2,3.8,1.3,4,3.2,0,.8-.2,1.6-.6,2.2"/>
                <path class="cls-30" d="M280.8,288.6c-.5-5.3,8-5.3,7.5,0-.1.6-.3,1.1-.7,1.6.6-1,.6-2.2.2-3.2-1.6-3.3-6.9-2.1-6.9,1.6h-.1Z"/>
              </g>
              <g>
                <path class="cls-9" d="M306.5,294.5c-.8-2.1-2.9-3.2-4.8-2.4-1.9.7-2.8,3-2.1,5.1"/>
                <path class="cls-30" d="M306.5,294.5c-1.3-2.9-5.4-3.3-6.7-.2-.4.9-.4,1.9-.2,2.9-.4-.9-.5-2-.2-3,1.2-3.6,6.2-3.2,7.1.3h0Z"/>
              </g>
              <g>
                <path class="cls-9" d="M319.9,292.2c.8-1.4,2.6-1.9,4-1.1s1.9,2.6,1.1,4"/>
                <path class="cls-30" d="M319.9,292.2c1.1-2.5,5-2,5.5.7.2.8,0,1.7-.5,2.3.3-.7.3-1.5.1-2.2-.7-2.3-3.8-2.7-5.2-.8h.1Z"/>
              </g>
              <g>
                <path class="cls-9" d="M349.3,301.9c.3,1.6-.7,3.1-2.3,3.4-1.6.3-3.1-.7-3.4-2.3"/>
                <path class="cls-30" d="M349.3,301.9c.9,2.6-2.5,4.8-4.6,3.1-.7-.5-1.1-1.2-1.1-2,.2.7.7,1.3,1.3,1.7,2,1.3,4.6-.5,4.4-2.8h0Z"/>
              </g>
              <g>
                <path class="cls-9" d="M309.4,302.8c0,1.6-1.3,2.9-2.9,2.9s-2.9-1.3-2.9-2.9"/>
                <path class="cls-30" d="M309.4,302.8c.4,2.7-3.3,4.3-5.1,2.2-.6-.6-.8-1.4-.7-2.2.1.8.5,1.4,1,1.9,1.7,1.6,4.6.4,4.8-1.9h0Z"/>
              </g>
              <rect class="cls-9" x="351.9" y="265.1" width="2.4" height="2.7"/>
            </g>
            <g>
              <g>
                <path class="cls-9" d="M279.7,453.4c-3.7,0-5.2-5.9-5.9-8.7-.3-1-.8-1.8-1.3-2.8-.8-1.4-1.8-2.9-2.2-5.4-.4-2.4-.1-4.2.2-5.9.2-1.4.4-2.5.2-3.8-.1-.6-.4-1.3-.6-2.1-1-2.7-2.5-6.9,2.5-10,1-.6,2-.9,3.1-.9,5,0,9,6.7,9.2,7l.2.3v.3c0,.1-1.1,14.9,0,21.6.6,3.9.2,6.7-1.3,8.5-1,1.2-2.4,1.8-4.1,1.8h0Z"/>
                <path class="cls-30" d="M275.7,414.9c4.5,0,8.4,6.5,8.4,6.5,0,0-1.1,14.9,0,21.8,1.2,6.9-1.5,9.2-4.4,9.2s-4.2-5.2-4.9-7.9c-.7-2.7-2.8-4-3.5-8.1-.8-4.1,1-6.6.4-9.7s-4.1-7.6,1.4-11c.9-.6,1.8-.8,2.6-.8M275.7,412.9c-1.3,0-2.5.4-3.7,1.1-5.7,3.6-4,8.3-3,11.2.3.7.5,1.4.6,1.9.2,1.1,0,2.1-.2,3.5-.3,1.7-.6,3.7-.2,6.2.5,2.7,1.5,4.4,2.4,5.7.6.9,1,1.6,1.2,2.5.8,3.1,2.4,9.4,6.9,9.4s3.7-.8,4.8-2.2c1.7-2,2.2-5.2,1.5-9.3-1.1-6.6,0-21.2,0-21.4v-.6l-.3-.5c-.5-.8-4.6-7.5-10.1-7.5h.1Z"/>
              </g>
              <path class="cls-17" d="M274.2,421.8s3.8,1.4,3.1,4.1c-.7,2.7-4.5,7.7-2.2,11.2,2.2,3.5,6.5,3.6,5.6,7.4"/>
            </g>
            <g>
              <g>
                <path class="cls-9" d="M369.3,453.4c-1.7,0-3.1-.6-4.1-1.8-1.5-1.8-1.9-4.7-1.3-8.5,1.1-6.7,0-21.5,0-21.6v-.6c.3-.3,4.3-7,9.3-7s2.1.3,3.1.9c5,3.1,3.5,7.3,2.5,10-.3.8-.5,1.5-.6,2.1-.2,1.3,0,2.5.2,3.8.3,1.6.6,3.5.2,5.9-.5,2.5-1.4,4.1-2.2,5.4-.6.9-1.1,1.7-1.3,2.8-.7,2.8-2.2,8.7-5.9,8.7h0Z"/>
                <path class="cls-30" d="M373.4,414.9c.9,0,1.7.2,2.6.8,5.5,3.5,2,7.9,1.4,11s1.2,5.6.4,9.7c-.8,4.1-2.9,5.4-3.5,8.1-.7,2.7-2.1,7.9-4.9,7.9s-5.5-2.2-4.4-9.2c1.2-6.9,0-21.8,0-21.8,0,0,3.8-6.5,8.4-6.5M373.4,412.9h0c-5.5,0-9.6,6.7-10.1,7.5l-.3.5v.6c0,.1,1.1,14.8,0,21.4-.7,4.2-.2,7.3,1.5,9.3,1.2,1.4,2.9,2.2,4.8,2.2,4.4,0,6.1-6.4,6.9-9.4.2-.9.7-1.6,1.2-2.5.8-1.4,1.9-3,2.4-5.7.5-2.5.1-4.5-.2-6.2-.2-1.3-.4-2.4-.2-3.5,0-.5.3-1.2.6-1.9,1-2.8,2.7-7.6-3-11.2-1.2-.7-2.4-1.1-3.7-1.1h.1Z"/>
              </g>
              <path class="cls-17" d="M374.8,421.8s-3.8,1.4-3.1,4.1c.7,2.7,4.5,7.7,2.2,11.2-2.2,3.5-6.5,3.6-5.6,7.4"/>
            </g>
            <path class="cls-13" d="M371.5,396.6c0-42.7-34.3-38-37.6-62.2,0,0-.6-.9-1.6-.9s-1.8.9-1.8.9c0,0-.7-1.2-2.3-1.2s-2.1,1.2-2.1,1.2c0,0-1.4-2.1-3.2-2.1s-3.3,2.1-3.3,2.1c0,0-.8-1-2.2-1s-2.3,1-2.3,1c-3.3,24.2-37.6,19.4-37.6,62.2l2,14.3s-.7,12.5,0,19,4.6,17,5.4,24.2c.9,7.6,14.2,34.6,39.6,34.6s38.7-26.9,39.6-34.6c.8-7.1,4.7-17.7,5.4-24.2.7-6.5,0-19,0-19l2-14.3Z"/>
            <path class="cls-30" d="M357.6,442.3c-1.7,5-3.5,9.9-4.3,15.2-.6-5.3,1.4-10.7,4.3-15.2h0Z"/>
            <path class="cls-30" d="M291.4,442.3c2.9,4.4,4.9,9.8,4.3,15.2-.8-5.3-2.6-10.1-4.3-15.2h0Z"/>
            <path class="cls-30" d="M316.8,462.6c5.2,1.2,10.4,1.5,15.6,0-4,4.2-11.5,3.9-15.6,0h0Z"/>
            <g>
              <path class="cls-30" d="M332.8,411.1c1.6,4.8,6.2,8.3,11.1,9.2,1.7.4,3.5.4,5.2.5-1.8.1-3.5.2-5.3,0-5.5-.5-10.8-3.8-13-9.1-.2-.5,0-1.1.5-1.3.6-.2,1.2.1,1.4.7h0Z"/>
              <path class="cls-30" d="M332.8,411.4c.5,5.4,4.1,10.1,8.4,13.3,1.5,1.1,3.1,2,4.8,2.9-1.7-.7-3.5-1.4-5.1-2.4-3.3-1.9-6.1-4.6-8-8-.6-1-3.4-6.4-1.2-6.7.6-.1,1.2.4,1.2,1h0Z"/>
            </g>
            <path class="cls-30" d="M352.6,414.1s-7.2-7.2-20.8-4.5c0,0,.6,10.3,20.8,4.5Z"/>
            <path class="cls-30" d="M353,397.6c-5.3-1.7-8.4,2.2-12.4,2.4-3.9.2-9.4-1.1-11,2.2-1.6,3.3,5.5,1.5,10.4,1.9s13.2.5,19.1,8.2c0,0-.8-13.1-6.2-14.8h.1Z"/>
            <g>
              <path class="cls-30" d="M318.2,411.8c-3,7.1-11.1,10-18.3,9.1,3.5,0,7-.5,10.1-2.2,2.9-1.6,5.3-4.3,6.3-7.4.4-1.4,2.4-.7,1.9.6h0Z"/>
              <path class="cls-30" d="M318.3,411.5c-1.4,7.9-8,13.3-15.1,16,3.3-1.6,6.4-3.8,8.8-6.6,2.3-2.7,4-6,4.3-9.5,0-1.4,2.2-1.3,2,.1h0Z"/>
            </g>
            <path class="cls-30" d="M296.5,414.1s7.2-7.2,20.8-4.5c0,0-.6,10.3-20.8,4.5Z"/>
            <path class="cls-30" d="M296,397.6c5.3-1.7,8.4,2.2,12.4,2.4,3.9.2,9.4-1.1,11,2.2,1.6,3.3-5.5,1.5-10.4,1.9s-13.2.5-19.1,8.2c0,0,.8-13.1,6.2-14.8h-.1Z"/>
            <path class="cls-30" d="M340.7,459.4c-1.5-.2-2.7-1.2-4.1-1.7-2.4-1.2-5.3-1.9-7.8-.9-1,.3-1.8,1.1-2.9,1.5-.9.3-1.9.3-2.8,0-1.1-.4-1.9-1.2-2.9-1.5-3.3-1.2-6.8.3-9.8,1.9-.7.3-1.3.7-2.1.8.7-.3,1.2-.8,1.8-1.2,3.3-3.1,8.8-5.1,12.9-2.2,1.1.7,2,.7,3.1,0,3.3-2.4,8.1-1.5,11.1.8,1.2.8,2.2,1.9,3.6,2.6h-.1Z"/>
            <g>
              <path class="cls-30" d="M329.8,438.5c-1.9,1.4-1.8,5.5-7.4,2.5,0,0,1.6,2.5,5,2.5s4.7-1.9,5.7-2.3c2.8-1.3-.7-4.6-3.3-2.7h0Z"/>
              <path class="cls-30" d="M315.4,441.6c-1.8-1.7,2.5-5.9,6.2-1.3,0,0-3.1-1.3-3.5.6-.3,1.3-1.5,1.8-2.8.7h0Z"/>
            </g>
            <path class="cls-30" d="M342.9,384.8c-12,3.7-24.8,3.7-36.8,0,6.1.2,12.3.8,18.4.9,6.1,0,12.2-.7,18.4-.9h0Z"/>
            <g>
              <path class="cls-18" d="M319.6,334.4s0,14.8-18,27.3"/>
              <path class="cls-18" d="M330.5,334.4s1.7,11.4,2.8,13.7c1,2.3,9.5,7.8,13.6,14.5"/>
              <path class="cls-18" d="M333.2,348s-1.2,10.7,2.4,18.2"/>
              <path class="cls-18" d="M320.5,348.2s-.8,13.7-10.6,24.4"/>
              <path class="cls-18" d="M326.1,334.4s.5,18.5-.5,23.6"/>
            </g>
            <g>
              <path class="cls-30" d="M331.4,396.8c-2.2,1.5-3.4,3.8-3.5,6.4q0,1.3-.5,0c-.8-2.8,1.1-6.2,4-6.5h0Z"/>
              <path class="cls-30" d="M317.6,396.8c2.4.3,4.4,2.8,4.2,5.3,0,.8-.3,1.6-.6,2.3,0-.8,0-1.5-.2-2.3-.3-2.2-1.6-4-3.4-5.3h0Z"/>
              <path class="cls-30" d="M324.5,393.8c.7,2.2.7,4.4,0,6.6-.7-2.2-.7-4.4,0-6.6h0Z"/>
            </g>
            <g>
              <g class="cls-34">
                <use width="2.3" height="5.9" transform="translate(302.6 375.3) scale(1.7 -1.7)" xlink:href="#sweat"/>
              </g>
              <g class="cls-22">
                <use width="2.3" height="5.9" transform="translate(284.3 410.8) scale(1.7 -1.7)" xlink:href="#sweat"/>
              </g>
              <g class="cls-32">
                <use width="2.3" height="5.9" transform="translate(353 375.3) scale(1.7 -1.7)" xlink:href="#sweat"/>
              </g>
              <g class="cls-26">
                <use width="2.3" height="5.9" transform="translate(363.6 395.9) scale(1.7 -1.7)" xlink:href="#sweat"/>
              </g>
              <g class="cls-6">
                <use width="2.3" height="5.9" transform="translate(356.6 457.3) scale(1.7 -1.7)" xlink:href="#sweat"/>
              </g>
              <g class="cls-24">
                <use width="2.3" height="5.9" transform="translate(348.3 469.6) scale(1.7 -1.7)" xlink:href="#sweat"/>
              </g>
              <g class="cls-1">
                <use width="2.3" height="5.9" transform="translate(289.4 447.1) scale(1.7 -1.7)" xlink:href="#sweat"/>
              </g>
              <g class="cls-2">
                <use width="2.3" height="5.9" transform="translate(362.2 431.8) scale(1.7 -1.7)" xlink:href="#sweat"/>
              </g>
              <g class="cls-25">
                <use width="2.3" height="5.9" transform="translate(297.7 433.1) scale(1.7 -1.7)" xlink:href="#sweat"/>
              </g>
              <g class="cls-7">
                <use width="2.3" height="5.9" transform="translate(303.1 482.3) scale(1.7 -1.7)" xlink:href="#sweat"/>
              </g>
              <g class="cls-8">
                <use width="2.3" height="5.9" transform="translate(332.8 485.5) scale(1.7 -1.7)" xlink:href="#sweat"/>
              </g>
              <g class="cls-20">
                <use width="2.3" height="5.9" transform="translate(328.4 371.9) scale(1.7 -1.7)" xlink:href="#sweat"/>
              </g>
              <g class="cls-27">
                <use width="2.3" height="5.9" transform="translate(342.2 390.4) scale(1.7 -1.7)" xlink:href="#sweat"/>
              </g>
              <g class="cls-33">
                <use width="2.3" height="5.9" transform="translate(311.3 399.3) scale(1.7 -1.7)" xlink:href="#sweat"/>
              </g>
              <g class="cls-28">
                <use width="2.3" height="5.9" transform="translate(339.6 438.6) scale(1.7 -1.7)" xlink:href="#sweat"/>
              </g>
              <g class="cls-4">
                <use width="2.3" height="5.9" transform="translate(352.8 445.6) scale(1.7 -1.7)" xlink:href="#sweat"/>
              </g>
              <g class="cls-31">
                <use width="2.3" height="5.9" transform="translate(292.1 462.7) scale(1.7 -1.7)" xlink:href="#sweat"/>
              </g>
              <g class="cls-3">
                <use width="2.3" height="5.9" transform="translate(291.1 391.7) scale(1.7 -1.7)" xlink:href="#sweat"/>
              </g>
              <g class="cls-5">
                <use width="2.3" height="5.9" transform="translate(284.8 379.2) scale(1.7 -1.7)" xlink:href="#sweat"/>
              </g>
            </g>
            <g>
              <path class="cls-9" d="M343.6,458.1s4.5,4.3-4.8,3.7"/>
              <path class="cls-30" d="M343.7,458.1c1.9.6,2.6,3,.6,4-1.7.8-3.7.6-5.4-.2h0c1.3,0,2.6,0,3.9-.2.8-.2,2-.5,1.9-1.5,0-.7-.5-1.4-1-1.9,0,0,0,0,0,0h0v-.2Z"/>
            </g>
            <g>
              <path class="cls-9" d="M305.4,458.1s-4.5,4.3,4.8,3.7"/>
              <path class="cls-30" d="M305.5,458.1c-1.8,2-1.1,3.2,1.4,3.5,1.1.2,2.2,0,3.3,0h0c-1.8.9-4,1.1-5.7,0-1.1-.8-1.2-2.3-.2-3.2.3-.3.7-.5,1.1-.7h0v.4Z"/>
            </g>
            <path class="cls-30" d="M333,439.8c5.5,2.8,8.9,8.3,11.1,13.9-2.3-5.3-6-10.6-11.4-13-.7-.2-.3-1.2.3-.9h0Z"/>
            <path class="cls-30" d="M316.5,440.6c-5.4,2.4-9.1,7.7-11.4,13,1.6-4.2,3.9-8.3,7.3-11.3,1.1-1,2.3-1.9,3.8-2.6.3-.1.5,0,.7.2.1.3,0,.6-.3.7h-.1Z"/>
            <path class="cls-30" d="M417,248.2c-7.7,2.3-15.4,5.9-21.5,11.2-2,1.8-3.8,3.9-5.3,6.3,1.3-2.5,2.9-4.7,4.8-6.8,5.9-6.1,13.3-10.5,21.2-13.6,2-.7,2.9,2.3.9,2.9h-.1Z"/>
            <path class="cls-30" d="M253.2,237.5c7.8,2.3,15.8,6.1,20.4,13-3.9-4.6-9.6-7.2-15.2-8.8-1.9-.5-3.9-1-5.8-1.2-2.1-.4-1.5-3.4.6-2.9h0Z"/>
            <path class="cls-30" d="M374.1,326.6c-4.4-3.2-10.4-4.6-15.8-3.4-1.8.3-3.8,1.1-5.4,2-.5.2-1.2.6-1.7,1-1.7,1-3.3,2.3-4.8,3.6,1.3-1.4,2.8-3,4.3-4.2l.8-.7c7.3-5.5,17-6.1,24.9-1.6,2.4,1.6,0,5-2.3,3.3h0Z"/>
            <path class="cls-30" d="M218.7,301.2c11.8-4.6,26.8-4.4,36,5.3-2.4-2-5.1-3.7-8-4.8-8.6-3.2-18.6-1.6-26.7,2.2-1.9,1-3.2-1.9-1.3-2.7h0Z"/>
            <path class="cls-30" d="M335.6,379.8c-7.3,2.1-15.2,2.1-22.5,0,3.8.2,7.5.6,11.3.6s7.5-.4,11.3-.6h0Z"/>
            <path class="cls-30" d="M315.9,440.4c.9,1.8.6,7.9-.4,13s.3,7.8,2.9,7.8,3.8-3.3,3.2-7.2-2.4-10.5-1-14c-2.1-.9-4.7.4-4.7.4h0Z"/>
          </g>
        </g>
      </g>
    </g>
  </g>
</svg>