<?xml version="1.0" encoding="UTF-8"?>
<svg xmlns="http://www.w3.org/2000/svg" version="1.1" viewBox="0 0 850.4 708.7">
  <defs>
    <style>
      .cls-1 {
        fill: #ddd9d3;
      }

      .cls-2 {
        fill: #54b2a0;
      }

      .cls-3 {
        fill: #8e6b3d;
      }

      .cls-4 {
        fill: #e5bf55;
      }

      .cls-5 {
        fill: #fce47e;
      }

      .cls-6 {
        fill: #458c7e;
      }

      .cls-7 {
        fill: #fff;
      }

      .cls-8 {
        fill: #9d9d9c;
      }

      .cls-9 {
        stroke: #256045;
      }

      .cls-9, .cls-10, .cls-11, .cls-12 {
        fill: none;
      }

      .cls-9, .cls-10, .cls-12 {
        stroke-miterlimit: 10;
      }

      .cls-10 {
        stroke: #fff;
      }

      .cls-13 {
        fill: #685e56;
      }

      .cls-14 {
        fill: #b2b2a8;
      }

      .cls-15 {
        fill: #575756;
      }

      .cls-16 {
        fill: #3d7a4c;
      }

      .cls-17 {
        fill: #b2b2b2;
      }

      .cls-18 {
        fill: #706f6f;
      }

      .cls-19 {
        fill: #f9f9f9;
      }

      .cls-20 {
        fill: #333f39;
      }

      .cls-21 {
        fill: #ba9d9b;
      }

      .cls-22 {
        fill: #b7605e;
      }

      .cls-23 {
        fill: #7a7a6d;
      }

      .cls-24 {
        fill: #878787;
      }

      .cls-25 {
        fill: #84776b;
      }

      .cls-26 {
        fill: #1d1d1b;
      }

      .cls-27 {
        fill: #2d2d2c;
      }

      .cls-28 {
        fill: #969695;
      }

      .cls-29 {
        fill: #e5cdbd;
      }

      .cls-30 {
        fill: #eace5c;
      }

      .cls-31 {
        fill: #c6c6c6;
      }

      .cls-32 {
        fill: #3c3c3b;
      }

      .cls-33 {
        fill: #dadada;
      }

      .cls-34 {
        fill: #a57574;
      }

      .cls-35 {
        fill: #7a4040;
      }

      .cls-36 {
        fill: #ededed;
      }

      .cls-12 {
        stroke: #2d2d2c;
        stroke-linecap: round;
      }

      .cls-37 {
        fill: #f2d85a;
      }
    </style>
  </defs>
  <!-- Generator: Adobe Illustrator 28.7.4, SVG Export Plug-In . SVG Version: 1.2.0 Build 166)  -->
  <g>
    <g id="Layer_1">
      <rect class="cls-1" x="0" width="850.4" height="708.7"/>
      <g>
        <g>
          <g>
            <path class="cls-26" d="M234.9,300.8c-1.4,8.6-3.6,14.5-8.8,18.7l-1.1-1.2c3.3-4.1,4.9-9.1,5.7-16.1h-5.1v-1.9h4.7l.9-.8,3.8,1.3ZM241.7,311.7h4.9v1.9h-4.9v4c0,3.4-3.1,5.4-9.2,2l.4-1.5c4.4.7,4.8.5,4.8-1.4v-3.1h-5.3v-1.9h5.3v-2.6h-3.8v-1.9h3.8v-2.4h-2.9v-1.9h2.9v-4.7l2.3.4c1.2-1.1,2.3-2.4,3.2-3.6h-14v-2h13.9l1.5-.7,4,2.7c-1.6,1.7-4.3,3.6-6.8,4.8v3.1h2.9v1.9h-2.9v2.4h3.6v1.9h-3.6v2.6ZM254.4,315.9l-3.4,3.3c-3.8-4-5.8-11.4-6.1-20.3h1.5c.2,1.4.4,2.8.8,4.1,1.1-1.2,2.4-2.9,3.4-4.8l3.2,2.6c-1.8,1.7-4.2,3.3-6.1,4.1,1.5,4.9,3.8,8.3,6.7,10.9Z"/>
            <path class="cls-26" d="M264.5,311.3l1.6.4c-.2,3.3-1.2,6.5-2.8,8.7l-3.1-2.5c2.2-2,3.4-3.8,4.4-6.6ZM263.8,308.7v-15.8h22v15.8h-22ZM282.4,312.7c1.7,5.3,1,7.6-2.2,7.8-2.2.1-5.2.2-7.5,0-3.8-.2-5.2-.5-5.2-4v-6.4h4v4.7c0,1.6.4,1.9,2.1,2,1.7.1,4,0,5.5,0,1.5-.1,1.7-.8,1.7-4.2h1.6ZM267.7,306.8h14.2v-12h-5.3c0,1,0,2,0,2.9h4.8v1.9h-5.1l-.2.6c1.8.9,3.8,2.1,5.5,3.6l-2.4,2.6c-1.1-1.5-2.6-3.1-3.8-4.3-1.1,2.1-3,3.7-6.3,4.6l-.7-1.5c2.8-1.6,3.8-3.3,4.2-5.6h-4v-1.9h4.2c0-.9,0-1.8,0-2.9h-5.1v12ZM272.5,309.9l.9-1.2c1.8.6,4,1.8,6.1,3.6l-2.8,2.8c-1.5-2-2.9-3.8-4.3-5.2ZM289.4,317.6l-3.4,1.7c-.9-2.9-1.8-5.3-3-7.8l1.3-.8c1.9,1.7,4,4.6,5.2,6.9Z"/>
            <path class="cls-26" d="M297.3,292.9h11.6v11.9h-7.6v16.4h-4v-28.3ZM305.1,297.8v-2.9h-3.7v2.9h3.7ZM305.1,302.9v-3.1h-3.7v3.1h3.7ZM313.5,317.9c4.4.8,5.1.4,5.1-1.6v-11.5h-7.5v-11.9h11.5v24.4c0,4.6-3.8,5.4-9.5,2.2l.4-1.6ZM318.6,297.8v-2.9h-3.7v2.9h3.7ZM318.6,302.9v-3.1h-3.7v3.1h3.7Z"/>
          </g>
          <g>
            <rect class="cls-22" x="204.9" y="143.9" width="139.7" height="88.7"/>
            <rect class="cls-28" x="204.9" y="191" width="139.7" height="41.6"/>
            <g>
              <circle class="cls-11" cx="274.7" cy="171.6" r="5.9"/>
              <circle class="cls-26" cx="274" cy="172.3" r="6.9"/>
              <circle class="cls-34" cx="274.7" cy="171.6" r="6.9"/>
              <path class="cls-27" d="M274.7,166.2v10.9c3,0,5.4-2.4,5.4-5.4s-2.4-5.4-5.4-5.4Z"/>
              <path class="cls-15" d="M274.7,166.2v10.9c-3,0-5.4-2.4-5.4-5.4s2.4-5.4,5.4-5.4Z"/>
            </g>
            <g>
              <rect class="cls-34" x="303.6" y="165.7" width="11.4" height="13.6"/>
              <rect class="cls-27" x="305.3" y="165.7" width="8.1" height="11.9"/>
              <rect class="cls-15" x="305.3" y="165.7" width="3.7" height="11.9"/>
              <rect class="cls-24" x="303.6" y="177.5" width="11.4" height="1.7"/>
              <rect class="cls-24" x="305.3" y="165.7" width="8.1" height="1.7"/>
            </g>
            <path class="cls-15" d="M250.4,232.6v-14c0-12.9,10.5-23.3,23.3-23.3s23.3,10.5,23.3,23.3v14h-46.6Z"/>
            <path class="cls-18" d="M274.7,196.3c-11.9,0-21.6,9.7-21.6,21.6v14.7h43.2v-14.7c0-11.9-9.7-21.6-21.6-21.6Z"/>
            <path class="cls-27" d="M274.7,200.5c-9.6,0-17.4,7.8-17.4,17.4v14.7h34.8v-14.7c0-9.6-7.8-17.4-17.4-17.4Z"/>
            <g>
              <rect class="cls-34" x="234.4" y="165.7" width="11.4" height="13.6" transform="translate(480.2 345) rotate(180)"/>
              <rect class="cls-27" x="236.1" y="165.7" width="8.1" height="11.9" transform="translate(480.2 343.2) rotate(180)"/>
              <rect class="cls-15" x="236.1" y="165.7" width="4.2" height="11.9" transform="translate(476.3 343.2) rotate(180)"/>
              <rect class="cls-24" x="234.4" y="177.5" width="11.4" height="1.7" transform="translate(480.2 356.8) rotate(180)"/>
              <rect class="cls-24" x="236.1" y="165.7" width="8.1" height="1.7" transform="translate(480.2 333.1) rotate(180)"/>
            </g>
            <g>
              <path class="cls-26" d="M344.6,143.9h-.2c-.9.3-1.9.7-3.2,1.1-1,.3-2.1.6-3.2.9-1.2.2-2.5.6-3.8.8-1.4.3-2.8.6-4.4.8-.8.1-1.6.3-2.4.4-.8.1-1.6.2-2.5.3-1.7.2-3.5.4-5.3.6-1.8.2-3.7.3-5.7.5-2,.2-4,.2-6,.3-1,0-2.1,0-3.1.1-1,0-2.1,0-3.2,0-4.2.2-8.7,0-13.2,0-4.5,0-9.1,0-13.6,0-4.6,0-9.1,0-13.6,0-4.5,0-8.9,0-13.2,0-1.1,0-2.1,0-3.2,0-1,0-2.1,0-3.1-.1-2.1,0-4.1-.2-6-.3-2-.1-3.9-.3-5.7-.5-1.8-.2-3.6-.3-5.3-.6-.9-.1-1.7-.2-2.5-.3-.8-.1-1.6-.3-2.4-.4-1.6-.2-3-.5-4.4-.8-1.4-.2-2.7-.6-3.8-.8-1.2-.3-2.3-.6-3.2-.9-1.3-.4-2.3-.7-3.2-1.1h-.2v.4c.9.5,1.9,1,3.2,1.5,1,.4,2,.8,3.2,1.3,1.2.4,2.5.9,3.8,1.2,1.4.4,18.3,3,20.3,3.3,2,.3,4,.5,6.1.7,1,0,2.1.2,3.1.3,1.1,0,2.1.1,3.2.2,2.1.1,4.3.3,6.5.3,2.2,0,4.5.2,6.7.1,4.5,0,9.1,0,13.6,0,4.6,0,9.1,0,13.6,0,2.3,0,4.5,0,6.7-.1,2.2,0,4.4-.2,6.5-.3,2.2-.1,4.3-.2,6.3-.5,2.1-.2,4.1-.4,6.1-.7,2-.3,18.9-2.9,20.3-3.3,1.4-.4,2.6-.9,3.8-1.2,1.2-.5,2.2-.8,3.2-1.3,1.3-.5,2.4-1.1,3.2-1.5v-.4Z"/>
              <path class="cls-29" d="M202.2,142.8s.5.2,1.6.6c1,.3,2.6.7,4.5,1.2,1,.2,2.1.4,3.2.7,1.2.2,2.5.5,3.8.6,1.4.2,2.8.4,4.4.6.8,0,1.6.2,2.4.3.8,0,1.6.2,2.5.2,1.7.2,3.5.3,5.3.4,1.8.1,3.7.3,5.7.4,2,.1,4,.2,6,.2,1,0,2.1,0,3.1.1,1,0,2.1,0,3.2,0,4.3.1,8.7,0,13.2,0,4.5,0,9.1,0,13.6,0,4.6,0,9.1,0,13.6,0,4.5,0,8.9,0,13.2,0,1.1,0,2.1,0,3.2,0,1,0,2.1,0,3.1-.1,2.1,0,4.1-.1,6-.2,2-.1,3.9-.2,5.7-.4,1.8-.1,3.6-.3,5.3-.4.9,0,1.7-.2,2.5-.2.8,0,1.6-.2,2.4-.3,1.6-.2,3-.4,4.4-.6,1.4-.2,2.7-.5,3.8-.6,1.2-.2,2.3-.4,3.2-.7,2-.4,3.5-.9,4.5-1.2,1-.3,1.6-.6,1.6-.6,0,0-.5.3-1.5.7-1,.4-2.5,1.1-4.4,1.7-1,.3-2,.6-3.2,1-1.2.3-2.5.7-3.8,1-1.4.3-2.8.6-4.4.9-.8.1-1.6.3-2.4.4-.8.1-1.6.3-2.5.4-1.7.3-3.5.5-5.3.8-1.8.3-3.8.4-5.7.6-2,.2-4,.4-6.1.5-2.1.2-4.2.3-6.3.4-2.2.1-4.3.2-6.5.2-2.2,0-4.4.1-6.7.1-4.5,0-9.1,0-13.6,0-4.6,0-9.1,0-13.6,0-2.2,0-4.5,0-6.7-.1-2.2,0-4.4-.1-6.5-.2-1.1,0-2.1,0-3.2-.1-1.1,0-2.1-.1-3.1-.2-2.1-.2-4.1-.3-6.1-.5-2-.2-3.9-.4-5.7-.6-1.8-.2-3.6-.5-5.3-.8-.9-.1-1.7-.3-2.5-.4-.8-.2-1.6-.3-2.4-.4-1.5-.3-3-.6-4.4-.9-1.4-.3-2.6-.6-3.8-1-1.2-.3-2.2-.6-3.2-1-1.9-.6-3.4-1.2-4.4-1.7-1-.5-1.5-.7-1.5-.7Z"/>
              <path class="cls-35" d="M317,139l-2.1-8.7-18.8,5.2-1.1-7.3s-6.1,2.1-20.4,2.1-20.4-2.1-20.4-2.1l-1.1,7.3-18.8-5.2-2.1,8.7s-12.6,5.3-30.3,3.7c0,0,11,6.8,50.9,6.8h43.4c39.9,0,50.9-6.8,50.9-6.8-17.7,1.6-30.3-3.7-30.3-3.7Z"/>
              <path class="cls-26" d="M295.1,128.2s-6.1,2.1-20.4,2.1-20.4-2.1-20.4-2.1l-.3,2.3c2.9,1.7,8.9,3.9,20.7,3.9s17.8-2.2,20.7-3.9l-.3-2.3Z"/>
              <path class="cls-26" d="M314.9,130.3l-6.4,1.8c-3.1,1.3-6.4,2.3-9.7,2.7l-2.7.8v-.5c-.4,0-.8,0-1.2,0v3c11.2,0,17.5-2.9,20.6-4.9l-.7-2.8Z"/>
              <path class="cls-31" d="M295,136c17.3,0,23.1-6.9,23.1-6.9v-2c2.7-3.7,3.4-8.5,3.4-8.5-3.2,8.2-15.3,14.5-26.5,14.5v3Z"/>
              <path class="cls-31" d="M274.7,133c-18.9,0-23.1-5.7-23.1-5.7v-2.6c-2.7-3.7-3.4-8.5-3.4-8.5,3.2,8.2,9.8,12.1,26.5,12.1,16.7,0,23.2-3.9,26.5-12.1,0,0-.7,4.9-3.4,8.5v2.6s-4.2,5.7-23.1,5.7Z"/>
              <path class="cls-26" d="M253.3,135.5l-2.7-.8c-3.3-.4-6.7-1.4-9.7-2.7l-6.4-1.8-.7,2.8c3.1,2,9.4,4.9,20.6,4.9v-3c-.4,0-.7,0-1.1,0v.5Z"/>
              <path class="cls-31" d="M254.5,136c-17.3,0-23.1-6.9-23.1-6.9v-2c-2.7-3.7-3.4-8.5-3.4-8.5,3.2,8.2,15.3,14.5,26.5,14.5v3Z"/>
              <path class="cls-26" d="M318.5,139.5s0,0,0,0v.5c4.2,1.4,10.7,4.7,25.3,4.1,1-.4,1.8-.7,2.4-.9.2-.2.3-.3.5-.5-13.8,1.1-24.3-1.9-28.1-3.2Z"/>
              <path class="cls-31" d="M318.5,139.5c15.7,3.6,23.3,1.7,26.6.4s4.5-4.8,4.5-4.8c0,0-1.3,6.1-4.5,8-15.4.8-22.3-1.6-26.6-3v-.5Z"/>
              <path class="cls-26" d="M230.9,140v-.5s0,0,0,0c-3.8,1.3-14.3,4.3-28.1,3.2.2.2.3.4.5.5.6.2,1.3.6,2.4.9,14.5.6,21.1-2.7,25.3-4.1Z"/>
              <path class="cls-31" d="M230.9,139.5c-15.7,3.6-23.3,1.7-26.6.4s-4.5-4.8-4.5-4.8c0,0,1.3,6.1,4.5,8,15.4.8,22.3-1.6,26.6-3v-.5Z"/>
              <g>
                <polygon class="cls-31" points="319.5 138.8 319.9 143.5 317.1 143.5 314.4 131.4 314.4 128.5 315.2 128.5 319.5 138.8"/>
                <polygon class="cls-17" points="319.5 138.8 319.9 143.5 317.1 143.5 317.8 138.8 319.5 138.8"/>
                <polygon class="cls-8" points="314.4 128.5 317.8 138.8 317.1 143.5 314.4 131.4 314.4 128.5"/>
              </g>
              <g>
                <polygon class="cls-31" points="298.3 140.5 298.7 145.9 295.3 145.9 294.6 129.6 294.6 126.2 295.6 126.2 298.3 140.5"/>
                <polygon class="cls-17" points="298.3 140.5 298.7 145.9 295.3 145.9 296.7 140.5 298.3 140.5"/>
                <polygon class="cls-8" points="294.6 126.2 296.7 140.5 295.3 145.9 294.6 129.6 294.6 126.2"/>
              </g>
              <g>
                <polygon class="cls-31" points="229.9 138.8 229.6 143.5 232.3 143.5 235.1 131.4 235.1 128.5 234.2 128.5 229.9 138.8"/>
                <polygon class="cls-17" points="229.9 138.8 229.6 143.5 232.3 143.5 231.7 138.8 229.9 138.8"/>
                <polygon class="cls-8" points="235.1 128.5 231.7 138.8 232.3 143.5 235.1 131.4 235.1 128.5"/>
              </g>
              <g>
                <polygon class="cls-31" points="251.1 140.5 250.7 145.9 254.1 145.9 254.8 129.6 254.8 126.2 253.8 126.2 251.1 140.5"/>
                <polygon class="cls-17" points="251.1 140.5 250.7 145.9 254.1 145.9 252.7 140.5 251.1 140.5"/>
                <polygon class="cls-8" points="254.8 126.2 252.7 140.5 254.1 145.9 254.8 129.6 254.8 126.2"/>
              </g>
            </g>
            <g>
              <polygon class="cls-26" points="287.3 190.3 261.2 191.3 262.2 180.5 287.3 180.5 287.3 190.3"/>
              <rect class="cls-18" x="262.2" y="180.5" width="25.1" height="9.8"/>
              <rect class="cls-32" x="264.7" y="182.5" width="20" height="5.9"/>
            </g>
          </g>
          <line class="cls-12" x1="181.3" y1="247.2" x2="368.1" y2="247.2"/>
          <g>
            <path class="cls-24" d="M265.1,276.6l.2.6c-2.2,1.3-6.5,2.5-8.2,2.8l-.5-1.7c1.2-.1,3.2-.5,5-.9v-6.6h-4.8v-.9h4.8v-6.3h1.7v13.4c.7-.2,1.3-.3,1.8-.5ZM270.9,279.5c-.7,0-1.8,0-2.9,0-1.9,0-2.2-.6-2.2-2.8v-13.1h1.7v7.1c1.2-.8,2.6-1.8,3.9-3.2l1.3,1.4c-1.6,1.1-3.7,2.1-5.2,2.7v5c0,.9,0,1.2,1.1,1.3.7,0,1.6,0,2.3,0,.9-.1.9-.6,1-4h.6c.8,4.5.8,5.5-1.5,5.6Z"/>
            <path class="cls-24" d="M277.7,264.3h6.2v6.6h-4.6v9.3h-1.6v-15.9ZM282.3,267.1v-2h-3v2h3ZM282.3,270v-2.2h-3v2.2h3ZM286.8,278.5c2.7.6,3.3.4,3.3-.8v-6.8h-4.6v-6.6h6.2v13.8c0,2.2-1.6,3.1-5.1,1l.2-.6ZM290.1,267.1v-2h-3v2h3ZM290.1,270v-2.2h-3v2.2h3Z"/>
          </g>
        </g>
        <g>
          <g>
            <g>
              <path class="cls-15" d="M575.7,151.3c-40.6,0-75.4-6.7-75.4-6.7,0,0,14,14.1,25.3,18.1h50.1s50.1,0,50.1,0c11.3-4.1,25.3-18.1,25.3-18.1,0,0-34.9,6.7-75.4,6.7Z"/>
              <path class="cls-31" d="M494.8,143.7s.6.3,1.7.7c1.1.4,2.8,1,5,1.5,1.1.3,2.3.6,3.6.9,1.3.2,2.7.6,4.3.8,1.5.3,3.2.6,4.9.8.9.1,1.7.2,2.7.4.9.1,1.8.2,2.8.3,1.9.2,3.9.4,5.9.6,2,.2,4.2.3,6.3.5,2.2.2,4.4.2,6.7.3,1.1,0,2.3,0,3.5.1,1.2,0,2.4,0,3.5,0,4.8.2,9.7,0,14.7,0,5,0,10.1,0,15.2,0,5.1,0,10.2,0,15.2,0,5,0,10,0,14.7,0,1.2,0,2.4,0,3.5,0,1.2,0,2.3,0,3.5-.1,2.3,0,4.5-.2,6.7-.3,2.2-.1,4.3-.3,6.3-.5,2-.2,4-.3,5.9-.6.9-.1,1.9-.2,2.8-.3.9-.1,1.8-.3,2.7-.4,1.7-.2,3.4-.5,4.9-.8,1.5-.2,3-.6,4.3-.8,1.3-.3,2.5-.6,3.6-.9,2.2-.6,3.9-1.1,5-1.5,1.1-.4,1.7-.7,1.7-.7,0,0-.6.4-1.7,1-1.1.6-2.8,1.4-4.9,2.2-1.1.4-2.3.8-3.6,1.3-1.3.4-2.7.9-4.3,1.2-1.5.4-3.2.8-4.9,1.2-.9.2-1.7.4-2.7.6-.9.2-1.8.3-2.8.5-1.9.4-3.9.7-5.9,1-2.1.3-4.2.6-6.4.8-2.2.3-4.4.5-6.7.7-2.3.2-4.7.3-7.1.5-2.4.1-4.8.3-7.3.3-2.5,0-4.9.1-7.5.1-5,0-10.1,0-15.2,0-5.1,0-10.2,0-15.2,0-2.5,0-5,0-7.5-.1-2.5,0-4.9-.2-7.3-.3-1.2,0-2.4-.1-3.6-.2-1.2,0-2.3-.2-3.5-.3-2.3-.2-4.6-.4-6.7-.7-2.2-.3-4.3-.5-6.4-.8-2.1-.3-4-.6-5.9-1-1-.2-1.9-.3-2.8-.5-.9-.2-1.8-.4-2.7-.6-1.7-.4-3.4-.8-4.9-1.2-1.5-.4-3-.8-4.3-1.2-1.3-.5-2.5-.8-3.6-1.3-2.2-.8-3.8-1.6-4.9-2.2-1.1-.6-1.7-1-1.7-1Z"/>
              <polygon class="cls-2" points="613 128.1 575.7 128.1 538.4 128.1 533.3 150.7 575.7 150.7 618.1 150.7 613 128.1"/>
              <polygon class="cls-6" points="575.7 126.2 541.5 126.2 541.8 129.5 576 129.5 609.8 129.5 609.8 126.2 575.7 126.2"/>
              <path class="cls-2" d="M575.7,152.9h-26.7c-39.9,0-56.1-10.6-56.1-10.6,22.3,5.3,34.7,1.5,44.7-4.2h38s38,0,38,0c10,5.7,22.5,9.5,44.7,4.2,0,0-16.2,10.6-56.1,10.6h-26.7"/>
              <path class="cls-6" d="M656.9,142.6c-17.8,6.1-34.8,5.7-43.1-.5v-4.5c8.3,6.2,25.7,8.9,43.4,2.8l-.3,2.2Z"/>
              <path class="cls-37" d="M656.6,142.6c-17.8,6.1-34.8,3.7-43.1-2.5v-2.5c8.3,6.2,25.7,8.9,43.4,2.8l-.3,2.2Z"/>
              <path class="cls-6" d="M494.8,142.6c17.8,6.1,34.8,5.7,43.1-.5v-4.5c-8.3,6.2-25.7,8.9-43.4,2.8l.3,2.2Z"/>
              <path class="cls-37" d="M494.8,142.6c17.8,6.1,34.8,3.7,43.1-2.5v-2.5c-8.3,6.2-25.7,8.9-43.4,2.8l.3,2.2Z"/>
              <g>
                <polygon class="cls-6" points="612.5 140.4 612.9 145.8 610.1 145.8 607 129 608 125.6 609 125.6 612.5 140.4"/>
                <polygon class="cls-5" points="614.2 140.4 614.5 145.8 611.8 145.8 609.6 129 609.6 125.6 610.6 125.6 614.2 140.4"/>
                <polygon class="cls-37" points="614.2 140.4 614.5 145.8 611.8 145.8 612.8 140.4 614.2 140.4"/>
                <polygon class="cls-4" points="609.6 125.6 612.8 140.4 611.8 145.8 609.6 129 609.6 125.6"/>
              </g>
              <circle class="cls-30" cx="639.9" cy="142.3" r="1.7"/>
              <circle class="cls-30" cx="655.1" cy="140" r="1.3"/>
              <circle class="cls-30" cx="644.7" cy="142.3" r=".9"/>
              <circle class="cls-30" cx="648.2" cy="141.8" r=".9"/>
              <circle class="cls-30" cx="651.5" cy="141.1" r=".9"/>
              <g>
                <polygon class="cls-6" points="538.5 140.4 538.1 145.8 540.9 145.8 544 129 543 125.6 542 125.6 538.5 140.4"/>
                <polygon class="cls-5" points="537.2 140.4 536.8 145.8 539.5 145.8 541.7 129 541.7 125.6 540.7 125.6 537.2 140.4"/>
                <polygon class="cls-37" points="537.2 140.4 536.8 145.8 539.5 145.8 538.6 140.4 537.2 140.4"/>
                <polygon class="cls-4" points="541.7 125.6 538.6 140.4 539.5 145.8 541.7 129 541.7 125.6"/>
              </g>
              <polygon class="cls-37" points="575.7 125.2 541.5 125.2 541.5 128.5 575.7 128.5 609.8 128.5 609.8 125.2 575.7 125.2"/>
              <polygon class="cls-4" points="575.7 126.5 541.5 126.5 541.5 127.2 575.7 127.2 609.8 127.2 609.8 126.5 575.7 126.5"/>
              <circle class="cls-30" cx="511.5" cy="142.3" r="1.8"/>
              <circle class="cls-30" cx="496.2" cy="140" r="1.3"/>
              <circle class="cls-30" cx="506.6" cy="142.3" r=".9"/>
              <circle class="cls-30" cx="503.2" cy="141.8" r=".9"/>
              <circle class="cls-30" cx="499.9" cy="141.1" r=".9"/>
              <path class="cls-30" d="M606.9,122.9h-2s-2-1.5-2-5c0-1.3.7-2.4,2-2.4s2.1,1,2.1,2-.5,1.5-1,1.7c0,0,.7,1.8,2.2,1.8s0-4.1,1.7-4.1,1,1.6,1,2.4.8,2.3.8,3.7-1.5,3.1-1.5,4.5c0,0-1-1.5-3-1.5s-2-1.2-2-1.2c0,0,1.6.2,1.6-1.8Z"/>
              <path class="cls-30" d="M544.4,122.9h2s2-1.5,2-5-.7-2.4-2-2.4-2.1,1-2.1,2,.5,1.5,1,1.7c0,0-.7,1.8-2.2,1.8s0-4.1-1.7-4.1-1,1.6-1,2.4-.8,2.3-.8,3.7,1.5,3.1,1.5,4.5c0,0,1-1.5,3-1.5s2-1.2,2-1.2c0,0-1.6.2-1.6-1.8Z"/>
            </g>
            <rect class="cls-25" x="527.7" y="159.2" width="95.9" height="31.4"/>
            <rect class="cls-13" x="527.7" y="159.2" width="95.9" height="14.5"/>
            <rect class="cls-27" x="568.8" y="167.7" width="13.8" height="22.9"/>
            <g>
              <rect class="cls-14" x="505.8" y="190.9" width="139.7" height="41.6"/>
              <rect class="cls-25" x="505.8" y="190.9" width="139.7" height="2.8"/>
              <rect class="cls-19" x="503.7" y="187" width="143.9" height="3.9"/>
              <path class="cls-18" d="M575.7,196.2c-11.9,0-21.6,9.7-21.6,21.6v14.7h43.2v-14.7c0-11.9-9.7-21.6-21.6-21.6Z"/>
              <path class="cls-27" d="M575.7,200.4c-9.6,0-17.4,7.8-17.4,17.4v14.7h34.8v-14.7c0-9.6-7.8-17.4-17.4-17.4Z"/>
            </g>
            <g>
              <rect class="cls-7" x="562.2" y="174.8" width="26.8" height="12.4"/>
              <rect class="cls-34" x="563.1" y="175.6" width="25.1" height="9.8"/>
              <rect class="cls-33" x="565.7" y="177.6" width="20" height="5.9"/>
            </g>
            <g>
              <rect class="cls-22" x="559" y="162" width="3" height="25"/>
              <rect class="cls-20" x="559" y="156.8" width="3" height="5.2"/>
            </g>
            <rect class="cls-22" x="589.3" y="162" width="3" height="25" transform="translate(1181.7 349) rotate(180)"/>
            <rect class="cls-20" x="589.3" y="156.8" width="3" height="5.2" transform="translate(1181.7 318.8) rotate(180)"/>
            <g>
              <rect class="cls-22" x="531.8" y="162" width="3" height="25"/>
              <rect class="cls-20" x="531.8" y="156.8" width="3" height="5.2"/>
            </g>
            <g>
              <rect class="cls-22" x="518.4" y="162" width="3" height="25"/>
              <rect class="cls-20" x="518.4" y="156.8" width="3" height="5.2"/>
            </g>
            <g>
              <rect class="cls-33" x="534.8" y="156.8" width="24.2" height="5.2"/>
              <polygon class="cls-9" points="555.7 162 538.1 162 536.1 159.4 538.1 156.8 555.7 156.8 557.7 159.4 555.7 162"/>
              <polygon class="cls-9" points="551.7 162 542.1 162 540.1 159.4 542.1 156.8 551.7 156.8 553.7 159.4 551.7 162"/>
              <polygon class="cls-3" points="542.8 160.6 541.9 159.4 542.8 158.2 551 158.2 551.9 159.4 551 160.6 542.8 160.6"/>
            </g>
            <g>
              <rect class="cls-33" x="521.4" y="156.8" width="10.4" height="5.2"/>
              <g>
                <polygon class="cls-9" points="528.5 162 525 162 523 159.4 525 156.8 528.5 156.8 530.5 159.4 528.5 162"/>
                <polygon class="cls-3" points="525.7 160.6 524.8 159.4 525.7 158.2 527.9 158.2 528.8 159.4 527.9 160.6 525.7 160.6"/>
              </g>
            </g>
            <polygon class="cls-21" points="539.3 162 536.7 162 534.8 162 534.8 163.9 534.8 165.7 536.7 165.7 536.7 163.9 539.3 163.9 539.3 162"/>
            <polygon class="cls-21" points="525.9 162 523.4 162 521.4 162 521.4 163.9 521.4 165.7 523.4 165.7 523.4 163.9 525.9 163.9 525.9 162"/>
            <polygon class="cls-21" points="527.6 162 530.1 162 532.1 162 532.1 163.9 532.1 165.7 530.1 165.7 530.1 163.9 527.6 163.9 527.6 162"/>
            <polygon class="cls-21" points="554.5 162 557.1 162 559 162 559 163.9 559 165.7 557.1 165.7 557.1 163.9 554.5 163.9 554.5 162"/>
            <g>
              <rect class="cls-22" x="616.6" y="162" width="3" height="25" transform="translate(1236.1 349) rotate(-180)"/>
              <rect class="cls-20" x="616.6" y="156.8" width="3" height="5.2" transform="translate(1236.1 318.8) rotate(-180)"/>
            </g>
            <g>
              <rect class="cls-22" x="629.9" y="162" width="3" height="25" transform="translate(1262.8 349) rotate(-180)"/>
              <rect class="cls-20" x="629.9" y="156.8" width="3" height="5.2" transform="translate(1262.8 318.8) rotate(-180)"/>
            </g>
            <g>
              <rect class="cls-33" x="592.4" y="156.8" width="24.2" height="5.2" transform="translate(1208.9 318.8) rotate(-180)"/>
              <polygon class="cls-9" points="595.7 162 613.2 162 615.2 159.4 613.2 156.8 595.7 156.8 593.7 159.4 595.7 162"/>
              <polygon class="cls-9" points="599.7 162 609.2 162 611.2 159.4 609.2 156.8 599.7 156.8 597.7 159.4 599.7 162"/>
              <polygon class="cls-3" points="608.5 160.6 609.5 159.4 608.5 158.2 600.4 158.2 599.5 159.4 600.4 160.6 608.5 160.6"/>
            </g>
            <g>
              <rect class="cls-33" x="619.5" y="156.8" width="10.4" height="5.2" transform="translate(1249.4 318.8) rotate(-180)"/>
              <g>
                <polygon class="cls-9" points="622.8 162 626.4 162 628.4 159.4 626.4 156.8 622.8 156.8 620.8 159.4 622.8 162"/>
                <polygon class="cls-3" points="625.7 160.6 626.6 159.4 625.7 158.2 623.5 158.2 622.6 159.4 623.5 160.6 625.7 160.6"/>
              </g>
            </g>
            <polygon class="cls-21" points="612.1 162 614.6 162 616.6 162 616.6 163.9 616.6 165.7 614.6 165.7 614.6 163.9 612.1 163.9 612.1 162"/>
            <polygon class="cls-21" points="625.4 162 628 162 629.9 162 629.9 163.9 629.9 165.7 628 165.7 628 163.9 625.4 163.9 625.4 162"/>
            <polygon class="cls-21" points="623.7 162 621.2 162 619.3 162 619.3 163.9 619.3 165.7 621.2 165.7 621.2 163.9 623.7 163.9 623.7 162"/>
            <polygon class="cls-21" points="596.8 162 594.3 162 592.4 162 592.4 163.9 592.4 165.7 594.3 165.7 594.3 163.9 596.8 163.9 596.8 162"/>
            <g>
              <rect class="cls-33" x="562" y="156.8" width="27.4" height="5.2"/>
              <polygon class="cls-9" points="584.5 162 566.9 162 564.9 159.4 566.9 156.8 584.5 156.8 586.5 159.4 584.5 162"/>
              <polygon class="cls-9" points="580.5 162 570.9 162 568.9 159.4 570.9 156.8 580.5 156.8 582.5 159.4 580.5 162"/>
              <polygon class="cls-3" points="571.6 160.6 570.7 159.4 571.6 158.2 579.8 158.2 580.7 159.4 579.8 160.6 571.6 160.6"/>
            </g>
            <polygon class="cls-21" points="566.5 162 563.9 162 562 162 562 163.9 562 165.7 563.9 165.7 563.9 163.9 566.5 163.9 566.5 162"/>
            <polygon class="cls-21" points="584.9 162 587.4 162 589.4 162 589.4 163.9 589.4 165.7 587.4 165.7 587.4 163.9 584.9 163.9 584.9 162"/>
            <g>
              <path class="cls-16" d="M600.4,213.2c-.1-.5-.6-.9-1.1-.9h-7.5c-.5,0-1,.4-1.1.9-.4,2-1.4,6.8-1.4,11.1s.6,8.3.6,8.3h11.4s.6-2.7.6-8.3-.9-9.1-1.4-11.1Z"/>
              <path class="cls-16" d="M620.2,210.8c-.1-.5-.6-.9-1.1-.9h-9.5c-.5,0-1,.4-1.1.9-.4,1.9-1.4,6.5-1.4,11.3s1.6,10.5,1.6,10.5h11.4s1.6-4.3,1.6-10.5-.9-9.4-1.4-11.3Z"/>
              <path class="cls-16" d="M550.9,213.2c.1-.5.6-.9,1.1-.9h3.8s3.8,0,3.8,0c.5,0,1,.4,1.1.9.4,2,1.4,6.8,1.4,11.1s-.6,8.3-.6,8.3h-5.7s-5.7,0-5.7,0c0,0-.6-2.7-.6-8.3s.9-9.1,1.4-11.1Z"/>
              <path class="cls-16" d="M531.1,210.8c.1-.5.6-.9,1.1-.9h4.8s4.8,0,4.8,0c.5,0,1,.4,1.1.9.4,1.9,1.4,6.5,1.4,11.3,0,6.3-1.6,10.5-1.6,10.5h-5.7s-5.7,0-5.7,0c0,0-1.6-4.3-1.6-10.5,0-4.8.9-9.4,1.4-11.3Z"/>
            </g>
            <g>
              <rect class="cls-7" x="519.9" y="183.1" width="40.5" height="3.9"/>
              <path class="cls-7" d="M518.1,177.5h-1.9v-1.9h-8.1v11.4h11.9v-7.6h-1.9v-1.9ZM514.3,181.2h-3.7v-1.9h3.7v1.9Z"/>
              <path class="cls-7" d="M535.6,179.4v-1.9h-1.9v-1.9h-5.6v1.9h-1.9v1.9h-1.9v7.6h13.1v-7.6h-1.9ZM532.7,181.2h-3.7v-1.9h3.7v1.9Z"/>
              <path class="cls-7" d="M553.9,179.4v-1.9h-1.9v-1.9h-5.6v1.9h-1.9v1.9h-1.9v7.6h13.1v-7.6h-1.9ZM551.1,181.2h-3.7v-1.9h3.7v1.9Z"/>
            </g>
            <g>
              <rect class="cls-7" x="590.9" y="183.1" width="40.5" height="3.9" transform="translate(1222.3 370.1) rotate(180)"/>
              <path class="cls-7" d="M633.3,179.4h-1.9v7.6h11.9v-11.4h-8.1v1.9s-1.9,0-1.9,0v1.9ZM637,179.4h1.9s1.9,0,1.9,0v1.9s-1.9,0-1.9,0h-1.9s0-1.9,0-1.9Z"/>
              <path class="cls-7" d="M613.9,179.4v7.6h6.6s6.6,0,6.6,0v-7.6h-1.9s0-1.9,0-1.9h-1.9s0-1.9,0-1.9h-2.8s-2.8,0-2.8,0v1.9s-1.9,0-1.9,0v1.9s-1.9,0-1.9,0ZM618.6,179.4h3.7s0,1.9,0,1.9h-3.7s0-1.9,0-1.9Z"/>
              <path class="cls-7" d="M595.6,179.4v7.6h6.6s6.6,0,6.6,0v-7.6h-1.9s0-1.9,0-1.9h-1.9s0-1.9,0-1.9h-2.8s-2.8,0-2.8,0v1.9s-1.9,0-1.9,0v1.9s-1.9,0-1.9,0ZM600.3,179.4h3.7s0,1.9,0,1.9h-3.7s0-1.9,0-1.9Z"/>
            </g>
          </g>
          <g>
            <path class="cls-26" d="M537.5,315.2c-2.5,2.1-7,4.5-10.6,5.4l-.7-1.5c3-1.5,5.9-3.7,7.9-6l3.4,2.2ZM554.5,305.7h-28v-2h13.4c-1.1-.6-2.3-1.1-3.3-1.6l.3-1h-6.4v-8.2h20.2v8.2h-10.8c1.3.3,2.7.7,4.2,1.2l-.7,1.4h11.2v2ZM542.8,312.9v5.2c0,3.2-3.2,4.6-8.6,1.8l.4-1.5c3.8.5,4.2.3,4.2-1.2v-4.3h-7.6v-6h18.6v6h-7.1ZM534.4,296.2h12.3v-1.4h-12.3v1.4ZM534.4,299.3h12.3v-1.5h-12.3v1.5ZM535.2,311h10.7v-2.2h-10.7v2.2ZM554.6,317.3l-2.2,3.5c-2-1.8-5.9-4.4-8.4-6l.7-1.4c3.1.7,7.4,2.4,10,3.9Z"/>
            <path class="cls-26" d="M572.2,307.2h16.7v14.2h-3.9v-1.6h-9v1.7h-3.8v-11.7l-1.8,1.5c-.5-1-1-1.9-1.4-2.7v12.9h-3.8v-11.8c-1,.9-2.2,1.7-3.4,2.4l-.9-1.4c3.9-3.4,6.1-7.4,7.3-10.9h-6.6v-2h4.3c-.7-2-1.8-4-2.7-5.7l1.3-.9c1.8,1.3,3.4,3.1,4.6,4.8l-3,1.8h2l.9-.7,3.4,1.7c-.9,2.5-2,4.6-3.4,6.6,1.1.8,2.1,1.7,3.1,2.7v-.9ZM588.9,293.6v1.9h-17.1v-1.9h17.1ZM587.3,297.7v7.2h-13.5v-7.2h13.5ZM576.1,312.4h2.7v-3.3h-2.7v3.3ZM576.1,317.8h2.7v-3.6h-2.7v3.6ZM583.4,299.6h-6v3.4h6v-3.4ZM582.3,312.4h2.8v-3.3h-2.8v3.3ZM582.3,317.8h2.8v-3.6h-2.8v3.6Z"/>
            <path class="cls-26" d="M598.3,292.9h11.6v11.9h-7.6v16.4h-4v-28.3ZM606,297.8v-2.9h-3.7v2.9h3.7ZM606,302.9v-3.1h-3.7v3.1h3.7ZM614.5,317.9c4.4.8,5.1.4,5.1-1.6v-11.5h-7.5v-11.9h11.5v24.4c0,4.6-3.8,5.4-9.5,2.2l.4-1.6ZM619.6,297.8v-2.9h-3.7v2.9h3.7ZM619.6,302.9v-3.1h-3.7v3.1h3.7Z"/>
          </g>
          <line class="cls-12" x1="482.3" y1="247.2" x2="669.1" y2="247.2"/>
          <g>
            <path class="cls-24" d="M573.9,277.8l-1,1.8c-2.4-1.1-5-3.1-6.4-5.2v5.9h-1.7v-5.3c-1.5,1.7-4.5,3.7-7,4.6l-.3-.6c2.1-1,4.9-3.2,6.4-5.4h-4.1v-5.6h4.8v-1.5h-6.6v-1h6.6v-2.1h1.7v2.1h6.7v1h-6.7v1.5h4.9v5.6h-4.5c1.8,1.9,4.6,3.3,7.1,4.2ZM561.6,270.3h3.2v-1.6h-3.2v1.6ZM561.6,272.8h3.2v-1.7h-3.2v1.7ZM566.5,268.8v1.6h3.3v-1.6h-3.3ZM569.8,271.1h-3.3v1.7h3.3v-1.7Z"/>
            <path class="cls-24" d="M578.6,264.3h6.2v6.6h-4.6v9.3h-1.6v-15.9ZM583.3,267.1v-2h-3v2h3ZM583.3,270v-2.2h-3v2.2h3ZM587.7,278.5c2.7.6,3.3.4,3.3-.8v-6.8h-4.6v-6.6h6.2v13.8c0,2.2-1.6,3.1-5.1,1l.2-.6ZM591,267.1v-2h-3v2h3ZM591,270v-2.2h-3v2.2h3Z"/>
          </g>
        </g>
        <g>
          <g>
            <g>
              <path class="cls-15" d="M274.7,422.5c-40.6,0-75.4-6.7-75.4-6.7,0,0,14,14.1,25.3,18.1h50.1s50.1,0,50.1,0c11.3-4.1,25.3-18.1,25.3-18.1,0,0-34.9,6.7-75.4,6.7Z"/>
              <path class="cls-31" d="M193.8,414.9s.6.3,1.7.7c1.1.4,2.8,1,5,1.5,1.1.3,2.3.6,3.6.9,1.3.2,2.7.6,4.3.8,1.5.3,3.2.6,4.9.8.9.1,1.7.2,2.7.4.9.1,1.8.2,2.8.3,1.9.2,3.9.4,5.9.6,2,.2,4.2.3,6.3.5,2.2.2,4.4.2,6.7.3,1.1,0,2.3,0,3.5.1,1.2,0,2.4,0,3.5,0,4.8.2,9.7,0,14.7,0,5,0,10.1,0,15.2,0,5.1,0,10.2,0,15.2,0,5,0,10,0,14.7,0,1.2,0,2.4,0,3.5,0,1.2,0,2.3,0,3.5-.1,2.3,0,4.5-.2,6.7-.3,2.2-.1,4.3-.3,6.3-.5,2-.2,4-.3,5.9-.6.9-.1,1.9-.2,2.8-.3.9-.1,1.8-.3,2.7-.4,1.7-.2,3.4-.5,4.9-.8,1.5-.2,3-.6,4.3-.8,1.3-.3,2.5-.6,3.6-.9,2.2-.6,3.9-1.1,5-1.5,1.1-.4,1.7-.7,1.7-.7,0,0-.6.4-1.7,1-1.1.6-2.8,1.4-4.9,2.2-1.1.4-2.3.8-3.6,1.3-1.3.4-2.7.9-4.3,1.2-1.5.4-3.2.8-4.9,1.2-.9.2-1.7.4-2.7.6-.9.2-1.8.3-2.8.5-1.9.4-3.9.7-5.9,1-2.1.3-4.2.6-6.4.8-2.2.3-4.4.5-6.7.7-2.3.2-4.7.3-7.1.5-2.4.1-4.8.3-7.3.3-2.5,0-4.9.1-7.5.1-5,0-10.1,0-15.2,0-5.1,0-10.2,0-15.2,0-2.5,0-5,0-7.5-.1-2.5,0-4.9-.2-7.3-.3-1.2,0-2.4-.1-3.6-.2-1.2,0-2.3-.2-3.5-.3-2.3-.2-4.6-.4-6.7-.7-2.2-.3-4.3-.5-6.4-.8-2.1-.3-4-.6-5.9-1-1-.2-1.9-.3-2.8-.5-.9-.2-1.8-.4-2.7-.6-1.7-.4-3.4-.8-4.9-1.2-1.5-.4-3-.8-4.3-1.2-1.3-.5-2.5-.8-3.6-1.3-2.2-.8-3.8-1.6-4.9-2.2-1.1-.6-1.7-1-1.7-1Z"/>
              <polygon class="cls-2" points="312 399.3 274.7 399.3 237.4 399.3 232.3 421.9 274.7 421.9 317.1 421.9 312 399.3"/>
              <path class="cls-2" d="M274.7,424.2h-26.7c-39.9,0-56.1-10.6-56.1-10.6,22.3,5.3,34.7,1.5,44.7-4.2h38s38,0,38,0c10,5.7,22.5,9.5,44.7,4.2,0,0-16.2,10.6-56.1,10.6h-26.7"/>
              <path class="cls-37" d="M355.6,413.8c-17.8,6.1-34.8,3.7-43.1-2.5v-2.5c8.3,6.2,25.7,8.9,43.4,2.8l-.3,2.2Z"/>
              <path class="cls-37" d="M193.8,413.8c17.8,6.1,34.8,3.7,43.1-2.5v-2.5c-8.3,6.2-25.7,8.9-43.4,2.8l.3,2.2Z"/>
              <g>
                <polygon class="cls-5" points="313.2 411.6 313.6 417 310.9 417 308.7 400.2 308.7 396.9 309.7 396.9 313.2 411.6"/>
                <polygon class="cls-37" points="313.2 411.6 313.6 417 310.9 417 311.8 411.6 313.2 411.6"/>
                <polygon class="cls-4" points="308.7 396.9 311.8 411.6 310.9 417 308.7 400.2 308.7 396.9"/>
              </g>
              <circle class="cls-30" cx="338.9" cy="413.6" r="1.7"/>
              <circle class="cls-30" cx="354.2" cy="411.2" r="1.3"/>
              <circle class="cls-30" cx="343.8" cy="413.6" r=".9"/>
              <circle class="cls-30" cx="347.2" cy="413.1" r=".9"/>
              <circle class="cls-30" cx="350.5" cy="412.3" r=".9"/>
              <g>
                <polygon class="cls-5" points="236.2 411.6 235.8 417 238.6 417 240.7 400.2 240.7 396.9 239.8 396.9 236.2 411.6"/>
                <polygon class="cls-37" points="236.2 411.6 235.8 417 238.6 417 237.6 411.6 236.2 411.6"/>
                <polygon class="cls-4" points="240.7 396.9 237.6 411.6 238.6 417 240.7 400.2 240.7 396.9"/>
              </g>
              <polygon class="cls-37" points="274.7 396.5 240.6 396.5 240.6 399.7 274.7 399.7 308.9 399.7 308.9 396.5 274.7 396.5"/>
              <polygon class="cls-4" points="274.7 397.7 240.6 397.7 240.6 398.5 274.7 398.5 308.9 398.5 308.9 397.7 274.7 397.7"/>
              <circle class="cls-30" cx="210.5" cy="413.6" r="1.8"/>
              <circle class="cls-30" cx="195.3" cy="411.2" r="1.3"/>
              <circle class="cls-30" cx="205.7" cy="413.6" r=".9"/>
              <circle class="cls-30" cx="202.2" cy="413.1" r=".9"/>
              <circle class="cls-30" cx="198.9" cy="412.3" r=".9"/>
              <path class="cls-30" d="M306,394.2h-2s-2-1.5-2-5,.7-2.4,2-2.4,2.1,1,2.1,2-.5,1.5-1,1.7c0,0,.7,1.8,2.2,1.8s0-4.1,1.7-4.1,1,1.6,1,2.4.8,2.3.8,3.7-1.5,3.1-1.5,4.5c0,0-1-1.5-3-1.5s-2-1.2-2-1.2c0,0,1.6.2,1.6-1.8Z"/>
              <path class="cls-30" d="M243.5,394.2h2s2-1.5,2-5-.7-2.4-2-2.4-2.1,1-2.1,2,.5,1.5,1,1.7c0,0-.7,1.8-2.2,1.8s0-4.1-1.7-4.1-1,1.6-1,2.4-.8,2.3-.8,3.7,1.5,3.1,1.5,4.5c0,0,1-1.5,3-1.5s2-1.2,2-1.2c0,0-1.6.2-1.6-1.8Z"/>
            </g>
            <rect class="cls-25" x="226.8" y="430.4" width="95.9" height="31.4"/>
            <rect class="cls-27" x="267.8" y="438.9" width="13.8" height="22.9"/>
            <g>
              <rect class="cls-14" x="204.9" y="462.1" width="139.7" height="41.6"/>
              <rect class="cls-23" x="204.9" y="462.1" width="139.7" height="2.8"/>
              <rect class="cls-19" x="202.8" y="458.2" width="143.9" height="3.9"/>
              <path class="cls-18" d="M274.7,467.4c-11.9,0-21.6,9.7-21.6,21.6v14.7h43.2v-14.7c0-11.9-9.7-21.6-21.6-21.6Z"/>
              <path class="cls-27" d="M274.7,471.6c-9.6,0-17.4,7.8-17.4,17.4v14.7h34.8v-14.7c0-9.6-7.8-17.4-17.4-17.4Z"/>
            </g>
            <g>
              <rect class="cls-7" x="261.3" y="446" width="26.8" height="12.4"/>
              <rect class="cls-34" x="262.2" y="446.9" width="25.1" height="9.8"/>
              <rect class="cls-33" x="264.7" y="448.8" width="20" height="5.9"/>
            </g>
            <g>
              <rect class="cls-22" x="258" y="433.2" width="3" height="25"/>
              <rect class="cls-20" x="258" y="428.1" width="3" height="5.2"/>
            </g>
            <rect class="cls-22" x="288.4" y="433.2" width="3" height="25" transform="translate(579.8 891.5) rotate(180)"/>
            <rect class="cls-20" x="288.4" y="428.1" width="3" height="5.2" transform="translate(579.8 861.3) rotate(180)"/>
            <g>
              <rect class="cls-22" x="230.8" y="433.2" width="3" height="25"/>
              <rect class="cls-20" x="230.8" y="428.1" width="3" height="5.2"/>
            </g>
            <g>
              <rect class="cls-22" x="217.5" y="433.2" width="3" height="25"/>
              <rect class="cls-20" x="217.5" y="428.1" width="3" height="5.2"/>
            </g>
            <g>
              <rect class="cls-33" x="233.8" y="428.1" width="24.2" height="5.2"/>
              <polygon class="cls-9" points="254.7 433.2 237.1 433.2 235.1 430.7 237.1 428.1 254.7 428.1 256.7 430.7 254.7 433.2"/>
              <polygon class="cls-9" points="250.7 433.2 241.1 433.2 239.1 430.7 241.1 428.1 250.7 428.1 252.7 430.7 250.7 433.2"/>
              <polygon class="cls-3" points="241.8 431.8 240.9 430.7 241.8 429.5 250 429.5 250.9 430.7 250 431.8 241.8 431.8"/>
            </g>
            <g>
              <rect class="cls-33" x="220.5" y="428.1" width="10.4" height="5.2"/>
              <g>
                <polygon class="cls-9" points="227.6 433.2 224 433.2 222 430.7 224 428.1 227.6 428.1 229.6 430.7 227.6 433.2"/>
                <polygon class="cls-3" points="224.7 431.8 223.8 430.7 224.7 429.5 226.9 429.5 227.8 430.7 226.9 431.8 224.7 431.8"/>
              </g>
            </g>
            <polygon class="cls-21" points="238.3 433.2 235.8 433.2 233.8 433.2 233.8 435.2 233.8 436.9 235.8 436.9 235.8 435.2 238.3 435.2 238.3 433.2"/>
            <polygon class="cls-21" points="225 433.2 222.4 433.2 220.5 433.2 220.5 435.2 220.5 436.9 222.4 436.9 222.4 435.2 225 435.2 225 433.2"/>
            <polygon class="cls-21" points="226.6 433.2 229.2 433.2 231.1 433.2 231.1 435.2 231.1 436.9 229.2 436.9 229.2 435.2 226.6 435.2 226.6 433.2"/>
            <polygon class="cls-21" points="253.6 433.2 256.1 433.2 258 433.2 258 435.2 258 436.9 256.1 436.9 256.1 435.2 253.6 435.2 253.6 433.2"/>
            <g>
              <rect class="cls-22" x="315.6" y="433.2" width="3" height="25" transform="translate(634.2 891.5) rotate(-180)"/>
              <rect class="cls-20" x="315.6" y="428.1" width="3" height="5.2" transform="translate(634.2 861.3) rotate(-180)"/>
            </g>
            <g>
              <rect class="cls-22" x="328.9" y="433.2" width="3" height="25" transform="translate(660.9 891.5) rotate(-180)"/>
              <rect class="cls-20" x="328.9" y="428.1" width="3" height="5.2" transform="translate(660.9 861.3) rotate(-180)"/>
            </g>
            <g>
              <rect class="cls-33" x="291.4" y="428.1" width="24.2" height="5.2" transform="translate(607 861.3) rotate(-180)"/>
              <polygon class="cls-9" points="294.7 433.2 312.3 433.2 314.3 430.7 312.3 428.1 294.7 428.1 292.7 430.7 294.7 433.2"/>
              <polygon class="cls-9" points="298.7 433.2 308.3 433.2 310.3 430.7 308.3 428.1 298.7 428.1 296.7 430.7 298.7 433.2"/>
              <polygon class="cls-3" points="307.6 431.8 308.5 430.7 307.6 429.5 299.4 429.5 298.5 430.7 299.4 431.8 307.6 431.8"/>
            </g>
            <g>
              <rect class="cls-33" x="318.5" y="428.1" width="10.4" height="5.2" transform="translate(647.5 861.3) rotate(-180)"/>
              <g>
                <polygon class="cls-9" points="321.8 433.2 325.4 433.2 327.4 430.7 325.4 428.1 321.8 428.1 319.8 430.7 321.8 433.2"/>
                <polygon class="cls-3" points="324.7 431.8 325.6 430.7 324.7 429.5 322.5 429.5 321.6 430.7 322.5 431.8 324.7 431.8"/>
              </g>
            </g>
            <polygon class="cls-21" points="311.1 433.2 313.7 433.2 315.6 433.2 315.6 435.2 315.6 436.9 313.7 436.9 313.7 435.2 311.1 435.2 311.1 433.2"/>
            <polygon class="cls-21" points="324.5 433.2 327 433.2 328.9 433.2 328.9 435.2 328.9 436.9 327 436.9 327 435.2 324.5 435.2 324.5 433.2"/>
            <polygon class="cls-21" points="322.8 433.2 320.3 433.2 318.3 433.2 318.3 435.2 318.3 436.9 320.3 436.9 320.3 435.2 322.8 435.2 322.8 433.2"/>
            <polygon class="cls-21" points="295.9 433.2 293.3 433.2 291.4 433.2 291.4 435.2 291.4 436.9 293.3 436.9 293.3 435.2 295.9 435.2 295.9 433.2"/>
            <g>
              <rect class="cls-33" x="261" y="428.1" width="27.4" height="5.2"/>
              <polygon class="cls-9" points="283.5 433.2 265.9 433.2 263.9 430.7 265.9 428.1 283.5 428.1 285.5 430.7 283.5 433.2"/>
              <polygon class="cls-9" points="279.5 433.2 269.9 433.2 267.9 430.7 269.9 428.1 279.5 428.1 281.5 430.7 279.5 433.2"/>
              <polygon class="cls-3" points="270.6 431.8 269.7 430.7 270.6 429.5 278.8 429.5 279.7 430.7 278.8 431.8 270.6 431.8"/>
            </g>
            <polygon class="cls-21" points="265.5 433.2 263 433.2 261 433.2 261 435.2 261 436.9 263 436.9 263 435.2 265.5 435.2 265.5 433.2"/>
            <polygon class="cls-21" points="283.9 433.2 286.5 433.2 288.4 433.2 288.4 435.2 288.4 436.9 286.5 436.9 286.5 435.2 283.9 435.2 283.9 433.2"/>
            <path class="cls-16" d="M283.8,478.8c-.2-.6-.9-1-1.7-1h-14.7c-.8,0-1.6.4-1.7,1-.7,2.2-.9,7.5-.9,13s1.3,12.1,1.3,12.1h17.5s1.3-4.9,1.3-12.1-.3-10.8-.9-13Z"/>
            <path class="cls-16" d="M310.3,478.8c-.2-.6-.9-1-1.7-1h-14.7c-.8,0-1.6.4-1.7,1-.7,2.2-.9,7.5-.9,13s1.3,12.1,1.3,12.1h17.5s1.3-4.9,1.3-12.1-.3-10.8-.9-13Z"/>
            <path class="cls-16" d="M239.2,478.8c.2-.6.9-1,1.7-1h7.3s7.3,0,7.3,0c.8,0,1.6.4,1.7,1,.7,2.2.9,7.5.9,13s-1.3,12.1-1.3,12.1h-8.8s-8.8,0-8.8,0c0,0-1.3-4.9-1.3-12.1s.3-10.8.9-13Z"/>
            <g>
              <rect class="cls-7" x="219" y="454.4" width="40.5" height="3.9"/>
              <path class="cls-7" d="M217.1,448.7h-1.9v-1.9h-8.1v11.4h11.9v-7.6h-1.9v-1.9ZM213.4,452.5h-3.7v-1.9h3.7v1.9Z"/>
              <path class="cls-7" d="M234.6,450.6v-1.9h-1.9v-1.9h-5.6v1.9h-1.9v1.9h-1.9v7.6h13.1v-7.6h-1.9ZM231.8,452.5h-3.7v-1.9h3.7v1.9Z"/>
              <path class="cls-7" d="M253,450.6v-1.9h-1.9v-1.9h-5.6v1.9h-1.9v1.9h-1.9v7.6h13.1v-7.6h-1.9ZM250.1,452.5h-3.7v-1.9h3.7v1.9Z"/>
            </g>
            <g>
              <rect class="cls-7" x="289.9" y="454.4" width="40.5" height="3.9" transform="translate(620.4 912.6) rotate(180)"/>
              <path class="cls-7" d="M332.3,450.6h-1.9v7.6h11.9v-11.4h-8.1v1.9s-1.9,0-1.9,0v1.9ZM336.1,450.6h1.9s1.9,0,1.9,0v1.9s-1.9,0-1.9,0h-1.9s0-1.9,0-1.9Z"/>
              <path class="cls-7" d="M312.9,450.6v7.6h6.6s6.6,0,6.6,0v-7.6h-1.9s0-1.9,0-1.9h-1.9s0-1.9,0-1.9h-2.8s-2.8,0-2.8,0v1.9s-1.9,0-1.9,0v1.9s-1.9,0-1.9,0ZM317.6,450.6h3.7s0,1.9,0,1.9h-3.7s0-1.9,0-1.9Z"/>
              <path class="cls-7" d="M294.6,450.6v7.6h6.6s6.6,0,6.6,0v-7.6h-1.9s0-1.9,0-1.9h-1.9s0-1.9,0-1.9h-2.8s-2.8,0-2.8,0v1.9s-1.9,0-1.9,0v1.9s-1.9,0-1.9,0ZM299.3,450.6h3.7s0,1.9,0,1.9h-3.7s0-1.9,0-1.9Z"/>
            </g>
          </g>
          <g>
            <path class="cls-26" d="M231.1,582.6c-.4,4.5-1.7,7.7-4.4,10.2l-1.2-1.1c1.7-2.8,2-6,2-12.4v-5h11.7c-.2-.6-.4-1.2-.7-1.8v.8h-3.1v-4.8h-4.6v4.9h-3.2v-6.6h10.9v3.7l.5-.3c.6.5,1.2,1.2,1.8,1.9v-5.3h10.9v6.6h-3.2v-4.9h-4.6v4.8h-2.3c0,.1.2.3.3.4l-1.2.6h12.4v1.8h-8v1.5h6.7v5h-20.5ZM239,565.7h-12.3v-1.8h12.3v1.8ZM240.5,588.3l.3,1.5c-3.3,1.2-7.1,2.1-10.5,2.6l-.7-3.2h2.2v-6h3.8v1.8h4.8v1.7h-4.8v2.1c1.7-.1,3.4-.3,4.9-.5ZM234.4,579.3h-3.2c0,.6,0,1.1,0,1.6h3.2v-1.6ZM231.2,576.1v1.5h3.2v-1.5h-3.2ZM234.8,572.6l-2.4.9c-.3-1.4-.7-2.7-1.1-4l1.1-.6c1,1,1.8,2.4,2.4,3.7ZM238.1,577.6h3v-1.5h-3v1.5ZM238.1,580.9h3v-1.6h-3v1.6ZM252.4,565.7h-12.3v-1.8h12.3v1.8ZM250.9,591.8c-2,.2-4,.2-6.4,0-2.7-.2-3.3-1.2-3.3-3.4v-5.2h3.6v2.6c1.4-.7,2.9-1.7,4.2-2.8l2.3,2.3c-1.7,1-4.3,1.8-6.5,2.2,0,.9.2,1.2,1.2,1.2,1.4,0,3.2,0,4.1,0,1.2,0,1.3-.4,1.2-3.2h1.5c1.2,5,.3,6-2.1,6.1ZM244.3,569.6l1.1-.7c1.1,1.1,1.9,2.2,2.6,3.7l-2.4,1c-.3-1.4-.8-2.8-1.3-4ZM244.9,580.9h3v-1.6h-3v1.6Z"/>
            <path class="cls-26" d="M288.7,589.2v2.3h-28.1v-2.3h4.3v-16.1h4.1v16.1h4.8v-22.1h-11.8v-2.2h25.7v2.2h-9.6v9.2h8.2v2.1h-8.2v10.8h10.6Z"/>
            <path class="cls-26" d="M297.3,564.2h11.6v11.9h-7.6v16.4h-4v-28.3ZM305.1,569.1v-2.9h-3.7v2.9h3.7ZM305.1,574.1v-3.1h-3.7v3.1h3.7ZM313.5,589.1c4.4.8,5.1.4,5.1-1.6v-11.5h-7.5v-11.9h11.5v24.4c0,4.6-3.8,5.4-9.5,2.2l.4-1.6ZM318.6,569.1v-2.9h-3.7v2.9h3.7ZM318.6,574.1v-3.1h-3.7v3.1h3.7Z"/>
          </g>
          <line class="cls-12" x1="181.3" y1="518.5" x2="368.1" y2="518.5"/>
          <g>
            <path class="cls-24" d="M265.6,538v2h6.1v9.8c0,1.8-1.9,2.2-4.5.8l.2-.6c2.4.4,2.7.3,2.7-.7v-8.5h-10.5v10.7h-1.6v-11.5h5.9v-2h-7v-.8h7v-2.3h1.7v2.3h7.1v.8h-7.1ZM269.6,547.3h-4v3.6h-1.6v-3.6h-3.9v-.8h3.9v-1.8h-3.6v-.8h2.4c-.4-.9-1-1.8-1.5-2.6l.5-.4c.8.6,1.7,1.5,2.4,2.4l-.9.6h2c.4-.8,1-2.1,1.3-3.1l1.6.8c-.7,1-1.5,1.7-2,2.3h3.1v.8h-3.7v1.8h4v.8Z"/>
            <path class="cls-24" d="M277.7,535.5h6.2v6.6h-4.6v9.3h-1.6v-15.9ZM282.3,538.3v-2h-3v2h3ZM282.3,541.3v-2.2h-3v2.2h3ZM286.8,549.7c2.7.6,3.3.4,3.3-.8v-6.8h-4.6v-6.6h6.2v13.8c0,2.2-1.6,3.1-5.1,1l.2-.6ZM290.1,538.3v-2h-3v2h3ZM290.1,541.3v-2.2h-3v2.2h3Z"/>
          </g>
        </g>
        <g>
          <g>
            <g>
              <circle class="cls-30" cx="627.3" cy="411.2" r="1.7"/>
              <circle class="cls-30" cx="642.5" cy="407.2" r="1.3"/>
              <circle class="cls-30" cx="632.1" cy="411.2" r=".9"/>
              <circle class="cls-30" cx="635.6" cy="410.3" r=".9"/>
              <circle class="cls-30" cx="638.9" cy="409.4" r=".9"/>
              <circle class="cls-30" cx="524.1" cy="411.2" r="1.8"/>
              <circle class="cls-30" cx="508.8" cy="407.2" r="1.3"/>
              <circle class="cls-30" cx="519.2" cy="411.2" r=".9"/>
              <circle class="cls-30" cx="515.8" cy="410.3" r=".9"/>
              <circle class="cls-30" cx="512.5" cy="409.4" r=".9"/>
              <path class="cls-15" d="M575.7,422.3c-40.6,0-65.4-7.2-65.4-7.2,0,0,14,15,25.3,19.4h40.1s40.1,0,40.1,0c11.3-4.4,25.3-19.4,25.3-19.4,0,0-24.9,7.2-65.4,7.2Z"/>
              <path class="cls-31" d="M509.6,415.5s.5.3,1.4.7c.9.4,2.3,1,4.1,1.5.9.3,1.9.6,3,.9,1.1.2,2.2.6,3.5.8,1.3.3,2.6.6,4,.8.7.1,1.4.2,2.2.4.7.1,1.5.2,2.3.3,1.5.2,3.2.4,4.8.6,1.7.2,3.4.3,5.2.5,1.8.2,3.6.2,5.5.3.9,0,1.9,0,2.8.1,1,0,1.9,0,2.9,0,3.9.2,7.9,0,12,0,4.1,0,8.3,0,12.4,0,4.2,0,8.3,0,12.4,0,4.1,0,8.1,0,12,0,1,0,1.9,0,2.9,0,1,0,1.9,0,2.8-.1,1.9,0,3.7-.2,5.5-.3,1.8-.1,3.5-.3,5.2-.5,1.7-.2,3.3-.3,4.8-.6.8-.1,1.5-.2,2.3-.3.7-.1,1.5-.3,2.2-.4,1.4-.2,2.7-.5,4-.8,1.3-.2,2.4-.6,3.5-.8,1.1-.3,2.1-.6,3-.9,1.8-.6,3.2-1.1,4.1-1.5.9-.4,1.4-.7,1.4-.7,0,0-.5.4-1.4,1-.9.6-2.3,1.4-4,2.2-.9.4-1.9.8-2.9,1.3-1.1.4-2.2.9-3.5,1.2-1.2.4-2.6.8-4,1.2-.7.2-1.4.4-2.2.6-.7.2-1.5.3-2.3.5-1.6.4-3.2.7-4.9,1-1.7.3-3.4.6-5.2.8-1.8.3-3.6.5-5.5.7-1.9.2-3.8.3-5.8.5-2,.1-4,.3-6,.3-2,0-4,.1-6.1.1-4.1,0-8.3,0-12.4,0-4.2,0-8.3,0-12.4,0-2,0-4.1,0-6.1-.1-2,0-4-.2-6-.3-1,0-1.9-.1-2.9-.2-1,0-1.9-.2-2.9-.3-1.9-.2-3.7-.4-5.5-.7-1.8-.3-3.5-.5-5.2-.8-1.7-.3-3.3-.6-4.9-1-.8-.2-1.5-.3-2.3-.5-.7-.2-1.5-.4-2.2-.6-1.4-.4-2.7-.8-4-1.2-1.3-.4-2.4-.8-3.5-1.2-1.1-.5-2-.8-2.9-1.3-1.8-.8-3.1-1.6-4-2.2-.9-.6-1.4-1-1.4-1Z"/>
              <path class="cls-2" d="M575.7,409.9h-28c-10,5.7-19.2,7.7-43.2-1.3,0,0,4.6,16.2,44.5,16.2h26.7s26.7,0,26.7,0c39.9,0,44.5-16.2,44.5-16.2-24,9.1-33.1,7-43.2,1.3h-28"/>
              <polygon class="cls-2" points="602 399.9 575.7 399.9 549.4 399.9 544.3 422.5 575.7 422.5 607.1 422.5 602 399.9"/>
              <polyline class="cls-10" points="575.7 424.7 575.7 424.7 575.7 424.7 575.7 424.7"/>
              <path class="cls-37" d="M644.9,409.1c-10,7.4-35.1,7.9-43.4,1.8v-1.5c6.3,3.9,30.7,7.5,43.7-2.4l-.3,2.2Z"/>
              <path class="cls-37" d="M506.5,409.1c10,7.4,35.1,7.9,43.4,1.8v-1.5c-6.3,3.9-30.7,7.5-43.7-2.4l.3,2.2Z"/>
              <g>
                <polygon class="cls-5" points="603.2 412.2 603.6 417.6 600.8 417.6 598.7 400.8 598.7 397.4 599.6 397.4 603.2 412.2"/>
                <polygon class="cls-37" points="603.2 412.2 603.6 417.6 600.8 417.6 601.8 412.2 603.2 412.2"/>
                <polygon class="cls-4" points="598.7 397.4 601.8 412.2 600.8 417.6 598.7 400.8 598.7 397.4"/>
              </g>
              <g>
                <polygon class="cls-5" points="548.2 412.2 547.8 417.6 550.5 417.6 552.7 400.8 552.7 397.4 551.7 397.4 548.2 412.2"/>
                <polygon class="cls-37" points="548.2 412.2 547.8 417.6 550.5 417.6 549.6 412.2 548.2 412.2"/>
                <polygon class="cls-4" points="552.7 397.4 549.6 412.2 550.5 417.6 552.7 400.8 552.7 397.4"/>
              </g>
              <polygon class="cls-37" points="575.7 397 552.5 397 552.5 400.2 575.7 400.2 598.8 400.2 598.8 397 575.7 397"/>
              <polygon class="cls-4" points="575.7 398.3 552.5 398.3 552.5 399 575.7 399 598.8 399 598.8 398.3 575.7 398.3"/>
              <path class="cls-30" d="M595.9,394.7h-2s-2-1.5-2-5,.7-2.4,2-2.4,2.1,1,2.1,2-.5,1.5-1,1.7c0,0,.7,1.8,2.2,1.8,1.5,0,0-4.1,1.7-4.1s1,1.6,1,2.4.8,2.3.8,3.7-1.5,3.1-1.5,4.5c0,0-1-1.5-3-1.5s-2-1.2-2-1.2c0,0,1.6.2,1.6-1.8Z"/>
              <path class="cls-30" d="M555.4,394.7h2s2-1.5,2-5-.7-2.4-2-2.4-2.1,1-2.1,2,.5,1.5,1,1.7c0,0-.7,1.8-2.2,1.8s0-4.1-1.7-4.1-1,1.6-1,2.4-.8,2.3-.8,3.7,1.5,3.1,1.5,4.5c0,0,1-1.5,3-1.5s2-1.2,2-1.2c0,0-1.6.2-1.6-1.8Z"/>
            </g>
            <g>
              <rect class="cls-25" x="533.7" y="430.5" width="84" height="31.4"/>
              <rect class="cls-27" x="568.8" y="439" width="13.8" height="22.9"/>
              <rect class="cls-22" x="589.3" y="433.3" width="3" height="25" transform="translate(1181.7 891.6) rotate(180)"/>
              <rect class="cls-20" x="589.3" y="428.2" width="3" height="5.2" transform="translate(1181.7 861.5) rotate(180)"/>
              <g>
                <rect class="cls-22" x="603" y="433.3" width="3" height="25" transform="translate(1208.9 891.6) rotate(-180)"/>
                <rect class="cls-20" x="603" y="428.2" width="3" height="5.2" transform="translate(1208.9 861.5) rotate(-180)"/>
              </g>
              <g>
                <rect class="cls-22" x="616.3" y="433.3" width="3" height="25" transform="translate(1235.6 891.6) rotate(-180)"/>
                <rect class="cls-20" x="616.3" y="428.2" width="3" height="5.2" transform="translate(1235.6 861.5) rotate(-180)"/>
              </g>
              <g>
                <rect class="cls-33" x="605.9" y="428.2" width="10.4" height="5.2" transform="translate(1222.2 861.5) rotate(-180)"/>
                <g>
                  <polygon class="cls-9" points="609.2 433.3 612.8 433.3 614.8 430.7 612.8 428.2 609.2 428.2 607.2 430.7 609.2 433.3"/>
                  <polygon class="cls-3" points="612.1 431.9 613 430.7 612.1 429.6 609.9 429.6 609 430.7 609.9 431.9 612.1 431.9"/>
                </g>
              </g>
              <polygon class="cls-21" points="611.8 433.3 614.4 433.3 616.3 433.3 616.3 435.3 616.3 437 614.4 437 614.4 435.3 611.8 435.3 611.8 433.3"/>
              <polygon class="cls-21" points="610.2 433.3 607.6 433.3 606 433.3 606 437 607.6 437 607.6 435.3 610.2 435.3 610.2 433.3"/>
              <g>
                <rect class="cls-33" x="592.5" y="428.2" width="10.4" height="5.2" transform="translate(1195.5 861.5) rotate(-180)"/>
                <g>
                  <polygon class="cls-9" points="595.9 433.3 599.4 433.3 601.4 430.7 599.4 428.2 595.9 428.2 593.9 430.7 595.9 433.3"/>
                  <polygon class="cls-3" points="598.8 431.9 599.7 430.7 598.8 429.6 596.6 429.6 595.7 430.7 596.6 431.9 598.8 431.9"/>
                </g>
              </g>
              <polygon class="cls-21" points="598.5 433.3 601 433.3 603 433.3 603 435.3 603 437 601 437 601 435.3 598.5 435.3 598.5 433.3"/>
              <polygon class="cls-21" points="596.8 433.3 594.3 433.3 592.5 433.3 592.5 437 594.3 437 594.3 435.3 596.8 435.3 596.8 433.3"/>
              <rect class="cls-22" x="559" y="433.3" width="3" height="25"/>
              <rect class="cls-20" x="559" y="428.2" width="3" height="5.2"/>
              <g>
                <rect class="cls-22" x="545.4" y="433.3" width="3" height="25"/>
                <rect class="cls-20" x="545.4" y="428.2" width="3" height="5.2"/>
              </g>
              <g>
                <rect class="cls-22" x="532" y="433.3" width="3" height="25"/>
                <rect class="cls-20" x="532" y="428.2" width="3" height="5.2"/>
              </g>
              <g>
                <rect class="cls-33" x="535" y="428.2" width="10.4" height="5.2"/>
                <g>
                  <polygon class="cls-9" points="542.1 433.3 538.6 433.3 536.6 430.7 538.6 428.2 542.1 428.2 544.1 430.7 542.1 433.3"/>
                  <polygon class="cls-3" points="539.2 431.9 538.3 430.7 539.2 429.6 541.4 429.6 542.3 430.7 541.4 431.9 539.2 431.9"/>
                </g>
              </g>
              <polygon class="cls-21" points="539.5 433.3 537 433.3 535 433.3 535 435.3 535 437 537 437 537 435.3 539.5 435.3 539.5 433.3"/>
              <polygon class="cls-21" points="541.2 433.3 543.7 433.3 545.4 433.3 545.4 437 543.7 437 543.7 435.3 541.2 435.3 541.2 433.3"/>
              <g>
                <rect class="cls-33" x="548.4" y="428.2" width="10.4" height="5.2"/>
                <g>
                  <polygon class="cls-9" points="555.5 433.3 551.9 433.3 549.9 430.7 551.9 428.2 555.5 428.2 557.5 430.7 555.5 433.3"/>
                  <polygon class="cls-3" points="552.6 431.9 551.7 430.7 552.6 429.6 554.8 429.6 555.7 430.7 554.8 431.9 552.6 431.9"/>
                </g>
              </g>
              <polygon class="cls-21" points="552.9 433.3 550.3 433.3 548.4 433.3 548.4 435.3 548.4 437 550.3 437 550.3 435.3 552.9 435.3 552.9 433.3"/>
              <polygon class="cls-21" points="554.5 433.3 557.1 433.3 558.8 433.3 558.8 437 557.1 437 557.1 435.3 554.5 435.3 554.5 433.3"/>
              <g>
                <rect class="cls-33" x="562" y="428.2" width="27.4" height="5.2"/>
                <polygon class="cls-9" points="584.5 433.3 566.9 433.3 564.9 430.7 566.9 428.2 584.5 428.2 586.5 430.7 584.5 433.3"/>
                <polygon class="cls-9" points="580.5 433.3 570.9 433.3 568.9 430.7 570.9 428.2 580.5 428.2 582.5 430.7 580.5 433.3"/>
                <polygon class="cls-3" points="571.6 431.9 570.7 430.7 571.6 429.6 579.8 429.6 580.7 430.7 579.8 431.9 571.6 431.9"/>
              </g>
              <polygon class="cls-21" points="566.5 433.3 563.9 433.3 562 433.3 562 435.3 562 437 563.9 437 563.9 435.3 566.5 435.3 566.5 433.3"/>
              <polygon class="cls-21" points="584.9 433.3 587.4 433.3 589.4 433.3 589.4 435.3 589.4 437 587.4 437 587.4 435.3 584.9 435.3 584.9 433.3"/>
            </g>
            <g>
              <rect class="cls-7" x="576.9" y="454.4" width="40.5" height="3.9" transform="translate(1194.3 912.8) rotate(180)"/>
              <path class="cls-7" d="M619.3,450.7h-1.9v7.6h11.9v-11.4h-8.1v1.9s-1.9,0-1.9,0v1.9ZM623,450.7h1.9s1.9,0,1.9,0v1.9s-1.9,0-1.9,0h-1.9s0-1.9,0-1.9Z"/>
              <path class="cls-7" d="M601.9,450.7v7.6h6.6s6.6,0,6.6,0v-7.6h-1.9s0-1.9,0-1.9h-1.9s0-1.9,0-1.9h-2.8s-2.8,0-2.8,0v1.9s-1.9,0-1.9,0v1.9s-1.9,0-1.9,0ZM606.6,450.7h3.7s0,1.9,0,1.9h-3.7s0-1.9,0-1.9Z"/>
              <path class="cls-7" d="M585.6,450.7v7.6h6.6s6.6,0,6.6,0v-7.6h-1.9s0-1.9,0-1.9h-1.9s0-1.9,0-1.9h-2.8s-2.8,0-2.8,0v1.9s-1.9,0-1.9,0v1.9s-1.9,0-1.9,0ZM590.3,450.7h3.7s0,1.9,0,1.9h-3.7s0-1.9,0-1.9Z"/>
            </g>
            <g>
              <rect class="cls-7" x="534" y="454.4" width="40.5" height="3.9"/>
              <path class="cls-7" d="M532.1,448.8h-1.9v-1.9s-8.1,0-8.1,0v11.4s11.9,0,11.9,0v-7.6s-1.9,0-1.9,0v-1.9ZM528.3,452.6h-1.9s-1.9,0-1.9,0v-1.9h1.9s1.9,0,1.9,0v1.9Z"/>
              <path class="cls-7" d="M547.6,450.7v-1.9s-1.9,0-1.9,0v-1.9s-2.8,0-2.8,0h-2.8s0,1.9,0,1.9h-1.9s0,1.9,0,1.9h-1.9s0,7.6,0,7.6h6.6s6.6,0,6.6,0v-7.6s-1.9,0-1.9,0ZM544.7,452.6h-3.7v-1.9h3.7v1.9Z"/>
              <path class="cls-7" d="M563.9,450.7v-1.9s-1.9,0-1.9,0v-1.9s-2.8,0-2.8,0h-2.8s0,1.9,0,1.9h-1.9s0,1.9,0,1.9h-1.9s0,7.6,0,7.6h6.6s6.6,0,6.6,0v-7.6s-1.9,0-1.9,0ZM561.1,452.6h-3.7v-1.9h3.7v1.9Z"/>
            </g>
            <g>
              <rect class="cls-14" x="521.8" y="462.2" width="107.7" height="41.6"/>
              <rect class="cls-23" x="521.8" y="462.2" width="107.7" height="3.1"/>
              <rect class="cls-19" x="519.7" y="458.3" width="111.9" height="3.9"/>
              <path class="cls-18" d="M575.7,467.5c-9.7,0-17.6,7.9-17.6,17.6v18.7h35.1v-18.7c0-9.7-7.9-17.6-17.6-17.6Z"/>
              <path class="cls-27" d="M575.7,470.9c-7.8,0-14.2,6.3-14.2,14.2v18.7h28.3v-18.7c0-7.8-6.3-14.2-14.2-14.2Z"/>
              <path class="cls-16" d="M595.8,503.8h8.7c1.9-1.4,3.2-2.6,3.2-5.2,0-4.2-2.5-7.1-7.6-7.1s-7.6,2.9-7.6,7.1,1.3,3.8,3.2,5.2Z"/>
              <path class="cls-16" d="M555.5,503.8h-8.7c-1.9-1.4-3.2-2.6-3.2-5.2,0-4.2,2.5-7.1,7.6-7.1,5,0,7.6,2.9,7.6,7.1,0,2.6-1.3,3.8-3.2,5.2Z"/>
            </g>
            <g>
              <rect class="cls-7" x="562.3" y="446.1" width="26.8" height="12.4"/>
              <rect class="cls-34" x="563.1" y="446.9" width="25.1" height="9.8"/>
              <rect class="cls-36" x="565.7" y="448.9" width="20" height="5.9"/>
            </g>
          </g>
          <g>
            <path class="cls-26" d="M554.5,589.5v2h-28.1v-2h12v-2.3h-9.7v-2h9.7v-2.1h-8.5v-10.4h8.5v-2h-11.4v-2h11.4v-1.8c-3.4.1-6.6.2-9.1,0l-.2-1.7c6.3-.3,13.8-1.2,19.5-2.9l3.1,3.2c-2.5.5-5.8.9-9.2,1.1v2h11.6v2h-11.6v2h8.6v10.4h-8.6v2.1h9.8v2h-9.8v2.3h12ZM538.4,574.8h-4.5v2.2h4.5v-2.2ZM538.4,578.9h-4.5v2.3h4.5v-2.3ZM542.5,574.8v2.2h4.6v-2.2h-4.6ZM547.1,578.9h-4.6v2.3h4.6v-2.3Z"/>
            <path class="cls-26" d="M566.3,584.5l1.6.6c-.5,3.1-2,6.1-3.5,8l-3.3-2.9c1.9-1.4,4-3.3,5.1-5.7ZM566.6,584.4h-3.6v-20.3h13.8v1.9h-3.3v3.7h2.5v7.5h-2.4v3.7h3.9v1.9h-10.8v1.6ZM566.6,566v14.9h3.5v-3.7h-2.5v-7.5h2.4v-3.7h-3.4ZM571.7,584.3c1.3,2,2.8,5.6,3.4,7.6l-4.1.9c-.2-2.3-.6-5.8-.9-8l1.6-.5ZM570.4,575.4h2.4v-4.1h-2.4v4.1ZM577.9,584c1.7,1.8,3.9,5,4.8,7l-3.9,1.5c-.5-2.3-1.5-5.6-2.3-7.8l1.4-.8ZM577.5,578.6v-14.5h10.6v9.7h-6.9v3.6c0,1.6.2,1.9,1.6,2,1.2,0,2.1,0,3.4,0,1.3,0,1.5-.4,1.4-4.1h1.6c1.6,6,.5,7.3-2.3,7.5-2.1.2-3.5.2-5.5,0-3.2-.2-3.9-.7-3.9-4.1ZM581.2,571.9h3.3v-5.9h-3.3v5.9ZM590.2,590.3l-3.6,2.3c-.7-2.1-2.1-5.4-3.3-7.6l1.3-.9c2,1.6,4.4,4.4,5.6,6.3Z"/>
            <path class="cls-26" d="M598.3,564.2h11.6v11.9h-7.6v16.4h-4v-28.3ZM606,569.1v-2.9h-3.7v2.9h3.7ZM606,574.1v-3.1h-3.7v3.1h3.7ZM614.5,589.1c4.4.8,5.1.4,5.1-1.6v-11.5h-7.5v-11.9h11.5v24.4c0,4.6-3.8,5.4-9.5,2.2l.4-1.6ZM619.6,569.1v-2.9h-3.7v2.9h3.7ZM619.6,574.1v-3.1h-3.7v3.1h3.7Z"/>
          </g>
          <g>
            <path class="cls-24" d="M547.8,547.7c1.6-2.4,2.7-5.6,3.3-8.7l2,.6c-1,3.2-2.6,6.3-4.8,8.6l-.5-.5ZM551.5,549.9c3.2.4,3.7.3,3.7-1v-14.1h1.7v14.6c0,2.1-1.5,2.9-5.5,1.2v-.7ZM558.7,539.3l.6-.4c1.8,2.1,3.9,5.4,5,7.7l-2.1,1c-.8-2.4-2.2-5.9-3.5-8.2Z"/>
            <path class="cls-24" d="M576.5,538v2h6.1v9.8c0,1.8-1.9,2.2-4.5.8l.2-.6c2.4.4,2.7.3,2.7-.7v-8.5h-10.5v10.7h-1.6v-11.5h5.9v-2h-7v-.8h7v-2.3h1.7v2.3h7.1v.8h-7.1ZM580.5,547.3h-4v3.6h-1.6v-3.6h-3.9v-.8h3.9v-1.8h-3.6v-.8h2.4c-.4-.9-1-1.8-1.5-2.6l.5-.4c.8.6,1.7,1.5,2.4,2.4l-.9.6h2c.4-.8,1-2.1,1.3-3.1l1.6.8c-.7,1-1.5,1.7-2,2.3h3.1v.8h-3.7v1.8h4v.8Z"/>
            <path class="cls-24" d="M588.5,535.5h6.2v6.6h-4.6v9.3h-1.6v-15.9ZM593.2,538.3v-2h-3v2h3ZM593.2,541.3v-2.2h-3v2.2h3ZM597.6,549.7c2.7.6,3.3.4,3.3-.8v-6.8h-4.6v-6.6h6.2v13.8c0,2.2-1.6,3.1-5.1,1l.2-.6ZM600.9,538.3v-2h-3v2h3ZM600.9,541.3v-2.2h-3v2.2h3Z"/>
          </g>
          <line class="cls-12" x1="482.3" y1="518.5" x2="669.1" y2="518.5"/>
          <g>
            <rect class="cls-8" x="551.9" y="495" width="47.5" height="2.2"/>
            <rect class="cls-24" x="558.1" y="492.7" width="35.2" height="2.2"/>
            <rect class="cls-18" x="553" y="497.2" width="45.3" height="2.2"/>
            <rect class="cls-24" x="551.8" y="499.5" width="47.8" height="4.3"/>
            <g>
              <path class="cls-16" d="M570.3,490.9c0,1.9-2.9,2.3-6.4,2.3s-6.4-.5-6.4-2.3,1.8-6.2,6.4-6.2,6.4,4.3,6.4,6.2Z"/>
              <path class="cls-16" d="M575,490.9c0,1.9-2.9,2.3-6.4,2.3s-6.4-.5-6.4-2.3,1.8-6.2,6.4-6.2,6.4,4.3,6.4,6.2Z"/>
              <path class="cls-16" d="M579.7,490.9c0,1.9-2.9,2.3-6.4,2.3s-6.4-.5-6.4-2.3,1.8-6.2,6.4-6.2,6.4,4.3,6.4,6.2Z"/>
              <path class="cls-16" d="M584.5,490.9c0,1.9-2.9,2.3-6.4,2.3s-6.4-.5-6.4-2.3,1.8-6.2,6.4-6.2,6.4,4.3,6.4,6.2Z"/>
              <path class="cls-16" d="M589.2,490.9c0,1.9-2.9,2.3-6.4,2.3s-6.4-.5-6.4-2.3,1.8-6.2,6.4-6.2,6.4,4.3,6.4,6.2Z"/>
              <path class="cls-16" d="M593.9,490.9c0,1.9-2.9,2.3-6.4,2.3s-6.4-.5-6.4-2.3,1.8-6.2,6.4-6.2,6.4,4.3,6.4,6.2Z"/>
            </g>
          </g>
          <g>
            <rect class="cls-8" x="551.9" y="495" width="47.5" height="2.2" transform="translate(1151.3 992.2) rotate(-180)"/>
            <rect class="cls-24" x="558.1" y="492.7" width="35.2" height="2.2" transform="translate(1151.3 987.7) rotate(-180)"/>
            <rect class="cls-18" x="553" y="497.2" width="45.3" height="2.2" transform="translate(1151.3 996.7) rotate(-180)"/>
            <rect class="cls-24" x="551.8" y="499.5" width="47.8" height="4.3" transform="translate(1151.3 1003.3) rotate(-180)"/>
            <g>
              <path class="cls-16" d="M581.1,490.9c0,1.9,2.9,2.3,6.4,2.3,3.5,0,6.4-.5,6.4-2.3s-1.8-6.2-6.4-6.2-6.4,4.3-6.4,6.2Z"/>
              <path class="cls-16" d="M576.4,490.9c0,1.9,2.9,2.3,6.4,2.3s6.4-.5,6.4-2.3-1.8-6.2-6.4-6.2-6.4,4.3-6.4,6.2Z"/>
              <path class="cls-16" d="M571.6,490.9c0,1.9,2.9,2.3,6.4,2.3,3.5,0,6.4-.5,6.4-2.3s-1.8-6.2-6.4-6.2c-4.6,0-6.4,4.3-6.4,6.2Z"/>
              <path class="cls-16" d="M566.9,490.9c0,1.9,2.9,2.3,6.4,2.3,3.5,0,6.4-.5,6.4-2.3s-1.8-6.2-6.4-6.2-6.4,4.3-6.4,6.2Z"/>
              <path class="cls-16" d="M562.2,490.9c0,1.9,2.9,2.3,6.4,2.3,3.5,0,6.4-.5,6.4-2.3s-1.8-6.2-6.4-6.2-6.4,4.3-6.4,6.2Z"/>
              <path class="cls-16" d="M557.4,490.9c0,1.9,2.9,2.3,6.4,2.3,3.5,0,6.4-.5,6.4-2.3s-1.8-6.2-6.4-6.2c-4.6,0-6.4,4.3-6.4,6.2Z"/>
            </g>
          </g>
        </g>
      </g>
    </g>
  </g>
</svg>