<?xml version="1.0" encoding="UTF-8"?>
<svg xmlns="http://www.w3.org/2000/svg" version="1.1" viewBox="0 0 720 600">
  <defs>
    <style>
      .cls-1, .cls-2, .cls-3, .cls-4, .cls-5, .cls-6, .cls-7, .cls-8, .cls-9, .cls-10, .cls-11, .cls-12, .cls-13, .cls-14, .cls-15, .cls-16, .cls-17, .cls-18, .cls-19 {
        stroke: #000;
      }

      .cls-1, .cls-2, .cls-3, .cls-4, .cls-6, .cls-9, .cls-10, .cls-11, .cls-12, .cls-13, .cls-14, .cls-15, .cls-16, .cls-17, .cls-18, .cls-19 {
        stroke-miterlimit: 10;
      }

      .cls-1, .cls-10, .cls-19 {
        fill: #f9bb3d;
      }

      .cls-20, .cls-5, .cls-6, .cls-8, .cls-15, .cls-18 {
        fill: #fff;
      }

      .cls-3, .cls-4 {
        fill: #434848;
      }

      .cls-3, .cls-5, .cls-7, .cls-8, .cls-9, .cls-12, .cls-13, .cls-14, .cls-15, .cls-18 {
        stroke-linecap: round;
      }

      .cls-4, .cls-12, .cls-16, .cls-19 {
        stroke-width: 3px;
      }

      .cls-5, .cls-7, .cls-8 {
        stroke-linejoin: round;
      }

      .cls-6, .cls-8, .cls-10, .cls-17, .cls-18 {
        stroke-width: 2px;
      }

      .cls-7, .cls-11, .cls-14 {
        fill: none;
      }

      .cls-9, .cls-16, .cls-17, .cls-21 {
        fill: #ccc;
      }

      .cls-11 {
        stroke-width: 6px;
      }

      .cls-12 {
        fill: #87ccc0;
      }

      .cls-22 {
        fill: #333;
      }

      .cls-13 {
        fill: #53b2a7;
      }

      .cls-23 {
        fill: #999;
      }
    </style>
  </defs>
  <!-- Generator: Adobe Illustrator 28.7.4, SVG Export Plug-In . SVG Version: 1.2.0 Build 166)  -->
  <g>
    <g id="Layer_1">
      <rect class="cls-20" width="720" height="600"/>
      <g>
        <rect class="cls-19" x="77.5" y="76.2" width="564.9" height="447.5"/>
        <g>
          <path d="M163.6,102.6v57.6h-8.5v-1.5h-39.2v2h-7.9v-58h55.6ZM116,152h39.2v-42.6h-39.2v42.6ZM151.2,110.9v11.1h-11.2v1.4h14v5h-36.9v-5h14.3v-1.4h-10.6v-11.1h30.5ZM152.8,129.7v20.7h-34v-20.7h34ZM126,146h19.5v-12.2h-19.5v12.2ZM143.8,135.4v8.9h-16.3v-8.9h16.3ZM128.3,115.9v1.6h14.8v-1.6h-14.8ZM132.9,138.7v1.9h5.1v-1.9h-5.1Z"/>
          <path d="M180.4,145.8c-1.3,7.6-2,10.5-5.2,15.5-1.7-2.6-3.9-4.9-6.2-6.8,3.1-5.4,4-11.2,4.2-15.5.1-1.8.1-4,.1-13.4-1.1-2.6-2.9-5.2-4.2-7.1,3.1-4.3,6.1-8.7,9.7-17.5l8.4,2c-.4,1-.9,1.9-1.5,3.1h5.8l.6-.4,4.5,4.6c-.7,1.2-3.8,6-4.4,7h6.9v1.5c3.5-2.4,4.9-4.5,5.8-7.5h-5.3v-7.7h27.6c0,6.5-.3,9.1-.4,10.9-.5,6.3-.6,7.9-7.7,9.1v5.5h7.5v7.4h-7.5v4h9.7v7.4h-9.7v12.4h-8.9v-12.4h-9.9v-7.4h9.9v-4h-4l-1.7,2.8c-2-1.5-3.8-2.6-5.5-3.5v18.4c0,3.8-1.9,6.3-10.6,6.3-.3-2.5-1.1-5.1-2.2-7.2h4.5c.6,0,.9-.3.9-1v-6.4h-11.4ZM182,113.3c-.7,1.3-1.6,2.8-2.4,3.9h4.4c.7-1.2,1.7-2.8,2.3-3.9h-4.3ZM180.6,127.9h2.4v-3.5h-2.4v3.5ZM180.6,138.3h2.4v-3.4h-2.4v3.4ZM189.2,127.9h2.6v-3.5h-2.6v3.5ZM189.2,134.9v3.4h2.6v-3.4h-2.6ZM201.8,125.6c-.8-1.5-1.7-2.9-2.7-4.3v12.5c1.4-2.6,2.8-5.7,3.7-8.6l-1,.4ZM212.9,111.2c-.6,3.1-1.9,9-8.1,12.7l5.5,1.5v-1.9h6c-.5-2.4-1.5-5.2-2.5-7.6h3.6c.6,0,.8-.3.9-.6.3-.8.5-2.2.5-4.2h-6ZM210.2,126.1l-1,2.9h1v-2.9Z"/>
          <path d="M253.2,119.4c2.3,5.5,5.2,11.1,10.3,17.2,5.4-5.8,9.1-12.7,11.3-17.4l9,4.2c-4.9,10.1-10.1,15.9-13,19.2,3.8,2.5,9.8,6.5,23.7,9.7-2,2.4-4,5.4-4.9,8.4-15.4-4.2-22.5-9.3-25.7-11.8-4.5,3.3-6.9,4.7-11.1,6.6-3.6,1.7-7.4,3.2-13.1,5.1-1.3-3.3-3.1-6.1-5.2-8.6,6.7-1.9,14.1-4,22-9.4-3.3-3.8-7.4-8.6-12.4-19.6l9-3.6ZM258.8,101.9v3.8h10.1v-3.8h9.8v3.8h13v8.7h-13v4h-9.8v-4h-10.1v4h-9.5v-4h-13.1v-8.7h13.1v-3.8h9.5Z"/>
          <path d="M352,103.1v6.4h-20v1.7h23.9v13.1h-8.3v-7.2h-15.7v13h-8.9v-13h-15.4v7.4h-7.7v-13.4h23.1v-1.7h-18.5v-6.4h47.4ZM352,132.3v27.5h-9.2v-1.8h-29.6v2.3h-9v-28h47.8ZM321.4,125.6v4.7h-12.6v-4.7h12.6ZM321.4,119v4.7h-12v-4.7h12ZM313.2,142.2h10.4v-2.9h-10.4v2.9ZM313.2,148.2v3.1h10.4v-3.1h-10.4ZM332,142.2h10.8v-2.9h-10.8v2.9ZM332,148.2v3.1h10.8v-3.1h-10.8ZM346.2,118.9v4.8h-12v-4.8h12ZM347.7,125.6v4.6h-13.5v-4.6h13.5Z"/>
          <path d="M396,101.7c-.6,1.2-1.2,2.6-1.7,3.8h17.5v21.7h-33.2v1.7h41.7v6.3h-41.7v1.7h40.1c-.8,13.1-.9,14.1-1.7,18.3-.5,3.1-.9,5-10.9,5.4-.4-2-.8-4.1-1.9-6v2.9h-8.6v-1.7h-23.2v2.8h-8.4v-14.5h8.4v4.5h7.7v-5.6h-10v-37.6h14.7c.5-1.7,1-3.4,1.5-5.1l9.7,1.3ZM378.6,111.7v1.9h24.1v-1.9h-24.1ZM378.6,121.1h24.1v-2h-24.1v2ZM388.8,143v5.6h6.9v-4.5h8.6v9h2.8c.3,0,.6,0,.8,0,.4,0,.5,0,.6-.2.7-.6.9-6.8,1-10h-20.7Z"/>
          <path d="M437.7,116.7c0,19.5,0,30.9-6.6,43.1-1.7-2.6-4-5.1-6.5-7,4.8-10.2,4.8-14.5,4.8-43.8h31.9v-7.2h9v2.3l3.1-3.5c2.9,1.8,6.2,4.3,8.8,6.5l-1.7,1.8h3v7.7h-13.1c0,1.5,0,9.1,1.3,16.8,1.5-3.7,2.4-7.7,3.3-11.6l8.4,2.8c-2,7.9-3.9,13.2-8.5,20.3,1,1.5,2,3.4,2.6,3.4,1.1,0,1.5-2.8,2-5.4,2.2,1.7,4.8,3.1,7.6,4-3.3,11.5-6,13.1-8.8,13.1-4.4,0-8.1-5.4-9.5-7.4-3.1,3.3-6.8,6-10.8,8.3-1.3-2.6-3.1-5.1-5.3-7l2-1.2-2.4-1.5c-2.9,3.6-5.7,6.4-11.4,9.5-1.1-2.6-2.7-4.9-4.5-7.2,3.8-1.7,6.3-3.3,9-6.1l-1.7-1-.4,1.1-6.8-2.4c1.3-3.9,2.3-7.4,3.1-10.4h-1.5v-6.7h3.3l.7-3h-4v-6.3h21.9v6.3h-10.2l-.7,3h10.2c-.7,8-1.5,11.6-2.9,15.7l3.3,2-4.1,6.3c3.3-2,6.5-4.8,9.4-7.7-1.8-5.8-3.8-13-3.8-27.7h-23.9ZM447.7,134.6c-.3,1.3-.8,3.1-1.1,4.4,1.1.3,2.2.8,3.2,1.2.4-1.7.8-4,1.1-5.6h-3.2ZM470.4,108.9h3.5c-1-.9-2.2-1.7-3.5-2.5v2.5Z"/>
          <path d="M524.3,102.6v16.4h23.4v9.9h-23.4v18.9h19.6v9.4h-48.4v-9.4h18.2v-18.9h-22.5v-9.9h22.5v-16.4h10.6Z"/>
          <path d="M568,144.2c-2.2,5.2-3.2,7.1-6.5,12.7l-7.4-4c2.6-4.1,3.7-6.3,6.5-12.4l7.4,3.6ZM605.1,103.5v20.8h-9.5v-1.6h-25.3v4.4c0,2.7,1.5,2.8,6.6,2.8s18.3,0,21.3,0,3.1-.3,4-4.5c2.6,1.2,5.7,2.2,8.6,3-2.7,7.4-4.5,8.6-9.7,8.9-1.6,0-4,0-15.2,0,1.9,1.7,4.1,3.9,5.9,6.3l-6.3,5.4c-2.5-3.2-5.2-6.3-7.9-9.1l3.1-2.6c-9.9,0-11.5,0-14-.7-4.5-1.2-5.8-4.3-5.8-7.2v-14.1h34.7v-3.7h-35v-8h44.5ZM577.4,139.9v9.6c0,2.4,1.1,2.7,3.6,2.7,10.2,0,10.4-.2,10.8-.9.3-.5.9-2.8,1.2-4.7,2.9,1.5,6,2.8,8.8,3.8-2.9,8.4-4.9,9.1-11.4,9.1h-9c-9.3,0-12.8-.9-12.7-8.5v-11h8.8ZM605.2,139.6c3.9,4.3,6.8,8,9.2,11.7l-7.1,5c-3.3-5.2-5.5-7.9-8.7-11.7l6.7-5Z"/>
        </g>
        <rect class="cls-11" x="65.5" y="64.2" width="589.1" height="471.7"/>
        <g>
          <g>
            <g>
              <path class="cls-8" d="M559.5,452.7c2.2-3.2,0-9.8-5.2-9.9-2,0-3.8.5-5.3,1.4-1.3-2.9-4.1-5-7.5-5.1-.4,0-.7,0-1.1,0-.9-4.1-4.5-7.3-8.9-7.4-4.3-.1-8,2.6-9.3,6.5-.8-.5-1.7-.9-2.8-.9-1.2,0-2.2.3-3.1.9-1.7-2.5-4.5-4.1-7.8-4.2-5.2-.2-9.6,3.7-10.2,8.8-3.8.4-6.9,3.6-7,7.6,0,.9,0,1.7.3,2.5"/>
              <path class="cls-5" d="M514.3,441.6c0-2.4,2.1-4.4,4.6-4.3,2.4,0,4.4,2.1,4.3,4.6"/>
              <path class="cls-8" d="M542.8,443.1c.8-1.7,2.5-3,4.5-3.3,3.1-.3,5.8,1.9,6.2,5,.1,1.2-.1,2.4-.7,3.4"/>
              <path class="cls-5" d="M538.6,444c.5-1.2,1.7-2,3-2.2,2.1-.2,3.9,1.3,4.2,3.3"/>
              <line class="cls-7" x1="569" y1="455.5" x2="539" y2="455.5"/>
              <line class="cls-7" x1="527" y1="457.5" x2="551" y2="457.5"/>
              <line class="cls-7" x1="485" y1="453.5" x2="513" y2="453.5"/>
              <line class="cls-7" x1="558" y1="461.5" x2="581" y2="461.5"/>
            </g>
            <g>
              <polygon class="cls-12" points="617.3 523.4 583 499.7 550.2 478.5 523.4 474.5 509.5 468 501.9 468.2 485.4 460.2 475.9 462 463.2 458.9 454.1 450.6 427.5 443.2 414.5 447.4 410 451.6 401.4 453.8 397.5 457.8 367.8 464.2 342 475.7 343.4 523.4 617.3 523.4"/>
              <polygon class="cls-13" points="617.7 522.5 583.4 499.3 550.6 478.3 523.8 474.3 509.9 467.9 502.3 468.2 485.8 460.2 485.7 460.2 485.6 460.4 499.2 473.6 496.8 476.1 499.3 483.8 488.6 493 500.4 489.9 492.8 504 480.4 512.5 495.2 512.5 457.1 522.5 617.7 522.5"/>
              <polyline class="cls-14" points="403.3 460.8 410.2 464.1 418.4 474.5 430.8 482.1"/>
              <polyline class="cls-14" points="432.6 468.9 435.7 474.8 435.7 482.7 440.4 491.9"/>
              <polyline class="cls-14" points="433.9 452.4 436.4 460.2 442.5 463 443.3 466.9"/>
              <polyline class="cls-14" points="439.5 473.7 440.4 468.9 437.9 465.3"/>
              <polyline class="cls-14" points="418.4 450.8 419.3 455.3 426 460.2"/>
              <line class="cls-14" x1="444.1" y1="457.6" x2="441.2" y2="462.4"/>
              <polyline class="cls-14" points="451.2 462.9 451.2 466.3 454.1 469.9 451.2 474.5"/>
              <line class="cls-14" x1="457.8" y1="480.1" x2="462.3" y2="486"/>
              <line class="cls-14" x1="444.9" y1="477.4" x2="448.6" y2="483.8"/>
              <polyline class="cls-14" points="469.9 477.4 461.1 487.4 460.4 498.4"/>
              <polyline class="cls-14" points="469.3 464.9 469.9 471.4 463.7 477.4"/>
              <polyline class="cls-14" points="448.6 470.5 444.9 477.4 440.8 478.7 436.5 484.2"/>
              <polyline class="cls-14" points="423.1 469.3 425.8 473.7 425.1 478.6"/>
              <polyline class="cls-14" points="501.9 468.2 520.9 478.2 535.8 482.1"/>
              <polyline class="cls-14" points="384.4 463.7 393.6 465.3 397.9 470.5"/>
              <polyline class="cls-14" points="408.1 472.2 412.6 475.9 414.8 481.6 426 488.4"/>
              <polyline class="cls-14" points="410 478.6 402.3 476.8 397.4 473.6"/>
              <polyline class="cls-14" points="377.4 467.5 385.6 470.9 389.3 476"/>
              <polyline class="cls-14" points="410 451.6 412.2 455.8 410 460.8"/>
              <polyline class="cls-14" points="500 489.9 508.4 497.5 520.4 502.1 542.7 504.6"/>
              <polyline class="cls-14" points="463.7 462.4 462.6 468.7 457.2 474.5"/>
              <line class="cls-14" x1="457.2" y1="466.2" x2="453.3" y2="468.9"/>
              <polyline class="cls-14" points="454.1 450.6 454.1 456.1 450.2 460.2"/>
              <polyline class="cls-14" points="486 480.4 483.4 486 475.6 491.6"/>
              <line class="cls-14" x1="498.8" y1="473.6" x2="509.6" y2="481.3"/>
            </g>
            <g>
              <path class="cls-8" d="M439.3,495s-.1,0-.1,0c0-2.5-2.1-4.5-4.5-4.5s-2.1.4-2.9,1.1c-.5-.3-1-.4-1.6-.4s-.2,0-.3,0c-.8-1.2-2.1-2.1-3.7-2.1s-1,0-1.4.2c-.3-.3-.6-.5-.9-.7,0-.3,0-.5,0-.8,0-2-1.6-3.6-3.6-3.6s-1.1-.2-1.5,0c-.6-1.1-1.8-2.2-3.2-2.2h0s0,.3,0,.3c0-.3,0-.4-.2-.7.7-.6,1.1-1.4,1.1-2.4,0-1.5-.9-2.7-2.2-3.1,0,0,0-.1,0-.2,0-1.6-1.1-3-2.7-3.3,0,0,0-.2,0-.2,0-.9-.5-1.7-1.3-2.1,0-.4.1-.7.1-1.1,0-2.6-2.1-4.7-4.7-4.7s-1.5.2-2.1.5c-.9-1.5-2.6-2.5-4.4-2.5s-4.7,1.9-5.1,4.4c-.2,0-.3,0-.5,0-2.5,0-4.6,2-4.6,4.6s.6,2.6,1.6,3.4c-1.8.2-3.1,1.7-3.1,3.6s.6,2.3,1.6,3c-1.2.4-2.1,1.6-2.1,2.9s0,.3,0,.4c-.4,0-.8.2-1.2.3-.7-.9-1.8-1.5-3-1.5-2.1,0-3.8,1.7-3.8,3.8s0,.8.2,1.1c-1.3.1-2.3,1.1-2.5,2.4-.4-.2-.8-.3-1.3-.3-1.5,0-2.7-.4-2.9,2.6h-10.5v22h90.4l-9.1-15.9c0-2.1-1.9-4-4-4.1Z"/>
              <path class="cls-5" d="M388.2,480.7c-1.4-1.4-1.4-3.7,0-5.1,1.4-1.4,3.7-1.4,5.1,0"/>
              <path class="cls-5" d="M415.3,482.7c2,0,3.6,1.6,3.6,3.6"/>
              <path class="cls-5" d="M405.6,482c.5-1.5,2.3-2.2,4-1.6s2.7,2.3,2.1,3.7"/>
              <path class="cls-5" d="M409.5,482.6c1.4-1.4,3.6-1.4,5,0s1.4,3.6,0,5"/>
              <path class="cls-5" d="M422.6,501.4c.3-2.1,2.2-3.7,4.3-3.4s2.6,1.1,3.1,2.4"/>
              <path class="cls-5" d="M388.1,483.6c-1-.8-1.2-2.3-.5-3.3.8-1,2.3-1.2,3.3-.5"/>
              <path class="cls-5" d="M411.9,488.9c.9-1.5,2.6-2.4,4.4-2.3,2.6.2,4.6,2.5,4.4,5.1"/>
              <path class="cls-5" d="M418.8,501.9c.4-1,1.3-1.7,2.4-1.8,1.6-.2,3,1,3.2,2.6"/>
            </g>
            <g>
              <rect class="cls-16" x="349.8" y="291" width="20.1" height="36.1"/>
              <polygon class="cls-23" points="368.5 298.5 351.2 294.6 351.2 291 368.5 291 368.5 298.5"/>
              <path class="cls-4" d="M383.2,350.3c-.2-2-1.8-3.6-3.8-3.8l-4.6-.6c-2.9-.4-5.1-2.8-5.1-5.7v-12.7h-19.9v12.7c0,2.9-2.2,5.3-5,5.7l-4.5.6c-2,.2-3.6,1.8-3.8,3.8-1.1,9.3-4.1,36.9-4.1,71.6s4.5,101.3,4.5,101.3h45.8s4.5-58.4,4.5-101.3-2.9-62.2-4.1-71.6Z"/>
              <rect class="cls-6" x="347.2" y="362.5" width="10.3" height="76.9"/>
              <rect class="cls-10" x="341" y="362.5" width="4.1" height="40.7"/>
              <rect class="cls-16" x="348.4" y="272.7" width="22.9" height="18.3"/>
              <rect class="cls-17" x="348.4" y="280.3" width="22.9" height="4.2"/>
              <path class="cls-22" d="M382.7,497.1l-23.2-18.3-24-10.4c1.3,31.4,2.5,55.6,2.5,55.6h43.8l.9-26.9Z"/>
              <polygon class="cls-22" points="368.5 336.8 351.2 332.9 351.2 329.4 368.5 329.4 368.5 336.8"/>
            </g>
            <g>
              <path class="cls-8" d="M333.7,463c.4-.4.7-.8.9-1.3.7.8,1.8,1.3,2.9,1.3s2.7-.8,3.4-2c.6.8,1.5,1.2,2.6,1.2s2.7-1,3.1-2.3c.1,0,.3,0,.4,0,.8,0,1.6-.5,1.9-1.2.2,0,.4,0,.6,0,1.5,0,2.6-1.2,2.6-2.6s-1.2-2.6-2.6-2.6-.8.1-1.2.3c-.2-1.2-1.1-2.1-2.3-2.2.1-.3.2-.7.2-1,0-1.9-1.5-3.5-3.5-3.5s-2.1.5-2.7,1.3c-.3-.2-.7-.3-1.1-.3,0-.1,0-.3,0-.4,0-1.2-.8-2.3-1.9-2.7.9-.6,1.4-1.6,1.4-2.7,0-1.7-1.3-3.1-2.9-3.3.9-.8,1.4-1.9,1.4-3.1,0-2.3-1.9-4.2-4.2-4.2s-.3,0-.4,0c-.3-2.3-2.3-4-4.7-4s-3.2.9-4.1,2.3c-.6-.3-1.2-.4-1.9-.4-2.4,0-4.3,1.9-4.3,4.3s0,.7.1,1c-.7.3-1.2,1.1-1.2,1.9s0,.2,0,.2c-1.4.3-2.5,1.5-2.5,3s0,.1,0,.2c-1.2.4-2,1.6-2,2.9s.4,1.7,1,2.3c-.1.2-.2.7-.2,1s0,.3,0,.3h0c-1.2,0-2.3.5-2.9,1.5-.4-.2-.9-.4-1.4-.4-1.8,0-3.3,1.4-3.3,3.3s0,.5,0,.7c-.3.2-.6.3-.8.6-.4-.1-.8-.2-1.3-.2-1.4,0-2.7.8-3.3,1.9,0,0-.2,0-.3,0-.5,0-1,.1-1.4.4-.7-.6-1.8-1-2.8-1-2.2,0-4.2,1.8-4.2,4.1h0c-1,.1-3.3,1.7-3.3,3.7s.3.6.5,1.6h-27.2"/>
              <line class="cls-5" x1="288.4" y1="468.8" x2="316.3" y2="468.8"/>
              <line class="cls-5" x1="221.7" y1="470.3" x2="249.8" y2="470.3"/>
              <path class="cls-5" d="M337.1,444.8c1.3-1.3,1.3-3.4,0-4.6-1.3-1.3-3.4-1.3-4.6,0"/>
              <path class="cls-5" d="M323.2,445.3c-.4-1.2-1.9-1.8-3.3-1.3s-2.2,1.9-1.8,3.1"/>
              <path class="cls-5" d="M320.3,447c-1.3-1.3-3.3-1.3-4.6,0-1.3,1.3-1.3,3.3,0,4.6"/>
              <path class="cls-5" d="M337.2,447.5c.9-.7,1.1-2.1.4-3s-2.1-1.1-3-.4"/>
              <path class="cls-5" d="M318.1,452.8c-.8-1.4-2.4-2.2-4.1-2.1-2.4.2-4.2,2.3-4.1,4.7"/>
            </g>
            <g>
              <path class="cls-8" d="M504.2,524c-.7-2.8-4-7.1-8.1-7.1s-1.4,0-2.1.1c-.6-1.6-1.7-3-3.1-3.9,0-.5.2-1,.1-1.6-.1-3.3-2.7-6-5.9-6.4-.5-4.3-4.2-7.6-8.6-7.4-2.7,0-5.1,1.5-6.6,3.6-.8-.5-1.7-.8-2.7-.7-.9,0-1.7.3-2.3.7-1.1-3.3-4.2-5.6-7.8-5.5-3.7.1-6.7,2.8-7.5,6.3-.3,0-.6,0-.9,0-2.9,0-5.2,1.9-6.3,4.3-1.3-.8-2.9-1.2-4.5-1.2-4.5.2-8,3.9-7.8,8.4.1,4.1,3.2,7.6,7.2,8.1.2.7.4.4.8,2.3h66.2Z"/>
              <path class="cls-5" d="M471.4,504.7c0-2.3-2-4.1-4.4-4.1-2.3,0-4.2,2-4.1,4.4,0,.3,0,.5.1.8"/>
              <path class="cls-5" d="M455.2,510.7c-.5-1.5-1.7-2.8-3.4-3.2-2.5-.6-5.1,1-5.7,3.5"/>
              <path class="cls-5" d="M458.5,510.9c-.4-.8-1.1-1.4-2-1.5-1.4-.2-2.6.8-2.8,2.2"/>
              <path class="cls-5" d="M476.6,508.9c.3-1.4,0-2.9-1.1-3.9-1.6-1.6-4.2-1.5-5.8.1-.6.7-1.1,1.9-1.1,2.9"/>
            </g>
            <g>
              <polygon class="cls-12" points="175.3 523.2 227.9 488.3 260.5 475.2 281.9 455.4 295.9 461.5 311.1 464.2 319.4 469.9 343.7 480.2 389.7 507.4 468.8 523.2 175.3 523.2"/>
              <polygon class="cls-13" points="390.1 508 344.1 480.5 319.8 470.1 311.4 464.3 296.3 461.6 282.2 455.4 282.1 455.4 275.6 466.4 284.8 469.4 290 486.7 301.5 488.6 289.1 503.1 309.8 494.8 316.5 498.5 316.5 507.1 328.5 524.5 469 524.5 390.1 508"/>
              <polyline class="cls-14" points="304.3 477.1 294.1 475.7 284.4 469.4"/>
              <polyline class="cls-14" points="320.7 489.4 313.2 488.4 307.9 484"/>
              <polyline class="cls-14" points="289.6 486.7 264.4 502.6 228.8 510.2"/>
              <polyline class="cls-14" points="277.5 476.1 263.2 487.9 245 491.8 228.8 500.7"/>
              <line class="cls-14" x1="258.1" y1="480" x2="258.1" y2="489"/>
              <polyline class="cls-14" points="317 498.5 329.6 505.6 344.8 507.7 357 511.8"/>
              <line class="cls-14" x1="301.5" y1="488.6" x2="307.8" y2="495.7"/>
            </g>
            <g>
              <g>
                <path class="cls-18" d="M558.4,394.1c0-3.6-2.3-5.1-5-5.1s-2.3.3-3.2,1c-.7-3.3-3.7-5.8-7.2-5.8s-1.6.1-2.4.4c0-.1,0-.3,0-.4,0-5.9-4.8-10.7-10.7-10.7s-9.7,3.9-10.5,8.9c-1-.4-2.1-.7-3.2-.7-4.5,0-8.1,3.8-8.1,8.3s.3,4,.9,4h-35.1"/>
                <path class="cls-18" d="M508.2,389.8c0-4.5,3.6-8.1,8.1-8.1s4.7,1.1,6.2,2.9"/>
              </g>
              <line class="cls-14" x1="491" y1="405.5" x2="521" y2="405.5"/>
              <line class="cls-14" x1="457" y1="405.5" x2="477" y2="405.5"/>
            </g>
            <g>
              <rect class="cls-3" x="574.8" y="502.7" width="1.8" height="14.8"/>
              <rect class="cls-15" x="567.4" y="519.3" width="24.6" height="4.2"/>
              <polygon class="cls-3" points="592.8 519.3 567.4 519.3 567.4 515.8 591.3 515.8 592.8 519.3"/>
            </g>
            <g>
              <rect class="cls-15" x="216.1" y="517.5" width="11.6" height="5.7"/>
              <polygon class="cls-3" points="223.4 513.5 223.1 513.5 223 510.9 221.7 509.7 220.4 511 220.3 513.5 220 513.5 215.3 517.5 221.7 517.5 228 517.5 223.4 513.5"/>
              <rect x="218" y="518.9" width="1.2" height="1.2"/>
              <rect x="224.6" y="518.9" width="1.2" height="1.2"/>
            </g>
            <g>
              <rect class="cls-15" x="307.3" y="517.5" width="11.6" height="5.7"/>
              <polygon class="cls-3" points="314.6 513.5 314.3 513.5 314.2 510.9 312.9 509.7 311.6 511 311.5 513.5 311.2 513.5 306.5 517.5 312.9 517.5 319.2 517.5 314.6 513.5"/>
              <rect x="309.2" y="518.9" width="1.2" height="1.2"/>
              <rect x="315.8" y="518.9" width="1.2" height="1.2"/>
            </g>
            <g>
              <rect class="cls-15" x="226" y="513.6" width="21" height="9.9"/>
              <polygon class="cls-3" points="229.4 509.8 244.2 509.8 244.2 513.6 226 513.6 229.4 509.8"/>
              <rect class="cls-3" x="229.5" y="507.6" width="1.2" height="2.2"/>
              <polygon class="cls-9" points="245.5 509.1 245.5 507.5 243.5 507.5 243.5 509.1 241.5 513.4 241.5 523.2 251 523.2 250.2 513.4 245.5 509.1"/>
              <rect x="228.2" y="514.1" width="1.2" height="2.8"/>
              <rect x="232" y="514.1" width="1.2" height="2.8"/>
              <rect x="235.8" y="514.1" width="1.2" height="2.8"/>
              <rect x="228.2" y="518.5" width="1.2" height="2.8"/>
              <rect x="232" y="518.5" width="1.2" height="2.8"/>
              <rect x="235.8" y="518.5" width="1.2" height="2.8"/>
              <rect x="242.6" y="514.1" width="1.2" height="2.8"/>
              <rect x="248.1" y="514.1" width="1.2" height="2.8"/>
              <rect x="242.6" y="518.5" width="1.2" height="2.8"/>
              <rect x="248.1" y="518.5" width="1.2" height="2.8"/>
            </g>
            <g>
              <rect class="cls-15" x="248" y="513.6" width="21" height="9.9"/>
              <polygon class="cls-3" points="251.4 509.8 266.2 509.8 266.2 513.6 248 513.6 251.4 509.8"/>
              <rect class="cls-3" x="251.5" y="507.6" width="1.2" height="2.2"/>
              <polygon class="cls-9" points="269.5 509.1 269.5 507.5 266.5 507.5 266.5 509.1 263.5 513.4 263.5 523.2 273 523.2 273.2 513.4 269.5 509.1"/>
              <rect x="250.2" y="514.1" width="1.2" height="2.8"/>
              <rect x="254" y="514.1" width="1.2" height="2.8"/>
              <rect x="257.8" y="514.1" width="1.2" height="2.8"/>
              <rect x="250.2" y="518.5" width="1.2" height="2.8"/>
              <rect x="254" y="518.5" width="1.2" height="2.8"/>
              <rect x="257.8" y="518.5" width="1.2" height="2.8"/>
              <rect x="264.6" y="514.1" width="1.2" height="2.8"/>
              <rect x="270.1" y="514.1" width="1.2" height="2.8"/>
              <rect x="264.6" y="518.5" width="1.2" height="2.8"/>
              <rect x="270.1" y="518.5" width="1.2" height="2.8"/>
            </g>
            <g>
              <rect class="cls-15" x="269.7" y="513.6" width="21" height="9.9"/>
              <polygon class="cls-3" points="273.1 509.8 287.9 509.8 287.9 513.6 269.7 513.6 273.1 509.8"/>
              <rect class="cls-3" x="273.2" y="507.6" width="1.2" height="2.2"/>
              <polygon class="cls-9" points="290.5 509.1 290.5 507.5 288.5 507.5 288.5 509.1 285.5 513.4 285.5 523.2 294.9 523.2 295.1 513.4 290.5 509.1"/>
              <rect x="271.9" y="514.1" width="1.2" height="2.8"/>
              <rect x="275.7" y="514.1" width="1.2" height="2.8"/>
              <rect x="279.5" y="514.1" width="1.2" height="2.8"/>
              <rect x="271.9" y="518.5" width="1.2" height="2.8"/>
              <rect x="275.7" y="518.5" width="1.2" height="2.8"/>
              <rect x="279.5" y="518.5" width="1.2" height="2.8"/>
              <rect x="286.3" y="514.1" width="1.2" height="2.8"/>
              <rect x="291.8" y="514.1" width="1.2" height="2.8"/>
              <rect x="286.3" y="518.5" width="1.2" height="2.8"/>
              <rect x="291.8" y="518.5" width="1.2" height="2.8"/>
            </g>
            <g>
              <rect class="cls-15" x="525.5" y="513.6" width="21" height="9.9"/>
              <polygon class="cls-3" points="528.9 509.8 543.7 509.8 543.7 513.6 525.5 513.6 528.9 509.8"/>
              <rect class="cls-3" x="529" y="507.6" width="1.2" height="2.2"/>
              <polygon class="cls-9" points="544.5 509.1 544.5 507.5 543.5 507.5 543.5 509.1 540.5 513.4 540.5 523.2 549.3 523.2 549.3 513.4 544.5 509.1"/>
              <rect x="527.7" y="514.1" width="1.2" height="2.8"/>
              <rect x="531.5" y="514.1" width="1.2" height="2.8"/>
              <rect x="535.3" y="514.1" width="1.2" height="2.8"/>
              <rect x="527.7" y="518.5" width="1.2" height="2.8"/>
              <rect x="531.5" y="518.5" width="1.2" height="2.8"/>
              <rect x="535.3" y="518.5" width="1.2" height="2.8"/>
              <rect x="542.1" y="514.1" width="1.2" height="2.8"/>
              <rect x="547.1" y="514.1" width="1.2" height="2.8"/>
              <rect x="542.1" y="518.5" width="1.2" height="2.8"/>
              <rect x="547.1" y="518.5" width="1.2" height="2.8"/>
            </g>
            <g>
              <rect class="cls-15" x="546.5" y="513.6" width="21" height="9.9"/>
              <polygon class="cls-3" points="549.9 509.8 564.7 509.8 564.7 513.6 546.5 513.6 549.9 509.8"/>
              <rect class="cls-3" x="550" y="507.6" width="1.2" height="2.2"/>
              <polygon class="cls-9" points="565.5 509.1 565.5 507.5 564.5 507.5 564.5 509.1 561.5 513.4 561.5 523.2 570.5 523.2 570.5 513.4 565.5 509.1"/>
              <rect x="548.7" y="514.1" width="1.2" height="2.8"/>
              <rect x="552.5" y="514.1" width="1.2" height="2.8"/>
              <rect x="556.3" y="514.1" width="1.2" height="2.8"/>
              <rect x="548.7" y="518.5" width="1.2" height="2.8"/>
              <rect x="552.5" y="518.5" width="1.2" height="2.8"/>
              <rect x="556.3" y="518.5" width="1.2" height="2.8"/>
              <rect x="563.1" y="514.1" width="1.2" height="2.8"/>
              <rect x="568" y="514.1" width="1.2" height="2.8"/>
              <rect x="563.1" y="518.5" width="1.2" height="2.8"/>
              <rect x="568" y="518.5" width="1.2" height="2.8"/>
            </g>
            <g>
              <g>
                <polygon class="cls-3" points="190.4 493.1 187.5 496.6 187.5 504.5 193.5 504.5 193.5 496.6 190.4 493.1"/>
                <rect class="cls-15" x="188.6" y="497.8" width="2.3" height="2.2"/>
              </g>
              <polygon class="cls-15" points="196.7 523.4 183.6 523.4 184.7 507.1 195.6 507.1 196.7 523.4"/>
              <polygon class="cls-21" points="196.7 523.4 186.5 523.4 192.5 507.2 195.6 507.1 196.7 523.4"/>
              <polygon class="cls-14" points="196.7 523.4 183.6 523.4 184.7 507.1 195.6 507.1 196.7 523.4"/>
              <rect class="cls-15" x="183.6" y="501.7" width="13.1" height="5.4"/>
              <rect x="191.1" y="518.2" width="2.2" height="5.3"/>
            </g>
            <g>
              <g>
                <path class="cls-18" d="M224.2,407.6c0-2.6-1.2-4-3.1-4s-1.5.1-2.1.7c-.5-2.4-2.6-4.3-5.1-4.3s-1.1,0-1.7.2c0,0,0-.2,0-.3,0-4.3-3.5-7.8-7.7-7.8s-7,2.8-7.6,6.5c-.7-.3-1.5-.5-2.3-.5-3.2,0-5.9,3.2-5.9,6.5s.3,2.4.7,3.4h-28.3"/>
                <path class="cls-18" d="M188.6,404c0-3.2,2.6-5.9,5.9-5.9s3.5.8,4.5,2.1"/>
              </g>
              <line class="cls-14" x1="185" y1="413.5" x2="217" y2="413.5"/>
            </g>
          </g>
          <g>
            <polygon class="cls-3" points="150.2 523.4 92.4 523.4 93.1 521.6 90.5 519 151.6 519 150.2 523.4"/>
            <rect class="cls-15" x="90.5" y="517.6" width="61.1" height="1.5"/>
            <polygon class="cls-15" points="96.2 515.3 137.7 515.3 137.7 517.6 94.7 517.6 96.2 515.3"/>
            <g>
              <rect class="cls-1" x="101.4" y="511" width="2.8" height="4.3"/>
              <rect class="cls-2" x="101.4" y="509.4" width="2.8" height="1.5"/>
            </g>
            <g>
              <rect class="cls-1" x="110.9" y="511" width="2.8" height="4.3"/>
              <rect class="cls-2" x="110.9" y="509.4" width="2.8" height="1.5"/>
            </g>
            <g>
              <rect class="cls-1" x="120.4" y="511" width="2.8" height="4.3"/>
              <rect class="cls-2" x="120.4" y="509.4" width="2.8" height="1.5"/>
            </g>
            <g>
              <rect class="cls-1" x="129.9" y="511" width="2.8" height="4.3"/>
              <rect class="cls-2" x="129.9" y="509.4" width="2.8" height="1.5"/>
            </g>
          </g>
        </g>
      </g>
    </g>
  </g>
</svg>