<?xml version="1.0" encoding="UTF-8"?>
<svg xmlns="http://www.w3.org/2000/svg" version="1.1" viewBox="0 0 1280 960">
  <defs>
    <style>
      .cls-1 {
        fill: #2369c4;
        stroke-width: 5px;
      }

      .cls-1, .cls-2, .cls-3, .cls-4, .cls-5, .cls-6, .cls-7, .cls-8, .cls-9, .cls-10, .cls-11, .cls-12, .cls-13 {
        stroke: #000;
      }

      .cls-1, .cls-2, .cls-7, .cls-12 {
        stroke-linejoin: round;
      }

      .cls-2, .cls-3, .cls-4, .cls-7, .cls-9, .cls-10 {
        stroke-width: 3px;
      }

      .cls-2, .cls-3, .cls-9 {
        fill: #333;
      }

      .cls-2, .cls-4, .cls-5, .cls-6, .cls-8, .cls-9, .cls-10, .cls-11, .cls-12, .cls-13 {
        stroke-linecap: round;
      }

      .cls-3, .cls-4, .cls-5, .cls-6, .cls-8, .cls-9, .cls-10, .cls-11, .cls-13 {
        stroke-miterlimit: 10;
      }

      .cls-4, .cls-5, .cls-6, .cls-8, .cls-12, .cls-13 {
        fill: none;
      }

      .cls-14, .cls-10, .cls-11 {
        fill: #ecd6c9;
      }

      .cls-5 {
        stroke-width: 1.5px;
      }

      .cls-6, .cls-11, .cls-12 {
        stroke-width: 2px;
      }

      .cls-7 {
        fill: #4d4d4d;
      }

      .cls-8 {
        stroke-width: 4px;
      }

      .cls-15 {
        fill: #dd644b;
      }

      .cls-16 {
        fill: #cc9fad;
      }
    </style>
  </defs>
  <!-- Generator: Adobe Illustrator 28.7.4, SVG Export Plug-In . SVG Version: 1.2.0 Build 166)  -->
  <g>
    <g id="_圖層_1" data-name="圖層_1">
      <rect class="cls-15" x="-1737" y="-597.5" width="4992" height="3793"/>
      <g>
        <polygon class="cls-1" points="501.6 806.2 129.4 682.6 778.4 359.1 1150.6 482.7 501.6 806.2"/>
        <path d="M527.1,513.3c-16.7,6.3-21.8-1.8-25.5,13.7-2.9,12.2,33.5,24.9,70.1,12.7,27.3-9.1,12.9,14.8-9.1,13.7-35.5-1.8-94.5,27.4-91.9,53.7,1.2,12.4-51.9,38-42.8,45.5,7.5,6.1,68.8-8,80.1-5.5,16.7,3.8,50.5,8.4,71.9,3.6,53.7-11.8,71.9-59.2,102-66.5,18.8-4.6,44.3,2.2,52.8,5.5,30.9,11.8-18.1,16.5-11.8,22.8,16.4,16.4,61,16.4,70.1,20.9,8.7,4.3,11.4-3,11.8-12.7,1.4-32.1,16.4-12.7,16.4-21.8s-55-29.5-74.6-47.3c-10-9.1,0-17.4,27.3-16.4,34.5,1.2,87.6,23,92.2,23.5,45,5.4,94-20.3,87.1-47.2-8.2-31.9-90.1-48.2-132.9-57.3-23.7-5-79.1-45.6-141.1-45.5-50,0-114.6,39.5-90.1,44.6,57.3,11.8,53.7,41,1.8,45.5-12.6,1.1-46.9-13.6-59.2-17.3l-46.4,23.7s56.4,2.7,41.9,8.2Z"/>
        <g>
          <path class="cls-3" d="M656.8,195c-43.2-.4-109.1,53.6-130.6,78.3-21.5,24.6-23,32.6-20.7,48.5,2.4,15.9,25.4,35,35,27,9.5-7.9,122.9-110.4,116.3-153.7Z"/>
          <path d="M627.2,249.4c18.8-20.9,17.3-52.8,17.3-52.8-.3,0-.5-.1-.8-.2-9,1.8-18.6,5.3-28.4,9.9,1.8,21.3-8.8,39.9-31,60.4-27.6,25.6,11.6,17.3,42.8-17.3Z"/>
          <g>
            <g>
              <path class="cls-10" d="M610.3,505.1s-18.3-13.5-21.5-8.7c-3.2,4.8-23.8,8.7-27.8,9.5-1.8.4-4.3.7-6.6,1.9-8.1,2.2-30.8,4.5-36.3,4.5s-1.6,8.7-1.6,8.7c3.2,1.3,20.7,1.5,28.6.8,2.5,8.6,26.6,7.7,31.8,4.8,5.6-3.2,20.7,0,20.7,0,0,0,1.6-.8,1.6,5.6s0,8.7,4.8,10.3,8.7.8,8.7-4,0-9.5,1.6-17.5c1.6-7.9-4-15.9-4-15.9Z"/>
              <path class="cls-10" d="M525.3,526.5c-1.6,0-12.7,3.2-17.5,2.4-4.8-.8-8.7-8.7-.8-9.5,7.9-.8,23.8-3.2,30.2-5.6,6.4-2.4,17.5-4,17.5-4"/>
              <path class="cls-10" d="M549.9,528.9s-18.3,4.8-23.8,6.4c-5.6,1.6-12.7,3.2-13.5-3.2-.8-6.4,7.9-7.9,15.9-10.3,7.9-2.4,23.8-7.9,23.8-7.9"/>
              <path class="cls-10" d="M576.9,526.5s-11.9,4-15.1,6.4-13.5,11.9-19.1,11.1c-5.6-.8-10.3-3.2-6.4-7.2,4-4,19.1-11.9,21.5-17.5"/>
            </g>
            <path class="cls-9" d="M617.5,425.6c-4,15.9-7.2,66.7-5.6,82.6,1.6,15.9-26.2-.8-27-7.9-.8-7.2-2.4-54-11.1-71.5-8.7-17.5-28.6-64.4,18.3-65.9,46.9-1.6,29.4,46.9,25.4,62.8Z"/>
            <path d="M562.2,392.7c1,13.4,7.5,27.9,11.6,36.1,4,8,6.5,22.1,8.1,35.8,6.6-6.4,18.8-16.5,32.5-18.7.9-8.5,2-15.8,3.1-20.3,1.7-7,6.1-20.3,6.5-32.9h-61.7Z"/>
          </g>
          <path class="cls-3" d="M850.7,197c-35-32.6-59-23.5-83.5-34-48.5-20.6-97-3.9-116.9,23.7-19.9,27.6-13.7,27.8-28.9,45.8-16.7,19.9-77.1,62.8-96.1,89.8-19.1,27-32.6,56.4-15.1,66.7,17.5,10.3,115.2,63.6,177.2,54,62-9.5,33.1-80.6,77.1-130.3,11.7-13.2,23.2-22.2,34-28.8,9.4,0,18.9-.8,28.4-2.5,35-6.4,58.9-51.8,23.9-84.4Z"/>
          <path class="cls-8" d="M687.3,230.2s-54.6,66.5-89.2,74.6"/>
          <path d="M704.6,393.2c-19.8,13.2-53.6,41.4-82,43.8,22.7,6,45.5,9.1,64.7,6.2,55.1-8.5,38.4-65.6,64.9-113-11.2,22.1-31.2,52.2-47.6,63.1Z"/>
          <g>
            <g>
              <path class="cls-10" d="M828.8,586.1s2.4,15.1-2.4,19.9c-4.8,4.8-11.1,8.7-23.8,11.9-12.7,3.2-35-5.6-36.5-11.9-1.6-6.4,0-11.9-4-12.7-4-.8-18.3.8-22.2-2.4-4-3.2-3.2-8.7.8-9.5s10.3,0,14.3-.8c4-.8,15.9-3.2,21.5-1.6s23.8-.8,25.4-4,27,11.1,27,11.1Z"/>
              <path class="cls-10" d="M771.6,593.3c-3.2,1.6-17.5,6.4-25.4,7.2-7.9.8-19.1.8-21.5,4-2.4,3.2-3.2,6.6,1.6,9.5,6.4,4,33.4-.8,40.5-1.6"/>
              <path class="cls-10" d="M771.7,601.8s-23.2,14.2-28.3,16.8c-3.5,1.8-5.3,5.3-3.9,8.6s4,5,11,4.1c8-1,21.6-12.9,26-15.4"/>
              <path class="cls-10" d="M778.7,610s-14.3,13.5-16.7,15.1-3.2,6.4,0,8.7c3.3,2.5,8.5,2.6,12.7.8,4.9-2.1,9.5-7.5,11.9-11.1,3.2-4.8,7.9-8.7,7.9-8.7"/>
              <path class="cls-10" d="M797.8,613.1s-2.4,13.5-2.4,16.7,1.6,5.6,8.7,4.8c7.2-.8,6.4-20.7,9.5-23"/>
            </g>
            <path class="cls-9" d="M708.7,378.2c7.2,8.7-2.6,12.6,54.1,21.2,57.2,8.7,74.1,27.3,80.1,31.7,6.1,4.4,14.8,13.2,11.6,31.5-3.2,18.3-15.1,120.8-27,129.5-11.9,8.7-28.6-7.9-28.6-14.3s9.5-26.2,7.2-49.3c-2.4-23,3.2-50.8-3.2-55.6-6.4-4.8-27.8-6.4-53.2-13.5-25.4-7.2-27.8-9.5-46.1-6.4-18.3,3.2-38.1-3.2-52.4-15.1-14.3-11.9-19.5-9.1-19.5-9.1"/>
          </g>
          <path class="cls-9" d="M605.9,423.6c-20.3,13.9-37.3,17.5-53.2,35.8-15.9,18.3-67.5-41.3-57.2-59.6,10.3-18.3,38.9-1.6,56.4-17.5"/>
          <path d="M551.7,415.9c-16.8-12.6-14.9,61.7,1,43.5,15.9-18.3,33-21.8,53.2-35.8,0,0-32.7,8.4-54.3-7.7Z"/>
          <path d="M838.4,428.7c0,.9-29.2,30.1-61.1,22.8-31.9-7.3-40.1-60.1-16.4-59.2,23.7.9,77.5,36.3,77.5,36.3Z"/>
          <g>
            <g>
              <path class="cls-10" d="M885.7,359.6s-14.7-15.6,4.3-24.3c19.1-8.7,24.3,6.9,31.2,12.1,6.9,5.2,27.8,14.7,33,21.7,5.2,6.9,7.8,6.9,6.9,12.1-.2,1.3-.9,4.3-3.5,5.2,2.6,4.3-2.6,9.5-5.2,9.5.9,5.2-4.3,6.9-6.1,6.1,2.6,4.3-4.3,5.2-6.1,4.3-.9,4.3-1.7,5.2-6.1,5.2s-5.8-4.7-7.8-9.5c-1.2-2.9-14.7,6.1-21.7-3.5-6.9-9.5-19.1-39-19.1-39Z"/>
              <path class="cls-12" d="M957.7,386.5s-3.9-.4-6.1-4.3"/>
              <path class="cls-12" d="M952,395.6s-5.2-1.7-6.1-5.2"/>
              <path class="cls-12" d="M946,401.6s-5.2-1.7-6.1-5.2"/>
              <path class="cls-12" d="M940.7,406.5s-6.9-2.3-7.7-6.6"/>
            </g>
            <path class="cls-2" d="M846.2,193.4s30,18.2,30.7,73c.6,46.1-21.6,80-21.6,80,15.1-7.9,22.8.9,30.9-2.7,15-6.7,37.6,11.1,35.5,31.9-1.8,18.2-22.7,27-34.6,30.9-11.9,4-63.5,37.1-85.7,37.1s-41.9-18.8-47.7-31.8c-9.5-21.4-7.3-77.7,1.3-114.5"/>
            <path class="cls-4" d="M855.3,346.3s-2.7,13.7-15.5,31.9"/>
          </g>
          <g>
            <path class="cls-3" d="M508,282.1c-53.9,0-76.7,33.2-80.7,41.5-7.3,15.4-13,33-13.8,39.9-2.9,27.8,7,46.8,10.7,58.7,3.7,11.9,16.4,70.6,48.9,69.3,26-1.1,36-9.6,43.4-13s49.9-17.4,61-49.9c11.1-32.5,12.3-67.1,7.6-88.7-4.8-21.6-23.2-57.8-77.1-57.9Z"/>
            <path d="M511.1,361.7c.7,3.1-1.7,6.3-5.2,7-3.6.8-7-1.1-7.7-4.2-.7-3.1.9-5.4,4.5-6.2s7.8.2,8.4,3.4Z"/>
            <path d="M429,355.5c-2.1,2-2,5.6.3,8,2.3,2.4,5.8,2.7,7.9.7,2.1-2,2.1-4.5-.2-6.9-2.3-2.4-5.9-3.8-8-1.8Z"/>
            <g>
              <path class="cls-11" d="M504.4,407.6c9.4,1.9,14.9,12.5,14.9,26.4,0,13.9.2,28-5.7,36.8-5,7.3-10.6,11.3-22.7,13.6-11.7,2.2-9.1,3.8-17.8,3.8s-11.3-2.3-15.7-5.4c-4.4-3.1-9.4-4.2-15.2-11.7-5.8-7.6-11.7-26.3-13.1-34.9-1.3-8.6-5.8-25.7,7.4-26.3,13.2-.6,18.7,2.8,33.5,1,14.8-1.8,26.1-4.8,34.4-3.1Z"/>
              <path class="cls-5" d="M461.2,469.2c.6-1.1,2-1.5,4.7-1.8,4.8-.4,10.2,1.7,12.3,1.9s2.5,1.2,2.5,1.2"/>
              <g>
                <path d="M497.7,429.4c.4,1.8-.9,3.6-3,4-2,.4-4-.6-4.3-2.4-.4-1.8.5-3.1,2.5-3.5s4.4.1,4.8,1.9Z"/>
                <path class="cls-14" d="M487.5,431s1.5-2.6,6-2.9c4.5-.3,6.8,1.9,6.8,1.9l-.5-5.5-12.3,2.7v3.7Z"/>
                <path class="cls-13" d="M489.1,429.5c1-.6,2.4-1.2,4.5-1.4,2.3-.2,3.9.3,5.1.8"/>
              </g>
              <g>
                <path d="M439.2,428c-.4,1.8.9,3.6,2.9,4,2,.4,4-.6,4.4-2.4.4-1.8-.5-3.1-2.5-3.5-2-.4-4.4.1-4.8,1.9Z"/>
                <path class="cls-14" d="M436.6,428.6s2.3-2.3,6.8-1.9,6,2.9,6,2.9l-1.4-5.6-10.2.8-1.1,3.8Z"/>
                <path class="cls-13" d="M447.6,428c-1-.6-2.3-1.1-4.3-1.3s-3.8.3-4.9.8"/>
              </g>
              <path class="cls-6" d="M481,424.8s-3.8.4-5.7,3c-1.9,2.6-2.1,5.2-2.1,5.2"/>
              <path class="cls-6" d="M452.2,425.3c4.8,3.1,6.5,7.2,6.6,13.1,0,5.9-1,10.2-2.1,13-1.2,2.9-.3,4.6,2.6,5.9"/>
              <path class="cls-16" d="M459.5,452.3c2.7-.6,6.3,1.1,7.6,1.7s3.8,2,1.1,2.9c-2.7.9-7.8.4-9.9-1.3s-.2-2.9,1.1-3.2Z"/>
              <path class="cls-6" d="M491,419.6s3.4-1.6,7.5,1.2"/>
              <path class="cls-6" d="M444.1,419.3s-3.4-1.7-7.5,1.1"/>
            </g>
            <path class="cls-7" d="M459.3,365.4c9.1,0,23.7,2.7,28.2,13.7,1.2,2.9,4.3,7,8.2,9.1,7.5,4,12.7,1.8,20,12.7,3.2,4.8,4.6,9.1,3.6,15.5s-4.6,4.6-9.1,4.6c-40.7,0-130.3,38.8-149.3,67.4-6.4-43.7,42.1-88,61-98.3,10-5.5,12.2-11.7,15.5-15.5,5.5-6.4,15.2-9.1,21.8-9.1Z"/>
          </g>
          <path class="cls-6" d="M482,392.7s-46.4,14.6-62.8,28.2"/>
          <g>
            <path class="cls-9" d="M665,344.5c10,10.9,29,14.1,43,12.7,10.2-1.1,44.6-22.5,18-56.6-26.6-34.1-11.4,4.5-30.9-12"/>
            <path class="cls-9" d="M714.9,304.1s10-10.5,7.4-32.6c-2.6-21.3-7.4-12.6-9.4-5-1.9,7.6-5.2,26-9.7,26"/>
            <path class="cls-9" d="M719.8,315.9s13.2-15.8,14.1-41.4c1-25.6-6.8-12-8.8-3.2-2,8.8-10.4,31.7-15.5,31.8"/>
            <path class="cls-9" d="M718.7,326.7s20.5-15.1,26.4-43.3c5.9-28.2-5.2-14.6-9.1-5.2-3.9,9.4-15.4,37-21,36.1"/>
            <path class="cls-9" d="M721.2,338.4s24.6-12.5,34.1-39.7c9.5-27.2-3.3-15.1-8.4-6.4-5.1,8.8-25.5,34.3-31,32.7"/>
            <path class="cls-9" d="M716.9,337.5c7.8.4,28.7-19.8,35.6-27.3,6.8-7.5,21.8-11.3,4.5,13.3-16.6,23.6-34.9,33.6-48.9,33.6"/>
          </g>
          <g>
            <path class="cls-9" d="M579.9,297.8c-20.7-5.4-37-23.1-39.2-34.6-1.5-8.4,7.5-40.8,40.9-27.5,33.4,13.2-.9,10.2,16.8,21.8"/>
            <path class="cls-9" d="M581.5,244.8s6.9-11.7,27.7-15.1c20.1-3.2,13.4,3.4,7,7.1-6.4,3.7-25.3,11.5-24.1,15.5"/>
            <path class="cls-9" d="M570.8,244.2s9.5-14.2,29.7-20.9c20.1-6.7,11.1,2.6,4.6,6.2-6.5,3.6-22.8,15.7-21.7,19.8"/>
            <path class="cls-9" d="M562.5,247.6s7.2-19.9,28.3-31.2c21.1-11.3,12.8.7,6.3,6-6.6,5.3-25.9,20.9-23.8,25.2"/>
            <path class="cls-9" d="M552.6,248.3s4.2-22.5,23.6-36.4c19.4-13.9,12.8-.9,7,5.2-5.8,6.1-21.4,28.3-18.8,32.3"/>
            <path class="cls-9" d="M554.3,251.6c-2.2-6.1,9-27.5,13.4-34.7,4.4-7.2,8-21.3-8-3.5s-22.3,38.7-19,49.9"/>
          </g>
        </g>
      </g>
    </g>
  </g>
</svg>