<?xml version="1.0" encoding="UTF-8"?>
<svg xmlns="http://www.w3.org/2000/svg" version="1.1" xmlns:xlink="http://www.w3.org/1999/xlink" viewBox="0 0 1280 960">
  <defs>
    <style>
      .cls-1 {
        fill: #2369c4;
        stroke-width: 5px;
      }

      .cls-1, .cls-2, .cls-3, .cls-4, .cls-5, .cls-6, .cls-7, .cls-8, .cls-9, .cls-10, .cls-11 {
        stroke: #000;
      }

      .cls-1, .cls-2, .cls-6, .cls-8, .cls-9, .cls-10, .cls-11 {
        stroke-linejoin: round;
      }

      .cls-2, .cls-3, .cls-4, .cls-5, .cls-6, .cls-7, .cls-8, .cls-9, .cls-10 {
        stroke-linecap: round;
      }

      .cls-2, .cls-3, .cls-5, .cls-9, .cls-10, .cls-11 {
        stroke-width: 3px;
      }

      .cls-2, .cls-12 {
        fill: #333;
      }

      .cls-3, .cls-4, .cls-5, .cls-7 {
        stroke-miterlimit: 10;
      }

      .cls-3, .cls-4, .cls-8, .cls-10 {
        fill: none;
      }

      .cls-4, .cls-6, .cls-7, .cls-8 {
        stroke-width: 2px;
      }

      .cls-13 {
        fill: #4d4d4d;
      }

      .cls-14, .cls-6, .cls-9 {
        fill: #fff;
      }

      .cls-15 {
        fill: #dd644b;
      }

      .cls-5, .cls-7 {
        fill: #ecd6c9;
      }

      .cls-16 {
        fill: gray;
      }

      .cls-11 {
        fill: #e6e6e6;
      }

      .cls-17 {
        clip-path: url(#clippath);
      }
    </style>
    <clipPath id="clippath">
      <path class="cls-14" d="M499,428.6c-36.1-37.3-84.2-27.5-119.7-17.2-56.9,16.6-49.2,63.4-61.6,83-12.4,19.6-16.6,66.4-3,91.8,10.9,20.3,39.1,39.9,61.2,51.5,5.5,8.1,12,16.4,13.9,20.9,3.1,7.1,23.9,17.1,35,16.5,11.1-.6,24.9-4.8,32-13.2,6.7-8,29-24.1,37.1-36.1,26.8-13.6,39.8-28.6,55.4-63.3,19.6-43.3-14.2-96.6-50.4-133.9Z"/>
    </clipPath>
  </defs>
  <!-- Generator: Adobe Illustrator 28.7.4, SVG Export Plug-In . SVG Version: 1.2.0 Build 166)  -->
  <g>
    <g id="_圖層_1" data-name="圖層_1">
      <rect class="cls-15" x="-437" y="-1754.5" width="4992" height="3793"/>
      <g>
        <polygon class="cls-1" points="501.6 895.2 129.4 771.6 778.4 448.1 1150.6 571.6 501.6 895.2"/>
        <g>
          <path d="M967.7,585.9c-18.2,6.4-109.2,33.7-128.3,49.2s-65.5,41.9-111.1,42.8-89.1-5.6-110.1,36.4c-23.7,47.3-86.5,56.4-150.2,41s-102.9-63.7-25.5-109.2,147.5-22.3,202.1-47.3c53.7-24.6,153.8-94.7,161.1-85.6s-21.8,25.5-18.2,45.5c3.6,20-10.9,45.5,21.8,39.1,32.8-6.4,158.4-11.8,158.4-11.8Z"/>
          <path d="M349.1,661.9l37.8-18.7,57.8,26s-12.7,57.9-18.2,44.6c-10.9-26.4-77.4-51.9-77.4-51.9Z"/>
          <path d="M391.5,737.9c0,18.2-15.5,10.9-20,10s-41,7.3-50.1,3.6c-9.1-3.6-11.9-4.8-23.3-6.9-11.3-2.2-25.9-9.4-15.9-14s56.4-8.2,38.2-20.9c-18.2-12.7-25.4-20.7-25.4-20.7l38.4-19.1s42.5,40.8,53.4,47.1c10.9,6.4,4.6,20.9,4.6,20.9Z"/>
          <path d="M559.9,739.8c0,19.2,58.3,43.7,56.4,54.6-1.8,10.9-19,29.6-20.4,36.2-1.4,6.6-45.9-2.8-56.9-.7s-25.5-16.4-25.5-21.8,23.7-15.5,16.4-20.9c-7.3-5.5,9.1-20-4.6-33.7-13.7-13.7,34.6-14.6,34.6-13.7Z"/>
        </g>
        <g>
          <g>
            <path class="cls-5" d="M387.3,713.3s-18.3-13.5-21.5-8.7c-3.2,4.8-23.8,8.7-27.8,9.5-1.8.4-4.3.7-6.6,1.9-8.1,2.2-30.8,4.5-36.3,4.5s-1.6,8.7-1.6,8.7c3.2,1.3,20.7,1.5,28.6.8,2.5,8.6,26.6,7.7,31.8,4.8,5.6-3.2,20.7,0,20.7,0,0,0,1.6-.8,1.6,5.6s0,8.7,4.8,10.3c4.8,1.6,8.7.8,8.7-4s0-9.5,1.6-17.5-4-15.9-4-15.9Z"/>
            <path class="cls-5" d="M302.3,734.8c-1.6,0-12.7,3.2-17.5,2.4-4.8-.8-8.7-8.7-.8-9.5,7.9-.8,23.8-3.2,30.2-5.6,6.4-2.4,17.5-4,17.5-4"/>
            <path class="cls-5" d="M326.9,737.1s-18.3,4.8-23.8,6.4c-5.6,1.6-12.7,3.2-13.5-3.2-.8-6.4,7.9-7.9,15.9-10.3,7.9-2.4,23.8-7.9,23.8-7.9"/>
            <path class="cls-5" d="M353.9,734.8s-11.9,4-15.1,6.4-13.5,11.9-19.1,11.1c-5.6-.8-10.3-3.2-6.4-7.2,4-4,19.1-11.9,21.5-17.5"/>
          </g>
          <g>
            <path class="cls-5" d="M616.7,785.2s2.4,15.1-2.4,19.9c-4.8,4.8-11.1,8.7-23.8,11.9s-35-5.6-36.5-11.9c-1.6-6.4,0-11.9-4-12.7-4-.8-18.3.8-22.2-2.4-4-3.2-3.2-8.7.8-9.5s10.3,0,14.3-.8c4-.8,15.9-3.2,21.5-1.6,5.6,1.6,23.8-.8,25.4-4,1.6-3.2,27,11.1,27,11.1Z"/>
            <path class="cls-5" d="M559.5,792.4c-3.2,1.6-17.5,6.4-25.4,7.2-7.9.8-19.1.8-21.5,4s-3.2,6.6,1.6,9.5c6.4,4,33.4-.8,40.5-1.6"/>
            <path class="cls-5" d="M559.6,801s-23.2,14.2-28.3,16.8c-3.5,1.8-5.3,5.3-3.9,8.6.6,1.5,4,5,11,4.1,8-1,21.6-12.9,26-15.4"/>
            <path class="cls-5" d="M566.6,809.1s-14.3,13.5-16.7,15.1-3.2,6.4,0,8.7c3.3,2.5,8.5,2.6,12.7.8,4.9-2.1,9.5-7.5,11.9-11.1,3.2-4.8,7.9-8.7,7.9-8.7"/>
            <path class="cls-5" d="M585.7,812.3s-2.4,13.5-2.4,16.7,1.6,5.6,8.7,4.8c7.2-.8,6.4-20.7,9.5-23"/>
          </g>
          <path class="cls-2" d="M741,407.9c-.7,0-1.4,0-2.1-.2-5.3-1.2-8.7-6.5-7.5-11.9,6.3-28,17.9-52,35.5-73.4,16.4-19.9,37.7-37.2,65.1-52.8,18.2-10.3,44.1-27.3,64.3-49.6,18.3-20.2,27.2-39.7,26.5-57.9-1.7-44.3-35.8-75.4-84.9-77.4-27.1-1.1-46.4,7.9-57.7,15.7-13.2,9-21.2,20.1-23,26.6-1.5,5.3-6.9,8.4-12.2,6.9-5.3-1.5-8.4-6.9-6.9-12.2,3.5-12.6,15.3-27,30.9-37.7,13.8-9.5,37.2-20.5,69.8-19.1,14.4.6,28,3.4,40.4,8.3,12.3,4.8,23.3,11.6,32.6,20.1,9.4,8.6,16.8,18.8,22,30.2,5.4,11.7,8.3,24.4,8.9,37.9.9,23.5-9.7,47.7-31.6,71.9-22,24.3-49.8,42.6-69.2,53.6-51.2,29-80.1,65-91,113.3-1,4.6-5.2,7.8-9.7,7.7Z"/>
          <g>
            <g>
              <path class="cls-5" d="M782.9,475c15.7,1.1,18.9,15.6,21.3,22.9,2.4,7.3,10.4,15,1.2,24.4s-33.5,9.1-44.4,1.2c-10.9-7.9-15.7-21.1-9.2-32.1,6.5-11,19.8-17.2,31.2-16.4Z"/>
              <path class="cls-4" d="M766,486.4s13.4-1.6,16.8,11.5c3.4,13.1-7.1,20.2-7.1,20.2"/>
              <path class="cls-5" d="M791.9,484.5s7.9-5.4,3.9-10c-4.2-4.8-13,2-13,2"/>
              <path class="cls-5" d="M797.5,491.8s7.6-6.6,3.6-11.2c-4.2-4.8-11.7,3.5-11.7,3.5"/>
              <path class="cls-5" d="M802.7,499.3s8.9-5.1,5.1-11.1-10.2,2.2-13.1,3.4"/>
              <path class="cls-5" d="M806.4,506.7s9.8-4.2,6.4-9.6c-3.9-6-14.4,1.9-14.4,1.9"/>
              <path class="cls-5" d="M803.8,523.7s15.7-4.7,16.2-11.9-5.5-12.7-16.5-5.3c0,0-1.7,8.1,1,9.9"/>
              <path class="cls-7" d="M785.3,480.9c1.2,2.9,20.6,22.2,17.2,30.5"/>
            </g>
            <path class="cls-2" d="M568.5,440c2.6,25.7-6.2,126,4.1,156.9,10.3,30.9,44.7,36.2,67.8,23.3,23.1-12.9,47.9-38.8,73.6-59.3,25.7-20.6,50.9-34.9,55.5-41.6,6.3-9.2-4.1-28.8-22.1-23.6s-67.9,23.6-67.9,23.6c0,0,19-62.7,13.9-96.1"/>
            <path d="M618.1,524.9s49.2-2.7,72.4,43.9c16.7,33.6,47.8-99.4,47.8-99.4l-108.3,13.7-11.8,41.9Z"/>
          </g>
          <g>
            <path class="cls-5" d="M887.3,566.9c10-2.7.8-18.2,12.4-27.7,11.6-9.4,27.5-3.5,33.2,6,5.7,9.5,10.8,14.8,28.3,16.6,17.5,1.8,23.3,6.1,23.7,8.7s-.5,8.7-2,9.8c-1.6,1.1-4.8,2.4-12.4,3.5-7.6,1.1-18.6,8.7-42.6,15.7-24,6.9-53.2,8.5-59.3,13.7s-25.7-40.3-19.2-43c6.5-2.7,27.5-.5,37.9-3.3Z"/>
            <path class="cls-4" d="M891.5,564.4s6.4-4.6,20,5.5"/>
            <path class="cls-4" d="M928.9,578.1s-4.6,10.9-19.1,6.4"/>
            <path class="cls-8" d="M970.5,583.8s7.4-8,7.5-14"/>
            <path class="cls-8" d="M976.3,576.1s3.9,2.1,8,1.5"/>
            <path class="cls-8" d="M974.3,579.8s1.9,1.9,5.4,2.1"/>
          </g>
          <path class="cls-9" d="M791.3,578.7c-3.6,16.3-3.6,19.9-3.6,19.9"/>
          <path class="cls-2" d="M875.3,568.2c-8.1,1-30.9-1.8-53.7,2.7-16.5,3.3-30.2,7.6-30.2,7.6,2.6-15.4,7.7-84.9,2.6-131.2-3.2-28.8-15.4-47.7-28.4-60.3-.9-1.3-2-2.6-3.1-3.6-24.6-22.8-127.4-108.2-212.3-108.2s-125.5,69.9-160.7,110.2c-12.5,14.3.7,82,52.4,66.8,31.4-9.2,32.8-13.7,68.6-5.4,17.5,4,53.6,38.6,71.8,38.6s30,2.7,102,4.6c3.3,0,6.6,0,9.7-.3l-9,22c-2.6,38.6,16.5,100.3,19,118.3,2.2,15.3,0,23.1,18,36,18,12.9,43.6,6.3,54.1,1.5,11.8-5.5,36.1-25.1,55.5-35.5,25.5-13.7,53.7-23.7,53.7-23.7,7.7-15.4-2.7-41-10-40.1Z"/>
          <g>
            <path class="cls-2" d="M416.2,356.8s-25.2,13.9-35.5,39.6-7.7,59.2-5.1,97.7c2.6,38.6-10.3,69.4-10.3,105.5s2.6,100.3-10.3,108c0,15.4,23.1,23.1,36,10.3-2.6-20.6,20.6-97.7,30.9-128.6,10.3-30.9,5.8-95.5,22.1-138.9,7.7-20.6,15.4-20.6,15.4-20.6"/>
            <path class="cls-8" d="M403.8,383.5s-10.8,21.7-12.6,47"/>
            <path class="cls-6" d="M409.2,538.9s-7.2,10.8-9,18.1"/>
          </g>
          <path class="cls-14" d="M634.1,426.2c38.7,41.4,91.8,28.8,87.8,55.1-2.7,18.2-34.6,14.6-37.3,41,0,0-46-15.9-48.7-44.1s-1.8-51.9-1.8-51.9Z"/>
          <path class="cls-10" d="M684.9,511.6c-2.6,38.6,16.5,100.3,19,118.3"/>
          <path class="cls-10" d="M625.9,487.2s54.6,29.1,89.2-.9"/>
          <g>
            <path class="cls-2" d="M644.3,415.3c.9,8.8-2.5,32.1-2.8,55.9-.6,45.7-3.5,106.7-8.5,135.5-7.7,43.7,2.6,72,0,105.5-2.6,33.4-15.4,72-15.4,84.9-20.6,7.7-38.6-10.3-36-23.1,0,0,2.6,0,5.1-5.1,2.6-5.1-7.7-72-5.1-110.6,2.6-38.6-2.6-74.6-2.6-110.6s-16.5-48.9-13.9-95.2"/>
            <path class="cls-8" d="M622.7,609.3c-7.7,5.1-7.7,18-12.9,25.7"/>
          </g>
          <g>
            <path class="cls-5" d="M464.3,453.9c-14.6,20.4-23.3,8.7-52.4,52.4-20.7,31-8.7,78.6,14.6,93.1,16.7,10.4,46.6,26.2,72.8,8.7,26.2-17.5,30.1-25.2,37.5-40,13.7-27.3,18.6-52.6,15.5-72.8-1.8-11.8-7.3-20-16.4-25.5-10.8-6.5-24.6-3.6-24.6-3.6"/>
            <path class="cls-5" d="M534.1,503.4c-2.9-5.8-17.5,0-20.4,11.6-2.9,11.6-5.8,29.1,11.6,23.3"/>
            <path class="cls-12" d="M458.5,410.2c2.9,20.4-2.9,52.4-8.7,64l81.5-5.8c-2.9-5.8-2.9-11.6,2.9-20.4,5.8-8.7,20.4-2.9,26.2,2.9,0,0-15.5-27.5-51-38.5-35.5-10.9-50.9-2.3-50.9-2.3Z"/>
            <path class="cls-10" d="M558.5,448.9c-5.8-5.8-18.6-9.6-24.4-.8-5.8,8.7-5.8,14.6-2.9,20.4"/>
            <path class="cls-10" d="M458.5,410.2c2.9,20.4-2.9,52.4-8.7,64"/>
          </g>
          <g>
            <path class="cls-9" d="M379.3,411.5c35.5-10.3,83.6-20.1,119.7,17.2,36.1,37.3,69.9,90.7,50.4,133.9s-34.9,55.9-78.2,73.4c-38.2,15.5-58.1,17.8-80.1,8.9-21.9-8.9-62.8-33.2-76.4-58.7-13.6-25.5-9.5-72.3,3-91.8,12.4-19.6,4.7-66.4,61.6-83Z"/>
            <path class="cls-2" d="M350.3,435.5c-15.5,5.6-35.7,28.3-53.5,49.3-17.8,21-31.6,41-33.8,50.7-4,17.6,40.8,0,49.3-2.8,8.5-2.8,54.9,2.8,73.2-11.3,0,0-4.2-97.2-35.2-85.9Z"/>
            <g>
              <path class="cls-14" d="M499,428.6c-36.1-37.3-84.2-27.5-119.7-17.2-56.9,16.6-49.2,63.4-61.6,83-12.4,19.6-16.6,66.4-3,91.8,10.9,20.3,39.1,39.9,61.2,51.5,5.5,8.1,12,16.4,13.9,20.9,3.1,7.1,23.9,17.1,35,16.5,11.1-.6,24.9-4.8,32-13.2,6.7-8,29-24.1,37.1-36.1,26.8-13.6,39.8-28.6,55.4-63.3,19.6-43.3-14.2-96.6-50.4-133.9Z"/>
              <g class="cls-17">
                <path class="cls-12" d="M551.5,569.1c-27.8,37.1-35,45.3-56.6,49.4-21.6,4.1-26.3,18-37.6,25.2s-27.2,14.6-40.2-2.1c-14.4-18.5-26.8-24.7-34-46.3-4.1,25.7,7.2,42.2-7.2,52.5-10.9,7.8-12.9,20.1-27.3,5.7-14.4-14.4-170.9-88.5-123.5-163.7,47.4-75.2,186.3-122.5,186.3-122.5l81.3,7.2,92.7,166.8-34,27.8Z"/>
              </g>
            </g>
            <path class="cls-10" d="M375.9,637.8c-22.1-11.6-50.4-31.2-61.2-51.5-13.6-25.5-9.5-72.3,3-91.8,12.4-19.6,4.7-66.4,61.6-83,35.5-10.3,83.6-20.1,119.7,17.2,36.1,37.3,69.9,90.7,50.4,133.9-15.8,34.9-28.9,49.9-56.1,63.6"/>
            <g>
              <path class="cls-11" d="M445.2,509.4c8.2,8.2,29.9,21.8,46.2,17.7,16.3-4.1,34-1.4,42.2-15,8.2-13.6,0-19-4.1-24.5-4.1-5.4-10.9-16.3-27.2-16.3s-57.1,38.1-57.1,38.1Z"/>
              <path class="cls-16" d="M510,490.3c-9.7-1.6-16.9,17.8-25,22.7-10.3,6.2-6.2,12.4,2.1,11.3,7.2-.9,20.1-2.3,29.4-6.5,17.8-8.1,3.2-25.9-6.5-27.5Z"/>
              <path class="cls-13" d="M510.4,496.5c-3.8,0-7.9,9.2-9.9,15.4-2.1,6.2,6.2,7.2,12.4,4.1s1.4-19.5-2.4-19.5Z"/>
              <path class="cls-2" d="M445.2,470c-5.4,9.5-16.3,36.7-2.7,42.2,13.6,5.4,20.4,9.5,35.4-4.1,15-13.6,23-29.9,35.4-29.9s16.2,29.7,21.6,31.1c9.5,2.4,17.3-13.6-10.7-31.1-14.1-8.8-25.8-31.3-35.4-35.4"/>
            </g>
            <path d="M439.7,603.3c-3.7,2.5-4.5,6.8,2.5,14.9,8.7,9.9,23.5,7.4,28.5-3.7s-1.3-9.8-6.7-11.2c-5.4-1.4-18.6-3.7-24.2,0Z"/>
            <path class="cls-2" d="M427.8,606.6c2.4,3.5,37.9,3.5,48.5,0,10.6-3.5,10.6-11.8,16.6-20.1"/>
            <path class="cls-4" d="M496.9,526.7c-3.6,15.4-6,27.3-16.1,42.1"/>
            <path class="cls-4" d="M422.1,580.7c0,7.1-3.6,19-3,25.5"/>
            <path class="cls-10" d="M368.2,624.7c4,10,18.5,26.9,21.6,34,3.1,7.1,23.9,17.1,35,16.5s24.9-4.8,32-13.2c7.1-8.4,31.6-25.9,38.3-38.1"/>
            <path class="cls-3" d="M430.2,669.2c-3.6,2.7-12.7,2.7-11.8,5.5"/>
            <path class="cls-3" d="M434.9,633.9c-3.5,9.8-6.2,10.6-8,18.6"/>
          </g>
        </g>
      </g>
    </g>
  </g>
</svg>