<?xml version="1.0" encoding="UTF-8"?>
<svg xmlns="http://www.w3.org/2000/svg" version="1.1" xmlns:xlink="http://www.w3.org/1999/xlink" viewBox="0 0 1280 960">
  <defs>
    <style>
      .cls-1 {
        fill: #2369c4;
        stroke-width: 5px;
      }

      .cls-1, .cls-2, .cls-3, .cls-4, .cls-5, .cls-6, .cls-7, .cls-8, .cls-9, .cls-10, .cls-11, .cls-12 {
        stroke: #000;
      }

      .cls-1, .cls-6, .cls-8, .cls-10 {
        stroke-linejoin: round;
      }

      .cls-13, .cls-4, .cls-5 {
        fill: #ecd6c9;
      }

      .cls-2 {
        stroke-width: 1.5px;
      }

      .cls-2, .cls-3, .cls-14, .cls-6, .cls-7 {
        fill: none;
      }

      .cls-2, .cls-3, .cls-4, .cls-5, .cls-6, .cls-7, .cls-8, .cls-10, .cls-11, .cls-12 {
        stroke-linecap: round;
      }

      .cls-2, .cls-3, .cls-4, .cls-5, .cls-7, .cls-9, .cls-11, .cls-12 {
        stroke-miterlimit: 10;
      }

      .cls-3, .cls-5, .cls-6, .cls-8, .cls-10 {
        stroke-width: 2px;
      }

      .cls-15, .cls-9, .cls-10, .cls-11 {
        fill: #534741;
      }

      .cls-16 {
        fill: #dd644b;
      }

      .cls-17 {
        clip-path: url(#clippath-1);
      }

      .cls-4, .cls-9, .cls-11, .cls-12 {
        stroke-width: 3px;
      }

      .cls-18 {
        clip-path: url(#clippath-3);
      }

      .cls-8 {
        fill: #282320;
      }

      .cls-19 {
        fill: #cc9fad;
      }

      .cls-20 {
        fill: #ff7bac;
      }

      .cls-21 {
        clip-path: url(#clippath-2);
      }

      .cls-22 {
        clip-path: url(#clippath);
      }

      .cls-12 {
        fill: #e5cfac;
      }

      .cls-23 {
        fill: #e6e6e6;
      }
    </style>
    <clipPath id="clippath">
      <path class="cls-14" d="M572.8,360.5c-33.3,4.5-44.2,32.6-50.6,56.4-6.4,23.7-19.9,95.1-25.5,111.5-5.6,16.4-33.3,96.9-39.1,111.5-3.6,9.1,6.6,19.2,16.6,22.1,9.2,2.6,14,3.9,21.6-3.9,12.4-12.5,49.9-60.6,59.9-92.2,10.7-33.9,8.3-45.8,29.3-110.5"/>
    </clipPath>
    <clipPath id="clippath-1">
      <path class="cls-14" d="M604.5,516.1s59.6-.9,76.4-6c16.8-5.1,54-26.4,99.1-25.3,16,.4,25.9-5.8,32.6.2,9.1,8.2,13,27.6,10.9,31.9-4,8.4-22,11.4-29.3,15.2-17.2,8.8-30.6,24.5-51.1,35.6s-81.1,51.7-98.6,51.3c-17.5-.3-40-102.9-40-102.9Z"/>
    </clipPath>
    <clipPath id="clippath-2">
      <path class="cls-14" d="M684.2,429.6c-32.8,51.9-28.2,67.4-31.9,112-2.7,33,23.7,32.8,29.1,71,2.4,16.5,4,58.9-36.4,71-36.4,10.9-102-1.8-122.9-80.1-11.7-43.7-21.8-89.2-15.5-126.5,6.4-37.3,10-132,78.3-137.5,63.7-5.1,130.6,40.4,99.2,90.1Z"/>
    </clipPath>
    <clipPath id="clippath-3">
      <path class="cls-14" d="M646.9,567.1s59.6,6.2,77.5.7c17.9-5.5,54.5-42.8,102.7-41.7,17,.4,24.8-3.8,33.7,0,12.7,5.5,15.8,29.1,13.7,33.7-4.2,9.1-21.2,13-29.1,17.1-18.3,9.5-32.6,26.3-54.5,38.2-21.9,11.9-135.9,76.5-154.6,76.2s10.6-124.2,10.6-124.2Z"/>
    </clipPath>
  </defs>
  <!-- Generator: Adobe Illustrator 28.7.4, SVG Export Plug-In . SVG Version: 1.2.0 Build 166)  -->
  <g>
    <g id="_圖層_1" data-name="圖層_1">
      <rect class="cls-16" x="-1737" y="-1754.5" width="4992" height="3793"/>
      <g>
        <polygon class="cls-1" points="501.6 859.5 129.4 735.9 778.4 412.4 1150.6 535.9 501.6 859.5"/>
        <path d="M646.3,758c-6,4.3-9.9-8.4-31.8.7s-18.2-7.3-27.3-7.3-15.5-9.1-20.9-12.7c-4-2.7-14.6-14.6,10-20,3.1-.7,1.4-3.1-1.8-5.5-6.4-4.6,0-15.5-9.1-18.2-12.3-3.7-30.1-10.6-41-30.9-8.2-15.3-28.2,22.8-36.4,26.4-8.2,3.6-19.1-8.2-30.9-5.5-11.8,2.7-32.8,10-36.4,6.4-3.6-3.6-37.4.5-37.8-16.1-.4-16.7,14.8-12.2,30.4-12.6,15.6-.4-47.2-44.1-47.2-44.1l41-20.9s61.9,23.7,76.5,21.8c14.6-1.8,100.9-123.6,176.1-128.3,75.2-4.6,146.2-15.6,177.1-1.9,30.9,13.7,118.1,31.7,97.4,55.5-11.8,13.7-49.3,16.4-89.2,45.5-43.7,31.9-64.6,46.4-94.7,60.1-17.3,7.9-50.3,22.3-58.3,30-17.3,16.9-10.7,14.9-18.2,25.5-10.9,15.5-17.4,45.1-27.4,52.1Z"/>
        <g>
          <g>
            <path class="cls-4" d="M667.8,704.5s2,20.7-2.8,25.5c-4.8,4.8-9.7,9.1-22.4,12.3-12.7,3.2-35-5.6-36.5-11.9-1.6-6.4,0-11.9-4-12.7-4-.8-18.3.8-22.2-2.4-4-3.2-3.2-8.7.8-9.5,4-.8,10.3,0,14.3-.8,4-.8,15.9-3.2,21.5-1.6,5.6,1.6,23.8-.8,25.4-4,1.6-3.2,26,5.2,26,5.2Z"/>
            <path class="cls-4" d="M611.6,717.6c-3.2,1.6-17.5,6.4-25.4,7.2-7.9.8-19.1.8-21.5,4s-3.2,6.6,1.6,9.5c6.4,4,33.4-.8,40.5-1.6"/>
            <path class="cls-4" d="M611.7,726.2s-23.2,14.2-28.3,16.8c-3.5,1.8-5.3,5.3-3.9,8.6.6,1.5,4,5,11,4.1,8-1,21.6-12.9,26-15.4"/>
            <path class="cls-4" d="M618.7,734.3s-14.3,13.5-16.7,15.1c-2.4,1.6-3.2,6.4,0,8.7,3.3,2.5,8.5,2.6,12.7.8,4.9-2.1,9.5-7.5,11.9-11.1,3.2-4.8,7.9-8.7,7.9-8.7"/>
            <path class="cls-4" d="M637.8,737.5s-2.4,13.5-2.4,16.7,1.6,5.6,8.7,4.8c7.2-.8,6.4-20.7,9.5-23"/>
          </g>
          <g>
            <path class="cls-4" d="M488.5,653.1s-18.3-13.5-21.5-8.7c-3.2,4.8-23.8,8.7-27.8,9.5-1.8.4-4.3.7-6.6,1.9-8.1,2.2-30.8,4.5-36.3,4.5s-1.6,8.7-1.6,8.7c3.2,1.3,20.7,1.5,28.6.8,2.5,8.6,26.6,7.7,31.8,4.8,5.6-3.2,20.7,0,20.7,0,0,0,1.6-.8,1.6,5.6s0,8.7,4.8,10.3c4.8,1.6,8.7.8,8.7-4s0-9.5,1.6-17.5c1.6-7.9-4-15.9-4-15.9Z"/>
            <path class="cls-4" d="M403.5,674.6c-1.6,0-12.7,3.2-17.5,2.4-4.8-.8-8.7-8.7-.8-9.5,7.9-.8,23.8-3.2,30.2-5.6,6.4-2.4,17.5-4,17.5-4"/>
            <path class="cls-4" d="M428.2,676.9s-18.3,4.8-23.8,6.4c-5.6,1.6-12.7,3.2-13.5-3.2-.8-6.4,7.9-7.9,15.9-10.3s23.8-7.9,23.8-7.9"/>
            <path class="cls-4" d="M455.2,674.6s-11.9,4-15.1,6.4c-3.2,2.4-13.5,11.9-19.1,11.1-5.6-.8-10.3-3.2-6.4-7.2,4-4,19.1-11.9,21.5-17.5"/>
          </g>
          <path class="cls-12" d="M572.8,360.5c-33.3,4.5-44.2,32.6-50.6,56.4-6.4,23.7-19.9,95.1-25.5,111.5-5.6,16.4-33.3,96.9-39.1,111.5-3.6,9.1,6.6,19.2,16.6,22.1,9.2,2.6,14,3.9,21.6-3.9,12.4-12.5,49.9-60.6,59.9-92.2,10.7-33.9,8.3-45.8,29.3-110.5l-12.2-94.8Z"/>
          <g class="cls-22">
            <path d="M508.9,542.9c5.5,27.3,6.7,97.4-28.5,120.6-35.2,23.2,44,9.6,44,9.6l54.6-80.1,3.6-88.3-73.7,38.2Z"/>
          </g>
          <g>
            <g>
              <path class="cls-4" d="M833.5,467.1c15.7-1.1,20.9,12.9,24.2,19.8,3.3,6.9,12.4,13.4,4.5,24-7.9,10.6-32,13.6-43.8,7.3-11.9-6.3-18.5-18.7-13.5-30.5,4.9-11.8,17.2-19.8,28.6-20.6Z"/>
              <path class="cls-3" d="M818.3,480.6s13-3.4,18.2,9.1c5.2,12.5-4.3,21-4.3,21"/>
              <path class="cls-4" d="M843.7,475.2s7.1-6.5,2.5-10.5c-4.8-4.2-12.6,3.7-12.6,3.7"/>
              <path class="cls-4" d="M850.3,481.6s6.6-7.6,2.1-11.6c-4.8-4.2-11.1,5.1-11.1,5.1"/>
              <path class="cls-4" d="M856.5,488.4s8.1-6.3,3.5-11.7c-4.2-4.8-9.8,3.5-12.5,5.2"/>
              <path class="cls-4" d="M861.2,495.2s9.2-5.5,5-10.4c-4.7-5.4-14,3.8-14,3.8"/>
              <path class="cls-4" d="M861,512.4s14.9-6.9,14.5-14c-.5-7.1-7.2-11.9-17.1-3,0,0-.6,8.2,2.4,9.6"/>
              <path class="cls-5" d="M836.8,472.6c1.6,2.7,23.5,19.1,21.2,27.9"/>
            </g>
            <path class="cls-12" d="M604.5,516.1s59.6-.9,76.4-6c16.8-5.1,54-26.4,99.1-25.3,16,.4,25.9-5.8,32.6.2,9.1,8.2,13,27.6,10.9,31.9-4,8.4-22,11.4-29.3,15.2-17.2,8.8-30.6,24.5-51.1,35.6s-81.1,51.7-98.6,51.3c-17.5-.3-40-102.9-40-102.9Z"/>
            <g class="cls-17">
              <path d="M825.2,526.1c-34.1-10.5-71.5,14.1-89.7,12.3-18.2-1.8-24.6,5.5-33.7-20.9-4.1-12-110.1-39.1-116.5,1.8-6.4,41,6.8,140.6,113.8,89.2,54.5-26.2,160.2-71.9,126.1-82.4Z"/>
            </g>
            <path d="M622.3,544.9s-2.2,10.5-3.7,24.6c7.7,25,17.4,49.3,25.9,49.5,9.7.2,32.4-12.1,54.3-25h0c-36,5.9-76.5-49.2-76.5-49.2Z"/>
          </g>
          <path class="cls-12" d="M684.2,429.6c-32.8,51.9-28.2,67.4-31.9,112-2.7,33,23.7,32.8,29.1,71,2.4,16.5,4,58.9-36.4,71-36.4,10.9-102-1.8-122.9-80.1-11.7-43.7-21.8-89.2-15.5-126.5,6.4-37.3,10-132,78.3-137.5,63.7-5.1,130.6,40.4,99.2,90.1Z"/>
          <g class="cls-21">
            <path d="M635.4,491.1s-10.9,162.9-48.2,197.5c-43.5,40.3,51.9,59.2,103.8,26.4,51.9-32.8,44.6-61,44.6-61,0,0-82.8-118.3-100.1-162.9Z"/>
          </g>
          <path class="cls-23" d="M559,379.1c11.3,5,23.3,4.8,33.7,5.5,28.2,1.8,34.6,27.3,27.3,54.6-7.1,26.7-14.6,55.5-19.1,86.5s7.3,93.8-8.2,122-51.9-14.6-61.9-46.4c-10.8-34.4-18.2-93.8-18.2-108.3,0-20.9,8.7-76.9,15.5-91.9,8.2-18.2,22.8-25.5,30.9-21.8Z"/>
          <path d="M578.2,354.5s7.3,12.7,3.6,16.4c0,0-26.5,0-31-15.5-4.9-16.6,27.4-.9,27.4-.9Z"/>
          <path class="cls-12" d="M651.4,355s3.6-27.3,10-37.3c6.4-10-77.4,17.3-77.4,17.3,0,0,1.8,32.8-3.6,37.3"/>
          <path d="M651.4,355s3.6-27.3,10-37.3c6.4-10-77.4,17.3-77.4,17.3,0,0,2.7,23,22.2,16.8s44.6-8.2,45.1,3.2Z"/>
          <g>
            <g>
              <path class="cls-9" d="M541.3,194.8c-7.3-10,0-17.1-4.6-22.8-4.1-5.1-4.7-10.6-5.5-16.2-3.4-24.9,9-50.2,14.3-54,7.9-5.6,27.1,6.8,27.5,45.4.1,9.7,6.7,26.9,16.8,23.6-20.2,21.3-48.6,23.9-48.6,23.9Z"/>
              <path class="cls-20" d="M549.9,184.3c-8.2-8.2-3.9-13.7-9.7-27.4-5.8-13.7,3.7-35,11.3-34.5,11.7.8,13.1,41.5,22.1,50.1"/>
              <path class="cls-3" d="M566.3,146.1s1.8,15.5-.9,21.8"/>
              <path class="cls-3" d="M536.7,142c1.8,7.3,1.8,14.6,10,21.8"/>
            </g>
            <path class="cls-12" d="M628.7,165.6c-33.7-5.5-60.4,1.3-74.6,10-13.9,8.5-21.6,17.5-26.4,25.5s-8.4,9.6-13.7,12.7c-9.1,5.5-9.1,16.4-6.4,22.8,4.2,9.9,2.9,12.5,1.5,27.1-1.4,14.6,6.3,24,9,36.1,2.8,12.2,17.3,62.8,49.8,63.8,26,.9,36.6-6.9,44.3-9.7,7.6-2.8,45.5-10.9,64.6-45.1,16.8-30,21.4-64.9,18.3-86.8-3.1-21.9-32.8-51-66.5-56.4Z"/>
            <g>
              <path class="cls-3" d="M652.4,171.1c.2,2.9-11.8,8.2-22.8,10"/>
              <path class="cls-15" d="M641.9,187c1.6-6.4,5.8-8.7,9.2-17,3.3-8.3-1.7-28.3,16.6-48.3s28.3,0,30,6.7c1.7,6.7,13.3,31.6,11.6,43.3-1.7,11.6,7.8,24.2,0,33.3-6.3,7.3-9.8,13.4-15.5,20.3-3.4,4.1-.9,12.7-11.8,12.7-15.5,0-17.1-19.4-22.3-28.7-6.8-12.3-20.5-11.4-17.8-22.3Z"/>
              <path class="cls-3" d="M696.5,219.8c-6.4,5.5-3.2,20.5-9.6,27.8"/>
              <path class="cls-11" d="M646.9,189.3c1.8-6.4.8-11,4.2-19.3,3.3-8.3-1.7-28.3,16.6-48.3s28.3,0,30,6.7c1.7,6.7,13.3,31.6,11.6,43.3-1.7,11.6,7.8,24.2,0,33.3-10,11.6-15,28.3-30,23.3"/>
              <path class="cls-20" d="M699.3,193.3c11.3-15.8-8.3-15-3.3-25,5-10-9.4-37.9-17.7-39.6-8.3-1.7-19.7,24-16.4,37.3,3.3,13.3,2.8,44.8,20,43.7s12.9-10.2,17.4-16.5Z"/>
              <path class="cls-3" d="M688.3,164.3c3.6,12.7,15.5,14.6,16.4,27.3"/>
              <path class="cls-3" d="M664.6,138.8c-3.6,6.4-7.3,35.5-3.6,48.2"/>
            </g>
            <path class="cls-3" d="M630,271.7c-12.7-19.1-39.1-16.4-52.8-31.9-11.5-13-26.4-17.5-36.4-15.5-10,2-9.4,7.1-18.2,18.2-3.6,4.6-8.2,8.2-8.2,8.2"/>
            <g>
              <path class="cls-5" d="M605.5,282.3c9.3,2.6,13.9,13.5,12.8,27.4-1,13.9-1.9,28-8.5,36.3-5.5,6.9-11.5,10.4-23.6,11.8-11.8,1.3-9.4,3.1-18.1,2.4-8.7-.7-11.1-3.1-15.3-6.6-4.2-3.5-9-4.9-14.2-12.8-5.2-8-9.7-27.1-10.4-35.8-.7-8.7-3.8-26,9.4-25.7,13.2.3,18.4,4.2,33.3,3.5,14.9-.7,26.4-2.8,34.6-.5Z"/>
              <path class="cls-2" d="M557.8,340.5c.7-1,2.1-1.4,4.9-1.4,4.9,0,10.1,2.4,12.2,2.8,2.1.3,2.4,1.4,2.4,1.4"/>
              <g>
                <path d="M597.2,303.5c.2,1.8-1.2,3.5-3.3,3.8s-3.9-.9-4.2-2.7c-.2-1.8.7-3,2.8-3.3s4.4.5,4.6,2.3Z"/>
                <path class="cls-13" d="M586.9,304.4s1.7-2.4,6.3-2.4,6.6,2.4,6.6,2.4v-5.5c-.1,0-12.6,1.8-12.6,1.8l-.3,3.7Z"/>
                <path class="cls-7" d="M588.6,303c1-.6,2.5-1.1,4.6-1.1s3.9.6,5,1.2"/>
              </g>
              <g>
                <path d="M539,297.7c-.5,1.7.7,3.6,2.6,4.2,2,.6,4-.3,4.5-2.1.5-1.7-.3-3.1-2.2-3.7-2-.6-4.4-.2-4.9,1.5Z"/>
                <path class="cls-13" d="M536.3,298.2s2.4-2.1,6.9-1.4,5.8,3.4,5.8,3.4l-1-5.7h-10.2l-1.4,3.8Z"/>
                <path class="cls-7" d="M547.3,298.4c-.9-.7-2.2-1.3-4.2-1.6s-3.8,0-5,.4"/>
              </g>
              <path class="cls-3" d="M580.9,297.7s-3.8,0-5.9,2.5c-2.1,2.4-2.5,5-2.5,5"/>
              <path class="cls-3" d="M552.2,296c4.5,3.5,6,7.6,5.6,13.5-.3,5.9-1.7,10.1-3.1,12.8-1.4,2.8-.1,4.8,2.7,6.4"/>
              <path class="cls-19" d="M557.4,323.5c2.8-.3,6.2,1.6,7.5,2.3,1.6.9,3.6,2.3.9,3s-7.8-.2-9.7-2.1c-.9-.9,0-3,1.4-3.1Z"/>
              <path class="cls-3" d="M591.3,293.3s3.5-1.4,7.4,1.7"/>
              <path class="cls-3" d="M544.5,289.4s-3.2-1.9-7.6.5"/>
            </g>
            <g>
              <path d="M622.7,239.3c.7,4.9-3.3,9.5-8.9,10.3-5.6.8-10.7-2.6-11.4-7.5-.7-4.9,2-8.3,7.7-9,5.6-.8,12,1.3,12.7,6.2Z"/>
              <path d="M514.9,223.4c-3.5,2.8-3.7,8.4-.4,12.4,3.3,4,8.7,4.9,12.2,2.1s3.8-6.7.5-10.7c-3.3-4-8.8-6.6-12.3-3.7Z"/>
            </g>
            <g>
              <path class="cls-8" d="M543.5,347.2s-33.7-64.6,1.9-63.7c38.1.9,52.7,29.1,64.5,63.7,25.5-46.4-53.2-87.8-73.2-87.8s-44.2,44.1,6.7,87.8Z"/>
              <path class="cls-10" d="M540.8,275.3c19.1,1.8,72.7,19.1,58.2,79.2,41-10.9,39.1-33.6,38.2-44.6-.9-10.9-9.5-26.9-24.9-38.7-15.5-11.8-32.1-13.1-40.1-22.8-8-9.7-15.1-15.5-23.1-17.1-13.6-2.7-14,4.8-20,9.7-6,4.8-10,12.9-14,16.2-4,3.2-12.2,9.9-13.6,22.7-1.8,16.4,6.4,57.3,41,66.5,0,0-18.6-27.8-19.5-36-.7-6.4,1.4-27.8,17.8-35Z"/>
              <path class="cls-3" d="M540.8,275.3s-2.7-11.8,0-15.5"/>
              <path class="cls-8" d="M542.4,242.9c-8.8-2.2-13.4,3.6-15.1,10.7-1.7,7,19.4,12.3,27.8,8.7,8.3-3.5-5.6-17.6-12.6-19.4Z"/>
            </g>
          </g>
          <g>
            <g>
              <path class="cls-4" d="M863.4,523.6c10-2.7.8-18.2,12.4-27.7,11.6-9.4,27.5-3.5,33.2,6,5.7,9.5,10.8,14.8,28.3,16.6,17.5,1.8,23.3,6.1,23.7,8.7s-.5,8.7-2,9.8-4.8,2.4-12.4,3.5c-7.6,1.1-18.6,8.7-42.6,15.7s-53.2,8.5-59.3,13.7c-6.2,5.2-25.7-40.3-19.2-43,6.5-2.7,27.5-.5,37.9-3.3Z"/>
              <path class="cls-3" d="M867.6,521.1s6.4-4.6,20,5.5"/>
              <path class="cls-3" d="M905,534.8s-4.6,10.9-19.1,6.4"/>
              <path class="cls-6" d="M946.6,540.5s7.4-8,7.5-14"/>
              <path class="cls-6" d="M952.3,532.8s3.9,2.1,8,1.5"/>
              <path class="cls-6" d="M950.4,536.4s1.9,1.9,5.4,2.1"/>
            </g>
            <path class="cls-12" d="M646.9,567.1s59.6,6.2,77.5.7c17.9-5.5,52.7-42.8,100.9-41.7,17,.4,26.6-3.8,35.5,0,12.7,5.5,15.8,29.1,13.7,33.7-4.2,9.1-21.2,13-29.1,17.1-18.3,9.5-32.6,26.3-54.5,38.2-21.9,11.9-135.9,76.5-154.6,76.2s10.6-124.2,10.6-124.2Z"/>
            <g class="cls-18">
              <path d="M630,635.8s-18.2,58.3-73.7,37.3c-55.5-20.9,82.8,74.6,134.7,41.9,51.9-32.8,49.2-68.3,49.2-68.3,0,0-92.8,33.7-110.1-10.9Z"/>
            </g>
          </g>
          <path class="cls-12" d="M658.6,355.9c41,16.4,47.7,43.1,39.3,113.7-8.3,70.2-5.4,94.6-9.9,131.6-4.2,34.5-12.9,81.5-20.3,103.5-3.6,10.8-19.1,13-28.1,8.5s-9-16.8-9.3-33.3,4.3-84.4,6.9-102.5c2.6-18-2.7-69.7-.9-97.1,1.6-23.5-5-39.8-5-39.8"/>
        </g>
      </g>
    </g>
  </g>
</svg>