<?xml version="1.0" encoding="UTF-8"?>
<svg xmlns="http://www.w3.org/2000/svg" version="1.1" xmlns:xlink="http://www.w3.org/1999/xlink" viewBox="0 0 1280 960">
  <defs>
    <style>
      .cls-1 {
        fill: #2369c4;
        stroke-width: 5px;
      }

      .cls-1, .cls-2, .cls-3, .cls-4, .cls-5, .cls-6, .cls-7, .cls-8, .cls-9, .cls-10, .cls-11, .cls-12, .cls-13 {
        stroke: #000;
      }

      .cls-1, .cls-10 {
        stroke-linejoin: round;
      }

      .cls-14 {
        clip-path: url(#clippath-4);
      }

      .cls-2, .cls-3, .cls-4, .cls-5, .cls-6, .cls-7, .cls-8, .cls-9, .cls-10, .cls-11, .cls-12, .cls-13 {
        stroke-linecap: round;
      }

      .cls-2, .cls-3, .cls-4, .cls-5, .cls-6, .cls-7, .cls-8, .cls-9, .cls-11, .cls-12, .cls-13 {
        stroke-miterlimit: 10;
      }

      .cls-2, .cls-3, .cls-4, .cls-15, .cls-10, .cls-11 {
        fill: none;
      }

      .cls-2, .cls-7, .cls-8, .cls-12, .cls-13 {
        stroke-width: 3px;
      }

      .cls-16, .cls-8, .cls-9 {
        fill: #ecd6c9;
      }

      .cls-3 {
        stroke-width: 1.5px;
      }

      .cls-4, .cls-6, .cls-9, .cls-10 {
        stroke-width: 2px;
      }

      .cls-5 {
        fill: #1a1a1a;
      }

      .cls-17, .cls-13 {
        fill: #fff;
      }

      .cls-6 {
        fill: #f2f2f2;
      }

      .cls-7, .cls-18 {
        fill: #333;
      }

      .cls-19 {
        fill: #dd644b;
      }

      .cls-20 {
        clip-path: url(#clippath-1);
      }

      .cls-21 {
        fill: #666;
      }

      .cls-22 {
        clip-path: url(#clippath-3);
      }

      .cls-23 {
        fill: #cc9fad;
      }

      .cls-12, .cls-24 {
        fill: #ccc;
      }

      .cls-25 {
        clip-path: url(#clippath-2);
      }

      .cls-26 {
        clip-path: url(#clippath);
      }
    </style>
    <symbol id="_新增符號" data-name="新增符號" viewBox="0 0 3.3 6">
      <path class="cls-4" d="M2.3,1s-1.3,1.3-1.3,4"/>
    </symbol>
    <clipPath id="clippath">
      <path class="cls-15" d="M572.8,360.4c-33.3,4.5-44.2,32.6-50.6,56.4-6.4,23.7-19.9,95.1-25.5,111.5-5.6,16.4-33.3,96.9-39.1,111.5-3.6,9.1,6.6,19.2,16.6,22.1,9.2,2.6,14,3.9,21.6-3.9,12.4-12.5,49.9-60.6,59.9-92.2,10.7-33.9,8.3-45.8,29.3-110.5"/>
    </clipPath>
    <clipPath id="clippath-1">
      <path class="cls-15" d="M604.5,516s59.6-.9,76.4-6c16.8-5.1,54-26.4,99.1-25.3,16,.4,25.9-5.8,32.6.2,9.1,8.2,13,27.6,10.9,31.9-4,8.4-22,11.4-29.3,15.2-17.2,8.8-30.6,24.5-51.1,35.6-20.5,11.1-81.1,51.7-98.6,51.3s-40-102.9-40-102.9Z"/>
    </clipPath>
    <clipPath id="clippath-2">
      <path class="cls-15" d="M684.2,429.5c-32.8,51.9-28.2,67.4-31.9,112-2.7,33,23.7,32.8,29.1,71,2.4,16.5,4,58.9-36.4,71-36.4,10.9-102-1.8-122.9-80.1-11.7-43.7-21.8-89.2-15.5-126.5s10-132,78.3-137.5c63.7-5.1,130.6,40.4,99.2,90.1Z"/>
    </clipPath>
    <clipPath id="clippath-3">
      <path class="cls-15" d="M646.9,567s59.6,6.2,77.5.7c17.9-5.5,54.5-42.8,102.7-41.7,17,.4,24.8-3.8,33.7,0,12.7,5.5,15.8,29.1,13.7,33.7-4.2,9.1-21.2,13-29.1,17.1-18.3,9.5-32.6,26.3-54.5,38.2-21.9,11.9-135.9,76.5-154.6,76.2-18.7-.4,10.6-124.2,10.6-124.2Z"/>
    </clipPath>
    <clipPath id="clippath-4">
      <path class="cls-15" d="M579.5,137.8c-19.6-.2-42.3,4.6-55.3,21.5-13,16.9-16.9,26-22.1,37.8-5.2,11.7,2.6,28.6-1.3,40.4-3.9,11.7-15.6,29.9-6.5,44.3,0,0-8.3,38,14.7,54.6,21.3,15.3,18.7,23,30.6,31.5,11.9,8.5,48.8,14.5,74.9-7.7,26-22.1,54.8-35.7,63.8-58.7,9-23,9.9-39.2,3.4-56.1-6.5-16.9-18.2-36.5-20.8-48.2-2.6-11.7-24.7-58.6-81.4-59.2Z"/>
    </clipPath>
  </defs>
  <!-- Generator: Adobe Illustrator 28.7.4, SVG Export Plug-In . SVG Version: 1.2.0 Build 166)  -->
  <g>
    <g id="_圖層_1" data-name="圖層_1">
      <rect class="cls-19" x="-3037" y="-1754.5" width="4992" height="3793"/>
      <g>
        <polygon class="cls-1" points="501.6 859.4 129.4 735.8 778.4 412.3 1150.6 535.8 501.6 859.4"/>
        <path d="M646.3,757.9c-6,4.3-9.9-8.4-31.8.7-21.8,9.1-18.2-7.3-27.3-7.3s-15.5-9.1-20.9-12.7c-4-2.7-14.6-14.6,10-20,3.1-.7,1.4-3.1-1.8-5.5-6.4-4.6,0-15.5-9.1-18.2-12.3-3.7-30.1-10.6-41-30.9-8.2-15.3-28.2,22.8-36.4,26.4-8.2,3.6-19.1-8.2-30.9-5.5-11.8,2.7-32.8,10-36.4,6.4s-37.4.5-37.8-16.1c-.4-16.7,14.8-12.2,30.4-12.6s-47.2-44.1-47.2-44.1l41-20.9s61.9,23.7,76.5,21.8,100.9-123.6,176.1-128.3c75.2-4.6,146.2-15.6,177.1-1.9s118.1,31.7,97.4,55.5c-11.8,13.7-49.3,16.4-89.2,45.5-43.7,31.9-64.6,46.4-94.7,60.1-17.3,7.9-50.3,22.3-58.3,30-17.3,16.9-10.7,14.9-18.2,25.5-10.9,15.5-17.4,45.1-27.4,52.1Z"/>
        <g>
          <g>
            <path class="cls-8" d="M667.8,704.4s2,20.7-2.8,25.5c-4.8,4.8-9.7,9.1-22.4,12.3-12.7,3.2-35-5.6-36.5-11.9s0-11.9-4-12.7c-4-.8-18.3.8-22.2-2.4-4-3.2-3.2-8.7.8-9.5,4-.8,10.3,0,14.3-.8,4-.8,15.9-3.2,21.5-1.6,5.6,1.6,23.8-.8,25.4-4,1.6-3.2,26,5.2,26,5.2Z"/>
            <path class="cls-8" d="M611.6,717.5c-3.2,1.6-17.5,6.4-25.4,7.2-7.9.8-19.1.8-21.5,4s-3.2,6.6,1.6,9.5c6.4,4,33.4-.8,40.5-1.6"/>
            <path class="cls-8" d="M611.7,726.1s-23.2,14.2-28.3,16.8c-3.5,1.8-5.3,5.3-3.9,8.6.6,1.5,4,5,11,4.1,8-1,21.6-12.9,26-15.4"/>
            <path class="cls-8" d="M618.7,734.2s-14.3,13.5-16.7,15.1c-2.4,1.6-3.2,6.4,0,8.7,3.3,2.5,8.5,2.6,12.7.8,4.9-2.1,9.5-7.5,11.9-11.1,3.2-4.8,7.9-8.7,7.9-8.7"/>
            <path class="cls-8" d="M637.8,737.4s-2.4,13.5-2.4,16.7,1.6,5.6,8.7,4.8c7.2-.8,6.4-20.7,9.5-23"/>
          </g>
          <g>
            <path class="cls-8" d="M488.5,653s-18.3-13.5-21.5-8.7c-3.2,4.8-23.8,8.7-27.8,9.5-1.8.4-4.3.7-6.6,1.9-8.1,2.2-30.8,4.5-36.3,4.5s-1.6,8.7-1.6,8.7c3.2,1.3,20.7,1.5,28.6.8,2.5,8.6,26.6,7.7,31.8,4.8,5.6-3.2,20.7,0,20.7,0,0,0,1.6-.8,1.6,5.6s0,8.7,4.8,10.3c4.8,1.6,8.7.8,8.7-4s0-9.5,1.6-17.5-4-15.9-4-15.9Z"/>
            <path class="cls-8" d="M403.5,674.5c-1.6,0-12.7,3.2-17.5,2.4-4.8-.8-8.7-8.7-.8-9.5,7.9-.8,23.8-3.2,30.2-5.6,6.4-2.4,17.5-4,17.5-4"/>
            <path class="cls-8" d="M428.2,676.8s-18.3,4.8-23.8,6.4c-5.6,1.6-12.7,3.2-13.5-3.2-.8-6.4,7.9-7.9,15.9-10.3,7.9-2.4,23.8-7.9,23.8-7.9"/>
            <path class="cls-8" d="M455.2,674.5s-11.9,4-15.1,6.4c-3.2,2.4-13.5,11.9-19.1,11.1-5.6-.8-10.3-3.2-6.4-7.2,4-4,19.1-11.9,21.5-17.5"/>
          </g>
          <path class="cls-13" d="M572.8,360.4c-33.3,4.5-44.2,32.6-50.6,56.4-6.4,23.7-19.9,95.1-25.5,111.5-5.6,16.4-33.3,96.9-39.1,111.5-3.6,9.1,6.6,19.2,16.6,22.1,9.2,2.6,14,3.9,21.6-3.9,12.4-12.5,49.9-60.6,59.9-92.2,10.7-33.9,8.3-45.8,29.3-110.5l-12.2-94.8Z"/>
          <g class="cls-26">
            <path d="M508.9,542.8c5.5,27.3,6.7,97.4-28.5,120.6-35.2,23.2,44,9.6,44,9.6l54.6-80.1,3.6-88.3-73.7,38.2Z"/>
          </g>
          <g>
            <g>
              <path class="cls-8" d="M833.5,467c15.7-1.1,20.9,12.9,24.2,19.8,3.3,6.9,12.4,13.4,4.5,24-7.9,10.6-32,13.6-43.8,7.3-11.9-6.3-18.5-18.7-13.5-30.5,4.9-11.8,17.2-19.8,28.6-20.6Z"/>
              <path class="cls-4" d="M818.3,480.5s13-3.4,18.2,9.1c5.2,12.5-4.3,21-4.3,21"/>
              <path class="cls-8" d="M843.7,475.1s7.1-6.5,2.5-10.5c-4.8-4.2-12.6,3.7-12.6,3.7"/>
              <path class="cls-8" d="M850.3,481.5s6.6-7.6,2.1-11.6c-4.8-4.2-11.1,5.1-11.1,5.1"/>
              <path class="cls-8" d="M856.5,488.3s8.1-6.3,3.5-11.7c-4.2-4.8-9.8,3.5-12.5,5.2"/>
              <path class="cls-8" d="M861.2,495.1s9.2-5.5,5-10.4c-4.7-5.4-14,3.8-14,3.8"/>
              <path class="cls-8" d="M861,512.3s14.9-6.9,14.5-14c-.5-7.1-7.2-11.9-17.1-3,0,0-.6,8.2,2.4,9.6"/>
              <path class="cls-9" d="M836.8,472.5c1.6,2.7,23.5,19.1,21.2,27.9"/>
            </g>
            <path class="cls-7" d="M604.5,516s59.6-.9,76.4-6c16.8-5.1,54-26.4,99.1-25.3,16,.4,25.9-5.8,32.6.2,9.1,8.2,13,27.6,10.9,31.9-4,8.4-22,11.4-29.3,15.2-17.2,8.8-30.6,24.5-51.1,35.6-20.5,11.1-81.1,51.7-98.6,51.3s-40-102.9-40-102.9Z"/>
            <g class="cls-20">
              <path d="M825.2,526c-34.1-10.5-71.5,14.1-89.7,12.3-18.2-1.8-24.6,5.5-33.7-20.9-4.1-12-110.1-39.1-116.5,1.8-6.4,41,6.8,140.6,113.8,89.2,54.5-26.2,160.2-71.9,126.1-82.4Z"/>
            </g>
            <path d="M622.3,544.8s-2.2,10.5-3.7,24.6c7.7,25,17.4,49.3,25.9,49.5,9.7.2,32.4-12.1,54.3-25h0c-36,5.9-76.5-49.2-76.5-49.2Z"/>
          </g>
          <path class="cls-7" d="M684.2,429.5c-32.8,51.9-28.2,67.4-31.9,112-2.7,33,23.7,32.8,29.1,71,2.4,16.5,4,58.9-36.4,71-36.4,10.9-102-1.8-122.9-80.1-11.7-43.7-21.8-89.2-15.5-126.5s10-132,78.3-137.5c63.7-5.1,130.6,40.4,99.2,90.1Z"/>
          <g class="cls-25">
            <path d="M635.4,598.4s-4.6,81.9-65.5,78.3c-59.2-3.5,69.2,71,121.1,38.2,51.9-32.8,44.6-61,44.6-61,0,0-82.8-10.9-100.1-55.5Z"/>
          </g>
          <path class="cls-7" d="M651.4,354.9s3.6-27.3,10-37.3c6.4-10-77.4,17.3-77.4,17.3,0,0,1.8,32.8-3.6,37.3"/>
          <path d="M651.4,354.9s3.6-27.3,10-37.3c6.4-10-77.4,17.3-77.4,17.3,0,0-44.4,13.5-38.8,33.2,7.3,25.5,32,28.8,51.9,18.2,27.3-14.6,34.6-45.5,54.2-31.4Z"/>
          <g>
            <path class="cls-12" d="M682.6,547.2c31.6-10.3,33.4-56.5,48.6-78.8,15.1-22.3,26.3-73.2,23.9-90.8-2.4-17.5,8.8-12.7,15.5.4,5.9,11.5,22.7,41,23.5,68.1.8,27.1-14.3,63.3-30.7,80.8-27.3,29.1-80.1,60.1-109.2,43.7-22.6-12.7-3-13.2,28.5-23.4Z"/>
            <g>
              <use width="3.3" height="6" transform="translate(778.1 480.5) rotate(-166.2) scale(.9 -.9)" xlink:href="#_新增符號"/>
              <use width="3.3" height="6" transform="translate(772.8 494.9) rotate(-153.2) scale(.9 -.9)" xlink:href="#_新增符號"/>
              <use width="3.3" height="6" transform="translate(762.8 504.7) rotate(-123.4) scale(.9 -.9)" xlink:href="#_新增符號"/>
              <use width="3.3" height="6" transform="translate(751.6 500.6) rotate(-108.5) scale(.9 -.9)" xlink:href="#_新增符號"/>
              <use width="3.3" height="6" transform="translate(764.2 474.2) rotate(-157.9) scale(.9 -.9)" xlink:href="#_新增符號"/>
              <use width="3.3" height="6" transform="translate(771 477.4) rotate(-156) scale(.9 -.9)" xlink:href="#_新增符號"/>
              <use width="3.3" height="6" transform="translate(771.9 504) rotate(-138) scale(.9 -.9)" xlink:href="#_新增符號"/>
              <use width="3.3" height="6" transform="translate(778.1 487.8) rotate(-162) scale(.9 -.9)" xlink:href="#_新增符號"/>
              <use width="3.3" height="6" transform="translate(766.7 488.5) rotate(-146.2) scale(.9 -.9)" xlink:href="#_新增符號"/>
              <use width="3.3" height="6" transform="translate(763.4 515.7) rotate(-148.8) scale(.9 -.9)" xlink:href="#_新增符號"/>
              <use width="3.3" height="6" transform="translate(731.9 523.6) rotate(-104.4) scale(.9 -.9)" xlink:href="#_新增符號"/>
              <use width="3.3" height="6" transform="translate(752.7 525.4) rotate(-112.5) scale(.9 -.9)" xlink:href="#_新增符號"/>
              <use width="3.3" height="6" transform="translate(764.8 408.3) rotate(-179.6) scale(.9 -.9)" xlink:href="#_新增符號"/>
              <use width="3.3" height="6" transform="translate(781.3 407) rotate(177.6) scale(.9 -.9)" xlink:href="#_新增符號"/>
              <use width="3.3" height="6" transform="translate(775.6 416) rotate(177) scale(.9 -.9)" xlink:href="#_新增符號"/>
              <use width="3.3" height="6" transform="translate(778.9 423.1) rotate(168.7) scale(.9 -.9)" xlink:href="#_新增符號"/>
              <use width="3.3" height="6" transform="translate(773.9 439.9) rotate(-158) scale(.9 -.9)" xlink:href="#_新增符號"/>
              <use width="3.3" height="6" transform="translate(768.9 460.8) rotate(-142.5) scale(.9 -.9)" xlink:href="#_新增符號"/>
              <use width="3.3" height="6" transform="translate(778.4 467.5) rotate(-164.8) scale(.9 -.9)" xlink:href="#_新增符號"/>
              <use width="3.3" height="6" transform="translate(754.5 481.6) rotate(-132) scale(.9 -.9)" xlink:href="#_新增符號"/>
              <use width="3.3" height="6" transform="translate(708.6 542.1) rotate(-128.4) scale(.9 -.9)" xlink:href="#_新增符號"/>
              <use width="3.3" height="6" transform="translate(787.1 461.7) rotate(-156.9) scale(.9 -.9)" xlink:href="#_新增符號"/>
              <use width="3.3" height="6" transform="translate(735.2 541.9) rotate(-110.4) scale(.9 -.9)" xlink:href="#_新增符號"/>
              <use width="3.3" height="6" transform="translate(718.9 554) rotate(-119.8) scale(.9 -.9)" xlink:href="#_新增符號"/>
              <use width="3.3" height="6" transform="translate(718.1 542) rotate(-117.1) scale(.9 -.9)" xlink:href="#_新增符號"/>
              <use width="3.3" height="6" transform="translate(705.4 550.1) rotate(-120.1) scale(.9 -.9)" xlink:href="#_新增符號"/>
              <use width="3.3" height="6" transform="translate(727.2 532) rotate(-110.7) scale(.9 -.9)" xlink:href="#_新增符號"/>
            </g>
          </g>
          <g>
            <g>
              <path class="cls-8" d="M863.4,523.5c10-2.7.8-18.2,12.4-27.7,11.6-9.4,27.5-3.5,33.2,6,5.7,9.5,10.8,14.8,28.3,16.6,17.5,1.8,23.3,6.1,23.7,8.7.4,2.5-.5,8.7-2,9.8-1.6,1.1-4.8,2.4-12.4,3.5-7.6,1.1-18.6,8.7-42.6,15.7-24,6.9-53.2,8.5-59.3,13.7s-25.7-40.3-19.2-43,27.5-.5,37.9-3.3Z"/>
              <path class="cls-4" d="M867.6,521s6.4-4.6,20,5.5"/>
              <path class="cls-4" d="M905,534.7s-4.6,10.9-19.1,6.4"/>
              <path class="cls-10" d="M946.6,540.4s7.4-8,7.5-14"/>
              <path class="cls-10" d="M952.3,532.7s3.9,2.1,8,1.5"/>
              <path class="cls-10" d="M950.4,536.3s1.9,1.9,5.4,2.1"/>
            </g>
            <path class="cls-7" d="M646.9,567s59.6,6.2,77.5.7c17.9-5.5,52.7-42.8,100.9-41.7,17,.4,26.6-3.8,35.5,0,12.7,5.5,15.8,29.1,13.7,33.7-4.2,9.1-21.2,13-29.1,17.1-18.3,9.5-32.6,26.3-54.5,38.2-21.9,11.9-135.9,76.5-154.6,76.2-18.7-.4,10.6-124.2,10.6-124.2Z"/>
            <g class="cls-22">
              <path d="M630,635.7s-18.2,58.3-73.7,37.3c-55.5-20.9,82.8,74.6,134.7,41.9,51.9-32.8,49.2-68.3,49.2-68.3,0,0-92.8,33.7-110.1-10.9Z"/>
            </g>
          </g>
          <path class="cls-13" d="M658.6,355.8c41,16.4,47.7,43.1,39.3,113.7-8.3,70.2-5.4,94.6-9.9,131.6-4.2,34.5-12.9,81.5-20.3,103.5-3.6,10.8-19.1,13-28.1,8.5-10.2-5-9-16.8-9.3-33.3-.2-16.5,4.3-84.4,6.9-102.5,2.6-18-2.7-69.7-.9-97.1,1.6-23.5-5-39.8-5-39.8"/>
          <g>
            <g>
              <path class="cls-7" d="M572.2,137.9c-12.8.5-22-7.3-25.9-12.5-3.9-5.2-18.2-24.7-28.6-20.8s-6.5,63.8,1.3,71.6c7.8,7.8,53.2-38.2,53.2-38.2Z"/>
              <path class="cls-6" d="M556.7,142.3c-7.8-1.3-11.7-9.1-14.3-14.3s-15.6-18.2-20.8-19.5c-5.2-1.3-5.2,1.3-6.5,5.2-1.3,3.9-5.2,9.1-6.5,18.2-1.3,9.1,5.2,16.9-2.6,26-7.8,9.1-3.9,13-1.3,14.3,2.6,1.3,1.3,11.7-6.5,19.5-7.8,7.8,6.5,22.1,6.5,22.1l52.1-71.6Z"/>
              <path class="cls-24" d="M543.5,146.9s-5.5-20-14.6-24.6-16.4,27.3-11.8,33.7,26.4,17.3,26.4-9.1Z"/>
              <path class="cls-4" d="M522.9,120.2s11.7,9.1,11.7,15.6"/>
              <path class="cls-4" d="M521.6,133.2s10.4,3.9,13,9.1"/>
              <path class="cls-4" d="M521.6,141c3.9,5.2,11.7,7.8,14.3,13"/>
              <path class="cls-4" d="M522.9,150.1s7.8,3.9,9.1,7.8"/>
            </g>
            <path class="cls-13" d="M579.5,137.8c-19.6-.2-42.3,4.6-55.3,21.5-13,16.9-16.9,26-22.1,37.8-5.2,11.7,2.6,28.6-1.3,40.4-3.9,11.7-15.6,29.9-6.5,44.3,0,0-8.3,38,14.7,54.6,21.3,15.3,18.7,23,30.6,31.5,11.9,8.5,48.8,14.5,74.9-7.7,26-22.1,54.8-35.7,63.8-58.7,9-23,9.9-39.2,3.4-56.1-6.5-16.9-18.2-36.5-20.8-48.2-2.6-11.7-24.7-58.6-81.4-59.2Z"/>
            <path d="M586.3,265.2c3.6,10,5.5,12.7,22.8,18.2,14.4,4.5-40.1,80.1-51,73.7s-45.5-30.9-48.2-78.3c-2.2-38.6,76.5-13.7,76.5-13.7Z"/>
            <g class="cls-14">
              <path class="cls-18" d="M543.7,212.6s3.5-9.9,6.5-16.9c3.9-9.1,10.2-17.4,20.8-15.6,7.8,1.3,10.4,6.5,9.1,11.7,10.4,2.6,20.8,7.8,26,15.6s24.7,5.2,35.2,18.2c10.4,13,10.4,20.8,10.4,20.8,0,0,2.6-19.5,0-31.2-2.6-11.7-14.3-26-18.2-36.5-3.9-10.4,13-44.3,13-44.3,0,0-101.6-28.6-100.2-28.6s-69,66.4-69,66.4l5.2,87.2s20.8-39.1,29.9-41.7c9.1-2.6,1.3-20.8,13-23.4,0,0-3.9-11.7,6.5-13,10.4-1.3,11.7,31.2,11.7,31.2Z"/>
            </g>
            <g>
              <path class="cls-9" d="M605.7,282.2c9.3,2.6,13.9,13.5,12.8,27.4-1,13.9-1.9,28-8.5,36.3-5.5,6.9-11.5,10.4-23.6,11.8-11.8,1.3-9.4,3.1-18.1,2.4-8.7-.7-11.1-3.1-15.3-6.6-4.2-3.5-9-4.9-14.2-12.8-5.2-8-9.7-27.1-10.4-35.8-.7-8.7-3.8-26,9.4-25.7,13.2.3,18.4,4.2,33.3,3.5,14.9-.7,26.4-2.8,34.6-.5Z"/>
              <path class="cls-3" d="M558,340.4c.7-1,2.1-1.4,4.9-1.4,4.9,0,10.1,2.4,12.2,2.8,2.1.3,2.4,1.4,2.4,1.4"/>
              <g>
                <path d="M597.4,303.4c.2,1.8-1.2,3.5-3.3,3.8s-3.9-.9-4.2-2.7c-.2-1.8.7-3,2.8-3.3s4.4.5,4.6,2.3Z"/>
                <path class="cls-16" d="M587.2,304.3s1.7-2.4,6.3-2.4,6.6,2.4,6.6,2.4v-5.5c-.1,0-12.6,1.8-12.6,1.8l-.3,3.7Z"/>
                <path class="cls-11" d="M588.9,302.9c1-.6,2.5-1.1,4.6-1.1s3.9.6,5,1.2"/>
              </g>
              <g>
                <path d="M539.2,297.6c-.5,1.7.7,3.6,2.6,4.2,2,.6,4-.3,4.5-2.1.5-1.7-.3-3.1-2.2-3.7-2-.6-4.4-.2-4.9,1.5Z"/>
                <path class="cls-16" d="M536.5,298.1s2.4-2.1,6.9-1.4,5.8,3.4,5.8,3.4l-1-5.7h-10.2l-1.4,3.8Z"/>
                <path class="cls-11" d="M547.6,298.3c-.9-.7-2.2-1.3-4.2-1.6s-3.8,0-5,.4"/>
              </g>
              <path class="cls-4" d="M581.1,297.6s-3.8,0-5.9,2.5c-2.1,2.4-2.5,5-2.5,5"/>
              <path class="cls-4" d="M552.4,295.9c4.5,3.5,6,7.6,5.6,13.5-.3,5.9-1.7,10.1-3.1,12.8-1.4,2.8-.1,4.8,2.7,6.4"/>
              <path class="cls-23" d="M557.6,323.4c2.8-.3,6.2,1.6,7.5,2.3,1.6.9,3.6,2.3.9,3-2.8.7-7.8-.2-9.7-2.1-.9-.9,0-3,1.4-3.1Z"/>
              <path class="cls-4" d="M591.5,293.2s3.5-1.4,7.4,1.7"/>
              <path class="cls-4" d="M544.7,289.3s-3.2-1.9-7.6.5"/>
            </g>
            <path d="M578.9,205.7c-3.7.9-4.6,3.5-4.2,4.9.8,2.3,3.5,3.9,7.2,2.6s3.8-3.8,3-5.3-3-3-6.1-2.3Z"/>
            <path d="M527.3,207c-.7,0-3,.7-3,3s1.5,3,2.2,3,3-.7,3-2.2-.7-3.7-2.2-3.7Z"/>
            <g>
              <path class="cls-17" d="M582.7,137.8c1.3-3.2,5.2-9.9,11.7-13.8,7.1-4.3,5.1-23.4,18.2-23.4s11.7,9.1,13,16.9c1.3,7.8,14.3,11.7,15.6,20.8,1.3,9.1,5.2,20.8,10.4,26s13.9,14.3,10.9,38.4c0,0-10.6-27.1-34.5-34.1-15.5-4.6-26.4-12.7-29.1-20-2.7-7.3-16.3-10.9-16.3-10.9Z"/>
              <path class="cls-18" d="M651.7,164.4c-4.5-3.9-9.1-16.9-10.4-26-1.3-9.1-14.3-13-15.6-20.8-1.3-7.8-6.5-16.9-13-16.9-13.1,0-11.1,19.1-18.2,23.4-6.5,3.9-10.4,10.6-11.7,13.8l16.3,15.4s17.3-45.4,21.8-35.5c4.6,10,11.1,13.3,14.6,17.3,5.5,6.4-.9,18.2,16.3,29.4Z"/>
              <path class="cls-2" d="M662.6,202.8c3.1-24.1-5.7-33.2-10.9-38.4s-9.1-16.9-10.4-26c-1.3-9.1-14.3-13-15.6-20.8-1.3-7.8-6.5-16.9-13-16.9-13.1,0-11.1,19.1-18.2,23.4-6.5,3.9-10.4,10.6-11.7,13.8"/>
              <path class="cls-6" d="M602.3,152.7c-5.2-3.9-12.2-19.7-6.5-24.7,11.7-10.4,6.5-20.8,14.3-22.1,7.8-1.3,13,20.8,19.5,27.3,6.5,6.5,7.6,15.5,4,31"/>
              <path class="cls-24" d="M611.6,158.8c-4.8-3.2-11.6-18.7-7.1-28.5,4.5-9.8,3.6-16.9,8.9-13.4,5.4,3.6,16.9,34.8,12.5,41.9-4.5,7.1-11.6,1.8-14.3,0Z"/>
              <path class="cls-21" d="M616.3,161.9c-2.9-2.4-9.8-11.7-6.8-16.6,2.9-4.9,8.8-7.8,11.7,0,2.9,7.8-1.9,19-4.9,16.6Z"/>
              <path class="cls-4" d="M609.9,114.1s9.2,8.5,11.8,17.3c2.7,9.1,2.7,19.1,2.7,19.1"/>
              <path class="cls-4" d="M629.6,172.3s7.8-1.3,11.7-5.2"/>
              <path class="cls-4" d="M636.1,174.9s7.8,0,13-3.9"/>
              <path class="cls-4" d="M641.3,180.1s9.1,1.3,13-1.3"/>
              <path class="cls-11" d="M604.1,127.9s7.4,3.2,9.7,12.5"/>
              <path class="cls-11" d="M603.2,143.3s3,4.9,9.2,5.9"/>
            </g>
            <g>
              <path class="cls-13" d="M533.1,205.7c1.3,8,0,17.4-8,25.4-8,8-9.4,17.4-13.4,21.4-4,4-8,9.4-6.7,16.1,1.3,6.7-1.3,18.7,6.7,21.4,8,2.7,8-1.3,14.7-1.3,6.7,0,20.1,5.4,30.8,1.3,10.7-4,24.1-21.4,29.4-24.1"/>
              <path class="cls-5" d="M517.1,256.6c-5.7,1.9-9.4,6.7-9.4,10.7s5.4,13.4,14.7,13.4,18.7-12,17.4-17.4-14.7-9.4-22.8-6.7Z"/>
              <path d="M510.4,265.9c-1.3,1.3,0,9.4,8,12,8,2.7,16.1-4,16.1-8s-9.4-6.7-14.7-6.7-8,1.3-9.4,2.7Z"/>
              <path class="cls-4" d="M540.3,222.9c-1.3,6.7-12.5,14.9-12.5,23"/>
            </g>
            <path class="cls-4" d="M659.1,260.7s10.9.9,14.6,9.1"/>
            <path class="cls-4" d="M660.9,274.3s8.2,1.8,11.8,10.9"/>
            <path class="cls-4" d="M661.8,291.6s5.5.9,9.1,7.3"/>
          </g>
          <path class="cls-18" d="M665.9,517.8c13.7,32.8,26,54,17.1,118,2-12,3.7-24,5-34.7,4.5-37.1,1.5-61.5,9.9-131.6,8.1-68,2.1-95.3-34.9-111.9-23.1-10.5-45.8,76-42.2,87.8s40.5-18,43.7,0c5.5,30.9-12.3,39.6,1.4,72.4Z"/>
          <path class="cls-2" d="M658.6,355.8c41,16.4,47.7,43.1,39.3,113.7-8.3,70.2-5.4,94.6-9.9,131.6-4.2,34.5-12.9,81.5-20.3,103.5-3.6,10.8-19.1,13-28.1,8.5-10.2-5-9-16.8-9.3-33.3-.2-16.5,4.3-84.4,6.9-102.5,2.6-18-2.7-69.7-.9-97.1,1.6-23.5-5-39.8-5-39.8"/>
          <path class="cls-17" d="M542.6,432.7c7.4,33.4,20.9,16.4,48.3-5.3,41.5-32.9,34.6,23.9,27.3,47.8-7.1,23.4-9.2,57.8-13.7,84.9-4.6,27.1,6.4,72.7-9.1,97.4-15.5,24.7-54.5-21.6-64.5-49.5-10.8-30.1-18.2-82.1-18.2-94.9,0-18.3,4.8-49.3,6.3-64,4.6-43.7,20-32.8,23.7-16.4Z"/>
        </g>
      </g>
    </g>
  </g>
</svg>