<?xml version="1.0" encoding="UTF-8"?>
<svg xmlns="http://www.w3.org/2000/svg" version="1.1" xmlns:xlink="http://www.w3.org/1999/xlink" viewBox="0 0 1280 960">
  <defs>
    <style>
      .cls-1 {
        fill: #2369c4;
        stroke-width: 5px;
      }

      .cls-1, .cls-2, .cls-3, .cls-4, .cls-5, .cls-6, .cls-7, .cls-8, .cls-9, .cls-10, .cls-11, .cls-12, .cls-13, .cls-14, .cls-15, .cls-16, .cls-17 {
        stroke: #000;
      }

      .cls-1, .cls-8, .cls-10, .cls-11, .cls-12 {
        stroke-linejoin: round;
      }

      .cls-2, .cls-3, .cls-4, .cls-18, .cls-10, .cls-12, .cls-13, .cls-16 {
        fill: none;
      }

      .cls-2, .cls-3, .cls-4, .cls-5, .cls-6, .cls-7, .cls-8, .cls-9, .cls-10, .cls-11, .cls-12, .cls-13, .cls-14, .cls-15, .cls-17 {
        stroke-linecap: round;
      }

      .cls-2, .cls-3, .cls-4, .cls-5, .cls-6, .cls-7, .cls-9, .cls-13, .cls-14, .cls-15, .cls-16, .cls-17 {
        stroke-miterlimit: 10;
      }

      .cls-2, .cls-5, .cls-7, .cls-11, .cls-12, .cls-16, .cls-17 {
        stroke-width: 3px;
      }

      .cls-19, .cls-7, .cls-9 {
        fill: #ecd6c9;
      }

      .cls-3 {
        stroke-width: 1.5px;
      }

      .cls-4, .cls-6, .cls-8, .cls-9, .cls-10, .cls-14, .cls-15 {
        stroke-width: 2px;
      }

      .cls-5, .cls-20, .cls-14 {
        fill: #333;
      }

      .cls-21 {
        fill: #dd644b;
      }

      .cls-22 {
        clip-path: url(#clippath-1);
      }

      .cls-6 {
        fill: #ff7bac;
      }

      .cls-8, .cls-11, .cls-17 {
        fill: #fff;
      }

      .cls-23 {
        fill: #cc9fad;
      }

      .cls-15 {
        fill: #1a1a1a;
      }

      .cls-24 {
        clip-path: url(#clippath);
      }
    </style>
    <clipPath id="clippath">
      <path class="cls-16" d="M874.4,505c-8.1,1-30.9-1.8-53.7,2.7s-30.2,7.6-30.2,7.6c2.6-15.4,7.7-84.9,2.6-131.2-3.1-28.3-15-47-27.8-59.6-1.1-1.6-2.4-3.1-3.8-4.3-41-36.4-68.3-38.2-93.8-30.9-25.5,7.3-44.6,42.8-68.3,30.9-23.7-11.9-66.5-51.2-97.4-61.9-77.3-26.8-114.3,30.5-119.1,68.2-1.1,2.1-2.2,4.3-3.1,6.7-10.3,25.7-7.7,59.2-5.1,97.7,2.6,38.6-10.3,69.4-10.3,105.5s2.6,100.3-10.3,108c0,15.4,23.1,23.1,36,10.3-2.6-20.6,20.6-97.7,30.9-128.6,7-20.9,7.2-57.3,11.6-92.1,39.2,23.3,92.3,32,133.9,32.7-.2,27.5.7,53.7,5.1,67,2.1,6.4,5.3,11.6,9.1,15.9.6,14.8.8,29.9-.2,45.4-2.6,38.6,7.7,105.5,5.1,110.6-2.6,5.1-5.1,5.1-5.1,5.1-2.6,12.9,15.4,30.9,36,23.1,0-12.9,12.9-51.4,15.4-84.9,2.2-28.7-5.1-53.7-2.3-87.8,3.4-1,6.7-2.4,9.7-4.1,16.5-9.1,33.8-24.9,51.6-40.6,5.3,22.5,10.7,42,11.9,50.4,2.2,15.3,0,23.1,18,36,18,12.9,43.6,6.3,54.1,1.5,11.8-5.5,36.1-25.1,55.5-35.5,25.5-13.7,53.7-23.7,53.7-23.7,7.7-15.4-2.7-41-10-40.1Z"/>
    </clipPath>
    <clipPath id="clippath-1">
      <path class="cls-18" d="M484.3,165.9c-24.6-9.1-32.8,12.6-42.8,25.5-8.9,11.5-13.5,23.6-35.5,41.9-32.8,27.3-20,44.6-43.7,81.9-9.7,15.3,33.7,27.3,21.8,61-3.4,9.8-20.9,57.3-100.1,15.5-68-35.9,32.8-85.1,48.2-101,26.4-27.3,31.9-61,22.8-66.5-6.7-4,7.3-42.8,41.9-67.4,18.4-13.1,53.3-33.2,53.3-31.4s34.1,40.5,34.1,40.5Z"/>
    </clipPath>
  </defs>
  <!-- Generator: Adobe Illustrator 28.7.4, SVG Export Plug-In . SVG Version: 1.2.0 Build 166)  -->
  <g>
    <g id="_圖層_1" data-name="圖層_1">
      <rect class="cls-21" x="-3037" y="-597.5" width="4992" height="3793"/>
      <g>
        <polygon class="cls-1" points="501.6 834.7 129.4 711.2 778.4 387.7 1150.6 511.2 501.6 834.7"/>
        <g>
          <path d="M966.8,522.7c-18.2,6.4-109.2,33.7-128.3,49.2s-65.5,41.9-111.1,42.8c-45.5.9-89.1-5.6-110.1,36.4-23.7,47.3-86.5,56.4-150.2,41-63.7-15.5-102.9-63.7-25.5-109.2,77.4-45.5,140.2-38.7,194.8-63.7,53.7-24.6,161.1-78.3,168.4-69.2,7.3,9.1-21.8,25.5-18.2,45.5,3.6,20-10.9,45.5,21.8,39.1,32.8-6.4,158.4-11.8,158.4-11.8Z"/>
          <path d="M348.2,598.8l37.8-18.7,57.8,26s-12.7,57.9-18.2,44.6c-10.9-26.4-77.4-51.9-77.4-51.9Z"/>
          <path d="M390.6,674.8c0,18.2-15.5,10.9-20,10-4.6-.9-41,7.3-50.1,3.6-9.1-3.6-11.9-4.8-23.3-6.9-11.3-2.2-25.9-9.4-15.9-14s56.4-8.2,38.2-20.9c-18.2-12.7-25.4-20.7-25.4-20.7l38.4-19.1s42.5,40.8,53.4,47.1,4.6,20.9,4.6,20.9Z"/>
          <path d="M559,676.6c0,19.2,58.3,43.7,56.4,54.6-1.8,10.9-19,29.6-20.4,36.2s-45.9-2.8-56.9-.7c-11,2.1-25.5-16.4-25.5-21.8s23.7-15.5,16.4-20.9c-7.3-5.5,9.1-20-4.6-33.7-13.7-13.7,34.6-14.6,34.6-13.7Z"/>
        </g>
        <g>
          <g>
            <path class="cls-7" d="M780.2,413.7c15.7,1.1,18.9,15.6,21.3,22.9,2.4,7.3,10.4,15,1.2,24.4-9.2,9.4-33.5,9.1-44.4,1.2-10.9-7.9-15.7-21.1-9.2-32.1,6.5-11,19.8-17.2,31.2-16.4Z"/>
            <path class="cls-4" d="M763.2,425s13.4-1.6,16.8,11.5c3.4,13.1-7.1,20.2-7.1,20.2"/>
            <path class="cls-7" d="M789.1,423.1s7.9-5.4,3.9-10c-4.2-4.8-13,2-13,2"/>
            <path class="cls-7" d="M794.7,430.4s7.6-6.6,3.6-11.2c-4.2-4.8-11.7,3.5-11.7,3.5"/>
            <path class="cls-7" d="M799.9,437.9s8.9-5.1,5.1-11.1c-3.5-5.4-10.2,2.2-13.1,3.4"/>
            <path class="cls-7" d="M803.7,445.3s9.8-4.2,6.4-9.6c-3.9-6-14.4,1.9-14.4,1.9"/>
            <path class="cls-7" d="M801.1,462.3s15.7-4.7,16.2-11.9-5.5-12.7-16.5-5.3c0,0-1.7,8.1,1,9.9"/>
            <path class="cls-9" d="M782.6,419.6c1.2,2.9,20.6,22.2,17.2,30.5"/>
          </g>
          <path class="cls-11" d="M567.6,376.8c2.6,25.7-6.2,126,4.1,156.9,10.3,30.9,44.7,36.2,67.8,23.3,23.1-12.9,47.9-38.8,73.6-59.3s50.9-34.9,55.5-41.6c6.3-9.2-4.1-28.8-22.1-23.6-18,5.1-67.9,23.6-67.9,23.6,0,0,19-62.7,13.9-96.1"/>
          <path class="cls-20" d="M645.2,433.5c60.3,0,60.8,31.3,57.4,43.5-3.5,12.2-26.1,45.2-48.7,40-22.6-5.2-34.8-33-36.5-52.2-1.7-19.1,13.9-31.3,27.8-31.3Z"/>
          <path d="M643.6,450.8s38.6,24.4,42.5,42.7c3.9,18.3,15.7-68.2,15.7-68.2l-58.3,25.5Z"/>
          <path class="cls-11" d="M383,342.2c-5.7-33.8,29.8-114.8,119.1-83.9,30.9,10.7,73.7,50,97.4,61.9s42.8-23.7,68.3-30.9c25.5-7.3,52.8-5.5,93.8,30.9,18.5,16.5,14.5,69.1-21.8,93.8-12.9,8.7-108.3,52.8-167.5,52.8s-145.6-16.4-179.3-70.1c-15.6-24.8-6.7-35.8-9.8-54.5Z"/>
          <g>
            <g>
              <path class="cls-7" d="M886.4,503.7c10-2.7.8-18.2,12.4-27.7,11.6-9.4,27.5-3.5,33.2,6,5.7,9.5,10.8,14.8,28.3,16.6,17.5,1.8,23.3,6.1,23.7,8.7.4,2.5-.5,8.7-2,9.8-1.6,1.1-4.8,2.4-12.4,3.5-7.6,1.1-18.6,8.7-42.6,15.7-24,6.9-53.2,8.5-59.3,13.7-6.2,5.2-25.7-40.3-19.2-43,6.5-2.7,27.5-.5,37.9-3.3Z"/>
              <path class="cls-4" d="M890.6,501.2s6.4-4.6,20,5.5"/>
              <path class="cls-4" d="M927.9,514.9s-4.6,10.9-19.1,6.4"/>
              <path class="cls-10" d="M969.6,520.7s7.4-8,7.5-14"/>
              <path class="cls-10" d="M975.3,512.9s3.9,2.1,8,1.5"/>
              <path class="cls-10" d="M973.4,516.6s1.9,1.9,5.4,2.1"/>
            </g>
            <path class="cls-11" d="M741.6,307c18,10.3,46.3,30.9,51.4,77.2,5.1,46.3,0,115.7-2.6,131.2,0,0,13.7-4.3,30.2-7.6,22.8-4.6,45.6-1.7,53.7-2.7,7.3-.9,17.7,24.6,10,40.1,0,0-28.2,10-53.7,23.7-19.4,10.4-43.7,30-55.5,35.5-10.6,4.9-36.1,11.4-54.1-1.5-18-12.9-15.8-20.7-18-36-2.6-18-25.1-88.7-22.5-127.3"/>
          </g>
          <path class="cls-11" d="M790.4,515.5c-3.6,16.3-3.6,19.9-3.6,19.9"/>
          <g>
            <g>
              <path class="cls-7" d="M386.4,650.1s-18.3-13.5-21.5-8.7c-3.2,4.8-23.8,8.7-27.8,9.5-1.8.4-4.3.7-6.6,1.9-8.1,2.2-30.8,4.5-36.3,4.5s-1.6,8.7-1.6,8.7c3.2,1.3,20.7,1.5,28.6.8,2.5,8.6,26.6,7.7,31.8,4.8,5.6-3.2,20.7,0,20.7,0,0,0,1.6-.8,1.6,5.6s0,8.7,4.8,10.3c4.8,1.6,8.7.8,8.7-4s0-9.5,1.6-17.5c1.6-7.9-4-15.9-4-15.9Z"/>
              <path class="cls-7" d="M301.4,671.6c-1.6,0-12.7,3.2-17.5,2.4-4.8-.8-8.7-8.7-.8-9.5s23.8-3.2,30.2-5.6c6.4-2.4,17.5-4,17.5-4"/>
              <path class="cls-7" d="M326,674s-18.3,4.8-23.8,6.4c-5.6,1.6-12.7,3.2-13.5-3.2-.8-6.4,7.9-7.9,15.9-10.3,7.9-2.4,23.8-7.9,23.8-7.9"/>
              <path class="cls-7" d="M353,671.6s-11.9,4-15.1,6.4c-3.2,2.4-13.5,11.9-19.1,11.1-5.6-.8-10.3-3.2-6.4-7.2,4-4,19.1-11.9,21.5-17.5"/>
            </g>
            <path class="cls-11" d="M415.3,293.6s-25.2,13.9-35.5,39.6c-10.3,25.7-7.7,59.2-5.1,97.7,2.6,38.6-10.3,69.4-10.3,105.5s2.6,100.3-10.3,108c0,15.4,23.1,23.1,36,10.3-2.6-20.6,20.6-97.7,30.9-128.6,10.3-30.9,5.8-95.5,22.1-138.9,7.7-20.6,15.4-20.6,15.4-20.6"/>
            <path class="cls-10" d="M402.9,320.3s-10.8,21.7-12.6,47"/>
            <path class="cls-8" d="M408.3,475.7s-7.2,10.8-9,18.1"/>
          </g>
          <g>
            <g class="cls-24">
              <path class="cls-20" d="M670,391.6c25.6,0,25.8,13.2,24.3,18.4-1.5,5.2-3.4,21.3-20.6,16.9-17.2-4.4-14.7-14-15.5-22.1-.7-8.1,5.9-13.2,11.8-13.2Z"/>
              <path d="M567.2,431.7c-1.8,28.2-28.2,33.7-28.2,33.7,0,0,23.7,6.4,54.6-1.8,38.2-10.1-26.4-31.9-26.4-31.9Z"/>
              <path class="cls-20" d="M729.2,271.5c-29.1-15.5-225.2-54-228-23.2-3.6,39.1-44.1,188.9-44.1,188.9,28.1,11.2,52.5,10.2,72.8-2.7,12.6-8,19.4-32.1,26.4-45.5,19.1-36.4,56.4-41,86.5-26.4s61-3.6,65.5-30.9,50.1-44.6,20.9-60.1Z"/>
              <path class="cls-20" d="M732.4,350c-5.1,26.3-23,20.1-22.3,43.2.7,23.8,39.8,29.6,57.2,16.7,18.1-13.5,10.4-39.4,2.4-54-3.5-6.5-13.2-16.4-21.5-19.8-8.7-3.6-14.7,8-15.8,13.8Z"/>
              <path class="cls-20" d="M427.1,450.9c-21.1,21.1-33.8,35-46.5,9.7-12.7-25.3-46-62.6-21.9-78.9,24.1-16.3,58.7-66.5,78-6.2,19.3,60.3-9.7,75.4-9.7,75.4Z"/>
              <path d="M365.1,448.1s21.8-18.2,76.5-3.6l-3.6-88.3h-79.2l6.4,91.9Z"/>
              <path class="cls-20" d="M770.1,429c-13.3,7.8-29.1,17.3-20,41.9,9.1,24.6,33.7,24.6,34.6,41,.9,16.4,50.1,32.8,51-24.6.9-57.3-42.6-104.8-42.6-104.8,0,0-7.5,37.4-22.9,46.5Z"/>
              <path class="cls-20" d="M682.8,476.3c3.6,13.7,22.8,4.6,41,15.5,18.2,10.9,10.9,26.4,1.8,32.8-9.1,6.4-15.5,7.3-29.1,21.8-3.6-20-7.3-20.9-13.7-70.1Z"/>
            </g>
            <path class="cls-16" d="M874.4,505c-8.1,1-30.9-1.8-53.7,2.7s-30.2,7.6-30.2,7.6c2.6-15.4,7.7-84.9,2.6-131.2-3.1-28.3-15-47-27.8-59.6-1.1-1.6-2.4-3.1-3.8-4.3-41-36.4-68.3-38.2-93.8-30.9-25.5,7.3-44.6,42.8-68.3,30.9-23.7-11.9-66.5-51.2-97.4-61.9-77.3-26.8-114.3,30.5-119.1,68.2-1.1,2.1-2.2,4.3-3.1,6.7-10.3,25.7-7.7,59.2-5.1,97.7,2.6,38.6-10.3,69.4-10.3,105.5s2.6,100.3-10.3,108c0,15.4,23.1,23.1,36,10.3-2.6-20.6,20.6-97.7,30.9-128.6,7-20.9,7.2-57.3,11.6-92.1,39.2,23.3,92.3,32,133.9,32.7-.2,27.5.7,53.7,5.1,67,2.1,6.4,5.3,11.6,9.1,15.9.6,14.8.8,29.9-.2,45.4-2.6,38.6,7.7,105.5,5.1,110.6-2.6,5.1-5.1,5.1-5.1,5.1-2.6,12.9,15.4,30.9,36,23.1,0-12.9,12.9-51.4,15.4-84.9,2.2-28.7-5.1-53.7-2.3-87.8,3.4-1,6.7-2.4,9.7-4.1,16.5-9.1,33.8-24.9,51.6-40.6,5.3,22.5,10.7,42,11.9,50.4,2.2,15.3,0,23.1,18,36,18,12.9,43.6,6.3,54.1,1.5,11.8-5.5,36.1-25.1,55.5-35.5,25.5-13.7,53.7-23.7,53.7-23.7,7.7-15.4-2.7-41-10-40.1Z"/>
          </g>
          <path class="cls-12" d="M741.6,307c18,10.3,46.3,30.9,51.4,77.2,5.1,46.3,0,115.7-2.6,131.2,0,0,13.7-4.3,30.2-7.6,22.8-4.6,45.6-1.7,53.7-2.7,7.3-.9,17.7,24.6,10,40.1,0,0-28.2,10-53.7,23.7-19.4,10.4-43.7,30-55.5,35.5-10.6,4.9-36.1,11.4-54.1-1.5-18-12.9-15.8-20.7-18-36-2.6-18-25.1-88.7-22.5-127.3"/>
          <path class="cls-12" d="M478.9,415.3c10.9,5.5,21.8,21.8,30.9,24.6"/>
          <path class="cls-12" d="M577.6,314.7c12.7,7.3,32.8,30.9,60.1,23.7,26.9-7.2,32.8-19.1,32.8-19.1"/>
          <g>
            <g>
              <path class="cls-5" d="M381.7,170.8c-8.4,4.4-16.4,4.8-26.9,5-10.6.2-19.1-6-35.6.1-16.5,6.1-18.4,11.2-18.6,13.8s4.4,20.3,23.6,26.3c19.1,6,40.6-22,59-21.4,18.4.7-1.4-23.9-1.4-23.9Z"/>
              <path class="cls-15" d="M372.8,192.3s-16.9-15-38-14.6-31.3,8.5-31.7,12.4,13.2,37,45.1,22c30.1-14.1,24.6-19.8,24.6-19.8Z"/>
              <path class="cls-4" d="M314.9,190.1c9.6-2.9,34.1,2.3,41.2,9.7"/>
            </g>
            <path class="cls-5" d="M444.7,150c49.2,10,59.1,37.4,75.6,57.3,17.3,20.9,30.9,50.1,34.6,88.3,1.7,17.9,2.3,59-18.2,89.2-12.3,18.1-32.8,36.4-53.7,46.4-14.4,6.9-29.8,11.9-51,12.7-37,1.5-82.1-73.3-81-95.6,1.1-22.3-23-46.1-9.9-69.8,13.1-23.7-6.6-36.3-2.1-54.3,4.6-18,37.5-54,47.6-62.2,10.1-8.1,41-15.6,58.2-12.2Z"/>
            <g>
              <path class="cls-7" d="M462.4,348.3c10.9,3,16.4,16,15.1,32.3-1.2,16.4-2.3,33-10,42.8-6.5,8.2-13.5,12.3-27.8,13.9-13.9,1.6-11.1,3.7-21.3,2.9-10.2-.8-13.1-3.7-18-7.8-4.9-4.1-10.6-5.7-16.8-15.1-6.1-9.4-11.5-31.9-12.3-42.2-.8-10.2-4.5-30.7,11.1-30.3,15.6.4,21.7,4.9,39.3,4.1,17.6-.8,31.1-3.3,40.7-.6Z"/>
              <path class="cls-3" d="M406.1,416.8c.8-1.2,2.5-1.6,5.7-1.6,5.7,0,11.9,2.9,14.3,3.3,2.5.4,2.9,1.6,2.9,1.6"/>
              <g>
                <path d="M452.6,373.3c.3,2.1-1.4,4.1-3.8,4.4s-4.6-1.1-4.9-3.2c-.3-2.1.9-3.5,3.3-3.9,2.4-.3,5.2.6,5.4,2.7Z"/>
                <path class="cls-19" d="M440.5,374.3s2-2.9,7.4-2.9,7.8,2.9,7.8,2.9v-6.5c-.1,0-14.8,2.1-14.8,2.1l-.3,4.4Z"/>
                <path class="cls-13" d="M442.5,372.7c1.2-.7,2.9-1.3,5.4-1.3s4.6.7,5.9,1.4"/>
              </g>
              <g>
                <path d="M384,366.4c-.6,2,.8,4.3,3.1,5,2.3.7,4.7-.4,5.3-2.4.6-2-.3-3.6-2.7-4.3-2.3-.7-5.2-.2-5.8,1.8Z"/>
                <path class="cls-19" d="M380.8,367s2.9-2.5,8.1-1.6,6.8,4,6.8,4l-1.2-6.7h-12.1l-1.7,4.4Z"/>
                <path class="cls-13" d="M393.8,367.2c-1.1-.8-2.6-1.5-4.9-1.9s-4.5,0-5.8.4"/>
              </g>
              <path class="cls-4" d="M433.3,366.4s-4.5.1-6.9,3-3,5.9-3,5.9"/>
              <path class="cls-4" d="M399.5,364.4c5.3,4.1,7,9,6.6,16-.4,7-2,11.9-3.7,15.1-1.6,3.3-1.4,5.9,2,7.8"/>
              <path class="cls-23" d="M405.7,396.8c3.3-.4,7.3,1.8,8.8,2.7,1.8,1,4.3,2.7,1,3.5-3.3.8-9.2-.2-11.5-2.5s0-3.5,1.6-3.7Z"/>
              <path class="cls-4" d="M445.6,361.2s4.1-1.6,8.7,2"/>
              <path class="cls-4" d="M390.4,356.6s-3.8-2.3-9,.6"/>
            </g>
            <path class="cls-5" d="M352.6,232.4c-.5,17.1-12.6,43.5-24,63.4-11.4,19.9-26.8,40.7-34,46.5-7.2,5.8-10.2,21.3-5.8,29.7,4.4,8.4-.5,17.1,10.7,23.6,11.2,6.5,31.6,12.6,49.2,9.2,17.5-3.4,30-8.7,32.5-20.3,0,0,59.1-9.5,78.9-46.9"/>
            <g class="cls-22">
              <path class="cls-17" d="M554.9,295.6c-3.6-38.2-17.3-67.4-34.6-88.3-16.5-20-26.4-47.3-75.6-57.3-17.2-3.5-48,4-58.2,12.2-10.1,8.1-43,44.2-47.6,62.2-3.3,12.9,5.9,23.1,6.6,36.5-4.6,11.9-10.9,24.4-16.9,34.9-11.4,19.9-26.8,40.7-34,46.5-7.2,5.8-10.2,21.3-5.8,29.7,4.4,8.4-.5,17.1,10.7,23.6,11.2,6.5,31.6,12.6,49.2,9.2,9.4-1.8,17.3-4.2,23-7.7,16.3,24.5,39.6,47.7,60.4,46.9,21.2-.8,36.6-5.9,51-12.7,20.9-10,41.4-28.3,53.7-46.4,20.5-30.2,19.9-71.3,18.2-89.2Z"/>
            </g>
            <path class="cls-2" d="M345.5,259.6c-1.1-12.9-9.7-22.8-6.5-35.3,4.6-18,37.5-54,47.6-62.2,10.1-8.1,41-15.6,58.2-12.2,49.2,10,59.1,37.4,75.6,57.3,17.3,20.9,30.9,50.1,34.6,88.3"/>
            <path class="cls-2" d="M352.6,232.4c-.5,17.1-12.6,43.5-24,63.4-11.4,19.9-26.8,40.7-34,46.5-7.2,5.8-10.2,21.3-5.8,29.7,4.4,8.4-.5,17.1,10.7,23.6,11.2,6.5,31.6,12.6,49.2,9.2,17.5-3.4,30-8.7,32.5-20.3,0,0,59.1-9.5,78.9-46.9"/>
            <path d="M431.3,238.2c6.5.7,7.8,4.1,5.6,8.8-2.1,4.7-10.3,3.8-11.7,2s-2.7-5.2-.7-8.3c1.2-1.9,3.6-2.9,6.8-2.5Z"/>
            <path class="cls-2" d="M381.1,384.6s1.7-3.8,0-13.2"/>
            <path class="cls-6" d="M342.9,396.3c-8.7-4.9-10.3-14.3-4.3-21.6,6.1-7.3-1.8-20-9.4-23.4-7.5-3.5-17.7,4.7-25.5,3.9-2.6-.3-2.3-2.9-5.8-7.2-2.6-3.2-5.2.8-9.9,5.5-1.8,6.4-1.8,13.7.7,18.6,4.4,8.4-.5,17.1,10.7,23.6,11.2,6.5,31.6,12.6,49.2,9.2,11.1-2.2,20.2-5.1,26-9.9-9.1-1.8-23,6.3-31.7,1.4Z"/>
            <path class="cls-4" d="M339.4,337.2s22.7-26.6,40.3-31.3"/>
            <path class="cls-14" d="M327.2,365.9c-2.8-.3-8.4,6.8-15,8.6-6.6,1.9-3.6,9.9,1.4,10.4,5.1.5,14.1.2,17.2-4.6,3.1-4.8,4-13.7-3.6-14.5Z"/>
            <g>
              <path class="cls-4" d="M465.1,195c2.8,4.9,6.7,17.9,16.8,16.4"/>
              <path class="cls-5" d="M473.8,175.9c9.6,9,36,12.3,46.3,35.3,7.4,16.6-14.1,32.8-19.2,30.9-5.1-1.9-17.3-20.7-19.5-26.2-3.2-7.6-2.6-8.2-5.8-13.9-2.5-4.5-5.8-8.7-5.7-14.5"/>
              <path class="cls-15" d="M484.4,187.6c-2.6.6-4.9,3-4.8,8.3.1,6.7,7,7.8,8.5,18.5s9.5,23.9,16.1,23.3,15.5-10.6,13.9-20c-1.6-9.4-28.2-31.3-33.7-30Z"/>
            </g>
            <path class="cls-4" d="M421.1,270.1s-3.9,11.5-4.6,18"/>
            <path class="cls-4" d="M403.2,265.5c-1.3-.1-11.8,11.9-12.5,18.4"/>
          </g>
          <g>
            <g>
              <path class="cls-7" d="M615.8,722.1s2.4,15.1-2.4,19.9c-4.8,4.8-11.1,8.7-23.8,11.9-12.7,3.2-35-5.6-36.5-11.9-1.6-6.4,0-11.9-4-12.7-4-.8-18.3.8-22.2-2.4-4-3.2-3.2-8.7.8-9.5,4-.8,10.3,0,14.3-.8s15.9-3.2,21.5-1.6c5.6,1.6,23.8-.8,25.4-4,1.6-3.2,27,11.1,27,11.1Z"/>
              <path class="cls-7" d="M558.6,729.2c-3.2,1.6-17.5,6.4-25.4,7.2s-19.1.8-21.5,4-3.2,6.6,1.6,9.5c6.4,4,33.4-.8,40.5-1.6"/>
              <path class="cls-7" d="M558.7,737.8s-23.2,14.2-28.3,16.8c-3.5,1.8-5.3,5.3-3.9,8.6s4,5,11,4.1c8-1,21.6-12.9,26-15.4"/>
              <path class="cls-7" d="M565.7,745.9s-14.3,13.5-16.7,15.1c-2.4,1.6-3.2,6.4,0,8.7,3.3,2.5,8.5,2.6,12.7.8,4.9-2.1,9.5-7.5,11.9-11.1,3.2-4.8,7.9-8.7,7.9-8.7"/>
              <path class="cls-7" d="M584.8,749.1s-2.4,13.5-2.4,16.7,1.6,5.6,8.7,4.8c7.2-.8,6.4-20.7,9.5-23"/>
            </g>
            <path class="cls-11" d="M645,377.6s-4.1,6.6-4.4,30.5c-.6,45.7-3.5,106.7-8.5,135.5-7.7,43.7,2.6,72,0,105.5-2.6,33.4-15.4,72-15.4,84.9-20.6,7.7-38.6-10.3-36-23.1,0,0,2.6,0,5.1-5.1,2.6-5.1-7.7-72-5.1-110.6,2.6-38.6-2.6-74.6-2.6-110.6s-16.5-48.9-13.9-95.2"/>
            <path class="cls-10" d="M621.8,546.1c-7.7,5.1-7.7,18-12.9,25.7"/>
          </g>
          <path class="cls-20" d="M596.1,479c-10.7-3.8-9.1-6.9-19.1-6.6,1.4,7.7,0,11.2.8,19.7,4.7,2.7,9.2,3,13.8.3,2.7-1.6,6-2.4,8-5.6,2.5-4.3-1-7-3.4-7.8Z"/>
          <path class="cls-20" d="M607.8,397.4c-13.8,34.5-33.6,30.4-14.7,57.7,18.9,27.3,42-4.2,44.1-17.8,2.1-13.6,16.8-51.4-3.1-56.7-19.9-5.2-24.1,11.5-26.2,16.8Z"/>
          <path class="cls-12" d="M645,377.6s-4.1,6.6-4.4,30.5c-.6,45.7-3.5,106.7-8.5,135.5-7.7,43.7,2.6,72,0,105.5-2.6,33.4-15.4,72-15.4,84.9-20.6,7.7-38.6-10.3-36-23.1,0,0,2.6,0,5.1-5.1,2.6-5.1-7.7-72-5.1-110.6,2.6-38.6-2.6-74.6-2.6-110.6s-16.5-48.9-13.9-95.2"/>
        </g>
      </g>
    </g>
  </g>
</svg>