<?xml version="1.0" encoding="UTF-8"?>
<svg xmlns="http://www.w3.org/2000/svg" version="1.1" xmlns:xlink="http://www.w3.org/1999/xlink" viewBox="0 0 1280 960">
  <defs>
    <style>
      .cls-1 {
        fill: #2369c4;
        stroke-linejoin: round;
        stroke-width: 5px;
      }

      .cls-1, .cls-2, .cls-3, .cls-4, .cls-5, .cls-6, .cls-7, .cls-8, .cls-9, .cls-10, .cls-11 {
        stroke: #000;
      }

      .cls-2, .cls-3, .cls-4, .cls-5, .cls-6, .cls-7, .cls-8, .cls-9, .cls-10, .cls-11 {
        stroke-miterlimit: 10;
      }

      .cls-2, .cls-3, .cls-4, .cls-5, .cls-7, .cls-8, .cls-10, .cls-11 {
        stroke-linecap: round;
      }

      .cls-2, .cls-5, .cls-6, .cls-8 {
        stroke-width: 2px;
      }

      .cls-2, .cls-11 {
        fill: #ccc;
      }

      .cls-3, .cls-4, .cls-5, .cls-12, .cls-10 {
        fill: none;
      }

      .cls-3, .cls-7, .cls-11 {
        stroke-width: 3px;
      }

      .cls-13, .cls-7, .cls-8 {
        fill: #ecd6c9;
      }

      .cls-4 {
        stroke-width: 1.5px;
      }

      .cls-14 {
        fill: #dd644b;
      }

      .cls-6, .cls-9 {
        fill: #e03663;
      }

      .cls-15 {
        fill: #cc9fad;
      }

      .cls-16 {
        clip-path: url(#clippath);
      }

      .cls-17 {
        fill: #e6e6e6;
      }
    </style>
    <symbol id="_新增符號" data-name="新增符號" viewBox="0 0 3.3 6">
      <path class="cls-5" d="M2.3,1s-1.3,1.3-1.3,4"/>
    </symbol>
    <clipPath id="clippath">
      <path class="cls-12" d="M358.3,718.2c13.5-2.7,46.7.8,58.1,21.9,7.5,14,13.2,49.6,9.8,71.1-1.4,8.6-8.2,17.4-18.3,18.4-10.3,1-35.5-1.3-42-22.2-6.3-20.4-7.4-31.8-10-39.1-1.7-4.7-10.5-17-10.8-32.6-.1-8.1,2.8-15.4,13.3-17.4Z"/>
    </clipPath>
  </defs>
  <!-- Generator: Adobe Illustrator 28.7.4, SVG Export Plug-In . SVG Version: 1.2.0 Build 166)  -->
  <g>
    <g id="_圖層_1" data-name="圖層_1">
      <rect class="cls-14" x="-437" y="-597.5" width="4992" height="3793"/>
      <g>
        <polygon class="cls-1" points="501.6 913 129.4 789.5 778.4 466 1150.6 589.5 501.6 913"/>
        <path d="M974.1,569.2c-56.4,43.7-121.1,71.9-175.7,96.5-54.6,24.6-15.5,39.1-84.7,83.7-46,29.7-173.5,58.4-256.7,79.2-51,12.7-67.4,0-77.4-10-28.7-28.7,223-166.6,223-166.6l264.9-82.8h106.5Z"/>
        <g>
          <g>
            <path class="cls-11" d="M677.3,375.3s.9-86.5,3.6-111.1c2.7-24.6,12.7-36.4,12.7-65.5s12.3-60.1,12.3-69.6-2.7-10.9-11.8-15.5c-8-4-24.1-32.3-34.6-1.8-7.6,22.1-34.1,95.1-38.7,110.6s-6.4,40.1-13.7,66.5c-7.3,26.4-3.6,98.3,10,123.8"/>
            <path class="cls-2" d="M694.7,169.2c.5-.8,7.3-4.9,5.9-7.7s-5.1.9-5.1.9"/>
            <path class="cls-2" d="M682,178.3c.5-.8,7.3-4.9,5.9-7.7s-5.1.9-5.1.9"/>
          </g>
          <path d="M640.9,387.2s-37.3,6.4-38.2-59.2c-.1-7.7,53.7,21.8,53.7,21.8l-15.5,37.3Z"/>
          <g>
            <g>
              <path class="cls-7" d="M938.2,527.4c15.7,1.1,18.9,15.6,21.3,22.9,2.4,7.3,10.4,15,1.2,24.4s-33.5,9.1-44.4,1.2c-10.9-7.9-15.7-21.1-9.2-32.1,6.5-11,19.8-17.2,31.2-16.4Z"/>
              <path class="cls-5" d="M921.3,538.8s13.4-1.6,16.8,11.5c3.4,13.1-7.1,20.2-7.1,20.2"/>
              <path class="cls-7" d="M947.2,536.9s7.9-5.4,3.9-10c-4.2-4.8-13,2-13,2"/>
              <path class="cls-7" d="M952.8,544.2s7.6-6.6,3.6-11.2c-4.2-4.8-11.7,3.5-11.7,3.5"/>
              <path class="cls-7" d="M958,551.7s8.9-5.1,5.1-11.1c-3.5-5.4-10.2,2.2-13.1,3.4"/>
              <path class="cls-7" d="M961.8,559.1s9.8-4.2,6.4-9.6-14.4,1.9-14.4,1.9"/>
              <path class="cls-7" d="M959.2,576.1s15.7-4.7,16.2-11.9-5.5-12.7-16.5-5.3c0,0-1.7,8.1,1,9.9"/>
              <path class="cls-8" d="M940.7,533.3c1.2,2.9,20.6,22.2,17.2,30.5"/>
            </g>
            <path class="cls-11" d="M704.6,544.6s59.2,7.3,76.5,4.6c17.3-2.7,57.8-24.1,102.4-16.8,15.8,2.6,24.6,6.4,30.9,12.7,6.4,6.4,5.3,24.2,2.7,28.2-5.1,7.8-19,10.5-26.9,13.2-18.2,6.4-33.7,20-55.5,28.2s-87.4,40.1-104.7,37.3c-17.3-2.7-25.5-107.4-25.5-107.4Z"/>
            <g>
              <use width="3.3" height="6" transform="translate(770.9 577.8) rotate(43.2) scale(.8)" xlink:href="#_新增符號"/>
              <use width="3.3" height="6" transform="translate(789.6 568.4) rotate(-49) scale(.8)" xlink:href="#_新增符號"/>
              <use width="3.3" height="6" transform="translate(783.7 581.3) rotate(-33.6) scale(.8)" xlink:href="#_新增符號"/>
              <use width="3.3" height="6" transform="translate(755.4 606.4) rotate(-98.2) scale(.8)" xlink:href="#_新增符號"/>
              <use width="3.3" height="6" transform="translate(738.7 616.7) rotate(-107.9) scale(.8)" xlink:href="#_新增符號"/>
              <use width="3.3" height="6" transform="translate(742.6 613.1) rotate(-105.8) scale(.8)" xlink:href="#_新增符號"/>
              <use width="3.3" height="6" transform="translate(776.8 612.2) rotate(-100) scale(.8)" xlink:href="#_新增符號"/>
              <use width="3.3" height="6" transform="translate(787.4 620.7) rotate(-96.3) scale(.8)" xlink:href="#_新增符號"/>
              <use width="3.3" height="6" transform="translate(782.7 625.5) rotate(-101.4) scale(.8)" xlink:href="#_新增符號"/>
              <use width="3.3" height="6" transform="translate(771.2 631.1) rotate(-126.4) scale(.8)" xlink:href="#_新增符號"/>
              <use width="3.3" height="6" transform="translate(765.7 627.3) rotate(-133.7) scale(.8)" xlink:href="#_新增符號"/>
              <use width="3.3" height="6" transform="translate(761.4 635.3) rotate(-134.8) scale(.8)" xlink:href="#_新增符號"/>
              <use width="3.3" height="6" transform="translate(755.6 637.3) rotate(-115) scale(.8)" xlink:href="#_新增符號"/>
              <use width="3.3" height="6" transform="translate(755.4 629.6) rotate(-123.8) scale(.8)" xlink:href="#_新增符號"/>
              <use width="3.3" height="6" transform="translate(747.3 631.3) rotate(-93.8) scale(.8)" xlink:href="#_新增符號"/>
              <use width="3.3" height="6" transform="translate(853.6 577.2) rotate(-132.1) scale(.8)" xlink:href="#_新增符號"/>
              <use width="3.3" height="6" transform="translate(835.5 585.9) rotate(-91) scale(.8)" xlink:href="#_新增符號"/>
              <use width="3.3" height="6" transform="translate(818.5 594.8) rotate(-99.1) scale(.8)" xlink:href="#_新增符號"/>
              <use width="3.3" height="6" transform="translate(816.3 590.3) rotate(-113) scale(.8)" xlink:href="#_新增符號"/>
              <use width="3.3" height="6" transform="translate(827.2 583) rotate(-100.4) scale(.8)" xlink:href="#_新增符號"/>
              <use width="3.3" height="6" transform="translate(854.7 562.6) rotate(-132.1) scale(.8)" xlink:href="#_新增符號"/>
              <use width="3.3" height="6" transform="translate(864.5 553) rotate(-130.8) scale(.8)" xlink:href="#_新增符號"/>
              <use width="3.3" height="6" transform="translate(866.3 562.4) rotate(-140.5) scale(.8)" xlink:href="#_新增符號"/>
              <use width="3.3" height="6" transform="translate(878.2 566.5) rotate(-154.8) scale(.8)" xlink:href="#_新增符號"/>
              <use width="3.3" height="6" transform="translate(891.3 564.8) rotate(-156.2) scale(.8)" xlink:href="#_新增符號"/>
              <use width="3.3" height="6" transform="translate(880.9 574.8) rotate(-159.6) scale(.8)" xlink:href="#_新增符號"/>
              <use width="3.3" height="6" transform="translate(887.8 570.8) rotate(-161.1) scale(.8)" xlink:href="#_新增符號"/>
              <use width="3.3" height="6" transform="translate(730.6 635.6) rotate(-107.1) scale(.8)" xlink:href="#_新增符號"/>
              <use width="3.3" height="6" transform="translate(740.2 586.9) rotate(76.5) scale(.8)" xlink:href="#_新增符號"/>
              <use width="3.3" height="6" transform="translate(733.1 587.4) rotate(69.5) scale(.8)" xlink:href="#_新增符號"/>
            </g>
            <path d="M718.3,575.6s-3.6,10.1-7,23.9c4.2,25.8,10.5,51.3,18.9,52.6,9.5,1.5,33.8-7.5,57.2-17.3h0c-36.5.9-69.1-59.2-69.1-59.2Z"/>
            <g>
              <path class="cls-2" d="M898.1,536.7c1.9-.1,13.6.4,16,3.7,2,2.8-3.2,3.1-3.2,3.1"/>
              <path class="cls-2" d="M906.5,544.5c1.9-.6,10.2-3.1,12.1.8,1.6,3.3-4.6,5.5-4.6,5.5"/>
              <path class="cls-2" d="M903,582.2c3.3-2.7,14.6-1.1,16.4-4.8s-6.6-3.2-6.6-3.2"/>
              <path class="cls-2" d="M908.7,575.3c1.8-.3,14.1-.3,13.7-4.1-.3-3.3-8.3-3.4-8.3-3.4"/>
              <path class="cls-2" d="M911.2,570.1c2-.3,14.2-.3,13.8-4.5-.4-3.6-9.2-3.7-9.2-3.7"/>
              <path class="cls-2" d="M913.8,563.3c2-.3,13.8-1.7,12.3-6.6s-3.8-2.9-6.1-2.4c-2,.4-3.7,1.2-3.7,1.2"/>
              <path class="cls-2" d="M911.5,550c1.9-.6,10.7-3.3,12.1.8,1.4,4-8.5,6.8-8.5,6.8"/>
            </g>
          </g>
          <path class="cls-11" d="M744.9,656.7c-5.2,0-10.5-.2-15.9-.6-5.5-.4-9.7-5.2-9.3-10.7.4-5.5,5.1-9.7,10.7-9.3,44.9,3.1,78-7.4,98.2-31.1,23.1-27.1,24.4-66.8,17.9-95-14.3-62.1,1.6-145.1,59.8-183.6,4.6-3,10.8-1.8,13.9,2.8,3,4.6,1.8,10.8-2.8,13.9-50,33.1-63.8,108.3-51.3,162.3,9.8,42.6,1.6,84.7-22.2,112.5-11.6,13.6-26.7,23.8-45,30.3-15.7,5.6-33.8,8.4-53.9,8.4Z"/>
          <path class="cls-11" d="M762.4,453.1c-32.8,51.9-28.2,67.4-31.9,112-2.7,33,17.7,59.3,13.7,92.8-2,16.5-13.2,51.6-53.7,63.7-36.4,10.9-69.2-26.4-82.8-64.6-9.1-25.5-29.1-119.2-22.8-156.6,6.4-37.3,10-132,78.3-137.5,63.7-5.1,130.6,40.4,99.2,90.1Z"/>
          <path class="cls-17" d="M645.4,402.6c11.3,5,20.6,5.9,30.9,5.5,23.7-.9,32.3,15,27.3,30.9-8.2,26.4-33.7,69.2-34.6,101-.7,22.8,1.5,57.6-11.6,86.5-5.2,11.5-11.9-1.9-23-1.9s-20.1,7.3-26.4-4.6c-14.4-27.1-17.3-89.2-17.3-103.8,0-20.9,10.1-100.4,21.8-112,9-8.8,24.6-5.5,32.8-1.8Z"/>
          <path d="M712.3,393.1s15.5-16.4,12.7-43.7c0,0-22.8-4.2-35,.5-26.7,10.2-19.1,31.9-19.1,31.9,30-2.7,41.4,11.4,41.4,11.4Z"/>
          <path d="M656.4,378.1s7.3,12.7,3.6,16.4c0,0-15.5-10-27.3-17.3s23.7.9,23.7.9Z"/>
          <g>
            <path class="cls-11" d="M638.2,625.6s-40-12.7-93.8,19.1-96,95.1-142.5,107,1,82.5,20,70.1c20.9-13.7,77.4-7.3,117.4-39.1,40.1-31.9,71.6-31.9,96.5-39.1,21.8-6.4,58-19.4,78.2-33.4"/>
            <g>
              <use width="3.3" height="6" transform="translate(504.8 722.2) rotate(43.2)" xlink:href="#_新增符號"/>
              <use width="3.3" height="6" transform="translate(529.3 710.9) rotate(-49)" xlink:href="#_新增符號"/>
              <use width="3.3" height="6" transform="translate(521.9 727.9) rotate(-33.6)" xlink:href="#_新增符號"/>
              <use width="3.3" height="6" transform="translate(484.1 763) rotate(-98.2)" xlink:href="#_新增符號"/>
              <use width="3.3" height="6" transform="translate(463.2 780.7) rotate(-107.9)" xlink:href="#_新增符號"/>
              <use width="3.3" height="6" transform="translate(467 774.1) rotate(-105.8)" xlink:href="#_新增符號"/>
              <use width="3.3" height="6" transform="translate(514.7 766.4) rotate(-100)" xlink:href="#_新增符號"/>
              <use width="3.3" height="6" transform="translate(527.9 777.5) rotate(-96.3)" xlink:href="#_新增符號"/>
              <use width="3.3" height="6" transform="translate(521.8 784.7) rotate(-101.4)" xlink:href="#_新增符號"/>
              <use width="3.3" height="6" transform="translate(504.4 791.1) rotate(-126.4)" xlink:href="#_新增符號"/>
              <use width="3.3" height="6" transform="translate(499.8 783) rotate(-133.7)" xlink:href="#_新增符號"/>
              <use width="3.3" height="6" transform="translate(487.9 792) rotate(-134.8)" xlink:href="#_新增符號"/>
              <use width="3.3" height="6" transform="translate(478.6 785.5) rotate(-115)" xlink:href="#_新增符號"/>
              <use width="3.3" height="6" transform="translate(487.3 781.7) rotate(-123.8)" xlink:href="#_新增符號"/>
              <use width="3.3" height="6" transform="translate(473.1 793.6) rotate(-93.8)" xlink:href="#_新增符號"/>
              <use width="3.3" height="6" transform="translate(614.9 722.7) rotate(-132.1)" xlink:href="#_新增符號"/>
              <use width="3.3" height="6" transform="translate(590.3 734.6) rotate(-91)" xlink:href="#_新增符號"/>
              <use width="3.3" height="6" transform="translate(567.7 746.9) rotate(-99.1)" xlink:href="#_新增符號"/>
              <use width="3.3" height="6" transform="translate(564.9 740.7) rotate(-113)" xlink:href="#_新增符號"/>
              <use width="3.3" height="6" transform="translate(579.4 730.9) rotate(-100.4)" xlink:href="#_新增符號"/>
              <use width="3.3" height="6" transform="translate(622.4 702.7) rotate(-132.1)" xlink:href="#_新增符號"/>
              <use width="3.3" height="6" transform="translate(651 687.6) rotate(-130.8)" xlink:href="#_新增符號"/>
              <use width="3.3" height="6" transform="translate(668.5 689.5) rotate(-140.5)" xlink:href="#_新增符號"/>
              <use width="3.3" height="6" transform="translate(677.7 700.2) rotate(-154.8)" xlink:href="#_新增符號"/>
              <use width="3.3" height="6" transform="translate(685.8 696) rotate(-156.2)" xlink:href="#_新增符號"/>
              <use width="3.3" height="6" transform="translate(691.7 702.7) rotate(-159.6)" xlink:href="#_新增符號"/>
              <use width="3.3" height="6" transform="translate(685.5 708) rotate(-161.1)" xlink:href="#_新增符號"/>
              <use width="3.3" height="6" transform="translate(450.2 804.2) rotate(-107.1)" xlink:href="#_新增符號"/>
              <use width="3.3" height="6" transform="translate(461.5 738.2) rotate(76.5)" xlink:href="#_新增符號"/>
              <use width="3.3" height="6" transform="translate(452.3 746.1) rotate(69.5)" xlink:href="#_新增符號"/>
              <use width="3.3" height="6" transform="translate(487.8 754.5) rotate(-103.7)" xlink:href="#_新增符號"/>
              <use width="3.3" height="6" transform="translate(471 746.8) rotate(-101.8)" xlink:href="#_新增符號"/>
              <use width="3.3" height="6" transform="translate(460.9 756.9) rotate(-101.6)" xlink:href="#_新增符號"/>
              <use width="3.3" height="6" transform="translate(438.1 771.1) rotate(-103.3)" xlink:href="#_新增符號"/>
              <use width="3.3" height="6" transform="translate(437.9 779.6) rotate(-103.5)" xlink:href="#_新增符號"/>
              <use width="3.3" height="6" transform="translate(446 773.3) rotate(-103.6)" xlink:href="#_新增符號"/>
              <use width="3.3" height="6" transform="translate(451 794.1) rotate(-105.6)" xlink:href="#_新增符號"/>
            </g>
            <g>
              <path class="cls-7" d="M358.3,718.2c13.5-2.7,46.7.8,58.1,21.9,7.5,14,13.2,49.6,9.8,71.1-1.4,8.6-8.2,17.4-18.3,18.4-10.3,1-35.5-1.3-42-22.2-6.3-20.4-7.4-31.8-10-39.1-1.7-4.7-10.5-17-10.8-32.6-.1-8.1,2.8-15.4,13.3-17.4Z"/>
              <g class="cls-16">
                <path d="M339.1,727.1c0,3.6.9,8.2,10.9,3.6s19.6-2,31.2.8c11.6,2.8,21.7,14,21.7,11.6,0-2.4-9.6-19.3-44.2-18.4s-19.6,2.3-19.6,2.3Z"/>
              </g>
              <path class="cls-7" d="M364.3,721.4c-1.9-9.8-6.7-22.7-16.5-20.2-10.1,2.6-9,20.6-2.1,25.4-.2,3.2,8.9.5,8.9.5"/>
              <path class="cls-7" d="M375.3,722c-.1-8.2-2.8-15.5-10.5-16.7-7.6-1.2-6.7,6.6-4.8,12.9,3.6,12.2,12,7.2,12,7.2"/>
              <path class="cls-7" d="M388.1,725.9c-.1-8.2-2.8-15.5-10.5-16.7-7.6-1.2-6.9,6.7-4.8,12.9,2.1,6.2,7.7,5.6,7.7,5.6"/>
              <path class="cls-7" d="M401.7,728.9c-.1-8.2-3.6-13.9-11.3-14.5-7.7-.7-5.7,4.4-4,10.7,2.7,10.6,10.3,8.8,10.3,8.8"/>
              <path class="cls-7" d="M401.1,741.2s.2-3.6-1.9-9.8c-2.1-6.2-3.6-11.9,4-10.7,7.7,1.2,9.5,10.5,13.1,19.4"/>
              <path class="cls-5" d="M370.7,794.2s12-14.6,32.8,6.4"/>
              <path class="cls-3" d="M349.6,731.9s20.5-13.1,54.9,12.5"/>
              <path class="cls-3" d="M345.7,726.7s5.1,3.2,10.2-1"/>
            </g>
          </g>
          <g>
            <path class="cls-6" d="M622.2,207.1c3.5-22.2,7.9-25.6,12.5-28.1,3.1-1.7,22.2,6.6,22.2,6.6l-34.7,21.5Z"/>
            <path class="cls-11" d="M695.1,180.7c-21.8-3.2-43.8,1-58,9.7-13.9,8.5-22.5,22.9-27.1,30.9-8.4,14.8-13.1,28.5-12.8,35.4.3,10.8-4.8,16-6.2,30.6-1.4,14.6,6.3,24,9,36.1s17.3,62.8,49.8,63.8c26,.9,36.6-6.9,44.3-9.7,7.6-2.8,51-13.5,64.6-45.1,13.5-31.6,17.4-66,14.2-87.9-3.1-21.9-11.7-46.6-37.5-55.9-18.4-6.6-29.7-6.4-40.3-8Z"/>
            <path class="cls-17" d="M647.3,224.2s47.8-20.5,68.7,2.3c20.9,22.8,33.2,36-4.1,61.4-12.7,8.7-8.9,13.3-5.5,25.5,5.2,18.4,5.2,50.7-15.5,61-34.6,17.3-51,8.5-62.8-.9-11.8-9.4-37.3-61.9-27.3-91.9,10-30-7.3-15.5,2.7-41.9,4.3-11.4,12.5-25.2,30-26.4,12.5-.9,13.7,10.9,13.7,10.9Z"/>
            <g>
              <path class="cls-8" d="M687.4,305.9c9.3,2.6,13.9,13.5,12.8,27.4-1,13.9-1.9,28-8.5,36.3-5.5,6.9-11.5,10.4-23.6,11.8-11.8,1.3-9.4,3.1-18.1,2.4-8.7-.7-11.1-3.1-15.3-6.6-4.2-3.5-9-4.9-14.2-12.8-5.2-8-9.7-27.1-10.4-35.8-.7-8.7-3.8-26,9.4-25.7,13.2.3,18.4,4.2,33.3,3.5,14.9-.7,26.4-2.8,34.6-.5Z"/>
              <path class="cls-4" d="M639.6,364c.7-1,2.1-1.4,4.9-1.4,4.9,0,10.1,2.4,12.2,2.8,2.1.3,2.4,1.4,2.4,1.4"/>
              <g>
                <path d="M679,327.1c.2,1.8-1.2,3.5-3.3,3.8s-3.9-.9-4.2-2.7c-.2-1.8.7-3,2.8-3.3s4.4.5,4.6,2.3Z"/>
                <path class="cls-13" d="M668.8,327.9s1.7-2.4,6.3-2.4,6.6,2.4,6.6,2.4v-5.5c-.1,0-12.6,1.8-12.6,1.8l-.3,3.7Z"/>
                <path class="cls-10" d="M670.5,326.6c1-.6,2.5-1.1,4.6-1.1s3.9.6,5,1.2"/>
              </g>
              <g>
                <path d="M620.8,321.3c-.5,1.7.7,3.6,2.6,4.2,2,.6,4-.3,4.5-2.1.5-1.7-.3-3.1-2.2-3.7s-4.4-.2-4.9,1.5Z"/>
                <path class="cls-13" d="M618.1,321.7s2.4-2.1,6.9-1.4c4.5.7,5.8,3.4,5.8,3.4l-1-5.7h-10.2l-1.4,3.8Z"/>
                <path class="cls-10" d="M629.2,321.9c-.9-.7-2.2-1.3-4.2-1.6-2.1-.3-3.8,0-5,.4"/>
              </g>
              <path class="cls-5" d="M662.7,321.2s-3.8,0-5.9,2.5c-2.1,2.4-2.5,5-2.5,5"/>
              <path class="cls-5" d="M634,319.6c4.5,3.5,6,7.6,5.6,13.5-.3,5.9-1.7,10.1-3.1,12.8-1.4,2.8-1.2,5,1.7,6.6"/>
              <path class="cls-15" d="M639.3,347c2.8-.3,6.2,1.6,7.5,2.3,1.6.9,3.6,2.3.9,3-2.8.7-7.8-.2-9.7-2.1s0-3,1.4-3.1Z"/>
              <path class="cls-5" d="M673.1,316.8s3.5-1.4,7.4,1.7"/>
              <path class="cls-5" d="M626.3,313s-3.2-1.9-7.6.5"/>
            </g>
            <g>
              <path class="cls-6" d="M657.6,248c19.2-2.2,24.3-6.6,33-3.5,8.7,3.1,14.6,6.6,16.7,12.2,2.1,5.6,3.1,8-2.4,10.8-5.6,2.8-15.6,15.6-19.4,24.3,0,0,1.4,3.1,1.4,5.6s1.4,5.6-.7,6.6c-2.1,1-7.3,4.2-10.4,6.9-3.1,2.8-8.3,4.5-13.9,5.6-5.6,1-13.5,5.6-31.9,1.4-18.4-4.2-20.5-4.5-23.3-5.6-2.8-1-4.5-3.5-4.5-6.9s-2.1-6.3-1.4-11.8c.7-5.6,5.2-14.2,10.1-18.4,0,0,0-7.6-1.4-10.4-1.4-2.8-3.8-10.4-3.8-16s.3-10.8,4.9-11.1c4.5-.3,7.6,1.4,14.6,5.6,6.9,4.2,23.6,5.9,32.6,4.9Z"/>
              <path class="cls-10" d="M685.4,291.8c-2.1-2.8-5.2-9.7-2.8-12.2"/>
              <path class="cls-10" d="M610.8,275.1c2.3-1.7,5.1-5.1,9.7-9.4s10.1-6.6,12.2-10.8c1.2-2.3-1.7-2.8-2.8-5.6"/>
              <path class="cls-10" d="M610.1,287.9c-.3,2.8.7,6.9,1.7,8.7,1,1.7,3.1,4.5,2.8,6.6s-1,3.1-1,3.1"/>
              <path class="cls-10" d="M627.8,309.5c.7-2.4.7-5.2,3.1-8,2.4-2.8,5.9-4.2,9-4.5s6.3-1.7,7.3-4.9"/>
              <path d="M682.1,255.8c.4,2.7-1.8,5.2-4.8,5.6-3,.4-5.8-1.4-6.2-4-.4-2.7,1.1-4.5,4.1-4.9s6.5.7,6.9,3.4Z"/>
              <path d="M613.5,247.2c-1.9,1.5-2,4.5-.2,6.7s4.7,2.7,6.6,1.1,2-3.6.3-5.8c-1.8-2.2-4.7-3.6-6.6-2Z"/>
              <path d="M639.9,297c-3.1.3-6.6,1.7-9,4.5-1.8,2-2.2,4-2.6,5.9,1.3-1.4,3-3.1,5.1-4.5,4.5-3.1,6.8-.5,10.6-3.6,2.7-2.2,2.3-3.8,2.2-5.1-1.5,1.7-3.8,2.6-6.2,2.8Z"/>
              <path d="M610,289.2c-1,1.6-1.2,4.3-.6,7.1.7,2.9,1.6,8,4.6,9.2.2-.5.4-1.3.6-2.2.3-2.1-1.7-4.9-2.8-6.6-.9-1.5-1.8-4.8-1.8-7.5Z"/>
            </g>
            <path class="cls-9" d="M749.7,207.1s11.3-7.8,16.5-11.2c4.9-3.1,6.4-.3,6.7,2.5,1,8.3,4.5,22.9,4.5,32.6s-7.6,31.9-15.6,33c-8,1-16.3-30.6-12.2-56.9Z"/>
          </g>
          <g>
            <path class="cls-7" d="M690.7,141.4c10.9,3.1,23.6-5.8,32.8-14.3,9.2-8.5,16.4-17.5,16.1-21.9-.3-4.5-4.1-6.1-7.5-6.5,0,0,9.9-16.9,8.6-24.4-.7-4.3-2.4-8.4-4.8-11.8-.6-5.2-5.4-9-10.9-7.2,1.8-5.5-6.1-5.4-10-4.6.9-5.5-9.5-3.9-12.5-2.5-6.5,2.9-21.8,13.9-28.7,24.5-7.7,11.9-16.9,28.4-13.7,44,3.2,15.6,19.6,21.5,30.5,24.6Z"/>
            <path class="cls-5" d="M684.6,74.9s27.3,6.4,35.5,22.8"/>
            <path class="cls-3" d="M732.3,98.2s-13.8,8.4-17.6,11.7c0,0-13.3-4.2-23.2,9.3"/>
            <path class="cls-5" d="M715.5,50.4s-14.7,7.8-25.2,25.8"/>
            <path class="cls-5" d="M724.6,55.8s-10.3,6.6-20.9,26.4"/>
            <path class="cls-5" d="M735.9,62.5s-11.4,7.1-21.3,27.9"/>
          </g>
          <g>
            <path class="cls-7" d="M765.2,145.1c11.2-2.8,18-16.9,21.9-29.1,3.9-12.1,2.9-15.8,2-20.2s-8.6-9.3-8.6-9.3c0,0-1.3-21.5-6.2-27.5s-4.7-4.6-8.5-6.4c-2.4-4.5-10.6-4.5-14.1-2.2-2.9-2.3-8.3-1.4-10,1-4.7-2.4-10.6,2.6-12.6,5.3-4.3,5.9-12.4,23.2-13.1,36.1-.8,14.4.9,32.7,11.5,44.9,10.6,12.2,26.5,10.1,37.7,7.4Z"/>
            <path class="cls-3" d="M780.8,86.3s1.6,11.7-.1,16.4"/>
            <path class="cls-5" d="M741.6,51.3s-8.3,22.1-9.6,32.1"/>
            <path class="cls-5" d="M751.6,50.3s-1.7,20.8-3,31.8"/>
            <path class="cls-5" d="M765.7,52.6s1.4,12.7,1.3,22.6c0,4.8,2.1,9.5,2.1,9.5"/>
          </g>
          <path class="cls-11" d="M762.4,453.1c20.9-27.3,50.1-51,41.9-122-8.2-71-10-66.5-10.9-103.8-.8-34.8-6.6-89.4-15.5-105.6-5.5-10-14.6-12.7-24.6-12.7s-20.9,6.4-22.8,22.8-4.6,94.7-3.6,112.9c.9,18.2-4.6,77.4-1.8,104.7,2.7,27.3-12.7,43.7-12.7,43.7"/>
          <g>
            <path class="cls-2" d="M731.4,133.2c-.1-2-7.2-16.4-2.4-17.8,4.1-1.2,6.3,3.7,6.3,3.7"/>
            <path class="cls-2" d="M735.8,123.9c0-2-2.4-14.3,2.5-15.2,4.2-.8,5.9,4.2,5.9,4.2"/>
            <path class="cls-2" d="M743.8,116.1c0-2,.5-10.8,5.5-10.8s4.2,6.8,4.2,6.8"/>
            <path class="cls-2" d="M780.7,133.2c-1.7-4.2,7.6-13.6,4.2-16.9-2.5-2.5-9.3,4.2-9.3,4.2"/>
            <path class="cls-2" d="M775.6,124.7c.4-2,5.7-14.6.8-16.1-4.1-1.3-7.6,6.8-7.6,6.8"/>
            <path class="cls-2" d="M769.7,117.9c.4-2,3.4-13.6-2.5-14.4-2.7-.4-4.6,2.2-5,4.6-.3,2-.1,3.9-.1,3.9"/>
            <path class="cls-2" d="M753.1,113.5c0-2,.5-11.4,5.5-10.8,4.9.6,4.2,11,4.2,11"/>
          </g>
          <g>
            <use width="3.3" height="6" transform="translate(756.3 153.3) rotate(151.6) scale(1)" xlink:href="#_新增符號"/>
            <use width="3.3" height="6" transform="translate(762.6 146) rotate(155.3) scale(1)" xlink:href="#_新增符號"/>
            <use width="3.3" height="6" transform="translate(768.9 197.4) rotate(-179.8) scale(1)" xlink:href="#_新增符號"/>
            <use width="3.3" height="6" transform="translate(778.9 203.4) rotate(172) scale(1)" xlink:href="#_新增符號"/>
            <use width="3.3" height="6" transform="translate(759.2 192.6) rotate(171.8) scale(1)" xlink:href="#_新增符號"/>
            <use width="3.3" height="6" transform="translate(771.6 212.7) rotate(158.3) scale(1)" xlink:href="#_新增符號"/>
            <use width="3.3" height="6" transform="translate(760.2 220.1) rotate(167.9) scale(1)" xlink:href="#_新增符號"/>
            <use width="3.3" height="6" transform="translate(746.4 232.9) rotate(140.6) scale(1)" xlink:href="#_新增符號"/>
            <use width="3.3" height="6" transform="translate(747.3 214.7) rotate(136.1) scale(1)" xlink:href="#_新增符號"/>
            <use width="3.3" height="6" transform="translate(774.6 189.9) rotate(178.3) scale(1)" xlink:href="#_新增符號"/>
            <use width="3.3" height="6" transform="translate(758.7 172.3) rotate(-164) scale(1)" xlink:href="#_新增符號"/>
            <use width="3.3" height="6" transform="translate(762.5 163) rotate(-173.6) scale(1)" xlink:href="#_新增符號"/>
            <use width="3.3" height="6" transform="translate(768.4 177) rotate(-161.6) scale(1)" xlink:href="#_新增符號"/>
            <use width="3.3" height="6" transform="translate(772.4 224) rotate(143.7) scale(1)" xlink:href="#_新增符號"/>
            <use width="3.3" height="6" transform="translate(755.4 262.2) rotate(153.5) scale(1)" xlink:href="#_新增符號"/>
            <use width="3.3" height="6" transform="translate(747.6 258.1) rotate(139.6) scale(1)" xlink:href="#_新增符號"/>
            <use width="3.3" height="6" transform="translate(770.7 166.6) rotate(-179.2) scale(1)" xlink:href="#_新增符號"/>
            <use width="3.3" height="6" transform="translate(773 247.4) rotate(-161.9) scale(1)" xlink:href="#_新增符號"/>
            <use width="3.3" height="6" transform="translate(781 263.4) rotate(-93.1) scale(1)" xlink:href="#_新增符號"/>
            <use width="3.3" height="6" transform="translate(758 294.3) rotate(-34) scale(1)" xlink:href="#_新增符號"/>
            <use width="3.3" height="6" transform="translate(788.2 351.6) rotate(-172.5) scale(1)" xlink:href="#_新增符號"/>
            <use width="3.3" height="6" transform="translate(790.2 372.8) rotate(-160.6) scale(1)" xlink:href="#_新增符號"/>
            <use width="3.3" height="6" transform="translate(786.7 381.4) rotate(-176.9) scale(1)" xlink:href="#_新增符號"/>
            <use width="3.3" height="6" transform="translate(754.9 315.8) rotate(.7) scale(1)" xlink:href="#_新增符號"/>
            <use width="3.3" height="6" transform="translate(759.1 342.4) rotate(166.3) scale(1)" xlink:href="#_新增符號"/>
            <use width="3.3" height="6" transform="translate(757.9 350.3) rotate(166.7) scale(1)" xlink:href="#_新增符號"/>
            <use width="3.3" height="6" transform="translate(768 135.4) rotate(158.5) scale(1)" xlink:href="#_新增符號"/>
            <use width="3.3" height="6" transform="translate(730.2 450.2) rotate(28.2) scale(1)" xlink:href="#_新增符號"/>
            <use width="3.3" height="6" transform="translate(720.7 463) rotate(26) scale(1)" xlink:href="#_新增符號"/>
            <use width="3.3" height="6" transform="translate(697.9 489.2) rotate(.2) scale(1)" xlink:href="#_新增符號"/>
            <use width="3.3" height="6" transform="translate(681 517.4) rotate(-8.1) scale(1)" xlink:href="#_新增符號"/>
            <use width="3.3" height="6" transform="translate(680.6 557.2) rotate(-6.5) scale(1)" xlink:href="#_新增符號"/>
            <use width="3.3" height="6" transform="translate(680.9 574.8) rotate(-16.1) scale(1)" xlink:href="#_新增符號"/>
            <use width="3.3" height="6" transform="translate(672.2 602) rotate(-16.1) scale(1)" xlink:href="#_新增符號"/>
            <use width="3.3" height="6" transform="translate(671.1 610) rotate(-.3) scale(1)" xlink:href="#_新增符號"/>
            <use width="3.3" height="6" transform="translate(690.9 604.7) rotate(3.1) scale(1)" xlink:href="#_新增符號"/>
            <use width="3.3" height="6" transform="translate(696.8 595.7) rotate(1.3) scale(1)" xlink:href="#_新增符號"/>
            <use width="3.3" height="6" transform="translate(704.6 558.8) rotate(-4.4) scale(1)" xlink:href="#_新增符號"/>
            <use width="3.3" height="6" transform="translate(710.3 536.4) rotate(.7) scale(1)" xlink:href="#_新增符號"/>
            <use width="3.3" height="6" transform="translate(721 526.8) rotate(15.4) scale(1)" xlink:href="#_新增符號"/>
            <use width="3.3" height="6" transform="translate(713.4 524) rotate(16.5) scale(1)" xlink:href="#_新增符號"/>
            <use width="3.3" height="6" transform="translate(714.2 547.8) rotate(-9.8) scale(1)" xlink:href="#_新增符號"/>
            <use width="3.3" height="6" transform="translate(714.8 586.2) rotate(-3.2) scale(1)" xlink:href="#_新增符號"/>
            <use width="3.3" height="6" transform="translate(716.5 618.5) rotate(-25.6) scale(1)" xlink:href="#_新增符號"/>
            <use width="3.3" height="6" transform="translate(719.5 637.4) rotate(-28.3) scale(1)" xlink:href="#_新增符號"/>
            <use width="3.3" height="6" transform="translate(711.4 657) rotate(-3.2) scale(1)" xlink:href="#_新增符號"/>
            <use width="3.3" height="6" transform="translate(709.2 649.4) rotate(-22) scale(1)" xlink:href="#_新增符號"/>
          </g>
        </g>
      </g>
    </g>
  </g>
</svg>